<?xml version="1.0" encoding="UTF-8" standalone="no"?>
<!DOCTYPE svg PUBLIC "-//W3C//DTD SVG 1.1//EN"
 "http://www.w3.org/Graphics/SVG/1.1/DTD/svg11.dtd">
<!-- Generated by graphviz version 2.43.0 (0)
 -->
<!-- Title: oneDegreeRelationshipsDiagram Pages: 1 -->
<svg width="610pt" height="269pt"
 viewBox="0.00 0.00 610.00 269.00" xmlns="http://www.w3.org/2000/svg" xmlns:xlink="http://www.w3.org/1999/xlink">
<g id="graph0" class="graph" transform="scale(1 1) rotate(0) translate(4 265)">
<title>oneDegreeRelationshipsDiagram</title>
<polygon fill="#ffffff" stroke="transparent" points="-4,4 -4,-265 606,-265 606,4 -4,4"/>
<text text-anchor="middle" x="79.5" y="-7.2" font-family="Helvetica,sans-Serif" font-size="11.00">Generated by SchemaSpy</text>
<!-- account_tag_transactions -->
<g id="node1" class="node">
<title>account_tag_transactions</title>
<g id="a_node1"><a xlink:href="../../tables/account_tag_transactions.html" xlink:title="account_tag_transactions" target="_top">
<polygon fill="#ffffff" stroke="transparent" points="268,-37 268,-257 594,-257 594,-37 268,-37"/>
<polygon fill="#f5f5f5" stroke="transparent" points="270,-233 270,-255 592,-255 592,-233 270,-233"/>
<polygon fill="none" stroke="black" points="270,-233 270,-255 592,-255 592,-233 270,-233"/>
<text text-anchor="start" x="275" y="-242.2" font-family="Helvetica,sans-Serif" font-weight="bold" font-size="11.00">account_tag_transactions</text>
<text text-anchor="start" x="550" y="-241.2" font-family="Helvetica,sans-Serif" font-size="11.00">[table]</text>
<polygon fill="none" stroke="black" points="270,-211 270,-233 477,-233 477,-211 270,-211"/>
<image xlink:href="../../images/primaryKeys.png" width="11px" height="12px" preserveAspectRatio="xMinYMin meet" x="275" y="-228"/>
<text text-anchor="start" x="290" y="-219.2" font-family="Helvetica,sans-Serif" font-size="11.00">id</text>
<polygon fill="none" stroke="black" points="477,-211 477,-233 592,-233 592,-211 477,-211"/>
<text text-anchor="start" x="480" y="-219.2" font-family="Helvetica,sans-Serif" font-size="11.00">bigserial[19]</text>
<polygon fill="#ffffff" stroke="transparent" points="270,-189 270,-211 477,-211 477,-189 270,-189"/>
<polygon fill="none" stroke="black" points="270,-189 270,-211 477,-211 477,-189 270,-189"/>
<image xlink:href="../../images/foreignKeys.png" width="11px" height="12px" preserveAspectRatio="xMinYMin meet" x="275" y="-206"/>
<text text-anchor="start" x="290" y="-197.2" font-family="Helvetica,sans-Serif" font-size="11.00">identity_id</text>
<polygon fill="none" stroke="black" points="477,-189 477,-211 592,-211 592,-189 477,-189"/>
<text text-anchor="start" x="480" y="-197.2" font-family="Helvetica,sans-Serif" font-size="11.00">int8[19]</text>
<polygon fill="none" stroke="black" points="270,-167 270,-189 477,-189 477,-167 270,-167"/>
<text text-anchor="start" x="290" y="-175.2" font-family="Helvetica,sans-Serif" font-size="11.00">inserted_at</text>
<polygon fill="none" stroke="black" points="477,-167 477,-189 592,-189 592,-167 477,-167"/>
<text text-anchor="start" x="480" y="-175.2" font-family="Helvetica,sans-Serif" font-size="11.00">timestamp[22]</text>
<polygon fill="none" stroke="black" points="270,-145 270,-167 477,-167 477,-145 270,-145"/>
<text text-anchor="start" x="290" y="-153.2" font-family="Helvetica,sans-Serif" font-size="11.00">updated_at</text>
<polygon fill="none" stroke="black" points="477,-145 477,-167 592,-167 592,-145 477,-145"/>
<text text-anchor="start" x="480" y="-153.2" font-family="Helvetica,sans-Serif" font-size="11.00">timestamp[22]</text>
<polygon fill="#ffffff" stroke="transparent" points="270,-123 270,-145 477,-145 477,-123 270,-123"/>
<polygon fill="none" stroke="black" points="270,-123 270,-145 477,-145 477,-123 270,-123"/>
<text text-anchor="start" x="290" y="-131.2" font-family="Helvetica,sans-Serif" font-size="11.00">transaction_hash_hash</text>
<polygon fill="none" stroke="black" points="477,-123 477,-145 592,-145 592,-123 477,-123"/>
<text text-anchor="start" x="480" y="-131.2" font-family="Helvetica,sans-Serif" font-size="11.00">bytea[2147483647]</text>
<polygon fill="none" stroke="black" points="270,-101 270,-123 477,-123 477,-101 270,-101"/>
<text text-anchor="start" x="290" y="-109.2" font-family="Helvetica,sans-Serif" font-size="11.00">name</text>
<polygon fill="none" stroke="black" points="477,-101 477,-123 592,-123 592,-101 477,-101"/>
<text text-anchor="start" x="480" y="-109.2" font-family="Helvetica,sans-Serif" font-size="11.00">bytea[2147483647]</text>
<polygon fill="none" stroke="black" points="270,-79 270,-101 477,-101 477,-79 270,-79"/>
<text text-anchor="start" x="290" y="-87.2" font-family="Helvetica,sans-Serif" font-size="11.00">transaction_hash</text>
<polygon fill="none" stroke="black" points="477,-79 477,-101 592,-101 592,-79 477,-79"/>
<text text-anchor="start" x="480" y="-87.2" font-family="Helvetica,sans-Serif" font-size="11.00">bytea[2147483647]</text>
<polygon fill="none" stroke="black" points="270,-57 270,-79 477,-79 477,-57 270,-57"/>
<text text-anchor="start" x="290" y="-65.2" font-family="Helvetica,sans-Serif" font-size="11.00">user_created</text>
<polygon fill="none" stroke="black" points="477,-57 477,-79 592,-79 592,-57 477,-57"/>
<text text-anchor="start" x="480" y="-65.2" font-family="Helvetica,sans-Serif" font-size="11.00">bool[1]</text>
<polygon fill="#ffffff" stroke="transparent" points="270,-39 270,-57 592,-57 592,-39 270,-39"/>
<polygon fill="none" stroke="black" points="270,-39 270,-57 592,-57 592,-39 270,-39"/>
<polygon fill="#ffffff" stroke="transparent" points="271,-40 271,-56 382,-56 382,-40 271,-40"/>
<text text-anchor="start" x="273" y="-45.2" font-family="Helvetica,sans-Serif" font-size="11.00">&lt; 1</text>
<polygon fill="#ffffff" stroke="transparent" points="382,-40 382,-56 481,-56 481,-40 382,-40"/>
<text text-anchor="start" x="427.5" y="-45.2" font-family="Helvetica,sans-Serif" font-size="11.00"> &#160;</text>
<polygon fill="#ffffff" stroke="transparent" points="481,-40 481,-56 591,-56 591,-40 481,-40"/>
<text text-anchor="start" x="569" y="-45.2" font-family="Helvetica,sans-Serif" font-size="11.00">0 &gt;</text>
<polygon fill="black" stroke="black" points="382,-40 382,-56 382,-56 382,-40 382,-40"/>
<polygon fill="black" stroke="black" points="481,-40 481,-56 481,-56 481,-40 481,-40"/>
<polygon fill="none" stroke="black" stroke-width="2" points="269,-38 269,-256 593,-256 593,-38 269,-38"/>
</a>
</g>
</g>
<!-- account_identities -->
<g id="node2" class="node">
<title>account_identities</title>
<g id="a_node2"><a xlink:href="../../tables/account_identities.html" xlink:title="account_identities" target="_top">
<polygon fill="#ffffff" stroke="transparent" points="8,-109 8,-233 219,-233 219,-109 8,-109"/>
<polygon fill="#f5f5f5" stroke="transparent" points="8.5,-211 8.5,-233 219.5,-233 219.5,-211 8.5,-211"/>
<polygon fill="none" stroke="black" points="8.5,-211 8.5,-233 219.5,-233 219.5,-211 8.5,-211"/>
<text text-anchor="start" x="13.5" y="-220.2" font-family="Helvetica,sans-Serif" font-weight="bold" font-size="11.00">account_identities</text>
<text text-anchor="start" x="177.5" y="-219.2" font-family="Helvetica,sans-Serif" font-size="11.00">[table]</text>
<polygon fill="none" stroke="black" points="8.5,-189 8.5,-211 219.5,-211 219.5,-189 8.5,-189"/>
<image xlink:href="../../images/primaryKeys.png" width="11px" height="12px" preserveAspectRatio="xMinYMin meet" x="13.5" y="-206"/>
<text text-anchor="start" x="28.5" y="-197.2" font-family="Helvetica,sans-Serif" font-size="11.00">id</text>
<polygon fill="none" stroke="black" points="8.5,-167 8.5,-189 219.5,-189 219.5,-167 8.5,-167"/>
<image xlink:href="../../images/foreignKeys.png" width="11px" height="12px" preserveAspectRatio="xMinYMin meet" x="13.5" y="-184"/>
<text text-anchor="start" x="28.5" y="-175.2" font-family="Helvetica,sans-Serif" font-size="11.00">plan_id</text>
<polygon fill="#ffffff" stroke="transparent" points="8.5,-145 8.5,-167 219.5,-167 219.5,-145 8.5,-145"/>
<polygon fill="none" stroke="black" points="8.5,-145 8.5,-167 219.5,-167 219.5,-145 8.5,-145"/>
<text text-anchor="start" x="28.5" y="-153.2" font-family="Helvetica,sans-Serif" font-size="11.00">uid_hash</text>
<polygon fill="none" stroke="black" points="8.5,-127 8.5,-145 219.5,-145 219.5,-127 8.5,-127"/>
<text text-anchor="start" x="11.5" y="-133.2" font-family="Helvetica,sans-Serif" font-size="11.00">...</text>
<polygon fill="#ffffff" stroke="transparent" points="8.5,-109 8.5,-127 219.5,-127 219.5,-109 8.5,-109"/>
<polygon fill="none" stroke="black" points="8.5,-109 8.5,-127 219.5,-127 219.5,-109 8.5,-109"/>
<polygon fill="#ffffff" stroke="transparent" points="9.5,-110 9.5,-126 83.5,-126 83.5,-110 9.5,-110"/>
<text text-anchor="start" x="11.5" y="-115.2" font-family="Helvetica,sans-Serif" font-size="11.00">&lt; 1</text>
<polygon fill="#ffffff" stroke="transparent" points="83.5,-110 83.5,-126 145.5,-126 145.5,-110 83.5,-110"/>
<text text-anchor="start" x="110.5" y="-115.2" font-family="Helvetica,sans-Serif" font-size="11.00"> &#160;</text>
<polygon fill="#ffffff" stroke="transparent" points="145.5,-110 145.5,-126 218.5,-126 218.5,-110 145.5,-110"/>
<text text-anchor="start" x="196.5" y="-115.2" font-family="Helvetica,sans-Serif" font-size="11.00">5 &gt;</text>
<polygon fill="black" stroke="black" points="83.5,-110 83.5,-126 83.5,-126 83.5,-110 83.5,-110"/>
<polygon fill="black" stroke="black" points="145.5,-110 145.5,-126 145.5,-126 145.5,-110 145.5,-110"/>
</a>
</g>
</g>
<!-- account_tag_transactions&#45;&gt;account_identities -->
<g id="edge1" class="edge">
<title>account_tag_transactions:w&#45;&gt;account_identities:e</title>
<path fill="none" stroke="black" d="M254.28,-200C243.29,-200 236.16,-200 220.5,-200"/>
<polygon fill="black" stroke="black" points="261,-200 269,-203.6 265,-200 269,-200 269,-200 269,-200 265,-200 269,-196.4 261,-200 261,-200"/>
<ellipse fill="none" stroke="black" cx="257.8" cy="-200" rx="3.2" ry="3.2"/>
</g>
</g>
</svg>
