<?xml version="1.0" encoding="UTF-8" standalone="no"?>
<!DOCTYPE svg PUBLIC "-//W3C//DTD SVG 1.1//EN"
 "http://www.w3.org/Graphics/SVG/1.1/DTD/svg11.dtd">
<!-- Generated by graphviz version 9.0.0 (20230911.1827)
 -->
<!-- Title: oneDegreeRelationshipsDiagram Pages: 1 -->
<svg width="503pt" height="247pt"
 viewBox="0.00 0.00 503.00 247.00" xmlns="http://www.w3.org/2000/svg" xmlns:xlink="http://www.w3.org/1999/xlink">
<g id="graph0" class="graph" transform="scale(1 1) rotate(0) translate(4 243)">
<title>oneDegreeRelationshipsDiagram</title>
<polygon fill="#ffffff" stroke="none" points="-4,4 -4,-243 499,-243 499,4 -4,4"/>
<text text-anchor="middle" x="71.38" y="-5.55" font-family="Helvetica,sans-Serif" font-size="11.00">Generated by SchemaSpy</text>
<!-- account_tag_addresses -->
<g id="node1" class="node">
<title>account_tag_addresses</title>
<g id="a_node1"><a xlink:href="../../tables/account_tag_addresses.html" xlink:title="account_tag_addresses" target="_top">
<polygon fill="#ffffff" stroke="none" points="228,-37 228,-235 487,-235 487,-37 228,-37"/>
<polygon fill="#f5f5f5" stroke="none" points="230,-211 230,-233 485,-233 485,-211 230,-211"/>
<polygon fill="none" stroke="black" points="230,-211 230,-233 485,-233 485,-211 230,-211"/>
<text text-anchor="start" x="235" y="-218.55" font-family="Helvetica,sans-Serif" font-weight="bold" font-size="11.00">account_tag_addresses</text>
<text text-anchor="start" x="450.75" y="-217.55" font-family="Helvetica,sans-Serif" font-size="11.00">[table]</text>
<polygon fill="none" stroke="black" points="230,-189 230,-211 387,-211 387,-189 230,-189"/>
<image xlink:href="../../images/primaryKeys.png" width="11px" height="12px" preserveAspectRatio="xMinYMin meet" x="235" y="-206"/>
<text text-anchor="start" x="250" y="-195.55" font-family="Helvetica,sans-Serif" font-size="11.00">id</text>
<polygon fill="none" stroke="black" points="387,-189 387,-211 485,-211 485,-189 387,-189"/>
<text text-anchor="start" x="390" y="-195.55" font-family="Helvetica,sans-Serif" font-size="11.00">bigserial[19]</text>
<polygon fill="#ffffff" stroke="none" points="230,-167 230,-189 387,-189 387,-167 230,-167"/>
<polygon fill="none" stroke="black" points="230,-167 230,-189 387,-189 387,-167 230,-167"/>
<image xlink:href="../../images/foreignKeys.png" width="11px" height="12px" preserveAspectRatio="xMinYMin meet" x="235" y="-184"/>
<text text-anchor="start" x="250" y="-173.55" font-family="Helvetica,sans-Serif" font-size="11.00">identity_id</text>
<polygon fill="none" stroke="black" points="387,-167 387,-189 485,-189 485,-167 387,-167"/>
<text text-anchor="start" x="390" y="-173.55" font-family="Helvetica,sans-Serif" font-size="11.00">int8[19]</text>
<polygon fill="none" stroke="black" points="230,-145 230,-167 387,-167 387,-145 230,-145"/>
<text text-anchor="start" x="250" y="-151.55" font-family="Helvetica,sans-Serif" font-size="11.00">inserted_at</text>
<polygon fill="none" stroke="black" points="387,-145 387,-167 485,-167 485,-145 387,-145"/>
<text text-anchor="start" x="390" y="-151.55" font-family="Helvetica,sans-Serif" font-size="11.00">timestamp[22]</text>
<polygon fill="none" stroke="black" points="230,-123 230,-145 387,-145 387,-123 230,-123"/>
<text text-anchor="start" x="250" y="-129.55" font-family="Helvetica,sans-Serif" font-size="11.00">updated_at</text>
<polygon fill="none" stroke="black" points="387,-123 387,-145 485,-145 485,-123 387,-123"/>
<text text-anchor="start" x="390" y="-129.55" font-family="Helvetica,sans-Serif" font-size="11.00">timestamp[22]</text>
<polygon fill="#ffffff" stroke="none" points="230,-101 230,-123 387,-123 387,-101 230,-101"/>
<polygon fill="none" stroke="black" points="230,-101 230,-123 387,-123 387,-101 230,-101"/>
<text text-anchor="start" x="250" y="-107.55" font-family="Helvetica,sans-Serif" font-size="11.00">address_hash_hash</text>
<polygon fill="none" stroke="black" points="387,-101 387,-123 485,-123 485,-101 387,-101"/>
<text text-anchor="start" x="389.88" y="-107.55" font-family="Helvetica,sans-Serif" font-size="11.00">bytea[2147483647]</text>
<polygon fill="none" stroke="black" points="230,-79 230,-101 387,-101 387,-79 230,-79"/>
<text text-anchor="start" x="250" y="-85.55" font-family="Helvetica,sans-Serif" font-size="11.00">name</text>
<polygon fill="none" stroke="black" points="387,-79 387,-101 485,-101 485,-79 387,-79"/>
<text text-anchor="start" x="389.88" y="-85.55" font-family="Helvetica,sans-Serif" font-size="11.00">bytea[2147483647]</text>
<polygon fill="none" stroke="black" points="230,-57 230,-79 387,-79 387,-57 230,-57"/>
<text text-anchor="start" x="250" y="-63.55" font-family="Helvetica,sans-Serif" font-size="11.00">address_hash</text>
<polygon fill="none" stroke="black" points="387,-57 387,-79 485,-79 485,-57 387,-57"/>
<text text-anchor="start" x="389.88" y="-63.55" font-family="Helvetica,sans-Serif" font-size="11.00">bytea[2147483647]</text>
<polygon fill="#ffffff" stroke="none" points="230,-39 230,-57 313,-57 313,-39 230,-39"/>
<polygon fill="none" stroke="black" points="230,-39 230,-57 313,-57 313,-39 230,-39"/>
<text text-anchor="start" x="233" y="-43.55" font-family="Helvetica,sans-Serif" font-size="11.00">&lt; 1</text>
<polygon fill="#ffffff" stroke="none" points="313,-39 313,-57 387,-57 387,-39 313,-39"/>
<polygon fill="none" stroke="black" points="313,-39 313,-57 387,-57 387,-39 313,-39"/>
<text text-anchor="start" x="378" y="-43.55" font-family="Helvetica,sans-Serif" font-size="11.00"> &#160;</text>
<polygon fill="#ffffff" stroke="none" points="387,-39 387,-57 485,-57 485,-39 387,-39"/>
<polygon fill="none" stroke="black" points="387,-39 387,-57 485,-57 485,-39 387,-39"/>
<text text-anchor="start" x="466.25" y="-43.55" font-family="Helvetica,sans-Serif" font-size="11.00">0 &gt;</text>
<polygon fill="none" stroke="black" stroke-width="2" points="229,-38 229,-234 486,-234 486,-38 229,-38"/>
</a>
</g>
</g>
<!-- account_identities -->
<g id="node2" class="node">
<title>account_identities</title>
<g id="a_node2"><a xlink:href="../../tables/account_identities.html" xlink:title="account_identities" target="_top">
<polygon fill="#ffffff" stroke="none" points="8,-87 8,-211 179,-211 179,-87 8,-87"/>
<polygon fill="#f5f5f5" stroke="none" points="8,-189 8,-211 179,-211 179,-189 8,-189"/>
<polygon fill="none" stroke="black" points="8,-189 8,-211 179,-211 179,-189 8,-189"/>
<text text-anchor="start" x="13" y="-196.55" font-family="Helvetica,sans-Serif" font-weight="bold" font-size="11.00">account_identities</text>
<text text-anchor="start" x="144.75" y="-195.55" font-family="Helvetica,sans-Serif" font-size="11.00">[table]</text>
<polygon fill="none" stroke="black" points="8,-167 8,-189 179,-189 179,-167 8,-167"/>
<image xlink:href="../../images/primaryKeys.png" width="11px" height="12px" preserveAspectRatio="xMinYMin meet" x="13" y="-184"/>
<text text-anchor="start" x="28" y="-173.55" font-family="Helvetica,sans-Serif" font-size="11.00">id</text>
<polygon fill="none" stroke="black" points="8,-145 8,-167 179,-167 179,-145 8,-145"/>
<image xlink:href="../../images/foreignKeys.png" width="11px" height="12px" preserveAspectRatio="xMinYMin meet" x="13" y="-162"/>
<text text-anchor="start" x="28" y="-151.55" font-family="Helvetica,sans-Serif" font-size="11.00">plan_id</text>
<polygon fill="#ffffff" stroke="none" points="8,-123 8,-145 179,-145 179,-123 8,-123"/>
<polygon fill="none" stroke="black" points="8,-123 8,-145 179,-145 179,-123 8,-123"/>
<text text-anchor="start" x="28" y="-129.55" font-family="Helvetica,sans-Serif" font-size="11.00">uid_hash</text>
<polygon fill="none" stroke="black" points="8,-105 8,-123 179,-123 179,-105 8,-105"/>
<text text-anchor="start" x="11" y="-109.55" font-family="Helvetica,sans-Serif" font-size="11.00">...</text>
<polygon fill="#ffffff" stroke="none" points="8,-87 8,-105 87,-105 87,-87 8,-87"/>
<polygon fill="none" stroke="black" points="8,-87 8,-105 87,-105 87,-87 8,-87"/>
<text text-anchor="start" x="11" y="-91.55" font-family="Helvetica,sans-Serif" font-size="11.00">&lt; 1</text>
<polygon fill="#ffffff" stroke="none" points="87,-87 87,-105 128,-105 128,-87 87,-87"/>
<polygon fill="none" stroke="black" points="87,-87 87,-105 128,-105 128,-87 87,-87"/>
<text text-anchor="start" x="119" y="-91.55" font-family="Helvetica,sans-Serif" font-size="11.00"> &#160;</text>
<polygon fill="#ffffff" stroke="none" points="128,-87 128,-105 179,-105 179,-87 128,-87"/>
<polygon fill="none" stroke="black" points="128,-87 128,-105 179,-105 179,-87 128,-87"/>
<text text-anchor="start" x="160.25" y="-91.55" font-family="Helvetica,sans-Serif" font-size="11.00">6 &gt;</text>
</a>
</g>
</g>
<!-- account_tag_addresses&#45;&gt;account_identities -->
<g id="edge1" class="edge">
<title>account_tag_addresses:w&#45;&gt;account_identities:e</title>
<path fill="none" stroke="black" d="M212.89,-178C202.59,-178 195.5,-178 180.5,-178"/>
<polygon fill="black" stroke="black" points="220.17,-178 228.17,-181.6 224.5,-178 227.83,-178 227.83,-178 227.83,-178 224.5,-178 228.17,-174.4 220.17,-178"/>
<ellipse fill="none" stroke="black" cx="215.25" cy="-178" rx="3.2" ry="3.2"/>
</g>
</g>
</svg>
