<?xml version="1.0" encoding="UTF-8" standalone="no"?>
<!DOCTYPE svg PUBLIC "-//W3C//DTD SVG 1.1//EN"
 "http://www.w3.org/Graphics/SVG/1.1/DTD/svg11.dtd">
<!-- Generated by graphviz version 9.0.0 (20230911.1827)
 -->
<!-- Title: oneDegreeRelationshipsDiagram Pages: 1 -->
<svg width="549pt" height="445pt"
 viewBox="0.00 0.00 549.00 445.00" xmlns="http://www.w3.org/2000/svg" xmlns:xlink="http://www.w3.org/1999/xlink">
<g id="graph0" class="graph" transform="scale(1 1) rotate(0) translate(4 441)">
<title>oneDegreeRelationshipsDiagram</title>
<polygon fill="#ffffff" stroke="none" points="-4,4 -4,-441 545,-441 545,4 -4,4"/>
<text text-anchor="middle" x="71.38" y="-5.55" font-family="Helvetica,sans-Serif" font-size="11.00">Generated by SchemaSpy</text>
<!-- account_public_tags_requests -->
<g id="node1" class="node">
<title>account_public_tags_requests</title>
<g id="a_node1"><a xlink:href="../../tables/account_public_tags_requests.html" xlink:title="account_public_tags_requests" target="_top">
<polygon fill="#ffffff" stroke="none" points="228,-37 228,-433 533,-433 533,-37 228,-37"/>
<polygon fill="#f5f5f5" stroke="none" points="230,-409 230,-431 531,-431 531,-409 230,-409"/>
<polygon fill="none" stroke="black" points="230,-409 230,-431 531,-431 531,-409 230,-409"/>
<text text-anchor="start" x="235" y="-416.55" font-family="Helvetica,sans-Serif" font-weight="bold" font-size="11.00">account_public_tags_requests</text>
<text text-anchor="start" x="496.75" y="-415.55" font-family="Helvetica,sans-Serif" font-size="11.00">[table]</text>
<polygon fill="none" stroke="black" points="230,-387 230,-409 427,-409 427,-387 230,-387"/>
<image xlink:href="../../images/primaryKeys.png" width="11px" height="12px" preserveAspectRatio="xMinYMin meet" x="235" y="-404"/>
<text text-anchor="start" x="250" y="-393.55" font-family="Helvetica,sans-Serif" font-size="11.00">id</text>
<polygon fill="none" stroke="black" points="427,-387 427,-409 531,-409 531,-387 427,-387"/>
<text text-anchor="start" x="430" y="-393.55" font-family="Helvetica,sans-Serif" font-size="11.00">bigserial[19]</text>
<polygon fill="none" stroke="black" points="230,-365 230,-387 427,-387 427,-365 230,-365"/>
<image xlink:href="../../images/foreignKeys.png" width="11px" height="12px" preserveAspectRatio="xMinYMin meet" x="235" y="-382"/>
<text text-anchor="start" x="250" y="-371.55" font-family="Helvetica,sans-Serif" font-size="11.00">identity_id</text>
<polygon fill="none" stroke="black" points="427,-365 427,-387 531,-387 531,-365 427,-365"/>
<text text-anchor="start" x="430" y="-371.55" font-family="Helvetica,sans-Serif" font-size="11.00">int8[19]</text>
<polygon fill="none" stroke="black" points="230,-343 230,-365 427,-365 427,-343 230,-343"/>
<text text-anchor="start" x="250" y="-349.55" font-family="Helvetica,sans-Serif" font-size="11.00">company</text>
<polygon fill="none" stroke="black" points="427,-343 427,-365 531,-365 531,-343 427,-343"/>
<text text-anchor="start" x="430" y="-349.55" font-family="Helvetica,sans-Serif" font-size="11.00">varchar[255]</text>
<polygon fill="none" stroke="black" points="230,-321 230,-343 427,-343 427,-321 230,-321"/>
<text text-anchor="start" x="250" y="-327.55" font-family="Helvetica,sans-Serif" font-size="11.00">website</text>
<polygon fill="none" stroke="black" points="427,-321 427,-343 531,-343 531,-321 427,-321"/>
<text text-anchor="start" x="430" y="-327.55" font-family="Helvetica,sans-Serif" font-size="11.00">varchar[255]</text>
<polygon fill="none" stroke="black" points="230,-299 230,-321 427,-321 427,-299 230,-299"/>
<text text-anchor="start" x="250" y="-305.55" font-family="Helvetica,sans-Serif" font-size="11.00">tags</text>
<polygon fill="none" stroke="black" points="427,-299 427,-321 531,-321 531,-299 427,-299"/>
<text text-anchor="start" x="430" y="-305.55" font-family="Helvetica,sans-Serif" font-size="11.00">varchar[255]</text>
<polygon fill="none" stroke="black" points="230,-277 230,-299 427,-299 427,-277 230,-277"/>
<text text-anchor="start" x="250" y="-283.55" font-family="Helvetica,sans-Serif" font-size="11.00">description</text>
<polygon fill="none" stroke="black" points="427,-277 427,-299 531,-299 531,-277 427,-277"/>
<text text-anchor="start" x="430" y="-283.55" font-family="Helvetica,sans-Serif" font-size="11.00">text[2147483647]</text>
<polygon fill="none" stroke="black" points="230,-255 230,-277 427,-277 427,-255 230,-255"/>
<text text-anchor="start" x="250" y="-261.55" font-family="Helvetica,sans-Serif" font-size="11.00">additional_comment</text>
<polygon fill="none" stroke="black" points="427,-255 427,-277 531,-277 531,-255 427,-255"/>
<text text-anchor="start" x="430" y="-261.55" font-family="Helvetica,sans-Serif" font-size="11.00">varchar[255]</text>
<polygon fill="none" stroke="black" points="230,-233 230,-255 427,-255 427,-233 230,-233"/>
<text text-anchor="start" x="250" y="-239.55" font-family="Helvetica,sans-Serif" font-size="11.00">request_type</text>
<polygon fill="none" stroke="black" points="427,-233 427,-255 531,-255 531,-233 427,-233"/>
<text text-anchor="start" x="430" y="-239.55" font-family="Helvetica,sans-Serif" font-size="11.00">varchar[255]</text>
<polygon fill="none" stroke="black" points="230,-211 230,-233 427,-233 427,-211 230,-211"/>
<text text-anchor="start" x="250" y="-217.55" font-family="Helvetica,sans-Serif" font-size="11.00">is_owner</text>
<polygon fill="none" stroke="black" points="427,-211 427,-233 531,-233 531,-211 427,-211"/>
<text text-anchor="start" x="430" y="-217.55" font-family="Helvetica,sans-Serif" font-size="11.00">bool[1]</text>
<polygon fill="none" stroke="black" points="230,-189 230,-211 427,-211 427,-189 230,-189"/>
<text text-anchor="start" x="250" y="-195.55" font-family="Helvetica,sans-Serif" font-size="11.00">remove_reason</text>
<polygon fill="none" stroke="black" points="427,-189 427,-211 531,-211 531,-189 427,-189"/>
<text text-anchor="start" x="430" y="-195.55" font-family="Helvetica,sans-Serif" font-size="11.00">text[2147483647]</text>
<polygon fill="none" stroke="black" points="230,-167 230,-189 427,-189 427,-167 230,-167"/>
<text text-anchor="start" x="250" y="-173.55" font-family="Helvetica,sans-Serif" font-size="11.00">request_id</text>
<polygon fill="none" stroke="black" points="427,-167 427,-189 531,-189 531,-167 427,-167"/>
<text text-anchor="start" x="430" y="-173.55" font-family="Helvetica,sans-Serif" font-size="11.00">varchar[255]</text>
<polygon fill="none" stroke="black" points="230,-145 230,-167 427,-167 427,-145 230,-145"/>
<text text-anchor="start" x="250" y="-151.55" font-family="Helvetica,sans-Serif" font-size="11.00">inserted_at</text>
<polygon fill="none" stroke="black" points="427,-145 427,-167 531,-167 531,-145 427,-145"/>
<text text-anchor="start" x="430" y="-151.55" font-family="Helvetica,sans-Serif" font-size="11.00">timestamp[22]</text>
<polygon fill="none" stroke="black" points="230,-123 230,-145 427,-145 427,-123 230,-123"/>
<text text-anchor="start" x="250" y="-129.55" font-family="Helvetica,sans-Serif" font-size="11.00">updated_at</text>
<polygon fill="none" stroke="black" points="427,-123 427,-145 531,-145 531,-123 427,-123"/>
<text text-anchor="start" x="430" y="-129.55" font-family="Helvetica,sans-Serif" font-size="11.00">timestamp[22]</text>
<polygon fill="none" stroke="black" points="230,-101 230,-123 427,-123 427,-101 230,-101"/>
<text text-anchor="start" x="250" y="-107.55" font-family="Helvetica,sans-Serif" font-size="11.00">addresses</text>
<polygon fill="none" stroke="black" points="427,-101 427,-123 531,-123 531,-101 427,-101"/>
<text text-anchor="start" x="429.88" y="-107.55" font-family="Helvetica,sans-Serif" font-size="11.00">_bytea[2147483647]</text>
<polygon fill="none" stroke="black" points="230,-79 230,-101 427,-101 427,-79 230,-79"/>
<text text-anchor="start" x="250" y="-85.55" font-family="Helvetica,sans-Serif" font-size="11.00">email</text>
<polygon fill="none" stroke="black" points="427,-79 427,-101 531,-101 531,-79 427,-79"/>
<text text-anchor="start" x="430" y="-85.55" font-family="Helvetica,sans-Serif" font-size="11.00">bytea[2147483647]</text>
<polygon fill="none" stroke="black" points="230,-57 230,-79 427,-79 427,-57 230,-57"/>
<text text-anchor="start" x="250" y="-63.55" font-family="Helvetica,sans-Serif" font-size="11.00">full_name</text>
<polygon fill="none" stroke="black" points="427,-57 427,-79 531,-79 531,-57 427,-57"/>
<text text-anchor="start" x="430" y="-63.55" font-family="Helvetica,sans-Serif" font-size="11.00">bytea[2147483647]</text>
<polygon fill="#ffffff" stroke="none" points="230,-39 230,-57 333,-57 333,-39 230,-39"/>
<polygon fill="none" stroke="black" points="230,-39 230,-57 333,-57 333,-39 230,-39"/>
<text text-anchor="start" x="233" y="-43.55" font-family="Helvetica,sans-Serif" font-size="11.00">&lt; 1</text>
<polygon fill="#ffffff" stroke="none" points="333,-39 333,-57 427,-57 427,-39 333,-39"/>
<polygon fill="none" stroke="black" points="333,-39 333,-57 427,-57 427,-39 333,-39"/>
<text text-anchor="start" x="418" y="-43.55" font-family="Helvetica,sans-Serif" font-size="11.00"> &#160;</text>
<polygon fill="#ffffff" stroke="none" points="427,-39 427,-57 531,-57 531,-39 427,-39"/>
<polygon fill="none" stroke="black" points="427,-39 427,-57 531,-57 531,-39 427,-39"/>
<text text-anchor="start" x="512.25" y="-43.55" font-family="Helvetica,sans-Serif" font-size="11.00">0 &gt;</text>
<polygon fill="none" stroke="black" stroke-width="2" points="229,-38 229,-432 532,-432 532,-38 229,-38"/>
</a>
</g>
</g>
<!-- account_identities -->
<g id="node2" class="node">
<title>account_identities</title>
<g id="a_node2"><a xlink:href="../../tables/account_identities.html" xlink:title="account_identities" target="_top">
<polygon fill="#ffffff" stroke="none" points="8,-285 8,-409 179,-409 179,-285 8,-285"/>
<polygon fill="#f5f5f5" stroke="none" points="8,-387 8,-409 179,-409 179,-387 8,-387"/>
<polygon fill="none" stroke="black" points="8,-387 8,-409 179,-409 179,-387 8,-387"/>
<text text-anchor="start" x="13" y="-394.55" font-family="Helvetica,sans-Serif" font-weight="bold" font-size="11.00">account_identities</text>
<text text-anchor="start" x="144.75" y="-393.55" font-family="Helvetica,sans-Serif" font-size="11.00">[table]</text>
<polygon fill="none" stroke="black" points="8,-365 8,-387 179,-387 179,-365 8,-365"/>
<image xlink:href="../../images/primaryKeys.png" width="11px" height="12px" preserveAspectRatio="xMinYMin meet" x="13" y="-382"/>
<text text-anchor="start" x="28" y="-371.55" font-family="Helvetica,sans-Serif" font-size="11.00">id</text>
<polygon fill="none" stroke="black" points="8,-343 8,-365 179,-365 179,-343 8,-343"/>
<image xlink:href="../../images/foreignKeys.png" width="11px" height="12px" preserveAspectRatio="xMinYMin meet" x="13" y="-360"/>
<text text-anchor="start" x="28" y="-349.55" font-family="Helvetica,sans-Serif" font-size="11.00">plan_id</text>
<polygon fill="#ffffff" stroke="none" points="8,-321 8,-343 179,-343 179,-321 8,-321"/>
<polygon fill="none" stroke="black" points="8,-321 8,-343 179,-343 179,-321 8,-321"/>
<text text-anchor="start" x="28" y="-327.55" font-family="Helvetica,sans-Serif" font-size="11.00">uid_hash</text>
<polygon fill="none" stroke="black" points="8,-303 8,-321 179,-321 179,-303 8,-303"/>
<text text-anchor="start" x="11" y="-307.55" font-family="Helvetica,sans-Serif" font-size="11.00">...</text>
<polygon fill="#ffffff" stroke="none" points="8,-285 8,-303 87,-303 87,-285 8,-285"/>
<polygon fill="none" stroke="black" points="8,-285 8,-303 87,-303 87,-285 8,-285"/>
<text text-anchor="start" x="11" y="-289.55" font-family="Helvetica,sans-Serif" font-size="11.00">&lt; 1</text>
<polygon fill="#ffffff" stroke="none" points="87,-285 87,-303 128,-303 128,-285 87,-285"/>
<polygon fill="none" stroke="black" points="87,-285 87,-303 128,-303 128,-285 87,-285"/>
<text text-anchor="start" x="119" y="-289.55" font-family="Helvetica,sans-Serif" font-size="11.00"> &#160;</text>
<polygon fill="#ffffff" stroke="none" points="128,-285 128,-303 179,-303 179,-285 128,-285"/>
<polygon fill="none" stroke="black" points="128,-285 128,-303 179,-303 179,-285 128,-285"/>
<text text-anchor="start" x="160.25" y="-289.55" font-family="Helvetica,sans-Serif" font-size="11.00">6 &gt;</text>
</a>
</g>
</g>
<!-- account_public_tags_requests&#45;&gt;account_identities -->
<g id="edge1" class="edge">
<title>account_public_tags_requests:w&#45;&gt;account_identities:e</title>
<path fill="none" stroke="black" d="M212.89,-376C202.59,-376 195.5,-376 180.5,-376"/>
<polygon fill="black" stroke="black" points="220.17,-376 228.17,-379.6 224.5,-376 227.83,-376 227.83,-376 227.83,-376 224.5,-376 228.17,-372.4 220.17,-376"/>
<ellipse fill="none" stroke="black" cx="215.25" cy="-376" rx="3.2" ry="3.2"/>
</g>
</g>
</svg>
