<?xml version="1.0" encoding="UTF-8" standalone="no"?>
<!DOCTYPE svg PUBLIC "-//W3C//DTD SVG 1.1//EN"
 "http://www.w3.org/Graphics/SVG/1.1/DTD/svg11.dtd">
<!-- Generated by graphviz version 2.43.0 (0)
 -->
<!-- Title: oneDegreeRelationshipsDiagram Pages: 1 -->
<svg width="610pt" height="577pt"
 viewBox="0.00 0.00 610.00 577.00" xmlns="http://www.w3.org/2000/svg" xmlns:xlink="http://www.w3.org/1999/xlink">
<g id="graph0" class="graph" transform="scale(1 1) rotate(0) translate(4 573)">
<title>oneDegreeRelationshipsDiagram</title>
<polygon fill="#ffffff" stroke="transparent" points="-4,4 -4,-573 606,-573 606,4 -4,4"/>
<text text-anchor="middle" x="79.5" y="-7.2" font-family="Helvetica,sans-Serif" font-size="11.00">Generated by SchemaSpy</text>
<!-- account_watchlist_addresses -->
<g id="node1" class="node">
<title>account_watchlist_addresses</title>
<g id="a_node1"><a xlink:href="../../tables/account_watchlist_addresses.html" xlink:title="account_watchlist_addresses" target="_top">
<polygon fill="#ffffff" stroke="transparent" points="242,-37 242,-565 594,-565 594,-37 242,-37"/>
<polygon fill="#f5f5f5" stroke="transparent" points="244,-541 244,-563 592,-563 592,-541 244,-541"/>
<polygon fill="none" stroke="black" points="244,-541 244,-563 592,-563 592,-541 244,-541"/>
<text text-anchor="start" x="249" y="-550.2" font-family="Helvetica,sans-Serif" font-weight="bold" font-size="11.00">account_watchlist_addresses</text>
<text text-anchor="start" x="550" y="-549.2" font-family="Helvetica,sans-Serif" font-size="11.00">[table]</text>
<polygon fill="none" stroke="black" points="244,-519 244,-541 477,-541 477,-519 244,-519"/>
<image xlink:href="../../images/primaryKeys.png" width="11px" height="12px" preserveAspectRatio="xMinYMin meet" x="249" y="-536"/>
<text text-anchor="start" x="264" y="-527.2" font-family="Helvetica,sans-Serif" font-size="11.00">id</text>
<polygon fill="none" stroke="black" points="477,-519 477,-541 592,-541 592,-519 477,-519"/>
<text text-anchor="start" x="480" y="-527.2" font-family="Helvetica,sans-Serif" font-size="11.00">bigserial[19]</text>
<polygon fill="#ffffff" stroke="transparent" points="244,-497 244,-519 477,-519 477,-497 244,-497"/>
<polygon fill="none" stroke="black" points="244,-497 244,-519 477,-519 477,-497 244,-497"/>
<image xlink:href="../../images/foreignKeys.png" width="11px" height="12px" preserveAspectRatio="xMinYMin meet" x="249" y="-514"/>
<text text-anchor="start" x="264" y="-505.2" font-family="Helvetica,sans-Serif" font-size="11.00">watchlist_id</text>
<polygon fill="none" stroke="black" points="477,-497 477,-519 592,-519 592,-497 477,-497"/>
<text text-anchor="start" x="480" y="-505.2" font-family="Helvetica,sans-Serif" font-size="11.00">int8[19]</text>
<polygon fill="none" stroke="black" points="244,-475 244,-497 477,-497 477,-475 244,-475"/>
<text text-anchor="start" x="264" y="-483.2" font-family="Helvetica,sans-Serif" font-size="11.00">watch_coin_input</text>
<polygon fill="none" stroke="black" points="477,-475 477,-497 592,-497 592,-475 477,-475"/>
<text text-anchor="start" x="480" y="-483.2" font-family="Helvetica,sans-Serif" font-size="11.00">bool[1]</text>
<polygon fill="none" stroke="black" points="244,-453 244,-475 477,-475 477,-453 244,-453"/>
<text text-anchor="start" x="264" y="-461.2" font-family="Helvetica,sans-Serif" font-size="11.00">watch_coin_output</text>
<polygon fill="none" stroke="black" points="477,-453 477,-475 592,-475 592,-453 477,-453"/>
<text text-anchor="start" x="480" y="-461.2" font-family="Helvetica,sans-Serif" font-size="11.00">bool[1]</text>
<polygon fill="none" stroke="black" points="244,-431 244,-453 477,-453 477,-431 244,-431"/>
<text text-anchor="start" x="264" y="-439.2" font-family="Helvetica,sans-Serif" font-size="11.00">watch_erc_20_input</text>
<polygon fill="none" stroke="black" points="477,-431 477,-453 592,-453 592,-431 477,-431"/>
<text text-anchor="start" x="480" y="-439.2" font-family="Helvetica,sans-Serif" font-size="11.00">bool[1]</text>
<polygon fill="none" stroke="black" points="244,-409 244,-431 477,-431 477,-409 244,-409"/>
<text text-anchor="start" x="264" y="-417.2" font-family="Helvetica,sans-Serif" font-size="11.00">watch_erc_20_output</text>
<polygon fill="none" stroke="black" points="477,-409 477,-431 592,-431 592,-409 477,-409"/>
<text text-anchor="start" x="480" y="-417.2" font-family="Helvetica,sans-Serif" font-size="11.00">bool[1]</text>
<polygon fill="none" stroke="black" points="244,-387 244,-409 477,-409 477,-387 244,-387"/>
<text text-anchor="start" x="264" y="-395.2" font-family="Helvetica,sans-Serif" font-size="11.00">watch_erc_721_input</text>
<polygon fill="none" stroke="black" points="477,-387 477,-409 592,-409 592,-387 477,-387"/>
<text text-anchor="start" x="480" y="-395.2" font-family="Helvetica,sans-Serif" font-size="11.00">bool[1]</text>
<polygon fill="none" stroke="black" points="244,-365 244,-387 477,-387 477,-365 244,-365"/>
<text text-anchor="start" x="264" y="-373.2" font-family="Helvetica,sans-Serif" font-size="11.00">watch_erc_721_output</text>
<polygon fill="none" stroke="black" points="477,-365 477,-387 592,-387 592,-365 477,-365"/>
<text text-anchor="start" x="480" y="-373.2" font-family="Helvetica,sans-Serif" font-size="11.00">bool[1]</text>
<polygon fill="none" stroke="black" points="244,-343 244,-365 477,-365 477,-343 244,-343"/>
<text text-anchor="start" x="264" y="-351.2" font-family="Helvetica,sans-Serif" font-size="11.00">watch_erc_1155_input</text>
<polygon fill="none" stroke="black" points="477,-343 477,-365 592,-365 592,-343 477,-343"/>
<text text-anchor="start" x="480" y="-351.2" font-family="Helvetica,sans-Serif" font-size="11.00">bool[1]</text>
<polygon fill="none" stroke="black" points="244,-321 244,-343 477,-343 477,-321 244,-321"/>
<text text-anchor="start" x="264" y="-329.2" font-family="Helvetica,sans-Serif" font-size="11.00">watch_erc_1155_output</text>
<polygon fill="none" stroke="black" points="477,-321 477,-343 592,-343 592,-321 477,-321"/>
<text text-anchor="start" x="480" y="-329.2" font-family="Helvetica,sans-Serif" font-size="11.00">bool[1]</text>
<polygon fill="none" stroke="black" points="244,-299 244,-321 477,-321 477,-299 244,-299"/>
<text text-anchor="start" x="264" y="-307.2" font-family="Helvetica,sans-Serif" font-size="11.00">notify_email</text>
<polygon fill="none" stroke="black" points="477,-299 477,-321 592,-321 592,-299 477,-299"/>
<text text-anchor="start" x="480" y="-307.2" font-family="Helvetica,sans-Serif" font-size="11.00">bool[1]</text>
<polygon fill="none" stroke="black" points="244,-277 244,-299 477,-299 477,-277 244,-277"/>
<text text-anchor="start" x="264" y="-285.2" font-family="Helvetica,sans-Serif" font-size="11.00">notify_epns</text>
<polygon fill="none" stroke="black" points="477,-277 477,-299 592,-299 592,-277 477,-277"/>
<text text-anchor="start" x="480" y="-285.2" font-family="Helvetica,sans-Serif" font-size="11.00">bool[1]</text>
<polygon fill="none" stroke="black" points="244,-255 244,-277 477,-277 477,-255 244,-255"/>
<text text-anchor="start" x="264" y="-263.2" font-family="Helvetica,sans-Serif" font-size="11.00">notify_feed</text>
<polygon fill="none" stroke="black" points="477,-255 477,-277 592,-277 592,-255 477,-255"/>
<text text-anchor="start" x="480" y="-263.2" font-family="Helvetica,sans-Serif" font-size="11.00">bool[1]</text>
<polygon fill="none" stroke="black" points="244,-233 244,-255 477,-255 477,-233 244,-233"/>
<text text-anchor="start" x="264" y="-241.2" font-family="Helvetica,sans-Serif" font-size="11.00">notify_inapp</text>
<polygon fill="none" stroke="black" points="477,-233 477,-255 592,-255 592,-233 477,-233"/>
<text text-anchor="start" x="480" y="-241.2" font-family="Helvetica,sans-Serif" font-size="11.00">bool[1]</text>
<polygon fill="none" stroke="black" points="244,-211 244,-233 477,-233 477,-211 244,-211"/>
<text text-anchor="start" x="264" y="-219.2" font-family="Helvetica,sans-Serif" font-size="11.00">inserted_at</text>
<polygon fill="none" stroke="black" points="477,-211 477,-233 592,-233 592,-211 477,-211"/>
<text text-anchor="start" x="480" y="-219.2" font-family="Helvetica,sans-Serif" font-size="11.00">timestamp[22]</text>
<polygon fill="none" stroke="black" points="244,-189 244,-211 477,-211 477,-189 244,-189"/>
<text text-anchor="start" x="264" y="-197.2" font-family="Helvetica,sans-Serif" font-size="11.00">updated_at</text>
<polygon fill="none" stroke="black" points="477,-189 477,-211 592,-211 592,-189 477,-189"/>
<text text-anchor="start" x="480" y="-197.2" font-family="Helvetica,sans-Serif" font-size="11.00">timestamp[22]</text>
<polygon fill="#ffffff" stroke="transparent" points="244,-167 244,-189 477,-189 477,-167 244,-167"/>
<polygon fill="none" stroke="black" points="244,-167 244,-189 477,-189 477,-167 244,-167"/>
<text text-anchor="start" x="264" y="-175.2" font-family="Helvetica,sans-Serif" font-size="11.00">address_hash_hash</text>
<polygon fill="none" stroke="black" points="477,-167 477,-189 592,-189 592,-167 477,-167"/>
<text text-anchor="start" x="480" y="-175.2" font-family="Helvetica,sans-Serif" font-size="11.00">bytea[2147483647]</text>
<polygon fill="none" stroke="black" points="244,-145 244,-167 477,-167 477,-145 244,-145"/>
<text text-anchor="start" x="264" y="-153.2" font-family="Helvetica,sans-Serif" font-size="11.00">name</text>
<polygon fill="none" stroke="black" points="477,-145 477,-167 592,-167 592,-145 477,-145"/>
<text text-anchor="start" x="480" y="-153.2" font-family="Helvetica,sans-Serif" font-size="11.00">bytea[2147483647]</text>
<polygon fill="none" stroke="black" points="244,-123 244,-145 477,-145 477,-123 244,-123"/>
<text text-anchor="start" x="264" y="-131.2" font-family="Helvetica,sans-Serif" font-size="11.00">address_hash</text>
<polygon fill="none" stroke="black" points="477,-123 477,-145 592,-145 592,-123 477,-123"/>
<text text-anchor="start" x="480" y="-131.2" font-family="Helvetica,sans-Serif" font-size="11.00">bytea[2147483647]</text>
<polygon fill="none" stroke="black" points="244,-101 244,-123 477,-123 477,-101 244,-101"/>
<text text-anchor="start" x="264" y="-109.2" font-family="Helvetica,sans-Serif" font-size="11.00">watch_erc_404_input</text>
<polygon fill="none" stroke="black" points="477,-101 477,-123 592,-123 592,-101 477,-101"/>
<text text-anchor="start" x="480" y="-109.2" font-family="Helvetica,sans-Serif" font-size="11.00">bool[1]</text>
<polygon fill="none" stroke="black" points="244,-79 244,-101 477,-101 477,-79 244,-79"/>
<text text-anchor="start" x="264" y="-87.2" font-family="Helvetica,sans-Serif" font-size="11.00">watch_erc_404_output</text>
<polygon fill="none" stroke="black" points="477,-79 477,-101 592,-101 592,-79 477,-79"/>
<text text-anchor="start" x="480" y="-87.2" font-family="Helvetica,sans-Serif" font-size="11.00">bool[1]</text>
<polygon fill="none" stroke="black" points="244,-57 244,-79 477,-79 477,-57 244,-57"/>
<text text-anchor="start" x="264" y="-65.2" font-family="Helvetica,sans-Serif" font-size="11.00">user_created</text>
<polygon fill="none" stroke="black" points="477,-57 477,-79 592,-79 592,-57 477,-57"/>
<text text-anchor="start" x="480" y="-65.2" font-family="Helvetica,sans-Serif" font-size="11.00">bool[1]</text>
<polygon fill="#ffffff" stroke="transparent" points="244,-39 244,-57 592,-57 592,-39 244,-39"/>
<polygon fill="none" stroke="black" points="244,-39 244,-57 592,-57 592,-39 244,-39"/>
<polygon fill="#ffffff" stroke="transparent" points="245,-40 245,-56 365,-56 365,-40 245,-40"/>
<text text-anchor="start" x="247" y="-45.2" font-family="Helvetica,sans-Serif" font-size="11.00">&lt; 1</text>
<polygon fill="#ffffff" stroke="transparent" points="365,-40 365,-56 472,-56 472,-40 365,-40"/>
<text text-anchor="start" x="414.5" y="-45.2" font-family="Helvetica,sans-Serif" font-size="11.00"> &#160;</text>
<polygon fill="#ffffff" stroke="transparent" points="472,-40 472,-56 591,-56 591,-40 472,-40"/>
<text text-anchor="start" x="569" y="-45.2" font-family="Helvetica,sans-Serif" font-size="11.00">0 &gt;</text>
<polygon fill="black" stroke="black" points="365,-40 365,-56 365,-56 365,-40 365,-40"/>
<polygon fill="black" stroke="black" points="472,-40 472,-56 472,-56 472,-40 472,-40"/>
<polygon fill="none" stroke="black" stroke-width="2" points="243,-38 243,-564 593,-564 593,-38 243,-38"/>
</a>
</g>
</g>
<!-- account_watchlists -->
<g id="node2" class="node">
<title>account_watchlists</title>
<g id="a_node2"><a xlink:href="../../tables/account_watchlists.html" xlink:title="account_watchlists" target="_top">
<polygon fill="#ffffff" stroke="transparent" points="8,-439 8,-541 193,-541 193,-439 8,-439"/>
<polygon fill="#f5f5f5" stroke="transparent" points="8.5,-519 8.5,-541 193.5,-541 193.5,-519 8.5,-519"/>
<polygon fill="none" stroke="black" points="8.5,-519 8.5,-541 193.5,-541 193.5,-519 8.5,-519"/>
<text text-anchor="start" x="13.5" y="-528.2" font-family="Helvetica,sans-Serif" font-weight="bold" font-size="11.00">account_watchlists</text>
<text text-anchor="start" x="151.5" y="-527.2" font-family="Helvetica,sans-Serif" font-size="11.00">[table]</text>
<polygon fill="none" stroke="black" points="8.5,-497 8.5,-519 193.5,-519 193.5,-497 8.5,-497"/>
<image xlink:href="../../images/primaryKeys.png" width="11px" height="12px" preserveAspectRatio="xMinYMin meet" x="13.5" y="-514"/>
<text text-anchor="start" x="41.5" y="-505.2" font-family="Helvetica,sans-Serif" font-size="11.00">id</text>
<polygon fill="#ffffff" stroke="transparent" points="8.5,-475 8.5,-497 193.5,-497 193.5,-475 8.5,-475"/>
<polygon fill="none" stroke="black" points="8.5,-475 8.5,-497 193.5,-497 193.5,-475 8.5,-475"/>
<image xlink:href="../../images/foreignKeys.png" width="11px" height="12px" preserveAspectRatio="xMinYMin meet" x="13.5" y="-492"/>
<text text-anchor="start" x="41.5" y="-483.2" font-family="Helvetica,sans-Serif" font-size="11.00">identity_id</text>
<polygon fill="none" stroke="black" points="8.5,-457 8.5,-475 193.5,-475 193.5,-457 8.5,-457"/>
<text text-anchor="start" x="11.5" y="-463.2" font-family="Helvetica,sans-Serif" font-size="11.00">...</text>
<polygon fill="#ffffff" stroke="transparent" points="8.5,-439 8.5,-457 193.5,-457 193.5,-439 8.5,-439"/>
<polygon fill="none" stroke="black" points="8.5,-439 8.5,-457 193.5,-457 193.5,-439 8.5,-439"/>
<polygon fill="#ffffff" stroke="transparent" points="9.5,-440 9.5,-456 74.5,-456 74.5,-440 9.5,-440"/>
<text text-anchor="start" x="11.5" y="-445.2" font-family="Helvetica,sans-Serif" font-size="11.00">&lt; 1</text>
<polygon fill="#ffffff" stroke="transparent" points="74.5,-440 74.5,-456 127.5,-456 127.5,-440 74.5,-440"/>
<text text-anchor="start" x="97" y="-445.2" font-family="Helvetica,sans-Serif" font-size="11.00"> &#160;</text>
<polygon fill="#ffffff" stroke="transparent" points="127.5,-440 127.5,-456 192.5,-456 192.5,-440 127.5,-440"/>
<text text-anchor="start" x="170.5" y="-445.2" font-family="Helvetica,sans-Serif" font-size="11.00">1 &gt;</text>
<polygon fill="black" stroke="black" points="74.5,-440 74.5,-456 74.5,-456 74.5,-440 74.5,-440"/>
<polygon fill="black" stroke="black" points="127.5,-440 127.5,-456 127.5,-456 127.5,-440 127.5,-440"/>
</a>
</g>
</g>
<!-- account_watchlist_addresses&#45;&gt;account_watchlists -->
<g id="edge1" class="edge">
<title>account_watchlist_addresses:w&#45;&gt;account_watchlists:e</title>
<path fill="none" stroke="black" d="M228.28,-508C217.29,-508 210.16,-508 194.5,-508"/>
<polygon fill="black" stroke="black" points="235,-508 243,-511.6 239,-508 243,-508 243,-508 243,-508 239,-508 243,-504.4 235,-508 235,-508"/>
<ellipse fill="none" stroke="black" cx="231.8" cy="-508" rx="3.2" ry="3.2"/>
</g>
</g>
</svg>
