<?xml version="1.0" encoding="UTF-8" standalone="no"?>
<!DOCTYPE svg PUBLIC "-//W3C//DTD SVG 1.1//EN"
 "http://www.w3.org/Graphics/SVG/1.1/DTD/svg11.dtd">
<!-- Generated by graphviz version 9.0.0 (20230911.1827)
 -->
<!-- Title: oneDegreeRelationshipsDiagram Pages: 1 -->
<svg width="710pt" height="239pt"
 viewBox="0.00 0.00 710.00 239.00" xmlns="http://www.w3.org/2000/svg" xmlns:xlink="http://www.w3.org/1999/xlink">
<g id="graph0" class="graph" transform="scale(1 1) rotate(0) translate(4 235)">
<title>oneDegreeRelationshipsDiagram</title>
<polygon fill="#ffffff" stroke="none" points="-4,4 -4,-235 706,-235 706,4 -4,4"/>
<text text-anchor="middle" x="71.38" y="-5.55" font-family="Helvetica,sans-Serif" font-size="11.00">Generated by SchemaSpy</text>
<!-- account_watchlist_addresses -->
<g id="node1" class="node">
<title>account_watchlist_addresses</title>
<g id="a_node1"><a xlink:href="../../tables/account_watchlist_addresses.html" xlink:title="account_watchlist_addresses" target="_top">
<polygon fill="#ffffff" stroke="none" points="485,-103 485,-227 694,-227 694,-103 485,-103"/>
<polygon fill="#f5f5f5" stroke="none" points="485,-205 485,-227 694,-227 694,-205 485,-205"/>
<polygon fill="none" stroke="black" points="485,-205 485,-227 694,-227 694,-205 485,-205"/>
<text text-anchor="start" x="490" y="-212.55" font-family="Helvetica,sans-Serif" font-weight="bold" font-size="11.00">account_watchlist_addresses</text>
<text text-anchor="start" x="660" y="-211.55" font-family="Helvetica,sans-Serif" font-size="11.00">[table]</text>
<polygon fill="none" stroke="black" points="485,-183 485,-205 694,-205 694,-183 485,-183"/>
<image xlink:href="../../images/primaryKeys.png" width="11px" height="12px" preserveAspectRatio="xMinYMin meet" x="490" y="-200"/>
<text text-anchor="start" x="514" y="-189.55" font-family="Helvetica,sans-Serif" font-size="11.00">id</text>
<polygon fill="#ffffff" stroke="none" points="485,-161 485,-183 694,-183 694,-161 485,-161"/>
<polygon fill="none" stroke="black" points="485,-161 485,-183 694,-183 694,-161 485,-161"/>
<image xlink:href="../../images/foreignKeys.png" width="11px" height="12px" preserveAspectRatio="xMinYMin meet" x="490" y="-178"/>
<text text-anchor="start" x="514" y="-167.55" font-family="Helvetica,sans-Serif" font-size="11.00">watchlist_id</text>
<polygon fill="#ffffff" stroke="none" points="485,-139 485,-161 694,-161 694,-139 485,-139"/>
<polygon fill="none" stroke="black" points="485,-139 485,-161 694,-161 694,-139 485,-139"/>
<text text-anchor="start" x="514" y="-145.55" font-family="Helvetica,sans-Serif" font-size="11.00">address_hash_hash</text>
<polygon fill="none" stroke="black" points="485,-121 485,-139 694,-139 694,-121 485,-121"/>
<text text-anchor="start" x="488" y="-125.55" font-family="Helvetica,sans-Serif" font-size="11.00">...</text>
<polygon fill="#ffffff" stroke="none" points="485,-103 485,-121 588,-121 588,-103 485,-103"/>
<polygon fill="none" stroke="black" points="485,-103 485,-121 588,-121 588,-103 485,-103"/>
<text text-anchor="start" x="488" y="-107.55" font-family="Helvetica,sans-Serif" font-size="11.00">&lt; 1</text>
<polygon fill="#ffffff" stroke="none" points="588,-103 588,-121 641,-121 641,-103 588,-103"/>
<polygon fill="none" stroke="black" points="588,-103 588,-121 641,-121 641,-103 588,-103"/>
<text text-anchor="start" x="632" y="-107.55" font-family="Helvetica,sans-Serif" font-size="11.00"> &#160;</text>
<polygon fill="#ffffff" stroke="none" points="641,-103 641,-121 694,-121 694,-103 641,-103"/>
<polygon fill="none" stroke="black" points="641,-103 641,-121 694,-121 694,-103 641,-103"/>
<text text-anchor="start" x="685" y="-107.55" font-family="Helvetica,sans-Serif" font-size="11.00"> &#160;</text>
</a>
</g>
</g>
<!-- account_watchlists -->
<g id="node2" class="node">
<title>account_watchlists</title>
<g id="a_node2"><a xlink:href="../../tables/account_watchlists.html" xlink:title="account_watchlists" target="_top">
<polygon fill="#ffffff" stroke="none" points="228,-53 228,-207 436,-207 436,-53 228,-53"/>
<polygon fill="#f5f5f5" stroke="none" points="230,-183 230,-205 434,-205 434,-183 230,-183"/>
<polygon fill="none" stroke="black" points="230,-183 230,-205 434,-205 434,-183 230,-183"/>
<text text-anchor="start" x="235" y="-190.55" font-family="Helvetica,sans-Serif" font-weight="bold" font-size="11.00">account_watchlists</text>
<text text-anchor="start" x="399.75" y="-189.55" font-family="Helvetica,sans-Serif" font-size="11.00">[table]</text>
<polygon fill="none" stroke="black" points="230,-161 230,-183 361,-183 361,-161 230,-161"/>
<image xlink:href="../../images/primaryKeys.png" width="11px" height="12px" preserveAspectRatio="xMinYMin meet" x="235" y="-178"/>
<text text-anchor="start" x="250" y="-167.55" font-family="Helvetica,sans-Serif" font-size="11.00">id</text>
<polygon fill="none" stroke="black" points="361,-161 361,-183 434,-183 434,-161 361,-161"/>
<text text-anchor="start" x="364" y="-167.55" font-family="Helvetica,sans-Serif" font-size="11.00">bigserial[19]</text>
<polygon fill="none" stroke="black" points="230,-139 230,-161 361,-161 361,-139 230,-139"/>
<text text-anchor="start" x="250" y="-145.55" font-family="Helvetica,sans-Serif" font-size="11.00">name</text>
<polygon fill="none" stroke="black" points="361,-139 361,-161 434,-161 434,-139 361,-139"/>
<text text-anchor="start" x="364" y="-145.55" font-family="Helvetica,sans-Serif" font-size="11.00">varchar[255]</text>
<polygon fill="#ffffff" stroke="none" points="230,-117 230,-139 361,-139 361,-117 230,-117"/>
<polygon fill="none" stroke="black" points="230,-117 230,-139 361,-139 361,-117 230,-117"/>
<image xlink:href="../../images/foreignKeys.png" width="11px" height="12px" preserveAspectRatio="xMinYMin meet" x="235" y="-134"/>
<text text-anchor="start" x="250" y="-123.55" font-family="Helvetica,sans-Serif" font-size="11.00">identity_id</text>
<polygon fill="none" stroke="black" points="361,-117 361,-139 434,-139 434,-117 361,-117"/>
<text text-anchor="start" x="364" y="-123.55" font-family="Helvetica,sans-Serif" font-size="11.00">int8[19]</text>
<polygon fill="none" stroke="black" points="230,-95 230,-117 361,-117 361,-95 230,-95"/>
<text text-anchor="start" x="250" y="-101.55" font-family="Helvetica,sans-Serif" font-size="11.00">inserted_at</text>
<polygon fill="none" stroke="black" points="361,-95 361,-117 434,-117 434,-95 361,-95"/>
<text text-anchor="start" x="363.75" y="-101.55" font-family="Helvetica,sans-Serif" font-size="11.00">timestamp[22]</text>
<polygon fill="none" stroke="black" points="230,-73 230,-95 361,-95 361,-73 230,-73"/>
<text text-anchor="start" x="250" y="-79.55" font-family="Helvetica,sans-Serif" font-size="11.00">updated_at</text>
<polygon fill="none" stroke="black" points="361,-73 361,-95 434,-95 434,-73 361,-73"/>
<text text-anchor="start" x="363.75" y="-79.55" font-family="Helvetica,sans-Serif" font-size="11.00">timestamp[22]</text>
<polygon fill="#ffffff" stroke="none" points="230,-55 230,-73 300,-73 300,-55 230,-55"/>
<polygon fill="none" stroke="black" points="230,-55 230,-73 300,-73 300,-55 230,-55"/>
<text text-anchor="start" x="233" y="-59.55" font-family="Helvetica,sans-Serif" font-size="11.00">&lt; 1</text>
<polygon fill="#ffffff" stroke="none" points="300,-55 300,-73 361,-73 361,-55 300,-55"/>
<polygon fill="none" stroke="black" points="300,-55 300,-73 361,-73 361,-55 300,-55"/>
<text text-anchor="start" x="352" y="-59.55" font-family="Helvetica,sans-Serif" font-size="11.00"> &#160;</text>
<polygon fill="#ffffff" stroke="none" points="361,-55 361,-73 434,-73 434,-55 361,-55"/>
<polygon fill="none" stroke="black" points="361,-55 361,-73 434,-73 434,-55 361,-55"/>
<text text-anchor="start" x="415.25" y="-59.55" font-family="Helvetica,sans-Serif" font-size="11.00">1 &gt;</text>
<polygon fill="none" stroke="black" stroke-width="2" points="229,-54 229,-206 435,-206 435,-54 229,-54"/>
</a>
</g>
</g>
<!-- account_watchlist_addresses&#45;&gt;account_watchlists -->
<g id="edge1" class="edge">
<title>account_watchlist_addresses:w&#45;&gt;account_watchlists:e</title>
<path fill="none" stroke="black" d="M467.73,-172C457.32,-172 450.16,-172 435,-172"/>
<polygon fill="black" stroke="black" points="475.17,-172 483.17,-175.6 479.5,-172 482.83,-172 482.83,-172 482.83,-172 479.5,-172 483.17,-168.4 475.17,-172"/>
<ellipse fill="none" stroke="black" cx="470.25" cy="-172" rx="3.2" ry="3.2"/>
</g>
<!-- account_identities -->
<g id="node3" class="node">
<title>account_identities</title>
<g id="a_node3"><a xlink:href="../../tables/account_identities.html" xlink:title="account_identities" target="_top">
<polygon fill="#ffffff" stroke="none" points="8,-37 8,-161 179,-161 179,-37 8,-37"/>
<polygon fill="#f5f5f5" stroke="none" points="8,-139 8,-161 179,-161 179,-139 8,-139"/>
<polygon fill="none" stroke="black" points="8,-139 8,-161 179,-161 179,-139 8,-139"/>
<text text-anchor="start" x="13" y="-146.55" font-family="Helvetica,sans-Serif" font-weight="bold" font-size="11.00">account_identities</text>
<text text-anchor="start" x="144.75" y="-145.55" font-family="Helvetica,sans-Serif" font-size="11.00">[table]</text>
<polygon fill="none" stroke="black" points="8,-117 8,-139 179,-139 179,-117 8,-117"/>
<image xlink:href="../../images/primaryKeys.png" width="11px" height="12px" preserveAspectRatio="xMinYMin meet" x="13" y="-134"/>
<text text-anchor="start" x="28" y="-123.55" font-family="Helvetica,sans-Serif" font-size="11.00">id</text>
<polygon fill="none" stroke="black" points="8,-95 8,-117 179,-117 179,-95 8,-95"/>
<image xlink:href="../../images/foreignKeys.png" width="11px" height="12px" preserveAspectRatio="xMinYMin meet" x="13" y="-112"/>
<text text-anchor="start" x="28" y="-101.55" font-family="Helvetica,sans-Serif" font-size="11.00">plan_id</text>
<polygon fill="#ffffff" stroke="none" points="8,-73 8,-95 179,-95 179,-73 8,-73"/>
<polygon fill="none" stroke="black" points="8,-73 8,-95 179,-95 179,-73 8,-73"/>
<text text-anchor="start" x="28" y="-79.55" font-family="Helvetica,sans-Serif" font-size="11.00">uid_hash</text>
<polygon fill="none" stroke="black" points="8,-55 8,-73 179,-73 179,-55 8,-55"/>
<text text-anchor="start" x="11" y="-59.55" font-family="Helvetica,sans-Serif" font-size="11.00">...</text>
<polygon fill="#ffffff" stroke="none" points="8,-37 8,-55 87,-55 87,-37 8,-37"/>
<polygon fill="none" stroke="black" points="8,-37 8,-55 87,-55 87,-37 8,-37"/>
<text text-anchor="start" x="11" y="-41.55" font-family="Helvetica,sans-Serif" font-size="11.00">&lt; 1</text>
<polygon fill="#ffffff" stroke="none" points="87,-37 87,-55 128,-55 128,-37 87,-37"/>
<polygon fill="none" stroke="black" points="87,-37 87,-55 128,-55 128,-37 87,-37"/>
<text text-anchor="start" x="119" y="-41.55" font-family="Helvetica,sans-Serif" font-size="11.00"> &#160;</text>
<polygon fill="#ffffff" stroke="none" points="128,-37 128,-55 179,-55 179,-37 128,-37"/>
<polygon fill="none" stroke="black" points="128,-37 128,-55 179,-55 179,-37 128,-37"/>
<text text-anchor="start" x="160.25" y="-41.55" font-family="Helvetica,sans-Serif" font-size="11.00">6 &gt;</text>
</a>
</g>
</g>
<!-- account_watchlists&#45;&gt;account_identities -->
<g id="edge2" class="edge">
<title>account_watchlists:w&#45;&gt;account_identities:e</title>
<path fill="none" stroke="black" d="M213.23,-128C202.82,-128 195.66,-128 180.5,-128"/>
<polygon fill="black" stroke="black" points="220.67,-128 228.67,-131.6 225,-128 228.33,-128 228.33,-128 228.33,-128 225,-128 228.67,-124.4 220.67,-128"/>
<ellipse fill="none" stroke="black" cx="215.75" cy="-128" rx="3.2" ry="3.2"/>
</g>
</g>
</svg>
