<?xml version="1.0" encoding="UTF-8" standalone="no"?>
<!DOCTYPE svg PUBLIC "-//W3C//DTD SVG 1.1//EN"
 "http://www.w3.org/Graphics/SVG/1.1/DTD/svg11.dtd">
<!-- Generated by graphviz version 2.43.0 (0)
 -->
<!-- Title: twoDegreesRelationshipsDiagram Pages: 1 -->
<svg width="838pt" height="585pt"
 viewBox="0.00 0.00 838.00 585.00" xmlns="http://www.w3.org/2000/svg" xmlns:xlink="http://www.w3.org/1999/xlink">
<g id="graph0" class="graph" transform="scale(1 1) rotate(0) translate(4 581)">
<title>twoDegreesRelationshipsDiagram</title>
<polygon fill="#ffffff" stroke="transparent" points="-4,4 -4,-581 834,-581 834,4 -4,4"/>
<text text-anchor="middle" x="79.5" y="-7.2" font-family="Helvetica,sans-Serif" font-size="11.00">Generated by SchemaSpy</text>
<!-- account_api_keys -->
<g id="node1" class="node">
<title>account_api_keys</title>
<g id="a_node1"><a xlink:href="../../tables/account_api_keys.html" xlink:title="account_api_keys" target="_top">
<polygon fill="#ffffff" stroke="transparent" points="572,-515 572,-573 746,-573 746,-515 572,-515"/>
<polygon fill="#f5f5f5" stroke="transparent" points="572,-551 572,-573 746,-573 746,-551 572,-551"/>
<polygon fill="none" stroke="black" points="572,-551 572,-573 746,-573 746,-551 572,-551"/>
<text text-anchor="start" x="577" y="-560.2" font-family="Helvetica,sans-Serif" font-weight="bold" font-size="11.00">account_api_keys</text>
<text text-anchor="start" x="704" y="-559.2" font-family="Helvetica,sans-Serif" font-size="11.00">[table]</text>
<polygon fill="none" stroke="black" points="572,-533 572,-551 746,-551 746,-533 572,-533"/>
<text text-anchor="start" x="575" y="-539.2" font-family="Helvetica,sans-Serif" font-size="11.00">...</text>
<polygon fill="#ffffff" stroke="transparent" points="572,-515 572,-533 746,-533 746,-515 572,-515"/>
<polygon fill="none" stroke="black" points="572,-515 572,-533 746,-533 746,-515 572,-515"/>
<polygon fill="#ffffff" stroke="transparent" points="573,-516 573,-532 639,-532 639,-516 573,-516"/>
<text text-anchor="start" x="575" y="-521.2" font-family="Helvetica,sans-Serif" font-size="11.00">&lt; 1</text>
<polygon fill="#ffffff" stroke="transparent" points="639,-516 639,-532 692,-532 692,-516 639,-516"/>
<text text-anchor="start" x="661.5" y="-521.2" font-family="Helvetica,sans-Serif" font-size="11.00"> &#160;</text>
<polygon fill="#ffffff" stroke="transparent" points="692,-516 692,-532 745,-532 745,-516 692,-516"/>
<text text-anchor="start" x="735" y="-521.2" font-family="Helvetica,sans-Serif" font-size="11.00"> &#160;</text>
<polygon fill="black" stroke="black" points="639,-516 639,-532 639,-532 639,-516 639,-516"/>
<polygon fill="black" stroke="black" points="692,-516 692,-532 692,-532 692,-516 692,-516"/>
</a>
</g>
</g>
<!-- account_identities -->
<g id="node2" class="node">
<title>account_identities</title>
<g id="a_node2"><a xlink:href="../../tables/account_identities.html" xlink:title="account_identities" target="_top">
<polygon fill="#ffffff" stroke="transparent" points="236,-293 236,-417 447,-417 447,-293 236,-293"/>
<polygon fill="#f5f5f5" stroke="transparent" points="236.5,-395 236.5,-417 447.5,-417 447.5,-395 236.5,-395"/>
<polygon fill="none" stroke="black" points="236.5,-395 236.5,-417 447.5,-417 447.5,-395 236.5,-395"/>
<text text-anchor="start" x="241.5" y="-404.2" font-family="Helvetica,sans-Serif" font-weight="bold" font-size="11.00">account_identities</text>
<text text-anchor="start" x="405.5" y="-403.2" font-family="Helvetica,sans-Serif" font-size="11.00">[table]</text>
<polygon fill="none" stroke="black" points="236.5,-373 236.5,-395 447.5,-395 447.5,-373 236.5,-373"/>
<image xlink:href="../../images/primaryKeys.png" width="11px" height="12px" preserveAspectRatio="xMinYMin meet" x="241.5" y="-390"/>
<text text-anchor="start" x="256.5" y="-381.2" font-family="Helvetica,sans-Serif" font-size="11.00">id</text>
<polygon fill="none" stroke="black" points="236.5,-351 236.5,-373 447.5,-373 447.5,-351 236.5,-351"/>
<image xlink:href="../../images/foreignKeys.png" width="11px" height="12px" preserveAspectRatio="xMinYMin meet" x="241.5" y="-368"/>
<text text-anchor="start" x="256.5" y="-359.2" font-family="Helvetica,sans-Serif" font-size="11.00">plan_id</text>
<polygon fill="#ffffff" stroke="transparent" points="236.5,-329 236.5,-351 447.5,-351 447.5,-329 236.5,-329"/>
<polygon fill="none" stroke="black" points="236.5,-329 236.5,-351 447.5,-351 447.5,-329 236.5,-329"/>
<text text-anchor="start" x="256.5" y="-337.2" font-family="Helvetica,sans-Serif" font-size="11.00">uid_hash</text>
<polygon fill="none" stroke="black" points="236.5,-311 236.5,-329 447.5,-329 447.5,-311 236.5,-311"/>
<text text-anchor="start" x="239.5" y="-317.2" font-family="Helvetica,sans-Serif" font-size="11.00">...</text>
<polygon fill="#ffffff" stroke="transparent" points="236.5,-293 236.5,-311 447.5,-311 447.5,-293 236.5,-293"/>
<polygon fill="none" stroke="black" points="236.5,-293 236.5,-311 447.5,-311 447.5,-293 236.5,-293"/>
<polygon fill="#ffffff" stroke="transparent" points="237.5,-294 237.5,-310 311.5,-310 311.5,-294 237.5,-294"/>
<text text-anchor="start" x="239.5" y="-299.2" font-family="Helvetica,sans-Serif" font-size="11.00">&lt; 1</text>
<polygon fill="#ffffff" stroke="transparent" points="311.5,-294 311.5,-310 373.5,-310 373.5,-294 311.5,-294"/>
<text text-anchor="start" x="338.5" y="-299.2" font-family="Helvetica,sans-Serif" font-size="11.00"> &#160;</text>
<polygon fill="#ffffff" stroke="transparent" points="373.5,-294 373.5,-310 446.5,-310 446.5,-294 373.5,-294"/>
<text text-anchor="start" x="424.5" y="-299.2" font-family="Helvetica,sans-Serif" font-size="11.00">5 &gt;</text>
<polygon fill="black" stroke="black" points="311.5,-294 311.5,-310 311.5,-310 311.5,-294 311.5,-294"/>
<polygon fill="black" stroke="black" points="373.5,-294 373.5,-310 373.5,-310 373.5,-294 373.5,-294"/>
</a>
</g>
</g>
<!-- account_api_keys&#45;&gt;account_identities -->
<g id="edge1" class="edge">
<title>account_api_keys:w&#45;&gt;account_identities:e</title>
<path fill="none" stroke="black" d="M556.54,-541.62C526.41,-539.81 511.55,-531.13 488,-505 450.13,-462.98 505.07,-384 448.5,-384"/>
<polygon fill="black" stroke="black" points="563,-541.79 570.9,-545.6 567,-541.89 571,-542 571,-542 571,-542 567,-541.89 571.1,-538.4 563,-541.79 563,-541.79"/>
<ellipse fill="none" stroke="black" cx="559.8" cy="-541.7" rx="3.2" ry="3.2"/>
</g>
<!-- account_api_plans -->
<g id="node4" class="node">
<title>account_api_plans</title>
<g id="a_node4"><a xlink:href="../../tables/account_api_plans.html" xlink:title="account_api_plans" target="_top">
<polygon fill="#ffffff" stroke="transparent" points="8,-335 8,-393 187,-393 187,-335 8,-335"/>
<polygon fill="#f5f5f5" stroke="transparent" points="8.5,-371 8.5,-393 187.5,-393 187.5,-371 8.5,-371"/>
<polygon fill="none" stroke="black" points="8.5,-371 8.5,-393 187.5,-393 187.5,-371 8.5,-371"/>
<text text-anchor="start" x="13.5" y="-380.2" font-family="Helvetica,sans-Serif" font-weight="bold" font-size="11.00">account_api_plans</text>
<text text-anchor="start" x="145.5" y="-379.2" font-family="Helvetica,sans-Serif" font-size="11.00">[table]</text>
<polygon fill="none" stroke="black" points="8.5,-353 8.5,-371 187.5,-371 187.5,-353 8.5,-353"/>
<text text-anchor="start" x="11.5" y="-359.2" font-family="Helvetica,sans-Serif" font-size="11.00">...</text>
<polygon fill="#ffffff" stroke="transparent" points="8.5,-335 8.5,-353 187.5,-353 187.5,-335 8.5,-335"/>
<polygon fill="none" stroke="black" points="8.5,-335 8.5,-353 187.5,-353 187.5,-335 8.5,-335"/>
<polygon fill="#ffffff" stroke="transparent" points="9.5,-336 9.5,-352 64.5,-352 64.5,-336 9.5,-336"/>
<text text-anchor="start" x="11.5" y="-341.2" font-family="Helvetica,sans-Serif" font-size="11.00"> &#160;</text>
<polygon fill="#ffffff" stroke="transparent" points="64.5,-336 64.5,-352 119.5,-352 119.5,-336 64.5,-336"/>
<text text-anchor="start" x="88" y="-341.2" font-family="Helvetica,sans-Serif" font-size="11.00"> &#160;</text>
<polygon fill="#ffffff" stroke="transparent" points="119.5,-336 119.5,-352 186.5,-352 186.5,-336 119.5,-336"/>
<text text-anchor="start" x="164.5" y="-341.2" font-family="Helvetica,sans-Serif" font-size="11.00">1 &gt;</text>
<polygon fill="black" stroke="black" points="64.5,-336 64.5,-352 64.5,-352 64.5,-336 64.5,-336"/>
<polygon fill="black" stroke="black" points="119.5,-336 119.5,-352 119.5,-352 119.5,-336 119.5,-336"/>
</a>
</g>
</g>
<!-- account_identities&#45;&gt;account_api_plans -->
<g id="edge3" class="edge">
<title>account_identities:w&#45;&gt;account_api_plans:e</title>
<path fill="none" stroke="black" d="M220.9,-362C210.43,-362 203.51,-362 188.5,-362"/>
<polygon fill="black" stroke="black" points="227.5,-362 235.5,-365.6 231.5,-362 235.5,-362 235.5,-362 235.5,-362 231.5,-362 235.5,-358.4 227.5,-362 227.5,-362"/>
<ellipse fill="none" stroke="black" cx="224.3" cy="-362" rx="3.2" ry="3.2"/>
</g>
<!-- account_custom_abis -->
<g id="node3" class="node">
<title>account_custom_abis</title>
<g id="a_node3"><a xlink:href="../../tables/account_custom_abis.html" xlink:title="account_custom_abis" target="_top">
<polygon fill="#ffffff" stroke="transparent" points="558.5,-436 558.5,-494 759.5,-494 759.5,-436 558.5,-436"/>
<polygon fill="#f5f5f5" stroke="transparent" points="559,-472 559,-494 760,-494 760,-472 559,-472"/>
<polygon fill="none" stroke="black" points="559,-472 559,-494 760,-494 760,-472 559,-472"/>
<text text-anchor="start" x="564" y="-481.2" font-family="Helvetica,sans-Serif" font-weight="bold" font-size="11.00">account_custom_abis</text>
<text text-anchor="start" x="718" y="-480.2" font-family="Helvetica,sans-Serif" font-size="11.00">[table]</text>
<polygon fill="none" stroke="black" points="559,-454 559,-472 760,-472 760,-454 559,-454"/>
<text text-anchor="start" x="562" y="-460.2" font-family="Helvetica,sans-Serif" font-size="11.00">...</text>
<polygon fill="#ffffff" stroke="transparent" points="559,-436 559,-454 760,-454 760,-436 559,-436"/>
<polygon fill="none" stroke="black" points="559,-436 559,-454 760,-454 760,-436 559,-436"/>
<polygon fill="#ffffff" stroke="transparent" points="560,-437 560,-453 635,-453 635,-437 560,-437"/>
<text text-anchor="start" x="562" y="-442.2" font-family="Helvetica,sans-Serif" font-size="11.00">&lt; 1</text>
<polygon fill="#ffffff" stroke="transparent" points="635,-437 635,-453 697,-453 697,-437 635,-437"/>
<text text-anchor="start" x="662" y="-442.2" font-family="Helvetica,sans-Serif" font-size="11.00"> &#160;</text>
<polygon fill="#ffffff" stroke="transparent" points="697,-437 697,-453 759,-453 759,-437 697,-437"/>
<text text-anchor="start" x="749" y="-442.2" font-family="Helvetica,sans-Serif" font-size="11.00"> &#160;</text>
<polygon fill="black" stroke="black" points="635,-437 635,-453 635,-453 635,-437 635,-437"/>
<polygon fill="black" stroke="black" points="697,-437 697,-453 697,-453 697,-437 697,-437"/>
</a>
</g>
</g>
<!-- account_custom_abis&#45;&gt;account_identities -->
<g id="edge2" class="edge">
<title>account_custom_abis:w&#45;&gt;account_identities:e</title>
<path fill="none" stroke="black" d="M543.39,-461.89C520.16,-457.96 511.62,-444 488,-426 467.62,-410.47 474.13,-384 448.5,-384"/>
<polygon fill="black" stroke="black" points="550.02,-462.39 557.73,-466.59 554.01,-462.7 558,-463 558,-463 558,-463 554.01,-462.7 558.27,-459.41 550.02,-462.39 550.02,-462.39"/>
<ellipse fill="none" stroke="black" cx="546.83" cy="-462.15" rx="3.2" ry="3.2"/>
</g>
<!-- account_tag_addresses -->
<g id="node5" class="node">
<title>account_tag_addresses</title>
<g id="a_node5"><a xlink:href="../../tables/account_tag_addresses.html" xlink:title="account_tag_addresses" target="_top">
<polygon fill="#ffffff" stroke="transparent" points="551,-357 551,-415 767,-415 767,-357 551,-357"/>
<polygon fill="#f5f5f5" stroke="transparent" points="551,-393 551,-415 767,-415 767,-393 551,-393"/>
<polygon fill="none" stroke="black" points="551,-393 551,-415 767,-415 767,-393 551,-393"/>
<text text-anchor="start" x="556" y="-402.2" font-family="Helvetica,sans-Serif" font-weight="bold" font-size="11.00">account_tag_addresses</text>
<text text-anchor="start" x="725" y="-401.2" font-family="Helvetica,sans-Serif" font-size="11.00">[table]</text>
<polygon fill="none" stroke="black" points="551,-375 551,-393 767,-393 767,-375 551,-375"/>
<text text-anchor="start" x="554" y="-381.2" font-family="Helvetica,sans-Serif" font-size="11.00">...</text>
<polygon fill="#ffffff" stroke="transparent" points="551,-357 551,-375 767,-375 767,-357 551,-357"/>
<polygon fill="none" stroke="black" points="551,-357 551,-375 767,-375 767,-357 551,-357"/>
<polygon fill="#ffffff" stroke="transparent" points="552,-358 552,-374 632,-374 632,-358 552,-358"/>
<text text-anchor="start" x="554" y="-363.2" font-family="Helvetica,sans-Serif" font-size="11.00">&lt; 1</text>
<polygon fill="#ffffff" stroke="transparent" points="632,-358 632,-374 699,-374 699,-358 632,-358"/>
<text text-anchor="start" x="661.5" y="-363.2" font-family="Helvetica,sans-Serif" font-size="11.00"> &#160;</text>
<polygon fill="#ffffff" stroke="transparent" points="699,-358 699,-374 766,-374 766,-358 699,-358"/>
<text text-anchor="start" x="756" y="-363.2" font-family="Helvetica,sans-Serif" font-size="11.00"> &#160;</text>
<polygon fill="black" stroke="black" points="632,-358 632,-374 632,-374 632,-358 632,-358"/>
<polygon fill="black" stroke="black" points="699,-358 699,-374 699,-374 699,-358 699,-358"/>
</a>
</g>
</g>
<!-- account_tag_addresses&#45;&gt;account_identities -->
<g id="edge4" class="edge">
<title>account_tag_addresses:w&#45;&gt;account_identities:e</title>
<path fill="none" stroke="black" d="M535.43,-384C501.78,-384 488.32,-384 448.5,-384"/>
<polygon fill="black" stroke="black" points="542,-384 550,-387.6 546,-384 550,-384 550,-384 550,-384 546,-384 550,-380.4 542,-384 542,-384"/>
<ellipse fill="none" stroke="black" cx="538.8" cy="-384" rx="3.2" ry="3.2"/>
</g>
<!-- account_tag_transactions -->
<g id="node6" class="node">
<title>account_tag_transactions</title>
<g id="a_node6"><a xlink:href="../../tables/account_tag_transactions.html" xlink:title="account_tag_transactions" target="_top">
<polygon fill="#ffffff" stroke="transparent" points="496,-116 496,-336 822,-336 822,-116 496,-116"/>
<polygon fill="#f5f5f5" stroke="transparent" points="498,-312 498,-334 820,-334 820,-312 498,-312"/>
<polygon fill="none" stroke="black" points="498,-312 498,-334 820,-334 820,-312 498,-312"/>
<text text-anchor="start" x="503" y="-321.2" font-family="Helvetica,sans-Serif" font-weight="bold" font-size="11.00">account_tag_transactions</text>
<text text-anchor="start" x="778" y="-320.2" font-family="Helvetica,sans-Serif" font-size="11.00">[table]</text>
<polygon fill="none" stroke="black" points="498,-290 498,-312 705,-312 705,-290 498,-290"/>
<image xlink:href="../../images/primaryKeys.png" width="11px" height="12px" preserveAspectRatio="xMinYMin meet" x="503" y="-307"/>
<text text-anchor="start" x="518" y="-298.2" font-family="Helvetica,sans-Serif" font-size="11.00">id</text>
<polygon fill="none" stroke="black" points="705,-290 705,-312 820,-312 820,-290 705,-290"/>
<text text-anchor="start" x="708" y="-298.2" font-family="Helvetica,sans-Serif" font-size="11.00">bigserial[19]</text>
<polygon fill="#ffffff" stroke="transparent" points="498,-268 498,-290 705,-290 705,-268 498,-268"/>
<polygon fill="none" stroke="black" points="498,-268 498,-290 705,-290 705,-268 498,-268"/>
<image xlink:href="../../images/foreignKeys.png" width="11px" height="12px" preserveAspectRatio="xMinYMin meet" x="503" y="-285"/>
<text text-anchor="start" x="518" y="-276.2" font-family="Helvetica,sans-Serif" font-size="11.00">identity_id</text>
<polygon fill="none" stroke="black" points="705,-268 705,-290 820,-290 820,-268 705,-268"/>
<text text-anchor="start" x="708" y="-276.2" font-family="Helvetica,sans-Serif" font-size="11.00">int8[19]</text>
<polygon fill="none" stroke="black" points="498,-246 498,-268 705,-268 705,-246 498,-246"/>
<text text-anchor="start" x="518" y="-254.2" font-family="Helvetica,sans-Serif" font-size="11.00">inserted_at</text>
<polygon fill="none" stroke="black" points="705,-246 705,-268 820,-268 820,-246 705,-246"/>
<text text-anchor="start" x="708" y="-254.2" font-family="Helvetica,sans-Serif" font-size="11.00">timestamp[22]</text>
<polygon fill="none" stroke="black" points="498,-224 498,-246 705,-246 705,-224 498,-224"/>
<text text-anchor="start" x="518" y="-232.2" font-family="Helvetica,sans-Serif" font-size="11.00">updated_at</text>
<polygon fill="none" stroke="black" points="705,-224 705,-246 820,-246 820,-224 705,-224"/>
<text text-anchor="start" x="708" y="-232.2" font-family="Helvetica,sans-Serif" font-size="11.00">timestamp[22]</text>
<polygon fill="#ffffff" stroke="transparent" points="498,-202 498,-224 705,-224 705,-202 498,-202"/>
<polygon fill="none" stroke="black" points="498,-202 498,-224 705,-224 705,-202 498,-202"/>
<text text-anchor="start" x="518" y="-210.2" font-family="Helvetica,sans-Serif" font-size="11.00">transaction_hash_hash</text>
<polygon fill="none" stroke="black" points="705,-202 705,-224 820,-224 820,-202 705,-202"/>
<text text-anchor="start" x="708" y="-210.2" font-family="Helvetica,sans-Serif" font-size="11.00">bytea[2147483647]</text>
<polygon fill="none" stroke="black" points="498,-180 498,-202 705,-202 705,-180 498,-180"/>
<text text-anchor="start" x="518" y="-188.2" font-family="Helvetica,sans-Serif" font-size="11.00">name</text>
<polygon fill="none" stroke="black" points="705,-180 705,-202 820,-202 820,-180 705,-180"/>
<text text-anchor="start" x="708" y="-188.2" font-family="Helvetica,sans-Serif" font-size="11.00">bytea[2147483647]</text>
<polygon fill="none" stroke="black" points="498,-158 498,-180 705,-180 705,-158 498,-158"/>
<text text-anchor="start" x="518" y="-166.2" font-family="Helvetica,sans-Serif" font-size="11.00">transaction_hash</text>
<polygon fill="none" stroke="black" points="705,-158 705,-180 820,-180 820,-158 705,-158"/>
<text text-anchor="start" x="708" y="-166.2" font-family="Helvetica,sans-Serif" font-size="11.00">bytea[2147483647]</text>
<polygon fill="none" stroke="black" points="498,-136 498,-158 705,-158 705,-136 498,-136"/>
<text text-anchor="start" x="518" y="-144.2" font-family="Helvetica,sans-Serif" font-size="11.00">user_created</text>
<polygon fill="none" stroke="black" points="705,-136 705,-158 820,-158 820,-136 705,-136"/>
<text text-anchor="start" x="708" y="-144.2" font-family="Helvetica,sans-Serif" font-size="11.00">bool[1]</text>
<polygon fill="#ffffff" stroke="transparent" points="498,-118 498,-136 820,-136 820,-118 498,-118"/>
<polygon fill="none" stroke="black" points="498,-118 498,-136 820,-136 820,-118 498,-118"/>
<polygon fill="#ffffff" stroke="transparent" points="499,-119 499,-135 610,-135 610,-119 499,-119"/>
<text text-anchor="start" x="501" y="-124.2" font-family="Helvetica,sans-Serif" font-size="11.00">&lt; 1</text>
<polygon fill="#ffffff" stroke="transparent" points="610,-119 610,-135 709,-135 709,-119 610,-119"/>
<text text-anchor="start" x="655.5" y="-124.2" font-family="Helvetica,sans-Serif" font-size="11.00"> &#160;</text>
<polygon fill="#ffffff" stroke="transparent" points="709,-119 709,-135 819,-135 819,-119 709,-119"/>
<text text-anchor="start" x="797" y="-124.2" font-family="Helvetica,sans-Serif" font-size="11.00">0 &gt;</text>
<polygon fill="black" stroke="black" points="610,-119 610,-135 610,-135 610,-119 610,-119"/>
<polygon fill="black" stroke="black" points="709,-119 709,-135 709,-135 709,-119 709,-119"/>
<polygon fill="none" stroke="black" stroke-width="2" points="497,-117 497,-335 821,-335 821,-117 497,-117"/>
</a>
</g>
</g>
<!-- account_tag_transactions&#45;&gt;account_identities -->
<g id="edge5" class="edge">
<title>account_tag_transactions:w&#45;&gt;account_identities:e</title>
<path fill="none" stroke="black" d="M482.94,-282.99C456.87,-302.17 493.88,-384 448.5,-384"/>
<polygon fill="black" stroke="black" points="489.3,-281.18 497.98,-282.46 493.15,-280.09 497,-279 497,-279 497,-279 493.15,-280.09 496.02,-275.54 489.3,-281.18 489.3,-281.18"/>
<ellipse fill="none" stroke="black" cx="486.23" cy="-282.06" rx="3.2" ry="3.2"/>
</g>
<!-- account_watchlists -->
<g id="node7" class="node">
<title>account_watchlists</title>
<g id="a_node7"><a xlink:href="../../tables/account_watchlists.html" xlink:title="account_watchlists" target="_top">
<polygon fill="#ffffff" stroke="transparent" points="566.5,-37 566.5,-95 751.5,-95 751.5,-37 566.5,-37"/>
<polygon fill="#f5f5f5" stroke="transparent" points="567,-73 567,-95 752,-95 752,-73 567,-73"/>
<polygon fill="none" stroke="black" points="567,-73 567,-95 752,-95 752,-73 567,-73"/>
<text text-anchor="start" x="572" y="-82.2" font-family="Helvetica,sans-Serif" font-weight="bold" font-size="11.00">account_watchlists</text>
<text text-anchor="start" x="710" y="-81.2" font-family="Helvetica,sans-Serif" font-size="11.00">[table]</text>
<polygon fill="none" stroke="black" points="567,-55 567,-73 752,-73 752,-55 567,-55"/>
<text text-anchor="start" x="570" y="-61.2" font-family="Helvetica,sans-Serif" font-size="11.00">...</text>
<polygon fill="#ffffff" stroke="transparent" points="567,-37 567,-55 752,-55 752,-37 567,-37"/>
<polygon fill="none" stroke="black" points="567,-37 567,-55 752,-55 752,-37 567,-37"/>
<polygon fill="#ffffff" stroke="transparent" points="568,-38 568,-54 633,-54 633,-38 568,-38"/>
<text text-anchor="start" x="570" y="-43.2" font-family="Helvetica,sans-Serif" font-size="11.00">&lt; 1</text>
<polygon fill="#ffffff" stroke="transparent" points="633,-38 633,-54 686,-54 686,-38 633,-38"/>
<text text-anchor="start" x="655.5" y="-43.2" font-family="Helvetica,sans-Serif" font-size="11.00"> &#160;</text>
<polygon fill="#ffffff" stroke="transparent" points="686,-38 686,-54 751,-54 751,-38 686,-38"/>
<text text-anchor="start" x="729" y="-43.2" font-family="Helvetica,sans-Serif" font-size="11.00">1 &gt;</text>
<polygon fill="black" stroke="black" points="633,-38 633,-54 633,-54 633,-38 633,-38"/>
<polygon fill="black" stroke="black" points="686,-38 686,-54 686,-54 686,-38 686,-38"/>
</a>
</g>
</g>
<!-- account_watchlists&#45;&gt;account_identities -->
<g id="edge6" class="edge">
<title>account_watchlists:w&#45;&gt;account_identities:e</title>
<path fill="none" stroke="black" d="M551.47,-64.54C522.24,-66.98 507.53,-77.99 488,-106 452.31,-157.18 510.9,-384 448.5,-384"/>
<polygon fill="black" stroke="black" points="558.01,-64.3 566.13,-67.6 562,-64.15 566,-64 566,-64 566,-64 562,-64.15 565.87,-60.4 558.01,-64.3 558.01,-64.3"/>
<ellipse fill="none" stroke="black" cx="554.81" cy="-64.42" rx="3.2" ry="3.2"/>
</g>
</g>
</svg>
