<?xml version="1.0" encoding="UTF-8" standalone="no"?>
<!DOCTYPE svg PUBLIC "-//W3C//DTD SVG 1.1//EN"
 "http://www.w3.org/Graphics/SVG/1.1/DTD/svg11.dtd">
<!-- Generated by graphviz version 9.0.0 (20230911.1827)
 -->
<!-- Title: twoDegreesRelationshipsDiagram Pages: 1 -->
<svg width="708pt" height="511pt"
 viewBox="0.00 0.00 708.00 511.00" xmlns="http://www.w3.org/2000/svg" xmlns:xlink="http://www.w3.org/1999/xlink">
<g id="graph0" class="graph" transform="scale(1 1) rotate(0) translate(4 507)">
<title>twoDegreesRelationshipsDiagram</title>
<polygon fill="#ffffff" stroke="none" points="-4,4 -4,-507 704,-507 704,4 -4,4"/>
<text text-anchor="middle" x="71.38" y="-5.55" font-family="Helvetica,sans-Serif" font-size="11.00">Generated by SchemaSpy</text>
<!-- account_watchlist_addresses -->
<g id="node1" class="node">
<title>account_watchlist_addresses</title>
<g id="a_node1"><a xlink:href="../../tables/account_watchlist_addresses.html" xlink:title="account_watchlist_addresses" target="_top">
<polygon fill="#ffffff" stroke="none" points="399,-37 399,-499 692,-499 692,-37 399,-37"/>
<polygon fill="#f5f5f5" stroke="none" points="401,-475 401,-497 690,-497 690,-475 401,-475"/>
<polygon fill="none" stroke="black" points="401,-475 401,-497 690,-497 690,-475 401,-475"/>
<text text-anchor="start" x="406" y="-482.55" font-family="Helvetica,sans-Serif" font-weight="bold" font-size="11.00">account_watchlist_addresses</text>
<text text-anchor="start" x="655.75" y="-481.55" font-family="Helvetica,sans-Serif" font-size="11.00">[table]</text>
<polygon fill="none" stroke="black" points="401,-453 401,-475 592,-475 592,-453 401,-453"/>
<image xlink:href="../../images/primaryKeys.png" width="11px" height="12px" preserveAspectRatio="xMinYMin meet" x="406" y="-470"/>
<text text-anchor="start" x="421" y="-459.55" font-family="Helvetica,sans-Serif" font-size="11.00">id</text>
<polygon fill="none" stroke="black" points="592,-453 592,-475 690,-475 690,-453 592,-453"/>
<text text-anchor="start" x="595" y="-459.55" font-family="Helvetica,sans-Serif" font-size="11.00">bigserial[19]</text>
<polygon fill="#ffffff" stroke="none" points="401,-431 401,-453 592,-453 592,-431 401,-431"/>
<polygon fill="none" stroke="black" points="401,-431 401,-453 592,-453 592,-431 401,-431"/>
<image xlink:href="../../images/foreignKeys.png" width="11px" height="12px" preserveAspectRatio="xMinYMin meet" x="406" y="-448"/>
<text text-anchor="start" x="421" y="-437.55" font-family="Helvetica,sans-Serif" font-size="11.00">watchlist_id</text>
<polygon fill="none" stroke="black" points="592,-431 592,-453 690,-453 690,-431 592,-431"/>
<text text-anchor="start" x="595" y="-437.55" font-family="Helvetica,sans-Serif" font-size="11.00">int8[19]</text>
<polygon fill="none" stroke="black" points="401,-409 401,-431 592,-431 592,-409 401,-409"/>
<text text-anchor="start" x="421" y="-415.55" font-family="Helvetica,sans-Serif" font-size="11.00">watch_coin_input</text>
<polygon fill="none" stroke="black" points="592,-409 592,-431 690,-431 690,-409 592,-409"/>
<text text-anchor="start" x="595" y="-415.55" font-family="Helvetica,sans-Serif" font-size="11.00">bool[1]</text>
<polygon fill="none" stroke="black" points="401,-387 401,-409 592,-409 592,-387 401,-387"/>
<text text-anchor="start" x="421" y="-393.55" font-family="Helvetica,sans-Serif" font-size="11.00">watch_coin_output</text>
<polygon fill="none" stroke="black" points="592,-387 592,-409 690,-409 690,-387 592,-387"/>
<text text-anchor="start" x="595" y="-393.55" font-family="Helvetica,sans-Serif" font-size="11.00">bool[1]</text>
<polygon fill="none" stroke="black" points="401,-365 401,-387 592,-387 592,-365 401,-365"/>
<text text-anchor="start" x="421" y="-371.55" font-family="Helvetica,sans-Serif" font-size="11.00">watch_erc_20_input</text>
<polygon fill="none" stroke="black" points="592,-365 592,-387 690,-387 690,-365 592,-365"/>
<text text-anchor="start" x="595" y="-371.55" font-family="Helvetica,sans-Serif" font-size="11.00">bool[1]</text>
<polygon fill="none" stroke="black" points="401,-343 401,-365 592,-365 592,-343 401,-343"/>
<text text-anchor="start" x="421" y="-349.55" font-family="Helvetica,sans-Serif" font-size="11.00">watch_erc_20_output</text>
<polygon fill="none" stroke="black" points="592,-343 592,-365 690,-365 690,-343 592,-343"/>
<text text-anchor="start" x="595" y="-349.55" font-family="Helvetica,sans-Serif" font-size="11.00">bool[1]</text>
<polygon fill="none" stroke="black" points="401,-321 401,-343 592,-343 592,-321 401,-321"/>
<text text-anchor="start" x="421" y="-327.55" font-family="Helvetica,sans-Serif" font-size="11.00">watch_erc_721_input</text>
<polygon fill="none" stroke="black" points="592,-321 592,-343 690,-343 690,-321 592,-321"/>
<text text-anchor="start" x="595" y="-327.55" font-family="Helvetica,sans-Serif" font-size="11.00">bool[1]</text>
<polygon fill="none" stroke="black" points="401,-299 401,-321 592,-321 592,-299 401,-299"/>
<text text-anchor="start" x="421" y="-305.55" font-family="Helvetica,sans-Serif" font-size="11.00">watch_erc_721_output</text>
<polygon fill="none" stroke="black" points="592,-299 592,-321 690,-321 690,-299 592,-299"/>
<text text-anchor="start" x="595" y="-305.55" font-family="Helvetica,sans-Serif" font-size="11.00">bool[1]</text>
<polygon fill="none" stroke="black" points="401,-277 401,-299 592,-299 592,-277 401,-277"/>
<text text-anchor="start" x="421" y="-283.55" font-family="Helvetica,sans-Serif" font-size="11.00">watch_erc_1155_input</text>
<polygon fill="none" stroke="black" points="592,-277 592,-299 690,-299 690,-277 592,-277"/>
<text text-anchor="start" x="595" y="-283.55" font-family="Helvetica,sans-Serif" font-size="11.00">bool[1]</text>
<polygon fill="none" stroke="black" points="401,-255 401,-277 592,-277 592,-255 401,-255"/>
<text text-anchor="start" x="421" y="-261.55" font-family="Helvetica,sans-Serif" font-size="11.00">watch_erc_1155_output</text>
<polygon fill="none" stroke="black" points="592,-255 592,-277 690,-277 690,-255 592,-255"/>
<text text-anchor="start" x="595" y="-261.55" font-family="Helvetica,sans-Serif" font-size="11.00">bool[1]</text>
<polygon fill="none" stroke="black" points="401,-233 401,-255 592,-255 592,-233 401,-233"/>
<text text-anchor="start" x="421" y="-239.55" font-family="Helvetica,sans-Serif" font-size="11.00">notify_email</text>
<polygon fill="none" stroke="black" points="592,-233 592,-255 690,-255 690,-233 592,-233"/>
<text text-anchor="start" x="595" y="-239.55" font-family="Helvetica,sans-Serif" font-size="11.00">bool[1]</text>
<polygon fill="none" stroke="black" points="401,-211 401,-233 592,-233 592,-211 401,-211"/>
<text text-anchor="start" x="421" y="-217.55" font-family="Helvetica,sans-Serif" font-size="11.00">notify_epns</text>
<polygon fill="none" stroke="black" points="592,-211 592,-233 690,-233 690,-211 592,-211"/>
<text text-anchor="start" x="595" y="-217.55" font-family="Helvetica,sans-Serif" font-size="11.00">bool[1]</text>
<polygon fill="none" stroke="black" points="401,-189 401,-211 592,-211 592,-189 401,-189"/>
<text text-anchor="start" x="421" y="-195.55" font-family="Helvetica,sans-Serif" font-size="11.00">notify_feed</text>
<polygon fill="none" stroke="black" points="592,-189 592,-211 690,-211 690,-189 592,-189"/>
<text text-anchor="start" x="595" y="-195.55" font-family="Helvetica,sans-Serif" font-size="11.00">bool[1]</text>
<polygon fill="none" stroke="black" points="401,-167 401,-189 592,-189 592,-167 401,-167"/>
<text text-anchor="start" x="421" y="-173.55" font-family="Helvetica,sans-Serif" font-size="11.00">notify_inapp</text>
<polygon fill="none" stroke="black" points="592,-167 592,-189 690,-189 690,-167 592,-167"/>
<text text-anchor="start" x="595" y="-173.55" font-family="Helvetica,sans-Serif" font-size="11.00">bool[1]</text>
<polygon fill="none" stroke="black" points="401,-145 401,-167 592,-167 592,-145 401,-145"/>
<text text-anchor="start" x="421" y="-151.55" font-family="Helvetica,sans-Serif" font-size="11.00">inserted_at</text>
<polygon fill="none" stroke="black" points="592,-145 592,-167 690,-167 690,-145 592,-145"/>
<text text-anchor="start" x="595" y="-151.55" font-family="Helvetica,sans-Serif" font-size="11.00">timestamp[22]</text>
<polygon fill="none" stroke="black" points="401,-123 401,-145 592,-145 592,-123 401,-123"/>
<text text-anchor="start" x="421" y="-129.55" font-family="Helvetica,sans-Serif" font-size="11.00">updated_at</text>
<polygon fill="none" stroke="black" points="592,-123 592,-145 690,-145 690,-123 592,-123"/>
<text text-anchor="start" x="595" y="-129.55" font-family="Helvetica,sans-Serif" font-size="11.00">timestamp[22]</text>
<polygon fill="#ffffff" stroke="none" points="401,-101 401,-123 592,-123 592,-101 401,-101"/>
<polygon fill="none" stroke="black" points="401,-101 401,-123 592,-123 592,-101 401,-101"/>
<text text-anchor="start" x="421" y="-107.55" font-family="Helvetica,sans-Serif" font-size="11.00">address_hash_hash</text>
<polygon fill="none" stroke="black" points="592,-101 592,-123 690,-123 690,-101 592,-101"/>
<text text-anchor="start" x="594.88" y="-107.55" font-family="Helvetica,sans-Serif" font-size="11.00">bytea[2147483647]</text>
<polygon fill="none" stroke="black" points="401,-79 401,-101 592,-101 592,-79 401,-79"/>
<text text-anchor="start" x="421" y="-85.55" font-family="Helvetica,sans-Serif" font-size="11.00">name</text>
<polygon fill="none" stroke="black" points="592,-79 592,-101 690,-101 690,-79 592,-79"/>
<text text-anchor="start" x="594.88" y="-85.55" font-family="Helvetica,sans-Serif" font-size="11.00">bytea[2147483647]</text>
<polygon fill="none" stroke="black" points="401,-57 401,-79 592,-79 592,-57 401,-57"/>
<text text-anchor="start" x="421" y="-63.55" font-family="Helvetica,sans-Serif" font-size="11.00">address_hash</text>
<polygon fill="none" stroke="black" points="592,-57 592,-79 690,-79 690,-57 592,-57"/>
<text text-anchor="start" x="594.88" y="-63.55" font-family="Helvetica,sans-Serif" font-size="11.00">bytea[2147483647]</text>
<polygon fill="#ffffff" stroke="none" points="401,-39 401,-57 501,-57 501,-39 401,-39"/>
<polygon fill="none" stroke="black" points="401,-39 401,-57 501,-57 501,-39 401,-39"/>
<text text-anchor="start" x="404" y="-43.55" font-family="Helvetica,sans-Serif" font-size="11.00">&lt; 1</text>
<polygon fill="#ffffff" stroke="none" points="501,-39 501,-57 592,-57 592,-39 501,-39"/>
<polygon fill="none" stroke="black" points="501,-39 501,-57 592,-57 592,-39 501,-39"/>
<text text-anchor="start" x="583" y="-43.55" font-family="Helvetica,sans-Serif" font-size="11.00"> &#160;</text>
<polygon fill="#ffffff" stroke="none" points="592,-39 592,-57 690,-57 690,-39 592,-39"/>
<polygon fill="none" stroke="black" points="592,-39 592,-57 690,-57 690,-39 592,-39"/>
<text text-anchor="start" x="671.25" y="-43.55" font-family="Helvetica,sans-Serif" font-size="11.00">0 &gt;</text>
<polygon fill="none" stroke="black" stroke-width="2" points="400,-38 400,-498 691,-498 691,-38 400,-38"/>
</a>
</g>
</g>
<!-- account_watchlists -->
<g id="node2" class="node">
<title>account_watchlists</title>
<g id="a_node2"><a xlink:href="../../tables/account_watchlists.html" xlink:title="account_watchlists" target="_top">
<polygon fill="#ffffff" stroke="none" points="201,-373 201,-475 350,-475 350,-373 201,-373"/>
<polygon fill="#f5f5f5" stroke="none" points="201,-453 201,-475 350,-475 350,-453 201,-453"/>
<polygon fill="none" stroke="black" points="201,-453 201,-475 350,-475 350,-453 201,-453"/>
<text text-anchor="start" x="206" y="-460.55" font-family="Helvetica,sans-Serif" font-weight="bold" font-size="11.00">account_watchlists</text>
<text text-anchor="start" x="316" y="-459.55" font-family="Helvetica,sans-Serif" font-size="11.00">[table]</text>
<polygon fill="none" stroke="black" points="201,-431 201,-453 350,-453 350,-431 201,-431"/>
<image xlink:href="../../images/primaryKeys.png" width="11px" height="12px" preserveAspectRatio="xMinYMin meet" x="206" y="-448"/>
<text text-anchor="start" x="230" y="-437.55" font-family="Helvetica,sans-Serif" font-size="11.00">id</text>
<polygon fill="#ffffff" stroke="none" points="201,-409 201,-431 350,-431 350,-409 201,-409"/>
<polygon fill="none" stroke="black" points="201,-409 201,-431 350,-431 350,-409 201,-409"/>
<image xlink:href="../../images/foreignKeys.png" width="11px" height="12px" preserveAspectRatio="xMinYMin meet" x="206" y="-426"/>
<text text-anchor="start" x="230" y="-415.55" font-family="Helvetica,sans-Serif" font-size="11.00">identity_id</text>
<polygon fill="none" stroke="black" points="201,-391 201,-409 350,-409 350,-391 201,-391"/>
<text text-anchor="start" x="204" y="-395.55" font-family="Helvetica,sans-Serif" font-size="11.00">...</text>
<polygon fill="#ffffff" stroke="none" points="201,-373 201,-391 269,-391 269,-373 201,-373"/>
<polygon fill="none" stroke="black" points="201,-373 201,-391 269,-391 269,-373 201,-373"/>
<text text-anchor="start" x="204" y="-377.55" font-family="Helvetica,sans-Serif" font-size="11.00">&lt; 1</text>
<polygon fill="#ffffff" stroke="none" points="269,-373 269,-391 305,-391 305,-373 269,-373"/>
<polygon fill="none" stroke="black" points="269,-373 269,-391 305,-391 305,-373 269,-373"/>
<text text-anchor="start" x="296" y="-377.55" font-family="Helvetica,sans-Serif" font-size="11.00"> &#160;</text>
<polygon fill="#ffffff" stroke="none" points="305,-373 305,-391 350,-391 350,-373 305,-373"/>
<polygon fill="none" stroke="black" points="305,-373 305,-391 350,-391 350,-373 305,-373"/>
<text text-anchor="start" x="331.25" y="-377.55" font-family="Helvetica,sans-Serif" font-size="11.00">1 &gt;</text>
</a>
</g>
</g>
<!-- account_watchlist_addresses&#45;&gt;account_watchlists -->
<g id="edge1" class="edge">
<title>account_watchlist_addresses:w&#45;&gt;account_watchlists:e</title>
<path fill="none" stroke="black" d="M383.89,-442C373.59,-442 366.5,-442 351.5,-442"/>
<polygon fill="black" stroke="black" points="391.17,-442 399.17,-445.6 395.5,-442 398.83,-442 398.83,-442 398.83,-442 395.5,-442 399.17,-438.4 391.17,-442"/>
<ellipse fill="none" stroke="black" cx="386.25" cy="-442" rx="3.2" ry="3.2"/>
</g>
<!-- account_identities -->
<g id="node3" class="node">
<title>account_identities</title>
<g id="a_node3"><a xlink:href="../../tables/account_identities.html" xlink:title="account_identities" target="_top">
<polygon fill="#ffffff" stroke="none" points="8,-393 8,-451 152,-451 152,-393 8,-393"/>
<polygon fill="#f5f5f5" stroke="none" points="8,-429 8,-451 152,-451 152,-429 8,-429"/>
<polygon fill="none" stroke="black" points="8,-429 8,-451 152,-451 152,-429 8,-429"/>
<text text-anchor="start" x="13" y="-436.55" font-family="Helvetica,sans-Serif" font-weight="bold" font-size="11.00">account_identities</text>
<text text-anchor="start" x="118" y="-435.55" font-family="Helvetica,sans-Serif" font-size="11.00">[table]</text>
<polygon fill="none" stroke="black" points="8,-411 8,-429 152,-429 152,-411 8,-411"/>
<text text-anchor="start" x="11" y="-415.55" font-family="Helvetica,sans-Serif" font-size="11.00">...</text>
<polygon fill="#ffffff" stroke="none" points="8,-393 8,-411 74,-411 74,-393 8,-393"/>
<polygon fill="none" stroke="black" points="8,-393 8,-411 74,-411 74,-393 8,-393"/>
<text text-anchor="start" x="11" y="-397.55" font-family="Helvetica,sans-Serif" font-size="11.00">&lt; 1</text>
<polygon fill="#ffffff" stroke="none" points="74,-393 74,-411 108,-411 108,-393 74,-393"/>
<polygon fill="none" stroke="black" points="74,-393 74,-411 108,-411 108,-393 74,-393"/>
<text text-anchor="start" x="99" y="-397.55" font-family="Helvetica,sans-Serif" font-size="11.00"> &#160;</text>
<polygon fill="#ffffff" stroke="none" points="108,-393 108,-411 152,-411 152,-393 108,-393"/>
<polygon fill="none" stroke="black" points="108,-393 108,-411 152,-411 152,-393 108,-393"/>
<text text-anchor="start" x="133.25" y="-397.55" font-family="Helvetica,sans-Serif" font-size="11.00">6 &gt;</text>
</a>
</g>
</g>
<!-- account_watchlists&#45;&gt;account_identities -->
<g id="edge2" class="edge">
<title>account_watchlists:w&#45;&gt;account_identities:e</title>
<path fill="none" stroke="black" d="M183.72,-420C174.09,-420 167.21,-420 153,-420"/>
<polygon fill="black" stroke="black" points="191.17,-420 199.17,-423.6 195.5,-420 198.83,-420 198.83,-420 198.83,-420 195.5,-420 199.17,-416.4 191.17,-420"/>
<ellipse fill="none" stroke="black" cx="186.25" cy="-420" rx="3.2" ry="3.2"/>
</g>
</g>
</svg>
