<?xml version="1.0" encoding="UTF-8" standalone="no"?>
<!DOCTYPE svg PUBLIC "-//W3C//DTD SVG 1.1//EN"
 "http://www.w3.org/Graphics/SVG/1.1/DTD/svg11.dtd">
<!-- Generated by graphviz version 9.0.0 (20230911.1827)
 -->
<!-- Title: oneDegreeRelationshipsDiagram Pages: 1 -->
<svg width="515pt" height="247pt"
 viewBox="0.00 0.00 515.00 247.00" xmlns="http://www.w3.org/2000/svg" xmlns:xlink="http://www.w3.org/1999/xlink">
<g id="graph0" class="graph" transform="scale(1 1) rotate(0) translate(4 243)">
<title>oneDegreeRelationshipsDiagram</title>
<polygon fill="#ffffff" stroke="none" points="-4,4 -4,-243 511,-243 511,4 -4,4"/>
<text text-anchor="middle" x="71.38" y="-5.55" font-family="Helvetica,sans-Serif" font-size="11.00">Generated by SchemaSpy</text>
<!-- account_tag_transactions -->
<g id="node1" class="node">
<title>account_tag_transactions</title>
<g id="a_node1"><a xlink:href="../../tables/account_tag_transactions.html" xlink:title="account_tag_transactions" target="_top">
<polygon fill="#ffffff" stroke="none" points="228,-37 228,-235 499,-235 499,-37 228,-37"/>
<polygon fill="#f5f5f5" stroke="none" points="230,-211 230,-233 497,-233 497,-211 230,-211"/>
<polygon fill="none" stroke="black" points="230,-211 230,-233 497,-233 497,-211 230,-211"/>
<text text-anchor="start" x="235" y="-218.55" font-family="Helvetica,sans-Serif" font-weight="bold" font-size="11.00">account_tag_transactions</text>
<text text-anchor="start" x="462.75" y="-217.55" font-family="Helvetica,sans-Serif" font-size="11.00">[table]</text>
<polygon fill="none" stroke="black" points="230,-189 230,-211 399,-211 399,-189 230,-189"/>
<image xlink:href="../../images/primaryKeys.png" width="11px" height="12px" preserveAspectRatio="xMinYMin meet" x="235" y="-206"/>
<text text-anchor="start" x="250" y="-195.55" font-family="Helvetica,sans-Serif" font-size="11.00">id</text>
<polygon fill="none" stroke="black" points="399,-189 399,-211 497,-211 497,-189 399,-189"/>
<text text-anchor="start" x="402" y="-195.55" font-family="Helvetica,sans-Serif" font-size="11.00">bigserial[19]</text>
<polygon fill="#ffffff" stroke="none" points="230,-167 230,-189 399,-189 399,-167 230,-167"/>
<polygon fill="none" stroke="black" points="230,-167 230,-189 399,-189 399,-167 230,-167"/>
<image xlink:href="../../images/foreignKeys.png" width="11px" height="12px" preserveAspectRatio="xMinYMin meet" x="235" y="-184"/>
<text text-anchor="start" x="250" y="-173.55" font-family="Helvetica,sans-Serif" font-size="11.00">identity_id</text>
<polygon fill="none" stroke="black" points="399,-167 399,-189 497,-189 497,-167 399,-167"/>
<text text-anchor="start" x="402" y="-173.55" font-family="Helvetica,sans-Serif" font-size="11.00">int8[19]</text>
<polygon fill="none" stroke="black" points="230,-145 230,-167 399,-167 399,-145 230,-145"/>
<text text-anchor="start" x="250" y="-151.55" font-family="Helvetica,sans-Serif" font-size="11.00">inserted_at</text>
<polygon fill="none" stroke="black" points="399,-145 399,-167 497,-167 497,-145 399,-145"/>
<text text-anchor="start" x="402" y="-151.55" font-family="Helvetica,sans-Serif" font-size="11.00">timestamp[22]</text>
<polygon fill="none" stroke="black" points="230,-123 230,-145 399,-145 399,-123 230,-123"/>
<text text-anchor="start" x="250" y="-129.55" font-family="Helvetica,sans-Serif" font-size="11.00">updated_at</text>
<polygon fill="none" stroke="black" points="399,-123 399,-145 497,-145 497,-123 399,-123"/>
<text text-anchor="start" x="402" y="-129.55" font-family="Helvetica,sans-Serif" font-size="11.00">timestamp[22]</text>
<polygon fill="#ffffff" stroke="none" points="230,-101 230,-123 399,-123 399,-101 230,-101"/>
<polygon fill="none" stroke="black" points="230,-101 230,-123 399,-123 399,-101 230,-101"/>
<text text-anchor="start" x="250" y="-107.55" font-family="Helvetica,sans-Serif" font-size="11.00">tx_hash_hash</text>
<polygon fill="none" stroke="black" points="399,-101 399,-123 497,-123 497,-101 399,-101"/>
<text text-anchor="start" x="401.88" y="-107.55" font-family="Helvetica,sans-Serif" font-size="11.00">bytea[2147483647]</text>
<polygon fill="none" stroke="black" points="230,-79 230,-101 399,-101 399,-79 230,-79"/>
<text text-anchor="start" x="250" y="-85.55" font-family="Helvetica,sans-Serif" font-size="11.00">name</text>
<polygon fill="none" stroke="black" points="399,-79 399,-101 497,-101 497,-79 399,-79"/>
<text text-anchor="start" x="401.88" y="-85.55" font-family="Helvetica,sans-Serif" font-size="11.00">bytea[2147483647]</text>
<polygon fill="none" stroke="black" points="230,-57 230,-79 399,-79 399,-57 230,-57"/>
<text text-anchor="start" x="250" y="-63.55" font-family="Helvetica,sans-Serif" font-size="11.00">tx_hash</text>
<polygon fill="none" stroke="black" points="399,-57 399,-79 497,-79 497,-57 399,-57"/>
<text text-anchor="start" x="401.88" y="-63.55" font-family="Helvetica,sans-Serif" font-size="11.00">bytea[2147483647]</text>
<polygon fill="#ffffff" stroke="none" points="230,-39 230,-57 319,-57 319,-39 230,-39"/>
<polygon fill="none" stroke="black" points="230,-39 230,-57 319,-57 319,-39 230,-39"/>
<text text-anchor="start" x="233" y="-43.55" font-family="Helvetica,sans-Serif" font-size="11.00">&lt; 1</text>
<polygon fill="#ffffff" stroke="none" points="319,-39 319,-57 399,-57 399,-39 319,-39"/>
<polygon fill="none" stroke="black" points="319,-39 319,-57 399,-57 399,-39 319,-39"/>
<text text-anchor="start" x="390" y="-43.55" font-family="Helvetica,sans-Serif" font-size="11.00"> &#160;</text>
<polygon fill="#ffffff" stroke="none" points="399,-39 399,-57 497,-57 497,-39 399,-39"/>
<polygon fill="none" stroke="black" points="399,-39 399,-57 497,-57 497,-39 399,-39"/>
<text text-anchor="start" x="478.25" y="-43.55" font-family="Helvetica,sans-Serif" font-size="11.00">0 &gt;</text>
<polygon fill="none" stroke="black" stroke-width="2" points="229,-38 229,-234 498,-234 498,-38 229,-38"/>
</a>
</g>
</g>
<!-- account_identities -->
<g id="node2" class="node">
<title>account_identities</title>
<g id="a_node2"><a xlink:href="../../tables/account_identities.html" xlink:title="account_identities" target="_top">
<polygon fill="#ffffff" stroke="none" points="8,-87 8,-211 179,-211 179,-87 8,-87"/>
<polygon fill="#f5f5f5" stroke="none" points="8,-189 8,-211 179,-211 179,-189 8,-189"/>
<polygon fill="none" stroke="black" points="8,-189 8,-211 179,-211 179,-189 8,-189"/>
<text text-anchor="start" x="13" y="-196.55" font-family="Helvetica,sans-Serif" font-weight="bold" font-size="11.00">account_identities</text>
<text text-anchor="start" x="144.75" y="-195.55" font-family="Helvetica,sans-Serif" font-size="11.00">[table]</text>
<polygon fill="none" stroke="black" points="8,-167 8,-189 179,-189 179,-167 8,-167"/>
<image xlink:href="../../images/primaryKeys.png" width="11px" height="12px" preserveAspectRatio="xMinYMin meet" x="13" y="-184"/>
<text text-anchor="start" x="28" y="-173.55" font-family="Helvetica,sans-Serif" font-size="11.00">id</text>
<polygon fill="none" stroke="black" points="8,-145 8,-167 179,-167 179,-145 8,-145"/>
<image xlink:href="../../images/foreignKeys.png" width="11px" height="12px" preserveAspectRatio="xMinYMin meet" x="13" y="-162"/>
<text text-anchor="start" x="28" y="-151.55" font-family="Helvetica,sans-Serif" font-size="11.00">plan_id</text>
<polygon fill="#ffffff" stroke="none" points="8,-123 8,-145 179,-145 179,-123 8,-123"/>
<polygon fill="none" stroke="black" points="8,-123 8,-145 179,-145 179,-123 8,-123"/>
<text text-anchor="start" x="28" y="-129.55" font-family="Helvetica,sans-Serif" font-size="11.00">uid_hash</text>
<polygon fill="none" stroke="black" points="8,-105 8,-123 179,-123 179,-105 8,-105"/>
<text text-anchor="start" x="11" y="-109.55" font-family="Helvetica,sans-Serif" font-size="11.00">...</text>
<polygon fill="#ffffff" stroke="none" points="8,-87 8,-105 87,-105 87,-87 8,-87"/>
<polygon fill="none" stroke="black" points="8,-87 8,-105 87,-105 87,-87 8,-87"/>
<text text-anchor="start" x="11" y="-91.55" font-family="Helvetica,sans-Serif" font-size="11.00">&lt; 1</text>
<polygon fill="#ffffff" stroke="none" points="87,-87 87,-105 128,-105 128,-87 87,-87"/>
<polygon fill="none" stroke="black" points="87,-87 87,-105 128,-105 128,-87 87,-87"/>
<text text-anchor="start" x="119" y="-91.55" font-family="Helvetica,sans-Serif" font-size="11.00"> &#160;</text>
<polygon fill="#ffffff" stroke="none" points="128,-87 128,-105 179,-105 179,-87 128,-87"/>
<polygon fill="none" stroke="black" points="128,-87 128,-105 179,-105 179,-87 128,-87"/>
<text text-anchor="start" x="160.25" y="-91.55" font-family="Helvetica,sans-Serif" font-size="11.00">6 &gt;</text>
</a>
</g>
</g>
<!-- account_tag_transactions&#45;&gt;account_identities -->
<g id="edge1" class="edge">
<title>account_tag_transactions:w&#45;&gt;account_identities:e</title>
<path fill="none" stroke="black" d="M212.89,-178C202.59,-178 195.5,-178 180.5,-178"/>
<polygon fill="black" stroke="black" points="220.17,-178 228.17,-181.6 224.5,-178 227.83,-178 227.83,-178 227.83,-178 224.5,-178 228.17,-174.4 220.17,-178"/>
<ellipse fill="none" stroke="black" cx="215.25" cy="-178" rx="3.2" ry="3.2"/>
</g>
</g>
</svg>
