<?xml version="1.0" encoding="UTF-8" standalone="no"?>
<!DOCTYPE svg PUBLIC "-//W3C//DTD SVG 1.1//EN"
 "http://www.w3.org/Graphics/SVG/1.1/DTD/svg11.dtd">
<!-- Generated by graphviz version 9.0.0 (20230911.1827)
 -->
<!-- Title: oneDegreeRelationshipsDiagram Pages: 1 -->
<svg width="465pt" height="223pt"
 viewBox="0.00 0.00 465.00 223.00" xmlns="http://www.w3.org/2000/svg" xmlns:xlink="http://www.w3.org/1999/xlink">
<g id="graph0" class="graph" transform="scale(1 1) rotate(0) translate(4 219)">
<title>oneDegreeRelationshipsDiagram</title>
<polygon fill="#ffffff" stroke="none" points="-4,4 -4,-219 461,-219 461,4 -4,4"/>
<text text-anchor="middle" x="71.38" y="-5.55" font-family="Helvetica,sans-Serif" font-size="11.00">Generated by SchemaSpy</text>
<!-- account_identities -->
<g id="node1" class="node">
<title>account_identities</title>
<g id="a_node1"><a xlink:href="../../tables/account_identities.html" xlink:title="account_identities" target="_top">
<polygon fill="#ffffff" stroke="none" points="278,-87 278,-211 449,-211 449,-87 278,-87"/>
<polygon fill="#f5f5f5" stroke="none" points="278,-189 278,-211 449,-211 449,-189 278,-189"/>
<polygon fill="none" stroke="black" points="278,-189 278,-211 449,-211 449,-189 278,-189"/>
<text text-anchor="start" x="283" y="-196.55" font-family="Helvetica,sans-Serif" font-weight="bold" font-size="11.00">account_identities</text>
<text text-anchor="start" x="414.75" y="-195.55" font-family="Helvetica,sans-Serif" font-size="11.00">[table]</text>
<polygon fill="none" stroke="black" points="278,-167 278,-189 449,-189 449,-167 278,-167"/>
<image xlink:href="../../images/primaryKeys.png" width="11px" height="12px" preserveAspectRatio="xMinYMin meet" x="283" y="-184"/>
<text text-anchor="start" x="298" y="-173.55" font-family="Helvetica,sans-Serif" font-size="11.00">id</text>
<polygon fill="none" stroke="black" points="278,-145 278,-167 449,-167 449,-145 278,-145"/>
<image xlink:href="../../images/foreignKeys.png" width="11px" height="12px" preserveAspectRatio="xMinYMin meet" x="283" y="-162"/>
<text text-anchor="start" x="298" y="-151.55" font-family="Helvetica,sans-Serif" font-size="11.00">plan_id</text>
<polygon fill="#ffffff" stroke="none" points="278,-123 278,-145 449,-145 449,-123 278,-123"/>
<polygon fill="none" stroke="black" points="278,-123 278,-145 449,-145 449,-123 278,-123"/>
<text text-anchor="start" x="298" y="-129.55" font-family="Helvetica,sans-Serif" font-size="11.00">uid_hash</text>
<polygon fill="none" stroke="black" points="278,-105 278,-123 449,-123 449,-105 278,-105"/>
<text text-anchor="start" x="281" y="-109.55" font-family="Helvetica,sans-Serif" font-size="11.00">...</text>
<polygon fill="#ffffff" stroke="none" points="278,-87 278,-105 357,-105 357,-87 278,-87"/>
<polygon fill="none" stroke="black" points="278,-87 278,-105 357,-105 357,-87 278,-87"/>
<text text-anchor="start" x="281" y="-91.55" font-family="Helvetica,sans-Serif" font-size="11.00">&lt; 1</text>
<polygon fill="#ffffff" stroke="none" points="357,-87 357,-105 398,-105 398,-87 357,-87"/>
<polygon fill="none" stroke="black" points="357,-87 357,-105 398,-105 398,-87 357,-87"/>
<text text-anchor="start" x="389" y="-91.55" font-family="Helvetica,sans-Serif" font-size="11.00"> &#160;</text>
<polygon fill="#ffffff" stroke="none" points="398,-87 398,-105 449,-105 449,-87 398,-87"/>
<polygon fill="none" stroke="black" points="398,-87 398,-105 449,-105 449,-87 398,-87"/>
<text text-anchor="start" x="430.25" y="-91.55" font-family="Helvetica,sans-Serif" font-size="11.00">6 &gt;</text>
</a>
</g>
</g>
<!-- account_api_plans -->
<g id="node2" class="node">
<title>account_api_plans</title>
<g id="a_node2"><a xlink:href="../../tables/account_api_plans.html" xlink:title="account_api_plans" target="_top">
<polygon fill="#ffffff" stroke="none" points="8,-37 8,-191 229,-191 229,-37 8,-37"/>
<polygon fill="#f5f5f5" stroke="none" points="10,-167 10,-189 227,-189 227,-167 10,-167"/>
<polygon fill="none" stroke="black" points="10,-167 10,-189 227,-189 227,-167 10,-167"/>
<text text-anchor="start" x="15" y="-174.55" font-family="Helvetica,sans-Serif" font-weight="bold" font-size="11.00">account_api_plans</text>
<text text-anchor="start" x="192.75" y="-173.55" font-family="Helvetica,sans-Serif" font-size="11.00">[table]</text>
<polygon fill="none" stroke="black" points="10,-145 10,-167 154,-167 154,-145 10,-145"/>
<image xlink:href="../../images/primaryKeys.png" width="11px" height="12px" preserveAspectRatio="xMinYMin meet" x="15" y="-162"/>
<text text-anchor="start" x="30" y="-151.55" font-family="Helvetica,sans-Serif" font-size="11.00">id</text>
<polygon fill="none" stroke="black" points="154,-145 154,-167 227,-167 227,-145 154,-145"/>
<text text-anchor="start" x="157" y="-151.55" font-family="Helvetica,sans-Serif" font-size="11.00">serial[10]</text>
<polygon fill="#ffffff" stroke="none" points="10,-123 10,-145 154,-145 154,-123 10,-123"/>
<polygon fill="none" stroke="black" points="10,-123 10,-145 154,-145 154,-123 10,-123"/>
<text text-anchor="start" x="30" y="-129.55" font-family="Helvetica,sans-Serif" font-size="11.00">max_req_per_second</text>
<polygon fill="none" stroke="black" points="154,-123 154,-145 227,-145 227,-123 154,-123"/>
<text text-anchor="start" x="157" y="-129.55" font-family="Helvetica,sans-Serif" font-size="11.00">int2[5]</text>
<polygon fill="#ffffff" stroke="none" points="10,-101 10,-123 154,-123 154,-101 10,-101"/>
<polygon fill="none" stroke="black" points="10,-101 10,-123 154,-123 154,-101 10,-101"/>
<text text-anchor="start" x="30" y="-107.55" font-family="Helvetica,sans-Serif" font-size="11.00">name</text>
<polygon fill="none" stroke="black" points="154,-101 154,-123 227,-123 227,-101 154,-101"/>
<text text-anchor="start" x="157" y="-107.55" font-family="Helvetica,sans-Serif" font-size="11.00">varchar[255]</text>
<polygon fill="none" stroke="black" points="10,-79 10,-101 154,-101 154,-79 10,-79"/>
<text text-anchor="start" x="30" y="-85.55" font-family="Helvetica,sans-Serif" font-size="11.00">inserted_at</text>
<polygon fill="none" stroke="black" points="154,-79 154,-101 227,-101 227,-79 154,-79"/>
<text text-anchor="start" x="156.75" y="-85.55" font-family="Helvetica,sans-Serif" font-size="11.00">timestamp[22]</text>
<polygon fill="none" stroke="black" points="10,-57 10,-79 154,-79 154,-57 10,-57"/>
<text text-anchor="start" x="30" y="-63.55" font-family="Helvetica,sans-Serif" font-size="11.00">updated_at</text>
<polygon fill="none" stroke="black" points="154,-57 154,-79 227,-79 227,-57 154,-57"/>
<text text-anchor="start" x="156.75" y="-63.55" font-family="Helvetica,sans-Serif" font-size="11.00">timestamp[22]</text>
<polygon fill="#ffffff" stroke="none" points="10,-39 10,-57 86,-57 86,-39 10,-39"/>
<polygon fill="none" stroke="black" points="10,-39 10,-57 86,-57 86,-39 10,-39"/>
<text text-anchor="start" x="13" y="-43.55" font-family="Helvetica,sans-Serif" font-size="11.00">&lt; 0</text>
<polygon fill="#ffffff" stroke="none" points="86,-39 86,-57 154,-57 154,-39 86,-39"/>
<polygon fill="none" stroke="black" points="86,-39 86,-57 154,-57 154,-39 86,-39"/>
<text text-anchor="start" x="145" y="-43.55" font-family="Helvetica,sans-Serif" font-size="11.00"> &#160;</text>
<polygon fill="#ffffff" stroke="none" points="154,-39 154,-57 227,-57 227,-39 154,-39"/>
<polygon fill="none" stroke="black" points="154,-39 154,-57 227,-57 227,-39 154,-39"/>
<text text-anchor="start" x="208.25" y="-43.55" font-family="Helvetica,sans-Serif" font-size="11.00">1 &gt;</text>
<polygon fill="none" stroke="black" stroke-width="2" points="9,-38 9,-190 228,-190 228,-38 9,-38"/>
</a>
</g>
</g>
<!-- account_identities&#45;&gt;account_api_plans -->
<g id="edge1" class="edge">
<title>account_identities:w&#45;&gt;account_api_plans:e</title>
<path fill="none" stroke="black" d="M260.89,-156C250.59,-156 243.5,-156 228.5,-156"/>
<polygon fill="black" stroke="black" points="268.17,-156 276.17,-159.6 272.5,-156 275.83,-156 275.83,-156 275.83,-156 272.5,-156 276.17,-152.4 268.17,-156"/>
<ellipse fill="none" stroke="black" cx="263.25" cy="-156" rx="3.2" ry="3.2"/>
</g>
</g>
</svg>
