<?xml version="1.0" encoding="UTF-8" standalone="no"?>
<!DOCTYPE svg PUBLIC "-//W3C//DTD SVG 1.1//EN"
 "http://www.w3.org/Graphics/SVG/1.1/DTD/svg11.dtd">
<!-- Generated by graphviz version 9.0.0 (20230911.1827)
 -->
<!-- Title: oneDegreeRelationshipsDiagram Pages: 1 -->
<svg width="493pt" height="269pt"
 viewBox="0.00 0.00 493.00 269.00" xmlns="http://www.w3.org/2000/svg" xmlns:xlink="http://www.w3.org/1999/xlink">
<g id="graph0" class="graph" transform="scale(1 1) rotate(0) translate(4 265)">
<title>oneDegreeRelationshipsDiagram</title>
<polygon fill="#ffffff" stroke="none" points="-4,4 -4,-265 489,-265 489,4 -4,4"/>
<text text-anchor="middle" x="71.38" y="-5.55" font-family="Helvetica,sans-Serif" font-size="11.00">Generated by SchemaSpy</text>
<!-- account_custom_abis -->
<g id="node1" class="node">
<title>account_custom_abis</title>
<g id="a_node1"><a xlink:href="../../tables/account_custom_abis.html" xlink:title="account_custom_abis" target="_top">
<polygon fill="#ffffff" stroke="none" points="228,-37 228,-257 477,-257 477,-37 228,-37"/>
<polygon fill="#f5f5f5" stroke="none" points="230,-233 230,-255 475,-255 475,-233 230,-233"/>
<polygon fill="none" stroke="black" points="230,-233 230,-255 475,-255 475,-233 230,-233"/>
<text text-anchor="start" x="235" y="-240.55" font-family="Helvetica,sans-Serif" font-weight="bold" font-size="11.00">account_custom_abis</text>
<text text-anchor="start" x="440.75" y="-239.55" font-family="Helvetica,sans-Serif" font-size="11.00">[table]</text>
<polygon fill="none" stroke="black" points="230,-211 230,-233 377,-233 377,-211 230,-211"/>
<image xlink:href="../../images/primaryKeys.png" width="11px" height="12px" preserveAspectRatio="xMinYMin meet" x="235" y="-228"/>
<text text-anchor="start" x="250" y="-217.55" font-family="Helvetica,sans-Serif" font-size="11.00">id</text>
<polygon fill="none" stroke="black" points="377,-211 377,-233 475,-233 475,-211 377,-211"/>
<text text-anchor="start" x="380" y="-217.55" font-family="Helvetica,sans-Serif" font-size="11.00">serial[10]</text>
<polygon fill="#ffffff" stroke="none" points="230,-189 230,-211 377,-211 377,-189 230,-189"/>
<polygon fill="none" stroke="black" points="230,-189 230,-211 377,-211 377,-189 230,-189"/>
<image xlink:href="../../images/foreignKeys.png" width="11px" height="12px" preserveAspectRatio="xMinYMin meet" x="235" y="-206"/>
<text text-anchor="start" x="250" y="-195.55" font-family="Helvetica,sans-Serif" font-size="11.00">identity_id</text>
<polygon fill="none" stroke="black" points="377,-189 377,-211 475,-211 475,-189 377,-189"/>
<text text-anchor="start" x="380" y="-195.55" font-family="Helvetica,sans-Serif" font-size="11.00">int8[19]</text>
<polygon fill="none" stroke="black" points="230,-167 230,-189 377,-189 377,-167 230,-167"/>
<text text-anchor="start" x="250" y="-173.55" font-family="Helvetica,sans-Serif" font-size="11.00">abi</text>
<polygon fill="none" stroke="black" points="377,-167 377,-189 475,-189 475,-167 377,-167"/>
<text text-anchor="start" x="380" y="-173.55" font-family="Helvetica,sans-Serif" font-size="11.00">jsonb[2147483647]</text>
<polygon fill="none" stroke="black" points="230,-145 230,-167 377,-167 377,-145 230,-145"/>
<text text-anchor="start" x="250" y="-151.55" font-family="Helvetica,sans-Serif" font-size="11.00">inserted_at</text>
<polygon fill="none" stroke="black" points="377,-145 377,-167 475,-167 475,-145 377,-145"/>
<text text-anchor="start" x="380" y="-151.55" font-family="Helvetica,sans-Serif" font-size="11.00">timestamp[22]</text>
<polygon fill="none" stroke="black" points="230,-123 230,-145 377,-145 377,-123 230,-123"/>
<text text-anchor="start" x="250" y="-129.55" font-family="Helvetica,sans-Serif" font-size="11.00">updated_at</text>
<polygon fill="none" stroke="black" points="377,-123 377,-145 475,-145 475,-123 377,-123"/>
<text text-anchor="start" x="380" y="-129.55" font-family="Helvetica,sans-Serif" font-size="11.00">timestamp[22]</text>
<polygon fill="#ffffff" stroke="none" points="230,-101 230,-123 377,-123 377,-101 230,-101"/>
<polygon fill="none" stroke="black" points="230,-101 230,-123 377,-123 377,-101 230,-101"/>
<text text-anchor="start" x="250" y="-107.55" font-family="Helvetica,sans-Serif" font-size="11.00">address_hash_hash</text>
<polygon fill="none" stroke="black" points="377,-101 377,-123 475,-123 475,-101 377,-101"/>
<text text-anchor="start" x="379.88" y="-107.55" font-family="Helvetica,sans-Serif" font-size="11.00">bytea[2147483647]</text>
<polygon fill="none" stroke="black" points="230,-79 230,-101 377,-101 377,-79 230,-79"/>
<text text-anchor="start" x="250" y="-85.55" font-family="Helvetica,sans-Serif" font-size="11.00">address_hash</text>
<polygon fill="none" stroke="black" points="377,-79 377,-101 475,-101 475,-79 377,-79"/>
<text text-anchor="start" x="379.88" y="-85.55" font-family="Helvetica,sans-Serif" font-size="11.00">bytea[2147483647]</text>
<polygon fill="none" stroke="black" points="230,-57 230,-79 377,-79 377,-57 230,-57"/>
<text text-anchor="start" x="250" y="-63.55" font-family="Helvetica,sans-Serif" font-size="11.00">name</text>
<polygon fill="none" stroke="black" points="377,-57 377,-79 475,-79 475,-57 377,-57"/>
<text text-anchor="start" x="379.88" y="-63.55" font-family="Helvetica,sans-Serif" font-size="11.00">bytea[2147483647]</text>
<polygon fill="#ffffff" stroke="none" points="230,-39 230,-57 308,-57 308,-39 230,-39"/>
<polygon fill="none" stroke="black" points="230,-39 230,-57 308,-57 308,-39 230,-39"/>
<text text-anchor="start" x="233" y="-43.55" font-family="Helvetica,sans-Serif" font-size="11.00">&lt; 1</text>
<polygon fill="#ffffff" stroke="none" points="308,-39 308,-57 377,-57 377,-39 308,-39"/>
<polygon fill="none" stroke="black" points="308,-39 308,-57 377,-57 377,-39 308,-39"/>
<text text-anchor="start" x="368" y="-43.55" font-family="Helvetica,sans-Serif" font-size="11.00"> &#160;</text>
<polygon fill="#ffffff" stroke="none" points="377,-39 377,-57 475,-57 475,-39 377,-39"/>
<polygon fill="none" stroke="black" points="377,-39 377,-57 475,-57 475,-39 377,-39"/>
<text text-anchor="start" x="456.25" y="-43.55" font-family="Helvetica,sans-Serif" font-size="11.00">0 &gt;</text>
<polygon fill="none" stroke="black" stroke-width="2" points="229,-38 229,-256 476,-256 476,-38 229,-38"/>
</a>
</g>
</g>
<!-- account_identities -->
<g id="node2" class="node">
<title>account_identities</title>
<g id="a_node2"><a xlink:href="../../tables/account_identities.html" xlink:title="account_identities" target="_top">
<polygon fill="#ffffff" stroke="none" points="8,-109 8,-233 179,-233 179,-109 8,-109"/>
<polygon fill="#f5f5f5" stroke="none" points="8,-211 8,-233 179,-233 179,-211 8,-211"/>
<polygon fill="none" stroke="black" points="8,-211 8,-233 179,-233 179,-211 8,-211"/>
<text text-anchor="start" x="13" y="-218.55" font-family="Helvetica,sans-Serif" font-weight="bold" font-size="11.00">account_identities</text>
<text text-anchor="start" x="144.75" y="-217.55" font-family="Helvetica,sans-Serif" font-size="11.00">[table]</text>
<polygon fill="none" stroke="black" points="8,-189 8,-211 179,-211 179,-189 8,-189"/>
<image xlink:href="../../images/primaryKeys.png" width="11px" height="12px" preserveAspectRatio="xMinYMin meet" x="13" y="-206"/>
<text text-anchor="start" x="28" y="-195.55" font-family="Helvetica,sans-Serif" font-size="11.00">id</text>
<polygon fill="none" stroke="black" points="8,-167 8,-189 179,-189 179,-167 8,-167"/>
<image xlink:href="../../images/foreignKeys.png" width="11px" height="12px" preserveAspectRatio="xMinYMin meet" x="13" y="-184"/>
<text text-anchor="start" x="28" y="-173.55" font-family="Helvetica,sans-Serif" font-size="11.00">plan_id</text>
<polygon fill="#ffffff" stroke="none" points="8,-145 8,-167 179,-167 179,-145 8,-145"/>
<polygon fill="none" stroke="black" points="8,-145 8,-167 179,-167 179,-145 8,-145"/>
<text text-anchor="start" x="28" y="-151.55" font-family="Helvetica,sans-Serif" font-size="11.00">uid_hash</text>
<polygon fill="none" stroke="black" points="8,-127 8,-145 179,-145 179,-127 8,-127"/>
<text text-anchor="start" x="11" y="-131.55" font-family="Helvetica,sans-Serif" font-size="11.00">...</text>
<polygon fill="#ffffff" stroke="none" points="8,-109 8,-127 87,-127 87,-109 8,-109"/>
<polygon fill="none" stroke="black" points="8,-109 8,-127 87,-127 87,-109 8,-109"/>
<text text-anchor="start" x="11" y="-113.55" font-family="Helvetica,sans-Serif" font-size="11.00">&lt; 1</text>
<polygon fill="#ffffff" stroke="none" points="87,-109 87,-127 128,-127 128,-109 87,-109"/>
<polygon fill="none" stroke="black" points="87,-109 87,-127 128,-127 128,-109 87,-109"/>
<text text-anchor="start" x="119" y="-113.55" font-family="Helvetica,sans-Serif" font-size="11.00"> &#160;</text>
<polygon fill="#ffffff" stroke="none" points="128,-109 128,-127 179,-127 179,-109 128,-109"/>
<polygon fill="none" stroke="black" points="128,-109 128,-127 179,-127 179,-109 128,-109"/>
<text text-anchor="start" x="160.25" y="-113.55" font-family="Helvetica,sans-Serif" font-size="11.00">6 &gt;</text>
</a>
</g>
</g>
<!-- account_custom_abis&#45;&gt;account_identities -->
<g id="edge1" class="edge">
<title>account_custom_abis:w&#45;&gt;account_identities:e</title>
<path fill="none" stroke="black" d="M212.89,-200C202.59,-200 195.5,-200 180.5,-200"/>
<polygon fill="black" stroke="black" points="220.17,-200 228.17,-203.6 224.5,-200 227.83,-200 227.83,-200 227.83,-200 224.5,-200 228.17,-196.4 220.17,-200"/>
<ellipse fill="none" stroke="black" cx="215.25" cy="-200" rx="3.2" ry="3.2"/>
</g>
</g>
</svg>
