<?xml version="1.0" encoding="UTF-8" standalone="no"?>
<!DOCTYPE svg PUBLIC "-//W3C//DTD SVG 1.1//EN"
 "http://www.w3.org/Graphics/SVG/1.1/DTD/svg11.dtd">
<!-- Generated by graphviz version 9.0.0 (20230911.1827)
 -->
<!-- Title: oneDegreeRelationshipsDiagram Pages: 1 -->
<svg width="757pt" height="832pt"
 viewBox="0.00 0.00 757.00 832.00" xmlns="http://www.w3.org/2000/svg" xmlns:xlink="http://www.w3.org/1999/xlink">
<g id="graph0" class="graph" transform="scale(1 1) rotate(0) translate(4 828)">
<title>oneDegreeRelationshipsDiagram</title>
<polygon fill="#ffffff" stroke="none" points="-4,4 -4,-828 753,-828 753,4 -4,4"/>
<text text-anchor="middle" x="71.38" y="-5.55" font-family="Helvetica,sans-Serif" font-size="11.00">Generated by SchemaSpy</text>
<!-- account_api_keys -->
<g id="node1" class="node">
<title>account_api_keys</title>
<g id="a_node1"><a xlink:href="../../tables/account_api_keys.html" xlink:title="account_api_keys" target="_top">
<polygon fill="#ffffff" stroke="none" points="562.5,-718 562.5,-820 704.5,-820 704.5,-718 562.5,-718"/>
<polygon fill="#f5f5f5" stroke="none" points="562.5,-798 562.5,-820 704.5,-820 704.5,-798 562.5,-798"/>
<polygon fill="none" stroke="black" points="562.5,-798 562.5,-820 704.5,-820 704.5,-798 562.5,-798"/>
<text text-anchor="start" x="567.5" y="-805.55" font-family="Helvetica,sans-Serif" font-weight="bold" font-size="11.00">account_api_keys</text>
<text text-anchor="start" x="670.5" y="-804.55" font-family="Helvetica,sans-Serif" font-size="11.00">[table]</text>
<polygon fill="#ffffff" stroke="none" points="562.5,-776 562.5,-798 704.5,-798 704.5,-776 562.5,-776"/>
<polygon fill="none" stroke="black" points="562.5,-776 562.5,-798 704.5,-798 704.5,-776 562.5,-776"/>
<image xlink:href="../../images/foreignKeys.png" width="11px" height="12px" preserveAspectRatio="xMinYMin meet" x="567.5" y="-793"/>
<text text-anchor="start" x="591.5" y="-782.55" font-family="Helvetica,sans-Serif" font-size="11.00">identity_id</text>
<polygon fill="none" stroke="black" points="562.5,-754 562.5,-776 704.5,-776 704.5,-754 562.5,-754"/>
<image xlink:href="../../images/primaryKeys.png" width="11px" height="12px" preserveAspectRatio="xMinYMin meet" x="567.5" y="-771"/>
<text text-anchor="start" x="591.5" y="-760.55" font-family="Helvetica,sans-Serif" font-size="11.00">value</text>
<polygon fill="none" stroke="black" points="562.5,-736 562.5,-754 704.5,-754 704.5,-736 562.5,-736"/>
<text text-anchor="start" x="565.5" y="-740.55" font-family="Helvetica,sans-Serif" font-size="11.00">...</text>
<polygon fill="#ffffff" stroke="none" points="562.5,-718 562.5,-736 631.5,-736 631.5,-718 562.5,-718"/>
<polygon fill="none" stroke="black" points="562.5,-718 562.5,-736 631.5,-736 631.5,-718 562.5,-718"/>
<text text-anchor="start" x="565.5" y="-722.55" font-family="Helvetica,sans-Serif" font-size="11.00">&lt; 1</text>
<polygon fill="#ffffff" stroke="none" points="631.5,-718 631.5,-736 667.5,-736 667.5,-718 631.5,-718"/>
<polygon fill="none" stroke="black" points="631.5,-718 631.5,-736 667.5,-736 667.5,-718 631.5,-718"/>
<text text-anchor="start" x="658.5" y="-722.55" font-family="Helvetica,sans-Serif" font-size="11.00"> &#160;</text>
<polygon fill="#ffffff" stroke="none" points="667.5,-718 667.5,-736 704.5,-736 704.5,-718 667.5,-718"/>
<polygon fill="none" stroke="black" points="667.5,-718 667.5,-736 704.5,-736 704.5,-718 667.5,-718"/>
<text text-anchor="start" x="695.5" y="-722.55" font-family="Helvetica,sans-Serif" font-size="11.00"> &#160;</text>
</a>
</g>
</g>
<!-- account_identities -->
<g id="node2" class="node">
<title>account_identities</title>
<g id="a_node2"><a xlink:href="../../tables/account_identities.html" xlink:title="account_identities" target="_top">
<polygon fill="#ffffff" stroke="none" points="204,-184 204,-470 477,-470 477,-184 204,-184"/>
<polygon fill="#f5f5f5" stroke="none" points="206,-446 206,-468 475,-468 475,-446 206,-446"/>
<polygon fill="none" stroke="black" points="206,-446 206,-468 475,-468 475,-446 206,-446"/>
<text text-anchor="start" x="211" y="-453.55" font-family="Helvetica,sans-Serif" font-weight="bold" font-size="11.00">account_identities</text>
<text text-anchor="start" x="440.75" y="-452.55" font-family="Helvetica,sans-Serif" font-size="11.00">[table]</text>
<polygon fill="none" stroke="black" points="206,-424 206,-446 377,-446 377,-424 206,-424"/>
<image xlink:href="../../images/primaryKeys.png" width="11px" height="12px" preserveAspectRatio="xMinYMin meet" x="211" y="-441"/>
<text text-anchor="start" x="226" y="-430.55" font-family="Helvetica,sans-Serif" font-size="11.00">id</text>
<polygon fill="none" stroke="black" points="377,-424 377,-446 475,-446 475,-424 377,-424"/>
<text text-anchor="start" x="380" y="-430.55" font-family="Helvetica,sans-Serif" font-size="11.00">bigserial[19]</text>
<polygon fill="none" stroke="black" points="206,-402 206,-424 377,-424 377,-402 206,-402"/>
<text text-anchor="start" x="226" y="-408.55" font-family="Helvetica,sans-Serif" font-size="11.00">inserted_at</text>
<polygon fill="none" stroke="black" points="377,-402 377,-424 475,-424 475,-402 377,-402"/>
<text text-anchor="start" x="380" y="-408.55" font-family="Helvetica,sans-Serif" font-size="11.00">timestamp[22]</text>
<polygon fill="none" stroke="black" points="206,-380 206,-402 377,-402 377,-380 206,-380"/>
<text text-anchor="start" x="226" y="-386.55" font-family="Helvetica,sans-Serif" font-size="11.00">updated_at</text>
<polygon fill="none" stroke="black" points="377,-380 377,-402 475,-402 475,-380 377,-380"/>
<text text-anchor="start" x="380" y="-386.55" font-family="Helvetica,sans-Serif" font-size="11.00">timestamp[22]</text>
<polygon fill="none" stroke="black" points="206,-358 206,-380 377,-380 377,-358 206,-358"/>
<image xlink:href="../../images/foreignKeys.png" width="11px" height="12px" preserveAspectRatio="xMinYMin meet" x="211" y="-375"/>
<text text-anchor="start" x="226" y="-364.55" font-family="Helvetica,sans-Serif" font-size="11.00">plan_id</text>
<polygon fill="none" stroke="black" points="377,-358 377,-380 475,-380 475,-358 377,-358"/>
<text text-anchor="start" x="380" y="-364.55" font-family="Helvetica,sans-Serif" font-size="11.00">int8[19]</text>
<polygon fill="none" stroke="black" points="206,-336 206,-358 377,-358 377,-336 206,-336"/>
<text text-anchor="start" x="226" y="-342.55" font-family="Helvetica,sans-Serif" font-size="11.00">uid</text>
<polygon fill="none" stroke="black" points="377,-336 377,-358 475,-358 475,-336 377,-336"/>
<text text-anchor="start" x="379.88" y="-342.55" font-family="Helvetica,sans-Serif" font-size="11.00">bytea[2147483647]</text>
<polygon fill="#ffffff" stroke="none" points="206,-314 206,-336 377,-336 377,-314 206,-314"/>
<polygon fill="none" stroke="black" points="206,-314 206,-336 377,-336 377,-314 206,-314"/>
<text text-anchor="start" x="226" y="-320.55" font-family="Helvetica,sans-Serif" font-size="11.00">uid_hash</text>
<polygon fill="none" stroke="black" points="377,-314 377,-336 475,-336 475,-314 377,-314"/>
<text text-anchor="start" x="379.88" y="-320.55" font-family="Helvetica,sans-Serif" font-size="11.00">bytea[2147483647]</text>
<polygon fill="none" stroke="black" points="206,-292 206,-314 377,-314 377,-292 206,-292"/>
<text text-anchor="start" x="226" y="-298.55" font-family="Helvetica,sans-Serif" font-size="11.00">email</text>
<polygon fill="none" stroke="black" points="377,-292 377,-314 475,-314 475,-292 377,-292"/>
<text text-anchor="start" x="379.88" y="-298.55" font-family="Helvetica,sans-Serif" font-size="11.00">bytea[2147483647]</text>
<polygon fill="none" stroke="black" points="206,-270 206,-292 377,-292 377,-270 206,-270"/>
<text text-anchor="start" x="226" y="-276.55" font-family="Helvetica,sans-Serif" font-size="11.00">name</text>
<polygon fill="none" stroke="black" points="377,-270 377,-292 475,-292 475,-270 377,-270"/>
<text text-anchor="start" x="379.88" y="-276.55" font-family="Helvetica,sans-Serif" font-size="11.00">bytea[2147483647]</text>
<polygon fill="none" stroke="black" points="206,-248 206,-270 377,-270 377,-248 206,-248"/>
<text text-anchor="start" x="226" y="-254.55" font-family="Helvetica,sans-Serif" font-size="11.00">nickname</text>
<polygon fill="none" stroke="black" points="377,-248 377,-270 475,-270 475,-248 377,-248"/>
<text text-anchor="start" x="379.88" y="-254.55" font-family="Helvetica,sans-Serif" font-size="11.00">bytea[2147483647]</text>
<polygon fill="none" stroke="black" points="206,-226 206,-248 377,-248 377,-226 206,-226"/>
<text text-anchor="start" x="226" y="-232.55" font-family="Helvetica,sans-Serif" font-size="11.00">avatar</text>
<polygon fill="none" stroke="black" points="377,-226 377,-248 475,-248 475,-226 377,-226"/>
<text text-anchor="start" x="379.88" y="-232.55" font-family="Helvetica,sans-Serif" font-size="11.00">bytea[2147483647]</text>
<polygon fill="none" stroke="black" points="206,-204 206,-226 377,-226 377,-204 206,-204"/>
<text text-anchor="start" x="226" y="-210.55" font-family="Helvetica,sans-Serif" font-size="11.00">verification_email_sent_at</text>
<polygon fill="none" stroke="black" points="377,-204 377,-226 475,-226 475,-204 377,-204"/>
<text text-anchor="start" x="380" y="-210.55" font-family="Helvetica,sans-Serif" font-size="11.00">timestamp[29,6]</text>
<polygon fill="#ffffff" stroke="none" points="206,-186 206,-204 296,-204 296,-186 206,-186"/>
<polygon fill="none" stroke="black" points="206,-186 206,-204 296,-204 296,-186 206,-186"/>
<text text-anchor="start" x="209" y="-190.55" font-family="Helvetica,sans-Serif" font-size="11.00">&lt; 1</text>
<polygon fill="#ffffff" stroke="none" points="296,-186 296,-204 377,-204 377,-186 296,-186"/>
<polygon fill="none" stroke="black" points="296,-186 296,-204 377,-204 377,-186 296,-186"/>
<text text-anchor="start" x="368" y="-190.55" font-family="Helvetica,sans-Serif" font-size="11.00"> &#160;</text>
<polygon fill="#ffffff" stroke="none" points="377,-186 377,-204 475,-204 475,-186 377,-186"/>
<polygon fill="none" stroke="black" points="377,-186 377,-204 475,-204 475,-186 377,-186"/>
<text text-anchor="start" x="456.25" y="-190.55" font-family="Helvetica,sans-Serif" font-size="11.00">6 &gt;</text>
<polygon fill="none" stroke="black" stroke-width="2" points="205,-185 205,-469 476,-469 476,-185 205,-185"/>
</a>
</g>
</g>
<!-- account_api_keys&#45;&gt;account_identities -->
<g id="edge1" class="edge">
<title>account_api_keys:w&#45;&gt;account_identities:e</title>
<path fill="none" stroke="black" d="M546.07,-784.16C523.83,-774.25 528.87,-740.03 518,-708 498.28,-649.89 537.86,-435 476.5,-435"/>
<polygon fill="black" stroke="black" points="553.3,-785.49 560.52,-790.48 557.57,-786.28 560.84,-786.88 560.84,-786.88 560.84,-786.88 557.57,-786.28 561.82,-783.4 553.3,-785.49"/>
<ellipse fill="none" stroke="black" cx="548.47" cy="-784.6" rx="3.2" ry="3.2"/>
</g>
<!-- account_api_plans -->
<g id="node4" class="node">
<title>account_api_plans</title>
<g id="a_node4"><a xlink:href="../../tables/account_api_plans.html" xlink:title="account_api_plans" target="_top">
<polygon fill="#ffffff" stroke="none" points="8,-278 8,-402 155,-402 155,-278 8,-278"/>
<polygon fill="#f5f5f5" stroke="none" points="8,-380 8,-402 155,-402 155,-380 8,-380"/>
<polygon fill="none" stroke="black" points="8,-380 8,-402 155,-402 155,-380 8,-380"/>
<text text-anchor="start" x="13" y="-387.55" font-family="Helvetica,sans-Serif" font-weight="bold" font-size="11.00">account_api_plans</text>
<text text-anchor="start" x="121" y="-386.55" font-family="Helvetica,sans-Serif" font-size="11.00">[table]</text>
<polygon fill="none" stroke="black" points="8,-358 8,-380 155,-380 155,-358 8,-358"/>
<image xlink:href="../../images/primaryKeys.png" width="11px" height="12px" preserveAspectRatio="xMinYMin meet" x="13" y="-375"/>
<text text-anchor="start" x="29.5" y="-364.55" font-family="Helvetica,sans-Serif" font-size="11.00">id</text>
<polygon fill="#ffffff" stroke="none" points="8,-336 8,-358 155,-358 155,-336 8,-336"/>
<polygon fill="none" stroke="black" points="8,-336 8,-358 155,-358 155,-336 8,-336"/>
<text text-anchor="start" x="29.5" y="-342.55" font-family="Helvetica,sans-Serif" font-size="11.00">max_req_per_second</text>
<polygon fill="#ffffff" stroke="none" points="8,-314 8,-336 155,-336 155,-314 8,-314"/>
<polygon fill="none" stroke="black" points="8,-314 8,-336 155,-336 155,-314 8,-314"/>
<text text-anchor="start" x="29.5" y="-320.55" font-family="Helvetica,sans-Serif" font-size="11.00">name</text>
<polygon fill="none" stroke="black" points="8,-296 8,-314 155,-314 155,-296 8,-296"/>
<text text-anchor="start" x="11" y="-300.55" font-family="Helvetica,sans-Serif" font-size="11.00">...</text>
<polygon fill="#ffffff" stroke="none" points="8,-278 8,-296 71,-296 71,-278 8,-278"/>
<polygon fill="none" stroke="black" points="8,-278 8,-296 71,-296 71,-278 8,-278"/>
<text text-anchor="start" x="11" y="-282.55" font-family="Helvetica,sans-Serif" font-size="11.00"> &#160;</text>
<polygon fill="#ffffff" stroke="none" points="71,-278 71,-296 108,-296 108,-278 71,-278"/>
<polygon fill="none" stroke="black" points="71,-278 71,-296 108,-296 108,-278 71,-278"/>
<text text-anchor="start" x="99" y="-282.55" font-family="Helvetica,sans-Serif" font-size="11.00"> &#160;</text>
<polygon fill="#ffffff" stroke="none" points="108,-278 108,-296 155,-296 155,-278 108,-278"/>
<polygon fill="none" stroke="black" points="108,-278 108,-296 155,-296 155,-278 108,-278"/>
<text text-anchor="start" x="136.25" y="-282.55" font-family="Helvetica,sans-Serif" font-size="11.00">1 &gt;</text>
</a>
</g>
</g>
<!-- account_identities&#45;&gt;account_api_plans -->
<g id="edge3" class="edge">
<title>account_identities:w&#45;&gt;account_api_plans:e</title>
<path fill="none" stroke="black" d="M188.89,-369C178.59,-369 171.5,-369 156.5,-369"/>
<polygon fill="black" stroke="black" points="196.17,-369 204.17,-372.6 200.5,-369 203.83,-369 203.83,-369 203.83,-369 200.5,-369 204.17,-365.4 196.17,-369"/>
<ellipse fill="none" stroke="black" cx="191.25" cy="-369" rx="3.2" ry="3.2"/>
</g>
<!-- account_custom_abis -->
<g id="node3" class="node">
<title>account_custom_abis</title>
<g id="a_node3"><a xlink:href="../../tables/account_custom_abis.html" xlink:title="account_custom_abis" target="_top">
<polygon fill="#ffffff" stroke="none" points="551,-573 551,-697 716,-697 716,-573 551,-573"/>
<polygon fill="#f5f5f5" stroke="none" points="551,-675 551,-697 716,-697 716,-675 551,-675"/>
<polygon fill="none" stroke="black" points="551,-675 551,-697 716,-697 716,-675 551,-675"/>
<text text-anchor="start" x="556" y="-682.55" font-family="Helvetica,sans-Serif" font-weight="bold" font-size="11.00">account_custom_abis</text>
<text text-anchor="start" x="682" y="-681.55" font-family="Helvetica,sans-Serif" font-size="11.00">[table]</text>
<polygon fill="none" stroke="black" points="551,-653 551,-675 716,-675 716,-653 551,-653"/>
<image xlink:href="../../images/primaryKeys.png" width="11px" height="12px" preserveAspectRatio="xMinYMin meet" x="556" y="-670"/>
<text text-anchor="start" x="580" y="-659.55" font-family="Helvetica,sans-Serif" font-size="11.00">id</text>
<polygon fill="#ffffff" stroke="none" points="551,-631 551,-653 716,-653 716,-631 551,-631"/>
<polygon fill="none" stroke="black" points="551,-631 551,-653 716,-653 716,-631 551,-631"/>
<image xlink:href="../../images/foreignKeys.png" width="11px" height="12px" preserveAspectRatio="xMinYMin meet" x="556" y="-648"/>
<text text-anchor="start" x="580" y="-637.55" font-family="Helvetica,sans-Serif" font-size="11.00">identity_id</text>
<polygon fill="#ffffff" stroke="none" points="551,-609 551,-631 716,-631 716,-609 551,-609"/>
<polygon fill="none" stroke="black" points="551,-609 551,-631 716,-631 716,-609 551,-609"/>
<text text-anchor="start" x="580" y="-615.55" font-family="Helvetica,sans-Serif" font-size="11.00">address_hash_hash</text>
<polygon fill="none" stroke="black" points="551,-591 551,-609 716,-609 716,-591 551,-591"/>
<text text-anchor="start" x="554" y="-595.55" font-family="Helvetica,sans-Serif" font-size="11.00">...</text>
<polygon fill="#ffffff" stroke="none" points="551,-573 551,-591 632,-591 632,-573 551,-573"/>
<polygon fill="none" stroke="black" points="551,-573 551,-591 632,-591 632,-573 551,-573"/>
<text text-anchor="start" x="554" y="-577.55" font-family="Helvetica,sans-Serif" font-size="11.00">&lt; 1</text>
<polygon fill="#ffffff" stroke="none" points="632,-573 632,-591 674,-591 674,-573 632,-573"/>
<polygon fill="none" stroke="black" points="632,-573 632,-591 674,-591 674,-573 632,-573"/>
<text text-anchor="start" x="665" y="-577.55" font-family="Helvetica,sans-Serif" font-size="11.00"> &#160;</text>
<polygon fill="#ffffff" stroke="none" points="674,-573 674,-591 716,-591 716,-573 674,-573"/>
<polygon fill="none" stroke="black" points="674,-573 674,-591 716,-591 716,-573 674,-573"/>
<text text-anchor="start" x="707" y="-577.55" font-family="Helvetica,sans-Serif" font-size="11.00"> &#160;</text>
</a>
</g>
</g>
<!-- account_custom_abis&#45;&gt;account_identities -->
<g id="edge2" class="edge">
<title>account_custom_abis:w&#45;&gt;account_identities:e</title>
<path fill="none" stroke="black" d="M534.1,-639.82C465.93,-617.69 568.15,-435 476.5,-435"/>
<polygon fill="black" stroke="black" points="541.25,-640.83 548.66,-645.52 545.54,-641.44 548.84,-641.91 548.84,-641.91 548.84,-641.91 545.54,-641.44 549.67,-638.39 541.25,-640.83"/>
<ellipse fill="none" stroke="black" cx="536.38" cy="-640.14" rx="3.2" ry="3.2"/>
</g>
<!-- account_public_tags_requests -->
<g id="node5" class="node">
<title>account_public_tags_requests</title>
<g id="a_node5"><a xlink:href="../../tables/account_public_tags_requests.html" xlink:title="account_public_tags_requests" target="_top">
<polygon fill="#ffffff" stroke="none" points="526,-450 526,-552 741,-552 741,-450 526,-450"/>
<polygon fill="#f5f5f5" stroke="none" points="526,-530 526,-552 741,-552 741,-530 526,-530"/>
<polygon fill="none" stroke="black" points="526,-530 526,-552 741,-552 741,-530 526,-530"/>
<text text-anchor="start" x="531" y="-537.55" font-family="Helvetica,sans-Serif" font-weight="bold" font-size="11.00">account_public_tags_requests</text>
<text text-anchor="start" x="707" y="-536.55" font-family="Helvetica,sans-Serif" font-size="11.00">[table]</text>
<polygon fill="none" stroke="black" points="526,-508 526,-530 741,-530 741,-508 526,-508"/>
<image xlink:href="../../images/primaryKeys.png" width="11px" height="12px" preserveAspectRatio="xMinYMin meet" x="531" y="-525"/>
<text text-anchor="start" x="555" y="-514.55" font-family="Helvetica,sans-Serif" font-size="11.00">id</text>
<polygon fill="none" stroke="black" points="526,-486 526,-508 741,-508 741,-486 526,-486"/>
<image xlink:href="../../images/foreignKeys.png" width="11px" height="12px" preserveAspectRatio="xMinYMin meet" x="531" y="-503"/>
<text text-anchor="start" x="555" y="-492.55" font-family="Helvetica,sans-Serif" font-size="11.00">identity_id</text>
<polygon fill="none" stroke="black" points="526,-468 526,-486 741,-486 741,-468 526,-468"/>
<text text-anchor="start" x="529" y="-472.55" font-family="Helvetica,sans-Serif" font-size="11.00">...</text>
<polygon fill="#ffffff" stroke="none" points="526,-450 526,-468 632,-468 632,-450 526,-450"/>
<polygon fill="none" stroke="black" points="526,-450 526,-468 632,-468 632,-450 526,-450"/>
<text text-anchor="start" x="529" y="-454.55" font-family="Helvetica,sans-Serif" font-size="11.00">&lt; 1</text>
<polygon fill="#ffffff" stroke="none" points="632,-450 632,-468 686,-468 686,-450 632,-450"/>
<polygon fill="none" stroke="black" points="632,-450 632,-468 686,-468 686,-450 632,-450"/>
<text text-anchor="start" x="677" y="-454.55" font-family="Helvetica,sans-Serif" font-size="11.00"> &#160;</text>
<polygon fill="#ffffff" stroke="none" points="686,-450 686,-468 741,-468 741,-450 686,-450"/>
<polygon fill="none" stroke="black" points="686,-450 686,-468 741,-468 741,-450 686,-450"/>
<text text-anchor="start" x="732" y="-454.55" font-family="Helvetica,sans-Serif" font-size="11.00"> &#160;</text>
</a>
</g>
</g>
<!-- account_public_tags_requests&#45;&gt;account_identities -->
<g id="edge4" class="edge">
<title>account_public_tags_requests:w&#45;&gt;account_identities:e</title>
<path fill="none" stroke="black" d="M510.12,-491.28C495.8,-475.93 504.81,-435 476.5,-435"/>
<polygon fill="black" stroke="black" points="516.76,-493.92 522.86,-500.22 520.78,-495.52 523.88,-496.75 523.88,-496.75 523.88,-496.75 520.78,-495.52 525.52,-493.53 516.76,-493.92"/>
<ellipse fill="none" stroke="black" cx="512.19" cy="-492.1" rx="3.2" ry="3.2"/>
</g>
<!-- account_tag_addresses -->
<g id="node6" class="node">
<title>account_tag_addresses</title>
<g id="a_node6"><a xlink:href="../../tables/account_tag_addresses.html" xlink:title="account_tag_addresses" target="_top">
<polygon fill="#ffffff" stroke="none" points="546,-305 546,-429 721,-429 721,-305 546,-305"/>
<polygon fill="#f5f5f5" stroke="none" points="546,-407 546,-429 721,-429 721,-407 546,-407"/>
<polygon fill="none" stroke="black" points="546,-407 546,-429 721,-429 721,-407 546,-407"/>
<text text-anchor="start" x="551" y="-414.55" font-family="Helvetica,sans-Serif" font-weight="bold" font-size="11.00">account_tag_addresses</text>
<text text-anchor="start" x="687" y="-413.55" font-family="Helvetica,sans-Serif" font-size="11.00">[table]</text>
<polygon fill="none" stroke="black" points="546,-385 546,-407 721,-407 721,-385 546,-385"/>
<image xlink:href="../../images/primaryKeys.png" width="11px" height="12px" preserveAspectRatio="xMinYMin meet" x="551" y="-402"/>
<text text-anchor="start" x="575" y="-391.55" font-family="Helvetica,sans-Serif" font-size="11.00">id</text>
<polygon fill="#ffffff" stroke="none" points="546,-363 546,-385 721,-385 721,-363 546,-363"/>
<polygon fill="none" stroke="black" points="546,-363 546,-385 721,-385 721,-363 546,-363"/>
<image xlink:href="../../images/foreignKeys.png" width="11px" height="12px" preserveAspectRatio="xMinYMin meet" x="551" y="-380"/>
<text text-anchor="start" x="575" y="-369.55" font-family="Helvetica,sans-Serif" font-size="11.00">identity_id</text>
<polygon fill="#ffffff" stroke="none" points="546,-341 546,-363 721,-363 721,-341 546,-341"/>
<polygon fill="none" stroke="black" points="546,-341 546,-363 721,-363 721,-341 546,-341"/>
<text text-anchor="start" x="575" y="-347.55" font-family="Helvetica,sans-Serif" font-size="11.00">address_hash_hash</text>
<polygon fill="none" stroke="black" points="546,-323 546,-341 721,-341 721,-323 546,-323"/>
<text text-anchor="start" x="549" y="-327.55" font-family="Helvetica,sans-Serif" font-size="11.00">...</text>
<polygon fill="#ffffff" stroke="none" points="546,-305 546,-323 632,-323 632,-305 546,-305"/>
<polygon fill="none" stroke="black" points="546,-305 546,-323 632,-323 632,-305 546,-305"/>
<text text-anchor="start" x="549" y="-309.55" font-family="Helvetica,sans-Serif" font-size="11.00">&lt; 1</text>
<polygon fill="#ffffff" stroke="none" points="632,-305 632,-323 676,-323 676,-305 632,-305"/>
<polygon fill="none" stroke="black" points="632,-305 632,-323 676,-323 676,-305 632,-305"/>
<text text-anchor="start" x="667" y="-309.55" font-family="Helvetica,sans-Serif" font-size="11.00"> &#160;</text>
<polygon fill="#ffffff" stroke="none" points="676,-305 676,-323 721,-323 721,-305 676,-305"/>
<polygon fill="none" stroke="black" points="676,-305 676,-323 721,-323 721,-305 676,-305"/>
<text text-anchor="start" x="712" y="-309.55" font-family="Helvetica,sans-Serif" font-size="11.00"> &#160;</text>
</a>
</g>
</g>
<!-- account_tag_addresses&#45;&gt;account_identities -->
<g id="edge5" class="edge">
<title>account_tag_addresses:w&#45;&gt;account_identities:e</title>
<path fill="none" stroke="black" d="M529.31,-377.82C506.67,-391.17 510.92,-435 476.5,-435"/>
<polygon fill="black" stroke="black" points="536.42,-376.03 545.05,-377.57 540.62,-374.97 543.85,-374.16 543.85,-374.16 543.85,-374.16 540.62,-374.97 543.3,-370.59 536.42,-376.03"/>
<ellipse fill="none" stroke="black" cx="531.65" cy="-377.23" rx="3.2" ry="3.2"/>
</g>
<!-- account_tag_transactions -->
<g id="node7" class="node">
<title>account_tag_transactions</title>
<g id="a_node7"><a xlink:href="../../tables/account_tag_transactions.html" xlink:title="account_tag_transactions" target="_top">
<polygon fill="#ffffff" stroke="none" points="540,-160 540,-284 727,-284 727,-160 540,-160"/>
<polygon fill="#f5f5f5" stroke="none" points="540,-262 540,-284 727,-284 727,-262 540,-262"/>
<polygon fill="none" stroke="black" points="540,-262 540,-284 727,-284 727,-262 540,-262"/>
<text text-anchor="start" x="545" y="-269.55" font-family="Helvetica,sans-Serif" font-weight="bold" font-size="11.00">account_tag_transactions</text>
<text text-anchor="start" x="693" y="-268.55" font-family="Helvetica,sans-Serif" font-size="11.00">[table]</text>
<polygon fill="none" stroke="black" points="540,-240 540,-262 727,-262 727,-240 540,-240"/>
<image xlink:href="../../images/primaryKeys.png" width="11px" height="12px" preserveAspectRatio="xMinYMin meet" x="545" y="-257"/>
<text text-anchor="start" x="569" y="-246.55" font-family="Helvetica,sans-Serif" font-size="11.00">id</text>
<polygon fill="#ffffff" stroke="none" points="540,-218 540,-240 727,-240 727,-218 540,-218"/>
<polygon fill="none" stroke="black" points="540,-218 540,-240 727,-240 727,-218 540,-218"/>
<image xlink:href="../../images/foreignKeys.png" width="11px" height="12px" preserveAspectRatio="xMinYMin meet" x="545" y="-235"/>
<text text-anchor="start" x="569" y="-224.55" font-family="Helvetica,sans-Serif" font-size="11.00">identity_id</text>
<polygon fill="#ffffff" stroke="none" points="540,-196 540,-218 727,-218 727,-196 540,-196"/>
<polygon fill="none" stroke="black" points="540,-196 540,-218 727,-218 727,-196 540,-196"/>
<text text-anchor="start" x="569" y="-202.55" font-family="Helvetica,sans-Serif" font-size="11.00">tx_hash_hash</text>
<polygon fill="none" stroke="black" points="540,-178 540,-196 727,-196 727,-178 540,-178"/>
<text text-anchor="start" x="543" y="-182.55" font-family="Helvetica,sans-Serif" font-size="11.00">...</text>
<polygon fill="#ffffff" stroke="none" points="540,-160 540,-178 632,-178 632,-160 540,-160"/>
<polygon fill="none" stroke="black" points="540,-160 540,-178 632,-178 632,-160 540,-160"/>
<text text-anchor="start" x="543" y="-164.55" font-family="Helvetica,sans-Serif" font-size="11.00">&lt; 1</text>
<polygon fill="#ffffff" stroke="none" points="632,-160 632,-178 679,-178 679,-160 632,-160"/>
<polygon fill="none" stroke="black" points="632,-160 632,-178 679,-178 679,-160 632,-160"/>
<text text-anchor="start" x="670" y="-164.55" font-family="Helvetica,sans-Serif" font-size="11.00"> &#160;</text>
<polygon fill="#ffffff" stroke="none" points="679,-160 679,-178 727,-178 727,-160 679,-160"/>
<polygon fill="none" stroke="black" points="679,-160 679,-178 727,-178 727,-160 679,-160"/>
<text text-anchor="start" x="718" y="-164.55" font-family="Helvetica,sans-Serif" font-size="11.00"> &#160;</text>
</a>
</g>
</g>
<!-- account_tag_transactions&#45;&gt;account_identities -->
<g id="edge6" class="edge">
<title>account_tag_transactions:w&#45;&gt;account_identities:e</title>
<path fill="none" stroke="black" d="M523.1,-231.31C458.16,-253.95 566.14,-435 476.5,-435"/>
<polygon fill="black" stroke="black" points="530.26,-230.24 538.7,-232.61 534.54,-229.59 537.84,-229.1 537.84,-229.1 537.84,-229.1 534.54,-229.59 537.63,-225.49 530.26,-230.24"/>
<ellipse fill="none" stroke="black" cx="525.39" cy="-230.97" rx="3.2" ry="3.2"/>
</g>
<!-- account_watchlists -->
<g id="node8" class="node">
<title>account_watchlists</title>
<g id="a_node8"><a xlink:href="../../tables/account_watchlists.html" xlink:title="account_watchlists" target="_top">
<polygon fill="#ffffff" stroke="none" points="559,-37 559,-139 708,-139 708,-37 559,-37"/>
<polygon fill="#f5f5f5" stroke="none" points="559,-117 559,-139 708,-139 708,-117 559,-117"/>
<polygon fill="none" stroke="black" points="559,-117 559,-139 708,-139 708,-117 559,-117"/>
<text text-anchor="start" x="564" y="-124.55" font-family="Helvetica,sans-Serif" font-weight="bold" font-size="11.00">account_watchlists</text>
<text text-anchor="start" x="674" y="-123.55" font-family="Helvetica,sans-Serif" font-size="11.00">[table]</text>
<polygon fill="none" stroke="black" points="559,-95 559,-117 708,-117 708,-95 559,-95"/>
<image xlink:href="../../images/primaryKeys.png" width="11px" height="12px" preserveAspectRatio="xMinYMin meet" x="564" y="-112"/>
<text text-anchor="start" x="588" y="-101.55" font-family="Helvetica,sans-Serif" font-size="11.00">id</text>
<polygon fill="#ffffff" stroke="none" points="559,-73 559,-95 708,-95 708,-73 559,-73"/>
<polygon fill="none" stroke="black" points="559,-73 559,-95 708,-95 708,-73 559,-73"/>
<image xlink:href="../../images/foreignKeys.png" width="11px" height="12px" preserveAspectRatio="xMinYMin meet" x="564" y="-90"/>
<text text-anchor="start" x="588" y="-79.55" font-family="Helvetica,sans-Serif" font-size="11.00">identity_id</text>
<polygon fill="none" stroke="black" points="559,-55 559,-73 708,-73 708,-55 559,-55"/>
<text text-anchor="start" x="562" y="-59.55" font-family="Helvetica,sans-Serif" font-size="11.00">...</text>
<polygon fill="#ffffff" stroke="none" points="559,-37 559,-55 627,-55 627,-37 559,-37"/>
<polygon fill="none" stroke="black" points="559,-37 559,-55 627,-55 627,-37 559,-37"/>
<text text-anchor="start" x="562" y="-41.55" font-family="Helvetica,sans-Serif" font-size="11.00">&lt; 1</text>
<polygon fill="#ffffff" stroke="none" points="627,-37 627,-55 663,-55 663,-37 627,-37"/>
<polygon fill="none" stroke="black" points="627,-37 627,-55 663,-55 663,-37 627,-37"/>
<text text-anchor="start" x="654" y="-41.55" font-family="Helvetica,sans-Serif" font-size="11.00"> &#160;</text>
<polygon fill="#ffffff" stroke="none" points="663,-37 663,-55 708,-55 708,-37 663,-37"/>
<polygon fill="none" stroke="black" points="663,-37 663,-55 708,-55 708,-37 663,-37"/>
<text text-anchor="start" x="689.25" y="-41.55" font-family="Helvetica,sans-Serif" font-size="11.00">1 &gt;</text>
</a>
</g>
</g>
<!-- account_watchlists&#45;&gt;account_identities -->
<g id="edge7" class="edge">
<title>account_watchlists:w&#45;&gt;account_identities:e</title>
<path fill="none" stroke="black" d="M542.14,-87.33C525,-96.62 527.31,-123.83 518,-150 496.54,-210.3 540.5,-435 476.5,-435"/>
<polygon fill="black" stroke="black" points="549.35,-85.77 557.94,-87.59 553.59,-84.85 556.85,-84.14 556.85,-84.14 556.85,-84.14 553.59,-84.85 556.41,-80.55 549.35,-85.77"/>
<ellipse fill="none" stroke="black" cx="544.55" cy="-86.81" rx="3.2" ry="3.2"/>
</g>
</g>
</svg>
