<?xml version="1.0" encoding="UTF-8" standalone="no"?>
<!DOCTYPE svg PUBLIC "-//W3C//DTD SVG 1.1//EN"
 "http://www.w3.org/Graphics/SVG/1.1/DTD/svg11.dtd">
<!-- Generated by graphviz version 9.0.0 (20230911.1827)
 -->
<!-- Title: oneDegreeRelationshipsDiagram Pages: 1 -->
<svg width="329pt" height="555pt"
 viewBox="0.00 0.00 329.00 555.00" xmlns="http://www.w3.org/2000/svg" xmlns:xlink="http://www.w3.org/1999/xlink">
<g id="graph0" class="graph" transform="scale(1 1) rotate(0) translate(4 551)">
<title>oneDegreeRelationshipsDiagram</title>
<polygon fill="#ffffff" stroke="none" points="-4,4 -4,-551 325,-551 325,4 -4,4"/>
<text text-anchor="middle" x="71.38" y="-5.55" font-family="Helvetica,sans-Serif" font-size="11.00">Generated by SchemaSpy</text>
<!-- account_watchlist_notifications -->
<g id="node1" class="node">
<title>account_watchlist_notifications</title>
<g id="a_node1"><a xlink:href="../../tables/account_watchlist_notifications.html" xlink:title="account_watchlist_notifications" target="_top">
<polygon fill="#ffffff" stroke="none" points="8,-37 8,-543 313,-543 313,-37 8,-37"/>
<polygon fill="#f5f5f5" stroke="none" points="10,-519 10,-541 311,-541 311,-519 10,-519"/>
<polygon fill="none" stroke="black" points="10,-519 10,-541 311,-541 311,-519 10,-519"/>
<text text-anchor="start" x="15" y="-526.55" font-family="Helvetica,sans-Serif" font-weight="bold" font-size="11.00">account_watchlist_notifications</text>
<text text-anchor="start" x="276.75" y="-525.55" font-family="Helvetica,sans-Serif" font-size="11.00">[table]</text>
<polygon fill="none" stroke="black" points="10,-497 10,-519 213,-519 213,-497 10,-497"/>
<image xlink:href="../../images/primaryKeys.png" width="11px" height="12px" preserveAspectRatio="xMinYMin meet" x="15" y="-514"/>
<text text-anchor="start" x="30" y="-503.55" font-family="Helvetica,sans-Serif" font-size="11.00">id</text>
<polygon fill="none" stroke="black" points="213,-497 213,-519 311,-519 311,-497 213,-497"/>
<text text-anchor="start" x="216" y="-503.55" font-family="Helvetica,sans-Serif" font-size="11.00">bigserial[19]</text>
<polygon fill="#ffffff" stroke="none" points="10,-475 10,-497 213,-497 213,-475 10,-475"/>
<polygon fill="none" stroke="black" points="10,-475 10,-497 213,-497 213,-475 10,-475"/>
<text text-anchor="start" x="30" y="-481.55" font-family="Helvetica,sans-Serif" font-size="11.00">watchlist_address_id</text>
<polygon fill="none" stroke="black" points="213,-475 213,-497 311,-497 311,-475 213,-475"/>
<text text-anchor="start" x="216" y="-481.55" font-family="Helvetica,sans-Serif" font-size="11.00">int8[19]</text>
<polygon fill="none" stroke="black" points="10,-453 10,-475 213,-475 213,-453 10,-453"/>
<text text-anchor="start" x="30" y="-459.55" font-family="Helvetica,sans-Serif" font-size="11.00">direction</text>
<polygon fill="none" stroke="black" points="213,-453 213,-475 311,-475 311,-453 213,-453"/>
<text text-anchor="start" x="216" y="-459.55" font-family="Helvetica,sans-Serif" font-size="11.00">varchar[255]</text>
<polygon fill="none" stroke="black" points="10,-431 10,-453 213,-453 213,-431 10,-431"/>
<text text-anchor="start" x="30" y="-437.55" font-family="Helvetica,sans-Serif" font-size="11.00">type</text>
<polygon fill="none" stroke="black" points="213,-431 213,-453 311,-453 311,-431 213,-431"/>
<text text-anchor="start" x="216" y="-437.55" font-family="Helvetica,sans-Serif" font-size="11.00">varchar[255]</text>
<polygon fill="none" stroke="black" points="10,-409 10,-431 213,-431 213,-409 10,-409"/>
<text text-anchor="start" x="30" y="-415.55" font-family="Helvetica,sans-Serif" font-size="11.00">method</text>
<polygon fill="none" stroke="black" points="213,-409 213,-431 311,-431 311,-409 213,-409"/>
<text text-anchor="start" x="216" y="-415.55" font-family="Helvetica,sans-Serif" font-size="11.00">varchar[255]</text>
<polygon fill="none" stroke="black" points="10,-387 10,-409 213,-409 213,-387 10,-387"/>
<text text-anchor="start" x="30" y="-393.55" font-family="Helvetica,sans-Serif" font-size="11.00">block_number</text>
<polygon fill="none" stroke="black" points="213,-387 213,-409 311,-409 311,-387 213,-387"/>
<text text-anchor="start" x="216" y="-393.55" font-family="Helvetica,sans-Serif" font-size="11.00">int4[10]</text>
<polygon fill="none" stroke="black" points="10,-365 10,-387 213,-387 213,-365 10,-365"/>
<text text-anchor="start" x="30" y="-371.55" font-family="Helvetica,sans-Serif" font-size="11.00">amount</text>
<polygon fill="none" stroke="black" points="213,-365 213,-387 311,-387 311,-365 213,-365"/>
<text text-anchor="start" x="216" y="-371.55" font-family="Helvetica,sans-Serif" font-size="11.00">numeric[0]</text>
<polygon fill="none" stroke="black" points="10,-343 10,-365 213,-365 213,-343 10,-343"/>
<text text-anchor="start" x="30" y="-349.55" font-family="Helvetica,sans-Serif" font-size="11.00">tx_fee</text>
<polygon fill="none" stroke="black" points="213,-343 213,-365 311,-365 311,-343 213,-343"/>
<text text-anchor="start" x="216" y="-349.55" font-family="Helvetica,sans-Serif" font-size="11.00">numeric[0]</text>
<polygon fill="none" stroke="black" points="10,-321 10,-343 213,-343 213,-321 10,-321"/>
<text text-anchor="start" x="30" y="-327.55" font-family="Helvetica,sans-Serif" font-size="11.00">viewed_at</text>
<polygon fill="none" stroke="black" points="213,-321 213,-343 311,-343 311,-321 213,-321"/>
<text text-anchor="start" x="216" y="-327.55" font-family="Helvetica,sans-Serif" font-size="11.00">timestamp[29,6]</text>
<polygon fill="none" stroke="black" points="10,-299 10,-321 213,-321 213,-299 10,-299"/>
<text text-anchor="start" x="30" y="-305.55" font-family="Helvetica,sans-Serif" font-size="11.00">inserted_at</text>
<polygon fill="none" stroke="black" points="213,-299 213,-321 311,-321 311,-299 213,-299"/>
<text text-anchor="start" x="216" y="-305.55" font-family="Helvetica,sans-Serif" font-size="11.00">timestamp[29,6]</text>
<polygon fill="none" stroke="black" points="10,-277 10,-299 213,-299 213,-277 10,-277"/>
<text text-anchor="start" x="30" y="-283.55" font-family="Helvetica,sans-Serif" font-size="11.00">updated_at</text>
<polygon fill="none" stroke="black" points="213,-277 213,-299 311,-299 311,-277 213,-277"/>
<text text-anchor="start" x="216" y="-283.55" font-family="Helvetica,sans-Serif" font-size="11.00">timestamp[29,6]</text>
<polygon fill="none" stroke="black" points="10,-255 10,-277 213,-277 213,-255 10,-255"/>
<text text-anchor="start" x="30" y="-261.55" font-family="Helvetica,sans-Serif" font-size="11.00">name</text>
<polygon fill="none" stroke="black" points="213,-255 213,-277 311,-277 311,-255 213,-255"/>
<text text-anchor="start" x="215.88" y="-261.55" font-family="Helvetica,sans-Serif" font-size="11.00">bytea[2147483647]</text>
<polygon fill="none" stroke="black" points="10,-233 10,-255 213,-255 213,-233 10,-233"/>
<text text-anchor="start" x="30" y="-239.55" font-family="Helvetica,sans-Serif" font-size="11.00">subject</text>
<polygon fill="none" stroke="black" points="213,-233 213,-255 311,-255 311,-233 213,-233"/>
<text text-anchor="start" x="215.88" y="-239.55" font-family="Helvetica,sans-Serif" font-size="11.00">bytea[2147483647]</text>
<polygon fill="none" stroke="black" points="10,-211 10,-233 213,-233 213,-211 10,-211"/>
<text text-anchor="start" x="30" y="-217.55" font-family="Helvetica,sans-Serif" font-size="11.00">from_address_hash</text>
<polygon fill="none" stroke="black" points="213,-211 213,-233 311,-233 311,-211 213,-211"/>
<text text-anchor="start" x="215.88" y="-217.55" font-family="Helvetica,sans-Serif" font-size="11.00">bytea[2147483647]</text>
<polygon fill="none" stroke="black" points="10,-189 10,-211 213,-211 213,-189 10,-189"/>
<text text-anchor="start" x="30" y="-195.55" font-family="Helvetica,sans-Serif" font-size="11.00">to_address_hash</text>
<polygon fill="none" stroke="black" points="213,-189 213,-211 311,-211 311,-189 213,-189"/>
<text text-anchor="start" x="215.88" y="-195.55" font-family="Helvetica,sans-Serif" font-size="11.00">bytea[2147483647]</text>
<polygon fill="none" stroke="black" points="10,-167 10,-189 213,-189 213,-167 10,-167"/>
<text text-anchor="start" x="30" y="-173.55" font-family="Helvetica,sans-Serif" font-size="11.00">transaction_hash</text>
<polygon fill="none" stroke="black" points="213,-167 213,-189 311,-189 311,-167 213,-167"/>
<text text-anchor="start" x="215.88" y="-173.55" font-family="Helvetica,sans-Serif" font-size="11.00">bytea[2147483647]</text>
<polygon fill="none" stroke="black" points="10,-145 10,-167 213,-167 213,-145 10,-145"/>
<text text-anchor="start" x="30" y="-151.55" font-family="Helvetica,sans-Serif" font-size="11.00">subject_hash</text>
<polygon fill="none" stroke="black" points="213,-145 213,-167 311,-167 311,-145 213,-145"/>
<text text-anchor="start" x="215.88" y="-151.55" font-family="Helvetica,sans-Serif" font-size="11.00">bytea[2147483647]</text>
<polygon fill="#ffffff" stroke="none" points="10,-123 10,-145 213,-145 213,-123 10,-123"/>
<polygon fill="none" stroke="black" points="10,-123 10,-145 213,-145 213,-123 10,-123"/>
<text text-anchor="start" x="30" y="-129.55" font-family="Helvetica,sans-Serif" font-size="11.00">from_address_hash_hash</text>
<polygon fill="none" stroke="black" points="213,-123 213,-145 311,-145 311,-123 213,-123"/>
<text text-anchor="start" x="215.88" y="-129.55" font-family="Helvetica,sans-Serif" font-size="11.00">bytea[2147483647]</text>
<polygon fill="#ffffff" stroke="none" points="10,-101 10,-123 213,-123 213,-101 10,-101"/>
<polygon fill="none" stroke="black" points="10,-101 10,-123 213,-123 213,-101 10,-101"/>
<text text-anchor="start" x="30" y="-107.55" font-family="Helvetica,sans-Serif" font-size="11.00">to_address_hash_hash</text>
<polygon fill="none" stroke="black" points="213,-101 213,-123 311,-123 311,-101 213,-101"/>
<text text-anchor="start" x="215.88" y="-107.55" font-family="Helvetica,sans-Serif" font-size="11.00">bytea[2147483647]</text>
<polygon fill="#ffffff" stroke="none" points="10,-79 10,-101 213,-101 213,-79 10,-79"/>
<polygon fill="none" stroke="black" points="10,-79 10,-101 213,-101 213,-79 10,-79"/>
<text text-anchor="start" x="30" y="-85.55" font-family="Helvetica,sans-Serif" font-size="11.00">transaction_hash_hash</text>
<polygon fill="none" stroke="black" points="213,-79 213,-101 311,-101 311,-79 213,-79"/>
<text text-anchor="start" x="215.88" y="-85.55" font-family="Helvetica,sans-Serif" font-size="11.00">bytea[2147483647]</text>
<polygon fill="#ffffff" stroke="none" points="10,-57 10,-79 213,-79 213,-57 10,-57"/>
<polygon fill="none" stroke="black" points="10,-57 10,-79 213,-79 213,-57 10,-57"/>
<text text-anchor="start" x="30" y="-63.55" font-family="Helvetica,sans-Serif" font-size="11.00">watchlist_id</text>
<polygon fill="none" stroke="black" points="213,-57 213,-79 311,-79 311,-57 213,-57"/>
<text text-anchor="start" x="216" y="-63.55" font-family="Helvetica,sans-Serif" font-size="11.00">bigserial[19]</text>
<polygon fill="#ffffff" stroke="none" points="10,-39 10,-57 116,-57 116,-39 10,-39"/>
<polygon fill="none" stroke="black" points="10,-39 10,-57 116,-57 116,-39 10,-39"/>
<text text-anchor="start" x="13" y="-43.55" font-family="Helvetica,sans-Serif" font-size="11.00">&lt; 0</text>
<polygon fill="#ffffff" stroke="none" points="116,-39 116,-57 213,-57 213,-39 116,-39"/>
<polygon fill="none" stroke="black" points="116,-39 116,-57 213,-57 213,-39 116,-39"/>
<text text-anchor="start" x="204" y="-43.55" font-family="Helvetica,sans-Serif" font-size="11.00"> &#160;</text>
<polygon fill="#ffffff" stroke="none" points="213,-39 213,-57 311,-57 311,-39 213,-39"/>
<polygon fill="none" stroke="black" points="213,-39 213,-57 311,-57 311,-39 213,-39"/>
<text text-anchor="start" x="292.25" y="-43.55" font-family="Helvetica,sans-Serif" font-size="11.00">0 &gt;</text>
<polygon fill="none" stroke="black" stroke-width="2" points="9,-38 9,-542 312,-542 312,-38 9,-38"/>
</a>
</g>
</g>
</g>
</svg>
