<?xml version="1.0" encoding="UTF-8" standalone="no"?>
<!DOCTYPE svg PUBLIC "-//W3C//DTD SVG 1.1//EN"
 "http://www.w3.org/Graphics/SVG/1.1/DTD/svg11.dtd">
<!-- Generated by graphviz version 2.43.0 (0)
 -->
<!-- Title: oneDegreeRelationshipsDiagram Pages: 1 -->
<svg width="393pt" height="555pt"
 viewBox="0.00 0.00 393.00 555.00" xmlns="http://www.w3.org/2000/svg" xmlns:xlink="http://www.w3.org/1999/xlink">
<g id="graph0" class="graph" transform="scale(1 1) rotate(0) translate(4 551)">
<title>oneDegreeRelationshipsDiagram</title>
<polygon fill="#ffffff" stroke="transparent" points="-4,4 -4,-551 389,-551 389,4 -4,4"/>
<text text-anchor="middle" x="79.5" y="-7.2" font-family="Helvetica,sans-Serif" font-size="11.00">Generated by SchemaSpy</text>
<!-- account_watchlist_notifications -->
<g id="node1" class="node">
<title>account_watchlist_notifications</title>
<g id="a_node1"><a xlink:href="../../tables/account_watchlist_notifications.html" xlink:title="account_watchlist_notifications" target="_top">
<polygon fill="#ffffff" stroke="transparent" points="8,-37 8,-543 377,-543 377,-37 8,-37"/>
<polygon fill="#f5f5f5" stroke="transparent" points="10.5,-519 10.5,-541 375.5,-541 375.5,-519 10.5,-519"/>
<polygon fill="none" stroke="black" points="10.5,-519 10.5,-541 375.5,-541 375.5,-519 10.5,-519"/>
<text text-anchor="start" x="15.5" y="-528.2" font-family="Helvetica,sans-Serif" font-weight="bold" font-size="11.00">account_watchlist_notifications</text>
<text text-anchor="start" x="333.5" y="-527.2" font-family="Helvetica,sans-Serif" font-size="11.00">[table]</text>
<polygon fill="none" stroke="black" points="10.5,-497 10.5,-519 260.5,-519 260.5,-497 10.5,-497"/>
<image xlink:href="../../images/primaryKeys.png" width="11px" height="12px" preserveAspectRatio="xMinYMin meet" x="15.5" y="-514"/>
<text text-anchor="start" x="30.5" y="-505.2" font-family="Helvetica,sans-Serif" font-size="11.00">id</text>
<polygon fill="none" stroke="black" points="260.5,-497 260.5,-519 375.5,-519 375.5,-497 260.5,-497"/>
<text text-anchor="start" x="263.5" y="-505.2" font-family="Helvetica,sans-Serif" font-size="11.00">bigserial[19]</text>
<polygon fill="#ffffff" stroke="transparent" points="10.5,-475 10.5,-497 260.5,-497 260.5,-475 10.5,-475"/>
<polygon fill="none" stroke="black" points="10.5,-475 10.5,-497 260.5,-497 260.5,-475 10.5,-475"/>
<text text-anchor="start" x="30.5" y="-483.2" font-family="Helvetica,sans-Serif" font-size="11.00">watchlist_address_id</text>
<polygon fill="none" stroke="black" points="260.5,-475 260.5,-497 375.5,-497 375.5,-475 260.5,-475"/>
<text text-anchor="start" x="263.5" y="-483.2" font-family="Helvetica,sans-Serif" font-size="11.00">int8[19]</text>
<polygon fill="none" stroke="black" points="10.5,-453 10.5,-475 260.5,-475 260.5,-453 10.5,-453"/>
<text text-anchor="start" x="30.5" y="-461.2" font-family="Helvetica,sans-Serif" font-size="11.00">direction</text>
<polygon fill="none" stroke="black" points="260.5,-453 260.5,-475 375.5,-475 375.5,-453 260.5,-453"/>
<text text-anchor="start" x="263.5" y="-461.2" font-family="Helvetica,sans-Serif" font-size="11.00">varchar[255]</text>
<polygon fill="none" stroke="black" points="10.5,-431 10.5,-453 260.5,-453 260.5,-431 10.5,-431"/>
<text text-anchor="start" x="30.5" y="-439.2" font-family="Helvetica,sans-Serif" font-size="11.00">type</text>
<polygon fill="none" stroke="black" points="260.5,-431 260.5,-453 375.5,-453 375.5,-431 260.5,-431"/>
<text text-anchor="start" x="263.5" y="-439.2" font-family="Helvetica,sans-Serif" font-size="11.00">varchar[255]</text>
<polygon fill="none" stroke="black" points="10.5,-409 10.5,-431 260.5,-431 260.5,-409 10.5,-409"/>
<text text-anchor="start" x="30.5" y="-417.2" font-family="Helvetica,sans-Serif" font-size="11.00">method</text>
<polygon fill="none" stroke="black" points="260.5,-409 260.5,-431 375.5,-431 375.5,-409 260.5,-409"/>
<text text-anchor="start" x="263.5" y="-417.2" font-family="Helvetica,sans-Serif" font-size="11.00">varchar[255]</text>
<polygon fill="none" stroke="black" points="10.5,-387 10.5,-409 260.5,-409 260.5,-387 10.5,-387"/>
<text text-anchor="start" x="30.5" y="-395.2" font-family="Helvetica,sans-Serif" font-size="11.00">block_number</text>
<polygon fill="none" stroke="black" points="260.5,-387 260.5,-409 375.5,-409 375.5,-387 260.5,-387"/>
<text text-anchor="start" x="263.5" y="-395.2" font-family="Helvetica,sans-Serif" font-size="11.00">int4[10]</text>
<polygon fill="none" stroke="black" points="10.5,-365 10.5,-387 260.5,-387 260.5,-365 10.5,-365"/>
<text text-anchor="start" x="30.5" y="-373.2" font-family="Helvetica,sans-Serif" font-size="11.00">amount</text>
<polygon fill="none" stroke="black" points="260.5,-365 260.5,-387 375.5,-387 375.5,-365 260.5,-365"/>
<text text-anchor="start" x="263.5" y="-373.2" font-family="Helvetica,sans-Serif" font-size="11.00">numeric[0]</text>
<polygon fill="none" stroke="black" points="10.5,-343 10.5,-365 260.5,-365 260.5,-343 10.5,-343"/>
<text text-anchor="start" x="30.5" y="-351.2" font-family="Helvetica,sans-Serif" font-size="11.00">transaction_fee</text>
<polygon fill="none" stroke="black" points="260.5,-343 260.5,-365 375.5,-365 375.5,-343 260.5,-343"/>
<text text-anchor="start" x="263.5" y="-351.2" font-family="Helvetica,sans-Serif" font-size="11.00">numeric[0]</text>
<polygon fill="none" stroke="black" points="10.5,-321 10.5,-343 260.5,-343 260.5,-321 10.5,-321"/>
<text text-anchor="start" x="30.5" y="-329.2" font-family="Helvetica,sans-Serif" font-size="11.00">viewed_at</text>
<polygon fill="none" stroke="black" points="260.5,-321 260.5,-343 375.5,-343 375.5,-321 260.5,-321"/>
<text text-anchor="start" x="263.5" y="-329.2" font-family="Helvetica,sans-Serif" font-size="11.00">timestamp[29,6]</text>
<polygon fill="none" stroke="black" points="10.5,-299 10.5,-321 260.5,-321 260.5,-299 10.5,-299"/>
<text text-anchor="start" x="30.5" y="-307.2" font-family="Helvetica,sans-Serif" font-size="11.00">inserted_at</text>
<polygon fill="none" stroke="black" points="260.5,-299 260.5,-321 375.5,-321 375.5,-299 260.5,-299"/>
<text text-anchor="start" x="263.5" y="-307.2" font-family="Helvetica,sans-Serif" font-size="11.00">timestamp[29,6]</text>
<polygon fill="none" stroke="black" points="10.5,-277 10.5,-299 260.5,-299 260.5,-277 10.5,-277"/>
<text text-anchor="start" x="30.5" y="-285.2" font-family="Helvetica,sans-Serif" font-size="11.00">updated_at</text>
<polygon fill="none" stroke="black" points="260.5,-277 260.5,-299 375.5,-299 375.5,-277 260.5,-277"/>
<text text-anchor="start" x="263.5" y="-285.2" font-family="Helvetica,sans-Serif" font-size="11.00">timestamp[29,6]</text>
<polygon fill="none" stroke="black" points="10.5,-255 10.5,-277 260.5,-277 260.5,-255 10.5,-255"/>
<text text-anchor="start" x="30.5" y="-263.2" font-family="Helvetica,sans-Serif" font-size="11.00">name</text>
<polygon fill="none" stroke="black" points="260.5,-255 260.5,-277 375.5,-277 375.5,-255 260.5,-255"/>
<text text-anchor="start" x="263.5" y="-263.2" font-family="Helvetica,sans-Serif" font-size="11.00">bytea[2147483647]</text>
<polygon fill="none" stroke="black" points="10.5,-233 10.5,-255 260.5,-255 260.5,-233 10.5,-233"/>
<text text-anchor="start" x="30.5" y="-241.2" font-family="Helvetica,sans-Serif" font-size="11.00">subject</text>
<polygon fill="none" stroke="black" points="260.5,-233 260.5,-255 375.5,-255 375.5,-233 260.5,-233"/>
<text text-anchor="start" x="263.5" y="-241.2" font-family="Helvetica,sans-Serif" font-size="11.00">bytea[2147483647]</text>
<polygon fill="none" stroke="black" points="10.5,-211 10.5,-233 260.5,-233 260.5,-211 10.5,-211"/>
<text text-anchor="start" x="30.5" y="-219.2" font-family="Helvetica,sans-Serif" font-size="11.00">from_address_hash</text>
<polygon fill="none" stroke="black" points="260.5,-211 260.5,-233 375.5,-233 375.5,-211 260.5,-211"/>
<text text-anchor="start" x="263.5" y="-219.2" font-family="Helvetica,sans-Serif" font-size="11.00">bytea[2147483647]</text>
<polygon fill="none" stroke="black" points="10.5,-189 10.5,-211 260.5,-211 260.5,-189 10.5,-189"/>
<text text-anchor="start" x="30.5" y="-197.2" font-family="Helvetica,sans-Serif" font-size="11.00">to_address_hash</text>
<polygon fill="none" stroke="black" points="260.5,-189 260.5,-211 375.5,-211 375.5,-189 260.5,-189"/>
<text text-anchor="start" x="263.5" y="-197.2" font-family="Helvetica,sans-Serif" font-size="11.00">bytea[2147483647]</text>
<polygon fill="none" stroke="black" points="10.5,-167 10.5,-189 260.5,-189 260.5,-167 10.5,-167"/>
<text text-anchor="start" x="30.5" y="-175.2" font-family="Helvetica,sans-Serif" font-size="11.00">transaction_hash</text>
<polygon fill="none" stroke="black" points="260.5,-167 260.5,-189 375.5,-189 375.5,-167 260.5,-167"/>
<text text-anchor="start" x="263.5" y="-175.2" font-family="Helvetica,sans-Serif" font-size="11.00">bytea[2147483647]</text>
<polygon fill="none" stroke="black" points="10.5,-145 10.5,-167 260.5,-167 260.5,-145 10.5,-145"/>
<text text-anchor="start" x="30.5" y="-153.2" font-family="Helvetica,sans-Serif" font-size="11.00">subject_hash</text>
<polygon fill="none" stroke="black" points="260.5,-145 260.5,-167 375.5,-167 375.5,-145 260.5,-145"/>
<text text-anchor="start" x="263.5" y="-153.2" font-family="Helvetica,sans-Serif" font-size="11.00">bytea[2147483647]</text>
<polygon fill="#ffffff" stroke="transparent" points="10.5,-123 10.5,-145 260.5,-145 260.5,-123 10.5,-123"/>
<polygon fill="none" stroke="black" points="10.5,-123 10.5,-145 260.5,-145 260.5,-123 10.5,-123"/>
<text text-anchor="start" x="30.5" y="-131.2" font-family="Helvetica,sans-Serif" font-size="11.00">from_address_hash_hash</text>
<polygon fill="none" stroke="black" points="260.5,-123 260.5,-145 375.5,-145 375.5,-123 260.5,-123"/>
<text text-anchor="start" x="263.5" y="-131.2" font-family="Helvetica,sans-Serif" font-size="11.00">bytea[2147483647]</text>
<polygon fill="#ffffff" stroke="transparent" points="10.5,-101 10.5,-123 260.5,-123 260.5,-101 10.5,-101"/>
<polygon fill="none" stroke="black" points="10.5,-101 10.5,-123 260.5,-123 260.5,-101 10.5,-101"/>
<text text-anchor="start" x="30.5" y="-109.2" font-family="Helvetica,sans-Serif" font-size="11.00">to_address_hash_hash</text>
<polygon fill="none" stroke="black" points="260.5,-101 260.5,-123 375.5,-123 375.5,-101 260.5,-101"/>
<text text-anchor="start" x="263.5" y="-109.2" font-family="Helvetica,sans-Serif" font-size="11.00">bytea[2147483647]</text>
<polygon fill="#ffffff" stroke="transparent" points="10.5,-79 10.5,-101 260.5,-101 260.5,-79 10.5,-79"/>
<polygon fill="none" stroke="black" points="10.5,-79 10.5,-101 260.5,-101 260.5,-79 10.5,-79"/>
<text text-anchor="start" x="30.5" y="-87.2" font-family="Helvetica,sans-Serif" font-size="11.00">transaction_hash_hash</text>
<polygon fill="none" stroke="black" points="260.5,-79 260.5,-101 375.5,-101 375.5,-79 260.5,-79"/>
<text text-anchor="start" x="263.5" y="-87.2" font-family="Helvetica,sans-Serif" font-size="11.00">bytea[2147483647]</text>
<polygon fill="#ffffff" stroke="transparent" points="10.5,-57 10.5,-79 260.5,-79 260.5,-57 10.5,-57"/>
<polygon fill="none" stroke="black" points="10.5,-57 10.5,-79 260.5,-79 260.5,-57 10.5,-57"/>
<text text-anchor="start" x="30.5" y="-65.2" font-family="Helvetica,sans-Serif" font-size="11.00">watchlist_id</text>
<polygon fill="none" stroke="black" points="260.5,-57 260.5,-79 375.5,-79 375.5,-57 260.5,-57"/>
<text text-anchor="start" x="263.5" y="-65.2" font-family="Helvetica,sans-Serif" font-size="11.00">bigserial[19]</text>
<polygon fill="#ffffff" stroke="transparent" points="10.5,-39 10.5,-57 375.5,-57 375.5,-39 10.5,-39"/>
<polygon fill="none" stroke="black" points="10.5,-39 10.5,-57 375.5,-57 375.5,-39 10.5,-39"/>
<polygon fill="#ffffff" stroke="transparent" points="11.5,-40 11.5,-56 136.5,-56 136.5,-40 11.5,-40"/>
<text text-anchor="start" x="13.5" y="-45.2" font-family="Helvetica,sans-Serif" font-size="11.00">&lt; 0</text>
<polygon fill="#ffffff" stroke="transparent" points="136.5,-40 136.5,-56 249.5,-56 249.5,-40 136.5,-40"/>
<text text-anchor="start" x="189" y="-45.2" font-family="Helvetica,sans-Serif" font-size="11.00"> &#160;</text>
<polygon fill="#ffffff" stroke="transparent" points="249.5,-40 249.5,-56 374.5,-56 374.5,-40 249.5,-40"/>
<text text-anchor="start" x="352.5" y="-45.2" font-family="Helvetica,sans-Serif" font-size="11.00">0 &gt;</text>
<polygon fill="black" stroke="black" points="136.5,-40 136.5,-56 136.5,-56 136.5,-40 136.5,-40"/>
<polygon fill="black" stroke="black" points="249.5,-40 249.5,-56 249.5,-56 249.5,-40 249.5,-40"/>
<polygon fill="none" stroke="black" stroke-width="2" points="9,-38 9,-542 376,-542 376,-38 9,-38"/>
</a>
</g>
</g>
</g>
</svg>
