<?xml version="1.0" encoding="UTF-8" standalone="no"?>
<!DOCTYPE svg PUBLIC "-//W3C//DTD SVG 1.1//EN"
 "http://www.w3.org/Graphics/SVG/1.1/DTD/svg11.dtd">
<!-- Generated by graphviz version 9.0.0 (20230911.1827)
 -->
<!-- Title: twoDegreesRelationshipsDiagram Pages: 1 -->
<svg width="699pt" height="642pt"
 viewBox="0.00 0.00 699.00 642.00" xmlns="http://www.w3.org/2000/svg" xmlns:xlink="http://www.w3.org/1999/xlink">
<g id="graph0" class="graph" transform="scale(1 1) rotate(0) translate(4 638)">
<title>twoDegreesRelationshipsDiagram</title>
<polygon fill="#ffffff" stroke="none" points="-4,4 -4,-638 695,-638 695,4 -4,4"/>
<text text-anchor="middle" x="71.38" y="-5.55" font-family="Helvetica,sans-Serif" font-size="11.00">Generated by SchemaSpy</text>
<!-- account_api_keys -->
<g id="node1" class="node">
<title>account_api_keys</title>
<g id="a_node1"><a xlink:href="../../tables/account_api_keys.html" xlink:title="account_api_keys" target="_top">
<polygon fill="#ffffff" stroke="none" points="482.5,-572 482.5,-630 624.5,-630 624.5,-572 482.5,-572"/>
<polygon fill="#f5f5f5" stroke="none" points="482.5,-608 482.5,-630 624.5,-630 624.5,-608 482.5,-608"/>
<polygon fill="none" stroke="black" points="482.5,-608 482.5,-630 624.5,-630 624.5,-608 482.5,-608"/>
<text text-anchor="start" x="487.5" y="-615.55" font-family="Helvetica,sans-Serif" font-weight="bold" font-size="11.00">account_api_keys</text>
<text text-anchor="start" x="590.5" y="-614.55" font-family="Helvetica,sans-Serif" font-size="11.00">[table]</text>
<polygon fill="none" stroke="black" points="482.5,-590 482.5,-608 624.5,-608 624.5,-590 482.5,-590"/>
<text text-anchor="start" x="485.5" y="-594.55" font-family="Helvetica,sans-Serif" font-size="11.00">...</text>
<polygon fill="#ffffff" stroke="none" points="482.5,-572 482.5,-590 551.5,-590 551.5,-572 482.5,-572"/>
<polygon fill="none" stroke="black" points="482.5,-572 482.5,-590 551.5,-590 551.5,-572 482.5,-572"/>
<text text-anchor="start" x="485.5" y="-576.55" font-family="Helvetica,sans-Serif" font-size="11.00">&lt; 1</text>
<polygon fill="#ffffff" stroke="none" points="551.5,-572 551.5,-590 587.5,-590 587.5,-572 551.5,-572"/>
<polygon fill="none" stroke="black" points="551.5,-572 551.5,-590 587.5,-590 587.5,-572 551.5,-572"/>
<text text-anchor="start" x="578.5" y="-576.55" font-family="Helvetica,sans-Serif" font-size="11.00"> &#160;</text>
<polygon fill="#ffffff" stroke="none" points="587.5,-572 587.5,-590 624.5,-590 624.5,-572 587.5,-572"/>
<polygon fill="none" stroke="black" points="587.5,-572 587.5,-590 624.5,-590 624.5,-572 587.5,-572"/>
<text text-anchor="start" x="615.5" y="-576.55" font-family="Helvetica,sans-Serif" font-size="11.00"> &#160;</text>
</a>
</g>
</g>
<!-- account_identities -->
<g id="node2" class="node">
<title>account_identities</title>
<g id="a_node2"><a xlink:href="../../tables/account_identities.html" xlink:title="account_identities" target="_top">
<polygon fill="#ffffff" stroke="none" points="204,-297 204,-421 375,-421 375,-297 204,-297"/>
<polygon fill="#f5f5f5" stroke="none" points="204,-399 204,-421 375,-421 375,-399 204,-399"/>
<polygon fill="none" stroke="black" points="204,-399 204,-421 375,-421 375,-399 204,-399"/>
<text text-anchor="start" x="209" y="-406.55" font-family="Helvetica,sans-Serif" font-weight="bold" font-size="11.00">account_identities</text>
<text text-anchor="start" x="340.75" y="-405.55" font-family="Helvetica,sans-Serif" font-size="11.00">[table]</text>
<polygon fill="none" stroke="black" points="204,-377 204,-399 375,-399 375,-377 204,-377"/>
<image xlink:href="../../images/primaryKeys.png" width="11px" height="12px" preserveAspectRatio="xMinYMin meet" x="209" y="-394"/>
<text text-anchor="start" x="224" y="-383.55" font-family="Helvetica,sans-Serif" font-size="11.00">id</text>
<polygon fill="none" stroke="black" points="204,-355 204,-377 375,-377 375,-355 204,-355"/>
<image xlink:href="../../images/foreignKeys.png" width="11px" height="12px" preserveAspectRatio="xMinYMin meet" x="209" y="-372"/>
<text text-anchor="start" x="224" y="-361.55" font-family="Helvetica,sans-Serif" font-size="11.00">plan_id</text>
<polygon fill="#ffffff" stroke="none" points="204,-333 204,-355 375,-355 375,-333 204,-333"/>
<polygon fill="none" stroke="black" points="204,-333 204,-355 375,-355 375,-333 204,-333"/>
<text text-anchor="start" x="224" y="-339.55" font-family="Helvetica,sans-Serif" font-size="11.00">uid_hash</text>
<polygon fill="none" stroke="black" points="204,-315 204,-333 375,-333 375,-315 204,-315"/>
<text text-anchor="start" x="207" y="-319.55" font-family="Helvetica,sans-Serif" font-size="11.00">...</text>
<polygon fill="#ffffff" stroke="none" points="204,-297 204,-315 283,-315 283,-297 204,-297"/>
<polygon fill="none" stroke="black" points="204,-297 204,-315 283,-315 283,-297 204,-297"/>
<text text-anchor="start" x="207" y="-301.55" font-family="Helvetica,sans-Serif" font-size="11.00">&lt; 1</text>
<polygon fill="#ffffff" stroke="none" points="283,-297 283,-315 324,-315 324,-297 283,-297"/>
<polygon fill="none" stroke="black" points="283,-297 283,-315 324,-315 324,-297 283,-297"/>
<text text-anchor="start" x="315" y="-301.55" font-family="Helvetica,sans-Serif" font-size="11.00"> &#160;</text>
<polygon fill="#ffffff" stroke="none" points="324,-297 324,-315 375,-315 375,-297 324,-297"/>
<polygon fill="none" stroke="black" points="324,-297 324,-315 375,-315 375,-297 324,-297"/>
<text text-anchor="start" x="356.25" y="-301.55" font-family="Helvetica,sans-Serif" font-size="11.00">6 &gt;</text>
</a>
</g>
</g>
<!-- account_api_keys&#45;&gt;account_identities -->
<g id="edge1" class="edge">
<title>account_api_keys:w&#45;&gt;account_identities:e</title>
<path fill="none" stroke="black" d="M466,-598.06C443.67,-595.01 432.53,-584.21 416,-562 368.65,-498.39 455.8,-388 376.5,-388"/>
<polygon fill="black" stroke="black" points="473.18,-598.5 480.95,-602.57 477.51,-598.76 480.83,-598.96 480.83,-598.96 480.83,-598.96 477.51,-598.76 481.38,-595.39 473.18,-598.5"/>
<ellipse fill="none" stroke="black" cx="468.27" cy="-598.2" rx="3.2" ry="3.2"/>
</g>
<!-- account_api_plans -->
<g id="node4" class="node">
<title>account_api_plans</title>
<g id="a_node4"><a xlink:href="../../tables/account_api_plans.html" xlink:title="account_api_plans" target="_top">
<polygon fill="#ffffff" stroke="none" points="8,-339 8,-397 155,-397 155,-339 8,-339"/>
<polygon fill="#f5f5f5" stroke="none" points="8,-375 8,-397 155,-397 155,-375 8,-375"/>
<polygon fill="none" stroke="black" points="8,-375 8,-397 155,-397 155,-375 8,-375"/>
<text text-anchor="start" x="13" y="-382.55" font-family="Helvetica,sans-Serif" font-weight="bold" font-size="11.00">account_api_plans</text>
<text text-anchor="start" x="121" y="-381.55" font-family="Helvetica,sans-Serif" font-size="11.00">[table]</text>
<polygon fill="none" stroke="black" points="8,-357 8,-375 155,-375 155,-357 8,-357"/>
<text text-anchor="start" x="11" y="-361.55" font-family="Helvetica,sans-Serif" font-size="11.00">...</text>
<polygon fill="#ffffff" stroke="none" points="8,-339 8,-357 71,-357 71,-339 8,-339"/>
<polygon fill="none" stroke="black" points="8,-339 8,-357 71,-357 71,-339 8,-339"/>
<text text-anchor="start" x="11" y="-343.55" font-family="Helvetica,sans-Serif" font-size="11.00"> &#160;</text>
<polygon fill="#ffffff" stroke="none" points="71,-339 71,-357 108,-357 108,-339 71,-339"/>
<polygon fill="none" stroke="black" points="71,-339 71,-357 108,-357 108,-339 71,-339"/>
<text text-anchor="start" x="99" y="-343.55" font-family="Helvetica,sans-Serif" font-size="11.00"> &#160;</text>
<polygon fill="#ffffff" stroke="none" points="108,-339 108,-357 155,-357 155,-339 108,-339"/>
<polygon fill="none" stroke="black" points="108,-339 108,-357 155,-357 155,-339 108,-339"/>
<text text-anchor="start" x="136.25" y="-343.55" font-family="Helvetica,sans-Serif" font-size="11.00">1 &gt;</text>
</a>
</g>
</g>
<!-- account_identities&#45;&gt;account_api_plans -->
<g id="edge3" class="edge">
<title>account_identities:w&#45;&gt;account_api_plans:e</title>
<path fill="none" stroke="black" d="M186.89,-366C177.36,-366 170.56,-366 156.5,-366"/>
<polygon fill="black" stroke="black" points="194.17,-366 202.17,-369.6 198.5,-366 201.83,-366 201.83,-366 201.83,-366 198.5,-366 202.17,-362.4 194.17,-366"/>
<ellipse fill="none" stroke="black" cx="189.25" cy="-366" rx="3.2" ry="3.2"/>
</g>
<!-- account_custom_abis -->
<g id="node3" class="node">
<title>account_custom_abis</title>
<g id="a_node3"><a xlink:href="../../tables/account_custom_abis.html" xlink:title="account_custom_abis" target="_top">
<polygon fill="#ffffff" stroke="none" points="471,-493 471,-551 636,-551 636,-493 471,-493"/>
<polygon fill="#f5f5f5" stroke="none" points="471,-529 471,-551 636,-551 636,-529 471,-529"/>
<polygon fill="none" stroke="black" points="471,-529 471,-551 636,-551 636,-529 471,-529"/>
<text text-anchor="start" x="476" y="-536.55" font-family="Helvetica,sans-Serif" font-weight="bold" font-size="11.00">account_custom_abis</text>
<text text-anchor="start" x="602" y="-535.55" font-family="Helvetica,sans-Serif" font-size="11.00">[table]</text>
<polygon fill="none" stroke="black" points="471,-511 471,-529 636,-529 636,-511 471,-511"/>
<text text-anchor="start" x="474" y="-515.55" font-family="Helvetica,sans-Serif" font-size="11.00">...</text>
<polygon fill="#ffffff" stroke="none" points="471,-493 471,-511 552,-511 552,-493 471,-493"/>
<polygon fill="none" stroke="black" points="471,-493 471,-511 552,-511 552,-493 471,-493"/>
<text text-anchor="start" x="474" y="-497.55" font-family="Helvetica,sans-Serif" font-size="11.00">&lt; 1</text>
<polygon fill="#ffffff" stroke="none" points="552,-493 552,-511 594,-511 594,-493 552,-493"/>
<polygon fill="none" stroke="black" points="552,-493 552,-511 594,-511 594,-493 552,-493"/>
<text text-anchor="start" x="585" y="-497.55" font-family="Helvetica,sans-Serif" font-size="11.00"> &#160;</text>
<polygon fill="#ffffff" stroke="none" points="594,-493 594,-511 636,-511 636,-493 594,-493"/>
<polygon fill="none" stroke="black" points="594,-493 594,-511 636,-511 636,-493 594,-493"/>
<text text-anchor="start" x="627" y="-497.55" font-family="Helvetica,sans-Serif" font-size="11.00"> &#160;</text>
</a>
</g>
</g>
<!-- account_custom_abis&#45;&gt;account_identities -->
<g id="edge2" class="edge">
<title>account_custom_abis:w&#45;&gt;account_identities:e</title>
<path fill="none" stroke="black" d="M453.89,-518.12C437.36,-513.52 430.34,-500.74 416,-483 387.25,-447.44 422.23,-388 376.5,-388"/>
<polygon fill="black" stroke="black" points="461.23,-519.01 468.74,-523.53 465.53,-519.52 468.84,-519.92 468.84,-519.92 468.84,-519.92 465.53,-519.52 469.6,-516.39 461.23,-519.01"/>
<ellipse fill="none" stroke="black" cx="456.34" cy="-518.42" rx="3.2" ry="3.2"/>
</g>
<!-- account_public_tags_requests -->
<g id="node5" class="node">
<title>account_public_tags_requests</title>
<g id="a_node5"><a xlink:href="../../tables/account_public_tags_requests.html" xlink:title="account_public_tags_requests" target="_top">
<polygon fill="#ffffff" stroke="none" points="446,-414 446,-472 661,-472 661,-414 446,-414"/>
<polygon fill="#f5f5f5" stroke="none" points="446,-450 446,-472 661,-472 661,-450 446,-450"/>
<polygon fill="none" stroke="black" points="446,-450 446,-472 661,-472 661,-450 446,-450"/>
<text text-anchor="start" x="451" y="-457.55" font-family="Helvetica,sans-Serif" font-weight="bold" font-size="11.00">account_public_tags_requests</text>
<text text-anchor="start" x="627" y="-456.55" font-family="Helvetica,sans-Serif" font-size="11.00">[table]</text>
<polygon fill="none" stroke="black" points="446,-432 446,-450 661,-450 661,-432 446,-432"/>
<text text-anchor="start" x="449" y="-436.55" font-family="Helvetica,sans-Serif" font-size="11.00">...</text>
<polygon fill="#ffffff" stroke="none" points="446,-414 446,-432 552,-432 552,-414 446,-414"/>
<polygon fill="none" stroke="black" points="446,-414 446,-432 552,-432 552,-414 446,-414"/>
<text text-anchor="start" x="449" y="-418.55" font-family="Helvetica,sans-Serif" font-size="11.00">&lt; 1</text>
<polygon fill="#ffffff" stroke="none" points="552,-414 552,-432 606,-432 606,-414 552,-414"/>
<polygon fill="none" stroke="black" points="552,-414 552,-432 606,-432 606,-414 552,-414"/>
<text text-anchor="start" x="597" y="-418.55" font-family="Helvetica,sans-Serif" font-size="11.00"> &#160;</text>
<polygon fill="#ffffff" stroke="none" points="606,-414 606,-432 661,-432 661,-414 606,-414"/>
<polygon fill="none" stroke="black" points="606,-414 606,-432 661,-432 661,-414 606,-414"/>
<text text-anchor="start" x="652" y="-418.55" font-family="Helvetica,sans-Serif" font-size="11.00"> &#160;</text>
</a>
</g>
</g>
<!-- account_public_tags_requests&#45;&gt;account_identities -->
<g id="edge4" class="edge">
<title>account_public_tags_requests:w&#45;&gt;account_identities:e</title>
<path fill="none" stroke="black" d="M429.32,-437.36C407.74,-425.38 408.68,-388 376.5,-388"/>
<polygon fill="black" stroke="black" points="436.4,-439.06 443.33,-444.42 440.61,-440.07 443.85,-440.84 443.85,-440.84 443.85,-440.84 440.61,-440.07 445.01,-437.42 436.4,-439.06"/>
<ellipse fill="none" stroke="black" cx="431.61" cy="-437.91" rx="3.2" ry="3.2"/>
</g>
<!-- account_tag_addresses -->
<g id="node6" class="node">
<title>account_tag_addresses</title>
<g id="a_node6"><a xlink:href="../../tables/account_tag_addresses.html" xlink:title="account_tag_addresses" target="_top">
<polygon fill="#ffffff" stroke="none" points="424,-195 424,-393 683,-393 683,-195 424,-195"/>
<polygon fill="#f5f5f5" stroke="none" points="426,-369 426,-391 681,-391 681,-369 426,-369"/>
<polygon fill="none" stroke="black" points="426,-369 426,-391 681,-391 681,-369 426,-369"/>
<text text-anchor="start" x="431" y="-376.55" font-family="Helvetica,sans-Serif" font-weight="bold" font-size="11.00">account_tag_addresses</text>
<text text-anchor="start" x="646.75" y="-375.55" font-family="Helvetica,sans-Serif" font-size="11.00">[table]</text>
<polygon fill="none" stroke="black" points="426,-347 426,-369 583,-369 583,-347 426,-347"/>
<image xlink:href="../../images/primaryKeys.png" width="11px" height="12px" preserveAspectRatio="xMinYMin meet" x="431" y="-364"/>
<text text-anchor="start" x="446" y="-353.55" font-family="Helvetica,sans-Serif" font-size="11.00">id</text>
<polygon fill="none" stroke="black" points="583,-347 583,-369 681,-369 681,-347 583,-347"/>
<text text-anchor="start" x="586" y="-353.55" font-family="Helvetica,sans-Serif" font-size="11.00">bigserial[19]</text>
<polygon fill="#ffffff" stroke="none" points="426,-325 426,-347 583,-347 583,-325 426,-325"/>
<polygon fill="none" stroke="black" points="426,-325 426,-347 583,-347 583,-325 426,-325"/>
<image xlink:href="../../images/foreignKeys.png" width="11px" height="12px" preserveAspectRatio="xMinYMin meet" x="431" y="-342"/>
<text text-anchor="start" x="446" y="-331.55" font-family="Helvetica,sans-Serif" font-size="11.00">identity_id</text>
<polygon fill="none" stroke="black" points="583,-325 583,-347 681,-347 681,-325 583,-325"/>
<text text-anchor="start" x="586" y="-331.55" font-family="Helvetica,sans-Serif" font-size="11.00">int8[19]</text>
<polygon fill="none" stroke="black" points="426,-303 426,-325 583,-325 583,-303 426,-303"/>
<text text-anchor="start" x="446" y="-309.55" font-family="Helvetica,sans-Serif" font-size="11.00">inserted_at</text>
<polygon fill="none" stroke="black" points="583,-303 583,-325 681,-325 681,-303 583,-303"/>
<text text-anchor="start" x="586" y="-309.55" font-family="Helvetica,sans-Serif" font-size="11.00">timestamp[22]</text>
<polygon fill="none" stroke="black" points="426,-281 426,-303 583,-303 583,-281 426,-281"/>
<text text-anchor="start" x="446" y="-287.55" font-family="Helvetica,sans-Serif" font-size="11.00">updated_at</text>
<polygon fill="none" stroke="black" points="583,-281 583,-303 681,-303 681,-281 583,-281"/>
<text text-anchor="start" x="586" y="-287.55" font-family="Helvetica,sans-Serif" font-size="11.00">timestamp[22]</text>
<polygon fill="#ffffff" stroke="none" points="426,-259 426,-281 583,-281 583,-259 426,-259"/>
<polygon fill="none" stroke="black" points="426,-259 426,-281 583,-281 583,-259 426,-259"/>
<text text-anchor="start" x="446" y="-265.55" font-family="Helvetica,sans-Serif" font-size="11.00">address_hash_hash</text>
<polygon fill="none" stroke="black" points="583,-259 583,-281 681,-281 681,-259 583,-259"/>
<text text-anchor="start" x="585.88" y="-265.55" font-family="Helvetica,sans-Serif" font-size="11.00">bytea[2147483647]</text>
<polygon fill="none" stroke="black" points="426,-237 426,-259 583,-259 583,-237 426,-237"/>
<text text-anchor="start" x="446" y="-243.55" font-family="Helvetica,sans-Serif" font-size="11.00">name</text>
<polygon fill="none" stroke="black" points="583,-237 583,-259 681,-259 681,-237 583,-237"/>
<text text-anchor="start" x="585.88" y="-243.55" font-family="Helvetica,sans-Serif" font-size="11.00">bytea[2147483647]</text>
<polygon fill="none" stroke="black" points="426,-215 426,-237 583,-237 583,-215 426,-215"/>
<text text-anchor="start" x="446" y="-221.55" font-family="Helvetica,sans-Serif" font-size="11.00">address_hash</text>
<polygon fill="none" stroke="black" points="583,-215 583,-237 681,-237 681,-215 583,-215"/>
<text text-anchor="start" x="585.88" y="-221.55" font-family="Helvetica,sans-Serif" font-size="11.00">bytea[2147483647]</text>
<polygon fill="#ffffff" stroke="none" points="426,-197 426,-215 509,-215 509,-197 426,-197"/>
<polygon fill="none" stroke="black" points="426,-197 426,-215 509,-215 509,-197 426,-197"/>
<text text-anchor="start" x="429" y="-201.55" font-family="Helvetica,sans-Serif" font-size="11.00">&lt; 1</text>
<polygon fill="#ffffff" stroke="none" points="509,-197 509,-215 583,-215 583,-197 509,-197"/>
<polygon fill="none" stroke="black" points="509,-197 509,-215 583,-215 583,-197 509,-197"/>
<text text-anchor="start" x="574" y="-201.55" font-family="Helvetica,sans-Serif" font-size="11.00"> &#160;</text>
<polygon fill="#ffffff" stroke="none" points="583,-197 583,-215 681,-215 681,-197 583,-197"/>
<polygon fill="none" stroke="black" points="583,-197 583,-215 681,-215 681,-197 583,-197"/>
<text text-anchor="start" x="662.25" y="-201.55" font-family="Helvetica,sans-Serif" font-size="11.00">0 &gt;</text>
<polygon fill="none" stroke="black" stroke-width="2" points="425,-196 425,-392 682,-392 682,-196 425,-196"/>
</a>
</g>
</g>
<!-- account_tag_addresses&#45;&gt;account_identities -->
<g id="edge5" class="edge">
<title>account_tag_addresses:w&#45;&gt;account_identities:e</title>
<path fill="none" stroke="black" d="M409.91,-341.97C397.27,-355.62 401.32,-388 376.5,-388"/>
<polygon fill="black" stroke="black" points="416.79,-339.15 425.55,-339.46 420.8,-337.51 423.88,-336.25 423.88,-336.25 423.88,-336.25 420.8,-337.51 422.83,-332.79 416.79,-339.15"/>
<ellipse fill="none" stroke="black" cx="412.23" cy="-341.02" rx="3.2" ry="3.2"/>
</g>
<!-- account_tag_transactions -->
<g id="node7" class="node">
<title>account_tag_transactions</title>
<g id="a_node7"><a xlink:href="../../tables/account_tag_transactions.html" xlink:title="account_tag_transactions" target="_top">
<polygon fill="#ffffff" stroke="none" points="460,-116 460,-174 647,-174 647,-116 460,-116"/>
<polygon fill="#f5f5f5" stroke="none" points="460,-152 460,-174 647,-174 647,-152 460,-152"/>
<polygon fill="none" stroke="black" points="460,-152 460,-174 647,-174 647,-152 460,-152"/>
<text text-anchor="start" x="465" y="-159.55" font-family="Helvetica,sans-Serif" font-weight="bold" font-size="11.00">account_tag_transactions</text>
<text text-anchor="start" x="613" y="-158.55" font-family="Helvetica,sans-Serif" font-size="11.00">[table]</text>
<polygon fill="none" stroke="black" points="460,-134 460,-152 647,-152 647,-134 460,-134"/>
<text text-anchor="start" x="463" y="-138.55" font-family="Helvetica,sans-Serif" font-size="11.00">...</text>
<polygon fill="#ffffff" stroke="none" points="460,-116 460,-134 552,-134 552,-116 460,-116"/>
<polygon fill="none" stroke="black" points="460,-116 460,-134 552,-134 552,-116 460,-116"/>
<text text-anchor="start" x="463" y="-120.55" font-family="Helvetica,sans-Serif" font-size="11.00">&lt; 1</text>
<polygon fill="#ffffff" stroke="none" points="552,-116 552,-134 599,-134 599,-116 552,-116"/>
<polygon fill="none" stroke="black" points="552,-116 552,-134 599,-134 599,-116 552,-116"/>
<text text-anchor="start" x="590" y="-120.55" font-family="Helvetica,sans-Serif" font-size="11.00"> &#160;</text>
<polygon fill="#ffffff" stroke="none" points="599,-116 599,-134 647,-134 647,-116 599,-116"/>
<polygon fill="none" stroke="black" points="599,-116 599,-134 647,-134 647,-116 599,-116"/>
<text text-anchor="start" x="638" y="-120.55" font-family="Helvetica,sans-Serif" font-size="11.00"> &#160;</text>
</a>
</g>
</g>
<!-- account_tag_transactions&#45;&gt;account_identities -->
<g id="edge6" class="edge">
<title>account_tag_transactions:w&#45;&gt;account_identities:e</title>
<path fill="none" stroke="black" d="M443.23,-145.89C429.85,-151.98 425.6,-167.08 416,-185 394.3,-225.51 422.46,-388 376.5,-388"/>
<polygon fill="black" stroke="black" points="450.31,-144.55 458.84,-146.6 454.57,-143.74 457.84,-143.12 457.84,-143.12 457.84,-143.12 454.57,-143.74 457.5,-139.52 450.31,-144.55"/>
<ellipse fill="none" stroke="black" cx="445.48" cy="-145.46" rx="3.2" ry="3.2"/>
</g>
<!-- account_watchlists -->
<g id="node8" class="node">
<title>account_watchlists</title>
<g id="a_node8"><a xlink:href="../../tables/account_watchlists.html" xlink:title="account_watchlists" target="_top">
<polygon fill="#ffffff" stroke="none" points="479,-37 479,-95 628,-95 628,-37 479,-37"/>
<polygon fill="#f5f5f5" stroke="none" points="479,-73 479,-95 628,-95 628,-73 479,-73"/>
<polygon fill="none" stroke="black" points="479,-73 479,-95 628,-95 628,-73 479,-73"/>
<text text-anchor="start" x="484" y="-80.55" font-family="Helvetica,sans-Serif" font-weight="bold" font-size="11.00">account_watchlists</text>
<text text-anchor="start" x="594" y="-79.55" font-family="Helvetica,sans-Serif" font-size="11.00">[table]</text>
<polygon fill="none" stroke="black" points="479,-55 479,-73 628,-73 628,-55 479,-55"/>
<text text-anchor="start" x="482" y="-59.55" font-family="Helvetica,sans-Serif" font-size="11.00">...</text>
<polygon fill="#ffffff" stroke="none" points="479,-37 479,-55 547,-55 547,-37 479,-37"/>
<polygon fill="none" stroke="black" points="479,-37 479,-55 547,-55 547,-37 479,-37"/>
<text text-anchor="start" x="482" y="-41.55" font-family="Helvetica,sans-Serif" font-size="11.00">&lt; 1</text>
<polygon fill="#ffffff" stroke="none" points="547,-37 547,-55 583,-55 583,-37 547,-37"/>
<polygon fill="none" stroke="black" points="547,-37 547,-55 583,-55 583,-37 547,-37"/>
<text text-anchor="start" x="574" y="-41.55" font-family="Helvetica,sans-Serif" font-size="11.00"> &#160;</text>
<polygon fill="#ffffff" stroke="none" points="583,-37 583,-55 628,-55 628,-37 583,-37"/>
<polygon fill="none" stroke="black" points="583,-37 583,-55 628,-55 628,-37 583,-37"/>
<text text-anchor="start" x="609.25" y="-41.55" font-family="Helvetica,sans-Serif" font-size="11.00">1 &gt;</text>
</a>
</g>
</g>
<!-- account_watchlists&#45;&gt;account_identities -->
<g id="edge7" class="edge">
<title>account_watchlists:w&#45;&gt;account_identities:e</title>
<path fill="none" stroke="black" d="M461.94,-65.29C440.35,-69.32 430.38,-82.82 416,-106 382.63,-159.77 439.78,-388 376.5,-388"/>
<polygon fill="black" stroke="black" points="469.19,-64.69 477.46,-67.62 473.51,-64.33 476.83,-64.06 476.83,-64.06 476.83,-64.06 473.51,-64.33 476.87,-60.44 469.19,-64.69"/>
<ellipse fill="none" stroke="black" cx="464.29" cy="-65.09" rx="3.2" ry="3.2"/>
</g>
</g>
</svg>
