<?xml version="1.0" encoding="UTF-8" standalone="no"?>
<!DOCTYPE svg PUBLIC "-//W3C//DTD SVG 1.1//EN"
 "http://www.w3.org/Graphics/SVG/1.1/DTD/svg11.dtd">
<!-- Generated by graphviz version 2.43.0 (0)
 -->
<!-- Title: oneDegreeRelationshipsDiagram Pages: 1 -->
<svg width="843pt" height="239pt"
 viewBox="0.00 0.00 843.00 239.00" xmlns="http://www.w3.org/2000/svg" xmlns:xlink="http://www.w3.org/1999/xlink">
<g id="graph0" class="graph" transform="scale(1 1) rotate(0) translate(4 235)">
<title>oneDegreeRelationshipsDiagram</title>
<polygon fill="#ffffff" stroke="transparent" points="-4,4 -4,-235 839,-235 839,4 -4,4"/>
<text text-anchor="middle" x="79.5" y="-7.2" font-family="Helvetica,sans-Serif" font-size="11.00">Generated by SchemaSpy</text>
<!-- account_watchlist_addresses -->
<g id="node1" class="node">
<title>account_watchlist_addresses</title>
<g id="a_node1"><a xlink:href="../../tables/account_watchlist_addresses.html" xlink:title="account_watchlist_addresses" target="_top">
<polygon fill="#ffffff" stroke="transparent" points="568,-103 568,-227 827,-227 827,-103 568,-103"/>
<polygon fill="#f5f5f5" stroke="transparent" points="568.5,-205 568.5,-227 827.5,-227 827.5,-205 568.5,-205"/>
<polygon fill="none" stroke="black" points="568.5,-205 568.5,-227 827.5,-227 827.5,-205 568.5,-205"/>
<text text-anchor="start" x="573.5" y="-214.2" font-family="Helvetica,sans-Serif" font-weight="bold" font-size="11.00">account_watchlist_addresses</text>
<text text-anchor="start" x="785.5" y="-213.2" font-family="Helvetica,sans-Serif" font-size="11.00">[table]</text>
<polygon fill="none" stroke="black" points="568.5,-183 568.5,-205 827.5,-205 827.5,-183 568.5,-183"/>
<image xlink:href="../../images/primaryKeys.png" width="11px" height="12px" preserveAspectRatio="xMinYMin meet" x="573.5" y="-200"/>
<text text-anchor="start" x="601.5" y="-191.2" font-family="Helvetica,sans-Serif" font-size="11.00">id</text>
<polygon fill="#ffffff" stroke="transparent" points="568.5,-161 568.5,-183 827.5,-183 827.5,-161 568.5,-161"/>
<polygon fill="none" stroke="black" points="568.5,-161 568.5,-183 827.5,-183 827.5,-161 568.5,-161"/>
<image xlink:href="../../images/foreignKeys.png" width="11px" height="12px" preserveAspectRatio="xMinYMin meet" x="573.5" y="-178"/>
<text text-anchor="start" x="601.5" y="-169.2" font-family="Helvetica,sans-Serif" font-size="11.00">watchlist_id</text>
<polygon fill="#ffffff" stroke="transparent" points="568.5,-139 568.5,-161 827.5,-161 827.5,-139 568.5,-139"/>
<polygon fill="none" stroke="black" points="568.5,-139 568.5,-161 827.5,-161 827.5,-139 568.5,-139"/>
<text text-anchor="start" x="601.5" y="-147.2" font-family="Helvetica,sans-Serif" font-size="11.00">address_hash_hash</text>
<polygon fill="none" stroke="black" points="568.5,-121 568.5,-139 827.5,-139 827.5,-121 568.5,-121"/>
<text text-anchor="start" x="571.5" y="-127.2" font-family="Helvetica,sans-Serif" font-size="11.00">...</text>
<polygon fill="#ffffff" stroke="transparent" points="568.5,-103 568.5,-121 827.5,-121 827.5,-103 568.5,-103"/>
<polygon fill="none" stroke="black" points="568.5,-103 568.5,-121 827.5,-121 827.5,-103 568.5,-103"/>
<polygon fill="#ffffff" stroke="transparent" points="569.5,-104 569.5,-120 663.5,-120 663.5,-104 569.5,-104"/>
<text text-anchor="start" x="571.5" y="-109.2" font-family="Helvetica,sans-Serif" font-size="11.00">&lt; 1</text>
<polygon fill="#ffffff" stroke="transparent" points="663.5,-104 663.5,-120 745.5,-120 745.5,-104 663.5,-104"/>
<text text-anchor="start" x="700.5" y="-109.2" font-family="Helvetica,sans-Serif" font-size="11.00"> &#160;</text>
<polygon fill="#ffffff" stroke="transparent" points="745.5,-104 745.5,-120 826.5,-120 826.5,-104 745.5,-104"/>
<text text-anchor="start" x="816.5" y="-109.2" font-family="Helvetica,sans-Serif" font-size="11.00"> &#160;</text>
<polygon fill="black" stroke="black" points="663.5,-104 663.5,-120 663.5,-120 663.5,-104 663.5,-104"/>
<polygon fill="black" stroke="black" points="745.5,-104 745.5,-120 745.5,-120 745.5,-104 745.5,-104"/>
</a>
</g>
</g>
<!-- account_watchlists -->
<g id="node2" class="node">
<title>account_watchlists</title>
<g id="a_node2"><a xlink:href="../../tables/account_watchlists.html" xlink:title="account_watchlists" target="_top">
<polygon fill="#ffffff" stroke="transparent" points="268,-53 268,-207 519,-207 519,-53 268,-53"/>
<polygon fill="#f5f5f5" stroke="transparent" points="270.5,-183 270.5,-205 517.5,-205 517.5,-183 270.5,-183"/>
<polygon fill="none" stroke="black" points="270.5,-183 270.5,-205 517.5,-205 517.5,-183 270.5,-183"/>
<text text-anchor="start" x="275.5" y="-192.2" font-family="Helvetica,sans-Serif" font-weight="bold" font-size="11.00">account_watchlists</text>
<text text-anchor="start" x="475.5" y="-191.2" font-family="Helvetica,sans-Serif" font-size="11.00">[table]</text>
<polygon fill="none" stroke="black" points="270.5,-161 270.5,-183 429.5,-183 429.5,-161 270.5,-161"/>
<image xlink:href="../../images/primaryKeys.png" width="11px" height="12px" preserveAspectRatio="xMinYMin meet" x="275.5" y="-178"/>
<text text-anchor="start" x="290.5" y="-169.2" font-family="Helvetica,sans-Serif" font-size="11.00">id</text>
<polygon fill="none" stroke="black" points="429.5,-161 429.5,-183 517.5,-183 517.5,-161 429.5,-161"/>
<text text-anchor="start" x="432.5" y="-169.2" font-family="Helvetica,sans-Serif" font-size="11.00">bigserial[19]</text>
<polygon fill="none" stroke="black" points="270.5,-139 270.5,-161 429.5,-161 429.5,-139 270.5,-139"/>
<text text-anchor="start" x="290.5" y="-147.2" font-family="Helvetica,sans-Serif" font-size="11.00">name</text>
<polygon fill="none" stroke="black" points="429.5,-139 429.5,-161 517.5,-161 517.5,-139 429.5,-139"/>
<text text-anchor="start" x="432.5" y="-147.2" font-family="Helvetica,sans-Serif" font-size="11.00">varchar[255]</text>
<polygon fill="#ffffff" stroke="transparent" points="270.5,-117 270.5,-139 429.5,-139 429.5,-117 270.5,-117"/>
<polygon fill="none" stroke="black" points="270.5,-117 270.5,-139 429.5,-139 429.5,-117 270.5,-117"/>
<image xlink:href="../../images/foreignKeys.png" width="11px" height="12px" preserveAspectRatio="xMinYMin meet" x="275.5" y="-134"/>
<text text-anchor="start" x="290.5" y="-125.2" font-family="Helvetica,sans-Serif" font-size="11.00">identity_id</text>
<polygon fill="none" stroke="black" points="429.5,-117 429.5,-139 517.5,-139 517.5,-117 429.5,-117"/>
<text text-anchor="start" x="432.5" y="-125.2" font-family="Helvetica,sans-Serif" font-size="11.00">int8[19]</text>
<polygon fill="none" stroke="black" points="270.5,-95 270.5,-117 429.5,-117 429.5,-95 270.5,-95"/>
<text text-anchor="start" x="290.5" y="-103.2" font-family="Helvetica,sans-Serif" font-size="11.00">inserted_at</text>
<polygon fill="none" stroke="black" points="429.5,-95 429.5,-117 517.5,-117 517.5,-95 429.5,-95"/>
<text text-anchor="start" x="432.5" y="-103.2" font-family="Helvetica,sans-Serif" font-size="11.00">timestamp[22]</text>
<polygon fill="none" stroke="black" points="270.5,-73 270.5,-95 429.5,-95 429.5,-73 270.5,-73"/>
<text text-anchor="start" x="290.5" y="-81.2" font-family="Helvetica,sans-Serif" font-size="11.00">updated_at</text>
<polygon fill="none" stroke="black" points="429.5,-73 429.5,-95 517.5,-95 517.5,-73 429.5,-73"/>
<text text-anchor="start" x="432.5" y="-81.2" font-family="Helvetica,sans-Serif" font-size="11.00">timestamp[22]</text>
<polygon fill="#ffffff" stroke="transparent" points="270.5,-55 270.5,-73 517.5,-73 517.5,-55 270.5,-55"/>
<polygon fill="none" stroke="black" points="270.5,-55 270.5,-73 517.5,-73 517.5,-55 270.5,-55"/>
<polygon fill="#ffffff" stroke="transparent" points="271.5,-56 271.5,-72 357.5,-72 357.5,-56 271.5,-56"/>
<text text-anchor="start" x="273.5" y="-61.2" font-family="Helvetica,sans-Serif" font-size="11.00">&lt; 1</text>
<polygon fill="#ffffff" stroke="transparent" points="357.5,-56 357.5,-72 431.5,-72 431.5,-56 357.5,-56"/>
<text text-anchor="start" x="390.5" y="-61.2" font-family="Helvetica,sans-Serif" font-size="11.00"> &#160;</text>
<polygon fill="#ffffff" stroke="transparent" points="431.5,-56 431.5,-72 516.5,-72 516.5,-56 431.5,-56"/>
<text text-anchor="start" x="494.5" y="-61.2" font-family="Helvetica,sans-Serif" font-size="11.00">1 &gt;</text>
<polygon fill="black" stroke="black" points="357.5,-56 357.5,-72 357.5,-72 357.5,-56 357.5,-56"/>
<polygon fill="black" stroke="black" points="431.5,-56 431.5,-72 431.5,-72 431.5,-56 431.5,-56"/>
<polygon fill="none" stroke="black" stroke-width="2" points="269,-54 269,-206 518,-206 518,-54 269,-54"/>
</a>
</g>
</g>
<!-- account_watchlist_addresses&#45;&gt;account_watchlists -->
<g id="edge1" class="edge">
<title>account_watchlist_addresses:w&#45;&gt;account_watchlists:e</title>
<path fill="none" stroke="black" d="M552.99,-172C541.68,-172 534.49,-172 518.5,-172"/>
<polygon fill="black" stroke="black" points="559.5,-172 567.5,-175.6 563.5,-172 567.5,-172 567.5,-172 567.5,-172 563.5,-172 567.5,-168.4 559.5,-172 559.5,-172"/>
<ellipse fill="none" stroke="black" cx="556.3" cy="-172" rx="3.2" ry="3.2"/>
</g>
<!-- account_identities -->
<g id="node3" class="node">
<title>account_identities</title>
<g id="a_node3"><a xlink:href="../../tables/account_identities.html" xlink:title="account_identities" target="_top">
<polygon fill="#ffffff" stroke="transparent" points="8,-37 8,-161 219,-161 219,-37 8,-37"/>
<polygon fill="#f5f5f5" stroke="transparent" points="8.5,-139 8.5,-161 219.5,-161 219.5,-139 8.5,-139"/>
<polygon fill="none" stroke="black" points="8.5,-139 8.5,-161 219.5,-161 219.5,-139 8.5,-139"/>
<text text-anchor="start" x="13.5" y="-148.2" font-family="Helvetica,sans-Serif" font-weight="bold" font-size="11.00">account_identities</text>
<text text-anchor="start" x="177.5" y="-147.2" font-family="Helvetica,sans-Serif" font-size="11.00">[table]</text>
<polygon fill="none" stroke="black" points="8.5,-117 8.5,-139 219.5,-139 219.5,-117 8.5,-117"/>
<image xlink:href="../../images/primaryKeys.png" width="11px" height="12px" preserveAspectRatio="xMinYMin meet" x="13.5" y="-134"/>
<text text-anchor="start" x="28.5" y="-125.2" font-family="Helvetica,sans-Serif" font-size="11.00">id</text>
<polygon fill="none" stroke="black" points="8.5,-95 8.5,-117 219.5,-117 219.5,-95 8.5,-95"/>
<image xlink:href="../../images/foreignKeys.png" width="11px" height="12px" preserveAspectRatio="xMinYMin meet" x="13.5" y="-112"/>
<text text-anchor="start" x="28.5" y="-103.2" font-family="Helvetica,sans-Serif" font-size="11.00">plan_id</text>
<polygon fill="#ffffff" stroke="transparent" points="8.5,-73 8.5,-95 219.5,-95 219.5,-73 8.5,-73"/>
<polygon fill="none" stroke="black" points="8.5,-73 8.5,-95 219.5,-95 219.5,-73 8.5,-73"/>
<text text-anchor="start" x="28.5" y="-81.2" font-family="Helvetica,sans-Serif" font-size="11.00">uid_hash</text>
<polygon fill="none" stroke="black" points="8.5,-55 8.5,-73 219.5,-73 219.5,-55 8.5,-55"/>
<text text-anchor="start" x="11.5" y="-61.2" font-family="Helvetica,sans-Serif" font-size="11.00">...</text>
<polygon fill="#ffffff" stroke="transparent" points="8.5,-37 8.5,-55 219.5,-55 219.5,-37 8.5,-37"/>
<polygon fill="none" stroke="black" points="8.5,-37 8.5,-55 219.5,-55 219.5,-37 8.5,-37"/>
<polygon fill="#ffffff" stroke="transparent" points="9.5,-38 9.5,-54 83.5,-54 83.5,-38 9.5,-38"/>
<text text-anchor="start" x="11.5" y="-43.2" font-family="Helvetica,sans-Serif" font-size="11.00">&lt; 1</text>
<polygon fill="#ffffff" stroke="transparent" points="83.5,-38 83.5,-54 145.5,-54 145.5,-38 83.5,-38"/>
<text text-anchor="start" x="110.5" y="-43.2" font-family="Helvetica,sans-Serif" font-size="11.00"> &#160;</text>
<polygon fill="#ffffff" stroke="transparent" points="145.5,-38 145.5,-54 218.5,-54 218.5,-38 145.5,-38"/>
<text text-anchor="start" x="196.5" y="-43.2" font-family="Helvetica,sans-Serif" font-size="11.00">5 &gt;</text>
<polygon fill="black" stroke="black" points="83.5,-38 83.5,-54 83.5,-54 83.5,-38 83.5,-38"/>
<polygon fill="black" stroke="black" points="145.5,-38 145.5,-54 145.5,-54 145.5,-38 145.5,-38"/>
</a>
</g>
</g>
<!-- account_watchlists&#45;&gt;account_identities -->
<g id="edge2" class="edge">
<title>account_watchlists:w&#45;&gt;account_identities:e</title>
<path fill="none" stroke="black" d="M254.99,-128C243.68,-128 236.49,-128 220.5,-128"/>
<polygon fill="black" stroke="black" points="261.5,-128 269.5,-131.6 265.5,-128 269.5,-128 269.5,-128 269.5,-128 265.5,-128 269.5,-124.4 261.5,-128 261.5,-128"/>
<ellipse fill="none" stroke="black" cx="258.3" cy="-128" rx="3.2" ry="3.2"/>
</g>
</g>
</svg>
