<?xml version="1.0" encoding="UTF-8" standalone="no"?>
<!DOCTYPE svg PUBLIC "-//W3C//DTD SVG 1.1//EN"
 "http://www.w3.org/Graphics/SVG/1.1/DTD/svg11.dtd">
<!-- Generated by graphviz version 9.0.0 (20230911.1827)
 -->
<!-- Title: oneDegreeRelationshipsDiagram Pages: 1 -->
<svg width="515pt" height="511pt"
 viewBox="0.00 0.00 515.00 511.00" xmlns="http://www.w3.org/2000/svg" xmlns:xlink="http://www.w3.org/1999/xlink">
<g id="graph0" class="graph" transform="scale(1 1) rotate(0) translate(4 507)">
<title>oneDegreeRelationshipsDiagram</title>
<polygon fill="#ffffff" stroke="none" points="-4,4 -4,-507 511,-507 511,4 -4,4"/>
<text text-anchor="middle" x="71.38" y="-5.55" font-family="Helvetica,sans-Serif" font-size="11.00">Generated by SchemaSpy</text>
<!-- account_watchlist_addresses -->
<g id="node1" class="node">
<title>account_watchlist_addresses</title>
<g id="a_node1"><a xlink:href="../../tables/account_watchlist_addresses.html" xlink:title="account_watchlist_addresses" target="_top">
<polygon fill="#ffffff" stroke="none" points="206,-37 206,-499 499,-499 499,-37 206,-37"/>
<polygon fill="#f5f5f5" stroke="none" points="208,-475 208,-497 497,-497 497,-475 208,-475"/>
<polygon fill="none" stroke="black" points="208,-475 208,-497 497,-497 497,-475 208,-475"/>
<text text-anchor="start" x="213" y="-482.55" font-family="Helvetica,sans-Serif" font-weight="bold" font-size="11.00">account_watchlist_addresses</text>
<text text-anchor="start" x="462.75" y="-481.55" font-family="Helvetica,sans-Serif" font-size="11.00">[table]</text>
<polygon fill="none" stroke="black" points="208,-453 208,-475 399,-475 399,-453 208,-453"/>
<image xlink:href="../../images/primaryKeys.png" width="11px" height="12px" preserveAspectRatio="xMinYMin meet" x="213" y="-470"/>
<text text-anchor="start" x="228" y="-459.55" font-family="Helvetica,sans-Serif" font-size="11.00">id</text>
<polygon fill="none" stroke="black" points="399,-453 399,-475 497,-475 497,-453 399,-453"/>
<text text-anchor="start" x="402" y="-459.55" font-family="Helvetica,sans-Serif" font-size="11.00">bigserial[19]</text>
<polygon fill="#ffffff" stroke="none" points="208,-431 208,-453 399,-453 399,-431 208,-431"/>
<polygon fill="none" stroke="black" points="208,-431 208,-453 399,-453 399,-431 208,-431"/>
<image xlink:href="../../images/foreignKeys.png" width="11px" height="12px" preserveAspectRatio="xMinYMin meet" x="213" y="-448"/>
<text text-anchor="start" x="228" y="-437.55" font-family="Helvetica,sans-Serif" font-size="11.00">watchlist_id</text>
<polygon fill="none" stroke="black" points="399,-431 399,-453 497,-453 497,-431 399,-431"/>
<text text-anchor="start" x="402" y="-437.55" font-family="Helvetica,sans-Serif" font-size="11.00">int8[19]</text>
<polygon fill="none" stroke="black" points="208,-409 208,-431 399,-431 399,-409 208,-409"/>
<text text-anchor="start" x="228" y="-415.55" font-family="Helvetica,sans-Serif" font-size="11.00">watch_coin_input</text>
<polygon fill="none" stroke="black" points="399,-409 399,-431 497,-431 497,-409 399,-409"/>
<text text-anchor="start" x="402" y="-415.55" font-family="Helvetica,sans-Serif" font-size="11.00">bool[1]</text>
<polygon fill="none" stroke="black" points="208,-387 208,-409 399,-409 399,-387 208,-387"/>
<text text-anchor="start" x="228" y="-393.55" font-family="Helvetica,sans-Serif" font-size="11.00">watch_coin_output</text>
<polygon fill="none" stroke="black" points="399,-387 399,-409 497,-409 497,-387 399,-387"/>
<text text-anchor="start" x="402" y="-393.55" font-family="Helvetica,sans-Serif" font-size="11.00">bool[1]</text>
<polygon fill="none" stroke="black" points="208,-365 208,-387 399,-387 399,-365 208,-365"/>
<text text-anchor="start" x="228" y="-371.55" font-family="Helvetica,sans-Serif" font-size="11.00">watch_erc_20_input</text>
<polygon fill="none" stroke="black" points="399,-365 399,-387 497,-387 497,-365 399,-365"/>
<text text-anchor="start" x="402" y="-371.55" font-family="Helvetica,sans-Serif" font-size="11.00">bool[1]</text>
<polygon fill="none" stroke="black" points="208,-343 208,-365 399,-365 399,-343 208,-343"/>
<text text-anchor="start" x="228" y="-349.55" font-family="Helvetica,sans-Serif" font-size="11.00">watch_erc_20_output</text>
<polygon fill="none" stroke="black" points="399,-343 399,-365 497,-365 497,-343 399,-343"/>
<text text-anchor="start" x="402" y="-349.55" font-family="Helvetica,sans-Serif" font-size="11.00">bool[1]</text>
<polygon fill="none" stroke="black" points="208,-321 208,-343 399,-343 399,-321 208,-321"/>
<text text-anchor="start" x="228" y="-327.55" font-family="Helvetica,sans-Serif" font-size="11.00">watch_erc_721_input</text>
<polygon fill="none" stroke="black" points="399,-321 399,-343 497,-343 497,-321 399,-321"/>
<text text-anchor="start" x="402" y="-327.55" font-family="Helvetica,sans-Serif" font-size="11.00">bool[1]</text>
<polygon fill="none" stroke="black" points="208,-299 208,-321 399,-321 399,-299 208,-299"/>
<text text-anchor="start" x="228" y="-305.55" font-family="Helvetica,sans-Serif" font-size="11.00">watch_erc_721_output</text>
<polygon fill="none" stroke="black" points="399,-299 399,-321 497,-321 497,-299 399,-299"/>
<text text-anchor="start" x="402" y="-305.55" font-family="Helvetica,sans-Serif" font-size="11.00">bool[1]</text>
<polygon fill="none" stroke="black" points="208,-277 208,-299 399,-299 399,-277 208,-277"/>
<text text-anchor="start" x="228" y="-283.55" font-family="Helvetica,sans-Serif" font-size="11.00">watch_erc_1155_input</text>
<polygon fill="none" stroke="black" points="399,-277 399,-299 497,-299 497,-277 399,-277"/>
<text text-anchor="start" x="402" y="-283.55" font-family="Helvetica,sans-Serif" font-size="11.00">bool[1]</text>
<polygon fill="none" stroke="black" points="208,-255 208,-277 399,-277 399,-255 208,-255"/>
<text text-anchor="start" x="228" y="-261.55" font-family="Helvetica,sans-Serif" font-size="11.00">watch_erc_1155_output</text>
<polygon fill="none" stroke="black" points="399,-255 399,-277 497,-277 497,-255 399,-255"/>
<text text-anchor="start" x="402" y="-261.55" font-family="Helvetica,sans-Serif" font-size="11.00">bool[1]</text>
<polygon fill="none" stroke="black" points="208,-233 208,-255 399,-255 399,-233 208,-233"/>
<text text-anchor="start" x="228" y="-239.55" font-family="Helvetica,sans-Serif" font-size="11.00">notify_email</text>
<polygon fill="none" stroke="black" points="399,-233 399,-255 497,-255 497,-233 399,-233"/>
<text text-anchor="start" x="402" y="-239.55" font-family="Helvetica,sans-Serif" font-size="11.00">bool[1]</text>
<polygon fill="none" stroke="black" points="208,-211 208,-233 399,-233 399,-211 208,-211"/>
<text text-anchor="start" x="228" y="-217.55" font-family="Helvetica,sans-Serif" font-size="11.00">notify_epns</text>
<polygon fill="none" stroke="black" points="399,-211 399,-233 497,-233 497,-211 399,-211"/>
<text text-anchor="start" x="402" y="-217.55" font-family="Helvetica,sans-Serif" font-size="11.00">bool[1]</text>
<polygon fill="none" stroke="black" points="208,-189 208,-211 399,-211 399,-189 208,-189"/>
<text text-anchor="start" x="228" y="-195.55" font-family="Helvetica,sans-Serif" font-size="11.00">notify_feed</text>
<polygon fill="none" stroke="black" points="399,-189 399,-211 497,-211 497,-189 399,-189"/>
<text text-anchor="start" x="402" y="-195.55" font-family="Helvetica,sans-Serif" font-size="11.00">bool[1]</text>
<polygon fill="none" stroke="black" points="208,-167 208,-189 399,-189 399,-167 208,-167"/>
<text text-anchor="start" x="228" y="-173.55" font-family="Helvetica,sans-Serif" font-size="11.00">notify_inapp</text>
<polygon fill="none" stroke="black" points="399,-167 399,-189 497,-189 497,-167 399,-167"/>
<text text-anchor="start" x="402" y="-173.55" font-family="Helvetica,sans-Serif" font-size="11.00">bool[1]</text>
<polygon fill="none" stroke="black" points="208,-145 208,-167 399,-167 399,-145 208,-145"/>
<text text-anchor="start" x="228" y="-151.55" font-family="Helvetica,sans-Serif" font-size="11.00">inserted_at</text>
<polygon fill="none" stroke="black" points="399,-145 399,-167 497,-167 497,-145 399,-145"/>
<text text-anchor="start" x="402" y="-151.55" font-family="Helvetica,sans-Serif" font-size="11.00">timestamp[22]</text>
<polygon fill="none" stroke="black" points="208,-123 208,-145 399,-145 399,-123 208,-123"/>
<text text-anchor="start" x="228" y="-129.55" font-family="Helvetica,sans-Serif" font-size="11.00">updated_at</text>
<polygon fill="none" stroke="black" points="399,-123 399,-145 497,-145 497,-123 399,-123"/>
<text text-anchor="start" x="402" y="-129.55" font-family="Helvetica,sans-Serif" font-size="11.00">timestamp[22]</text>
<polygon fill="#ffffff" stroke="none" points="208,-101 208,-123 399,-123 399,-101 208,-101"/>
<polygon fill="none" stroke="black" points="208,-101 208,-123 399,-123 399,-101 208,-101"/>
<text text-anchor="start" x="228" y="-107.55" font-family="Helvetica,sans-Serif" font-size="11.00">address_hash_hash</text>
<polygon fill="none" stroke="black" points="399,-101 399,-123 497,-123 497,-101 399,-101"/>
<text text-anchor="start" x="401.88" y="-107.55" font-family="Helvetica,sans-Serif" font-size="11.00">bytea[2147483647]</text>
<polygon fill="none" stroke="black" points="208,-79 208,-101 399,-101 399,-79 208,-79"/>
<text text-anchor="start" x="228" y="-85.55" font-family="Helvetica,sans-Serif" font-size="11.00">name</text>
<polygon fill="none" stroke="black" points="399,-79 399,-101 497,-101 497,-79 399,-79"/>
<text text-anchor="start" x="401.88" y="-85.55" font-family="Helvetica,sans-Serif" font-size="11.00">bytea[2147483647]</text>
<polygon fill="none" stroke="black" points="208,-57 208,-79 399,-79 399,-57 208,-57"/>
<text text-anchor="start" x="228" y="-63.55" font-family="Helvetica,sans-Serif" font-size="11.00">address_hash</text>
<polygon fill="none" stroke="black" points="399,-57 399,-79 497,-79 497,-57 399,-57"/>
<text text-anchor="start" x="401.88" y="-63.55" font-family="Helvetica,sans-Serif" font-size="11.00">bytea[2147483647]</text>
<polygon fill="#ffffff" stroke="none" points="208,-39 208,-57 308,-57 308,-39 208,-39"/>
<polygon fill="none" stroke="black" points="208,-39 208,-57 308,-57 308,-39 208,-39"/>
<text text-anchor="start" x="211" y="-43.55" font-family="Helvetica,sans-Serif" font-size="11.00">&lt; 1</text>
<polygon fill="#ffffff" stroke="none" points="308,-39 308,-57 399,-57 399,-39 308,-39"/>
<polygon fill="none" stroke="black" points="308,-39 308,-57 399,-57 399,-39 308,-39"/>
<text text-anchor="start" x="390" y="-43.55" font-family="Helvetica,sans-Serif" font-size="11.00"> &#160;</text>
<polygon fill="#ffffff" stroke="none" points="399,-39 399,-57 497,-57 497,-39 399,-39"/>
<polygon fill="none" stroke="black" points="399,-39 399,-57 497,-57 497,-39 399,-39"/>
<text text-anchor="start" x="478.25" y="-43.55" font-family="Helvetica,sans-Serif" font-size="11.00">0 &gt;</text>
<polygon fill="none" stroke="black" stroke-width="2" points="207,-38 207,-498 498,-498 498,-38 207,-38"/>
</a>
</g>
</g>
<!-- account_watchlists -->
<g id="node2" class="node">
<title>account_watchlists</title>
<g id="a_node2"><a xlink:href="../../tables/account_watchlists.html" xlink:title="account_watchlists" target="_top">
<polygon fill="#ffffff" stroke="none" points="8,-373 8,-475 157,-475 157,-373 8,-373"/>
<polygon fill="#f5f5f5" stroke="none" points="8,-453 8,-475 157,-475 157,-453 8,-453"/>
<polygon fill="none" stroke="black" points="8,-453 8,-475 157,-475 157,-453 8,-453"/>
<text text-anchor="start" x="13" y="-460.55" font-family="Helvetica,sans-Serif" font-weight="bold" font-size="11.00">account_watchlists</text>
<text text-anchor="start" x="123" y="-459.55" font-family="Helvetica,sans-Serif" font-size="11.00">[table]</text>
<polygon fill="none" stroke="black" points="8,-431 8,-453 157,-453 157,-431 8,-431"/>
<image xlink:href="../../images/primaryKeys.png" width="11px" height="12px" preserveAspectRatio="xMinYMin meet" x="13" y="-448"/>
<text text-anchor="start" x="37" y="-437.55" font-family="Helvetica,sans-Serif" font-size="11.00">id</text>
<polygon fill="#ffffff" stroke="none" points="8,-409 8,-431 157,-431 157,-409 8,-409"/>
<polygon fill="none" stroke="black" points="8,-409 8,-431 157,-431 157,-409 8,-409"/>
<image xlink:href="../../images/foreignKeys.png" width="11px" height="12px" preserveAspectRatio="xMinYMin meet" x="13" y="-426"/>
<text text-anchor="start" x="37" y="-415.55" font-family="Helvetica,sans-Serif" font-size="11.00">identity_id</text>
<polygon fill="none" stroke="black" points="8,-391 8,-409 157,-409 157,-391 8,-391"/>
<text text-anchor="start" x="11" y="-395.55" font-family="Helvetica,sans-Serif" font-size="11.00">...</text>
<polygon fill="#ffffff" stroke="none" points="8,-373 8,-391 76,-391 76,-373 8,-373"/>
<polygon fill="none" stroke="black" points="8,-373 8,-391 76,-391 76,-373 8,-373"/>
<text text-anchor="start" x="11" y="-377.55" font-family="Helvetica,sans-Serif" font-size="11.00">&lt; 1</text>
<polygon fill="#ffffff" stroke="none" points="76,-373 76,-391 112,-391 112,-373 76,-373"/>
<polygon fill="none" stroke="black" points="76,-373 76,-391 112,-391 112,-373 76,-373"/>
<text text-anchor="start" x="103" y="-377.55" font-family="Helvetica,sans-Serif" font-size="11.00"> &#160;</text>
<polygon fill="#ffffff" stroke="none" points="112,-373 112,-391 157,-391 157,-373 112,-373"/>
<polygon fill="none" stroke="black" points="112,-373 112,-391 157,-391 157,-373 112,-373"/>
<text text-anchor="start" x="138.25" y="-377.55" font-family="Helvetica,sans-Serif" font-size="11.00">1 &gt;</text>
</a>
</g>
</g>
<!-- account_watchlist_addresses&#45;&gt;account_watchlists -->
<g id="edge1" class="edge">
<title>account_watchlist_addresses:w&#45;&gt;account_watchlists:e</title>
<path fill="none" stroke="black" d="M190.89,-442C180.59,-442 173.5,-442 158.5,-442"/>
<polygon fill="black" stroke="black" points="198.17,-442 206.17,-445.6 202.5,-442 205.83,-442 205.83,-442 205.83,-442 202.5,-442 206.17,-438.4 198.17,-442"/>
<ellipse fill="none" stroke="black" cx="193.25" cy="-442" rx="3.2" ry="3.2"/>
</g>
</g>
</svg>
