<?xml version="1.0" encoding="UTF-8" standalone="no"?>
<!DOCTYPE svg PUBLIC "-//W3C//DTD SVG 1.1//EN"
 "http://www.w3.org/Graphics/SVG/1.1/DTD/svg11.dtd">
<!-- Generated by graphviz version 9.0.0 (20230911.1827)
 -->
<!-- Title: oneDegreeRelationshipsDiagram Pages: 1 -->
<svg width="464pt" height="203pt"
 viewBox="0.00 0.00 464.00 203.00" xmlns="http://www.w3.org/2000/svg" xmlns:xlink="http://www.w3.org/1999/xlink">
<g id="graph0" class="graph" transform="scale(1 1) rotate(0) translate(4 199)">
<title>oneDegreeRelationshipsDiagram</title>
<polygon fill="#ffffff" stroke="none" points="-4,4 -4,-199 460,-199 460,4 -4,4"/>
<text text-anchor="middle" x="71.38" y="-5.55" font-family="Helvetica,sans-Serif" font-size="11.00">Generated by SchemaSpy</text>
<!-- account_api_keys -->
<g id="node1" class="node">
<title>account_api_keys</title>
<g id="a_node1"><a xlink:href="../../tables/account_api_keys.html" xlink:title="account_api_keys" target="_top">
<polygon fill="#ffffff" stroke="none" points="228,-37 228,-191 448,-191 448,-37 228,-37"/>
<polygon fill="#f5f5f5" stroke="none" points="230,-167 230,-189 446,-189 446,-167 230,-167"/>
<polygon fill="none" stroke="black" points="230,-167 230,-189 446,-189 446,-167 230,-167"/>
<text text-anchor="start" x="235" y="-174.55" font-family="Helvetica,sans-Serif" font-weight="bold" font-size="11.00">account_api_keys</text>
<text text-anchor="start" x="411.75" y="-173.55" font-family="Helvetica,sans-Serif" font-size="11.00">[table]</text>
<polygon fill="#ffffff" stroke="none" points="230,-145 230,-167 354,-167 354,-145 230,-145"/>
<polygon fill="none" stroke="black" points="230,-145 230,-167 354,-167 354,-145 230,-145"/>
<image xlink:href="../../images/foreignKeys.png" width="11px" height="12px" preserveAspectRatio="xMinYMin meet" x="235" y="-162"/>
<text text-anchor="start" x="250" y="-151.55" font-family="Helvetica,sans-Serif" font-size="11.00">identity_id</text>
<polygon fill="none" stroke="black" points="354,-145 354,-167 446,-167 446,-145 354,-145"/>
<text text-anchor="start" x="357" y="-151.55" font-family="Helvetica,sans-Serif" font-size="11.00">int8[19]</text>
<polygon fill="none" stroke="black" points="230,-123 230,-145 354,-145 354,-123 230,-123"/>
<text text-anchor="start" x="250" y="-129.55" font-family="Helvetica,sans-Serif" font-size="11.00">name</text>
<polygon fill="none" stroke="black" points="354,-123 354,-145 446,-145 446,-123 354,-123"/>
<text text-anchor="start" x="357" y="-129.55" font-family="Helvetica,sans-Serif" font-size="11.00">varchar[255]</text>
<polygon fill="none" stroke="black" points="230,-101 230,-123 354,-123 354,-101 230,-101"/>
<image xlink:href="../../images/primaryKeys.png" width="11px" height="12px" preserveAspectRatio="xMinYMin meet" x="235" y="-118"/>
<text text-anchor="start" x="250" y="-107.55" font-family="Helvetica,sans-Serif" font-size="11.00">value</text>
<polygon fill="none" stroke="black" points="354,-101 354,-123 446,-123 446,-101 354,-101"/>
<text text-anchor="start" x="356.88" y="-107.55" font-family="Helvetica,sans-Serif" font-size="11.00">uuid[2147483647]</text>
<polygon fill="none" stroke="black" points="230,-79 230,-101 354,-101 354,-79 230,-79"/>
<text text-anchor="start" x="250" y="-85.55" font-family="Helvetica,sans-Serif" font-size="11.00">inserted_at</text>
<polygon fill="none" stroke="black" points="354,-79 354,-101 446,-101 446,-79 354,-79"/>
<text text-anchor="start" x="357" y="-85.55" font-family="Helvetica,sans-Serif" font-size="11.00">timestamp[22]</text>
<polygon fill="none" stroke="black" points="230,-57 230,-79 354,-79 354,-57 230,-57"/>
<text text-anchor="start" x="250" y="-63.55" font-family="Helvetica,sans-Serif" font-size="11.00">updated_at</text>
<polygon fill="none" stroke="black" points="354,-57 354,-79 446,-79 446,-57 354,-57"/>
<text text-anchor="start" x="357" y="-63.55" font-family="Helvetica,sans-Serif" font-size="11.00">timestamp[22]</text>
<polygon fill="#ffffff" stroke="none" points="230,-39 230,-57 296,-57 296,-39 230,-39"/>
<polygon fill="none" stroke="black" points="230,-39 230,-57 296,-57 296,-39 230,-39"/>
<text text-anchor="start" x="233" y="-43.55" font-family="Helvetica,sans-Serif" font-size="11.00">&lt; 1</text>
<polygon fill="#ffffff" stroke="none" points="296,-39 296,-57 354,-57 354,-39 296,-39"/>
<polygon fill="none" stroke="black" points="296,-39 296,-57 354,-57 354,-39 296,-39"/>
<text text-anchor="start" x="345" y="-43.55" font-family="Helvetica,sans-Serif" font-size="11.00"> &#160;</text>
<polygon fill="#ffffff" stroke="none" points="354,-39 354,-57 446,-57 446,-39 354,-39"/>
<polygon fill="none" stroke="black" points="354,-39 354,-57 446,-57 446,-39 354,-39"/>
<text text-anchor="start" x="427.25" y="-43.55" font-family="Helvetica,sans-Serif" font-size="11.00">0 &gt;</text>
<polygon fill="none" stroke="black" stroke-width="2" points="229,-38 229,-190 447,-190 447,-38 229,-38"/>
</a>
</g>
</g>
<!-- account_identities -->
<g id="node2" class="node">
<title>account_identities</title>
<g id="a_node2"><a xlink:href="../../tables/account_identities.html" xlink:title="account_identities" target="_top">
<polygon fill="#ffffff" stroke="none" points="8,-65 8,-189 179,-189 179,-65 8,-65"/>
<polygon fill="#f5f5f5" stroke="none" points="8,-167 8,-189 179,-189 179,-167 8,-167"/>
<polygon fill="none" stroke="black" points="8,-167 8,-189 179,-189 179,-167 8,-167"/>
<text text-anchor="start" x="13" y="-174.55" font-family="Helvetica,sans-Serif" font-weight="bold" font-size="11.00">account_identities</text>
<text text-anchor="start" x="144.75" y="-173.55" font-family="Helvetica,sans-Serif" font-size="11.00">[table]</text>
<polygon fill="none" stroke="black" points="8,-145 8,-167 179,-167 179,-145 8,-145"/>
<image xlink:href="../../images/primaryKeys.png" width="11px" height="12px" preserveAspectRatio="xMinYMin meet" x="13" y="-162"/>
<text text-anchor="start" x="28" y="-151.55" font-family="Helvetica,sans-Serif" font-size="11.00">id</text>
<polygon fill="none" stroke="black" points="8,-123 8,-145 179,-145 179,-123 8,-123"/>
<image xlink:href="../../images/foreignKeys.png" width="11px" height="12px" preserveAspectRatio="xMinYMin meet" x="13" y="-140"/>
<text text-anchor="start" x="28" y="-129.55" font-family="Helvetica,sans-Serif" font-size="11.00">plan_id</text>
<polygon fill="#ffffff" stroke="none" points="8,-101 8,-123 179,-123 179,-101 8,-101"/>
<polygon fill="none" stroke="black" points="8,-101 8,-123 179,-123 179,-101 8,-101"/>
<text text-anchor="start" x="28" y="-107.55" font-family="Helvetica,sans-Serif" font-size="11.00">uid_hash</text>
<polygon fill="none" stroke="black" points="8,-83 8,-101 179,-101 179,-83 8,-83"/>
<text text-anchor="start" x="11" y="-87.55" font-family="Helvetica,sans-Serif" font-size="11.00">...</text>
<polygon fill="#ffffff" stroke="none" points="8,-65 8,-83 87,-83 87,-65 8,-65"/>
<polygon fill="none" stroke="black" points="8,-65 8,-83 87,-83 87,-65 8,-65"/>
<text text-anchor="start" x="11" y="-69.55" font-family="Helvetica,sans-Serif" font-size="11.00">&lt; 1</text>
<polygon fill="#ffffff" stroke="none" points="87,-65 87,-83 128,-83 128,-65 87,-65"/>
<polygon fill="none" stroke="black" points="87,-65 87,-83 128,-83 128,-65 87,-65"/>
<text text-anchor="start" x="119" y="-69.55" font-family="Helvetica,sans-Serif" font-size="11.00"> &#160;</text>
<polygon fill="#ffffff" stroke="none" points="128,-65 128,-83 179,-83 179,-65 128,-65"/>
<polygon fill="none" stroke="black" points="128,-65 128,-83 179,-83 179,-65 128,-65"/>
<text text-anchor="start" x="160.25" y="-69.55" font-family="Helvetica,sans-Serif" font-size="11.00">6 &gt;</text>
</a>
</g>
</g>
<!-- account_api_keys&#45;&gt;account_identities -->
<g id="edge1" class="edge">
<title>account_api_keys:w&#45;&gt;account_identities:e</title>
<path fill="none" stroke="black" d="M213.23,-156C202.82,-156 195.66,-156 180.5,-156"/>
<polygon fill="black" stroke="black" points="220.67,-156 228.67,-159.6 225,-156 228.33,-156 228.33,-156 228.33,-156 225,-156 228.67,-152.4 220.67,-156"/>
<ellipse fill="none" stroke="black" cx="215.75" cy="-156" rx="3.2" ry="3.2"/>
</g>
</g>
</svg>
