<?xml version="1.0" encoding="UTF-8" standalone="no"?>
<!DOCTYPE svg PUBLIC "-//W3C//DTD SVG 1.1//EN"
 "http://www.w3.org/Graphics/SVG/1.1/DTD/svg11.dtd">
<!-- Generated by graphviz version 2.43.0 (0)
 -->
<!-- Title: oneDegreeRelationshipsDiagram Pages: 1 -->
<svg width="578pt" height="291pt"
 viewBox="0.00 0.00 578.00 291.00" xmlns="http://www.w3.org/2000/svg" xmlns:xlink="http://www.w3.org/1999/xlink">
<g id="graph0" class="graph" transform="scale(1 1) rotate(0) translate(4 287)">
<title>oneDegreeRelationshipsDiagram</title>
<polygon fill="#ffffff" stroke="transparent" points="-4,4 -4,-287 574,-287 574,4 -4,4"/>
<text text-anchor="middle" x="79.5" y="-7.2" font-family="Helvetica,sans-Serif" font-size="11.00">Generated by SchemaSpy</text>
<!-- account_custom_abis -->
<g id="node1" class="node">
<title>account_custom_abis</title>
<g id="a_node1"><a xlink:href="../../tables/account_custom_abis.html" xlink:title="account_custom_abis" target="_top">
<polygon fill="#ffffff" stroke="transparent" points="268,-37 268,-279 562,-279 562,-37 268,-37"/>
<polygon fill="#f5f5f5" stroke="transparent" points="270,-255 270,-277 560,-277 560,-255 270,-255"/>
<polygon fill="none" stroke="black" points="270,-255 270,-277 560,-277 560,-255 270,-255"/>
<text text-anchor="start" x="275" y="-264.2" font-family="Helvetica,sans-Serif" font-weight="bold" font-size="11.00">account_custom_abis</text>
<text text-anchor="start" x="518" y="-263.2" font-family="Helvetica,sans-Serif" font-size="11.00">[table]</text>
<polygon fill="none" stroke="black" points="270,-233 270,-255 445,-255 445,-233 270,-233"/>
<image xlink:href="../../images/primaryKeys.png" width="11px" height="12px" preserveAspectRatio="xMinYMin meet" x="275" y="-250"/>
<text text-anchor="start" x="290" y="-241.2" font-family="Helvetica,sans-Serif" font-size="11.00">id</text>
<polygon fill="none" stroke="black" points="445,-233 445,-255 560,-255 560,-233 445,-233"/>
<text text-anchor="start" x="448" y="-241.2" font-family="Helvetica,sans-Serif" font-size="11.00">serial[10]</text>
<polygon fill="#ffffff" stroke="transparent" points="270,-211 270,-233 445,-233 445,-211 270,-211"/>
<polygon fill="none" stroke="black" points="270,-211 270,-233 445,-233 445,-211 270,-211"/>
<image xlink:href="../../images/foreignKeys.png" width="11px" height="12px" preserveAspectRatio="xMinYMin meet" x="275" y="-228"/>
<text text-anchor="start" x="290" y="-219.2" font-family="Helvetica,sans-Serif" font-size="11.00">identity_id</text>
<polygon fill="none" stroke="black" points="445,-211 445,-233 560,-233 560,-211 445,-211"/>
<text text-anchor="start" x="448" y="-219.2" font-family="Helvetica,sans-Serif" font-size="11.00">int8[19]</text>
<polygon fill="none" stroke="black" points="270,-189 270,-211 445,-211 445,-189 270,-189"/>
<text text-anchor="start" x="290" y="-197.2" font-family="Helvetica,sans-Serif" font-size="11.00">abi</text>
<polygon fill="none" stroke="black" points="445,-189 445,-211 560,-211 560,-189 445,-189"/>
<text text-anchor="start" x="448" y="-197.2" font-family="Helvetica,sans-Serif" font-size="11.00">jsonb[2147483647]</text>
<polygon fill="none" stroke="black" points="270,-167 270,-189 445,-189 445,-167 270,-167"/>
<text text-anchor="start" x="290" y="-175.2" font-family="Helvetica,sans-Serif" font-size="11.00">inserted_at</text>
<polygon fill="none" stroke="black" points="445,-167 445,-189 560,-189 560,-167 445,-167"/>
<text text-anchor="start" x="448" y="-175.2" font-family="Helvetica,sans-Serif" font-size="11.00">timestamp[22]</text>
<polygon fill="none" stroke="black" points="270,-145 270,-167 445,-167 445,-145 270,-145"/>
<text text-anchor="start" x="290" y="-153.2" font-family="Helvetica,sans-Serif" font-size="11.00">updated_at</text>
<polygon fill="none" stroke="black" points="445,-145 445,-167 560,-167 560,-145 445,-145"/>
<text text-anchor="start" x="448" y="-153.2" font-family="Helvetica,sans-Serif" font-size="11.00">timestamp[22]</text>
<polygon fill="#ffffff" stroke="transparent" points="270,-123 270,-145 445,-145 445,-123 270,-123"/>
<polygon fill="none" stroke="black" points="270,-123 270,-145 445,-145 445,-123 270,-123"/>
<text text-anchor="start" x="290" y="-131.2" font-family="Helvetica,sans-Serif" font-size="11.00">address_hash_hash</text>
<polygon fill="none" stroke="black" points="445,-123 445,-145 560,-145 560,-123 445,-123"/>
<text text-anchor="start" x="448" y="-131.2" font-family="Helvetica,sans-Serif" font-size="11.00">bytea[2147483647]</text>
<polygon fill="none" stroke="black" points="270,-101 270,-123 445,-123 445,-101 270,-101"/>
<text text-anchor="start" x="290" y="-109.2" font-family="Helvetica,sans-Serif" font-size="11.00">address_hash</text>
<polygon fill="none" stroke="black" points="445,-101 445,-123 560,-123 560,-101 445,-101"/>
<text text-anchor="start" x="448" y="-109.2" font-family="Helvetica,sans-Serif" font-size="11.00">bytea[2147483647]</text>
<polygon fill="none" stroke="black" points="270,-79 270,-101 445,-101 445,-79 270,-79"/>
<text text-anchor="start" x="290" y="-87.2" font-family="Helvetica,sans-Serif" font-size="11.00">name</text>
<polygon fill="none" stroke="black" points="445,-79 445,-101 560,-101 560,-79 445,-79"/>
<text text-anchor="start" x="448" y="-87.2" font-family="Helvetica,sans-Serif" font-size="11.00">bytea[2147483647]</text>
<polygon fill="none" stroke="black" points="270,-57 270,-79 445,-79 445,-57 270,-57"/>
<text text-anchor="start" x="290" y="-65.2" font-family="Helvetica,sans-Serif" font-size="11.00">user_created</text>
<polygon fill="none" stroke="black" points="445,-57 445,-79 560,-79 560,-57 445,-57"/>
<text text-anchor="start" x="448" y="-65.2" font-family="Helvetica,sans-Serif" font-size="11.00">bool[1]</text>
<polygon fill="#ffffff" stroke="transparent" points="270,-39 270,-57 560,-57 560,-39 270,-39"/>
<polygon fill="none" stroke="black" points="270,-39 270,-57 560,-57 560,-39 270,-39"/>
<polygon fill="#ffffff" stroke="transparent" points="271,-40 271,-56 371,-56 371,-40 271,-40"/>
<text text-anchor="start" x="273" y="-45.2" font-family="Helvetica,sans-Serif" font-size="11.00">&lt; 1</text>
<polygon fill="#ffffff" stroke="transparent" points="371,-40 371,-56 459,-56 459,-40 371,-40"/>
<text text-anchor="start" x="411" y="-45.2" font-family="Helvetica,sans-Serif" font-size="11.00"> &#160;</text>
<polygon fill="#ffffff" stroke="transparent" points="459,-40 459,-56 559,-56 559,-40 459,-40"/>
<text text-anchor="start" x="537" y="-45.2" font-family="Helvetica,sans-Serif" font-size="11.00">0 &gt;</text>
<polygon fill="black" stroke="black" points="371,-40 371,-56 371,-56 371,-40 371,-40"/>
<polygon fill="black" stroke="black" points="459,-40 459,-56 459,-56 459,-40 459,-40"/>
<polygon fill="none" stroke="black" stroke-width="2" points="269,-38 269,-278 561,-278 561,-38 269,-38"/>
</a>
</g>
</g>
<!-- account_identities -->
<g id="node2" class="node">
<title>account_identities</title>
<g id="a_node2"><a xlink:href="../../tables/account_identities.html" xlink:title="account_identities" target="_top">
<polygon fill="#ffffff" stroke="transparent" points="8,-131 8,-255 219,-255 219,-131 8,-131"/>
<polygon fill="#f5f5f5" stroke="transparent" points="8.5,-233 8.5,-255 219.5,-255 219.5,-233 8.5,-233"/>
<polygon fill="none" stroke="black" points="8.5,-233 8.5,-255 219.5,-255 219.5,-233 8.5,-233"/>
<text text-anchor="start" x="13.5" y="-242.2" font-family="Helvetica,sans-Serif" font-weight="bold" font-size="11.00">account_identities</text>
<text text-anchor="start" x="177.5" y="-241.2" font-family="Helvetica,sans-Serif" font-size="11.00">[table]</text>
<polygon fill="none" stroke="black" points="8.5,-211 8.5,-233 219.5,-233 219.5,-211 8.5,-211"/>
<image xlink:href="../../images/primaryKeys.png" width="11px" height="12px" preserveAspectRatio="xMinYMin meet" x="13.5" y="-228"/>
<text text-anchor="start" x="28.5" y="-219.2" font-family="Helvetica,sans-Serif" font-size="11.00">id</text>
<polygon fill="none" stroke="black" points="8.5,-189 8.5,-211 219.5,-211 219.5,-189 8.5,-189"/>
<image xlink:href="../../images/foreignKeys.png" width="11px" height="12px" preserveAspectRatio="xMinYMin meet" x="13.5" y="-206"/>
<text text-anchor="start" x="28.5" y="-197.2" font-family="Helvetica,sans-Serif" font-size="11.00">plan_id</text>
<polygon fill="#ffffff" stroke="transparent" points="8.5,-167 8.5,-189 219.5,-189 219.5,-167 8.5,-167"/>
<polygon fill="none" stroke="black" points="8.5,-167 8.5,-189 219.5,-189 219.5,-167 8.5,-167"/>
<text text-anchor="start" x="28.5" y="-175.2" font-family="Helvetica,sans-Serif" font-size="11.00">uid_hash</text>
<polygon fill="none" stroke="black" points="8.5,-149 8.5,-167 219.5,-167 219.5,-149 8.5,-149"/>
<text text-anchor="start" x="11.5" y="-155.2" font-family="Helvetica,sans-Serif" font-size="11.00">...</text>
<polygon fill="#ffffff" stroke="transparent" points="8.5,-131 8.5,-149 219.5,-149 219.5,-131 8.5,-131"/>
<polygon fill="none" stroke="black" points="8.5,-131 8.5,-149 219.5,-149 219.5,-131 8.5,-131"/>
<polygon fill="#ffffff" stroke="transparent" points="9.5,-132 9.5,-148 83.5,-148 83.5,-132 9.5,-132"/>
<text text-anchor="start" x="11.5" y="-137.2" font-family="Helvetica,sans-Serif" font-size="11.00">&lt; 1</text>
<polygon fill="#ffffff" stroke="transparent" points="83.5,-132 83.5,-148 145.5,-148 145.5,-132 83.5,-132"/>
<text text-anchor="start" x="110.5" y="-137.2" font-family="Helvetica,sans-Serif" font-size="11.00"> &#160;</text>
<polygon fill="#ffffff" stroke="transparent" points="145.5,-132 145.5,-148 218.5,-148 218.5,-132 145.5,-132"/>
<text text-anchor="start" x="196.5" y="-137.2" font-family="Helvetica,sans-Serif" font-size="11.00">5 &gt;</text>
<polygon fill="black" stroke="black" points="83.5,-132 83.5,-148 83.5,-148 83.5,-132 83.5,-132"/>
<polygon fill="black" stroke="black" points="145.5,-132 145.5,-148 145.5,-148 145.5,-132 145.5,-132"/>
</a>
</g>
</g>
<!-- account_custom_abis&#45;&gt;account_identities -->
<g id="edge1" class="edge">
<title>account_custom_abis:w&#45;&gt;account_identities:e</title>
<path fill="none" stroke="black" d="M254.28,-222C243.29,-222 236.16,-222 220.5,-222"/>
<polygon fill="black" stroke="black" points="261,-222 269,-225.6 265,-222 269,-222 269,-222 269,-222 265,-222 269,-218.4 261,-222 261,-222"/>
<ellipse fill="none" stroke="black" cx="257.8" cy="-222" rx="3.2" ry="3.2"/>
</g>
</g>
</svg>
