<?xml version="1.0" encoding="UTF-8" standalone="no"?>
<!DOCTYPE svg PUBLIC "-//W3C//DTD SVG 1.1//EN"
 "http://www.w3.org/Graphics/SVG/1.1/DTD/svg11.dtd">
<!-- Generated by graphviz version 9.0.0 (20230911.1827)
 -->
<!-- Title: twoDegreesRelationshipsDiagram Pages: 1 -->
<svg width="745pt" height="840pt"
 viewBox="0.00 0.00 745.00 840.00" xmlns="http://www.w3.org/2000/svg" xmlns:xlink="http://www.w3.org/1999/xlink">
<g id="graph0" class="graph" transform="scale(1 1) rotate(0) translate(4 836)">
<title>twoDegreesRelationshipsDiagram</title>
<polygon fill="#ffffff" stroke="none" points="-4,4 -4,-836 741,-836 741,4 -4,4"/>
<text text-anchor="middle" x="71.38" y="-5.55" font-family="Helvetica,sans-Serif" font-size="11.00">Generated by SchemaSpy</text>
<!-- account_api_keys -->
<g id="node1" class="node">
<title>account_api_keys</title>
<g id="a_node1"><a xlink:href="../../tables/account_api_keys.html" xlink:title="account_api_keys" target="_top">
<polygon fill="#ffffff" stroke="none" points="505.5,-770 505.5,-828 647.5,-828 647.5,-770 505.5,-770"/>
<polygon fill="#f5f5f5" stroke="none" points="505.5,-806 505.5,-828 647.5,-828 647.5,-806 505.5,-806"/>
<polygon fill="none" stroke="black" points="505.5,-806 505.5,-828 647.5,-828 647.5,-806 505.5,-806"/>
<text text-anchor="start" x="510.5" y="-813.55" font-family="Helvetica,sans-Serif" font-weight="bold" font-size="11.00">account_api_keys</text>
<text text-anchor="start" x="613.5" y="-812.55" font-family="Helvetica,sans-Serif" font-size="11.00">[table]</text>
<polygon fill="none" stroke="black" points="505.5,-788 505.5,-806 647.5,-806 647.5,-788 505.5,-788"/>
<text text-anchor="start" x="508.5" y="-792.55" font-family="Helvetica,sans-Serif" font-size="11.00">...</text>
<polygon fill="#ffffff" stroke="none" points="505.5,-770 505.5,-788 574.5,-788 574.5,-770 505.5,-770"/>
<polygon fill="none" stroke="black" points="505.5,-770 505.5,-788 574.5,-788 574.5,-770 505.5,-770"/>
<text text-anchor="start" x="508.5" y="-774.55" font-family="Helvetica,sans-Serif" font-size="11.00">&lt; 1</text>
<polygon fill="#ffffff" stroke="none" points="574.5,-770 574.5,-788 610.5,-788 610.5,-770 574.5,-770"/>
<polygon fill="none" stroke="black" points="574.5,-770 574.5,-788 610.5,-788 610.5,-770 574.5,-770"/>
<text text-anchor="start" x="601.5" y="-774.55" font-family="Helvetica,sans-Serif" font-size="11.00"> &#160;</text>
<polygon fill="#ffffff" stroke="none" points="610.5,-770 610.5,-788 647.5,-788 647.5,-770 610.5,-770"/>
<polygon fill="none" stroke="black" points="610.5,-770 610.5,-788 647.5,-788 647.5,-770 610.5,-770"/>
<text text-anchor="start" x="638.5" y="-774.55" font-family="Helvetica,sans-Serif" font-size="11.00"> &#160;</text>
</a>
</g>
</g>
<!-- account_identities -->
<g id="node2" class="node">
<title>account_identities</title>
<g id="a_node2"><a xlink:href="../../tables/account_identities.html" xlink:title="account_identities" target="_top">
<polygon fill="#ffffff" stroke="none" points="204,-326 204,-450 375,-450 375,-326 204,-326"/>
<polygon fill="#f5f5f5" stroke="none" points="204,-428 204,-450 375,-450 375,-428 204,-428"/>
<polygon fill="none" stroke="black" points="204,-428 204,-450 375,-450 375,-428 204,-428"/>
<text text-anchor="start" x="209" y="-435.55" font-family="Helvetica,sans-Serif" font-weight="bold" font-size="11.00">account_identities</text>
<text text-anchor="start" x="340.75" y="-434.55" font-family="Helvetica,sans-Serif" font-size="11.00">[table]</text>
<polygon fill="none" stroke="black" points="204,-406 204,-428 375,-428 375,-406 204,-406"/>
<image xlink:href="../../images/primaryKeys.png" width="11px" height="12px" preserveAspectRatio="xMinYMin meet" x="209" y="-423"/>
<text text-anchor="start" x="224" y="-412.55" font-family="Helvetica,sans-Serif" font-size="11.00">id</text>
<polygon fill="none" stroke="black" points="204,-384 204,-406 375,-406 375,-384 204,-384"/>
<image xlink:href="../../images/foreignKeys.png" width="11px" height="12px" preserveAspectRatio="xMinYMin meet" x="209" y="-401"/>
<text text-anchor="start" x="224" y="-390.55" font-family="Helvetica,sans-Serif" font-size="11.00">plan_id</text>
<polygon fill="#ffffff" stroke="none" points="204,-362 204,-384 375,-384 375,-362 204,-362"/>
<polygon fill="none" stroke="black" points="204,-362 204,-384 375,-384 375,-362 204,-362"/>
<text text-anchor="start" x="224" y="-368.55" font-family="Helvetica,sans-Serif" font-size="11.00">uid_hash</text>
<polygon fill="none" stroke="black" points="204,-344 204,-362 375,-362 375,-344 204,-344"/>
<text text-anchor="start" x="207" y="-348.55" font-family="Helvetica,sans-Serif" font-size="11.00">...</text>
<polygon fill="#ffffff" stroke="none" points="204,-326 204,-344 283,-344 283,-326 204,-326"/>
<polygon fill="none" stroke="black" points="204,-326 204,-344 283,-344 283,-326 204,-326"/>
<text text-anchor="start" x="207" y="-330.55" font-family="Helvetica,sans-Serif" font-size="11.00">&lt; 1</text>
<polygon fill="#ffffff" stroke="none" points="283,-326 283,-344 324,-344 324,-326 283,-326"/>
<polygon fill="none" stroke="black" points="283,-326 283,-344 324,-344 324,-326 283,-326"/>
<text text-anchor="start" x="315" y="-330.55" font-family="Helvetica,sans-Serif" font-size="11.00"> &#160;</text>
<polygon fill="#ffffff" stroke="none" points="324,-326 324,-344 375,-344 375,-326 324,-326"/>
<polygon fill="none" stroke="black" points="324,-326 324,-344 375,-344 375,-326 324,-326"/>
<text text-anchor="start" x="356.25" y="-330.55" font-family="Helvetica,sans-Serif" font-size="11.00">6 &gt;</text>
</a>
</g>
</g>
<!-- account_api_keys&#45;&gt;account_identities -->
<g id="edge1" class="edge">
<title>account_api_keys:w&#45;&gt;account_identities:e</title>
<path fill="none" stroke="black" d="M489.07,-796.79C456.56,-795.73 438.32,-789.68 416,-760 369.89,-698.68 453.23,-417 376.5,-417"/>
<polygon fill="black" stroke="black" points="496.17,-796.89 504.12,-800.6 500.5,-796.95 503.83,-796.99 503.83,-796.99 503.83,-796.99 500.5,-796.95 504.21,-793.4 496.17,-796.89"/>
<ellipse fill="none" stroke="black" cx="491.25" cy="-796.82" rx="3.2" ry="3.2"/>
</g>
<!-- account_api_plans -->
<g id="node4" class="node">
<title>account_api_plans</title>
<g id="a_node4"><a xlink:href="../../tables/account_api_plans.html" xlink:title="account_api_plans" target="_top">
<polygon fill="#ffffff" stroke="none" points="8,-368 8,-426 155,-426 155,-368 8,-368"/>
<polygon fill="#f5f5f5" stroke="none" points="8,-404 8,-426 155,-426 155,-404 8,-404"/>
<polygon fill="none" stroke="black" points="8,-404 8,-426 155,-426 155,-404 8,-404"/>
<text text-anchor="start" x="13" y="-411.55" font-family="Helvetica,sans-Serif" font-weight="bold" font-size="11.00">account_api_plans</text>
<text text-anchor="start" x="121" y="-410.55" font-family="Helvetica,sans-Serif" font-size="11.00">[table]</text>
<polygon fill="none" stroke="black" points="8,-386 8,-404 155,-404 155,-386 8,-386"/>
<text text-anchor="start" x="11" y="-390.55" font-family="Helvetica,sans-Serif" font-size="11.00">...</text>
<polygon fill="#ffffff" stroke="none" points="8,-368 8,-386 71,-386 71,-368 8,-368"/>
<polygon fill="none" stroke="black" points="8,-368 8,-386 71,-386 71,-368 8,-368"/>
<text text-anchor="start" x="11" y="-372.55" font-family="Helvetica,sans-Serif" font-size="11.00"> &#160;</text>
<polygon fill="#ffffff" stroke="none" points="71,-368 71,-386 108,-386 108,-368 71,-368"/>
<polygon fill="none" stroke="black" points="71,-368 71,-386 108,-386 108,-368 71,-368"/>
<text text-anchor="start" x="99" y="-372.55" font-family="Helvetica,sans-Serif" font-size="11.00"> &#160;</text>
<polygon fill="#ffffff" stroke="none" points="108,-368 108,-386 155,-386 155,-368 108,-368"/>
<polygon fill="none" stroke="black" points="108,-368 108,-386 155,-386 155,-368 108,-368"/>
<text text-anchor="start" x="136.25" y="-372.55" font-family="Helvetica,sans-Serif" font-size="11.00">1 &gt;</text>
</a>
</g>
</g>
<!-- account_identities&#45;&gt;account_api_plans -->
<g id="edge3" class="edge">
<title>account_identities:w&#45;&gt;account_api_plans:e</title>
<path fill="none" stroke="black" d="M186.89,-395C177.36,-395 170.56,-395 156.5,-395"/>
<polygon fill="black" stroke="black" points="194.17,-395 202.17,-398.6 198.5,-395 201.83,-395 201.83,-395 201.83,-395 198.5,-395 202.17,-391.4 194.17,-395"/>
<ellipse fill="none" stroke="black" cx="189.25" cy="-395" rx="3.2" ry="3.2"/>
</g>
<!-- account_custom_abis -->
<g id="node3" class="node">
<title>account_custom_abis</title>
<g id="a_node3"><a xlink:href="../../tables/account_custom_abis.html" xlink:title="account_custom_abis" target="_top">
<polygon fill="#ffffff" stroke="none" points="494,-691 494,-749 659,-749 659,-691 494,-691"/>
<polygon fill="#f5f5f5" stroke="none" points="494,-727 494,-749 659,-749 659,-727 494,-727"/>
<polygon fill="none" stroke="black" points="494,-727 494,-749 659,-749 659,-727 494,-727"/>
<text text-anchor="start" x="499" y="-734.55" font-family="Helvetica,sans-Serif" font-weight="bold" font-size="11.00">account_custom_abis</text>
<text text-anchor="start" x="625" y="-733.55" font-family="Helvetica,sans-Serif" font-size="11.00">[table]</text>
<polygon fill="none" stroke="black" points="494,-709 494,-727 659,-727 659,-709 494,-709"/>
<text text-anchor="start" x="497" y="-713.55" font-family="Helvetica,sans-Serif" font-size="11.00">...</text>
<polygon fill="#ffffff" stroke="none" points="494,-691 494,-709 575,-709 575,-691 494,-691"/>
<polygon fill="none" stroke="black" points="494,-691 494,-709 575,-709 575,-691 494,-691"/>
<text text-anchor="start" x="497" y="-695.55" font-family="Helvetica,sans-Serif" font-size="11.00">&lt; 1</text>
<polygon fill="#ffffff" stroke="none" points="575,-691 575,-709 617,-709 617,-691 575,-691"/>
<polygon fill="none" stroke="black" points="575,-691 575,-709 617,-709 617,-691 575,-691"/>
<text text-anchor="start" x="608" y="-695.55" font-family="Helvetica,sans-Serif" font-size="11.00"> &#160;</text>
<polygon fill="#ffffff" stroke="none" points="617,-691 617,-709 659,-709 659,-691 617,-691"/>
<polygon fill="none" stroke="black" points="617,-691 617,-709 659,-709 659,-691 617,-691"/>
<text text-anchor="start" x="650" y="-695.55" font-family="Helvetica,sans-Serif" font-size="11.00"> &#160;</text>
</a>
</g>
</g>
<!-- account_custom_abis&#45;&gt;account_identities -->
<g id="edge2" class="edge">
<title>account_custom_abis:w&#45;&gt;account_identities:e</title>
<path fill="none" stroke="black" d="M477.01,-717.51C449.75,-715.52 435.06,-706.9 416,-681 380.84,-633.22 435.82,-417 376.5,-417"/>
<polygon fill="black" stroke="black" points="484.17,-717.74 492.05,-721.59 488.5,-717.87 491.83,-717.98 491.83,-717.98 491.83,-717.98 488.5,-717.87 492.28,-714.39 484.17,-717.74"/>
<ellipse fill="none" stroke="black" cx="479.25" cy="-717.58" rx="3.2" ry="3.2"/>
</g>
<!-- account_public_tags_requests -->
<g id="node5" class="node">
<title>account_public_tags_requests</title>
<g id="a_node5"><a xlink:href="../../tables/account_public_tags_requests.html" xlink:title="account_public_tags_requests" target="_top">
<polygon fill="#ffffff" stroke="none" points="424,-274 424,-670 729,-670 729,-274 424,-274"/>
<polygon fill="#f5f5f5" stroke="none" points="426,-646 426,-668 727,-668 727,-646 426,-646"/>
<polygon fill="none" stroke="black" points="426,-646 426,-668 727,-668 727,-646 426,-646"/>
<text text-anchor="start" x="431" y="-653.55" font-family="Helvetica,sans-Serif" font-weight="bold" font-size="11.00">account_public_tags_requests</text>
<text text-anchor="start" x="692.75" y="-652.55" font-family="Helvetica,sans-Serif" font-size="11.00">[table]</text>
<polygon fill="none" stroke="black" points="426,-624 426,-646 623,-646 623,-624 426,-624"/>
<image xlink:href="../../images/primaryKeys.png" width="11px" height="12px" preserveAspectRatio="xMinYMin meet" x="431" y="-641"/>
<text text-anchor="start" x="446" y="-630.55" font-family="Helvetica,sans-Serif" font-size="11.00">id</text>
<polygon fill="none" stroke="black" points="623,-624 623,-646 727,-646 727,-624 623,-624"/>
<text text-anchor="start" x="626" y="-630.55" font-family="Helvetica,sans-Serif" font-size="11.00">bigserial[19]</text>
<polygon fill="none" stroke="black" points="426,-602 426,-624 623,-624 623,-602 426,-602"/>
<image xlink:href="../../images/foreignKeys.png" width="11px" height="12px" preserveAspectRatio="xMinYMin meet" x="431" y="-619"/>
<text text-anchor="start" x="446" y="-608.55" font-family="Helvetica,sans-Serif" font-size="11.00">identity_id</text>
<polygon fill="none" stroke="black" points="623,-602 623,-624 727,-624 727,-602 623,-602"/>
<text text-anchor="start" x="626" y="-608.55" font-family="Helvetica,sans-Serif" font-size="11.00">int8[19]</text>
<polygon fill="none" stroke="black" points="426,-580 426,-602 623,-602 623,-580 426,-580"/>
<text text-anchor="start" x="446" y="-586.55" font-family="Helvetica,sans-Serif" font-size="11.00">company</text>
<polygon fill="none" stroke="black" points="623,-580 623,-602 727,-602 727,-580 623,-580"/>
<text text-anchor="start" x="626" y="-586.55" font-family="Helvetica,sans-Serif" font-size="11.00">varchar[255]</text>
<polygon fill="none" stroke="black" points="426,-558 426,-580 623,-580 623,-558 426,-558"/>
<text text-anchor="start" x="446" y="-564.55" font-family="Helvetica,sans-Serif" font-size="11.00">website</text>
<polygon fill="none" stroke="black" points="623,-558 623,-580 727,-580 727,-558 623,-558"/>
<text text-anchor="start" x="626" y="-564.55" font-family="Helvetica,sans-Serif" font-size="11.00">varchar[255]</text>
<polygon fill="none" stroke="black" points="426,-536 426,-558 623,-558 623,-536 426,-536"/>
<text text-anchor="start" x="446" y="-542.55" font-family="Helvetica,sans-Serif" font-size="11.00">tags</text>
<polygon fill="none" stroke="black" points="623,-536 623,-558 727,-558 727,-536 623,-536"/>
<text text-anchor="start" x="626" y="-542.55" font-family="Helvetica,sans-Serif" font-size="11.00">varchar[255]</text>
<polygon fill="none" stroke="black" points="426,-514 426,-536 623,-536 623,-514 426,-514"/>
<text text-anchor="start" x="446" y="-520.55" font-family="Helvetica,sans-Serif" font-size="11.00">description</text>
<polygon fill="none" stroke="black" points="623,-514 623,-536 727,-536 727,-514 623,-514"/>
<text text-anchor="start" x="626" y="-520.55" font-family="Helvetica,sans-Serif" font-size="11.00">text[2147483647]</text>
<polygon fill="none" stroke="black" points="426,-492 426,-514 623,-514 623,-492 426,-492"/>
<text text-anchor="start" x="446" y="-498.55" font-family="Helvetica,sans-Serif" font-size="11.00">additional_comment</text>
<polygon fill="none" stroke="black" points="623,-492 623,-514 727,-514 727,-492 623,-492"/>
<text text-anchor="start" x="626" y="-498.55" font-family="Helvetica,sans-Serif" font-size="11.00">varchar[255]</text>
<polygon fill="none" stroke="black" points="426,-470 426,-492 623,-492 623,-470 426,-470"/>
<text text-anchor="start" x="446" y="-476.55" font-family="Helvetica,sans-Serif" font-size="11.00">request_type</text>
<polygon fill="none" stroke="black" points="623,-470 623,-492 727,-492 727,-470 623,-470"/>
<text text-anchor="start" x="626" y="-476.55" font-family="Helvetica,sans-Serif" font-size="11.00">varchar[255]</text>
<polygon fill="none" stroke="black" points="426,-448 426,-470 623,-470 623,-448 426,-448"/>
<text text-anchor="start" x="446" y="-454.55" font-family="Helvetica,sans-Serif" font-size="11.00">is_owner</text>
<polygon fill="none" stroke="black" points="623,-448 623,-470 727,-470 727,-448 623,-448"/>
<text text-anchor="start" x="626" y="-454.55" font-family="Helvetica,sans-Serif" font-size="11.00">bool[1]</text>
<polygon fill="none" stroke="black" points="426,-426 426,-448 623,-448 623,-426 426,-426"/>
<text text-anchor="start" x="446" y="-432.55" font-family="Helvetica,sans-Serif" font-size="11.00">remove_reason</text>
<polygon fill="none" stroke="black" points="623,-426 623,-448 727,-448 727,-426 623,-426"/>
<text text-anchor="start" x="626" y="-432.55" font-family="Helvetica,sans-Serif" font-size="11.00">text[2147483647]</text>
<polygon fill="none" stroke="black" points="426,-404 426,-426 623,-426 623,-404 426,-404"/>
<text text-anchor="start" x="446" y="-410.55" font-family="Helvetica,sans-Serif" font-size="11.00">request_id</text>
<polygon fill="none" stroke="black" points="623,-404 623,-426 727,-426 727,-404 623,-404"/>
<text text-anchor="start" x="626" y="-410.55" font-family="Helvetica,sans-Serif" font-size="11.00">varchar[255]</text>
<polygon fill="none" stroke="black" points="426,-382 426,-404 623,-404 623,-382 426,-382"/>
<text text-anchor="start" x="446" y="-388.55" font-family="Helvetica,sans-Serif" font-size="11.00">inserted_at</text>
<polygon fill="none" stroke="black" points="623,-382 623,-404 727,-404 727,-382 623,-382"/>
<text text-anchor="start" x="626" y="-388.55" font-family="Helvetica,sans-Serif" font-size="11.00">timestamp[22]</text>
<polygon fill="none" stroke="black" points="426,-360 426,-382 623,-382 623,-360 426,-360"/>
<text text-anchor="start" x="446" y="-366.55" font-family="Helvetica,sans-Serif" font-size="11.00">updated_at</text>
<polygon fill="none" stroke="black" points="623,-360 623,-382 727,-382 727,-360 623,-360"/>
<text text-anchor="start" x="626" y="-366.55" font-family="Helvetica,sans-Serif" font-size="11.00">timestamp[22]</text>
<polygon fill="none" stroke="black" points="426,-338 426,-360 623,-360 623,-338 426,-338"/>
<text text-anchor="start" x="446" y="-344.55" font-family="Helvetica,sans-Serif" font-size="11.00">addresses</text>
<polygon fill="none" stroke="black" points="623,-338 623,-360 727,-360 727,-338 623,-338"/>
<text text-anchor="start" x="625.88" y="-344.55" font-family="Helvetica,sans-Serif" font-size="11.00">_bytea[2147483647]</text>
<polygon fill="none" stroke="black" points="426,-316 426,-338 623,-338 623,-316 426,-316"/>
<text text-anchor="start" x="446" y="-322.55" font-family="Helvetica,sans-Serif" font-size="11.00">email</text>
<polygon fill="none" stroke="black" points="623,-316 623,-338 727,-338 727,-316 623,-316"/>
<text text-anchor="start" x="626" y="-322.55" font-family="Helvetica,sans-Serif" font-size="11.00">bytea[2147483647]</text>
<polygon fill="none" stroke="black" points="426,-294 426,-316 623,-316 623,-294 426,-294"/>
<text text-anchor="start" x="446" y="-300.55" font-family="Helvetica,sans-Serif" font-size="11.00">full_name</text>
<polygon fill="none" stroke="black" points="623,-294 623,-316 727,-316 727,-294 623,-294"/>
<text text-anchor="start" x="626" y="-300.55" font-family="Helvetica,sans-Serif" font-size="11.00">bytea[2147483647]</text>
<polygon fill="#ffffff" stroke="none" points="426,-276 426,-294 529,-294 529,-276 426,-276"/>
<polygon fill="none" stroke="black" points="426,-276 426,-294 529,-294 529,-276 426,-276"/>
<text text-anchor="start" x="429" y="-280.55" font-family="Helvetica,sans-Serif" font-size="11.00">&lt; 1</text>
<polygon fill="#ffffff" stroke="none" points="529,-276 529,-294 623,-294 623,-276 529,-276"/>
<polygon fill="none" stroke="black" points="529,-276 529,-294 623,-294 623,-276 529,-276"/>
<text text-anchor="start" x="614" y="-280.55" font-family="Helvetica,sans-Serif" font-size="11.00"> &#160;</text>
<polygon fill="#ffffff" stroke="none" points="623,-276 623,-294 727,-294 727,-276 623,-276"/>
<polygon fill="none" stroke="black" points="623,-276 623,-294 727,-294 727,-276 623,-276"/>
<text text-anchor="start" x="708.25" y="-280.55" font-family="Helvetica,sans-Serif" font-size="11.00">0 &gt;</text>
<polygon fill="none" stroke="black" stroke-width="2" points="425,-275 425,-669 728,-669 728,-275 425,-275"/>
</a>
</g>
</g>
<!-- account_public_tags_requests&#45;&gt;account_identities -->
<g id="edge4" class="edge">
<title>account_public_tags_requests:w&#45;&gt;account_identities:e</title>
<path fill="none" stroke="black" d="M409.07,-610.38C351.74,-587.12 460.05,-417 376.5,-417"/>
<polygon fill="black" stroke="black" points="416.28,-611.6 423.57,-616.49 420.56,-612.33 423.84,-612.89 423.84,-612.89 423.84,-612.89 420.56,-612.33 424.77,-609.39 416.28,-611.6"/>
<ellipse fill="none" stroke="black" cx="411.43" cy="-610.78" rx="3.2" ry="3.2"/>
</g>
<!-- account_tag_addresses -->
<g id="node6" class="node">
<title>account_tag_addresses</title>
<g id="a_node6"><a xlink:href="../../tables/account_tag_addresses.html" xlink:title="account_tag_addresses" target="_top">
<polygon fill="#ffffff" stroke="none" points="489,-195 489,-253 664,-253 664,-195 489,-195"/>
<polygon fill="#f5f5f5" stroke="none" points="489,-231 489,-253 664,-253 664,-231 489,-231"/>
<polygon fill="none" stroke="black" points="489,-231 489,-253 664,-253 664,-231 489,-231"/>
<text text-anchor="start" x="494" y="-238.55" font-family="Helvetica,sans-Serif" font-weight="bold" font-size="11.00">account_tag_addresses</text>
<text text-anchor="start" x="630" y="-237.55" font-family="Helvetica,sans-Serif" font-size="11.00">[table]</text>
<polygon fill="none" stroke="black" points="489,-213 489,-231 664,-231 664,-213 489,-213"/>
<text text-anchor="start" x="492" y="-217.55" font-family="Helvetica,sans-Serif" font-size="11.00">...</text>
<polygon fill="#ffffff" stroke="none" points="489,-195 489,-213 575,-213 575,-195 489,-195"/>
<polygon fill="none" stroke="black" points="489,-195 489,-213 575,-213 575,-195 489,-195"/>
<text text-anchor="start" x="492" y="-199.55" font-family="Helvetica,sans-Serif" font-size="11.00">&lt; 1</text>
<polygon fill="#ffffff" stroke="none" points="575,-195 575,-213 619,-213 619,-195 575,-195"/>
<polygon fill="none" stroke="black" points="575,-195 575,-213 619,-213 619,-195 575,-195"/>
<text text-anchor="start" x="610" y="-199.55" font-family="Helvetica,sans-Serif" font-size="11.00"> &#160;</text>
<polygon fill="#ffffff" stroke="none" points="619,-195 619,-213 664,-213 664,-195 619,-195"/>
<polygon fill="none" stroke="black" points="619,-195 619,-213 664,-213 664,-195 619,-195"/>
<text text-anchor="start" x="655" y="-199.55" font-family="Helvetica,sans-Serif" font-size="11.00"> &#160;</text>
</a>
</g>
</g>
<!-- account_tag_addresses&#45;&gt;account_identities -->
<g id="edge5" class="edge">
<title>account_tag_addresses:w&#45;&gt;account_identities:e</title>
<path fill="none" stroke="black" d="M471.88,-222.94C446.52,-226.34 434.72,-239.17 416,-264 373.71,-320.07 446.73,-417 376.5,-417"/>
<polygon fill="black" stroke="black" points="479.18,-222.5 487.38,-225.61 483.51,-222.24 486.83,-222.04 486.83,-222.04 486.83,-222.04 483.51,-222.24 486.95,-218.43 479.18,-222.5"/>
<ellipse fill="none" stroke="black" cx="474.27" cy="-222.79" rx="3.2" ry="3.2"/>
</g>
<!-- account_tag_transactions -->
<g id="node7" class="node">
<title>account_tag_transactions</title>
<g id="a_node7"><a xlink:href="../../tables/account_tag_transactions.html" xlink:title="account_tag_transactions" target="_top">
<polygon fill="#ffffff" stroke="none" points="483,-116 483,-174 670,-174 670,-116 483,-116"/>
<polygon fill="#f5f5f5" stroke="none" points="483,-152 483,-174 670,-174 670,-152 483,-152"/>
<polygon fill="none" stroke="black" points="483,-152 483,-174 670,-174 670,-152 483,-152"/>
<text text-anchor="start" x="488" y="-159.55" font-family="Helvetica,sans-Serif" font-weight="bold" font-size="11.00">account_tag_transactions</text>
<text text-anchor="start" x="636" y="-158.55" font-family="Helvetica,sans-Serif" font-size="11.00">[table]</text>
<polygon fill="none" stroke="black" points="483,-134 483,-152 670,-152 670,-134 483,-134"/>
<text text-anchor="start" x="486" y="-138.55" font-family="Helvetica,sans-Serif" font-size="11.00">...</text>
<polygon fill="#ffffff" stroke="none" points="483,-116 483,-134 575,-134 575,-116 483,-116"/>
<polygon fill="none" stroke="black" points="483,-116 483,-134 575,-134 575,-116 483,-116"/>
<text text-anchor="start" x="486" y="-120.55" font-family="Helvetica,sans-Serif" font-size="11.00">&lt; 1</text>
<polygon fill="#ffffff" stroke="none" points="575,-116 575,-134 622,-134 622,-116 575,-116"/>
<polygon fill="none" stroke="black" points="575,-116 575,-134 622,-134 622,-116 575,-116"/>
<text text-anchor="start" x="613" y="-120.55" font-family="Helvetica,sans-Serif" font-size="11.00"> &#160;</text>
<polygon fill="#ffffff" stroke="none" points="622,-116 622,-134 670,-134 670,-116 622,-116"/>
<polygon fill="none" stroke="black" points="622,-116 622,-134 670,-134 670,-116 622,-116"/>
<text text-anchor="start" x="661" y="-120.55" font-family="Helvetica,sans-Serif" font-size="11.00"> &#160;</text>
</a>
</g>
</g>
<!-- account_tag_transactions&#45;&gt;account_identities -->
<g id="edge6" class="edge">
<title>account_tag_transactions:w&#45;&gt;account_identities:e</title>
<path fill="none" stroke="black" d="M465.86,-144.13C442.74,-147.86 431.88,-161.01 416,-185 387.14,-228.61 428.8,-417 376.5,-417"/>
<polygon fill="black" stroke="black" points="473.19,-143.6 481.42,-146.61 477.51,-143.29 480.83,-143.05 480.83,-143.05 480.83,-143.05 477.51,-143.29 480.91,-139.43 473.19,-143.6"/>
<ellipse fill="none" stroke="black" cx="468.28" cy="-143.95" rx="3.2" ry="3.2"/>
</g>
<!-- account_watchlists -->
<g id="node8" class="node">
<title>account_watchlists</title>
<g id="a_node8"><a xlink:href="../../tables/account_watchlists.html" xlink:title="account_watchlists" target="_top">
<polygon fill="#ffffff" stroke="none" points="502,-37 502,-95 651,-95 651,-37 502,-37"/>
<polygon fill="#f5f5f5" stroke="none" points="502,-73 502,-95 651,-95 651,-73 502,-73"/>
<polygon fill="none" stroke="black" points="502,-73 502,-95 651,-95 651,-73 502,-73"/>
<text text-anchor="start" x="507" y="-80.55" font-family="Helvetica,sans-Serif" font-weight="bold" font-size="11.00">account_watchlists</text>
<text text-anchor="start" x="617" y="-79.55" font-family="Helvetica,sans-Serif" font-size="11.00">[table]</text>
<polygon fill="none" stroke="black" points="502,-55 502,-73 651,-73 651,-55 502,-55"/>
<text text-anchor="start" x="505" y="-59.55" font-family="Helvetica,sans-Serif" font-size="11.00">...</text>
<polygon fill="#ffffff" stroke="none" points="502,-37 502,-55 570,-55 570,-37 502,-37"/>
<polygon fill="none" stroke="black" points="502,-37 502,-55 570,-55 570,-37 502,-37"/>
<text text-anchor="start" x="505" y="-41.55" font-family="Helvetica,sans-Serif" font-size="11.00">&lt; 1</text>
<polygon fill="#ffffff" stroke="none" points="570,-37 570,-55 606,-55 606,-37 570,-37"/>
<polygon fill="none" stroke="black" points="570,-37 570,-55 606,-55 606,-37 570,-37"/>
<text text-anchor="start" x="597" y="-41.55" font-family="Helvetica,sans-Serif" font-size="11.00"> &#160;</text>
<polygon fill="#ffffff" stroke="none" points="606,-37 606,-55 651,-55 651,-37 606,-37"/>
<polygon fill="none" stroke="black" points="606,-37 606,-55 651,-55 651,-37 606,-37"/>
<text text-anchor="start" x="632.25" y="-41.55" font-family="Helvetica,sans-Serif" font-size="11.00">1 &gt;</text>
</a>
</g>
</g>
<!-- account_watchlists&#45;&gt;account_identities -->
<g id="edge7" class="edge">
<title>account_watchlists:w&#45;&gt;account_identities:e</title>
<path fill="none" stroke="black" d="M484.97,-64.46C453.6,-66.54 437.07,-76.36 416,-106 375.64,-162.78 446.17,-417 376.5,-417"/>
<polygon fill="black" stroke="black" points="492.17,-64.25 500.27,-67.61 496.5,-64.12 499.83,-64.02 499.83,-64.02 499.83,-64.02 496.5,-64.12 500.06,-60.41 492.17,-64.25"/>
<ellipse fill="none" stroke="black" cx="487.25" cy="-64.39" rx="3.2" ry="3.2"/>
</g>
</g>
</svg>
