<?xml version="1.0" encoding="UTF-8" standalone="no"?>
<!DOCTYPE svg PUBLIC "-//W3C//DTD SVG 1.1//EN"
 "http://www.w3.org/Graphics/SVG/1.1/DTD/svg11.dtd">
<!-- Generated by graphviz version 2.43.0 (0)
 -->
<!-- Title: twoDegreesRelationshipsDiagram Pages: 1 -->
<svg width="1071pt" height="519pt"
 viewBox="0.00 0.00 1071.00 519.00" xmlns="http://www.w3.org/2000/svg" xmlns:xlink="http://www.w3.org/1999/xlink">
<g id="graph0" class="graph" transform="scale(1 1) rotate(0) translate(4 515)">
<title>twoDegreesRelationshipsDiagram</title>
<polygon fill="#ffffff" stroke="transparent" points="-4,4 -4,-515 1067,-515 1067,4 -4,4"/>
<text text-anchor="middle" x="79.5" y="-7.2" font-family="Helvetica,sans-Serif" font-size="11.00">Generated by SchemaSpy</text>
<!-- account_api_keys -->
<g id="node1" class="node">
<title>account_api_keys</title>
<g id="a_node1"><a xlink:href="../../tables/account_api_keys.html" xlink:title="account_api_keys" target="_top">
<polygon fill="#ffffff" stroke="transparent" points="534.5,-449 534.5,-507 708.5,-507 708.5,-449 534.5,-449"/>
<polygon fill="#f5f5f5" stroke="transparent" points="534.5,-485 534.5,-507 708.5,-507 708.5,-485 534.5,-485"/>
<polygon fill="none" stroke="black" points="534.5,-485 534.5,-507 708.5,-507 708.5,-485 534.5,-485"/>
<text text-anchor="start" x="539.5" y="-494.2" font-family="Helvetica,sans-Serif" font-weight="bold" font-size="11.00">account_api_keys</text>
<text text-anchor="start" x="666.5" y="-493.2" font-family="Helvetica,sans-Serif" font-size="11.00">[table]</text>
<polygon fill="none" stroke="black" points="534.5,-467 534.5,-485 708.5,-485 708.5,-467 534.5,-467"/>
<text text-anchor="start" x="537.5" y="-473.2" font-family="Helvetica,sans-Serif" font-size="11.00">...</text>
<polygon fill="#ffffff" stroke="transparent" points="534.5,-449 534.5,-467 708.5,-467 708.5,-449 534.5,-449"/>
<polygon fill="none" stroke="black" points="534.5,-449 534.5,-467 708.5,-467 708.5,-449 534.5,-449"/>
<polygon fill="#ffffff" stroke="transparent" points="535.5,-450 535.5,-466 601.5,-466 601.5,-450 535.5,-450"/>
<text text-anchor="start" x="537.5" y="-455.2" font-family="Helvetica,sans-Serif" font-size="11.00">&lt; 1</text>
<polygon fill="#ffffff" stroke="transparent" points="601.5,-450 601.5,-466 654.5,-466 654.5,-450 601.5,-450"/>
<text text-anchor="start" x="624" y="-455.2" font-family="Helvetica,sans-Serif" font-size="11.00"> &#160;</text>
<polygon fill="#ffffff" stroke="transparent" points="654.5,-450 654.5,-466 707.5,-466 707.5,-450 654.5,-450"/>
<text text-anchor="start" x="697.5" y="-455.2" font-family="Helvetica,sans-Serif" font-size="11.00"> &#160;</text>
<polygon fill="black" stroke="black" points="601.5,-450 601.5,-466 601.5,-466 601.5,-450 601.5,-450"/>
<polygon fill="black" stroke="black" points="654.5,-450 654.5,-466 654.5,-466 654.5,-450 654.5,-450"/>
</a>
</g>
</g>
<!-- account_identities -->
<g id="node2" class="node">
<title>account_identities</title>
<g id="a_node2"><a xlink:href="../../tables/account_identities.html" xlink:title="account_identities" target="_top">
<polygon fill="#ffffff" stroke="transparent" points="236,-227 236,-351 447,-351 447,-227 236,-227"/>
<polygon fill="#f5f5f5" stroke="transparent" points="236.5,-329 236.5,-351 447.5,-351 447.5,-329 236.5,-329"/>
<polygon fill="none" stroke="black" points="236.5,-329 236.5,-351 447.5,-351 447.5,-329 236.5,-329"/>
<text text-anchor="start" x="241.5" y="-338.2" font-family="Helvetica,sans-Serif" font-weight="bold" font-size="11.00">account_identities</text>
<text text-anchor="start" x="405.5" y="-337.2" font-family="Helvetica,sans-Serif" font-size="11.00">[table]</text>
<polygon fill="none" stroke="black" points="236.5,-307 236.5,-329 447.5,-329 447.5,-307 236.5,-307"/>
<image xlink:href="../../images/primaryKeys.png" width="11px" height="12px" preserveAspectRatio="xMinYMin meet" x="241.5" y="-324"/>
<text text-anchor="start" x="256.5" y="-315.2" font-family="Helvetica,sans-Serif" font-size="11.00">id</text>
<polygon fill="none" stroke="black" points="236.5,-285 236.5,-307 447.5,-307 447.5,-285 236.5,-285"/>
<image xlink:href="../../images/foreignKeys.png" width="11px" height="12px" preserveAspectRatio="xMinYMin meet" x="241.5" y="-302"/>
<text text-anchor="start" x="256.5" y="-293.2" font-family="Helvetica,sans-Serif" font-size="11.00">plan_id</text>
<polygon fill="#ffffff" stroke="transparent" points="236.5,-263 236.5,-285 447.5,-285 447.5,-263 236.5,-263"/>
<polygon fill="none" stroke="black" points="236.5,-263 236.5,-285 447.5,-285 447.5,-263 236.5,-263"/>
<text text-anchor="start" x="256.5" y="-271.2" font-family="Helvetica,sans-Serif" font-size="11.00">uid_hash</text>
<polygon fill="none" stroke="black" points="236.5,-245 236.5,-263 447.5,-263 447.5,-245 236.5,-245"/>
<text text-anchor="start" x="239.5" y="-251.2" font-family="Helvetica,sans-Serif" font-size="11.00">...</text>
<polygon fill="#ffffff" stroke="transparent" points="236.5,-227 236.5,-245 447.5,-245 447.5,-227 236.5,-227"/>
<polygon fill="none" stroke="black" points="236.5,-227 236.5,-245 447.5,-245 447.5,-227 236.5,-227"/>
<polygon fill="#ffffff" stroke="transparent" points="237.5,-228 237.5,-244 311.5,-244 311.5,-228 237.5,-228"/>
<text text-anchor="start" x="239.5" y="-233.2" font-family="Helvetica,sans-Serif" font-size="11.00">&lt; 1</text>
<polygon fill="#ffffff" stroke="transparent" points="311.5,-228 311.5,-244 373.5,-244 373.5,-228 311.5,-228"/>
<text text-anchor="start" x="338.5" y="-233.2" font-family="Helvetica,sans-Serif" font-size="11.00"> &#160;</text>
<polygon fill="#ffffff" stroke="transparent" points="373.5,-228 373.5,-244 446.5,-244 446.5,-228 373.5,-228"/>
<text text-anchor="start" x="424.5" y="-233.2" font-family="Helvetica,sans-Serif" font-size="11.00">5 &gt;</text>
<polygon fill="black" stroke="black" points="311.5,-228 311.5,-244 311.5,-244 311.5,-228 311.5,-228"/>
<polygon fill="black" stroke="black" points="373.5,-228 373.5,-244 373.5,-244 373.5,-228 373.5,-228"/>
</a>
</g>
</g>
<!-- account_api_keys&#45;&gt;account_identities -->
<g id="edge1" class="edge">
<title>account_api_keys:w&#45;&gt;account_identities:e</title>
<path fill="none" stroke="black" d="M519.14,-473.87C504.91,-468.93 499.53,-455.79 488,-439 455.97,-392.37 505.07,-318 448.5,-318"/>
<polygon fill="black" stroke="black" points="525.59,-474.83 532.97,-479.56 529.54,-475.41 533.5,-476 533.5,-476 533.5,-476 529.54,-475.41 534.03,-472.44 525.59,-474.83 525.59,-474.83"/>
<ellipse fill="none" stroke="black" cx="522.42" cy="-474.36" rx="3.2" ry="3.2"/>
</g>
<!-- account_api_plans -->
<g id="node4" class="node">
<title>account_api_plans</title>
<g id="a_node4"><a xlink:href="../../tables/account_api_plans.html" xlink:title="account_api_plans" target="_top">
<polygon fill="#ffffff" stroke="transparent" points="8,-269 8,-327 187,-327 187,-269 8,-269"/>
<polygon fill="#f5f5f5" stroke="transparent" points="8.5,-305 8.5,-327 187.5,-327 187.5,-305 8.5,-305"/>
<polygon fill="none" stroke="black" points="8.5,-305 8.5,-327 187.5,-327 187.5,-305 8.5,-305"/>
<text text-anchor="start" x="13.5" y="-314.2" font-family="Helvetica,sans-Serif" font-weight="bold" font-size="11.00">account_api_plans</text>
<text text-anchor="start" x="145.5" y="-313.2" font-family="Helvetica,sans-Serif" font-size="11.00">[table]</text>
<polygon fill="none" stroke="black" points="8.5,-287 8.5,-305 187.5,-305 187.5,-287 8.5,-287"/>
<text text-anchor="start" x="11.5" y="-293.2" font-family="Helvetica,sans-Serif" font-size="11.00">...</text>
<polygon fill="#ffffff" stroke="transparent" points="8.5,-269 8.5,-287 187.5,-287 187.5,-269 8.5,-269"/>
<polygon fill="none" stroke="black" points="8.5,-269 8.5,-287 187.5,-287 187.5,-269 8.5,-269"/>
<polygon fill="#ffffff" stroke="transparent" points="9.5,-270 9.5,-286 64.5,-286 64.5,-270 9.5,-270"/>
<text text-anchor="start" x="11.5" y="-275.2" font-family="Helvetica,sans-Serif" font-size="11.00"> &#160;</text>
<polygon fill="#ffffff" stroke="transparent" points="64.5,-270 64.5,-286 119.5,-286 119.5,-270 64.5,-270"/>
<text text-anchor="start" x="88" y="-275.2" font-family="Helvetica,sans-Serif" font-size="11.00"> &#160;</text>
<polygon fill="#ffffff" stroke="transparent" points="119.5,-270 119.5,-286 186.5,-286 186.5,-270 119.5,-270"/>
<text text-anchor="start" x="164.5" y="-275.2" font-family="Helvetica,sans-Serif" font-size="11.00">1 &gt;</text>
<polygon fill="black" stroke="black" points="64.5,-270 64.5,-286 64.5,-286 64.5,-270 64.5,-270"/>
<polygon fill="black" stroke="black" points="119.5,-270 119.5,-286 119.5,-286 119.5,-270 119.5,-270"/>
</a>
</g>
</g>
<!-- account_identities&#45;&gt;account_api_plans -->
<g id="edge3" class="edge">
<title>account_identities:w&#45;&gt;account_api_plans:e</title>
<path fill="none" stroke="black" d="M220.9,-296C210.43,-296 203.51,-296 188.5,-296"/>
<polygon fill="black" stroke="black" points="227.5,-296 235.5,-299.6 231.5,-296 235.5,-296 235.5,-296 235.5,-296 231.5,-296 235.5,-292.4 227.5,-296 227.5,-296"/>
<ellipse fill="none" stroke="black" cx="224.3" cy="-296" rx="3.2" ry="3.2"/>
</g>
<!-- account_custom_abis -->
<g id="node3" class="node">
<title>account_custom_abis</title>
<g id="a_node3"><a xlink:href="../../tables/account_custom_abis.html" xlink:title="account_custom_abis" target="_top">
<polygon fill="#ffffff" stroke="transparent" points="521,-370 521,-428 722,-428 722,-370 521,-370"/>
<polygon fill="#f5f5f5" stroke="transparent" points="521.5,-406 521.5,-428 722.5,-428 722.5,-406 521.5,-406"/>
<polygon fill="none" stroke="black" points="521.5,-406 521.5,-428 722.5,-428 722.5,-406 521.5,-406"/>
<text text-anchor="start" x="526.5" y="-415.2" font-family="Helvetica,sans-Serif" font-weight="bold" font-size="11.00">account_custom_abis</text>
<text text-anchor="start" x="680.5" y="-414.2" font-family="Helvetica,sans-Serif" font-size="11.00">[table]</text>
<polygon fill="none" stroke="black" points="521.5,-388 521.5,-406 722.5,-406 722.5,-388 521.5,-388"/>
<text text-anchor="start" x="524.5" y="-394.2" font-family="Helvetica,sans-Serif" font-size="11.00">...</text>
<polygon fill="#ffffff" stroke="transparent" points="521.5,-370 521.5,-388 722.5,-388 722.5,-370 521.5,-370"/>
<polygon fill="none" stroke="black" points="521.5,-370 521.5,-388 722.5,-388 722.5,-370 521.5,-370"/>
<polygon fill="#ffffff" stroke="transparent" points="522.5,-371 522.5,-387 597.5,-387 597.5,-371 522.5,-371"/>
<text text-anchor="start" x="524.5" y="-376.2" font-family="Helvetica,sans-Serif" font-size="11.00">&lt; 1</text>
<polygon fill="#ffffff" stroke="transparent" points="597.5,-371 597.5,-387 659.5,-387 659.5,-371 597.5,-371"/>
<text text-anchor="start" x="624.5" y="-376.2" font-family="Helvetica,sans-Serif" font-size="11.00"> &#160;</text>
<polygon fill="#ffffff" stroke="transparent" points="659.5,-371 659.5,-387 721.5,-387 721.5,-371 659.5,-371"/>
<text text-anchor="start" x="711.5" y="-376.2" font-family="Helvetica,sans-Serif" font-size="11.00"> &#160;</text>
<polygon fill="black" stroke="black" points="597.5,-371 597.5,-387 597.5,-387 597.5,-371 597.5,-371"/>
<polygon fill="black" stroke="black" points="659.5,-371 659.5,-387 659.5,-387 659.5,-371 659.5,-371"/>
</a>
</g>
</g>
<!-- account_custom_abis&#45;&gt;account_identities -->
<g id="edge2" class="edge">
<title>account_custom_abis:w&#45;&gt;account_identities:e</title>
<path fill="none" stroke="black" d="M506.09,-393.81C477.53,-379.03 490.25,-318 448.5,-318"/>
<polygon fill="black" stroke="black" points="512.69,-395.27 519.72,-400.51 516.59,-396.13 520.5,-397 520.5,-397 520.5,-397 516.59,-396.13 521.28,-393.49 512.69,-395.27 512.69,-395.27"/>
<ellipse fill="none" stroke="black" cx="509.57" cy="-394.58" rx="3.2" ry="3.2"/>
</g>
<!-- account_tag_addresses -->
<g id="node5" class="node">
<title>account_tag_addresses</title>
<g id="a_node5"><a xlink:href="../../tables/account_tag_addresses.html" xlink:title="account_tag_addresses" target="_top">
<polygon fill="#ffffff" stroke="transparent" points="513.5,-291 513.5,-349 729.5,-349 729.5,-291 513.5,-291"/>
<polygon fill="#f5f5f5" stroke="transparent" points="513.5,-327 513.5,-349 729.5,-349 729.5,-327 513.5,-327"/>
<polygon fill="none" stroke="black" points="513.5,-327 513.5,-349 729.5,-349 729.5,-327 513.5,-327"/>
<text text-anchor="start" x="518.5" y="-336.2" font-family="Helvetica,sans-Serif" font-weight="bold" font-size="11.00">account_tag_addresses</text>
<text text-anchor="start" x="687.5" y="-335.2" font-family="Helvetica,sans-Serif" font-size="11.00">[table]</text>
<polygon fill="none" stroke="black" points="513.5,-309 513.5,-327 729.5,-327 729.5,-309 513.5,-309"/>
<text text-anchor="start" x="516.5" y="-315.2" font-family="Helvetica,sans-Serif" font-size="11.00">...</text>
<polygon fill="#ffffff" stroke="transparent" points="513.5,-291 513.5,-309 729.5,-309 729.5,-291 513.5,-291"/>
<polygon fill="none" stroke="black" points="513.5,-291 513.5,-309 729.5,-309 729.5,-291 513.5,-291"/>
<polygon fill="#ffffff" stroke="transparent" points="514.5,-292 514.5,-308 594.5,-308 594.5,-292 514.5,-292"/>
<text text-anchor="start" x="516.5" y="-297.2" font-family="Helvetica,sans-Serif" font-size="11.00">&lt; 1</text>
<polygon fill="#ffffff" stroke="transparent" points="594.5,-292 594.5,-308 661.5,-308 661.5,-292 594.5,-292"/>
<text text-anchor="start" x="624" y="-297.2" font-family="Helvetica,sans-Serif" font-size="11.00"> &#160;</text>
<polygon fill="#ffffff" stroke="transparent" points="661.5,-292 661.5,-308 728.5,-308 728.5,-292 661.5,-292"/>
<text text-anchor="start" x="718.5" y="-297.2" font-family="Helvetica,sans-Serif" font-size="11.00"> &#160;</text>
<polygon fill="black" stroke="black" points="594.5,-292 594.5,-308 594.5,-308 594.5,-292 594.5,-292"/>
<polygon fill="black" stroke="black" points="661.5,-292 661.5,-308 661.5,-308 661.5,-292 661.5,-292"/>
</a>
</g>
</g>
<!-- account_tag_addresses&#45;&gt;account_identities -->
<g id="edge4" class="edge">
<title>account_tag_addresses:w&#45;&gt;account_identities:e</title>
<path fill="none" stroke="black" d="M497.96,-318C480.46,-318 471.39,-318 448.5,-318"/>
<polygon fill="black" stroke="black" points="504.5,-318 512.5,-321.6 508.5,-318 512.5,-318 512.5,-318 512.5,-318 508.5,-318 512.5,-314.4 504.5,-318 504.5,-318"/>
<ellipse fill="none" stroke="black" cx="501.3" cy="-318" rx="3.2" ry="3.2"/>
</g>
<!-- account_tag_transactions -->
<g id="node6" class="node">
<title>account_tag_transactions</title>
<g id="a_node6"><a xlink:href="../../tables/account_tag_transactions.html" xlink:title="account_tag_transactions" target="_top">
<polygon fill="#ffffff" stroke="transparent" points="505,-212 505,-270 738,-270 738,-212 505,-212"/>
<polygon fill="#f5f5f5" stroke="transparent" points="505.5,-248 505.5,-270 738.5,-270 738.5,-248 505.5,-248"/>
<polygon fill="none" stroke="black" points="505.5,-248 505.5,-270 738.5,-270 738.5,-248 505.5,-248"/>
<text text-anchor="start" x="510.5" y="-257.2" font-family="Helvetica,sans-Serif" font-weight="bold" font-size="11.00">account_tag_transactions</text>
<text text-anchor="start" x="696.5" y="-256.2" font-family="Helvetica,sans-Serif" font-size="11.00">[table]</text>
<polygon fill="none" stroke="black" points="505.5,-230 505.5,-248 738.5,-248 738.5,-230 505.5,-230"/>
<text text-anchor="start" x="508.5" y="-236.2" font-family="Helvetica,sans-Serif" font-size="11.00">...</text>
<polygon fill="#ffffff" stroke="transparent" points="505.5,-212 505.5,-230 738.5,-230 738.5,-212 505.5,-212"/>
<polygon fill="none" stroke="black" points="505.5,-212 505.5,-230 738.5,-230 738.5,-212 505.5,-212"/>
<polygon fill="#ffffff" stroke="transparent" points="506.5,-213 506.5,-229 591.5,-229 591.5,-213 506.5,-213"/>
<text text-anchor="start" x="508.5" y="-218.2" font-family="Helvetica,sans-Serif" font-size="11.00">&lt; 1</text>
<polygon fill="#ffffff" stroke="transparent" points="591.5,-213 591.5,-229 664.5,-229 664.5,-213 591.5,-213"/>
<text text-anchor="start" x="624" y="-218.2" font-family="Helvetica,sans-Serif" font-size="11.00"> &#160;</text>
<polygon fill="#ffffff" stroke="transparent" points="664.5,-213 664.5,-229 737.5,-229 737.5,-213 664.5,-213"/>
<text text-anchor="start" x="727.5" y="-218.2" font-family="Helvetica,sans-Serif" font-size="11.00"> &#160;</text>
<polygon fill="black" stroke="black" points="591.5,-213 591.5,-229 591.5,-229 591.5,-213 591.5,-213"/>
<polygon fill="black" stroke="black" points="664.5,-213 664.5,-229 664.5,-229 664.5,-213 664.5,-213"/>
</a>
</g>
</g>
<!-- account_tag_transactions&#45;&gt;account_identities -->
<g id="edge5" class="edge">
<title>account_tag_transactions:w&#45;&gt;account_identities:e</title>
<path fill="none" stroke="black" d="M490.57,-243.03C468.32,-259.12 485.65,-318 448.5,-318"/>
<polygon fill="black" stroke="black" points="496.81,-241.22 505.5,-242.46 500.66,-240.11 504.5,-239 504.5,-239 504.5,-239 500.66,-240.11 503.5,-235.54 496.81,-241.22 496.81,-241.22"/>
<ellipse fill="none" stroke="black" cx="493.74" cy="-242.11" rx="3.2" ry="3.2"/>
</g>
<!-- account_watchlist_addresses -->
<g id="node7" class="node">
<title>account_watchlist_addresses</title>
<g id="a_node7"><a xlink:href="../../tables/account_watchlist_addresses.html" xlink:title="account_watchlist_addresses" target="_top">
<polygon fill="#ffffff" stroke="transparent" points="796,-87 796,-211 1055,-211 1055,-87 796,-87"/>
<polygon fill="#f5f5f5" stroke="transparent" points="796.5,-189 796.5,-211 1055.5,-211 1055.5,-189 796.5,-189"/>
<polygon fill="none" stroke="black" points="796.5,-189 796.5,-211 1055.5,-211 1055.5,-189 796.5,-189"/>
<text text-anchor="start" x="801.5" y="-198.2" font-family="Helvetica,sans-Serif" font-weight="bold" font-size="11.00">account_watchlist_addresses</text>
<text text-anchor="start" x="1013.5" y="-197.2" font-family="Helvetica,sans-Serif" font-size="11.00">[table]</text>
<polygon fill="none" stroke="black" points="796.5,-167 796.5,-189 1055.5,-189 1055.5,-167 796.5,-167"/>
<image xlink:href="../../images/primaryKeys.png" width="11px" height="12px" preserveAspectRatio="xMinYMin meet" x="801.5" y="-184"/>
<text text-anchor="start" x="829.5" y="-175.2" font-family="Helvetica,sans-Serif" font-size="11.00">id</text>
<polygon fill="#ffffff" stroke="transparent" points="796.5,-145 796.5,-167 1055.5,-167 1055.5,-145 796.5,-145"/>
<polygon fill="none" stroke="black" points="796.5,-145 796.5,-167 1055.5,-167 1055.5,-145 796.5,-145"/>
<image xlink:href="../../images/foreignKeys.png" width="11px" height="12px" preserveAspectRatio="xMinYMin meet" x="801.5" y="-162"/>
<text text-anchor="start" x="829.5" y="-153.2" font-family="Helvetica,sans-Serif" font-size="11.00">watchlist_id</text>
<polygon fill="#ffffff" stroke="transparent" points="796.5,-123 796.5,-145 1055.5,-145 1055.5,-123 796.5,-123"/>
<polygon fill="none" stroke="black" points="796.5,-123 796.5,-145 1055.5,-145 1055.5,-123 796.5,-123"/>
<text text-anchor="start" x="829.5" y="-131.2" font-family="Helvetica,sans-Serif" font-size="11.00">address_hash_hash</text>
<polygon fill="none" stroke="black" points="796.5,-105 796.5,-123 1055.5,-123 1055.5,-105 796.5,-105"/>
<text text-anchor="start" x="799.5" y="-111.2" font-family="Helvetica,sans-Serif" font-size="11.00">...</text>
<polygon fill="#ffffff" stroke="transparent" points="796.5,-87 796.5,-105 1055.5,-105 1055.5,-87 796.5,-87"/>
<polygon fill="none" stroke="black" points="796.5,-87 796.5,-105 1055.5,-105 1055.5,-87 796.5,-87"/>
<polygon fill="#ffffff" stroke="transparent" points="797.5,-88 797.5,-104 891.5,-104 891.5,-88 797.5,-88"/>
<text text-anchor="start" x="799.5" y="-93.2" font-family="Helvetica,sans-Serif" font-size="11.00">&lt; 1</text>
<polygon fill="#ffffff" stroke="transparent" points="891.5,-88 891.5,-104 973.5,-104 973.5,-88 891.5,-88"/>
<text text-anchor="start" x="928.5" y="-93.2" font-family="Helvetica,sans-Serif" font-size="11.00"> &#160;</text>
<polygon fill="#ffffff" stroke="transparent" points="973.5,-88 973.5,-104 1054.5,-104 1054.5,-88 973.5,-88"/>
<text text-anchor="start" x="1044.5" y="-93.2" font-family="Helvetica,sans-Serif" font-size="11.00"> &#160;</text>
<polygon fill="black" stroke="black" points="891.5,-88 891.5,-104 891.5,-104 891.5,-88 891.5,-88"/>
<polygon fill="black" stroke="black" points="973.5,-88 973.5,-104 973.5,-104 973.5,-88 973.5,-88"/>
</a>
</g>
</g>
<!-- account_watchlists -->
<g id="node8" class="node">
<title>account_watchlists</title>
<g id="a_node8"><a xlink:href="../../tables/account_watchlists.html" xlink:title="account_watchlists" target="_top">
<polygon fill="#ffffff" stroke="transparent" points="496,-37 496,-191 747,-191 747,-37 496,-37"/>
<polygon fill="#f5f5f5" stroke="transparent" points="498.5,-167 498.5,-189 745.5,-189 745.5,-167 498.5,-167"/>
<polygon fill="none" stroke="black" points="498.5,-167 498.5,-189 745.5,-189 745.5,-167 498.5,-167"/>
<text text-anchor="start" x="503.5" y="-176.2" font-family="Helvetica,sans-Serif" font-weight="bold" font-size="11.00">account_watchlists</text>
<text text-anchor="start" x="703.5" y="-175.2" font-family="Helvetica,sans-Serif" font-size="11.00">[table]</text>
<polygon fill="none" stroke="black" points="498.5,-145 498.5,-167 657.5,-167 657.5,-145 498.5,-145"/>
<image xlink:href="../../images/primaryKeys.png" width="11px" height="12px" preserveAspectRatio="xMinYMin meet" x="503.5" y="-162"/>
<text text-anchor="start" x="518.5" y="-153.2" font-family="Helvetica,sans-Serif" font-size="11.00">id</text>
<polygon fill="none" stroke="black" points="657.5,-145 657.5,-167 745.5,-167 745.5,-145 657.5,-145"/>
<text text-anchor="start" x="660.5" y="-153.2" font-family="Helvetica,sans-Serif" font-size="11.00">bigserial[19]</text>
<polygon fill="none" stroke="black" points="498.5,-123 498.5,-145 657.5,-145 657.5,-123 498.5,-123"/>
<text text-anchor="start" x="518.5" y="-131.2" font-family="Helvetica,sans-Serif" font-size="11.00">name</text>
<polygon fill="none" stroke="black" points="657.5,-123 657.5,-145 745.5,-145 745.5,-123 657.5,-123"/>
<text text-anchor="start" x="660.5" y="-131.2" font-family="Helvetica,sans-Serif" font-size="11.00">varchar[255]</text>
<polygon fill="#ffffff" stroke="transparent" points="498.5,-101 498.5,-123 657.5,-123 657.5,-101 498.5,-101"/>
<polygon fill="none" stroke="black" points="498.5,-101 498.5,-123 657.5,-123 657.5,-101 498.5,-101"/>
<image xlink:href="../../images/foreignKeys.png" width="11px" height="12px" preserveAspectRatio="xMinYMin meet" x="503.5" y="-118"/>
<text text-anchor="start" x="518.5" y="-109.2" font-family="Helvetica,sans-Serif" font-size="11.00">identity_id</text>
<polygon fill="none" stroke="black" points="657.5,-101 657.5,-123 745.5,-123 745.5,-101 657.5,-101"/>
<text text-anchor="start" x="660.5" y="-109.2" font-family="Helvetica,sans-Serif" font-size="11.00">int8[19]</text>
<polygon fill="none" stroke="black" points="498.5,-79 498.5,-101 657.5,-101 657.5,-79 498.5,-79"/>
<text text-anchor="start" x="518.5" y="-87.2" font-family="Helvetica,sans-Serif" font-size="11.00">inserted_at</text>
<polygon fill="none" stroke="black" points="657.5,-79 657.5,-101 745.5,-101 745.5,-79 657.5,-79"/>
<text text-anchor="start" x="660.5" y="-87.2" font-family="Helvetica,sans-Serif" font-size="11.00">timestamp[22]</text>
<polygon fill="none" stroke="black" points="498.5,-57 498.5,-79 657.5,-79 657.5,-57 498.5,-57"/>
<text text-anchor="start" x="518.5" y="-65.2" font-family="Helvetica,sans-Serif" font-size="11.00">updated_at</text>
<polygon fill="none" stroke="black" points="657.5,-57 657.5,-79 745.5,-79 745.5,-57 657.5,-57"/>
<text text-anchor="start" x="660.5" y="-65.2" font-family="Helvetica,sans-Serif" font-size="11.00">timestamp[22]</text>
<polygon fill="#ffffff" stroke="transparent" points="498.5,-39 498.5,-57 745.5,-57 745.5,-39 498.5,-39"/>
<polygon fill="none" stroke="black" points="498.5,-39 498.5,-57 745.5,-57 745.5,-39 498.5,-39"/>
<polygon fill="#ffffff" stroke="transparent" points="499.5,-40 499.5,-56 585.5,-56 585.5,-40 499.5,-40"/>
<text text-anchor="start" x="501.5" y="-45.2" font-family="Helvetica,sans-Serif" font-size="11.00">&lt; 1</text>
<polygon fill="#ffffff" stroke="transparent" points="585.5,-40 585.5,-56 659.5,-56 659.5,-40 585.5,-40"/>
<text text-anchor="start" x="618.5" y="-45.2" font-family="Helvetica,sans-Serif" font-size="11.00"> &#160;</text>
<polygon fill="#ffffff" stroke="transparent" points="659.5,-40 659.5,-56 744.5,-56 744.5,-40 659.5,-40"/>
<text text-anchor="start" x="722.5" y="-45.2" font-family="Helvetica,sans-Serif" font-size="11.00">1 &gt;</text>
<polygon fill="black" stroke="black" points="585.5,-40 585.5,-56 585.5,-56 585.5,-40 585.5,-40"/>
<polygon fill="black" stroke="black" points="659.5,-40 659.5,-56 659.5,-56 659.5,-40 659.5,-40"/>
<polygon fill="none" stroke="black" stroke-width="2" points="497,-38 497,-190 746,-190 746,-38 497,-38"/>
</a>
</g>
</g>
<!-- account_watchlist_addresses&#45;&gt;account_watchlists -->
<g id="edge6" class="edge">
<title>account_watchlist_addresses:w&#45;&gt;account_watchlists:e</title>
<path fill="none" stroke="black" d="M780.99,-156C769.68,-156 762.49,-156 746.5,-156"/>
<polygon fill="black" stroke="black" points="787.5,-156 795.5,-159.6 791.5,-156 795.5,-156 795.5,-156 795.5,-156 791.5,-156 795.5,-152.4 787.5,-156 787.5,-156"/>
<ellipse fill="none" stroke="black" cx="784.3" cy="-156" rx="3.2" ry="3.2"/>
</g>
<!-- account_watchlists&#45;&gt;account_identities -->
<g id="edge7" class="edge">
<title>account_watchlists:w&#45;&gt;account_identities:e</title>
<path fill="none" stroke="black" d="M482.87,-114.17C419.39,-136.19 536.91,-318 448.5,-318"/>
<polygon fill="black" stroke="black" points="489.59,-113.18 498.03,-115.56 493.54,-112.59 497.5,-112 497.5,-112 497.5,-112 493.54,-112.59 496.97,-108.44 489.59,-113.18 489.59,-113.18"/>
<ellipse fill="none" stroke="black" cx="486.42" cy="-113.65" rx="3.2" ry="3.2"/>
</g>
</g>
</svg>
