<?xml version="1.0" encoding="UTF-8" standalone="no"?>
<!DOCTYPE svg PUBLIC "-//W3C//DTD SVG 1.1//EN"
 "http://www.w3.org/Graphics/SVG/1.1/DTD/svg11.dtd">
<!-- Generated by graphviz version 2.43.0 (0)
 -->
<!-- Title: oneDegreeRelationshipsDiagram Pages: 1 -->
<svg width="548pt" height="223pt"
 viewBox="0.00 0.00 548.00 223.00" xmlns="http://www.w3.org/2000/svg" xmlns:xlink="http://www.w3.org/1999/xlink">
<g id="graph0" class="graph" transform="scale(1 1) rotate(0) translate(4 219)">
<title>oneDegreeRelationshipsDiagram</title>
<polygon fill="#ffffff" stroke="transparent" points="-4,4 -4,-219 544,-219 544,4 -4,4"/>
<text text-anchor="middle" x="79.5" y="-7.2" font-family="Helvetica,sans-Serif" font-size="11.00">Generated by SchemaSpy</text>
<!-- account_identities -->
<g id="node1" class="node">
<title>account_identities</title>
<g id="a_node1"><a xlink:href="../../tables/account_identities.html" xlink:title="account_identities" target="_top">
<polygon fill="#ffffff" stroke="transparent" points="321,-87 321,-211 532,-211 532,-87 321,-87"/>
<polygon fill="#f5f5f5" stroke="transparent" points="321.5,-189 321.5,-211 532.5,-211 532.5,-189 321.5,-189"/>
<polygon fill="none" stroke="black" points="321.5,-189 321.5,-211 532.5,-211 532.5,-189 321.5,-189"/>
<text text-anchor="start" x="326.5" y="-198.2" font-family="Helvetica,sans-Serif" font-weight="bold" font-size="11.00">account_identities</text>
<text text-anchor="start" x="490.5" y="-197.2" font-family="Helvetica,sans-Serif" font-size="11.00">[table]</text>
<polygon fill="none" stroke="black" points="321.5,-167 321.5,-189 532.5,-189 532.5,-167 321.5,-167"/>
<image xlink:href="../../images/primaryKeys.png" width="11px" height="12px" preserveAspectRatio="xMinYMin meet" x="326.5" y="-184"/>
<text text-anchor="start" x="341.5" y="-175.2" font-family="Helvetica,sans-Serif" font-size="11.00">id</text>
<polygon fill="none" stroke="black" points="321.5,-145 321.5,-167 532.5,-167 532.5,-145 321.5,-145"/>
<image xlink:href="../../images/foreignKeys.png" width="11px" height="12px" preserveAspectRatio="xMinYMin meet" x="326.5" y="-162"/>
<text text-anchor="start" x="341.5" y="-153.2" font-family="Helvetica,sans-Serif" font-size="11.00">plan_id</text>
<polygon fill="#ffffff" stroke="transparent" points="321.5,-123 321.5,-145 532.5,-145 532.5,-123 321.5,-123"/>
<polygon fill="none" stroke="black" points="321.5,-123 321.5,-145 532.5,-145 532.5,-123 321.5,-123"/>
<text text-anchor="start" x="341.5" y="-131.2" font-family="Helvetica,sans-Serif" font-size="11.00">uid_hash</text>
<polygon fill="none" stroke="black" points="321.5,-105 321.5,-123 532.5,-123 532.5,-105 321.5,-105"/>
<text text-anchor="start" x="324.5" y="-111.2" font-family="Helvetica,sans-Serif" font-size="11.00">...</text>
<polygon fill="#ffffff" stroke="transparent" points="321.5,-87 321.5,-105 532.5,-105 532.5,-87 321.5,-87"/>
<polygon fill="none" stroke="black" points="321.5,-87 321.5,-105 532.5,-105 532.5,-87 321.5,-87"/>
<polygon fill="#ffffff" stroke="transparent" points="322.5,-88 322.5,-104 396.5,-104 396.5,-88 322.5,-88"/>
<text text-anchor="start" x="324.5" y="-93.2" font-family="Helvetica,sans-Serif" font-size="11.00">&lt; 1</text>
<polygon fill="#ffffff" stroke="transparent" points="396.5,-88 396.5,-104 458.5,-104 458.5,-88 396.5,-88"/>
<text text-anchor="start" x="423.5" y="-93.2" font-family="Helvetica,sans-Serif" font-size="11.00"> &#160;</text>
<polygon fill="#ffffff" stroke="transparent" points="458.5,-88 458.5,-104 531.5,-104 531.5,-88 458.5,-88"/>
<text text-anchor="start" x="509.5" y="-93.2" font-family="Helvetica,sans-Serif" font-size="11.00">5 &gt;</text>
<polygon fill="black" stroke="black" points="396.5,-88 396.5,-104 396.5,-104 396.5,-88 396.5,-88"/>
<polygon fill="black" stroke="black" points="458.5,-88 458.5,-104 458.5,-104 458.5,-88 458.5,-88"/>
</a>
</g>
</g>
<!-- account_api_plans -->
<g id="node2" class="node">
<title>account_api_plans</title>
<g id="a_node2"><a xlink:href="../../tables/account_api_plans.html" xlink:title="account_api_plans" target="_top">
<polygon fill="#ffffff" stroke="transparent" points="8,-37 8,-191 272,-191 272,-37 8,-37"/>
<polygon fill="#f5f5f5" stroke="transparent" points="10,-167 10,-189 270,-189 270,-167 10,-167"/>
<polygon fill="none" stroke="black" points="10,-167 10,-189 270,-189 270,-167 10,-167"/>
<text text-anchor="start" x="15" y="-176.2" font-family="Helvetica,sans-Serif" font-weight="bold" font-size="11.00">account_api_plans</text>
<text text-anchor="start" x="228" y="-175.2" font-family="Helvetica,sans-Serif" font-size="11.00">[table]</text>
<polygon fill="none" stroke="black" points="10,-145 10,-167 182,-167 182,-145 10,-145"/>
<image xlink:href="../../images/primaryKeys.png" width="11px" height="12px" preserveAspectRatio="xMinYMin meet" x="15" y="-162"/>
<text text-anchor="start" x="30" y="-153.2" font-family="Helvetica,sans-Serif" font-size="11.00">id</text>
<polygon fill="none" stroke="black" points="182,-145 182,-167 270,-167 270,-145 182,-145"/>
<text text-anchor="start" x="185" y="-153.2" font-family="Helvetica,sans-Serif" font-size="11.00">serial[10]</text>
<polygon fill="#ffffff" stroke="transparent" points="10,-123 10,-145 182,-145 182,-123 10,-123"/>
<polygon fill="none" stroke="black" points="10,-123 10,-145 182,-145 182,-123 10,-123"/>
<text text-anchor="start" x="30" y="-131.2" font-family="Helvetica,sans-Serif" font-size="11.00">max_req_per_second</text>
<polygon fill="none" stroke="black" points="182,-123 182,-145 270,-145 270,-123 182,-123"/>
<text text-anchor="start" x="185" y="-131.2" font-family="Helvetica,sans-Serif" font-size="11.00">int2[5]</text>
<polygon fill="#ffffff" stroke="transparent" points="10,-101 10,-123 182,-123 182,-101 10,-101"/>
<polygon fill="none" stroke="black" points="10,-101 10,-123 182,-123 182,-101 10,-101"/>
<text text-anchor="start" x="30" y="-109.2" font-family="Helvetica,sans-Serif" font-size="11.00">name</text>
<polygon fill="none" stroke="black" points="182,-101 182,-123 270,-123 270,-101 182,-101"/>
<text text-anchor="start" x="185" y="-109.2" font-family="Helvetica,sans-Serif" font-size="11.00">varchar[255]</text>
<polygon fill="none" stroke="black" points="10,-79 10,-101 182,-101 182,-79 10,-79"/>
<text text-anchor="start" x="30" y="-87.2" font-family="Helvetica,sans-Serif" font-size="11.00">inserted_at</text>
<polygon fill="none" stroke="black" points="182,-79 182,-101 270,-101 270,-79 182,-79"/>
<text text-anchor="start" x="185" y="-87.2" font-family="Helvetica,sans-Serif" font-size="11.00">timestamp[22]</text>
<polygon fill="none" stroke="black" points="10,-57 10,-79 182,-79 182,-57 10,-57"/>
<text text-anchor="start" x="30" y="-65.2" font-family="Helvetica,sans-Serif" font-size="11.00">updated_at</text>
<polygon fill="none" stroke="black" points="182,-57 182,-79 270,-79 270,-57 182,-57"/>
<text text-anchor="start" x="185" y="-65.2" font-family="Helvetica,sans-Serif" font-size="11.00">timestamp[22]</text>
<polygon fill="#ffffff" stroke="transparent" points="10,-39 10,-57 270,-57 270,-39 10,-39"/>
<polygon fill="none" stroke="black" points="10,-39 10,-57 270,-57 270,-39 10,-39"/>
<polygon fill="#ffffff" stroke="transparent" points="11,-40 11,-56 101,-56 101,-40 11,-40"/>
<text text-anchor="start" x="13" y="-45.2" font-family="Helvetica,sans-Serif" font-size="11.00">&lt; 0</text>
<polygon fill="#ffffff" stroke="transparent" points="101,-40 101,-56 179,-56 179,-40 101,-40"/>
<text text-anchor="start" x="136" y="-45.2" font-family="Helvetica,sans-Serif" font-size="11.00"> &#160;</text>
<polygon fill="#ffffff" stroke="transparent" points="179,-40 179,-56 269,-56 269,-40 179,-40"/>
<text text-anchor="start" x="247" y="-45.2" font-family="Helvetica,sans-Serif" font-size="11.00">1 &gt;</text>
<polygon fill="black" stroke="black" points="101,-40 101,-56 101,-56 101,-40 101,-40"/>
<polygon fill="black" stroke="black" points="179,-40 179,-56 179,-56 179,-40 179,-40"/>
<polygon fill="none" stroke="black" stroke-width="2" points="9,-38 9,-190 271,-190 271,-38 9,-38"/>
</a>
</g>
</g>
<!-- account_identities&#45;&gt;account_api_plans -->
<g id="edge1" class="edge">
<title>account_identities:w&#45;&gt;account_api_plans:e</title>
<path fill="none" stroke="black" d="M305.84,-156C294.41,-156 287.16,-156 271,-156"/>
<polygon fill="black" stroke="black" points="312.5,-156 320.5,-159.6 316.5,-156 320.5,-156 320.5,-156 320.5,-156 316.5,-156 320.5,-152.4 312.5,-156 312.5,-156"/>
<ellipse fill="none" stroke="black" cx="309.3" cy="-156" rx="3.2" ry="3.2"/>
</g>
</g>
</svg>
