<?xml version="1.0" encoding="UTF-8" standalone="no"?>
<!DOCTYPE svg PUBLIC "-//W3C//DTD SVG 1.1//EN"
 "http://www.w3.org/Graphics/SVG/1.1/DTD/svg11.dtd">
<!-- Generated by graphviz version 9.0.0 (20230911.1827)
 -->
<!-- Title: twoDegreesRelationshipsDiagram Pages: 1 -->
<svg width="729pt" height="502pt"
 viewBox="0.00 0.00 729.00 502.00" xmlns="http://www.w3.org/2000/svg" xmlns:xlink="http://www.w3.org/1999/xlink">
<g id="graph0" class="graph" transform="scale(1 1) rotate(0) translate(4 498)">
<title>twoDegreesRelationshipsDiagram</title>
<polygon fill="#ffffff" stroke="none" points="-4,4 -4,-498 725,-498 725,4 -4,4"/>
<text text-anchor="middle" x="71.38" y="-5.55" font-family="Helvetica,sans-Serif" font-size="11.00">Generated by SchemaSpy</text>
<!-- account_api_keys -->
<g id="node1" class="node">
<title>account_api_keys</title>
<g id="a_node1"><a xlink:href="../../tables/account_api_keys.html" xlink:title="account_api_keys" target="_top">
<polygon fill="#ffffff" stroke="none" points="534.5,-432 534.5,-490 676.5,-490 676.5,-432 534.5,-432"/>
<polygon fill="#f5f5f5" stroke="none" points="534.5,-468 534.5,-490 676.5,-490 676.5,-468 534.5,-468"/>
<polygon fill="none" stroke="black" points="534.5,-468 534.5,-490 676.5,-490 676.5,-468 534.5,-468"/>
<text text-anchor="start" x="539.5" y="-475.55" font-family="Helvetica,sans-Serif" font-weight="bold" font-size="11.00">account_api_keys</text>
<text text-anchor="start" x="642.5" y="-474.55" font-family="Helvetica,sans-Serif" font-size="11.00">[table]</text>
<polygon fill="none" stroke="black" points="534.5,-450 534.5,-468 676.5,-468 676.5,-450 534.5,-450"/>
<text text-anchor="start" x="537.5" y="-454.55" font-family="Helvetica,sans-Serif" font-size="11.00">...</text>
<polygon fill="#ffffff" stroke="none" points="534.5,-432 534.5,-450 603.5,-450 603.5,-432 534.5,-432"/>
<polygon fill="none" stroke="black" points="534.5,-432 534.5,-450 603.5,-450 603.5,-432 534.5,-432"/>
<text text-anchor="start" x="537.5" y="-436.55" font-family="Helvetica,sans-Serif" font-size="11.00">&lt; 1</text>
<polygon fill="#ffffff" stroke="none" points="603.5,-432 603.5,-450 639.5,-450 639.5,-432 603.5,-432"/>
<polygon fill="none" stroke="black" points="603.5,-432 603.5,-450 639.5,-450 639.5,-432 603.5,-432"/>
<text text-anchor="start" x="630.5" y="-436.55" font-family="Helvetica,sans-Serif" font-size="11.00"> &#160;</text>
<polygon fill="#ffffff" stroke="none" points="639.5,-432 639.5,-450 676.5,-450 676.5,-432 639.5,-432"/>
<polygon fill="none" stroke="black" points="639.5,-432 639.5,-450 676.5,-450 676.5,-432 639.5,-432"/>
<text text-anchor="start" x="667.5" y="-436.55" font-family="Helvetica,sans-Serif" font-size="11.00"> &#160;</text>
</a>
</g>
</g>
<!-- account_identities -->
<g id="node2" class="node">
<title>account_identities</title>
<g id="a_node2"><a xlink:href="../../tables/account_identities.html" xlink:title="account_identities" target="_top">
<polygon fill="#ffffff" stroke="none" points="278,-170 278,-294 449,-294 449,-170 278,-170"/>
<polygon fill="#f5f5f5" stroke="none" points="278,-272 278,-294 449,-294 449,-272 278,-272"/>
<polygon fill="none" stroke="black" points="278,-272 278,-294 449,-294 449,-272 278,-272"/>
<text text-anchor="start" x="283" y="-279.55" font-family="Helvetica,sans-Serif" font-weight="bold" font-size="11.00">account_identities</text>
<text text-anchor="start" x="414.75" y="-278.55" font-family="Helvetica,sans-Serif" font-size="11.00">[table]</text>
<polygon fill="none" stroke="black" points="278,-250 278,-272 449,-272 449,-250 278,-250"/>
<image xlink:href="../../images/primaryKeys.png" width="11px" height="12px" preserveAspectRatio="xMinYMin meet" x="283" y="-267"/>
<text text-anchor="start" x="298" y="-256.55" font-family="Helvetica,sans-Serif" font-size="11.00">id</text>
<polygon fill="none" stroke="black" points="278,-228 278,-250 449,-250 449,-228 278,-228"/>
<image xlink:href="../../images/foreignKeys.png" width="11px" height="12px" preserveAspectRatio="xMinYMin meet" x="283" y="-245"/>
<text text-anchor="start" x="298" y="-234.55" font-family="Helvetica,sans-Serif" font-size="11.00">plan_id</text>
<polygon fill="#ffffff" stroke="none" points="278,-206 278,-228 449,-228 449,-206 278,-206"/>
<polygon fill="none" stroke="black" points="278,-206 278,-228 449,-228 449,-206 278,-206"/>
<text text-anchor="start" x="298" y="-212.55" font-family="Helvetica,sans-Serif" font-size="11.00">uid_hash</text>
<polygon fill="none" stroke="black" points="278,-188 278,-206 449,-206 449,-188 278,-188"/>
<text text-anchor="start" x="281" y="-192.55" font-family="Helvetica,sans-Serif" font-size="11.00">...</text>
<polygon fill="#ffffff" stroke="none" points="278,-170 278,-188 357,-188 357,-170 278,-170"/>
<polygon fill="none" stroke="black" points="278,-170 278,-188 357,-188 357,-170 278,-170"/>
<text text-anchor="start" x="281" y="-174.55" font-family="Helvetica,sans-Serif" font-size="11.00">&lt; 1</text>
<polygon fill="#ffffff" stroke="none" points="357,-170 357,-188 398,-188 398,-170 357,-170"/>
<polygon fill="none" stroke="black" points="357,-170 357,-188 398,-188 398,-170 357,-170"/>
<text text-anchor="start" x="389" y="-174.55" font-family="Helvetica,sans-Serif" font-size="11.00"> &#160;</text>
<polygon fill="#ffffff" stroke="none" points="398,-170 398,-188 449,-188 449,-170 398,-170"/>
<polygon fill="none" stroke="black" points="398,-170 398,-188 449,-188 449,-170 398,-170"/>
<text text-anchor="start" x="430.25" y="-174.55" font-family="Helvetica,sans-Serif" font-size="11.00">6 &gt;</text>
</a>
</g>
</g>
<!-- account_api_keys&#45;&gt;account_identities -->
<g id="edge1" class="edge">
<title>account_api_keys:w&#45;&gt;account_identities:e</title>
<path fill="none" stroke="black" d="M518.27,-456.42C505.3,-451.17 500.11,-438.36 490,-422 451.28,-359.31 524.18,-261 450.5,-261"/>
<polygon fill="black" stroke="black" points="525.28,-457.61 532.57,-462.49 529.56,-458.33 532.84,-458.89 532.84,-458.89 532.84,-458.89 529.56,-458.33 533.77,-455.39 525.28,-457.61"/>
<ellipse fill="none" stroke="black" cx="520.43" cy="-456.79" rx="3.2" ry="3.2"/>
</g>
<!-- account_api_plans -->
<g id="node4" class="node">
<title>account_api_plans</title>
<g id="a_node4"><a xlink:href="../../tables/account_api_plans.html" xlink:title="account_api_plans" target="_top">
<polygon fill="#ffffff" stroke="none" points="8,-120 8,-274 229,-274 229,-120 8,-120"/>
<polygon fill="#f5f5f5" stroke="none" points="10,-250 10,-272 227,-272 227,-250 10,-250"/>
<polygon fill="none" stroke="black" points="10,-250 10,-272 227,-272 227,-250 10,-250"/>
<text text-anchor="start" x="15" y="-257.55" font-family="Helvetica,sans-Serif" font-weight="bold" font-size="11.00">account_api_plans</text>
<text text-anchor="start" x="192.75" y="-256.55" font-family="Helvetica,sans-Serif" font-size="11.00">[table]</text>
<polygon fill="none" stroke="black" points="10,-228 10,-250 154,-250 154,-228 10,-228"/>
<image xlink:href="../../images/primaryKeys.png" width="11px" height="12px" preserveAspectRatio="xMinYMin meet" x="15" y="-245"/>
<text text-anchor="start" x="30" y="-234.55" font-family="Helvetica,sans-Serif" font-size="11.00">id</text>
<polygon fill="none" stroke="black" points="154,-228 154,-250 227,-250 227,-228 154,-228"/>
<text text-anchor="start" x="157" y="-234.55" font-family="Helvetica,sans-Serif" font-size="11.00">serial[10]</text>
<polygon fill="#ffffff" stroke="none" points="10,-206 10,-228 154,-228 154,-206 10,-206"/>
<polygon fill="none" stroke="black" points="10,-206 10,-228 154,-228 154,-206 10,-206"/>
<text text-anchor="start" x="30" y="-212.55" font-family="Helvetica,sans-Serif" font-size="11.00">max_req_per_second</text>
<polygon fill="none" stroke="black" points="154,-206 154,-228 227,-228 227,-206 154,-206"/>
<text text-anchor="start" x="157" y="-212.55" font-family="Helvetica,sans-Serif" font-size="11.00">int2[5]</text>
<polygon fill="#ffffff" stroke="none" points="10,-184 10,-206 154,-206 154,-184 10,-184"/>
<polygon fill="none" stroke="black" points="10,-184 10,-206 154,-206 154,-184 10,-184"/>
<text text-anchor="start" x="30" y="-190.55" font-family="Helvetica,sans-Serif" font-size="11.00">name</text>
<polygon fill="none" stroke="black" points="154,-184 154,-206 227,-206 227,-184 154,-184"/>
<text text-anchor="start" x="157" y="-190.55" font-family="Helvetica,sans-Serif" font-size="11.00">varchar[255]</text>
<polygon fill="none" stroke="black" points="10,-162 10,-184 154,-184 154,-162 10,-162"/>
<text text-anchor="start" x="30" y="-168.55" font-family="Helvetica,sans-Serif" font-size="11.00">inserted_at</text>
<polygon fill="none" stroke="black" points="154,-162 154,-184 227,-184 227,-162 154,-162"/>
<text text-anchor="start" x="156.75" y="-168.55" font-family="Helvetica,sans-Serif" font-size="11.00">timestamp[22]</text>
<polygon fill="none" stroke="black" points="10,-140 10,-162 154,-162 154,-140 10,-140"/>
<text text-anchor="start" x="30" y="-146.55" font-family="Helvetica,sans-Serif" font-size="11.00">updated_at</text>
<polygon fill="none" stroke="black" points="154,-140 154,-162 227,-162 227,-140 154,-140"/>
<text text-anchor="start" x="156.75" y="-146.55" font-family="Helvetica,sans-Serif" font-size="11.00">timestamp[22]</text>
<polygon fill="#ffffff" stroke="none" points="10,-122 10,-140 86,-140 86,-122 10,-122"/>
<polygon fill="none" stroke="black" points="10,-122 10,-140 86,-140 86,-122 10,-122"/>
<text text-anchor="start" x="13" y="-126.55" font-family="Helvetica,sans-Serif" font-size="11.00">&lt; 0</text>
<polygon fill="#ffffff" stroke="none" points="86,-122 86,-140 154,-140 154,-122 86,-122"/>
<polygon fill="none" stroke="black" points="86,-122 86,-140 154,-140 154,-122 86,-122"/>
<text text-anchor="start" x="145" y="-126.55" font-family="Helvetica,sans-Serif" font-size="11.00"> &#160;</text>
<polygon fill="#ffffff" stroke="none" points="154,-122 154,-140 227,-140 227,-122 154,-122"/>
<polygon fill="none" stroke="black" points="154,-122 154,-140 227,-140 227,-122 154,-122"/>
<text text-anchor="start" x="208.25" y="-126.55" font-family="Helvetica,sans-Serif" font-size="11.00">1 &gt;</text>
<polygon fill="none" stroke="black" stroke-width="2" points="9,-121 9,-273 228,-273 228,-121 9,-121"/>
</a>
</g>
</g>
<!-- account_identities&#45;&gt;account_api_plans -->
<g id="edge3" class="edge">
<title>account_identities:w&#45;&gt;account_api_plans:e</title>
<path fill="none" stroke="black" d="M260.89,-239C250.59,-239 243.5,-239 228.5,-239"/>
<polygon fill="black" stroke="black" points="268.17,-239 276.17,-242.6 272.5,-239 275.83,-239 275.83,-239 275.83,-239 272.5,-239 276.17,-235.4 268.17,-239"/>
<ellipse fill="none" stroke="black" cx="263.25" cy="-239" rx="3.2" ry="3.2"/>
</g>
<!-- account_custom_abis -->
<g id="node3" class="node">
<title>account_custom_abis</title>
<g id="a_node3"><a xlink:href="../../tables/account_custom_abis.html" xlink:title="account_custom_abis" target="_top">
<polygon fill="#ffffff" stroke="none" points="523,-353 523,-411 688,-411 688,-353 523,-353"/>
<polygon fill="#f5f5f5" stroke="none" points="523,-389 523,-411 688,-411 688,-389 523,-389"/>
<polygon fill="none" stroke="black" points="523,-389 523,-411 688,-411 688,-389 523,-389"/>
<text text-anchor="start" x="528" y="-396.55" font-family="Helvetica,sans-Serif" font-weight="bold" font-size="11.00">account_custom_abis</text>
<text text-anchor="start" x="654" y="-395.55" font-family="Helvetica,sans-Serif" font-size="11.00">[table]</text>
<polygon fill="none" stroke="black" points="523,-371 523,-389 688,-389 688,-371 523,-371"/>
<text text-anchor="start" x="526" y="-375.55" font-family="Helvetica,sans-Serif" font-size="11.00">...</text>
<polygon fill="#ffffff" stroke="none" points="523,-353 523,-371 604,-371 604,-353 523,-353"/>
<polygon fill="none" stroke="black" points="523,-353 523,-371 604,-371 604,-353 523,-353"/>
<text text-anchor="start" x="526" y="-357.55" font-family="Helvetica,sans-Serif" font-size="11.00">&lt; 1</text>
<polygon fill="#ffffff" stroke="none" points="604,-353 604,-371 646,-371 646,-353 604,-353"/>
<polygon fill="none" stroke="black" points="604,-353 604,-371 646,-371 646,-353 604,-353"/>
<text text-anchor="start" x="637" y="-357.55" font-family="Helvetica,sans-Serif" font-size="11.00"> &#160;</text>
<polygon fill="#ffffff" stroke="none" points="646,-353 646,-371 688,-371 688,-353 646,-353"/>
<polygon fill="none" stroke="black" points="646,-353 646,-371 688,-371 688,-353 646,-353"/>
<text text-anchor="start" x="679" y="-357.55" font-family="Helvetica,sans-Serif" font-size="11.00"> &#160;</text>
</a>
</g>
</g>
<!-- account_custom_abis&#45;&gt;account_identities -->
<g id="edge2" class="edge">
<title>account_custom_abis:w&#45;&gt;account_identities:e</title>
<path fill="none" stroke="black" d="M506.5,-376.82C469.02,-357.89 506.07,-261 450.5,-261"/>
<polygon fill="black" stroke="black" points="513.35,-378.27 520.43,-383.45 517.59,-379.17 520.85,-379.86 520.85,-379.86 520.85,-379.86 517.59,-379.17 521.92,-376.41 513.35,-378.27"/>
<ellipse fill="none" stroke="black" cx="508.54" cy="-377.25" rx="3.2" ry="3.2"/>
</g>
<!-- account_public_tags_requests -->
<g id="node5" class="node">
<title>account_public_tags_requests</title>
<g id="a_node5"><a xlink:href="../../tables/account_public_tags_requests.html" xlink:title="account_public_tags_requests" target="_top">
<polygon fill="#ffffff" stroke="none" points="498,-274 498,-332 713,-332 713,-274 498,-274"/>
<polygon fill="#f5f5f5" stroke="none" points="498,-310 498,-332 713,-332 713,-310 498,-310"/>
<polygon fill="none" stroke="black" points="498,-310 498,-332 713,-332 713,-310 498,-310"/>
<text text-anchor="start" x="503" y="-317.55" font-family="Helvetica,sans-Serif" font-weight="bold" font-size="11.00">account_public_tags_requests</text>
<text text-anchor="start" x="679" y="-316.55" font-family="Helvetica,sans-Serif" font-size="11.00">[table]</text>
<polygon fill="none" stroke="black" points="498,-292 498,-310 713,-310 713,-292 498,-292"/>
<text text-anchor="start" x="501" y="-296.55" font-family="Helvetica,sans-Serif" font-size="11.00">...</text>
<polygon fill="#ffffff" stroke="none" points="498,-274 498,-292 604,-292 604,-274 498,-274"/>
<polygon fill="none" stroke="black" points="498,-274 498,-292 604,-292 604,-274 498,-274"/>
<text text-anchor="start" x="501" y="-278.55" font-family="Helvetica,sans-Serif" font-size="11.00">&lt; 1</text>
<polygon fill="#ffffff" stroke="none" points="604,-274 604,-292 658,-292 658,-274 604,-274"/>
<polygon fill="none" stroke="black" points="604,-274 604,-292 658,-292 658,-274 604,-274"/>
<text text-anchor="start" x="649" y="-278.55" font-family="Helvetica,sans-Serif" font-size="11.00"> &#160;</text>
<polygon fill="#ffffff" stroke="none" points="658,-274 658,-292 713,-292 713,-274 658,-274"/>
<polygon fill="none" stroke="black" points="658,-274 658,-292 713,-292 713,-274 658,-274"/>
<text text-anchor="start" x="704" y="-278.55" font-family="Helvetica,sans-Serif" font-size="11.00"> &#160;</text>
</a>
</g>
</g>
<!-- account_public_tags_requests&#45;&gt;account_identities -->
<g id="edge4" class="edge">
<title>account_public_tags_requests:w&#45;&gt;account_identities:e</title>
<path fill="none" stroke="black" d="M482.02,-295.1C471.3,-283.97 471.03,-261 450.5,-261"/>
<polygon fill="black" stroke="black" points="488.78,-297.85 494.83,-304.21 492.8,-299.49 495.88,-300.75 495.88,-300.75 495.88,-300.75 492.8,-299.49 497.55,-297.54 488.78,-297.85"/>
<ellipse fill="none" stroke="black" cx="484.23" cy="-296" rx="3.2" ry="3.2"/>
</g>
<!-- account_tag_addresses -->
<g id="node6" class="node">
<title>account_tag_addresses</title>
<g id="a_node6"><a xlink:href="../../tables/account_tag_addresses.html" xlink:title="account_tag_addresses" target="_top">
<polygon fill="#ffffff" stroke="none" points="518,-195 518,-253 693,-253 693,-195 518,-195"/>
<polygon fill="#f5f5f5" stroke="none" points="518,-231 518,-253 693,-253 693,-231 518,-231"/>
<polygon fill="none" stroke="black" points="518,-231 518,-253 693,-253 693,-231 518,-231"/>
<text text-anchor="start" x="523" y="-238.55" font-family="Helvetica,sans-Serif" font-weight="bold" font-size="11.00">account_tag_addresses</text>
<text text-anchor="start" x="659" y="-237.55" font-family="Helvetica,sans-Serif" font-size="11.00">[table]</text>
<polygon fill="none" stroke="black" points="518,-213 518,-231 693,-231 693,-213 518,-213"/>
<text text-anchor="start" x="521" y="-217.55" font-family="Helvetica,sans-Serif" font-size="11.00">...</text>
<polygon fill="#ffffff" stroke="none" points="518,-195 518,-213 604,-213 604,-195 518,-195"/>
<polygon fill="none" stroke="black" points="518,-195 518,-213 604,-213 604,-195 518,-195"/>
<text text-anchor="start" x="521" y="-199.55" font-family="Helvetica,sans-Serif" font-size="11.00">&lt; 1</text>
<polygon fill="#ffffff" stroke="none" points="604,-195 604,-213 648,-213 648,-195 604,-195"/>
<polygon fill="none" stroke="black" points="604,-195 604,-213 648,-213 648,-195 604,-195"/>
<text text-anchor="start" x="639" y="-199.55" font-family="Helvetica,sans-Serif" font-size="11.00"> &#160;</text>
<polygon fill="#ffffff" stroke="none" points="648,-195 648,-213 693,-213 693,-195 648,-195"/>
<polygon fill="none" stroke="black" points="648,-195 648,-213 693,-213 693,-195 648,-195"/>
<text text-anchor="start" x="684" y="-199.55" font-family="Helvetica,sans-Serif" font-size="11.00"> &#160;</text>
</a>
</g>
</g>
<!-- account_tag_addresses&#45;&gt;account_identities -->
<g id="edge5" class="edge">
<title>account_tag_addresses:w&#45;&gt;account_identities:e</title>
<path fill="none" stroke="black" d="M501.22,-225.33C482.03,-234.76 478.45,-261 450.5,-261"/>
<polygon fill="black" stroke="black" points="508.36,-223.77 516.94,-225.59 512.59,-222.85 515.85,-222.14 515.85,-222.14 515.85,-222.14 512.59,-222.85 515.41,-218.55 508.36,-223.77"/>
<ellipse fill="none" stroke="black" cx="503.55" cy="-224.82" rx="3.2" ry="3.2"/>
</g>
<!-- account_tag_transactions -->
<g id="node7" class="node">
<title>account_tag_transactions</title>
<g id="a_node7"><a xlink:href="../../tables/account_tag_transactions.html" xlink:title="account_tag_transactions" target="_top">
<polygon fill="#ffffff" stroke="none" points="512,-116 512,-174 699,-174 699,-116 512,-116"/>
<polygon fill="#f5f5f5" stroke="none" points="512,-152 512,-174 699,-174 699,-152 512,-152"/>
<polygon fill="none" stroke="black" points="512,-152 512,-174 699,-174 699,-152 512,-152"/>
<text text-anchor="start" x="517" y="-159.55" font-family="Helvetica,sans-Serif" font-weight="bold" font-size="11.00">account_tag_transactions</text>
<text text-anchor="start" x="665" y="-158.55" font-family="Helvetica,sans-Serif" font-size="11.00">[table]</text>
<polygon fill="none" stroke="black" points="512,-134 512,-152 699,-152 699,-134 512,-134"/>
<text text-anchor="start" x="515" y="-138.55" font-family="Helvetica,sans-Serif" font-size="11.00">...</text>
<polygon fill="#ffffff" stroke="none" points="512,-116 512,-134 604,-134 604,-116 512,-116"/>
<polygon fill="none" stroke="black" points="512,-116 512,-134 604,-134 604,-116 512,-116"/>
<text text-anchor="start" x="515" y="-120.55" font-family="Helvetica,sans-Serif" font-size="11.00">&lt; 1</text>
<polygon fill="#ffffff" stroke="none" points="604,-116 604,-134 651,-134 651,-116 604,-116"/>
<polygon fill="none" stroke="black" points="604,-116 604,-134 651,-134 651,-116 604,-116"/>
<text text-anchor="start" x="642" y="-120.55" font-family="Helvetica,sans-Serif" font-size="11.00"> &#160;</text>
<polygon fill="#ffffff" stroke="none" points="651,-116 651,-134 699,-134 699,-116 651,-116"/>
<polygon fill="none" stroke="black" points="651,-116 651,-134 699,-134 699,-116 651,-116"/>
<text text-anchor="start" x="690" y="-120.55" font-family="Helvetica,sans-Serif" font-size="11.00"> &#160;</text>
</a>
</g>
</g>
<!-- account_tag_transactions&#45;&gt;account_identities -->
<g id="edge6" class="edge">
<title>account_tag_transactions:w&#45;&gt;account_identities:e</title>
<path fill="none" stroke="black" d="M495.5,-146.66C462.53,-166.58 503.13,-261 450.5,-261"/>
<polygon fill="black" stroke="black" points="502.4,-144.98 511.03,-146.58 506.61,-143.95 509.85,-143.16 509.85,-143.16 509.85,-143.16 506.61,-143.95 509.32,-139.58 502.4,-144.98"/>
<ellipse fill="none" stroke="black" cx="497.62" cy="-146.14" rx="3.2" ry="3.2"/>
</g>
<!-- account_watchlists -->
<g id="node8" class="node">
<title>account_watchlists</title>
<g id="a_node8"><a xlink:href="../../tables/account_watchlists.html" xlink:title="account_watchlists" target="_top">
<polygon fill="#ffffff" stroke="none" points="531,-37 531,-95 680,-95 680,-37 531,-37"/>
<polygon fill="#f5f5f5" stroke="none" points="531,-73 531,-95 680,-95 680,-73 531,-73"/>
<polygon fill="none" stroke="black" points="531,-73 531,-95 680,-95 680,-73 531,-73"/>
<text text-anchor="start" x="536" y="-80.55" font-family="Helvetica,sans-Serif" font-weight="bold" font-size="11.00">account_watchlists</text>
<text text-anchor="start" x="646" y="-79.55" font-family="Helvetica,sans-Serif" font-size="11.00">[table]</text>
<polygon fill="none" stroke="black" points="531,-55 531,-73 680,-73 680,-55 531,-55"/>
<text text-anchor="start" x="534" y="-59.55" font-family="Helvetica,sans-Serif" font-size="11.00">...</text>
<polygon fill="#ffffff" stroke="none" points="531,-37 531,-55 599,-55 599,-37 531,-37"/>
<polygon fill="none" stroke="black" points="531,-37 531,-55 599,-55 599,-37 531,-37"/>
<text text-anchor="start" x="534" y="-41.55" font-family="Helvetica,sans-Serif" font-size="11.00">&lt; 1</text>
<polygon fill="#ffffff" stroke="none" points="599,-37 599,-55 635,-55 635,-37 599,-37"/>
<polygon fill="none" stroke="black" points="599,-37 599,-55 635,-55 635,-37 599,-37"/>
<text text-anchor="start" x="626" y="-41.55" font-family="Helvetica,sans-Serif" font-size="11.00"> &#160;</text>
<polygon fill="#ffffff" stroke="none" points="635,-37 635,-55 680,-55 680,-37 635,-37"/>
<polygon fill="none" stroke="black" points="635,-37 635,-55 680,-55 680,-37 635,-37"/>
<text text-anchor="start" x="661.25" y="-41.55" font-family="Helvetica,sans-Serif" font-size="11.00">1 &gt;</text>
</a>
</g>
</g>
<!-- account_watchlists&#45;&gt;account_identities -->
<g id="edge7" class="edge">
<title>account_watchlists:w&#45;&gt;account_identities:e</title>
<path fill="none" stroke="black" d="M514.25,-67.4C502.43,-73.95 499.25,-89.15 490,-106 455.78,-168.32 521.59,-261 450.5,-261"/>
<polygon fill="black" stroke="black" points="521.37,-65.82 529.96,-67.59 525.6,-64.87 528.85,-64.15 528.85,-64.15 528.85,-64.15 525.6,-64.87 528.39,-60.56 521.37,-65.82"/>
<ellipse fill="none" stroke="black" cx="516.57" cy="-66.89" rx="3.2" ry="3.2"/>
</g>
</g>
</svg>
