<?xml version="1.0" encoding="UTF-8" standalone="no"?>
<!DOCTYPE svg PUBLIC "-//W3C//DTD SVG 1.1//EN"
 "http://www.w3.org/Graphics/SVG/1.1/DTD/svg11.dtd">
<!-- Generated by graphviz version 2.43.0 (0)
 -->
<!-- Title: twoDegreesRelationshipsDiagram Pages: 1 -->
<svg width="830pt" height="423pt"
 viewBox="0.00 0.00 830.00 423.00" xmlns="http://www.w3.org/2000/svg" xmlns:xlink="http://www.w3.org/1999/xlink">
<g id="graph0" class="graph" transform="scale(1 1) rotate(0) translate(4 419)">
<title>twoDegreesRelationshipsDiagram</title>
<polygon fill="#ffffff" stroke="transparent" points="-4,4 -4,-419 826,-419 826,4 -4,4"/>
<text text-anchor="middle" x="79.5" y="-7.2" font-family="Helvetica,sans-Serif" font-size="11.00">Generated by SchemaSpy</text>
<!-- account_api_keys -->
<g id="node1" class="node">
<title>account_api_keys</title>
<g id="a_node1"><a xlink:href="../../tables/account_api_keys.html" xlink:title="account_api_keys" target="_top">
<polygon fill="#ffffff" stroke="transparent" points="610.5,-353 610.5,-411 784.5,-411 784.5,-353 610.5,-353"/>
<polygon fill="#f5f5f5" stroke="transparent" points="610.5,-389 610.5,-411 784.5,-411 784.5,-389 610.5,-389"/>
<polygon fill="none" stroke="black" points="610.5,-389 610.5,-411 784.5,-411 784.5,-389 610.5,-389"/>
<text text-anchor="start" x="615.5" y="-398.2" font-family="Helvetica,sans-Serif" font-weight="bold" font-size="11.00">account_api_keys</text>
<text text-anchor="start" x="742.5" y="-397.2" font-family="Helvetica,sans-Serif" font-size="11.00">[table]</text>
<polygon fill="none" stroke="black" points="610.5,-371 610.5,-389 784.5,-389 784.5,-371 610.5,-371"/>
<text text-anchor="start" x="613.5" y="-377.2" font-family="Helvetica,sans-Serif" font-size="11.00">...</text>
<polygon fill="#ffffff" stroke="transparent" points="610.5,-353 610.5,-371 784.5,-371 784.5,-353 610.5,-353"/>
<polygon fill="none" stroke="black" points="610.5,-353 610.5,-371 784.5,-371 784.5,-353 610.5,-353"/>
<polygon fill="#ffffff" stroke="transparent" points="611.5,-354 611.5,-370 677.5,-370 677.5,-354 611.5,-354"/>
<text text-anchor="start" x="613.5" y="-359.2" font-family="Helvetica,sans-Serif" font-size="11.00">&lt; 1</text>
<polygon fill="#ffffff" stroke="transparent" points="677.5,-354 677.5,-370 730.5,-370 730.5,-354 677.5,-354"/>
<text text-anchor="start" x="700" y="-359.2" font-family="Helvetica,sans-Serif" font-size="11.00"> &#160;</text>
<polygon fill="#ffffff" stroke="transparent" points="730.5,-354 730.5,-370 783.5,-370 783.5,-354 730.5,-354"/>
<text text-anchor="start" x="773.5" y="-359.2" font-family="Helvetica,sans-Serif" font-size="11.00"> &#160;</text>
<polygon fill="black" stroke="black" points="677.5,-354 677.5,-370 677.5,-370 677.5,-354 677.5,-354"/>
<polygon fill="black" stroke="black" points="730.5,-354 730.5,-370 730.5,-370 730.5,-354 730.5,-354"/>
</a>
</g>
</g>
<!-- account_identities -->
<g id="node2" class="node">
<title>account_identities</title>
<g id="a_node2"><a xlink:href="../../tables/account_identities.html" xlink:title="account_identities" target="_top">
<polygon fill="#ffffff" stroke="transparent" points="321,-131 321,-255 532,-255 532,-131 321,-131"/>
<polygon fill="#f5f5f5" stroke="transparent" points="321.5,-233 321.5,-255 532.5,-255 532.5,-233 321.5,-233"/>
<polygon fill="none" stroke="black" points="321.5,-233 321.5,-255 532.5,-255 532.5,-233 321.5,-233"/>
<text text-anchor="start" x="326.5" y="-242.2" font-family="Helvetica,sans-Serif" font-weight="bold" font-size="11.00">account_identities</text>
<text text-anchor="start" x="490.5" y="-241.2" font-family="Helvetica,sans-Serif" font-size="11.00">[table]</text>
<polygon fill="none" stroke="black" points="321.5,-211 321.5,-233 532.5,-233 532.5,-211 321.5,-211"/>
<image xlink:href="../../images/primaryKeys.png" width="11px" height="12px" preserveAspectRatio="xMinYMin meet" x="326.5" y="-228"/>
<text text-anchor="start" x="341.5" y="-219.2" font-family="Helvetica,sans-Serif" font-size="11.00">id</text>
<polygon fill="none" stroke="black" points="321.5,-189 321.5,-211 532.5,-211 532.5,-189 321.5,-189"/>
<image xlink:href="../../images/foreignKeys.png" width="11px" height="12px" preserveAspectRatio="xMinYMin meet" x="326.5" y="-206"/>
<text text-anchor="start" x="341.5" y="-197.2" font-family="Helvetica,sans-Serif" font-size="11.00">plan_id</text>
<polygon fill="#ffffff" stroke="transparent" points="321.5,-167 321.5,-189 532.5,-189 532.5,-167 321.5,-167"/>
<polygon fill="none" stroke="black" points="321.5,-167 321.5,-189 532.5,-189 532.5,-167 321.5,-167"/>
<text text-anchor="start" x="341.5" y="-175.2" font-family="Helvetica,sans-Serif" font-size="11.00">uid_hash</text>
<polygon fill="none" stroke="black" points="321.5,-149 321.5,-167 532.5,-167 532.5,-149 321.5,-149"/>
<text text-anchor="start" x="324.5" y="-155.2" font-family="Helvetica,sans-Serif" font-size="11.00">...</text>
<polygon fill="#ffffff" stroke="transparent" points="321.5,-131 321.5,-149 532.5,-149 532.5,-131 321.5,-131"/>
<polygon fill="none" stroke="black" points="321.5,-131 321.5,-149 532.5,-149 532.5,-131 321.5,-131"/>
<polygon fill="#ffffff" stroke="transparent" points="322.5,-132 322.5,-148 396.5,-148 396.5,-132 322.5,-132"/>
<text text-anchor="start" x="324.5" y="-137.2" font-family="Helvetica,sans-Serif" font-size="11.00">&lt; 1</text>
<polygon fill="#ffffff" stroke="transparent" points="396.5,-132 396.5,-148 458.5,-148 458.5,-132 396.5,-132"/>
<text text-anchor="start" x="423.5" y="-137.2" font-family="Helvetica,sans-Serif" font-size="11.00"> &#160;</text>
<polygon fill="#ffffff" stroke="transparent" points="458.5,-132 458.5,-148 531.5,-148 531.5,-132 458.5,-132"/>
<text text-anchor="start" x="509.5" y="-137.2" font-family="Helvetica,sans-Serif" font-size="11.00">5 &gt;</text>
<polygon fill="black" stroke="black" points="396.5,-132 396.5,-148 396.5,-148 396.5,-132 396.5,-132"/>
<polygon fill="black" stroke="black" points="458.5,-132 458.5,-148 458.5,-148 458.5,-132 458.5,-132"/>
</a>
</g>
</g>
<!-- account_api_keys&#45;&gt;account_identities -->
<g id="edge1" class="edge">
<title>account_api_keys:w&#45;&gt;account_identities:e</title>
<path fill="none" stroke="black" d="M594.96,-377.64C542.29,-357.99 605.79,-222 533.5,-222"/>
<polygon fill="black" stroke="black" points="601.6,-378.72 608.92,-383.55 605.55,-379.36 609.5,-380 609.5,-380 609.5,-380 605.55,-379.36 610.08,-376.45 601.6,-378.72 601.6,-378.72"/>
<ellipse fill="none" stroke="black" cx="598.44" cy="-378.21" rx="3.2" ry="3.2"/>
</g>
<!-- account_api_plans -->
<g id="node4" class="node">
<title>account_api_plans</title>
<g id="a_node4"><a xlink:href="../../tables/account_api_plans.html" xlink:title="account_api_plans" target="_top">
<polygon fill="#ffffff" stroke="transparent" points="8,-81 8,-235 272,-235 272,-81 8,-81"/>
<polygon fill="#f5f5f5" stroke="transparent" points="10,-211 10,-233 270,-233 270,-211 10,-211"/>
<polygon fill="none" stroke="black" points="10,-211 10,-233 270,-233 270,-211 10,-211"/>
<text text-anchor="start" x="15" y="-220.2" font-family="Helvetica,sans-Serif" font-weight="bold" font-size="11.00">account_api_plans</text>
<text text-anchor="start" x="228" y="-219.2" font-family="Helvetica,sans-Serif" font-size="11.00">[table]</text>
<polygon fill="none" stroke="black" points="10,-189 10,-211 182,-211 182,-189 10,-189"/>
<image xlink:href="../../images/primaryKeys.png" width="11px" height="12px" preserveAspectRatio="xMinYMin meet" x="15" y="-206"/>
<text text-anchor="start" x="30" y="-197.2" font-family="Helvetica,sans-Serif" font-size="11.00">id</text>
<polygon fill="none" stroke="black" points="182,-189 182,-211 270,-211 270,-189 182,-189"/>
<text text-anchor="start" x="185" y="-197.2" font-family="Helvetica,sans-Serif" font-size="11.00">serial[10]</text>
<polygon fill="#ffffff" stroke="transparent" points="10,-167 10,-189 182,-189 182,-167 10,-167"/>
<polygon fill="none" stroke="black" points="10,-167 10,-189 182,-189 182,-167 10,-167"/>
<text text-anchor="start" x="30" y="-175.2" font-family="Helvetica,sans-Serif" font-size="11.00">max_req_per_second</text>
<polygon fill="none" stroke="black" points="182,-167 182,-189 270,-189 270,-167 182,-167"/>
<text text-anchor="start" x="185" y="-175.2" font-family="Helvetica,sans-Serif" font-size="11.00">int2[5]</text>
<polygon fill="#ffffff" stroke="transparent" points="10,-145 10,-167 182,-167 182,-145 10,-145"/>
<polygon fill="none" stroke="black" points="10,-145 10,-167 182,-167 182,-145 10,-145"/>
<text text-anchor="start" x="30" y="-153.2" font-family="Helvetica,sans-Serif" font-size="11.00">name</text>
<polygon fill="none" stroke="black" points="182,-145 182,-167 270,-167 270,-145 182,-145"/>
<text text-anchor="start" x="185" y="-153.2" font-family="Helvetica,sans-Serif" font-size="11.00">varchar[255]</text>
<polygon fill="none" stroke="black" points="10,-123 10,-145 182,-145 182,-123 10,-123"/>
<text text-anchor="start" x="30" y="-131.2" font-family="Helvetica,sans-Serif" font-size="11.00">inserted_at</text>
<polygon fill="none" stroke="black" points="182,-123 182,-145 270,-145 270,-123 182,-123"/>
<text text-anchor="start" x="185" y="-131.2" font-family="Helvetica,sans-Serif" font-size="11.00">timestamp[22]</text>
<polygon fill="none" stroke="black" points="10,-101 10,-123 182,-123 182,-101 10,-101"/>
<text text-anchor="start" x="30" y="-109.2" font-family="Helvetica,sans-Serif" font-size="11.00">updated_at</text>
<polygon fill="none" stroke="black" points="182,-101 182,-123 270,-123 270,-101 182,-101"/>
<text text-anchor="start" x="185" y="-109.2" font-family="Helvetica,sans-Serif" font-size="11.00">timestamp[22]</text>
<polygon fill="#ffffff" stroke="transparent" points="10,-83 10,-101 270,-101 270,-83 10,-83"/>
<polygon fill="none" stroke="black" points="10,-83 10,-101 270,-101 270,-83 10,-83"/>
<polygon fill="#ffffff" stroke="transparent" points="11,-84 11,-100 101,-100 101,-84 11,-84"/>
<text text-anchor="start" x="13" y="-89.2" font-family="Helvetica,sans-Serif" font-size="11.00">&lt; 0</text>
<polygon fill="#ffffff" stroke="transparent" points="101,-84 101,-100 179,-100 179,-84 101,-84"/>
<text text-anchor="start" x="136" y="-89.2" font-family="Helvetica,sans-Serif" font-size="11.00"> &#160;</text>
<polygon fill="#ffffff" stroke="transparent" points="179,-84 179,-100 269,-100 269,-84 179,-84"/>
<text text-anchor="start" x="247" y="-89.2" font-family="Helvetica,sans-Serif" font-size="11.00">1 &gt;</text>
<polygon fill="black" stroke="black" points="101,-84 101,-100 101,-100 101,-84 101,-84"/>
<polygon fill="black" stroke="black" points="179,-84 179,-100 179,-100 179,-84 179,-84"/>
<polygon fill="none" stroke="black" stroke-width="2" points="9,-82 9,-234 271,-234 271,-82 9,-82"/>
</a>
</g>
</g>
<!-- account_identities&#45;&gt;account_api_plans -->
<g id="edge3" class="edge">
<title>account_identities:w&#45;&gt;account_api_plans:e</title>
<path fill="none" stroke="black" d="M305.84,-200C294.41,-200 287.16,-200 271,-200"/>
<polygon fill="black" stroke="black" points="312.5,-200 320.5,-203.6 316.5,-200 320.5,-200 320.5,-200 320.5,-200 316.5,-200 320.5,-196.4 312.5,-200 312.5,-200"/>
<ellipse fill="none" stroke="black" cx="309.3" cy="-200" rx="3.2" ry="3.2"/>
</g>
<!-- account_custom_abis -->
<g id="node3" class="node">
<title>account_custom_abis</title>
<g id="a_node3"><a xlink:href="../../tables/account_custom_abis.html" xlink:title="account_custom_abis" target="_top">
<polygon fill="#ffffff" stroke="transparent" points="597,-274 597,-332 798,-332 798,-274 597,-274"/>
<polygon fill="#f5f5f5" stroke="transparent" points="597.5,-310 597.5,-332 798.5,-332 798.5,-310 597.5,-310"/>
<polygon fill="none" stroke="black" points="597.5,-310 597.5,-332 798.5,-332 798.5,-310 597.5,-310"/>
<text text-anchor="start" x="602.5" y="-319.2" font-family="Helvetica,sans-Serif" font-weight="bold" font-size="11.00">account_custom_abis</text>
<text text-anchor="start" x="756.5" y="-318.2" font-family="Helvetica,sans-Serif" font-size="11.00">[table]</text>
<polygon fill="none" stroke="black" points="597.5,-292 597.5,-310 798.5,-310 798.5,-292 597.5,-292"/>
<text text-anchor="start" x="600.5" y="-298.2" font-family="Helvetica,sans-Serif" font-size="11.00">...</text>
<polygon fill="#ffffff" stroke="transparent" points="597.5,-274 597.5,-292 798.5,-292 798.5,-274 597.5,-274"/>
<polygon fill="none" stroke="black" points="597.5,-274 597.5,-292 798.5,-292 798.5,-274 597.5,-274"/>
<polygon fill="#ffffff" stroke="transparent" points="598.5,-275 598.5,-291 673.5,-291 673.5,-275 598.5,-275"/>
<text text-anchor="start" x="600.5" y="-280.2" font-family="Helvetica,sans-Serif" font-size="11.00">&lt; 1</text>
<polygon fill="#ffffff" stroke="transparent" points="673.5,-275 673.5,-291 735.5,-291 735.5,-275 673.5,-275"/>
<text text-anchor="start" x="700.5" y="-280.2" font-family="Helvetica,sans-Serif" font-size="11.00"> &#160;</text>
<polygon fill="#ffffff" stroke="transparent" points="735.5,-275 735.5,-291 797.5,-291 797.5,-275 735.5,-275"/>
<text text-anchor="start" x="787.5" y="-280.2" font-family="Helvetica,sans-Serif" font-size="11.00"> &#160;</text>
<polygon fill="black" stroke="black" points="673.5,-275 673.5,-291 673.5,-291 673.5,-275 673.5,-275"/>
<polygon fill="black" stroke="black" points="735.5,-275 735.5,-291 735.5,-291 735.5,-275 735.5,-275"/>
</a>
</g>
</g>
<!-- account_custom_abis&#45;&gt;account_identities -->
<g id="edge2" class="edge">
<title>account_custom_abis:w&#45;&gt;account_identities:e</title>
<path fill="none" stroke="black" d="M582.4,-297.4C557.31,-281.95 572.62,-222 533.5,-222"/>
<polygon fill="black" stroke="black" points="588.75,-299.02 595.61,-304.49 592.62,-300.01 596.5,-301 596.5,-301 596.5,-301 592.62,-300.01 597.39,-297.51 588.75,-299.02 588.75,-299.02"/>
<ellipse fill="none" stroke="black" cx="585.65" cy="-298.23" rx="3.2" ry="3.2"/>
</g>
<!-- account_tag_addresses -->
<g id="node5" class="node">
<title>account_tag_addresses</title>
<g id="a_node5"><a xlink:href="../../tables/account_tag_addresses.html" xlink:title="account_tag_addresses" target="_top">
<polygon fill="#ffffff" stroke="transparent" points="589.5,-195 589.5,-253 805.5,-253 805.5,-195 589.5,-195"/>
<polygon fill="#f5f5f5" stroke="transparent" points="589.5,-231 589.5,-253 805.5,-253 805.5,-231 589.5,-231"/>
<polygon fill="none" stroke="black" points="589.5,-231 589.5,-253 805.5,-253 805.5,-231 589.5,-231"/>
<text text-anchor="start" x="594.5" y="-240.2" font-family="Helvetica,sans-Serif" font-weight="bold" font-size="11.00">account_tag_addresses</text>
<text text-anchor="start" x="763.5" y="-239.2" font-family="Helvetica,sans-Serif" font-size="11.00">[table]</text>
<polygon fill="none" stroke="black" points="589.5,-213 589.5,-231 805.5,-231 805.5,-213 589.5,-213"/>
<text text-anchor="start" x="592.5" y="-219.2" font-family="Helvetica,sans-Serif" font-size="11.00">...</text>
<polygon fill="#ffffff" stroke="transparent" points="589.5,-195 589.5,-213 805.5,-213 805.5,-195 589.5,-195"/>
<polygon fill="none" stroke="black" points="589.5,-195 589.5,-213 805.5,-213 805.5,-195 589.5,-195"/>
<polygon fill="#ffffff" stroke="transparent" points="590.5,-196 590.5,-212 670.5,-212 670.5,-196 590.5,-196"/>
<text text-anchor="start" x="592.5" y="-201.2" font-family="Helvetica,sans-Serif" font-size="11.00">&lt; 1</text>
<polygon fill="#ffffff" stroke="transparent" points="670.5,-196 670.5,-212 737.5,-212 737.5,-196 670.5,-196"/>
<text text-anchor="start" x="700" y="-201.2" font-family="Helvetica,sans-Serif" font-size="11.00"> &#160;</text>
<polygon fill="#ffffff" stroke="transparent" points="737.5,-196 737.5,-212 804.5,-212 804.5,-196 737.5,-196"/>
<text text-anchor="start" x="794.5" y="-201.2" font-family="Helvetica,sans-Serif" font-size="11.00"> &#160;</text>
<polygon fill="black" stroke="black" points="670.5,-196 670.5,-212 670.5,-212 670.5,-196 670.5,-196"/>
<polygon fill="black" stroke="black" points="737.5,-196 737.5,-212 737.5,-212 737.5,-196 737.5,-196"/>
</a>
</g>
</g>
<!-- account_tag_addresses&#45;&gt;account_identities -->
<g id="edge4" class="edge">
<title>account_tag_addresses:w&#45;&gt;account_identities:e</title>
<path fill="none" stroke="black" d="M573.86,-222C560.18,-222 552.22,-222 533.5,-222"/>
<polygon fill="black" stroke="black" points="580.5,-222 588.5,-225.6 584.5,-222 588.5,-222 588.5,-222 588.5,-222 584.5,-222 588.5,-218.4 580.5,-222 580.5,-222"/>
<ellipse fill="none" stroke="black" cx="577.3" cy="-222" rx="3.2" ry="3.2"/>
</g>
<!-- account_tag_transactions -->
<g id="node6" class="node">
<title>account_tag_transactions</title>
<g id="a_node6"><a xlink:href="../../tables/account_tag_transactions.html" xlink:title="account_tag_transactions" target="_top">
<polygon fill="#ffffff" stroke="transparent" points="581,-116 581,-174 814,-174 814,-116 581,-116"/>
<polygon fill="#f5f5f5" stroke="transparent" points="581.5,-152 581.5,-174 814.5,-174 814.5,-152 581.5,-152"/>
<polygon fill="none" stroke="black" points="581.5,-152 581.5,-174 814.5,-174 814.5,-152 581.5,-152"/>
<text text-anchor="start" x="586.5" y="-161.2" font-family="Helvetica,sans-Serif" font-weight="bold" font-size="11.00">account_tag_transactions</text>
<text text-anchor="start" x="772.5" y="-160.2" font-family="Helvetica,sans-Serif" font-size="11.00">[table]</text>
<polygon fill="none" stroke="black" points="581.5,-134 581.5,-152 814.5,-152 814.5,-134 581.5,-134"/>
<text text-anchor="start" x="584.5" y="-140.2" font-family="Helvetica,sans-Serif" font-size="11.00">...</text>
<polygon fill="#ffffff" stroke="transparent" points="581.5,-116 581.5,-134 814.5,-134 814.5,-116 581.5,-116"/>
<polygon fill="none" stroke="black" points="581.5,-116 581.5,-134 814.5,-134 814.5,-116 581.5,-116"/>
<polygon fill="#ffffff" stroke="transparent" points="582.5,-117 582.5,-133 667.5,-133 667.5,-117 582.5,-117"/>
<text text-anchor="start" x="584.5" y="-122.2" font-family="Helvetica,sans-Serif" font-size="11.00">&lt; 1</text>
<polygon fill="#ffffff" stroke="transparent" points="667.5,-117 667.5,-133 740.5,-133 740.5,-117 667.5,-117"/>
<text text-anchor="start" x="700" y="-122.2" font-family="Helvetica,sans-Serif" font-size="11.00"> &#160;</text>
<polygon fill="#ffffff" stroke="transparent" points="740.5,-117 740.5,-133 813.5,-133 813.5,-117 740.5,-117"/>
<text text-anchor="start" x="803.5" y="-122.2" font-family="Helvetica,sans-Serif" font-size="11.00"> &#160;</text>
<polygon fill="black" stroke="black" points="667.5,-117 667.5,-133 667.5,-133 667.5,-117 667.5,-117"/>
<polygon fill="black" stroke="black" points="740.5,-117 740.5,-133 740.5,-133 740.5,-117 740.5,-117"/>
</a>
</g>
</g>
<!-- account_tag_transactions&#45;&gt;account_identities -->
<g id="edge5" class="edge">
<title>account_tag_transactions:w&#45;&gt;account_identities:e</title>
<path fill="none" stroke="black" d="M566.81,-147.71C548.28,-164.71 568.29,-222 533.5,-222"/>
<polygon fill="black" stroke="black" points="572.93,-145.6 581.67,-146.4 576.72,-144.3 580.5,-143 580.5,-143 580.5,-143 576.72,-144.3 579.33,-139.6 572.93,-145.6 572.93,-145.6"/>
<ellipse fill="none" stroke="black" cx="569.91" cy="-146.64" rx="3.2" ry="3.2"/>
</g>
<!-- account_watchlists -->
<g id="node7" class="node">
<title>account_watchlists</title>
<g id="a_node7"><a xlink:href="../../tables/account_watchlists.html" xlink:title="account_watchlists" target="_top">
<polygon fill="#ffffff" stroke="transparent" points="605,-37 605,-95 790,-95 790,-37 605,-37"/>
<polygon fill="#f5f5f5" stroke="transparent" points="605.5,-73 605.5,-95 790.5,-95 790.5,-73 605.5,-73"/>
<polygon fill="none" stroke="black" points="605.5,-73 605.5,-95 790.5,-95 790.5,-73 605.5,-73"/>
<text text-anchor="start" x="610.5" y="-82.2" font-family="Helvetica,sans-Serif" font-weight="bold" font-size="11.00">account_watchlists</text>
<text text-anchor="start" x="748.5" y="-81.2" font-family="Helvetica,sans-Serif" font-size="11.00">[table]</text>
<polygon fill="none" stroke="black" points="605.5,-55 605.5,-73 790.5,-73 790.5,-55 605.5,-55"/>
<text text-anchor="start" x="608.5" y="-61.2" font-family="Helvetica,sans-Serif" font-size="11.00">...</text>
<polygon fill="#ffffff" stroke="transparent" points="605.5,-37 605.5,-55 790.5,-55 790.5,-37 605.5,-37"/>
<polygon fill="none" stroke="black" points="605.5,-37 605.5,-55 790.5,-55 790.5,-37 605.5,-37"/>
<polygon fill="#ffffff" stroke="transparent" points="606.5,-38 606.5,-54 671.5,-54 671.5,-38 606.5,-38"/>
<text text-anchor="start" x="608.5" y="-43.2" font-family="Helvetica,sans-Serif" font-size="11.00">&lt; 1</text>
<polygon fill="#ffffff" stroke="transparent" points="671.5,-38 671.5,-54 724.5,-54 724.5,-38 671.5,-38"/>
<text text-anchor="start" x="694" y="-43.2" font-family="Helvetica,sans-Serif" font-size="11.00"> &#160;</text>
<polygon fill="#ffffff" stroke="transparent" points="724.5,-38 724.5,-54 789.5,-54 789.5,-38 724.5,-38"/>
<text text-anchor="start" x="767.5" y="-43.2" font-family="Helvetica,sans-Serif" font-size="11.00">1 &gt;</text>
<polygon fill="black" stroke="black" points="671.5,-38 671.5,-54 671.5,-54 671.5,-38 671.5,-38"/>
<polygon fill="black" stroke="black" points="724.5,-38 724.5,-54 724.5,-54 724.5,-38 724.5,-38"/>
</a>
</g>
</g>
<!-- account_watchlists&#45;&gt;account_identities -->
<g id="edge6" class="edge">
<title>account_watchlists:w&#45;&gt;account_identities:e</title>
<path fill="none" stroke="black" d="M590.19,-66.36C538.67,-86.01 604.92,-222 533.5,-222"/>
<polygon fill="black" stroke="black" points="596.61,-65.3 605.09,-67.55 600.55,-64.65 604.5,-64 604.5,-64 604.5,-64 600.55,-64.65 603.91,-60.45 596.61,-65.3 596.61,-65.3"/>
<ellipse fill="none" stroke="black" cx="593.45" cy="-65.82" rx="3.2" ry="3.2"/>
</g>
</g>
</svg>
