<?xml version="1.0" encoding="UTF-8" standalone="no"?>
<!DOCTYPE svg PUBLIC "-//W3C//DTD SVG 1.1//EN"
 "http://www.w3.org/Graphics/SVG/1.1/DTD/svg11.dtd">
<!-- Generated by graphviz version 2.43.0 (0)
 -->
<!-- Title: twoDegreesRelationshipsDiagram Pages: 1 -->
<svg width="806pt" height="607pt"
 viewBox="0.00 0.00 806.00 607.00" xmlns="http://www.w3.org/2000/svg" xmlns:xlink="http://www.w3.org/1999/xlink">
<g id="graph0" class="graph" transform="scale(1 1) rotate(0) translate(4 603)">
<title>twoDegreesRelationshipsDiagram</title>
<polygon fill="#ffffff" stroke="transparent" points="-4,4 -4,-603 802,-603 802,4 -4,4"/>
<text text-anchor="middle" x="79.5" y="-7.2" font-family="Helvetica,sans-Serif" font-size="11.00">Generated by SchemaSpy</text>
<!-- account_api_keys -->
<g id="node1" class="node">
<title>account_api_keys</title>
<g id="a_node1"><a xlink:href="../../tables/account_api_keys.html" xlink:title="account_api_keys" target="_top">
<polygon fill="#ffffff" stroke="transparent" points="556,-537 556,-595 730,-595 730,-537 556,-537"/>
<polygon fill="#f5f5f5" stroke="transparent" points="556,-573 556,-595 730,-595 730,-573 556,-573"/>
<polygon fill="none" stroke="black" points="556,-573 556,-595 730,-595 730,-573 556,-573"/>
<text text-anchor="start" x="561" y="-582.2" font-family="Helvetica,sans-Serif" font-weight="bold" font-size="11.00">account_api_keys</text>
<text text-anchor="start" x="688" y="-581.2" font-family="Helvetica,sans-Serif" font-size="11.00">[table]</text>
<polygon fill="none" stroke="black" points="556,-555 556,-573 730,-573 730,-555 556,-555"/>
<text text-anchor="start" x="559" y="-561.2" font-family="Helvetica,sans-Serif" font-size="11.00">...</text>
<polygon fill="#ffffff" stroke="transparent" points="556,-537 556,-555 730,-555 730,-537 556,-537"/>
<polygon fill="none" stroke="black" points="556,-537 556,-555 730,-555 730,-537 556,-537"/>
<polygon fill="#ffffff" stroke="transparent" points="557,-538 557,-554 623,-554 623,-538 557,-538"/>
<text text-anchor="start" x="559" y="-543.2" font-family="Helvetica,sans-Serif" font-size="11.00">&lt; 1</text>
<polygon fill="#ffffff" stroke="transparent" points="623,-538 623,-554 676,-554 676,-538 623,-538"/>
<text text-anchor="start" x="645.5" y="-543.2" font-family="Helvetica,sans-Serif" font-size="11.00"> &#160;</text>
<polygon fill="#ffffff" stroke="transparent" points="676,-538 676,-554 729,-554 729,-538 676,-538"/>
<text text-anchor="start" x="719" y="-543.2" font-family="Helvetica,sans-Serif" font-size="11.00"> &#160;</text>
<polygon fill="black" stroke="black" points="623,-538 623,-554 623,-554 623,-538 623,-538"/>
<polygon fill="black" stroke="black" points="676,-538 676,-554 676,-554 676,-538 676,-538"/>
</a>
</g>
</g>
<!-- account_identities -->
<g id="node2" class="node">
<title>account_identities</title>
<g id="a_node2"><a xlink:href="../../tables/account_identities.html" xlink:title="account_identities" target="_top">
<polygon fill="#ffffff" stroke="transparent" points="236,-131 236,-255 447,-255 447,-131 236,-131"/>
<polygon fill="#f5f5f5" stroke="transparent" points="236.5,-233 236.5,-255 447.5,-255 447.5,-233 236.5,-233"/>
<polygon fill="none" stroke="black" points="236.5,-233 236.5,-255 447.5,-255 447.5,-233 236.5,-233"/>
<text text-anchor="start" x="241.5" y="-242.2" font-family="Helvetica,sans-Serif" font-weight="bold" font-size="11.00">account_identities</text>
<text text-anchor="start" x="405.5" y="-241.2" font-family="Helvetica,sans-Serif" font-size="11.00">[table]</text>
<polygon fill="none" stroke="black" points="236.5,-211 236.5,-233 447.5,-233 447.5,-211 236.5,-211"/>
<image xlink:href="../../images/primaryKeys.png" width="11px" height="12px" preserveAspectRatio="xMinYMin meet" x="241.5" y="-228"/>
<text text-anchor="start" x="256.5" y="-219.2" font-family="Helvetica,sans-Serif" font-size="11.00">id</text>
<polygon fill="none" stroke="black" points="236.5,-189 236.5,-211 447.5,-211 447.5,-189 236.5,-189"/>
<image xlink:href="../../images/foreignKeys.png" width="11px" height="12px" preserveAspectRatio="xMinYMin meet" x="241.5" y="-206"/>
<text text-anchor="start" x="256.5" y="-197.2" font-family="Helvetica,sans-Serif" font-size="11.00">plan_id</text>
<polygon fill="#ffffff" stroke="transparent" points="236.5,-167 236.5,-189 447.5,-189 447.5,-167 236.5,-167"/>
<polygon fill="none" stroke="black" points="236.5,-167 236.5,-189 447.5,-189 447.5,-167 236.5,-167"/>
<text text-anchor="start" x="256.5" y="-175.2" font-family="Helvetica,sans-Serif" font-size="11.00">uid_hash</text>
<polygon fill="none" stroke="black" points="236.5,-149 236.5,-167 447.5,-167 447.5,-149 236.5,-149"/>
<text text-anchor="start" x="239.5" y="-155.2" font-family="Helvetica,sans-Serif" font-size="11.00">...</text>
<polygon fill="#ffffff" stroke="transparent" points="236.5,-131 236.5,-149 447.5,-149 447.5,-131 236.5,-131"/>
<polygon fill="none" stroke="black" points="236.5,-131 236.5,-149 447.5,-149 447.5,-131 236.5,-131"/>
<polygon fill="#ffffff" stroke="transparent" points="237.5,-132 237.5,-148 311.5,-148 311.5,-132 237.5,-132"/>
<text text-anchor="start" x="239.5" y="-137.2" font-family="Helvetica,sans-Serif" font-size="11.00">&lt; 1</text>
<polygon fill="#ffffff" stroke="transparent" points="311.5,-132 311.5,-148 373.5,-148 373.5,-132 311.5,-132"/>
<text text-anchor="start" x="338.5" y="-137.2" font-family="Helvetica,sans-Serif" font-size="11.00"> &#160;</text>
<polygon fill="#ffffff" stroke="transparent" points="373.5,-132 373.5,-148 446.5,-148 446.5,-132 373.5,-132"/>
<text text-anchor="start" x="424.5" y="-137.2" font-family="Helvetica,sans-Serif" font-size="11.00">5 &gt;</text>
<polygon fill="black" stroke="black" points="311.5,-132 311.5,-148 311.5,-148 311.5,-132 311.5,-132"/>
<polygon fill="black" stroke="black" points="373.5,-132 373.5,-148 373.5,-148 373.5,-132 373.5,-132"/>
</a>
</g>
</g>
<!-- account_api_keys&#45;&gt;account_identities -->
<g id="edge1" class="edge">
<title>account_api_keys:w&#45;&gt;account_identities:e</title>
<path fill="none" stroke="black" d="M540.43,-563.31C516.53,-560.76 504.15,-550.73 488,-527 449.55,-470.5 516.84,-222 448.5,-222"/>
<polygon fill="black" stroke="black" points="547.01,-563.62 554.83,-567.6 551,-563.81 555,-564 555,-564 555,-564 551,-563.81 555.17,-560.4 547.01,-563.62 547.01,-563.62"/>
<ellipse fill="none" stroke="black" cx="543.81" cy="-563.47" rx="3.2" ry="3.2"/>
</g>
<!-- account_api_plans -->
<g id="node4" class="node">
<title>account_api_plans</title>
<g id="a_node4"><a xlink:href="../../tables/account_api_plans.html" xlink:title="account_api_plans" target="_top">
<polygon fill="#ffffff" stroke="transparent" points="8,-173 8,-231 187,-231 187,-173 8,-173"/>
<polygon fill="#f5f5f5" stroke="transparent" points="8.5,-209 8.5,-231 187.5,-231 187.5,-209 8.5,-209"/>
<polygon fill="none" stroke="black" points="8.5,-209 8.5,-231 187.5,-231 187.5,-209 8.5,-209"/>
<text text-anchor="start" x="13.5" y="-218.2" font-family="Helvetica,sans-Serif" font-weight="bold" font-size="11.00">account_api_plans</text>
<text text-anchor="start" x="145.5" y="-217.2" font-family="Helvetica,sans-Serif" font-size="11.00">[table]</text>
<polygon fill="none" stroke="black" points="8.5,-191 8.5,-209 187.5,-209 187.5,-191 8.5,-191"/>
<text text-anchor="start" x="11.5" y="-197.2" font-family="Helvetica,sans-Serif" font-size="11.00">...</text>
<polygon fill="#ffffff" stroke="transparent" points="8.5,-173 8.5,-191 187.5,-191 187.5,-173 8.5,-173"/>
<polygon fill="none" stroke="black" points="8.5,-173 8.5,-191 187.5,-191 187.5,-173 8.5,-173"/>
<polygon fill="#ffffff" stroke="transparent" points="9.5,-174 9.5,-190 64.5,-190 64.5,-174 9.5,-174"/>
<text text-anchor="start" x="11.5" y="-179.2" font-family="Helvetica,sans-Serif" font-size="11.00"> &#160;</text>
<polygon fill="#ffffff" stroke="transparent" points="64.5,-174 64.5,-190 119.5,-190 119.5,-174 64.5,-174"/>
<text text-anchor="start" x="88" y="-179.2" font-family="Helvetica,sans-Serif" font-size="11.00"> &#160;</text>
<polygon fill="#ffffff" stroke="transparent" points="119.5,-174 119.5,-190 186.5,-190 186.5,-174 119.5,-174"/>
<text text-anchor="start" x="164.5" y="-179.2" font-family="Helvetica,sans-Serif" font-size="11.00">1 &gt;</text>
<polygon fill="black" stroke="black" points="64.5,-174 64.5,-190 64.5,-190 64.5,-174 64.5,-174"/>
<polygon fill="black" stroke="black" points="119.5,-174 119.5,-190 119.5,-190 119.5,-174 119.5,-174"/>
</a>
</g>
</g>
<!-- account_identities&#45;&gt;account_api_plans -->
<g id="edge3" class="edge">
<title>account_identities:w&#45;&gt;account_api_plans:e</title>
<path fill="none" stroke="black" d="M220.9,-200C210.43,-200 203.51,-200 188.5,-200"/>
<polygon fill="black" stroke="black" points="227.5,-200 235.5,-203.6 231.5,-200 235.5,-200 235.5,-200 235.5,-200 231.5,-200 235.5,-196.4 227.5,-200 227.5,-200"/>
<ellipse fill="none" stroke="black" cx="224.3" cy="-200" rx="3.2" ry="3.2"/>
</g>
<!-- account_custom_abis -->
<g id="node3" class="node">
<title>account_custom_abis</title>
<g id="a_node3"><a xlink:href="../../tables/account_custom_abis.html" xlink:title="account_custom_abis" target="_top">
<polygon fill="#ffffff" stroke="transparent" points="496,-274 496,-516 790,-516 790,-274 496,-274"/>
<polygon fill="#f5f5f5" stroke="transparent" points="498,-492 498,-514 788,-514 788,-492 498,-492"/>
<polygon fill="none" stroke="black" points="498,-492 498,-514 788,-514 788,-492 498,-492"/>
<text text-anchor="start" x="503" y="-501.2" font-family="Helvetica,sans-Serif" font-weight="bold" font-size="11.00">account_custom_abis</text>
<text text-anchor="start" x="746" y="-500.2" font-family="Helvetica,sans-Serif" font-size="11.00">[table]</text>
<polygon fill="none" stroke="black" points="498,-470 498,-492 673,-492 673,-470 498,-470"/>
<image xlink:href="../../images/primaryKeys.png" width="11px" height="12px" preserveAspectRatio="xMinYMin meet" x="503" y="-487"/>
<text text-anchor="start" x="518" y="-478.2" font-family="Helvetica,sans-Serif" font-size="11.00">id</text>
<polygon fill="none" stroke="black" points="673,-470 673,-492 788,-492 788,-470 673,-470"/>
<text text-anchor="start" x="676" y="-478.2" font-family="Helvetica,sans-Serif" font-size="11.00">serial[10]</text>
<polygon fill="#ffffff" stroke="transparent" points="498,-448 498,-470 673,-470 673,-448 498,-448"/>
<polygon fill="none" stroke="black" points="498,-448 498,-470 673,-470 673,-448 498,-448"/>
<image xlink:href="../../images/foreignKeys.png" width="11px" height="12px" preserveAspectRatio="xMinYMin meet" x="503" y="-465"/>
<text text-anchor="start" x="518" y="-456.2" font-family="Helvetica,sans-Serif" font-size="11.00">identity_id</text>
<polygon fill="none" stroke="black" points="673,-448 673,-470 788,-470 788,-448 673,-448"/>
<text text-anchor="start" x="676" y="-456.2" font-family="Helvetica,sans-Serif" font-size="11.00">int8[19]</text>
<polygon fill="none" stroke="black" points="498,-426 498,-448 673,-448 673,-426 498,-426"/>
<text text-anchor="start" x="518" y="-434.2" font-family="Helvetica,sans-Serif" font-size="11.00">abi</text>
<polygon fill="none" stroke="black" points="673,-426 673,-448 788,-448 788,-426 673,-426"/>
<text text-anchor="start" x="676" y="-434.2" font-family="Helvetica,sans-Serif" font-size="11.00">jsonb[2147483647]</text>
<polygon fill="none" stroke="black" points="498,-404 498,-426 673,-426 673,-404 498,-404"/>
<text text-anchor="start" x="518" y="-412.2" font-family="Helvetica,sans-Serif" font-size="11.00">inserted_at</text>
<polygon fill="none" stroke="black" points="673,-404 673,-426 788,-426 788,-404 673,-404"/>
<text text-anchor="start" x="676" y="-412.2" font-family="Helvetica,sans-Serif" font-size="11.00">timestamp[22]</text>
<polygon fill="none" stroke="black" points="498,-382 498,-404 673,-404 673,-382 498,-382"/>
<text text-anchor="start" x="518" y="-390.2" font-family="Helvetica,sans-Serif" font-size="11.00">updated_at</text>
<polygon fill="none" stroke="black" points="673,-382 673,-404 788,-404 788,-382 673,-382"/>
<text text-anchor="start" x="676" y="-390.2" font-family="Helvetica,sans-Serif" font-size="11.00">timestamp[22]</text>
<polygon fill="#ffffff" stroke="transparent" points="498,-360 498,-382 673,-382 673,-360 498,-360"/>
<polygon fill="none" stroke="black" points="498,-360 498,-382 673,-382 673,-360 498,-360"/>
<text text-anchor="start" x="518" y="-368.2" font-family="Helvetica,sans-Serif" font-size="11.00">address_hash_hash</text>
<polygon fill="none" stroke="black" points="673,-360 673,-382 788,-382 788,-360 673,-360"/>
<text text-anchor="start" x="676" y="-368.2" font-family="Helvetica,sans-Serif" font-size="11.00">bytea[2147483647]</text>
<polygon fill="none" stroke="black" points="498,-338 498,-360 673,-360 673,-338 498,-338"/>
<text text-anchor="start" x="518" y="-346.2" font-family="Helvetica,sans-Serif" font-size="11.00">address_hash</text>
<polygon fill="none" stroke="black" points="673,-338 673,-360 788,-360 788,-338 673,-338"/>
<text text-anchor="start" x="676" y="-346.2" font-family="Helvetica,sans-Serif" font-size="11.00">bytea[2147483647]</text>
<polygon fill="none" stroke="black" points="498,-316 498,-338 673,-338 673,-316 498,-316"/>
<text text-anchor="start" x="518" y="-324.2" font-family="Helvetica,sans-Serif" font-size="11.00">name</text>
<polygon fill="none" stroke="black" points="673,-316 673,-338 788,-338 788,-316 673,-316"/>
<text text-anchor="start" x="676" y="-324.2" font-family="Helvetica,sans-Serif" font-size="11.00">bytea[2147483647]</text>
<polygon fill="none" stroke="black" points="498,-294 498,-316 673,-316 673,-294 498,-294"/>
<text text-anchor="start" x="518" y="-302.2" font-family="Helvetica,sans-Serif" font-size="11.00">user_created</text>
<polygon fill="none" stroke="black" points="673,-294 673,-316 788,-316 788,-294 673,-294"/>
<text text-anchor="start" x="676" y="-302.2" font-family="Helvetica,sans-Serif" font-size="11.00">bool[1]</text>
<polygon fill="#ffffff" stroke="transparent" points="498,-276 498,-294 788,-294 788,-276 498,-276"/>
<polygon fill="none" stroke="black" points="498,-276 498,-294 788,-294 788,-276 498,-276"/>
<polygon fill="#ffffff" stroke="transparent" points="499,-277 499,-293 599,-293 599,-277 499,-277"/>
<text text-anchor="start" x="501" y="-282.2" font-family="Helvetica,sans-Serif" font-size="11.00">&lt; 1</text>
<polygon fill="#ffffff" stroke="transparent" points="599,-277 599,-293 687,-293 687,-277 599,-277"/>
<text text-anchor="start" x="639" y="-282.2" font-family="Helvetica,sans-Serif" font-size="11.00"> &#160;</text>
<polygon fill="#ffffff" stroke="transparent" points="687,-277 687,-293 787,-293 787,-277 687,-277"/>
<text text-anchor="start" x="765" y="-282.2" font-family="Helvetica,sans-Serif" font-size="11.00">0 &gt;</text>
<polygon fill="black" stroke="black" points="599,-277 599,-293 599,-293 599,-277 599,-277"/>
<polygon fill="black" stroke="black" points="687,-277 687,-293 687,-293 687,-277 687,-277"/>
<polygon fill="none" stroke="black" stroke-width="2" points="497,-275 497,-515 789,-515 789,-275 497,-275"/>
</a>
</g>
</g>
<!-- account_custom_abis&#45;&gt;account_identities -->
<g id="edge2" class="edge">
<title>account_custom_abis:w&#45;&gt;account_identities:e</title>
<path fill="none" stroke="black" d="M482.67,-457.23C405.69,-435.54 550.56,-222 448.5,-222"/>
<polygon fill="black" stroke="black" points="489.06,-458.02 496.56,-462.57 493.03,-458.51 497,-459 497,-459 497,-459 493.03,-458.51 497.44,-455.43 489.06,-458.02 489.06,-458.02"/>
<ellipse fill="none" stroke="black" cx="485.88" cy="-457.63" rx="3.2" ry="3.2"/>
</g>
<!-- account_tag_addresses -->
<g id="node5" class="node">
<title>account_tag_addresses</title>
<g id="a_node5"><a xlink:href="../../tables/account_tag_addresses.html" xlink:title="account_tag_addresses" target="_top">
<polygon fill="#ffffff" stroke="transparent" points="535,-195 535,-253 751,-253 751,-195 535,-195"/>
<polygon fill="#f5f5f5" stroke="transparent" points="535,-231 535,-253 751,-253 751,-231 535,-231"/>
<polygon fill="none" stroke="black" points="535,-231 535,-253 751,-253 751,-231 535,-231"/>
<text text-anchor="start" x="540" y="-240.2" font-family="Helvetica,sans-Serif" font-weight="bold" font-size="11.00">account_tag_addresses</text>
<text text-anchor="start" x="709" y="-239.2" font-family="Helvetica,sans-Serif" font-size="11.00">[table]</text>
<polygon fill="none" stroke="black" points="535,-213 535,-231 751,-231 751,-213 535,-213"/>
<text text-anchor="start" x="538" y="-219.2" font-family="Helvetica,sans-Serif" font-size="11.00">...</text>
<polygon fill="#ffffff" stroke="transparent" points="535,-195 535,-213 751,-213 751,-195 535,-195"/>
<polygon fill="none" stroke="black" points="535,-195 535,-213 751,-213 751,-195 535,-195"/>
<polygon fill="#ffffff" stroke="transparent" points="536,-196 536,-212 616,-212 616,-196 536,-196"/>
<text text-anchor="start" x="538" y="-201.2" font-family="Helvetica,sans-Serif" font-size="11.00">&lt; 1</text>
<polygon fill="#ffffff" stroke="transparent" points="616,-196 616,-212 683,-212 683,-196 616,-196"/>
<text text-anchor="start" x="645.5" y="-201.2" font-family="Helvetica,sans-Serif" font-size="11.00"> &#160;</text>
<polygon fill="#ffffff" stroke="transparent" points="683,-196 683,-212 750,-212 750,-196 683,-196"/>
<text text-anchor="start" x="740" y="-201.2" font-family="Helvetica,sans-Serif" font-size="11.00"> &#160;</text>
<polygon fill="black" stroke="black" points="616,-196 616,-212 616,-212 616,-196 616,-196"/>
<polygon fill="black" stroke="black" points="683,-196 683,-212 683,-212 683,-196 683,-196"/>
</a>
</g>
</g>
<!-- account_tag_addresses&#45;&gt;account_identities -->
<g id="edge4" class="edge">
<title>account_tag_addresses:w&#45;&gt;account_identities:e</title>
<path fill="none" stroke="black" d="M519.5,-222C492.76,-222 481.16,-222 448.5,-222"/>
<polygon fill="black" stroke="black" points="526,-222 534,-225.6 530,-222 534,-222 534,-222 534,-222 530,-222 534,-218.4 526,-222 526,-222"/>
<ellipse fill="none" stroke="black" cx="522.8" cy="-222" rx="3.2" ry="3.2"/>
</g>
<!-- account_tag_transactions -->
<g id="node6" class="node">
<title>account_tag_transactions</title>
<g id="a_node6"><a xlink:href="../../tables/account_tag_transactions.html" xlink:title="account_tag_transactions" target="_top">
<polygon fill="#ffffff" stroke="transparent" points="526.5,-116 526.5,-174 759.5,-174 759.5,-116 526.5,-116"/>
<polygon fill="#f5f5f5" stroke="transparent" points="527,-152 527,-174 760,-174 760,-152 527,-152"/>
<polygon fill="none" stroke="black" points="527,-152 527,-174 760,-174 760,-152 527,-152"/>
<text text-anchor="start" x="532" y="-161.2" font-family="Helvetica,sans-Serif" font-weight="bold" font-size="11.00">account_tag_transactions</text>
<text text-anchor="start" x="718" y="-160.2" font-family="Helvetica,sans-Serif" font-size="11.00">[table]</text>
<polygon fill="none" stroke="black" points="527,-134 527,-152 760,-152 760,-134 527,-134"/>
<text text-anchor="start" x="530" y="-140.2" font-family="Helvetica,sans-Serif" font-size="11.00">...</text>
<polygon fill="#ffffff" stroke="transparent" points="527,-116 527,-134 760,-134 760,-116 527,-116"/>
<polygon fill="none" stroke="black" points="527,-116 527,-134 760,-134 760,-116 527,-116"/>
<polygon fill="#ffffff" stroke="transparent" points="528,-117 528,-133 613,-133 613,-117 528,-117"/>
<text text-anchor="start" x="530" y="-122.2" font-family="Helvetica,sans-Serif" font-size="11.00">&lt; 1</text>
<polygon fill="#ffffff" stroke="transparent" points="613,-117 613,-133 686,-133 686,-117 613,-117"/>
<text text-anchor="start" x="645.5" y="-122.2" font-family="Helvetica,sans-Serif" font-size="11.00"> &#160;</text>
<polygon fill="#ffffff" stroke="transparent" points="686,-117 686,-133 759,-133 759,-117 686,-117"/>
<text text-anchor="start" x="749" y="-122.2" font-family="Helvetica,sans-Serif" font-size="11.00"> &#160;</text>
<polygon fill="black" stroke="black" points="613,-117 613,-133 613,-133 613,-117 613,-117"/>
<polygon fill="black" stroke="black" points="686,-117 686,-133 686,-133 686,-117 686,-117"/>
</a>
</g>
</g>
<!-- account_tag_transactions&#45;&gt;account_identities -->
<g id="edge5" class="edge">
<title>account_tag_transactions:w&#45;&gt;account_identities:e</title>
<path fill="none" stroke="black" d="M511.78,-145.81C480.64,-159.88 492.11,-222 448.5,-222"/>
<polygon fill="black" stroke="black" points="518.15,-144.55 526.7,-146.53 522.08,-143.78 526,-143 526,-143 526,-143 522.08,-143.78 525.3,-139.47 518.15,-144.55 518.15,-144.55"/>
<ellipse fill="none" stroke="black" cx="515.01" cy="-145.17" rx="3.2" ry="3.2"/>
</g>
<!-- account_watchlists -->
<g id="node7" class="node">
<title>account_watchlists</title>
<g id="a_node7"><a xlink:href="../../tables/account_watchlists.html" xlink:title="account_watchlists" target="_top">
<polygon fill="#ffffff" stroke="transparent" points="550.5,-37 550.5,-95 735.5,-95 735.5,-37 550.5,-37"/>
<polygon fill="#f5f5f5" stroke="transparent" points="551,-73 551,-95 736,-95 736,-73 551,-73"/>
<polygon fill="none" stroke="black" points="551,-73 551,-95 736,-95 736,-73 551,-73"/>
<text text-anchor="start" x="556" y="-82.2" font-family="Helvetica,sans-Serif" font-weight="bold" font-size="11.00">account_watchlists</text>
<text text-anchor="start" x="694" y="-81.2" font-family="Helvetica,sans-Serif" font-size="11.00">[table]</text>
<polygon fill="none" stroke="black" points="551,-55 551,-73 736,-73 736,-55 551,-55"/>
<text text-anchor="start" x="554" y="-61.2" font-family="Helvetica,sans-Serif" font-size="11.00">...</text>
<polygon fill="#ffffff" stroke="transparent" points="551,-37 551,-55 736,-55 736,-37 551,-37"/>
<polygon fill="none" stroke="black" points="551,-37 551,-55 736,-55 736,-37 551,-37"/>
<polygon fill="#ffffff" stroke="transparent" points="552,-38 552,-54 617,-54 617,-38 552,-38"/>
<text text-anchor="start" x="554" y="-43.2" font-family="Helvetica,sans-Serif" font-size="11.00">&lt; 1</text>
<polygon fill="#ffffff" stroke="transparent" points="617,-38 617,-54 670,-54 670,-38 617,-38"/>
<text text-anchor="start" x="639.5" y="-43.2" font-family="Helvetica,sans-Serif" font-size="11.00"> &#160;</text>
<polygon fill="#ffffff" stroke="transparent" points="670,-38 670,-54 735,-54 735,-38 670,-38"/>
<text text-anchor="start" x="713" y="-43.2" font-family="Helvetica,sans-Serif" font-size="11.00">1 &gt;</text>
<polygon fill="black" stroke="black" points="617,-38 617,-54 617,-54 617,-38 617,-38"/>
<polygon fill="black" stroke="black" points="670,-38 670,-54 670,-54 670,-38 670,-38"/>
</a>
</g>
</g>
<!-- account_watchlists&#45;&gt;account_identities -->
<g id="edge6" class="edge">
<title>account_watchlists:w&#45;&gt;account_identities:e</title>
<path fill="none" stroke="black" d="M535.46,-65.23C513.61,-69.39 504.88,-83.88 488,-106 454.96,-149.3 502.96,-222 448.5,-222"/>
<polygon fill="black" stroke="black" points="542.03,-64.68 550.3,-67.59 546.01,-64.34 550,-64 550,-64 550,-64 546.01,-64.34 549.7,-60.41 542.03,-64.68 542.03,-64.68"/>
<ellipse fill="none" stroke="black" cx="538.84" cy="-64.95" rx="3.2" ry="3.2"/>
</g>
</g>
</svg>
