<?xml version="1.0" encoding="UTF-8" standalone="no"?>
<!DOCTYPE svg PUBLIC "-//W3C//DTD SVG 1.1//EN"
 "http://www.w3.org/Graphics/SVG/1.1/DTD/svg11.dtd">
<!-- Generated by graphviz version 2.43.0 (0)
 -->
<!-- Title: twoDegreesRelationshipsDiagram Pages: 1 -->
<svg width="770pt" height="519pt"
 viewBox="0.00 0.00 770.00 519.00" xmlns="http://www.w3.org/2000/svg" xmlns:xlink="http://www.w3.org/1999/xlink">
<g id="graph0" class="graph" transform="scale(1 1) rotate(0) translate(4 515)">
<title>twoDegreesRelationshipsDiagram</title>
<polygon fill="#ffffff" stroke="transparent" points="-4,4 -4,-515 766,-515 766,4 -4,4"/>
<text text-anchor="middle" x="79.5" y="-7.2" font-family="Helvetica,sans-Serif" font-size="11.00">Generated by SchemaSpy</text>
<!-- account_api_keys -->
<g id="node1" class="node">
<title>account_api_keys</title>
<g id="a_node1"><a xlink:href="../../tables/account_api_keys.html" xlink:title="account_api_keys" target="_top">
<polygon fill="#ffffff" stroke="transparent" points="496,-353 496,-507 754,-507 754,-353 496,-353"/>
<polygon fill="#f5f5f5" stroke="transparent" points="498,-483 498,-505 752,-505 752,-483 498,-483"/>
<polygon fill="none" stroke="black" points="498,-483 498,-505 752,-505 752,-483 498,-483"/>
<text text-anchor="start" x="503" y="-492.2" font-family="Helvetica,sans-Serif" font-weight="bold" font-size="11.00">account_api_keys</text>
<text text-anchor="start" x="710" y="-491.2" font-family="Helvetica,sans-Serif" font-size="11.00">[table]</text>
<polygon fill="#ffffff" stroke="transparent" points="498,-461 498,-483 646,-483 646,-461 498,-461"/>
<polygon fill="none" stroke="black" points="498,-461 498,-483 646,-483 646,-461 498,-461"/>
<image xlink:href="../../images/foreignKeys.png" width="11px" height="12px" preserveAspectRatio="xMinYMin meet" x="503" y="-478"/>
<text text-anchor="start" x="518" y="-469.2" font-family="Helvetica,sans-Serif" font-size="11.00">identity_id</text>
<polygon fill="none" stroke="black" points="646,-461 646,-483 752,-483 752,-461 646,-461"/>
<text text-anchor="start" x="649" y="-469.2" font-family="Helvetica,sans-Serif" font-size="11.00">int8[19]</text>
<polygon fill="none" stroke="black" points="498,-439 498,-461 646,-461 646,-439 498,-439"/>
<text text-anchor="start" x="518" y="-447.2" font-family="Helvetica,sans-Serif" font-size="11.00">name</text>
<polygon fill="none" stroke="black" points="646,-439 646,-461 752,-461 752,-439 646,-439"/>
<text text-anchor="start" x="649" y="-447.2" font-family="Helvetica,sans-Serif" font-size="11.00">varchar[255]</text>
<polygon fill="none" stroke="black" points="498,-417 498,-439 646,-439 646,-417 498,-417"/>
<image xlink:href="../../images/primaryKeys.png" width="11px" height="12px" preserveAspectRatio="xMinYMin meet" x="503" y="-434"/>
<text text-anchor="start" x="518" y="-425.2" font-family="Helvetica,sans-Serif" font-size="11.00">value</text>
<polygon fill="none" stroke="black" points="646,-417 646,-439 752,-439 752,-417 646,-417"/>
<text text-anchor="start" x="649" y="-425.2" font-family="Helvetica,sans-Serif" font-size="11.00">uuid[2147483647]</text>
<polygon fill="none" stroke="black" points="498,-395 498,-417 646,-417 646,-395 498,-395"/>
<text text-anchor="start" x="518" y="-403.2" font-family="Helvetica,sans-Serif" font-size="11.00">inserted_at</text>
<polygon fill="none" stroke="black" points="646,-395 646,-417 752,-417 752,-395 646,-395"/>
<text text-anchor="start" x="649" y="-403.2" font-family="Helvetica,sans-Serif" font-size="11.00">timestamp[22]</text>
<polygon fill="none" stroke="black" points="498,-373 498,-395 646,-395 646,-373 498,-373"/>
<text text-anchor="start" x="518" y="-381.2" font-family="Helvetica,sans-Serif" font-size="11.00">updated_at</text>
<polygon fill="none" stroke="black" points="646,-373 646,-395 752,-395 752,-373 646,-373"/>
<text text-anchor="start" x="649" y="-381.2" font-family="Helvetica,sans-Serif" font-size="11.00">timestamp[22]</text>
<polygon fill="#ffffff" stroke="transparent" points="498,-355 498,-373 752,-373 752,-355 498,-355"/>
<polygon fill="none" stroke="black" points="498,-355 498,-373 752,-373 752,-355 498,-355"/>
<polygon fill="#ffffff" stroke="transparent" points="499,-356 499,-372 587,-372 587,-356 499,-356"/>
<text text-anchor="start" x="501" y="-361.2" font-family="Helvetica,sans-Serif" font-size="11.00">&lt; 1</text>
<polygon fill="#ffffff" stroke="transparent" points="587,-356 587,-372 663,-372 663,-356 587,-356"/>
<text text-anchor="start" x="621" y="-361.2" font-family="Helvetica,sans-Serif" font-size="11.00"> &#160;</text>
<polygon fill="#ffffff" stroke="transparent" points="663,-356 663,-372 751,-372 751,-356 663,-356"/>
<text text-anchor="start" x="729" y="-361.2" font-family="Helvetica,sans-Serif" font-size="11.00">0 &gt;</text>
<polygon fill="black" stroke="black" points="587,-356 587,-372 587,-372 587,-356 587,-356"/>
<polygon fill="black" stroke="black" points="663,-356 663,-372 663,-372 663,-356 663,-356"/>
<polygon fill="none" stroke="black" stroke-width="2" points="497,-354 497,-506 753,-506 753,-354 497,-354"/>
</a>
</g>
</g>
<!-- account_identities -->
<g id="node2" class="node">
<title>account_identities</title>
<g id="a_node2"><a xlink:href="../../tables/account_identities.html" xlink:title="account_identities" target="_top">
<polygon fill="#ffffff" stroke="transparent" points="236,-131 236,-255 447,-255 447,-131 236,-131"/>
<polygon fill="#f5f5f5" stroke="transparent" points="236.5,-233 236.5,-255 447.5,-255 447.5,-233 236.5,-233"/>
<polygon fill="none" stroke="black" points="236.5,-233 236.5,-255 447.5,-255 447.5,-233 236.5,-233"/>
<text text-anchor="start" x="241.5" y="-242.2" font-family="Helvetica,sans-Serif" font-weight="bold" font-size="11.00">account_identities</text>
<text text-anchor="start" x="405.5" y="-241.2" font-family="Helvetica,sans-Serif" font-size="11.00">[table]</text>
<polygon fill="none" stroke="black" points="236.5,-211 236.5,-233 447.5,-233 447.5,-211 236.5,-211"/>
<image xlink:href="../../images/primaryKeys.png" width="11px" height="12px" preserveAspectRatio="xMinYMin meet" x="241.5" y="-228"/>
<text text-anchor="start" x="256.5" y="-219.2" font-family="Helvetica,sans-Serif" font-size="11.00">id</text>
<polygon fill="none" stroke="black" points="236.5,-189 236.5,-211 447.5,-211 447.5,-189 236.5,-189"/>
<image xlink:href="../../images/foreignKeys.png" width="11px" height="12px" preserveAspectRatio="xMinYMin meet" x="241.5" y="-206"/>
<text text-anchor="start" x="256.5" y="-197.2" font-family="Helvetica,sans-Serif" font-size="11.00">plan_id</text>
<polygon fill="#ffffff" stroke="transparent" points="236.5,-167 236.5,-189 447.5,-189 447.5,-167 236.5,-167"/>
<polygon fill="none" stroke="black" points="236.5,-167 236.5,-189 447.5,-189 447.5,-167 236.5,-167"/>
<text text-anchor="start" x="256.5" y="-175.2" font-family="Helvetica,sans-Serif" font-size="11.00">uid_hash</text>
<polygon fill="none" stroke="black" points="236.5,-149 236.5,-167 447.5,-167 447.5,-149 236.5,-149"/>
<text text-anchor="start" x="239.5" y="-155.2" font-family="Helvetica,sans-Serif" font-size="11.00">...</text>
<polygon fill="#ffffff" stroke="transparent" points="236.5,-131 236.5,-149 447.5,-149 447.5,-131 236.5,-131"/>
<polygon fill="none" stroke="black" points="236.5,-131 236.5,-149 447.5,-149 447.5,-131 236.5,-131"/>
<polygon fill="#ffffff" stroke="transparent" points="237.5,-132 237.5,-148 311.5,-148 311.5,-132 237.5,-132"/>
<text text-anchor="start" x="239.5" y="-137.2" font-family="Helvetica,sans-Serif" font-size="11.00">&lt; 1</text>
<polygon fill="#ffffff" stroke="transparent" points="311.5,-132 311.5,-148 373.5,-148 373.5,-132 311.5,-132"/>
<text text-anchor="start" x="338.5" y="-137.2" font-family="Helvetica,sans-Serif" font-size="11.00"> &#160;</text>
<polygon fill="#ffffff" stroke="transparent" points="373.5,-132 373.5,-148 446.5,-148 446.5,-132 373.5,-132"/>
<text text-anchor="start" x="424.5" y="-137.2" font-family="Helvetica,sans-Serif" font-size="11.00">5 &gt;</text>
<polygon fill="black" stroke="black" points="311.5,-132 311.5,-148 311.5,-148 311.5,-132 311.5,-132"/>
<polygon fill="black" stroke="black" points="373.5,-132 373.5,-148 373.5,-148 373.5,-132 373.5,-132"/>
</a>
</g>
</g>
<!-- account_api_keys&#45;&gt;account_identities -->
<g id="edge1" class="edge">
<title>account_api_keys:w&#45;&gt;account_identities:e</title>
<path fill="none" stroke="black" d="M482.69,-470.34C400.17,-448.65 556.27,-222 448.5,-222"/>
<polygon fill="black" stroke="black" points="489.05,-471.08 496.58,-475.58 493.03,-471.54 497,-472 497,-472 497,-472 493.03,-471.54 497.42,-468.42 489.05,-471.08 489.05,-471.08"/>
<ellipse fill="none" stroke="black" cx="485.87" cy="-470.71" rx="3.2" ry="3.2"/>
</g>
<!-- account_api_plans -->
<g id="node4" class="node">
<title>account_api_plans</title>
<g id="a_node4"><a xlink:href="../../tables/account_api_plans.html" xlink:title="account_api_plans" target="_top">
<polygon fill="#ffffff" stroke="transparent" points="8,-173 8,-231 187,-231 187,-173 8,-173"/>
<polygon fill="#f5f5f5" stroke="transparent" points="8.5,-209 8.5,-231 187.5,-231 187.5,-209 8.5,-209"/>
<polygon fill="none" stroke="black" points="8.5,-209 8.5,-231 187.5,-231 187.5,-209 8.5,-209"/>
<text text-anchor="start" x="13.5" y="-218.2" font-family="Helvetica,sans-Serif" font-weight="bold" font-size="11.00">account_api_plans</text>
<text text-anchor="start" x="145.5" y="-217.2" font-family="Helvetica,sans-Serif" font-size="11.00">[table]</text>
<polygon fill="none" stroke="black" points="8.5,-191 8.5,-209 187.5,-209 187.5,-191 8.5,-191"/>
<text text-anchor="start" x="11.5" y="-197.2" font-family="Helvetica,sans-Serif" font-size="11.00">...</text>
<polygon fill="#ffffff" stroke="transparent" points="8.5,-173 8.5,-191 187.5,-191 187.5,-173 8.5,-173"/>
<polygon fill="none" stroke="black" points="8.5,-173 8.5,-191 187.5,-191 187.5,-173 8.5,-173"/>
<polygon fill="#ffffff" stroke="transparent" points="9.5,-174 9.5,-190 64.5,-190 64.5,-174 9.5,-174"/>
<text text-anchor="start" x="11.5" y="-179.2" font-family="Helvetica,sans-Serif" font-size="11.00"> &#160;</text>
<polygon fill="#ffffff" stroke="transparent" points="64.5,-174 64.5,-190 119.5,-190 119.5,-174 64.5,-174"/>
<text text-anchor="start" x="88" y="-179.2" font-family="Helvetica,sans-Serif" font-size="11.00"> &#160;</text>
<polygon fill="#ffffff" stroke="transparent" points="119.5,-174 119.5,-190 186.5,-190 186.5,-174 119.5,-174"/>
<text text-anchor="start" x="164.5" y="-179.2" font-family="Helvetica,sans-Serif" font-size="11.00">1 &gt;</text>
<polygon fill="black" stroke="black" points="64.5,-174 64.5,-190 64.5,-190 64.5,-174 64.5,-174"/>
<polygon fill="black" stroke="black" points="119.5,-174 119.5,-190 119.5,-190 119.5,-174 119.5,-174"/>
</a>
</g>
</g>
<!-- account_identities&#45;&gt;account_api_plans -->
<g id="edge3" class="edge">
<title>account_identities:w&#45;&gt;account_api_plans:e</title>
<path fill="none" stroke="black" d="M220.9,-200C210.43,-200 203.51,-200 188.5,-200"/>
<polygon fill="black" stroke="black" points="227.5,-200 235.5,-203.6 231.5,-200 235.5,-200 235.5,-200 235.5,-200 231.5,-200 235.5,-196.4 227.5,-200 227.5,-200"/>
<ellipse fill="none" stroke="black" cx="224.3" cy="-200" rx="3.2" ry="3.2"/>
</g>
<!-- account_custom_abis -->
<g id="node3" class="node">
<title>account_custom_abis</title>
<g id="a_node3"><a xlink:href="../../tables/account_custom_abis.html" xlink:title="account_custom_abis" target="_top">
<polygon fill="#ffffff" stroke="transparent" points="524.5,-274 524.5,-332 725.5,-332 725.5,-274 524.5,-274"/>
<polygon fill="#f5f5f5" stroke="transparent" points="525,-310 525,-332 726,-332 726,-310 525,-310"/>
<polygon fill="none" stroke="black" points="525,-310 525,-332 726,-332 726,-310 525,-310"/>
<text text-anchor="start" x="530" y="-319.2" font-family="Helvetica,sans-Serif" font-weight="bold" font-size="11.00">account_custom_abis</text>
<text text-anchor="start" x="684" y="-318.2" font-family="Helvetica,sans-Serif" font-size="11.00">[table]</text>
<polygon fill="none" stroke="black" points="525,-292 525,-310 726,-310 726,-292 525,-292"/>
<text text-anchor="start" x="528" y="-298.2" font-family="Helvetica,sans-Serif" font-size="11.00">...</text>
<polygon fill="#ffffff" stroke="transparent" points="525,-274 525,-292 726,-292 726,-274 525,-274"/>
<polygon fill="none" stroke="black" points="525,-274 525,-292 726,-292 726,-274 525,-274"/>
<polygon fill="#ffffff" stroke="transparent" points="526,-275 526,-291 601,-291 601,-275 526,-275"/>
<text text-anchor="start" x="528" y="-280.2" font-family="Helvetica,sans-Serif" font-size="11.00">&lt; 1</text>
<polygon fill="#ffffff" stroke="transparent" points="601,-275 601,-291 663,-291 663,-275 601,-275"/>
<text text-anchor="start" x="628" y="-280.2" font-family="Helvetica,sans-Serif" font-size="11.00"> &#160;</text>
<polygon fill="#ffffff" stroke="transparent" points="663,-275 663,-291 725,-291 725,-275 663,-275"/>
<text text-anchor="start" x="715" y="-280.2" font-family="Helvetica,sans-Serif" font-size="11.00"> &#160;</text>
<polygon fill="black" stroke="black" points="601,-275 601,-291 601,-291 601,-275 601,-275"/>
<polygon fill="black" stroke="black" points="663,-275 663,-291 663,-291 663,-275 663,-275"/>
</a>
</g>
</g>
<!-- account_custom_abis&#45;&gt;account_identities -->
<g id="edge2" class="edge">
<title>account_custom_abis:w&#45;&gt;account_identities:e</title>
<path fill="none" stroke="black" d="M509.59,-298C479.54,-283.57 491.38,-222 448.5,-222"/>
<polygon fill="black" stroke="black" points="516.17,-299.37 523.27,-304.52 520.08,-300.18 524,-301 524,-301 524,-301 520.08,-300.18 524.73,-297.48 516.17,-299.37 516.17,-299.37"/>
<ellipse fill="none" stroke="black" cx="513.04" cy="-298.72" rx="3.2" ry="3.2"/>
</g>
<!-- account_tag_addresses -->
<g id="node5" class="node">
<title>account_tag_addresses</title>
<g id="a_node5"><a xlink:href="../../tables/account_tag_addresses.html" xlink:title="account_tag_addresses" target="_top">
<polygon fill="#ffffff" stroke="transparent" points="517,-195 517,-253 733,-253 733,-195 517,-195"/>
<polygon fill="#f5f5f5" stroke="transparent" points="517,-231 517,-253 733,-253 733,-231 517,-231"/>
<polygon fill="none" stroke="black" points="517,-231 517,-253 733,-253 733,-231 517,-231"/>
<text text-anchor="start" x="522" y="-240.2" font-family="Helvetica,sans-Serif" font-weight="bold" font-size="11.00">account_tag_addresses</text>
<text text-anchor="start" x="691" y="-239.2" font-family="Helvetica,sans-Serif" font-size="11.00">[table]</text>
<polygon fill="none" stroke="black" points="517,-213 517,-231 733,-231 733,-213 517,-213"/>
<text text-anchor="start" x="520" y="-219.2" font-family="Helvetica,sans-Serif" font-size="11.00">...</text>
<polygon fill="#ffffff" stroke="transparent" points="517,-195 517,-213 733,-213 733,-195 517,-195"/>
<polygon fill="none" stroke="black" points="517,-195 517,-213 733,-213 733,-195 517,-195"/>
<polygon fill="#ffffff" stroke="transparent" points="518,-196 518,-212 598,-212 598,-196 518,-196"/>
<text text-anchor="start" x="520" y="-201.2" font-family="Helvetica,sans-Serif" font-size="11.00">&lt; 1</text>
<polygon fill="#ffffff" stroke="transparent" points="598,-196 598,-212 665,-212 665,-196 598,-196"/>
<text text-anchor="start" x="627.5" y="-201.2" font-family="Helvetica,sans-Serif" font-size="11.00"> &#160;</text>
<polygon fill="#ffffff" stroke="transparent" points="665,-196 665,-212 732,-212 732,-196 665,-196"/>
<text text-anchor="start" x="722" y="-201.2" font-family="Helvetica,sans-Serif" font-size="11.00"> &#160;</text>
<polygon fill="black" stroke="black" points="598,-196 598,-212 598,-212 598,-196 598,-196"/>
<polygon fill="black" stroke="black" points="665,-196 665,-212 665,-212 665,-196 665,-196"/>
</a>
</g>
</g>
<!-- account_tag_addresses&#45;&gt;account_identities -->
<g id="edge4" class="edge">
<title>account_tag_addresses:w&#45;&gt;account_identities:e</title>
<path fill="none" stroke="black" d="M501.47,-222C482.49,-222 472.99,-222 448.5,-222"/>
<polygon fill="black" stroke="black" points="508,-222 516,-225.6 512,-222 516,-222 516,-222 516,-222 512,-222 516,-218.4 508,-222 508,-222"/>
<ellipse fill="none" stroke="black" cx="504.8" cy="-222" rx="3.2" ry="3.2"/>
</g>
<!-- account_tag_transactions -->
<g id="node6" class="node">
<title>account_tag_transactions</title>
<g id="a_node6"><a xlink:href="../../tables/account_tag_transactions.html" xlink:title="account_tag_transactions" target="_top">
<polygon fill="#ffffff" stroke="transparent" points="508.5,-116 508.5,-174 741.5,-174 741.5,-116 508.5,-116"/>
<polygon fill="#f5f5f5" stroke="transparent" points="509,-152 509,-174 742,-174 742,-152 509,-152"/>
<polygon fill="none" stroke="black" points="509,-152 509,-174 742,-174 742,-152 509,-152"/>
<text text-anchor="start" x="514" y="-161.2" font-family="Helvetica,sans-Serif" font-weight="bold" font-size="11.00">account_tag_transactions</text>
<text text-anchor="start" x="700" y="-160.2" font-family="Helvetica,sans-Serif" font-size="11.00">[table]</text>
<polygon fill="none" stroke="black" points="509,-134 509,-152 742,-152 742,-134 509,-134"/>
<text text-anchor="start" x="512" y="-140.2" font-family="Helvetica,sans-Serif" font-size="11.00">...</text>
<polygon fill="#ffffff" stroke="transparent" points="509,-116 509,-134 742,-134 742,-116 509,-116"/>
<polygon fill="none" stroke="black" points="509,-116 509,-134 742,-134 742,-116 509,-116"/>
<polygon fill="#ffffff" stroke="transparent" points="510,-117 510,-133 595,-133 595,-117 510,-117"/>
<text text-anchor="start" x="512" y="-122.2" font-family="Helvetica,sans-Serif" font-size="11.00">&lt; 1</text>
<polygon fill="#ffffff" stroke="transparent" points="595,-117 595,-133 668,-133 668,-117 595,-117"/>
<text text-anchor="start" x="627.5" y="-122.2" font-family="Helvetica,sans-Serif" font-size="11.00"> &#160;</text>
<polygon fill="#ffffff" stroke="transparent" points="668,-117 668,-133 741,-133 741,-117 668,-117"/>
<text text-anchor="start" x="731" y="-122.2" font-family="Helvetica,sans-Serif" font-size="11.00"> &#160;</text>
<polygon fill="black" stroke="black" points="595,-117 595,-133 595,-133 595,-117 595,-117"/>
<polygon fill="black" stroke="black" points="668,-117 668,-133 668,-133 668,-117 668,-117"/>
</a>
</g>
</g>
<!-- account_tag_transactions&#45;&gt;account_identities -->
<g id="edge5" class="edge">
<title>account_tag_transactions:w&#45;&gt;account_identities:e</title>
<path fill="none" stroke="black" d="M493.98,-146.81C470.31,-162.59 486.62,-222 448.5,-222"/>
<polygon fill="black" stroke="black" points="500.28,-145.1 508.94,-146.47 504.14,-144.05 508,-143 508,-143 508,-143 504.14,-144.05 507.06,-139.53 500.28,-145.1 500.28,-145.1"/>
<ellipse fill="none" stroke="black" cx="497.19" cy="-145.94" rx="3.2" ry="3.2"/>
</g>
<!-- account_watchlists -->
<g id="node7" class="node">
<title>account_watchlists</title>
<g id="a_node7"><a xlink:href="../../tables/account_watchlists.html" xlink:title="account_watchlists" target="_top">
<polygon fill="#ffffff" stroke="transparent" points="532.5,-37 532.5,-95 717.5,-95 717.5,-37 532.5,-37"/>
<polygon fill="#f5f5f5" stroke="transparent" points="533,-73 533,-95 718,-95 718,-73 533,-73"/>
<polygon fill="none" stroke="black" points="533,-73 533,-95 718,-95 718,-73 533,-73"/>
<text text-anchor="start" x="538" y="-82.2" font-family="Helvetica,sans-Serif" font-weight="bold" font-size="11.00">account_watchlists</text>
<text text-anchor="start" x="676" y="-81.2" font-family="Helvetica,sans-Serif" font-size="11.00">[table]</text>
<polygon fill="none" stroke="black" points="533,-55 533,-73 718,-73 718,-55 533,-55"/>
<text text-anchor="start" x="536" y="-61.2" font-family="Helvetica,sans-Serif" font-size="11.00">...</text>
<polygon fill="#ffffff" stroke="transparent" points="533,-37 533,-55 718,-55 718,-37 533,-37"/>
<polygon fill="none" stroke="black" points="533,-37 533,-55 718,-55 718,-37 533,-37"/>
<polygon fill="#ffffff" stroke="transparent" points="534,-38 534,-54 599,-54 599,-38 534,-38"/>
<text text-anchor="start" x="536" y="-43.2" font-family="Helvetica,sans-Serif" font-size="11.00">&lt; 1</text>
<polygon fill="#ffffff" stroke="transparent" points="599,-38 599,-54 652,-54 652,-38 599,-38"/>
<text text-anchor="start" x="621.5" y="-43.2" font-family="Helvetica,sans-Serif" font-size="11.00"> &#160;</text>
<polygon fill="#ffffff" stroke="transparent" points="652,-38 652,-54 717,-54 717,-38 652,-38"/>
<text text-anchor="start" x="695" y="-43.2" font-family="Helvetica,sans-Serif" font-size="11.00">1 &gt;</text>
<polygon fill="black" stroke="black" points="599,-38 599,-54 599,-54 599,-38 599,-38"/>
<polygon fill="black" stroke="black" points="652,-38 652,-54 652,-54 652,-38 652,-38"/>
</a>
</g>
</g>
<!-- account_watchlists&#45;&gt;account_identities -->
<g id="edge6" class="edge">
<title>account_watchlists:w&#45;&gt;account_identities:e</title>
<path fill="none" stroke="black" d="M517.41,-66.59C503.33,-72.58 499.37,-88.2 488,-106 458.68,-151.9 502.96,-222 448.5,-222"/>
<polygon fill="black" stroke="black" points="524.12,-65.4 532.63,-67.54 528.06,-64.7 532,-64 532,-64 532,-64 528.06,-64.7 531.37,-60.46 524.12,-65.4 524.12,-65.4"/>
<ellipse fill="none" stroke="black" cx="520.97" cy="-65.96" rx="3.2" ry="3.2"/>
</g>
</g>
</svg>
