<?xml version="1.0" encoding="UTF-8" standalone="no"?>
<!DOCTYPE svg PUBLIC "-//W3C//DTD SVG 1.1//EN"
 "http://www.w3.org/Graphics/SVG/1.1/DTD/svg11.dtd">
<!-- Generated by graphviz version 2.43.0 (0)
 -->
<!-- Title: twoDegreesRelationshipsDiagram Pages: 1 -->
<svg width="821pt" height="585pt"
 viewBox="0.00 0.00 821.00 585.00" xmlns="http://www.w3.org/2000/svg" xmlns:xlink="http://www.w3.org/1999/xlink">
<g id="graph0" class="graph" transform="scale(1 1) rotate(0) translate(4 581)">
<title>twoDegreesRelationshipsDiagram</title>
<polygon fill="#ffffff" stroke="transparent" points="-4,4 -4,-581 817,-581 817,4 -4,4"/>
<text text-anchor="middle" x="79.5" y="-7.2" font-family="Helvetica,sans-Serif" font-size="11.00">Generated by SchemaSpy</text>
<!-- account_api_keys -->
<g id="node1" class="node">
<title>account_api_keys</title>
<g id="a_node1"><a xlink:href="../../tables/account_api_keys.html" xlink:title="account_api_keys" target="_top">
<polygon fill="#ffffff" stroke="transparent" points="563.5,-515 563.5,-573 737.5,-573 737.5,-515 563.5,-515"/>
<polygon fill="#f5f5f5" stroke="transparent" points="563.5,-551 563.5,-573 737.5,-573 737.5,-551 563.5,-551"/>
<polygon fill="none" stroke="black" points="563.5,-551 563.5,-573 737.5,-573 737.5,-551 563.5,-551"/>
<text text-anchor="start" x="568.5" y="-560.2" font-family="Helvetica,sans-Serif" font-weight="bold" font-size="11.00">account_api_keys</text>
<text text-anchor="start" x="695.5" y="-559.2" font-family="Helvetica,sans-Serif" font-size="11.00">[table]</text>
<polygon fill="none" stroke="black" points="563.5,-533 563.5,-551 737.5,-551 737.5,-533 563.5,-533"/>
<text text-anchor="start" x="566.5" y="-539.2" font-family="Helvetica,sans-Serif" font-size="11.00">...</text>
<polygon fill="#ffffff" stroke="transparent" points="563.5,-515 563.5,-533 737.5,-533 737.5,-515 563.5,-515"/>
<polygon fill="none" stroke="black" points="563.5,-515 563.5,-533 737.5,-533 737.5,-515 563.5,-515"/>
<polygon fill="#ffffff" stroke="transparent" points="564.5,-516 564.5,-532 630.5,-532 630.5,-516 564.5,-516"/>
<text text-anchor="start" x="566.5" y="-521.2" font-family="Helvetica,sans-Serif" font-size="11.00">&lt; 1</text>
<polygon fill="#ffffff" stroke="transparent" points="630.5,-516 630.5,-532 683.5,-532 683.5,-516 630.5,-516"/>
<text text-anchor="start" x="653" y="-521.2" font-family="Helvetica,sans-Serif" font-size="11.00"> &#160;</text>
<polygon fill="#ffffff" stroke="transparent" points="683.5,-516 683.5,-532 736.5,-532 736.5,-516 683.5,-516"/>
<text text-anchor="start" x="726.5" y="-521.2" font-family="Helvetica,sans-Serif" font-size="11.00"> &#160;</text>
<polygon fill="black" stroke="black" points="630.5,-516 630.5,-532 630.5,-532 630.5,-516 630.5,-516"/>
<polygon fill="black" stroke="black" points="683.5,-516 683.5,-532 683.5,-532 683.5,-516 683.5,-516"/>
</a>
</g>
</g>
<!-- account_identities -->
<g id="node2" class="node">
<title>account_identities</title>
<g id="a_node2"><a xlink:href="../../tables/account_identities.html" xlink:title="account_identities" target="_top">
<polygon fill="#ffffff" stroke="transparent" points="236,-267 236,-391 447,-391 447,-267 236,-267"/>
<polygon fill="#f5f5f5" stroke="transparent" points="236.5,-369 236.5,-391 447.5,-391 447.5,-369 236.5,-369"/>
<polygon fill="none" stroke="black" points="236.5,-369 236.5,-391 447.5,-391 447.5,-369 236.5,-369"/>
<text text-anchor="start" x="241.5" y="-378.2" font-family="Helvetica,sans-Serif" font-weight="bold" font-size="11.00">account_identities</text>
<text text-anchor="start" x="405.5" y="-377.2" font-family="Helvetica,sans-Serif" font-size="11.00">[table]</text>
<polygon fill="none" stroke="black" points="236.5,-347 236.5,-369 447.5,-369 447.5,-347 236.5,-347"/>
<image xlink:href="../../images/primaryKeys.png" width="11px" height="12px" preserveAspectRatio="xMinYMin meet" x="241.5" y="-364"/>
<text text-anchor="start" x="256.5" y="-355.2" font-family="Helvetica,sans-Serif" font-size="11.00">id</text>
<polygon fill="none" stroke="black" points="236.5,-325 236.5,-347 447.5,-347 447.5,-325 236.5,-325"/>
<image xlink:href="../../images/foreignKeys.png" width="11px" height="12px" preserveAspectRatio="xMinYMin meet" x="241.5" y="-342"/>
<text text-anchor="start" x="256.5" y="-333.2" font-family="Helvetica,sans-Serif" font-size="11.00">plan_id</text>
<polygon fill="#ffffff" stroke="transparent" points="236.5,-303 236.5,-325 447.5,-325 447.5,-303 236.5,-303"/>
<polygon fill="none" stroke="black" points="236.5,-303 236.5,-325 447.5,-325 447.5,-303 236.5,-303"/>
<text text-anchor="start" x="256.5" y="-311.2" font-family="Helvetica,sans-Serif" font-size="11.00">uid_hash</text>
<polygon fill="none" stroke="black" points="236.5,-285 236.5,-303 447.5,-303 447.5,-285 236.5,-285"/>
<text text-anchor="start" x="239.5" y="-291.2" font-family="Helvetica,sans-Serif" font-size="11.00">...</text>
<polygon fill="#ffffff" stroke="transparent" points="236.5,-267 236.5,-285 447.5,-285 447.5,-267 236.5,-267"/>
<polygon fill="none" stroke="black" points="236.5,-267 236.5,-285 447.5,-285 447.5,-267 236.5,-267"/>
<polygon fill="#ffffff" stroke="transparent" points="237.5,-268 237.5,-284 311.5,-284 311.5,-268 237.5,-268"/>
<text text-anchor="start" x="239.5" y="-273.2" font-family="Helvetica,sans-Serif" font-size="11.00">&lt; 1</text>
<polygon fill="#ffffff" stroke="transparent" points="311.5,-268 311.5,-284 373.5,-284 373.5,-268 311.5,-268"/>
<text text-anchor="start" x="338.5" y="-273.2" font-family="Helvetica,sans-Serif" font-size="11.00"> &#160;</text>
<polygon fill="#ffffff" stroke="transparent" points="373.5,-268 373.5,-284 446.5,-284 446.5,-268 373.5,-268"/>
<text text-anchor="start" x="424.5" y="-273.2" font-family="Helvetica,sans-Serif" font-size="11.00">5 &gt;</text>
<polygon fill="black" stroke="black" points="311.5,-268 311.5,-284 311.5,-284 311.5,-268 311.5,-268"/>
<polygon fill="black" stroke="black" points="373.5,-268 373.5,-284 373.5,-284 373.5,-268 373.5,-268"/>
</a>
</g>
</g>
<!-- account_api_keys&#45;&gt;account_identities -->
<g id="edge1" class="edge">
<title>account_api_keys:w&#45;&gt;account_identities:e</title>
<path fill="none" stroke="black" d="M547.81,-541.44C521.26,-539.15 508.04,-529.47 488,-505 445.14,-452.66 516.15,-358 448.5,-358"/>
<polygon fill="black" stroke="black" points="554.51,-541.69 562.36,-545.6 558.5,-541.85 562.5,-542 562.5,-542 562.5,-542 558.5,-541.85 562.64,-538.4 554.51,-541.69 554.51,-541.69"/>
<ellipse fill="none" stroke="black" cx="551.31" cy="-541.57" rx="3.2" ry="3.2"/>
</g>
<!-- account_api_plans -->
<g id="node4" class="node">
<title>account_api_plans</title>
<g id="a_node4"><a xlink:href="../../tables/account_api_plans.html" xlink:title="account_api_plans" target="_top">
<polygon fill="#ffffff" stroke="transparent" points="8,-309 8,-367 187,-367 187,-309 8,-309"/>
<polygon fill="#f5f5f5" stroke="transparent" points="8.5,-345 8.5,-367 187.5,-367 187.5,-345 8.5,-345"/>
<polygon fill="none" stroke="black" points="8.5,-345 8.5,-367 187.5,-367 187.5,-345 8.5,-345"/>
<text text-anchor="start" x="13.5" y="-354.2" font-family="Helvetica,sans-Serif" font-weight="bold" font-size="11.00">account_api_plans</text>
<text text-anchor="start" x="145.5" y="-353.2" font-family="Helvetica,sans-Serif" font-size="11.00">[table]</text>
<polygon fill="none" stroke="black" points="8.5,-327 8.5,-345 187.5,-345 187.5,-327 8.5,-327"/>
<text text-anchor="start" x="11.5" y="-333.2" font-family="Helvetica,sans-Serif" font-size="11.00">...</text>
<polygon fill="#ffffff" stroke="transparent" points="8.5,-309 8.5,-327 187.5,-327 187.5,-309 8.5,-309"/>
<polygon fill="none" stroke="black" points="8.5,-309 8.5,-327 187.5,-327 187.5,-309 8.5,-309"/>
<polygon fill="#ffffff" stroke="transparent" points="9.5,-310 9.5,-326 64.5,-326 64.5,-310 9.5,-310"/>
<text text-anchor="start" x="11.5" y="-315.2" font-family="Helvetica,sans-Serif" font-size="11.00"> &#160;</text>
<polygon fill="#ffffff" stroke="transparent" points="64.5,-310 64.5,-326 119.5,-326 119.5,-310 64.5,-310"/>
<text text-anchor="start" x="88" y="-315.2" font-family="Helvetica,sans-Serif" font-size="11.00"> &#160;</text>
<polygon fill="#ffffff" stroke="transparent" points="119.5,-310 119.5,-326 186.5,-326 186.5,-310 119.5,-310"/>
<text text-anchor="start" x="164.5" y="-315.2" font-family="Helvetica,sans-Serif" font-size="11.00">1 &gt;</text>
<polygon fill="black" stroke="black" points="64.5,-310 64.5,-326 64.5,-326 64.5,-310 64.5,-310"/>
<polygon fill="black" stroke="black" points="119.5,-310 119.5,-326 119.5,-326 119.5,-310 119.5,-310"/>
</a>
</g>
</g>
<!-- account_identities&#45;&gt;account_api_plans -->
<g id="edge3" class="edge">
<title>account_identities:w&#45;&gt;account_api_plans:e</title>
<path fill="none" stroke="black" d="M220.9,-336C210.43,-336 203.51,-336 188.5,-336"/>
<polygon fill="black" stroke="black" points="227.5,-336 235.5,-339.6 231.5,-336 235.5,-336 235.5,-336 235.5,-336 231.5,-336 235.5,-332.4 227.5,-336 227.5,-336"/>
<ellipse fill="none" stroke="black" cx="224.3" cy="-336" rx="3.2" ry="3.2"/>
</g>
<!-- account_custom_abis -->
<g id="node3" class="node">
<title>account_custom_abis</title>
<g id="a_node3"><a xlink:href="../../tables/account_custom_abis.html" xlink:title="account_custom_abis" target="_top">
<polygon fill="#ffffff" stroke="transparent" points="550,-436 550,-494 751,-494 751,-436 550,-436"/>
<polygon fill="#f5f5f5" stroke="transparent" points="550.5,-472 550.5,-494 751.5,-494 751.5,-472 550.5,-472"/>
<polygon fill="none" stroke="black" points="550.5,-472 550.5,-494 751.5,-494 751.5,-472 550.5,-472"/>
<text text-anchor="start" x="555.5" y="-481.2" font-family="Helvetica,sans-Serif" font-weight="bold" font-size="11.00">account_custom_abis</text>
<text text-anchor="start" x="709.5" y="-480.2" font-family="Helvetica,sans-Serif" font-size="11.00">[table]</text>
<polygon fill="none" stroke="black" points="550.5,-454 550.5,-472 751.5,-472 751.5,-454 550.5,-454"/>
<text text-anchor="start" x="553.5" y="-460.2" font-family="Helvetica,sans-Serif" font-size="11.00">...</text>
<polygon fill="#ffffff" stroke="transparent" points="550.5,-436 550.5,-454 751.5,-454 751.5,-436 550.5,-436"/>
<polygon fill="none" stroke="black" points="550.5,-436 550.5,-454 751.5,-454 751.5,-436 550.5,-436"/>
<polygon fill="#ffffff" stroke="transparent" points="551.5,-437 551.5,-453 626.5,-453 626.5,-437 551.5,-437"/>
<text text-anchor="start" x="553.5" y="-442.2" font-family="Helvetica,sans-Serif" font-size="11.00">&lt; 1</text>
<polygon fill="#ffffff" stroke="transparent" points="626.5,-437 626.5,-453 688.5,-453 688.5,-437 626.5,-437"/>
<text text-anchor="start" x="653.5" y="-442.2" font-family="Helvetica,sans-Serif" font-size="11.00"> &#160;</text>
<polygon fill="#ffffff" stroke="transparent" points="688.5,-437 688.5,-453 750.5,-453 750.5,-437 688.5,-437"/>
<text text-anchor="start" x="740.5" y="-442.2" font-family="Helvetica,sans-Serif" font-size="11.00"> &#160;</text>
<polygon fill="black" stroke="black" points="626.5,-437 626.5,-453 626.5,-453 626.5,-437 626.5,-437"/>
<polygon fill="black" stroke="black" points="688.5,-437 688.5,-453 688.5,-453 688.5,-437 688.5,-437"/>
</a>
</g>
</g>
<!-- account_custom_abis&#45;&gt;account_identities -->
<g id="edge2" class="edge">
<title>account_custom_abis:w&#45;&gt;account_identities:e</title>
<path fill="none" stroke="black" d="M535.04,-461.76C514.67,-457.84 506.53,-444.82 488,-426 463.48,-401.1 483.45,-358 448.5,-358"/>
<polygon fill="black" stroke="black" points="541.53,-462.32 549.19,-466.59 545.51,-462.66 549.5,-463 549.5,-463 549.5,-463 545.51,-462.66 549.81,-459.41 541.53,-462.32 541.53,-462.32"/>
<ellipse fill="none" stroke="black" cx="538.34" cy="-462.05" rx="3.2" ry="3.2"/>
</g>
<!-- account_tag_addresses -->
<g id="node5" class="node">
<title>account_tag_addresses</title>
<g id="a_node5"><a xlink:href="../../tables/account_tag_addresses.html" xlink:title="account_tag_addresses" target="_top">
<polygon fill="#ffffff" stroke="transparent" points="496,-195 496,-415 805,-415 805,-195 496,-195"/>
<polygon fill="#f5f5f5" stroke="transparent" points="498.5,-391 498.5,-413 803.5,-413 803.5,-391 498.5,-391"/>
<polygon fill="none" stroke="black" points="498.5,-391 498.5,-413 803.5,-413 803.5,-391 498.5,-391"/>
<text text-anchor="start" x="503.5" y="-400.2" font-family="Helvetica,sans-Serif" font-weight="bold" font-size="11.00">account_tag_addresses</text>
<text text-anchor="start" x="761.5" y="-399.2" font-family="Helvetica,sans-Serif" font-size="11.00">[table]</text>
<polygon fill="none" stroke="black" points="498.5,-369 498.5,-391 688.5,-391 688.5,-369 498.5,-369"/>
<image xlink:href="../../images/primaryKeys.png" width="11px" height="12px" preserveAspectRatio="xMinYMin meet" x="503.5" y="-386"/>
<text text-anchor="start" x="518.5" y="-377.2" font-family="Helvetica,sans-Serif" font-size="11.00">id</text>
<polygon fill="none" stroke="black" points="688.5,-369 688.5,-391 803.5,-391 803.5,-369 688.5,-369"/>
<text text-anchor="start" x="691.5" y="-377.2" font-family="Helvetica,sans-Serif" font-size="11.00">bigserial[19]</text>
<polygon fill="#ffffff" stroke="transparent" points="498.5,-347 498.5,-369 688.5,-369 688.5,-347 498.5,-347"/>
<polygon fill="none" stroke="black" points="498.5,-347 498.5,-369 688.5,-369 688.5,-347 498.5,-347"/>
<image xlink:href="../../images/foreignKeys.png" width="11px" height="12px" preserveAspectRatio="xMinYMin meet" x="503.5" y="-364"/>
<text text-anchor="start" x="518.5" y="-355.2" font-family="Helvetica,sans-Serif" font-size="11.00">identity_id</text>
<polygon fill="none" stroke="black" points="688.5,-347 688.5,-369 803.5,-369 803.5,-347 688.5,-347"/>
<text text-anchor="start" x="691.5" y="-355.2" font-family="Helvetica,sans-Serif" font-size="11.00">int8[19]</text>
<polygon fill="none" stroke="black" points="498.5,-325 498.5,-347 688.5,-347 688.5,-325 498.5,-325"/>
<text text-anchor="start" x="518.5" y="-333.2" font-family="Helvetica,sans-Serif" font-size="11.00">inserted_at</text>
<polygon fill="none" stroke="black" points="688.5,-325 688.5,-347 803.5,-347 803.5,-325 688.5,-325"/>
<text text-anchor="start" x="691.5" y="-333.2" font-family="Helvetica,sans-Serif" font-size="11.00">timestamp[22]</text>
<polygon fill="none" stroke="black" points="498.5,-303 498.5,-325 688.5,-325 688.5,-303 498.5,-303"/>
<text text-anchor="start" x="518.5" y="-311.2" font-family="Helvetica,sans-Serif" font-size="11.00">updated_at</text>
<polygon fill="none" stroke="black" points="688.5,-303 688.5,-325 803.5,-325 803.5,-303 688.5,-303"/>
<text text-anchor="start" x="691.5" y="-311.2" font-family="Helvetica,sans-Serif" font-size="11.00">timestamp[22]</text>
<polygon fill="#ffffff" stroke="transparent" points="498.5,-281 498.5,-303 688.5,-303 688.5,-281 498.5,-281"/>
<polygon fill="none" stroke="black" points="498.5,-281 498.5,-303 688.5,-303 688.5,-281 498.5,-281"/>
<text text-anchor="start" x="518.5" y="-289.2" font-family="Helvetica,sans-Serif" font-size="11.00">address_hash_hash</text>
<polygon fill="none" stroke="black" points="688.5,-281 688.5,-303 803.5,-303 803.5,-281 688.5,-281"/>
<text text-anchor="start" x="691.5" y="-289.2" font-family="Helvetica,sans-Serif" font-size="11.00">bytea[2147483647]</text>
<polygon fill="none" stroke="black" points="498.5,-259 498.5,-281 688.5,-281 688.5,-259 498.5,-259"/>
<text text-anchor="start" x="518.5" y="-267.2" font-family="Helvetica,sans-Serif" font-size="11.00">name</text>
<polygon fill="none" stroke="black" points="688.5,-259 688.5,-281 803.5,-281 803.5,-259 688.5,-259"/>
<text text-anchor="start" x="691.5" y="-267.2" font-family="Helvetica,sans-Serif" font-size="11.00">bytea[2147483647]</text>
<polygon fill="none" stroke="black" points="498.5,-237 498.5,-259 688.5,-259 688.5,-237 498.5,-237"/>
<text text-anchor="start" x="518.5" y="-245.2" font-family="Helvetica,sans-Serif" font-size="11.00">address_hash</text>
<polygon fill="none" stroke="black" points="688.5,-237 688.5,-259 803.5,-259 803.5,-237 688.5,-237"/>
<text text-anchor="start" x="691.5" y="-245.2" font-family="Helvetica,sans-Serif" font-size="11.00">bytea[2147483647]</text>
<polygon fill="none" stroke="black" points="498.5,-215 498.5,-237 688.5,-237 688.5,-215 498.5,-215"/>
<text text-anchor="start" x="518.5" y="-223.2" font-family="Helvetica,sans-Serif" font-size="11.00">user_created</text>
<polygon fill="none" stroke="black" points="688.5,-215 688.5,-237 803.5,-237 803.5,-215 688.5,-215"/>
<text text-anchor="start" x="691.5" y="-223.2" font-family="Helvetica,sans-Serif" font-size="11.00">bool[1]</text>
<polygon fill="#ffffff" stroke="transparent" points="498.5,-197 498.5,-215 803.5,-215 803.5,-197 498.5,-197"/>
<polygon fill="none" stroke="black" points="498.5,-197 498.5,-215 803.5,-215 803.5,-197 498.5,-197"/>
<polygon fill="#ffffff" stroke="transparent" points="499.5,-198 499.5,-214 604.5,-214 604.5,-198 499.5,-198"/>
<text text-anchor="start" x="501.5" y="-203.2" font-family="Helvetica,sans-Serif" font-size="11.00">&lt; 1</text>
<polygon fill="#ffffff" stroke="transparent" points="604.5,-198 604.5,-214 697.5,-214 697.5,-198 604.5,-198"/>
<text text-anchor="start" x="647" y="-203.2" font-family="Helvetica,sans-Serif" font-size="11.00"> &#160;</text>
<polygon fill="#ffffff" stroke="transparent" points="697.5,-198 697.5,-214 802.5,-214 802.5,-198 697.5,-198"/>
<text text-anchor="start" x="780.5" y="-203.2" font-family="Helvetica,sans-Serif" font-size="11.00">0 &gt;</text>
<polygon fill="black" stroke="black" points="604.5,-198 604.5,-214 604.5,-214 604.5,-198 604.5,-198"/>
<polygon fill="black" stroke="black" points="697.5,-198 697.5,-214 697.5,-214 697.5,-198 697.5,-198"/>
<polygon fill="none" stroke="black" stroke-width="2" points="497,-196 497,-414 804,-414 804,-196 497,-196"/>
</a>
</g>
</g>
<!-- account_tag_addresses&#45;&gt;account_identities -->
<g id="edge4" class="edge">
<title>account_tag_addresses:w&#45;&gt;account_identities:e</title>
<path fill="none" stroke="black" d="M482.99,-358C471.68,-358 464.49,-358 448.5,-358"/>
<polygon fill="black" stroke="black" points="489.5,-358 497.5,-361.6 493.5,-358 497.5,-358 497.5,-358 497.5,-358 493.5,-358 497.5,-354.4 489.5,-358 489.5,-358"/>
<ellipse fill="none" stroke="black" cx="486.3" cy="-358" rx="3.2" ry="3.2"/>
</g>
<!-- account_tag_transactions -->
<g id="node6" class="node">
<title>account_tag_transactions</title>
<g id="a_node6"><a xlink:href="../../tables/account_tag_transactions.html" xlink:title="account_tag_transactions" target="_top">
<polygon fill="#ffffff" stroke="transparent" points="534,-116 534,-174 767,-174 767,-116 534,-116"/>
<polygon fill="#f5f5f5" stroke="transparent" points="534.5,-152 534.5,-174 767.5,-174 767.5,-152 534.5,-152"/>
<polygon fill="none" stroke="black" points="534.5,-152 534.5,-174 767.5,-174 767.5,-152 534.5,-152"/>
<text text-anchor="start" x="539.5" y="-161.2" font-family="Helvetica,sans-Serif" font-weight="bold" font-size="11.00">account_tag_transactions</text>
<text text-anchor="start" x="725.5" y="-160.2" font-family="Helvetica,sans-Serif" font-size="11.00">[table]</text>
<polygon fill="none" stroke="black" points="534.5,-134 534.5,-152 767.5,-152 767.5,-134 534.5,-134"/>
<text text-anchor="start" x="537.5" y="-140.2" font-family="Helvetica,sans-Serif" font-size="11.00">...</text>
<polygon fill="#ffffff" stroke="transparent" points="534.5,-116 534.5,-134 767.5,-134 767.5,-116 534.5,-116"/>
<polygon fill="none" stroke="black" points="534.5,-116 534.5,-134 767.5,-134 767.5,-116 534.5,-116"/>
<polygon fill="#ffffff" stroke="transparent" points="535.5,-117 535.5,-133 620.5,-133 620.5,-117 535.5,-117"/>
<text text-anchor="start" x="537.5" y="-122.2" font-family="Helvetica,sans-Serif" font-size="11.00">&lt; 1</text>
<polygon fill="#ffffff" stroke="transparent" points="620.5,-117 620.5,-133 693.5,-133 693.5,-117 620.5,-117"/>
<text text-anchor="start" x="653" y="-122.2" font-family="Helvetica,sans-Serif" font-size="11.00"> &#160;</text>
<polygon fill="#ffffff" stroke="transparent" points="693.5,-117 693.5,-133 766.5,-133 766.5,-117 693.5,-117"/>
<text text-anchor="start" x="756.5" y="-122.2" font-family="Helvetica,sans-Serif" font-size="11.00"> &#160;</text>
<polygon fill="black" stroke="black" points="620.5,-117 620.5,-133 620.5,-133 620.5,-117 620.5,-117"/>
<polygon fill="black" stroke="black" points="693.5,-117 693.5,-133 693.5,-133 693.5,-117 693.5,-117"/>
</a>
</g>
</g>
<!-- account_tag_transactions&#45;&gt;account_identities -->
<g id="edge5" class="edge">
<title>account_tag_transactions:w&#45;&gt;account_identities:e</title>
<path fill="none" stroke="black" d="M518.89,-145.31C503.79,-150.92 498.88,-166.21 488,-185 448.48,-253.25 527.37,-358 448.5,-358"/>
<polygon fill="black" stroke="black" points="525.6,-144.25 534.06,-146.56 529.55,-143.62 533.5,-143 533.5,-143 533.5,-143 529.55,-143.62 532.94,-139.44 525.6,-144.25 525.6,-144.25"/>
<ellipse fill="none" stroke="black" cx="522.44" cy="-144.75" rx="3.2" ry="3.2"/>
</g>
<!-- account_watchlists -->
<g id="node7" class="node">
<title>account_watchlists</title>
<g id="a_node7"><a xlink:href="../../tables/account_watchlists.html" xlink:title="account_watchlists" target="_top">
<polygon fill="#ffffff" stroke="transparent" points="558,-37 558,-95 743,-95 743,-37 558,-37"/>
<polygon fill="#f5f5f5" stroke="transparent" points="558.5,-73 558.5,-95 743.5,-95 743.5,-73 558.5,-73"/>
<polygon fill="none" stroke="black" points="558.5,-73 558.5,-95 743.5,-95 743.5,-73 558.5,-73"/>
<text text-anchor="start" x="563.5" y="-82.2" font-family="Helvetica,sans-Serif" font-weight="bold" font-size="11.00">account_watchlists</text>
<text text-anchor="start" x="701.5" y="-81.2" font-family="Helvetica,sans-Serif" font-size="11.00">[table]</text>
<polygon fill="none" stroke="black" points="558.5,-55 558.5,-73 743.5,-73 743.5,-55 558.5,-55"/>
<text text-anchor="start" x="561.5" y="-61.2" font-family="Helvetica,sans-Serif" font-size="11.00">...</text>
<polygon fill="#ffffff" stroke="transparent" points="558.5,-37 558.5,-55 743.5,-55 743.5,-37 558.5,-37"/>
<polygon fill="none" stroke="black" points="558.5,-37 558.5,-55 743.5,-55 743.5,-37 558.5,-37"/>
<polygon fill="#ffffff" stroke="transparent" points="559.5,-38 559.5,-54 624.5,-54 624.5,-38 559.5,-38"/>
<text text-anchor="start" x="561.5" y="-43.2" font-family="Helvetica,sans-Serif" font-size="11.00">&lt; 1</text>
<polygon fill="#ffffff" stroke="transparent" points="624.5,-38 624.5,-54 677.5,-54 677.5,-38 624.5,-38"/>
<text text-anchor="start" x="647" y="-43.2" font-family="Helvetica,sans-Serif" font-size="11.00"> &#160;</text>
<polygon fill="#ffffff" stroke="transparent" points="677.5,-38 677.5,-54 742.5,-54 742.5,-38 677.5,-38"/>
<text text-anchor="start" x="720.5" y="-43.2" font-family="Helvetica,sans-Serif" font-size="11.00">1 &gt;</text>
<polygon fill="black" stroke="black" points="624.5,-38 624.5,-54 624.5,-54 624.5,-38 624.5,-38"/>
<polygon fill="black" stroke="black" points="677.5,-38 677.5,-54 677.5,-54 677.5,-38 677.5,-38"/>
</a>
</g>
</g>
<!-- account_watchlists&#45;&gt;account_identities -->
<g id="edge6" class="edge">
<title>account_watchlists:w&#45;&gt;account_identities:e</title>
<path fill="none" stroke="black" d="M542.84,-64.81C517.31,-67.97 505.13,-80.49 488,-106 456.4,-153.06 505.18,-358 448.5,-358"/>
<polygon fill="black" stroke="black" points="549.51,-64.44 557.7,-67.59 553.51,-64.22 557.5,-64 557.5,-64 557.5,-64 553.51,-64.22 557.3,-60.41 549.51,-64.44 549.51,-64.44"/>
<ellipse fill="none" stroke="black" cx="546.32" cy="-64.62" rx="3.2" ry="3.2"/>
</g>
</g>
</svg>
