<?xml version="1.0" encoding="UTF-8" standalone="no"?>
<!DOCTYPE svg PUBLIC "-//W3C//DTD SVG 1.1//EN"
 "http://www.w3.org/Graphics/SVG/1.1/DTD/svg11.dtd">
<!-- Generated by graphviz version 9.0.0 (20230911.1827)
 -->
<!-- Title: twoDegreesRelationshipsDiagram Pages: 1 -->
<svg width="689pt" height="664pt"
 viewBox="0.00 0.00 689.00 664.00" xmlns="http://www.w3.org/2000/svg" xmlns:xlink="http://www.w3.org/1999/xlink">
<g id="graph0" class="graph" transform="scale(1 1) rotate(0) translate(4 660)">
<title>twoDegreesRelationshipsDiagram</title>
<polygon fill="#ffffff" stroke="none" points="-4,4 -4,-660 685,-660 685,4 -4,4"/>
<text text-anchor="middle" x="71.38" y="-5.55" font-family="Helvetica,sans-Serif" font-size="11.00">Generated by SchemaSpy</text>
<!-- account_api_keys -->
<g id="node1" class="node">
<title>account_api_keys</title>
<g id="a_node1"><a xlink:href="../../tables/account_api_keys.html" xlink:title="account_api_keys" target="_top">
<polygon fill="#ffffff" stroke="none" points="477.5,-594 477.5,-652 619.5,-652 619.5,-594 477.5,-594"/>
<polygon fill="#f5f5f5" stroke="none" points="477.5,-630 477.5,-652 619.5,-652 619.5,-630 477.5,-630"/>
<polygon fill="none" stroke="black" points="477.5,-630 477.5,-652 619.5,-652 619.5,-630 477.5,-630"/>
<text text-anchor="start" x="482.5" y="-637.55" font-family="Helvetica,sans-Serif" font-weight="bold" font-size="11.00">account_api_keys</text>
<text text-anchor="start" x="585.5" y="-636.55" font-family="Helvetica,sans-Serif" font-size="11.00">[table]</text>
<polygon fill="none" stroke="black" points="477.5,-612 477.5,-630 619.5,-630 619.5,-612 477.5,-612"/>
<text text-anchor="start" x="480.5" y="-616.55" font-family="Helvetica,sans-Serif" font-size="11.00">...</text>
<polygon fill="#ffffff" stroke="none" points="477.5,-594 477.5,-612 546.5,-612 546.5,-594 477.5,-594"/>
<polygon fill="none" stroke="black" points="477.5,-594 477.5,-612 546.5,-612 546.5,-594 477.5,-594"/>
<text text-anchor="start" x="480.5" y="-598.55" font-family="Helvetica,sans-Serif" font-size="11.00">&lt; 1</text>
<polygon fill="#ffffff" stroke="none" points="546.5,-594 546.5,-612 582.5,-612 582.5,-594 546.5,-594"/>
<polygon fill="none" stroke="black" points="546.5,-594 546.5,-612 582.5,-612 582.5,-594 546.5,-594"/>
<text text-anchor="start" x="573.5" y="-598.55" font-family="Helvetica,sans-Serif" font-size="11.00"> &#160;</text>
<polygon fill="#ffffff" stroke="none" points="582.5,-594 582.5,-612 619.5,-612 619.5,-594 582.5,-594"/>
<polygon fill="none" stroke="black" points="582.5,-594 582.5,-612 619.5,-612 619.5,-594 582.5,-594"/>
<text text-anchor="start" x="610.5" y="-598.55" font-family="Helvetica,sans-Serif" font-size="11.00"> &#160;</text>
</a>
</g>
</g>
<!-- account_identities -->
<g id="node2" class="node">
<title>account_identities</title>
<g id="a_node2"><a xlink:href="../../tables/account_identities.html" xlink:title="account_identities" target="_top">
<polygon fill="#ffffff" stroke="none" points="204,-170 204,-294 375,-294 375,-170 204,-170"/>
<polygon fill="#f5f5f5" stroke="none" points="204,-272 204,-294 375,-294 375,-272 204,-272"/>
<polygon fill="none" stroke="black" points="204,-272 204,-294 375,-294 375,-272 204,-272"/>
<text text-anchor="start" x="209" y="-279.55" font-family="Helvetica,sans-Serif" font-weight="bold" font-size="11.00">account_identities</text>
<text text-anchor="start" x="340.75" y="-278.55" font-family="Helvetica,sans-Serif" font-size="11.00">[table]</text>
<polygon fill="none" stroke="black" points="204,-250 204,-272 375,-272 375,-250 204,-250"/>
<image xlink:href="../../images/primaryKeys.png" width="11px" height="12px" preserveAspectRatio="xMinYMin meet" x="209" y="-267"/>
<text text-anchor="start" x="224" y="-256.55" font-family="Helvetica,sans-Serif" font-size="11.00">id</text>
<polygon fill="none" stroke="black" points="204,-228 204,-250 375,-250 375,-228 204,-228"/>
<image xlink:href="../../images/foreignKeys.png" width="11px" height="12px" preserveAspectRatio="xMinYMin meet" x="209" y="-245"/>
<text text-anchor="start" x="224" y="-234.55" font-family="Helvetica,sans-Serif" font-size="11.00">plan_id</text>
<polygon fill="#ffffff" stroke="none" points="204,-206 204,-228 375,-228 375,-206 204,-206"/>
<polygon fill="none" stroke="black" points="204,-206 204,-228 375,-228 375,-206 204,-206"/>
<text text-anchor="start" x="224" y="-212.55" font-family="Helvetica,sans-Serif" font-size="11.00">uid_hash</text>
<polygon fill="none" stroke="black" points="204,-188 204,-206 375,-206 375,-188 204,-188"/>
<text text-anchor="start" x="207" y="-192.55" font-family="Helvetica,sans-Serif" font-size="11.00">...</text>
<polygon fill="#ffffff" stroke="none" points="204,-170 204,-188 283,-188 283,-170 204,-170"/>
<polygon fill="none" stroke="black" points="204,-170 204,-188 283,-188 283,-170 204,-170"/>
<text text-anchor="start" x="207" y="-174.55" font-family="Helvetica,sans-Serif" font-size="11.00">&lt; 1</text>
<polygon fill="#ffffff" stroke="none" points="283,-170 283,-188 324,-188 324,-170 283,-170"/>
<polygon fill="none" stroke="black" points="283,-170 283,-188 324,-188 324,-170 283,-170"/>
<text text-anchor="start" x="315" y="-174.55" font-family="Helvetica,sans-Serif" font-size="11.00"> &#160;</text>
<polygon fill="#ffffff" stroke="none" points="324,-170 324,-188 375,-188 375,-170 324,-170"/>
<polygon fill="none" stroke="black" points="324,-170 324,-188 375,-188 375,-170 324,-170"/>
<text text-anchor="start" x="356.25" y="-174.55" font-family="Helvetica,sans-Serif" font-size="11.00">6 &gt;</text>
</a>
</g>
</g>
<!-- account_api_keys&#45;&gt;account_identities -->
<g id="edge1" class="edge">
<title>account_api_keys:w&#45;&gt;account_identities:e</title>
<path fill="none" stroke="black" d="M460.97,-619.9C440.43,-616.61 429.92,-605.64 416,-584 376.87,-523.19 448.81,-261 376.5,-261"/>
<polygon fill="black" stroke="black" points="468.19,-620.41 475.91,-624.57 472.51,-620.72 475.83,-620.95 475.83,-620.95 475.83,-620.95 472.51,-620.72 476.42,-617.39 468.19,-620.41"/>
<ellipse fill="none" stroke="black" cx="463.28" cy="-620.07" rx="3.2" ry="3.2"/>
</g>
<!-- account_api_plans -->
<g id="node4" class="node">
<title>account_api_plans</title>
<g id="a_node4"><a xlink:href="../../tables/account_api_plans.html" xlink:title="account_api_plans" target="_top">
<polygon fill="#ffffff" stroke="none" points="8,-212 8,-270 155,-270 155,-212 8,-212"/>
<polygon fill="#f5f5f5" stroke="none" points="8,-248 8,-270 155,-270 155,-248 8,-248"/>
<polygon fill="none" stroke="black" points="8,-248 8,-270 155,-270 155,-248 8,-248"/>
<text text-anchor="start" x="13" y="-255.55" font-family="Helvetica,sans-Serif" font-weight="bold" font-size="11.00">account_api_plans</text>
<text text-anchor="start" x="121" y="-254.55" font-family="Helvetica,sans-Serif" font-size="11.00">[table]</text>
<polygon fill="none" stroke="black" points="8,-230 8,-248 155,-248 155,-230 8,-230"/>
<text text-anchor="start" x="11" y="-234.55" font-family="Helvetica,sans-Serif" font-size="11.00">...</text>
<polygon fill="#ffffff" stroke="none" points="8,-212 8,-230 71,-230 71,-212 8,-212"/>
<polygon fill="none" stroke="black" points="8,-212 8,-230 71,-230 71,-212 8,-212"/>
<text text-anchor="start" x="11" y="-216.55" font-family="Helvetica,sans-Serif" font-size="11.00"> &#160;</text>
<polygon fill="#ffffff" stroke="none" points="71,-212 71,-230 108,-230 108,-212 71,-212"/>
<polygon fill="none" stroke="black" points="71,-212 71,-230 108,-230 108,-212 71,-212"/>
<text text-anchor="start" x="99" y="-216.55" font-family="Helvetica,sans-Serif" font-size="11.00"> &#160;</text>
<polygon fill="#ffffff" stroke="none" points="108,-212 108,-230 155,-230 155,-212 108,-212"/>
<polygon fill="none" stroke="black" points="108,-212 108,-230 155,-230 155,-212 108,-212"/>
<text text-anchor="start" x="136.25" y="-216.55" font-family="Helvetica,sans-Serif" font-size="11.00">1 &gt;</text>
</a>
</g>
</g>
<!-- account_identities&#45;&gt;account_api_plans -->
<g id="edge3" class="edge">
<title>account_identities:w&#45;&gt;account_api_plans:e</title>
<path fill="none" stroke="black" d="M186.89,-239C177.36,-239 170.56,-239 156.5,-239"/>
<polygon fill="black" stroke="black" points="194.17,-239 202.17,-242.6 198.5,-239 201.83,-239 201.83,-239 201.83,-239 198.5,-239 202.17,-235.4 194.17,-239"/>
<ellipse fill="none" stroke="black" cx="189.25" cy="-239" rx="3.2" ry="3.2"/>
</g>
<!-- account_custom_abis -->
<g id="node3" class="node">
<title>account_custom_abis</title>
<g id="a_node3"><a xlink:href="../../tables/account_custom_abis.html" xlink:title="account_custom_abis" target="_top">
<polygon fill="#ffffff" stroke="none" points="424,-353 424,-573 673,-573 673,-353 424,-353"/>
<polygon fill="#f5f5f5" stroke="none" points="426,-549 426,-571 671,-571 671,-549 426,-549"/>
<polygon fill="none" stroke="black" points="426,-549 426,-571 671,-571 671,-549 426,-549"/>
<text text-anchor="start" x="431" y="-556.55" font-family="Helvetica,sans-Serif" font-weight="bold" font-size="11.00">account_custom_abis</text>
<text text-anchor="start" x="636.75" y="-555.55" font-family="Helvetica,sans-Serif" font-size="11.00">[table]</text>
<polygon fill="none" stroke="black" points="426,-527 426,-549 573,-549 573,-527 426,-527"/>
<image xlink:href="../../images/primaryKeys.png" width="11px" height="12px" preserveAspectRatio="xMinYMin meet" x="431" y="-544"/>
<text text-anchor="start" x="446" y="-533.55" font-family="Helvetica,sans-Serif" font-size="11.00">id</text>
<polygon fill="none" stroke="black" points="573,-527 573,-549 671,-549 671,-527 573,-527"/>
<text text-anchor="start" x="576" y="-533.55" font-family="Helvetica,sans-Serif" font-size="11.00">serial[10]</text>
<polygon fill="#ffffff" stroke="none" points="426,-505 426,-527 573,-527 573,-505 426,-505"/>
<polygon fill="none" stroke="black" points="426,-505 426,-527 573,-527 573,-505 426,-505"/>
<image xlink:href="../../images/foreignKeys.png" width="11px" height="12px" preserveAspectRatio="xMinYMin meet" x="431" y="-522"/>
<text text-anchor="start" x="446" y="-511.55" font-family="Helvetica,sans-Serif" font-size="11.00">identity_id</text>
<polygon fill="none" stroke="black" points="573,-505 573,-527 671,-527 671,-505 573,-505"/>
<text text-anchor="start" x="576" y="-511.55" font-family="Helvetica,sans-Serif" font-size="11.00">int8[19]</text>
<polygon fill="none" stroke="black" points="426,-483 426,-505 573,-505 573,-483 426,-483"/>
<text text-anchor="start" x="446" y="-489.55" font-family="Helvetica,sans-Serif" font-size="11.00">abi</text>
<polygon fill="none" stroke="black" points="573,-483 573,-505 671,-505 671,-483 573,-483"/>
<text text-anchor="start" x="576" y="-489.55" font-family="Helvetica,sans-Serif" font-size="11.00">jsonb[2147483647]</text>
<polygon fill="none" stroke="black" points="426,-461 426,-483 573,-483 573,-461 426,-461"/>
<text text-anchor="start" x="446" y="-467.55" font-family="Helvetica,sans-Serif" font-size="11.00">inserted_at</text>
<polygon fill="none" stroke="black" points="573,-461 573,-483 671,-483 671,-461 573,-461"/>
<text text-anchor="start" x="576" y="-467.55" font-family="Helvetica,sans-Serif" font-size="11.00">timestamp[22]</text>
<polygon fill="none" stroke="black" points="426,-439 426,-461 573,-461 573,-439 426,-439"/>
<text text-anchor="start" x="446" y="-445.55" font-family="Helvetica,sans-Serif" font-size="11.00">updated_at</text>
<polygon fill="none" stroke="black" points="573,-439 573,-461 671,-461 671,-439 573,-439"/>
<text text-anchor="start" x="576" y="-445.55" font-family="Helvetica,sans-Serif" font-size="11.00">timestamp[22]</text>
<polygon fill="#ffffff" stroke="none" points="426,-417 426,-439 573,-439 573,-417 426,-417"/>
<polygon fill="none" stroke="black" points="426,-417 426,-439 573,-439 573,-417 426,-417"/>
<text text-anchor="start" x="446" y="-423.55" font-family="Helvetica,sans-Serif" font-size="11.00">address_hash_hash</text>
<polygon fill="none" stroke="black" points="573,-417 573,-439 671,-439 671,-417 573,-417"/>
<text text-anchor="start" x="575.88" y="-423.55" font-family="Helvetica,sans-Serif" font-size="11.00">bytea[2147483647]</text>
<polygon fill="none" stroke="black" points="426,-395 426,-417 573,-417 573,-395 426,-395"/>
<text text-anchor="start" x="446" y="-401.55" font-family="Helvetica,sans-Serif" font-size="11.00">address_hash</text>
<polygon fill="none" stroke="black" points="573,-395 573,-417 671,-417 671,-395 573,-395"/>
<text text-anchor="start" x="575.88" y="-401.55" font-family="Helvetica,sans-Serif" font-size="11.00">bytea[2147483647]</text>
<polygon fill="none" stroke="black" points="426,-373 426,-395 573,-395 573,-373 426,-373"/>
<text text-anchor="start" x="446" y="-379.55" font-family="Helvetica,sans-Serif" font-size="11.00">name</text>
<polygon fill="none" stroke="black" points="573,-373 573,-395 671,-395 671,-373 573,-373"/>
<text text-anchor="start" x="575.88" y="-379.55" font-family="Helvetica,sans-Serif" font-size="11.00">bytea[2147483647]</text>
<polygon fill="#ffffff" stroke="none" points="426,-355 426,-373 504,-373 504,-355 426,-355"/>
<polygon fill="none" stroke="black" points="426,-355 426,-373 504,-373 504,-355 426,-355"/>
<text text-anchor="start" x="429" y="-359.55" font-family="Helvetica,sans-Serif" font-size="11.00">&lt; 1</text>
<polygon fill="#ffffff" stroke="none" points="504,-355 504,-373 573,-373 573,-355 504,-355"/>
<polygon fill="none" stroke="black" points="504,-355 504,-373 573,-373 573,-355 504,-355"/>
<text text-anchor="start" x="564" y="-359.55" font-family="Helvetica,sans-Serif" font-size="11.00"> &#160;</text>
<polygon fill="#ffffff" stroke="none" points="573,-355 573,-373 671,-373 671,-355 573,-355"/>
<polygon fill="none" stroke="black" points="573,-355 573,-373 671,-373 671,-355 573,-355"/>
<text text-anchor="start" x="652.25" y="-359.55" font-family="Helvetica,sans-Serif" font-size="11.00">0 &gt;</text>
<polygon fill="none" stroke="black" stroke-width="2" points="425,-354 425,-572 672,-572 672,-354 425,-354"/>
</a>
</g>
</g>
<!-- account_custom_abis&#45;&gt;account_identities -->
<g id="edge2" class="edge">
<title>account_custom_abis:w&#45;&gt;account_identities:e</title>
<path fill="none" stroke="black" d="M410.54,-508.64C379.22,-466.83 428.31,-261 376.5,-261"/>
<polygon fill="black" stroke="black" points="417.13,-512.12 422.53,-519.03 420.96,-514.14 423.91,-515.69 423.91,-515.69 423.91,-515.69 420.96,-514.14 425.88,-512.66 417.13,-512.12"/>
<ellipse fill="none" stroke="black" cx="412.77" cy="-509.82" rx="3.2" ry="3.2"/>
</g>
<!-- account_public_tags_requests -->
<g id="node5" class="node">
<title>account_public_tags_requests</title>
<g id="a_node5"><a xlink:href="../../tables/account_public_tags_requests.html" xlink:title="account_public_tags_requests" target="_top">
<polygon fill="#ffffff" stroke="none" points="441,-274 441,-332 656,-332 656,-274 441,-274"/>
<polygon fill="#f5f5f5" stroke="none" points="441,-310 441,-332 656,-332 656,-310 441,-310"/>
<polygon fill="none" stroke="black" points="441,-310 441,-332 656,-332 656,-310 441,-310"/>
<text text-anchor="start" x="446" y="-317.55" font-family="Helvetica,sans-Serif" font-weight="bold" font-size="11.00">account_public_tags_requests</text>
<text text-anchor="start" x="622" y="-316.55" font-family="Helvetica,sans-Serif" font-size="11.00">[table]</text>
<polygon fill="none" stroke="black" points="441,-292 441,-310 656,-310 656,-292 441,-292"/>
<text text-anchor="start" x="444" y="-296.55" font-family="Helvetica,sans-Serif" font-size="11.00">...</text>
<polygon fill="#ffffff" stroke="none" points="441,-274 441,-292 547,-292 547,-274 441,-274"/>
<polygon fill="none" stroke="black" points="441,-274 441,-292 547,-292 547,-274 441,-274"/>
<text text-anchor="start" x="444" y="-278.55" font-family="Helvetica,sans-Serif" font-size="11.00">&lt; 1</text>
<polygon fill="#ffffff" stroke="none" points="547,-274 547,-292 601,-292 601,-274 547,-274"/>
<polygon fill="none" stroke="black" points="547,-274 547,-292 601,-292 601,-274 547,-274"/>
<text text-anchor="start" x="592" y="-278.55" font-family="Helvetica,sans-Serif" font-size="11.00"> &#160;</text>
<polygon fill="#ffffff" stroke="none" points="601,-274 601,-292 656,-292 656,-274 601,-274"/>
<polygon fill="none" stroke="black" points="601,-274 601,-292 656,-292 656,-274 601,-274"/>
<text text-anchor="start" x="647" y="-278.55" font-family="Helvetica,sans-Serif" font-size="11.00"> &#160;</text>
</a>
</g>
</g>
<!-- account_public_tags_requests&#45;&gt;account_identities -->
<g id="edge4" class="edge">
<title>account_public_tags_requests:w&#45;&gt;account_identities:e</title>
<path fill="none" stroke="black" d="M424.21,-297.31C406.3,-287.41 403.45,-261 376.5,-261"/>
<polygon fill="black" stroke="black" points="431.4,-299.04 438.33,-304.42 435.61,-300.06 438.85,-300.84 438.85,-300.84 438.85,-300.84 435.61,-300.06 440.02,-297.42 431.4,-299.04"/>
<ellipse fill="none" stroke="black" cx="426.62" cy="-297.89" rx="3.2" ry="3.2"/>
</g>
<!-- account_tag_addresses -->
<g id="node6" class="node">
<title>account_tag_addresses</title>
<g id="a_node6"><a xlink:href="../../tables/account_tag_addresses.html" xlink:title="account_tag_addresses" target="_top">
<polygon fill="#ffffff" stroke="none" points="461,-195 461,-253 636,-253 636,-195 461,-195"/>
<polygon fill="#f5f5f5" stroke="none" points="461,-231 461,-253 636,-253 636,-231 461,-231"/>
<polygon fill="none" stroke="black" points="461,-231 461,-253 636,-253 636,-231 461,-231"/>
<text text-anchor="start" x="466" y="-238.55" font-family="Helvetica,sans-Serif" font-weight="bold" font-size="11.00">account_tag_addresses</text>
<text text-anchor="start" x="602" y="-237.55" font-family="Helvetica,sans-Serif" font-size="11.00">[table]</text>
<polygon fill="none" stroke="black" points="461,-213 461,-231 636,-231 636,-213 461,-213"/>
<text text-anchor="start" x="464" y="-217.55" font-family="Helvetica,sans-Serif" font-size="11.00">...</text>
<polygon fill="#ffffff" stroke="none" points="461,-195 461,-213 547,-213 547,-195 461,-195"/>
<polygon fill="none" stroke="black" points="461,-195 461,-213 547,-213 547,-195 461,-195"/>
<text text-anchor="start" x="464" y="-199.55" font-family="Helvetica,sans-Serif" font-size="11.00">&lt; 1</text>
<polygon fill="#ffffff" stroke="none" points="547,-195 547,-213 591,-213 591,-195 547,-195"/>
<polygon fill="none" stroke="black" points="547,-195 547,-213 591,-213 591,-195 547,-195"/>
<text text-anchor="start" x="582" y="-199.55" font-family="Helvetica,sans-Serif" font-size="11.00"> &#160;</text>
<polygon fill="#ffffff" stroke="none" points="591,-195 591,-213 636,-213 636,-195 591,-195"/>
<polygon fill="none" stroke="black" points="591,-195 591,-213 636,-213 636,-195 591,-195"/>
<text text-anchor="start" x="627" y="-199.55" font-family="Helvetica,sans-Serif" font-size="11.00"> &#160;</text>
</a>
</g>
</g>
<!-- account_tag_addresses&#45;&gt;account_identities -->
<g id="edge5" class="edge">
<title>account_tag_addresses:w&#45;&gt;account_identities:e</title>
<path fill="none" stroke="black" d="M444.05,-224.21C417.49,-232.46 411.37,-261 376.5,-261"/>
<polygon fill="black" stroke="black" points="451.25,-223.18 459.68,-225.61 455.54,-222.57 458.84,-222.09 458.84,-222.09 458.84,-222.09 455.54,-222.57 458.66,-218.48 451.25,-223.18"/>
<ellipse fill="none" stroke="black" cx="446.38" cy="-223.88" rx="3.2" ry="3.2"/>
</g>
<!-- account_tag_transactions -->
<g id="node7" class="node">
<title>account_tag_transactions</title>
<g id="a_node7"><a xlink:href="../../tables/account_tag_transactions.html" xlink:title="account_tag_transactions" target="_top">
<polygon fill="#ffffff" stroke="none" points="455,-116 455,-174 642,-174 642,-116 455,-116"/>
<polygon fill="#f5f5f5" stroke="none" points="455,-152 455,-174 642,-174 642,-152 455,-152"/>
<polygon fill="none" stroke="black" points="455,-152 455,-174 642,-174 642,-152 455,-152"/>
<text text-anchor="start" x="460" y="-159.55" font-family="Helvetica,sans-Serif" font-weight="bold" font-size="11.00">account_tag_transactions</text>
<text text-anchor="start" x="608" y="-158.55" font-family="Helvetica,sans-Serif" font-size="11.00">[table]</text>
<polygon fill="none" stroke="black" points="455,-134 455,-152 642,-152 642,-134 455,-134"/>
<text text-anchor="start" x="458" y="-138.55" font-family="Helvetica,sans-Serif" font-size="11.00">...</text>
<polygon fill="#ffffff" stroke="none" points="455,-116 455,-134 547,-134 547,-116 455,-116"/>
<polygon fill="none" stroke="black" points="455,-116 455,-134 547,-134 547,-116 455,-116"/>
<text text-anchor="start" x="458" y="-120.55" font-family="Helvetica,sans-Serif" font-size="11.00">&lt; 1</text>
<polygon fill="#ffffff" stroke="none" points="547,-116 547,-134 594,-134 594,-116 547,-116"/>
<polygon fill="none" stroke="black" points="547,-116 547,-134 594,-134 594,-116 547,-116"/>
<text text-anchor="start" x="585" y="-120.55" font-family="Helvetica,sans-Serif" font-size="11.00"> &#160;</text>
<polygon fill="#ffffff" stroke="none" points="594,-116 594,-134 642,-134 642,-116 594,-116"/>
<polygon fill="none" stroke="black" points="594,-116 594,-134 642,-134 642,-116 594,-116"/>
<text text-anchor="start" x="633" y="-120.55" font-family="Helvetica,sans-Serif" font-size="11.00"> &#160;</text>
</a>
</g>
</g>
<!-- account_tag_transactions&#45;&gt;account_identities -->
<g id="edge6" class="edge">
<title>account_tag_transactions:w&#45;&gt;account_identities:e</title>
<path fill="none" stroke="black" d="M438.42,-147.11C428.27,-154.31 426.44,-169.88 416,-185 394.38,-216.33 414.57,-261 376.5,-261"/>
<polygon fill="black" stroke="black" points="445.46,-145.19 454.13,-146.56 449.64,-144.05 452.85,-143.18 452.85,-143.18 452.85,-143.18 449.64,-144.05 452.23,-139.62 445.46,-145.19"/>
<ellipse fill="none" stroke="black" cx="440.71" cy="-146.49" rx="3.2" ry="3.2"/>
</g>
<!-- account_watchlists -->
<g id="node8" class="node">
<title>account_watchlists</title>
<g id="a_node8"><a xlink:href="../../tables/account_watchlists.html" xlink:title="account_watchlists" target="_top">
<polygon fill="#ffffff" stroke="none" points="474,-37 474,-95 623,-95 623,-37 474,-37"/>
<polygon fill="#f5f5f5" stroke="none" points="474,-73 474,-95 623,-95 623,-73 474,-73"/>
<polygon fill="none" stroke="black" points="474,-73 474,-95 623,-95 623,-73 474,-73"/>
<text text-anchor="start" x="479" y="-80.55" font-family="Helvetica,sans-Serif" font-weight="bold" font-size="11.00">account_watchlists</text>
<text text-anchor="start" x="589" y="-79.55" font-family="Helvetica,sans-Serif" font-size="11.00">[table]</text>
<polygon fill="none" stroke="black" points="474,-55 474,-73 623,-73 623,-55 474,-55"/>
<text text-anchor="start" x="477" y="-59.55" font-family="Helvetica,sans-Serif" font-size="11.00">...</text>
<polygon fill="#ffffff" stroke="none" points="474,-37 474,-55 542,-55 542,-37 474,-37"/>
<polygon fill="none" stroke="black" points="474,-37 474,-55 542,-55 542,-37 474,-37"/>
<text text-anchor="start" x="477" y="-41.55" font-family="Helvetica,sans-Serif" font-size="11.00">&lt; 1</text>
<polygon fill="#ffffff" stroke="none" points="542,-37 542,-55 578,-55 578,-37 542,-37"/>
<polygon fill="none" stroke="black" points="542,-37 542,-55 578,-55 578,-37 542,-37"/>
<text text-anchor="start" x="569" y="-41.55" font-family="Helvetica,sans-Serif" font-size="11.00"> &#160;</text>
<polygon fill="#ffffff" stroke="none" points="578,-37 578,-55 623,-55 623,-37 578,-37"/>
<polygon fill="none" stroke="black" points="578,-37 578,-55 623,-55 623,-37 578,-37"/>
<text text-anchor="start" x="604.25" y="-41.55" font-family="Helvetica,sans-Serif" font-size="11.00">1 &gt;</text>
</a>
</g>
</g>
<!-- account_watchlists&#45;&gt;account_identities -->
<g id="edge7" class="edge">
<title>account_watchlists:w&#45;&gt;account_identities:e</title>
<path fill="none" stroke="black" d="M456.88,-65.72C437.88,-70.49 430.09,-84.98 416,-106 376.42,-165.05 447.59,-261 376.5,-261"/>
<polygon fill="black" stroke="black" points="464.22,-64.91 472.56,-67.61 468.52,-64.44 471.84,-64.07 471.84,-64.07 471.84,-64.07 468.52,-64.44 471.77,-60.46 464.22,-64.91"/>
<ellipse fill="none" stroke="black" cx="459.33" cy="-65.45" rx="3.2" ry="3.2"/>
</g>
</g>
</svg>
