<?xml version="1.0" encoding="UTF-8" standalone="no"?>
<!DOCTYPE svg PUBLIC "-//W3C//DTD SVG 1.1//EN"
 "http://www.w3.org/Graphics/SVG/1.1/DTD/svg11.dtd">
<!-- Generated by graphviz version 2.43.0 (0)
 -->
<!-- Title: oneDegreeRelationshipsDiagram Pages: 1 -->
<svg width="864pt" height="709pt"
 viewBox="0.00 0.00 864.00 709.00" xmlns="http://www.w3.org/2000/svg" xmlns:xlink="http://www.w3.org/1999/xlink">
<g id="graph0" class="graph" transform="scale(1 1) rotate(0) translate(4 705)">
<title>oneDegreeRelationshipsDiagram</title>
<polygon fill="#ffffff" stroke="transparent" points="-4,4 -4,-705 860,-705 860,4 -4,4"/>
<text text-anchor="middle" x="79.5" y="-7.2" font-family="Helvetica,sans-Serif" font-size="11.00">Generated by SchemaSpy</text>
<!-- account_api_keys -->
<g id="node1" class="node">
<title>account_api_keys</title>
<g id="a_node1"><a xlink:href="../../tables/account_api_keys.html" xlink:title="account_api_keys" target="_top">
<polygon fill="#ffffff" stroke="transparent" points="644.5,-595 644.5,-697 818.5,-697 818.5,-595 644.5,-595"/>
<polygon fill="#f5f5f5" stroke="transparent" points="644.5,-675 644.5,-697 818.5,-697 818.5,-675 644.5,-675"/>
<polygon fill="none" stroke="black" points="644.5,-675 644.5,-697 818.5,-697 818.5,-675 644.5,-675"/>
<text text-anchor="start" x="649.5" y="-684.2" font-family="Helvetica,sans-Serif" font-weight="bold" font-size="11.00">account_api_keys</text>
<text text-anchor="start" x="776.5" y="-683.2" font-family="Helvetica,sans-Serif" font-size="11.00">[table]</text>
<polygon fill="#ffffff" stroke="transparent" points="644.5,-653 644.5,-675 818.5,-675 818.5,-653 644.5,-653"/>
<polygon fill="none" stroke="black" points="644.5,-653 644.5,-675 818.5,-675 818.5,-653 644.5,-653"/>
<image xlink:href="../../images/foreignKeys.png" width="11px" height="12px" preserveAspectRatio="xMinYMin meet" x="649.5" y="-670"/>
<text text-anchor="start" x="677.5" y="-661.2" font-family="Helvetica,sans-Serif" font-size="11.00">identity_id</text>
<polygon fill="none" stroke="black" points="644.5,-631 644.5,-653 818.5,-653 818.5,-631 644.5,-631"/>
<image xlink:href="../../images/primaryKeys.png" width="11px" height="12px" preserveAspectRatio="xMinYMin meet" x="649.5" y="-648"/>
<text text-anchor="start" x="677.5" y="-639.2" font-family="Helvetica,sans-Serif" font-size="11.00">value</text>
<polygon fill="none" stroke="black" points="644.5,-613 644.5,-631 818.5,-631 818.5,-613 644.5,-613"/>
<text text-anchor="start" x="647.5" y="-619.2" font-family="Helvetica,sans-Serif" font-size="11.00">...</text>
<polygon fill="#ffffff" stroke="transparent" points="644.5,-595 644.5,-613 818.5,-613 818.5,-595 644.5,-595"/>
<polygon fill="none" stroke="black" points="644.5,-595 644.5,-613 818.5,-613 818.5,-595 644.5,-595"/>
<polygon fill="#ffffff" stroke="transparent" points="645.5,-596 645.5,-612 711.5,-612 711.5,-596 645.5,-596"/>
<text text-anchor="start" x="647.5" y="-601.2" font-family="Helvetica,sans-Serif" font-size="11.00">&lt; 1</text>
<polygon fill="#ffffff" stroke="transparent" points="711.5,-596 711.5,-612 764.5,-612 764.5,-596 711.5,-596"/>
<text text-anchor="start" x="734" y="-601.2" font-family="Helvetica,sans-Serif" font-size="11.00"> &#160;</text>
<polygon fill="#ffffff" stroke="transparent" points="764.5,-596 764.5,-612 817.5,-612 817.5,-596 764.5,-596"/>
<text text-anchor="start" x="807.5" y="-601.2" font-family="Helvetica,sans-Serif" font-size="11.00"> &#160;</text>
<polygon fill="black" stroke="black" points="711.5,-596 711.5,-612 711.5,-612 711.5,-596 711.5,-596"/>
<polygon fill="black" stroke="black" points="764.5,-596 764.5,-612 764.5,-612 764.5,-596 764.5,-596"/>
</a>
</g>
</g>
<!-- account_identities -->
<g id="node2" class="node">
<title>account_identities</title>
<g id="a_node2"><a xlink:href="../../tables/account_identities.html" xlink:title="account_identities" target="_top">
<polygon fill="#ffffff" stroke="transparent" points="236,-145 236,-409 566,-409 566,-145 236,-145"/>
<polygon fill="#f5f5f5" stroke="transparent" points="238,-385 238,-407 564,-407 564,-385 238,-385"/>
<polygon fill="none" stroke="black" points="238,-385 238,-407 564,-407 564,-385 238,-385"/>
<text text-anchor="start" x="243" y="-394.2" font-family="Helvetica,sans-Serif" font-weight="bold" font-size="11.00">account_identities</text>
<text text-anchor="start" x="522" y="-393.2" font-family="Helvetica,sans-Serif" font-size="11.00">[table]</text>
<polygon fill="none" stroke="black" points="238,-363 238,-385 449,-385 449,-363 238,-363"/>
<image xlink:href="../../images/primaryKeys.png" width="11px" height="12px" preserveAspectRatio="xMinYMin meet" x="243" y="-380"/>
<text text-anchor="start" x="258" y="-371.2" font-family="Helvetica,sans-Serif" font-size="11.00">id</text>
<polygon fill="none" stroke="black" points="449,-363 449,-385 564,-385 564,-363 449,-363"/>
<text text-anchor="start" x="452" y="-371.2" font-family="Helvetica,sans-Serif" font-size="11.00">bigserial[19]</text>
<polygon fill="none" stroke="black" points="238,-341 238,-363 449,-363 449,-341 238,-341"/>
<text text-anchor="start" x="258" y="-349.2" font-family="Helvetica,sans-Serif" font-size="11.00">inserted_at</text>
<polygon fill="none" stroke="black" points="449,-341 449,-363 564,-363 564,-341 449,-341"/>
<text text-anchor="start" x="452" y="-349.2" font-family="Helvetica,sans-Serif" font-size="11.00">timestamp[22]</text>
<polygon fill="none" stroke="black" points="238,-319 238,-341 449,-341 449,-319 238,-319"/>
<text text-anchor="start" x="258" y="-327.2" font-family="Helvetica,sans-Serif" font-size="11.00">updated_at</text>
<polygon fill="none" stroke="black" points="449,-319 449,-341 564,-341 564,-319 449,-319"/>
<text text-anchor="start" x="452" y="-327.2" font-family="Helvetica,sans-Serif" font-size="11.00">timestamp[22]</text>
<polygon fill="none" stroke="black" points="238,-297 238,-319 449,-319 449,-297 238,-297"/>
<image xlink:href="../../images/foreignKeys.png" width="11px" height="12px" preserveAspectRatio="xMinYMin meet" x="243" y="-314"/>
<text text-anchor="start" x="258" y="-305.2" font-family="Helvetica,sans-Serif" font-size="11.00">plan_id</text>
<polygon fill="none" stroke="black" points="449,-297 449,-319 564,-319 564,-297 449,-297"/>
<text text-anchor="start" x="452" y="-305.2" font-family="Helvetica,sans-Serif" font-size="11.00">int8[19]</text>
<polygon fill="none" stroke="black" points="238,-275 238,-297 449,-297 449,-275 238,-275"/>
<text text-anchor="start" x="258" y="-283.2" font-family="Helvetica,sans-Serif" font-size="11.00">uid</text>
<polygon fill="none" stroke="black" points="449,-275 449,-297 564,-297 564,-275 449,-275"/>
<text text-anchor="start" x="452" y="-283.2" font-family="Helvetica,sans-Serif" font-size="11.00">bytea[2147483647]</text>
<polygon fill="#ffffff" stroke="transparent" points="238,-253 238,-275 449,-275 449,-253 238,-253"/>
<polygon fill="none" stroke="black" points="238,-253 238,-275 449,-275 449,-253 238,-253"/>
<text text-anchor="start" x="258" y="-261.2" font-family="Helvetica,sans-Serif" font-size="11.00">uid_hash</text>
<polygon fill="none" stroke="black" points="449,-253 449,-275 564,-275 564,-253 449,-253"/>
<text text-anchor="start" x="452" y="-261.2" font-family="Helvetica,sans-Serif" font-size="11.00">bytea[2147483647]</text>
<polygon fill="none" stroke="black" points="238,-231 238,-253 449,-253 449,-231 238,-231"/>
<text text-anchor="start" x="258" y="-239.2" font-family="Helvetica,sans-Serif" font-size="11.00">email</text>
<polygon fill="none" stroke="black" points="449,-231 449,-253 564,-253 564,-231 449,-231"/>
<text text-anchor="start" x="452" y="-239.2" font-family="Helvetica,sans-Serif" font-size="11.00">bytea[2147483647]</text>
<polygon fill="none" stroke="black" points="238,-209 238,-231 449,-231 449,-209 238,-209"/>
<text text-anchor="start" x="258" y="-217.2" font-family="Helvetica,sans-Serif" font-size="11.00">avatar</text>
<polygon fill="none" stroke="black" points="449,-209 449,-231 564,-231 564,-209 449,-209"/>
<text text-anchor="start" x="452" y="-217.2" font-family="Helvetica,sans-Serif" font-size="11.00">bytea[2147483647]</text>
<polygon fill="none" stroke="black" points="238,-187 238,-209 449,-209 449,-187 238,-187"/>
<text text-anchor="start" x="258" y="-195.2" font-family="Helvetica,sans-Serif" font-size="11.00">verification_email_sent_at</text>
<polygon fill="none" stroke="black" points="449,-187 449,-209 564,-209 564,-187 449,-187"/>
<text text-anchor="start" x="452" y="-195.2" font-family="Helvetica,sans-Serif" font-size="11.00">timestamp[29,6]</text>
<polygon fill="none" stroke="black" points="238,-165 238,-187 449,-187 449,-165 238,-165"/>
<text text-anchor="start" x="258" y="-173.2" font-family="Helvetica,sans-Serif" font-size="11.00">otp_sent_at</text>
<polygon fill="none" stroke="black" points="449,-165 449,-187 564,-187 564,-165 449,-165"/>
<text text-anchor="start" x="452" y="-173.2" font-family="Helvetica,sans-Serif" font-size="11.00">timestamp[29,6]</text>
<polygon fill="#ffffff" stroke="transparent" points="238,-147 238,-165 564,-165 564,-147 238,-147"/>
<polygon fill="none" stroke="black" points="238,-147 238,-165 564,-165 564,-147 238,-147"/>
<polygon fill="#ffffff" stroke="transparent" points="239,-148 239,-164 351,-164 351,-148 239,-148"/>
<text text-anchor="start" x="241" y="-153.2" font-family="Helvetica,sans-Serif" font-size="11.00">&lt; 1</text>
<polygon fill="#ffffff" stroke="transparent" points="351,-148 351,-164 451,-164 451,-148 351,-148"/>
<text text-anchor="start" x="397" y="-153.2" font-family="Helvetica,sans-Serif" font-size="11.00"> &#160;</text>
<polygon fill="#ffffff" stroke="transparent" points="451,-148 451,-164 563,-164 563,-148 451,-148"/>
<text text-anchor="start" x="541" y="-153.2" font-family="Helvetica,sans-Serif" font-size="11.00">5 &gt;</text>
<polygon fill="black" stroke="black" points="351,-148 351,-164 351,-164 351,-148 351,-148"/>
<polygon fill="black" stroke="black" points="451,-148 451,-164 451,-164 451,-148 451,-148"/>
<polygon fill="none" stroke="black" stroke-width="2" points="237,-146 237,-408 565,-408 565,-146 237,-146"/>
</a>
</g>
</g>
<!-- account_api_keys&#45;&gt;account_identities -->
<g id="edge1" class="edge">
<title>account_api_keys:w&#45;&gt;account_identities:e</title>
<path fill="none" stroke="black" d="M629.22,-661.23C608.53,-651.26 617.15,-616.18 607,-585 592.2,-539.54 612.81,-374 565,-374"/>
<polygon fill="black" stroke="black" points="635.65,-662.48 642.81,-667.53 639.57,-663.24 643.5,-664 643.5,-664 643.5,-664 639.57,-663.24 644.19,-660.47 635.65,-662.48 635.65,-662.48"/>
<ellipse fill="none" stroke="black" cx="632.51" cy="-661.87" rx="3.2" ry="3.2"/>
</g>
<!-- account_api_plans -->
<g id="node4" class="node">
<title>account_api_plans</title>
<g id="a_node4"><a xlink:href="../../tables/account_api_plans.html" xlink:title="account_api_plans" target="_top">
<polygon fill="#ffffff" stroke="transparent" points="8,-217 8,-341 187,-341 187,-217 8,-217"/>
<polygon fill="#f5f5f5" stroke="transparent" points="8.5,-319 8.5,-341 187.5,-341 187.5,-319 8.5,-319"/>
<polygon fill="none" stroke="black" points="8.5,-319 8.5,-341 187.5,-341 187.5,-319 8.5,-319"/>
<text text-anchor="start" x="13.5" y="-328.2" font-family="Helvetica,sans-Serif" font-weight="bold" font-size="11.00">account_api_plans</text>
<text text-anchor="start" x="145.5" y="-327.2" font-family="Helvetica,sans-Serif" font-size="11.00">[table]</text>
<polygon fill="none" stroke="black" points="8.5,-297 8.5,-319 187.5,-319 187.5,-297 8.5,-297"/>
<image xlink:href="../../images/primaryKeys.png" width="11px" height="12px" preserveAspectRatio="xMinYMin meet" x="13.5" y="-314"/>
<text text-anchor="start" x="32.5" y="-305.2" font-family="Helvetica,sans-Serif" font-size="11.00">id</text>
<polygon fill="#ffffff" stroke="transparent" points="8.5,-275 8.5,-297 187.5,-297 187.5,-275 8.5,-275"/>
<polygon fill="none" stroke="black" points="8.5,-275 8.5,-297 187.5,-297 187.5,-275 8.5,-275"/>
<text text-anchor="start" x="32.5" y="-283.2" font-family="Helvetica,sans-Serif" font-size="11.00">max_req_per_second</text>
<polygon fill="#ffffff" stroke="transparent" points="8.5,-253 8.5,-275 187.5,-275 187.5,-253 8.5,-253"/>
<polygon fill="none" stroke="black" points="8.5,-253 8.5,-275 187.5,-275 187.5,-253 8.5,-253"/>
<text text-anchor="start" x="32.5" y="-261.2" font-family="Helvetica,sans-Serif" font-size="11.00">name</text>
<polygon fill="none" stroke="black" points="8.5,-235 8.5,-253 187.5,-253 187.5,-235 8.5,-235"/>
<text text-anchor="start" x="11.5" y="-241.2" font-family="Helvetica,sans-Serif" font-size="11.00">...</text>
<polygon fill="#ffffff" stroke="transparent" points="8.5,-217 8.5,-235 187.5,-235 187.5,-217 8.5,-217"/>
<polygon fill="none" stroke="black" points="8.5,-217 8.5,-235 187.5,-235 187.5,-217 8.5,-217"/>
<polygon fill="#ffffff" stroke="transparent" points="9.5,-218 9.5,-234 64.5,-234 64.5,-218 9.5,-218"/>
<text text-anchor="start" x="11.5" y="-223.2" font-family="Helvetica,sans-Serif" font-size="11.00"> &#160;</text>
<polygon fill="#ffffff" stroke="transparent" points="64.5,-218 64.5,-234 119.5,-234 119.5,-218 64.5,-218"/>
<text text-anchor="start" x="88" y="-223.2" font-family="Helvetica,sans-Serif" font-size="11.00"> &#160;</text>
<polygon fill="#ffffff" stroke="transparent" points="119.5,-218 119.5,-234 186.5,-234 186.5,-218 119.5,-218"/>
<text text-anchor="start" x="164.5" y="-223.2" font-family="Helvetica,sans-Serif" font-size="11.00">1 &gt;</text>
<polygon fill="black" stroke="black" points="64.5,-218 64.5,-234 64.5,-234 64.5,-218 64.5,-218"/>
<polygon fill="black" stroke="black" points="119.5,-218 119.5,-234 119.5,-234 119.5,-218 119.5,-218"/>
</a>
</g>
</g>
<!-- account_identities&#45;&gt;account_api_plans -->
<g id="edge3" class="edge">
<title>account_identities:w&#45;&gt;account_api_plans:e</title>
<path fill="none" stroke="black" d="M222.28,-308C211.29,-308 204.16,-308 188.5,-308"/>
<polygon fill="black" stroke="black" points="229,-308 237,-311.6 233,-308 237,-308 237,-308 237,-308 233,-308 237,-304.4 229,-308 229,-308"/>
<ellipse fill="none" stroke="black" cx="225.8" cy="-308" rx="3.2" ry="3.2"/>
</g>
<!-- account_custom_abis -->
<g id="node3" class="node">
<title>account_custom_abis</title>
<g id="a_node3"><a xlink:href="../../tables/account_custom_abis.html" xlink:title="account_custom_abis" target="_top">
<polygon fill="#ffffff" stroke="transparent" points="631,-450 631,-574 832,-574 832,-450 631,-450"/>
<polygon fill="#f5f5f5" stroke="transparent" points="631.5,-552 631.5,-574 832.5,-574 832.5,-552 631.5,-552"/>
<polygon fill="none" stroke="black" points="631.5,-552 631.5,-574 832.5,-574 832.5,-552 631.5,-552"/>
<text text-anchor="start" x="636.5" y="-561.2" font-family="Helvetica,sans-Serif" font-weight="bold" font-size="11.00">account_custom_abis</text>
<text text-anchor="start" x="790.5" y="-560.2" font-family="Helvetica,sans-Serif" font-size="11.00">[table]</text>
<polygon fill="none" stroke="black" points="631.5,-530 631.5,-552 832.5,-552 832.5,-530 631.5,-530"/>
<image xlink:href="../../images/primaryKeys.png" width="11px" height="12px" preserveAspectRatio="xMinYMin meet" x="636.5" y="-547"/>
<text text-anchor="start" x="664.5" y="-538.2" font-family="Helvetica,sans-Serif" font-size="11.00">id</text>
<polygon fill="#ffffff" stroke="transparent" points="631.5,-508 631.5,-530 832.5,-530 832.5,-508 631.5,-508"/>
<polygon fill="none" stroke="black" points="631.5,-508 631.5,-530 832.5,-530 832.5,-508 631.5,-508"/>
<image xlink:href="../../images/foreignKeys.png" width="11px" height="12px" preserveAspectRatio="xMinYMin meet" x="636.5" y="-525"/>
<text text-anchor="start" x="664.5" y="-516.2" font-family="Helvetica,sans-Serif" font-size="11.00">identity_id</text>
<polygon fill="#ffffff" stroke="transparent" points="631.5,-486 631.5,-508 832.5,-508 832.5,-486 631.5,-486"/>
<polygon fill="none" stroke="black" points="631.5,-486 631.5,-508 832.5,-508 832.5,-486 631.5,-486"/>
<text text-anchor="start" x="664.5" y="-494.2" font-family="Helvetica,sans-Serif" font-size="11.00">address_hash_hash</text>
<polygon fill="none" stroke="black" points="631.5,-468 631.5,-486 832.5,-486 832.5,-468 631.5,-468"/>
<text text-anchor="start" x="634.5" y="-474.2" font-family="Helvetica,sans-Serif" font-size="11.00">...</text>
<polygon fill="#ffffff" stroke="transparent" points="631.5,-450 631.5,-468 832.5,-468 832.5,-450 631.5,-450"/>
<polygon fill="none" stroke="black" points="631.5,-450 631.5,-468 832.5,-468 832.5,-450 631.5,-450"/>
<polygon fill="#ffffff" stroke="transparent" points="632.5,-451 632.5,-467 707.5,-467 707.5,-451 632.5,-451"/>
<text text-anchor="start" x="634.5" y="-456.2" font-family="Helvetica,sans-Serif" font-size="11.00">&lt; 1</text>
<polygon fill="#ffffff" stroke="transparent" points="707.5,-451 707.5,-467 769.5,-467 769.5,-451 707.5,-451"/>
<text text-anchor="start" x="734.5" y="-456.2" font-family="Helvetica,sans-Serif" font-size="11.00"> &#160;</text>
<polygon fill="#ffffff" stroke="transparent" points="769.5,-451 769.5,-467 831.5,-467 831.5,-451 769.5,-451"/>
<text text-anchor="start" x="821.5" y="-456.2" font-family="Helvetica,sans-Serif" font-size="11.00"> &#160;</text>
<polygon fill="black" stroke="black" points="707.5,-451 707.5,-467 707.5,-467 707.5,-451 707.5,-451"/>
<polygon fill="black" stroke="black" points="769.5,-451 769.5,-467 769.5,-467 769.5,-451 769.5,-451"/>
</a>
</g>
</g>
<!-- account_custom_abis&#45;&gt;account_identities -->
<g id="edge2" class="edge">
<title>account_custom_abis:w&#45;&gt;account_identities:e</title>
<path fill="none" stroke="black" d="M616.18,-516.36C571.01,-496.71 630.05,-374 565,-374"/>
<polygon fill="black" stroke="black" points="622.63,-517.55 629.85,-522.54 626.57,-518.27 630.5,-519 630.5,-519 630.5,-519 626.57,-518.27 631.15,-515.46 622.63,-517.55 622.63,-517.55"/>
<ellipse fill="none" stroke="black" cx="619.49" cy="-516.97" rx="3.2" ry="3.2"/>
</g>
<!-- account_tag_addresses -->
<g id="node5" class="node">
<title>account_tag_addresses</title>
<g id="a_node5"><a xlink:href="../../tables/account_tag_addresses.html" xlink:title="account_tag_addresses" target="_top">
<polygon fill="#ffffff" stroke="transparent" points="623.5,-305 623.5,-429 839.5,-429 839.5,-305 623.5,-305"/>
<polygon fill="#f5f5f5" stroke="transparent" points="623.5,-407 623.5,-429 839.5,-429 839.5,-407 623.5,-407"/>
<polygon fill="none" stroke="black" points="623.5,-407 623.5,-429 839.5,-429 839.5,-407 623.5,-407"/>
<text text-anchor="start" x="628.5" y="-416.2" font-family="Helvetica,sans-Serif" font-weight="bold" font-size="11.00">account_tag_addresses</text>
<text text-anchor="start" x="797.5" y="-415.2" font-family="Helvetica,sans-Serif" font-size="11.00">[table]</text>
<polygon fill="none" stroke="black" points="623.5,-385 623.5,-407 839.5,-407 839.5,-385 623.5,-385"/>
<image xlink:href="../../images/primaryKeys.png" width="11px" height="12px" preserveAspectRatio="xMinYMin meet" x="628.5" y="-402"/>
<text text-anchor="start" x="656.5" y="-393.2" font-family="Helvetica,sans-Serif" font-size="11.00">id</text>
<polygon fill="#ffffff" stroke="transparent" points="623.5,-363 623.5,-385 839.5,-385 839.5,-363 623.5,-363"/>
<polygon fill="none" stroke="black" points="623.5,-363 623.5,-385 839.5,-385 839.5,-363 623.5,-363"/>
<image xlink:href="../../images/foreignKeys.png" width="11px" height="12px" preserveAspectRatio="xMinYMin meet" x="628.5" y="-380"/>
<text text-anchor="start" x="656.5" y="-371.2" font-family="Helvetica,sans-Serif" font-size="11.00">identity_id</text>
<polygon fill="#ffffff" stroke="transparent" points="623.5,-341 623.5,-363 839.5,-363 839.5,-341 623.5,-341"/>
<polygon fill="none" stroke="black" points="623.5,-341 623.5,-363 839.5,-363 839.5,-341 623.5,-341"/>
<text text-anchor="start" x="656.5" y="-349.2" font-family="Helvetica,sans-Serif" font-size="11.00">address_hash_hash</text>
<polygon fill="none" stroke="black" points="623.5,-323 623.5,-341 839.5,-341 839.5,-323 623.5,-323"/>
<text text-anchor="start" x="626.5" y="-329.2" font-family="Helvetica,sans-Serif" font-size="11.00">...</text>
<polygon fill="#ffffff" stroke="transparent" points="623.5,-305 623.5,-323 839.5,-323 839.5,-305 623.5,-305"/>
<polygon fill="none" stroke="black" points="623.5,-305 623.5,-323 839.5,-323 839.5,-305 623.5,-305"/>
<polygon fill="#ffffff" stroke="transparent" points="624.5,-306 624.5,-322 704.5,-322 704.5,-306 624.5,-306"/>
<text text-anchor="start" x="626.5" y="-311.2" font-family="Helvetica,sans-Serif" font-size="11.00">&lt; 1</text>
<polygon fill="#ffffff" stroke="transparent" points="704.5,-306 704.5,-322 771.5,-322 771.5,-306 704.5,-306"/>
<text text-anchor="start" x="734" y="-311.2" font-family="Helvetica,sans-Serif" font-size="11.00"> &#160;</text>
<polygon fill="#ffffff" stroke="transparent" points="771.5,-306 771.5,-322 838.5,-322 838.5,-306 771.5,-306"/>
<text text-anchor="start" x="828.5" y="-311.2" font-family="Helvetica,sans-Serif" font-size="11.00"> &#160;</text>
<polygon fill="black" stroke="black" points="704.5,-306 704.5,-322 704.5,-322 704.5,-306 704.5,-306"/>
<polygon fill="black" stroke="black" points="771.5,-306 771.5,-322 771.5,-322 771.5,-306 771.5,-306"/>
</a>
</g>
</g>
<!-- account_tag_addresses&#45;&gt;account_identities -->
<g id="edge4" class="edge">
<title>account_tag_addresses:w&#45;&gt;account_identities:e</title>
<path fill="none" stroke="black" d="M608.08,-374C593.23,-374 584.97,-374 565,-374"/>
<polygon fill="black" stroke="black" points="614.5,-374 622.5,-377.6 618.5,-374 622.5,-374 622.5,-374 622.5,-374 618.5,-374 622.5,-370.4 614.5,-374 614.5,-374"/>
<ellipse fill="none" stroke="black" cx="611.3" cy="-374" rx="3.2" ry="3.2"/>
</g>
<!-- account_tag_transactions -->
<g id="node6" class="node">
<title>account_tag_transactions</title>
<g id="a_node6"><a xlink:href="../../tables/account_tag_transactions.html" xlink:title="account_tag_transactions" target="_top">
<polygon fill="#ffffff" stroke="transparent" points="615,-160 615,-284 848,-284 848,-160 615,-160"/>
<polygon fill="#f5f5f5" stroke="transparent" points="615.5,-262 615.5,-284 848.5,-284 848.5,-262 615.5,-262"/>
<polygon fill="none" stroke="black" points="615.5,-262 615.5,-284 848.5,-284 848.5,-262 615.5,-262"/>
<text text-anchor="start" x="620.5" y="-271.2" font-family="Helvetica,sans-Serif" font-weight="bold" font-size="11.00">account_tag_transactions</text>
<text text-anchor="start" x="806.5" y="-270.2" font-family="Helvetica,sans-Serif" font-size="11.00">[table]</text>
<polygon fill="none" stroke="black" points="615.5,-240 615.5,-262 848.5,-262 848.5,-240 615.5,-240"/>
<image xlink:href="../../images/primaryKeys.png" width="11px" height="12px" preserveAspectRatio="xMinYMin meet" x="620.5" y="-257"/>
<text text-anchor="start" x="648.5" y="-248.2" font-family="Helvetica,sans-Serif" font-size="11.00">id</text>
<polygon fill="#ffffff" stroke="transparent" points="615.5,-218 615.5,-240 848.5,-240 848.5,-218 615.5,-218"/>
<polygon fill="none" stroke="black" points="615.5,-218 615.5,-240 848.5,-240 848.5,-218 615.5,-218"/>
<image xlink:href="../../images/foreignKeys.png" width="11px" height="12px" preserveAspectRatio="xMinYMin meet" x="620.5" y="-235"/>
<text text-anchor="start" x="648.5" y="-226.2" font-family="Helvetica,sans-Serif" font-size="11.00">identity_id</text>
<polygon fill="#ffffff" stroke="transparent" points="615.5,-196 615.5,-218 848.5,-218 848.5,-196 615.5,-196"/>
<polygon fill="none" stroke="black" points="615.5,-196 615.5,-218 848.5,-218 848.5,-196 615.5,-196"/>
<text text-anchor="start" x="648.5" y="-204.2" font-family="Helvetica,sans-Serif" font-size="11.00">transaction_hash_hash</text>
<polygon fill="none" stroke="black" points="615.5,-178 615.5,-196 848.5,-196 848.5,-178 615.5,-178"/>
<text text-anchor="start" x="618.5" y="-184.2" font-family="Helvetica,sans-Serif" font-size="11.00">...</text>
<polygon fill="#ffffff" stroke="transparent" points="615.5,-160 615.5,-178 848.5,-178 848.5,-160 615.5,-160"/>
<polygon fill="none" stroke="black" points="615.5,-160 615.5,-178 848.5,-178 848.5,-160 615.5,-160"/>
<polygon fill="#ffffff" stroke="transparent" points="616.5,-161 616.5,-177 701.5,-177 701.5,-161 616.5,-161"/>
<text text-anchor="start" x="618.5" y="-166.2" font-family="Helvetica,sans-Serif" font-size="11.00">&lt; 1</text>
<polygon fill="#ffffff" stroke="transparent" points="701.5,-161 701.5,-177 774.5,-177 774.5,-161 701.5,-161"/>
<text text-anchor="start" x="734" y="-166.2" font-family="Helvetica,sans-Serif" font-size="11.00"> &#160;</text>
<polygon fill="#ffffff" stroke="transparent" points="774.5,-161 774.5,-177 847.5,-177 847.5,-161 774.5,-161"/>
<text text-anchor="start" x="837.5" y="-166.2" font-family="Helvetica,sans-Serif" font-size="11.00"> &#160;</text>
<polygon fill="black" stroke="black" points="701.5,-161 701.5,-177 701.5,-177 701.5,-161 701.5,-161"/>
<polygon fill="black" stroke="black" points="774.5,-161 774.5,-177 774.5,-177 774.5,-161 774.5,-161"/>
</a>
</g>
</g>
<!-- account_tag_transactions&#45;&gt;account_identities -->
<g id="edge5" class="edge">
<title>account_tag_transactions:w&#45;&gt;account_identities:e</title>
<path fill="none" stroke="black" d="M600.18,-232.03C560.16,-252.85 627.24,-374 565,-374"/>
<polygon fill="black" stroke="black" points="606.67,-230.66 615.24,-232.52 610.59,-229.83 614.5,-229 614.5,-229 614.5,-229 610.59,-229.83 613.76,-225.48 606.67,-230.66 606.67,-230.66"/>
<ellipse fill="none" stroke="black" cx="603.54" cy="-231.32" rx="3.2" ry="3.2"/>
</g>
<!-- account_watchlists -->
<g id="node7" class="node">
<title>account_watchlists</title>
<g id="a_node7"><a xlink:href="../../tables/account_watchlists.html" xlink:title="account_watchlists" target="_top">
<polygon fill="#ffffff" stroke="transparent" points="639,-37 639,-139 824,-139 824,-37 639,-37"/>
<polygon fill="#f5f5f5" stroke="transparent" points="639.5,-117 639.5,-139 824.5,-139 824.5,-117 639.5,-117"/>
<polygon fill="none" stroke="black" points="639.5,-117 639.5,-139 824.5,-139 824.5,-117 639.5,-117"/>
<text text-anchor="start" x="644.5" y="-126.2" font-family="Helvetica,sans-Serif" font-weight="bold" font-size="11.00">account_watchlists</text>
<text text-anchor="start" x="782.5" y="-125.2" font-family="Helvetica,sans-Serif" font-size="11.00">[table]</text>
<polygon fill="none" stroke="black" points="639.5,-95 639.5,-117 824.5,-117 824.5,-95 639.5,-95"/>
<image xlink:href="../../images/primaryKeys.png" width="11px" height="12px" preserveAspectRatio="xMinYMin meet" x="644.5" y="-112"/>
<text text-anchor="start" x="672.5" y="-103.2" font-family="Helvetica,sans-Serif" font-size="11.00">id</text>
<polygon fill="#ffffff" stroke="transparent" points="639.5,-73 639.5,-95 824.5,-95 824.5,-73 639.5,-73"/>
<polygon fill="none" stroke="black" points="639.5,-73 639.5,-95 824.5,-95 824.5,-73 639.5,-73"/>
<image xlink:href="../../images/foreignKeys.png" width="11px" height="12px" preserveAspectRatio="xMinYMin meet" x="644.5" y="-90"/>
<text text-anchor="start" x="672.5" y="-81.2" font-family="Helvetica,sans-Serif" font-size="11.00">identity_id</text>
<polygon fill="none" stroke="black" points="639.5,-55 639.5,-73 824.5,-73 824.5,-55 639.5,-55"/>
<text text-anchor="start" x="642.5" y="-61.2" font-family="Helvetica,sans-Serif" font-size="11.00">...</text>
<polygon fill="#ffffff" stroke="transparent" points="639.5,-37 639.5,-55 824.5,-55 824.5,-37 639.5,-37"/>
<polygon fill="none" stroke="black" points="639.5,-37 639.5,-55 824.5,-55 824.5,-37 639.5,-37"/>
<polygon fill="#ffffff" stroke="transparent" points="640.5,-38 640.5,-54 705.5,-54 705.5,-38 640.5,-38"/>
<text text-anchor="start" x="642.5" y="-43.2" font-family="Helvetica,sans-Serif" font-size="11.00">&lt; 1</text>
<polygon fill="#ffffff" stroke="transparent" points="705.5,-38 705.5,-54 758.5,-54 758.5,-38 705.5,-38"/>
<text text-anchor="start" x="728" y="-43.2" font-family="Helvetica,sans-Serif" font-size="11.00"> &#160;</text>
<polygon fill="#ffffff" stroke="transparent" points="758.5,-38 758.5,-54 823.5,-54 823.5,-38 758.5,-38"/>
<text text-anchor="start" x="801.5" y="-43.2" font-family="Helvetica,sans-Serif" font-size="11.00">1 &gt;</text>
<polygon fill="black" stroke="black" points="705.5,-38 705.5,-54 705.5,-54 705.5,-38 705.5,-38"/>
<polygon fill="black" stroke="black" points="758.5,-38 758.5,-54 758.5,-54 758.5,-38 758.5,-38"/>
</a>
</g>
</g>
<!-- account_watchlists&#45;&gt;account_identities -->
<g id="edge6" class="edge">
<title>account_watchlists:w&#45;&gt;account_identities:e</title>
<path fill="none" stroke="black" d="M624.82,-89.28C580.73,-128.59 626.16,-374 565,-374"/>
<polygon fill="black" stroke="black" points="631.04,-86.88 639.8,-87.36 634.77,-85.44 638.5,-84 638.5,-84 638.5,-84 634.77,-85.44 637.2,-80.64 631.04,-86.88 631.04,-86.88"/>
<ellipse fill="none" stroke="black" cx="628.05" cy="-88.03" rx="3.2" ry="3.2"/>
</g>
</g>
</svg>
