<?xml version="1.0" encoding="UTF-8" standalone="no"?>
<!DOCTYPE svg PUBLIC "-//W3C//DTD SVG 1.1//EN"
 "http://www.w3.org/Graphics/SVG/1.1/DTD/svg11.dtd">
<!-- Generated by graphviz version 9.0.0 (20230911.1827)
 -->
<!-- Title: twoDegreesRelationshipsDiagram Pages: 1 -->
<svg width="913pt" height="598pt"
 viewBox="0.00 0.00 913.00 598.00" xmlns="http://www.w3.org/2000/svg" xmlns:xlink="http://www.w3.org/1999/xlink">
<g id="graph0" class="graph" transform="scale(1 1) rotate(0) translate(4 594)">
<title>twoDegreesRelationshipsDiagram</title>
<polygon fill="#ffffff" stroke="none" points="-4,4 -4,-594 909,-594 909,4 -4,4"/>
<text text-anchor="middle" x="71.38" y="-5.55" font-family="Helvetica,sans-Serif" font-size="11.00">Generated by SchemaSpy</text>
<!-- account_api_keys -->
<g id="node1" class="node">
<title>account_api_keys</title>
<g id="a_node1"><a xlink:href="../../tables/account_api_keys.html" xlink:title="account_api_keys" target="_top">
<polygon fill="#ffffff" stroke="none" points="460.5,-528 460.5,-586 602.5,-586 602.5,-528 460.5,-528"/>
<polygon fill="#f5f5f5" stroke="none" points="460.5,-564 460.5,-586 602.5,-586 602.5,-564 460.5,-564"/>
<polygon fill="none" stroke="black" points="460.5,-564 460.5,-586 602.5,-586 602.5,-564 460.5,-564"/>
<text text-anchor="start" x="465.5" y="-571.55" font-family="Helvetica,sans-Serif" font-weight="bold" font-size="11.00">account_api_keys</text>
<text text-anchor="start" x="568.5" y="-570.55" font-family="Helvetica,sans-Serif" font-size="11.00">[table]</text>
<polygon fill="none" stroke="black" points="460.5,-546 460.5,-564 602.5,-564 602.5,-546 460.5,-546"/>
<text text-anchor="start" x="463.5" y="-550.55" font-family="Helvetica,sans-Serif" font-size="11.00">...</text>
<polygon fill="#ffffff" stroke="none" points="460.5,-528 460.5,-546 529.5,-546 529.5,-528 460.5,-528"/>
<polygon fill="none" stroke="black" points="460.5,-528 460.5,-546 529.5,-546 529.5,-528 460.5,-528"/>
<text text-anchor="start" x="463.5" y="-532.55" font-family="Helvetica,sans-Serif" font-size="11.00">&lt; 1</text>
<polygon fill="#ffffff" stroke="none" points="529.5,-528 529.5,-546 565.5,-546 565.5,-528 529.5,-528"/>
<polygon fill="none" stroke="black" points="529.5,-528 529.5,-546 565.5,-546 565.5,-528 529.5,-528"/>
<text text-anchor="start" x="556.5" y="-532.55" font-family="Helvetica,sans-Serif" font-size="11.00"> &#160;</text>
<polygon fill="#ffffff" stroke="none" points="565.5,-528 565.5,-546 602.5,-546 602.5,-528 565.5,-528"/>
<polygon fill="none" stroke="black" points="565.5,-528 565.5,-546 602.5,-546 602.5,-528 565.5,-528"/>
<text text-anchor="start" x="593.5" y="-532.55" font-family="Helvetica,sans-Serif" font-size="11.00"> &#160;</text>
</a>
</g>
</g>
<!-- account_identities -->
<g id="node2" class="node">
<title>account_identities</title>
<g id="a_node2"><a xlink:href="../../tables/account_identities.html" xlink:title="account_identities" target="_top">
<polygon fill="#ffffff" stroke="none" points="204,-266 204,-390 375,-390 375,-266 204,-266"/>
<polygon fill="#f5f5f5" stroke="none" points="204,-368 204,-390 375,-390 375,-368 204,-368"/>
<polygon fill="none" stroke="black" points="204,-368 204,-390 375,-390 375,-368 204,-368"/>
<text text-anchor="start" x="209" y="-375.55" font-family="Helvetica,sans-Serif" font-weight="bold" font-size="11.00">account_identities</text>
<text text-anchor="start" x="340.75" y="-374.55" font-family="Helvetica,sans-Serif" font-size="11.00">[table]</text>
<polygon fill="none" stroke="black" points="204,-346 204,-368 375,-368 375,-346 204,-346"/>
<image xlink:href="../../images/primaryKeys.png" width="11px" height="12px" preserveAspectRatio="xMinYMin meet" x="209" y="-363"/>
<text text-anchor="start" x="224" y="-352.55" font-family="Helvetica,sans-Serif" font-size="11.00">id</text>
<polygon fill="none" stroke="black" points="204,-324 204,-346 375,-346 375,-324 204,-324"/>
<image xlink:href="../../images/foreignKeys.png" width="11px" height="12px" preserveAspectRatio="xMinYMin meet" x="209" y="-341"/>
<text text-anchor="start" x="224" y="-330.55" font-family="Helvetica,sans-Serif" font-size="11.00">plan_id</text>
<polygon fill="#ffffff" stroke="none" points="204,-302 204,-324 375,-324 375,-302 204,-302"/>
<polygon fill="none" stroke="black" points="204,-302 204,-324 375,-324 375,-302 204,-302"/>
<text text-anchor="start" x="224" y="-308.55" font-family="Helvetica,sans-Serif" font-size="11.00">uid_hash</text>
<polygon fill="none" stroke="black" points="204,-284 204,-302 375,-302 375,-284 204,-284"/>
<text text-anchor="start" x="207" y="-288.55" font-family="Helvetica,sans-Serif" font-size="11.00">...</text>
<polygon fill="#ffffff" stroke="none" points="204,-266 204,-284 283,-284 283,-266 204,-266"/>
<polygon fill="none" stroke="black" points="204,-266 204,-284 283,-284 283,-266 204,-266"/>
<text text-anchor="start" x="207" y="-270.55" font-family="Helvetica,sans-Serif" font-size="11.00">&lt; 1</text>
<polygon fill="#ffffff" stroke="none" points="283,-266 283,-284 324,-284 324,-266 283,-266"/>
<polygon fill="none" stroke="black" points="283,-266 283,-284 324,-284 324,-266 283,-266"/>
<text text-anchor="start" x="315" y="-270.55" font-family="Helvetica,sans-Serif" font-size="11.00"> &#160;</text>
<polygon fill="#ffffff" stroke="none" points="324,-266 324,-284 375,-284 375,-266 324,-266"/>
<polygon fill="none" stroke="black" points="324,-266 324,-284 375,-284 375,-266 324,-266"/>
<text text-anchor="start" x="356.25" y="-270.55" font-family="Helvetica,sans-Serif" font-size="11.00">6 &gt;</text>
</a>
</g>
</g>
<!-- account_api_keys&#45;&gt;account_identities -->
<g id="edge1" class="edge">
<title>account_api_keys:w&#45;&gt;account_identities:e</title>
<path fill="none" stroke="black" d="M444.27,-552.42C431.3,-547.17 426.11,-534.36 416,-518 377.28,-455.31 450.18,-357 376.5,-357"/>
<polygon fill="black" stroke="black" points="451.28,-553.61 458.57,-558.49 455.56,-554.33 458.84,-554.89 458.84,-554.89 458.84,-554.89 455.56,-554.33 459.77,-551.39 451.28,-553.61"/>
<ellipse fill="none" stroke="black" cx="446.43" cy="-552.79" rx="3.2" ry="3.2"/>
</g>
<!-- account_api_plans -->
<g id="node4" class="node">
<title>account_api_plans</title>
<g id="a_node4"><a xlink:href="../../tables/account_api_plans.html" xlink:title="account_api_plans" target="_top">
<polygon fill="#ffffff" stroke="none" points="8,-308 8,-366 155,-366 155,-308 8,-308"/>
<polygon fill="#f5f5f5" stroke="none" points="8,-344 8,-366 155,-366 155,-344 8,-344"/>
<polygon fill="none" stroke="black" points="8,-344 8,-366 155,-366 155,-344 8,-344"/>
<text text-anchor="start" x="13" y="-351.55" font-family="Helvetica,sans-Serif" font-weight="bold" font-size="11.00">account_api_plans</text>
<text text-anchor="start" x="121" y="-350.55" font-family="Helvetica,sans-Serif" font-size="11.00">[table]</text>
<polygon fill="none" stroke="black" points="8,-326 8,-344 155,-344 155,-326 8,-326"/>
<text text-anchor="start" x="11" y="-330.55" font-family="Helvetica,sans-Serif" font-size="11.00">...</text>
<polygon fill="#ffffff" stroke="none" points="8,-308 8,-326 71,-326 71,-308 8,-308"/>
<polygon fill="none" stroke="black" points="8,-308 8,-326 71,-326 71,-308 8,-308"/>
<text text-anchor="start" x="11" y="-312.55" font-family="Helvetica,sans-Serif" font-size="11.00"> &#160;</text>
<polygon fill="#ffffff" stroke="none" points="71,-308 71,-326 108,-326 108,-308 71,-308"/>
<polygon fill="none" stroke="black" points="71,-308 71,-326 108,-326 108,-308 71,-308"/>
<text text-anchor="start" x="99" y="-312.55" font-family="Helvetica,sans-Serif" font-size="11.00"> &#160;</text>
<polygon fill="#ffffff" stroke="none" points="108,-308 108,-326 155,-326 155,-308 108,-308"/>
<polygon fill="none" stroke="black" points="108,-308 108,-326 155,-326 155,-308 108,-308"/>
<text text-anchor="start" x="136.25" y="-312.55" font-family="Helvetica,sans-Serif" font-size="11.00">1 &gt;</text>
</a>
</g>
</g>
<!-- account_identities&#45;&gt;account_api_plans -->
<g id="edge3" class="edge">
<title>account_identities:w&#45;&gt;account_api_plans:e</title>
<path fill="none" stroke="black" d="M186.89,-335C177.36,-335 170.56,-335 156.5,-335"/>
<polygon fill="black" stroke="black" points="194.17,-335 202.17,-338.6 198.5,-335 201.83,-335 201.83,-335 201.83,-335 198.5,-335 202.17,-331.4 194.17,-335"/>
<ellipse fill="none" stroke="black" cx="189.25" cy="-335" rx="3.2" ry="3.2"/>
</g>
<!-- account_custom_abis -->
<g id="node3" class="node">
<title>account_custom_abis</title>
<g id="a_node3"><a xlink:href="../../tables/account_custom_abis.html" xlink:title="account_custom_abis" target="_top">
<polygon fill="#ffffff" stroke="none" points="449,-449 449,-507 614,-507 614,-449 449,-449"/>
<polygon fill="#f5f5f5" stroke="none" points="449,-485 449,-507 614,-507 614,-485 449,-485"/>
<polygon fill="none" stroke="black" points="449,-485 449,-507 614,-507 614,-485 449,-485"/>
<text text-anchor="start" x="454" y="-492.55" font-family="Helvetica,sans-Serif" font-weight="bold" font-size="11.00">account_custom_abis</text>
<text text-anchor="start" x="580" y="-491.55" font-family="Helvetica,sans-Serif" font-size="11.00">[table]</text>
<polygon fill="none" stroke="black" points="449,-467 449,-485 614,-485 614,-467 449,-467"/>
<text text-anchor="start" x="452" y="-471.55" font-family="Helvetica,sans-Serif" font-size="11.00">...</text>
<polygon fill="#ffffff" stroke="none" points="449,-449 449,-467 530,-467 530,-449 449,-449"/>
<polygon fill="none" stroke="black" points="449,-449 449,-467 530,-467 530,-449 449,-449"/>
<text text-anchor="start" x="452" y="-453.55" font-family="Helvetica,sans-Serif" font-size="11.00">&lt; 1</text>
<polygon fill="#ffffff" stroke="none" points="530,-449 530,-467 572,-467 572,-449 530,-449"/>
<polygon fill="none" stroke="black" points="530,-449 530,-467 572,-467 572,-449 530,-449"/>
<text text-anchor="start" x="563" y="-453.55" font-family="Helvetica,sans-Serif" font-size="11.00"> &#160;</text>
<polygon fill="#ffffff" stroke="none" points="572,-449 572,-467 614,-467 614,-449 572,-449"/>
<polygon fill="none" stroke="black" points="572,-449 572,-467 614,-467 614,-449 572,-449"/>
<text text-anchor="start" x="605" y="-453.55" font-family="Helvetica,sans-Serif" font-size="11.00"> &#160;</text>
</a>
</g>
</g>
<!-- account_custom_abis&#45;&gt;account_identities -->
<g id="edge2" class="edge">
<title>account_custom_abis:w&#45;&gt;account_identities:e</title>
<path fill="none" stroke="black" d="M432.5,-472.82C395.02,-453.89 432.07,-357 376.5,-357"/>
<polygon fill="black" stroke="black" points="439.35,-474.27 446.43,-479.45 443.59,-475.17 446.85,-475.86 446.85,-475.86 446.85,-475.86 443.59,-475.17 447.92,-472.41 439.35,-474.27"/>
<ellipse fill="none" stroke="black" cx="434.54" cy="-473.25" rx="3.2" ry="3.2"/>
</g>
<!-- account_public_tags_requests -->
<g id="node5" class="node">
<title>account_public_tags_requests</title>
<g id="a_node5"><a xlink:href="../../tables/account_public_tags_requests.html" xlink:title="account_public_tags_requests" target="_top">
<polygon fill="#ffffff" stroke="none" points="424,-370 424,-428 639,-428 639,-370 424,-370"/>
<polygon fill="#f5f5f5" stroke="none" points="424,-406 424,-428 639,-428 639,-406 424,-406"/>
<polygon fill="none" stroke="black" points="424,-406 424,-428 639,-428 639,-406 424,-406"/>
<text text-anchor="start" x="429" y="-413.55" font-family="Helvetica,sans-Serif" font-weight="bold" font-size="11.00">account_public_tags_requests</text>
<text text-anchor="start" x="605" y="-412.55" font-family="Helvetica,sans-Serif" font-size="11.00">[table]</text>
<polygon fill="none" stroke="black" points="424,-388 424,-406 639,-406 639,-388 424,-388"/>
<text text-anchor="start" x="427" y="-392.55" font-family="Helvetica,sans-Serif" font-size="11.00">...</text>
<polygon fill="#ffffff" stroke="none" points="424,-370 424,-388 530,-388 530,-370 424,-370"/>
<polygon fill="none" stroke="black" points="424,-370 424,-388 530,-388 530,-370 424,-370"/>
<text text-anchor="start" x="427" y="-374.55" font-family="Helvetica,sans-Serif" font-size="11.00">&lt; 1</text>
<polygon fill="#ffffff" stroke="none" points="530,-370 530,-388 584,-388 584,-370 530,-370"/>
<polygon fill="none" stroke="black" points="530,-370 530,-388 584,-388 584,-370 530,-370"/>
<text text-anchor="start" x="575" y="-374.55" font-family="Helvetica,sans-Serif" font-size="11.00"> &#160;</text>
<polygon fill="#ffffff" stroke="none" points="584,-370 584,-388 639,-388 639,-370 584,-370"/>
<polygon fill="none" stroke="black" points="584,-370 584,-388 639,-388 639,-370 584,-370"/>
<text text-anchor="start" x="630" y="-374.55" font-family="Helvetica,sans-Serif" font-size="11.00"> &#160;</text>
</a>
</g>
</g>
<!-- account_public_tags_requests&#45;&gt;account_identities -->
<g id="edge4" class="edge">
<title>account_public_tags_requests:w&#45;&gt;account_identities:e</title>
<path fill="none" stroke="black" d="M408.02,-391.1C397.3,-379.97 397.03,-357 376.5,-357"/>
<polygon fill="black" stroke="black" points="414.78,-393.85 420.83,-400.21 418.8,-395.49 421.88,-396.75 421.88,-396.75 421.88,-396.75 418.8,-395.49 423.55,-393.54 414.78,-393.85"/>
<ellipse fill="none" stroke="black" cx="410.23" cy="-392" rx="3.2" ry="3.2"/>
</g>
<!-- account_tag_addresses -->
<g id="node6" class="node">
<title>account_tag_addresses</title>
<g id="a_node6"><a xlink:href="../../tables/account_tag_addresses.html" xlink:title="account_tag_addresses" target="_top">
<polygon fill="#ffffff" stroke="none" points="444,-291 444,-349 619,-349 619,-291 444,-291"/>
<polygon fill="#f5f5f5" stroke="none" points="444,-327 444,-349 619,-349 619,-327 444,-327"/>
<polygon fill="none" stroke="black" points="444,-327 444,-349 619,-349 619,-327 444,-327"/>
<text text-anchor="start" x="449" y="-334.55" font-family="Helvetica,sans-Serif" font-weight="bold" font-size="11.00">account_tag_addresses</text>
<text text-anchor="start" x="585" y="-333.55" font-family="Helvetica,sans-Serif" font-size="11.00">[table]</text>
<polygon fill="none" stroke="black" points="444,-309 444,-327 619,-327 619,-309 444,-309"/>
<text text-anchor="start" x="447" y="-313.55" font-family="Helvetica,sans-Serif" font-size="11.00">...</text>
<polygon fill="#ffffff" stroke="none" points="444,-291 444,-309 530,-309 530,-291 444,-291"/>
<polygon fill="none" stroke="black" points="444,-291 444,-309 530,-309 530,-291 444,-291"/>
<text text-anchor="start" x="447" y="-295.55" font-family="Helvetica,sans-Serif" font-size="11.00">&lt; 1</text>
<polygon fill="#ffffff" stroke="none" points="530,-291 530,-309 574,-309 574,-291 530,-291"/>
<polygon fill="none" stroke="black" points="530,-291 530,-309 574,-309 574,-291 530,-291"/>
<text text-anchor="start" x="565" y="-295.55" font-family="Helvetica,sans-Serif" font-size="11.00"> &#160;</text>
<polygon fill="#ffffff" stroke="none" points="574,-291 574,-309 619,-309 619,-291 574,-291"/>
<polygon fill="none" stroke="black" points="574,-291 574,-309 619,-309 619,-291 574,-291"/>
<text text-anchor="start" x="610" y="-295.55" font-family="Helvetica,sans-Serif" font-size="11.00"> &#160;</text>
</a>
</g>
</g>
<!-- account_tag_addresses&#45;&gt;account_identities -->
<g id="edge5" class="edge">
<title>account_tag_addresses:w&#45;&gt;account_identities:e</title>
<path fill="none" stroke="black" d="M427.22,-321.33C408.03,-330.76 404.45,-357 376.5,-357"/>
<polygon fill="black" stroke="black" points="434.36,-319.77 442.94,-321.59 438.59,-318.85 441.85,-318.14 441.85,-318.14 441.85,-318.14 438.59,-318.85 441.41,-314.55 434.36,-319.77"/>
<ellipse fill="none" stroke="black" cx="429.55" cy="-320.82" rx="3.2" ry="3.2"/>
</g>
<!-- account_tag_transactions -->
<g id="node7" class="node">
<title>account_tag_transactions</title>
<g id="a_node7"><a xlink:href="../../tables/account_tag_transactions.html" xlink:title="account_tag_transactions" target="_top">
<polygon fill="#ffffff" stroke="none" points="438,-212 438,-270 625,-270 625,-212 438,-212"/>
<polygon fill="#f5f5f5" stroke="none" points="438,-248 438,-270 625,-270 625,-248 438,-248"/>
<polygon fill="none" stroke="black" points="438,-248 438,-270 625,-270 625,-248 438,-248"/>
<text text-anchor="start" x="443" y="-255.55" font-family="Helvetica,sans-Serif" font-weight="bold" font-size="11.00">account_tag_transactions</text>
<text text-anchor="start" x="591" y="-254.55" font-family="Helvetica,sans-Serif" font-size="11.00">[table]</text>
<polygon fill="none" stroke="black" points="438,-230 438,-248 625,-248 625,-230 438,-230"/>
<text text-anchor="start" x="441" y="-234.55" font-family="Helvetica,sans-Serif" font-size="11.00">...</text>
<polygon fill="#ffffff" stroke="none" points="438,-212 438,-230 530,-230 530,-212 438,-212"/>
<polygon fill="none" stroke="black" points="438,-212 438,-230 530,-230 530,-212 438,-212"/>
<text text-anchor="start" x="441" y="-216.55" font-family="Helvetica,sans-Serif" font-size="11.00">&lt; 1</text>
<polygon fill="#ffffff" stroke="none" points="530,-212 530,-230 577,-230 577,-212 530,-212"/>
<polygon fill="none" stroke="black" points="530,-212 530,-230 577,-230 577,-212 530,-212"/>
<text text-anchor="start" x="568" y="-216.55" font-family="Helvetica,sans-Serif" font-size="11.00"> &#160;</text>
<polygon fill="#ffffff" stroke="none" points="577,-212 577,-230 625,-230 625,-212 577,-212"/>
<polygon fill="none" stroke="black" points="577,-212 577,-230 625,-230 625,-212 577,-212"/>
<text text-anchor="start" x="616" y="-216.55" font-family="Helvetica,sans-Serif" font-size="11.00"> &#160;</text>
</a>
</g>
</g>
<!-- account_tag_transactions&#45;&gt;account_identities -->
<g id="edge6" class="edge">
<title>account_tag_transactions:w&#45;&gt;account_identities:e</title>
<path fill="none" stroke="black" d="M421.5,-242.66C388.53,-262.58 429.13,-357 376.5,-357"/>
<polygon fill="black" stroke="black" points="428.4,-240.98 437.03,-242.58 432.61,-239.95 435.85,-239.16 435.85,-239.16 435.85,-239.16 432.61,-239.95 435.32,-235.58 428.4,-240.98"/>
<ellipse fill="none" stroke="black" cx="423.62" cy="-242.14" rx="3.2" ry="3.2"/>
</g>
<!-- account_watchlist_addresses -->
<g id="node8" class="node">
<title>account_watchlist_addresses</title>
<g id="a_node8"><a xlink:href="../../tables/account_watchlist_addresses.html" xlink:title="account_watchlist_addresses" target="_top">
<polygon fill="#ffffff" stroke="none" points="688,-87 688,-211 897,-211 897,-87 688,-87"/>
<polygon fill="#f5f5f5" stroke="none" points="688,-189 688,-211 897,-211 897,-189 688,-189"/>
<polygon fill="none" stroke="black" points="688,-189 688,-211 897,-211 897,-189 688,-189"/>
<text text-anchor="start" x="693" y="-196.55" font-family="Helvetica,sans-Serif" font-weight="bold" font-size="11.00">account_watchlist_addresses</text>
<text text-anchor="start" x="863" y="-195.55" font-family="Helvetica,sans-Serif" font-size="11.00">[table]</text>
<polygon fill="none" stroke="black" points="688,-167 688,-189 897,-189 897,-167 688,-167"/>
<image xlink:href="../../images/primaryKeys.png" width="11px" height="12px" preserveAspectRatio="xMinYMin meet" x="693" y="-184"/>
<text text-anchor="start" x="717" y="-173.55" font-family="Helvetica,sans-Serif" font-size="11.00">id</text>
<polygon fill="#ffffff" stroke="none" points="688,-145 688,-167 897,-167 897,-145 688,-145"/>
<polygon fill="none" stroke="black" points="688,-145 688,-167 897,-167 897,-145 688,-145"/>
<image xlink:href="../../images/foreignKeys.png" width="11px" height="12px" preserveAspectRatio="xMinYMin meet" x="693" y="-162"/>
<text text-anchor="start" x="717" y="-151.55" font-family="Helvetica,sans-Serif" font-size="11.00">watchlist_id</text>
<polygon fill="#ffffff" stroke="none" points="688,-123 688,-145 897,-145 897,-123 688,-123"/>
<polygon fill="none" stroke="black" points="688,-123 688,-145 897,-145 897,-123 688,-123"/>
<text text-anchor="start" x="717" y="-129.55" font-family="Helvetica,sans-Serif" font-size="11.00">address_hash_hash</text>
<polygon fill="none" stroke="black" points="688,-105 688,-123 897,-123 897,-105 688,-105"/>
<text text-anchor="start" x="691" y="-109.55" font-family="Helvetica,sans-Serif" font-size="11.00">...</text>
<polygon fill="#ffffff" stroke="none" points="688,-87 688,-105 791,-105 791,-87 688,-87"/>
<polygon fill="none" stroke="black" points="688,-87 688,-105 791,-105 791,-87 688,-87"/>
<text text-anchor="start" x="691" y="-91.55" font-family="Helvetica,sans-Serif" font-size="11.00">&lt; 1</text>
<polygon fill="#ffffff" stroke="none" points="791,-87 791,-105 844,-105 844,-87 791,-87"/>
<polygon fill="none" stroke="black" points="791,-87 791,-105 844,-105 844,-87 791,-87"/>
<text text-anchor="start" x="835" y="-91.55" font-family="Helvetica,sans-Serif" font-size="11.00"> &#160;</text>
<polygon fill="#ffffff" stroke="none" points="844,-87 844,-105 897,-105 897,-87 844,-87"/>
<polygon fill="none" stroke="black" points="844,-87 844,-105 897,-105 897,-87 844,-87"/>
<text text-anchor="start" x="888" y="-91.55" font-family="Helvetica,sans-Serif" font-size="11.00"> &#160;</text>
</a>
</g>
</g>
<!-- account_watchlists -->
<g id="node9" class="node">
<title>account_watchlists</title>
<g id="a_node9"><a xlink:href="../../tables/account_watchlists.html" xlink:title="account_watchlists" target="_top">
<polygon fill="#ffffff" stroke="none" points="427.5,-37 427.5,-191 635.5,-191 635.5,-37 427.5,-37"/>
<polygon fill="#f5f5f5" stroke="none" points="429.5,-167 429.5,-189 633.5,-189 633.5,-167 429.5,-167"/>
<polygon fill="none" stroke="black" points="429.5,-167 429.5,-189 633.5,-189 633.5,-167 429.5,-167"/>
<text text-anchor="start" x="434.5" y="-174.55" font-family="Helvetica,sans-Serif" font-weight="bold" font-size="11.00">account_watchlists</text>
<text text-anchor="start" x="599.25" y="-173.55" font-family="Helvetica,sans-Serif" font-size="11.00">[table]</text>
<polygon fill="none" stroke="black" points="429.5,-145 429.5,-167 560.5,-167 560.5,-145 429.5,-145"/>
<image xlink:href="../../images/primaryKeys.png" width="11px" height="12px" preserveAspectRatio="xMinYMin meet" x="434.5" y="-162"/>
<text text-anchor="start" x="449.5" y="-151.55" font-family="Helvetica,sans-Serif" font-size="11.00">id</text>
<polygon fill="none" stroke="black" points="560.5,-145 560.5,-167 633.5,-167 633.5,-145 560.5,-145"/>
<text text-anchor="start" x="563.5" y="-151.55" font-family="Helvetica,sans-Serif" font-size="11.00">bigserial[19]</text>
<polygon fill="none" stroke="black" points="429.5,-123 429.5,-145 560.5,-145 560.5,-123 429.5,-123"/>
<text text-anchor="start" x="449.5" y="-129.55" font-family="Helvetica,sans-Serif" font-size="11.00">name</text>
<polygon fill="none" stroke="black" points="560.5,-123 560.5,-145 633.5,-145 633.5,-123 560.5,-123"/>
<text text-anchor="start" x="563.5" y="-129.55" font-family="Helvetica,sans-Serif" font-size="11.00">varchar[255]</text>
<polygon fill="#ffffff" stroke="none" points="429.5,-101 429.5,-123 560.5,-123 560.5,-101 429.5,-101"/>
<polygon fill="none" stroke="black" points="429.5,-101 429.5,-123 560.5,-123 560.5,-101 429.5,-101"/>
<image xlink:href="../../images/foreignKeys.png" width="11px" height="12px" preserveAspectRatio="xMinYMin meet" x="434.5" y="-118"/>
<text text-anchor="start" x="449.5" y="-107.55" font-family="Helvetica,sans-Serif" font-size="11.00">identity_id</text>
<polygon fill="none" stroke="black" points="560.5,-101 560.5,-123 633.5,-123 633.5,-101 560.5,-101"/>
<text text-anchor="start" x="563.5" y="-107.55" font-family="Helvetica,sans-Serif" font-size="11.00">int8[19]</text>
<polygon fill="none" stroke="black" points="429.5,-79 429.5,-101 560.5,-101 560.5,-79 429.5,-79"/>
<text text-anchor="start" x="449.5" y="-85.55" font-family="Helvetica,sans-Serif" font-size="11.00">inserted_at</text>
<polygon fill="none" stroke="black" points="560.5,-79 560.5,-101 633.5,-101 633.5,-79 560.5,-79"/>
<text text-anchor="start" x="563.25" y="-85.55" font-family="Helvetica,sans-Serif" font-size="11.00">timestamp[22]</text>
<polygon fill="none" stroke="black" points="429.5,-57 429.5,-79 560.5,-79 560.5,-57 429.5,-57"/>
<text text-anchor="start" x="449.5" y="-63.55" font-family="Helvetica,sans-Serif" font-size="11.00">updated_at</text>
<polygon fill="none" stroke="black" points="560.5,-57 560.5,-79 633.5,-79 633.5,-57 560.5,-57"/>
<text text-anchor="start" x="563.25" y="-63.55" font-family="Helvetica,sans-Serif" font-size="11.00">timestamp[22]</text>
<polygon fill="#ffffff" stroke="none" points="429.5,-39 429.5,-57 499.5,-57 499.5,-39 429.5,-39"/>
<polygon fill="none" stroke="black" points="429.5,-39 429.5,-57 499.5,-57 499.5,-39 429.5,-39"/>
<text text-anchor="start" x="432.5" y="-43.55" font-family="Helvetica,sans-Serif" font-size="11.00">&lt; 1</text>
<polygon fill="#ffffff" stroke="none" points="499.5,-39 499.5,-57 560.5,-57 560.5,-39 499.5,-39"/>
<polygon fill="none" stroke="black" points="499.5,-39 499.5,-57 560.5,-57 560.5,-39 499.5,-39"/>
<text text-anchor="start" x="551.5" y="-43.55" font-family="Helvetica,sans-Serif" font-size="11.00"> &#160;</text>
<polygon fill="#ffffff" stroke="none" points="560.5,-39 560.5,-57 633.5,-57 633.5,-39 560.5,-39"/>
<polygon fill="none" stroke="black" points="560.5,-39 560.5,-57 633.5,-57 633.5,-39 560.5,-39"/>
<text text-anchor="start" x="614.75" y="-43.55" font-family="Helvetica,sans-Serif" font-size="11.00">1 &gt;</text>
<polygon fill="none" stroke="black" stroke-width="2" points="428.5,-38 428.5,-190 634.5,-190 634.5,-38 428.5,-38"/>
</a>
</g>
</g>
<!-- account_watchlist_addresses&#45;&gt;account_watchlists -->
<g id="edge7" class="edge">
<title>account_watchlist_addresses:w&#45;&gt;account_watchlists:e</title>
<path fill="none" stroke="black" d="M670.72,-156C658.93,-156 651.29,-156 634.5,-156"/>
<polygon fill="black" stroke="black" points="678.17,-156 686.17,-159.6 682.5,-156 685.83,-156 685.83,-156 685.83,-156 682.5,-156 686.17,-152.4 678.17,-156"/>
<ellipse fill="none" stroke="black" cx="673.25" cy="-156" rx="3.2" ry="3.2"/>
</g>
<!-- account_watchlists&#45;&gt;account_identities -->
<g id="edge8" class="edge">
<title>account_watchlists:w&#45;&gt;account_identities:e</title>
<path fill="none" stroke="black" d="M414.66,-119.33C383.89,-160.1 426.4,-357 376.5,-357"/>
<polygon fill="black" stroke="black" points="421.13,-115.9 429.89,-115.34 424.97,-113.87 427.91,-112.31 427.91,-112.31 427.91,-112.31 424.97,-113.87 426.52,-108.98 421.13,-115.9"/>
<ellipse fill="none" stroke="black" cx="416.79" cy="-118.2" rx="3.2" ry="3.2"/>
</g>
</g>
</svg>
