<?xml version="1.0" encoding="UTF-8" standalone="no"?>
<!DOCTYPE svg PUBLIC "-//W3C//DTD SVG 1.1//EN"
 "http://www.w3.org/Graphics/SVG/1.1/DTD/svg11.dtd">
<!-- Generated by graphviz version 9.0.0 (20230911.1827)
 -->
<!-- Title: oneDegreeRelationshipsDiagram Pages: 1 -->
<svg width="282pt" height="225pt"
 viewBox="0.00 0.00 282.00 225.00" xmlns="http://www.w3.org/2000/svg" xmlns:xlink="http://www.w3.org/1999/xlink">
<g id="graph0" class="graph" transform="scale(1 1) rotate(0) translate(4 221)">
<title>oneDegreeRelationshipsDiagram</title>
<polygon fill="#ffffff" stroke="none" points="-4,4 -4,-221 278,-221 278,4 -4,4"/>
<text text-anchor="middle" x="71.38" y="-5.55" font-family="Helvetica,sans-Serif" font-size="11.00">Generated by SchemaSpy</text>
<!-- address_coin_balances -->
<g id="node1" class="node">
<title>address_coin_balances</title>
<g id="a_node1"><a xlink:href="../../tables/address_coin_balances.html" xlink:title="address_coin_balances" target="_top">
<polygon fill="#ffffff" stroke="none" points="8,-37 8,-213 266,-213 266,-37 8,-37"/>
<polygon fill="#f5f5f5" stroke="none" points="10,-189 10,-211 264,-211 264,-189 10,-189"/>
<polygon fill="none" stroke="black" points="10,-189 10,-211 264,-211 264,-189 10,-189"/>
<text text-anchor="start" x="15" y="-196.55" font-family="Helvetica,sans-Serif" font-weight="bold" font-size="11.00">address_coin_balances</text>
<text text-anchor="start" x="229.75" y="-195.55" font-family="Helvetica,sans-Serif" font-size="11.00">[table]</text>
<polygon fill="none" stroke="black" points="10,-167 10,-189 166,-189 166,-167 10,-167"/>
<image xlink:href="../../images/primaryKeys.png" width="11px" height="12px" preserveAspectRatio="xMinYMin meet" x="15" y="-184"/>
<text text-anchor="start" x="30" y="-173.55" font-family="Helvetica,sans-Serif" font-size="11.00">address_hash</text>
<polygon fill="none" stroke="black" points="166,-167 166,-189 264,-189 264,-167 166,-167"/>
<text text-anchor="start" x="168.88" y="-173.55" font-family="Helvetica,sans-Serif" font-size="11.00">bytea[2147483647]</text>
<polygon fill="none" stroke="black" points="10,-145 10,-167 166,-167 166,-145 10,-145"/>
<image xlink:href="../../images/primaryKeys.png" width="11px" height="12px" preserveAspectRatio="xMinYMin meet" x="15" y="-162"/>
<text text-anchor="start" x="30" y="-151.55" font-family="Helvetica,sans-Serif" font-size="11.00">block_number</text>
<polygon fill="none" stroke="black" points="166,-145 166,-167 264,-167 264,-145 166,-145"/>
<text text-anchor="start" x="169" y="-151.55" font-family="Helvetica,sans-Serif" font-size="11.00">int8[19]</text>
<polygon fill="none" stroke="black" points="10,-123 10,-145 166,-145 166,-123 10,-123"/>
<text text-anchor="start" x="30" y="-129.55" font-family="Helvetica,sans-Serif" font-size="11.00">value</text>
<polygon fill="none" stroke="black" points="166,-123 166,-145 264,-145 264,-123 166,-123"/>
<text text-anchor="start" x="169" y="-129.55" font-family="Helvetica,sans-Serif" font-size="11.00">numeric[100]</text>
<polygon fill="#ffffff" stroke="none" points="10,-101 10,-123 166,-123 166,-101 10,-101"/>
<polygon fill="none" stroke="black" points="10,-101 10,-123 166,-123 166,-101 10,-101"/>
<text text-anchor="start" x="30" y="-107.55" font-family="Helvetica,sans-Serif" font-size="11.00">value_fetched_at</text>
<polygon fill="none" stroke="black" points="166,-101 166,-123 264,-123 264,-101 166,-101"/>
<text text-anchor="start" x="169" y="-107.55" font-family="Helvetica,sans-Serif" font-size="11.00">timestamp[29,6]</text>
<polygon fill="none" stroke="black" points="10,-79 10,-101 166,-101 166,-79 10,-79"/>
<text text-anchor="start" x="30" y="-85.55" font-family="Helvetica,sans-Serif" font-size="11.00">inserted_at</text>
<polygon fill="none" stroke="black" points="166,-79 166,-101 264,-101 264,-79 166,-79"/>
<text text-anchor="start" x="169" y="-85.55" font-family="Helvetica,sans-Serif" font-size="11.00">timestamp[29,6]</text>
<polygon fill="none" stroke="black" points="10,-57 10,-79 166,-79 166,-57 10,-57"/>
<text text-anchor="start" x="30" y="-63.55" font-family="Helvetica,sans-Serif" font-size="11.00">updated_at</text>
<polygon fill="none" stroke="black" points="166,-57 166,-79 264,-79 264,-57 166,-57"/>
<text text-anchor="start" x="169" y="-63.55" font-family="Helvetica,sans-Serif" font-size="11.00">timestamp[29,6]</text>
<polygon fill="#ffffff" stroke="none" points="10,-39 10,-57 92,-57 92,-39 10,-39"/>
<polygon fill="none" stroke="black" points="10,-39 10,-57 92,-57 92,-39 10,-39"/>
<text text-anchor="start" x="13" y="-43.55" font-family="Helvetica,sans-Serif" font-size="11.00">&lt; 0</text>
<polygon fill="#ffffff" stroke="none" points="92,-39 92,-57 166,-57 166,-39 92,-39"/>
<polygon fill="none" stroke="black" points="92,-39 92,-57 166,-57 166,-39 92,-39"/>
<text text-anchor="start" x="157" y="-43.55" font-family="Helvetica,sans-Serif" font-size="11.00"> &#160;</text>
<polygon fill="#ffffff" stroke="none" points="166,-39 166,-57 264,-57 264,-39 166,-39"/>
<polygon fill="none" stroke="black" points="166,-39 166,-57 264,-57 264,-39 166,-39"/>
<text text-anchor="start" x="245.25" y="-43.55" font-family="Helvetica,sans-Serif" font-size="11.00">0 &gt;</text>
<polygon fill="none" stroke="black" stroke-width="2" points="9,-38 9,-212 265,-212 265,-38 9,-38"/>
</a>
</g>
</g>
</g>
</svg>
