<?xml version="1.0" encoding="UTF-8" standalone="no"?>
<!DOCTYPE svg PUBLIC "-//W3C//DTD SVG 1.1//EN"
 "http://www.w3.org/Graphics/SVG/1.1/DTD/svg11.dtd">
<!-- Generated by graphviz version 2.38.0 (20140413.2041)
 -->
<!-- Title: oneDegreeRelationshipsDiagram Pages: 1 -->
<svg width="846pt" height="335pt"
 viewBox="0.00 0.00 846.00 335.00" xmlns="http://www.w3.org/2000/svg" xmlns:xlink="http://www.w3.org/1999/xlink">
<g id="graph0" class="graph" transform="scale(1 1) rotate(0) translate(4 331)">
<title>oneDegreeRelationshipsDiagram</title>
<polygon fill="#ffffff" stroke="none" points="-4,4 -4,-331 842,-331 842,4 -4,4"/>
<text text-anchor="middle" x="74.5" y="-7.2" font-family="Helvetica,sans-Serif" font-size="11.00">Generated by SchemaSpy</text>
<!-- address_current_token_balances -->
<g id="node1" class="node"><title>address_current_token_balances</title>
<g id="a_node1"><a xlink:href="../../tables/address_current_token_balances.html" xlink:title="address_current_token_balances" target="_top">
<polygon fill="#ffffff" stroke="none" points="501,-37 501,-323 830,-323 830,-37 501,-37"/>
<polygon fill="#f5f5f5" stroke="none" points="503.5,-299 503.5,-321 828.5,-321 828.5,-299 503.5,-299"/>
<polygon fill="none" stroke="black" points="503.5,-299 503.5,-321 828.5,-321 828.5,-299 503.5,-299"/>
<text text-anchor="start" x="508.5" y="-308.2" font-family="Helvetica,sans-Serif" font-weight="bold" font-size="11.00">address_current_token_balances</text>
<text text-anchor="start" x="789.5" y="-307.2" font-family="Helvetica,sans-Serif" font-size="11.00">[table]</text>
<polygon fill="none" stroke="black" points="503.5,-277 503.5,-299 718.5,-299 718.5,-277 503.5,-277"/>
<image xlink:href="../../images/primaryKeys.png" width="11px" height="12px" preserveAspectRatio="xMinYMin meet" x="508.5" y="-294"/>
<text text-anchor="start" x="523.5" y="-285.2" font-family="Helvetica,sans-Serif" font-size="11.00">id</text>
<polygon fill="none" stroke="black" points="718.5,-277 718.5,-299 828.5,-299 828.5,-277 718.5,-277"/>
<text text-anchor="start" x="721.5" y="-285.2" font-family="Helvetica,sans-Serif" font-size="11.00">bigserial[19]</text>
<polygon fill="#ffffff" stroke="none" points="503.5,-255 503.5,-277 718.5,-277 718.5,-255 503.5,-255"/>
<polygon fill="none" stroke="black" points="503.5,-255 503.5,-277 718.5,-277 718.5,-255 503.5,-255"/>
<image xlink:href="../../images/foreignKeys.png" width="11px" height="12px" preserveAspectRatio="xMinYMin meet" x="508.5" y="-272"/>
<text text-anchor="start" x="523.5" y="-263.2" font-family="Helvetica,sans-Serif" font-size="11.00">address_hash</text>
<polygon fill="none" stroke="black" points="718.5,-255 718.5,-277 828.5,-277 828.5,-255 718.5,-255"/>
<text text-anchor="start" x="721.5" y="-263.2" font-family="Helvetica,sans-Serif" font-size="11.00">bytea[2147483647]</text>
<polygon fill="#ffffff" stroke="none" points="503.5,-233 503.5,-255 718.5,-255 718.5,-233 503.5,-233"/>
<polygon fill="none" stroke="black" points="503.5,-233 503.5,-255 718.5,-255 718.5,-233 503.5,-233"/>
<text text-anchor="start" x="523.5" y="-241.2" font-family="Helvetica,sans-Serif" font-size="11.00">block_number</text>
<polygon fill="none" stroke="black" points="718.5,-233 718.5,-255 828.5,-255 828.5,-233 718.5,-233"/>
<text text-anchor="start" x="721.5" y="-241.2" font-family="Helvetica,sans-Serif" font-size="11.00">int8[19]</text>
<polygon fill="#ffffff" stroke="none" points="503.5,-211 503.5,-233 718.5,-233 718.5,-211 503.5,-211"/>
<polygon fill="none" stroke="black" points="503.5,-211 503.5,-233 718.5,-233 718.5,-211 503.5,-211"/>
<image xlink:href="../../images/foreignKeys.png" width="11px" height="12px" preserveAspectRatio="xMinYMin meet" x="508.5" y="-228"/>
<text text-anchor="start" x="523.5" y="-219.2" font-family="Helvetica,sans-Serif" font-size="11.00">token_contract_address_hash</text>
<polygon fill="none" stroke="black" points="718.5,-211 718.5,-233 828.5,-233 828.5,-211 718.5,-211"/>
<text text-anchor="start" x="721.5" y="-219.2" font-family="Helvetica,sans-Serif" font-size="11.00">bytea[2147483647]</text>
<polygon fill="#ffffff" stroke="none" points="503.5,-189 503.5,-211 718.5,-211 718.5,-189 503.5,-189"/>
<polygon fill="none" stroke="black" points="503.5,-189 503.5,-211 718.5,-211 718.5,-189 503.5,-189"/>
<text text-anchor="start" x="523.5" y="-197.2" font-family="Helvetica,sans-Serif" font-size="11.00">value</text>
<polygon fill="none" stroke="black" points="718.5,-189 718.5,-211 828.5,-211 828.5,-189 718.5,-189"/>
<text text-anchor="start" x="721.5" y="-197.2" font-family="Helvetica,sans-Serif" font-size="11.00">numeric[131089]</text>
<polygon fill="none" stroke="black" points="503.5,-167 503.5,-189 718.5,-189 718.5,-167 503.5,-167"/>
<text text-anchor="start" x="523.5" y="-175.2" font-family="Helvetica,sans-Serif" font-size="11.00">value_fetched_at</text>
<polygon fill="none" stroke="black" points="718.5,-167 718.5,-189 828.5,-189 828.5,-167 718.5,-167"/>
<text text-anchor="start" x="721.5" y="-175.2" font-family="Helvetica,sans-Serif" font-size="11.00">timestamp[29,6]</text>
<polygon fill="none" stroke="black" points="503.5,-145 503.5,-167 718.5,-167 718.5,-145 503.5,-145"/>
<text text-anchor="start" x="523.5" y="-153.2" font-family="Helvetica,sans-Serif" font-size="11.00">inserted_at</text>
<polygon fill="none" stroke="black" points="718.5,-145 718.5,-167 828.5,-167 828.5,-145 718.5,-145"/>
<text text-anchor="start" x="721.5" y="-153.2" font-family="Helvetica,sans-Serif" font-size="11.00">timestamp[29,6]</text>
<polygon fill="none" stroke="black" points="503.5,-123 503.5,-145 718.5,-145 718.5,-123 503.5,-123"/>
<text text-anchor="start" x="523.5" y="-131.2" font-family="Helvetica,sans-Serif" font-size="11.00">updated_at</text>
<polygon fill="none" stroke="black" points="718.5,-123 718.5,-145 828.5,-145 828.5,-123 718.5,-123"/>
<text text-anchor="start" x="721.5" y="-131.2" font-family="Helvetica,sans-Serif" font-size="11.00">timestamp[29,6]</text>
<polygon fill="none" stroke="black" points="503.5,-101 503.5,-123 718.5,-123 718.5,-101 503.5,-101"/>
<text text-anchor="start" x="523.5" y="-109.2" font-family="Helvetica,sans-Serif" font-size="11.00">old_value</text>
<polygon fill="none" stroke="black" points="718.5,-101 718.5,-123 828.5,-123 828.5,-101 718.5,-101"/>
<text text-anchor="start" x="721.5" y="-109.2" font-family="Helvetica,sans-Serif" font-size="11.00">numeric[131089]</text>
<polygon fill="#ffffff" stroke="none" points="503.5,-79 503.5,-101 718.5,-101 718.5,-79 503.5,-79"/>
<polygon fill="none" stroke="black" points="503.5,-79 503.5,-101 718.5,-101 718.5,-79 503.5,-79"/>
<text text-anchor="start" x="523.5" y="-87.2" font-family="Helvetica,sans-Serif" font-size="11.00">token_id</text>
<polygon fill="none" stroke="black" points="718.5,-79 718.5,-101 828.5,-101 828.5,-79 718.5,-79"/>
<text text-anchor="start" x="721.5" y="-87.2" font-family="Helvetica,sans-Serif" font-size="11.00">numeric[78]</text>
<polygon fill="none" stroke="black" points="503.5,-57 503.5,-79 718.5,-79 718.5,-57 503.5,-57"/>
<text text-anchor="start" x="523.5" y="-65.2" font-family="Helvetica,sans-Serif" font-size="11.00">token_type</text>
<polygon fill="none" stroke="black" points="718.5,-57 718.5,-79 828.5,-79 828.5,-57 718.5,-57"/>
<text text-anchor="start" x="721.5" y="-65.2" font-family="Helvetica,sans-Serif" font-size="11.00">varchar[255]</text>
<polygon fill="#ffffff" stroke="none" points="503.5,-39 503.5,-57 601.5,-57 601.5,-39 503.5,-39"/>
<polygon fill="none" stroke="black" points="503.5,-39 503.5,-57 601.5,-57 601.5,-39 503.5,-39"/>
<text text-anchor="start" x="506.5" y="-45.2" font-family="Helvetica,sans-Serif" font-size="11.00">&lt; 2</text>
<polygon fill="#ffffff" stroke="none" points="601.5,-39 601.5,-57 718.5,-57 718.5,-39 601.5,-39"/>
<polygon fill="none" stroke="black" points="601.5,-39 601.5,-57 718.5,-57 718.5,-39 601.5,-39"/>
<text text-anchor="start" x="679.5" y="-45.2" font-family="Helvetica,sans-Serif" font-size="11.00">0 rows</text>
<polygon fill="#ffffff" stroke="none" points="718.5,-39 718.5,-57 828.5,-57 828.5,-39 718.5,-39"/>
<polygon fill="none" stroke="black" points="718.5,-39 718.5,-57 828.5,-57 828.5,-39 718.5,-39"/>
<text text-anchor="start" x="808.5" y="-45.2" font-family="Helvetica,sans-Serif" font-size="11.00">0 &gt;</text>
<polygon fill="none" stroke="black" stroke-width="2" points="502,-38 502,-322 829,-322 829,-38 502,-38"/>
</a>
</g>
</g>
<!-- addresses -->
<g id="node2" class="node"><title>addresses</title>
<g id="a_node2"><a xlink:href="../../tables/addresses.html" xlink:title="addresses" target="_top">
<polygon fill="#ffffff" stroke="none" points="8,-174 8,-298 246,-298 246,-174 8,-174"/>
<polygon fill="#f5f5f5" stroke="none" points="8,-276 8,-298 246,-298 246,-276 8,-276"/>
<polygon fill="none" stroke="black" points="8,-276 8,-298 246,-298 246,-276 8,-276"/>
<text text-anchor="start" x="13" y="-285.2" font-family="Helvetica,sans-Serif" font-weight="bold" font-size="11.00">addresses</text>
<text text-anchor="start" x="207" y="-284.2" font-family="Helvetica,sans-Serif" font-size="11.00">[table]</text>
<polygon fill="#ffffff" stroke="none" points="8,-254 8,-276 246,-276 246,-254 8,-254"/>
<polygon fill="none" stroke="black" points="8,-254 8,-276 246,-276 246,-254 8,-254"/>
<text text-anchor="start" x="28" y="-262.2" font-family="Helvetica,sans-Serif" font-size="11.00">fetched_coin_balance</text>
<polygon fill="none" stroke="black" points="8,-232 8,-254 246,-254 246,-232 8,-232"/>
<image xlink:href="../../images/primaryKeys.png" width="11px" height="12px" preserveAspectRatio="xMinYMin meet" x="13" y="-249"/>
<text text-anchor="start" x="28" y="-240.2" font-family="Helvetica,sans-Serif" font-size="11.00">hash</text>
<polygon fill="#ffffff" stroke="none" points="8,-210 8,-232 246,-232 246,-210 8,-210"/>
<polygon fill="none" stroke="black" points="8,-210 8,-232 246,-232 246,-210 8,-210"/>
<text text-anchor="start" x="28" y="-218.2" font-family="Helvetica,sans-Serif" font-size="11.00">inserted_at</text>
<polygon fill="none" stroke="black" points="8,-192 8,-210 246,-210 246,-192 8,-192"/>
<text text-anchor="start" x="11" y="-198.2" font-family="Helvetica,sans-Serif" font-size="11.00">...</text>
<polygon fill="#ffffff" stroke="none" points="8,-174 8,-192 97,-192 97,-174 8,-174"/>
<polygon fill="none" stroke="black" points="8,-174 8,-192 97,-192 97,-174 8,-174"/>
<text text-anchor="start" x="11" y="-180.2" font-family="Helvetica,sans-Serif" font-size="11.00"> &#160;</text>
<polygon fill="#ffffff" stroke="none" points="97,-174 97,-192 177,-192 177,-174 97,-174"/>
<polygon fill="none" stroke="black" points="97,-174 97,-192 177,-192 177,-174 97,-174"/>
<text text-anchor="start" x="138" y="-180.2" font-family="Helvetica,sans-Serif" font-size="11.00">2 rows</text>
<polygon fill="#ffffff" stroke="none" points="177,-174 177,-192 246,-192 246,-174 177,-174"/>
<polygon fill="none" stroke="black" points="177,-174 177,-192 246,-192 246,-174 177,-174"/>
<text text-anchor="start" x="219" y="-180.2" font-family="Helvetica,sans-Serif" font-size="11.00">19 &gt;</text>
</a>
</g>
</g>
<!-- address_current_token_balances&#45;&gt;addresses -->
<g id="edge1" class="edge"><title>address_current_token_balances:address_hash:w&#45;&gt;addresses:hash:e</title>
<path fill="none" stroke="black" d="M488.039,-268.674C479.228,-272.315 473.728,-278.649 460,-281 384.215,-293.981 358.407,-309.511 287,-281 264.227,-271.907 271.521,-243 247,-243"/>
<polygon fill="black" stroke="black" points="494.633,-267.455 503.155,-269.54 498.567,-266.727 502.5,-266 502.5,-266 502.5,-266 498.567,-266.727 501.845,-262.46 494.633,-267.455 494.633,-267.455"/>
<ellipse fill="none" stroke="black" cx="491.487" cy="-268.037" rx="3.2" ry="3.2"/>
</g>
<!-- tokens -->
<g id="node3" class="node"><title>tokens</title>
<g id="a_node3"><a xlink:href="../../tables/tokens.html" xlink:title="tokens" target="_top">
<polygon fill="#ffffff" stroke="none" points="295,-146 295,-270 452,-270 452,-146 295,-146"/>
<polygon fill="#f5f5f5" stroke="none" points="295.5,-248 295.5,-270 452.5,-270 452.5,-248 295.5,-248"/>
<polygon fill="none" stroke="black" points="295.5,-248 295.5,-270 452.5,-270 452.5,-248 295.5,-248"/>
<text text-anchor="start" x="300.5" y="-257.2" font-family="Helvetica,sans-Serif" font-weight="bold" font-size="11.00">tokens</text>
<text text-anchor="start" x="413.5" y="-256.2" font-family="Helvetica,sans-Serif" font-size="11.00">[table]</text>
<polygon fill="#ffffff" stroke="none" points="295.5,-226 295.5,-248 452.5,-248 452.5,-226 295.5,-226"/>
<polygon fill="none" stroke="black" points="295.5,-226 295.5,-248 452.5,-248 452.5,-226 295.5,-226"/>
<text text-anchor="start" x="315.5" y="-234.2" font-family="Helvetica,sans-Serif" font-size="11.00">symbol</text>
<polygon fill="#ffffff" stroke="none" points="295.5,-204 295.5,-226 452.5,-226 452.5,-204 295.5,-204"/>
<polygon fill="none" stroke="black" points="295.5,-204 295.5,-226 452.5,-226 452.5,-204 295.5,-204"/>
<text text-anchor="start" x="315.5" y="-212.2" font-family="Helvetica,sans-Serif" font-size="11.00">type</text>
<polygon fill="none" stroke="black" points="295.5,-182 295.5,-204 452.5,-204 452.5,-182 295.5,-182"/>
<image xlink:href="../../images/primaryKeys.png" width="11px" height="12px" preserveAspectRatio="xMinYMin meet" x="300.5" y="-199"/>
<text text-anchor="start" x="315.5" y="-190.2" font-family="Helvetica,sans-Serif" font-size="11.00">contract_address_hash</text>
<polygon fill="none" stroke="black" points="295.5,-164 295.5,-182 452.5,-182 452.5,-164 295.5,-164"/>
<text text-anchor="start" x="298.5" y="-170.2" font-family="Helvetica,sans-Serif" font-size="11.00">...</text>
<polygon fill="#ffffff" stroke="none" points="295.5,-146 295.5,-164 352.5,-164 352.5,-146 295.5,-146"/>
<polygon fill="none" stroke="black" points="295.5,-146 295.5,-164 352.5,-164 352.5,-146 295.5,-146"/>
<text text-anchor="start" x="298.5" y="-152.2" font-family="Helvetica,sans-Serif" font-size="11.00">&lt; 1</text>
<polygon fill="#ffffff" stroke="none" points="352.5,-146 352.5,-164 411.5,-164 411.5,-146 352.5,-146"/>
<polygon fill="none" stroke="black" points="352.5,-146 352.5,-164 411.5,-164 411.5,-146 352.5,-146"/>
<text text-anchor="start" x="372.5" y="-152.2" font-family="Helvetica,sans-Serif" font-size="11.00">0 rows</text>
<polygon fill="#ffffff" stroke="none" points="411.5,-146 411.5,-164 452.5,-164 452.5,-146 411.5,-146"/>
<polygon fill="none" stroke="black" points="411.5,-146 411.5,-164 452.5,-164 452.5,-146 411.5,-146"/>
<text text-anchor="start" x="432.5" y="-152.2" font-family="Helvetica,sans-Serif" font-size="11.00">4 &gt;</text>
</a>
</g>
</g>
<!-- address_current_token_balances&#45;&gt;tokens -->
<g id="edge2" class="edge"><title>address_current_token_balances:token_contract_address_hash:w&#45;&gt;tokens:contract_address_hash:e</title>
<path fill="none" stroke="black" d="M488.45,-217.968C476.471,-209.999 472.875,-193 453.5,-193"/>
<polygon fill="black" stroke="black" points="494.81,-219.793 501.507,-225.46 498.655,-220.897 502.5,-222 502.5,-222 502.5,-222 498.655,-220.897 503.493,-218.54 494.81,-219.793 494.81,-219.793"/>
<ellipse fill="none" stroke="black" cx="491.735" cy="-218.91" rx="3.20001" ry="3.20001"/>
</g>
<!-- tokens&#45;&gt;addresses -->
<g id="edge3" class="edge"><title>tokens:contract_address_hash:w&#45;&gt;addresses:hash:e</title>
<path fill="none" stroke="black" d="M283.959,-195.688C266.852,-206.074 273.341,-243 247,-243"/>
<polygon fill="black" stroke="black" points="292.736,-189.322 294.713,-197.074 293.163,-197.469 291.186,-189.717 292.736,-189.322"/>
<polyline fill="none" stroke="black" points="294.5,-193 290.624,-193.988 "/>
<ellipse fill="none" stroke="black" cx="287.523" cy="-194.779" rx="3.20001" ry="3.20001"/>
</g>
</g>
</svg>
