<?xml version="1.0" encoding="UTF-8" standalone="no"?>
<!DOCTYPE svg PUBLIC "-//W3C//DTD SVG 1.1//EN"
 "http://www.w3.org/Graphics/SVG/1.1/DTD/svg11.dtd">
<!-- Generated by graphviz version 2.38.0 (20140413.2041)
 -->
<!-- Title: twoDegreesRelationshipsDiagram Pages: 1 -->
<svg width="1122pt" height="1069pt"
 viewBox="0.00 0.00 1122.00 1068.78" xmlns="http://www.w3.org/2000/svg" xmlns:xlink="http://www.w3.org/1999/xlink">
<g id="graph0" class="graph" transform="scale(1 1) rotate(0) translate(4 1064.78)">
<title>twoDegreesRelationshipsDiagram</title>
<polygon fill="#ffffff" stroke="none" points="-4,4 -4,-1064.78 1118,-1064.78 1118,4 -4,4"/>
<text text-anchor="middle" x="74.5" y="-7.2" font-family="Helvetica,sans-Serif" font-size="11.00">Generated by SchemaSpy</text>
<!-- address_coin_balances -->
<g id="node1" class="node"><title>address_coin_balances</title>
<g id="a_node1"><a xlink:href="../../tables/address_coin_balances.html" xlink:title="address_coin_balances" target="_top">
<polygon fill="#ffffff" stroke="none" points="313.5,-812.785 313.5,-870.785 489.5,-870.785 489.5,-812.785 313.5,-812.785"/>
<polygon fill="#f5f5f5" stroke="none" points="313.5,-848.785 313.5,-870.785 489.5,-870.785 489.5,-848.785 313.5,-848.785"/>
<polygon fill="none" stroke="black" points="313.5,-848.785 313.5,-870.785 489.5,-870.785 489.5,-848.785 313.5,-848.785"/>
<text text-anchor="start" x="318.5" y="-857.985" font-family="Helvetica,sans-Serif" font-weight="bold" font-size="11.00">address_coin_balances</text>
<text text-anchor="start" x="450.5" y="-856.985" font-family="Helvetica,sans-Serif" font-size="11.00">[table]</text>
<polygon fill="none" stroke="black" points="313.5,-830.785 313.5,-848.785 489.5,-848.785 489.5,-830.785 313.5,-830.785"/>
<text text-anchor="start" x="316.5" y="-836.985" font-family="Helvetica,sans-Serif" font-size="11.00">...</text>
<polygon fill="#ffffff" stroke="none" points="313.5,-812.785 313.5,-830.785 385.5,-830.785 385.5,-812.785 313.5,-812.785"/>
<polygon fill="none" stroke="black" points="313.5,-812.785 313.5,-830.785 385.5,-830.785 385.5,-812.785 313.5,-812.785"/>
<text text-anchor="start" x="316.5" y="-818.985" font-family="Helvetica,sans-Serif" font-size="11.00">&lt; 1</text>
<polygon fill="#ffffff" stroke="none" points="385.5,-812.785 385.5,-830.785 451.5,-830.785 451.5,-812.785 385.5,-812.785"/>
<polygon fill="none" stroke="black" points="385.5,-812.785 385.5,-830.785 451.5,-830.785 451.5,-812.785 385.5,-812.785"/>
<text text-anchor="start" x="412.5" y="-818.985" font-family="Helvetica,sans-Serif" font-size="11.00">3 rows</text>
<polygon fill="#ffffff" stroke="none" points="451.5,-812.785 451.5,-830.785 489.5,-830.785 489.5,-812.785 451.5,-812.785"/>
<polygon fill="none" stroke="black" points="451.5,-812.785 451.5,-830.785 489.5,-830.785 489.5,-812.785 451.5,-812.785"/>
<text text-anchor="start" x="479.5" y="-818.985" font-family="Helvetica,sans-Serif" font-size="11.00"> &#160;</text>
</a>
</g>
</g>
<!-- addresses -->
<g id="node2" class="node"><title>addresses</title>
<g id="a_node2"><a xlink:href="../../tables/addresses.html" xlink:title="addresses" target="_top">
<polygon fill="#ffffff" stroke="none" points="8,-335.785 8,-459.785 246,-459.785 246,-335.785 8,-335.785"/>
<polygon fill="#f5f5f5" stroke="none" points="8,-437.785 8,-459.785 246,-459.785 246,-437.785 8,-437.785"/>
<polygon fill="none" stroke="black" points="8,-437.785 8,-459.785 246,-459.785 246,-437.785 8,-437.785"/>
<text text-anchor="start" x="13" y="-446.985" font-family="Helvetica,sans-Serif" font-weight="bold" font-size="11.00">addresses</text>
<text text-anchor="start" x="207" y="-445.985" font-family="Helvetica,sans-Serif" font-size="11.00">[table]</text>
<polygon fill="#ffffff" stroke="none" points="8,-415.785 8,-437.785 246,-437.785 246,-415.785 8,-415.785"/>
<polygon fill="none" stroke="black" points="8,-415.785 8,-437.785 246,-437.785 246,-415.785 8,-415.785"/>
<text text-anchor="start" x="28" y="-423.985" font-family="Helvetica,sans-Serif" font-size="11.00">fetched_coin_balance</text>
<polygon fill="none" stroke="black" points="8,-393.785 8,-415.785 246,-415.785 246,-393.785 8,-393.785"/>
<image xlink:href="../../images/primaryKeys.png" width="11px" height="12px" preserveAspectRatio="xMinYMin meet" x="13" y="-410.785"/>
<text text-anchor="start" x="28" y="-401.985" font-family="Helvetica,sans-Serif" font-size="11.00">hash</text>
<polygon fill="#ffffff" stroke="none" points="8,-371.785 8,-393.785 246,-393.785 246,-371.785 8,-371.785"/>
<polygon fill="none" stroke="black" points="8,-371.785 8,-393.785 246,-393.785 246,-371.785 8,-371.785"/>
<text text-anchor="start" x="28" y="-379.985" font-family="Helvetica,sans-Serif" font-size="11.00">inserted_at</text>
<polygon fill="none" stroke="black" points="8,-353.785 8,-371.785 246,-371.785 246,-353.785 8,-353.785"/>
<text text-anchor="start" x="11" y="-359.985" font-family="Helvetica,sans-Serif" font-size="11.00">...</text>
<polygon fill="#ffffff" stroke="none" points="8,-335.785 8,-353.785 97,-353.785 97,-335.785 8,-335.785"/>
<polygon fill="none" stroke="black" points="8,-335.785 8,-353.785 97,-353.785 97,-335.785 8,-335.785"/>
<text text-anchor="start" x="11" y="-341.985" font-family="Helvetica,sans-Serif" font-size="11.00"> &#160;</text>
<polygon fill="#ffffff" stroke="none" points="97,-335.785 97,-353.785 177,-353.785 177,-335.785 97,-335.785"/>
<polygon fill="none" stroke="black" points="97,-335.785 97,-353.785 177,-353.785 177,-335.785 97,-335.785"/>
<text text-anchor="start" x="138" y="-341.985" font-family="Helvetica,sans-Serif" font-size="11.00">2 rows</text>
<polygon fill="#ffffff" stroke="none" points="177,-335.785 177,-353.785 246,-353.785 246,-335.785 177,-335.785"/>
<polygon fill="none" stroke="black" points="177,-335.785 177,-353.785 246,-353.785 246,-335.785 177,-335.785"/>
<text text-anchor="start" x="219" y="-341.985" font-family="Helvetica,sans-Serif" font-size="11.00">19 &gt;</text>
</a>
</g>
</g>
<!-- address_coin_balances&#45;&gt;addresses -->
<g id="edge1" class="edge"><title>address_coin_balances:elipses:w&#45;&gt;addresses:hash:e</title>
<path fill="none" stroke="black" d="M298.431,-836.024C228.283,-793.507 339.41,-404.785 247,-404.785"/>
<polygon fill="black" stroke="black" points="304.771,-837.719 311.57,-843.263 308.636,-838.752 312.5,-839.785 312.5,-839.785 312.5,-839.785 308.636,-838.752 313.43,-836.307 304.771,-837.719 304.771,-837.719"/>
<ellipse fill="none" stroke="black" cx="301.68" cy="-836.892" rx="3.2" ry="3.2"/>
</g>
<!-- address_coin_balances_daily -->
<g id="node3" class="node"><title>address_coin_balances_daily</title>
<g id="a_node3"><a xlink:href="../../tables/address_coin_balances_daily.html" xlink:title="address_coin_balances_daily" target="_top">
<polygon fill="#ffffff" stroke="none" points="297,-733.785 297,-791.785 506,-791.785 506,-733.785 297,-733.785"/>
<polygon fill="#f5f5f5" stroke="none" points="297.5,-769.785 297.5,-791.785 506.5,-791.785 506.5,-769.785 297.5,-769.785"/>
<polygon fill="none" stroke="black" points="297.5,-769.785 297.5,-791.785 506.5,-791.785 506.5,-769.785 297.5,-769.785"/>
<text text-anchor="start" x="302.5" y="-778.985" font-family="Helvetica,sans-Serif" font-weight="bold" font-size="11.00">address_coin_balances_daily</text>
<text text-anchor="start" x="467.5" y="-777.985" font-family="Helvetica,sans-Serif" font-size="11.00">[table]</text>
<polygon fill="none" stroke="black" points="297.5,-751.785 297.5,-769.785 506.5,-769.785 506.5,-751.785 297.5,-751.785"/>
<text text-anchor="start" x="300.5" y="-757.985" font-family="Helvetica,sans-Serif" font-size="11.00">...</text>
<polygon fill="#ffffff" stroke="none" points="297.5,-733.785 297.5,-751.785 385.5,-751.785 385.5,-733.785 297.5,-733.785"/>
<polygon fill="none" stroke="black" points="297.5,-733.785 297.5,-751.785 385.5,-751.785 385.5,-733.785 297.5,-733.785"/>
<text text-anchor="start" x="300.5" y="-739.985" font-family="Helvetica,sans-Serif" font-size="11.00">&lt; 1</text>
<polygon fill="#ffffff" stroke="none" points="385.5,-733.785 385.5,-751.785 460.5,-751.785 460.5,-733.785 385.5,-733.785"/>
<polygon fill="none" stroke="black" points="385.5,-733.785 385.5,-751.785 460.5,-751.785 460.5,-733.785 385.5,-733.785"/>
<text text-anchor="start" x="421.5" y="-739.985" font-family="Helvetica,sans-Serif" font-size="11.00">3 rows</text>
<polygon fill="#ffffff" stroke="none" points="460.5,-733.785 460.5,-751.785 506.5,-751.785 506.5,-733.785 460.5,-733.785"/>
<polygon fill="none" stroke="black" points="460.5,-733.785 460.5,-751.785 506.5,-751.785 506.5,-733.785 460.5,-733.785"/>
<text text-anchor="start" x="496.5" y="-739.985" font-family="Helvetica,sans-Serif" font-size="11.00"> &#160;</text>
</a>
</g>
</g>
<!-- address_coin_balances_daily&#45;&gt;addresses -->
<g id="edge2" class="edge"><title>address_coin_balances_daily:elipses:w&#45;&gt;addresses:hash:e</title>
<path fill="none" stroke="black" d="M282.664,-756.021C230.812,-713.776 321.412,-404.785 247,-404.785"/>
<polygon fill="black" stroke="black" points="288.936,-758.18 295.328,-764.189 292.718,-759.483 296.5,-760.785 296.5,-760.785 296.5,-760.785 292.718,-759.483 297.672,-757.381 288.936,-758.18 288.936,-758.18"/>
<ellipse fill="none" stroke="black" cx="285.91" cy="-757.139" rx="3.20001" ry="3.20001"/>
</g>
<!-- address_current_token_balances -->
<g id="node4" class="node"><title>address_current_token_balances</title>
<g id="a_node4"><a xlink:href="../../tables/address_current_token_balances.html" xlink:title="address_current_token_balances" target="_top">
<polygon fill="#ffffff" stroke="none" points="557,-770.785 557,-1056.78 886,-1056.78 886,-770.785 557,-770.785"/>
<polygon fill="#f5f5f5" stroke="none" points="559.5,-1032.78 559.5,-1054.78 884.5,-1054.78 884.5,-1032.78 559.5,-1032.78"/>
<polygon fill="none" stroke="black" points="559.5,-1032.78 559.5,-1054.78 884.5,-1054.78 884.5,-1032.78 559.5,-1032.78"/>
<text text-anchor="start" x="564.5" y="-1041.98" font-family="Helvetica,sans-Serif" font-weight="bold" font-size="11.00">address_current_token_balances</text>
<text text-anchor="start" x="845.5" y="-1040.98" font-family="Helvetica,sans-Serif" font-size="11.00">[table]</text>
<polygon fill="none" stroke="black" points="559.5,-1010.78 559.5,-1032.78 774.5,-1032.78 774.5,-1010.78 559.5,-1010.78"/>
<image xlink:href="../../images/primaryKeys.png" width="11px" height="12px" preserveAspectRatio="xMinYMin meet" x="564.5" y="-1027.78"/>
<text text-anchor="start" x="579.5" y="-1018.98" font-family="Helvetica,sans-Serif" font-size="11.00">id</text>
<polygon fill="none" stroke="black" points="774.5,-1010.78 774.5,-1032.78 884.5,-1032.78 884.5,-1010.78 774.5,-1010.78"/>
<text text-anchor="start" x="777.5" y="-1018.98" font-family="Helvetica,sans-Serif" font-size="11.00">bigserial[19]</text>
<polygon fill="#ffffff" stroke="none" points="559.5,-988.785 559.5,-1010.78 774.5,-1010.78 774.5,-988.785 559.5,-988.785"/>
<polygon fill="none" stroke="black" points="559.5,-988.785 559.5,-1010.78 774.5,-1010.78 774.5,-988.785 559.5,-988.785"/>
<image xlink:href="../../images/foreignKeys.png" width="11px" height="12px" preserveAspectRatio="xMinYMin meet" x="564.5" y="-1005.78"/>
<text text-anchor="start" x="579.5" y="-996.985" font-family="Helvetica,sans-Serif" font-size="11.00">address_hash</text>
<polygon fill="none" stroke="black" points="774.5,-988.785 774.5,-1010.78 884.5,-1010.78 884.5,-988.785 774.5,-988.785"/>
<text text-anchor="start" x="777.5" y="-996.985" font-family="Helvetica,sans-Serif" font-size="11.00">bytea[2147483647]</text>
<polygon fill="#ffffff" stroke="none" points="559.5,-966.785 559.5,-988.785 774.5,-988.785 774.5,-966.785 559.5,-966.785"/>
<polygon fill="none" stroke="black" points="559.5,-966.785 559.5,-988.785 774.5,-988.785 774.5,-966.785 559.5,-966.785"/>
<text text-anchor="start" x="579.5" y="-974.985" font-family="Helvetica,sans-Serif" font-size="11.00">block_number</text>
<polygon fill="none" stroke="black" points="774.5,-966.785 774.5,-988.785 884.5,-988.785 884.5,-966.785 774.5,-966.785"/>
<text text-anchor="start" x="777.5" y="-974.985" font-family="Helvetica,sans-Serif" font-size="11.00">int8[19]</text>
<polygon fill="#ffffff" stroke="none" points="559.5,-944.785 559.5,-966.785 774.5,-966.785 774.5,-944.785 559.5,-944.785"/>
<polygon fill="none" stroke="black" points="559.5,-944.785 559.5,-966.785 774.5,-966.785 774.5,-944.785 559.5,-944.785"/>
<image xlink:href="../../images/foreignKeys.png" width="11px" height="12px" preserveAspectRatio="xMinYMin meet" x="564.5" y="-961.785"/>
<text text-anchor="start" x="579.5" y="-952.985" font-family="Helvetica,sans-Serif" font-size="11.00">token_contract_address_hash</text>
<polygon fill="none" stroke="black" points="774.5,-944.785 774.5,-966.785 884.5,-966.785 884.5,-944.785 774.5,-944.785"/>
<text text-anchor="start" x="777.5" y="-952.985" font-family="Helvetica,sans-Serif" font-size="11.00">bytea[2147483647]</text>
<polygon fill="#ffffff" stroke="none" points="559.5,-922.785 559.5,-944.785 774.5,-944.785 774.5,-922.785 559.5,-922.785"/>
<polygon fill="none" stroke="black" points="559.5,-922.785 559.5,-944.785 774.5,-944.785 774.5,-922.785 559.5,-922.785"/>
<text text-anchor="start" x="579.5" y="-930.985" font-family="Helvetica,sans-Serif" font-size="11.00">value</text>
<polygon fill="none" stroke="black" points="774.5,-922.785 774.5,-944.785 884.5,-944.785 884.5,-922.785 774.5,-922.785"/>
<text text-anchor="start" x="777.5" y="-930.985" font-family="Helvetica,sans-Serif" font-size="11.00">numeric[131089]</text>
<polygon fill="none" stroke="black" points="559.5,-900.785 559.5,-922.785 774.5,-922.785 774.5,-900.785 559.5,-900.785"/>
<text text-anchor="start" x="579.5" y="-908.985" font-family="Helvetica,sans-Serif" font-size="11.00">value_fetched_at</text>
<polygon fill="none" stroke="black" points="774.5,-900.785 774.5,-922.785 884.5,-922.785 884.5,-900.785 774.5,-900.785"/>
<text text-anchor="start" x="777.5" y="-908.985" font-family="Helvetica,sans-Serif" font-size="11.00">timestamp[29,6]</text>
<polygon fill="none" stroke="black" points="559.5,-878.785 559.5,-900.785 774.5,-900.785 774.5,-878.785 559.5,-878.785"/>
<text text-anchor="start" x="579.5" y="-886.985" font-family="Helvetica,sans-Serif" font-size="11.00">inserted_at</text>
<polygon fill="none" stroke="black" points="774.5,-878.785 774.5,-900.785 884.5,-900.785 884.5,-878.785 774.5,-878.785"/>
<text text-anchor="start" x="777.5" y="-886.985" font-family="Helvetica,sans-Serif" font-size="11.00">timestamp[29,6]</text>
<polygon fill="none" stroke="black" points="559.5,-856.785 559.5,-878.785 774.5,-878.785 774.5,-856.785 559.5,-856.785"/>
<text text-anchor="start" x="579.5" y="-864.985" font-family="Helvetica,sans-Serif" font-size="11.00">updated_at</text>
<polygon fill="none" stroke="black" points="774.5,-856.785 774.5,-878.785 884.5,-878.785 884.5,-856.785 774.5,-856.785"/>
<text text-anchor="start" x="777.5" y="-864.985" font-family="Helvetica,sans-Serif" font-size="11.00">timestamp[29,6]</text>
<polygon fill="none" stroke="black" points="559.5,-834.785 559.5,-856.785 774.5,-856.785 774.5,-834.785 559.5,-834.785"/>
<text text-anchor="start" x="579.5" y="-842.985" font-family="Helvetica,sans-Serif" font-size="11.00">old_value</text>
<polygon fill="none" stroke="black" points="774.5,-834.785 774.5,-856.785 884.5,-856.785 884.5,-834.785 774.5,-834.785"/>
<text text-anchor="start" x="777.5" y="-842.985" font-family="Helvetica,sans-Serif" font-size="11.00">numeric[131089]</text>
<polygon fill="#ffffff" stroke="none" points="559.5,-812.785 559.5,-834.785 774.5,-834.785 774.5,-812.785 559.5,-812.785"/>
<polygon fill="none" stroke="black" points="559.5,-812.785 559.5,-834.785 774.5,-834.785 774.5,-812.785 559.5,-812.785"/>
<text text-anchor="start" x="579.5" y="-820.985" font-family="Helvetica,sans-Serif" font-size="11.00">token_id</text>
<polygon fill="none" stroke="black" points="774.5,-812.785 774.5,-834.785 884.5,-834.785 884.5,-812.785 774.5,-812.785"/>
<text text-anchor="start" x="777.5" y="-820.985" font-family="Helvetica,sans-Serif" font-size="11.00">numeric[78]</text>
<polygon fill="none" stroke="black" points="559.5,-790.785 559.5,-812.785 774.5,-812.785 774.5,-790.785 559.5,-790.785"/>
<text text-anchor="start" x="579.5" y="-798.985" font-family="Helvetica,sans-Serif" font-size="11.00">token_type</text>
<polygon fill="none" stroke="black" points="774.5,-790.785 774.5,-812.785 884.5,-812.785 884.5,-790.785 774.5,-790.785"/>
<text text-anchor="start" x="777.5" y="-798.985" font-family="Helvetica,sans-Serif" font-size="11.00">varchar[255]</text>
<polygon fill="#ffffff" stroke="none" points="559.5,-772.785 559.5,-790.785 657.5,-790.785 657.5,-772.785 559.5,-772.785"/>
<polygon fill="none" stroke="black" points="559.5,-772.785 559.5,-790.785 657.5,-790.785 657.5,-772.785 559.5,-772.785"/>
<text text-anchor="start" x="562.5" y="-778.985" font-family="Helvetica,sans-Serif" font-size="11.00">&lt; 2</text>
<polygon fill="#ffffff" stroke="none" points="657.5,-772.785 657.5,-790.785 774.5,-790.785 774.5,-772.785 657.5,-772.785"/>
<polygon fill="none" stroke="black" points="657.5,-772.785 657.5,-790.785 774.5,-790.785 774.5,-772.785 657.5,-772.785"/>
<text text-anchor="start" x="735.5" y="-778.985" font-family="Helvetica,sans-Serif" font-size="11.00">0 rows</text>
<polygon fill="#ffffff" stroke="none" points="774.5,-772.785 774.5,-790.785 884.5,-790.785 884.5,-772.785 774.5,-772.785"/>
<polygon fill="none" stroke="black" points="774.5,-772.785 774.5,-790.785 884.5,-790.785 884.5,-772.785 774.5,-772.785"/>
<text text-anchor="start" x="864.5" y="-778.985" font-family="Helvetica,sans-Serif" font-size="11.00">0 &gt;</text>
<polygon fill="none" stroke="black" stroke-width="2" points="558,-771.785 558,-1055.78 885,-1055.78 885,-771.785 558,-771.785"/>
</a>
</g>
</g>
<!-- address_current_token_balances&#45;&gt;addresses -->
<g id="edge3" class="edge"><title>address_current_token_balances:address_hash:w&#45;&gt;addresses:hash:e</title>
<path fill="none" stroke="black" d="M544.661,-994.451C507.102,-959.467 556.639,-763.009 516,-723.785 442.262,-652.613 360.143,-768.567 287,-696.785 240.255,-650.91 312.495,-404.785 247,-404.785"/>
<polygon fill="black" stroke="black" points="551.035,-996.908 557.205,-1003.14 554.768,-998.346 558.5,-999.785 558.5,-999.785 558.5,-999.785 554.768,-998.346 559.795,-996.425 551.035,-996.908 551.035,-996.908"/>
<ellipse fill="none" stroke="black" cx="548.049" cy="-995.757" rx="3.20001" ry="3.20001"/>
</g>
<!-- tokens -->
<g id="node5" class="node"><title>tokens</title>
<g id="a_node5"><a xlink:href="../../tables/tokens.html" xlink:title="tokens" target="_top">
<polygon fill="#ffffff" stroke="none" points="323,-561.785 323,-685.785 480,-685.785 480,-561.785 323,-561.785"/>
<polygon fill="#f5f5f5" stroke="none" points="323.5,-663.785 323.5,-685.785 480.5,-685.785 480.5,-663.785 323.5,-663.785"/>
<polygon fill="none" stroke="black" points="323.5,-663.785 323.5,-685.785 480.5,-685.785 480.5,-663.785 323.5,-663.785"/>
<text text-anchor="start" x="328.5" y="-672.985" font-family="Helvetica,sans-Serif" font-weight="bold" font-size="11.00">tokens</text>
<text text-anchor="start" x="441.5" y="-671.985" font-family="Helvetica,sans-Serif" font-size="11.00">[table]</text>
<polygon fill="#ffffff" stroke="none" points="323.5,-641.785 323.5,-663.785 480.5,-663.785 480.5,-641.785 323.5,-641.785"/>
<polygon fill="none" stroke="black" points="323.5,-641.785 323.5,-663.785 480.5,-663.785 480.5,-641.785 323.5,-641.785"/>
<text text-anchor="start" x="343.5" y="-649.985" font-family="Helvetica,sans-Serif" font-size="11.00">symbol</text>
<polygon fill="#ffffff" stroke="none" points="323.5,-619.785 323.5,-641.785 480.5,-641.785 480.5,-619.785 323.5,-619.785"/>
<polygon fill="none" stroke="black" points="323.5,-619.785 323.5,-641.785 480.5,-641.785 480.5,-619.785 323.5,-619.785"/>
<text text-anchor="start" x="343.5" y="-627.985" font-family="Helvetica,sans-Serif" font-size="11.00">type</text>
<polygon fill="none" stroke="black" points="323.5,-597.785 323.5,-619.785 480.5,-619.785 480.5,-597.785 323.5,-597.785"/>
<image xlink:href="../../images/primaryKeys.png" width="11px" height="12px" preserveAspectRatio="xMinYMin meet" x="328.5" y="-614.785"/>
<text text-anchor="start" x="343.5" y="-605.985" font-family="Helvetica,sans-Serif" font-size="11.00">contract_address_hash</text>
<polygon fill="none" stroke="black" points="323.5,-579.785 323.5,-597.785 480.5,-597.785 480.5,-579.785 323.5,-579.785"/>
<text text-anchor="start" x="326.5" y="-585.985" font-family="Helvetica,sans-Serif" font-size="11.00">...</text>
<polygon fill="#ffffff" stroke="none" points="323.5,-561.785 323.5,-579.785 380.5,-579.785 380.5,-561.785 323.5,-561.785"/>
<polygon fill="none" stroke="black" points="323.5,-561.785 323.5,-579.785 380.5,-579.785 380.5,-561.785 323.5,-561.785"/>
<text text-anchor="start" x="326.5" y="-567.985" font-family="Helvetica,sans-Serif" font-size="11.00">&lt; 1</text>
<polygon fill="#ffffff" stroke="none" points="380.5,-561.785 380.5,-579.785 439.5,-579.785 439.5,-561.785 380.5,-561.785"/>
<polygon fill="none" stroke="black" points="380.5,-561.785 380.5,-579.785 439.5,-579.785 439.5,-561.785 380.5,-561.785"/>
<text text-anchor="start" x="400.5" y="-567.985" font-family="Helvetica,sans-Serif" font-size="11.00">0 rows</text>
<polygon fill="#ffffff" stroke="none" points="439.5,-561.785 439.5,-579.785 480.5,-579.785 480.5,-561.785 439.5,-561.785"/>
<polygon fill="none" stroke="black" points="439.5,-561.785 439.5,-579.785 480.5,-579.785 480.5,-561.785 439.5,-561.785"/>
<text text-anchor="start" x="460.5" y="-567.985" font-family="Helvetica,sans-Serif" font-size="11.00">4 &gt;</text>
</a>
</g>
</g>
<!-- address_current_token_balances&#45;&gt;tokens -->
<g id="edge4" class="edge"><title>address_current_token_balances:token_contract_address_hash:w&#45;&gt;tokens:contract_address_hash:e</title>
<path fill="none" stroke="black" d="M544.442,-951.142C489.836,-909.965 555.087,-608.785 481.5,-608.785"/>
<polygon fill="black" stroke="black" points="550.904,-953.276 557.371,-959.203 554.702,-954.53 558.5,-955.785 558.5,-955.785 558.5,-955.785 554.702,-954.53 559.629,-952.366 550.904,-953.276 550.904,-953.276"/>
<ellipse fill="none" stroke="black" cx="547.865" cy="-952.272" rx="3.20001" ry="3.20001"/>
</g>
<!-- tokens&#45;&gt;addresses -->
<g id="edge27" class="edge"><title>tokens:contract_address_hash:w&#45;&gt;addresses:hash:e</title>
<path fill="none" stroke="black" d="M312.208,-607.26C292.878,-600.56 297.638,-572.953 287,-547.785 261.306,-486.997 312.995,-404.785 247,-404.785"/>
<polygon fill="black" stroke="black" points="322.295,-604.711 321.122,-612.624 319.54,-612.39 320.712,-604.476 322.295,-604.711"/>
<polyline fill="none" stroke="black" points="322.5,-608.785 318.543,-608.198 "/>
<ellipse fill="none" stroke="black" cx="315.378" cy="-607.729" rx="3.2" ry="3.2"/>
</g>
<!-- address_token_balances -->
<g id="node6" class="node"><title>address_token_balances</title>
<g id="a_node6"><a xlink:href="../../tables/address_token_balances.html" xlink:title="address_token_balances" target="_top">
<polygon fill="#ffffff" stroke="none" points="629,-533.785 629,-591.785 814,-591.785 814,-533.785 629,-533.785"/>
<polygon fill="#f5f5f5" stroke="none" points="629.5,-569.785 629.5,-591.785 814.5,-591.785 814.5,-569.785 629.5,-569.785"/>
<polygon fill="none" stroke="black" points="629.5,-569.785 629.5,-591.785 814.5,-591.785 814.5,-569.785 629.5,-569.785"/>
<text text-anchor="start" x="634.5" y="-578.985" font-family="Helvetica,sans-Serif" font-weight="bold" font-size="11.00">address_token_balances</text>
<text text-anchor="start" x="775.5" y="-577.985" font-family="Helvetica,sans-Serif" font-size="11.00">[table]</text>
<polygon fill="none" stroke="black" points="629.5,-551.785 629.5,-569.785 814.5,-569.785 814.5,-551.785 629.5,-551.785"/>
<text text-anchor="start" x="632.5" y="-557.985" font-family="Helvetica,sans-Serif" font-size="11.00">...</text>
<polygon fill="#ffffff" stroke="none" points="629.5,-533.785 629.5,-551.785 705.5,-551.785 705.5,-533.785 629.5,-533.785"/>
<polygon fill="none" stroke="black" points="629.5,-533.785 629.5,-551.785 705.5,-551.785 705.5,-533.785 629.5,-533.785"/>
<text text-anchor="start" x="632.5" y="-539.985" font-family="Helvetica,sans-Serif" font-size="11.00">&lt; 2</text>
<polygon fill="#ffffff" stroke="none" points="705.5,-533.785 705.5,-551.785 774.5,-551.785 774.5,-533.785 705.5,-533.785"/>
<polygon fill="none" stroke="black" points="705.5,-533.785 705.5,-551.785 774.5,-551.785 774.5,-533.785 705.5,-533.785"/>
<text text-anchor="start" x="735.5" y="-539.985" font-family="Helvetica,sans-Serif" font-size="11.00">0 rows</text>
<polygon fill="#ffffff" stroke="none" points="774.5,-533.785 774.5,-551.785 814.5,-551.785 814.5,-533.785 774.5,-533.785"/>
<polygon fill="none" stroke="black" points="774.5,-533.785 774.5,-551.785 814.5,-551.785 814.5,-533.785 774.5,-533.785"/>
<text text-anchor="start" x="804.5" y="-539.985" font-family="Helvetica,sans-Serif" font-size="11.00"> &#160;</text>
</a>
</g>
</g>
<!-- address_token_balances&#45;&gt;addresses -->
<g id="edge5" class="edge"><title>address_token_balances:elipses:w&#45;&gt;addresses:hash:e</title>
<path fill="none" stroke="black" d="M613.941,-559.933C548.868,-555.155 300.341,-531.521 287,-520.785 244.516,-486.593 301.535,-404.785 247,-404.785"/>
<polygon fill="black" stroke="black" points="620.514,-560.317 628.29,-564.378 624.507,-560.551 628.5,-560.785 628.5,-560.785 628.5,-560.785 624.507,-560.551 628.71,-557.191 620.514,-560.317 620.514,-560.317"/>
<ellipse fill="none" stroke="black" cx="617.319" cy="-560.13" rx="3.2" ry="3.2"/>
</g>
<!-- address_token_balances&#45;&gt;tokens -->
<g id="edge6" class="edge"><title>address_token_balances:elipses:w&#45;&gt;tokens:contract_address_hash:e</title>
<path fill="none" stroke="black" d="M613.772,-561.578C557.975,-567.819 544.993,-608.785 481.5,-608.785"/>
<polygon fill="black" stroke="black" points="620.512,-561.215 628.694,-564.379 624.506,-561 628.5,-560.785 628.5,-560.785 628.5,-560.785 624.506,-561 628.306,-557.19 620.512,-561.215 620.512,-561.215"/>
<ellipse fill="none" stroke="black" cx="617.316" cy="-561.387" rx="3.2" ry="3.2"/>
</g>
<!-- block_rewards -->
<g id="node7" class="node"><title>block_rewards</title>
<g id="a_node7"><a xlink:href="../../tables/block_rewards.html" xlink:title="block_rewards" target="_top">
<polygon fill="#ffffff" stroke="none" points="656.5,-403.785 656.5,-461.785 786.5,-461.785 786.5,-403.785 656.5,-403.785"/>
<polygon fill="#f5f5f5" stroke="none" points="656.5,-439.785 656.5,-461.785 786.5,-461.785 786.5,-439.785 656.5,-439.785"/>
<polygon fill="none" stroke="black" points="656.5,-439.785 656.5,-461.785 786.5,-461.785 786.5,-439.785 656.5,-439.785"/>
<text text-anchor="start" x="661.5" y="-448.985" font-family="Helvetica,sans-Serif" font-weight="bold" font-size="11.00">block_rewards</text>
<text text-anchor="start" x="747.5" y="-447.985" font-family="Helvetica,sans-Serif" font-size="11.00">[table]</text>
<polygon fill="none" stroke="black" points="656.5,-421.785 656.5,-439.785 786.5,-439.785 786.5,-421.785 656.5,-421.785"/>
<text text-anchor="start" x="659.5" y="-427.985" font-family="Helvetica,sans-Serif" font-size="11.00">...</text>
<polygon fill="#ffffff" stroke="none" points="656.5,-403.785 656.5,-421.785 705.5,-421.785 705.5,-403.785 656.5,-403.785"/>
<polygon fill="none" stroke="black" points="656.5,-403.785 656.5,-421.785 705.5,-421.785 705.5,-403.785 656.5,-403.785"/>
<text text-anchor="start" x="659.5" y="-409.985" font-family="Helvetica,sans-Serif" font-size="11.00">&lt; 2</text>
<polygon fill="#ffffff" stroke="none" points="705.5,-403.785 705.5,-421.785 760.5,-421.785 760.5,-403.785 705.5,-403.785"/>
<polygon fill="none" stroke="black" points="705.5,-403.785 705.5,-421.785 760.5,-421.785 760.5,-403.785 705.5,-403.785"/>
<text text-anchor="start" x="721.5" y="-409.985" font-family="Helvetica,sans-Serif" font-size="11.00">0 rows</text>
<polygon fill="#ffffff" stroke="none" points="760.5,-403.785 760.5,-421.785 786.5,-421.785 786.5,-403.785 760.5,-403.785"/>
<polygon fill="none" stroke="black" points="760.5,-403.785 760.5,-421.785 786.5,-421.785 786.5,-403.785 760.5,-403.785"/>
<text text-anchor="start" x="776.5" y="-409.985" font-family="Helvetica,sans-Serif" font-size="11.00"> &#160;</text>
</a>
</g>
</g>
<!-- block_rewards&#45;&gt;addresses -->
<g id="edge7" class="edge"><title>block_rewards:elipses:w&#45;&gt;addresses:hash:e</title>
<path fill="none" stroke="black" d="M640.908,-431C488.216,-435.53 433.116,-509.406 287,-446.785 263.306,-436.63 272.778,-404.785 247,-404.785"/>
<polygon fill="black" stroke="black" points="647.501,-430.903 655.553,-434.384 651.5,-430.844 655.5,-430.785 655.5,-430.785 655.5,-430.785 651.5,-430.844 655.447,-427.185 647.501,-430.903 647.501,-430.903"/>
<ellipse fill="none" stroke="black" cx="644.301" cy="-430.95" rx="3.2" ry="3.2"/>
</g>
<!-- blocks -->
<g id="node8" class="node"><title>blocks</title>
<g id="a_node8"><a xlink:href="../../tables/blocks.html" xlink:title="blocks" target="_top">
<polygon fill="#ffffff" stroke="none" points="357.5,-298.785 357.5,-356.785 445.5,-356.785 445.5,-298.785 357.5,-298.785"/>
<polygon fill="#f5f5f5" stroke="none" points="357.5,-334.785 357.5,-356.785 445.5,-356.785 445.5,-334.785 357.5,-334.785"/>
<polygon fill="none" stroke="black" points="357.5,-334.785 357.5,-356.785 445.5,-356.785 445.5,-334.785 357.5,-334.785"/>
<text text-anchor="start" x="362.5" y="-343.985" font-family="Helvetica,sans-Serif" font-weight="bold" font-size="11.00">blocks</text>
<text text-anchor="start" x="406.5" y="-342.985" font-family="Helvetica,sans-Serif" font-size="11.00">[table]</text>
<polygon fill="none" stroke="black" points="357.5,-316.785 357.5,-334.785 445.5,-334.785 445.5,-316.785 357.5,-316.785"/>
<text text-anchor="start" x="360.5" y="-322.985" font-family="Helvetica,sans-Serif" font-size="11.00">...</text>
<polygon fill="#ffffff" stroke="none" points="357.5,-298.785 357.5,-316.785 380.5,-316.785 380.5,-298.785 357.5,-298.785"/>
<polygon fill="none" stroke="black" points="357.5,-298.785 357.5,-316.785 380.5,-316.785 380.5,-298.785 357.5,-298.785"/>
<text text-anchor="start" x="360.5" y="-304.985" font-family="Helvetica,sans-Serif" font-size="11.00">&lt; 1</text>
<polygon fill="#ffffff" stroke="none" points="380.5,-298.785 380.5,-316.785 422.5,-316.785 422.5,-298.785 380.5,-298.785"/>
<polygon fill="none" stroke="black" points="380.5,-298.785 380.5,-316.785 422.5,-316.785 422.5,-298.785 380.5,-298.785"/>
<text text-anchor="start" x="383.5" y="-304.985" font-family="Helvetica,sans-Serif" font-size="11.00">3 rows</text>
<polygon fill="#ffffff" stroke="none" points="422.5,-298.785 422.5,-316.785 445.5,-316.785 445.5,-298.785 422.5,-298.785"/>
<polygon fill="none" stroke="black" points="422.5,-298.785 422.5,-316.785 445.5,-316.785 445.5,-298.785 422.5,-298.785"/>
<text text-anchor="start" x="425.5" y="-304.985" font-family="Helvetica,sans-Serif" font-size="11.00">8 &gt;</text>
</a>
</g>
</g>
<!-- block_rewards&#45;&gt;blocks -->
<g id="edge8" class="edge"><title>block_rewards:elipses:w&#45;&gt;blocks:elipses:e</title>
<path fill="none" stroke="black" d="M640.851,-430.33C585.08,-426.685 569.053,-401.476 516,-367.785 485.533,-348.437 482.591,-325.785 446.5,-325.785"/>
<polygon fill="black" stroke="black" points="647.504,-430.536 655.388,-434.383 651.502,-430.661 655.5,-430.785 655.5,-430.785 655.5,-430.785 651.502,-430.661 655.612,-427.186 647.504,-430.536 647.504,-430.536"/>
<ellipse fill="none" stroke="black" cx="644.305" cy="-430.437" rx="3.2" ry="3.2"/>
</g>
<!-- blocks&#45;&gt;addresses -->
<g id="edge9" class="edge"><title>blocks:elipses:w&#45;&gt;addresses:hash:e</title>
<path fill="none" stroke="black" d="M342.003,-327.131C318.453,-332.003 311.446,-349.392 287,-367.785 267.648,-382.344 271.217,-404.785 247,-404.785"/>
<polygon fill="black" stroke="black" points="348.534,-326.525 356.833,-329.369 352.517,-326.155 356.5,-325.785 356.5,-325.785 356.5,-325.785 352.517,-326.155 356.167,-322.2 348.534,-326.525 348.534,-326.525"/>
<ellipse fill="none" stroke="black" cx="345.348" cy="-326.821" rx="3.2" ry="3.2"/>
</g>
<!-- bridged_tokens -->
<g id="node9" class="node"><title>bridged_tokens</title>
<g id="a_node9"><a xlink:href="../../tables/bridged_tokens.html" xlink:title="bridged_tokens" target="_top">
<polygon fill="#ffffff" stroke="none" points="653.5,-691.785 653.5,-749.785 789.5,-749.785 789.5,-691.785 653.5,-691.785"/>
<polygon fill="#f5f5f5" stroke="none" points="653.5,-727.785 653.5,-749.785 789.5,-749.785 789.5,-727.785 653.5,-727.785"/>
<polygon fill="none" stroke="black" points="653.5,-727.785 653.5,-749.785 789.5,-749.785 789.5,-727.785 653.5,-727.785"/>
<text text-anchor="start" x="658.5" y="-736.985" font-family="Helvetica,sans-Serif" font-weight="bold" font-size="11.00">bridged_tokens</text>
<text text-anchor="start" x="750.5" y="-735.985" font-family="Helvetica,sans-Serif" font-size="11.00">[table]</text>
<polygon fill="none" stroke="black" points="653.5,-709.785 653.5,-727.785 789.5,-727.785 789.5,-709.785 653.5,-709.785"/>
<text text-anchor="start" x="656.5" y="-715.985" font-family="Helvetica,sans-Serif" font-size="11.00">...</text>
<polygon fill="#ffffff" stroke="none" points="653.5,-691.785 653.5,-709.785 705.5,-709.785 705.5,-691.785 653.5,-691.785"/>
<polygon fill="none" stroke="black" points="653.5,-691.785 653.5,-709.785 705.5,-709.785 705.5,-691.785 653.5,-691.785"/>
<text text-anchor="start" x="656.5" y="-697.985" font-family="Helvetica,sans-Serif" font-size="11.00">&lt; 1</text>
<polygon fill="#ffffff" stroke="none" points="705.5,-691.785 705.5,-709.785 761.5,-709.785 761.5,-691.785 705.5,-691.785"/>
<polygon fill="none" stroke="black" points="705.5,-691.785 705.5,-709.785 761.5,-709.785 761.5,-691.785 705.5,-691.785"/>
<text text-anchor="start" x="722.5" y="-697.985" font-family="Helvetica,sans-Serif" font-size="11.00">0 rows</text>
<polygon fill="#ffffff" stroke="none" points="761.5,-691.785 761.5,-709.785 789.5,-709.785 789.5,-691.785 761.5,-691.785"/>
<polygon fill="none" stroke="black" points="761.5,-691.785 761.5,-709.785 789.5,-709.785 789.5,-691.785 761.5,-691.785"/>
<text text-anchor="start" x="779.5" y="-697.985" font-family="Helvetica,sans-Serif" font-size="11.00"> &#160;</text>
</a>
</g>
</g>
<!-- bridged_tokens&#45;&gt;tokens -->
<g id="edge10" class="edge"><title>bridged_tokens:elipses:w&#45;&gt;tokens:contract_address_hash:e</title>
<path fill="none" stroke="black" d="M641.918,-718.606C601.377,-717.153 586.652,-706.665 549,-681.785 512.133,-657.423 525.689,-608.785 481.5,-608.785"/>
<polygon fill="black" stroke="black" points="651.768,-714.772 651.633,-722.771 650.033,-722.744 650.168,-714.745 651.768,-714.772"/>
<polyline fill="none" stroke="black" points="652.5,-718.785 648.501,-718.717 "/>
<ellipse fill="none" stroke="black" cx="645.301" cy="-718.663" rx="3.2" ry="3.2"/>
</g>
<!-- decompiled_smart_contracts -->
<g id="node10" class="node"><title>decompiled_smart_contracts</title>
<g id="a_node10"><a xlink:href="../../tables/decompiled_smart_contracts.html" xlink:title="decompiled_smart_contracts" target="_top">
<polygon fill="#ffffff" stroke="none" points="295,-377.785 295,-435.785 508,-435.785 508,-377.785 295,-377.785"/>
<polygon fill="#f5f5f5" stroke="none" points="295.5,-413.785 295.5,-435.785 508.5,-435.785 508.5,-413.785 295.5,-413.785"/>
<polygon fill="none" stroke="black" points="295.5,-413.785 295.5,-435.785 508.5,-435.785 508.5,-413.785 295.5,-413.785"/>
<text text-anchor="start" x="300.5" y="-422.985" font-family="Helvetica,sans-Serif" font-weight="bold" font-size="11.00">decompiled_smart_contracts</text>
<text text-anchor="start" x="469.5" y="-421.985" font-family="Helvetica,sans-Serif" font-size="11.00">[table]</text>
<polygon fill="none" stroke="black" points="295.5,-395.785 295.5,-413.785 508.5,-413.785 508.5,-395.785 295.5,-395.785"/>
<text text-anchor="start" x="298.5" y="-401.985" font-family="Helvetica,sans-Serif" font-size="11.00">...</text>
<polygon fill="#ffffff" stroke="none" points="295.5,-377.785 295.5,-395.785 385.5,-395.785 385.5,-377.785 295.5,-377.785"/>
<polygon fill="none" stroke="black" points="295.5,-377.785 295.5,-395.785 385.5,-395.785 385.5,-377.785 295.5,-377.785"/>
<text text-anchor="start" x="298.5" y="-383.985" font-family="Helvetica,sans-Serif" font-size="11.00">&lt; 1</text>
<polygon fill="#ffffff" stroke="none" points="385.5,-377.785 385.5,-395.785 461.5,-395.785 461.5,-377.785 385.5,-377.785"/>
<polygon fill="none" stroke="black" points="385.5,-377.785 385.5,-395.785 461.5,-395.785 461.5,-377.785 385.5,-377.785"/>
<text text-anchor="start" x="422.5" y="-383.985" font-family="Helvetica,sans-Serif" font-size="11.00">0 rows</text>
<polygon fill="#ffffff" stroke="none" points="461.5,-377.785 461.5,-395.785 508.5,-395.785 508.5,-377.785 461.5,-377.785"/>
<polygon fill="none" stroke="black" points="461.5,-377.785 461.5,-395.785 508.5,-395.785 508.5,-377.785 461.5,-377.785"/>
<text text-anchor="start" x="498.5" y="-383.985" font-family="Helvetica,sans-Serif" font-size="11.00"> &#160;</text>
</a>
</g>
</g>
<!-- decompiled_smart_contracts&#45;&gt;addresses -->
<g id="edge11" class="edge"><title>decompiled_smart_contracts:elipses:w&#45;&gt;addresses:hash:e</title>
<path fill="none" stroke="black" d="M280.086,-404.785C269.319,-404.785 262.339,-404.785 247,-404.785"/>
<polygon fill="black" stroke="black" points="286.5,-404.785 294.5,-408.385 290.5,-404.785 294.5,-404.785 294.5,-404.785 294.5,-404.785 290.5,-404.785 294.5,-401.185 286.5,-404.785 286.5,-404.785"/>
<ellipse fill="none" stroke="black" cx="283.3" cy="-404.785" rx="3.2" ry="3.2"/>
</g>
<!-- internal_transactions -->
<g id="node11" class="node"><title>internal_transactions</title>
<g id="a_node11"><a xlink:href="../../tables/internal_transactions.html" xlink:title="internal_transactions" target="_top">
<polygon fill="#ffffff" stroke="none" points="935,-470.785 935,-528.785 1106,-528.785 1106,-470.785 935,-470.785"/>
<polygon fill="#f5f5f5" stroke="none" points="935.5,-506.785 935.5,-528.785 1106.5,-528.785 1106.5,-506.785 935.5,-506.785"/>
<polygon fill="none" stroke="black" points="935.5,-506.785 935.5,-528.785 1106.5,-528.785 1106.5,-506.785 935.5,-506.785"/>
<text text-anchor="start" x="940.5" y="-515.985" font-family="Helvetica,sans-Serif" font-weight="bold" font-size="11.00">internal_transactions</text>
<text text-anchor="start" x="1067.5" y="-514.985" font-family="Helvetica,sans-Serif" font-size="11.00">[table]</text>
<polygon fill="none" stroke="black" points="935.5,-488.785 935.5,-506.785 1106.5,-506.785 1106.5,-488.785 935.5,-488.785"/>
<text text-anchor="start" x="938.5" y="-494.985" font-family="Helvetica,sans-Serif" font-size="11.00">...</text>
<polygon fill="#ffffff" stroke="none" points="935.5,-470.785 935.5,-488.785 1007.5,-488.785 1007.5,-470.785 935.5,-470.785"/>
<polygon fill="none" stroke="black" points="935.5,-470.785 935.5,-488.785 1007.5,-488.785 1007.5,-470.785 935.5,-470.785"/>
<text text-anchor="start" x="938.5" y="-476.985" font-family="Helvetica,sans-Serif" font-size="11.00">&lt; 5</text>
<polygon fill="#ffffff" stroke="none" points="1007.5,-470.785 1007.5,-488.785 1068.5,-488.785 1068.5,-470.785 1007.5,-470.785"/>
<polygon fill="none" stroke="black" points="1007.5,-470.785 1007.5,-488.785 1068.5,-488.785 1068.5,-470.785 1007.5,-470.785"/>
<text text-anchor="start" x="1034.5" y="-476.985" font-family="Helvetica,sans-Serif" font-size="11.00">1 row</text>
<polygon fill="#ffffff" stroke="none" points="1068.5,-470.785 1068.5,-488.785 1106.5,-488.785 1106.5,-470.785 1068.5,-470.785"/>
<polygon fill="none" stroke="black" points="1068.5,-470.785 1068.5,-488.785 1106.5,-488.785 1106.5,-470.785 1068.5,-470.785"/>
<text text-anchor="start" x="1096.5" y="-476.985" font-family="Helvetica,sans-Serif" font-size="11.00"> &#160;</text>
</a>
</g>
</g>
<!-- internal_transactions&#45;&gt;addresses -->
<g id="edge13" class="edge"><title>internal_transactions:elipses:w&#45;&gt;addresses:hash:e</title>
<path fill="none" stroke="black" d="M919.859,-497.915C766.298,-500.476 407.375,-539.068 287,-468.785 258.033,-451.872 280.543,-404.785 247,-404.785"/>
<polygon fill="black" stroke="black" points="926.5,-497.856 934.532,-501.384 930.5,-497.82 934.5,-497.785 934.5,-497.785 934.5,-497.785 930.5,-497.82 934.468,-494.185 926.5,-497.856 926.5,-497.856"/>
<ellipse fill="none" stroke="black" cx="923.3" cy="-497.885" rx="3.2" ry="3.2"/>
</g>
<!-- internal_transactions&#45;&gt;addresses -->
<g id="edge14" class="edge"><title>internal_transactions:elipses:w&#45;&gt;addresses:hash:e</title>
<path fill="none" stroke="black" d="M919.858,-497.337C766.313,-494.133 408.219,-527.685 287,-458.785 259.137,-442.947 279.049,-398.785 247,-404.785"/>
<polygon fill="black" stroke="black" points="926.504,-497.54 934.39,-501.383 930.502,-497.662 934.5,-497.785 934.5,-497.785 934.5,-497.785 930.502,-497.662 934.61,-494.186 926.504,-497.54 926.504,-497.54"/>
<ellipse fill="none" stroke="black" cx="923.305" cy="-497.442" rx="3.2" ry="3.2"/>
</g>
<!-- internal_transactions&#45;&gt;addresses -->
<g id="edge15" class="edge"><title>internal_transactions:elipses:w&#45;&gt;addresses:hash:e</title>
<path fill="none" stroke="black" d="M919.858,-498.554C766.313,-507.133 408.219,-540.685 287,-471.785 259.137,-455.947 279.049,-411.785 247,-404.785"/>
<polygon fill="black" stroke="black" points="926.511,-498.204 934.689,-501.38 930.506,-497.994 934.5,-497.785 934.5,-497.785 934.5,-497.785 930.506,-497.994 934.311,-494.19 926.511,-498.204 926.511,-498.204"/>
<ellipse fill="none" stroke="black" cx="923.315" cy="-498.372" rx="3.2" ry="3.2"/>
</g>
<!-- internal_transactions&#45;&gt;blocks -->
<g id="edge12" class="edge"><title>internal_transactions:elipses:w&#45;&gt;blocks:elipses:e</title>
<path fill="none" stroke="black" d="M920.134,-494.552C895.648,-480.003 928.47,-420.16 894,-393.785 832.764,-346.928 624.565,-372.123 549,-356.785 502.358,-347.317 494.093,-325.785 446.5,-325.785"/>
<polygon fill="black" stroke="black" points="926.695,-496.028 933.71,-501.297 930.598,-496.907 934.5,-497.785 934.5,-497.785 934.5,-497.785 930.598,-496.907 935.29,-494.272 926.695,-496.028 926.695,-496.028"/>
<ellipse fill="none" stroke="black" cx="923.573" cy="-495.326" rx="3.2" ry="3.2"/>
</g>
<!-- transactions -->
<g id="node12" class="node"><title>transactions</title>
<g id="a_node12"><a xlink:href="../../tables/transactions.html" xlink:title="transactions" target="_top">
<polygon fill="#ffffff" stroke="none" points="661.5,-243.785 661.5,-301.785 781.5,-301.785 781.5,-243.785 661.5,-243.785"/>
<polygon fill="#f5f5f5" stroke="none" points="661.5,-279.785 661.5,-301.785 781.5,-301.785 781.5,-279.785 661.5,-279.785"/>
<polygon fill="none" stroke="black" points="661.5,-279.785 661.5,-301.785 781.5,-301.785 781.5,-279.785 661.5,-279.785"/>
<text text-anchor="start" x="666.5" y="-288.985" font-family="Helvetica,sans-Serif" font-weight="bold" font-size="11.00">transactions</text>
<text text-anchor="start" x="742.5" y="-287.985" font-family="Helvetica,sans-Serif" font-size="11.00">[table]</text>
<polygon fill="none" stroke="black" points="661.5,-261.785 661.5,-279.785 781.5,-279.785 781.5,-261.785 661.5,-261.785"/>
<text text-anchor="start" x="664.5" y="-267.985" font-family="Helvetica,sans-Serif" font-size="11.00">...</text>
<polygon fill="#ffffff" stroke="none" points="661.5,-243.785 661.5,-261.785 702.5,-261.785 702.5,-243.785 661.5,-243.785"/>
<polygon fill="none" stroke="black" points="661.5,-243.785 661.5,-261.785 702.5,-261.785 702.5,-243.785 661.5,-243.785"/>
<text text-anchor="start" x="664.5" y="-249.985" font-family="Helvetica,sans-Serif" font-size="11.00">&lt; 4</text>
<polygon fill="#ffffff" stroke="none" points="702.5,-243.785 702.5,-261.785 748.5,-261.785 748.5,-243.785 702.5,-243.785"/>
<polygon fill="none" stroke="black" points="702.5,-243.785 702.5,-261.785 748.5,-261.785 748.5,-243.785 702.5,-243.785"/>
<text text-anchor="start" x="714.5" y="-249.985" font-family="Helvetica,sans-Serif" font-size="11.00">1 row</text>
<polygon fill="#ffffff" stroke="none" points="748.5,-243.785 748.5,-261.785 781.5,-261.785 781.5,-243.785 748.5,-243.785"/>
<polygon fill="none" stroke="black" points="748.5,-243.785 748.5,-261.785 781.5,-261.785 781.5,-243.785 748.5,-243.785"/>
<text text-anchor="start" x="761.5" y="-249.985" font-family="Helvetica,sans-Serif" font-size="11.00">4 &gt;</text>
</a>
</g>
</g>
<!-- internal_transactions&#45;&gt;transactions -->
<g id="edge16" class="edge"><title>internal_transactions:elipses:w&#45;&gt;transactions:elipses:e</title>
<path fill="none" stroke="black" d="M920.022,-495.653C884.116,-482.827 923.307,-414.951 894,-369.785 857.928,-314.192 848.77,-270.785 782.5,-270.785"/>
<polygon fill="black" stroke="black" points="926.585,-496.619 933.976,-501.346 930.543,-497.202 934.5,-497.785 934.5,-497.785 934.5,-497.785 930.543,-497.202 935.024,-494.223 926.585,-496.619 926.585,-496.619"/>
<ellipse fill="none" stroke="black" cx="923.419" cy="-496.153" rx="3.2" ry="3.2"/>
</g>
<!-- transactions&#45;&gt;addresses -->
<g id="edge29" class="edge"><title>transactions:elipses:w&#45;&gt;addresses:hash:e</title>
<path fill="none" stroke="black" d="M645.655,-270.567C489.752,-266.004 415.934,-192.095 287,-288.785 243.371,-321.503 301.535,-404.785 247,-404.785"/>
<polygon fill="black" stroke="black" points="652.501,-270.667 660.447,-274.384 656.5,-270.726 660.5,-270.785 660.5,-270.785 660.5,-270.785 656.5,-270.726 660.553,-267.185 652.501,-270.667 652.501,-270.667"/>
<ellipse fill="none" stroke="black" cx="649.301" cy="-270.621" rx="3.2" ry="3.2"/>
</g>
<!-- transactions&#45;&gt;addresses -->
<g id="edge30" class="edge"><title>transactions:elipses:w&#45;&gt;addresses:hash:e</title>
<path fill="none" stroke="black" d="M645.647,-270.049C489.668,-260.24 416.022,-190.058 287,-286.785 244.708,-318.491 299.857,-398.785 247,-404.785"/>
<polygon fill="black" stroke="black" points="652.51,-270.389 660.322,-274.38 656.505,-270.587 660.5,-270.785 660.5,-270.785 660.5,-270.785 656.505,-270.587 660.678,-267.189 652.51,-270.389 652.51,-270.389"/>
<ellipse fill="none" stroke="black" cx="649.314" cy="-270.231" rx="3.2" ry="3.2"/>
</g>
<!-- transactions&#45;&gt;addresses -->
<g id="edge31" class="edge"><title>transactions:elipses:w&#45;&gt;addresses:hash:e</title>
<path fill="none" stroke="black" d="M645.647,-271.195C489.668,-273.24 416.022,-203.058 287,-299.785 244.708,-331.491 299.857,-411.785 247,-404.785"/>
<polygon fill="black" stroke="black" points="652.503,-271.005 660.599,-274.383 656.502,-270.895 660.5,-270.785 660.5,-270.785 660.5,-270.785 656.502,-270.895 660.401,-267.186 652.503,-271.005 652.503,-271.005"/>
<ellipse fill="none" stroke="black" cx="649.304" cy="-271.094" rx="3.2" ry="3.2"/>
</g>
<!-- transactions&#45;&gt;blocks -->
<g id="edge28" class="edge"><title>transactions:elipses:w&#45;&gt;blocks:elipses:e</title>
<path fill="none" stroke="black" d="M645.877,-271.211C560.261,-276.331 539.619,-325.785 446.5,-325.785"/>
<polygon fill="black" stroke="black" points="652.503,-271.018 660.605,-274.383 656.502,-270.901 660.5,-270.785 660.5,-270.785 660.5,-270.785 656.502,-270.901 660.395,-267.186 652.503,-271.018 652.503,-271.018"/>
<ellipse fill="none" stroke="black" cx="649.305" cy="-271.111" rx="3.2" ry="3.2"/>
</g>
<!-- logs -->
<g id="node13" class="node"><title>logs</title>
<g id="a_node13"><a xlink:href="../../tables/logs.html" xlink:title="logs" target="_top">
<polygon fill="#ffffff" stroke="none" points="981.5,-243.785 981.5,-301.785 1059.5,-301.785 1059.5,-243.785 981.5,-243.785"/>
<polygon fill="#f5f5f5" stroke="none" points="981.5,-279.785 981.5,-301.785 1059.5,-301.785 1059.5,-279.785 981.5,-279.785"/>
<polygon fill="none" stroke="black" points="981.5,-279.785 981.5,-301.785 1059.5,-301.785 1059.5,-279.785 981.5,-279.785"/>
<text text-anchor="start" x="986.5" y="-288.985" font-family="Helvetica,sans-Serif" font-weight="bold" font-size="11.00">logs</text>
<text text-anchor="start" x="1020.5" y="-287.985" font-family="Helvetica,sans-Serif" font-size="11.00">[table]</text>
<polygon fill="none" stroke="black" points="981.5,-261.785 981.5,-279.785 1059.5,-279.785 1059.5,-261.785 981.5,-261.785"/>
<text text-anchor="start" x="984.5" y="-267.985" font-family="Helvetica,sans-Serif" font-size="11.00">...</text>
<polygon fill="#ffffff" stroke="none" points="981.5,-243.785 981.5,-261.785 1004.5,-261.785 1004.5,-243.785 981.5,-243.785"/>
<polygon fill="none" stroke="black" points="981.5,-243.785 981.5,-261.785 1004.5,-261.785 1004.5,-243.785 981.5,-243.785"/>
<text text-anchor="start" x="984.5" y="-249.985" font-family="Helvetica,sans-Serif" font-size="11.00">&lt; 3</text>
<polygon fill="#ffffff" stroke="none" points="1004.5,-243.785 1004.5,-261.785 1046.5,-261.785 1046.5,-243.785 1004.5,-243.785"/>
<polygon fill="none" stroke="black" points="1004.5,-243.785 1004.5,-261.785 1046.5,-261.785 1046.5,-243.785 1004.5,-243.785"/>
<text text-anchor="start" x="1007.5" y="-249.985" font-family="Helvetica,sans-Serif" font-size="11.00">0 rows</text>
<polygon fill="#ffffff" stroke="none" points="1046.5,-243.785 1046.5,-261.785 1059.5,-261.785 1059.5,-243.785 1046.5,-243.785"/>
<polygon fill="none" stroke="black" points="1046.5,-243.785 1046.5,-261.785 1059.5,-261.785 1059.5,-243.785 1046.5,-243.785"/>
<text text-anchor="start" x="1049.5" y="-249.985" font-family="Helvetica,sans-Serif" font-size="11.00"> &#160;</text>
</a>
</g>
</g>
<!-- logs&#45;&gt;addresses -->
<g id="edge17" class="edge"><title>logs:elipses:w&#45;&gt;addresses:hash:e</title>
<path fill="none" stroke="black" d="M966.067,-269.463C937.107,-263.745 929.682,-241.096 894,-233.785 827.926,-220.246 339.584,-196.547 287,-238.785 227.834,-286.309 322.889,-404.785 247,-404.785"/>
<polygon fill="black" stroke="black" points="972.533,-270.055 980.172,-274.37 976.517,-270.42 980.5,-270.785 980.5,-270.785 980.5,-270.785 976.517,-270.42 980.828,-267.2 972.533,-270.055 972.533,-270.055"/>
<ellipse fill="none" stroke="black" cx="969.347" cy="-269.763" rx="3.2" ry="3.2"/>
</g>
<!-- logs&#45;&gt;blocks -->
<g id="edge18" class="edge"><title>logs:elipses:w&#45;&gt;blocks:elipses:e</title>
<path fill="none" stroke="black" d="M966.129,-272.578C933.365,-281.618 934.447,-322.282 894,-335.785 748.558,-384.34 702.152,-343.238 549,-335.785 503.282,-333.56 492.272,-325.785 446.5,-325.785"/>
<polygon fill="black" stroke="black" points="972.562,-271.775 980.946,-274.357 976.531,-271.28 980.5,-270.785 980.5,-270.785 980.5,-270.785 976.531,-271.28 980.054,-267.212 972.562,-271.775 972.562,-271.775"/>
<ellipse fill="none" stroke="black" cx="969.386" cy="-272.172" rx="3.2" ry="3.2"/>
</g>
<!-- logs&#45;&gt;transactions -->
<g id="edge19" class="edge"><title>logs:elipses:w&#45;&gt;transactions:elipses:e</title>
<path fill="none" stroke="black" d="M965.684,-270.785C889.695,-270.785 865.344,-270.785 782.5,-270.785"/>
<polygon fill="black" stroke="black" points="972.5,-270.785 980.5,-274.385 976.5,-270.785 980.5,-270.785 980.5,-270.785 980.5,-270.785 976.5,-270.785 980.5,-267.185 972.5,-270.785 972.5,-270.785"/>
<ellipse fill="none" stroke="black" cx="969.3" cy="-270.785" rx="3.2" ry="3.2"/>
</g>
<!-- smart_contracts -->
<g id="node14" class="node"><title>smart_contracts</title>
<g id="a_node14"><a xlink:href="../../tables/smart_contracts.html" xlink:title="smart_contracts" target="_top">
<polygon fill="#ffffff" stroke="none" points="331,-141.785 331,-199.785 472,-199.785 472,-141.785 331,-141.785"/>
<polygon fill="#f5f5f5" stroke="none" points="331.5,-177.785 331.5,-199.785 472.5,-199.785 472.5,-177.785 331.5,-177.785"/>
<polygon fill="none" stroke="black" points="331.5,-177.785 331.5,-199.785 472.5,-199.785 472.5,-177.785 331.5,-177.785"/>
<text text-anchor="start" x="336.5" y="-186.985" font-family="Helvetica,sans-Serif" font-weight="bold" font-size="11.00">smart_contracts</text>
<text text-anchor="start" x="433.5" y="-185.985" font-family="Helvetica,sans-Serif" font-size="11.00">[table]</text>
<polygon fill="none" stroke="black" points="331.5,-159.785 331.5,-177.785 472.5,-177.785 472.5,-159.785 331.5,-159.785"/>
<text text-anchor="start" x="334.5" y="-165.985" font-family="Helvetica,sans-Serif" font-size="11.00">...</text>
<polygon fill="#ffffff" stroke="none" points="331.5,-141.785 331.5,-159.785 380.5,-159.785 380.5,-141.785 331.5,-141.785"/>
<polygon fill="none" stroke="black" points="331.5,-141.785 331.5,-159.785 380.5,-159.785 380.5,-141.785 331.5,-141.785"/>
<text text-anchor="start" x="334.5" y="-147.985" font-family="Helvetica,sans-Serif" font-size="11.00">&lt; 1</text>
<polygon fill="#ffffff" stroke="none" points="380.5,-141.785 380.5,-159.785 435.5,-159.785 435.5,-141.785 380.5,-141.785"/>
<polygon fill="none" stroke="black" points="380.5,-141.785 380.5,-159.785 435.5,-159.785 435.5,-141.785 380.5,-141.785"/>
<text text-anchor="start" x="396.5" y="-147.985" font-family="Helvetica,sans-Serif" font-size="11.00">0 rows</text>
<polygon fill="#ffffff" stroke="none" points="435.5,-141.785 435.5,-159.785 472.5,-159.785 472.5,-141.785 435.5,-141.785"/>
<polygon fill="none" stroke="black" points="435.5,-141.785 435.5,-159.785 472.5,-159.785 472.5,-141.785 435.5,-141.785"/>
<text text-anchor="start" x="452.5" y="-147.985" font-family="Helvetica,sans-Serif" font-size="11.00">1 &gt;</text>
</a>
</g>
</g>
<!-- smart_contracts&#45;&gt;addresses -->
<g id="edge20" class="edge"><title>smart_contracts:elipses:w&#45;&gt;addresses:hash:e</title>
<path fill="none" stroke="black" d="M320.159,-169.951C301.731,-174.611 298.196,-192.664 287,-213.785 266.689,-252.099 290.365,-404.785 247,-404.785"/>
<polygon fill="black" stroke="black" points="329.257,-164.899 330.153,-172.849 328.563,-173.028 327.667,-165.079 329.257,-164.899"/>
<polyline fill="none" stroke="black" points="330.5,-168.785 326.525,-169.233 "/>
<ellipse fill="none" stroke="black" cx="323.345" cy="-169.592" rx="3.2" ry="3.2"/>
</g>
<!-- token_instances -->
<g id="node15" class="node"><title>token_instances</title>
<g id="a_node15"><a xlink:href="../../tables/token_instances.html" xlink:title="token_instances" target="_top">
<polygon fill="#ffffff" stroke="none" points="651.5,-612.785 651.5,-670.785 791.5,-670.785 791.5,-612.785 651.5,-612.785"/>
<polygon fill="#f5f5f5" stroke="none" points="651.5,-648.785 651.5,-670.785 791.5,-670.785 791.5,-648.785 651.5,-648.785"/>
<polygon fill="none" stroke="black" points="651.5,-648.785 651.5,-670.785 791.5,-670.785 791.5,-648.785 651.5,-648.785"/>
<text text-anchor="start" x="656.5" y="-657.985" font-family="Helvetica,sans-Serif" font-weight="bold" font-size="11.00">token_instances</text>
<text text-anchor="start" x="752.5" y="-656.985" font-family="Helvetica,sans-Serif" font-size="11.00">[table]</text>
<polygon fill="none" stroke="black" points="651.5,-630.785 651.5,-648.785 791.5,-648.785 791.5,-630.785 651.5,-630.785"/>
<text text-anchor="start" x="654.5" y="-636.985" font-family="Helvetica,sans-Serif" font-size="11.00">...</text>
<polygon fill="#ffffff" stroke="none" points="651.5,-612.785 651.5,-630.785 705.5,-630.785 705.5,-612.785 651.5,-612.785"/>
<polygon fill="none" stroke="black" points="651.5,-612.785 651.5,-630.785 705.5,-630.785 705.5,-612.785 651.5,-612.785"/>
<text text-anchor="start" x="654.5" y="-618.985" font-family="Helvetica,sans-Serif" font-size="11.00">&lt; 1</text>
<polygon fill="#ffffff" stroke="none" points="705.5,-612.785 705.5,-630.785 762.5,-630.785 762.5,-612.785 705.5,-612.785"/>
<polygon fill="none" stroke="black" points="705.5,-612.785 705.5,-630.785 762.5,-630.785 762.5,-612.785 705.5,-612.785"/>
<text text-anchor="start" x="723.5" y="-618.985" font-family="Helvetica,sans-Serif" font-size="11.00">0 rows</text>
<polygon fill="#ffffff" stroke="none" points="762.5,-612.785 762.5,-630.785 791.5,-630.785 791.5,-612.785 762.5,-612.785"/>
<polygon fill="none" stroke="black" points="762.5,-612.785 762.5,-630.785 791.5,-630.785 791.5,-612.785 762.5,-612.785"/>
<text text-anchor="start" x="781.5" y="-618.985" font-family="Helvetica,sans-Serif" font-size="11.00"> &#160;</text>
</a>
</g>
</g>
<!-- token_instances&#45;&gt;tokens -->
<g id="edge21" class="edge"><title>token_instances:elipses:w&#45;&gt;tokens:contract_address_hash:e</title>
<path fill="none" stroke="black" d="M636.047,-639.393C571.71,-635.804 552.793,-608.785 481.5,-608.785"/>
<polygon fill="black" stroke="black" points="642.503,-639.568 650.402,-643.383 646.501,-639.676 650.5,-639.785 650.5,-639.785 650.5,-639.785 646.501,-639.676 650.598,-636.186 642.503,-639.568 642.503,-639.568"/>
<ellipse fill="none" stroke="black" cx="639.304" cy="-639.481" rx="3.2" ry="3.2"/>
</g>
<!-- token_transfers -->
<g id="node16" class="node"><title>token_transfers</title>
<g id="a_node16"><a xlink:href="../../tables/token_transfers.html" xlink:title="token_transfers" target="_top">
<polygon fill="#ffffff" stroke="none" points="951.5,-78.7846 951.5,-136.785 1089.5,-136.785 1089.5,-78.7846 951.5,-78.7846"/>
<polygon fill="#f5f5f5" stroke="none" points="951.5,-114.785 951.5,-136.785 1089.5,-136.785 1089.5,-114.785 951.5,-114.785"/>
<polygon fill="none" stroke="black" points="951.5,-114.785 951.5,-136.785 1089.5,-136.785 1089.5,-114.785 951.5,-114.785"/>
<text text-anchor="start" x="956.5" y="-123.985" font-family="Helvetica,sans-Serif" font-weight="bold" font-size="11.00">token_transfers</text>
<text text-anchor="start" x="1050.5" y="-122.985" font-family="Helvetica,sans-Serif" font-size="11.00">[table]</text>
<polygon fill="none" stroke="black" points="951.5,-96.7846 951.5,-114.785 1089.5,-114.785 1089.5,-96.7846 951.5,-96.7846"/>
<text text-anchor="start" x="954.5" y="-102.985" font-family="Helvetica,sans-Serif" font-size="11.00">...</text>
<polygon fill="#ffffff" stroke="none" points="951.5,-78.7846 951.5,-96.7846 1004.5,-96.7846 1004.5,-78.7846 951.5,-78.7846"/>
<polygon fill="none" stroke="black" points="951.5,-78.7846 951.5,-96.7846 1004.5,-96.7846 1004.5,-78.7846 951.5,-78.7846"/>
<text text-anchor="start" x="954.5" y="-84.9846" font-family="Helvetica,sans-Serif" font-size="11.00">&lt; 5</text>
<polygon fill="#ffffff" stroke="none" points="1004.5,-78.7846 1004.5,-96.7846 1061.5,-96.7846 1061.5,-78.7846 1004.5,-78.7846"/>
<polygon fill="none" stroke="black" points="1004.5,-78.7846 1004.5,-96.7846 1061.5,-96.7846 1061.5,-78.7846 1004.5,-78.7846"/>
<text text-anchor="start" x="1022.5" y="-84.9846" font-family="Helvetica,sans-Serif" font-size="11.00">0 rows</text>
<polygon fill="#ffffff" stroke="none" points="1061.5,-78.7846 1061.5,-96.7846 1089.5,-96.7846 1089.5,-78.7846 1061.5,-78.7846"/>
<polygon fill="none" stroke="black" points="1061.5,-78.7846 1061.5,-96.7846 1089.5,-96.7846 1089.5,-78.7846 1061.5,-78.7846"/>
<text text-anchor="start" x="1079.5" y="-84.9846" font-family="Helvetica,sans-Serif" font-size="11.00"> &#160;</text>
</a>
</g>
</g>
<!-- token_transfers&#45;&gt;addresses -->
<g id="edge23" class="edge"><title>token_transfers:elipses:w&#45;&gt;addresses:hash:e</title>
<path fill="none" stroke="black" d="M935.923,-105.645C650.44,-100.17 502.91,63.118 287,-130.785 241.218,-171.9 308.534,-404.785 247,-404.785"/>
<polygon fill="black" stroke="black" points="942.5,-105.708 950.465,-109.384 946.5,-105.746 950.5,-105.785 950.5,-105.785 950.5,-105.785 946.5,-105.746 950.535,-102.185 942.5,-105.708 942.5,-105.708"/>
<ellipse fill="none" stroke="black" cx="939.301" cy="-105.677" rx="3.2" ry="3.2"/>
</g>
<!-- token_transfers&#45;&gt;addresses -->
<g id="edge24" class="edge"><title>token_transfers:elipses:w&#45;&gt;addresses:hash:e</title>
<path fill="none" stroke="black" d="M935.919,-105.354C650.359,-94.2858 502.584,65.5865 287,-128.785 241.951,-169.4 307.655,-398.785 247,-404.785"/>
<polygon fill="black" stroke="black" points="942.503,-105.548 950.394,-109.383 946.502,-105.666 950.5,-105.785 950.5,-105.785 950.5,-105.785 946.502,-105.666 950.606,-102.186 942.503,-105.548 942.503,-105.548"/>
<ellipse fill="none" stroke="black" cx="939.305" cy="-105.454" rx="3.2" ry="3.2"/>
</g>
<!-- token_transfers&#45;&gt;addresses -->
<g id="edge25" class="edge"><title>token_transfers:elipses:w&#45;&gt;addresses:hash:e</title>
<path fill="none" stroke="black" d="M935.919,-105.99C650.359,-107.286 502.584,52.5865 287,-141.785 241.951,-182.4 307.655,-411.785 247,-404.785"/>
<polygon fill="black" stroke="black" points="942.501,-105.898 950.551,-109.384 946.5,-105.841 950.5,-105.785 950.5,-105.785 950.5,-105.785 946.5,-105.841 950.449,-102.185 942.501,-105.898 942.501,-105.898"/>
<ellipse fill="none" stroke="black" cx="939.301" cy="-105.943" rx="3.2" ry="3.2"/>
</g>
<!-- token_transfers&#45;&gt;blocks -->
<g id="edge22" class="edge"><title>token_transfers:elipses:w&#45;&gt;blocks:elipses:e</title>
<path fill="none" stroke="black" d="M935.811,-107.262C867.824,-122.826 964.554,-257.267 894,-312.785 854.908,-343.545 496.243,-325.785 446.5,-325.785"/>
<polygon fill="black" stroke="black" points="942.54,-106.585 950.86,-109.367 946.52,-106.185 950.5,-105.785 950.5,-105.785 950.5,-105.785 946.52,-106.185 950.14,-102.203 942.54,-106.585 942.54,-106.585"/>
<ellipse fill="none" stroke="black" cx="939.356" cy="-106.905" rx="3.2" ry="3.2"/>
</g>
<!-- token_transfers&#45;&gt;transactions -->
<g id="edge26" class="edge"><title>token_transfers:elipses:w&#45;&gt;transactions:elipses:e</title>
<path fill="none" stroke="black" d="M935.913,-106.972C849.597,-121.811 881.944,-270.785 782.5,-270.785"/>
<polygon fill="black" stroke="black" points="942.526,-106.434 950.792,-109.373 946.513,-106.109 950.5,-105.785 950.5,-105.785 950.5,-105.785 946.513,-106.109 950.208,-102.196 942.526,-106.434 942.526,-106.434"/>
<ellipse fill="none" stroke="black" cx="939.337" cy="-106.693" rx="3.2" ry="3.2"/>
</g>
</g>
</svg>
