<?xml version="1.0" encoding="UTF-8" standalone="no"?>
<!DOCTYPE svg PUBLIC "-//W3C//DTD SVG 1.1//EN"
 "http://www.w3.org/Graphics/SVG/1.1/DTD/svg11.dtd">
<!-- Generated by graphviz version 2.38.0 (20140413.2041)
 -->
<!-- Title: twoDegreesRelationshipsDiagram Pages: 1 -->
<svg width="1082pt" height="930pt"
 viewBox="0.00 0.00 1082.00 929.65" xmlns="http://www.w3.org/2000/svg" xmlns:xlink="http://www.w3.org/1999/xlink">
<g id="graph0" class="graph" transform="scale(1 1) rotate(0) translate(4 925.653)">
<title>twoDegreesRelationshipsDiagram</title>
<polygon fill="#ffffff" stroke="none" points="-4,4 -4,-925.653 1078,-925.653 1078,4 -4,4"/>
<text text-anchor="middle" x="74.5" y="-7.2" font-family="Helvetica,sans-Serif" font-size="11.00">Generated by SchemaSpy</text>
<!-- address_coin_balances -->
<g id="node1" class="node"><title>address_coin_balances</title>
<g id="a_node1"><a xlink:href="../../tables/address_coin_balances.html" xlink:title="address_coin_balances" target="_top">
<polygon fill="#ffffff" stroke="none" points="295,-741.653 295,-917.653 564,-917.653 564,-741.653 295,-741.653"/>
<polygon fill="#f5f5f5" stroke="none" points="297.5,-893.653 297.5,-915.653 562.5,-915.653 562.5,-893.653 297.5,-893.653"/>
<polygon fill="none" stroke="black" points="297.5,-893.653 297.5,-915.653 562.5,-915.653 562.5,-893.653 297.5,-893.653"/>
<text text-anchor="start" x="302.5" y="-902.853" font-family="Helvetica,sans-Serif" font-weight="bold" font-size="11.00">address_coin_balances</text>
<text text-anchor="start" x="523.5" y="-901.853" font-family="Helvetica,sans-Serif" font-size="11.00">[table]</text>
<polygon fill="#ffffff" stroke="none" points="297.5,-871.653 297.5,-893.653 452.5,-893.653 452.5,-871.653 297.5,-871.653"/>
<polygon fill="none" stroke="black" points="297.5,-871.653 297.5,-893.653 452.5,-893.653 452.5,-871.653 297.5,-871.653"/>
<image xlink:href="../../images/foreignKeys.png" width="11px" height="12px" preserveAspectRatio="xMinYMin meet" x="302.5" y="-888.653"/>
<text text-anchor="start" x="317.5" y="-879.853" font-family="Helvetica,sans-Serif" font-size="11.00">address_hash</text>
<polygon fill="none" stroke="black" points="452.5,-871.653 452.5,-893.653 562.5,-893.653 562.5,-871.653 452.5,-871.653"/>
<text text-anchor="start" x="455.5" y="-879.853" font-family="Helvetica,sans-Serif" font-size="11.00">bytea[2147483647]</text>
<polygon fill="#ffffff" stroke="none" points="297.5,-849.653 297.5,-871.653 452.5,-871.653 452.5,-849.653 297.5,-849.653"/>
<polygon fill="none" stroke="black" points="297.5,-849.653 297.5,-871.653 452.5,-871.653 452.5,-849.653 297.5,-849.653"/>
<text text-anchor="start" x="317.5" y="-857.853" font-family="Helvetica,sans-Serif" font-size="11.00">block_number</text>
<polygon fill="none" stroke="black" points="452.5,-849.653 452.5,-871.653 562.5,-871.653 562.5,-849.653 452.5,-849.653"/>
<text text-anchor="start" x="455.5" y="-857.853" font-family="Helvetica,sans-Serif" font-size="11.00">int8[19]</text>
<polygon fill="none" stroke="black" points="297.5,-827.653 297.5,-849.653 452.5,-849.653 452.5,-827.653 297.5,-827.653"/>
<text text-anchor="start" x="317.5" y="-835.853" font-family="Helvetica,sans-Serif" font-size="11.00">value</text>
<polygon fill="none" stroke="black" points="452.5,-827.653 452.5,-849.653 562.5,-849.653 562.5,-827.653 452.5,-827.653"/>
<text text-anchor="start" x="455.5" y="-835.853" font-family="Helvetica,sans-Serif" font-size="11.00">numeric[100]</text>
<polygon fill="#ffffff" stroke="none" points="297.5,-805.653 297.5,-827.653 452.5,-827.653 452.5,-805.653 297.5,-805.653"/>
<polygon fill="none" stroke="black" points="297.5,-805.653 297.5,-827.653 452.5,-827.653 452.5,-805.653 297.5,-805.653"/>
<text text-anchor="start" x="317.5" y="-813.853" font-family="Helvetica,sans-Serif" font-size="11.00">value_fetched_at</text>
<polygon fill="none" stroke="black" points="452.5,-805.653 452.5,-827.653 562.5,-827.653 562.5,-805.653 452.5,-805.653"/>
<text text-anchor="start" x="455.5" y="-813.853" font-family="Helvetica,sans-Serif" font-size="11.00">timestamp[29,6]</text>
<polygon fill="none" stroke="black" points="297.5,-783.653 297.5,-805.653 452.5,-805.653 452.5,-783.653 297.5,-783.653"/>
<text text-anchor="start" x="317.5" y="-791.853" font-family="Helvetica,sans-Serif" font-size="11.00">inserted_at</text>
<polygon fill="none" stroke="black" points="452.5,-783.653 452.5,-805.653 562.5,-805.653 562.5,-783.653 452.5,-783.653"/>
<text text-anchor="start" x="455.5" y="-791.853" font-family="Helvetica,sans-Serif" font-size="11.00">timestamp[29,6]</text>
<polygon fill="none" stroke="black" points="297.5,-761.653 297.5,-783.653 452.5,-783.653 452.5,-761.653 297.5,-761.653"/>
<text text-anchor="start" x="317.5" y="-769.853" font-family="Helvetica,sans-Serif" font-size="11.00">updated_at</text>
<polygon fill="none" stroke="black" points="452.5,-761.653 452.5,-783.653 562.5,-783.653 562.5,-761.653 452.5,-761.653"/>
<text text-anchor="start" x="455.5" y="-769.853" font-family="Helvetica,sans-Serif" font-size="11.00">timestamp[29,6]</text>
<polygon fill="#ffffff" stroke="none" points="297.5,-743.653 297.5,-761.653 365.5,-761.653 365.5,-743.653 297.5,-743.653"/>
<polygon fill="none" stroke="black" points="297.5,-743.653 297.5,-761.653 365.5,-761.653 365.5,-743.653 297.5,-743.653"/>
<text text-anchor="start" x="300.5" y="-749.853" font-family="Helvetica,sans-Serif" font-size="11.00">&lt; 1</text>
<polygon fill="#ffffff" stroke="none" points="365.5,-743.653 365.5,-761.653 452.5,-761.653 452.5,-743.653 365.5,-743.653"/>
<polygon fill="none" stroke="black" points="365.5,-743.653 365.5,-761.653 452.5,-761.653 452.5,-743.653 365.5,-743.653"/>
<text text-anchor="start" x="413.5" y="-749.853" font-family="Helvetica,sans-Serif" font-size="11.00">3 rows</text>
<polygon fill="#ffffff" stroke="none" points="452.5,-743.653 452.5,-761.653 562.5,-761.653 562.5,-743.653 452.5,-743.653"/>
<polygon fill="none" stroke="black" points="452.5,-743.653 452.5,-761.653 562.5,-761.653 562.5,-743.653 452.5,-743.653"/>
<text text-anchor="start" x="542.5" y="-749.853" font-family="Helvetica,sans-Serif" font-size="11.00">0 &gt;</text>
<polygon fill="none" stroke="black" stroke-width="2" points="296,-742.653 296,-916.653 563,-916.653 563,-742.653 296,-742.653"/>
</a>
</g>
</g>
<!-- addresses -->
<g id="node2" class="node"><title>addresses</title>
<g id="a_node2"><a xlink:href="../../tables/addresses.html" xlink:title="addresses" target="_top">
<polygon fill="#ffffff" stroke="none" points="8,-330.653 8,-454.653 246,-454.653 246,-330.653 8,-330.653"/>
<polygon fill="#f5f5f5" stroke="none" points="8,-432.653 8,-454.653 246,-454.653 246,-432.653 8,-432.653"/>
<polygon fill="none" stroke="black" points="8,-432.653 8,-454.653 246,-454.653 246,-432.653 8,-432.653"/>
<text text-anchor="start" x="13" y="-441.853" font-family="Helvetica,sans-Serif" font-weight="bold" font-size="11.00">addresses</text>
<text text-anchor="start" x="207" y="-440.853" font-family="Helvetica,sans-Serif" font-size="11.00">[table]</text>
<polygon fill="#ffffff" stroke="none" points="8,-410.653 8,-432.653 246,-432.653 246,-410.653 8,-410.653"/>
<polygon fill="none" stroke="black" points="8,-410.653 8,-432.653 246,-432.653 246,-410.653 8,-410.653"/>
<text text-anchor="start" x="28" y="-418.853" font-family="Helvetica,sans-Serif" font-size="11.00">fetched_coin_balance</text>
<polygon fill="none" stroke="black" points="8,-388.653 8,-410.653 246,-410.653 246,-388.653 8,-388.653"/>
<image xlink:href="../../images/primaryKeys.png" width="11px" height="12px" preserveAspectRatio="xMinYMin meet" x="13" y="-405.653"/>
<text text-anchor="start" x="28" y="-396.853" font-family="Helvetica,sans-Serif" font-size="11.00">hash</text>
<polygon fill="#ffffff" stroke="none" points="8,-366.653 8,-388.653 246,-388.653 246,-366.653 8,-366.653"/>
<polygon fill="none" stroke="black" points="8,-366.653 8,-388.653 246,-388.653 246,-366.653 8,-366.653"/>
<text text-anchor="start" x="28" y="-374.853" font-family="Helvetica,sans-Serif" font-size="11.00">inserted_at</text>
<polygon fill="none" stroke="black" points="8,-348.653 8,-366.653 246,-366.653 246,-348.653 8,-348.653"/>
<text text-anchor="start" x="11" y="-354.853" font-family="Helvetica,sans-Serif" font-size="11.00">...</text>
<polygon fill="#ffffff" stroke="none" points="8,-330.653 8,-348.653 97,-348.653 97,-330.653 8,-330.653"/>
<polygon fill="none" stroke="black" points="8,-330.653 8,-348.653 97,-348.653 97,-330.653 8,-330.653"/>
<text text-anchor="start" x="11" y="-336.853" font-family="Helvetica,sans-Serif" font-size="11.00"> &#160;</text>
<polygon fill="#ffffff" stroke="none" points="97,-330.653 97,-348.653 177,-348.653 177,-330.653 97,-330.653"/>
<polygon fill="none" stroke="black" points="97,-330.653 97,-348.653 177,-348.653 177,-330.653 97,-330.653"/>
<text text-anchor="start" x="138" y="-336.853" font-family="Helvetica,sans-Serif" font-size="11.00">2 rows</text>
<polygon fill="#ffffff" stroke="none" points="177,-330.653 177,-348.653 246,-348.653 246,-330.653 177,-330.653"/>
<polygon fill="none" stroke="black" points="177,-330.653 177,-348.653 246,-348.653 246,-330.653 177,-330.653"/>
<text text-anchor="start" x="219" y="-336.853" font-family="Helvetica,sans-Serif" font-size="11.00">19 &gt;</text>
</a>
</g>
</g>
<!-- address_coin_balances&#45;&gt;addresses -->
<g id="edge1" class="edge"><title>address_coin_balances:address_hash:w&#45;&gt;addresses:hash:e</title>
<path fill="none" stroke="black" d="M282.112,-879.043C204.786,-834.844 349.416,-399.653 247,-399.653"/>
<polygon fill="black" stroke="black" points="288.741,-880.706 295.624,-886.145 292.62,-881.679 296.5,-882.653 296.5,-882.653 296.5,-882.653 292.62,-881.679 297.376,-879.161 288.741,-880.706 288.741,-880.706"/>
<ellipse fill="none" stroke="black" cx="285.637" cy="-879.927" rx="3.2" ry="3.2"/>
</g>
<!-- address_coin_balances_daily -->
<g id="node3" class="node"><title>address_coin_balances_daily</title>
<g id="a_node3"><a xlink:href="../../tables/address_coin_balances_daily.html" xlink:title="address_coin_balances_daily" target="_top">
<polygon fill="#ffffff" stroke="none" points="325,-662.653 325,-720.653 534,-720.653 534,-662.653 325,-662.653"/>
<polygon fill="#f5f5f5" stroke="none" points="325.5,-698.653 325.5,-720.653 534.5,-720.653 534.5,-698.653 325.5,-698.653"/>
<polygon fill="none" stroke="black" points="325.5,-698.653 325.5,-720.653 534.5,-720.653 534.5,-698.653 325.5,-698.653"/>
<text text-anchor="start" x="330.5" y="-707.853" font-family="Helvetica,sans-Serif" font-weight="bold" font-size="11.00">address_coin_balances_daily</text>
<text text-anchor="start" x="495.5" y="-706.853" font-family="Helvetica,sans-Serif" font-size="11.00">[table]</text>
<polygon fill="none" stroke="black" points="325.5,-680.653 325.5,-698.653 534.5,-698.653 534.5,-680.653 325.5,-680.653"/>
<text text-anchor="start" x="328.5" y="-686.853" font-family="Helvetica,sans-Serif" font-size="11.00">...</text>
<polygon fill="#ffffff" stroke="none" points="325.5,-662.653 325.5,-680.653 413.5,-680.653 413.5,-662.653 325.5,-662.653"/>
<polygon fill="none" stroke="black" points="325.5,-662.653 325.5,-680.653 413.5,-680.653 413.5,-662.653 325.5,-662.653"/>
<text text-anchor="start" x="328.5" y="-668.853" font-family="Helvetica,sans-Serif" font-size="11.00">&lt; 1</text>
<polygon fill="#ffffff" stroke="none" points="413.5,-662.653 413.5,-680.653 488.5,-680.653 488.5,-662.653 413.5,-662.653"/>
<polygon fill="none" stroke="black" points="413.5,-662.653 413.5,-680.653 488.5,-680.653 488.5,-662.653 413.5,-662.653"/>
<text text-anchor="start" x="449.5" y="-668.853" font-family="Helvetica,sans-Serif" font-size="11.00">3 rows</text>
<polygon fill="#ffffff" stroke="none" points="488.5,-662.653 488.5,-680.653 534.5,-680.653 534.5,-662.653 488.5,-662.653"/>
<polygon fill="none" stroke="black" points="488.5,-662.653 488.5,-680.653 534.5,-680.653 534.5,-662.653 488.5,-662.653"/>
<text text-anchor="start" x="524.5" y="-668.853" font-family="Helvetica,sans-Serif" font-size="11.00"> &#160;</text>
</a>
</g>
</g>
<!-- address_coin_balances_daily&#45;&gt;addresses -->
<g id="edge2" class="edge"><title>address_coin_balances_daily:elipses:w&#45;&gt;addresses:hash:e</title>
<path fill="none" stroke="black" d="M310.095,-686.568C298.297,-680.36 295.141,-665.503 287,-648.653 262.62,-598.191 303.043,-399.653 247,-399.653"/>
<polygon fill="black" stroke="black" points="316.677,-687.978 323.746,-693.173 320.589,-688.815 324.5,-689.653 324.5,-689.653 324.5,-689.653 320.589,-688.815 325.254,-686.133 316.677,-687.978 316.677,-687.978"/>
<ellipse fill="none" stroke="black" cx="313.548" cy="-687.308" rx="3.2" ry="3.2"/>
</g>
<!-- address_current_token_balances -->
<g id="node4" class="node"><title>address_current_token_balances</title>
<g id="a_node4"><a xlink:href="../../tables/address_current_token_balances.html" xlink:title="address_current_token_balances" target="_top">
<polygon fill="#ffffff" stroke="none" points="613,-610.653 613,-668.653 846,-668.653 846,-610.653 613,-610.653"/>
<polygon fill="#f5f5f5" stroke="none" points="613.5,-646.653 613.5,-668.653 846.5,-668.653 846.5,-646.653 613.5,-646.653"/>
<polygon fill="none" stroke="black" points="613.5,-646.653 613.5,-668.653 846.5,-668.653 846.5,-646.653 613.5,-646.653"/>
<text text-anchor="start" x="618.5" y="-655.853" font-family="Helvetica,sans-Serif" font-weight="bold" font-size="11.00">address_current_token_balances</text>
<text text-anchor="start" x="807.5" y="-654.853" font-family="Helvetica,sans-Serif" font-size="11.00">[table]</text>
<polygon fill="none" stroke="black" points="613.5,-628.653 613.5,-646.653 846.5,-646.653 846.5,-628.653 613.5,-628.653"/>
<text text-anchor="start" x="616.5" y="-634.853" font-family="Helvetica,sans-Serif" font-size="11.00">...</text>
<polygon fill="#ffffff" stroke="none" points="613.5,-610.653 613.5,-628.653 713.5,-628.653 713.5,-610.653 613.5,-610.653"/>
<polygon fill="none" stroke="black" points="613.5,-610.653 613.5,-628.653 713.5,-628.653 713.5,-610.653 613.5,-610.653"/>
<text text-anchor="start" x="616.5" y="-616.853" font-family="Helvetica,sans-Serif" font-size="11.00">&lt; 2</text>
<polygon fill="#ffffff" stroke="none" points="713.5,-610.653 713.5,-628.653 794.5,-628.653 794.5,-610.653 713.5,-610.653"/>
<polygon fill="none" stroke="black" points="713.5,-610.653 713.5,-628.653 794.5,-628.653 794.5,-610.653 713.5,-610.653"/>
<text text-anchor="start" x="755.5" y="-616.853" font-family="Helvetica,sans-Serif" font-size="11.00">0 rows</text>
<polygon fill="#ffffff" stroke="none" points="794.5,-610.653 794.5,-628.653 846.5,-628.653 846.5,-610.653 794.5,-610.653"/>
<polygon fill="none" stroke="black" points="794.5,-610.653 794.5,-628.653 846.5,-628.653 846.5,-610.653 794.5,-610.653"/>
<text text-anchor="start" x="836.5" y="-616.853" font-family="Helvetica,sans-Serif" font-size="11.00"> &#160;</text>
</a>
</g>
</g>
<!-- address_current_token_balances&#45;&gt;addresses -->
<g id="edge3" class="edge"><title>address_current_token_balances:elipses:w&#45;&gt;addresses:hash:e</title>
<path fill="none" stroke="black" d="M598.025,-638.017C516.606,-641.65 338.291,-670.298 287,-625.653 210.059,-558.681 349.006,-399.653 247,-399.653"/>
<polygon fill="black" stroke="black" points="604.503,-637.854 612.591,-641.252 608.501,-637.754 612.5,-637.653 612.5,-637.653 612.5,-637.653 608.501,-637.754 612.409,-634.054 604.503,-637.854 604.503,-637.854"/>
<ellipse fill="none" stroke="black" cx="601.304" cy="-637.935" rx="3.2" ry="3.2"/>
</g>
<!-- tokens -->
<g id="node5" class="node"><title>tokens</title>
<g id="a_node5"><a xlink:href="../../tables/tokens.html" xlink:title="tokens" target="_top">
<polygon fill="#ffffff" stroke="none" points="385.5,-556.653 385.5,-614.653 473.5,-614.653 473.5,-556.653 385.5,-556.653"/>
<polygon fill="#f5f5f5" stroke="none" points="385.5,-592.653 385.5,-614.653 473.5,-614.653 473.5,-592.653 385.5,-592.653"/>
<polygon fill="none" stroke="black" points="385.5,-592.653 385.5,-614.653 473.5,-614.653 473.5,-592.653 385.5,-592.653"/>
<text text-anchor="start" x="390.5" y="-601.853" font-family="Helvetica,sans-Serif" font-weight="bold" font-size="11.00">tokens</text>
<text text-anchor="start" x="434.5" y="-600.853" font-family="Helvetica,sans-Serif" font-size="11.00">[table]</text>
<polygon fill="none" stroke="black" points="385.5,-574.653 385.5,-592.653 473.5,-592.653 473.5,-574.653 385.5,-574.653"/>
<text text-anchor="start" x="388.5" y="-580.853" font-family="Helvetica,sans-Serif" font-size="11.00">...</text>
<polygon fill="#ffffff" stroke="none" points="385.5,-556.653 385.5,-574.653 408.5,-574.653 408.5,-556.653 385.5,-556.653"/>
<polygon fill="none" stroke="black" points="385.5,-556.653 385.5,-574.653 408.5,-574.653 408.5,-556.653 385.5,-556.653"/>
<text text-anchor="start" x="388.5" y="-562.853" font-family="Helvetica,sans-Serif" font-size="11.00">&lt; 1</text>
<polygon fill="#ffffff" stroke="none" points="408.5,-556.653 408.5,-574.653 450.5,-574.653 450.5,-556.653 408.5,-556.653"/>
<polygon fill="none" stroke="black" points="408.5,-556.653 408.5,-574.653 450.5,-574.653 450.5,-556.653 408.5,-556.653"/>
<text text-anchor="start" x="411.5" y="-562.853" font-family="Helvetica,sans-Serif" font-size="11.00">0 rows</text>
<polygon fill="#ffffff" stroke="none" points="450.5,-556.653 450.5,-574.653 473.5,-574.653 473.5,-556.653 450.5,-556.653"/>
<polygon fill="none" stroke="black" points="450.5,-556.653 450.5,-574.653 473.5,-574.653 473.5,-556.653 450.5,-556.653"/>
<text text-anchor="start" x="453.5" y="-562.853" font-family="Helvetica,sans-Serif" font-size="11.00">4 &gt;</text>
</a>
</g>
</g>
<!-- address_current_token_balances&#45;&gt;tokens -->
<g id="edge4" class="edge"><title>address_current_token_balances:elipses:w&#45;&gt;tokens:elipses:e</title>
<path fill="none" stroke="black" d="M597.978,-635.192C561.622,-624.628 503.186,-583.653 474.5,-583.653"/>
<polygon fill="black" stroke="black" points="604.612,-636.316 611.899,-641.202 608.556,-636.985 612.5,-637.653 612.5,-637.653 612.5,-637.653 608.556,-636.985 613.101,-634.103 604.612,-636.316 604.612,-636.316"/>
<ellipse fill="none" stroke="black" cx="601.457" cy="-635.782" rx="3.2" ry="3.2"/>
</g>
<!-- tokens&#45;&gt;addresses -->
<g id="edge25" class="edge"><title>tokens:elipses:w&#45;&gt;addresses:hash:e</title>
<path fill="none" stroke="black" d="M373.969,-583.536C334.389,-582.575 315.664,-575.155 287,-542.653 243.348,-493.157 312.995,-399.653 247,-399.653"/>
<polygon fill="black" stroke="black" points="383.744,-579.644 383.656,-587.644 382.056,-587.626 382.144,-579.627 383.744,-579.644"/>
<polyline fill="none" stroke="black" points="384.5,-583.653 380.5,-583.609 "/>
<ellipse fill="none" stroke="black" cx="377.3" cy="-583.573" rx="3.2" ry="3.2"/>
</g>
<!-- address_token_balances -->
<g id="node6" class="node"><title>address_token_balances</title>
<g id="a_node6"><a xlink:href="../../tables/address_token_balances.html" xlink:title="address_token_balances" target="_top">
<polygon fill="#ffffff" stroke="none" points="637,-530.653 637,-588.653 822,-588.653 822,-530.653 637,-530.653"/>
<polygon fill="#f5f5f5" stroke="none" points="637.5,-566.653 637.5,-588.653 822.5,-588.653 822.5,-566.653 637.5,-566.653"/>
<polygon fill="none" stroke="black" points="637.5,-566.653 637.5,-588.653 822.5,-588.653 822.5,-566.653 637.5,-566.653"/>
<text text-anchor="start" x="642.5" y="-575.853" font-family="Helvetica,sans-Serif" font-weight="bold" font-size="11.00">address_token_balances</text>
<text text-anchor="start" x="783.5" y="-574.853" font-family="Helvetica,sans-Serif" font-size="11.00">[table]</text>
<polygon fill="none" stroke="black" points="637.5,-548.653 637.5,-566.653 822.5,-566.653 822.5,-548.653 637.5,-548.653"/>
<text text-anchor="start" x="640.5" y="-554.853" font-family="Helvetica,sans-Serif" font-size="11.00">...</text>
<polygon fill="#ffffff" stroke="none" points="637.5,-530.653 637.5,-548.653 713.5,-548.653 713.5,-530.653 637.5,-530.653"/>
<polygon fill="none" stroke="black" points="637.5,-530.653 637.5,-548.653 713.5,-548.653 713.5,-530.653 637.5,-530.653"/>
<text text-anchor="start" x="640.5" y="-536.853" font-family="Helvetica,sans-Serif" font-size="11.00">&lt; 2</text>
<polygon fill="#ffffff" stroke="none" points="713.5,-530.653 713.5,-548.653 782.5,-548.653 782.5,-530.653 713.5,-530.653"/>
<polygon fill="none" stroke="black" points="713.5,-530.653 713.5,-548.653 782.5,-548.653 782.5,-530.653 713.5,-530.653"/>
<text text-anchor="start" x="743.5" y="-536.853" font-family="Helvetica,sans-Serif" font-size="11.00">0 rows</text>
<polygon fill="#ffffff" stroke="none" points="782.5,-530.653 782.5,-548.653 822.5,-548.653 822.5,-530.653 782.5,-530.653"/>
<polygon fill="none" stroke="black" points="782.5,-530.653 782.5,-548.653 822.5,-548.653 822.5,-530.653 782.5,-530.653"/>
<text text-anchor="start" x="812.5" y="-536.853" font-family="Helvetica,sans-Serif" font-size="11.00"> &#160;</text>
</a>
</g>
</g>
<!-- address_token_balances&#45;&gt;addresses -->
<g id="edge5" class="edge"><title>address_token_balances:elipses:w&#45;&gt;addresses:hash:e</title>
<path fill="none" stroke="black" d="M621.957,-556.955C604.073,-555.089 595.289,-549.902 572,-546.653 508.904,-537.849 336.794,-555.391 287,-515.653 244.375,-481.636 301.535,-399.653 247,-399.653"/>
<polygon fill="black" stroke="black" points="628.509,-557.27 636.327,-561.249 632.505,-557.461 636.5,-557.653 636.5,-557.653 636.5,-557.653 632.505,-557.461 636.673,-554.057 628.509,-557.27 628.509,-557.27"/>
<ellipse fill="none" stroke="black" cx="625.313" cy="-557.116" rx="3.2" ry="3.2"/>
</g>
<!-- address_token_balances&#45;&gt;tokens -->
<g id="edge6" class="edge"><title>address_token_balances:elipses:w&#45;&gt;tokens:elipses:e</title>
<path fill="none" stroke="black" d="M621.921,-558.02C561.026,-561.181 542.294,-583.653 474.5,-583.653"/>
<polygon fill="black" stroke="black" points="628.503,-557.855 636.591,-561.252 632.501,-557.754 636.5,-557.653 636.5,-557.653 636.5,-557.653 632.501,-557.754 636.409,-554.054 628.503,-557.855 628.503,-557.855"/>
<ellipse fill="none" stroke="black" cx="625.304" cy="-557.935" rx="3.2" ry="3.2"/>
</g>
<!-- block_rewards -->
<g id="node7" class="node"><title>block_rewards</title>
<g id="a_node7"><a xlink:href="../../tables/block_rewards.html" xlink:title="block_rewards" target="_top">
<polygon fill="#ffffff" stroke="none" points="664.5,-399.653 664.5,-457.653 794.5,-457.653 794.5,-399.653 664.5,-399.653"/>
<polygon fill="#f5f5f5" stroke="none" points="664.5,-435.653 664.5,-457.653 794.5,-457.653 794.5,-435.653 664.5,-435.653"/>
<polygon fill="none" stroke="black" points="664.5,-435.653 664.5,-457.653 794.5,-457.653 794.5,-435.653 664.5,-435.653"/>
<text text-anchor="start" x="669.5" y="-444.853" font-family="Helvetica,sans-Serif" font-weight="bold" font-size="11.00">block_rewards</text>
<text text-anchor="start" x="755.5" y="-443.853" font-family="Helvetica,sans-Serif" font-size="11.00">[table]</text>
<polygon fill="none" stroke="black" points="664.5,-417.653 664.5,-435.653 794.5,-435.653 794.5,-417.653 664.5,-417.653"/>
<text text-anchor="start" x="667.5" y="-423.853" font-family="Helvetica,sans-Serif" font-size="11.00">...</text>
<polygon fill="#ffffff" stroke="none" points="664.5,-399.653 664.5,-417.653 713.5,-417.653 713.5,-399.653 664.5,-399.653"/>
<polygon fill="none" stroke="black" points="664.5,-399.653 664.5,-417.653 713.5,-417.653 713.5,-399.653 664.5,-399.653"/>
<text text-anchor="start" x="667.5" y="-405.853" font-family="Helvetica,sans-Serif" font-size="11.00">&lt; 2</text>
<polygon fill="#ffffff" stroke="none" points="713.5,-399.653 713.5,-417.653 768.5,-417.653 768.5,-399.653 713.5,-399.653"/>
<polygon fill="none" stroke="black" points="713.5,-399.653 713.5,-417.653 768.5,-417.653 768.5,-399.653 713.5,-399.653"/>
<text text-anchor="start" x="729.5" y="-405.853" font-family="Helvetica,sans-Serif" font-size="11.00">0 rows</text>
<polygon fill="#ffffff" stroke="none" points="768.5,-399.653 768.5,-417.653 794.5,-417.653 794.5,-399.653 768.5,-399.653"/>
<polygon fill="none" stroke="black" points="768.5,-399.653 768.5,-417.653 794.5,-417.653 794.5,-399.653 768.5,-399.653"/>
<text text-anchor="start" x="784.5" y="-405.853" font-family="Helvetica,sans-Serif" font-size="11.00"> &#160;</text>
</a>
</g>
</g>
<!-- block_rewards&#45;&gt;addresses -->
<g id="edge7" class="edge"><title>block_rewards:elipses:w&#45;&gt;addresses:hash:e</title>
<path fill="none" stroke="black" d="M649.022,-427.191C619.385,-429.52 607.779,-438.74 572,-441.653 445.751,-451.933 403.425,-491.549 287,-441.653 263.306,-431.499 272.778,-399.653 247,-399.653"/>
<polygon fill="black" stroke="black" points="655.506,-426.95 663.634,-430.25 659.503,-426.802 663.5,-426.653 663.5,-426.653 663.5,-426.653 659.503,-426.802 663.366,-423.055 655.506,-426.95 655.506,-426.95"/>
<ellipse fill="none" stroke="black" cx="652.308" cy="-427.069" rx="3.2" ry="3.2"/>
</g>
<!-- blocks -->
<g id="node8" class="node"><title>blocks</title>
<g id="a_node8"><a xlink:href="../../tables/blocks.html" xlink:title="blocks" target="_top">
<polygon fill="#ffffff" stroke="none" points="385.5,-293.653 385.5,-351.653 473.5,-351.653 473.5,-293.653 385.5,-293.653"/>
<polygon fill="#f5f5f5" stroke="none" points="385.5,-329.653 385.5,-351.653 473.5,-351.653 473.5,-329.653 385.5,-329.653"/>
<polygon fill="none" stroke="black" points="385.5,-329.653 385.5,-351.653 473.5,-351.653 473.5,-329.653 385.5,-329.653"/>
<text text-anchor="start" x="390.5" y="-338.853" font-family="Helvetica,sans-Serif" font-weight="bold" font-size="11.00">blocks</text>
<text text-anchor="start" x="434.5" y="-337.853" font-family="Helvetica,sans-Serif" font-size="11.00">[table]</text>
<polygon fill="none" stroke="black" points="385.5,-311.653 385.5,-329.653 473.5,-329.653 473.5,-311.653 385.5,-311.653"/>
<text text-anchor="start" x="388.5" y="-317.853" font-family="Helvetica,sans-Serif" font-size="11.00">...</text>
<polygon fill="#ffffff" stroke="none" points="385.5,-293.653 385.5,-311.653 408.5,-311.653 408.5,-293.653 385.5,-293.653"/>
<polygon fill="none" stroke="black" points="385.5,-293.653 385.5,-311.653 408.5,-311.653 408.5,-293.653 385.5,-293.653"/>
<text text-anchor="start" x="388.5" y="-299.853" font-family="Helvetica,sans-Serif" font-size="11.00">&lt; 1</text>
<polygon fill="#ffffff" stroke="none" points="408.5,-293.653 408.5,-311.653 450.5,-311.653 450.5,-293.653 408.5,-293.653"/>
<polygon fill="none" stroke="black" points="408.5,-293.653 408.5,-311.653 450.5,-311.653 450.5,-293.653 408.5,-293.653"/>
<text text-anchor="start" x="411.5" y="-299.853" font-family="Helvetica,sans-Serif" font-size="11.00">3 rows</text>
<polygon fill="#ffffff" stroke="none" points="450.5,-293.653 450.5,-311.653 473.5,-311.653 473.5,-293.653 450.5,-293.653"/>
<polygon fill="none" stroke="black" points="450.5,-293.653 450.5,-311.653 473.5,-311.653 473.5,-293.653 450.5,-293.653"/>
<text text-anchor="start" x="453.5" y="-299.853" font-family="Helvetica,sans-Serif" font-size="11.00">8 &gt;</text>
</a>
</g>
</g>
<!-- block_rewards&#45;&gt;blocks -->
<g id="edge8" class="edge"><title>block_rewards:elipses:w&#45;&gt;blocks:elipses:e</title>
<path fill="none" stroke="black" d="M648.925,-425.296C613.659,-418.126 610.606,-384.174 572,-362.653 530.788,-339.679 521.683,-320.653 474.5,-320.653"/>
<polygon fill="black" stroke="black" points="655.534,-425.911 663.166,-430.237 659.517,-426.282 663.5,-426.653 663.5,-426.653 663.5,-426.653 659.517,-426.282 663.834,-423.068 655.534,-425.911 655.534,-425.911"/>
<ellipse fill="none" stroke="black" cx="652.348" cy="-425.615" rx="3.2" ry="3.2"/>
</g>
<!-- blocks&#45;&gt;addresses -->
<g id="edge9" class="edge"><title>blocks:elipses:w&#45;&gt;addresses:hash:e</title>
<path fill="none" stroke="black" d="M369.772,-321.27C334.509,-324.462 322.074,-339.844 287,-362.653 266.698,-375.856 271.217,-399.653 247,-399.653"/>
<polygon fill="black" stroke="black" points="376.507,-320.988 384.651,-324.25 380.504,-320.82 384.5,-320.653 384.5,-320.653 384.5,-320.653 380.504,-320.82 384.349,-317.056 376.507,-320.988 376.507,-320.988"/>
<ellipse fill="none" stroke="black" cx="373.31" cy="-321.122" rx="3.2" ry="3.2"/>
</g>
<!-- decompiled_smart_contracts -->
<g id="node9" class="node"><title>decompiled_smart_contracts</title>
<g id="a_node9"><a xlink:href="../../tables/decompiled_smart_contracts.html" xlink:title="decompiled_smart_contracts" target="_top">
<polygon fill="#ffffff" stroke="none" points="323,-372.653 323,-430.653 536,-430.653 536,-372.653 323,-372.653"/>
<polygon fill="#f5f5f5" stroke="none" points="323.5,-408.653 323.5,-430.653 536.5,-430.653 536.5,-408.653 323.5,-408.653"/>
<polygon fill="none" stroke="black" points="323.5,-408.653 323.5,-430.653 536.5,-430.653 536.5,-408.653 323.5,-408.653"/>
<text text-anchor="start" x="328.5" y="-417.853" font-family="Helvetica,sans-Serif" font-weight="bold" font-size="11.00">decompiled_smart_contracts</text>
<text text-anchor="start" x="497.5" y="-416.853" font-family="Helvetica,sans-Serif" font-size="11.00">[table]</text>
<polygon fill="none" stroke="black" points="323.5,-390.653 323.5,-408.653 536.5,-408.653 536.5,-390.653 323.5,-390.653"/>
<text text-anchor="start" x="326.5" y="-396.853" font-family="Helvetica,sans-Serif" font-size="11.00">...</text>
<polygon fill="#ffffff" stroke="none" points="323.5,-372.653 323.5,-390.653 413.5,-390.653 413.5,-372.653 323.5,-372.653"/>
<polygon fill="none" stroke="black" points="323.5,-372.653 323.5,-390.653 413.5,-390.653 413.5,-372.653 323.5,-372.653"/>
<text text-anchor="start" x="326.5" y="-378.853" font-family="Helvetica,sans-Serif" font-size="11.00">&lt; 1</text>
<polygon fill="#ffffff" stroke="none" points="413.5,-372.653 413.5,-390.653 489.5,-390.653 489.5,-372.653 413.5,-372.653"/>
<polygon fill="none" stroke="black" points="413.5,-372.653 413.5,-390.653 489.5,-390.653 489.5,-372.653 413.5,-372.653"/>
<text text-anchor="start" x="450.5" y="-378.853" font-family="Helvetica,sans-Serif" font-size="11.00">0 rows</text>
<polygon fill="#ffffff" stroke="none" points="489.5,-372.653 489.5,-390.653 536.5,-390.653 536.5,-372.653 489.5,-372.653"/>
<polygon fill="none" stroke="black" points="489.5,-372.653 489.5,-390.653 536.5,-390.653 536.5,-372.653 489.5,-372.653"/>
<text text-anchor="start" x="526.5" y="-378.853" font-family="Helvetica,sans-Serif" font-size="11.00"> &#160;</text>
</a>
</g>
</g>
<!-- decompiled_smart_contracts&#45;&gt;addresses -->
<g id="edge10" class="edge"><title>decompiled_smart_contracts:elipses:w&#45;&gt;addresses:hash:e</title>
<path fill="none" stroke="black" d="M307.794,-399.653C285.514,-399.653 275.05,-399.653 247,-399.653"/>
<polygon fill="black" stroke="black" points="314.5,-399.653 322.5,-403.253 318.5,-399.653 322.5,-399.653 322.5,-399.653 322.5,-399.653 318.5,-399.653 322.5,-396.053 314.5,-399.653 314.5,-399.653"/>
<ellipse fill="none" stroke="black" cx="311.3" cy="-399.653" rx="3.2" ry="3.2"/>
</g>
<!-- internal_transactions -->
<g id="node10" class="node"><title>internal_transactions</title>
<g id="a_node10"><a xlink:href="../../tables/internal_transactions.html" xlink:title="internal_transactions" target="_top">
<polygon fill="#ffffff" stroke="none" points="895,-466.653 895,-524.653 1066,-524.653 1066,-466.653 895,-466.653"/>
<polygon fill="#f5f5f5" stroke="none" points="895.5,-502.653 895.5,-524.653 1066.5,-524.653 1066.5,-502.653 895.5,-502.653"/>
<polygon fill="none" stroke="black" points="895.5,-502.653 895.5,-524.653 1066.5,-524.653 1066.5,-502.653 895.5,-502.653"/>
<text text-anchor="start" x="900.5" y="-511.853" font-family="Helvetica,sans-Serif" font-weight="bold" font-size="11.00">internal_transactions</text>
<text text-anchor="start" x="1027.5" y="-510.853" font-family="Helvetica,sans-Serif" font-size="11.00">[table]</text>
<polygon fill="none" stroke="black" points="895.5,-484.653 895.5,-502.653 1066.5,-502.653 1066.5,-484.653 895.5,-484.653"/>
<text text-anchor="start" x="898.5" y="-490.853" font-family="Helvetica,sans-Serif" font-size="11.00">...</text>
<polygon fill="#ffffff" stroke="none" points="895.5,-466.653 895.5,-484.653 967.5,-484.653 967.5,-466.653 895.5,-466.653"/>
<polygon fill="none" stroke="black" points="895.5,-466.653 895.5,-484.653 967.5,-484.653 967.5,-466.653 895.5,-466.653"/>
<text text-anchor="start" x="898.5" y="-472.853" font-family="Helvetica,sans-Serif" font-size="11.00">&lt; 5</text>
<polygon fill="#ffffff" stroke="none" points="967.5,-466.653 967.5,-484.653 1028.5,-484.653 1028.5,-466.653 967.5,-466.653"/>
<polygon fill="none" stroke="black" points="967.5,-466.653 967.5,-484.653 1028.5,-484.653 1028.5,-466.653 967.5,-466.653"/>
<text text-anchor="start" x="994.5" y="-472.853" font-family="Helvetica,sans-Serif" font-size="11.00">1 row</text>
<polygon fill="#ffffff" stroke="none" points="1028.5,-466.653 1028.5,-484.653 1066.5,-484.653 1066.5,-466.653 1028.5,-466.653"/>
<polygon fill="none" stroke="black" points="1028.5,-466.653 1028.5,-484.653 1066.5,-484.653 1066.5,-466.653 1028.5,-466.653"/>
<text text-anchor="start" x="1056.5" y="-472.853" font-family="Helvetica,sans-Serif" font-size="11.00"> &#160;</text>
</a>
</g>
</g>
<!-- internal_transactions&#45;&gt;addresses -->
<g id="edge12" class="edge"><title>internal_transactions:elipses:w&#45;&gt;addresses:hash:e</title>
<path fill="none" stroke="black" d="M879.886,-493.782C735.295,-496.154 399.584,-529.734 287,-463.653 258.072,-446.673 280.543,-399.653 247,-399.653"/>
<polygon fill="black" stroke="black" points="886.5,-493.723 894.532,-497.253 890.5,-493.688 894.5,-493.653 894.5,-493.653 894.5,-493.653 890.5,-493.688 894.468,-490.053 886.5,-493.723 886.5,-493.723"/>
<ellipse fill="none" stroke="black" cx="883.3" cy="-493.752" rx="3.2" ry="3.2"/>
</g>
<!-- internal_transactions&#45;&gt;addresses -->
<g id="edge13" class="edge"><title>internal_transactions:elipses:w&#45;&gt;addresses:hash:e</title>
<path fill="none" stroke="black" d="M879.884,-493.169C735.305,-489.799 400.37,-518.467 287,-453.653 259.177,-437.746 279.049,-393.653 247,-399.653"/>
<polygon fill="black" stroke="black" points="886.504,-493.388 894.381,-497.251 890.502,-493.521 894.5,-493.653 894.5,-493.653 894.5,-493.653 890.502,-493.521 894.619,-490.055 886.504,-493.388 886.504,-493.388"/>
<ellipse fill="none" stroke="black" cx="883.306" cy="-493.282" rx="3.2" ry="3.2"/>
</g>
<!-- internal_transactions&#45;&gt;addresses -->
<g id="edge14" class="edge"><title>internal_transactions:elipses:w&#45;&gt;addresses:hash:e</title>
<path fill="none" stroke="black" d="M879.884,-494.457C735.305,-502.799 400.37,-531.467 287,-466.653 259.177,-450.746 279.049,-406.653 247,-399.653"/>
<polygon fill="black" stroke="black" points="886.512,-494.092 894.698,-497.247 890.506,-493.873 894.5,-493.653 894.5,-493.653 894.5,-493.653 890.506,-493.873 894.302,-490.058 886.512,-494.092 886.512,-494.092"/>
<ellipse fill="none" stroke="black" cx="883.317" cy="-494.268" rx="3.2" ry="3.2"/>
</g>
<!-- internal_transactions&#45;&gt;blocks -->
<g id="edge11" class="edge"><title>internal_transactions:elipses:w&#45;&gt;blocks:elipses:e</title>
<path fill="none" stroke="black" d="M880.103,-490.459C855.485,-476.079 887.82,-416.857 854,-389.653 766.717,-319.445 714.986,-371.881 605,-350.653 546.566,-339.375 534.013,-320.653 474.5,-320.653"/>
<polygon fill="black" stroke="black" points="886.69,-491.92 893.72,-497.167 890.595,-492.787 894.5,-493.653 894.5,-493.653 894.5,-493.653 890.595,-492.787 895.28,-490.138 886.69,-491.92 886.69,-491.92"/>
<ellipse fill="none" stroke="black" cx="883.566" cy="-491.227" rx="3.2" ry="3.2"/>
</g>
<!-- transactions -->
<g id="node11" class="node"><title>transactions</title>
<g id="a_node11"><a xlink:href="../../tables/transactions.html" xlink:title="transactions" target="_top">
<polygon fill="#ffffff" stroke="none" points="669.5,-238.653 669.5,-296.653 789.5,-296.653 789.5,-238.653 669.5,-238.653"/>
<polygon fill="#f5f5f5" stroke="none" points="669.5,-274.653 669.5,-296.653 789.5,-296.653 789.5,-274.653 669.5,-274.653"/>
<polygon fill="none" stroke="black" points="669.5,-274.653 669.5,-296.653 789.5,-296.653 789.5,-274.653 669.5,-274.653"/>
<text text-anchor="start" x="674.5" y="-283.853" font-family="Helvetica,sans-Serif" font-weight="bold" font-size="11.00">transactions</text>
<text text-anchor="start" x="750.5" y="-282.853" font-family="Helvetica,sans-Serif" font-size="11.00">[table]</text>
<polygon fill="none" stroke="black" points="669.5,-256.653 669.5,-274.653 789.5,-274.653 789.5,-256.653 669.5,-256.653"/>
<text text-anchor="start" x="672.5" y="-262.853" font-family="Helvetica,sans-Serif" font-size="11.00">...</text>
<polygon fill="#ffffff" stroke="none" points="669.5,-238.653 669.5,-256.653 710.5,-256.653 710.5,-238.653 669.5,-238.653"/>
<polygon fill="none" stroke="black" points="669.5,-238.653 669.5,-256.653 710.5,-256.653 710.5,-238.653 669.5,-238.653"/>
<text text-anchor="start" x="672.5" y="-244.853" font-family="Helvetica,sans-Serif" font-size="11.00">&lt; 4</text>
<polygon fill="#ffffff" stroke="none" points="710.5,-238.653 710.5,-256.653 756.5,-256.653 756.5,-238.653 710.5,-238.653"/>
<polygon fill="none" stroke="black" points="710.5,-238.653 710.5,-256.653 756.5,-256.653 756.5,-238.653 710.5,-238.653"/>
<text text-anchor="start" x="722.5" y="-244.853" font-family="Helvetica,sans-Serif" font-size="11.00">1 row</text>
<polygon fill="#ffffff" stroke="none" points="756.5,-238.653 756.5,-256.653 789.5,-256.653 789.5,-238.653 756.5,-238.653"/>
<polygon fill="none" stroke="black" points="756.5,-238.653 756.5,-256.653 789.5,-256.653 789.5,-238.653 756.5,-238.653"/>
<text text-anchor="start" x="769.5" y="-244.853" font-family="Helvetica,sans-Serif" font-size="11.00">4 &gt;</text>
</a>
</g>
</g>
<!-- internal_transactions&#45;&gt;transactions -->
<g id="edge15" class="edge"><title>internal_transactions:elipses:w&#45;&gt;transactions:elipses:e</title>
<path fill="none" stroke="black" d="M879.834,-491.625C842.834,-479.405 876.743,-414.455 854,-365.653 831.761,-317.932 843.148,-265.653 790.5,-265.653"/>
<polygon fill="black" stroke="black" points="886.575,-492.557 894.007,-497.219 890.538,-493.105 894.5,-493.653 894.5,-493.653 894.5,-493.653 890.538,-493.105 894.993,-490.087 886.575,-492.557 886.575,-492.557"/>
<ellipse fill="none" stroke="black" cx="883.406" cy="-492.119" rx="3.2" ry="3.2"/>
</g>
<!-- transactions&#45;&gt;addresses -->
<g id="edge27" class="edge"><title>transactions:elipses:w&#45;&gt;addresses:hash:e</title>
<path fill="none" stroke="black" d="M653.819,-265.444C494.257,-260.904 418.872,-184.864 287,-283.653 243.354,-316.349 301.535,-399.653 247,-399.653"/>
<polygon fill="black" stroke="black" points="660.501,-265.539 668.449,-269.253 664.5,-265.596 668.5,-265.653 668.5,-265.653 668.5,-265.653 664.5,-265.596 668.551,-262.053 660.501,-265.539 660.501,-265.539"/>
<ellipse fill="none" stroke="black" cx="657.301" cy="-265.493" rx="3.2" ry="3.2"/>
</g>
<!-- transactions&#45;&gt;addresses -->
<g id="edge28" class="edge"><title>transactions:elipses:w&#45;&gt;addresses:hash:e</title>
<path fill="none" stroke="black" d="M653.811,-264.942C494.175,-255.133 418.97,-182.843 287,-281.653 244.689,-313.333 299.857,-393.653 247,-399.653"/>
<polygon fill="black" stroke="black" points="660.509,-265.266 668.326,-269.249 664.505,-265.459 668.5,-265.653 668.5,-265.653 668.5,-265.653 664.505,-265.459 668.674,-262.057 660.509,-265.266 660.509,-265.266"/>
<ellipse fill="none" stroke="black" cx="657.313" cy="-265.111" rx="3.2" ry="3.2"/>
</g>
<!-- transactions&#45;&gt;addresses -->
<g id="edge29" class="edge"><title>transactions:elipses:w&#45;&gt;addresses:hash:e</title>
<path fill="none" stroke="black" d="M653.811,-266.051C494.175,-268.133 418.97,-195.843 287,-294.653 244.689,-326.333 299.857,-406.653 247,-399.653"/>
<polygon fill="black" stroke="black" points="660.503,-265.87 668.598,-269.252 664.501,-265.761 668.5,-265.653 668.5,-265.653 668.5,-265.653 664.501,-265.761 668.402,-262.054 660.503,-265.87 660.503,-265.87"/>
<ellipse fill="none" stroke="black" cx="657.304" cy="-265.957" rx="3.2" ry="3.2"/>
</g>
<!-- transactions&#45;&gt;blocks -->
<g id="edge26" class="edge"><title>transactions:elipses:w&#45;&gt;blocks:elipses:e</title>
<path fill="none" stroke="black" d="M653.965,-266.162C576.968,-271.707 559.044,-320.653 474.5,-320.653"/>
<polygon fill="black" stroke="black" points="660.505,-265.933 668.626,-269.251 664.502,-265.793 668.5,-265.653 668.5,-265.653 668.5,-265.653 664.502,-265.793 668.374,-262.055 660.505,-265.933 660.505,-265.933"/>
<ellipse fill="none" stroke="black" cx="657.307" cy="-266.045" rx="3.2" ry="3.2"/>
</g>
<!-- logs -->
<g id="node12" class="node"><title>logs</title>
<g id="a_node12"><a xlink:href="../../tables/logs.html" xlink:title="logs" target="_top">
<polygon fill="#ffffff" stroke="none" points="941.5,-238.653 941.5,-296.653 1019.5,-296.653 1019.5,-238.653 941.5,-238.653"/>
<polygon fill="#f5f5f5" stroke="none" points="941.5,-274.653 941.5,-296.653 1019.5,-296.653 1019.5,-274.653 941.5,-274.653"/>
<polygon fill="none" stroke="black" points="941.5,-274.653 941.5,-296.653 1019.5,-296.653 1019.5,-274.653 941.5,-274.653"/>
<text text-anchor="start" x="946.5" y="-283.853" font-family="Helvetica,sans-Serif" font-weight="bold" font-size="11.00">logs</text>
<text text-anchor="start" x="980.5" y="-282.853" font-family="Helvetica,sans-Serif" font-size="11.00">[table]</text>
<polygon fill="none" stroke="black" points="941.5,-256.653 941.5,-274.653 1019.5,-274.653 1019.5,-256.653 941.5,-256.653"/>
<text text-anchor="start" x="944.5" y="-262.853" font-family="Helvetica,sans-Serif" font-size="11.00">...</text>
<polygon fill="#ffffff" stroke="none" points="941.5,-238.653 941.5,-256.653 964.5,-256.653 964.5,-238.653 941.5,-238.653"/>
<polygon fill="none" stroke="black" points="941.5,-238.653 941.5,-256.653 964.5,-256.653 964.5,-238.653 941.5,-238.653"/>
<text text-anchor="start" x="944.5" y="-244.853" font-family="Helvetica,sans-Serif" font-size="11.00">&lt; 3</text>
<polygon fill="#ffffff" stroke="none" points="964.5,-238.653 964.5,-256.653 1006.5,-256.653 1006.5,-238.653 964.5,-238.653"/>
<polygon fill="none" stroke="black" points="964.5,-238.653 964.5,-256.653 1006.5,-256.653 1006.5,-238.653 964.5,-238.653"/>
<text text-anchor="start" x="967.5" y="-244.853" font-family="Helvetica,sans-Serif" font-size="11.00">0 rows</text>
<polygon fill="#ffffff" stroke="none" points="1006.5,-238.653 1006.5,-256.653 1019.5,-256.653 1019.5,-238.653 1006.5,-238.653"/>
<polygon fill="none" stroke="black" points="1006.5,-238.653 1006.5,-256.653 1019.5,-256.653 1019.5,-238.653 1006.5,-238.653"/>
<text text-anchor="start" x="1009.5" y="-244.853" font-family="Helvetica,sans-Serif" font-size="11.00"> &#160;</text>
</a>
</g>
</g>
<!-- logs&#45;&gt;addresses -->
<g id="edge16" class="edge"><title>logs:elipses:w&#45;&gt;addresses:hash:e</title>
<path fill="none" stroke="black" d="M926.067,-264.331C897.107,-258.614 889.682,-235.964 854,-228.653 805.195,-218.653 294.568,-226.606 287,-232.653 227.374,-280.295 323.322,-399.653 247,-399.653"/>
<polygon fill="black" stroke="black" points="932.533,-264.923 940.172,-269.238 936.517,-265.288 940.5,-265.653 940.5,-265.653 940.5,-265.653 936.517,-265.288 940.828,-262.068 932.533,-264.923 932.533,-264.923"/>
<ellipse fill="none" stroke="black" cx="929.347" cy="-264.632" rx="3.2" ry="3.2"/>
</g>
<!-- logs&#45;&gt;blocks -->
<g id="edge17" class="edge"><title>logs:elipses:w&#45;&gt;blocks:elipses:e</title>
<path fill="none" stroke="black" d="M926.129,-267.446C893.365,-276.486 894.447,-317.15 854,-330.653 693.958,-384.082 643.225,-320.653 474.5,-320.653"/>
<polygon fill="black" stroke="black" points="932.562,-266.644 940.946,-269.225 936.531,-266.148 940.5,-265.653 940.5,-265.653 940.5,-265.653 936.531,-266.148 940.054,-262.081 932.562,-266.644 932.562,-266.644"/>
<ellipse fill="none" stroke="black" cx="929.386" cy="-267.04" rx="3.2" ry="3.2"/>
</g>
<!-- logs&#45;&gt;transactions -->
<g id="edge18" class="edge"><title>logs:elipses:w&#45;&gt;transactions:elipses:e</title>
<path fill="none" stroke="black" d="M926.092,-265.653C871.004,-265.653 852.089,-265.653 790.5,-265.653"/>
<polygon fill="black" stroke="black" points="932.5,-265.653 940.5,-269.253 936.5,-265.653 940.5,-265.653 940.5,-265.653 940.5,-265.653 936.5,-265.653 940.5,-262.053 932.5,-265.653 932.5,-265.653"/>
<ellipse fill="none" stroke="black" cx="929.3" cy="-265.653" rx="3.2" ry="3.2"/>
</g>
<!-- smart_contracts -->
<g id="node13" class="node"><title>smart_contracts</title>
<g id="a_node13"><a xlink:href="../../tables/smart_contracts.html" xlink:title="smart_contracts" target="_top">
<polygon fill="#ffffff" stroke="none" points="359,-136.653 359,-194.653 500,-194.653 500,-136.653 359,-136.653"/>
<polygon fill="#f5f5f5" stroke="none" points="359.5,-172.653 359.5,-194.653 500.5,-194.653 500.5,-172.653 359.5,-172.653"/>
<polygon fill="none" stroke="black" points="359.5,-172.653 359.5,-194.653 500.5,-194.653 500.5,-172.653 359.5,-172.653"/>
<text text-anchor="start" x="364.5" y="-181.853" font-family="Helvetica,sans-Serif" font-weight="bold" font-size="11.00">smart_contracts</text>
<text text-anchor="start" x="461.5" y="-180.853" font-family="Helvetica,sans-Serif" font-size="11.00">[table]</text>
<polygon fill="none" stroke="black" points="359.5,-154.653 359.5,-172.653 500.5,-172.653 500.5,-154.653 359.5,-154.653"/>
<text text-anchor="start" x="362.5" y="-160.853" font-family="Helvetica,sans-Serif" font-size="11.00">...</text>
<polygon fill="#ffffff" stroke="none" points="359.5,-136.653 359.5,-154.653 408.5,-154.653 408.5,-136.653 359.5,-136.653"/>
<polygon fill="none" stroke="black" points="359.5,-136.653 359.5,-154.653 408.5,-154.653 408.5,-136.653 359.5,-136.653"/>
<text text-anchor="start" x="362.5" y="-142.853" font-family="Helvetica,sans-Serif" font-size="11.00">&lt; 1</text>
<polygon fill="#ffffff" stroke="none" points="408.5,-136.653 408.5,-154.653 463.5,-154.653 463.5,-136.653 408.5,-136.653"/>
<polygon fill="none" stroke="black" points="408.5,-136.653 408.5,-154.653 463.5,-154.653 463.5,-136.653 408.5,-136.653"/>
<text text-anchor="start" x="424.5" y="-142.853" font-family="Helvetica,sans-Serif" font-size="11.00">0 rows</text>
<polygon fill="#ffffff" stroke="none" points="463.5,-136.653 463.5,-154.653 500.5,-154.653 500.5,-136.653 463.5,-136.653"/>
<polygon fill="none" stroke="black" points="463.5,-136.653 463.5,-154.653 500.5,-154.653 500.5,-136.653 463.5,-136.653"/>
<text text-anchor="start" x="480.5" y="-142.853" font-family="Helvetica,sans-Serif" font-size="11.00">1 &gt;</text>
</a>
</g>
</g>
<!-- smart_contracts&#45;&gt;addresses -->
<g id="edge19" class="edge"><title>smart_contracts:elipses:w&#45;&gt;addresses:hash:e</title>
<path fill="none" stroke="black" d="M347.799,-164.094C318.319,-166.704 306.263,-180.959 287,-208.653 237.475,-279.853 333.73,-399.653 247,-399.653"/>
<polygon fill="black" stroke="black" points="357.536,-159.689 357.866,-167.682 356.267,-167.748 355.937,-159.755 357.536,-159.689"/>
<polyline fill="none" stroke="black" points="358.5,-163.653 354.503,-163.818 "/>
<ellipse fill="none" stroke="black" cx="351.306" cy="-163.95" rx="3.2" ry="3.2"/>
</g>
<!-- token_transfers -->
<g id="node14" class="node"><title>token_transfers</title>
<g id="a_node14"><a xlink:href="../../tables/token_transfers.html" xlink:title="token_transfers" target="_top">
<polygon fill="#ffffff" stroke="none" points="911.5,-73.6529 911.5,-131.653 1049.5,-131.653 1049.5,-73.6529 911.5,-73.6529"/>
<polygon fill="#f5f5f5" stroke="none" points="911.5,-109.653 911.5,-131.653 1049.5,-131.653 1049.5,-109.653 911.5,-109.653"/>
<polygon fill="none" stroke="black" points="911.5,-109.653 911.5,-131.653 1049.5,-131.653 1049.5,-109.653 911.5,-109.653"/>
<text text-anchor="start" x="916.5" y="-118.853" font-family="Helvetica,sans-Serif" font-weight="bold" font-size="11.00">token_transfers</text>
<text text-anchor="start" x="1010.5" y="-117.853" font-family="Helvetica,sans-Serif" font-size="11.00">[table]</text>
<polygon fill="none" stroke="black" points="911.5,-91.6529 911.5,-109.653 1049.5,-109.653 1049.5,-91.6529 911.5,-91.6529"/>
<text text-anchor="start" x="914.5" y="-97.8529" font-family="Helvetica,sans-Serif" font-size="11.00">...</text>
<polygon fill="#ffffff" stroke="none" points="911.5,-73.6529 911.5,-91.6529 964.5,-91.6529 964.5,-73.6529 911.5,-73.6529"/>
<polygon fill="none" stroke="black" points="911.5,-73.6529 911.5,-91.6529 964.5,-91.6529 964.5,-73.6529 911.5,-73.6529"/>
<text text-anchor="start" x="914.5" y="-79.8529" font-family="Helvetica,sans-Serif" font-size="11.00">&lt; 5</text>
<polygon fill="#ffffff" stroke="none" points="964.5,-73.6529 964.5,-91.6529 1021.5,-91.6529 1021.5,-73.6529 964.5,-73.6529"/>
<polygon fill="none" stroke="black" points="964.5,-73.6529 964.5,-91.6529 1021.5,-91.6529 1021.5,-73.6529 964.5,-73.6529"/>
<text text-anchor="start" x="982.5" y="-79.8529" font-family="Helvetica,sans-Serif" font-size="11.00">0 rows</text>
<polygon fill="#ffffff" stroke="none" points="1021.5,-73.6529 1021.5,-91.6529 1049.5,-91.6529 1049.5,-73.6529 1021.5,-73.6529"/>
<polygon fill="none" stroke="black" points="1021.5,-73.6529 1021.5,-91.6529 1049.5,-91.6529 1049.5,-73.6529 1021.5,-73.6529"/>
<text text-anchor="start" x="1039.5" y="-79.8529" font-family="Helvetica,sans-Serif" font-size="11.00"> &#160;</text>
</a>
</g>
</g>
<!-- token_transfers&#45;&gt;addresses -->
<g id="edge21" class="edge"><title>token_transfers:elipses:w&#45;&gt;addresses:hash:e</title>
<path fill="none" stroke="black" d="M896.001,-100.507C628.222,-95.1153 489.492,56.6407 287,-125.653 241.268,-166.824 308.534,-399.653 247,-399.653"/>
<polygon fill="black" stroke="black" points="902.5,-100.572 910.464,-104.253 906.5,-100.613 910.5,-100.653 910.5,-100.653 910.5,-100.653 906.5,-100.613 910.536,-97.0531 902.5,-100.572 902.5,-100.572"/>
<ellipse fill="none" stroke="black" cx="899.301" cy="-100.54" rx="3.2" ry="3.2"/>
</g>
<!-- token_transfers&#45;&gt;addresses -->
<g id="edge22" class="edge"><title>token_transfers:elipses:w&#45;&gt;addresses:hash:e</title>
<path fill="none" stroke="black" d="M895.997,-100.199C628.136,-89.2377 489.156,59.125 287,-123.653 242.008,-164.332 307.655,-393.653 247,-399.653"/>
<polygon fill="black" stroke="black" points="902.504,-100.403 910.387,-104.251 906.502,-100.528 910.5,-100.653 910.5,-100.653 910.5,-100.653 906.502,-100.528 910.613,-97.0546 902.504,-100.403 902.504,-100.403"/>
<ellipse fill="none" stroke="black" cx="899.305" cy="-100.303" rx="3.2" ry="3.2"/>
</g>
<!-- token_transfers&#45;&gt;addresses -->
<g id="edge23" class="edge"><title>token_transfers:elipses:w&#45;&gt;addresses:hash:e</title>
<path fill="none" stroke="black" d="M895.997,-100.873C628.136,-102.238 489.156,46.125 287,-136.653 242.008,-177.332 307.655,-406.653 247,-399.653"/>
<polygon fill="black" stroke="black" points="902.501,-100.774 910.555,-104.252 906.5,-100.714 910.5,-100.653 910.5,-100.653 910.5,-100.653 906.5,-100.714 910.445,-97.0533 902.501,-100.774 902.501,-100.774"/>
<ellipse fill="none" stroke="black" cx="899.301" cy="-100.823" rx="3.2" ry="3.2"/>
</g>
<!-- token_transfers&#45;&gt;blocks -->
<g id="edge20" class="edge"><title>token_transfers:elipses:w&#45;&gt;blocks:elipses:e</title>
<path fill="none" stroke="black" d="M895.809,-102.128C827.807,-117.673 924.409,-251.952 854,-307.653 820.911,-333.83 516.691,-320.653 474.5,-320.653"/>
<polygon fill="black" stroke="black" points="902.54,-101.452 910.86,-104.235 906.52,-101.053 910.5,-100.653 910.5,-100.653 910.5,-100.653 906.52,-101.053 910.14,-97.0709 902.54,-101.452 902.54,-101.452"/>
<ellipse fill="none" stroke="black" cx="899.356" cy="-101.772" rx="3.2" ry="3.2"/>
</g>
<!-- token_transfers&#45;&gt;transactions -->
<g id="edge24" class="edge"><title>token_transfers:elipses:w&#45;&gt;transactions:elipses:e</title>
<path fill="none" stroke="black" d="M896.065,-102.286C826.491,-119.422 875.863,-265.653 790.5,-265.653"/>
<polygon fill="black" stroke="black" points="902.551,-101.552 910.905,-104.23 906.525,-101.103 910.5,-100.653 910.5,-100.653 910.5,-100.653 906.525,-101.103 910.095,-97.0757 902.551,-101.552 902.551,-101.552"/>
<ellipse fill="none" stroke="black" cx="899.371" cy="-101.912" rx="3.2" ry="3.2"/>
</g>
</g>
</svg>
