<?xml version="1.0" encoding="UTF-8" standalone="no"?>
<!DOCTYPE svg PUBLIC "-//W3C//DTD SVG 1.1//EN"
 "http://www.w3.org/Graphics/SVG/1.1/DTD/svg11.dtd">
<!-- Generated by graphviz version 2.43.0 (0)
 -->
<!-- Title: oneDegreeRelationshipsDiagram Pages: 1 -->
<svg width="448pt" height="181pt"
 viewBox="0.00 0.00 448.00 181.00" xmlns="http://www.w3.org/2000/svg" xmlns:xlink="http://www.w3.org/1999/xlink">
<g id="graph0" class="graph" transform="scale(1 1) rotate(0) translate(4 177)">
<title>oneDegreeRelationshipsDiagram</title>
<polygon fill="#ffffff" stroke="transparent" points="-4,4 -4,-177 444,-177 444,4 -4,4"/>
<text text-anchor="middle" x="79.5" y="-7.2" font-family="Helvetica,sans-Serif" font-size="11.00">Generated by SchemaSpy</text>
<!-- address_contract_code_fetch_attempts -->
<g id="node1" class="node">
<title>address_contract_code_fetch_attempts</title>
<g id="a_node1"><a xlink:href="../../tables/address_contract_code_fetch_attempts.html" xlink:title="address_contract_code_fetch_attempts" target="_top">
<polygon fill="#ffffff" stroke="transparent" points="8,-37 8,-169 432,-169 432,-37 8,-37"/>
<polygon fill="#f5f5f5" stroke="transparent" points="10,-145 10,-167 430,-167 430,-145 10,-145"/>
<polygon fill="none" stroke="black" points="10,-145 10,-167 430,-167 430,-145 10,-145"/>
<text text-anchor="start" x="15" y="-154.2" font-family="Helvetica,sans-Serif" font-weight="bold" font-size="11.00">address_contract_code_fetch_attempts</text>
<text text-anchor="start" x="388" y="-153.2" font-family="Helvetica,sans-Serif" font-size="11.00">[table]</text>
<polygon fill="none" stroke="black" points="10,-123 10,-145 315,-145 315,-123 10,-123"/>
<image xlink:href="../../images/primaryKeys.png" width="11px" height="12px" preserveAspectRatio="xMinYMin meet" x="15" y="-140"/>
<text text-anchor="start" x="30" y="-131.2" font-family="Helvetica,sans-Serif" font-size="11.00">address_hash</text>
<polygon fill="none" stroke="black" points="315,-123 315,-145 430,-145 430,-123 315,-123"/>
<text text-anchor="start" x="318" y="-131.2" font-family="Helvetica,sans-Serif" font-size="11.00">bytea[2147483647]</text>
<polygon fill="none" stroke="black" points="10,-101 10,-123 315,-123 315,-101 10,-101"/>
<text text-anchor="start" x="30" y="-109.2" font-family="Helvetica,sans-Serif" font-size="11.00">retries_number</text>
<polygon fill="none" stroke="black" points="315,-101 315,-123 430,-123 430,-101 315,-101"/>
<text text-anchor="start" x="318" y="-109.2" font-family="Helvetica,sans-Serif" font-size="11.00">int2[5]</text>
<polygon fill="none" stroke="black" points="10,-79 10,-101 315,-101 315,-79 10,-79"/>
<text text-anchor="start" x="30" y="-87.2" font-family="Helvetica,sans-Serif" font-size="11.00">inserted_at</text>
<polygon fill="none" stroke="black" points="315,-79 315,-101 430,-101 430,-79 315,-79"/>
<text text-anchor="start" x="318" y="-87.2" font-family="Helvetica,sans-Serif" font-size="11.00">timestamp[29,6]</text>
<polygon fill="none" stroke="black" points="10,-57 10,-79 315,-79 315,-57 10,-57"/>
<text text-anchor="start" x="30" y="-65.2" font-family="Helvetica,sans-Serif" font-size="11.00">updated_at</text>
<polygon fill="none" stroke="black" points="315,-57 315,-79 430,-79 430,-57 315,-57"/>
<text text-anchor="start" x="318" y="-65.2" font-family="Helvetica,sans-Serif" font-size="11.00">timestamp[29,6]</text>
<polygon fill="#ffffff" stroke="transparent" points="10,-39 10,-57 430,-57 430,-39 10,-39"/>
<polygon fill="none" stroke="black" points="10,-39 10,-57 430,-57 430,-39 10,-39"/>
<polygon fill="#ffffff" stroke="transparent" points="11,-40 11,-56 155,-56 155,-40 11,-40"/>
<text text-anchor="start" x="13" y="-45.2" font-family="Helvetica,sans-Serif" font-size="11.00">&lt; 0</text>
<polygon fill="#ffffff" stroke="transparent" points="155,-40 155,-56 286,-56 286,-40 155,-40"/>
<text text-anchor="start" x="216.5" y="-45.2" font-family="Helvetica,sans-Serif" font-size="11.00"> &#160;</text>
<polygon fill="#ffffff" stroke="transparent" points="286,-40 286,-56 429,-56 429,-40 286,-40"/>
<text text-anchor="start" x="407" y="-45.2" font-family="Helvetica,sans-Serif" font-size="11.00">0 &gt;</text>
<polygon fill="black" stroke="black" points="155,-40 155,-56 155,-56 155,-40 155,-40"/>
<polygon fill="black" stroke="black" points="286,-40 286,-56 286,-56 286,-40 286,-40"/>
<polygon fill="none" stroke="black" stroke-width="2" points="9,-38 9,-168 431,-168 431,-38 9,-38"/>
</a>
</g>
</g>
</g>
</svg>
