<?xml version="1.0" encoding="UTF-8" standalone="no"?>
<!DOCTYPE svg PUBLIC "-//W3C//DTD SVG 1.1//EN"
 "http://www.w3.org/Graphics/SVG/1.1/DTD/svg11.dtd">
<!-- Generated by graphviz version 2.43.0 (0)
 -->
<!-- Title: oneDegreeRelationshipsDiagram Pages: 1 -->
<svg width="402pt" height="335pt"
 viewBox="0.00 0.00 402.00 335.00" xmlns="http://www.w3.org/2000/svg" xmlns:xlink="http://www.w3.org/1999/xlink">
<g id="graph0" class="graph" transform="scale(1 1) rotate(0) translate(4 331)">
<title>oneDegreeRelationshipsDiagram</title>
<polygon fill="#ffffff" stroke="transparent" points="-4,4 -4,-331 398,-331 398,4 -4,4"/>
<text text-anchor="middle" x="79.5" y="-7.2" font-family="Helvetica,sans-Serif" font-size="11.00">Generated by SchemaSpy</text>
<!-- address_current_token_balances -->
<g id="node1" class="node">
<title>address_current_token_balances</title>
<g id="a_node1"><a xlink:href="../../tables/address_current_token_balances.html" xlink:title="address_current_token_balances" target="_top">
<polygon fill="#ffffff" stroke="transparent" points="8,-37 8,-323 386,-323 386,-37 8,-37"/>
<polygon fill="#f5f5f5" stroke="transparent" points="10,-299 10,-321 384,-321 384,-299 10,-299"/>
<polygon fill="none" stroke="black" points="10,-299 10,-321 384,-321 384,-299 10,-299"/>
<text text-anchor="start" x="15" y="-308.2" font-family="Helvetica,sans-Serif" font-weight="bold" font-size="11.00">address_current_token_balances</text>
<text text-anchor="start" x="342" y="-307.2" font-family="Helvetica,sans-Serif" font-size="11.00">[table]</text>
<polygon fill="none" stroke="black" points="10,-277 10,-299 269,-299 269,-277 10,-277"/>
<image xlink:href="../../images/primaryKeys.png" width="11px" height="12px" preserveAspectRatio="xMinYMin meet" x="15" y="-294"/>
<text text-anchor="start" x="30" y="-285.2" font-family="Helvetica,sans-Serif" font-size="11.00">id</text>
<polygon fill="none" stroke="black" points="269,-277 269,-299 384,-299 384,-277 269,-277"/>
<text text-anchor="start" x="272" y="-285.2" font-family="Helvetica,sans-Serif" font-size="11.00">bigserial[19]</text>
<polygon fill="#ffffff" stroke="transparent" points="10,-255 10,-277 269,-277 269,-255 10,-255"/>
<polygon fill="none" stroke="black" points="10,-255 10,-277 269,-277 269,-255 10,-255"/>
<text text-anchor="start" x="30" y="-263.2" font-family="Helvetica,sans-Serif" font-size="11.00">address_hash</text>
<polygon fill="none" stroke="black" points="269,-255 269,-277 384,-277 384,-255 269,-255"/>
<text text-anchor="start" x="272" y="-263.2" font-family="Helvetica,sans-Serif" font-size="11.00">bytea[2147483647]</text>
<polygon fill="#ffffff" stroke="transparent" points="10,-233 10,-255 269,-255 269,-233 10,-233"/>
<polygon fill="none" stroke="black" points="10,-233 10,-255 269,-255 269,-233 10,-233"/>
<text text-anchor="start" x="30" y="-241.2" font-family="Helvetica,sans-Serif" font-size="11.00">block_number</text>
<polygon fill="none" stroke="black" points="269,-233 269,-255 384,-255 384,-233 269,-233"/>
<text text-anchor="start" x="272" y="-241.2" font-family="Helvetica,sans-Serif" font-size="11.00">int8[19]</text>
<polygon fill="#ffffff" stroke="transparent" points="10,-211 10,-233 269,-233 269,-211 10,-211"/>
<polygon fill="none" stroke="black" points="10,-211 10,-233 269,-233 269,-211 10,-211"/>
<text text-anchor="start" x="30" y="-219.2" font-family="Helvetica,sans-Serif" font-size="11.00">token_contract_address_hash</text>
<polygon fill="none" stroke="black" points="269,-211 269,-233 384,-233 384,-211 269,-211"/>
<text text-anchor="start" x="272" y="-219.2" font-family="Helvetica,sans-Serif" font-size="11.00">bytea[2147483647]</text>
<polygon fill="#ffffff" stroke="transparent" points="10,-189 10,-211 269,-211 269,-189 10,-189"/>
<polygon fill="none" stroke="black" points="10,-189 10,-211 269,-211 269,-189 10,-189"/>
<text text-anchor="start" x="30" y="-197.2" font-family="Helvetica,sans-Serif" font-size="11.00">value</text>
<polygon fill="none" stroke="black" points="269,-189 269,-211 384,-211 384,-189 269,-189"/>
<text text-anchor="start" x="272" y="-197.2" font-family="Helvetica,sans-Serif" font-size="11.00">numeric[0]</text>
<polygon fill="none" stroke="black" points="10,-167 10,-189 269,-189 269,-167 10,-167"/>
<text text-anchor="start" x="30" y="-175.2" font-family="Helvetica,sans-Serif" font-size="11.00">value_fetched_at</text>
<polygon fill="none" stroke="black" points="269,-167 269,-189 384,-189 384,-167 269,-167"/>
<text text-anchor="start" x="272" y="-175.2" font-family="Helvetica,sans-Serif" font-size="11.00">timestamp[29,6]</text>
<polygon fill="none" stroke="black" points="10,-145 10,-167 269,-167 269,-145 10,-145"/>
<text text-anchor="start" x="30" y="-153.2" font-family="Helvetica,sans-Serif" font-size="11.00">inserted_at</text>
<polygon fill="none" stroke="black" points="269,-145 269,-167 384,-167 384,-145 269,-145"/>
<text text-anchor="start" x="272" y="-153.2" font-family="Helvetica,sans-Serif" font-size="11.00">timestamp[29,6]</text>
<polygon fill="none" stroke="black" points="10,-123 10,-145 269,-145 269,-123 10,-123"/>
<text text-anchor="start" x="30" y="-131.2" font-family="Helvetica,sans-Serif" font-size="11.00">updated_at</text>
<polygon fill="none" stroke="black" points="269,-123 269,-145 384,-145 384,-123 269,-123"/>
<text text-anchor="start" x="272" y="-131.2" font-family="Helvetica,sans-Serif" font-size="11.00">timestamp[29,6]</text>
<polygon fill="none" stroke="black" points="10,-101 10,-123 269,-123 269,-101 10,-101"/>
<text text-anchor="start" x="30" y="-109.2" font-family="Helvetica,sans-Serif" font-size="11.00">old_value</text>
<polygon fill="none" stroke="black" points="269,-101 269,-123 384,-123 384,-101 269,-101"/>
<text text-anchor="start" x="272" y="-109.2" font-family="Helvetica,sans-Serif" font-size="11.00">numeric[0]</text>
<polygon fill="#ffffff" stroke="transparent" points="10,-79 10,-101 269,-101 269,-79 10,-79"/>
<polygon fill="none" stroke="black" points="10,-79 10,-101 269,-101 269,-79 10,-79"/>
<text text-anchor="start" x="30" y="-87.2" font-family="Helvetica,sans-Serif" font-size="11.00">token_id</text>
<polygon fill="none" stroke="black" points="269,-79 269,-101 384,-101 384,-79 269,-79"/>
<text text-anchor="start" x="272" y="-87.2" font-family="Helvetica,sans-Serif" font-size="11.00">numeric[78]</text>
<polygon fill="none" stroke="black" points="10,-57 10,-79 269,-79 269,-57 10,-57"/>
<text text-anchor="start" x="30" y="-65.2" font-family="Helvetica,sans-Serif" font-size="11.00">token_type</text>
<polygon fill="none" stroke="black" points="269,-57 269,-79 384,-79 384,-57 269,-57"/>
<text text-anchor="start" x="272" y="-65.2" font-family="Helvetica,sans-Serif" font-size="11.00">varchar[255]</text>
<polygon fill="#ffffff" stroke="transparent" points="10,-39 10,-57 384,-57 384,-39 10,-39"/>
<polygon fill="none" stroke="black" points="10,-39 10,-57 384,-57 384,-39 10,-39"/>
<polygon fill="#ffffff" stroke="transparent" points="11,-40 11,-56 139,-56 139,-40 11,-40"/>
<text text-anchor="start" x="13" y="-45.2" font-family="Helvetica,sans-Serif" font-size="11.00">&lt; 0</text>
<polygon fill="#ffffff" stroke="transparent" points="139,-40 139,-56 255,-56 255,-40 139,-40"/>
<text text-anchor="start" x="193" y="-45.2" font-family="Helvetica,sans-Serif" font-size="11.00"> &#160;</text>
<polygon fill="#ffffff" stroke="transparent" points="255,-40 255,-56 383,-56 383,-40 255,-40"/>
<text text-anchor="start" x="361" y="-45.2" font-family="Helvetica,sans-Serif" font-size="11.00">0 &gt;</text>
<polygon fill="black" stroke="black" points="139,-40 139,-56 139,-56 139,-40 139,-40"/>
<polygon fill="black" stroke="black" points="255,-40 255,-56 255,-56 255,-40 255,-40"/>
<polygon fill="none" stroke="black" stroke-width="2" points="9,-38 9,-322 385,-322 385,-38 9,-38"/>
</a>
</g>
</g>
</g>
</svg>
