<?xml version="1.0" encoding="UTF-8" standalone="no"?>
<!DOCTYPE svg PUBLIC "-//W3C//DTD SVG 1.1//EN"
 "http://www.w3.org/Graphics/SVG/1.1/DTD/svg11.dtd">
<!-- Generated by graphviz version 2.38.0 (20140413.2041)
 -->
<!-- Title: oneDegreeRelationshipsDiagram Pages: 1 -->
<svg width="828pt" height="313pt"
 viewBox="0.00 0.00 828.00 313.00" xmlns="http://www.w3.org/2000/svg" xmlns:xlink="http://www.w3.org/1999/xlink">
<g id="graph0" class="graph" transform="scale(1 1) rotate(0) translate(4 309)">
<title>oneDegreeRelationshipsDiagram</title>
<polygon fill="#ffffff" stroke="none" points="-4,4 -4,-309 824,-309 824,4 -4,4"/>
<text text-anchor="middle" x="74.5" y="-7.2" font-family="Helvetica,sans-Serif" font-size="11.00">Generated by SchemaSpy</text>
<!-- address_token_balances -->
<g id="node1" class="node"><title>address_token_balances</title>
<g id="a_node1"><a xlink:href="../../tables/address_token_balances.html" xlink:title="address_token_balances" target="_top">
<polygon fill="#ffffff" stroke="none" points="501,-37 501,-301 812,-301 812,-37 501,-37"/>
<polygon fill="#f5f5f5" stroke="none" points="503.5,-277 503.5,-299 810.5,-299 810.5,-277 503.5,-277"/>
<polygon fill="none" stroke="black" points="503.5,-277 503.5,-299 810.5,-299 810.5,-277 503.5,-277"/>
<text text-anchor="start" x="508.5" y="-286.2" font-family="Helvetica,sans-Serif" font-weight="bold" font-size="11.00">address_token_balances</text>
<text text-anchor="start" x="771.5" y="-285.2" font-family="Helvetica,sans-Serif" font-size="11.00">[table]</text>
<polygon fill="none" stroke="black" points="503.5,-255 503.5,-277 700.5,-277 700.5,-255 503.5,-255"/>
<image xlink:href="../../images/primaryKeys.png" width="11px" height="12px" preserveAspectRatio="xMinYMin meet" x="508.5" y="-272"/>
<text text-anchor="start" x="523.5" y="-263.2" font-family="Helvetica,sans-Serif" font-size="11.00">id</text>
<polygon fill="none" stroke="black" points="700.5,-255 700.5,-277 810.5,-277 810.5,-255 700.5,-255"/>
<text text-anchor="start" x="703.5" y="-263.2" font-family="Helvetica,sans-Serif" font-size="11.00">bigserial[19]</text>
<polygon fill="#ffffff" stroke="none" points="503.5,-233 503.5,-255 700.5,-255 700.5,-233 503.5,-233"/>
<polygon fill="none" stroke="black" points="503.5,-233 503.5,-255 700.5,-255 700.5,-233 503.5,-233"/>
<image xlink:href="../../images/foreignKeys.png" width="11px" height="12px" preserveAspectRatio="xMinYMin meet" x="508.5" y="-250"/>
<text text-anchor="start" x="523.5" y="-241.2" font-family="Helvetica,sans-Serif" font-size="11.00">address_hash</text>
<polygon fill="none" stroke="black" points="700.5,-233 700.5,-255 810.5,-255 810.5,-233 700.5,-233"/>
<text text-anchor="start" x="703.5" y="-241.2" font-family="Helvetica,sans-Serif" font-size="11.00">bytea[2147483647]</text>
<polygon fill="#ffffff" stroke="none" points="503.5,-211 503.5,-233 700.5,-233 700.5,-211 503.5,-211"/>
<polygon fill="none" stroke="black" points="503.5,-211 503.5,-233 700.5,-233 700.5,-211 503.5,-211"/>
<text text-anchor="start" x="523.5" y="-219.2" font-family="Helvetica,sans-Serif" font-size="11.00">block_number</text>
<polygon fill="none" stroke="black" points="700.5,-211 700.5,-233 810.5,-233 810.5,-211 700.5,-211"/>
<text text-anchor="start" x="703.5" y="-219.2" font-family="Helvetica,sans-Serif" font-size="11.00">int8[19]</text>
<polygon fill="#ffffff" stroke="none" points="503.5,-189 503.5,-211 700.5,-211 700.5,-189 503.5,-189"/>
<polygon fill="none" stroke="black" points="503.5,-189 503.5,-211 700.5,-211 700.5,-189 503.5,-189"/>
<image xlink:href="../../images/foreignKeys.png" width="11px" height="12px" preserveAspectRatio="xMinYMin meet" x="508.5" y="-206"/>
<text text-anchor="start" x="523.5" y="-197.2" font-family="Helvetica,sans-Serif" font-size="11.00">token_contract_address_hash</text>
<polygon fill="none" stroke="black" points="700.5,-189 700.5,-211 810.5,-211 810.5,-189 700.5,-189"/>
<text text-anchor="start" x="703.5" y="-197.2" font-family="Helvetica,sans-Serif" font-size="11.00">bytea[2147483647]</text>
<polygon fill="none" stroke="black" points="503.5,-167 503.5,-189 700.5,-189 700.5,-167 503.5,-167"/>
<text text-anchor="start" x="523.5" y="-175.2" font-family="Helvetica,sans-Serif" font-size="11.00">value</text>
<polygon fill="none" stroke="black" points="700.5,-167 700.5,-189 810.5,-189 810.5,-167 700.5,-167"/>
<text text-anchor="start" x="703.5" y="-175.2" font-family="Helvetica,sans-Serif" font-size="11.00">numeric[131089]</text>
<polygon fill="none" stroke="black" points="503.5,-145 503.5,-167 700.5,-167 700.5,-145 503.5,-145"/>
<text text-anchor="start" x="523.5" y="-153.2" font-family="Helvetica,sans-Serif" font-size="11.00">value_fetched_at</text>
<polygon fill="none" stroke="black" points="700.5,-145 700.5,-167 810.5,-167 810.5,-145 700.5,-145"/>
<text text-anchor="start" x="703.5" y="-153.2" font-family="Helvetica,sans-Serif" font-size="11.00">timestamp[29,6]</text>
<polygon fill="none" stroke="black" points="503.5,-123 503.5,-145 700.5,-145 700.5,-123 503.5,-123"/>
<text text-anchor="start" x="523.5" y="-131.2" font-family="Helvetica,sans-Serif" font-size="11.00">inserted_at</text>
<polygon fill="none" stroke="black" points="700.5,-123 700.5,-145 810.5,-145 810.5,-123 700.5,-123"/>
<text text-anchor="start" x="703.5" y="-131.2" font-family="Helvetica,sans-Serif" font-size="11.00">timestamp[29,6]</text>
<polygon fill="none" stroke="black" points="503.5,-101 503.5,-123 700.5,-123 700.5,-101 503.5,-101"/>
<text text-anchor="start" x="523.5" y="-109.2" font-family="Helvetica,sans-Serif" font-size="11.00">updated_at</text>
<polygon fill="none" stroke="black" points="700.5,-101 700.5,-123 810.5,-123 810.5,-101 700.5,-101"/>
<text text-anchor="start" x="703.5" y="-109.2" font-family="Helvetica,sans-Serif" font-size="11.00">timestamp[29,6]</text>
<polygon fill="#ffffff" stroke="none" points="503.5,-79 503.5,-101 700.5,-101 700.5,-79 503.5,-79"/>
<polygon fill="none" stroke="black" points="503.5,-79 503.5,-101 700.5,-101 700.5,-79 503.5,-79"/>
<text text-anchor="start" x="523.5" y="-87.2" font-family="Helvetica,sans-Serif" font-size="11.00">token_id</text>
<polygon fill="none" stroke="black" points="700.5,-79 700.5,-101 810.5,-101 810.5,-79 700.5,-79"/>
<text text-anchor="start" x="703.5" y="-87.2" font-family="Helvetica,sans-Serif" font-size="11.00">numeric[78]</text>
<polygon fill="none" stroke="black" points="503.5,-57 503.5,-79 700.5,-79 700.5,-57 503.5,-57"/>
<text text-anchor="start" x="523.5" y="-65.2" font-family="Helvetica,sans-Serif" font-size="11.00">token_type</text>
<polygon fill="none" stroke="black" points="700.5,-57 700.5,-79 810.5,-79 810.5,-57 700.5,-57"/>
<text text-anchor="start" x="703.5" y="-65.2" font-family="Helvetica,sans-Serif" font-size="11.00">varchar[255]</text>
<polygon fill="#ffffff" stroke="none" points="503.5,-39 503.5,-57 592.5,-57 592.5,-39 503.5,-39"/>
<polygon fill="none" stroke="black" points="503.5,-39 503.5,-57 592.5,-57 592.5,-39 503.5,-39"/>
<text text-anchor="start" x="506.5" y="-45.2" font-family="Helvetica,sans-Serif" font-size="11.00">&lt; 2</text>
<polygon fill="#ffffff" stroke="none" points="592.5,-39 592.5,-57 700.5,-57 700.5,-39 592.5,-39"/>
<polygon fill="none" stroke="black" points="592.5,-39 592.5,-57 700.5,-57 700.5,-39 592.5,-39"/>
<text text-anchor="start" x="661.5" y="-45.2" font-family="Helvetica,sans-Serif" font-size="11.00">0 rows</text>
<polygon fill="#ffffff" stroke="none" points="700.5,-39 700.5,-57 810.5,-57 810.5,-39 700.5,-39"/>
<polygon fill="none" stroke="black" points="700.5,-39 700.5,-57 810.5,-57 810.5,-39 700.5,-39"/>
<text text-anchor="start" x="790.5" y="-45.2" font-family="Helvetica,sans-Serif" font-size="11.00">0 &gt;</text>
<polygon fill="none" stroke="black" stroke-width="2" points="502,-38 502,-300 811,-300 811,-38 502,-38"/>
</a>
</g>
</g>
<!-- addresses -->
<g id="node2" class="node"><title>addresses</title>
<g id="a_node2"><a xlink:href="../../tables/addresses.html" xlink:title="addresses" target="_top">
<polygon fill="#ffffff" stroke="none" points="8,-152 8,-276 246,-276 246,-152 8,-152"/>
<polygon fill="#f5f5f5" stroke="none" points="8,-254 8,-276 246,-276 246,-254 8,-254"/>
<polygon fill="none" stroke="black" points="8,-254 8,-276 246,-276 246,-254 8,-254"/>
<text text-anchor="start" x="13" y="-263.2" font-family="Helvetica,sans-Serif" font-weight="bold" font-size="11.00">addresses</text>
<text text-anchor="start" x="207" y="-262.2" font-family="Helvetica,sans-Serif" font-size="11.00">[table]</text>
<polygon fill="#ffffff" stroke="none" points="8,-232 8,-254 246,-254 246,-232 8,-232"/>
<polygon fill="none" stroke="black" points="8,-232 8,-254 246,-254 246,-232 8,-232"/>
<text text-anchor="start" x="28" y="-240.2" font-family="Helvetica,sans-Serif" font-size="11.00">fetched_coin_balance</text>
<polygon fill="none" stroke="black" points="8,-210 8,-232 246,-232 246,-210 8,-210"/>
<image xlink:href="../../images/primaryKeys.png" width="11px" height="12px" preserveAspectRatio="xMinYMin meet" x="13" y="-227"/>
<text text-anchor="start" x="28" y="-218.2" font-family="Helvetica,sans-Serif" font-size="11.00">hash</text>
<polygon fill="#ffffff" stroke="none" points="8,-188 8,-210 246,-210 246,-188 8,-188"/>
<polygon fill="none" stroke="black" points="8,-188 8,-210 246,-210 246,-188 8,-188"/>
<text text-anchor="start" x="28" y="-196.2" font-family="Helvetica,sans-Serif" font-size="11.00">inserted_at</text>
<polygon fill="none" stroke="black" points="8,-170 8,-188 246,-188 246,-170 8,-170"/>
<text text-anchor="start" x="11" y="-176.2" font-family="Helvetica,sans-Serif" font-size="11.00">...</text>
<polygon fill="#ffffff" stroke="none" points="8,-152 8,-170 97,-170 97,-152 8,-152"/>
<polygon fill="none" stroke="black" points="8,-152 8,-170 97,-170 97,-152 8,-152"/>
<text text-anchor="start" x="11" y="-158.2" font-family="Helvetica,sans-Serif" font-size="11.00"> &#160;</text>
<polygon fill="#ffffff" stroke="none" points="97,-152 97,-170 177,-170 177,-152 97,-152"/>
<polygon fill="none" stroke="black" points="97,-152 97,-170 177,-170 177,-152 97,-152"/>
<text text-anchor="start" x="138" y="-158.2" font-family="Helvetica,sans-Serif" font-size="11.00">2 rows</text>
<polygon fill="#ffffff" stroke="none" points="177,-152 177,-170 246,-170 246,-152 177,-152"/>
<polygon fill="none" stroke="black" points="177,-152 177,-170 246,-170 246,-152 177,-152"/>
<text text-anchor="start" x="219" y="-158.2" font-family="Helvetica,sans-Serif" font-size="11.00">19 &gt;</text>
</a>
</g>
</g>
<!-- address_token_balances&#45;&gt;addresses -->
<g id="edge1" class="edge"><title>address_token_balances:address_hash:w&#45;&gt;addresses:hash:e</title>
<path fill="none" stroke="black" d="M488.039,-246.674C479.228,-250.315 473.728,-256.649 460,-259 384.215,-271.981 358.407,-287.511 287,-259 264.227,-249.907 271.521,-221 247,-221"/>
<polygon fill="black" stroke="black" points="494.633,-245.455 503.155,-247.54 498.567,-244.727 502.5,-244 502.5,-244 502.5,-244 498.567,-244.727 501.845,-240.46 494.633,-245.455 494.633,-245.455"/>
<ellipse fill="none" stroke="black" cx="491.487" cy="-246.037" rx="3.2" ry="3.2"/>
</g>
<!-- tokens -->
<g id="node3" class="node"><title>tokens</title>
<g id="a_node3"><a xlink:href="../../tables/tokens.html" xlink:title="tokens" target="_top">
<polygon fill="#ffffff" stroke="none" points="295,-124 295,-248 452,-248 452,-124 295,-124"/>
<polygon fill="#f5f5f5" stroke="none" points="295.5,-226 295.5,-248 452.5,-248 452.5,-226 295.5,-226"/>
<polygon fill="none" stroke="black" points="295.5,-226 295.5,-248 452.5,-248 452.5,-226 295.5,-226"/>
<text text-anchor="start" x="300.5" y="-235.2" font-family="Helvetica,sans-Serif" font-weight="bold" font-size="11.00">tokens</text>
<text text-anchor="start" x="413.5" y="-234.2" font-family="Helvetica,sans-Serif" font-size="11.00">[table]</text>
<polygon fill="#ffffff" stroke="none" points="295.5,-204 295.5,-226 452.5,-226 452.5,-204 295.5,-204"/>
<polygon fill="none" stroke="black" points="295.5,-204 295.5,-226 452.5,-226 452.5,-204 295.5,-204"/>
<text text-anchor="start" x="315.5" y="-212.2" font-family="Helvetica,sans-Serif" font-size="11.00">symbol</text>
<polygon fill="#ffffff" stroke="none" points="295.5,-182 295.5,-204 452.5,-204 452.5,-182 295.5,-182"/>
<polygon fill="none" stroke="black" points="295.5,-182 295.5,-204 452.5,-204 452.5,-182 295.5,-182"/>
<text text-anchor="start" x="315.5" y="-190.2" font-family="Helvetica,sans-Serif" font-size="11.00">type</text>
<polygon fill="none" stroke="black" points="295.5,-160 295.5,-182 452.5,-182 452.5,-160 295.5,-160"/>
<image xlink:href="../../images/primaryKeys.png" width="11px" height="12px" preserveAspectRatio="xMinYMin meet" x="300.5" y="-177"/>
<text text-anchor="start" x="315.5" y="-168.2" font-family="Helvetica,sans-Serif" font-size="11.00">contract_address_hash</text>
<polygon fill="none" stroke="black" points="295.5,-142 295.5,-160 452.5,-160 452.5,-142 295.5,-142"/>
<text text-anchor="start" x="298.5" y="-148.2" font-family="Helvetica,sans-Serif" font-size="11.00">...</text>
<polygon fill="#ffffff" stroke="none" points="295.5,-124 295.5,-142 352.5,-142 352.5,-124 295.5,-124"/>
<polygon fill="none" stroke="black" points="295.5,-124 295.5,-142 352.5,-142 352.5,-124 295.5,-124"/>
<text text-anchor="start" x="298.5" y="-130.2" font-family="Helvetica,sans-Serif" font-size="11.00">&lt; 1</text>
<polygon fill="#ffffff" stroke="none" points="352.5,-124 352.5,-142 411.5,-142 411.5,-124 352.5,-124"/>
<polygon fill="none" stroke="black" points="352.5,-124 352.5,-142 411.5,-142 411.5,-124 352.5,-124"/>
<text text-anchor="start" x="372.5" y="-130.2" font-family="Helvetica,sans-Serif" font-size="11.00">0 rows</text>
<polygon fill="#ffffff" stroke="none" points="411.5,-124 411.5,-142 452.5,-142 452.5,-124 411.5,-124"/>
<polygon fill="none" stroke="black" points="411.5,-124 411.5,-142 452.5,-142 452.5,-124 411.5,-124"/>
<text text-anchor="start" x="432.5" y="-130.2" font-family="Helvetica,sans-Serif" font-size="11.00">3 &gt;</text>
</a>
</g>
</g>
<!-- address_token_balances&#45;&gt;tokens -->
<g id="edge2" class="edge"><title>address_token_balances:token_contract_address_hash:w&#45;&gt;tokens:contract_address_hash:e</title>
<path fill="none" stroke="black" d="M488.45,-195.968C476.471,-187.999 472.875,-171 453.5,-171"/>
<polygon fill="black" stroke="black" points="494.81,-197.793 501.507,-203.46 498.655,-198.897 502.5,-200 502.5,-200 502.5,-200 498.655,-198.897 503.493,-196.54 494.81,-197.793 494.81,-197.793"/>
<ellipse fill="none" stroke="black" cx="491.735" cy="-196.91" rx="3.20001" ry="3.20001"/>
</g>
<!-- tokens&#45;&gt;addresses -->
<g id="edge3" class="edge"><title>tokens:contract_address_hash:w&#45;&gt;addresses:hash:e</title>
<path fill="none" stroke="black" d="M283.959,-173.688C266.852,-184.074 273.341,-221 247,-221"/>
<polygon fill="black" stroke="black" points="292.736,-167.322 294.713,-175.074 293.163,-175.469 291.186,-167.717 292.736,-167.322"/>
<polyline fill="none" stroke="black" points="294.5,-171 290.624,-171.988 "/>
<ellipse fill="none" stroke="black" cx="287.523" cy="-172.779" rx="3.20001" ry="3.20001"/>
</g>
</g>
</svg>
