<?xml version="1.0" encoding="UTF-8" standalone="no"?>
<!DOCTYPE svg PUBLIC "-//W3C//DTD SVG 1.1//EN"
 "http://www.w3.org/Graphics/SVG/1.1/DTD/svg11.dtd">
<!-- Generated by graphviz version 9.0.0 (20230911.1827)
 -->
<!-- Title: oneDegreeRelationshipsDiagram Pages: 1 -->
<svg width="337pt" height="335pt"
 viewBox="0.00 0.00 337.00 335.00" xmlns="http://www.w3.org/2000/svg" xmlns:xlink="http://www.w3.org/1999/xlink">
<g id="graph0" class="graph" transform="scale(1 1) rotate(0) translate(4 331)">
<title>oneDegreeRelationshipsDiagram</title>
<polygon fill="#ffffff" stroke="none" points="-4,4 -4,-331 333,-331 333,4 -4,4"/>
<text text-anchor="middle" x="71.38" y="-5.55" font-family="Helvetica,sans-Serif" font-size="11.00">Generated by SchemaSpy</text>
<!-- address_current_token_balances -->
<g id="node1" class="node">
<title>address_current_token_balances</title>
<g id="a_node1"><a xlink:href="../../tables/address_current_token_balances.html" xlink:title="address_current_token_balances" target="_top">
<polygon fill="#ffffff" stroke="none" points="8,-37 8,-323 321,-323 321,-37 8,-37"/>
<polygon fill="#f5f5f5" stroke="none" points="10,-299 10,-321 319,-321 319,-299 10,-299"/>
<polygon fill="none" stroke="black" points="10,-299 10,-321 319,-321 319,-299 10,-299"/>
<text text-anchor="start" x="15" y="-306.55" font-family="Helvetica,sans-Serif" font-weight="bold" font-size="11.00">address_current_token_balances</text>
<text text-anchor="start" x="284.75" y="-305.55" font-family="Helvetica,sans-Serif" font-size="11.00">[table]</text>
<polygon fill="none" stroke="black" points="10,-277 10,-299 221,-299 221,-277 10,-277"/>
<image xlink:href="../../images/primaryKeys.png" width="11px" height="12px" preserveAspectRatio="xMinYMin meet" x="15" y="-294"/>
<text text-anchor="start" x="30" y="-283.55" font-family="Helvetica,sans-Serif" font-size="11.00">id</text>
<polygon fill="none" stroke="black" points="221,-277 221,-299 319,-299 319,-277 221,-277"/>
<text text-anchor="start" x="224" y="-283.55" font-family="Helvetica,sans-Serif" font-size="11.00">bigserial[19]</text>
<polygon fill="#ffffff" stroke="none" points="10,-255 10,-277 221,-277 221,-255 10,-255"/>
<polygon fill="none" stroke="black" points="10,-255 10,-277 221,-277 221,-255 10,-255"/>
<text text-anchor="start" x="30" y="-261.55" font-family="Helvetica,sans-Serif" font-size="11.00">address_hash</text>
<polygon fill="none" stroke="black" points="221,-255 221,-277 319,-277 319,-255 221,-255"/>
<text text-anchor="start" x="223.88" y="-261.55" font-family="Helvetica,sans-Serif" font-size="11.00">bytea[2147483647]</text>
<polygon fill="#ffffff" stroke="none" points="10,-233 10,-255 221,-255 221,-233 10,-233"/>
<polygon fill="none" stroke="black" points="10,-233 10,-255 221,-255 221,-233 10,-233"/>
<text text-anchor="start" x="30" y="-239.55" font-family="Helvetica,sans-Serif" font-size="11.00">block_number</text>
<polygon fill="none" stroke="black" points="221,-233 221,-255 319,-255 319,-233 221,-233"/>
<text text-anchor="start" x="224" y="-239.55" font-family="Helvetica,sans-Serif" font-size="11.00">int8[19]</text>
<polygon fill="#ffffff" stroke="none" points="10,-211 10,-233 221,-233 221,-211 10,-211"/>
<polygon fill="none" stroke="black" points="10,-211 10,-233 221,-233 221,-211 10,-211"/>
<text text-anchor="start" x="30" y="-217.55" font-family="Helvetica,sans-Serif" font-size="11.00">token_contract_address_hash</text>
<polygon fill="none" stroke="black" points="221,-211 221,-233 319,-233 319,-211 221,-211"/>
<text text-anchor="start" x="223.88" y="-217.55" font-family="Helvetica,sans-Serif" font-size="11.00">bytea[2147483647]</text>
<polygon fill="#ffffff" stroke="none" points="10,-189 10,-211 221,-211 221,-189 10,-189"/>
<polygon fill="none" stroke="black" points="10,-189 10,-211 221,-211 221,-189 10,-189"/>
<text text-anchor="start" x="30" y="-195.55" font-family="Helvetica,sans-Serif" font-size="11.00">value</text>
<polygon fill="none" stroke="black" points="221,-189 221,-211 319,-211 319,-189 221,-189"/>
<text text-anchor="start" x="224" y="-195.55" font-family="Helvetica,sans-Serif" font-size="11.00">numeric[0]</text>
<polygon fill="none" stroke="black" points="10,-167 10,-189 221,-189 221,-167 10,-167"/>
<text text-anchor="start" x="30" y="-173.55" font-family="Helvetica,sans-Serif" font-size="11.00">value_fetched_at</text>
<polygon fill="none" stroke="black" points="221,-167 221,-189 319,-189 319,-167 221,-167"/>
<text text-anchor="start" x="224" y="-173.55" font-family="Helvetica,sans-Serif" font-size="11.00">timestamp[29,6]</text>
<polygon fill="none" stroke="black" points="10,-145 10,-167 221,-167 221,-145 10,-145"/>
<text text-anchor="start" x="30" y="-151.55" font-family="Helvetica,sans-Serif" font-size="11.00">inserted_at</text>
<polygon fill="none" stroke="black" points="221,-145 221,-167 319,-167 319,-145 221,-145"/>
<text text-anchor="start" x="224" y="-151.55" font-family="Helvetica,sans-Serif" font-size="11.00">timestamp[29,6]</text>
<polygon fill="none" stroke="black" points="10,-123 10,-145 221,-145 221,-123 10,-123"/>
<text text-anchor="start" x="30" y="-129.55" font-family="Helvetica,sans-Serif" font-size="11.00">updated_at</text>
<polygon fill="none" stroke="black" points="221,-123 221,-145 319,-145 319,-123 221,-123"/>
<text text-anchor="start" x="224" y="-129.55" font-family="Helvetica,sans-Serif" font-size="11.00">timestamp[29,6]</text>
<polygon fill="none" stroke="black" points="10,-101 10,-123 221,-123 221,-101 10,-101"/>
<text text-anchor="start" x="30" y="-107.55" font-family="Helvetica,sans-Serif" font-size="11.00">old_value</text>
<polygon fill="none" stroke="black" points="221,-101 221,-123 319,-123 319,-101 221,-101"/>
<text text-anchor="start" x="224" y="-107.55" font-family="Helvetica,sans-Serif" font-size="11.00">numeric[0]</text>
<polygon fill="#ffffff" stroke="none" points="10,-79 10,-101 221,-101 221,-79 10,-79"/>
<polygon fill="none" stroke="black" points="10,-79 10,-101 221,-101 221,-79 10,-79"/>
<text text-anchor="start" x="30" y="-85.55" font-family="Helvetica,sans-Serif" font-size="11.00">token_id</text>
<polygon fill="none" stroke="black" points="221,-79 221,-101 319,-101 319,-79 221,-79"/>
<text text-anchor="start" x="224" y="-85.55" font-family="Helvetica,sans-Serif" font-size="11.00">numeric[78]</text>
<polygon fill="none" stroke="black" points="10,-57 10,-79 221,-79 221,-57 10,-57"/>
<text text-anchor="start" x="30" y="-63.55" font-family="Helvetica,sans-Serif" font-size="11.00">token_type</text>
<polygon fill="none" stroke="black" points="221,-57 221,-79 319,-79 319,-57 221,-57"/>
<text text-anchor="start" x="224" y="-63.55" font-family="Helvetica,sans-Serif" font-size="11.00">varchar[255]</text>
<polygon fill="#ffffff" stroke="none" points="10,-39 10,-57 120,-57 120,-39 10,-39"/>
<polygon fill="none" stroke="black" points="10,-39 10,-57 120,-57 120,-39 10,-39"/>
<text text-anchor="start" x="13" y="-43.55" font-family="Helvetica,sans-Serif" font-size="11.00">&lt; 0</text>
<polygon fill="#ffffff" stroke="none" points="120,-39 120,-57 221,-57 221,-39 120,-39"/>
<polygon fill="none" stroke="black" points="120,-39 120,-57 221,-57 221,-39 120,-39"/>
<text text-anchor="start" x="212" y="-43.55" font-family="Helvetica,sans-Serif" font-size="11.00"> &#160;</text>
<polygon fill="#ffffff" stroke="none" points="221,-39 221,-57 319,-57 319,-39 221,-39"/>
<polygon fill="none" stroke="black" points="221,-39 221,-57 319,-57 319,-39 221,-39"/>
<text text-anchor="start" x="300.25" y="-43.55" font-family="Helvetica,sans-Serif" font-size="11.00">0 &gt;</text>
<polygon fill="none" stroke="black" stroke-width="2" points="9,-38 9,-322 320,-322 320,-38 9,-38"/>
</a>
</g>
</g>
</g>
</svg>
