<?xml version="1.0" encoding="UTF-8" standalone="no"?>
<!DOCTYPE svg PUBLIC "-//W3C//DTD SVG 1.1//EN"
 "http://www.w3.org/Graphics/SVG/1.1/DTD/svg11.dtd">
<!-- Generated by graphviz version 2.43.0 (0)
 -->
<!-- Title: oneDegreeRelationshipsDiagram Pages: 1 -->
<svg width="276pt" height="247pt"
 viewBox="0.00 0.00 276.00 247.00" xmlns="http://www.w3.org/2000/svg" xmlns:xlink="http://www.w3.org/1999/xlink">
<g id="graph0" class="graph" transform="scale(1 1) rotate(0) translate(4 243)">
<title>oneDegreeRelationshipsDiagram</title>
<polygon fill="#ffffff" stroke="transparent" points="-4,4 -4,-243 272,-243 272,4 -4,4"/>
<text text-anchor="middle" x="79.5" y="-7.2" font-family="Helvetica,sans-Serif" font-size="11.00">Generated by SchemaSpy</text>
<!-- address_names -->
<g id="node1" class="node">
<title>address_names</title>
<g id="a_node1"><a xlink:href="../../tables/address_names.html" xlink:title="address_names" target="_top">
<polygon fill="#ffffff" stroke="transparent" points="8,-37 8,-235 260,-235 260,-37 8,-37"/>
<polygon fill="#f5f5f5" stroke="transparent" points="10,-211 10,-233 258,-233 258,-211 10,-211"/>
<polygon fill="none" stroke="black" points="10,-211 10,-233 258,-233 258,-211 10,-211"/>
<text text-anchor="start" x="15" y="-220.2" font-family="Helvetica,sans-Serif" font-weight="bold" font-size="11.00">address_names</text>
<text text-anchor="start" x="216" y="-219.2" font-family="Helvetica,sans-Serif" font-size="11.00">[table]</text>
<polygon fill="#ffffff" stroke="transparent" points="10,-189 10,-211 143,-211 143,-189 10,-189"/>
<polygon fill="none" stroke="black" points="10,-189 10,-211 143,-211 143,-189 10,-189"/>
<text text-anchor="start" x="30" y="-197.2" font-family="Helvetica,sans-Serif" font-size="11.00">address_hash</text>
<polygon fill="none" stroke="black" points="143,-189 143,-211 258,-211 258,-189 143,-189"/>
<text text-anchor="start" x="146" y="-197.2" font-family="Helvetica,sans-Serif" font-size="11.00">bytea[2147483647]</text>
<polygon fill="#ffffff" stroke="transparent" points="10,-167 10,-189 143,-189 143,-167 10,-167"/>
<polygon fill="none" stroke="black" points="10,-167 10,-189 143,-189 143,-167 10,-167"/>
<text text-anchor="start" x="30" y="-175.2" font-family="Helvetica,sans-Serif" font-size="11.00">name</text>
<polygon fill="none" stroke="black" points="143,-167 143,-189 258,-189 258,-167 143,-167"/>
<text text-anchor="start" x="146" y="-175.2" font-family="Helvetica,sans-Serif" font-size="11.00">varchar[255]</text>
<polygon fill="none" stroke="black" points="10,-145 10,-167 143,-167 143,-145 10,-145"/>
<text text-anchor="start" x="30" y="-153.2" font-family="Helvetica,sans-Serif" font-size="11.00">primary</text>
<polygon fill="none" stroke="black" points="143,-145 143,-167 258,-167 258,-145 143,-145"/>
<text text-anchor="start" x="146" y="-153.2" font-family="Helvetica,sans-Serif" font-size="11.00">bool[1]</text>
<polygon fill="none" stroke="black" points="10,-123 10,-145 143,-145 143,-123 10,-123"/>
<text text-anchor="start" x="30" y="-131.2" font-family="Helvetica,sans-Serif" font-size="11.00">inserted_at</text>
<polygon fill="none" stroke="black" points="143,-123 143,-145 258,-145 258,-123 143,-123"/>
<text text-anchor="start" x="146" y="-131.2" font-family="Helvetica,sans-Serif" font-size="11.00">timestamp[29,6]</text>
<polygon fill="none" stroke="black" points="10,-101 10,-123 143,-123 143,-101 10,-101"/>
<text text-anchor="start" x="30" y="-109.2" font-family="Helvetica,sans-Serif" font-size="11.00">updated_at</text>
<polygon fill="none" stroke="black" points="143,-101 143,-123 258,-123 258,-101 143,-101"/>
<text text-anchor="start" x="146" y="-109.2" font-family="Helvetica,sans-Serif" font-size="11.00">timestamp[29,6]</text>
<polygon fill="none" stroke="black" points="10,-79 10,-101 143,-101 143,-79 10,-79"/>
<text text-anchor="start" x="30" y="-87.2" font-family="Helvetica,sans-Serif" font-size="11.00">metadata</text>
<polygon fill="none" stroke="black" points="143,-79 143,-101 258,-101 258,-79 143,-79"/>
<text text-anchor="start" x="146" y="-87.2" font-family="Helvetica,sans-Serif" font-size="11.00">jsonb[2147483647]</text>
<polygon fill="none" stroke="black" points="10,-57 10,-79 143,-79 143,-57 10,-57"/>
<image xlink:href="../../images/primaryKeys.png" width="11px" height="12px" preserveAspectRatio="xMinYMin meet" x="15" y="-74"/>
<text text-anchor="start" x="30" y="-65.2" font-family="Helvetica,sans-Serif" font-size="11.00">id</text>
<polygon fill="none" stroke="black" points="143,-57 143,-79 258,-79 258,-57 143,-57"/>
<text text-anchor="start" x="146" y="-65.2" font-family="Helvetica,sans-Serif" font-size="11.00">serial[10]</text>
<polygon fill="#ffffff" stroke="transparent" points="10,-39 10,-57 258,-57 258,-39 10,-39"/>
<polygon fill="none" stroke="black" points="10,-39 10,-57 258,-57 258,-39 10,-39"/>
<polygon fill="#ffffff" stroke="transparent" points="11,-40 11,-56 97,-56 97,-40 11,-40"/>
<text text-anchor="start" x="13" y="-45.2" font-family="Helvetica,sans-Serif" font-size="11.00">&lt; 0</text>
<polygon fill="#ffffff" stroke="transparent" points="97,-40 97,-56 171,-56 171,-40 97,-40"/>
<text text-anchor="start" x="130" y="-45.2" font-family="Helvetica,sans-Serif" font-size="11.00"> &#160;</text>
<polygon fill="#ffffff" stroke="transparent" points="171,-40 171,-56 257,-56 257,-40 171,-40"/>
<text text-anchor="start" x="235" y="-45.2" font-family="Helvetica,sans-Serif" font-size="11.00">0 &gt;</text>
<polygon fill="black" stroke="black" points="97,-40 97,-56 97,-56 97,-40 97,-40"/>
<polygon fill="black" stroke="black" points="171,-40 171,-56 171,-56 171,-40 171,-40"/>
<polygon fill="none" stroke="black" stroke-width="2" points="9,-38 9,-234 259,-234 259,-38 9,-38"/>
</a>
</g>
</g>
</g>
</svg>
