<?xml version="1.0" encoding="UTF-8" standalone="no"?>
<!DOCTYPE svg PUBLIC "-//W3C//DTD SVG 1.1//EN"
 "http://www.w3.org/Graphics/SVG/1.1/DTD/svg11.dtd">
<!-- Generated by graphviz version 9.0.0 (20230911.1827)
 -->
<!-- Title: oneDegreeRelationshipsDiagram Pages: 1 -->
<svg width="361pt" height="357pt"
 viewBox="0.00 0.00 361.00 357.00" xmlns="http://www.w3.org/2000/svg" xmlns:xlink="http://www.w3.org/1999/xlink">
<g id="graph0" class="graph" transform="scale(1 1) rotate(0) translate(4 353)">
<title>oneDegreeRelationshipsDiagram</title>
<polygon fill="#ffffff" stroke="none" points="-4,4 -4,-353 357,-353 357,4 -4,4"/>
<text text-anchor="middle" x="71.38" y="-5.55" font-family="Helvetica,sans-Serif" font-size="11.00">Generated by SchemaSpy</text>
<!-- addresses -->
<g id="node1" class="node">
<title>addresses</title>
<g id="a_node1"><a xlink:href="../../tables/addresses.html" xlink:title="addresses" target="_top">
<polygon fill="#ffffff" stroke="none" points="8,-37 8,-345 345,-345 345,-37 8,-37"/>
<polygon fill="#f5f5f5" stroke="none" points="10,-321 10,-343 343,-343 343,-321 10,-321"/>
<polygon fill="none" stroke="black" points="10,-321 10,-343 343,-343 343,-321 10,-321"/>
<text text-anchor="start" x="15" y="-328.55" font-family="Helvetica,sans-Serif" font-weight="bold" font-size="11.00">addresses</text>
<text text-anchor="start" x="308.75" y="-327.55" font-family="Helvetica,sans-Serif" font-size="11.00">[table]</text>
<polygon fill="#ffffff" stroke="none" points="10,-299 10,-321 245,-321 245,-299 10,-299"/>
<polygon fill="none" stroke="black" points="10,-299 10,-321 245,-321 245,-299 10,-299"/>
<text text-anchor="start" x="30" y="-305.55" font-family="Helvetica,sans-Serif" font-size="11.00">fetched_coin_balance</text>
<polygon fill="none" stroke="black" points="245,-299 245,-321 343,-321 343,-299 245,-299"/>
<text text-anchor="start" x="248" y="-305.55" font-family="Helvetica,sans-Serif" font-size="11.00">numeric[100]</text>
<polygon fill="none" stroke="black" points="10,-277 10,-299 245,-299 245,-277 10,-277"/>
<text text-anchor="start" x="30" y="-283.55" font-family="Helvetica,sans-Serif" font-size="11.00">fetched_coin_balance_block_number</text>
<polygon fill="none" stroke="black" points="245,-277 245,-299 343,-299 343,-277 245,-277"/>
<text text-anchor="start" x="248" y="-283.55" font-family="Helvetica,sans-Serif" font-size="11.00">int8[19]</text>
<polygon fill="none" stroke="black" points="10,-255 10,-277 245,-277 245,-255 10,-255"/>
<image xlink:href="../../images/primaryKeys.png" width="11px" height="12px" preserveAspectRatio="xMinYMin meet" x="15" y="-272"/>
<text text-anchor="start" x="30" y="-261.55" font-family="Helvetica,sans-Serif" font-size="11.00">hash</text>
<polygon fill="none" stroke="black" points="245,-255 245,-277 343,-277 343,-255 245,-255"/>
<text text-anchor="start" x="247.88" y="-261.55" font-family="Helvetica,sans-Serif" font-size="11.00">bytea[2147483647]</text>
<polygon fill="none" stroke="black" points="10,-233 10,-255 245,-255 245,-233 10,-233"/>
<text text-anchor="start" x="30" y="-239.55" font-family="Helvetica,sans-Serif" font-size="11.00">contract_code</text>
<polygon fill="none" stroke="black" points="245,-233 245,-255 343,-255 343,-233 245,-233"/>
<text text-anchor="start" x="247.88" y="-239.55" font-family="Helvetica,sans-Serif" font-size="11.00">bytea[2147483647]</text>
<polygon fill="#ffffff" stroke="none" points="10,-211 10,-233 245,-233 245,-211 10,-211"/>
<polygon fill="none" stroke="black" points="10,-211 10,-233 245,-233 245,-211 10,-211"/>
<text text-anchor="start" x="30" y="-217.55" font-family="Helvetica,sans-Serif" font-size="11.00">inserted_at</text>
<polygon fill="none" stroke="black" points="245,-211 245,-233 343,-233 343,-211 245,-211"/>
<text text-anchor="start" x="248" y="-217.55" font-family="Helvetica,sans-Serif" font-size="11.00">timestamp[29,6]</text>
<polygon fill="none" stroke="black" points="10,-189 10,-211 245,-211 245,-189 10,-189"/>
<text text-anchor="start" x="30" y="-195.55" font-family="Helvetica,sans-Serif" font-size="11.00">updated_at</text>
<polygon fill="none" stroke="black" points="245,-189 245,-211 343,-211 343,-189 245,-189"/>
<text text-anchor="start" x="248" y="-195.55" font-family="Helvetica,sans-Serif" font-size="11.00">timestamp[29,6]</text>
<polygon fill="none" stroke="black" points="10,-167 10,-189 245,-189 245,-167 10,-167"/>
<text text-anchor="start" x="30" y="-173.55" font-family="Helvetica,sans-Serif" font-size="11.00">nonce</text>
<polygon fill="none" stroke="black" points="245,-167 245,-189 343,-189 343,-167 245,-167"/>
<text text-anchor="start" x="248" y="-173.55" font-family="Helvetica,sans-Serif" font-size="11.00">int4[10]</text>
<polygon fill="none" stroke="black" points="10,-145 10,-167 245,-167 245,-145 10,-145"/>
<text text-anchor="start" x="30" y="-151.55" font-family="Helvetica,sans-Serif" font-size="11.00">decompiled</text>
<polygon fill="none" stroke="black" points="245,-145 245,-167 343,-167 343,-145 245,-145"/>
<text text-anchor="start" x="248" y="-151.55" font-family="Helvetica,sans-Serif" font-size="11.00">bool[1]</text>
<polygon fill="none" stroke="black" points="10,-123 10,-145 245,-145 245,-123 10,-123"/>
<text text-anchor="start" x="30" y="-129.55" font-family="Helvetica,sans-Serif" font-size="11.00">verified</text>
<polygon fill="none" stroke="black" points="245,-123 245,-145 343,-145 343,-123 245,-123"/>
<text text-anchor="start" x="248" y="-129.55" font-family="Helvetica,sans-Serif" font-size="11.00">bool[1]</text>
<polygon fill="none" stroke="black" points="10,-101 10,-123 245,-123 245,-101 10,-101"/>
<text text-anchor="start" x="30" y="-107.55" font-family="Helvetica,sans-Serif" font-size="11.00">gas_used</text>
<polygon fill="none" stroke="black" points="245,-101 245,-123 343,-123 343,-101 245,-101"/>
<text text-anchor="start" x="248" y="-107.55" font-family="Helvetica,sans-Serif" font-size="11.00">int8[19]</text>
<polygon fill="none" stroke="black" points="10,-79 10,-101 245,-101 245,-79 10,-79"/>
<text text-anchor="start" x="30" y="-85.55" font-family="Helvetica,sans-Serif" font-size="11.00">transactions_count</text>
<polygon fill="none" stroke="black" points="245,-79 245,-101 343,-101 343,-79 245,-79"/>
<text text-anchor="start" x="248" y="-85.55" font-family="Helvetica,sans-Serif" font-size="11.00">int4[10]</text>
<polygon fill="none" stroke="black" points="10,-57 10,-79 245,-79 245,-57 10,-57"/>
<text text-anchor="start" x="30" y="-63.55" font-family="Helvetica,sans-Serif" font-size="11.00">token_transfers_count</text>
<polygon fill="none" stroke="black" points="245,-57 245,-79 343,-79 343,-57 245,-57"/>
<text text-anchor="start" x="248" y="-63.55" font-family="Helvetica,sans-Serif" font-size="11.00">int4[10]</text>
<polygon fill="#ffffff" stroke="none" points="10,-39 10,-57 132,-57 132,-39 10,-39"/>
<polygon fill="none" stroke="black" points="10,-39 10,-57 132,-57 132,-39 10,-39"/>
<text text-anchor="start" x="13" y="-43.55" font-family="Helvetica,sans-Serif" font-size="11.00">&lt; 0</text>
<polygon fill="#ffffff" stroke="none" points="132,-39 132,-57 245,-57 245,-39 132,-39"/>
<polygon fill="none" stroke="black" points="132,-39 132,-57 245,-57 245,-39 132,-39"/>
<text text-anchor="start" x="236" y="-43.55" font-family="Helvetica,sans-Serif" font-size="11.00"> &#160;</text>
<polygon fill="#ffffff" stroke="none" points="245,-39 245,-57 343,-57 343,-39 245,-39"/>
<polygon fill="none" stroke="black" points="245,-39 245,-57 343,-57 343,-39 245,-39"/>
<text text-anchor="start" x="324.25" y="-43.55" font-family="Helvetica,sans-Serif" font-size="11.00">0 &gt;</text>
<polygon fill="none" stroke="black" stroke-width="2" points="9,-38 9,-344 344,-344 344,-38 9,-38"/>
</a>
</g>
</g>
</g>
</svg>
