<?xml version="1.0" encoding="UTF-8" standalone="no"?>
<!DOCTYPE svg PUBLIC "-//W3C//DTD SVG 1.1//EN"
 "http://www.w3.org/Graphics/SVG/1.1/DTD/svg11.dtd">
<!-- Generated by graphviz version 2.43.0 (0)
 -->
<!-- Title: oneDegreeRelationshipsDiagram Pages: 1 -->
<svg width="756pt" height="357pt"
 viewBox="0.00 0.00 756.00 357.00" xmlns="http://www.w3.org/2000/svg" xmlns:xlink="http://www.w3.org/1999/xlink">
<g id="graph0" class="graph" transform="scale(1 1) rotate(0) translate(4 353)">
<title>oneDegreeRelationshipsDiagram</title>
<polygon fill="#ffffff" stroke="transparent" points="-4,4 -4,-353 752,-353 752,4 -4,4"/>
<text text-anchor="middle" x="79.5" y="-7.2" font-family="Helvetica,sans-Serif" font-size="11.00">Generated by SchemaSpy</text>
<!-- scam_address_badge_mappings -->
<g id="node1" class="node">
<title>scam_address_badge_mappings</title>
<g id="a_node1"><a xlink:href="../../tables/scam_address_badge_mappings.html" xlink:title="scam_address_badge_mappings" target="_top">
<polygon fill="#ffffff" stroke="transparent" points="461,-219 461,-299 740,-299 740,-219 461,-219"/>
<polygon fill="#f5f5f5" stroke="transparent" points="461.5,-277 461.5,-299 740.5,-299 740.5,-277 461.5,-277"/>
<polygon fill="none" stroke="black" points="461.5,-277 461.5,-299 740.5,-299 740.5,-277 461.5,-277"/>
<text text-anchor="start" x="466.5" y="-286.2" font-family="Helvetica,sans-Serif" font-weight="bold" font-size="11.00">scam_address_badge_mappings</text>
<text text-anchor="start" x="698.5" y="-285.2" font-family="Helvetica,sans-Serif" font-size="11.00">[table]</text>
<polygon fill="none" stroke="black" points="461.5,-255 461.5,-277 740.5,-277 740.5,-255 461.5,-255"/>
<image xlink:href="../../images/primaryKeys.png" width="11px" height="12px" preserveAspectRatio="xMinYMin meet" x="466.5" y="-272"/>
<text text-anchor="start" x="494.5" y="-263.2" font-family="Helvetica,sans-Serif" font-size="11.00">address_hash</text>
<polygon fill="none" stroke="black" points="461.5,-237 461.5,-255 740.5,-255 740.5,-237 461.5,-237"/>
<text text-anchor="start" x="464.5" y="-243.2" font-family="Helvetica,sans-Serif" font-size="11.00">...</text>
<polygon fill="#ffffff" stroke="transparent" points="461.5,-219 461.5,-237 740.5,-237 740.5,-219 461.5,-219"/>
<polygon fill="none" stroke="black" points="461.5,-219 461.5,-237 740.5,-237 740.5,-219 461.5,-219"/>
<polygon fill="#ffffff" stroke="transparent" points="462.5,-220 462.5,-236 563.5,-236 563.5,-220 462.5,-220"/>
<text text-anchor="start" x="464.5" y="-225.2" font-family="Helvetica,sans-Serif" font-size="11.00">&lt; 1</text>
<polygon fill="#ffffff" stroke="transparent" points="563.5,-220 563.5,-236 651.5,-236 651.5,-220 563.5,-220"/>
<text text-anchor="start" x="603.5" y="-225.2" font-family="Helvetica,sans-Serif" font-size="11.00"> &#160;</text>
<polygon fill="#ffffff" stroke="transparent" points="651.5,-220 651.5,-236 739.5,-236 739.5,-220 651.5,-220"/>
<text text-anchor="start" x="729.5" y="-225.2" font-family="Helvetica,sans-Serif" font-size="11.00"> &#160;</text>
<polygon fill="black" stroke="black" points="563.5,-220 563.5,-236 563.5,-236 563.5,-220 563.5,-220"/>
<polygon fill="black" stroke="black" points="651.5,-220 651.5,-236 651.5,-236 651.5,-220 651.5,-220"/>
</a>
</g>
</g>
<!-- addresses -->
<g id="node2" class="node">
<title>addresses</title>
<g id="a_node2"><a xlink:href="../../tables/addresses.html" xlink:title="addresses" target="_top">
<polygon fill="#ffffff" stroke="transparent" points="8,-37 8,-345 412,-345 412,-37 8,-37"/>
<polygon fill="#f5f5f5" stroke="transparent" points="10,-321 10,-343 410,-343 410,-321 10,-321"/>
<polygon fill="none" stroke="black" points="10,-321 10,-343 410,-343 410,-321 10,-321"/>
<text text-anchor="start" x="15" y="-330.2" font-family="Helvetica,sans-Serif" font-weight="bold" font-size="11.00">addresses</text>
<text text-anchor="start" x="368" y="-329.2" font-family="Helvetica,sans-Serif" font-size="11.00">[table]</text>
<polygon fill="#ffffff" stroke="transparent" points="10,-299 10,-321 295,-321 295,-299 10,-299"/>
<polygon fill="none" stroke="black" points="10,-299 10,-321 295,-321 295,-299 10,-299"/>
<text text-anchor="start" x="30" y="-307.2" font-family="Helvetica,sans-Serif" font-size="11.00">fetched_coin_balance</text>
<polygon fill="none" stroke="black" points="295,-299 295,-321 410,-321 410,-299 295,-299"/>
<text text-anchor="start" x="298" y="-307.2" font-family="Helvetica,sans-Serif" font-size="11.00">numeric[100]</text>
<polygon fill="none" stroke="black" points="10,-277 10,-299 295,-299 295,-277 10,-277"/>
<text text-anchor="start" x="30" y="-285.2" font-family="Helvetica,sans-Serif" font-size="11.00">fetched_coin_balance_block_number</text>
<polygon fill="none" stroke="black" points="295,-277 295,-299 410,-299 410,-277 295,-277"/>
<text text-anchor="start" x="298" y="-285.2" font-family="Helvetica,sans-Serif" font-size="11.00">int8[19]</text>
<polygon fill="none" stroke="black" points="10,-255 10,-277 295,-277 295,-255 10,-255"/>
<image xlink:href="../../images/primaryKeys.png" width="11px" height="12px" preserveAspectRatio="xMinYMin meet" x="15" y="-272"/>
<text text-anchor="start" x="30" y="-263.2" font-family="Helvetica,sans-Serif" font-size="11.00">hash</text>
<polygon fill="none" stroke="black" points="295,-255 295,-277 410,-277 410,-255 295,-255"/>
<text text-anchor="start" x="298" y="-263.2" font-family="Helvetica,sans-Serif" font-size="11.00">bytea[2147483647]</text>
<polygon fill="none" stroke="black" points="10,-233 10,-255 295,-255 295,-233 10,-233"/>
<text text-anchor="start" x="30" y="-241.2" font-family="Helvetica,sans-Serif" font-size="11.00">contract_code</text>
<polygon fill="none" stroke="black" points="295,-233 295,-255 410,-255 410,-233 295,-233"/>
<text text-anchor="start" x="298" y="-241.2" font-family="Helvetica,sans-Serif" font-size="11.00">bytea[2147483647]</text>
<polygon fill="#ffffff" stroke="transparent" points="10,-211 10,-233 295,-233 295,-211 10,-211"/>
<polygon fill="none" stroke="black" points="10,-211 10,-233 295,-233 295,-211 10,-211"/>
<text text-anchor="start" x="30" y="-219.2" font-family="Helvetica,sans-Serif" font-size="11.00">inserted_at</text>
<polygon fill="none" stroke="black" points="295,-211 295,-233 410,-233 410,-211 295,-211"/>
<text text-anchor="start" x="298" y="-219.2" font-family="Helvetica,sans-Serif" font-size="11.00">timestamp[29,6]</text>
<polygon fill="none" stroke="black" points="10,-189 10,-211 295,-211 295,-189 10,-189"/>
<text text-anchor="start" x="30" y="-197.2" font-family="Helvetica,sans-Serif" font-size="11.00">updated_at</text>
<polygon fill="none" stroke="black" points="295,-189 295,-211 410,-211 410,-189 295,-189"/>
<text text-anchor="start" x="298" y="-197.2" font-family="Helvetica,sans-Serif" font-size="11.00">timestamp[29,6]</text>
<polygon fill="none" stroke="black" points="10,-167 10,-189 295,-189 295,-167 10,-167"/>
<text text-anchor="start" x="30" y="-175.2" font-family="Helvetica,sans-Serif" font-size="11.00">nonce</text>
<polygon fill="none" stroke="black" points="295,-167 295,-189 410,-189 410,-167 295,-167"/>
<text text-anchor="start" x="298" y="-175.2" font-family="Helvetica,sans-Serif" font-size="11.00">int4[10]</text>
<polygon fill="none" stroke="black" points="10,-145 10,-167 295,-167 295,-145 10,-145"/>
<text text-anchor="start" x="30" y="-153.2" font-family="Helvetica,sans-Serif" font-size="11.00">decompiled</text>
<polygon fill="none" stroke="black" points="295,-145 295,-167 410,-167 410,-145 295,-145"/>
<text text-anchor="start" x="298" y="-153.2" font-family="Helvetica,sans-Serif" font-size="11.00">bool[1]</text>
<polygon fill="none" stroke="black" points="10,-123 10,-145 295,-145 295,-123 10,-123"/>
<text text-anchor="start" x="30" y="-131.2" font-family="Helvetica,sans-Serif" font-size="11.00">verified</text>
<polygon fill="none" stroke="black" points="295,-123 295,-145 410,-145 410,-123 295,-123"/>
<text text-anchor="start" x="298" y="-131.2" font-family="Helvetica,sans-Serif" font-size="11.00">bool[1]</text>
<polygon fill="none" stroke="black" points="10,-101 10,-123 295,-123 295,-101 10,-101"/>
<text text-anchor="start" x="30" y="-109.2" font-family="Helvetica,sans-Serif" font-size="11.00">gas_used</text>
<polygon fill="none" stroke="black" points="295,-101 295,-123 410,-123 410,-101 295,-101"/>
<text text-anchor="start" x="298" y="-109.2" font-family="Helvetica,sans-Serif" font-size="11.00">int8[19]</text>
<polygon fill="none" stroke="black" points="10,-79 10,-101 295,-101 295,-79 10,-79"/>
<text text-anchor="start" x="30" y="-87.2" font-family="Helvetica,sans-Serif" font-size="11.00">transactions_count</text>
<polygon fill="none" stroke="black" points="295,-79 295,-101 410,-101 410,-79 295,-79"/>
<text text-anchor="start" x="298" y="-87.2" font-family="Helvetica,sans-Serif" font-size="11.00">int4[10]</text>
<polygon fill="none" stroke="black" points="10,-57 10,-79 295,-79 295,-57 10,-57"/>
<text text-anchor="start" x="30" y="-65.2" font-family="Helvetica,sans-Serif" font-size="11.00">token_transfers_count</text>
<polygon fill="none" stroke="black" points="295,-57 295,-79 410,-79 410,-57 295,-57"/>
<text text-anchor="start" x="298" y="-65.2" font-family="Helvetica,sans-Serif" font-size="11.00">int4[10]</text>
<polygon fill="#ffffff" stroke="transparent" points="10,-39 10,-57 410,-57 410,-39 10,-39"/>
<polygon fill="none" stroke="black" points="10,-39 10,-57 410,-57 410,-39 10,-39"/>
<polygon fill="#ffffff" stroke="transparent" points="11,-40 11,-56 148,-56 148,-40 11,-40"/>
<text text-anchor="start" x="13" y="-45.2" font-family="Helvetica,sans-Serif" font-size="11.00">&lt; 0</text>
<polygon fill="#ffffff" stroke="transparent" points="148,-40 148,-56 273,-56 273,-40 148,-40"/>
<text text-anchor="start" x="206.5" y="-45.2" font-family="Helvetica,sans-Serif" font-size="11.00"> &#160;</text>
<polygon fill="#ffffff" stroke="transparent" points="273,-40 273,-56 409,-56 409,-40 273,-40"/>
<text text-anchor="start" x="387" y="-45.2" font-family="Helvetica,sans-Serif" font-size="11.00">1 &gt;</text>
<polygon fill="black" stroke="black" points="148,-40 148,-56 148,-56 148,-40 148,-40"/>
<polygon fill="black" stroke="black" points="273,-40 273,-56 273,-56 273,-40 273,-40"/>
<polygon fill="none" stroke="black" stroke-width="2" points="9,-38 9,-344 411,-344 411,-38 9,-38"/>
</a>
</g>
</g>
<!-- scam_address_badge_mappings&#45;&gt;addresses -->
<g id="edge1" class="edge">
<title>scam_address_badge_mappings:w&#45;&gt;addresses:e</title>
<path fill="none" stroke="black" d="M450.05,-266C435.99,-266 429.05,-266 411,-266"/>
<polygon fill="black" stroke="black" points="459.7,-262 459.7,-270 458.1,-270 458.1,-262 459.7,-262"/>
<polyline fill="none" stroke="black" points="460.5,-266 456.5,-266 "/>
<ellipse fill="none" stroke="black" cx="453.3" cy="-266" rx="3.2" ry="3.2"/>
</g>
</g>
</svg>
