<?xml version="1.0" encoding="UTF-8" standalone="no"?>
<!DOCTYPE svg PUBLIC "-//W3C//DTD SVG 1.1//EN"
 "http://www.w3.org/Graphics/SVG/1.1/DTD/svg11.dtd">
<!-- Generated by graphviz version 2.43.0 (0)
 -->
<!-- Title: oneDegreeRelationshipsDiagram Pages: 1 -->
<svg width="461pt" height="245pt"
 viewBox="0.00 0.00 461.00 245.00" xmlns="http://www.w3.org/2000/svg" xmlns:xlink="http://www.w3.org/1999/xlink">
<g id="graph0" class="graph" transform="scale(1 1) rotate(0) translate(4 241)">
<title>oneDegreeRelationshipsDiagram</title>
<polygon fill="#ffffff" stroke="transparent" points="-4,4 -4,-241 457,-241 457,4 -4,4"/>
<text text-anchor="middle" x="79.5" y="-7.2" font-family="Helvetica,sans-Serif" font-size="11.00">Generated by SchemaSpy</text>
<!-- address_to_tags -->
<g id="node1" class="node">
<title>address_to_tags</title>
<g id="a_node1"><a xlink:href="../../tables/address_to_tags.html" xlink:title="address_to_tags" target="_top">
<polygon fill="#ffffff" stroke="transparent" points="280,-109 280,-233 445,-233 445,-109 280,-109"/>
<polygon fill="#f5f5f5" stroke="transparent" points="280.5,-211 280.5,-233 445.5,-233 445.5,-211 280.5,-211"/>
<polygon fill="none" stroke="black" points="280.5,-211 280.5,-233 445.5,-233 445.5,-211 280.5,-211"/>
<text text-anchor="start" x="285.5" y="-220.2" font-family="Helvetica,sans-Serif" font-weight="bold" font-size="11.00">address_to_tags</text>
<text text-anchor="start" x="403.5" y="-219.2" font-family="Helvetica,sans-Serif" font-size="11.00">[table]</text>
<polygon fill="none" stroke="black" points="280.5,-189 280.5,-211 445.5,-211 445.5,-189 280.5,-189"/>
<image xlink:href="../../images/primaryKeys.png" width="11px" height="12px" preserveAspectRatio="xMinYMin meet" x="285.5" y="-206"/>
<text text-anchor="start" x="313.5" y="-197.2" font-family="Helvetica,sans-Serif" font-size="11.00">id</text>
<polygon fill="#ffffff" stroke="transparent" points="280.5,-167 280.5,-189 445.5,-189 445.5,-167 280.5,-167"/>
<polygon fill="none" stroke="black" points="280.5,-167 280.5,-189 445.5,-189 445.5,-167 280.5,-167"/>
<text text-anchor="start" x="313.5" y="-175.2" font-family="Helvetica,sans-Serif" font-size="11.00">address_hash</text>
<polygon fill="#ffffff" stroke="transparent" points="280.5,-145 280.5,-167 445.5,-167 445.5,-145 280.5,-145"/>
<polygon fill="none" stroke="black" points="280.5,-145 280.5,-167 445.5,-167 445.5,-145 280.5,-145"/>
<image xlink:href="../../images/foreignKeys.png" width="11px" height="12px" preserveAspectRatio="xMinYMin meet" x="285.5" y="-162"/>
<text text-anchor="start" x="313.5" y="-153.2" font-family="Helvetica,sans-Serif" font-size="11.00">tag_id</text>
<polygon fill="none" stroke="black" points="280.5,-127 280.5,-145 445.5,-145 445.5,-127 280.5,-127"/>
<text text-anchor="start" x="283.5" y="-133.2" font-family="Helvetica,sans-Serif" font-size="11.00">...</text>
<polygon fill="#ffffff" stroke="transparent" points="280.5,-109 280.5,-127 445.5,-127 445.5,-109 280.5,-109"/>
<polygon fill="none" stroke="black" points="280.5,-109 280.5,-127 445.5,-127 445.5,-109 280.5,-109"/>
<polygon fill="#ffffff" stroke="transparent" points="281.5,-110 281.5,-126 344.5,-126 344.5,-110 281.5,-110"/>
<text text-anchor="start" x="283.5" y="-115.2" font-family="Helvetica,sans-Serif" font-size="11.00">&lt; 1</text>
<polygon fill="#ffffff" stroke="transparent" points="344.5,-110 344.5,-126 394.5,-126 394.5,-110 344.5,-110"/>
<text text-anchor="start" x="365.5" y="-115.2" font-family="Helvetica,sans-Serif" font-size="11.00"> &#160;</text>
<polygon fill="#ffffff" stroke="transparent" points="394.5,-110 394.5,-126 444.5,-126 444.5,-110 394.5,-110"/>
<text text-anchor="start" x="434.5" y="-115.2" font-family="Helvetica,sans-Serif" font-size="11.00"> &#160;</text>
<polygon fill="black" stroke="black" points="344.5,-110 344.5,-126 344.5,-126 344.5,-110 344.5,-110"/>
<polygon fill="black" stroke="black" points="394.5,-110 394.5,-126 394.5,-126 394.5,-110 394.5,-110"/>
</a>
</g>
</g>
<!-- address_tags -->
<g id="node2" class="node">
<title>address_tags</title>
<g id="a_node2"><a xlink:href="../../tables/address_tags.html" xlink:title="address_tags" target="_top">
<polygon fill="#ffffff" stroke="transparent" points="8,-37 8,-191 231,-191 231,-37 8,-37"/>
<polygon fill="#f5f5f5" stroke="transparent" points="10.5,-167 10.5,-189 229.5,-189 229.5,-167 10.5,-167"/>
<polygon fill="none" stroke="black" points="10.5,-167 10.5,-189 229.5,-189 229.5,-167 10.5,-167"/>
<text text-anchor="start" x="15.5" y="-176.2" font-family="Helvetica,sans-Serif" font-weight="bold" font-size="11.00">address_tags</text>
<text text-anchor="start" x="187.5" y="-175.2" font-family="Helvetica,sans-Serif" font-size="11.00">[table]</text>
<polygon fill="#ffffff" stroke="transparent" points="10.5,-145 10.5,-167 130.5,-167 130.5,-145 10.5,-145"/>
<polygon fill="none" stroke="black" points="10.5,-145 10.5,-167 130.5,-167 130.5,-145 10.5,-145"/>
<text text-anchor="start" x="30.5" y="-153.2" font-family="Helvetica,sans-Serif" font-size="11.00">id</text>
<polygon fill="none" stroke="black" points="130.5,-145 130.5,-167 229.5,-167 229.5,-145 130.5,-145"/>
<text text-anchor="start" x="133.5" y="-153.2" font-family="Helvetica,sans-Serif" font-size="11.00">serial[10]</text>
<polygon fill="none" stroke="black" points="10.5,-123 10.5,-145 130.5,-145 130.5,-123 10.5,-123"/>
<image xlink:href="../../images/primaryKeys.png" width="11px" height="12px" preserveAspectRatio="xMinYMin meet" x="15.5" y="-140"/>
<text text-anchor="start" x="30.5" y="-131.2" font-family="Helvetica,sans-Serif" font-size="11.00">label</text>
<polygon fill="none" stroke="black" points="130.5,-123 130.5,-145 229.5,-145 229.5,-123 130.5,-123"/>
<text text-anchor="start" x="133.5" y="-131.2" font-family="Helvetica,sans-Serif" font-size="11.00">varchar[255]</text>
<polygon fill="none" stroke="black" points="10.5,-101 10.5,-123 130.5,-123 130.5,-101 10.5,-101"/>
<text text-anchor="start" x="30.5" y="-109.2" font-family="Helvetica,sans-Serif" font-size="11.00">inserted_at</text>
<polygon fill="none" stroke="black" points="130.5,-101 130.5,-123 229.5,-123 229.5,-101 130.5,-101"/>
<text text-anchor="start" x="133.5" y="-109.2" font-family="Helvetica,sans-Serif" font-size="11.00">timestamp[29,6]</text>
<polygon fill="none" stroke="black" points="10.5,-79 10.5,-101 130.5,-101 130.5,-79 10.5,-79"/>
<text text-anchor="start" x="30.5" y="-87.2" font-family="Helvetica,sans-Serif" font-size="11.00">updated_at</text>
<polygon fill="none" stroke="black" points="130.5,-79 130.5,-101 229.5,-101 229.5,-79 130.5,-79"/>
<text text-anchor="start" x="133.5" y="-87.2" font-family="Helvetica,sans-Serif" font-size="11.00">timestamp[29,6]</text>
<polygon fill="none" stroke="black" points="10.5,-57 10.5,-79 130.5,-79 130.5,-57 10.5,-57"/>
<text text-anchor="start" x="30.5" y="-65.2" font-family="Helvetica,sans-Serif" font-size="11.00">display_name</text>
<polygon fill="none" stroke="black" points="130.5,-57 130.5,-79 229.5,-79 229.5,-57 130.5,-57"/>
<text text-anchor="start" x="133.5" y="-65.2" font-family="Helvetica,sans-Serif" font-size="11.00">varchar[255]</text>
<polygon fill="#ffffff" stroke="transparent" points="10.5,-39 10.5,-57 229.5,-57 229.5,-39 10.5,-39"/>
<polygon fill="none" stroke="black" points="10.5,-39 10.5,-57 229.5,-57 229.5,-39 10.5,-39"/>
<polygon fill="#ffffff" stroke="transparent" points="11.5,-40 11.5,-56 88.5,-56 88.5,-40 11.5,-40"/>
<text text-anchor="start" x="13.5" y="-45.2" font-family="Helvetica,sans-Serif" font-size="11.00">&lt; 0</text>
<polygon fill="#ffffff" stroke="transparent" points="88.5,-40 88.5,-56 152.5,-56 152.5,-40 88.5,-40"/>
<text text-anchor="start" x="116.5" y="-45.2" font-family="Helvetica,sans-Serif" font-size="11.00"> &#160;</text>
<polygon fill="#ffffff" stroke="transparent" points="152.5,-40 152.5,-56 228.5,-56 228.5,-40 152.5,-40"/>
<text text-anchor="start" x="206.5" y="-45.2" font-family="Helvetica,sans-Serif" font-size="11.00">1 &gt;</text>
<polygon fill="black" stroke="black" points="88.5,-40 88.5,-56 88.5,-56 88.5,-40 88.5,-40"/>
<polygon fill="black" stroke="black" points="152.5,-40 152.5,-56 152.5,-56 152.5,-40 152.5,-40"/>
<polygon fill="none" stroke="black" stroke-width="2" points="9,-38 9,-190 230,-190 230,-38 9,-38"/>
</a>
</g>
</g>
<!-- address_to_tags&#45;&gt;address_tags -->
<g id="edge1" class="edge">
<title>address_to_tags:w&#45;&gt;address_tags:e</title>
<path fill="none" stroke="black" d="M264.99,-156C253.68,-156 246.49,-156 230.5,-156"/>
<polygon fill="black" stroke="black" points="271.5,-156 279.5,-159.6 275.5,-156 279.5,-156 279.5,-156 279.5,-156 275.5,-156 279.5,-152.4 271.5,-156 271.5,-156"/>
<ellipse fill="none" stroke="black" cx="268.3" cy="-156" rx="3.2" ry="3.2"/>
</g>
</g>
</svg>
