<?xml version="1.0" encoding="UTF-8" standalone="no"?>
<!DOCTYPE svg PUBLIC "-//W3C//DTD SVG 1.1//EN"
 "http://www.w3.org/Graphics/SVG/1.1/DTD/svg11.dtd">
<!-- Generated by graphviz version 2.43.0 (0)
 -->
<!-- Title: oneDegreeRelationshipsDiagram Pages: 1 -->
<svg width="437pt" height="203pt"
 viewBox="0.00 0.00 437.00 203.00" xmlns="http://www.w3.org/2000/svg" xmlns:xlink="http://www.w3.org/1999/xlink">
<g id="graph0" class="graph" transform="scale(1 1) rotate(0) translate(4 199)">
<title>oneDegreeRelationshipsDiagram</title>
<polygon fill="#ffffff" stroke="transparent" points="-4,4 -4,-199 433,-199 433,4 -4,4"/>
<text text-anchor="middle" x="79.5" y="-7.2" font-family="Helvetica,sans-Serif" font-size="11.00">Generated by SchemaSpy</text>
<!-- administrators -->
<g id="node1" class="node">
<title>administrators</title>
<g id="a_node1"><a xlink:href="../../tables/administrators.html" xlink:title="administrators" target="_top">
<polygon fill="#ffffff" stroke="transparent" points="189,-37 189,-191 421,-191 421,-37 189,-37"/>
<polygon fill="#f5f5f5" stroke="transparent" points="191,-167 191,-189 419,-189 419,-167 191,-167"/>
<polygon fill="none" stroke="black" points="191,-167 191,-189 419,-189 419,-167 191,-167"/>
<text text-anchor="start" x="196" y="-176.2" font-family="Helvetica,sans-Serif" font-weight="bold" font-size="11.00">administrators</text>
<text text-anchor="start" x="377" y="-175.2" font-family="Helvetica,sans-Serif" font-size="11.00">[table]</text>
<polygon fill="none" stroke="black" points="191,-145 191,-167 320,-167 320,-145 191,-145"/>
<image xlink:href="../../images/primaryKeys.png" width="11px" height="12px" preserveAspectRatio="xMinYMin meet" x="196" y="-162"/>
<text text-anchor="start" x="211" y="-153.2" font-family="Helvetica,sans-Serif" font-size="11.00">id</text>
<polygon fill="none" stroke="black" points="320,-145 320,-167 419,-167 419,-145 320,-145"/>
<text text-anchor="start" x="323" y="-153.2" font-family="Helvetica,sans-Serif" font-size="11.00">bigserial[19]</text>
<polygon fill="#ffffff" stroke="transparent" points="191,-123 191,-145 320,-145 320,-123 191,-123"/>
<polygon fill="none" stroke="black" points="191,-123 191,-145 320,-145 320,-123 191,-123"/>
<text text-anchor="start" x="211" y="-131.2" font-family="Helvetica,sans-Serif" font-size="11.00">role</text>
<polygon fill="none" stroke="black" points="320,-123 320,-145 419,-145 419,-123 320,-123"/>
<text text-anchor="start" x="323" y="-131.2" font-family="Helvetica,sans-Serif" font-size="11.00">varchar[255]</text>
<polygon fill="#ffffff" stroke="transparent" points="191,-101 191,-123 320,-123 320,-101 191,-101"/>
<polygon fill="none" stroke="black" points="191,-101 191,-123 320,-123 320,-101 191,-101"/>
<image xlink:href="../../images/foreignKeys.png" width="11px" height="12px" preserveAspectRatio="xMinYMin meet" x="196" y="-118"/>
<text text-anchor="start" x="211" y="-109.2" font-family="Helvetica,sans-Serif" font-size="11.00">user_id</text>
<polygon fill="none" stroke="black" points="320,-101 320,-123 419,-123 419,-101 320,-101"/>
<text text-anchor="start" x="323" y="-109.2" font-family="Helvetica,sans-Serif" font-size="11.00">int8[19]</text>
<polygon fill="none" stroke="black" points="191,-79 191,-101 320,-101 320,-79 191,-79"/>
<text text-anchor="start" x="211" y="-87.2" font-family="Helvetica,sans-Serif" font-size="11.00">inserted_at</text>
<polygon fill="none" stroke="black" points="320,-79 320,-101 419,-101 419,-79 320,-79"/>
<text text-anchor="start" x="323" y="-87.2" font-family="Helvetica,sans-Serif" font-size="11.00">timestamp[29,6]</text>
<polygon fill="none" stroke="black" points="191,-57 191,-79 320,-79 320,-57 191,-57"/>
<text text-anchor="start" x="211" y="-65.2" font-family="Helvetica,sans-Serif" font-size="11.00">updated_at</text>
<polygon fill="none" stroke="black" points="320,-57 320,-79 419,-79 419,-57 320,-57"/>
<text text-anchor="start" x="323" y="-65.2" font-family="Helvetica,sans-Serif" font-size="11.00">timestamp[29,6]</text>
<polygon fill="#ffffff" stroke="transparent" points="191,-39 191,-57 419,-57 419,-39 191,-39"/>
<polygon fill="none" stroke="black" points="191,-39 191,-57 419,-57 419,-39 191,-39"/>
<polygon fill="#ffffff" stroke="transparent" points="192,-40 192,-56 272,-56 272,-40 192,-40"/>
<text text-anchor="start" x="194" y="-45.2" font-family="Helvetica,sans-Serif" font-size="11.00">&lt; 1</text>
<polygon fill="#ffffff" stroke="transparent" points="272,-40 272,-56 339,-56 339,-40 272,-40"/>
<text text-anchor="start" x="301.5" y="-45.2" font-family="Helvetica,sans-Serif" font-size="11.00"> &#160;</text>
<polygon fill="#ffffff" stroke="transparent" points="339,-40 339,-56 418,-56 418,-40 339,-40"/>
<text text-anchor="start" x="396" y="-45.2" font-family="Helvetica,sans-Serif" font-size="11.00">0 &gt;</text>
<polygon fill="black" stroke="black" points="272,-40 272,-56 272,-56 272,-40 272,-40"/>
<polygon fill="black" stroke="black" points="339,-40 339,-56 339,-56 339,-40 339,-40"/>
<polygon fill="none" stroke="black" stroke-width="2" points="190,-38 190,-190 420,-190 420,-38 190,-38"/>
</a>
</g>
</g>
<!-- users -->
<g id="node2" class="node">
<title>users</title>
<g id="a_node2"><a xlink:href="../../tables/users.html" xlink:title="users" target="_top">
<polygon fill="#ffffff" stroke="transparent" points="8,-43 8,-145 140,-145 140,-43 8,-43"/>
<polygon fill="#f5f5f5" stroke="transparent" points="8,-123 8,-145 140,-145 140,-123 8,-123"/>
<polygon fill="none" stroke="black" points="8,-123 8,-145 140,-145 140,-123 8,-123"/>
<text text-anchor="start" x="13" y="-132.2" font-family="Helvetica,sans-Serif" font-weight="bold" font-size="11.00">users</text>
<text text-anchor="start" x="98" y="-131.2" font-family="Helvetica,sans-Serif" font-size="11.00">[table]</text>
<polygon fill="none" stroke="black" points="8,-101 8,-123 140,-123 140,-101 8,-101"/>
<image xlink:href="../../images/primaryKeys.png" width="11px" height="12px" preserveAspectRatio="xMinYMin meet" x="13" y="-118"/>
<text text-anchor="start" x="28" y="-109.2" font-family="Helvetica,sans-Serif" font-size="11.00">id</text>
<polygon fill="#ffffff" stroke="transparent" points="8,-79 8,-101 140,-101 140,-79 8,-79"/>
<polygon fill="none" stroke="black" points="8,-79 8,-101 140,-101 140,-79 8,-79"/>
<text text-anchor="start" x="28" y="-87.2" font-family="Helvetica,sans-Serif" font-size="11.00">username</text>
<polygon fill="none" stroke="black" points="8,-61 8,-79 140,-79 140,-61 8,-61"/>
<text text-anchor="start" x="11" y="-67.2" font-family="Helvetica,sans-Serif" font-size="11.00">...</text>
<polygon fill="#ffffff" stroke="transparent" points="8,-43 8,-61 140,-61 140,-43 8,-43"/>
<polygon fill="none" stroke="black" points="8,-43 8,-61 140,-61 140,-43 8,-43"/>
<polygon fill="#ffffff" stroke="transparent" points="9,-44 9,-60 49,-60 49,-44 9,-44"/>
<text text-anchor="start" x="11" y="-49.2" font-family="Helvetica,sans-Serif" font-size="11.00"> &#160;</text>
<polygon fill="#ffffff" stroke="transparent" points="49,-44 49,-60 88,-60 88,-44 49,-44"/>
<text text-anchor="start" x="64.5" y="-49.2" font-family="Helvetica,sans-Serif" font-size="11.00"> &#160;</text>
<polygon fill="#ffffff" stroke="transparent" points="88,-44 88,-60 139,-60 139,-44 88,-44"/>
<text text-anchor="start" x="117" y="-49.2" font-family="Helvetica,sans-Serif" font-size="11.00">2 &gt;</text>
<polygon fill="black" stroke="black" points="49,-44 49,-60 49,-60 49,-44 49,-44"/>
<polygon fill="black" stroke="black" points="88,-44 88,-60 88,-60 88,-44 88,-44"/>
</a>
</g>
</g>
<!-- administrators&#45;&gt;users -->
<g id="edge1" class="edge">
<title>administrators:w&#45;&gt;users:e</title>
<path fill="none" stroke="black" d="M179.26,-112C165.61,-112 158.69,-112 141,-112"/>
<polygon fill="black" stroke="black" points="189.2,-108 189.2,-116 187.6,-116 187.6,-108 189.2,-108"/>
<polyline fill="none" stroke="black" points="190,-112 186,-112 "/>
<ellipse fill="none" stroke="black" cx="182.8" cy="-112" rx="3.2" ry="3.2"/>
</g>
</g>
</svg>
