<?xml version="1.0" encoding="UTF-8" standalone="no"?>
<!DOCTYPE svg PUBLIC "-//W3C//DTD SVG 1.1//EN"
 "http://www.w3.org/Graphics/SVG/1.1/DTD/svg11.dtd">
<!-- Generated by graphviz version 2.38.0 (20140413.2041)
 -->
<!-- Title: twoDegreesRelationshipsDiagram Pages: 1 -->
<svg width="392pt" height="282pt"
 viewBox="0.00 0.00 392.00 282.00" xmlns="http://www.w3.org/2000/svg" xmlns:xlink="http://www.w3.org/1999/xlink">
<g id="graph0" class="graph" transform="scale(1 1) rotate(0) translate(4 278)">
<title>twoDegreesRelationshipsDiagram</title>
<polygon fill="#ffffff" stroke="none" points="-4,4 -4,-278 388,-278 388,4 -4,4"/>
<text text-anchor="middle" x="74.5" y="-7.2" font-family="Helvetica,sans-Serif" font-size="11.00">Generated by SchemaSpy</text>
<!-- administrators -->
<g id="node1" class="node"><title>administrators</title>
<g id="a_node1"><a xlink:href="../../tables/administrators.html" xlink:title="administrators" target="_top">
<polygon fill="#ffffff" stroke="none" points="169,-116 169,-270 376,-270 376,-116 169,-116"/>
<polygon fill="#f5f5f5" stroke="none" points="171.5,-246 171.5,-268 374.5,-268 374.5,-246 171.5,-246"/>
<polygon fill="none" stroke="black" points="171.5,-246 171.5,-268 374.5,-268 374.5,-246 171.5,-246"/>
<text text-anchor="start" x="176.5" y="-255.2" font-family="Helvetica,sans-Serif" font-weight="bold" font-size="11.00">administrators</text>
<text text-anchor="start" x="335.5" y="-254.2" font-family="Helvetica,sans-Serif" font-size="11.00">[table]</text>
<polygon fill="none" stroke="black" points="171.5,-224 171.5,-246 281.5,-246 281.5,-224 171.5,-224"/>
<image xlink:href="../../images/primaryKeys.png" width="11px" height="12px" preserveAspectRatio="xMinYMin meet" x="176.5" y="-241"/>
<text text-anchor="start" x="191.5" y="-232.2" font-family="Helvetica,sans-Serif" font-size="11.00">id</text>
<polygon fill="none" stroke="black" points="281.5,-224 281.5,-246 374.5,-246 374.5,-224 281.5,-224"/>
<text text-anchor="start" x="284.5" y="-232.2" font-family="Helvetica,sans-Serif" font-size="11.00">bigserial[19]</text>
<polygon fill="#ffffff" stroke="none" points="171.5,-202 171.5,-224 281.5,-224 281.5,-202 171.5,-202"/>
<polygon fill="none" stroke="black" points="171.5,-202 171.5,-224 281.5,-224 281.5,-202 171.5,-202"/>
<text text-anchor="start" x="191.5" y="-210.2" font-family="Helvetica,sans-Serif" font-size="11.00">role</text>
<polygon fill="none" stroke="black" points="281.5,-202 281.5,-224 374.5,-224 374.5,-202 281.5,-202"/>
<text text-anchor="start" x="284.5" y="-210.2" font-family="Helvetica,sans-Serif" font-size="11.00">varchar[255]</text>
<polygon fill="#ffffff" stroke="none" points="171.5,-180 171.5,-202 281.5,-202 281.5,-180 171.5,-180"/>
<polygon fill="none" stroke="black" points="171.5,-180 171.5,-202 281.5,-202 281.5,-180 171.5,-180"/>
<image xlink:href="../../images/foreignKeys.png" width="11px" height="12px" preserveAspectRatio="xMinYMin meet" x="176.5" y="-197"/>
<text text-anchor="start" x="191.5" y="-188.2" font-family="Helvetica,sans-Serif" font-size="11.00">user_id</text>
<polygon fill="none" stroke="black" points="281.5,-180 281.5,-202 374.5,-202 374.5,-180 281.5,-180"/>
<text text-anchor="start" x="284.5" y="-188.2" font-family="Helvetica,sans-Serif" font-size="11.00">int8[19]</text>
<polygon fill="none" stroke="black" points="171.5,-158 171.5,-180 281.5,-180 281.5,-158 171.5,-158"/>
<text text-anchor="start" x="191.5" y="-166.2" font-family="Helvetica,sans-Serif" font-size="11.00">inserted_at</text>
<polygon fill="none" stroke="black" points="281.5,-158 281.5,-180 374.5,-180 374.5,-158 281.5,-158"/>
<text text-anchor="start" x="284.5" y="-166.2" font-family="Helvetica,sans-Serif" font-size="11.00">timestamp[29,6]</text>
<polygon fill="none" stroke="black" points="171.5,-136 171.5,-158 281.5,-158 281.5,-136 171.5,-136"/>
<text text-anchor="start" x="191.5" y="-144.2" font-family="Helvetica,sans-Serif" font-size="11.00">updated_at</text>
<polygon fill="none" stroke="black" points="281.5,-136 281.5,-158 374.5,-158 374.5,-136 281.5,-136"/>
<text text-anchor="start" x="284.5" y="-144.2" font-family="Helvetica,sans-Serif" font-size="11.00">timestamp[29,6]</text>
<polygon fill="#ffffff" stroke="none" points="171.5,-118 171.5,-136 216.5,-136 216.5,-118 171.5,-118"/>
<polygon fill="none" stroke="black" points="171.5,-118 171.5,-136 216.5,-136 216.5,-118 171.5,-118"/>
<text text-anchor="start" x="174.5" y="-124.2" font-family="Helvetica,sans-Serif" font-size="11.00">&lt; 1</text>
<polygon fill="#ffffff" stroke="none" points="216.5,-118 216.5,-136 281.5,-136 281.5,-118 216.5,-118"/>
<polygon fill="none" stroke="black" points="216.5,-118 216.5,-136 281.5,-136 281.5,-118 216.5,-118"/>
<text text-anchor="start" x="242.5" y="-124.2" font-family="Helvetica,sans-Serif" font-size="11.00">0 rows</text>
<polygon fill="#ffffff" stroke="none" points="281.5,-118 281.5,-136 374.5,-136 374.5,-118 281.5,-118"/>
<polygon fill="none" stroke="black" points="281.5,-118 281.5,-136 374.5,-136 374.5,-118 281.5,-118"/>
<text text-anchor="start" x="354.5" y="-124.2" font-family="Helvetica,sans-Serif" font-size="11.00">0 &gt;</text>
<polygon fill="none" stroke="black" stroke-width="2" points="170,-117 170,-269 375,-269 375,-117 170,-117"/>
</a>
</g>
</g>
<!-- users -->
<g id="node2" class="node"><title>users</title>
<g id="a_node2"><a xlink:href="../../tables/users.html" xlink:title="users" target="_top">
<polygon fill="#ffffff" stroke="none" points="8,-58 8,-160 120,-160 120,-58 8,-58"/>
<polygon fill="#f5f5f5" stroke="none" points="8,-138 8,-160 120,-160 120,-138 8,-138"/>
<polygon fill="none" stroke="black" points="8,-138 8,-160 120,-160 120,-138 8,-138"/>
<text text-anchor="start" x="13" y="-147.2" font-family="Helvetica,sans-Serif" font-weight="bold" font-size="11.00">users</text>
<text text-anchor="start" x="81" y="-146.2" font-family="Helvetica,sans-Serif" font-size="11.00">[table]</text>
<polygon fill="none" stroke="black" points="8,-116 8,-138 120,-138 120,-116 8,-116"/>
<image xlink:href="../../images/primaryKeys.png" width="11px" height="12px" preserveAspectRatio="xMinYMin meet" x="13" y="-133"/>
<text text-anchor="start" x="28" y="-124.2" font-family="Helvetica,sans-Serif" font-size="11.00">id</text>
<polygon fill="#ffffff" stroke="none" points="8,-94 8,-116 120,-116 120,-94 8,-94"/>
<polygon fill="none" stroke="black" points="8,-94 8,-116 120,-116 120,-94 8,-94"/>
<text text-anchor="start" x="28" y="-102.2" font-family="Helvetica,sans-Serif" font-size="11.00">username</text>
<polygon fill="none" stroke="black" points="8,-76 8,-94 120,-94 120,-76 8,-76"/>
<text text-anchor="start" x="11" y="-82.2" font-family="Helvetica,sans-Serif" font-size="11.00">...</text>
<polygon fill="#ffffff" stroke="none" points="8,-58 8,-76 38,-76 38,-58 8,-58"/>
<polygon fill="none" stroke="black" points="8,-58 8,-76 38,-76 38,-58 8,-58"/>
<text text-anchor="start" x="11" y="-64.2" font-family="Helvetica,sans-Serif" font-size="11.00"> &#160;</text>
<polygon fill="#ffffff" stroke="none" points="38,-58 38,-76 88,-76 88,-58 38,-58"/>
<polygon fill="none" stroke="black" points="38,-58 38,-76 88,-76 88,-58 38,-58"/>
<text text-anchor="start" x="49" y="-64.2" font-family="Helvetica,sans-Serif" font-size="11.00">0 rows</text>
<polygon fill="#ffffff" stroke="none" points="88,-58 88,-76 120,-76 120,-58 88,-58"/>
<polygon fill="none" stroke="black" points="88,-58 88,-76 120,-76 120,-58 88,-58"/>
<text text-anchor="start" x="100" y="-64.2" font-family="Helvetica,sans-Serif" font-size="11.00">2 &gt;</text>
</a>
</g>
</g>
<!-- administrators&#45;&gt;users -->
<g id="edge1" class="edge"><title>administrators:user_id:w&#45;&gt;users:id:e</title>
<path fill="none" stroke="black" d="M160.075,-188.569C138.993,-176.879 152.746,-127 121,-127"/>
<polygon fill="black" stroke="black" points="170.629,-186.923 168.813,-194.714 167.254,-194.351 169.071,-186.559 170.629,-186.923"/>
<polyline fill="none" stroke="black" points="170.5,-191 166.604,-190.092 "/>
<ellipse fill="none" stroke="black" cx="163.488" cy="-189.365" rx="3.20001" ry="3.20001"/>
</g>
<!-- user_contacts -->
<g id="node3" class="node"><title>user_contacts</title>
<g id="a_node3"><a xlink:href="../../tables/user_contacts.html" xlink:title="user_contacts" target="_top">
<polygon fill="#ffffff" stroke="none" points="209,-37 209,-95 336,-95 336,-37 209,-37"/>
<polygon fill="#f5f5f5" stroke="none" points="209.5,-73 209.5,-95 336.5,-95 336.5,-73 209.5,-73"/>
<polygon fill="none" stroke="black" points="209.5,-73 209.5,-95 336.5,-95 336.5,-73 209.5,-73"/>
<text text-anchor="start" x="214.5" y="-82.2" font-family="Helvetica,sans-Serif" font-weight="bold" font-size="11.00">user_contacts</text>
<text text-anchor="start" x="297.5" y="-81.2" font-family="Helvetica,sans-Serif" font-size="11.00">[table]</text>
<polygon fill="none" stroke="black" points="209.5,-55 209.5,-73 336.5,-73 336.5,-55 209.5,-55"/>
<text text-anchor="start" x="212.5" y="-61.2" font-family="Helvetica,sans-Serif" font-size="11.00">...</text>
<polygon fill="#ffffff" stroke="none" points="209.5,-37 209.5,-55 256.5,-55 256.5,-37 209.5,-37"/>
<polygon fill="none" stroke="black" points="209.5,-37 209.5,-55 256.5,-55 256.5,-37 209.5,-37"/>
<text text-anchor="start" x="212.5" y="-43.2" font-family="Helvetica,sans-Serif" font-size="11.00">&lt; 1</text>
<polygon fill="#ffffff" stroke="none" points="256.5,-37 256.5,-55 310.5,-55 310.5,-37 256.5,-37"/>
<polygon fill="none" stroke="black" points="256.5,-37 256.5,-55 310.5,-55 310.5,-37 256.5,-37"/>
<text text-anchor="start" x="271.5" y="-43.2" font-family="Helvetica,sans-Serif" font-size="11.00">0 rows</text>
<polygon fill="#ffffff" stroke="none" points="310.5,-37 310.5,-55 336.5,-55 336.5,-37 310.5,-37"/>
<polygon fill="none" stroke="black" points="310.5,-37 310.5,-55 336.5,-55 336.5,-37 310.5,-37"/>
<text text-anchor="start" x="326.5" y="-43.2" font-family="Helvetica,sans-Serif" font-size="11.00"> &#160;</text>
</a>
</g>
</g>
<!-- user_contacts&#45;&gt;users -->
<g id="edge2" class="edge"><title>user_contacts:elipses:w&#45;&gt;users:id:e</title>
<path fill="none" stroke="black" d="M197.781,-65.2023C161.57,-73.912 164.989,-127 121,-127"/>
<polygon fill="black" stroke="black" points="207.259,-60.1141 208.151,-68.0643 206.561,-68.2426 205.669,-60.2924 207.259,-60.1141"/>
<polyline fill="none" stroke="black" points="208.5,-64 204.525,-64.4459 "/>
<ellipse fill="none" stroke="black" cx="201.345" cy="-64.8026" rx="3.2" ry="3.2"/>
</g>
</g>
</svg>
