<?xml version="1.0" encoding="UTF-8" standalone="no"?>
<!DOCTYPE svg PUBLIC "-//W3C//DTD SVG 1.1//EN"
 "http://www.w3.org/Graphics/SVG/1.1/DTD/svg11.dtd">
<!-- Generated by graphviz version 2.38.0 (20140413.2041)
 -->
<!-- Title: oneDegreeRelationshipsDiagram Pages: 1 -->
<svg width="392pt" height="203pt"
 viewBox="0.00 0.00 392.00 203.00" xmlns="http://www.w3.org/2000/svg" xmlns:xlink="http://www.w3.org/1999/xlink">
<g id="graph0" class="graph" transform="scale(1 1) rotate(0) translate(4 199)">
<title>oneDegreeRelationshipsDiagram</title>
<polygon fill="#ffffff" stroke="none" points="-4,4 -4,-199 388,-199 388,4 -4,4"/>
<text text-anchor="middle" x="74.5" y="-7.2" font-family="Helvetica,sans-Serif" font-size="11.00">Generated by SchemaSpy</text>
<!-- administrators -->
<g id="node1" class="node"><title>administrators</title>
<g id="a_node1"><a xlink:href="../../tables/administrators.html" xlink:title="administrators" target="_top">
<polygon fill="#ffffff" stroke="none" points="169,-37 169,-191 376,-191 376,-37 169,-37"/>
<polygon fill="#f5f5f5" stroke="none" points="171.5,-167 171.5,-189 374.5,-189 374.5,-167 171.5,-167"/>
<polygon fill="none" stroke="black" points="171.5,-167 171.5,-189 374.5,-189 374.5,-167 171.5,-167"/>
<text text-anchor="start" x="176.5" y="-176.2" font-family="Helvetica,sans-Serif" font-weight="bold" font-size="11.00">administrators</text>
<text text-anchor="start" x="335.5" y="-175.2" font-family="Helvetica,sans-Serif" font-size="11.00">[table]</text>
<polygon fill="none" stroke="black" points="171.5,-145 171.5,-167 281.5,-167 281.5,-145 171.5,-145"/>
<image xlink:href="../../images/primaryKeys.png" width="11px" height="12px" preserveAspectRatio="xMinYMin meet" x="176.5" y="-162"/>
<text text-anchor="start" x="191.5" y="-153.2" font-family="Helvetica,sans-Serif" font-size="11.00">id</text>
<polygon fill="none" stroke="black" points="281.5,-145 281.5,-167 374.5,-167 374.5,-145 281.5,-145"/>
<text text-anchor="start" x="284.5" y="-153.2" font-family="Helvetica,sans-Serif" font-size="11.00">bigserial[19]</text>
<polygon fill="#ffffff" stroke="none" points="171.5,-123 171.5,-145 281.5,-145 281.5,-123 171.5,-123"/>
<polygon fill="none" stroke="black" points="171.5,-123 171.5,-145 281.5,-145 281.5,-123 171.5,-123"/>
<text text-anchor="start" x="191.5" y="-131.2" font-family="Helvetica,sans-Serif" font-size="11.00">role</text>
<polygon fill="none" stroke="black" points="281.5,-123 281.5,-145 374.5,-145 374.5,-123 281.5,-123"/>
<text text-anchor="start" x="284.5" y="-131.2" font-family="Helvetica,sans-Serif" font-size="11.00">varchar[255]</text>
<polygon fill="#ffffff" stroke="none" points="171.5,-101 171.5,-123 281.5,-123 281.5,-101 171.5,-101"/>
<polygon fill="none" stroke="black" points="171.5,-101 171.5,-123 281.5,-123 281.5,-101 171.5,-101"/>
<image xlink:href="../../images/foreignKeys.png" width="11px" height="12px" preserveAspectRatio="xMinYMin meet" x="176.5" y="-118"/>
<text text-anchor="start" x="191.5" y="-109.2" font-family="Helvetica,sans-Serif" font-size="11.00">user_id</text>
<polygon fill="none" stroke="black" points="281.5,-101 281.5,-123 374.5,-123 374.5,-101 281.5,-101"/>
<text text-anchor="start" x="284.5" y="-109.2" font-family="Helvetica,sans-Serif" font-size="11.00">int8[19]</text>
<polygon fill="none" stroke="black" points="171.5,-79 171.5,-101 281.5,-101 281.5,-79 171.5,-79"/>
<text text-anchor="start" x="191.5" y="-87.2" font-family="Helvetica,sans-Serif" font-size="11.00">inserted_at</text>
<polygon fill="none" stroke="black" points="281.5,-79 281.5,-101 374.5,-101 374.5,-79 281.5,-79"/>
<text text-anchor="start" x="284.5" y="-87.2" font-family="Helvetica,sans-Serif" font-size="11.00">timestamp[29,6]</text>
<polygon fill="none" stroke="black" points="171.5,-57 171.5,-79 281.5,-79 281.5,-57 171.5,-57"/>
<text text-anchor="start" x="191.5" y="-65.2" font-family="Helvetica,sans-Serif" font-size="11.00">updated_at</text>
<polygon fill="none" stroke="black" points="281.5,-57 281.5,-79 374.5,-79 374.5,-57 281.5,-57"/>
<text text-anchor="start" x="284.5" y="-65.2" font-family="Helvetica,sans-Serif" font-size="11.00">timestamp[29,6]</text>
<polygon fill="#ffffff" stroke="none" points="171.5,-39 171.5,-57 216.5,-57 216.5,-39 171.5,-39"/>
<polygon fill="none" stroke="black" points="171.5,-39 171.5,-57 216.5,-57 216.5,-39 171.5,-39"/>
<text text-anchor="start" x="174.5" y="-45.2" font-family="Helvetica,sans-Serif" font-size="11.00">&lt; 1</text>
<polygon fill="#ffffff" stroke="none" points="216.5,-39 216.5,-57 281.5,-57 281.5,-39 216.5,-39"/>
<polygon fill="none" stroke="black" points="216.5,-39 216.5,-57 281.5,-57 281.5,-39 216.5,-39"/>
<text text-anchor="start" x="242.5" y="-45.2" font-family="Helvetica,sans-Serif" font-size="11.00">0 rows</text>
<polygon fill="#ffffff" stroke="none" points="281.5,-39 281.5,-57 374.5,-57 374.5,-39 281.5,-39"/>
<polygon fill="none" stroke="black" points="281.5,-39 281.5,-57 374.5,-57 374.5,-39 281.5,-39"/>
<text text-anchor="start" x="354.5" y="-45.2" font-family="Helvetica,sans-Serif" font-size="11.00">0 &gt;</text>
<polygon fill="none" stroke="black" stroke-width="2" points="170,-38 170,-190 375,-190 375,-38 170,-38"/>
</a>
</g>
</g>
<!-- users -->
<g id="node2" class="node"><title>users</title>
<g id="a_node2"><a xlink:href="../../tables/users.html" xlink:title="users" target="_top">
<polygon fill="#ffffff" stroke="none" points="8,-43 8,-145 120,-145 120,-43 8,-43"/>
<polygon fill="#f5f5f5" stroke="none" points="8,-123 8,-145 120,-145 120,-123 8,-123"/>
<polygon fill="none" stroke="black" points="8,-123 8,-145 120,-145 120,-123 8,-123"/>
<text text-anchor="start" x="13" y="-132.2" font-family="Helvetica,sans-Serif" font-weight="bold" font-size="11.00">users</text>
<text text-anchor="start" x="81" y="-131.2" font-family="Helvetica,sans-Serif" font-size="11.00">[table]</text>
<polygon fill="none" stroke="black" points="8,-101 8,-123 120,-123 120,-101 8,-101"/>
<image xlink:href="../../images/primaryKeys.png" width="11px" height="12px" preserveAspectRatio="xMinYMin meet" x="13" y="-118"/>
<text text-anchor="start" x="28" y="-109.2" font-family="Helvetica,sans-Serif" font-size="11.00">id</text>
<polygon fill="#ffffff" stroke="none" points="8,-79 8,-101 120,-101 120,-79 8,-79"/>
<polygon fill="none" stroke="black" points="8,-79 8,-101 120,-101 120,-79 8,-79"/>
<text text-anchor="start" x="28" y="-87.2" font-family="Helvetica,sans-Serif" font-size="11.00">username</text>
<polygon fill="none" stroke="black" points="8,-61 8,-79 120,-79 120,-61 8,-61"/>
<text text-anchor="start" x="11" y="-67.2" font-family="Helvetica,sans-Serif" font-size="11.00">...</text>
<polygon fill="#ffffff" stroke="none" points="8,-43 8,-61 38,-61 38,-43 8,-43"/>
<polygon fill="none" stroke="black" points="8,-43 8,-61 38,-61 38,-43 8,-43"/>
<text text-anchor="start" x="11" y="-49.2" font-family="Helvetica,sans-Serif" font-size="11.00"> &#160;</text>
<polygon fill="#ffffff" stroke="none" points="38,-43 38,-61 88,-61 88,-43 38,-43"/>
<polygon fill="none" stroke="black" points="38,-43 38,-61 88,-61 88,-43 38,-43"/>
<text text-anchor="start" x="49" y="-49.2" font-family="Helvetica,sans-Serif" font-size="11.00">0 rows</text>
<polygon fill="#ffffff" stroke="none" points="88,-43 88,-61 120,-61 120,-43 88,-43"/>
<polygon fill="none" stroke="black" points="88,-43 88,-61 120,-61 120,-43 88,-43"/>
<text text-anchor="start" x="100" y="-49.2" font-family="Helvetica,sans-Serif" font-size="11.00">2 &gt;</text>
</a>
</g>
</g>
<!-- administrators&#45;&gt;users -->
<g id="edge1" class="edge"><title>administrators:user_id:w&#45;&gt;users:id:e</title>
<path fill="none" stroke="black" d="M160.047,-112C145.991,-112 139.047,-112 121,-112"/>
<polygon fill="black" stroke="black" points="169.7,-108 169.7,-116 168.1,-116 168.1,-108 169.7,-108"/>
<polyline fill="none" stroke="black" points="170.5,-112 166.5,-112 "/>
<ellipse fill="none" stroke="black" cx="163.3" cy="-112" rx="3.2" ry="3.2"/>
</g>
</g>
</svg>
