<?xml version="1.0" encoding="UTF-8" standalone="no"?>
<!DOCTYPE svg PUBLIC "-//W3C//DTD SVG 1.1//EN"
 "http://www.w3.org/Graphics/SVG/1.1/DTD/svg11.dtd">
<!-- Generated by graphviz version 2.43.0 (0)
 -->
<!-- Title: twoDegreesRelationshipsDiagram Pages: 1 -->
<svg width="437pt" height="282pt"
 viewBox="0.00 0.00 437.00 282.00" xmlns="http://www.w3.org/2000/svg" xmlns:xlink="http://www.w3.org/1999/xlink">
<g id="graph0" class="graph" transform="scale(1 1) rotate(0) translate(4 278)">
<title>twoDegreesRelationshipsDiagram</title>
<polygon fill="#ffffff" stroke="transparent" points="-4,4 -4,-278 433,-278 433,4 -4,4"/>
<text text-anchor="middle" x="79.5" y="-7.2" font-family="Helvetica,sans-Serif" font-size="11.00">Generated by SchemaSpy</text>
<!-- administrators -->
<g id="node1" class="node">
<title>administrators</title>
<g id="a_node1"><a xlink:href="../../tables/administrators.html" xlink:title="administrators" target="_top">
<polygon fill="#ffffff" stroke="transparent" points="189,-116 189,-270 421,-270 421,-116 189,-116"/>
<polygon fill="#f5f5f5" stroke="transparent" points="191,-246 191,-268 419,-268 419,-246 191,-246"/>
<polygon fill="none" stroke="black" points="191,-246 191,-268 419,-268 419,-246 191,-246"/>
<text text-anchor="start" x="196" y="-255.2" font-family="Helvetica,sans-Serif" font-weight="bold" font-size="11.00">administrators</text>
<text text-anchor="start" x="377" y="-254.2" font-family="Helvetica,sans-Serif" font-size="11.00">[table]</text>
<polygon fill="none" stroke="black" points="191,-224 191,-246 320,-246 320,-224 191,-224"/>
<image xlink:href="../../images/primaryKeys.png" width="11px" height="12px" preserveAspectRatio="xMinYMin meet" x="196" y="-241"/>
<text text-anchor="start" x="211" y="-232.2" font-family="Helvetica,sans-Serif" font-size="11.00">id</text>
<polygon fill="none" stroke="black" points="320,-224 320,-246 419,-246 419,-224 320,-224"/>
<text text-anchor="start" x="323" y="-232.2" font-family="Helvetica,sans-Serif" font-size="11.00">bigserial[19]</text>
<polygon fill="#ffffff" stroke="transparent" points="191,-202 191,-224 320,-224 320,-202 191,-202"/>
<polygon fill="none" stroke="black" points="191,-202 191,-224 320,-224 320,-202 191,-202"/>
<text text-anchor="start" x="211" y="-210.2" font-family="Helvetica,sans-Serif" font-size="11.00">role</text>
<polygon fill="none" stroke="black" points="320,-202 320,-224 419,-224 419,-202 320,-202"/>
<text text-anchor="start" x="323" y="-210.2" font-family="Helvetica,sans-Serif" font-size="11.00">varchar[255]</text>
<polygon fill="#ffffff" stroke="transparent" points="191,-180 191,-202 320,-202 320,-180 191,-180"/>
<polygon fill="none" stroke="black" points="191,-180 191,-202 320,-202 320,-180 191,-180"/>
<image xlink:href="../../images/foreignKeys.png" width="11px" height="12px" preserveAspectRatio="xMinYMin meet" x="196" y="-197"/>
<text text-anchor="start" x="211" y="-188.2" font-family="Helvetica,sans-Serif" font-size="11.00">user_id</text>
<polygon fill="none" stroke="black" points="320,-180 320,-202 419,-202 419,-180 320,-180"/>
<text text-anchor="start" x="323" y="-188.2" font-family="Helvetica,sans-Serif" font-size="11.00">int8[19]</text>
<polygon fill="none" stroke="black" points="191,-158 191,-180 320,-180 320,-158 191,-158"/>
<text text-anchor="start" x="211" y="-166.2" font-family="Helvetica,sans-Serif" font-size="11.00">inserted_at</text>
<polygon fill="none" stroke="black" points="320,-158 320,-180 419,-180 419,-158 320,-158"/>
<text text-anchor="start" x="323" y="-166.2" font-family="Helvetica,sans-Serif" font-size="11.00">timestamp[29,6]</text>
<polygon fill="none" stroke="black" points="191,-136 191,-158 320,-158 320,-136 191,-136"/>
<text text-anchor="start" x="211" y="-144.2" font-family="Helvetica,sans-Serif" font-size="11.00">updated_at</text>
<polygon fill="none" stroke="black" points="320,-136 320,-158 419,-158 419,-136 320,-136"/>
<text text-anchor="start" x="323" y="-144.2" font-family="Helvetica,sans-Serif" font-size="11.00">timestamp[29,6]</text>
<polygon fill="#ffffff" stroke="transparent" points="191,-118 191,-136 419,-136 419,-118 191,-118"/>
<polygon fill="none" stroke="black" points="191,-118 191,-136 419,-136 419,-118 191,-118"/>
<polygon fill="#ffffff" stroke="transparent" points="192,-119 192,-135 272,-135 272,-119 192,-119"/>
<text text-anchor="start" x="194" y="-124.2" font-family="Helvetica,sans-Serif" font-size="11.00">&lt; 1</text>
<polygon fill="#ffffff" stroke="transparent" points="272,-119 272,-135 339,-135 339,-119 272,-119"/>
<text text-anchor="start" x="301.5" y="-124.2" font-family="Helvetica,sans-Serif" font-size="11.00"> &#160;</text>
<polygon fill="#ffffff" stroke="transparent" points="339,-119 339,-135 418,-135 418,-119 339,-119"/>
<text text-anchor="start" x="396" y="-124.2" font-family="Helvetica,sans-Serif" font-size="11.00">0 &gt;</text>
<polygon fill="black" stroke="black" points="272,-119 272,-135 272,-135 272,-119 272,-119"/>
<polygon fill="black" stroke="black" points="339,-119 339,-135 339,-135 339,-119 339,-119"/>
<polygon fill="none" stroke="black" stroke-width="2" points="190,-117 190,-269 420,-269 420,-117 190,-117"/>
</a>
</g>
</g>
<!-- users -->
<g id="node2" class="node">
<title>users</title>
<g id="a_node2"><a xlink:href="../../tables/users.html" xlink:title="users" target="_top">
<polygon fill="#ffffff" stroke="transparent" points="8,-58 8,-160 140,-160 140,-58 8,-58"/>
<polygon fill="#f5f5f5" stroke="transparent" points="8,-138 8,-160 140,-160 140,-138 8,-138"/>
<polygon fill="none" stroke="black" points="8,-138 8,-160 140,-160 140,-138 8,-138"/>
<text text-anchor="start" x="13" y="-147.2" font-family="Helvetica,sans-Serif" font-weight="bold" font-size="11.00">users</text>
<text text-anchor="start" x="98" y="-146.2" font-family="Helvetica,sans-Serif" font-size="11.00">[table]</text>
<polygon fill="none" stroke="black" points="8,-116 8,-138 140,-138 140,-116 8,-116"/>
<image xlink:href="../../images/primaryKeys.png" width="11px" height="12px" preserveAspectRatio="xMinYMin meet" x="13" y="-133"/>
<text text-anchor="start" x="28" y="-124.2" font-family="Helvetica,sans-Serif" font-size="11.00">id</text>
<polygon fill="#ffffff" stroke="transparent" points="8,-94 8,-116 140,-116 140,-94 8,-94"/>
<polygon fill="none" stroke="black" points="8,-94 8,-116 140,-116 140,-94 8,-94"/>
<text text-anchor="start" x="28" y="-102.2" font-family="Helvetica,sans-Serif" font-size="11.00">username</text>
<polygon fill="none" stroke="black" points="8,-76 8,-94 140,-94 140,-76 8,-76"/>
<text text-anchor="start" x="11" y="-82.2" font-family="Helvetica,sans-Serif" font-size="11.00">...</text>
<polygon fill="#ffffff" stroke="transparent" points="8,-58 8,-76 140,-76 140,-58 8,-58"/>
<polygon fill="none" stroke="black" points="8,-58 8,-76 140,-76 140,-58 8,-58"/>
<polygon fill="#ffffff" stroke="transparent" points="9,-59 9,-75 49,-75 49,-59 9,-59"/>
<text text-anchor="start" x="11" y="-64.2" font-family="Helvetica,sans-Serif" font-size="11.00"> &#160;</text>
<polygon fill="#ffffff" stroke="transparent" points="49,-59 49,-75 88,-75 88,-59 49,-59"/>
<text text-anchor="start" x="64.5" y="-64.2" font-family="Helvetica,sans-Serif" font-size="11.00"> &#160;</text>
<polygon fill="#ffffff" stroke="transparent" points="88,-59 88,-75 139,-75 139,-59 88,-59"/>
<text text-anchor="start" x="117" y="-64.2" font-family="Helvetica,sans-Serif" font-size="11.00">2 &gt;</text>
<polygon fill="black" stroke="black" points="49,-59 49,-75 49,-75 49,-59 49,-59"/>
<polygon fill="black" stroke="black" points="88,-59 88,-75 88,-75 88,-59 88,-59"/>
</a>
</g>
</g>
<!-- administrators&#45;&gt;users -->
<g id="edge1" class="edge">
<title>administrators:w&#45;&gt;users:e</title>
<path fill="none" stroke="black" d="M179.63,-188.57C158.68,-176.88 172.63,-127 141,-127"/>
<polygon fill="black" stroke="black" points="190.13,-186.92 188.31,-194.71 186.75,-194.35 188.58,-186.56 190.13,-186.92"/>
<polyline fill="none" stroke="black" points="190,-191 186.11,-190.09 "/>
<ellipse fill="none" stroke="black" cx="182.99" cy="-189.36" rx="3.2" ry="3.2"/>
</g>
<!-- user_contacts -->
<g id="node3" class="node">
<title>user_contacts</title>
<g id="a_node3"><a xlink:href="../../tables/user_contacts.html" xlink:title="user_contacts" target="_top">
<polygon fill="#ffffff" stroke="transparent" points="231,-37 231,-95 379,-95 379,-37 231,-37"/>
<polygon fill="#f5f5f5" stroke="transparent" points="231,-73 231,-95 379,-95 379,-73 231,-73"/>
<polygon fill="none" stroke="black" points="231,-73 231,-95 379,-95 379,-73 231,-73"/>
<text text-anchor="start" x="236" y="-82.2" font-family="Helvetica,sans-Serif" font-weight="bold" font-size="11.00">user_contacts</text>
<text text-anchor="start" x="337" y="-81.2" font-family="Helvetica,sans-Serif" font-size="11.00">[table]</text>
<polygon fill="none" stroke="black" points="231,-55 231,-73 379,-73 379,-55 231,-55"/>
<text text-anchor="start" x="234" y="-61.2" font-family="Helvetica,sans-Serif" font-size="11.00">...</text>
<polygon fill="#ffffff" stroke="transparent" points="231,-37 231,-55 379,-55 379,-37 231,-37"/>
<polygon fill="none" stroke="black" points="231,-37 231,-55 379,-55 379,-37 231,-37"/>
<polygon fill="#ffffff" stroke="transparent" points="232,-38 232,-54 289,-54 289,-38 232,-38"/>
<text text-anchor="start" x="234" y="-43.2" font-family="Helvetica,sans-Serif" font-size="11.00">&lt; 1</text>
<polygon fill="#ffffff" stroke="transparent" points="289,-38 289,-54 334,-54 334,-38 289,-38"/>
<text text-anchor="start" x="307.5" y="-43.2" font-family="Helvetica,sans-Serif" font-size="11.00"> &#160;</text>
<polygon fill="#ffffff" stroke="transparent" points="334,-38 334,-54 378,-54 378,-38 334,-38"/>
<text text-anchor="start" x="368" y="-43.2" font-family="Helvetica,sans-Serif" font-size="11.00"> &#160;</text>
<polygon fill="black" stroke="black" points="289,-38 289,-54 289,-54 289,-38 289,-38"/>
<polygon fill="black" stroke="black" points="334,-38 334,-54 334,-54 334,-38 334,-38"/>
</a>
</g>
</g>
<!-- user_contacts&#45;&gt;users -->
<g id="edge2" class="edge">
<title>user_contacts:w&#45;&gt;users:e</title>
<path fill="none" stroke="black" d="M219.62,-65.09C182.43,-73.46 185.68,-127 141,-127"/>
<polygon fill="black" stroke="black" points="228.79,-60.11 229.62,-68.06 228.03,-68.23 227.19,-60.27 228.79,-60.11"/>
<polyline fill="none" stroke="black" points="230,-64 226.02,-64.42 "/>
<ellipse fill="none" stroke="black" cx="222.84" cy="-64.75" rx="3.2" ry="3.2"/>
</g>
</g>
</svg>
