<?xml version="1.0" encoding="UTF-8" standalone="no"?>
<!DOCTYPE svg PUBLIC "-//W3C//DTD SVG 1.1//EN"
 "http://www.w3.org/Graphics/SVG/1.1/DTD/svg11.dtd">
<!-- Generated by graphviz version 9.0.0 (20230911.1827)
 -->
<!-- Title: twoDegreesRelationshipsDiagram Pages: 1 -->
<svg width="374pt" height="282pt"
 viewBox="0.00 0.00 374.00 282.00" xmlns="http://www.w3.org/2000/svg" xmlns:xlink="http://www.w3.org/1999/xlink">
<g id="graph0" class="graph" transform="scale(1 1) rotate(0) translate(4 278)">
<title>twoDegreesRelationshipsDiagram</title>
<polygon fill="#ffffff" stroke="none" points="-4,4 -4,-278 370,-278 370,4 -4,4"/>
<text text-anchor="middle" x="71.38" y="-5.55" font-family="Helvetica,sans-Serif" font-size="11.00">Generated by SchemaSpy</text>
<!-- administrators -->
<g id="node1" class="node">
<title>administrators</title>
<g id="a_node1"><a xlink:href="../../tables/administrators.html" xlink:title="administrators" target="_top">
<polygon fill="#ffffff" stroke="none" points="168,-116 168,-270 358,-270 358,-116 168,-116"/>
<polygon fill="#f5f5f5" stroke="none" points="170,-246 170,-268 356,-268 356,-246 170,-246"/>
<polygon fill="none" stroke="black" points="170,-246 170,-268 356,-268 356,-246 170,-246"/>
<text text-anchor="start" x="175" y="-253.55" font-family="Helvetica,sans-Serif" font-weight="bold" font-size="11.00">administrators</text>
<text text-anchor="start" x="321.75" y="-252.55" font-family="Helvetica,sans-Serif" font-size="11.00">[table]</text>
<polygon fill="none" stroke="black" points="170,-224 170,-246 274,-246 274,-224 170,-224"/>
<image xlink:href="../../images/primaryKeys.png" width="11px" height="12px" preserveAspectRatio="xMinYMin meet" x="175" y="-241"/>
<text text-anchor="start" x="190" y="-230.55" font-family="Helvetica,sans-Serif" font-size="11.00">id</text>
<polygon fill="none" stroke="black" points="274,-224 274,-246 356,-246 356,-224 274,-224"/>
<text text-anchor="start" x="277" y="-230.55" font-family="Helvetica,sans-Serif" font-size="11.00">bigserial[19]</text>
<polygon fill="#ffffff" stroke="none" points="170,-202 170,-224 274,-224 274,-202 170,-202"/>
<polygon fill="none" stroke="black" points="170,-202 170,-224 274,-224 274,-202 170,-202"/>
<text text-anchor="start" x="190" y="-208.55" font-family="Helvetica,sans-Serif" font-size="11.00">role</text>
<polygon fill="none" stroke="black" points="274,-202 274,-224 356,-224 356,-202 274,-202"/>
<text text-anchor="start" x="277" y="-208.55" font-family="Helvetica,sans-Serif" font-size="11.00">varchar[255]</text>
<polygon fill="#ffffff" stroke="none" points="170,-180 170,-202 274,-202 274,-180 170,-180"/>
<polygon fill="none" stroke="black" points="170,-180 170,-202 274,-202 274,-180 170,-180"/>
<image xlink:href="../../images/foreignKeys.png" width="11px" height="12px" preserveAspectRatio="xMinYMin meet" x="175" y="-197"/>
<text text-anchor="start" x="190" y="-186.55" font-family="Helvetica,sans-Serif" font-size="11.00">user_id</text>
<polygon fill="none" stroke="black" points="274,-180 274,-202 356,-202 356,-180 274,-180"/>
<text text-anchor="start" x="277" y="-186.55" font-family="Helvetica,sans-Serif" font-size="11.00">int8[19]</text>
<polygon fill="none" stroke="black" points="170,-158 170,-180 274,-180 274,-158 170,-158"/>
<text text-anchor="start" x="190" y="-164.55" font-family="Helvetica,sans-Serif" font-size="11.00">inserted_at</text>
<polygon fill="none" stroke="black" points="274,-158 274,-180 356,-180 356,-158 274,-158"/>
<text text-anchor="start" x="276.75" y="-164.55" font-family="Helvetica,sans-Serif" font-size="11.00">timestamp[29,6]</text>
<polygon fill="none" stroke="black" points="170,-136 170,-158 274,-158 274,-136 170,-136"/>
<text text-anchor="start" x="190" y="-142.55" font-family="Helvetica,sans-Serif" font-size="11.00">updated_at</text>
<polygon fill="none" stroke="black" points="274,-136 274,-158 356,-158 356,-136 274,-136"/>
<text text-anchor="start" x="276.75" y="-142.55" font-family="Helvetica,sans-Serif" font-size="11.00">timestamp[29,6]</text>
<polygon fill="#ffffff" stroke="none" points="170,-118 170,-136 226,-136 226,-118 170,-118"/>
<polygon fill="none" stroke="black" points="170,-118 170,-136 226,-136 226,-118 170,-118"/>
<text text-anchor="start" x="173" y="-122.55" font-family="Helvetica,sans-Serif" font-size="11.00">&lt; 1</text>
<polygon fill="#ffffff" stroke="none" points="226,-118 226,-136 274,-136 274,-118 226,-118"/>
<polygon fill="none" stroke="black" points="226,-118 226,-136 274,-136 274,-118 226,-118"/>
<text text-anchor="start" x="265" y="-122.55" font-family="Helvetica,sans-Serif" font-size="11.00"> &#160;</text>
<polygon fill="#ffffff" stroke="none" points="274,-118 274,-136 356,-136 356,-118 274,-118"/>
<polygon fill="none" stroke="black" points="274,-118 274,-136 356,-136 356,-118 274,-118"/>
<text text-anchor="start" x="337.25" y="-122.55" font-family="Helvetica,sans-Serif" font-size="11.00">0 &gt;</text>
<polygon fill="none" stroke="black" stroke-width="2" points="169,-117 169,-269 357,-269 357,-117 169,-117"/>
</a>
</g>
</g>
<!-- users -->
<g id="node2" class="node">
<title>users</title>
<g id="a_node2"><a xlink:href="../../tables/users.html" xlink:title="users" target="_top">
<polygon fill="#ffffff" stroke="none" points="8,-58 8,-160 119,-160 119,-58 8,-58"/>
<polygon fill="#f5f5f5" stroke="none" points="8,-138 8,-160 119,-160 119,-138 8,-138"/>
<polygon fill="none" stroke="black" points="8,-138 8,-160 119,-160 119,-138 8,-138"/>
<text text-anchor="start" x="12.38" y="-145.55" font-family="Helvetica,sans-Serif" font-weight="bold" font-size="11.00">users</text>
<text text-anchor="start" x="84.75" y="-144.55" font-family="Helvetica,sans-Serif" font-size="11.00">[table]</text>
<polygon fill="none" stroke="black" points="8,-116 8,-138 119,-138 119,-116 8,-116"/>
<image xlink:href="../../images/primaryKeys.png" width="11px" height="12px" preserveAspectRatio="xMinYMin meet" x="13" y="-133"/>
<text text-anchor="start" x="28" y="-122.55" font-family="Helvetica,sans-Serif" font-size="11.00">id</text>
<polygon fill="#ffffff" stroke="none" points="8,-94 8,-116 119,-116 119,-94 8,-94"/>
<polygon fill="none" stroke="black" points="8,-94 8,-116 119,-116 119,-94 8,-94"/>
<text text-anchor="start" x="28" y="-100.55" font-family="Helvetica,sans-Serif" font-size="11.00">username</text>
<polygon fill="none" stroke="black" points="8,-76 8,-94 119,-94 119,-76 8,-76"/>
<text text-anchor="start" x="11" y="-80.55" font-family="Helvetica,sans-Serif" font-size="11.00">...</text>
<polygon fill="#ffffff" stroke="none" points="8,-58 8,-76 53,-76 53,-58 8,-58"/>
<polygon fill="none" stroke="black" points="8,-58 8,-76 53,-76 53,-58 8,-58"/>
<text text-anchor="start" x="11" y="-62.55" font-family="Helvetica,sans-Serif" font-size="11.00"> &#160;</text>
<polygon fill="#ffffff" stroke="none" points="53,-58 53,-76 81,-76 81,-58 53,-58"/>
<polygon fill="none" stroke="black" points="53,-58 53,-76 81,-76 81,-58 53,-58"/>
<text text-anchor="start" x="72" y="-62.55" font-family="Helvetica,sans-Serif" font-size="11.00"> &#160;</text>
<polygon fill="#ffffff" stroke="none" points="81,-58 81,-76 119,-76 119,-58 81,-58"/>
<polygon fill="none" stroke="black" points="81,-58 81,-76 119,-76 119,-58 81,-58"/>
<text text-anchor="start" x="100.25" y="-62.55" font-family="Helvetica,sans-Serif" font-size="11.00">2 &gt;</text>
</a>
</g>
</g>
<!-- administrators&#45;&gt;users -->
<g id="edge1" class="edge">
<title>administrators:w&#45;&gt;users:e</title>
<path fill="none" stroke="black" d="M158.13,-188.25C138.12,-176 151.73,-127 120.5,-127"/>
<polygon fill="black" stroke="black" points="169.21,-186.93 167.24,-194.68 165.69,-194.29 167.65,-186.53 169.21,-186.93"/>
<polyline fill="none" stroke="black" points="169,-191 165.12,-190.02"/>
<ellipse fill="none" stroke="black" cx="161.54" cy="-189.11" rx="3.2" ry="3.2"/>
</g>
<!-- user_contacts -->
<g id="node3" class="node">
<title>user_contacts</title>
<g id="a_node3"><a xlink:href="../../tables/user_contacts.html" xlink:title="user_contacts" target="_top">
<polygon fill="#ffffff" stroke="none" points="203,-37 203,-95 323,-95 323,-37 203,-37"/>
<polygon fill="#f5f5f5" stroke="none" points="203,-73 203,-95 323,-95 323,-73 203,-73"/>
<polygon fill="none" stroke="black" points="203,-73 203,-95 323,-95 323,-73 203,-73"/>
<text text-anchor="start" x="208" y="-80.55" font-family="Helvetica,sans-Serif" font-weight="bold" font-size="11.00">user_contacts</text>
<text text-anchor="start" x="289" y="-79.55" font-family="Helvetica,sans-Serif" font-size="11.00">[table]</text>
<polygon fill="none" stroke="black" points="203,-55 203,-73 323,-73 323,-55 203,-55"/>
<text text-anchor="start" x="206" y="-59.55" font-family="Helvetica,sans-Serif" font-size="11.00">...</text>
<polygon fill="#ffffff" stroke="none" points="203,-37 203,-55 261,-55 261,-37 203,-37"/>
<polygon fill="none" stroke="black" points="203,-37 203,-55 261,-55 261,-37 203,-37"/>
<text text-anchor="start" x="206" y="-41.55" font-family="Helvetica,sans-Serif" font-size="11.00">&lt; 1</text>
<polygon fill="#ffffff" stroke="none" points="261,-37 261,-55 292,-55 292,-37 261,-37"/>
<polygon fill="none" stroke="black" points="261,-37 261,-55 292,-55 292,-37 261,-37"/>
<text text-anchor="start" x="283" y="-41.55" font-family="Helvetica,sans-Serif" font-size="11.00"> &#160;</text>
<polygon fill="#ffffff" stroke="none" points="292,-37 292,-55 323,-55 323,-37 292,-37"/>
<polygon fill="none" stroke="black" points="292,-37 292,-55 323,-55 323,-37 292,-37"/>
<text text-anchor="start" x="314" y="-41.55" font-family="Helvetica,sans-Serif" font-size="11.00"> &#160;</text>
</a>
</g>
</g>
<!-- user_contacts&#45;&gt;users -->
<g id="edge2" class="edge">
<title>user_contacts:w&#45;&gt;users:e</title>
<path fill="none" stroke="black" d="M190.93,-65.43C157.58,-74.81 162.17,-127 120.5,-127"/>
<polygon fill="black" stroke="black" points="200.69,-60.14 201.72,-68.07 200.13,-68.28 199.11,-60.34 200.69,-60.14"/>
<polyline fill="none" stroke="black" points="202,-64 198.03,-64.51"/>
<ellipse fill="none" stroke="black" cx="194.36" cy="-64.99" rx="3.2" ry="3.2"/>
</g>
</g>
</svg>
