<?xml version="1.0" encoding="UTF-8" standalone="no"?>
<!DOCTYPE svg PUBLIC "-//W3C//DTD SVG 1.1//EN"
 "http://www.w3.org/Graphics/SVG/1.1/DTD/svg11.dtd">
<!-- Generated by graphviz version 2.43.0 (0)
 -->
<!-- Title: twoDegreesRelationshipsDiagramImplied Pages: 1 -->
<svg width="1005pt" height="1072pt"
 viewBox="0.00 0.00 1005.00 1072.07" xmlns="http://www.w3.org/2000/svg" xmlns:xlink="http://www.w3.org/1999/xlink">
<g id="graph0" class="graph" transform="scale(1 1) rotate(0) translate(4 1068.07)">
<title>twoDegreesRelationshipsDiagramImplied</title>
<polygon fill="#ffffff" stroke="transparent" points="-4,4 -4,-1068.07 1001,-1068.07 1001,4 -4,4"/>
<text text-anchor="middle" x="79.5" y="-7.2" font-family="Helvetica,sans-Serif" font-size="11.00">Generated by SchemaSpy</text>
<!-- archival_internal_transactions -->
<g id="node1" class="node">
<title>archival_internal_transactions</title>
<g id="a_node1"><a xlink:href="../../tables/archival_internal_transactions.html" xlink:title="archival_internal_transactions" target="_top">
<polygon fill="#ffffff" stroke="transparent" points="369,-195 369,-723 738,-723 738,-195 369,-195"/>
<polygon fill="#f5f5f5" stroke="transparent" points="371.5,-699 371.5,-721 736.5,-721 736.5,-699 371.5,-699"/>
<polygon fill="none" stroke="black" points="371.5,-699 371.5,-721 736.5,-721 736.5,-699 371.5,-699"/>
<text text-anchor="start" x="376.5" y="-708.2" font-family="Helvetica,sans-Serif" font-weight="bold" font-size="11.00">archival_internal_transactions</text>
<text text-anchor="start" x="694.5" y="-707.2" font-family="Helvetica,sans-Serif" font-size="11.00">[table]</text>
<polygon fill="none" stroke="black" points="371.5,-677 371.5,-699 621.5,-699 621.5,-677 371.5,-677"/>
<text text-anchor="start" x="391.5" y="-685.2" font-family="Helvetica,sans-Serif" font-size="11.00">call_type</text>
<polygon fill="none" stroke="black" points="621.5,-677 621.5,-699 736.5,-699 736.5,-677 621.5,-677"/>
<text text-anchor="start" x="624.5" y="-685.2" font-family="Helvetica,sans-Serif" font-size="11.00">varchar[255]</text>
<polygon fill="none" stroke="black" points="371.5,-655 371.5,-677 621.5,-677 621.5,-655 371.5,-655"/>
<text text-anchor="start" x="391.5" y="-663.2" font-family="Helvetica,sans-Serif" font-size="11.00">created_contract_code</text>
<polygon fill="none" stroke="black" points="621.5,-655 621.5,-677 736.5,-677 736.5,-655 621.5,-655"/>
<text text-anchor="start" x="624.5" y="-663.2" font-family="Helvetica,sans-Serif" font-size="11.00">bytea[2147483647]</text>
<polygon fill="none" stroke="black" points="371.5,-633 371.5,-655 621.5,-655 621.5,-633 371.5,-633"/>
<text text-anchor="start" x="391.5" y="-641.2" font-family="Helvetica,sans-Serif" font-size="11.00">error</text>
<polygon fill="none" stroke="black" points="621.5,-633 621.5,-655 736.5,-655 736.5,-633 621.5,-633"/>
<text text-anchor="start" x="624.5" y="-641.2" font-family="Helvetica,sans-Serif" font-size="11.00">varchar[255]</text>
<polygon fill="none" stroke="black" points="371.5,-611 371.5,-633 621.5,-633 621.5,-611 371.5,-611"/>
<text text-anchor="start" x="391.5" y="-619.2" font-family="Helvetica,sans-Serif" font-size="11.00">gas</text>
<polygon fill="none" stroke="black" points="621.5,-611 621.5,-633 736.5,-633 736.5,-611 621.5,-611"/>
<text text-anchor="start" x="624.5" y="-619.2" font-family="Helvetica,sans-Serif" font-size="11.00">numeric[100]</text>
<polygon fill="none" stroke="black" points="371.5,-589 371.5,-611 621.5,-611 621.5,-589 371.5,-589"/>
<text text-anchor="start" x="391.5" y="-597.2" font-family="Helvetica,sans-Serif" font-size="11.00">gas_used</text>
<polygon fill="none" stroke="black" points="621.5,-589 621.5,-611 736.5,-611 736.5,-589 621.5,-589"/>
<text text-anchor="start" x="624.5" y="-597.2" font-family="Helvetica,sans-Serif" font-size="11.00">numeric[100]</text>
<polygon fill="none" stroke="black" points="371.5,-567 371.5,-589 621.5,-589 621.5,-567 371.5,-567"/>
<image xlink:href="../../images/foreignKeys.png" width="11px" height="12px" preserveAspectRatio="xMinYMin meet" x="376.5" y="-584"/>
<text text-anchor="start" x="391.5" y="-575.2" font-family="Helvetica,sans-Serif" font-size="11.00">index</text>
<polygon fill="none" stroke="black" points="621.5,-567 621.5,-589 736.5,-589 736.5,-567 621.5,-567"/>
<text text-anchor="start" x="624.5" y="-575.2" font-family="Helvetica,sans-Serif" font-size="11.00">int4[10]</text>
<polygon fill="none" stroke="black" points="371.5,-545 371.5,-567 621.5,-567 621.5,-545 371.5,-545"/>
<text text-anchor="start" x="391.5" y="-553.2" font-family="Helvetica,sans-Serif" font-size="11.00">init</text>
<polygon fill="none" stroke="black" points="621.5,-545 621.5,-567 736.5,-567 736.5,-545 621.5,-545"/>
<text text-anchor="start" x="624.5" y="-553.2" font-family="Helvetica,sans-Serif" font-size="11.00">bytea[2147483647]</text>
<polygon fill="none" stroke="black" points="371.5,-523 371.5,-545 621.5,-545 621.5,-523 371.5,-523"/>
<text text-anchor="start" x="391.5" y="-531.2" font-family="Helvetica,sans-Serif" font-size="11.00">input</text>
<polygon fill="none" stroke="black" points="621.5,-523 621.5,-545 736.5,-545 736.5,-523 621.5,-523"/>
<text text-anchor="start" x="624.5" y="-531.2" font-family="Helvetica,sans-Serif" font-size="11.00">bytea[2147483647]</text>
<polygon fill="none" stroke="black" points="371.5,-501 371.5,-523 621.5,-523 621.5,-501 371.5,-501"/>
<text text-anchor="start" x="391.5" y="-509.2" font-family="Helvetica,sans-Serif" font-size="11.00">output</text>
<polygon fill="none" stroke="black" points="621.5,-501 621.5,-523 736.5,-523 736.5,-501 621.5,-501"/>
<text text-anchor="start" x="624.5" y="-509.2" font-family="Helvetica,sans-Serif" font-size="11.00">bytea[2147483647]</text>
<polygon fill="none" stroke="black" points="371.5,-479 371.5,-501 621.5,-501 621.5,-479 371.5,-479"/>
<text text-anchor="start" x="391.5" y="-487.2" font-family="Helvetica,sans-Serif" font-size="11.00">trace_address</text>
<polygon fill="none" stroke="black" points="621.5,-479 621.5,-501 736.5,-501 736.5,-479 621.5,-479"/>
<text text-anchor="start" x="624.5" y="-487.2" font-family="Helvetica,sans-Serif" font-size="11.00">_int4[10]</text>
<polygon fill="none" stroke="black" points="371.5,-457 371.5,-479 621.5,-479 621.5,-457 371.5,-457"/>
<text text-anchor="start" x="391.5" y="-465.2" font-family="Helvetica,sans-Serif" font-size="11.00">type</text>
<polygon fill="none" stroke="black" points="621.5,-457 621.5,-479 736.5,-479 736.5,-457 621.5,-457"/>
<text text-anchor="start" x="624.5" y="-465.2" font-family="Helvetica,sans-Serif" font-size="11.00">varchar[255]</text>
<polygon fill="none" stroke="black" points="371.5,-435 371.5,-457 621.5,-457 621.5,-435 371.5,-435"/>
<text text-anchor="start" x="391.5" y="-443.2" font-family="Helvetica,sans-Serif" font-size="11.00">value</text>
<polygon fill="none" stroke="black" points="621.5,-435 621.5,-457 736.5,-457 736.5,-435 621.5,-435"/>
<text text-anchor="start" x="624.5" y="-443.2" font-family="Helvetica,sans-Serif" font-size="11.00">numeric[100]</text>
<polygon fill="none" stroke="black" points="371.5,-413 371.5,-435 621.5,-435 621.5,-413 371.5,-413"/>
<text text-anchor="start" x="391.5" y="-421.2" font-family="Helvetica,sans-Serif" font-size="11.00">inserted_at</text>
<polygon fill="none" stroke="black" points="621.5,-413 621.5,-435 736.5,-435 736.5,-413 621.5,-413"/>
<text text-anchor="start" x="624.5" y="-421.2" font-family="Helvetica,sans-Serif" font-size="11.00">timestamp[29,6]</text>
<polygon fill="none" stroke="black" points="371.5,-391 371.5,-413 621.5,-413 621.5,-391 371.5,-391"/>
<text text-anchor="start" x="391.5" y="-399.2" font-family="Helvetica,sans-Serif" font-size="11.00">updated_at</text>
<polygon fill="none" stroke="black" points="621.5,-391 621.5,-413 736.5,-413 736.5,-391 621.5,-391"/>
<text text-anchor="start" x="624.5" y="-399.2" font-family="Helvetica,sans-Serif" font-size="11.00">timestamp[29,6]</text>
<polygon fill="none" stroke="black" points="371.5,-369 371.5,-391 621.5,-391 621.5,-369 371.5,-369"/>
<text text-anchor="start" x="391.5" y="-377.2" font-family="Helvetica,sans-Serif" font-size="11.00">created_contract_address_hash</text>
<polygon fill="none" stroke="black" points="621.5,-369 621.5,-391 736.5,-391 736.5,-369 621.5,-369"/>
<text text-anchor="start" x="624.5" y="-377.2" font-family="Helvetica,sans-Serif" font-size="11.00">bytea[2147483647]</text>
<polygon fill="none" stroke="black" points="371.5,-347 371.5,-369 621.5,-369 621.5,-347 371.5,-347"/>
<text text-anchor="start" x="391.5" y="-355.2" font-family="Helvetica,sans-Serif" font-size="11.00">from_address_hash</text>
<polygon fill="none" stroke="black" points="621.5,-347 621.5,-369 736.5,-369 736.5,-347 621.5,-347"/>
<text text-anchor="start" x="624.5" y="-355.2" font-family="Helvetica,sans-Serif" font-size="11.00">bytea[2147483647]</text>
<polygon fill="none" stroke="black" points="371.5,-325 371.5,-347 621.5,-347 621.5,-325 371.5,-325"/>
<text text-anchor="start" x="391.5" y="-333.2" font-family="Helvetica,sans-Serif" font-size="11.00">to_address_hash</text>
<polygon fill="none" stroke="black" points="621.5,-325 621.5,-347 736.5,-347 736.5,-325 621.5,-325"/>
<text text-anchor="start" x="624.5" y="-333.2" font-family="Helvetica,sans-Serif" font-size="11.00">bytea[2147483647]</text>
<polygon fill="none" stroke="black" points="371.5,-303 371.5,-325 621.5,-325 621.5,-303 371.5,-303"/>
<text text-anchor="start" x="391.5" y="-311.2" font-family="Helvetica,sans-Serif" font-size="11.00">transaction_hash</text>
<polygon fill="none" stroke="black" points="621.5,-303 621.5,-325 736.5,-325 736.5,-303 621.5,-303"/>
<text text-anchor="start" x="624.5" y="-311.2" font-family="Helvetica,sans-Serif" font-size="11.00">bytea[2147483647]</text>
<polygon fill="none" stroke="black" points="371.5,-281 371.5,-303 621.5,-303 621.5,-281 371.5,-281"/>
<text text-anchor="start" x="391.5" y="-289.2" font-family="Helvetica,sans-Serif" font-size="11.00">block_number</text>
<polygon fill="none" stroke="black" points="621.5,-281 621.5,-303 736.5,-303 736.5,-281 621.5,-281"/>
<text text-anchor="start" x="624.5" y="-289.2" font-family="Helvetica,sans-Serif" font-size="11.00">int4[10]</text>
<polygon fill="none" stroke="black" points="371.5,-259 371.5,-281 621.5,-281 621.5,-259 371.5,-259"/>
<image xlink:href="../../images/foreignKeys.png" width="11px" height="12px" preserveAspectRatio="xMinYMin meet" x="376.5" y="-276"/>
<text text-anchor="start" x="391.5" y="-267.2" font-family="Helvetica,sans-Serif" font-size="11.00">transaction_index</text>
<polygon fill="none" stroke="black" points="621.5,-259 621.5,-281 736.5,-281 736.5,-259 621.5,-259"/>
<text text-anchor="start" x="624.5" y="-267.2" font-family="Helvetica,sans-Serif" font-size="11.00">int4[10]</text>
<polygon fill="none" stroke="black" points="371.5,-237 371.5,-259 621.5,-259 621.5,-237 371.5,-237"/>
<text text-anchor="start" x="391.5" y="-245.2" font-family="Helvetica,sans-Serif" font-size="11.00">block_hash</text>
<polygon fill="none" stroke="black" points="621.5,-237 621.5,-259 736.5,-259 736.5,-237 621.5,-237"/>
<text text-anchor="start" x="624.5" y="-245.2" font-family="Helvetica,sans-Serif" font-size="11.00">bytea[2147483647]</text>
<polygon fill="none" stroke="black" points="371.5,-215 371.5,-237 621.5,-237 621.5,-215 371.5,-215"/>
<image xlink:href="../../images/foreignKeys.png" width="11px" height="12px" preserveAspectRatio="xMinYMin meet" x="376.5" y="-232"/>
<text text-anchor="start" x="391.5" y="-223.2" font-family="Helvetica,sans-Serif" font-size="11.00">block_index</text>
<polygon fill="none" stroke="black" points="621.5,-215 621.5,-237 736.5,-237 736.5,-215 621.5,-215"/>
<text text-anchor="start" x="624.5" y="-223.2" font-family="Helvetica,sans-Serif" font-size="11.00">int4[10]</text>
<polygon fill="#ffffff" stroke="transparent" points="371.5,-197 371.5,-215 736.5,-215 736.5,-197 371.5,-197"/>
<polygon fill="none" stroke="black" points="371.5,-197 371.5,-215 736.5,-215 736.5,-197 371.5,-197"/>
<polygon fill="#ffffff" stroke="transparent" points="372.5,-198 372.5,-214 475.5,-214 475.5,-198 372.5,-198"/>
<text text-anchor="start" x="374.5" y="-203.2" font-family="Helvetica,sans-Serif" font-size="11.00">&lt; 3</text>
<polygon fill="#ffffff" stroke="transparent" points="475.5,-198 475.5,-214 633.5,-214 633.5,-198 475.5,-198"/>
<text text-anchor="start" x="517" y="-203.2" font-family="Helvetica,sans-Serif" font-size="11.00">524,630 rows</text>
<polygon fill="#ffffff" stroke="transparent" points="633.5,-198 633.5,-214 735.5,-214 735.5,-198 633.5,-198"/>
<text text-anchor="start" x="713.5" y="-203.2" font-family="Helvetica,sans-Serif" font-size="11.00">0 &gt;</text>
<polygon fill="black" stroke="black" points="475.5,-198 475.5,-214 475.5,-214 475.5,-198 475.5,-198"/>
<polygon fill="black" stroke="black" points="633.5,-198 633.5,-214 633.5,-214 633.5,-198 633.5,-198"/>
<polygon fill="none" stroke="black" stroke-width="2" points="370,-196 370,-722 737,-722 737,-196 370,-196"/>
</a>
</g>
</g>
<!-- withdrawals -->
<g id="node2" class="node">
<title>withdrawals</title>
<g id="a_node2"><a xlink:href="../../tables/withdrawals.html" xlink:title="withdrawals" target="_top">
<polygon fill="#ffffff" stroke="transparent" points="184,-572 184,-696 320,-696 320,-572 184,-572"/>
<polygon fill="#f5f5f5" stroke="transparent" points="184,-674 184,-696 320,-696 320,-674 184,-674"/>
<polygon fill="none" stroke="black" points="184,-674 184,-696 320,-696 320,-674 184,-674"/>
<text text-anchor="start" x="189" y="-683.2" font-family="Helvetica,sans-Serif" font-weight="bold" font-size="11.00">withdrawals</text>
<text text-anchor="start" x="278" y="-682.2" font-family="Helvetica,sans-Serif" font-size="11.00">[table]</text>
<polygon fill="none" stroke="black" points="184,-652 184,-674 320,-674 320,-652 184,-652"/>
<image xlink:href="../../images/primaryKeys.png" width="11px" height="12px" preserveAspectRatio="xMinYMin meet" x="189" y="-669"/>
<text text-anchor="start" x="206" y="-660.2" font-family="Helvetica,sans-Serif" font-size="11.00">index</text>
<polygon fill="#ffffff" stroke="transparent" points="184,-630 184,-652 320,-652 320,-630 184,-630"/>
<polygon fill="none" stroke="black" points="184,-630 184,-652 320,-652 320,-630 184,-630"/>
<text text-anchor="start" x="206" y="-638.2" font-family="Helvetica,sans-Serif" font-size="11.00">address_hash</text>
<polygon fill="#ffffff" stroke="transparent" points="184,-608 184,-630 320,-630 320,-608 184,-608"/>
<polygon fill="none" stroke="black" points="184,-608 184,-630 320,-630 320,-608 184,-608"/>
<image xlink:href="../../images/foreignKeys.png" width="11px" height="12px" preserveAspectRatio="xMinYMin meet" x="189" y="-625"/>
<text text-anchor="start" x="206" y="-616.2" font-family="Helvetica,sans-Serif" font-size="11.00">block_hash</text>
<polygon fill="none" stroke="black" points="184,-590 184,-608 320,-608 320,-590 184,-590"/>
<text text-anchor="start" x="187" y="-596.2" font-family="Helvetica,sans-Serif" font-size="11.00">...</text>
<polygon fill="#ffffff" stroke="transparent" points="184,-572 184,-590 320,-590 320,-572 184,-572"/>
<polygon fill="none" stroke="black" points="184,-572 184,-590 320,-590 320,-572 184,-572"/>
<polygon fill="#ffffff" stroke="transparent" points="185,-573 185,-589 209,-589 209,-573 185,-573"/>
<text text-anchor="start" x="187" y="-578.2" font-family="Helvetica,sans-Serif" font-size="11.00">&lt; 1</text>
<polygon fill="#ffffff" stroke="transparent" points="209,-573 209,-589 288,-589 288,-573 209,-573"/>
<text text-anchor="start" x="211" y="-578.2" font-family="Helvetica,sans-Serif" font-size="11.00">552,138 rows</text>
<polygon fill="#ffffff" stroke="transparent" points="288,-573 288,-589 319,-589 319,-573 288,-573"/>
<text text-anchor="start" x="290" y="-578.2" font-family="Helvetica,sans-Serif" font-size="11.00">13 &gt;</text>
<polygon fill="black" stroke="black" points="209,-573 209,-589 209,-589 209,-573 209,-573"/>
<polygon fill="black" stroke="black" points="288,-573 288,-589 288,-589 288,-573 288,-573"/>
</a>
</g>
</g>
<!-- archival_internal_transactions&#45;&gt;withdrawals -->
<g id="edge1" class="edge">
<title>archival_internal_transactions:w&#45;&gt;withdrawals:e</title>
<path fill="none" stroke="black" stroke-dasharray="5,2" d="M356.57,-229.78C288,-272.49 413.39,-663 321,-663"/>
<polygon fill="black" stroke="black" points="362.78,-228.09 371.44,-229.47 366.64,-227.05 370.5,-226 370.5,-226 370.5,-226 366.64,-227.05 369.56,-222.53 362.78,-228.09 362.78,-228.09"/>
<ellipse fill="none" stroke="black" cx="359.69" cy="-228.93" rx="3.2" ry="3.2"/>
</g>
<!-- archival_internal_transactions&#45;&gt;withdrawals -->
<g id="edge2" class="edge">
<title>archival_internal_transactions:w&#45;&gt;withdrawals:e</title>
<path fill="none" stroke="black" stroke-dasharray="5,2" d="M356.73,-582.33C335.63,-599.65 358.74,-663 321,-663"/>
<polygon fill="black" stroke="black" points="362.87,-580.4 371.58,-581.43 366.68,-579.2 370.5,-578 370.5,-578 370.5,-578 366.68,-579.2 369.42,-574.57 362.87,-580.4 362.87,-580.4"/>
<ellipse fill="none" stroke="black" cx="359.82" cy="-581.36" rx="3.2" ry="3.2"/>
</g>
<!-- archival_internal_transactions&#45;&gt;withdrawals -->
<g id="edge3" class="edge">
<title>archival_internal_transactions:w&#45;&gt;withdrawals:e</title>
<path fill="none" stroke="black" stroke-dasharray="5,2" d="M355.8,-271.06C212.34,-293.43 491.72,-663 321,-663"/>
<polygon fill="black" stroke="black" points="362.52,-270.57 370.76,-273.59 366.51,-270.29 370.5,-270 370.5,-270 370.5,-270 366.51,-270.29 370.24,-266.41 362.52,-270.57 362.52,-270.57"/>
<ellipse fill="none" stroke="black" cx="359.33" cy="-270.8" rx="3.2" ry="3.2"/>
</g>
<!-- blocks -->
<g id="node4" class="node">
<title>blocks</title>
<g id="a_node4"><a xlink:href="../../tables/blocks.html" xlink:title="blocks" target="_top">
<polygon fill="#ffffff" stroke="transparent" points="8,-701 8,-759 135,-759 135,-701 8,-701"/>
<polygon fill="#f5f5f5" stroke="transparent" points="8.5,-737 8.5,-759 135.5,-759 135.5,-737 8.5,-737"/>
<polygon fill="none" stroke="black" points="8.5,-737 8.5,-759 135.5,-759 135.5,-737 8.5,-737"/>
<text text-anchor="start" x="13.5" y="-746.2" font-family="Helvetica,sans-Serif" font-weight="bold" font-size="11.00">blocks</text>
<text text-anchor="start" x="93.5" y="-745.2" font-family="Helvetica,sans-Serif" font-size="11.00">[table]</text>
<polygon fill="none" stroke="black" points="8.5,-719 8.5,-737 135.5,-737 135.5,-719 8.5,-719"/>
<text text-anchor="start" x="11.5" y="-725.2" font-family="Helvetica,sans-Serif" font-size="11.00">...</text>
<polygon fill="#ffffff" stroke="transparent" points="8.5,-701 8.5,-719 135.5,-719 135.5,-701 8.5,-701"/>
<polygon fill="none" stroke="black" points="8.5,-701 8.5,-719 135.5,-719 135.5,-701 8.5,-701"/>
<polygon fill="#ffffff" stroke="transparent" points="9.5,-702 9.5,-718 21.5,-718 21.5,-702 9.5,-702"/>
<text text-anchor="start" x="11.5" y="-707.2" font-family="Helvetica,sans-Serif" font-size="11.00"> &#160;</text>
<polygon fill="#ffffff" stroke="transparent" points="21.5,-702 21.5,-718 110.5,-718 110.5,-702 21.5,-702"/>
<text text-anchor="start" x="23.5" y="-707.2" font-family="Helvetica,sans-Serif" font-size="11.00">1,446,481 rows</text>
<polygon fill="#ffffff" stroke="transparent" points="110.5,-702 110.5,-718 134.5,-718 134.5,-702 110.5,-702"/>
<text text-anchor="start" x="112.5" y="-707.2" font-family="Helvetica,sans-Serif" font-size="11.00">9 &gt;</text>
<polygon fill="black" stroke="black" points="21.5,-702 21.5,-718 21.5,-718 21.5,-702 21.5,-702"/>
<polygon fill="black" stroke="black" points="110.5,-702 110.5,-718 110.5,-718 110.5,-702 110.5,-702"/>
</a>
</g>
</g>
<!-- withdrawals&#45;&gt;blocks -->
<g id="edge18" class="edge">
<title>withdrawals:w&#45;&gt;blocks:e</title>
<path fill="none" stroke="black" d="M169.07,-622.88C142.23,-642.3 183.2,-728 136.5,-728"/>
<polygon fill="black" stroke="black" points="175.29,-621.15 183.97,-622.47 179.15,-620.07 183,-619 183,-619 183,-619 179.15,-620.07 182.03,-615.53 175.29,-621.15 175.29,-621.15"/>
<ellipse fill="none" stroke="black" cx="172.21" cy="-622" rx="3.2" ry="3.2"/>
</g>
<!-- block_second_degree_relations -->
<g id="node3" class="node">
<title>block_second_degree_relations</title>
<g id="a_node3"><a xlink:href="../../tables/block_second_degree_relations.html" xlink:title="block_second_degree_relations" target="_top">
<polygon fill="#ffffff" stroke="transparent" points="417,-929 417,-987 690,-987 690,-929 417,-929"/>
<polygon fill="#f5f5f5" stroke="transparent" points="417.5,-965 417.5,-987 690.5,-987 690.5,-965 417.5,-965"/>
<polygon fill="none" stroke="black" points="417.5,-965 417.5,-987 690.5,-987 690.5,-965 417.5,-965"/>
<text text-anchor="start" x="422.5" y="-974.2" font-family="Helvetica,sans-Serif" font-weight="bold" font-size="11.00">block_second_degree_relations</text>
<text text-anchor="start" x="648.5" y="-973.2" font-family="Helvetica,sans-Serif" font-size="11.00">[table]</text>
<polygon fill="none" stroke="black" points="417.5,-947 417.5,-965 690.5,-965 690.5,-947 417.5,-947"/>
<text text-anchor="start" x="420.5" y="-953.2" font-family="Helvetica,sans-Serif" font-size="11.00">...</text>
<polygon fill="#ffffff" stroke="transparent" points="417.5,-929 417.5,-947 690.5,-947 690.5,-929 417.5,-929"/>
<polygon fill="none" stroke="black" points="417.5,-929 417.5,-947 690.5,-947 690.5,-929 417.5,-929"/>
<polygon fill="#ffffff" stroke="transparent" points="418.5,-930 418.5,-946 497.5,-946 497.5,-930 418.5,-930"/>
<text text-anchor="start" x="420.5" y="-935.2" font-family="Helvetica,sans-Serif" font-size="11.00">&lt; 2</text>
<polygon fill="#ffffff" stroke="transparent" points="497.5,-930 497.5,-946 623.5,-946 623.5,-930 497.5,-930"/>
<text text-anchor="start" x="526.5" y="-935.2" font-family="Helvetica,sans-Serif" font-size="11.00">39,778 rows</text>
<polygon fill="#ffffff" stroke="transparent" points="623.5,-930 623.5,-946 689.5,-946 689.5,-930 623.5,-930"/>
<text text-anchor="start" x="679.5" y="-935.2" font-family="Helvetica,sans-Serif" font-size="11.00"> &#160;</text>
<polygon fill="black" stroke="black" points="497.5,-930 497.5,-946 497.5,-946 497.5,-930 497.5,-930"/>
<polygon fill="black" stroke="black" points="623.5,-930 623.5,-946 623.5,-946 623.5,-930 623.5,-930"/>
</a>
</g>
</g>
<!-- block_second_degree_relations&#45;&gt;withdrawals -->
<g id="edge4" class="edge">
<title>block_second_degree_relations:w&#45;&gt;withdrawals:e</title>
<path fill="none" stroke="black" stroke-dasharray="5,2" d="M402.01,-954.78C383.02,-951.15 374.04,-939.39 361,-919 329.98,-870.49 378.58,-663 321,-663"/>
<polygon fill="black" stroke="black" points="408.53,-955.33 416.2,-959.59 412.51,-955.66 416.5,-956 416.5,-956 416.5,-956 412.51,-955.66 416.8,-952.41 408.53,-955.33 408.53,-955.33"/>
<ellipse fill="none" stroke="black" cx="405.34" cy="-955.06" rx="3.2" ry="3.2"/>
</g>
<!-- block_second_degree_relations&#45;&gt;blocks -->
<g id="edge5" class="edge">
<title>block_second_degree_relations:w&#45;&gt;blocks:e</title>
<path fill="none" stroke="black" d="M402.03,-955.35C258.38,-941.97 291.97,-728 136.5,-728"/>
<polygon fill="black" stroke="black" points="408.51,-955.64 416.34,-959.6 412.5,-955.82 416.5,-956 416.5,-956 416.5,-956 412.5,-955.82 416.66,-952.4 408.51,-955.64 408.51,-955.64"/>
<ellipse fill="none" stroke="black" cx="405.31" cy="-955.49" rx="3.2" ry="3.2"/>
</g>
<!-- internal_transactions -->
<g id="node5" class="node">
<title>internal_transactions</title>
<g id="a_node5"><a xlink:href="../../tables/internal_transactions.html" xlink:title="internal_transactions" target="_top">
<polygon fill="#ffffff" stroke="transparent" points="787,-720 787,-778 989,-778 989,-720 787,-720"/>
<polygon fill="#f5f5f5" stroke="transparent" points="787,-756 787,-778 989,-778 989,-756 787,-756"/>
<polygon fill="none" stroke="black" points="787,-756 787,-778 989,-778 989,-756 787,-756"/>
<text text-anchor="start" x="792" y="-765.2" font-family="Helvetica,sans-Serif" font-weight="bold" font-size="11.00">internal_transactions</text>
<text text-anchor="start" x="947" y="-764.2" font-family="Helvetica,sans-Serif" font-size="11.00">[table]</text>
<polygon fill="none" stroke="black" points="787,-738 787,-756 989,-756 989,-738 787,-738"/>
<text text-anchor="start" x="790" y="-744.2" font-family="Helvetica,sans-Serif" font-size="11.00">...</text>
<polygon fill="#ffffff" stroke="transparent" points="787,-720 787,-738 989,-738 989,-720 787,-720"/>
<polygon fill="none" stroke="black" points="787,-720 787,-738 989,-738 989,-720 787,-720"/>
<polygon fill="#ffffff" stroke="transparent" points="788,-721 788,-737 845,-737 845,-721 788,-721"/>
<text text-anchor="start" x="790" y="-726.2" font-family="Helvetica,sans-Serif" font-size="11.00">&lt; 3</text>
<polygon fill="#ffffff" stroke="transparent" points="845,-721 845,-737 943,-737 943,-721 845,-721"/>
<text text-anchor="start" x="863.5" y="-726.2" font-family="Helvetica,sans-Serif" font-size="11.00">4,167 rows</text>
<polygon fill="#ffffff" stroke="transparent" points="943,-721 943,-737 988,-737 988,-721 943,-721"/>
<text text-anchor="start" x="978" y="-726.2" font-family="Helvetica,sans-Serif" font-size="11.00"> &#160;</text>
<polygon fill="black" stroke="black" points="845,-721 845,-737 845,-737 845,-721 845,-721"/>
<polygon fill="black" stroke="black" points="943,-721 943,-737 943,-737 943,-721 943,-721"/>
</a>
</g>
</g>
<!-- internal_transactions&#45;&gt;withdrawals -->
<g id="edge7" class="edge">
<title>internal_transactions:w&#45;&gt;withdrawals:e</title>
<path fill="none" stroke="black" stroke-dasharray="5,2" d="M771.41,-747.23C668,-750.24 437.97,-780.58 361,-734 330.01,-715.25 357.22,-663 321,-663"/>
<polygon fill="black" stroke="black" points="778,-747.13 786.06,-750.6 782,-747.06 786,-747 786,-747 786,-747 782,-747.06 785.94,-743.4 778,-747.13 778,-747.13"/>
<ellipse fill="none" stroke="black" cx="774.8" cy="-747.18" rx="3.2" ry="3.2"/>
</g>
<!-- internal_transactions&#45;&gt;blocks -->
<g id="edge6" class="edge">
<title>internal_transactions:w&#45;&gt;blocks:e</title>
<path fill="none" stroke="black" d="M772.57,-752.77C740.15,-787.17 784.77,-964.92 746,-998 615.83,-1109.07 521.17,-1058.21 361,-998 258.7,-959.54 237.81,-926.13 176,-836 147.09,-793.85 187.61,-728 136.5,-728"/>
<polygon fill="black" stroke="black" points="778.65,-750.16 787.42,-750.31 782.32,-748.58 786,-747 786,-747 786,-747 782.32,-748.58 784.58,-743.69 778.65,-750.16 778.65,-750.16"/>
<ellipse fill="none" stroke="black" cx="775.71" cy="-751.42" rx="3.2" ry="3.2"/>
</g>
<!-- transactions -->
<g id="node6" class="node">
<title>transactions</title>
<g id="a_node6"><a xlink:href="../../tables/transactions.html" xlink:title="transactions" target="_top">
<polygon fill="#ffffff" stroke="transparent" points="484,-37 484,-95 623,-95 623,-37 484,-37"/>
<polygon fill="#f5f5f5" stroke="transparent" points="484.5,-73 484.5,-95 623.5,-95 623.5,-73 484.5,-73"/>
<polygon fill="none" stroke="black" points="484.5,-73 484.5,-95 623.5,-95 623.5,-73 484.5,-73"/>
<text text-anchor="start" x="489.5" y="-82.2" font-family="Helvetica,sans-Serif" font-weight="bold" font-size="11.00">transactions</text>
<text text-anchor="start" x="581.5" y="-81.2" font-family="Helvetica,sans-Serif" font-size="11.00">[table]</text>
<polygon fill="none" stroke="black" points="484.5,-55 484.5,-73 623.5,-73 623.5,-55 484.5,-55"/>
<text text-anchor="start" x="487.5" y="-61.2" font-family="Helvetica,sans-Serif" font-size="11.00">...</text>
<polygon fill="#ffffff" stroke="transparent" points="484.5,-37 484.5,-55 623.5,-55 623.5,-37 484.5,-37"/>
<polygon fill="none" stroke="black" points="484.5,-37 484.5,-55 623.5,-55 623.5,-37 484.5,-37"/>
<polygon fill="#ffffff" stroke="transparent" points="485.5,-38 485.5,-54 509.5,-54 509.5,-38 485.5,-38"/>
<text text-anchor="start" x="487.5" y="-43.2" font-family="Helvetica,sans-Serif" font-size="11.00">&lt; 2</text>
<polygon fill="#ffffff" stroke="transparent" points="509.5,-38 509.5,-54 598.5,-54 598.5,-38 509.5,-38"/>
<text text-anchor="start" x="511.5" y="-43.2" font-family="Helvetica,sans-Serif" font-size="11.00">5,902,854 rows</text>
<polygon fill="#ffffff" stroke="transparent" points="598.5,-38 598.5,-54 622.5,-54 622.5,-38 598.5,-38"/>
<text text-anchor="start" x="600.5" y="-43.2" font-family="Helvetica,sans-Serif" font-size="11.00">8 &gt;</text>
<polygon fill="black" stroke="black" points="509.5,-38 509.5,-54 509.5,-54 509.5,-38 509.5,-38"/>
<polygon fill="black" stroke="black" points="598.5,-38 598.5,-54 598.5,-54 598.5,-38 598.5,-38"/>
</a>
</g>
</g>
<!-- internal_transactions&#45;&gt;transactions -->
<g id="edge8" class="edge">
<title>internal_transactions:w&#45;&gt;transactions:e</title>
<path fill="none" stroke="black" d="M773.62,-739.58C723.96,-671.6 786.58,-157.97 746,-105 711.34,-59.76 681.49,-64 624.5,-64"/>
<polygon fill="black" stroke="black" points="779.14,-742.89 784.15,-750.09 782.57,-744.94 786,-747 786,-747 786,-747 782.57,-744.94 787.85,-743.91 779.14,-742.89 779.14,-742.89"/>
<ellipse fill="none" stroke="black" cx="776.39" cy="-741.24" rx="3.2" ry="3.2"/>
</g>
<!-- transactions&#45;&gt;withdrawals -->
<g id="edge17" class="edge">
<title>transactions:w&#45;&gt;withdrawals:e</title>
<path fill="none" stroke="black" stroke-dasharray="5,2" d="M468.98,-63.94C420.79,-63.62 393.09,-63.62 361,-105 322.9,-154.12 383.16,-663 321,-663"/>
<polygon fill="black" stroke="black" points="475.5,-63.96 483.48,-67.6 479.5,-63.98 483.5,-64 483.5,-64 483.5,-64 479.5,-63.98 483.52,-60.4 475.5,-63.96 475.5,-63.96"/>
<ellipse fill="none" stroke="black" cx="472.3" cy="-63.95" rx="3.2" ry="3.2"/>
</g>
<!-- transactions&#45;&gt;blocks -->
<g id="edge16" class="edge">
<title>transactions:w&#45;&gt;blocks:e</title>
<path fill="none" stroke="black" d="M468.95,-64.27C224.54,-73.53 253.63,-318.92 176,-562 164.46,-598.12 174.42,-728 136.5,-728"/>
<polygon fill="black" stroke="black" points="475.5,-64.15 483.57,-67.6 479.5,-64.07 483.5,-64 483.5,-64 483.5,-64 479.5,-64.07 483.43,-60.4 475.5,-64.15 475.5,-64.15"/>
<ellipse fill="none" stroke="black" cx="472.3" cy="-64.21" rx="3.2" ry="3.2"/>
</g>
<!-- internal_transactions_bkp -->
<g id="node7" class="node">
<title>internal_transactions_bkp</title>
<g id="a_node7"><a xlink:href="../../tables/internal_transactions_bkp.html" xlink:title="internal_transactions_bkp" target="_top">
<polygon fill="#ffffff" stroke="transparent" points="435.5,-116 435.5,-174 671.5,-174 671.5,-116 435.5,-116"/>
<polygon fill="#f5f5f5" stroke="transparent" points="435.5,-152 435.5,-174 671.5,-174 671.5,-152 435.5,-152"/>
<polygon fill="none" stroke="black" points="435.5,-152 435.5,-174 671.5,-174 671.5,-152 435.5,-152"/>
<text text-anchor="start" x="440.5" y="-161.2" font-family="Helvetica,sans-Serif" font-weight="bold" font-size="11.00">internal_transactions_bkp</text>
<text text-anchor="start" x="629.5" y="-160.2" font-family="Helvetica,sans-Serif" font-size="11.00">[table]</text>
<polygon fill="none" stroke="black" points="435.5,-134 435.5,-152 671.5,-152 671.5,-134 435.5,-134"/>
<text text-anchor="start" x="438.5" y="-140.2" font-family="Helvetica,sans-Serif" font-size="11.00">...</text>
<polygon fill="#ffffff" stroke="transparent" points="435.5,-116 435.5,-134 671.5,-134 671.5,-116 435.5,-116"/>
<polygon fill="none" stroke="black" points="435.5,-116 435.5,-134 671.5,-134 671.5,-116 435.5,-116"/>
<polygon fill="#ffffff" stroke="transparent" points="436.5,-117 436.5,-133 500.5,-133 500.5,-117 436.5,-117"/>
<text text-anchor="start" x="438.5" y="-122.2" font-family="Helvetica,sans-Serif" font-size="11.00">&lt; 3</text>
<polygon fill="#ffffff" stroke="transparent" points="500.5,-117 500.5,-133 619.5,-133 619.5,-117 500.5,-117"/>
<text text-anchor="start" x="522.5" y="-122.2" font-family="Helvetica,sans-Serif" font-size="11.00">524,719 rows</text>
<polygon fill="#ffffff" stroke="transparent" points="619.5,-117 619.5,-133 670.5,-133 670.5,-117 619.5,-117"/>
<text text-anchor="start" x="660.5" y="-122.2" font-family="Helvetica,sans-Serif" font-size="11.00"> &#160;</text>
<polygon fill="black" stroke="black" points="500.5,-117 500.5,-133 500.5,-133 500.5,-117 500.5,-117"/>
<polygon fill="black" stroke="black" points="619.5,-117 619.5,-133 619.5,-133 619.5,-117 619.5,-117"/>
</a>
</g>
</g>
<!-- internal_transactions_bkp&#45;&gt;withdrawals -->
<g id="edge9" class="edge">
<title>internal_transactions_bkp:w&#45;&gt;withdrawals:e</title>
<path fill="none" stroke="black" stroke-dasharray="5,2" d="M420.3,-138.93C392.68,-133.02 378.5,-143.86 361,-171 332.06,-215.89 374.41,-650 321,-663"/>
<polygon fill="black" stroke="black" points="426.81,-140.8 433.51,-146.46 430.65,-141.9 434.5,-143 434.5,-143 434.5,-143 430.65,-141.9 435.49,-139.54 426.81,-140.8 426.81,-140.8"/>
<ellipse fill="none" stroke="black" cx="423.73" cy="-139.91" rx="3.2" ry="3.2"/>
</g>
<!-- internal_transactions_bkp&#45;&gt;withdrawals -->
<g id="edge10" class="edge">
<title>internal_transactions_bkp:w&#45;&gt;withdrawals:e</title>
<path fill="none" stroke="black" stroke-dasharray="5,2" d="M419.93,-143.6C392.56,-146.12 378.42,-156.98 361,-184 332.06,-228.89 374.41,-663 321,-663"/>
<polygon fill="black" stroke="black" points="426.51,-143.33 434.65,-146.6 430.5,-143.16 434.5,-143 434.5,-143 434.5,-143 430.5,-143.16 434.35,-139.4 426.51,-143.33 426.51,-143.33"/>
<ellipse fill="none" stroke="black" cx="423.31" cy="-143.46" rx="3.2" ry="3.2"/>
</g>
<!-- internal_transactions_bkp&#45;&gt;withdrawals -->
<g id="edge11" class="edge">
<title>internal_transactions_bkp:w&#45;&gt;withdrawals:e</title>
<path fill="none" stroke="black" stroke-dasharray="5,2" d="M420.68,-148.06C392.81,-158.93 378.58,-169.74 361,-197 332.06,-241.89 374.41,-676 321,-663"/>
<polygon fill="black" stroke="black" points="426.99,-145.75 435.74,-146.38 430.74,-144.37 434.5,-143 434.5,-143 434.5,-143 430.74,-144.37 433.26,-139.62 426.99,-145.75 426.99,-145.75"/>
<ellipse fill="none" stroke="black" cx="423.98" cy="-146.85" rx="3.2" ry="3.2"/>
</g>
<!-- internal_transactions_bkp_latest -->
<g id="node8" class="node">
<title>internal_transactions_bkp_latest</title>
<g id="a_node8"><a xlink:href="../../tables/internal_transactions_bkp_latest.html" xlink:title="internal_transactions_bkp_latest" target="_top">
<polygon fill="#ffffff" stroke="transparent" points="411,-850 411,-908 696,-908 696,-850 411,-850"/>
<polygon fill="#f5f5f5" stroke="transparent" points="411.5,-886 411.5,-908 696.5,-908 696.5,-886 411.5,-886"/>
<polygon fill="none" stroke="black" points="411.5,-886 411.5,-908 696.5,-908 696.5,-886 411.5,-886"/>
<text text-anchor="start" x="416.5" y="-895.2" font-family="Helvetica,sans-Serif" font-weight="bold" font-size="11.00">internal_transactions_bkp_latest</text>
<text text-anchor="start" x="654.5" y="-894.2" font-family="Helvetica,sans-Serif" font-size="11.00">[table]</text>
<polygon fill="none" stroke="black" points="411.5,-868 411.5,-886 696.5,-886 696.5,-868 411.5,-868"/>
<text text-anchor="start" x="414.5" y="-874.2" font-family="Helvetica,sans-Serif" font-size="11.00">...</text>
<polygon fill="#ffffff" stroke="transparent" points="411.5,-850 411.5,-868 696.5,-868 696.5,-850 411.5,-850"/>
<polygon fill="none" stroke="black" points="411.5,-850 411.5,-868 696.5,-868 696.5,-850 411.5,-850"/>
<polygon fill="#ffffff" stroke="transparent" points="412.5,-851 412.5,-867 492.5,-867 492.5,-851 412.5,-851"/>
<text text-anchor="start" x="414.5" y="-856.2" font-family="Helvetica,sans-Serif" font-size="11.00">&lt; 3</text>
<polygon fill="#ffffff" stroke="transparent" points="492.5,-851 492.5,-867 627.5,-867 627.5,-851 492.5,-851"/>
<text text-anchor="start" x="522.5" y="-856.2" font-family="Helvetica,sans-Serif" font-size="11.00">626,527 rows</text>
<polygon fill="#ffffff" stroke="transparent" points="627.5,-851 627.5,-867 695.5,-867 695.5,-851 627.5,-851"/>
<text text-anchor="start" x="685.5" y="-856.2" font-family="Helvetica,sans-Serif" font-size="11.00"> &#160;</text>
<polygon fill="black" stroke="black" points="492.5,-851 492.5,-867 492.5,-867 492.5,-851 492.5,-851"/>
<polygon fill="black" stroke="black" points="627.5,-851 627.5,-867 627.5,-867 627.5,-851 627.5,-851"/>
</a>
</g>
</g>
<!-- internal_transactions_bkp_latest&#45;&gt;withdrawals -->
<g id="edge12" class="edge">
<title>internal_transactions_bkp_latest:w&#45;&gt;withdrawals:e</title>
<path fill="none" stroke="black" stroke-dasharray="5,2" d="M397.5,-869.85C380.23,-858.69 373.26,-845.9 361,-827 317.1,-759.34 401.65,-650 321,-663"/>
<polygon fill="black" stroke="black" points="403.49,-873.14 408.77,-880.15 407,-875.07 410.5,-877 410.5,-877 410.5,-877 407,-875.07 412.23,-873.85 403.49,-873.14 403.49,-873.14"/>
<ellipse fill="none" stroke="black" cx="400.69" cy="-871.6" rx="3.2" ry="3.2"/>
</g>
<!-- internal_transactions_bkp_latest&#45;&gt;withdrawals -->
<g id="edge13" class="edge">
<title>internal_transactions_bkp_latest:w&#45;&gt;withdrawals:e</title>
<path fill="none" stroke="black" stroke-dasharray="5,2" d="M396.05,-875.31C379.83,-870.95 372.91,-858.36 361,-840 317.1,-772.34 401.65,-663 321,-663"/>
<polygon fill="black" stroke="black" points="402.55,-876.07 410.08,-880.58 406.53,-876.54 410.5,-877 410.5,-877 410.5,-877 406.53,-876.54 410.92,-873.42 402.55,-876.07 402.55,-876.07"/>
<ellipse fill="none" stroke="black" cx="399.38" cy="-875.7" rx="3.2" ry="3.2"/>
</g>
<!-- internal_transactions_bkp_latest&#45;&gt;withdrawals -->
<g id="edge14" class="edge">
<title>internal_transactions_bkp_latest:w&#45;&gt;withdrawals:e</title>
<path fill="none" stroke="black" stroke-dasharray="5,2" d="M396.53,-881.67C379.97,-884.2 373.03,-871.54 361,-853 317.1,-785.34 401.65,-676 321,-663"/>
<polygon fill="black" stroke="black" points="402.91,-879.53 411.64,-880.41 406.71,-878.27 410.5,-877 410.5,-877 410.5,-877 406.71,-878.27 409.36,-873.59 402.91,-879.53 402.91,-879.53"/>
<ellipse fill="none" stroke="black" cx="399.88" cy="-880.55" rx="3.2" ry="3.2"/>
</g>
<!-- token_instances -->
<g id="node9" class="node">
<title>token_instances</title>
<g id="a_node9"><a xlink:href="../../tables/token_instances.html" xlink:title="token_instances" target="_top">
<polygon fill="#ffffff" stroke="transparent" points="471,-771 471,-829 636,-829 636,-771 471,-771"/>
<polygon fill="#f5f5f5" stroke="transparent" points="471.5,-807 471.5,-829 636.5,-829 636.5,-807 471.5,-807"/>
<polygon fill="none" stroke="black" points="471.5,-807 471.5,-829 636.5,-829 636.5,-807 471.5,-807"/>
<text text-anchor="start" x="476.5" y="-816.2" font-family="Helvetica,sans-Serif" font-weight="bold" font-size="11.00">token_instances</text>
<text text-anchor="start" x="594.5" y="-815.2" font-family="Helvetica,sans-Serif" font-size="11.00">[table]</text>
<polygon fill="none" stroke="black" points="471.5,-789 471.5,-807 636.5,-807 636.5,-789 471.5,-789"/>
<text text-anchor="start" x="474.5" y="-795.2" font-family="Helvetica,sans-Serif" font-size="11.00">...</text>
<polygon fill="#ffffff" stroke="transparent" points="471.5,-771 471.5,-789 636.5,-789 636.5,-771 471.5,-771"/>
<polygon fill="none" stroke="black" points="471.5,-771 471.5,-789 636.5,-789 636.5,-771 471.5,-771"/>
<polygon fill="#ffffff" stroke="transparent" points="472.5,-772 472.5,-788 512.5,-788 512.5,-772 472.5,-772"/>
<text text-anchor="start" x="474.5" y="-777.2" font-family="Helvetica,sans-Serif" font-size="11.00">&lt; 2</text>
<polygon fill="#ffffff" stroke="transparent" points="512.5,-772 512.5,-788 607.5,-788 607.5,-772 512.5,-772"/>
<text text-anchor="start" x="522.5" y="-777.2" font-family="Helvetica,sans-Serif" font-size="11.00">137,721 rows</text>
<polygon fill="#ffffff" stroke="transparent" points="607.5,-772 607.5,-788 635.5,-788 635.5,-772 607.5,-772"/>
<text text-anchor="start" x="625.5" y="-777.2" font-family="Helvetica,sans-Serif" font-size="11.00"> &#160;</text>
<polygon fill="black" stroke="black" points="512.5,-772 512.5,-788 512.5,-788 512.5,-772 512.5,-772"/>
<polygon fill="black" stroke="black" points="607.5,-772 607.5,-788 607.5,-788 607.5,-772 607.5,-772"/>
</a>
</g>
</g>
<!-- token_instances&#45;&gt;withdrawals -->
<g id="edge15" class="edge">
<title>token_instances:w&#45;&gt;withdrawals:e</title>
<path fill="none" stroke="black" stroke-dasharray="5,2" d="M455.87,-797.82C414.38,-796.68 394.81,-789.35 361,-757 328.2,-725.61 366.4,-663 321,-663"/>
<polygon fill="black" stroke="black" points="462.5,-797.9 470.46,-801.6 466.5,-797.95 470.5,-798 470.5,-798 470.5,-798 466.5,-797.95 470.54,-794.4 462.5,-797.9 462.5,-797.9"/>
<ellipse fill="none" stroke="black" cx="459.3" cy="-797.86" rx="3.2" ry="3.2"/>
</g>
</g>
</svg>
