<?xml version="1.0" encoding="UTF-8" standalone="no"?>
<!DOCTYPE svg PUBLIC "-//W3C//DTD SVG 1.1//EN"
 "http://www.w3.org/Graphics/SVG/1.1/DTD/svg11.dtd">
<!-- Generated by graphviz version 2.43.0 (0)
 -->
<!-- Title: twoDegreesRelationshipsDiagramImplied Pages: 1 -->
<svg width="1047pt" height="828pt"
 viewBox="0.00 0.00 1047.00 827.68" xmlns="http://www.w3.org/2000/svg" xmlns:xlink="http://www.w3.org/1999/xlink">
<g id="graph0" class="graph" transform="scale(1 1) rotate(0) translate(4 823.68)">
<title>twoDegreesRelationshipsDiagramImplied</title>
<polygon fill="#ffffff" stroke="transparent" points="-4,4 -4,-823.68 1043,-823.68 1043,4 -4,4"/>
<text text-anchor="middle" x="79.5" y="-7.2" font-family="Helvetica,sans-Serif" font-size="11.00">Generated by SchemaSpy</text>
<!-- beacon_blobs_transactions -->
<g id="node1" class="node">
<title>beacon_blobs_transactions</title>
<g id="a_node1"><a xlink:href="../../tables/beacon_blobs_transactions.html" xlink:title="beacon_blobs_transactions" target="_top">
<polygon fill="#ffffff" stroke="transparent" points="690,-538.68 690,-736.68 1031,-736.68 1031,-538.68 690,-538.68"/>
<polygon fill="#f5f5f5" stroke="transparent" points="692.5,-712.68 692.5,-734.68 1029.5,-734.68 1029.5,-712.68 692.5,-712.68"/>
<polygon fill="none" stroke="black" points="692.5,-712.68 692.5,-734.68 1029.5,-734.68 1029.5,-712.68 692.5,-712.68"/>
<text text-anchor="start" x="697.5" y="-721.88" font-family="Helvetica,sans-Serif" font-weight="bold" font-size="11.00">beacon_blobs_transactions</text>
<text text-anchor="start" x="987.5" y="-720.88" font-family="Helvetica,sans-Serif" font-size="11.00">[table]</text>
<polygon fill="none" stroke="black" points="692.5,-690.68 692.5,-712.68 909.5,-712.68 909.5,-690.68 692.5,-690.68"/>
<image xlink:href="../../images/primaryKeys.png" width="11px" height="12px" preserveAspectRatio="xMinYMin meet" x="697.5" y="-707.678"/>
<text text-anchor="start" x="712.5" y="-698.88" font-family="Helvetica,sans-Serif" font-size="11.00">hash</text>
<polygon fill="none" stroke="black" points="909.5,-690.68 909.5,-712.68 1029.5,-712.68 1029.5,-690.68 909.5,-690.68"/>
<text text-anchor="start" x="912.5" y="-698.88" font-family="Helvetica,sans-Serif" font-size="11.00">bytea[2147483647]</text>
<polygon fill="none" stroke="black" points="692.5,-668.68 692.5,-690.68 909.5,-690.68 909.5,-668.68 692.5,-668.68"/>
<text text-anchor="start" x="712.5" y="-676.88" font-family="Helvetica,sans-Serif" font-size="11.00">max_fee_per_blob_gas</text>
<polygon fill="none" stroke="black" points="909.5,-668.68 909.5,-690.68 1029.5,-690.68 1029.5,-668.68 909.5,-668.68"/>
<text text-anchor="start" x="912.5" y="-676.88" font-family="Helvetica,sans-Serif" font-size="11.00">numeric[100]</text>
<polygon fill="none" stroke="black" points="692.5,-646.68 692.5,-668.68 909.5,-668.68 909.5,-646.68 692.5,-646.68"/>
<text text-anchor="start" x="712.5" y="-654.88" font-family="Helvetica,sans-Serif" font-size="11.00">blob_gas_price</text>
<polygon fill="none" stroke="black" points="909.5,-646.68 909.5,-668.68 1029.5,-668.68 1029.5,-646.68 909.5,-646.68"/>
<text text-anchor="start" x="912.5" y="-654.88" font-family="Helvetica,sans-Serif" font-size="11.00">numeric[100]</text>
<polygon fill="none" stroke="black" points="692.5,-624.68 692.5,-646.68 909.5,-646.68 909.5,-624.68 692.5,-624.68"/>
<text text-anchor="start" x="712.5" y="-632.88" font-family="Helvetica,sans-Serif" font-size="11.00">blob_gas_used</text>
<polygon fill="none" stroke="black" points="909.5,-624.68 909.5,-646.68 1029.5,-646.68 1029.5,-624.68 909.5,-624.68"/>
<text text-anchor="start" x="912.5" y="-632.88" font-family="Helvetica,sans-Serif" font-size="11.00">numeric[100]</text>
<polygon fill="none" stroke="black" points="692.5,-602.68 692.5,-624.68 909.5,-624.68 909.5,-602.68 692.5,-602.68"/>
<text text-anchor="start" x="712.5" y="-610.88" font-family="Helvetica,sans-Serif" font-size="11.00">blob_versioned_hashes</text>
<polygon fill="none" stroke="black" points="909.5,-602.68 909.5,-624.68 1029.5,-624.68 1029.5,-602.68 909.5,-602.68"/>
<text text-anchor="start" x="912.5" y="-610.88" font-family="Helvetica,sans-Serif" font-size="11.00">_bytea[2147483647]</text>
<polygon fill="none" stroke="black" points="692.5,-580.68 692.5,-602.68 909.5,-602.68 909.5,-580.68 692.5,-580.68"/>
<text text-anchor="start" x="712.5" y="-588.88" font-family="Helvetica,sans-Serif" font-size="11.00">inserted_at</text>
<polygon fill="none" stroke="black" points="909.5,-580.68 909.5,-602.68 1029.5,-602.68 1029.5,-580.68 909.5,-580.68"/>
<text text-anchor="start" x="912.5" y="-588.88" font-family="Helvetica,sans-Serif" font-size="11.00">timestamp[29,6]</text>
<polygon fill="none" stroke="black" points="692.5,-558.68 692.5,-580.68 909.5,-580.68 909.5,-558.68 692.5,-558.68"/>
<text text-anchor="start" x="712.5" y="-566.88" font-family="Helvetica,sans-Serif" font-size="11.00">updated_at</text>
<polygon fill="none" stroke="black" points="909.5,-558.68 909.5,-580.68 1029.5,-580.68 1029.5,-558.68 909.5,-558.68"/>
<text text-anchor="start" x="912.5" y="-566.88" font-family="Helvetica,sans-Serif" font-size="11.00">timestamp[29,6]</text>
<polygon fill="#ffffff" stroke="transparent" points="692.5,-540.68 692.5,-558.68 1029.5,-558.68 1029.5,-540.68 692.5,-540.68"/>
<polygon fill="none" stroke="black" points="692.5,-540.68 692.5,-558.68 1029.5,-558.68 1029.5,-540.68 692.5,-540.68"/>
<polygon fill="#ffffff" stroke="transparent" points="693.5,-541.68 693.5,-557.68 795.5,-557.68 795.5,-541.68 693.5,-541.68"/>
<text text-anchor="start" x="695.5" y="-546.88" font-family="Helvetica,sans-Serif" font-size="11.00">&lt; 1</text>
<polygon fill="#ffffff" stroke="transparent" points="795.5,-541.68 795.5,-557.68 927.5,-557.68 927.5,-541.68 795.5,-541.68"/>
<text text-anchor="start" x="836" y="-546.88" font-family="Helvetica,sans-Serif" font-size="11.00">971 rows</text>
<polygon fill="#ffffff" stroke="transparent" points="927.5,-541.68 927.5,-557.68 1028.5,-557.68 1028.5,-541.68 927.5,-541.68"/>
<text text-anchor="start" x="1006.5" y="-546.88" font-family="Helvetica,sans-Serif" font-size="11.00">0 &gt;</text>
<polygon fill="black" stroke="black" points="795.5,-541.68 795.5,-557.68 795.5,-557.68 795.5,-541.68 795.5,-541.68"/>
<polygon fill="black" stroke="black" points="927.5,-541.68 927.5,-557.68 927.5,-557.68 927.5,-541.68 927.5,-541.68"/>
<polygon fill="none" stroke="black" stroke-width="2" points="691,-539.68 691,-735.68 1030,-735.68 1030,-539.68 691,-539.68"/>
</a>
</g>
</g>
<!-- transactions -->
<g id="node2" class="node">
<title>transactions</title>
<g id="a_node2"><a xlink:href="../../tables/transactions.html" xlink:title="transactions" target="_top">
<polygon fill="#ffffff" stroke="transparent" points="369,-169.68 369,-557.68 641,-557.68 641,-169.68 369,-169.68"/>
<polygon fill="#f5f5f5" stroke="transparent" points="369,-535.68 369,-557.68 641,-557.68 641,-535.68 369,-535.68"/>
<polygon fill="none" stroke="black" points="369,-535.68 369,-557.68 641,-557.68 641,-535.68 369,-535.68"/>
<text text-anchor="start" x="374" y="-544.88" font-family="Helvetica,sans-Serif" font-weight="bold" font-size="11.00">transactions</text>
<text text-anchor="start" x="599" y="-543.88" font-family="Helvetica,sans-Serif" font-size="11.00">[table]</text>
<polygon fill="#ffffff" stroke="transparent" points="369,-513.68 369,-535.68 641,-535.68 641,-513.68 369,-513.68"/>
<polygon fill="none" stroke="black" points="369,-513.68 369,-535.68 641,-535.68 641,-513.68 369,-513.68"/>
<text text-anchor="start" x="389" y="-521.88" font-family="Helvetica,sans-Serif" font-size="11.00">error</text>
<polygon fill="none" stroke="black" points="369,-491.68 369,-513.68 641,-513.68 641,-491.68 369,-491.68"/>
<image xlink:href="../../images/primaryKeys.png" width="11px" height="12px" preserveAspectRatio="xMinYMin meet" x="374" y="-508.678"/>
<text text-anchor="start" x="389" y="-499.88" font-family="Helvetica,sans-Serif" font-size="11.00">hash</text>
<polygon fill="#ffffff" stroke="transparent" points="369,-469.68 369,-491.68 641,-491.68 641,-469.68 369,-469.68"/>
<polygon fill="none" stroke="black" points="369,-469.68 369,-491.68 641,-491.68 641,-469.68 369,-469.68"/>
<image xlink:href="../../images/foreignKeys.png" width="11px" height="12px" preserveAspectRatio="xMinYMin meet" x="374" y="-486.678"/>
<text text-anchor="start" x="389" y="-477.88" font-family="Helvetica,sans-Serif" font-size="11.00">index</text>
<polygon fill="#ffffff" stroke="transparent" points="369,-447.68 369,-469.68 641,-469.68 641,-447.68 369,-447.68"/>
<polygon fill="none" stroke="black" points="369,-447.68 369,-469.68 641,-469.68 641,-447.68 369,-447.68"/>
<text text-anchor="start" x="389" y="-455.88" font-family="Helvetica,sans-Serif" font-size="11.00">nonce</text>
<polygon fill="#ffffff" stroke="transparent" points="369,-425.68 369,-447.68 641,-447.68 641,-425.68 369,-425.68"/>
<polygon fill="none" stroke="black" points="369,-425.68 369,-447.68 641,-447.68 641,-425.68 369,-425.68"/>
<text text-anchor="start" x="389" y="-433.88" font-family="Helvetica,sans-Serif" font-size="11.00">status</text>
<polygon fill="#ffffff" stroke="transparent" points="369,-403.68 369,-425.68 641,-425.68 641,-403.68 369,-403.68"/>
<polygon fill="none" stroke="black" points="369,-403.68 369,-425.68 641,-425.68 641,-403.68 369,-403.68"/>
<text text-anchor="start" x="389" y="-411.88" font-family="Helvetica,sans-Serif" font-size="11.00">inserted_at</text>
<polygon fill="#ffffff" stroke="transparent" points="369,-381.68 369,-403.68 641,-403.68 641,-381.68 369,-381.68"/>
<polygon fill="none" stroke="black" points="369,-381.68 369,-403.68 641,-403.68 641,-381.68 369,-381.68"/>
<text text-anchor="start" x="389" y="-389.88" font-family="Helvetica,sans-Serif" font-size="11.00">updated_at</text>
<polygon fill="#ffffff" stroke="transparent" points="369,-359.68 369,-381.68 641,-381.68 641,-359.68 369,-359.68"/>
<polygon fill="none" stroke="black" points="369,-359.68 369,-381.68 641,-381.68 641,-359.68 369,-359.68"/>
<image xlink:href="../../images/foreignKeys.png" width="11px" height="12px" preserveAspectRatio="xMinYMin meet" x="374" y="-376.678"/>
<text text-anchor="start" x="389" y="-367.88" font-family="Helvetica,sans-Serif" font-size="11.00">block_hash</text>
<polygon fill="#ffffff" stroke="transparent" points="369,-337.68 369,-359.68 641,-359.68 641,-337.68 369,-337.68"/>
<polygon fill="none" stroke="black" points="369,-337.68 369,-359.68 641,-359.68 641,-337.68 369,-337.68"/>
<text text-anchor="start" x="389" y="-345.88" font-family="Helvetica,sans-Serif" font-size="11.00">block_number</text>
<polygon fill="#ffffff" stroke="transparent" points="369,-315.68 369,-337.68 641,-337.68 641,-315.68 369,-315.68"/>
<polygon fill="none" stroke="black" points="369,-315.68 369,-337.68 641,-337.68 641,-315.68 369,-315.68"/>
<text text-anchor="start" x="389" y="-323.88" font-family="Helvetica,sans-Serif" font-size="11.00">from_address_hash</text>
<polygon fill="#ffffff" stroke="transparent" points="369,-293.68 369,-315.68 641,-315.68 641,-293.68 369,-293.68"/>
<polygon fill="none" stroke="black" points="369,-293.68 369,-315.68 641,-315.68 641,-293.68 369,-293.68"/>
<text text-anchor="start" x="389" y="-301.88" font-family="Helvetica,sans-Serif" font-size="11.00">to_address_hash</text>
<polygon fill="#ffffff" stroke="transparent" points="369,-271.68 369,-293.68 641,-293.68 641,-271.68 369,-271.68"/>
<polygon fill="none" stroke="black" points="369,-271.68 369,-293.68 641,-293.68 641,-271.68 369,-271.68"/>
<text text-anchor="start" x="389" y="-279.88" font-family="Helvetica,sans-Serif" font-size="11.00">created_contract_address_hash</text>
<polygon fill="#ffffff" stroke="transparent" points="369,-249.68 369,-271.68 641,-271.68 641,-249.68 369,-249.68"/>
<polygon fill="none" stroke="black" points="369,-249.68 369,-271.68 641,-271.68 641,-249.68 369,-249.68"/>
<text text-anchor="start" x="389" y="-257.88" font-family="Helvetica,sans-Serif" font-size="11.00">created_contract_code_indexed_at</text>
<polygon fill="#ffffff" stroke="transparent" points="369,-227.68 369,-249.68 641,-249.68 641,-227.68 369,-227.68"/>
<polygon fill="none" stroke="black" points="369,-227.68 369,-249.68 641,-249.68 641,-227.68 369,-227.68"/>
<text text-anchor="start" x="389" y="-235.88" font-family="Helvetica,sans-Serif" font-size="11.00">block_timestamp</text>
<polygon fill="#ffffff" stroke="transparent" points="369,-205.68 369,-227.68 641,-227.68 641,-205.68 369,-205.68"/>
<polygon fill="none" stroke="black" points="369,-205.68 369,-227.68 641,-227.68 641,-205.68 369,-205.68"/>
<text text-anchor="start" x="389" y="-213.88" font-family="Helvetica,sans-Serif" font-size="11.00">block_consensus</text>
<polygon fill="none" stroke="black" points="369,-187.68 369,-205.68 641,-205.68 641,-187.68 369,-187.68"/>
<text text-anchor="start" x="372" y="-193.88" font-family="Helvetica,sans-Serif" font-size="11.00">...</text>
<polygon fill="#ffffff" stroke="transparent" points="369,-169.68 369,-187.68 641,-187.68 641,-169.68 369,-169.68"/>
<polygon fill="none" stroke="black" points="369,-169.68 369,-187.68 641,-187.68 641,-169.68 369,-169.68"/>
<polygon fill="#ffffff" stroke="transparent" points="370,-170.68 370,-186.68 439,-186.68 439,-170.68 370,-170.68"/>
<text text-anchor="start" x="372" y="-175.88" font-family="Helvetica,sans-Serif" font-size="11.00">&lt; 2</text>
<polygon fill="#ffffff" stroke="transparent" points="439,-170.68 439,-186.68 572,-186.68 572,-170.68 439,-170.68"/>
<text text-anchor="start" x="463" y="-175.88" font-family="Helvetica,sans-Serif" font-size="11.00">5,902,854 rows</text>
<polygon fill="#ffffff" stroke="transparent" points="572,-170.68 572,-186.68 640,-186.68 640,-170.68 572,-170.68"/>
<text text-anchor="start" x="618" y="-175.88" font-family="Helvetica,sans-Serif" font-size="11.00">8 &gt;</text>
<polygon fill="black" stroke="black" points="439,-170.68 439,-186.68 439,-186.68 439,-170.68 439,-170.68"/>
<polygon fill="black" stroke="black" points="572,-170.68 572,-186.68 572,-186.68 572,-170.68 572,-170.68"/>
</a>
</g>
</g>
<!-- beacon_blobs_transactions&#45;&gt;transactions -->
<g id="edge1" class="edge">
<title>beacon_blobs_transactions:w&#45;&gt;transactions:e</title>
<path fill="none" stroke="black" d="M680.96,-700.61C611.36,-684.94 729.22,-502.68 642,-502.68"/>
<polygon fill="black" stroke="black" points="691.11,-697.62 690.3,-705.58 688.71,-705.42 689.52,-697.46 691.11,-697.62"/>
<polyline fill="none" stroke="black" points="691.5,-701.68 687.52,-701.27 "/>
<ellipse fill="none" stroke="black" cx="684.34" cy="-700.95" rx="3.2" ry="3.2"/>
</g>
<!-- blocks -->
<g id="node4" class="node">
<title>blocks</title>
<g id="a_node4"><a xlink:href="../../tables/blocks.html" xlink:title="blocks" target="_top">
<polygon fill="#ffffff" stroke="transparent" points="8,-181.68 8,-239.68 135,-239.68 135,-181.68 8,-181.68"/>
<polygon fill="#f5f5f5" stroke="transparent" points="8.5,-217.68 8.5,-239.68 135.5,-239.68 135.5,-217.68 8.5,-217.68"/>
<polygon fill="none" stroke="black" points="8.5,-217.68 8.5,-239.68 135.5,-239.68 135.5,-217.68 8.5,-217.68"/>
<text text-anchor="start" x="13.5" y="-226.88" font-family="Helvetica,sans-Serif" font-weight="bold" font-size="11.00">blocks</text>
<text text-anchor="start" x="93.5" y="-225.88" font-family="Helvetica,sans-Serif" font-size="11.00">[table]</text>
<polygon fill="none" stroke="black" points="8.5,-199.68 8.5,-217.68 135.5,-217.68 135.5,-199.68 8.5,-199.68"/>
<text text-anchor="start" x="11.5" y="-205.88" font-family="Helvetica,sans-Serif" font-size="11.00">...</text>
<polygon fill="#ffffff" stroke="transparent" points="8.5,-181.68 8.5,-199.68 135.5,-199.68 135.5,-181.68 8.5,-181.68"/>
<polygon fill="none" stroke="black" points="8.5,-181.68 8.5,-199.68 135.5,-199.68 135.5,-181.68 8.5,-181.68"/>
<polygon fill="#ffffff" stroke="transparent" points="9.5,-182.68 9.5,-198.68 21.5,-198.68 21.5,-182.68 9.5,-182.68"/>
<text text-anchor="start" x="11.5" y="-187.88" font-family="Helvetica,sans-Serif" font-size="11.00"> &#160;</text>
<polygon fill="#ffffff" stroke="transparent" points="21.5,-182.68 21.5,-198.68 110.5,-198.68 110.5,-182.68 21.5,-182.68"/>
<text text-anchor="start" x="23.5" y="-187.88" font-family="Helvetica,sans-Serif" font-size="11.00">1,446,481 rows</text>
<polygon fill="#ffffff" stroke="transparent" points="110.5,-182.68 110.5,-198.68 134.5,-198.68 134.5,-182.68 110.5,-182.68"/>
<text text-anchor="start" x="112.5" y="-187.88" font-family="Helvetica,sans-Serif" font-size="11.00">9 &gt;</text>
<polygon fill="black" stroke="black" points="21.5,-182.68 21.5,-198.68 21.5,-198.68 21.5,-182.68 21.5,-182.68"/>
<polygon fill="black" stroke="black" points="110.5,-182.68 110.5,-198.68 110.5,-198.68 110.5,-182.68 110.5,-182.68"/>
</a>
</g>
</g>
<!-- transactions&#45;&gt;blocks -->
<g id="edge14" class="edge">
<title>transactions:w&#45;&gt;blocks:e</title>
<path fill="none" stroke="black" d="M353.6,-369.92C243.76,-357.97 257.05,-208.68 136.5,-208.68"/>
<polygon fill="black" stroke="black" points="360.01,-370.26 367.81,-374.27 364.01,-370.47 368,-370.68 368,-370.68 368,-370.68 364.01,-370.47 368.19,-367.08 360.01,-370.26 360.01,-370.26"/>
<ellipse fill="none" stroke="black" cx="356.82" cy="-370.09" rx="3.2" ry="3.2"/>
</g>
<!-- withdrawals -->
<g id="node5" class="node">
<title>withdrawals</title>
<g id="a_node5"><a xlink:href="../../tables/withdrawals.html" xlink:title="withdrawals" target="_top">
<polygon fill="#ffffff" stroke="transparent" points="184,-453.68 184,-511.68 320,-511.68 320,-453.68 184,-453.68"/>
<polygon fill="#f5f5f5" stroke="transparent" points="184,-489.68 184,-511.68 320,-511.68 320,-489.68 184,-489.68"/>
<polygon fill="none" stroke="black" points="184,-489.68 184,-511.68 320,-511.68 320,-489.68 184,-489.68"/>
<text text-anchor="start" x="189" y="-498.88" font-family="Helvetica,sans-Serif" font-weight="bold" font-size="11.00">withdrawals</text>
<text text-anchor="start" x="278" y="-497.88" font-family="Helvetica,sans-Serif" font-size="11.00">[table]</text>
<polygon fill="none" stroke="black" points="184,-471.68 184,-489.68 320,-489.68 320,-471.68 184,-471.68"/>
<text text-anchor="start" x="187" y="-477.88" font-family="Helvetica,sans-Serif" font-size="11.00">...</text>
<polygon fill="#ffffff" stroke="transparent" points="184,-453.68 184,-471.68 320,-471.68 320,-453.68 184,-453.68"/>
<polygon fill="none" stroke="black" points="184,-453.68 184,-471.68 320,-471.68 320,-453.68 184,-453.68"/>
<polygon fill="#ffffff" stroke="transparent" points="185,-454.68 185,-470.68 209,-470.68 209,-454.68 185,-454.68"/>
<text text-anchor="start" x="187" y="-459.88" font-family="Helvetica,sans-Serif" font-size="11.00">&lt; 1</text>
<polygon fill="#ffffff" stroke="transparent" points="209,-454.68 209,-470.68 288,-470.68 288,-454.68 209,-454.68"/>
<text text-anchor="start" x="211" y="-459.88" font-family="Helvetica,sans-Serif" font-size="11.00">552,138 rows</text>
<polygon fill="#ffffff" stroke="transparent" points="288,-454.68 288,-470.68 319,-470.68 319,-454.68 288,-454.68"/>
<text text-anchor="start" x="290" y="-459.88" font-family="Helvetica,sans-Serif" font-size="11.00">13 &gt;</text>
<polygon fill="black" stroke="black" points="209,-454.68 209,-470.68 209,-470.68 209,-454.68 209,-454.68"/>
<polygon fill="black" stroke="black" points="288,-454.68 288,-470.68 288,-470.68 288,-454.68 288,-454.68"/>
</a>
</g>
</g>
<!-- transactions&#45;&gt;withdrawals -->
<g id="edge15" class="edge">
<title>transactions:w&#45;&gt;withdrawals:e</title>
<path fill="none" stroke="black" stroke-dasharray="5,2" d="M353.4,-480.68C342.93,-480.68 336.01,-480.68 321,-480.68"/>
<polygon fill="black" stroke="black" points="360,-480.68 368,-484.28 364,-480.68 368,-480.68 368,-480.68 368,-480.68 364,-480.68 368,-477.08 360,-480.68 360,-480.68"/>
<ellipse fill="none" stroke="black" cx="356.8" cy="-480.68" rx="3.2" ry="3.2"/>
</g>
<!-- internal_transactions -->
<g id="node3" class="node">
<title>internal_transactions</title>
<g id="a_node3"><a xlink:href="../../tables/internal_transactions.html" xlink:title="internal_transactions" target="_top">
<polygon fill="#ffffff" stroke="transparent" points="759.5,-757.68 759.5,-815.68 961.5,-815.68 961.5,-757.68 759.5,-757.68"/>
<polygon fill="#f5f5f5" stroke="transparent" points="759.5,-793.68 759.5,-815.68 961.5,-815.68 961.5,-793.68 759.5,-793.68"/>
<polygon fill="none" stroke="black" points="759.5,-793.68 759.5,-815.68 961.5,-815.68 961.5,-793.68 759.5,-793.68"/>
<text text-anchor="start" x="764.5" y="-802.88" font-family="Helvetica,sans-Serif" font-weight="bold" font-size="11.00">internal_transactions</text>
<text text-anchor="start" x="919.5" y="-801.88" font-family="Helvetica,sans-Serif" font-size="11.00">[table]</text>
<polygon fill="none" stroke="black" points="759.5,-775.68 759.5,-793.68 961.5,-793.68 961.5,-775.68 759.5,-775.68"/>
<text text-anchor="start" x="762.5" y="-781.88" font-family="Helvetica,sans-Serif" font-size="11.00">...</text>
<polygon fill="#ffffff" stroke="transparent" points="759.5,-757.68 759.5,-775.68 961.5,-775.68 961.5,-757.68 759.5,-757.68"/>
<polygon fill="none" stroke="black" points="759.5,-757.68 759.5,-775.68 961.5,-775.68 961.5,-757.68 759.5,-757.68"/>
<polygon fill="#ffffff" stroke="transparent" points="760.5,-758.68 760.5,-774.68 817.5,-774.68 817.5,-758.68 760.5,-758.68"/>
<text text-anchor="start" x="762.5" y="-763.88" font-family="Helvetica,sans-Serif" font-size="11.00">&lt; 3</text>
<polygon fill="#ffffff" stroke="transparent" points="817.5,-758.68 817.5,-774.68 915.5,-774.68 915.5,-758.68 817.5,-758.68"/>
<text text-anchor="start" x="836" y="-763.88" font-family="Helvetica,sans-Serif" font-size="11.00">4,167 rows</text>
<polygon fill="#ffffff" stroke="transparent" points="915.5,-758.68 915.5,-774.68 960.5,-774.68 960.5,-758.68 915.5,-758.68"/>
<text text-anchor="start" x="950.5" y="-763.88" font-family="Helvetica,sans-Serif" font-size="11.00"> &#160;</text>
<polygon fill="black" stroke="black" points="817.5,-758.68 817.5,-774.68 817.5,-774.68 817.5,-758.68 817.5,-758.68"/>
<polygon fill="black" stroke="black" points="915.5,-758.68 915.5,-774.68 915.5,-774.68 915.5,-758.68 915.5,-758.68"/>
</a>
</g>
</g>
<!-- internal_transactions&#45;&gt;transactions -->
<g id="edge4" class="edge">
<title>internal_transactions:w&#45;&gt;transactions:e</title>
<path fill="none" stroke="black" d="M743.77,-784.23C716.06,-782.32 701.41,-773.69 682,-747.68 649.01,-703.47 697.17,-502.68 642,-502.68"/>
<polygon fill="black" stroke="black" points="750.5,-784.44 758.39,-788.28 754.5,-784.56 758.5,-784.68 758.5,-784.68 758.5,-784.68 754.5,-784.56 758.61,-781.08 750.5,-784.44 750.5,-784.44"/>
<ellipse fill="none" stroke="black" cx="747.31" cy="-784.34" rx="3.2" ry="3.2"/>
</g>
<!-- internal_transactions&#45;&gt;blocks -->
<g id="edge2" class="edge">
<title>internal_transactions:w&#45;&gt;blocks:e</title>
<path fill="none" stroke="black" d="M744.06,-784.66C469.35,-784.01 317.72,-763.03 176,-522.68 140.28,-462.1 206.83,-208.68 136.5,-208.68"/>
<polygon fill="black" stroke="black" points="750.5,-784.67 758.5,-788.28 754.5,-784.67 758.5,-784.68 758.5,-784.68 758.5,-784.68 754.5,-784.67 758.5,-781.08 750.5,-784.67 750.5,-784.67"/>
<ellipse fill="none" stroke="black" cx="747.3" cy="-784.67" rx="3.2" ry="3.2"/>
</g>
<!-- internal_transactions&#45;&gt;withdrawals -->
<g id="edge3" class="edge">
<title>internal_transactions:w&#45;&gt;withdrawals:e</title>
<path fill="none" stroke="black" stroke-dasharray="5,2" d="M743.98,-783.52C718.63,-779.06 710.66,-762.59 682,-747.68 663.88,-738.26 374.83,-583.7 361,-568.68 331.89,-537.08 363.96,-480.68 321,-480.68"/>
<polygon fill="black" stroke="black" points="750.53,-784.04 758.21,-788.27 754.51,-784.36 758.5,-784.68 758.5,-784.68 758.5,-784.68 754.51,-784.36 758.79,-781.09 750.53,-784.04 750.53,-784.04"/>
<ellipse fill="none" stroke="black" cx="747.34" cy="-783.79" rx="3.2" ry="3.2"/>
</g>
<!-- withdrawals&#45;&gt;blocks -->
<g id="edge16" class="edge">
<title>withdrawals:w&#45;&gt;blocks:e</title>
<path fill="none" stroke="black" d="M169.83,-474.74C134,-434.97 192.43,-208.68 136.5,-208.68"/>
<polygon fill="black" stroke="black" points="175.71,-477.39 181.52,-483.96 179.35,-479.03 183,-480.68 183,-480.68 183,-480.68 179.35,-479.03 184.48,-477.4 175.71,-477.39 175.71,-477.39"/>
<ellipse fill="none" stroke="black" cx="172.79" cy="-476.08" rx="3.2" ry="3.2"/>
</g>
<!-- logs -->
<g id="node6" class="node">
<title>logs</title>
<g id="a_node6"><a xlink:href="../../tables/logs.html" xlink:title="logs" target="_top">
<polygon fill="#ffffff" stroke="transparent" points="793.5,-222.68 793.5,-280.68 927.5,-280.68 927.5,-222.68 793.5,-222.68"/>
<polygon fill="#f5f5f5" stroke="transparent" points="793.5,-258.68 793.5,-280.68 927.5,-280.68 927.5,-258.68 793.5,-258.68"/>
<polygon fill="none" stroke="black" points="793.5,-258.68 793.5,-280.68 927.5,-280.68 927.5,-258.68 793.5,-258.68"/>
<text text-anchor="start" x="798.5" y="-267.88" font-family="Helvetica,sans-Serif" font-weight="bold" font-size="11.00">logs</text>
<text text-anchor="start" x="885.5" y="-266.88" font-family="Helvetica,sans-Serif" font-size="11.00">[table]</text>
<polygon fill="none" stroke="black" points="793.5,-240.68 793.5,-258.68 927.5,-258.68 927.5,-240.68 793.5,-240.68"/>
<text text-anchor="start" x="796.5" y="-246.88" font-family="Helvetica,sans-Serif" font-size="11.00">...</text>
<polygon fill="#ffffff" stroke="transparent" points="793.5,-222.68 793.5,-240.68 927.5,-240.68 927.5,-222.68 793.5,-222.68"/>
<polygon fill="none" stroke="black" points="793.5,-222.68 793.5,-240.68 927.5,-240.68 927.5,-222.68 793.5,-222.68"/>
<polygon fill="#ffffff" stroke="transparent" points="794.5,-223.68 794.5,-239.68 818.5,-239.68 818.5,-223.68 794.5,-223.68"/>
<text text-anchor="start" x="796.5" y="-228.88" font-family="Helvetica,sans-Serif" font-size="11.00">&lt; 2</text>
<polygon fill="#ffffff" stroke="transparent" points="818.5,-223.68 818.5,-239.68 914.5,-239.68 914.5,-223.68 818.5,-223.68"/>
<text text-anchor="start" x="820.5" y="-228.88" font-family="Helvetica,sans-Serif" font-size="11.00">11,846,796 rows</text>
<polygon fill="#ffffff" stroke="transparent" points="914.5,-223.68 914.5,-239.68 926.5,-239.68 926.5,-223.68 914.5,-223.68"/>
<text text-anchor="start" x="916.5" y="-228.88" font-family="Helvetica,sans-Serif" font-size="11.00"> &#160;</text>
<polygon fill="black" stroke="black" points="818.5,-223.68 818.5,-239.68 818.5,-239.68 818.5,-223.68 818.5,-223.68"/>
<polygon fill="black" stroke="black" points="914.5,-223.68 914.5,-239.68 914.5,-239.68 914.5,-223.68 914.5,-223.68"/>
</a>
</g>
</g>
<!-- logs&#45;&gt;transactions -->
<g id="edge6" class="edge">
<title>logs:w&#45;&gt;transactions:e</title>
<path fill="none" stroke="black" d="M777.88,-249.76C735.14,-250.38 712.45,-255.34 682,-291.68 620.7,-364.84 737.45,-502.68 642,-502.68"/>
<polygon fill="black" stroke="black" points="784.5,-249.72 792.52,-253.28 788.5,-249.7 792.5,-249.68 792.5,-249.68 792.5,-249.68 788.5,-249.7 792.48,-246.08 784.5,-249.72 784.5,-249.72"/>
<ellipse fill="none" stroke="black" cx="781.3" cy="-249.74" rx="3.2" ry="3.2"/>
</g>
<!-- logs&#45;&gt;blocks -->
<g id="edge5" class="edge">
<title>logs:w&#45;&gt;blocks:e</title>
<path fill="none" stroke="black" d="M777.97,-249.51C736.89,-248.43 718.59,-241.58 682,-212.68 660.22,-195.48 673.26,-173.15 649,-159.68 593.05,-128.61 424.63,-152.81 361,-159.68 259.46,-170.63 238.63,-208.68 136.5,-208.68"/>
<polygon fill="black" stroke="black" points="784.5,-249.59 792.46,-253.28 788.5,-249.63 792.5,-249.68 792.5,-249.68 792.5,-249.68 788.5,-249.63 792.54,-246.08 784.5,-249.59 784.5,-249.59"/>
<ellipse fill="none" stroke="black" cx="781.3" cy="-249.55" rx="3.2" ry="3.2"/>
</g>
<!-- pending_transaction_operations -->
<g id="node7" class="node">
<title>pending_transaction_operations</title>
<g id="a_node7"><a xlink:href="../../tables/pending_transaction_operations.html" xlink:title="pending_transaction_operations" target="_top">
<polygon fill="#ffffff" stroke="transparent" points="719.5,-459.68 719.5,-517.68 1001.5,-517.68 1001.5,-459.68 719.5,-459.68"/>
<polygon fill="#f5f5f5" stroke="transparent" points="719.5,-495.68 719.5,-517.68 1001.5,-517.68 1001.5,-495.68 719.5,-495.68"/>
<polygon fill="none" stroke="black" points="719.5,-495.68 719.5,-517.68 1001.5,-517.68 1001.5,-495.68 719.5,-495.68"/>
<text text-anchor="start" x="724.5" y="-504.88" font-family="Helvetica,sans-Serif" font-weight="bold" font-size="11.00">pending_transaction_operations</text>
<text text-anchor="start" x="959.5" y="-503.88" font-family="Helvetica,sans-Serif" font-size="11.00">[table]</text>
<polygon fill="none" stroke="black" points="719.5,-477.68 719.5,-495.68 1001.5,-495.68 1001.5,-477.68 719.5,-477.68"/>
<text text-anchor="start" x="722.5" y="-483.88" font-family="Helvetica,sans-Serif" font-size="11.00">...</text>
<polygon fill="#ffffff" stroke="transparent" points="719.5,-459.68 719.5,-477.68 1001.5,-477.68 1001.5,-459.68 719.5,-459.68"/>
<polygon fill="none" stroke="black" points="719.5,-459.68 719.5,-477.68 1001.5,-477.68 1001.5,-459.68 719.5,-459.68"/>
<polygon fill="#ffffff" stroke="transparent" points="720.5,-460.68 720.5,-476.68 812.5,-476.68 812.5,-460.68 720.5,-460.68"/>
<text text-anchor="start" x="722.5" y="-465.88" font-family="Helvetica,sans-Serif" font-size="11.00">&lt; 1</text>
<polygon fill="#ffffff" stroke="transparent" points="812.5,-460.68 812.5,-476.68 921.5,-476.68 921.5,-460.68 812.5,-460.68"/>
<text text-anchor="start" x="848.5" y="-465.88" font-family="Helvetica,sans-Serif" font-size="11.00">0 rows</text>
<polygon fill="#ffffff" stroke="transparent" points="921.5,-460.68 921.5,-476.68 1000.5,-476.68 1000.5,-460.68 921.5,-460.68"/>
<text text-anchor="start" x="990.5" y="-465.88" font-family="Helvetica,sans-Serif" font-size="11.00"> &#160;</text>
<polygon fill="black" stroke="black" points="812.5,-460.68 812.5,-476.68 812.5,-476.68 812.5,-460.68 812.5,-460.68"/>
<polygon fill="black" stroke="black" points="921.5,-460.68 921.5,-476.68 921.5,-476.68 921.5,-460.68 921.5,-460.68"/>
</a>
</g>
</g>
<!-- pending_transaction_operations&#45;&gt;transactions -->
<g id="edge7" class="edge">
<title>pending_transaction_operations:w&#45;&gt;transactions:e</title>
<path fill="none" stroke="black" d="M708.02,-487.21C681.9,-489.99 672.94,-502.68 642,-502.68"/>
<polygon fill="black" stroke="black" points="717.5,-482.72 717.9,-490.71 716.31,-490.79 715.9,-482.81 717.5,-482.72"/>
<polyline fill="none" stroke="black" points="718.5,-486.68 714.51,-486.88 "/>
<ellipse fill="none" stroke="black" cx="711.31" cy="-487.04" rx="3.2" ry="3.2"/>
</g>
<!-- signed_authorizations -->
<g id="node8" class="node">
<title>signed_authorizations</title>
<g id="a_node8"><a xlink:href="../../tables/signed_authorizations.html" xlink:title="signed_authorizations" target="_top">
<polygon fill="#ffffff" stroke="transparent" points="756.5,-380.68 756.5,-438.68 964.5,-438.68 964.5,-380.68 756.5,-380.68"/>
<polygon fill="#f5f5f5" stroke="transparent" points="756.5,-416.68 756.5,-438.68 964.5,-438.68 964.5,-416.68 756.5,-416.68"/>
<polygon fill="none" stroke="black" points="756.5,-416.68 756.5,-438.68 964.5,-438.68 964.5,-416.68 756.5,-416.68"/>
<text text-anchor="start" x="761.5" y="-425.88" font-family="Helvetica,sans-Serif" font-weight="bold" font-size="11.00">signed_authorizations</text>
<text text-anchor="start" x="922.5" y="-424.88" font-family="Helvetica,sans-Serif" font-size="11.00">[table]</text>
<polygon fill="none" stroke="black" points="756.5,-398.68 756.5,-416.68 964.5,-416.68 964.5,-398.68 756.5,-398.68"/>
<text text-anchor="start" x="759.5" y="-404.88" font-family="Helvetica,sans-Serif" font-size="11.00">...</text>
<polygon fill="#ffffff" stroke="transparent" points="756.5,-380.68 756.5,-398.68 964.5,-398.68 964.5,-380.68 756.5,-380.68"/>
<polygon fill="none" stroke="black" points="756.5,-380.68 756.5,-398.68 964.5,-398.68 964.5,-380.68 756.5,-380.68"/>
<polygon fill="#ffffff" stroke="transparent" points="757.5,-381.68 757.5,-397.68 812.5,-397.68 812.5,-381.68 757.5,-381.68"/>
<text text-anchor="start" x="759.5" y="-386.88" font-family="Helvetica,sans-Serif" font-size="11.00">&lt; 1</text>
<polygon fill="#ffffff" stroke="transparent" points="812.5,-381.68 812.5,-397.68 921.5,-397.68 921.5,-381.68 812.5,-381.68"/>
<text text-anchor="start" x="829.5" y="-386.88" font-family="Helvetica,sans-Serif" font-size="11.00">572,461 rows</text>
<polygon fill="#ffffff" stroke="transparent" points="921.5,-381.68 921.5,-397.68 963.5,-397.68 963.5,-381.68 921.5,-381.68"/>
<text text-anchor="start" x="953.5" y="-386.88" font-family="Helvetica,sans-Serif" font-size="11.00"> &#160;</text>
<polygon fill="black" stroke="black" points="812.5,-381.68 812.5,-397.68 812.5,-397.68 812.5,-381.68 812.5,-381.68"/>
<polygon fill="black" stroke="black" points="921.5,-381.68 921.5,-397.68 921.5,-397.68 921.5,-381.68 921.5,-381.68"/>
</a>
</g>
</g>
<!-- signed_authorizations&#45;&gt;transactions -->
<g id="edge8" class="edge">
<title>signed_authorizations:w&#45;&gt;transactions:e</title>
<path fill="none" stroke="black" d="M740.91,-408.72C715.24,-412.79 706.16,-428.41 682,-449.68 659.85,-469.18 671.51,-502.68 642,-502.68"/>
<polygon fill="black" stroke="black" points="747.52,-408.25 755.76,-411.27 751.51,-407.96 755.5,-407.68 755.5,-407.68 755.5,-407.68 751.51,-407.96 755.24,-404.09 747.52,-408.25 747.52,-408.25"/>
<ellipse fill="none" stroke="black" cx="744.33" cy="-408.48" rx="3.2" ry="3.2"/>
</g>
<!-- token_transfers -->
<g id="node9" class="node">
<title>token_transfers</title>
<g id="a_node9"><a xlink:href="../../tables/token_transfers.html" xlink:title="token_transfers" target="_top">
<polygon fill="#ffffff" stroke="transparent" points="779.5,-143.68 779.5,-201.68 941.5,-201.68 941.5,-143.68 779.5,-143.68"/>
<polygon fill="#f5f5f5" stroke="transparent" points="779.5,-179.68 779.5,-201.68 941.5,-201.68 941.5,-179.68 779.5,-179.68"/>
<polygon fill="none" stroke="black" points="779.5,-179.68 779.5,-201.68 941.5,-201.68 941.5,-179.68 779.5,-179.68"/>
<text text-anchor="start" x="784.5" y="-188.88" font-family="Helvetica,sans-Serif" font-weight="bold" font-size="11.00">token_transfers</text>
<text text-anchor="start" x="899.5" y="-187.88" font-family="Helvetica,sans-Serif" font-size="11.00">[table]</text>
<polygon fill="none" stroke="black" points="779.5,-161.68 779.5,-179.68 941.5,-179.68 941.5,-161.68 779.5,-161.68"/>
<text text-anchor="start" x="782.5" y="-167.88" font-family="Helvetica,sans-Serif" font-size="11.00">...</text>
<polygon fill="#ffffff" stroke="transparent" points="779.5,-143.68 779.5,-161.68 941.5,-161.68 941.5,-143.68 779.5,-143.68"/>
<polygon fill="none" stroke="black" points="779.5,-143.68 779.5,-161.68 941.5,-161.68 941.5,-143.68 779.5,-143.68"/>
<polygon fill="#ffffff" stroke="transparent" points="780.5,-144.68 780.5,-160.68 816.5,-160.68 816.5,-144.68 780.5,-144.68"/>
<text text-anchor="start" x="782.5" y="-149.88" font-family="Helvetica,sans-Serif" font-size="11.00">&lt; 2</text>
<polygon fill="#ffffff" stroke="transparent" points="816.5,-144.68 816.5,-160.68 917.5,-160.68 917.5,-144.68 816.5,-144.68"/>
<text text-anchor="start" x="824.5" y="-149.88" font-family="Helvetica,sans-Serif" font-size="11.00">5,167,632 rows</text>
<polygon fill="#ffffff" stroke="transparent" points="917.5,-144.68 917.5,-160.68 940.5,-160.68 940.5,-144.68 917.5,-144.68"/>
<text text-anchor="start" x="930.5" y="-149.88" font-family="Helvetica,sans-Serif" font-size="11.00"> &#160;</text>
<polygon fill="black" stroke="black" points="816.5,-144.68 816.5,-160.68 816.5,-160.68 816.5,-144.68 816.5,-144.68"/>
<polygon fill="black" stroke="black" points="917.5,-144.68 917.5,-160.68 917.5,-160.68 917.5,-144.68 917.5,-144.68"/>
</a>
</g>
</g>
<!-- token_transfers&#45;&gt;transactions -->
<g id="edge10" class="edge">
<title>token_transfers:w&#45;&gt;transactions:e</title>
<path fill="none" stroke="black" d="M764.02,-170.88C726.95,-172.1 707.17,-179.48 682,-212.68 642.7,-264.52 707.05,-502.68 642,-502.68"/>
<polygon fill="black" stroke="black" points="770.5,-170.79 778.55,-174.28 774.5,-170.73 778.5,-170.68 778.5,-170.68 778.5,-170.68 774.5,-170.73 778.45,-167.08 770.5,-170.79 770.5,-170.79"/>
<ellipse fill="none" stroke="black" cx="767.3" cy="-170.84" rx="3.2" ry="3.2"/>
</g>
<!-- token_transfers&#45;&gt;blocks -->
<g id="edge9" class="edge">
<title>token_transfers:w&#45;&gt;blocks:e</title>
<path fill="none" stroke="black" d="M763.85,-170.08C716.61,-166.05 702.91,-142.83 649,-135.68 544.8,-121.85 266.29,-81.87 176,-135.68 144.31,-154.56 173.39,-208.68 136.5,-208.68"/>
<polygon fill="black" stroke="black" points="770.51,-170.35 778.35,-174.28 774.5,-170.52 778.5,-170.68 778.5,-170.68 778.5,-170.68 774.5,-170.52 778.65,-167.08 770.51,-170.35 770.51,-170.35"/>
<ellipse fill="none" stroke="black" cx="767.31" cy="-170.22" rx="3.2" ry="3.2"/>
</g>
<!-- transaction_actions -->
<g id="node10" class="node">
<title>transaction_actions</title>
<g id="a_node10"><a xlink:href="../../tables/transaction_actions.html" xlink:title="transaction_actions" target="_top">
<polygon fill="#ffffff" stroke="transparent" points="765.5,-301.68 765.5,-359.68 955.5,-359.68 955.5,-301.68 765.5,-301.68"/>
<polygon fill="#f5f5f5" stroke="transparent" points="765.5,-337.68 765.5,-359.68 955.5,-359.68 955.5,-337.68 765.5,-337.68"/>
<polygon fill="none" stroke="black" points="765.5,-337.68 765.5,-359.68 955.5,-359.68 955.5,-337.68 765.5,-337.68"/>
<text text-anchor="start" x="770.5" y="-346.88" font-family="Helvetica,sans-Serif" font-weight="bold" font-size="11.00">transaction_actions</text>
<text text-anchor="start" x="913.5" y="-345.88" font-family="Helvetica,sans-Serif" font-size="11.00">[table]</text>
<polygon fill="none" stroke="black" points="765.5,-319.68 765.5,-337.68 955.5,-337.68 955.5,-319.68 765.5,-319.68"/>
<text text-anchor="start" x="768.5" y="-325.88" font-family="Helvetica,sans-Serif" font-size="11.00">...</text>
<polygon fill="#ffffff" stroke="transparent" points="765.5,-301.68 765.5,-319.68 955.5,-319.68 955.5,-301.68 765.5,-301.68"/>
<polygon fill="none" stroke="black" points="765.5,-301.68 765.5,-319.68 955.5,-319.68 955.5,-301.68 765.5,-301.68"/>
<polygon fill="#ffffff" stroke="transparent" points="766.5,-302.68 766.5,-318.68 837.5,-318.68 837.5,-302.68 766.5,-302.68"/>
<text text-anchor="start" x="768.5" y="-307.88" font-family="Helvetica,sans-Serif" font-size="11.00">&lt; 1</text>
<polygon fill="#ffffff" stroke="transparent" points="837.5,-302.68 837.5,-318.68 896.5,-318.68 896.5,-302.68 837.5,-302.68"/>
<text text-anchor="start" x="863" y="-307.88" font-family="Helvetica,sans-Serif" font-size="11.00"> &#160;</text>
<polygon fill="#ffffff" stroke="transparent" points="896.5,-302.68 896.5,-318.68 954.5,-318.68 954.5,-302.68 896.5,-302.68"/>
<text text-anchor="start" x="944.5" y="-307.88" font-family="Helvetica,sans-Serif" font-size="11.00"> &#160;</text>
<polygon fill="black" stroke="black" points="837.5,-302.68 837.5,-318.68 837.5,-318.68 837.5,-302.68 837.5,-302.68"/>
<polygon fill="black" stroke="black" points="896.5,-302.68 896.5,-318.68 896.5,-318.68 896.5,-302.68 896.5,-302.68"/>
</a>
</g>
</g>
<!-- transaction_actions&#45;&gt;transactions -->
<g id="edge11" class="edge">
<title>transaction_actions:w&#45;&gt;transactions:e</title>
<path fill="none" stroke="black" d="M749.81,-329.22C719.31,-331.72 705.01,-343.2 682,-370.68 642.65,-417.68 703.3,-502.68 642,-502.68"/>
<polygon fill="black" stroke="black" points="756.51,-328.97 764.63,-332.28 760.5,-328.83 764.5,-328.68 764.5,-328.68 764.5,-328.68 760.5,-328.83 764.37,-325.08 756.51,-328.97 756.51,-328.97"/>
<ellipse fill="none" stroke="black" cx="753.31" cy="-329.09" rx="3.2" ry="3.2"/>
</g>
<!-- transaction_forks -->
<g id="node11" class="node">
<title>transaction_forks</title>
<g id="a_node11"><a xlink:href="../../tables/transaction_forks.html" xlink:title="transaction_forks" target="_top">
<polygon fill="#ffffff" stroke="transparent" points="773.5,-64.68 773.5,-122.68 947.5,-122.68 947.5,-64.68 773.5,-64.68"/>
<polygon fill="#f5f5f5" stroke="transparent" points="773.5,-100.68 773.5,-122.68 947.5,-122.68 947.5,-100.68 773.5,-100.68"/>
<polygon fill="none" stroke="black" points="773.5,-100.68 773.5,-122.68 947.5,-122.68 947.5,-100.68 773.5,-100.68"/>
<text text-anchor="start" x="778.5" y="-109.88" font-family="Helvetica,sans-Serif" font-weight="bold" font-size="11.00">transaction_forks</text>
<text text-anchor="start" x="905.5" y="-108.88" font-family="Helvetica,sans-Serif" font-size="11.00">[table]</text>
<polygon fill="none" stroke="black" points="773.5,-82.68 773.5,-100.68 947.5,-100.68 947.5,-82.68 773.5,-82.68"/>
<text text-anchor="start" x="776.5" y="-88.88" font-family="Helvetica,sans-Serif" font-size="11.00">...</text>
<polygon fill="#ffffff" stroke="transparent" points="773.5,-64.68 773.5,-82.68 947.5,-82.68 947.5,-64.68 773.5,-64.68"/>
<polygon fill="none" stroke="black" points="773.5,-64.68 773.5,-82.68 947.5,-82.68 947.5,-64.68 773.5,-64.68"/>
<polygon fill="#ffffff" stroke="transparent" points="774.5,-65.68 774.5,-81.68 840.5,-81.68 840.5,-65.68 774.5,-65.68"/>
<text text-anchor="start" x="776.5" y="-70.88" font-family="Helvetica,sans-Serif" font-size="11.00">&lt; 2</text>
<polygon fill="#ffffff" stroke="transparent" points="840.5,-65.68 840.5,-81.68 893.5,-81.68 893.5,-65.68 840.5,-65.68"/>
<text text-anchor="start" x="863" y="-70.88" font-family="Helvetica,sans-Serif" font-size="11.00"> &#160;</text>
<polygon fill="#ffffff" stroke="transparent" points="893.5,-65.68 893.5,-81.68 946.5,-81.68 946.5,-65.68 893.5,-65.68"/>
<text text-anchor="start" x="936.5" y="-70.88" font-family="Helvetica,sans-Serif" font-size="11.00"> &#160;</text>
<polygon fill="black" stroke="black" points="840.5,-65.68 840.5,-81.68 840.5,-81.68 840.5,-65.68 840.5,-65.68"/>
<polygon fill="black" stroke="black" points="893.5,-65.68 893.5,-81.68 893.5,-81.68 893.5,-65.68 893.5,-65.68"/>
</a>
</g>
</g>
<!-- transaction_forks&#45;&gt;transactions -->
<g id="edge12" class="edge">
<title>transaction_forks:w&#45;&gt;transactions:e</title>
<path fill="none" stroke="black" d="M757.85,-91.96C723.32,-93.49 704.81,-101.87 682,-133.68 633.93,-200.7 724.48,-502.68 642,-502.68"/>
<polygon fill="black" stroke="black" points="764.5,-91.83 772.57,-95.28 768.5,-91.76 772.5,-91.68 772.5,-91.68 772.5,-91.68 768.5,-91.76 772.43,-88.08 764.5,-91.83 764.5,-91.83"/>
<ellipse fill="none" stroke="black" cx="761.3" cy="-91.9" rx="3.2" ry="3.2"/>
</g>
<!-- transaction_forks&#45;&gt;blocks -->
<g id="edge13" class="edge">
<title>transaction_forks:w&#45;&gt;blocks:e</title>
<path fill="none" stroke="black" d="M757.89,-91.54C503.03,-86.59 388.6,45.44 176,-104.68 135.61,-133.2 185.94,-208.68 136.5,-208.68"/>
<polygon fill="black" stroke="black" points="764.5,-91.6 772.47,-95.28 768.5,-91.64 772.5,-91.68 772.5,-91.68 772.5,-91.68 768.5,-91.64 772.53,-88.08 764.5,-91.6 764.5,-91.6"/>
<ellipse fill="none" stroke="black" cx="761.3" cy="-91.57" rx="3.2" ry="3.2"/>
</g>
</g>
</svg>
