<?xml version="1.0" encoding="UTF-8" standalone="no"?>
<!DOCTYPE svg PUBLIC "-//W3C//DTD SVG 1.1//EN"
 "http://www.w3.org/Graphics/SVG/1.1/DTD/svg11.dtd">
<!-- Generated by graphviz version 2.43.0 (0)
 -->
<!-- Title: oneDegreeRelationshipsDiagram Pages: 1 -->
<svg width="686pt" height="437pt"
 viewBox="0.00 0.00 686.00 437.00" xmlns="http://www.w3.org/2000/svg" xmlns:xlink="http://www.w3.org/1999/xlink">
<g id="graph0" class="graph" transform="scale(1 1) rotate(0) translate(4 433)">
<title>oneDegreeRelationshipsDiagram</title>
<polygon fill="#ffffff" stroke="transparent" points="-4,4 -4,-433 682,-433 682,4 -4,4"/>
<text text-anchor="middle" x="79.5" y="-7.2" font-family="Helvetica,sans-Serif" font-size="11.00">Generated by SchemaSpy</text>
<!-- beacon_blobs_transactions -->
<g id="node1" class="node">
<title>beacon_blobs_transactions</title>
<g id="a_node1"><a xlink:href="../../tables/beacon_blobs_transactions.html" xlink:title="beacon_blobs_transactions" target="_top">
<polygon fill="#ffffff" stroke="transparent" points="329,-207 329,-405 670,-405 670,-207 329,-207"/>
<polygon fill="#f5f5f5" stroke="transparent" points="331.5,-381 331.5,-403 668.5,-403 668.5,-381 331.5,-381"/>
<polygon fill="none" stroke="black" points="331.5,-381 331.5,-403 668.5,-403 668.5,-381 331.5,-381"/>
<text text-anchor="start" x="336.5" y="-390.2" font-family="Helvetica,sans-Serif" font-weight="bold" font-size="11.00">beacon_blobs_transactions</text>
<text text-anchor="start" x="626.5" y="-389.2" font-family="Helvetica,sans-Serif" font-size="11.00">[table]</text>
<polygon fill="none" stroke="black" points="331.5,-359 331.5,-381 548.5,-381 548.5,-359 331.5,-359"/>
<image xlink:href="../../images/primaryKeys.png" width="11px" height="12px" preserveAspectRatio="xMinYMin meet" x="336.5" y="-376"/>
<text text-anchor="start" x="351.5" y="-367.2" font-family="Helvetica,sans-Serif" font-size="11.00">hash</text>
<polygon fill="none" stroke="black" points="548.5,-359 548.5,-381 668.5,-381 668.5,-359 548.5,-359"/>
<text text-anchor="start" x="551.5" y="-367.2" font-family="Helvetica,sans-Serif" font-size="11.00">bytea[2147483647]</text>
<polygon fill="none" stroke="black" points="331.5,-337 331.5,-359 548.5,-359 548.5,-337 331.5,-337"/>
<text text-anchor="start" x="351.5" y="-345.2" font-family="Helvetica,sans-Serif" font-size="11.00">max_fee_per_blob_gas</text>
<polygon fill="none" stroke="black" points="548.5,-337 548.5,-359 668.5,-359 668.5,-337 548.5,-337"/>
<text text-anchor="start" x="551.5" y="-345.2" font-family="Helvetica,sans-Serif" font-size="11.00">numeric[100]</text>
<polygon fill="none" stroke="black" points="331.5,-315 331.5,-337 548.5,-337 548.5,-315 331.5,-315"/>
<text text-anchor="start" x="351.5" y="-323.2" font-family="Helvetica,sans-Serif" font-size="11.00">blob_gas_price</text>
<polygon fill="none" stroke="black" points="548.5,-315 548.5,-337 668.5,-337 668.5,-315 548.5,-315"/>
<text text-anchor="start" x="551.5" y="-323.2" font-family="Helvetica,sans-Serif" font-size="11.00">numeric[100]</text>
<polygon fill="none" stroke="black" points="331.5,-293 331.5,-315 548.5,-315 548.5,-293 331.5,-293"/>
<text text-anchor="start" x="351.5" y="-301.2" font-family="Helvetica,sans-Serif" font-size="11.00">blob_gas_used</text>
<polygon fill="none" stroke="black" points="548.5,-293 548.5,-315 668.5,-315 668.5,-293 548.5,-293"/>
<text text-anchor="start" x="551.5" y="-301.2" font-family="Helvetica,sans-Serif" font-size="11.00">numeric[100]</text>
<polygon fill="none" stroke="black" points="331.5,-271 331.5,-293 548.5,-293 548.5,-271 331.5,-271"/>
<text text-anchor="start" x="351.5" y="-279.2" font-family="Helvetica,sans-Serif" font-size="11.00">blob_versioned_hashes</text>
<polygon fill="none" stroke="black" points="548.5,-271 548.5,-293 668.5,-293 668.5,-271 548.5,-271"/>
<text text-anchor="start" x="551.5" y="-279.2" font-family="Helvetica,sans-Serif" font-size="11.00">_bytea[2147483647]</text>
<polygon fill="none" stroke="black" points="331.5,-249 331.5,-271 548.5,-271 548.5,-249 331.5,-249"/>
<text text-anchor="start" x="351.5" y="-257.2" font-family="Helvetica,sans-Serif" font-size="11.00">inserted_at</text>
<polygon fill="none" stroke="black" points="548.5,-249 548.5,-271 668.5,-271 668.5,-249 548.5,-249"/>
<text text-anchor="start" x="551.5" y="-257.2" font-family="Helvetica,sans-Serif" font-size="11.00">timestamp[29,6]</text>
<polygon fill="none" stroke="black" points="331.5,-227 331.5,-249 548.5,-249 548.5,-227 331.5,-227"/>
<text text-anchor="start" x="351.5" y="-235.2" font-family="Helvetica,sans-Serif" font-size="11.00">updated_at</text>
<polygon fill="none" stroke="black" points="548.5,-227 548.5,-249 668.5,-249 668.5,-227 548.5,-227"/>
<text text-anchor="start" x="551.5" y="-235.2" font-family="Helvetica,sans-Serif" font-size="11.00">timestamp[29,6]</text>
<polygon fill="#ffffff" stroke="transparent" points="331.5,-209 331.5,-227 668.5,-227 668.5,-209 331.5,-209"/>
<polygon fill="none" stroke="black" points="331.5,-209 331.5,-227 668.5,-227 668.5,-209 331.5,-209"/>
<polygon fill="#ffffff" stroke="transparent" points="332.5,-210 332.5,-226 434.5,-226 434.5,-210 332.5,-210"/>
<text text-anchor="start" x="334.5" y="-215.2" font-family="Helvetica,sans-Serif" font-size="11.00">&lt; 1</text>
<polygon fill="#ffffff" stroke="transparent" points="434.5,-210 434.5,-226 566.5,-226 566.5,-210 434.5,-210"/>
<text text-anchor="start" x="475" y="-215.2" font-family="Helvetica,sans-Serif" font-size="11.00">971 rows</text>
<polygon fill="#ffffff" stroke="transparent" points="566.5,-210 566.5,-226 667.5,-226 667.5,-210 566.5,-210"/>
<text text-anchor="start" x="645.5" y="-215.2" font-family="Helvetica,sans-Serif" font-size="11.00">0 &gt;</text>
<polygon fill="black" stroke="black" points="434.5,-210 434.5,-226 434.5,-226 434.5,-210 434.5,-210"/>
<polygon fill="black" stroke="black" points="566.5,-210 566.5,-226 566.5,-226 566.5,-210 566.5,-210"/>
<polygon fill="none" stroke="black" stroke-width="2" points="330,-208 330,-404 669,-404 669,-208 330,-208"/>
</a>
</g>
</g>
<!-- transactions -->
<g id="node2" class="node">
<title>transactions</title>
<g id="a_node2"><a xlink:href="../../tables/transactions.html" xlink:title="transactions" target="_top">
<polygon fill="#ffffff" stroke="transparent" points="8,-37 8,-425 280,-425 280,-37 8,-37"/>
<polygon fill="#f5f5f5" stroke="transparent" points="8,-403 8,-425 280,-425 280,-403 8,-403"/>
<polygon fill="none" stroke="black" points="8,-403 8,-425 280,-425 280,-403 8,-403"/>
<text text-anchor="start" x="13" y="-412.2" font-family="Helvetica,sans-Serif" font-weight="bold" font-size="11.00">transactions</text>
<text text-anchor="start" x="238" y="-411.2" font-family="Helvetica,sans-Serif" font-size="11.00">[table]</text>
<polygon fill="#ffffff" stroke="transparent" points="8,-381 8,-403 280,-403 280,-381 8,-381"/>
<polygon fill="none" stroke="black" points="8,-381 8,-403 280,-403 280,-381 8,-381"/>
<text text-anchor="start" x="28" y="-389.2" font-family="Helvetica,sans-Serif" font-size="11.00">error</text>
<polygon fill="none" stroke="black" points="8,-359 8,-381 280,-381 280,-359 8,-359"/>
<image xlink:href="../../images/primaryKeys.png" width="11px" height="12px" preserveAspectRatio="xMinYMin meet" x="13" y="-376"/>
<text text-anchor="start" x="28" y="-367.2" font-family="Helvetica,sans-Serif" font-size="11.00">hash</text>
<polygon fill="#ffffff" stroke="transparent" points="8,-337 8,-359 280,-359 280,-337 8,-337"/>
<polygon fill="none" stroke="black" points="8,-337 8,-359 280,-359 280,-337 8,-337"/>
<image xlink:href="../../images/foreignKeys.png" width="11px" height="12px" preserveAspectRatio="xMinYMin meet" x="13" y="-354"/>
<text text-anchor="start" x="28" y="-345.2" font-family="Helvetica,sans-Serif" font-size="11.00">index</text>
<polygon fill="#ffffff" stroke="transparent" points="8,-315 8,-337 280,-337 280,-315 8,-315"/>
<polygon fill="none" stroke="black" points="8,-315 8,-337 280,-337 280,-315 8,-315"/>
<text text-anchor="start" x="28" y="-323.2" font-family="Helvetica,sans-Serif" font-size="11.00">nonce</text>
<polygon fill="#ffffff" stroke="transparent" points="8,-293 8,-315 280,-315 280,-293 8,-293"/>
<polygon fill="none" stroke="black" points="8,-293 8,-315 280,-315 280,-293 8,-293"/>
<text text-anchor="start" x="28" y="-301.2" font-family="Helvetica,sans-Serif" font-size="11.00">status</text>
<polygon fill="#ffffff" stroke="transparent" points="8,-271 8,-293 280,-293 280,-271 8,-271"/>
<polygon fill="none" stroke="black" points="8,-271 8,-293 280,-293 280,-271 8,-271"/>
<text text-anchor="start" x="28" y="-279.2" font-family="Helvetica,sans-Serif" font-size="11.00">inserted_at</text>
<polygon fill="#ffffff" stroke="transparent" points="8,-249 8,-271 280,-271 280,-249 8,-249"/>
<polygon fill="none" stroke="black" points="8,-249 8,-271 280,-271 280,-249 8,-249"/>
<text text-anchor="start" x="28" y="-257.2" font-family="Helvetica,sans-Serif" font-size="11.00">updated_at</text>
<polygon fill="#ffffff" stroke="transparent" points="8,-227 8,-249 280,-249 280,-227 8,-227"/>
<polygon fill="none" stroke="black" points="8,-227 8,-249 280,-249 280,-227 8,-227"/>
<image xlink:href="../../images/foreignKeys.png" width="11px" height="12px" preserveAspectRatio="xMinYMin meet" x="13" y="-244"/>
<text text-anchor="start" x="28" y="-235.2" font-family="Helvetica,sans-Serif" font-size="11.00">block_hash</text>
<polygon fill="#ffffff" stroke="transparent" points="8,-205 8,-227 280,-227 280,-205 8,-205"/>
<polygon fill="none" stroke="black" points="8,-205 8,-227 280,-227 280,-205 8,-205"/>
<text text-anchor="start" x="28" y="-213.2" font-family="Helvetica,sans-Serif" font-size="11.00">block_number</text>
<polygon fill="#ffffff" stroke="transparent" points="8,-183 8,-205 280,-205 280,-183 8,-183"/>
<polygon fill="none" stroke="black" points="8,-183 8,-205 280,-205 280,-183 8,-183"/>
<text text-anchor="start" x="28" y="-191.2" font-family="Helvetica,sans-Serif" font-size="11.00">from_address_hash</text>
<polygon fill="#ffffff" stroke="transparent" points="8,-161 8,-183 280,-183 280,-161 8,-161"/>
<polygon fill="none" stroke="black" points="8,-161 8,-183 280,-183 280,-161 8,-161"/>
<text text-anchor="start" x="28" y="-169.2" font-family="Helvetica,sans-Serif" font-size="11.00">to_address_hash</text>
<polygon fill="#ffffff" stroke="transparent" points="8,-139 8,-161 280,-161 280,-139 8,-139"/>
<polygon fill="none" stroke="black" points="8,-139 8,-161 280,-161 280,-139 8,-139"/>
<text text-anchor="start" x="28" y="-147.2" font-family="Helvetica,sans-Serif" font-size="11.00">created_contract_address_hash</text>
<polygon fill="#ffffff" stroke="transparent" points="8,-117 8,-139 280,-139 280,-117 8,-117"/>
<polygon fill="none" stroke="black" points="8,-117 8,-139 280,-139 280,-117 8,-117"/>
<text text-anchor="start" x="28" y="-125.2" font-family="Helvetica,sans-Serif" font-size="11.00">created_contract_code_indexed_at</text>
<polygon fill="#ffffff" stroke="transparent" points="8,-95 8,-117 280,-117 280,-95 8,-95"/>
<polygon fill="none" stroke="black" points="8,-95 8,-117 280,-117 280,-95 8,-95"/>
<text text-anchor="start" x="28" y="-103.2" font-family="Helvetica,sans-Serif" font-size="11.00">block_timestamp</text>
<polygon fill="#ffffff" stroke="transparent" points="8,-73 8,-95 280,-95 280,-73 8,-73"/>
<polygon fill="none" stroke="black" points="8,-73 8,-95 280,-95 280,-73 8,-73"/>
<text text-anchor="start" x="28" y="-81.2" font-family="Helvetica,sans-Serif" font-size="11.00">block_consensus</text>
<polygon fill="none" stroke="black" points="8,-55 8,-73 280,-73 280,-55 8,-55"/>
<text text-anchor="start" x="11" y="-61.2" font-family="Helvetica,sans-Serif" font-size="11.00">...</text>
<polygon fill="#ffffff" stroke="transparent" points="8,-37 8,-55 280,-55 280,-37 8,-37"/>
<polygon fill="none" stroke="black" points="8,-37 8,-55 280,-55 280,-37 8,-37"/>
<polygon fill="#ffffff" stroke="transparent" points="9,-38 9,-54 78,-54 78,-38 9,-38"/>
<text text-anchor="start" x="11" y="-43.2" font-family="Helvetica,sans-Serif" font-size="11.00">&lt; 1</text>
<polygon fill="#ffffff" stroke="transparent" points="78,-38 78,-54 211,-54 211,-38 78,-38"/>
<text text-anchor="start" x="102" y="-43.2" font-family="Helvetica,sans-Serif" font-size="11.00">5,902,854 rows</text>
<polygon fill="#ffffff" stroke="transparent" points="211,-38 211,-54 279,-54 279,-38 211,-38"/>
<text text-anchor="start" x="257" y="-43.2" font-family="Helvetica,sans-Serif" font-size="11.00">8 &gt;</text>
<polygon fill="black" stroke="black" points="78,-38 78,-54 78,-54 78,-38 78,-38"/>
<polygon fill="black" stroke="black" points="211,-38 211,-54 211,-54 211,-38 211,-38"/>
</a>
</g>
</g>
<!-- beacon_blobs_transactions&#45;&gt;transactions -->
<g id="edge1" class="edge">
<title>beacon_blobs_transactions:w&#45;&gt;transactions:e</title>
<path fill="none" stroke="black" d="M320.05,-370C305.99,-370 299.05,-370 281,-370"/>
<polygon fill="black" stroke="black" points="329.7,-366 329.7,-374 328.1,-374 328.1,-366 329.7,-366"/>
<polyline fill="none" stroke="black" points="330.5,-370 326.5,-370 "/>
<ellipse fill="none" stroke="black" cx="323.3" cy="-370" rx="3.2" ry="3.2"/>
</g>
</g>
</svg>
