<?xml version="1.0" encoding="UTF-8" standalone="no"?>
<!DOCTYPE svg PUBLIC "-//W3C//DTD SVG 1.1//EN"
 "http://www.w3.org/Graphics/SVG/1.1/DTD/svg11.dtd">
<!-- Generated by graphviz version 2.43.0 (0)
 -->
<!-- Title: twoDegreesRelationshipsDiagram Pages: 1 -->
<svg width="862pt" height="814pt"
 viewBox="0.00 0.00 862.00 814.00" xmlns="http://www.w3.org/2000/svg" xmlns:xlink="http://www.w3.org/1999/xlink">
<g id="graph0" class="graph" transform="scale(1 1) rotate(0) translate(4 810)">
<title>twoDegreesRelationshipsDiagram</title>
<polygon fill="#ffffff" stroke="transparent" points="-4,4 -4,-810 858,-810 858,4 -4,4"/>
<text text-anchor="middle" x="79.5" y="-7.2" font-family="Helvetica,sans-Serif" font-size="11.00">Generated by SchemaSpy</text>
<!-- beacon_blobs_transactions -->
<g id="node1" class="node">
<title>beacon_blobs_transactions</title>
<g id="a_node1"><a xlink:href="../../tables/beacon_blobs_transactions.html" xlink:title="beacon_blobs_transactions" target="_top">
<polygon fill="#ffffff" stroke="transparent" points="505,-525 505,-723 846,-723 846,-525 505,-525"/>
<polygon fill="#f5f5f5" stroke="transparent" points="507.5,-699 507.5,-721 844.5,-721 844.5,-699 507.5,-699"/>
<polygon fill="none" stroke="black" points="507.5,-699 507.5,-721 844.5,-721 844.5,-699 507.5,-699"/>
<text text-anchor="start" x="512.5" y="-708.2" font-family="Helvetica,sans-Serif" font-weight="bold" font-size="11.00">beacon_blobs_transactions</text>
<text text-anchor="start" x="802.5" y="-707.2" font-family="Helvetica,sans-Serif" font-size="11.00">[table]</text>
<polygon fill="none" stroke="black" points="507.5,-677 507.5,-699 724.5,-699 724.5,-677 507.5,-677"/>
<image xlink:href="../../images/primaryKeys.png" width="11px" height="12px" preserveAspectRatio="xMinYMin meet" x="512.5" y="-694"/>
<text text-anchor="start" x="527.5" y="-685.2" font-family="Helvetica,sans-Serif" font-size="11.00">hash</text>
<polygon fill="none" stroke="black" points="724.5,-677 724.5,-699 844.5,-699 844.5,-677 724.5,-677"/>
<text text-anchor="start" x="727.5" y="-685.2" font-family="Helvetica,sans-Serif" font-size="11.00">bytea[2147483647]</text>
<polygon fill="none" stroke="black" points="507.5,-655 507.5,-677 724.5,-677 724.5,-655 507.5,-655"/>
<text text-anchor="start" x="527.5" y="-663.2" font-family="Helvetica,sans-Serif" font-size="11.00">max_fee_per_blob_gas</text>
<polygon fill="none" stroke="black" points="724.5,-655 724.5,-677 844.5,-677 844.5,-655 724.5,-655"/>
<text text-anchor="start" x="727.5" y="-663.2" font-family="Helvetica,sans-Serif" font-size="11.00">numeric[100]</text>
<polygon fill="none" stroke="black" points="507.5,-633 507.5,-655 724.5,-655 724.5,-633 507.5,-633"/>
<text text-anchor="start" x="527.5" y="-641.2" font-family="Helvetica,sans-Serif" font-size="11.00">blob_gas_price</text>
<polygon fill="none" stroke="black" points="724.5,-633 724.5,-655 844.5,-655 844.5,-633 724.5,-633"/>
<text text-anchor="start" x="727.5" y="-641.2" font-family="Helvetica,sans-Serif" font-size="11.00">numeric[100]</text>
<polygon fill="none" stroke="black" points="507.5,-611 507.5,-633 724.5,-633 724.5,-611 507.5,-611"/>
<text text-anchor="start" x="527.5" y="-619.2" font-family="Helvetica,sans-Serif" font-size="11.00">blob_gas_used</text>
<polygon fill="none" stroke="black" points="724.5,-611 724.5,-633 844.5,-633 844.5,-611 724.5,-611"/>
<text text-anchor="start" x="727.5" y="-619.2" font-family="Helvetica,sans-Serif" font-size="11.00">numeric[100]</text>
<polygon fill="none" stroke="black" points="507.5,-589 507.5,-611 724.5,-611 724.5,-589 507.5,-589"/>
<text text-anchor="start" x="527.5" y="-597.2" font-family="Helvetica,sans-Serif" font-size="11.00">blob_versioned_hashes</text>
<polygon fill="none" stroke="black" points="724.5,-589 724.5,-611 844.5,-611 844.5,-589 724.5,-589"/>
<text text-anchor="start" x="727.5" y="-597.2" font-family="Helvetica,sans-Serif" font-size="11.00">_bytea[2147483647]</text>
<polygon fill="none" stroke="black" points="507.5,-567 507.5,-589 724.5,-589 724.5,-567 507.5,-567"/>
<text text-anchor="start" x="527.5" y="-575.2" font-family="Helvetica,sans-Serif" font-size="11.00">inserted_at</text>
<polygon fill="none" stroke="black" points="724.5,-567 724.5,-589 844.5,-589 844.5,-567 724.5,-567"/>
<text text-anchor="start" x="727.5" y="-575.2" font-family="Helvetica,sans-Serif" font-size="11.00">timestamp[29,6]</text>
<polygon fill="none" stroke="black" points="507.5,-545 507.5,-567 724.5,-567 724.5,-545 507.5,-545"/>
<text text-anchor="start" x="527.5" y="-553.2" font-family="Helvetica,sans-Serif" font-size="11.00">updated_at</text>
<polygon fill="none" stroke="black" points="724.5,-545 724.5,-567 844.5,-567 844.5,-545 724.5,-545"/>
<text text-anchor="start" x="727.5" y="-553.2" font-family="Helvetica,sans-Serif" font-size="11.00">timestamp[29,6]</text>
<polygon fill="#ffffff" stroke="transparent" points="507.5,-527 507.5,-545 844.5,-545 844.5,-527 507.5,-527"/>
<polygon fill="none" stroke="black" points="507.5,-527 507.5,-545 844.5,-545 844.5,-527 507.5,-527"/>
<polygon fill="#ffffff" stroke="transparent" points="508.5,-528 508.5,-544 610.5,-544 610.5,-528 508.5,-528"/>
<text text-anchor="start" x="510.5" y="-533.2" font-family="Helvetica,sans-Serif" font-size="11.00">&lt; 1</text>
<polygon fill="#ffffff" stroke="transparent" points="610.5,-528 610.5,-544 742.5,-544 742.5,-528 610.5,-528"/>
<text text-anchor="start" x="651" y="-533.2" font-family="Helvetica,sans-Serif" font-size="11.00">971 rows</text>
<polygon fill="#ffffff" stroke="transparent" points="742.5,-528 742.5,-544 843.5,-544 843.5,-528 742.5,-528"/>
<text text-anchor="start" x="821.5" y="-533.2" font-family="Helvetica,sans-Serif" font-size="11.00">0 &gt;</text>
<polygon fill="black" stroke="black" points="610.5,-528 610.5,-544 610.5,-544 610.5,-528 610.5,-528"/>
<polygon fill="black" stroke="black" points="742.5,-528 742.5,-544 742.5,-544 742.5,-528 742.5,-528"/>
<polygon fill="none" stroke="black" stroke-width="2" points="506,-526 506,-722 845,-722 845,-526 506,-526"/>
</a>
</g>
</g>
<!-- transactions -->
<g id="node2" class="node">
<title>transactions</title>
<g id="a_node2"><a xlink:href="../../tables/transactions.html" xlink:title="transactions" target="_top">
<polygon fill="#ffffff" stroke="transparent" points="184,-141 184,-529 456,-529 456,-141 184,-141"/>
<polygon fill="#f5f5f5" stroke="transparent" points="184,-507 184,-529 456,-529 456,-507 184,-507"/>
<polygon fill="none" stroke="black" points="184,-507 184,-529 456,-529 456,-507 184,-507"/>
<text text-anchor="start" x="189" y="-516.2" font-family="Helvetica,sans-Serif" font-weight="bold" font-size="11.00">transactions</text>
<text text-anchor="start" x="414" y="-515.2" font-family="Helvetica,sans-Serif" font-size="11.00">[table]</text>
<polygon fill="#ffffff" stroke="transparent" points="184,-485 184,-507 456,-507 456,-485 184,-485"/>
<polygon fill="none" stroke="black" points="184,-485 184,-507 456,-507 456,-485 184,-485"/>
<text text-anchor="start" x="204" y="-493.2" font-family="Helvetica,sans-Serif" font-size="11.00">error</text>
<polygon fill="none" stroke="black" points="184,-463 184,-485 456,-485 456,-463 184,-463"/>
<image xlink:href="../../images/primaryKeys.png" width="11px" height="12px" preserveAspectRatio="xMinYMin meet" x="189" y="-480"/>
<text text-anchor="start" x="204" y="-471.2" font-family="Helvetica,sans-Serif" font-size="11.00">hash</text>
<polygon fill="#ffffff" stroke="transparent" points="184,-441 184,-463 456,-463 456,-441 184,-441"/>
<polygon fill="none" stroke="black" points="184,-441 184,-463 456,-463 456,-441 184,-441"/>
<image xlink:href="../../images/foreignKeys.png" width="11px" height="12px" preserveAspectRatio="xMinYMin meet" x="189" y="-458"/>
<text text-anchor="start" x="204" y="-449.2" font-family="Helvetica,sans-Serif" font-size="11.00">index</text>
<polygon fill="#ffffff" stroke="transparent" points="184,-419 184,-441 456,-441 456,-419 184,-419"/>
<polygon fill="none" stroke="black" points="184,-419 184,-441 456,-441 456,-419 184,-419"/>
<text text-anchor="start" x="204" y="-427.2" font-family="Helvetica,sans-Serif" font-size="11.00">nonce</text>
<polygon fill="#ffffff" stroke="transparent" points="184,-397 184,-419 456,-419 456,-397 184,-397"/>
<polygon fill="none" stroke="black" points="184,-397 184,-419 456,-419 456,-397 184,-397"/>
<text text-anchor="start" x="204" y="-405.2" font-family="Helvetica,sans-Serif" font-size="11.00">status</text>
<polygon fill="#ffffff" stroke="transparent" points="184,-375 184,-397 456,-397 456,-375 184,-375"/>
<polygon fill="none" stroke="black" points="184,-375 184,-397 456,-397 456,-375 184,-375"/>
<text text-anchor="start" x="204" y="-383.2" font-family="Helvetica,sans-Serif" font-size="11.00">inserted_at</text>
<polygon fill="#ffffff" stroke="transparent" points="184,-353 184,-375 456,-375 456,-353 184,-353"/>
<polygon fill="none" stroke="black" points="184,-353 184,-375 456,-375 456,-353 184,-353"/>
<text text-anchor="start" x="204" y="-361.2" font-family="Helvetica,sans-Serif" font-size="11.00">updated_at</text>
<polygon fill="#ffffff" stroke="transparent" points="184,-331 184,-353 456,-353 456,-331 184,-331"/>
<polygon fill="none" stroke="black" points="184,-331 184,-353 456,-353 456,-331 184,-331"/>
<image xlink:href="../../images/foreignKeys.png" width="11px" height="12px" preserveAspectRatio="xMinYMin meet" x="189" y="-348"/>
<text text-anchor="start" x="204" y="-339.2" font-family="Helvetica,sans-Serif" font-size="11.00">block_hash</text>
<polygon fill="#ffffff" stroke="transparent" points="184,-309 184,-331 456,-331 456,-309 184,-309"/>
<polygon fill="none" stroke="black" points="184,-309 184,-331 456,-331 456,-309 184,-309"/>
<text text-anchor="start" x="204" y="-317.2" font-family="Helvetica,sans-Serif" font-size="11.00">block_number</text>
<polygon fill="#ffffff" stroke="transparent" points="184,-287 184,-309 456,-309 456,-287 184,-287"/>
<polygon fill="none" stroke="black" points="184,-287 184,-309 456,-309 456,-287 184,-287"/>
<text text-anchor="start" x="204" y="-295.2" font-family="Helvetica,sans-Serif" font-size="11.00">from_address_hash</text>
<polygon fill="#ffffff" stroke="transparent" points="184,-265 184,-287 456,-287 456,-265 184,-265"/>
<polygon fill="none" stroke="black" points="184,-265 184,-287 456,-287 456,-265 184,-265"/>
<text text-anchor="start" x="204" y="-273.2" font-family="Helvetica,sans-Serif" font-size="11.00">to_address_hash</text>
<polygon fill="#ffffff" stroke="transparent" points="184,-243 184,-265 456,-265 456,-243 184,-243"/>
<polygon fill="none" stroke="black" points="184,-243 184,-265 456,-265 456,-243 184,-243"/>
<text text-anchor="start" x="204" y="-251.2" font-family="Helvetica,sans-Serif" font-size="11.00">created_contract_address_hash</text>
<polygon fill="#ffffff" stroke="transparent" points="184,-221 184,-243 456,-243 456,-221 184,-221"/>
<polygon fill="none" stroke="black" points="184,-221 184,-243 456,-243 456,-221 184,-221"/>
<text text-anchor="start" x="204" y="-229.2" font-family="Helvetica,sans-Serif" font-size="11.00">created_contract_code_indexed_at</text>
<polygon fill="#ffffff" stroke="transparent" points="184,-199 184,-221 456,-221 456,-199 184,-199"/>
<polygon fill="none" stroke="black" points="184,-199 184,-221 456,-221 456,-199 184,-199"/>
<text text-anchor="start" x="204" y="-207.2" font-family="Helvetica,sans-Serif" font-size="11.00">block_timestamp</text>
<polygon fill="#ffffff" stroke="transparent" points="184,-177 184,-199 456,-199 456,-177 184,-177"/>
<polygon fill="none" stroke="black" points="184,-177 184,-199 456,-199 456,-177 184,-177"/>
<text text-anchor="start" x="204" y="-185.2" font-family="Helvetica,sans-Serif" font-size="11.00">block_consensus</text>
<polygon fill="none" stroke="black" points="184,-159 184,-177 456,-177 456,-159 184,-159"/>
<text text-anchor="start" x="187" y="-165.2" font-family="Helvetica,sans-Serif" font-size="11.00">...</text>
<polygon fill="#ffffff" stroke="transparent" points="184,-141 184,-159 456,-159 456,-141 184,-141"/>
<polygon fill="none" stroke="black" points="184,-141 184,-159 456,-159 456,-141 184,-141"/>
<polygon fill="#ffffff" stroke="transparent" points="185,-142 185,-158 254,-158 254,-142 185,-142"/>
<text text-anchor="start" x="187" y="-147.2" font-family="Helvetica,sans-Serif" font-size="11.00">&lt; 1</text>
<polygon fill="#ffffff" stroke="transparent" points="254,-142 254,-158 387,-158 387,-142 254,-142"/>
<text text-anchor="start" x="278" y="-147.2" font-family="Helvetica,sans-Serif" font-size="11.00">5,902,854 rows</text>
<polygon fill="#ffffff" stroke="transparent" points="387,-142 387,-158 455,-158 455,-142 387,-142"/>
<text text-anchor="start" x="433" y="-147.2" font-family="Helvetica,sans-Serif" font-size="11.00">8 &gt;</text>
<polygon fill="black" stroke="black" points="254,-142 254,-158 254,-158 254,-142 254,-142"/>
<polygon fill="black" stroke="black" points="387,-142 387,-158 387,-158 387,-142 387,-142"/>
</a>
</g>
</g>
<!-- beacon_blobs_transactions&#45;&gt;transactions -->
<g id="edge1" class="edge">
<title>beacon_blobs_transactions:w&#45;&gt;transactions:e</title>
<path fill="none" stroke="black" d="M495.68,-686.95C420.42,-670.81 550.62,-474 457,-474"/>
<polygon fill="black" stroke="black" points="506.09,-683.94 505.32,-691.9 503.72,-691.75 504.5,-683.79 506.09,-683.94"/>
<polyline fill="none" stroke="black" points="506.5,-688 502.52,-687.61 "/>
<ellipse fill="none" stroke="black" cx="499.33" cy="-687.3" rx="3.2" ry="3.2"/>
</g>
<!-- blocks -->
<g id="node4" class="node">
<title>blocks</title>
<g id="a_node4"><a xlink:href="../../tables/blocks.html" xlink:title="blocks" target="_top">
<polygon fill="#ffffff" stroke="transparent" points="8,-90 8,-148 135,-148 135,-90 8,-90"/>
<polygon fill="#f5f5f5" stroke="transparent" points="8.5,-126 8.5,-148 135.5,-148 135.5,-126 8.5,-126"/>
<polygon fill="none" stroke="black" points="8.5,-126 8.5,-148 135.5,-148 135.5,-126 8.5,-126"/>
<text text-anchor="start" x="13.5" y="-135.2" font-family="Helvetica,sans-Serif" font-weight="bold" font-size="11.00">blocks</text>
<text text-anchor="start" x="93.5" y="-134.2" font-family="Helvetica,sans-Serif" font-size="11.00">[table]</text>
<polygon fill="none" stroke="black" points="8.5,-108 8.5,-126 135.5,-126 135.5,-108 8.5,-108"/>
<text text-anchor="start" x="11.5" y="-114.2" font-family="Helvetica,sans-Serif" font-size="11.00">...</text>
<polygon fill="#ffffff" stroke="transparent" points="8.5,-90 8.5,-108 135.5,-108 135.5,-90 8.5,-90"/>
<polygon fill="none" stroke="black" points="8.5,-90 8.5,-108 135.5,-108 135.5,-90 8.5,-90"/>
<polygon fill="#ffffff" stroke="transparent" points="9.5,-91 9.5,-107 21.5,-107 21.5,-91 9.5,-91"/>
<text text-anchor="start" x="11.5" y="-96.2" font-family="Helvetica,sans-Serif" font-size="11.00"> &#160;</text>
<polygon fill="#ffffff" stroke="transparent" points="21.5,-91 21.5,-107 110.5,-107 110.5,-91 21.5,-91"/>
<text text-anchor="start" x="23.5" y="-96.2" font-family="Helvetica,sans-Serif" font-size="11.00">1,446,481 rows</text>
<polygon fill="#ffffff" stroke="transparent" points="110.5,-91 110.5,-107 134.5,-107 134.5,-91 110.5,-91"/>
<text text-anchor="start" x="112.5" y="-96.2" font-family="Helvetica,sans-Serif" font-size="11.00">9 &gt;</text>
<polygon fill="black" stroke="black" points="21.5,-91 21.5,-107 21.5,-107 21.5,-91 21.5,-91"/>
<polygon fill="black" stroke="black" points="110.5,-91 110.5,-107 110.5,-107 110.5,-91 110.5,-91"/>
</a>
</g>
</g>
<!-- transactions&#45;&gt;blocks -->
<g id="edge13" class="edge">
<title>transactions:w&#45;&gt;blocks:e</title>
<path fill="none" stroke="black" d="M168.49,-340.05C97.36,-318.06 233.03,-117 136.5,-117"/>
<polygon fill="black" stroke="black" points="175.07,-340.94 182.52,-345.57 179.04,-341.47 183,-342 183,-342 183,-342 179.04,-341.47 183.48,-338.43 175.07,-340.94 175.07,-340.94"/>
<ellipse fill="none" stroke="black" cx="171.9" cy="-340.51" rx="3.2" ry="3.2"/>
</g>
<!-- internal_transactions -->
<g id="node3" class="node">
<title>internal_transactions</title>
<g id="a_node3"><a xlink:href="../../tables/internal_transactions.html" xlink:title="internal_transactions" target="_top">
<polygon fill="#ffffff" stroke="transparent" points="574.5,-744 574.5,-802 776.5,-802 776.5,-744 574.5,-744"/>
<polygon fill="#f5f5f5" stroke="transparent" points="574.5,-780 574.5,-802 776.5,-802 776.5,-780 574.5,-780"/>
<polygon fill="none" stroke="black" points="574.5,-780 574.5,-802 776.5,-802 776.5,-780 574.5,-780"/>
<text text-anchor="start" x="579.5" y="-789.2" font-family="Helvetica,sans-Serif" font-weight="bold" font-size="11.00">internal_transactions</text>
<text text-anchor="start" x="734.5" y="-788.2" font-family="Helvetica,sans-Serif" font-size="11.00">[table]</text>
<polygon fill="none" stroke="black" points="574.5,-762 574.5,-780 776.5,-780 776.5,-762 574.5,-762"/>
<text text-anchor="start" x="577.5" y="-768.2" font-family="Helvetica,sans-Serif" font-size="11.00">...</text>
<polygon fill="#ffffff" stroke="transparent" points="574.5,-744 574.5,-762 776.5,-762 776.5,-744 574.5,-744"/>
<polygon fill="none" stroke="black" points="574.5,-744 574.5,-762 776.5,-762 776.5,-744 574.5,-744"/>
<polygon fill="#ffffff" stroke="transparent" points="575.5,-745 575.5,-761 632.5,-761 632.5,-745 575.5,-745"/>
<text text-anchor="start" x="577.5" y="-750.2" font-family="Helvetica,sans-Serif" font-size="11.00">&lt; 2</text>
<polygon fill="#ffffff" stroke="transparent" points="632.5,-745 632.5,-761 730.5,-761 730.5,-745 632.5,-745"/>
<text text-anchor="start" x="651" y="-750.2" font-family="Helvetica,sans-Serif" font-size="11.00">4,167 rows</text>
<polygon fill="#ffffff" stroke="transparent" points="730.5,-745 730.5,-761 775.5,-761 775.5,-745 730.5,-745"/>
<text text-anchor="start" x="765.5" y="-750.2" font-family="Helvetica,sans-Serif" font-size="11.00"> &#160;</text>
<polygon fill="black" stroke="black" points="632.5,-745 632.5,-761 632.5,-761 632.5,-745 632.5,-745"/>
<polygon fill="black" stroke="black" points="730.5,-745 730.5,-761 730.5,-761 730.5,-745 730.5,-745"/>
</a>
</g>
</g>
<!-- internal_transactions&#45;&gt;transactions -->
<g id="edge3" class="edge">
<title>internal_transactions:w&#45;&gt;transactions:e</title>
<path fill="none" stroke="black" d="M558.76,-770.56C531.03,-768.67 516.29,-760.1 497,-734 462.25,-686.99 515.46,-474 457,-474"/>
<polygon fill="black" stroke="black" points="565.5,-770.76 573.39,-774.6 569.5,-770.88 573.5,-771 573.5,-771 573.5,-771 569.5,-770.88 573.61,-767.4 565.5,-770.76 565.5,-770.76"/>
<ellipse fill="none" stroke="black" cx="562.31" cy="-770.67" rx="3.2" ry="3.2"/>
</g>
<!-- internal_transactions&#45;&gt;blocks -->
<g id="edge2" class="edge">
<title>internal_transactions:w&#45;&gt;blocks:e</title>
<path fill="none" stroke="black" d="M558.81,-771.14C451.71,-772.98 331.83,-788.47 176,-540 150.92,-500.01 183.7,-117 136.5,-117"/>
<polygon fill="black" stroke="black" points="565.5,-771.08 573.53,-774.6 569.5,-771.04 573.5,-771 573.5,-771 573.5,-771 569.5,-771.04 573.47,-767.4 565.5,-771.08 565.5,-771.08"/>
<ellipse fill="none" stroke="black" cx="562.3" cy="-771.11" rx="3.2" ry="3.2"/>
</g>
<!-- logs -->
<g id="node5" class="node">
<title>logs</title>
<g id="a_node5"><a xlink:href="../../tables/logs.html" xlink:title="logs" target="_top">
<polygon fill="#ffffff" stroke="transparent" points="608.5,-201 608.5,-259 742.5,-259 742.5,-201 608.5,-201"/>
<polygon fill="#f5f5f5" stroke="transparent" points="608.5,-237 608.5,-259 742.5,-259 742.5,-237 608.5,-237"/>
<polygon fill="none" stroke="black" points="608.5,-237 608.5,-259 742.5,-259 742.5,-237 608.5,-237"/>
<text text-anchor="start" x="613.5" y="-246.2" font-family="Helvetica,sans-Serif" font-weight="bold" font-size="11.00">logs</text>
<text text-anchor="start" x="700.5" y="-245.2" font-family="Helvetica,sans-Serif" font-size="11.00">[table]</text>
<polygon fill="none" stroke="black" points="608.5,-219 608.5,-237 742.5,-237 742.5,-219 608.5,-219"/>
<text text-anchor="start" x="611.5" y="-225.2" font-family="Helvetica,sans-Serif" font-size="11.00">...</text>
<polygon fill="#ffffff" stroke="transparent" points="608.5,-201 608.5,-219 742.5,-219 742.5,-201 608.5,-201"/>
<polygon fill="none" stroke="black" points="608.5,-201 608.5,-219 742.5,-219 742.5,-201 608.5,-201"/>
<polygon fill="#ffffff" stroke="transparent" points="609.5,-202 609.5,-218 633.5,-218 633.5,-202 609.5,-202"/>
<text text-anchor="start" x="611.5" y="-207.2" font-family="Helvetica,sans-Serif" font-size="11.00">&lt; 2</text>
<polygon fill="#ffffff" stroke="transparent" points="633.5,-202 633.5,-218 729.5,-218 729.5,-202 633.5,-202"/>
<text text-anchor="start" x="635.5" y="-207.2" font-family="Helvetica,sans-Serif" font-size="11.00">11,846,796 rows</text>
<polygon fill="#ffffff" stroke="transparent" points="729.5,-202 729.5,-218 741.5,-218 741.5,-202 729.5,-202"/>
<text text-anchor="start" x="731.5" y="-207.2" font-family="Helvetica,sans-Serif" font-size="11.00"> &#160;</text>
<polygon fill="black" stroke="black" points="633.5,-202 633.5,-218 633.5,-218 633.5,-202 633.5,-202"/>
<polygon fill="black" stroke="black" points="729.5,-202 729.5,-218 729.5,-218 729.5,-202 729.5,-202"/>
</a>
</g>
</g>
<!-- logs&#45;&gt;transactions -->
<g id="edge5" class="edge">
<title>logs:w&#45;&gt;transactions:e</title>
<path fill="none" stroke="black" d="M592.84,-228.24C549.1,-229.82 527.41,-239.9 497,-278 441.54,-347.49 545.91,-474 457,-474"/>
<polygon fill="black" stroke="black" points="599.5,-228.13 607.56,-231.6 603.5,-228.07 607.5,-228 607.5,-228 607.5,-228 603.5,-228.07 607.44,-224.4 599.5,-228.13 599.5,-228.13"/>
<ellipse fill="none" stroke="black" cx="596.3" cy="-228.18" rx="3.2" ry="3.2"/>
</g>
<!-- logs&#45;&gt;blocks -->
<g id="edge4" class="edge">
<title>logs:w&#45;&gt;blocks:e</title>
<path fill="none" stroke="black" d="M593.09,-227.77C551.4,-226.31 533.25,-217.33 497,-187 474.84,-168.46 488.77,-145.87 464,-131 401.54,-93.52 209.34,-117 136.5,-117"/>
<polygon fill="black" stroke="black" points="599.5,-227.87 607.44,-231.6 603.5,-227.94 607.5,-228 607.5,-228 607.5,-228 603.5,-227.94 607.56,-224.4 599.5,-227.87 599.5,-227.87"/>
<ellipse fill="none" stroke="black" cx="596.3" cy="-227.82" rx="3.2" ry="3.2"/>
</g>
<!-- pending_transaction_operations -->
<g id="node6" class="node">
<title>pending_transaction_operations</title>
<g id="a_node6"><a xlink:href="../../tables/pending_transaction_operations.html" xlink:title="pending_transaction_operations" target="_top">
<polygon fill="#ffffff" stroke="transparent" points="534.5,-446 534.5,-504 816.5,-504 816.5,-446 534.5,-446"/>
<polygon fill="#f5f5f5" stroke="transparent" points="534.5,-482 534.5,-504 816.5,-504 816.5,-482 534.5,-482"/>
<polygon fill="none" stroke="black" points="534.5,-482 534.5,-504 816.5,-504 816.5,-482 534.5,-482"/>
<text text-anchor="start" x="539.5" y="-491.2" font-family="Helvetica,sans-Serif" font-weight="bold" font-size="11.00">pending_transaction_operations</text>
<text text-anchor="start" x="774.5" y="-490.2" font-family="Helvetica,sans-Serif" font-size="11.00">[table]</text>
<polygon fill="none" stroke="black" points="534.5,-464 534.5,-482 816.5,-482 816.5,-464 534.5,-464"/>
<text text-anchor="start" x="537.5" y="-470.2" font-family="Helvetica,sans-Serif" font-size="11.00">...</text>
<polygon fill="#ffffff" stroke="transparent" points="534.5,-446 534.5,-464 816.5,-464 816.5,-446 534.5,-446"/>
<polygon fill="none" stroke="black" points="534.5,-446 534.5,-464 816.5,-464 816.5,-446 534.5,-446"/>
<polygon fill="#ffffff" stroke="transparent" points="535.5,-447 535.5,-463 627.5,-463 627.5,-447 535.5,-447"/>
<text text-anchor="start" x="537.5" y="-452.2" font-family="Helvetica,sans-Serif" font-size="11.00">&lt; 1</text>
<polygon fill="#ffffff" stroke="transparent" points="627.5,-447 627.5,-463 736.5,-463 736.5,-447 627.5,-447"/>
<text text-anchor="start" x="663.5" y="-452.2" font-family="Helvetica,sans-Serif" font-size="11.00">0 rows</text>
<polygon fill="#ffffff" stroke="transparent" points="736.5,-447 736.5,-463 815.5,-463 815.5,-447 736.5,-447"/>
<text text-anchor="start" x="805.5" y="-452.2" font-family="Helvetica,sans-Serif" font-size="11.00"> &#160;</text>
<polygon fill="black" stroke="black" points="627.5,-447 627.5,-463 627.5,-463 627.5,-447 627.5,-447"/>
<polygon fill="black" stroke="black" points="736.5,-447 736.5,-463 736.5,-463 736.5,-447 736.5,-447"/>
</a>
</g>
</g>
<!-- pending_transaction_operations&#45;&gt;transactions -->
<g id="edge6" class="edge">
<title>pending_transaction_operations:w&#45;&gt;transactions:e</title>
<path fill="none" stroke="black" d="M522.85,-473.04C497.25,-473.21 487.15,-474 457,-474"/>
<polygon fill="black" stroke="black" points="532.69,-469 532.71,-477 531.11,-477.01 531.09,-469.01 532.69,-469"/>
<polyline fill="none" stroke="black" points="533.5,-473 529.5,-473.01 "/>
<ellipse fill="none" stroke="black" cx="526.3" cy="-473.02" rx="3.2" ry="3.2"/>
</g>
<!-- signed_authorizations -->
<g id="node7" class="node">
<title>signed_authorizations</title>
<g id="a_node7"><a xlink:href="../../tables/signed_authorizations.html" xlink:title="signed_authorizations" target="_top">
<polygon fill="#ffffff" stroke="transparent" points="571.5,-367 571.5,-425 779.5,-425 779.5,-367 571.5,-367"/>
<polygon fill="#f5f5f5" stroke="transparent" points="571.5,-403 571.5,-425 779.5,-425 779.5,-403 571.5,-403"/>
<polygon fill="none" stroke="black" points="571.5,-403 571.5,-425 779.5,-425 779.5,-403 571.5,-403"/>
<text text-anchor="start" x="576.5" y="-412.2" font-family="Helvetica,sans-Serif" font-weight="bold" font-size="11.00">signed_authorizations</text>
<text text-anchor="start" x="737.5" y="-411.2" font-family="Helvetica,sans-Serif" font-size="11.00">[table]</text>
<polygon fill="none" stroke="black" points="571.5,-385 571.5,-403 779.5,-403 779.5,-385 571.5,-385"/>
<text text-anchor="start" x="574.5" y="-391.2" font-family="Helvetica,sans-Serif" font-size="11.00">...</text>
<polygon fill="#ffffff" stroke="transparent" points="571.5,-367 571.5,-385 779.5,-385 779.5,-367 571.5,-367"/>
<polygon fill="none" stroke="black" points="571.5,-367 571.5,-385 779.5,-385 779.5,-367 571.5,-367"/>
<polygon fill="#ffffff" stroke="transparent" points="572.5,-368 572.5,-384 627.5,-384 627.5,-368 572.5,-368"/>
<text text-anchor="start" x="574.5" y="-373.2" font-family="Helvetica,sans-Serif" font-size="11.00">&lt; 1</text>
<polygon fill="#ffffff" stroke="transparent" points="627.5,-368 627.5,-384 736.5,-384 736.5,-368 627.5,-368"/>
<text text-anchor="start" x="644.5" y="-373.2" font-family="Helvetica,sans-Serif" font-size="11.00">572,461 rows</text>
<polygon fill="#ffffff" stroke="transparent" points="736.5,-368 736.5,-384 778.5,-384 778.5,-368 736.5,-368"/>
<text text-anchor="start" x="768.5" y="-373.2" font-family="Helvetica,sans-Serif" font-size="11.00"> &#160;</text>
<polygon fill="black" stroke="black" points="627.5,-368 627.5,-384 627.5,-384 627.5,-368 627.5,-368"/>
<polygon fill="black" stroke="black" points="736.5,-368 736.5,-384 736.5,-384 736.5,-368 736.5,-368"/>
</a>
</g>
</g>
<!-- signed_authorizations&#45;&gt;transactions -->
<g id="edge7" class="edge">
<title>signed_authorizations:w&#45;&gt;transactions:e</title>
<path fill="none" stroke="black" d="M556.02,-395.17C530.72,-399.71 522.83,-416.79 497,-436 477.32,-450.63 481.52,-474 457,-474"/>
<polygon fill="black" stroke="black" points="562.53,-394.65 570.79,-397.59 566.51,-394.32 570.5,-394 570.5,-394 570.5,-394 566.51,-394.32 570.21,-390.41 562.53,-394.65 562.53,-394.65"/>
<ellipse fill="none" stroke="black" cx="559.34" cy="-394.91" rx="3.2" ry="3.2"/>
</g>
<!-- token_transfers -->
<g id="node8" class="node">
<title>token_transfers</title>
<g id="a_node8"><a xlink:href="../../tables/token_transfers.html" xlink:title="token_transfers" target="_top">
<polygon fill="#ffffff" stroke="transparent" points="594.5,-118 594.5,-176 756.5,-176 756.5,-118 594.5,-118"/>
<polygon fill="#f5f5f5" stroke="transparent" points="594.5,-154 594.5,-176 756.5,-176 756.5,-154 594.5,-154"/>
<polygon fill="none" stroke="black" points="594.5,-154 594.5,-176 756.5,-176 756.5,-154 594.5,-154"/>
<text text-anchor="start" x="599.5" y="-163.2" font-family="Helvetica,sans-Serif" font-weight="bold" font-size="11.00">token_transfers</text>
<text text-anchor="start" x="714.5" y="-162.2" font-family="Helvetica,sans-Serif" font-size="11.00">[table]</text>
<polygon fill="none" stroke="black" points="594.5,-136 594.5,-154 756.5,-154 756.5,-136 594.5,-136"/>
<text text-anchor="start" x="597.5" y="-142.2" font-family="Helvetica,sans-Serif" font-size="11.00">...</text>
<polygon fill="#ffffff" stroke="transparent" points="594.5,-118 594.5,-136 756.5,-136 756.5,-118 594.5,-118"/>
<polygon fill="none" stroke="black" points="594.5,-118 594.5,-136 756.5,-136 756.5,-118 594.5,-118"/>
<polygon fill="#ffffff" stroke="transparent" points="595.5,-119 595.5,-135 631.5,-135 631.5,-119 595.5,-119"/>
<text text-anchor="start" x="597.5" y="-124.2" font-family="Helvetica,sans-Serif" font-size="11.00">&lt; 2</text>
<polygon fill="#ffffff" stroke="transparent" points="631.5,-119 631.5,-135 732.5,-135 732.5,-119 631.5,-119"/>
<text text-anchor="start" x="639.5" y="-124.2" font-family="Helvetica,sans-Serif" font-size="11.00">5,167,632 rows</text>
<polygon fill="#ffffff" stroke="transparent" points="732.5,-119 732.5,-135 755.5,-135 755.5,-119 732.5,-119"/>
<text text-anchor="start" x="745.5" y="-124.2" font-family="Helvetica,sans-Serif" font-size="11.00"> &#160;</text>
<polygon fill="black" stroke="black" points="631.5,-119 631.5,-135 631.5,-135 631.5,-119 631.5,-119"/>
<polygon fill="black" stroke="black" points="732.5,-119 732.5,-135 732.5,-135 732.5,-119 732.5,-119"/>
</a>
</g>
</g>
<!-- token_transfers&#45;&gt;transactions -->
<g id="edge9" class="edge">
<title>token_transfers:w&#45;&gt;transactions:e</title>
<path fill="none" stroke="black" d="M578.82,-145.31C541.33,-147.05 522.04,-156.89 497,-191 459.42,-242.2 520.51,-474 457,-474"/>
<polygon fill="black" stroke="black" points="585.5,-145.17 593.58,-148.6 589.5,-145.08 593.5,-145 593.5,-145 593.5,-145 589.5,-145.08 593.42,-141.4 585.5,-145.17 585.5,-145.17"/>
<ellipse fill="none" stroke="black" cx="582.3" cy="-145.23" rx="3.2" ry="3.2"/>
</g>
<!-- token_transfers&#45;&gt;blocks -->
<g id="edge8" class="edge">
<title>token_transfers:w&#45;&gt;blocks:e</title>
<path fill="none" stroke="black" d="M579.08,-144.38C531.41,-140.09 518.27,-114.8 464,-107 337.3,-88.79 303.02,-91.17 176,-107 158.03,-109.24 154.61,-117 136.5,-117"/>
<polygon fill="black" stroke="black" points="585.51,-144.66 593.35,-148.6 589.5,-144.83 593.5,-145 593.5,-145 593.5,-145 589.5,-144.83 593.65,-141.4 585.51,-144.66 585.51,-144.66"/>
<ellipse fill="none" stroke="black" cx="582.31" cy="-144.52" rx="3.2" ry="3.2"/>
</g>
<!-- transaction_actions -->
<g id="node9" class="node">
<title>transaction_actions</title>
<g id="a_node9"><a xlink:href="../../tables/transaction_actions.html" xlink:title="transaction_actions" target="_top">
<polygon fill="#ffffff" stroke="transparent" points="580.5,-288 580.5,-346 770.5,-346 770.5,-288 580.5,-288"/>
<polygon fill="#f5f5f5" stroke="transparent" points="580.5,-324 580.5,-346 770.5,-346 770.5,-324 580.5,-324"/>
<polygon fill="none" stroke="black" points="580.5,-324 580.5,-346 770.5,-346 770.5,-324 580.5,-324"/>
<text text-anchor="start" x="585.5" y="-333.2" font-family="Helvetica,sans-Serif" font-weight="bold" font-size="11.00">transaction_actions</text>
<text text-anchor="start" x="728.5" y="-332.2" font-family="Helvetica,sans-Serif" font-size="11.00">[table]</text>
<polygon fill="none" stroke="black" points="580.5,-306 580.5,-324 770.5,-324 770.5,-306 580.5,-306"/>
<text text-anchor="start" x="583.5" y="-312.2" font-family="Helvetica,sans-Serif" font-size="11.00">...</text>
<polygon fill="#ffffff" stroke="transparent" points="580.5,-288 580.5,-306 770.5,-306 770.5,-288 580.5,-288"/>
<polygon fill="none" stroke="black" points="580.5,-288 580.5,-306 770.5,-306 770.5,-288 580.5,-288"/>
<polygon fill="#ffffff" stroke="transparent" points="581.5,-289 581.5,-305 652.5,-305 652.5,-289 581.5,-289"/>
<text text-anchor="start" x="583.5" y="-294.2" font-family="Helvetica,sans-Serif" font-size="11.00">&lt; 1</text>
<polygon fill="#ffffff" stroke="transparent" points="652.5,-289 652.5,-305 711.5,-305 711.5,-289 652.5,-289"/>
<text text-anchor="start" x="678" y="-294.2" font-family="Helvetica,sans-Serif" font-size="11.00"> &#160;</text>
<polygon fill="#ffffff" stroke="transparent" points="711.5,-289 711.5,-305 769.5,-305 769.5,-289 711.5,-289"/>
<text text-anchor="start" x="759.5" y="-294.2" font-family="Helvetica,sans-Serif" font-size="11.00"> &#160;</text>
<polygon fill="black" stroke="black" points="652.5,-289 652.5,-305 652.5,-305 652.5,-289 652.5,-289"/>
<polygon fill="black" stroke="black" points="711.5,-289 711.5,-305 711.5,-305 711.5,-289 711.5,-289"/>
</a>
</g>
</g>
<!-- transaction_actions&#45;&gt;transactions -->
<g id="edge10" class="edge">
<title>transaction_actions:w&#45;&gt;transactions:e</title>
<path fill="none" stroke="black" d="M564.84,-315.56C534.44,-318.15 520.49,-329.93 497,-357 460.98,-398.51 511.95,-474 457,-474"/>
<polygon fill="black" stroke="black" points="571.51,-315.31 579.64,-318.6 575.5,-315.15 579.5,-315 579.5,-315 579.5,-315 575.5,-315.15 579.36,-311.4 571.51,-315.31 571.51,-315.31"/>
<ellipse fill="none" stroke="black" cx="568.31" cy="-315.43" rx="3.2" ry="3.2"/>
</g>
<!-- transaction_forks -->
<g id="node10" class="node">
<title>transaction_forks</title>
<g id="a_node10"><a xlink:href="../../tables/transaction_forks.html" xlink:title="transaction_forks" target="_top">
<polygon fill="#ffffff" stroke="transparent" points="588.5,-37 588.5,-95 762.5,-95 762.5,-37 588.5,-37"/>
<polygon fill="#f5f5f5" stroke="transparent" points="588.5,-73 588.5,-95 762.5,-95 762.5,-73 588.5,-73"/>
<polygon fill="none" stroke="black" points="588.5,-73 588.5,-95 762.5,-95 762.5,-73 588.5,-73"/>
<text text-anchor="start" x="593.5" y="-82.2" font-family="Helvetica,sans-Serif" font-weight="bold" font-size="11.00">transaction_forks</text>
<text text-anchor="start" x="720.5" y="-81.2" font-family="Helvetica,sans-Serif" font-size="11.00">[table]</text>
<polygon fill="none" stroke="black" points="588.5,-55 588.5,-73 762.5,-73 762.5,-55 588.5,-55"/>
<text text-anchor="start" x="591.5" y="-61.2" font-family="Helvetica,sans-Serif" font-size="11.00">...</text>
<polygon fill="#ffffff" stroke="transparent" points="588.5,-37 588.5,-55 762.5,-55 762.5,-37 588.5,-37"/>
<polygon fill="none" stroke="black" points="588.5,-37 588.5,-55 762.5,-55 762.5,-37 588.5,-37"/>
<polygon fill="#ffffff" stroke="transparent" points="589.5,-38 589.5,-54 655.5,-54 655.5,-38 589.5,-38"/>
<text text-anchor="start" x="591.5" y="-43.2" font-family="Helvetica,sans-Serif" font-size="11.00">&lt; 2</text>
<polygon fill="#ffffff" stroke="transparent" points="655.5,-38 655.5,-54 708.5,-54 708.5,-38 655.5,-38"/>
<text text-anchor="start" x="678" y="-43.2" font-family="Helvetica,sans-Serif" font-size="11.00"> &#160;</text>
<polygon fill="#ffffff" stroke="transparent" points="708.5,-38 708.5,-54 761.5,-54 761.5,-38 708.5,-38"/>
<text text-anchor="start" x="751.5" y="-43.2" font-family="Helvetica,sans-Serif" font-size="11.00"> &#160;</text>
<polygon fill="black" stroke="black" points="655.5,-38 655.5,-54 655.5,-54 655.5,-38 655.5,-38"/>
<polygon fill="black" stroke="black" points="708.5,-38 708.5,-54 708.5,-54 708.5,-38 708.5,-38"/>
</a>
</g>
</g>
<!-- transaction_forks&#45;&gt;transactions -->
<g id="edge11" class="edge">
<title>transaction_forks:w&#45;&gt;transactions:e</title>
<path fill="none" stroke="black" d="M572.75,-64.34C538,-66.14 519.73,-75.72 497,-108 449.89,-174.89 538.82,-474 457,-474"/>
<polygon fill="black" stroke="black" points="579.5,-64.18 587.58,-67.6 583.5,-64.09 587.5,-64 587.5,-64 587.5,-64 583.5,-64.09 587.42,-60.4 579.5,-64.18 579.5,-64.18"/>
<ellipse fill="none" stroke="black" cx="576.3" cy="-64.26" rx="3.2" ry="3.2"/>
</g>
<!-- transaction_forks&#45;&gt;blocks -->
<g id="edge12" class="edge">
<title>transaction_forks:w&#45;&gt;blocks:e</title>
<path fill="none" stroke="black" d="M573.01,-63.93C401.21,-62.38 345.09,-34.25 176,-91 156.08,-97.69 157.52,-117 136.5,-117"/>
<polygon fill="black" stroke="black" points="579.5,-63.96 587.48,-67.6 583.5,-63.98 587.5,-64 587.5,-64 587.5,-64 583.5,-63.98 587.52,-60.4 579.5,-63.96 579.5,-63.96"/>
<ellipse fill="none" stroke="black" cx="576.3" cy="-63.95" rx="3.2" ry="3.2"/>
</g>
</g>
</svg>
