<?xml version="1.0" encoding="UTF-8" standalone="no"?>
<!DOCTYPE svg PUBLIC "-//W3C//DTD SVG 1.1//EN"
 "http://www.w3.org/Graphics/SVG/1.1/DTD/svg11.dtd">
<!-- Generated by graphviz version 2.43.0 (0)
 -->
<!-- Title: oneDegreeRelationshipsDiagram Pages: 1 -->
<svg width="288pt" height="203pt"
 viewBox="0.00 0.00 288.00 203.00" xmlns="http://www.w3.org/2000/svg" xmlns:xlink="http://www.w3.org/1999/xlink">
<g id="graph0" class="graph" transform="scale(1 1) rotate(0) translate(4 199)">
<title>oneDegreeRelationshipsDiagram</title>
<polygon fill="#ffffff" stroke="transparent" points="-4,4 -4,-199 284,-199 284,4 -4,4"/>
<text text-anchor="middle" x="79.5" y="-7.2" font-family="Helvetica,sans-Serif" font-size="11.00">Generated by SchemaSpy</text>
<!-- beacon_blobs -->
<g id="node1" class="node">
<title>beacon_blobs</title>
<g id="a_node1"><a xlink:href="../../tables/beacon_blobs.html" xlink:title="beacon_blobs" target="_top">
<polygon fill="#ffffff" stroke="transparent" points="8,-37 8,-191 272,-191 272,-37 8,-37"/>
<polygon fill="#f5f5f5" stroke="transparent" points="10,-167 10,-189 270,-189 270,-167 10,-167"/>
<polygon fill="none" stroke="black" points="10,-167 10,-189 270,-189 270,-167 10,-167"/>
<text text-anchor="start" x="15" y="-176.2" font-family="Helvetica,sans-Serif" font-weight="bold" font-size="11.00">beacon_blobs</text>
<text text-anchor="start" x="228" y="-175.2" font-family="Helvetica,sans-Serif" font-size="11.00">[table]</text>
<polygon fill="none" stroke="black" points="10,-145 10,-167 155,-167 155,-145 10,-145"/>
<image xlink:href="../../images/primaryKeys.png" width="11px" height="12px" preserveAspectRatio="xMinYMin meet" x="15" y="-162"/>
<text text-anchor="start" x="30" y="-153.2" font-family="Helvetica,sans-Serif" font-size="11.00">hash</text>
<polygon fill="none" stroke="black" points="155,-145 155,-167 270,-167 270,-145 155,-145"/>
<text text-anchor="start" x="158" y="-153.2" font-family="Helvetica,sans-Serif" font-size="11.00">bytea[2147483647]</text>
<polygon fill="none" stroke="black" points="10,-123 10,-145 155,-145 155,-123 10,-123"/>
<text text-anchor="start" x="30" y="-131.2" font-family="Helvetica,sans-Serif" font-size="11.00">blob_data</text>
<polygon fill="none" stroke="black" points="155,-123 155,-145 270,-145 270,-123 155,-123"/>
<text text-anchor="start" x="158" y="-131.2" font-family="Helvetica,sans-Serif" font-size="11.00">bytea[2147483647]</text>
<polygon fill="none" stroke="black" points="10,-101 10,-123 155,-123 155,-101 10,-101"/>
<text text-anchor="start" x="30" y="-109.2" font-family="Helvetica,sans-Serif" font-size="11.00">kzg_commitment</text>
<polygon fill="none" stroke="black" points="155,-101 155,-123 270,-123 270,-101 155,-101"/>
<text text-anchor="start" x="158" y="-109.2" font-family="Helvetica,sans-Serif" font-size="11.00">bytea[2147483647]</text>
<polygon fill="none" stroke="black" points="10,-79 10,-101 155,-101 155,-79 10,-79"/>
<text text-anchor="start" x="30" y="-87.2" font-family="Helvetica,sans-Serif" font-size="11.00">kzg_proof</text>
<polygon fill="none" stroke="black" points="155,-79 155,-101 270,-101 270,-79 155,-79"/>
<text text-anchor="start" x="158" y="-87.2" font-family="Helvetica,sans-Serif" font-size="11.00">bytea[2147483647]</text>
<polygon fill="none" stroke="black" points="10,-57 10,-79 155,-79 155,-57 10,-57"/>
<text text-anchor="start" x="30" y="-65.2" font-family="Helvetica,sans-Serif" font-size="11.00">inserted_at</text>
<polygon fill="none" stroke="black" points="155,-57 155,-79 270,-79 270,-57 155,-57"/>
<text text-anchor="start" x="158" y="-65.2" font-family="Helvetica,sans-Serif" font-size="11.00">timestamp[29,6]</text>
<polygon fill="#ffffff" stroke="transparent" points="10,-39 10,-57 270,-57 270,-39 10,-39"/>
<polygon fill="none" stroke="black" points="10,-39 10,-57 270,-57 270,-39 10,-39"/>
<polygon fill="#ffffff" stroke="transparent" points="11,-40 11,-56 101,-56 101,-40 11,-40"/>
<text text-anchor="start" x="13" y="-45.2" font-family="Helvetica,sans-Serif" font-size="11.00">&lt; 0</text>
<polygon fill="#ffffff" stroke="transparent" points="101,-40 101,-56 179,-56 179,-40 101,-40"/>
<text text-anchor="start" x="136" y="-45.2" font-family="Helvetica,sans-Serif" font-size="11.00"> &#160;</text>
<polygon fill="#ffffff" stroke="transparent" points="179,-40 179,-56 269,-56 269,-40 179,-40"/>
<text text-anchor="start" x="247" y="-45.2" font-family="Helvetica,sans-Serif" font-size="11.00">0 &gt;</text>
<polygon fill="black" stroke="black" points="101,-40 101,-56 101,-56 101,-40 101,-40"/>
<polygon fill="black" stroke="black" points="179,-40 179,-56 179,-56 179,-40 179,-40"/>
<polygon fill="none" stroke="black" stroke-width="2" points="9,-38 9,-190 271,-190 271,-38 9,-38"/>
</a>
</g>
</g>
</g>
</svg>
