<?xml version="1.0" encoding="UTF-8" standalone="no"?>
<!DOCTYPE svg PUBLIC "-//W3C//DTD SVG 1.1//EN"
 "http://www.w3.org/Graphics/SVG/1.1/DTD/svg11.dtd">
<!-- Generated by graphviz version 2.43.0 (0)
 -->
<!-- Title: twoDegreesRelationshipsDiagram Pages: 1 -->
<svg width="944pt" height="773pt"
 viewBox="0.00 0.00 944.00 773.00" xmlns="http://www.w3.org/2000/svg" xmlns:xlink="http://www.w3.org/1999/xlink">
<g id="graph0" class="graph" transform="scale(1 1) rotate(0) translate(4 769)">
<title>twoDegreesRelationshipsDiagram</title>
<polygon fill="#ffffff" stroke="transparent" points="-4,4 -4,-769 940,-769 940,4 -4,4"/>
<text text-anchor="middle" x="79.5" y="-7.2" font-family="Helvetica,sans-Serif" font-size="11.00">Generated by SchemaSpy</text>
<!-- block_rewards -->
<g id="node1" class="node">
<title>block_rewards</title>
<g id="a_node1"><a xlink:href="../../tables/block_rewards.html" xlink:title="block_rewards" target="_top">
<polygon fill="#ffffff" stroke="transparent" points="384.5,-637 384.5,-761 536.5,-761 536.5,-637 384.5,-637"/>
<polygon fill="#f5f5f5" stroke="transparent" points="384.5,-739 384.5,-761 536.5,-761 536.5,-739 384.5,-739"/>
<polygon fill="none" stroke="black" points="384.5,-739 384.5,-761 536.5,-761 536.5,-739 384.5,-739"/>
<text text-anchor="start" x="389.5" y="-748.2" font-family="Helvetica,sans-Serif" font-weight="bold" font-size="11.00">block_rewards</text>
<text text-anchor="start" x="494.5" y="-747.2" font-family="Helvetica,sans-Serif" font-size="11.00">[table]</text>
<polygon fill="none" stroke="black" points="384.5,-717 384.5,-739 536.5,-739 536.5,-717 384.5,-717"/>
<image xlink:href="../../images/primaryKeys.png" width="11px" height="12px" preserveAspectRatio="xMinYMin meet" x="389.5" y="-734"/>
<text text-anchor="start" x="417.5" y="-725.2" font-family="Helvetica,sans-Serif" font-size="11.00">address_hash</text>
<polygon fill="none" stroke="black" points="384.5,-695 384.5,-717 536.5,-717 536.5,-695 384.5,-695"/>
<image xlink:href="../../images/primaryKeys.png" width="11px" height="12px" preserveAspectRatio="xMinYMin meet" x="389.5" y="-712"/>
<text text-anchor="start" x="417.5" y="-703.2" font-family="Helvetica,sans-Serif" font-size="11.00">address_type</text>
<polygon fill="none" stroke="black" points="384.5,-673 384.5,-695 536.5,-695 536.5,-673 384.5,-673"/>
<image xlink:href="../../images/primaryKeys.png" width="11px" height="12px" preserveAspectRatio="xMinYMin meet" x="389.5" y="-690"/>
<text text-anchor="start" x="417.5" y="-681.2" font-family="Helvetica,sans-Serif" font-size="11.00">block_hash</text>
<polygon fill="none" stroke="black" points="384.5,-655 384.5,-673 536.5,-673 536.5,-655 384.5,-655"/>
<text text-anchor="start" x="387.5" y="-661.2" font-family="Helvetica,sans-Serif" font-size="11.00">...</text>
<polygon fill="#ffffff" stroke="transparent" points="384.5,-637 384.5,-655 536.5,-655 536.5,-637 384.5,-637"/>
<polygon fill="none" stroke="black" points="384.5,-637 384.5,-655 536.5,-655 536.5,-637 384.5,-637"/>
<polygon fill="#ffffff" stroke="transparent" points="385.5,-638 385.5,-654 443.5,-654 443.5,-638 385.5,-638"/>
<text text-anchor="start" x="387.5" y="-643.2" font-family="Helvetica,sans-Serif" font-size="11.00">&lt; 1</text>
<polygon fill="#ffffff" stroke="transparent" points="443.5,-638 443.5,-654 489.5,-654 489.5,-638 443.5,-638"/>
<text text-anchor="start" x="462.5" y="-643.2" font-family="Helvetica,sans-Serif" font-size="11.00"> &#160;</text>
<polygon fill="#ffffff" stroke="transparent" points="489.5,-638 489.5,-654 535.5,-654 535.5,-638 489.5,-638"/>
<text text-anchor="start" x="525.5" y="-643.2" font-family="Helvetica,sans-Serif" font-size="11.00"> &#160;</text>
<polygon fill="black" stroke="black" points="443.5,-638 443.5,-654 443.5,-654 443.5,-638 443.5,-638"/>
<polygon fill="black" stroke="black" points="489.5,-638 489.5,-654 489.5,-654 489.5,-638 489.5,-638"/>
</a>
</g>
</g>
<!-- blocks -->
<g id="node2" class="node">
<title>blocks</title>
<g id="a_node2"><a xlink:href="../../tables/blocks.html" xlink:title="blocks" target="_top">
<polygon fill="#ffffff" stroke="transparent" points="8,-93 8,-511 275,-511 275,-93 8,-93"/>
<polygon fill="#f5f5f5" stroke="transparent" points="10.5,-487 10.5,-509 273.5,-509 273.5,-487 10.5,-487"/>
<polygon fill="none" stroke="black" points="10.5,-487 10.5,-509 273.5,-509 273.5,-487 10.5,-487"/>
<text text-anchor="start" x="15.5" y="-496.2" font-family="Helvetica,sans-Serif" font-weight="bold" font-size="11.00">blocks</text>
<text text-anchor="start" x="231.5" y="-495.2" font-family="Helvetica,sans-Serif" font-size="11.00">[table]</text>
<polygon fill="#ffffff" stroke="transparent" points="10.5,-465 10.5,-487 158.5,-487 158.5,-465 10.5,-465"/>
<polygon fill="none" stroke="black" points="10.5,-465 10.5,-487 158.5,-487 158.5,-465 10.5,-465"/>
<text text-anchor="start" x="30.5" y="-473.2" font-family="Helvetica,sans-Serif" font-size="11.00">consensus</text>
<polygon fill="none" stroke="black" points="158.5,-465 158.5,-487 273.5,-487 273.5,-465 158.5,-465"/>
<text text-anchor="start" x="161.5" y="-473.2" font-family="Helvetica,sans-Serif" font-size="11.00">bool[1]</text>
<polygon fill="none" stroke="black" points="10.5,-443 10.5,-465 158.5,-465 158.5,-443 10.5,-443"/>
<text text-anchor="start" x="30.5" y="-451.2" font-family="Helvetica,sans-Serif" font-size="11.00">difficulty</text>
<polygon fill="none" stroke="black" points="158.5,-443 158.5,-465 273.5,-465 273.5,-443 158.5,-443"/>
<text text-anchor="start" x="161.5" y="-451.2" font-family="Helvetica,sans-Serif" font-size="11.00">numeric[50]</text>
<polygon fill="none" stroke="black" points="10.5,-421 10.5,-443 158.5,-443 158.5,-421 10.5,-421"/>
<text text-anchor="start" x="30.5" y="-429.2" font-family="Helvetica,sans-Serif" font-size="11.00">gas_limit</text>
<polygon fill="none" stroke="black" points="158.5,-421 158.5,-443 273.5,-443 273.5,-421 158.5,-421"/>
<text text-anchor="start" x="161.5" y="-429.2" font-family="Helvetica,sans-Serif" font-size="11.00">numeric[100]</text>
<polygon fill="none" stroke="black" points="10.5,-399 10.5,-421 158.5,-421 158.5,-399 10.5,-399"/>
<text text-anchor="start" x="30.5" y="-407.2" font-family="Helvetica,sans-Serif" font-size="11.00">gas_used</text>
<polygon fill="none" stroke="black" points="158.5,-399 158.5,-421 273.5,-421 273.5,-399 158.5,-399"/>
<text text-anchor="start" x="161.5" y="-407.2" font-family="Helvetica,sans-Serif" font-size="11.00">numeric[100]</text>
<polygon fill="none" stroke="black" points="10.5,-377 10.5,-399 158.5,-399 158.5,-377 10.5,-377"/>
<image xlink:href="../../images/primaryKeys.png" width="11px" height="12px" preserveAspectRatio="xMinYMin meet" x="15.5" y="-394"/>
<text text-anchor="start" x="30.5" y="-385.2" font-family="Helvetica,sans-Serif" font-size="11.00">hash</text>
<polygon fill="none" stroke="black" points="158.5,-377 158.5,-399 273.5,-399 273.5,-377 158.5,-377"/>
<text text-anchor="start" x="161.5" y="-385.2" font-family="Helvetica,sans-Serif" font-size="11.00">bytea[2147483647]</text>
<polygon fill="#ffffff" stroke="transparent" points="10.5,-355 10.5,-377 158.5,-377 158.5,-355 10.5,-355"/>
<polygon fill="none" stroke="black" points="10.5,-355 10.5,-377 158.5,-377 158.5,-355 10.5,-355"/>
<text text-anchor="start" x="30.5" y="-363.2" font-family="Helvetica,sans-Serif" font-size="11.00">miner_hash</text>
<polygon fill="none" stroke="black" points="158.5,-355 158.5,-377 273.5,-377 273.5,-355 158.5,-355"/>
<text text-anchor="start" x="161.5" y="-363.2" font-family="Helvetica,sans-Serif" font-size="11.00">bytea[2147483647]</text>
<polygon fill="none" stroke="black" points="10.5,-333 10.5,-355 158.5,-355 158.5,-333 10.5,-333"/>
<text text-anchor="start" x="30.5" y="-341.2" font-family="Helvetica,sans-Serif" font-size="11.00">nonce</text>
<polygon fill="none" stroke="black" points="158.5,-333 158.5,-355 273.5,-355 273.5,-333 158.5,-333"/>
<text text-anchor="start" x="161.5" y="-341.2" font-family="Helvetica,sans-Serif" font-size="11.00">bytea[2147483647]</text>
<polygon fill="#ffffff" stroke="transparent" points="10.5,-311 10.5,-333 158.5,-333 158.5,-311 10.5,-311"/>
<polygon fill="none" stroke="black" points="10.5,-311 10.5,-333 158.5,-333 158.5,-311 10.5,-311"/>
<image xlink:href="../../images/foreignKeys.png" width="11px" height="12px" preserveAspectRatio="xMinYMin meet" x="15.5" y="-328"/>
<text text-anchor="start" x="30.5" y="-319.2" font-family="Helvetica,sans-Serif" font-size="11.00">number</text>
<polygon fill="none" stroke="black" points="158.5,-311 158.5,-333 273.5,-333 273.5,-311 158.5,-311"/>
<text text-anchor="start" x="161.5" y="-319.2" font-family="Helvetica,sans-Serif" font-size="11.00">int8[19]</text>
<polygon fill="#ffffff" stroke="transparent" points="10.5,-289 10.5,-311 158.5,-311 158.5,-289 10.5,-289"/>
<polygon fill="none" stroke="black" points="10.5,-289 10.5,-311 158.5,-311 158.5,-289 10.5,-289"/>
<text text-anchor="start" x="30.5" y="-297.2" font-family="Helvetica,sans-Serif" font-size="11.00">parent_hash</text>
<polygon fill="none" stroke="black" points="158.5,-289 158.5,-311 273.5,-311 273.5,-289 158.5,-289"/>
<text text-anchor="start" x="161.5" y="-297.2" font-family="Helvetica,sans-Serif" font-size="11.00">bytea[2147483647]</text>
<polygon fill="none" stroke="black" points="10.5,-267 10.5,-289 158.5,-289 158.5,-267 10.5,-267"/>
<text text-anchor="start" x="30.5" y="-275.2" font-family="Helvetica,sans-Serif" font-size="11.00">size</text>
<polygon fill="none" stroke="black" points="158.5,-267 158.5,-289 273.5,-289 273.5,-267 158.5,-267"/>
<text text-anchor="start" x="161.5" y="-275.2" font-family="Helvetica,sans-Serif" font-size="11.00">int4[10]</text>
<polygon fill="#ffffff" stroke="transparent" points="10.5,-245 10.5,-267 158.5,-267 158.5,-245 10.5,-245"/>
<polygon fill="none" stroke="black" points="10.5,-245 10.5,-267 158.5,-267 158.5,-245 10.5,-245"/>
<text text-anchor="start" x="30.5" y="-253.2" font-family="Helvetica,sans-Serif" font-size="11.00">timestamp</text>
<polygon fill="none" stroke="black" points="158.5,-245 158.5,-267 273.5,-267 273.5,-245 158.5,-245"/>
<text text-anchor="start" x="161.5" y="-253.2" font-family="Helvetica,sans-Serif" font-size="11.00">timestamp[29,6]</text>
<polygon fill="none" stroke="black" points="10.5,-223 10.5,-245 158.5,-245 158.5,-223 10.5,-223"/>
<text text-anchor="start" x="30.5" y="-231.2" font-family="Helvetica,sans-Serif" font-size="11.00">total_difficulty</text>
<polygon fill="none" stroke="black" points="158.5,-223 158.5,-245 273.5,-245 273.5,-223 158.5,-223"/>
<text text-anchor="start" x="161.5" y="-231.2" font-family="Helvetica,sans-Serif" font-size="11.00">numeric[50]</text>
<polygon fill="#ffffff" stroke="transparent" points="10.5,-201 10.5,-223 158.5,-223 158.5,-201 10.5,-201"/>
<polygon fill="none" stroke="black" points="10.5,-201 10.5,-223 158.5,-223 158.5,-201 10.5,-201"/>
<text text-anchor="start" x="30.5" y="-209.2" font-family="Helvetica,sans-Serif" font-size="11.00">inserted_at</text>
<polygon fill="none" stroke="black" points="158.5,-201 158.5,-223 273.5,-223 273.5,-201 158.5,-201"/>
<text text-anchor="start" x="161.5" y="-209.2" font-family="Helvetica,sans-Serif" font-size="11.00">timestamp[29,6]</text>
<polygon fill="none" stroke="black" points="10.5,-179 10.5,-201 158.5,-201 158.5,-179 10.5,-179"/>
<text text-anchor="start" x="30.5" y="-187.2" font-family="Helvetica,sans-Serif" font-size="11.00">updated_at</text>
<polygon fill="none" stroke="black" points="158.5,-179 158.5,-201 273.5,-201 273.5,-179 158.5,-179"/>
<text text-anchor="start" x="161.5" y="-187.2" font-family="Helvetica,sans-Serif" font-size="11.00">timestamp[29,6]</text>
<polygon fill="none" stroke="black" points="10.5,-157 10.5,-179 158.5,-179 158.5,-157 10.5,-157"/>
<text text-anchor="start" x="30.5" y="-165.2" font-family="Helvetica,sans-Serif" font-size="11.00">refetch_needed</text>
<polygon fill="none" stroke="black" points="158.5,-157 158.5,-179 273.5,-179 273.5,-157 158.5,-157"/>
<text text-anchor="start" x="161.5" y="-165.2" font-family="Helvetica,sans-Serif" font-size="11.00">bool[1]</text>
<polygon fill="none" stroke="black" points="10.5,-135 10.5,-157 158.5,-157 158.5,-135 10.5,-135"/>
<text text-anchor="start" x="30.5" y="-143.2" font-family="Helvetica,sans-Serif" font-size="11.00">base_fee_per_gas</text>
<polygon fill="none" stroke="black" points="158.5,-135 158.5,-157 273.5,-157 273.5,-135 158.5,-135"/>
<text text-anchor="start" x="161.5" y="-143.2" font-family="Helvetica,sans-Serif" font-size="11.00">numeric[100]</text>
<polygon fill="#ffffff" stroke="transparent" points="10.5,-113 10.5,-135 158.5,-135 158.5,-113 10.5,-113"/>
<polygon fill="none" stroke="black" points="10.5,-113 10.5,-135 158.5,-135 158.5,-113 10.5,-113"/>
<text text-anchor="start" x="30.5" y="-121.2" font-family="Helvetica,sans-Serif" font-size="11.00">is_empty</text>
<polygon fill="none" stroke="black" points="158.5,-113 158.5,-135 273.5,-135 273.5,-113 158.5,-113"/>
<text text-anchor="start" x="161.5" y="-121.2" font-family="Helvetica,sans-Serif" font-size="11.00">bool[1]</text>
<polygon fill="#ffffff" stroke="transparent" points="10.5,-95 10.5,-113 273.5,-113 273.5,-95 10.5,-95"/>
<polygon fill="none" stroke="black" points="10.5,-95 10.5,-113 273.5,-113 273.5,-95 10.5,-95"/>
<polygon fill="#ffffff" stroke="transparent" points="11.5,-96 11.5,-112 102.5,-112 102.5,-96 11.5,-96"/>
<text text-anchor="start" x="13.5" y="-101.2" font-family="Helvetica,sans-Serif" font-size="11.00">&lt; 0</text>
<polygon fill="#ffffff" stroke="transparent" points="102.5,-96 102.5,-112 181.5,-112 181.5,-96 102.5,-96"/>
<text text-anchor="start" x="138" y="-101.2" font-family="Helvetica,sans-Serif" font-size="11.00"> &#160;</text>
<polygon fill="#ffffff" stroke="transparent" points="181.5,-96 181.5,-112 272.5,-112 272.5,-96 181.5,-96"/>
<text text-anchor="start" x="250.5" y="-101.2" font-family="Helvetica,sans-Serif" font-size="11.00">9 &gt;</text>
<polygon fill="black" stroke="black" points="102.5,-96 102.5,-112 102.5,-112 102.5,-96 102.5,-96"/>
<polygon fill="black" stroke="black" points="181.5,-96 181.5,-112 181.5,-112 181.5,-96 181.5,-96"/>
<polygon fill="none" stroke="black" stroke-width="2" points="9,-94 9,-510 274,-510 274,-94 9,-94"/>
</a>
</g>
</g>
<!-- block_rewards&#45;&gt;blocks -->
<g id="edge1" class="edge">
<title>block_rewards:w&#45;&gt;blocks:e</title>
<path fill="none" stroke="black" d="M369,-682.74C341.65,-677.52 332.86,-656.4 316,-627 289.18,-580.24 328.41,-388 274.5,-388"/>
<polygon fill="black" stroke="black" points="375.53,-683.31 383.19,-687.59 379.51,-683.65 383.5,-684 383.5,-684 383.5,-684 379.51,-683.65 383.81,-680.41 375.53,-683.31 375.53,-683.31"/>
<ellipse fill="none" stroke="black" cx="372.34" cy="-683.03" rx="3.2" ry="3.2"/>
</g>
<!-- block_second_degree_relations -->
<g id="node3" class="node">
<title>block_second_degree_relations</title>
<g id="a_node3"><a xlink:href="../../tables/block_second_degree_relations.html" xlink:title="block_second_degree_relations" target="_top">
<polygon fill="#ffffff" stroke="transparent" points="324,-492 324,-616 597,-616 597,-492 324,-492"/>
<polygon fill="#f5f5f5" stroke="transparent" points="324.5,-594 324.5,-616 597.5,-616 597.5,-594 324.5,-594"/>
<polygon fill="none" stroke="black" points="324.5,-594 324.5,-616 597.5,-616 597.5,-594 324.5,-594"/>
<text text-anchor="start" x="329.5" y="-603.2" font-family="Helvetica,sans-Serif" font-weight="bold" font-size="11.00">block_second_degree_relations</text>
<text text-anchor="start" x="555.5" y="-602.2" font-family="Helvetica,sans-Serif" font-size="11.00">[table]</text>
<polygon fill="none" stroke="black" points="324.5,-572 324.5,-594 597.5,-594 597.5,-572 324.5,-572"/>
<image xlink:href="../../images/primaryKeys.png" width="11px" height="12px" preserveAspectRatio="xMinYMin meet" x="329.5" y="-589"/>
<text text-anchor="start" x="357.5" y="-580.2" font-family="Helvetica,sans-Serif" font-size="11.00">nephew_hash</text>
<polygon fill="none" stroke="black" points="324.5,-550 324.5,-572 597.5,-572 597.5,-550 324.5,-550"/>
<image xlink:href="../../images/primaryKeys.png" width="11px" height="12px" preserveAspectRatio="xMinYMin meet" x="329.5" y="-567"/>
<text text-anchor="start" x="357.5" y="-558.2" font-family="Helvetica,sans-Serif" font-size="11.00">uncle_hash</text>
<polygon fill="none" stroke="black" points="324.5,-528 324.5,-550 597.5,-550 597.5,-528 324.5,-528"/>
<image xlink:href="../../images/foreignKeys.png" width="11px" height="12px" preserveAspectRatio="xMinYMin meet" x="329.5" y="-545"/>
<text text-anchor="start" x="357.5" y="-536.2" font-family="Helvetica,sans-Serif" font-size="11.00">index</text>
<polygon fill="none" stroke="black" points="324.5,-510 324.5,-528 597.5,-528 597.5,-510 324.5,-510"/>
<text text-anchor="start" x="327.5" y="-516.2" font-family="Helvetica,sans-Serif" font-size="11.00">...</text>
<polygon fill="#ffffff" stroke="transparent" points="324.5,-492 324.5,-510 597.5,-510 597.5,-492 324.5,-492"/>
<polygon fill="none" stroke="black" points="324.5,-492 324.5,-510 597.5,-510 597.5,-492 324.5,-492"/>
<polygon fill="#ffffff" stroke="transparent" points="325.5,-493 325.5,-509 424.5,-509 424.5,-493 325.5,-493"/>
<text text-anchor="start" x="327.5" y="-498.2" font-family="Helvetica,sans-Serif" font-size="11.00">&lt; 1</text>
<polygon fill="#ffffff" stroke="transparent" points="424.5,-493 424.5,-509 510.5,-509 510.5,-493 424.5,-493"/>
<text text-anchor="start" x="463.5" y="-498.2" font-family="Helvetica,sans-Serif" font-size="11.00"> &#160;</text>
<polygon fill="#ffffff" stroke="transparent" points="510.5,-493 510.5,-509 596.5,-509 596.5,-493 510.5,-493"/>
<text text-anchor="start" x="586.5" y="-498.2" font-family="Helvetica,sans-Serif" font-size="11.00"> &#160;</text>
<polygon fill="black" stroke="black" points="424.5,-493 424.5,-509 424.5,-509 424.5,-493 424.5,-493"/>
<polygon fill="black" stroke="black" points="510.5,-493 510.5,-509 510.5,-509 510.5,-493 510.5,-493"/>
</a>
</g>
</g>
<!-- block_second_degree_relations&#45;&gt;blocks -->
<g id="edge2" class="edge">
<title>block_second_degree_relations:w&#45;&gt;blocks:e</title>
<path fill="none" stroke="black" d="M309.21,-580.81C249.5,-559.39 358.28,-388 274.5,-388"/>
<polygon fill="black" stroke="black" points="315.59,-581.79 322.95,-586.56 319.55,-582.39 323.5,-583 323.5,-583 323.5,-583 319.55,-582.39 324.05,-579.44 315.59,-581.79 315.59,-581.79"/>
<ellipse fill="none" stroke="black" cx="312.43" cy="-581.3" rx="3.2" ry="3.2"/>
</g>
<!-- internal_transactions -->
<g id="node4" class="node">
<title>internal_transactions</title>
<g id="a_node4"><a xlink:href="../../tables/internal_transactions.html" xlink:title="internal_transactions" target="_top">
<polygon fill="#ffffff" stroke="transparent" points="686,-578 686,-636 888,-636 888,-578 686,-578"/>
<polygon fill="#f5f5f5" stroke="transparent" points="686,-614 686,-636 888,-636 888,-614 686,-614"/>
<polygon fill="none" stroke="black" points="686,-614 686,-636 888,-636 888,-614 686,-614"/>
<text text-anchor="start" x="691" y="-623.2" font-family="Helvetica,sans-Serif" font-weight="bold" font-size="11.00">internal_transactions</text>
<text text-anchor="start" x="846" y="-622.2" font-family="Helvetica,sans-Serif" font-size="11.00">[table]</text>
<polygon fill="none" stroke="black" points="686,-596 686,-614 888,-614 888,-596 686,-596"/>
<text text-anchor="start" x="689" y="-602.2" font-family="Helvetica,sans-Serif" font-size="11.00">...</text>
<polygon fill="#ffffff" stroke="transparent" points="686,-578 686,-596 888,-596 888,-578 686,-578"/>
<polygon fill="none" stroke="black" points="686,-578 686,-596 888,-596 888,-578 686,-578"/>
<polygon fill="#ffffff" stroke="transparent" points="687,-579 687,-595 762,-595 762,-579 687,-579"/>
<text text-anchor="start" x="689" y="-584.2" font-family="Helvetica,sans-Serif" font-size="11.00">&lt; 2</text>
<polygon fill="#ffffff" stroke="transparent" points="762,-579 762,-595 825,-595 825,-579 762,-579"/>
<text text-anchor="start" x="789.5" y="-584.2" font-family="Helvetica,sans-Serif" font-size="11.00"> &#160;</text>
<polygon fill="#ffffff" stroke="transparent" points="825,-579 825,-595 887,-595 887,-579 825,-579"/>
<text text-anchor="start" x="877" y="-584.2" font-family="Helvetica,sans-Serif" font-size="11.00"> &#160;</text>
<polygon fill="black" stroke="black" points="762,-579 762,-595 762,-595 762,-579 762,-579"/>
<polygon fill="black" stroke="black" points="825,-579 825,-595 825,-595 825,-579 825,-579"/>
</a>
</g>
</g>
<!-- internal_transactions&#45;&gt;blocks -->
<g id="edge3" class="edge">
<title>internal_transactions:w&#45;&gt;blocks:e</title>
<path fill="none" stroke="black" d="M664.52,-585.67C654.91,-580.89 645.89,-575.07 638,-568 607.52,-540.67 637.54,-506.85 605,-482 502.41,-403.65 425.96,-520.62 316,-453 286.8,-435.05 308.77,-388 274.5,-388"/>
<polygon fill="black" stroke="black" points="670.61,-588.35 676.49,-594.86 674.28,-589.96 677.94,-591.56 677.94,-591.56 677.94,-591.56 674.28,-589.96 679.39,-588.27 670.61,-588.35 670.61,-588.35"/>
<ellipse fill="none" stroke="black" cx="667.68" cy="-587.06" rx="3.2" ry="3.2"/>
</g>
<!-- transactions -->
<g id="node5" class="node">
<title>transactions</title>
<g id="a_node5"><a xlink:href="../../tables/transactions.html" xlink:title="transactions" target="_top">
<polygon fill="#ffffff" stroke="transparent" points="391.5,-359 391.5,-417 529.5,-417 529.5,-359 391.5,-359"/>
<polygon fill="#f5f5f5" stroke="transparent" points="391.5,-395 391.5,-417 529.5,-417 529.5,-395 391.5,-395"/>
<polygon fill="none" stroke="black" points="391.5,-395 391.5,-417 529.5,-417 529.5,-395 391.5,-395"/>
<text text-anchor="start" x="396.5" y="-404.2" font-family="Helvetica,sans-Serif" font-weight="bold" font-size="11.00">transactions</text>
<text text-anchor="start" x="487.5" y="-403.2" font-family="Helvetica,sans-Serif" font-size="11.00">[table]</text>
<polygon fill="none" stroke="black" points="391.5,-377 391.5,-395 529.5,-395 529.5,-377 391.5,-377"/>
<text text-anchor="start" x="394.5" y="-383.2" font-family="Helvetica,sans-Serif" font-size="11.00">...</text>
<polygon fill="#ffffff" stroke="transparent" points="391.5,-359 391.5,-377 529.5,-377 529.5,-359 391.5,-359"/>
<polygon fill="none" stroke="black" points="391.5,-359 391.5,-377 529.5,-377 529.5,-359 391.5,-359"/>
<polygon fill="#ffffff" stroke="transparent" points="392.5,-360 392.5,-376 442.5,-376 442.5,-360 392.5,-360"/>
<text text-anchor="start" x="394.5" y="-365.2" font-family="Helvetica,sans-Serif" font-size="11.00">&lt; 1</text>
<polygon fill="#ffffff" stroke="transparent" points="442.5,-360 442.5,-376 479.5,-376 479.5,-360 442.5,-360"/>
<text text-anchor="start" x="457" y="-365.2" font-family="Helvetica,sans-Serif" font-size="11.00"> &#160;</text>
<polygon fill="#ffffff" stroke="transparent" points="479.5,-360 479.5,-376 528.5,-376 528.5,-360 479.5,-360"/>
<text text-anchor="start" x="506.5" y="-365.2" font-family="Helvetica,sans-Serif" font-size="11.00">7 &gt;</text>
<polygon fill="black" stroke="black" points="442.5,-360 442.5,-376 442.5,-376 442.5,-360 442.5,-360"/>
<polygon fill="black" stroke="black" points="479.5,-360 479.5,-376 479.5,-376 479.5,-360 479.5,-360"/>
</a>
</g>
</g>
<!-- internal_transactions&#45;&gt;transactions -->
<g id="edge4" class="edge">
<title>internal_transactions:w&#45;&gt;transactions:e</title>
<path fill="none" stroke="black" d="M664.76,-586.71C654.96,-581.73 645.84,-575.58 638,-568 601.3,-532.52 638.05,-496.9 605,-458 587.32,-437.19 562,-422.03 537.54,-411.26"/>
<polygon fill="black" stroke="black" points="670.68,-589.35 676.52,-595.9 674.33,-590.99 677.98,-592.62 677.98,-592.62 677.98,-592.62 674.33,-590.99 679.45,-589.33 670.68,-589.35 670.68,-589.35"/>
<ellipse fill="none" stroke="black" cx="667.76" cy="-588.05" rx="3.2" ry="3.2"/>
</g>
<!-- transactions&#45;&gt;blocks -->
<g id="edge15" class="edge">
<title>transactions:w&#45;&gt;blocks:e</title>
<path fill="none" stroke="black" d="M369,-388C338.93,-388 305.28,-388 274.5,-388"/>
<polygon fill="black" stroke="black" points="375.44,-388 383.44,-391.6 379.44,-388 383.44,-388 383.44,-388 383.44,-388 379.44,-388 383.44,-384.4 375.44,-388 375.44,-388"/>
<ellipse fill="none" stroke="black" cx="372.24" cy="-388" rx="3.2" ry="3.2"/>
</g>
<!-- logs -->
<g id="node6" class="node">
<title>logs</title>
<g id="a_node6"><a xlink:href="../../tables/logs.html" xlink:title="logs" target="_top">
<polygon fill="#ffffff" stroke="transparent" points="748.5,-499 748.5,-557 825.5,-557 825.5,-499 748.5,-499"/>
<polygon fill="#f5f5f5" stroke="transparent" points="749,-535 749,-557 826,-557 826,-535 749,-535"/>
<polygon fill="none" stroke="black" points="749,-535 749,-557 826,-557 826,-535 749,-535"/>
<text text-anchor="start" x="754" y="-544.2" font-family="Helvetica,sans-Serif" font-weight="bold" font-size="11.00">logs</text>
<text text-anchor="start" x="784" y="-543.2" font-family="Helvetica,sans-Serif" font-size="11.00">[table]</text>
<polygon fill="none" stroke="black" points="749,-517 749,-535 826,-535 826,-517 749,-517"/>
<text text-anchor="start" x="752" y="-523.2" font-family="Helvetica,sans-Serif" font-size="11.00">...</text>
<polygon fill="#ffffff" stroke="transparent" points="749,-499 749,-517 826,-517 826,-499 749,-499"/>
<polygon fill="none" stroke="black" points="749,-499 749,-517 826,-517 826,-499 749,-499"/>
<polygon fill="#ffffff" stroke="transparent" points="750,-500 750,-516 783,-516 783,-500 750,-500"/>
<text text-anchor="start" x="752" y="-505.2" font-family="Helvetica,sans-Serif" font-size="11.00">&lt; 2</text>
<polygon fill="#ffffff" stroke="transparent" points="783,-500 783,-516 804,-516 804,-500 783,-500"/>
<text text-anchor="start" x="789.5" y="-505.2" font-family="Helvetica,sans-Serif" font-size="11.00"> &#160;</text>
<polygon fill="#ffffff" stroke="transparent" points="804,-500 804,-516 825,-516 825,-500 804,-500"/>
<text text-anchor="start" x="815" y="-505.2" font-family="Helvetica,sans-Serif" font-size="11.00"> &#160;</text>
<polygon fill="black" stroke="black" points="783,-500 783,-516 783,-516 783,-500 783,-500"/>
<polygon fill="black" stroke="black" points="804,-500 804,-516 804,-516 804,-500 804,-500"/>
</a>
</g>
</g>
<!-- logs&#45;&gt;blocks -->
<g id="edge5" class="edge">
<title>logs:w&#45;&gt;blocks:e</title>
<path fill="none" stroke="black" d="M725.91,-519.19C697.95,-513.37 664.99,-503.95 638,-489 620.4,-479.25 623.3,-466.37 605,-458 487.56,-404.31 433.1,-482.44 316,-428 292.77,-417.2 300.12,-388 274.5,-388"/>
<polygon fill="black" stroke="black" points="732.58,-520.47 739.75,-525.52 736.51,-521.23 740.43,-521.99 740.43,-521.99 740.43,-521.99 736.51,-521.23 741.12,-518.45 732.58,-520.47 732.58,-520.47"/>
<ellipse fill="none" stroke="black" cx="729.44" cy="-519.87" rx="3.2" ry="3.2"/>
</g>
<!-- logs&#45;&gt;transactions -->
<g id="edge6" class="edge">
<title>logs:w&#45;&gt;transactions:e</title>
<path fill="none" stroke="black" d="M725.59,-522.98C696.69,-518.02 663.02,-508.24 638,-489 614.49,-470.92 628.2,-449.47 605,-431 585.77,-415.69 561.18,-405.83 537.82,-399.47"/>
<polygon fill="black" stroke="black" points="732.29,-523.98 739.67,-528.72 736.24,-524.57 740.2,-525.16 740.2,-525.16 740.2,-525.16 736.24,-524.57 740.73,-521.6 732.29,-523.98 732.29,-523.98"/>
<ellipse fill="none" stroke="black" cx="729.12" cy="-523.51" rx="3.2" ry="3.2"/>
</g>
<!-- pending_block_operations -->
<g id="node7" class="node">
<title>pending_block_operations</title>
<g id="a_node7"><a xlink:href="../../tables/pending_block_operations.html" xlink:title="pending_block_operations" target="_top">
<polygon fill="#ffffff" stroke="transparent" points="342,-236 342,-338 579,-338 579,-236 342,-236"/>
<polygon fill="#f5f5f5" stroke="transparent" points="342.5,-316 342.5,-338 579.5,-338 579.5,-316 342.5,-316"/>
<polygon fill="none" stroke="black" points="342.5,-316 342.5,-338 579.5,-338 579.5,-316 342.5,-316"/>
<text text-anchor="start" x="347.5" y="-325.2" font-family="Helvetica,sans-Serif" font-weight="bold" font-size="11.00">pending_block_operations</text>
<text text-anchor="start" x="537.5" y="-324.2" font-family="Helvetica,sans-Serif" font-size="11.00">[table]</text>
<polygon fill="none" stroke="black" points="342.5,-294 342.5,-316 579.5,-316 579.5,-294 342.5,-294"/>
<image xlink:href="../../images/primaryKeys.png" width="11px" height="12px" preserveAspectRatio="xMinYMin meet" x="347.5" y="-311"/>
<text text-anchor="start" x="375.5" y="-302.2" font-family="Helvetica,sans-Serif" font-size="11.00">block_hash</text>
<polygon fill="#ffffff" stroke="transparent" points="342.5,-272 342.5,-294 579.5,-294 579.5,-272 342.5,-272"/>
<polygon fill="none" stroke="black" points="342.5,-272 342.5,-294 579.5,-294 579.5,-272 342.5,-272"/>
<text text-anchor="start" x="375.5" y="-280.2" font-family="Helvetica,sans-Serif" font-size="11.00">block_number</text>
<polygon fill="none" stroke="black" points="342.5,-254 342.5,-272 579.5,-272 579.5,-254 342.5,-254"/>
<text text-anchor="start" x="345.5" y="-260.2" font-family="Helvetica,sans-Serif" font-size="11.00">...</text>
<polygon fill="#ffffff" stroke="transparent" points="342.5,-236 342.5,-254 579.5,-254 579.5,-236 342.5,-236"/>
<polygon fill="none" stroke="black" points="342.5,-236 342.5,-254 579.5,-254 579.5,-236 342.5,-236"/>
<polygon fill="#ffffff" stroke="transparent" points="343.5,-237 343.5,-253 430.5,-253 430.5,-237 343.5,-237"/>
<text text-anchor="start" x="345.5" y="-242.2" font-family="Helvetica,sans-Serif" font-size="11.00">&lt; 1</text>
<polygon fill="#ffffff" stroke="transparent" points="430.5,-237 430.5,-253 504.5,-253 504.5,-237 430.5,-237"/>
<text text-anchor="start" x="463.5" y="-242.2" font-family="Helvetica,sans-Serif" font-size="11.00"> &#160;</text>
<polygon fill="#ffffff" stroke="transparent" points="504.5,-237 504.5,-253 578.5,-253 578.5,-237 504.5,-237"/>
<text text-anchor="start" x="568.5" y="-242.2" font-family="Helvetica,sans-Serif" font-size="11.00"> &#160;</text>
<polygon fill="black" stroke="black" points="430.5,-237 430.5,-253 430.5,-253 430.5,-237 430.5,-237"/>
<polygon fill="black" stroke="black" points="504.5,-237 504.5,-253 504.5,-253 504.5,-237 504.5,-237"/>
</a>
</g>
</g>
<!-- pending_block_operations&#45;&gt;blocks -->
<g id="edge7" class="edge">
<title>pending_block_operations:w&#45;&gt;blocks:e</title>
<path fill="none" stroke="black" d="M330.85,-306.73C298.32,-318.65 317.83,-388 274.5,-388"/>
<polygon fill="black" stroke="black" points="340.07,-301.18 341.35,-309.08 339.77,-309.33 338.49,-301.44 340.07,-301.18"/>
<polyline fill="none" stroke="black" points="341.5,-305 337.55,-305.64 "/>
<ellipse fill="none" stroke="black" cx="334.39" cy="-306.16" rx="3.2" ry="3.2"/>
</g>
<!-- pending_transaction_operations -->
<g id="node8" class="node">
<title>pending_transaction_operations</title>
<g id="a_node8"><a xlink:href="../../tables/pending_transaction_operations.html" xlink:title="pending_transaction_operations" target="_top">
<polygon fill="#ffffff" stroke="transparent" points="646,-420 646,-478 928,-478 928,-420 646,-420"/>
<polygon fill="#f5f5f5" stroke="transparent" points="646,-456 646,-478 928,-478 928,-456 646,-456"/>
<polygon fill="none" stroke="black" points="646,-456 646,-478 928,-478 928,-456 646,-456"/>
<text text-anchor="start" x="651" y="-465.2" font-family="Helvetica,sans-Serif" font-weight="bold" font-size="11.00">pending_transaction_operations</text>
<text text-anchor="start" x="886" y="-464.2" font-family="Helvetica,sans-Serif" font-size="11.00">[table]</text>
<polygon fill="none" stroke="black" points="646,-438 646,-456 928,-456 928,-438 646,-438"/>
<text text-anchor="start" x="649" y="-444.2" font-family="Helvetica,sans-Serif" font-size="11.00">...</text>
<polygon fill="#ffffff" stroke="transparent" points="646,-420 646,-438 928,-438 928,-420 646,-420"/>
<polygon fill="none" stroke="black" points="646,-420 646,-438 928,-438 928,-420 646,-420"/>
<polygon fill="#ffffff" stroke="transparent" points="647,-421 647,-437 749,-437 749,-421 647,-421"/>
<text text-anchor="start" x="649" y="-426.2" font-family="Helvetica,sans-Serif" font-size="11.00">&lt; 1</text>
<polygon fill="#ffffff" stroke="transparent" points="749,-421 749,-437 838,-437 838,-421 749,-421"/>
<text text-anchor="start" x="789.5" y="-426.2" font-family="Helvetica,sans-Serif" font-size="11.00"> &#160;</text>
<polygon fill="#ffffff" stroke="transparent" points="838,-421 838,-437 927,-437 927,-421 838,-421"/>
<text text-anchor="start" x="917" y="-426.2" font-family="Helvetica,sans-Serif" font-size="11.00"> &#160;</text>
<polygon fill="black" stroke="black" points="749,-421 749,-437 749,-437 749,-421 749,-421"/>
<polygon fill="black" stroke="black" points="838,-421 838,-437 838,-437 838,-421 838,-421"/>
</a>
</g>
</g>
<!-- pending_transaction_operations&#45;&gt;transactions -->
<g id="edge8" class="edge">
<title>pending_transaction_operations:w&#45;&gt;transactions:e</title>
<path fill="none" stroke="black" d="M634.45,-445.75C623.91,-442.92 619.12,-435.93 605,-431 583.39,-423.46 559.68,-416.02 537.87,-409.51"/>
<polygon fill="black" stroke="black" points="644.68,-442.93 643.73,-450.88 642.14,-450.69 643.09,-442.74 644.68,-442.93"/>
<polyline fill="none" stroke="black" points="645,-447 641.03,-446.53 "/>
<ellipse fill="none" stroke="black" cx="637.85" cy="-446.15" rx="3.2" ry="3.2"/>
</g>
<!-- signed_authorizations -->
<g id="node9" class="node">
<title>signed_authorizations</title>
<g id="a_node9"><a xlink:href="../../tables/signed_authorizations.html" xlink:title="signed_authorizations" target="_top">
<polygon fill="#ffffff" stroke="transparent" points="683,-341 683,-399 891,-399 891,-341 683,-341"/>
<polygon fill="#f5f5f5" stroke="transparent" points="683,-377 683,-399 891,-399 891,-377 683,-377"/>
<polygon fill="none" stroke="black" points="683,-377 683,-399 891,-399 891,-377 683,-377"/>
<text text-anchor="start" x="688" y="-386.2" font-family="Helvetica,sans-Serif" font-weight="bold" font-size="11.00">signed_authorizations</text>
<text text-anchor="start" x="849" y="-385.2" font-family="Helvetica,sans-Serif" font-size="11.00">[table]</text>
<polygon fill="none" stroke="black" points="683,-359 683,-377 891,-377 891,-359 683,-359"/>
<text text-anchor="start" x="686" y="-365.2" font-family="Helvetica,sans-Serif" font-size="11.00">...</text>
<polygon fill="#ffffff" stroke="transparent" points="683,-341 683,-359 891,-359 891,-341 683,-341"/>
<polygon fill="none" stroke="black" points="683,-341 683,-359 891,-359 891,-341 683,-341"/>
<polygon fill="#ffffff" stroke="transparent" points="684,-342 684,-358 761,-358 761,-342 684,-342"/>
<text text-anchor="start" x="686" y="-347.2" font-family="Helvetica,sans-Serif" font-size="11.00">&lt; 1</text>
<polygon fill="#ffffff" stroke="transparent" points="761,-342 761,-358 826,-358 826,-342 761,-342"/>
<text text-anchor="start" x="789.5" y="-347.2" font-family="Helvetica,sans-Serif" font-size="11.00"> &#160;</text>
<polygon fill="#ffffff" stroke="transparent" points="826,-342 826,-358 890,-358 890,-342 826,-342"/>
<text text-anchor="start" x="880" y="-347.2" font-family="Helvetica,sans-Serif" font-size="11.00"> &#160;</text>
<polygon fill="black" stroke="black" points="761,-342 761,-358 761,-358 761,-342 761,-342"/>
<polygon fill="black" stroke="black" points="826,-342 826,-358 826,-358 826,-342 826,-342"/>
</a>
</g>
</g>
<!-- signed_authorizations&#45;&gt;transactions -->
<g id="edge9" class="edge">
<title>signed_authorizations:w&#45;&gt;transactions:e</title>
<path fill="none" stroke="black" d="M667.46,-368.14C623.25,-368.95 575.81,-373.27 537.63,-377.68"/>
<polygon fill="black" stroke="black" points="674,-368.08 682.03,-371.6 678,-368.04 682,-368 682,-368 682,-368 678,-368.04 681.97,-364.4 674,-368.08 674,-368.08"/>
<ellipse fill="none" stroke="black" cx="670.8" cy="-368.11" rx="3.2" ry="3.2"/>
</g>
<!-- token_transfers -->
<g id="node10" class="node">
<title>token_transfers</title>
<g id="a_node10"><a xlink:href="../../tables/token_transfers.html" xlink:title="token_transfers" target="_top">
<polygon fill="#ffffff" stroke="transparent" points="706,-183 706,-241 868,-241 868,-183 706,-183"/>
<polygon fill="#f5f5f5" stroke="transparent" points="706,-219 706,-241 868,-241 868,-219 706,-219"/>
<polygon fill="none" stroke="black" points="706,-219 706,-241 868,-241 868,-219 706,-219"/>
<text text-anchor="start" x="711" y="-228.2" font-family="Helvetica,sans-Serif" font-weight="bold" font-size="11.00">token_transfers</text>
<text text-anchor="start" x="826" y="-227.2" font-family="Helvetica,sans-Serif" font-size="11.00">[table]</text>
<polygon fill="none" stroke="black" points="706,-201 706,-219 868,-219 868,-201 706,-201"/>
<text text-anchor="start" x="709" y="-207.2" font-family="Helvetica,sans-Serif" font-size="11.00">...</text>
<polygon fill="#ffffff" stroke="transparent" points="706,-183 706,-201 868,-201 868,-183 706,-183"/>
<polygon fill="none" stroke="black" points="706,-183 706,-201 868,-201 868,-183 706,-183"/>
<polygon fill="#ffffff" stroke="transparent" points="707,-184 707,-200 769,-200 769,-184 707,-184"/>
<text text-anchor="start" x="709" y="-189.2" font-family="Helvetica,sans-Serif" font-size="11.00">&lt; 2</text>
<polygon fill="#ffffff" stroke="transparent" points="769,-184 769,-200 818,-200 818,-184 769,-184"/>
<text text-anchor="start" x="789.5" y="-189.2" font-family="Helvetica,sans-Serif" font-size="11.00"> &#160;</text>
<polygon fill="#ffffff" stroke="transparent" points="818,-184 818,-200 867,-200 867,-184 818,-184"/>
<text text-anchor="start" x="857" y="-189.2" font-family="Helvetica,sans-Serif" font-size="11.00"> &#160;</text>
<polygon fill="black" stroke="black" points="769,-184 769,-200 769,-200 769,-184 769,-184"/>
<polygon fill="black" stroke="black" points="818,-184 818,-200 818,-200 818,-184 818,-184"/>
</a>
</g>
</g>
<!-- token_transfers&#45;&gt;blocks -->
<g id="edge10" class="edge">
<title>token_transfers:w&#45;&gt;blocks:e</title>
<path fill="none" stroke="black" d="M683.27,-208.62C553.58,-205.34 343.9,-203.67 316,-226 257.97,-272.44 348.82,-388 274.5,-388"/>
<polygon fill="black" stroke="black" points="689.9,-208.8 697.8,-212.61 693.9,-208.9 697.89,-209.01 697.89,-209.01 697.89,-209.01 693.9,-208.9 697.99,-205.41 689.9,-208.8 689.9,-208.8"/>
<ellipse fill="none" stroke="black" cx="686.7" cy="-208.71" rx="3.2" ry="3.2"/>
</g>
<!-- token_transfers&#45;&gt;transactions -->
<g id="edge11" class="edge">
<title>token_transfers:w&#45;&gt;transactions:e</title>
<path fill="none" stroke="black" d="M683.88,-225.44C667.02,-231.41 650.88,-239.92 638,-252 604.79,-283.15 638.19,-317.82 605,-349 586.75,-366.15 561.72,-375.9 537.68,-381.4"/>
<polygon fill="black" stroke="black" points="690.18,-223.47 698.89,-224.52 694,-222.28 697.82,-221.09 697.82,-221.09 697.82,-221.09 694,-222.28 696.74,-217.65 690.18,-223.47 690.18,-223.47"/>
<ellipse fill="none" stroke="black" cx="687.12" cy="-224.43" rx="3.2" ry="3.2"/>
</g>
<!-- transaction_actions -->
<g id="node11" class="node">
<title>transaction_actions</title>
<g id="a_node11"><a xlink:href="../../tables/transaction_actions.html" xlink:title="transaction_actions" target="_top">
<polygon fill="#ffffff" stroke="transparent" points="692,-262 692,-320 882,-320 882,-262 692,-262"/>
<polygon fill="#f5f5f5" stroke="transparent" points="692,-298 692,-320 882,-320 882,-298 692,-298"/>
<polygon fill="none" stroke="black" points="692,-298 692,-320 882,-320 882,-298 692,-298"/>
<text text-anchor="start" x="697" y="-307.2" font-family="Helvetica,sans-Serif" font-weight="bold" font-size="11.00">transaction_actions</text>
<text text-anchor="start" x="840" y="-306.2" font-family="Helvetica,sans-Serif" font-size="11.00">[table]</text>
<polygon fill="none" stroke="black" points="692,-280 692,-298 882,-298 882,-280 692,-280"/>
<text text-anchor="start" x="695" y="-286.2" font-family="Helvetica,sans-Serif" font-size="11.00">...</text>
<polygon fill="#ffffff" stroke="transparent" points="692,-262 692,-280 882,-280 882,-262 692,-262"/>
<polygon fill="none" stroke="black" points="692,-262 692,-280 882,-280 882,-262 692,-262"/>
<polygon fill="#ffffff" stroke="transparent" points="693,-263 693,-279 764,-279 764,-263 693,-263"/>
<text text-anchor="start" x="695" y="-268.2" font-family="Helvetica,sans-Serif" font-size="11.00">&lt; 1</text>
<polygon fill="#ffffff" stroke="transparent" points="764,-263 764,-279 823,-279 823,-263 764,-263"/>
<text text-anchor="start" x="789.5" y="-268.2" font-family="Helvetica,sans-Serif" font-size="11.00"> &#160;</text>
<polygon fill="#ffffff" stroke="transparent" points="823,-263 823,-279 881,-279 881,-263 823,-263"/>
<text text-anchor="start" x="871" y="-268.2" font-family="Helvetica,sans-Serif" font-size="11.00"> &#160;</text>
<polygon fill="black" stroke="black" points="764,-263 764,-279 764,-279 764,-263 764,-263"/>
<polygon fill="black" stroke="black" points="823,-263 823,-279 823,-279 823,-263 823,-263"/>
</a>
</g>
</g>
<!-- transaction_actions&#45;&gt;transactions -->
<g id="edge12" class="edge">
<title>transaction_actions:w&#45;&gt;transactions:e</title>
<path fill="none" stroke="black" d="M676.5,-290.56C644.44,-298.16 642.27,-331.58 605,-349 583.95,-358.84 559.97,-366.58 537.71,-372.48"/>
<polygon fill="black" stroke="black" points="683.05,-289.86 691.39,-292.58 687.02,-289.43 691,-289 691,-289 691,-289 687.02,-289.43 690.61,-285.42 683.05,-289.86 683.05,-289.86"/>
<ellipse fill="none" stroke="black" cx="679.86" cy="-290.2" rx="3.2" ry="3.2"/>
</g>
<!-- transaction_forks -->
<g id="node12" class="node">
<title>transaction_forks</title>
<g id="a_node12"><a xlink:href="../../tables/transaction_forks.html" xlink:title="transaction_forks" target="_top">
<polygon fill="#ffffff" stroke="transparent" points="700,-104 700,-162 874,-162 874,-104 700,-104"/>
<polygon fill="#f5f5f5" stroke="transparent" points="700,-140 700,-162 874,-162 874,-140 700,-140"/>
<polygon fill="none" stroke="black" points="700,-140 700,-162 874,-162 874,-140 700,-140"/>
<text text-anchor="start" x="705" y="-149.2" font-family="Helvetica,sans-Serif" font-weight="bold" font-size="11.00">transaction_forks</text>
<text text-anchor="start" x="832" y="-148.2" font-family="Helvetica,sans-Serif" font-size="11.00">[table]</text>
<polygon fill="none" stroke="black" points="700,-122 700,-140 874,-140 874,-122 700,-122"/>
<text text-anchor="start" x="703" y="-128.2" font-family="Helvetica,sans-Serif" font-size="11.00">...</text>
<polygon fill="#ffffff" stroke="transparent" points="700,-104 700,-122 874,-122 874,-104 700,-104"/>
<polygon fill="none" stroke="black" points="700,-104 700,-122 874,-122 874,-104 700,-104"/>
<polygon fill="#ffffff" stroke="transparent" points="701,-105 701,-121 767,-121 767,-105 701,-105"/>
<text text-anchor="start" x="703" y="-110.2" font-family="Helvetica,sans-Serif" font-size="11.00">&lt; 2</text>
<polygon fill="#ffffff" stroke="transparent" points="767,-105 767,-121 820,-121 820,-105 767,-105"/>
<text text-anchor="start" x="789.5" y="-110.2" font-family="Helvetica,sans-Serif" font-size="11.00"> &#160;</text>
<polygon fill="#ffffff" stroke="transparent" points="820,-105 820,-121 873,-121 873,-105 820,-105"/>
<text text-anchor="start" x="863" y="-110.2" font-family="Helvetica,sans-Serif" font-size="11.00"> &#160;</text>
<polygon fill="black" stroke="black" points="767,-105 767,-121 767,-121 767,-105 767,-105"/>
<polygon fill="black" stroke="black" points="820,-105 820,-121 820,-121 820,-105 820,-105"/>
</a>
</g>
</g>
<!-- transaction_forks&#45;&gt;blocks -->
<g id="edge14" class="edge">
<title>transaction_forks:w&#45;&gt;blocks:e</title>
<path fill="none" stroke="black" d="M677.69,-158.28C653.83,-163.31 628.63,-168.2 605,-172 541.23,-182.26 364.2,-160 316,-203 253.12,-259.1 358.77,-388 274.5,-388"/>
<polygon fill="black" stroke="black" points="684.12,-156.91 692.7,-158.75 688.03,-156.07 691.95,-155.23 691.95,-155.23 691.95,-155.23 688.03,-156.07 691.19,-151.71 684.12,-156.91 684.12,-156.91"/>
<ellipse fill="none" stroke="black" cx="680.99" cy="-157.58" rx="3.2" ry="3.2"/>
</g>
<!-- transaction_forks&#45;&gt;transactions -->
<g id="edge13" class="edge">
<title>transaction_forks:w&#45;&gt;transactions:e</title>
<path fill="none" stroke="black" d="M677.72,-146.78C662.78,-152.82 648.86,-161.25 638,-173 583.98,-231.44 658.98,-290.52 605,-349 587.66,-367.78 562.28,-377.87 537.66,-383.18"/>
<polygon fill="black" stroke="black" points="684.12,-144.54 692.86,-145.29 687.89,-143.22 691.67,-141.89 691.67,-141.89 691.67,-141.89 687.89,-143.22 690.48,-138.5 684.12,-144.54 684.12,-144.54"/>
<ellipse fill="none" stroke="black" cx="681.1" cy="-145.6" rx="3.2" ry="3.2"/>
</g>
<!-- withdrawals -->
<g id="node13" class="node">
<title>withdrawals</title>
<g id="a_node13"><a xlink:href="../../tables/withdrawals.html" xlink:title="withdrawals" target="_top">
<polygon fill="#ffffff" stroke="transparent" points="392.5,-37 392.5,-161 528.5,-161 528.5,-37 392.5,-37"/>
<polygon fill="#f5f5f5" stroke="transparent" points="392.5,-139 392.5,-161 528.5,-161 528.5,-139 392.5,-139"/>
<polygon fill="none" stroke="black" points="392.5,-139 392.5,-161 528.5,-161 528.5,-139 392.5,-139"/>
<text text-anchor="start" x="397.5" y="-148.2" font-family="Helvetica,sans-Serif" font-weight="bold" font-size="11.00">withdrawals</text>
<text text-anchor="start" x="486.5" y="-147.2" font-family="Helvetica,sans-Serif" font-size="11.00">[table]</text>
<polygon fill="none" stroke="black" points="392.5,-117 392.5,-139 528.5,-139 528.5,-117 392.5,-117"/>
<image xlink:href="../../images/primaryKeys.png" width="11px" height="12px" preserveAspectRatio="xMinYMin meet" x="397.5" y="-134"/>
<text text-anchor="start" x="414.5" y="-125.2" font-family="Helvetica,sans-Serif" font-size="11.00">index</text>
<polygon fill="#ffffff" stroke="transparent" points="392.5,-95 392.5,-117 528.5,-117 528.5,-95 392.5,-95"/>
<polygon fill="none" stroke="black" points="392.5,-95 392.5,-117 528.5,-117 528.5,-95 392.5,-95"/>
<text text-anchor="start" x="414.5" y="-103.2" font-family="Helvetica,sans-Serif" font-size="11.00">address_hash</text>
<polygon fill="#ffffff" stroke="transparent" points="392.5,-73 392.5,-95 528.5,-95 528.5,-73 392.5,-73"/>
<polygon fill="none" stroke="black" points="392.5,-73 392.5,-95 528.5,-95 528.5,-73 392.5,-73"/>
<image xlink:href="../../images/foreignKeys.png" width="11px" height="12px" preserveAspectRatio="xMinYMin meet" x="397.5" y="-90"/>
<text text-anchor="start" x="414.5" y="-81.2" font-family="Helvetica,sans-Serif" font-size="11.00">block_hash</text>
<polygon fill="none" stroke="black" points="392.5,-55 392.5,-73 528.5,-73 528.5,-55 392.5,-55"/>
<text text-anchor="start" x="395.5" y="-61.2" font-family="Helvetica,sans-Serif" font-size="11.00">...</text>
<polygon fill="#ffffff" stroke="transparent" points="392.5,-37 392.5,-55 528.5,-55 528.5,-37 392.5,-37"/>
<polygon fill="none" stroke="black" points="392.5,-37 392.5,-55 528.5,-55 528.5,-37 392.5,-37"/>
<polygon fill="#ffffff" stroke="transparent" points="393.5,-38 393.5,-54 446.5,-54 446.5,-38 393.5,-38"/>
<text text-anchor="start" x="395.5" y="-43.2" font-family="Helvetica,sans-Serif" font-size="11.00">&lt; 1</text>
<polygon fill="#ffffff" stroke="transparent" points="446.5,-38 446.5,-54 487.5,-54 487.5,-38 446.5,-38"/>
<text text-anchor="start" x="463" y="-43.2" font-family="Helvetica,sans-Serif" font-size="11.00"> &#160;</text>
<polygon fill="#ffffff" stroke="transparent" points="487.5,-38 487.5,-54 527.5,-54 527.5,-38 487.5,-38"/>
<text text-anchor="start" x="517.5" y="-43.2" font-family="Helvetica,sans-Serif" font-size="11.00"> &#160;</text>
<polygon fill="black" stroke="black" points="446.5,-38 446.5,-54 446.5,-54 446.5,-38 446.5,-38"/>
<polygon fill="black" stroke="black" points="487.5,-38 487.5,-54 487.5,-54 487.5,-38 487.5,-38"/>
</a>
</g>
</g>
<!-- withdrawals&#45;&gt;blocks -->
<g id="edge16" class="edge">
<title>withdrawals:w&#45;&gt;blocks:e</title>
<path fill="none" stroke="black" d="M377.02,-85.3C338.63,-92.88 336.22,-132.33 316,-175 295.35,-218.58 322.72,-388 274.5,-388"/>
<polygon fill="black" stroke="black" points="383.53,-84.72 391.82,-87.59 387.52,-84.36 391.5,-84 391.5,-84 391.5,-84 387.52,-84.36 391.18,-80.41 383.53,-84.72 383.53,-84.72"/>
<ellipse fill="none" stroke="black" cx="380.35" cy="-85.01" rx="3.2" ry="3.2"/>
</g>
</g>
</svg>
