<?xml version="1.0" encoding="UTF-8" standalone="no"?>
<!DOCTYPE svg PUBLIC "-//W3C//DTD SVG 1.1//EN"
 "http://www.w3.org/Graphics/SVG/1.1/DTD/svg11.dtd">
<!-- Generated by graphviz version 9.0.0 (20230911.1827)
 -->
<!-- Title: twoDegreesRelationshipsDiagramImplied Pages: 1 -->
<svg width="904pt" height="556pt"
 viewBox="0.00 0.00 904.00 556.37" xmlns="http://www.w3.org/2000/svg" xmlns:xlink="http://www.w3.org/1999/xlink">
<g id="graph0" class="graph" transform="scale(1 1) rotate(0) translate(4 552.37)">
<title>twoDegreesRelationshipsDiagramImplied</title>
<polygon fill="#ffffff" stroke="none" points="-4,4 -4,-552.37 900,-552.37 900,4 -4,4"/>
<text text-anchor="middle" x="71.38" y="-5.55" font-family="Helvetica,sans-Serif" font-size="11.00">Generated by SchemaSpy</text>
<!-- block_rewards -->
<g id="node1" class="node">
<title>block_rewards</title>
<g id="a_node1"><a xlink:href="../../tables/block_rewards.html" xlink:title="block_rewards" target="_top">
<polygon fill="#ffffff" stroke="none" points="168,-400.37 168,-458.37 291,-458.37 291,-400.37 168,-400.37"/>
<polygon fill="#f5f5f5" stroke="none" points="168,-436.37 168,-458.37 291,-458.37 291,-436.37 168,-436.37"/>
<polygon fill="none" stroke="black" points="168,-436.37 168,-458.37 291,-458.37 291,-436.37 168,-436.37"/>
<text text-anchor="start" x="173" y="-443.92" font-family="Helvetica,sans-Serif" font-weight="bold" font-size="11.00">block_rewards</text>
<text text-anchor="start" x="257" y="-442.92" font-family="Helvetica,sans-Serif" font-size="11.00">[table]</text>
<polygon fill="none" stroke="black" points="168,-418.37 168,-436.37 291,-436.37 291,-418.37 168,-418.37"/>
<text text-anchor="start" x="171" y="-422.92" font-family="Helvetica,sans-Serif" font-size="11.00">...</text>
<polygon fill="#ffffff" stroke="none" points="168,-400.37 168,-418.37 228,-418.37 228,-400.37 168,-400.37"/>
<polygon fill="none" stroke="black" points="168,-400.37 168,-418.37 228,-418.37 228,-400.37 168,-400.37"/>
<text text-anchor="start" x="171" y="-404.92" font-family="Helvetica,sans-Serif" font-size="11.00">&lt; 1</text>
<polygon fill="#ffffff" stroke="none" points="228,-400.37 228,-418.37 259,-418.37 259,-400.37 228,-400.37"/>
<polygon fill="none" stroke="black" points="228,-400.37 228,-418.37 259,-418.37 259,-400.37 228,-400.37"/>
<text text-anchor="start" x="250" y="-404.92" font-family="Helvetica,sans-Serif" font-size="11.00"> &#160;</text>
<polygon fill="#ffffff" stroke="none" points="259,-400.37 259,-418.37 291,-418.37 291,-400.37 259,-400.37"/>
<polygon fill="none" stroke="black" points="259,-400.37 259,-418.37 291,-418.37 291,-400.37 259,-400.37"/>
<text text-anchor="start" x="282" y="-404.92" font-family="Helvetica,sans-Serif" font-size="11.00"> &#160;</text>
</a>
</g>
</g>
<!-- blocks -->
<g id="node2" class="node">
<title>blocks</title>
<g id="a_node2"><a xlink:href="../../tables/blocks.html" xlink:title="blocks" target="_top">
<polygon fill="#ffffff" stroke="none" points="8,-214.37 8,-272.37 85,-272.37 85,-214.37 8,-214.37"/>
<polygon fill="#f5f5f5" stroke="none" points="8,-250.37 8,-272.37 85,-272.37 85,-250.37 8,-250.37"/>
<polygon fill="none" stroke="black" points="8,-250.37 8,-272.37 85,-272.37 85,-250.37 8,-250.37"/>
<text text-anchor="start" x="12.75" y="-257.92" font-family="Helvetica,sans-Serif" font-weight="bold" font-size="11.00">blocks</text>
<text text-anchor="start" x="51" y="-256.92" font-family="Helvetica,sans-Serif" font-size="11.00">[table]</text>
<polygon fill="none" stroke="black" points="8,-232.37 8,-250.37 85,-250.37 85,-232.37 8,-232.37"/>
<text text-anchor="start" x="11" y="-236.92" font-family="Helvetica,sans-Serif" font-size="11.00">...</text>
<polygon fill="#ffffff" stroke="none" points="8,-214.37 8,-232.37 36,-232.37 36,-214.37 8,-214.37"/>
<polygon fill="none" stroke="black" points="8,-214.37 8,-232.37 36,-232.37 36,-214.37 8,-214.37"/>
<text text-anchor="start" x="11" y="-218.92" font-family="Helvetica,sans-Serif" font-size="11.00"> &#160;</text>
<polygon fill="#ffffff" stroke="none" points="36,-214.37 36,-232.37 56,-232.37 56,-214.37 36,-214.37"/>
<polygon fill="none" stroke="black" points="36,-214.37 36,-232.37 56,-232.37 56,-214.37 36,-214.37"/>
<text text-anchor="start" x="47" y="-218.92" font-family="Helvetica,sans-Serif" font-size="11.00"> &#160;</text>
<polygon fill="#ffffff" stroke="none" points="56,-214.37 56,-232.37 85,-232.37 85,-214.37 56,-214.37"/>
<polygon fill="none" stroke="black" points="56,-214.37 56,-232.37 85,-232.37 85,-214.37 56,-214.37"/>
<text text-anchor="start" x="66.25" y="-218.92" font-family="Helvetica,sans-Serif" font-size="11.00">9 &gt;</text>
</a>
</g>
</g>
<!-- block_rewards&#45;&gt;blocks -->
<g id="edge1" class="edge">
<title>block_rewards:w&#45;&gt;blocks:e</title>
<path fill="none" stroke="black" d="M150.94,-425.72C90.79,-412.67 63.79,-325.16 53.27,-276.26"/>
<polygon fill="black" stroke="black" points="158.21,-426.49 165.79,-430.91 162.52,-426.95 165.83,-427.3 165.83,-427.3 165.83,-427.3 162.52,-426.95 166.55,-423.75 158.21,-426.49"/>
<ellipse fill="none" stroke="black" cx="153.32" cy="-425.97" rx="3.2" ry="3.2"/>
</g>
<!-- block_second_degree_relations -->
<g id="node3" class="node">
<title>block_second_degree_relations</title>
<g id="a_node3"><a xlink:href="../../tables/block_second_degree_relations.html" xlink:title="block_second_degree_relations" target="_top">
<polygon fill="#ffffff" stroke="none" points="374,-412.37 374,-544.37 679,-544.37 679,-412.37 374,-412.37"/>
<polygon fill="#f5f5f5" stroke="none" points="376,-520.37 376,-542.37 677,-542.37 677,-520.37 376,-520.37"/>
<polygon fill="none" stroke="black" points="376,-520.37 376,-542.37 677,-542.37 677,-520.37 376,-520.37"/>
<text text-anchor="start" x="381" y="-527.92" font-family="Helvetica,sans-Serif" font-weight="bold" font-size="11.00">block_second_degree_relations</text>
<text text-anchor="start" x="642.75" y="-526.92" font-family="Helvetica,sans-Serif" font-size="11.00">[table]</text>
<polygon fill="none" stroke="black" points="376,-498.37 376,-520.37 579,-520.37 579,-498.37 376,-498.37"/>
<image xlink:href="../../images/primaryKeys.png" width="11px" height="12px" preserveAspectRatio="xMinYMin meet" x="381" y="-515.369"/>
<text text-anchor="start" x="396" y="-504.92" font-family="Helvetica,sans-Serif" font-size="11.00">nephew_hash</text>
<polygon fill="none" stroke="black" points="579,-498.37 579,-520.37 677,-520.37 677,-498.37 579,-498.37"/>
<text text-anchor="start" x="581.88" y="-504.92" font-family="Helvetica,sans-Serif" font-size="11.00">bytea[2147483647]</text>
<polygon fill="none" stroke="black" points="376,-476.37 376,-498.37 579,-498.37 579,-476.37 376,-476.37"/>
<image xlink:href="../../images/primaryKeys.png" width="11px" height="12px" preserveAspectRatio="xMinYMin meet" x="381" y="-493.369"/>
<text text-anchor="start" x="396" y="-482.92" font-family="Helvetica,sans-Serif" font-size="11.00">uncle_hash</text>
<polygon fill="none" stroke="black" points="579,-476.37 579,-498.37 677,-498.37 677,-476.37 579,-476.37"/>
<text text-anchor="start" x="581.88" y="-482.92" font-family="Helvetica,sans-Serif" font-size="11.00">bytea[2147483647]</text>
<polygon fill="none" stroke="black" points="376,-454.37 376,-476.37 579,-476.37 579,-454.37 376,-454.37"/>
<text text-anchor="start" x="396" y="-460.92" font-family="Helvetica,sans-Serif" font-size="11.00">uncle_fetched_at</text>
<polygon fill="none" stroke="black" points="579,-454.37 579,-476.37 677,-476.37 677,-454.37 579,-454.37"/>
<text text-anchor="start" x="582" y="-460.92" font-family="Helvetica,sans-Serif" font-size="11.00">timestamp[29,6]</text>
<polygon fill="none" stroke="black" points="376,-432.37 376,-454.37 579,-454.37 579,-432.37 376,-432.37"/>
<image xlink:href="../../images/foreignKeys.png" width="11px" height="12px" preserveAspectRatio="xMinYMin meet" x="381" y="-449.369"/>
<text text-anchor="start" x="396" y="-438.92" font-family="Helvetica,sans-Serif" font-size="11.00">index</text>
<polygon fill="none" stroke="black" points="579,-432.37 579,-454.37 677,-454.37 677,-432.37 579,-432.37"/>
<text text-anchor="start" x="582" y="-438.92" font-family="Helvetica,sans-Serif" font-size="11.00">int4[10]</text>
<polygon fill="#ffffff" stroke="none" points="376,-414.37 376,-432.37 482,-432.37 482,-414.37 376,-414.37"/>
<polygon fill="none" stroke="black" points="376,-414.37 376,-432.37 482,-432.37 482,-414.37 376,-414.37"/>
<text text-anchor="start" x="379" y="-418.92" font-family="Helvetica,sans-Serif" font-size="11.00">&lt; 2</text>
<polygon fill="#ffffff" stroke="none" points="482,-414.37 482,-432.37 579,-432.37 579,-414.37 482,-414.37"/>
<polygon fill="none" stroke="black" points="482,-414.37 482,-432.37 579,-432.37 579,-414.37 482,-414.37"/>
<text text-anchor="start" x="570" y="-418.92" font-family="Helvetica,sans-Serif" font-size="11.00"> &#160;</text>
<polygon fill="#ffffff" stroke="none" points="579,-414.37 579,-432.37 677,-432.37 677,-414.37 579,-414.37"/>
<polygon fill="none" stroke="black" points="579,-414.37 579,-432.37 677,-432.37 677,-414.37 579,-414.37"/>
<text text-anchor="start" x="658.25" y="-418.92" font-family="Helvetica,sans-Serif" font-size="11.00">0 &gt;</text>
<polygon fill="none" stroke="black" stroke-width="2" points="375,-413.37 375,-543.37 678,-543.37 678,-413.37 375,-413.37"/>
</a>
</g>
</g>
<!-- block_second_degree_relations&#45;&gt;blocks -->
<g id="edge3" class="edge">
<title>block_second_degree_relations:w&#45;&gt;blocks:e</title>
<path fill="none" stroke="black" d="M359.16,-506.13C330.68,-490.42 371.37,-421.56 333,-390.37 261,-331.85 204.58,-412.7 126,-363.37 93.74,-343.12 72,-304.21 59.73,-276.18"/>
<polygon fill="black" stroke="black" points="366.34,-507.65 373.43,-512.82 370.59,-508.54 373.85,-509.23 373.85,-509.23 373.85,-509.23 370.59,-508.54 374.92,-505.78 366.34,-507.65"/>
<ellipse fill="none" stroke="black" cx="361.53" cy="-506.63" rx="3.2" ry="3.2"/>
</g>
<!-- withdrawals -->
<g id="node4" class="node">
<title>withdrawals</title>
<g id="a_node4"><a xlink:href="../../tables/withdrawals.html" xlink:title="withdrawals" target="_top">
<polygon fill="#ffffff" stroke="none" points="176,-294.37 176,-352.37 283,-352.37 283,-294.37 176,-294.37"/>
<polygon fill="#f5f5f5" stroke="none" points="176,-330.37 176,-352.37 283,-352.37 283,-330.37 176,-330.37"/>
<polygon fill="none" stroke="black" points="176,-330.37 176,-352.37 283,-352.37 283,-330.37 176,-330.37"/>
<text text-anchor="start" x="181" y="-337.92" font-family="Helvetica,sans-Serif" font-weight="bold" font-size="11.00">withdrawals</text>
<text text-anchor="start" x="249" y="-336.92" font-family="Helvetica,sans-Serif" font-size="11.00">[table]</text>
<polygon fill="none" stroke="black" points="176,-312.37 176,-330.37 283,-330.37 283,-312.37 176,-312.37"/>
<text text-anchor="start" x="179" y="-316.92" font-family="Helvetica,sans-Serif" font-size="11.00">...</text>
<polygon fill="#ffffff" stroke="none" points="176,-294.37 176,-312.37 223,-312.37 223,-294.37 176,-294.37"/>
<polygon fill="none" stroke="black" points="176,-294.37 176,-312.37 223,-312.37 223,-294.37 176,-294.37"/>
<text text-anchor="start" x="179" y="-298.92" font-family="Helvetica,sans-Serif" font-size="11.00">&lt; 1</text>
<polygon fill="#ffffff" stroke="none" points="223,-294.37 223,-312.37 248,-312.37 248,-294.37 223,-294.37"/>
<polygon fill="none" stroke="black" points="223,-294.37 223,-312.37 248,-312.37 248,-294.37 223,-294.37"/>
<text text-anchor="start" x="239" y="-298.92" font-family="Helvetica,sans-Serif" font-size="11.00"> &#160;</text>
<polygon fill="#ffffff" stroke="none" points="248,-294.37 248,-312.37 283,-312.37 283,-294.37 248,-294.37"/>
<polygon fill="none" stroke="black" points="248,-294.37 248,-312.37 283,-312.37 283,-294.37 248,-294.37"/>
<text text-anchor="start" x="264.25" y="-298.92" font-family="Helvetica,sans-Serif" font-size="11.00">5 &gt;</text>
</a>
</g>
</g>
<!-- block_second_degree_relations&#45;&gt;withdrawals -->
<g id="edge2" class="edge">
<title>block_second_degree_relations:w&#45;&gt;withdrawals:e</title>
<path fill="none" stroke="black" stroke-dasharray="5,2" d="M359.61,-439.24C343,-426.61 356.84,-388 333,-366.37 320.99,-355.48 305.83,-347.1 290.88,-340.77"/>
<polygon fill="black" stroke="black" points="366.47,-441.14 373.22,-446.75 370.65,-442.3 373.86,-443.19 373.86,-443.19 373.86,-443.19 370.65,-442.3 375.14,-439.81 366.47,-441.14"/>
<ellipse fill="none" stroke="black" cx="361.73" cy="-439.83" rx="3.2" ry="3.2"/>
</g>
<!-- withdrawals&#45;&gt;blocks -->
<g id="edge18" class="edge">
<title>withdrawals:w&#45;&gt;blocks:e</title>
<path fill="none" stroke="black" d="M153.62,-292.4C144.29,-288.41 134.91,-284.33 126,-280.37 115.13,-275.53 103.49,-270.15 92.59,-265.03"/>
<polygon fill="black" stroke="black" points="160.48,-295.31 166.44,-301.75 164.47,-297 167.54,-298.3 167.54,-298.3 167.54,-298.3 164.47,-297 169.25,-295.12 160.48,-295.31"/>
<ellipse fill="none" stroke="black" cx="155.95" cy="-293.39" rx="3.2" ry="3.2"/>
</g>
<!-- internal_transactions -->
<g id="node5" class="node">
<title>internal_transactions</title>
<g id="a_node5"><a xlink:href="../../tables/internal_transactions.html" xlink:title="internal_transactions" target="_top">
<polygon fill="#ffffff" stroke="none" points="728,-324.37 728,-382.37 888,-382.37 888,-324.37 728,-324.37"/>
<polygon fill="#f5f5f5" stroke="none" points="728,-360.37 728,-382.37 888,-382.37 888,-360.37 728,-360.37"/>
<polygon fill="none" stroke="black" points="728,-360.37 728,-382.37 888,-382.37 888,-360.37 728,-360.37"/>
<text text-anchor="start" x="733" y="-367.92" font-family="Helvetica,sans-Serif" font-weight="bold" font-size="11.00">internal_transactions</text>
<text text-anchor="start" x="854" y="-366.92" font-family="Helvetica,sans-Serif" font-size="11.00">[table]</text>
<polygon fill="none" stroke="black" points="728,-342.37 728,-360.37 888,-360.37 888,-342.37 728,-342.37"/>
<text text-anchor="start" x="731" y="-346.92" font-family="Helvetica,sans-Serif" font-size="11.00">...</text>
<polygon fill="#ffffff" stroke="none" points="728,-324.37 728,-342.37 806,-342.37 806,-324.37 728,-324.37"/>
<polygon fill="none" stroke="black" points="728,-324.37 728,-342.37 806,-342.37 806,-324.37 728,-324.37"/>
<text text-anchor="start" x="731" y="-328.92" font-family="Helvetica,sans-Serif" font-size="11.00">&lt; 4</text>
<polygon fill="#ffffff" stroke="none" points="806,-324.37 806,-342.37 847,-342.37 847,-324.37 806,-324.37"/>
<polygon fill="none" stroke="black" points="806,-324.37 806,-342.37 847,-342.37 847,-324.37 806,-324.37"/>
<text text-anchor="start" x="838" y="-328.92" font-family="Helvetica,sans-Serif" font-size="11.00"> &#160;</text>
<polygon fill="#ffffff" stroke="none" points="847,-324.37 847,-342.37 888,-342.37 888,-324.37 847,-324.37"/>
<polygon fill="none" stroke="black" points="847,-324.37 847,-342.37 888,-342.37 888,-324.37 847,-324.37"/>
<text text-anchor="start" x="879" y="-328.92" font-family="Helvetica,sans-Serif" font-size="11.00"> &#160;</text>
</a>
</g>
</g>
<!-- internal_transactions&#45;&gt;blocks -->
<g id="edge4" class="edge">
<title>internal_transactions:w&#45;&gt;blocks:e</title>
<path fill="none" stroke="black" d="M712.22,-345.97C699.98,-332.73 710.64,-298.69 687,-284.37 633.6,-252.01 188.21,-257.7 126,-252.37 115.2,-251.44 103.59,-250.23 92.7,-249"/>
<polygon fill="black" stroke="black" points="719.17,-348.51 725.45,-354.64 723.24,-350 726.37,-351.14 726.37,-351.14 726.37,-351.14 723.24,-350 727.92,-347.87 719.17,-348.51"/>
<ellipse fill="none" stroke="black" cx="714.55" cy="-346.82" rx="3.2" ry="3.2"/>
</g>
<!-- internal_transactions&#45;&gt;withdrawals -->
<g id="edge5" class="edge">
<title>internal_transactions:w&#45;&gt;withdrawals:e</title>
<path fill="none" stroke="black" stroke-dasharray="5,2" d="M711.29,-349.86C704.12,-351.31 698.62,-355.66 687,-357.37 545.85,-378.09 507.2,-377.77 366,-357.37 340.87,-353.74 313.92,-346.5 290.72,-339.57"/>
<polygon fill="black" stroke="black" points="718.7,-350.57 726.32,-354.92 723.02,-350.99 726.33,-351.3 726.33,-351.3 726.33,-351.3 723.02,-350.99 727.01,-347.75 718.7,-350.57"/>
<ellipse fill="none" stroke="black" cx="713.81" cy="-350.11" rx="3.2" ry="3.2"/>
</g>
<!-- internal_transactions&#45;&gt;withdrawals -->
<g id="edge7" class="edge">
<title>internal_transactions:w&#45;&gt;withdrawals:e</title>
<path fill="none" stroke="black" stroke-dasharray="5,2" d="M712.92,-358.51C704.9,-363.65 699.48,-368.54 687,-370.37 545.85,-391.09 507.2,-390.77 366,-370.37 340.87,-366.74 313.92,-359.5 290.72,-351.71"/>
<polygon fill="black" stroke="black" points="719.57,-355.14 728.33,-354.73 723.43,-353.18 726.4,-351.67 726.4,-351.67 726.4,-351.67 723.43,-353.18 725.07,-348.31 719.57,-355.14"/>
<ellipse fill="none" stroke="black" cx="715.18" cy="-357.36" rx="3.2" ry="3.2"/>
</g>
<!-- transactions -->
<g id="node6" class="node">
<title>transactions</title>
<g id="a_node6"><a xlink:href="../../tables/transactions.html" xlink:title="transactions" target="_top">
<polygon fill="#ffffff" stroke="none" points="471.5,-161.37 471.5,-219.37 581.5,-219.37 581.5,-161.37 471.5,-161.37"/>
<polygon fill="#f5f5f5" stroke="none" points="471.5,-197.37 471.5,-219.37 581.5,-219.37 581.5,-197.37 471.5,-197.37"/>
<polygon fill="none" stroke="black" points="471.5,-197.37 471.5,-219.37 581.5,-219.37 581.5,-197.37 471.5,-197.37"/>
<text text-anchor="start" x="476.5" y="-204.92" font-family="Helvetica,sans-Serif" font-weight="bold" font-size="11.00">transactions</text>
<text text-anchor="start" x="547.5" y="-203.92" font-family="Helvetica,sans-Serif" font-size="11.00">[table]</text>
<polygon fill="none" stroke="black" points="471.5,-179.37 471.5,-197.37 581.5,-197.37 581.5,-179.37 471.5,-179.37"/>
<text text-anchor="start" x="474.5" y="-183.92" font-family="Helvetica,sans-Serif" font-size="11.00">...</text>
<polygon fill="#ffffff" stroke="none" points="471.5,-161.37 471.5,-179.37 520.5,-179.37 520.5,-161.37 471.5,-161.37"/>
<polygon fill="none" stroke="black" points="471.5,-161.37 471.5,-179.37 520.5,-179.37 520.5,-161.37 471.5,-161.37"/>
<text text-anchor="start" x="474.5" y="-165.92" font-family="Helvetica,sans-Serif" font-size="11.00">&lt; 2</text>
<polygon fill="#ffffff" stroke="none" points="520.5,-161.37 520.5,-179.37 546.5,-179.37 546.5,-161.37 520.5,-161.37"/>
<polygon fill="none" stroke="black" points="520.5,-161.37 520.5,-179.37 546.5,-179.37 546.5,-161.37 520.5,-161.37"/>
<text text-anchor="start" x="537.5" y="-165.92" font-family="Helvetica,sans-Serif" font-size="11.00"> &#160;</text>
<polygon fill="#ffffff" stroke="none" points="546.5,-161.37 546.5,-179.37 581.5,-179.37 581.5,-161.37 546.5,-161.37"/>
<polygon fill="none" stroke="black" points="546.5,-161.37 546.5,-179.37 581.5,-179.37 581.5,-161.37 546.5,-161.37"/>
<text text-anchor="start" x="562.75" y="-165.92" font-family="Helvetica,sans-Serif" font-size="11.00">5 &gt;</text>
</a>
</g>
</g>
<!-- internal_transactions&#45;&gt;transactions -->
<g id="edge6" class="edge">
<title>internal_transactions:w&#45;&gt;transactions:e</title>
<path fill="none" stroke="black" d="M711.65,-347.69C691.27,-334.55 710.86,-289.23 687,-260.37 651.06,-216.9 638.9,-188.37 582.5,-188.37"/>
<polygon fill="black" stroke="black" points="718.9,-349.42 725.83,-354.79 723.11,-350.44 726.35,-351.21 726.35,-351.21 726.35,-351.21 723.11,-350.44 727.51,-347.79 718.9,-349.42"/>
<ellipse fill="none" stroke="black" cx="714.11" cy="-348.28" rx="3.2" ry="3.2"/>
</g>
<!-- transactions&#45;&gt;blocks -->
<g id="edge16" class="edge">
<title>transactions:w&#45;&gt;blocks:e</title>
<path fill="none" stroke="black" d="M455,-189.22C389.73,-194.54 184.83,-223.56 92.91,-236.79"/>
<polygon fill="black" stroke="black" points="462.18,-188.82 470.36,-191.98 466.51,-188.59 469.83,-188.41 469.83,-188.41 469.83,-188.41 466.51,-188.59 469.97,-184.79 462.18,-188.82"/>
<ellipse fill="none" stroke="black" cx="457.27" cy="-189.09" rx="3.2" ry="3.2"/>
</g>
<!-- transactions&#45;&gt;withdrawals -->
<g id="edge17" class="edge">
<title>transactions:w&#45;&gt;withdrawals:e</title>
<path fill="none" stroke="black" stroke-dasharray="5,2" d="M454.94,-189.08C377.34,-196.08 303.63,-253.23 262.99,-290.69"/>
<polygon fill="black" stroke="black" points="462.17,-188.75 470.33,-191.98 466.5,-188.55 469.83,-188.4 469.83,-188.4 469.83,-188.4 466.5,-188.55 470,-184.79 462.17,-188.75"/>
<ellipse fill="none" stroke="black" cx="457.26" cy="-188.97" rx="3.2" ry="3.2"/>
</g>
<!-- logs -->
<g id="node7" class="node">
<title>logs</title>
<g id="a_node7"><a xlink:href="../../tables/logs.html" xlink:title="logs" target="_top">
<polygon fill="#ffffff" stroke="none" points="776.5,-215.37 776.5,-273.37 839.5,-273.37 839.5,-215.37 776.5,-215.37"/>
<polygon fill="#f5f5f5" stroke="none" points="776.5,-251.37 776.5,-273.37 839.5,-273.37 839.5,-251.37 776.5,-251.37"/>
<polygon fill="none" stroke="black" points="776.5,-251.37 776.5,-273.37 839.5,-273.37 839.5,-251.37 776.5,-251.37"/>
<text text-anchor="start" x="780.25" y="-258.92" font-family="Helvetica,sans-Serif" font-weight="bold" font-size="11.00">logs</text>
<text text-anchor="start" x="805.5" y="-257.92" font-family="Helvetica,sans-Serif" font-size="11.00">[table]</text>
<polygon fill="none" stroke="black" points="776.5,-233.37 776.5,-251.37 839.5,-251.37 839.5,-233.37 776.5,-233.37"/>
<text text-anchor="start" x="779.5" y="-237.92" font-family="Helvetica,sans-Serif" font-size="11.00">...</text>
<polygon fill="#ffffff" stroke="none" points="776.5,-215.37 776.5,-233.37 806.5,-233.37 806.5,-215.37 776.5,-215.37"/>
<polygon fill="none" stroke="black" points="776.5,-215.37 776.5,-233.37 806.5,-233.37 806.5,-215.37 776.5,-215.37"/>
<text text-anchor="start" x="779.5" y="-219.92" font-family="Helvetica,sans-Serif" font-size="11.00">&lt; 2</text>
<polygon fill="#ffffff" stroke="none" points="806.5,-215.37 806.5,-233.37 822.5,-233.37 822.5,-215.37 806.5,-215.37"/>
<polygon fill="none" stroke="black" points="806.5,-215.37 806.5,-233.37 822.5,-233.37 822.5,-215.37 806.5,-215.37"/>
<text text-anchor="start" x="813.5" y="-219.92" font-family="Helvetica,sans-Serif" font-size="11.00"> &#160;</text>
<polygon fill="#ffffff" stroke="none" points="822.5,-215.37 822.5,-233.37 839.5,-233.37 839.5,-215.37 822.5,-215.37"/>
<polygon fill="none" stroke="black" points="822.5,-215.37 822.5,-233.37 839.5,-233.37 839.5,-215.37 822.5,-215.37"/>
<text text-anchor="start" x="830.5" y="-219.92" font-family="Helvetica,sans-Serif" font-size="11.00"> &#160;</text>
</a>
</g>
</g>
<!-- logs&#45;&gt;blocks -->
<g id="edge8" class="edge">
<title>logs:w&#45;&gt;blocks:e</title>
<path fill="none" stroke="black" d="M759.43,-242.37C504.38,-242.39 204.56,-243.01 92.62,-243.26"/>
<polygon fill="black" stroke="black" points="766.67,-242.37 774.67,-245.97 771,-242.37 774.33,-242.37 774.33,-242.37 774.33,-242.37 771,-242.37 774.67,-238.77 766.67,-242.37"/>
<ellipse fill="none" stroke="black" cx="761.75" cy="-242.37" rx="3.2" ry="3.2"/>
</g>
<!-- logs&#45;&gt;transactions -->
<g id="edge9" class="edge">
<title>logs:w&#45;&gt;transactions:e</title>
<path fill="none" stroke="black" d="M759.17,-241.76C684,-235.83 665.8,-188.37 582.5,-188.37"/>
<polygon fill="black" stroke="black" points="766.67,-242.05 774.53,-245.95 771,-242.22 774.33,-242.34 774.33,-242.34 774.33,-242.34 771,-242.22 774.8,-238.76 766.67,-242.05"/>
<ellipse fill="none" stroke="black" cx="761.76" cy="-241.86" rx="3.2" ry="3.2"/>
</g>
<!-- pending_block_operations -->
<g id="node8" class="node">
<title>pending_block_operations</title>
<g id="a_node8"><a xlink:href="../../tables/pending_block_operations.html" xlink:title="pending_block_operations" target="_top">
<polygon fill="#ffffff" stroke="none" points="134,-134.37 134,-192.37 325,-192.37 325,-134.37 134,-134.37"/>
<polygon fill="#f5f5f5" stroke="none" points="134,-170.37 134,-192.37 325,-192.37 325,-170.37 134,-170.37"/>
<polygon fill="none" stroke="black" points="134,-170.37 134,-192.37 325,-192.37 325,-170.37 134,-170.37"/>
<text text-anchor="start" x="139" y="-177.92" font-family="Helvetica,sans-Serif" font-weight="bold" font-size="11.00">pending_block_operations</text>
<text text-anchor="start" x="291" y="-176.92" font-family="Helvetica,sans-Serif" font-size="11.00">[table]</text>
<polygon fill="none" stroke="black" points="134,-152.37 134,-170.37 325,-170.37 325,-152.37 134,-152.37"/>
<text text-anchor="start" x="137" y="-156.92" font-family="Helvetica,sans-Serif" font-size="11.00">...</text>
<polygon fill="#ffffff" stroke="none" points="134,-134.37 134,-152.37 228,-152.37 228,-134.37 134,-134.37"/>
<polygon fill="none" stroke="black" points="134,-134.37 134,-152.37 228,-152.37 228,-134.37 134,-134.37"/>
<text text-anchor="start" x="137" y="-138.92" font-family="Helvetica,sans-Serif" font-size="11.00">&lt; 1</text>
<polygon fill="#ffffff" stroke="none" points="228,-134.37 228,-152.37 276,-152.37 276,-134.37 228,-134.37"/>
<polygon fill="none" stroke="black" points="228,-134.37 228,-152.37 276,-152.37 276,-134.37 228,-134.37"/>
<text text-anchor="start" x="267" y="-138.92" font-family="Helvetica,sans-Serif" font-size="11.00"> &#160;</text>
<polygon fill="#ffffff" stroke="none" points="276,-134.37 276,-152.37 325,-152.37 325,-134.37 276,-134.37"/>
<polygon fill="none" stroke="black" points="276,-134.37 276,-152.37 325,-152.37 325,-134.37 276,-134.37"/>
<text text-anchor="start" x="316" y="-138.92" font-family="Helvetica,sans-Serif" font-size="11.00"> &#160;</text>
</a>
</g>
</g>
<!-- pending_block_operations&#45;&gt;blocks -->
<g id="edge10" class="edge">
<title>pending_block_operations:w&#45;&gt;blocks:e</title>
<path fill="none" stroke="black" d="M121.33,-162.62C96.9,-168.09 77.56,-190.62 64.81,-210.49"/>
<polygon fill="black" stroke="black" points="131.26,-157.48 132.15,-165.43 130.56,-165.61 129.67,-157.66 131.26,-157.48"/>
<polyline fill="none" stroke="black" points="132.5,-161.37 128.52,-161.81"/>
<ellipse fill="none" stroke="black" cx="124.85" cy="-162.22" rx="3.2" ry="3.2"/>
</g>
<!-- token_instances -->
<g id="node9" class="node">
<title>token_instances</title>
<g id="a_node9"><a xlink:href="../../tables/token_instances.html" xlink:title="token_instances" target="_top">
<polygon fill="#ffffff" stroke="none" points="460,-294.37 460,-352.37 593,-352.37 593,-294.37 460,-294.37"/>
<polygon fill="#f5f5f5" stroke="none" points="460,-330.37 460,-352.37 593,-352.37 593,-330.37 460,-330.37"/>
<polygon fill="none" stroke="black" points="460,-330.37 460,-352.37 593,-352.37 593,-330.37 460,-330.37"/>
<text text-anchor="start" x="465" y="-337.92" font-family="Helvetica,sans-Serif" font-weight="bold" font-size="11.00">token_instances</text>
<text text-anchor="start" x="559" y="-336.92" font-family="Helvetica,sans-Serif" font-size="11.00">[table]</text>
<polygon fill="none" stroke="black" points="460,-312.37 460,-330.37 593,-330.37 593,-312.37 460,-312.37"/>
<text text-anchor="start" x="463" y="-316.92" font-family="Helvetica,sans-Serif" font-size="11.00">...</text>
<polygon fill="#ffffff" stroke="none" points="460,-294.37 460,-312.37 525,-312.37 525,-294.37 460,-294.37"/>
<polygon fill="none" stroke="black" points="460,-294.37 460,-312.37 525,-312.37 525,-294.37 460,-294.37"/>
<text text-anchor="start" x="463" y="-298.92" font-family="Helvetica,sans-Serif" font-size="11.00">&lt; 2</text>
<polygon fill="#ffffff" stroke="none" points="525,-294.37 525,-312.37 559,-312.37 559,-294.37 525,-294.37"/>
<polygon fill="none" stroke="black" points="525,-294.37 525,-312.37 559,-312.37 559,-294.37 525,-294.37"/>
<text text-anchor="start" x="550" y="-298.92" font-family="Helvetica,sans-Serif" font-size="11.00"> &#160;</text>
<polygon fill="#ffffff" stroke="none" points="559,-294.37 559,-312.37 593,-312.37 593,-294.37 559,-294.37"/>
<polygon fill="none" stroke="black" points="559,-294.37 559,-312.37 593,-312.37 593,-294.37 559,-294.37"/>
<text text-anchor="start" x="584" y="-298.92" font-family="Helvetica,sans-Serif" font-size="11.00"> &#160;</text>
</a>
</g>
</g>
<!-- token_instances&#45;&gt;withdrawals -->
<g id="edge11" class="edge">
<title>token_instances:w&#45;&gt;withdrawals:e</title>
<path fill="none" stroke="black" stroke-dasharray="5,2" d="M442.68,-321.38C389.96,-321.48 332.72,-322.05 290.98,-322.55"/>
<polygon fill="black" stroke="black" points="450.17,-321.38 458.17,-324.97 454.5,-321.37 457.83,-321.37 457.83,-321.37 457.83,-321.37 454.5,-321.37 458.16,-317.77 450.17,-321.38"/>
<ellipse fill="none" stroke="black" cx="445.25" cy="-321.38" rx="3.2" ry="3.2"/>
</g>
<!-- token_transfers -->
<g id="node10" class="node">
<title>token_transfers</title>
<g id="a_node10"><a xlink:href="../../tables/token_transfers.html" xlink:title="token_transfers" target="_top">
<polygon fill="#ffffff" stroke="none" points="743.5,-136.37 743.5,-194.37 872.5,-194.37 872.5,-136.37 743.5,-136.37"/>
<polygon fill="#f5f5f5" stroke="none" points="743.5,-172.37 743.5,-194.37 872.5,-194.37 872.5,-172.37 743.5,-172.37"/>
<polygon fill="none" stroke="black" points="743.5,-172.37 743.5,-194.37 872.5,-194.37 872.5,-172.37 743.5,-172.37"/>
<text text-anchor="start" x="748.5" y="-179.92" font-family="Helvetica,sans-Serif" font-weight="bold" font-size="11.00">token_transfers</text>
<text text-anchor="start" x="838.5" y="-178.92" font-family="Helvetica,sans-Serif" font-size="11.00">[table]</text>
<polygon fill="none" stroke="black" points="743.5,-154.37 743.5,-172.37 872.5,-172.37 872.5,-154.37 743.5,-154.37"/>
<text text-anchor="start" x="746.5" y="-158.92" font-family="Helvetica,sans-Serif" font-size="11.00">...</text>
<polygon fill="#ffffff" stroke="none" points="743.5,-136.37 743.5,-154.37 806.5,-154.37 806.5,-136.37 743.5,-136.37"/>
<polygon fill="none" stroke="black" points="743.5,-136.37 743.5,-154.37 806.5,-154.37 806.5,-136.37 743.5,-136.37"/>
<text text-anchor="start" x="746.5" y="-140.92" font-family="Helvetica,sans-Serif" font-size="11.00">&lt; 2</text>
<polygon fill="#ffffff" stroke="none" points="806.5,-136.37 806.5,-154.37 839.5,-154.37 839.5,-136.37 806.5,-136.37"/>
<polygon fill="none" stroke="black" points="806.5,-136.37 806.5,-154.37 839.5,-154.37 839.5,-136.37 806.5,-136.37"/>
<text text-anchor="start" x="830.5" y="-140.92" font-family="Helvetica,sans-Serif" font-size="11.00"> &#160;</text>
<polygon fill="#ffffff" stroke="none" points="839.5,-136.37 839.5,-154.37 872.5,-154.37 872.5,-136.37 839.5,-136.37"/>
<polygon fill="none" stroke="black" points="839.5,-136.37 839.5,-154.37 872.5,-154.37 872.5,-136.37 839.5,-136.37"/>
<text text-anchor="start" x="863.5" y="-140.92" font-family="Helvetica,sans-Serif" font-size="11.00"> &#160;</text>
</a>
</g>
</g>
<!-- token_transfers&#45;&gt;blocks -->
<g id="edge12" class="edge">
<title>token_transfers:w&#45;&gt;blocks:e</title>
<path fill="none" stroke="black" d="M726.3,-161.88C713.12,-159.13 705.62,-153.26 687,-150.37 531.08,-126.15 490.68,-129.37 333,-123.37 241.07,-119.87 206.92,-79.61 126,-123.37 92.06,-141.72 70.44,-181.84 58.67,-210.64"/>
<polygon fill="black" stroke="black" points="733.7,-162.58 741.33,-166.92 738.02,-162.99 741.33,-163.31 741.33,-163.31 741.33,-163.31 738.02,-162.99 742.01,-159.75 733.7,-162.58"/>
<ellipse fill="none" stroke="black" cx="728.81" cy="-162.12" rx="3.2" ry="3.2"/>
</g>
<!-- token_transfers&#45;&gt;transactions -->
<g id="edge13" class="edge">
<title>token_transfers:w&#45;&gt;transactions:e</title>
<path fill="none" stroke="black" d="M726.52,-163.78C667.49,-167.03 648.79,-188.37 582.5,-188.37"/>
<polygon fill="black" stroke="black" points="733.67,-163.59 741.76,-166.98 738,-163.48 741.33,-163.39 741.33,-163.39 741.33,-163.39 738,-163.48 741.57,-159.78 733.67,-163.59"/>
<ellipse fill="none" stroke="black" cx="728.75" cy="-163.72" rx="3.2" ry="3.2"/>
</g>
<!-- transaction_forks -->
<g id="node11" class="node">
<title>transaction_forks</title>
<g id="a_node11"><a xlink:href="../../tables/transaction_forks.html" xlink:title="transaction_forks" target="_top">
<polygon fill="#ffffff" stroke="none" points="738.5,-57.37 738.5,-115.37 877.5,-115.37 877.5,-57.37 738.5,-57.37"/>
<polygon fill="#f5f5f5" stroke="none" points="738.5,-93.37 738.5,-115.37 877.5,-115.37 877.5,-93.37 738.5,-93.37"/>
<polygon fill="none" stroke="black" points="738.5,-93.37 738.5,-115.37 877.5,-115.37 877.5,-93.37 738.5,-93.37"/>
<text text-anchor="start" x="743.5" y="-100.92" font-family="Helvetica,sans-Serif" font-weight="bold" font-size="11.00">transaction_forks</text>
<text text-anchor="start" x="843.5" y="-99.92" font-family="Helvetica,sans-Serif" font-size="11.00">[table]</text>
<polygon fill="none" stroke="black" points="738.5,-75.37 738.5,-93.37 877.5,-93.37 877.5,-75.37 738.5,-75.37"/>
<text text-anchor="start" x="741.5" y="-79.92" font-family="Helvetica,sans-Serif" font-size="11.00">...</text>
<polygon fill="#ffffff" stroke="none" points="738.5,-57.37 738.5,-75.37 806.5,-75.37 806.5,-57.37 738.5,-57.37"/>
<polygon fill="none" stroke="black" points="738.5,-57.37 738.5,-75.37 806.5,-75.37 806.5,-57.37 738.5,-57.37"/>
<text text-anchor="start" x="741.5" y="-61.92" font-family="Helvetica,sans-Serif" font-size="11.00">&lt; 2</text>
<polygon fill="#ffffff" stroke="none" points="806.5,-57.37 806.5,-75.37 841.5,-75.37 841.5,-57.37 806.5,-57.37"/>
<polygon fill="none" stroke="black" points="806.5,-57.37 806.5,-75.37 841.5,-75.37 841.5,-57.37 806.5,-57.37"/>
<text text-anchor="start" x="832.5" y="-61.92" font-family="Helvetica,sans-Serif" font-size="11.00"> &#160;</text>
<polygon fill="#ffffff" stroke="none" points="841.5,-57.37 841.5,-75.37 877.5,-75.37 877.5,-57.37 841.5,-57.37"/>
<polygon fill="none" stroke="black" points="841.5,-57.37 841.5,-75.37 877.5,-75.37 877.5,-57.37 841.5,-57.37"/>
<text text-anchor="start" x="868.5" y="-61.92" font-family="Helvetica,sans-Serif" font-size="11.00"> &#160;</text>
</a>
</g>
</g>
<!-- transaction_forks&#45;&gt;blocks -->
<g id="edge15" class="edge">
<title>transaction_forks:w&#45;&gt;blocks:e</title>
<path fill="none" stroke="black" d="M721.27,-84.23C461.11,-79.57 353.42,38.27 126,-100.37 86.34,-124.55 65.28,-176.43 55.26,-210.6"/>
<polygon fill="black" stroke="black" points="728.67,-84.29 736.63,-87.97 733,-84.33 736.33,-84.36 736.33,-84.36 736.33,-84.36 733,-84.33 736.7,-80.77 728.67,-84.29"/>
<ellipse fill="none" stroke="black" cx="723.75" cy="-84.25" rx="3.2" ry="3.2"/>
</g>
<!-- transaction_forks&#45;&gt;transactions -->
<g id="edge14" class="edge">
<title>transaction_forks:w&#45;&gt;transactions:e</title>
<path fill="none" stroke="black" d="M721.28,-85.76C655.3,-98.1 659.62,-188.37 582.5,-188.37"/>
<polygon fill="black" stroke="black" points="728.7,-85.1 736.98,-87.98 733.02,-84.72 736.33,-84.43 736.33,-84.43 736.33,-84.43 733.02,-84.72 736.35,-80.81 728.7,-85.1"/>
<ellipse fill="none" stroke="black" cx="723.8" cy="-85.54" rx="3.2" ry="3.2"/>
</g>
</g>
</svg>
