<?xml version="1.0" encoding="UTF-8" standalone="no"?>
<!DOCTYPE svg PUBLIC "-//W3C//DTD SVG 1.1//EN"
 "http://www.w3.org/Graphics/SVG/1.1/DTD/svg11.dtd">
<!-- Generated by graphviz version 9.0.0 (20230911.1827)
 -->
<!-- Title: twoDegreesRelationshipsDiagramImplied Pages: 1 -->
<svg width="970pt" height="639pt"
 viewBox="0.00 0.00 970.00 639.00" xmlns="http://www.w3.org/2000/svg" xmlns:xlink="http://www.w3.org/1999/xlink">
<g id="graph0" class="graph" transform="scale(1 1) rotate(0) translate(4 635)">
<title>twoDegreesRelationshipsDiagramImplied</title>
<polygon fill="#ffffff" stroke="none" points="-4,4 -4,-635 966,-635 966,4 -4,4"/>
<text text-anchor="middle" x="71.38" y="-5.55" font-family="Helvetica,sans-Serif" font-size="11.00">Generated by SchemaSpy</text>
<!-- block_rewards -->
<g id="node1" class="node">
<title>block_rewards</title>
<g id="a_node1"><a xlink:href="../../tables/block_rewards.html" xlink:title="block_rewards" target="_top">
<polygon fill="#ffffff" stroke="none" points="318,-503 318,-627 441,-627 441,-503 318,-503"/>
<polygon fill="#f5f5f5" stroke="none" points="318,-605 318,-627 441,-627 441,-605 318,-605"/>
<polygon fill="none" stroke="black" points="318,-605 318,-627 441,-627 441,-605 318,-605"/>
<text text-anchor="start" x="323" y="-612.55" font-family="Helvetica,sans-Serif" font-weight="bold" font-size="11.00">block_rewards</text>
<text text-anchor="start" x="407" y="-611.55" font-family="Helvetica,sans-Serif" font-size="11.00">[table]</text>
<polygon fill="none" stroke="black" points="318,-583 318,-605 441,-605 441,-583 318,-583"/>
<image xlink:href="../../images/primaryKeys.png" width="11px" height="12px" preserveAspectRatio="xMinYMin meet" x="323" y="-600"/>
<text text-anchor="start" x="347" y="-589.55" font-family="Helvetica,sans-Serif" font-size="11.00">address_hash</text>
<polygon fill="none" stroke="black" points="318,-561 318,-583 441,-583 441,-561 318,-561"/>
<image xlink:href="../../images/primaryKeys.png" width="11px" height="12px" preserveAspectRatio="xMinYMin meet" x="323" y="-578"/>
<text text-anchor="start" x="347" y="-567.55" font-family="Helvetica,sans-Serif" font-size="11.00">address_type</text>
<polygon fill="none" stroke="black" points="318,-539 318,-561 441,-561 441,-539 318,-539"/>
<image xlink:href="../../images/primaryKeys.png" width="11px" height="12px" preserveAspectRatio="xMinYMin meet" x="323" y="-556"/>
<text text-anchor="start" x="347" y="-545.55" font-family="Helvetica,sans-Serif" font-size="11.00">block_hash</text>
<polygon fill="none" stroke="black" points="318,-521 318,-539 441,-539 441,-521 318,-521"/>
<text text-anchor="start" x="321" y="-525.55" font-family="Helvetica,sans-Serif" font-size="11.00">...</text>
<polygon fill="#ffffff" stroke="none" points="318,-503 318,-521 378,-521 378,-503 318,-503"/>
<polygon fill="none" stroke="black" points="318,-503 318,-521 378,-521 378,-503 318,-503"/>
<text text-anchor="start" x="321" y="-507.55" font-family="Helvetica,sans-Serif" font-size="11.00">&lt; 1</text>
<polygon fill="#ffffff" stroke="none" points="378,-503 378,-521 409,-521 409,-503 378,-503"/>
<polygon fill="none" stroke="black" points="378,-503 378,-521 409,-521 409,-503 378,-503"/>
<text text-anchor="start" x="400" y="-507.55" font-family="Helvetica,sans-Serif" font-size="11.00"> &#160;</text>
<polygon fill="#ffffff" stroke="none" points="409,-503 409,-521 441,-521 441,-503 409,-503"/>
<polygon fill="none" stroke="black" points="409,-503 409,-521 441,-521 441,-503 409,-503"/>
<text text-anchor="start" x="432" y="-507.55" font-family="Helvetica,sans-Serif" font-size="11.00"> &#160;</text>
</a>
</g>
</g>
<!-- blocks -->
<g id="node2" class="node">
<title>blocks</title>
<g id="a_node2"><a xlink:href="../../tables/blocks.html" xlink:title="blocks" target="_top">
<polygon fill="#ffffff" stroke="none" points="8,-37 8,-455 235,-455 235,-37 8,-37"/>
<polygon fill="#f5f5f5" stroke="none" points="10,-431 10,-453 233,-453 233,-431 10,-431"/>
<polygon fill="none" stroke="black" points="10,-431 10,-453 233,-453 233,-431 10,-431"/>
<text text-anchor="start" x="14.75" y="-438.55" font-family="Helvetica,sans-Serif" font-weight="bold" font-size="11.00">blocks</text>
<text text-anchor="start" x="198.75" y="-437.55" font-family="Helvetica,sans-Serif" font-size="11.00">[table]</text>
<polygon fill="#ffffff" stroke="none" points="10,-409 10,-431 135,-431 135,-409 10,-409"/>
<polygon fill="none" stroke="black" points="10,-409 10,-431 135,-431 135,-409 10,-409"/>
<text text-anchor="start" x="30" y="-415.55" font-family="Helvetica,sans-Serif" font-size="11.00">consensus</text>
<polygon fill="none" stroke="black" points="135,-409 135,-431 233,-431 233,-409 135,-409"/>
<text text-anchor="start" x="138" y="-415.55" font-family="Helvetica,sans-Serif" font-size="11.00">bool[1]</text>
<polygon fill="none" stroke="black" points="10,-387 10,-409 135,-409 135,-387 10,-387"/>
<text text-anchor="start" x="30" y="-393.55" font-family="Helvetica,sans-Serif" font-size="11.00">difficulty</text>
<polygon fill="none" stroke="black" points="135,-387 135,-409 233,-409 233,-387 135,-387"/>
<text text-anchor="start" x="138" y="-393.55" font-family="Helvetica,sans-Serif" font-size="11.00">numeric[50]</text>
<polygon fill="none" stroke="black" points="10,-365 10,-387 135,-387 135,-365 10,-365"/>
<text text-anchor="start" x="30" y="-371.55" font-family="Helvetica,sans-Serif" font-size="11.00">gas_limit</text>
<polygon fill="none" stroke="black" points="135,-365 135,-387 233,-387 233,-365 135,-365"/>
<text text-anchor="start" x="138" y="-371.55" font-family="Helvetica,sans-Serif" font-size="11.00">numeric[100]</text>
<polygon fill="none" stroke="black" points="10,-343 10,-365 135,-365 135,-343 10,-343"/>
<text text-anchor="start" x="30" y="-349.55" font-family="Helvetica,sans-Serif" font-size="11.00">gas_used</text>
<polygon fill="none" stroke="black" points="135,-343 135,-365 233,-365 233,-343 135,-343"/>
<text text-anchor="start" x="138" y="-349.55" font-family="Helvetica,sans-Serif" font-size="11.00">numeric[100]</text>
<polygon fill="none" stroke="black" points="10,-321 10,-343 135,-343 135,-321 10,-321"/>
<image xlink:href="../../images/primaryKeys.png" width="11px" height="12px" preserveAspectRatio="xMinYMin meet" x="15" y="-338"/>
<text text-anchor="start" x="30" y="-327.55" font-family="Helvetica,sans-Serif" font-size="11.00">hash</text>
<polygon fill="none" stroke="black" points="135,-321 135,-343 233,-343 233,-321 135,-321"/>
<text text-anchor="start" x="137.88" y="-327.55" font-family="Helvetica,sans-Serif" font-size="11.00">bytea[2147483647]</text>
<polygon fill="#ffffff" stroke="none" points="10,-299 10,-321 135,-321 135,-299 10,-299"/>
<polygon fill="none" stroke="black" points="10,-299 10,-321 135,-321 135,-299 10,-299"/>
<text text-anchor="start" x="30" y="-305.55" font-family="Helvetica,sans-Serif" font-size="11.00">miner_hash</text>
<polygon fill="none" stroke="black" points="135,-299 135,-321 233,-321 233,-299 135,-299"/>
<text text-anchor="start" x="137.88" y="-305.55" font-family="Helvetica,sans-Serif" font-size="11.00">bytea[2147483647]</text>
<polygon fill="none" stroke="black" points="10,-277 10,-299 135,-299 135,-277 10,-277"/>
<text text-anchor="start" x="30" y="-283.55" font-family="Helvetica,sans-Serif" font-size="11.00">nonce</text>
<polygon fill="none" stroke="black" points="135,-277 135,-299 233,-299 233,-277 135,-277"/>
<text text-anchor="start" x="137.88" y="-283.55" font-family="Helvetica,sans-Serif" font-size="11.00">bytea[2147483647]</text>
<polygon fill="#ffffff" stroke="none" points="10,-255 10,-277 135,-277 135,-255 10,-255"/>
<polygon fill="none" stroke="black" points="10,-255 10,-277 135,-277 135,-255 10,-255"/>
<text text-anchor="start" x="30" y="-261.55" font-family="Helvetica,sans-Serif" font-size="11.00">number</text>
<polygon fill="none" stroke="black" points="135,-255 135,-277 233,-277 233,-255 135,-255"/>
<text text-anchor="start" x="138" y="-261.55" font-family="Helvetica,sans-Serif" font-size="11.00">int8[19]</text>
<polygon fill="#ffffff" stroke="none" points="10,-233 10,-255 135,-255 135,-233 10,-233"/>
<polygon fill="none" stroke="black" points="10,-233 10,-255 135,-255 135,-233 10,-233"/>
<text text-anchor="start" x="30" y="-239.55" font-family="Helvetica,sans-Serif" font-size="11.00">parent_hash</text>
<polygon fill="none" stroke="black" points="135,-233 135,-255 233,-255 233,-233 135,-233"/>
<text text-anchor="start" x="137.88" y="-239.55" font-family="Helvetica,sans-Serif" font-size="11.00">bytea[2147483647]</text>
<polygon fill="none" stroke="black" points="10,-211 10,-233 135,-233 135,-211 10,-211"/>
<text text-anchor="start" x="30" y="-217.55" font-family="Helvetica,sans-Serif" font-size="11.00">size</text>
<polygon fill="none" stroke="black" points="135,-211 135,-233 233,-233 233,-211 135,-211"/>
<text text-anchor="start" x="138" y="-217.55" font-family="Helvetica,sans-Serif" font-size="11.00">int4[10]</text>
<polygon fill="#ffffff" stroke="none" points="10,-189 10,-211 135,-211 135,-189 10,-189"/>
<polygon fill="none" stroke="black" points="10,-189 10,-211 135,-211 135,-189 10,-189"/>
<text text-anchor="start" x="30" y="-195.55" font-family="Helvetica,sans-Serif" font-size="11.00">timestamp</text>
<polygon fill="none" stroke="black" points="135,-189 135,-211 233,-211 233,-189 135,-189"/>
<text text-anchor="start" x="138" y="-195.55" font-family="Helvetica,sans-Serif" font-size="11.00">timestamp[29,6]</text>
<polygon fill="none" stroke="black" points="10,-167 10,-189 135,-189 135,-167 10,-167"/>
<text text-anchor="start" x="30" y="-173.55" font-family="Helvetica,sans-Serif" font-size="11.00">total_difficulty</text>
<polygon fill="none" stroke="black" points="135,-167 135,-189 233,-189 233,-167 135,-167"/>
<text text-anchor="start" x="138" y="-173.55" font-family="Helvetica,sans-Serif" font-size="11.00">numeric[50]</text>
<polygon fill="#ffffff" stroke="none" points="10,-145 10,-167 135,-167 135,-145 10,-145"/>
<polygon fill="none" stroke="black" points="10,-145 10,-167 135,-167 135,-145 10,-145"/>
<text text-anchor="start" x="30" y="-151.55" font-family="Helvetica,sans-Serif" font-size="11.00">inserted_at</text>
<polygon fill="none" stroke="black" points="135,-145 135,-167 233,-167 233,-145 135,-145"/>
<text text-anchor="start" x="138" y="-151.55" font-family="Helvetica,sans-Serif" font-size="11.00">timestamp[29,6]</text>
<polygon fill="none" stroke="black" points="10,-123 10,-145 135,-145 135,-123 10,-123"/>
<text text-anchor="start" x="30" y="-129.55" font-family="Helvetica,sans-Serif" font-size="11.00">updated_at</text>
<polygon fill="none" stroke="black" points="135,-123 135,-145 233,-145 233,-123 135,-123"/>
<text text-anchor="start" x="138" y="-129.55" font-family="Helvetica,sans-Serif" font-size="11.00">timestamp[29,6]</text>
<polygon fill="none" stroke="black" points="10,-101 10,-123 135,-123 135,-101 10,-101"/>
<text text-anchor="start" x="30" y="-107.55" font-family="Helvetica,sans-Serif" font-size="11.00">refetch_needed</text>
<polygon fill="none" stroke="black" points="135,-101 135,-123 233,-123 233,-101 135,-101"/>
<text text-anchor="start" x="138" y="-107.55" font-family="Helvetica,sans-Serif" font-size="11.00">bool[1]</text>
<polygon fill="none" stroke="black" points="10,-79 10,-101 135,-101 135,-79 10,-79"/>
<text text-anchor="start" x="30" y="-85.55" font-family="Helvetica,sans-Serif" font-size="11.00">base_fee_per_gas</text>
<polygon fill="none" stroke="black" points="135,-79 135,-101 233,-101 233,-79 135,-79"/>
<text text-anchor="start" x="138" y="-85.55" font-family="Helvetica,sans-Serif" font-size="11.00">numeric[100]</text>
<polygon fill="#ffffff" stroke="none" points="10,-57 10,-79 135,-79 135,-57 10,-57"/>
<polygon fill="none" stroke="black" points="10,-57 10,-79 135,-79 135,-57 10,-57"/>
<text text-anchor="start" x="30" y="-63.55" font-family="Helvetica,sans-Serif" font-size="11.00">is_empty</text>
<polygon fill="none" stroke="black" points="135,-57 135,-79 233,-79 233,-57 135,-57"/>
<text text-anchor="start" x="138" y="-63.55" font-family="Helvetica,sans-Serif" font-size="11.00">bool[1]</text>
<polygon fill="#ffffff" stroke="none" points="10,-39 10,-57 77,-57 77,-39 10,-39"/>
<polygon fill="none" stroke="black" points="10,-39 10,-57 77,-57 77,-39 10,-39"/>
<text text-anchor="start" x="13" y="-43.55" font-family="Helvetica,sans-Serif" font-size="11.00">&lt; 0</text>
<polygon fill="#ffffff" stroke="none" points="77,-39 77,-57 135,-57 135,-39 77,-39"/>
<polygon fill="none" stroke="black" points="77,-39 77,-57 135,-57 135,-39 77,-39"/>
<text text-anchor="start" x="126" y="-43.55" font-family="Helvetica,sans-Serif" font-size="11.00"> &#160;</text>
<polygon fill="#ffffff" stroke="none" points="135,-39 135,-57 233,-57 233,-39 135,-39"/>
<polygon fill="none" stroke="black" points="135,-39 135,-57 233,-57 233,-39 135,-39"/>
<text text-anchor="start" x="214.25" y="-43.55" font-family="Helvetica,sans-Serif" font-size="11.00">9 &gt;</text>
<polygon fill="none" stroke="black" stroke-width="2" points="9,-38 9,-454 234,-454 234,-38 9,-38"/>
</a>
</g>
</g>
<!-- block_rewards&#45;&gt;blocks -->
<g id="edge1" class="edge">
<title>block_rewards:w&#45;&gt;blocks:e</title>
<path fill="none" stroke="black" d="M301.35,-546.66C285.34,-537.83 286.73,-512.89 276,-489 246.42,-423.17 306.67,-332 234.5,-332"/>
<polygon fill="black" stroke="black" points="308.36,-548.21 315.4,-553.44 312.59,-549.14 315.85,-549.86 315.85,-549.86 315.85,-549.86 312.59,-549.14 316.95,-546.41 308.36,-548.21"/>
<ellipse fill="none" stroke="black" cx="303.56" cy="-547.15" rx="3.2" ry="3.2"/>
</g>
<!-- block_second_degree_relations -->
<g id="node3" class="node">
<title>block_second_degree_relations</title>
<g id="a_node3"><a xlink:href="../../tables/block_second_degree_relations.html" xlink:title="block_second_degree_relations" target="_top">
<polygon fill="#ffffff" stroke="none" points="524,-515 524,-573 745,-573 745,-515 524,-515"/>
<polygon fill="#f5f5f5" stroke="none" points="524,-551 524,-573 745,-573 745,-551 524,-551"/>
<polygon fill="none" stroke="black" points="524,-551 524,-573 745,-573 745,-551 524,-551"/>
<text text-anchor="start" x="529" y="-558.55" font-family="Helvetica,sans-Serif" font-weight="bold" font-size="11.00">block_second_degree_relations</text>
<text text-anchor="start" x="711" y="-557.55" font-family="Helvetica,sans-Serif" font-size="11.00">[table]</text>
<polygon fill="none" stroke="black" points="524,-533 524,-551 745,-551 745,-533 524,-533"/>
<text text-anchor="start" x="527" y="-537.55" font-family="Helvetica,sans-Serif" font-size="11.00">...</text>
<polygon fill="#ffffff" stroke="none" points="524,-515 524,-533 633,-533 633,-515 524,-515"/>
<polygon fill="none" stroke="black" points="524,-515 524,-533 633,-533 633,-515 524,-515"/>
<text text-anchor="start" x="527" y="-519.55" font-family="Helvetica,sans-Serif" font-size="11.00">&lt; 2</text>
<polygon fill="#ffffff" stroke="none" points="633,-515 633,-533 689,-533 689,-515 633,-515"/>
<polygon fill="none" stroke="black" points="633,-515 633,-533 689,-533 689,-515 633,-515"/>
<text text-anchor="start" x="680" y="-519.55" font-family="Helvetica,sans-Serif" font-size="11.00"> &#160;</text>
<polygon fill="#ffffff" stroke="none" points="689,-515 689,-533 745,-533 745,-515 689,-515"/>
<polygon fill="none" stroke="black" points="689,-515 689,-533 745,-533 745,-515 689,-515"/>
<text text-anchor="start" x="736" y="-519.55" font-family="Helvetica,sans-Serif" font-size="11.00"> &#160;</text>
</a>
</g>
</g>
<!-- block_second_degree_relations&#45;&gt;blocks -->
<g id="edge3" class="edge">
<title>block_second_degree_relations:w&#45;&gt;blocks:e</title>
<path fill="none" stroke="black" d="M677.44,-589.85C688,-622.65 566.32,-611.29 516,-577 482.85,-554.41 514.61,-517.69 483,-493 409.88,-435.89 346.96,-525.78 276,-466 228.32,-425.83 296.85,-332 234.5,-332"/>
<polygon fill="black" stroke="black" points="673.26,-583.84 671.65,-575.22 670.79,-580.28 668.88,-577.55 668.88,-577.55 668.88,-577.55 670.79,-580.28 665.74,-579.33 673.26,-583.84"/>
<ellipse fill="none" stroke="black" cx="676.07" cy="-587.88" rx="3.2" ry="3.2"/>
</g>
<!-- withdrawals -->
<g id="node4" class="node">
<title>withdrawals</title>
<g id="a_node4"><a xlink:href="../../tables/withdrawals.html" xlink:title="withdrawals" target="_top">
<polygon fill="#ffffff" stroke="none" points="326,-397 326,-455 433,-455 433,-397 326,-397"/>
<polygon fill="#f5f5f5" stroke="none" points="326,-433 326,-455 433,-455 433,-433 326,-433"/>
<polygon fill="none" stroke="black" points="326,-433 326,-455 433,-455 433,-433 326,-433"/>
<text text-anchor="start" x="331" y="-440.55" font-family="Helvetica,sans-Serif" font-weight="bold" font-size="11.00">withdrawals</text>
<text text-anchor="start" x="399" y="-439.55" font-family="Helvetica,sans-Serif" font-size="11.00">[table]</text>
<polygon fill="none" stroke="black" points="326,-415 326,-433 433,-433 433,-415 326,-415"/>
<text text-anchor="start" x="329" y="-419.55" font-family="Helvetica,sans-Serif" font-size="11.00">...</text>
<polygon fill="#ffffff" stroke="none" points="326,-397 326,-415 373,-415 373,-397 326,-397"/>
<polygon fill="none" stroke="black" points="326,-397 326,-415 373,-415 373,-397 326,-397"/>
<text text-anchor="start" x="329" y="-401.55" font-family="Helvetica,sans-Serif" font-size="11.00">&lt; 1</text>
<polygon fill="#ffffff" stroke="none" points="373,-397 373,-415 398,-415 398,-397 373,-397"/>
<polygon fill="none" stroke="black" points="373,-397 373,-415 398,-415 398,-397 373,-397"/>
<text text-anchor="start" x="389" y="-401.55" font-family="Helvetica,sans-Serif" font-size="11.00"> &#160;</text>
<polygon fill="#ffffff" stroke="none" points="398,-397 398,-415 433,-415 433,-397 398,-397"/>
<polygon fill="none" stroke="black" points="398,-397 398,-415 433,-415 433,-397 398,-397"/>
<text text-anchor="start" x="414.25" y="-401.55" font-family="Helvetica,sans-Serif" font-size="11.00">5 &gt;</text>
</a>
</g>
</g>
<!-- block_second_degree_relations&#45;&gt;withdrawals -->
<g id="edge2" class="edge">
<title>block_second_degree_relations:w&#45;&gt;withdrawals:e</title>
<path fill="none" stroke="black" stroke-dasharray="5,2" d="M520.06,-503.48C518.69,-502.66 517.34,-501.84 516,-501 498.7,-490.14 500.05,-480.26 483,-469 470.12,-460.49 455.28,-453.1 440.96,-446.96"/>
<polygon fill="black" stroke="black" points="526.65,-507.05 531.96,-514.04 530.46,-509.12 533.38,-510.71 533.38,-510.71 533.38,-510.71 530.46,-509.12 535.39,-507.71 526.65,-507.05"/>
<ellipse fill="none" stroke="black" cx="522.33" cy="-504.71" rx="3.2" ry="3.2"/>
</g>
<!-- withdrawals&#45;&gt;blocks -->
<g id="edge19" class="edge">
<title>withdrawals:w&#45;&gt;blocks:e</title>
<path fill="none" stroke="black" d="M303.75,-399.8C293.99,-394.92 284.46,-389.33 276,-383 252.6,-365.49 263.72,-332 234.5,-332"/>
<polygon fill="black" stroke="black" points="310.54,-402.94 316.29,-409.56 314.47,-404.76 317.5,-406.15 317.5,-406.15 317.5,-406.15 314.47,-404.76 319.31,-403.03 310.54,-402.94"/>
<ellipse fill="none" stroke="black" cx="306.07" cy="-400.87" rx="3.2" ry="3.2"/>
</g>
<!-- internal_transactions -->
<g id="node5" class="node">
<title>internal_transactions</title>
<g id="a_node5"><a xlink:href="../../tables/internal_transactions.html" xlink:title="internal_transactions" target="_top">
<polygon fill="#ffffff" stroke="none" points="794,-447 794,-505 954,-505 954,-447 794,-447"/>
<polygon fill="#f5f5f5" stroke="none" points="794,-483 794,-505 954,-505 954,-483 794,-483"/>
<polygon fill="none" stroke="black" points="794,-483 794,-505 954,-505 954,-483 794,-483"/>
<text text-anchor="start" x="799" y="-490.55" font-family="Helvetica,sans-Serif" font-weight="bold" font-size="11.00">internal_transactions</text>
<text text-anchor="start" x="920" y="-489.55" font-family="Helvetica,sans-Serif" font-size="11.00">[table]</text>
<polygon fill="none" stroke="black" points="794,-465 794,-483 954,-483 954,-465 794,-465"/>
<text text-anchor="start" x="797" y="-469.55" font-family="Helvetica,sans-Serif" font-size="11.00">...</text>
<polygon fill="#ffffff" stroke="none" points="794,-447 794,-465 872,-465 872,-447 794,-447"/>
<polygon fill="none" stroke="black" points="794,-447 794,-465 872,-465 872,-447 794,-447"/>
<text text-anchor="start" x="797" y="-451.55" font-family="Helvetica,sans-Serif" font-size="11.00">&lt; 4</text>
<polygon fill="#ffffff" stroke="none" points="872,-447 872,-465 913,-465 913,-447 872,-447"/>
<polygon fill="none" stroke="black" points="872,-447 872,-465 913,-465 913,-447 872,-447"/>
<text text-anchor="start" x="904" y="-451.55" font-family="Helvetica,sans-Serif" font-size="11.00"> &#160;</text>
<polygon fill="#ffffff" stroke="none" points="913,-447 913,-465 954,-465 954,-447 913,-447"/>
<polygon fill="none" stroke="black" points="913,-447 913,-465 954,-465 954,-447 913,-447"/>
<text text-anchor="start" x="945" y="-451.55" font-family="Helvetica,sans-Serif" font-size="11.00"> &#160;</text>
</a>
</g>
</g>
<!-- internal_transactions&#45;&gt;blocks -->
<g id="edge4" class="edge">
<title>internal_transactions:w&#45;&gt;blocks:e</title>
<path fill="none" stroke="black" d="M795.47,-434.4C792.2,-432 789.02,-429.53 786,-427 768.33,-412.21 773.33,-397.86 753,-387 741.25,-380.73 289.2,-340.78 276,-339 257.46,-336.51 253.2,-332 234.5,-332"/>
<polygon fill="black" stroke="black" points="801.59,-438.57 806.17,-446.05 805.17,-441.01 807.93,-442.89 807.93,-442.89 807.93,-442.89 805.17,-441.01 810.23,-440.1 801.59,-438.57"/>
<ellipse fill="none" stroke="black" cx="797.53" cy="-435.8" rx="3.2" ry="3.2"/>
</g>
<!-- internal_transactions&#45;&gt;withdrawals -->
<g id="edge5" class="edge">
<title>internal_transactions:w&#45;&gt;withdrawals:e</title>
<path fill="none" stroke="black" stroke-dasharray="5,2" d="M770.41,-475.08C698.71,-475.3 600.97,-473.5 516,-460 490.93,-456.02 463.98,-448.72 440.77,-441.83"/>
<polygon fill="black" stroke="black" points="777.88,-475.04 785.9,-478.6 782.22,-475.02 785.55,-475 785.55,-475 785.55,-475 782.22,-475.02 785.86,-471.4 777.88,-475.04"/>
<ellipse fill="none" stroke="black" cx="772.97" cy="-475.06" rx="3.2" ry="3.2"/>
</g>
<!-- internal_transactions&#45;&gt;withdrawals -->
<g id="edge7" class="edge">
<title>internal_transactions:w&#45;&gt;withdrawals:e</title>
<path fill="none" stroke="black" stroke-dasharray="5,2" d="M770.41,-486.01C698.71,-488.3 600.97,-486.5 516,-473 490.93,-469.02 463.98,-461.72 440.77,-453.97"/>
<polygon fill="black" stroke="black" points="777.89,-485.73 786.02,-489.03 782.22,-485.57 785.55,-485.44 785.55,-485.44 785.55,-485.44 782.22,-485.57 785.75,-481.83 777.89,-485.73"/>
<ellipse fill="none" stroke="black" cx="772.97" cy="-485.91" rx="3.2" ry="3.2"/>
</g>
<!-- transactions -->
<g id="node6" class="node">
<title>transactions</title>
<g id="a_node6"><a xlink:href="../../tables/transactions.html" xlink:title="transactions" target="_top">
<polygon fill="#ffffff" stroke="none" points="579.5,-291 579.5,-349 689.5,-349 689.5,-291 579.5,-291"/>
<polygon fill="#f5f5f5" stroke="none" points="579.5,-327 579.5,-349 689.5,-349 689.5,-327 579.5,-327"/>
<polygon fill="none" stroke="black" points="579.5,-327 579.5,-349 689.5,-349 689.5,-327 579.5,-327"/>
<text text-anchor="start" x="584.5" y="-334.55" font-family="Helvetica,sans-Serif" font-weight="bold" font-size="11.00">transactions</text>
<text text-anchor="start" x="655.5" y="-333.55" font-family="Helvetica,sans-Serif" font-size="11.00">[table]</text>
<polygon fill="none" stroke="black" points="579.5,-309 579.5,-327 689.5,-327 689.5,-309 579.5,-309"/>
<text text-anchor="start" x="582.5" y="-313.55" font-family="Helvetica,sans-Serif" font-size="11.00">...</text>
<polygon fill="#ffffff" stroke="none" points="579.5,-291 579.5,-309 628.5,-309 628.5,-291 579.5,-291"/>
<polygon fill="none" stroke="black" points="579.5,-291 579.5,-309 628.5,-309 628.5,-291 579.5,-291"/>
<text text-anchor="start" x="582.5" y="-295.55" font-family="Helvetica,sans-Serif" font-size="11.00">&lt; 2</text>
<polygon fill="#ffffff" stroke="none" points="628.5,-291 628.5,-309 654.5,-309 654.5,-291 628.5,-291"/>
<polygon fill="none" stroke="black" points="628.5,-291 628.5,-309 654.5,-309 654.5,-291 628.5,-291"/>
<text text-anchor="start" x="645.5" y="-295.55" font-family="Helvetica,sans-Serif" font-size="11.00"> &#160;</text>
<polygon fill="#ffffff" stroke="none" points="654.5,-291 654.5,-309 689.5,-309 689.5,-291 654.5,-291"/>
<polygon fill="none" stroke="black" points="654.5,-291 654.5,-309 689.5,-309 689.5,-291 654.5,-291"/>
<text text-anchor="start" x="670.75" y="-295.55" font-family="Helvetica,sans-Serif" font-size="11.00">5 &gt;</text>
</a>
</g>
</g>
<!-- internal_transactions&#45;&gt;transactions -->
<g id="edge6" class="edge">
<title>internal_transactions:w&#45;&gt;transactions:e</title>
<path fill="none" stroke="black" d="M792.7,-433.39C790.36,-431.33 788.12,-429.2 786,-427 763.79,-403.96 777,-384.17 753,-363 737.36,-349.21 716.93,-339.71 697.49,-333.23"/>
<polygon fill="black" stroke="black" points="798.47,-437.93 802.54,-445.7 801.88,-440.61 804.5,-442.67 804.5,-442.67 804.5,-442.67 801.88,-440.61 806.99,-440.04 798.47,-437.93"/>
<ellipse fill="none" stroke="black" cx="794.61" cy="-434.89" rx="3.2" ry="3.2"/>
</g>
<!-- transactions&#45;&gt;blocks -->
<g id="edge17" class="edge">
<title>transactions:w&#45;&gt;blocks:e</title>
<path fill="none" stroke="black" d="M556.01,-323.71C475.63,-327.24 346.3,-332 234.5,-332"/>
<polygon fill="black" stroke="black" points="563.33,-323.38 571.48,-326.62 567.66,-323.19 570.99,-323.04 570.99,-323.04 570.99,-323.04 567.66,-323.19 571.16,-319.43 563.33,-323.38"/>
<ellipse fill="none" stroke="black" cx="558.42" cy="-323.6" rx="3.2" ry="3.2"/>
</g>
<!-- transactions&#45;&gt;withdrawals -->
<g id="edge18" class="edge">
<title>transactions:w&#45;&gt;withdrawals:e</title>
<path fill="none" stroke="black" stroke-dasharray="5,2" d="M557.18,-351.98C519.92,-367.59 475.74,-386.1 440.88,-400.7"/>
<polygon fill="black" stroke="black" points="563.92,-349.15 572.69,-349.38 567.92,-347.48 570.99,-346.19 570.99,-346.19 570.99,-346.19 567.92,-347.48 569.91,-342.74 563.92,-349.15"/>
<ellipse fill="none" stroke="black" cx="559.39" cy="-351.05" rx="3.2" ry="3.2"/>
</g>
<!-- logs -->
<g id="node7" class="node">
<title>logs</title>
<g id="a_node7"><a xlink:href="../../tables/logs.html" xlink:title="logs" target="_top">
<polygon fill="#ffffff" stroke="none" points="842.5,-279 842.5,-337 905.5,-337 905.5,-279 842.5,-279"/>
<polygon fill="#f5f5f5" stroke="none" points="842.5,-315 842.5,-337 905.5,-337 905.5,-315 842.5,-315"/>
<polygon fill="none" stroke="black" points="842.5,-315 842.5,-337 905.5,-337 905.5,-315 842.5,-315"/>
<text text-anchor="start" x="846.25" y="-322.55" font-family="Helvetica,sans-Serif" font-weight="bold" font-size="11.00">logs</text>
<text text-anchor="start" x="871.5" y="-321.55" font-family="Helvetica,sans-Serif" font-size="11.00">[table]</text>
<polygon fill="none" stroke="black" points="842.5,-297 842.5,-315 905.5,-315 905.5,-297 842.5,-297"/>
<text text-anchor="start" x="845.5" y="-301.55" font-family="Helvetica,sans-Serif" font-size="11.00">...</text>
<polygon fill="#ffffff" stroke="none" points="842.5,-279 842.5,-297 872.5,-297 872.5,-279 842.5,-279"/>
<polygon fill="none" stroke="black" points="842.5,-279 842.5,-297 872.5,-297 872.5,-279 842.5,-279"/>
<text text-anchor="start" x="845.5" y="-283.55" font-family="Helvetica,sans-Serif" font-size="11.00">&lt; 2</text>
<polygon fill="#ffffff" stroke="none" points="872.5,-279 872.5,-297 888.5,-297 888.5,-279 872.5,-279"/>
<polygon fill="none" stroke="black" points="872.5,-279 872.5,-297 888.5,-297 888.5,-279 872.5,-279"/>
<text text-anchor="start" x="879.5" y="-283.55" font-family="Helvetica,sans-Serif" font-size="11.00"> &#160;</text>
<polygon fill="#ffffff" stroke="none" points="888.5,-279 888.5,-297 905.5,-297 905.5,-279 888.5,-279"/>
<polygon fill="none" stroke="black" points="888.5,-279 888.5,-297 905.5,-297 905.5,-279 888.5,-279"/>
<text text-anchor="start" x="896.5" y="-283.55" font-family="Helvetica,sans-Serif" font-size="11.00"> &#160;</text>
</a>
</g>
</g>
<!-- logs&#45;&gt;blocks -->
<g id="edge8" class="edge">
<title>logs:w&#45;&gt;blocks:e</title>
<path fill="none" stroke="black" d="M819.66,-293.34C799.01,-288.37 775.07,-283.45 753,-281 648.31,-269.37 619.97,-264.13 516,-281 500.74,-283.48 498.03,-288.4 483,-292 392.54,-313.68 367.5,-306.24 276,-323 257.44,-326.4 253.37,-332 234.5,-332"/>
<polygon fill="black" stroke="black" points="826.64,-295.09 833.53,-300.53 830.85,-296.14 834.08,-296.95 834.08,-296.95 834.08,-296.95 830.85,-296.14 835.28,-293.54 826.64,-295.09"/>
<ellipse fill="none" stroke="black" cx="821.87" cy="-293.89" rx="3.2" ry="3.2"/>
</g>
<!-- logs&#45;&gt;transactions -->
<g id="edge9" class="edge">
<title>logs:w&#45;&gt;transactions:e</title>
<path fill="none" stroke="black" d="M818.81,-310.74C782.55,-312.57 734.75,-314.99 697.05,-316.89"/>
<polygon fill="black" stroke="black" points="826.25,-310.36 834.43,-313.55 830.58,-310.14 833.91,-309.98 833.91,-309.98 833.91,-309.98 830.58,-310.14 834.06,-306.36 826.25,-310.36"/>
<ellipse fill="none" stroke="black" cx="821.34" cy="-310.61" rx="3.2" ry="3.2"/>
</g>
<!-- pending_block_operations -->
<g id="node8" class="node">
<title>pending_block_operations</title>
<g id="a_node8"><a xlink:href="../../tables/pending_block_operations.html" xlink:title="pending_block_operations" target="_top">
<polygon fill="#ffffff" stroke="none" points="284,-201 284,-281 475,-281 475,-201 284,-201"/>
<polygon fill="#f5f5f5" stroke="none" points="284,-259 284,-281 475,-281 475,-259 284,-259"/>
<polygon fill="none" stroke="black" points="284,-259 284,-281 475,-281 475,-259 284,-259"/>
<text text-anchor="start" x="289" y="-266.55" font-family="Helvetica,sans-Serif" font-weight="bold" font-size="11.00">pending_block_operations</text>
<text text-anchor="start" x="441" y="-265.55" font-family="Helvetica,sans-Serif" font-size="11.00">[table]</text>
<polygon fill="none" stroke="black" points="284,-237 284,-259 475,-259 475,-237 284,-237"/>
<image xlink:href="../../images/primaryKeys.png" width="11px" height="12px" preserveAspectRatio="xMinYMin meet" x="289" y="-254"/>
<text text-anchor="start" x="313" y="-243.55" font-family="Helvetica,sans-Serif" font-size="11.00">block_hash</text>
<polygon fill="none" stroke="black" points="284,-219 284,-237 475,-237 475,-219 284,-219"/>
<text text-anchor="start" x="287" y="-223.55" font-family="Helvetica,sans-Serif" font-size="11.00">...</text>
<polygon fill="#ffffff" stroke="none" points="284,-201 284,-219 378,-219 378,-201 284,-201"/>
<polygon fill="none" stroke="black" points="284,-201 284,-219 378,-219 378,-201 284,-201"/>
<text text-anchor="start" x="287" y="-205.55" font-family="Helvetica,sans-Serif" font-size="11.00">&lt; 1</text>
<polygon fill="#ffffff" stroke="none" points="378,-201 378,-219 426,-219 426,-201 378,-201"/>
<polygon fill="none" stroke="black" points="378,-201 378,-219 426,-219 426,-201 378,-201"/>
<text text-anchor="start" x="417" y="-205.55" font-family="Helvetica,sans-Serif" font-size="11.00"> &#160;</text>
<polygon fill="#ffffff" stroke="none" points="426,-201 426,-219 475,-219 475,-201 426,-201"/>
<polygon fill="none" stroke="black" points="426,-201 426,-219 475,-219 475,-201 426,-201"/>
<text text-anchor="start" x="466" y="-205.55" font-family="Helvetica,sans-Serif" font-size="11.00"> &#160;</text>
</a>
</g>
</g>
<!-- pending_block_operations&#45;&gt;blocks -->
<g id="edge10" class="edge">
<title>pending_block_operations:w&#45;&gt;blocks:e</title>
<path fill="none" stroke="black" d="M271.41,-250.61C246.62,-264.78 272.96,-332 234.5,-332"/>
<polygon fill="black" stroke="black" points="280.81,-244.29 282.64,-252.08 281.08,-252.44 279.25,-244.65 280.81,-244.29"/>
<polyline fill="none" stroke="black" points="282.5,-248 278.61,-248.91"/>
<ellipse fill="none" stroke="black" cx="275" cy="-249.76" rx="3.2" ry="3.2"/>
</g>
<!-- token_instances -->
<g id="node9" class="node">
<title>token_instances</title>
<g id="a_node9"><a xlink:href="../../tables/token_instances.html" xlink:title="token_instances" target="_top">
<polygon fill="#ffffff" stroke="none" points="568,-397 568,-455 701,-455 701,-397 568,-397"/>
<polygon fill="#f5f5f5" stroke="none" points="568,-433 568,-455 701,-455 701,-433 568,-433"/>
<polygon fill="none" stroke="black" points="568,-433 568,-455 701,-455 701,-433 568,-433"/>
<text text-anchor="start" x="573" y="-440.55" font-family="Helvetica,sans-Serif" font-weight="bold" font-size="11.00">token_instances</text>
<text text-anchor="start" x="667" y="-439.55" font-family="Helvetica,sans-Serif" font-size="11.00">[table]</text>
<polygon fill="none" stroke="black" points="568,-415 568,-433 701,-433 701,-415 568,-415"/>
<text text-anchor="start" x="571" y="-419.55" font-family="Helvetica,sans-Serif" font-size="11.00">...</text>
<polygon fill="#ffffff" stroke="none" points="568,-397 568,-415 633,-415 633,-397 568,-397"/>
<polygon fill="none" stroke="black" points="568,-397 568,-415 633,-415 633,-397 568,-397"/>
<text text-anchor="start" x="571" y="-401.55" font-family="Helvetica,sans-Serif" font-size="11.00">&lt; 2</text>
<polygon fill="#ffffff" stroke="none" points="633,-397 633,-415 667,-415 667,-397 633,-397"/>
<polygon fill="none" stroke="black" points="633,-397 633,-415 667,-415 667,-397 633,-397"/>
<text text-anchor="start" x="658" y="-401.55" font-family="Helvetica,sans-Serif" font-size="11.00"> &#160;</text>
<polygon fill="#ffffff" stroke="none" points="667,-397 667,-415 701,-415 701,-397 667,-397"/>
<polygon fill="none" stroke="black" points="667,-397 667,-415 701,-415 701,-397 667,-397"/>
<text text-anchor="start" x="692" y="-401.55" font-family="Helvetica,sans-Serif" font-size="11.00"> &#160;</text>
</a>
</g>
</g>
<!-- token_instances&#45;&gt;withdrawals -->
<g id="edge11" class="edge">
<title>token_instances:w&#45;&gt;withdrawals:e</title>
<path fill="none" stroke="black" stroke-dasharray="5,2" d="M550.79,-424.02C513.04,-424.13 472.73,-424.58 440.81,-425.02"/>
<polygon fill="black" stroke="black" points="558.17,-424.01 566.17,-427.6 562.5,-424.01 565.83,-424 565.83,-424 565.83,-424 562.5,-424.01 566.16,-420.4 558.17,-424.01"/>
<ellipse fill="none" stroke="black" cx="553.25" cy="-424.02" rx="3.2" ry="3.2"/>
</g>
<!-- token_transfers -->
<g id="node10" class="node">
<title>token_transfers</title>
<g id="a_node10"><a xlink:href="../../tables/token_transfers.html" xlink:title="token_transfers" target="_top">
<polygon fill="#ffffff" stroke="none" points="809.5,-200 809.5,-258 938.5,-258 938.5,-200 809.5,-200"/>
<polygon fill="#f5f5f5" stroke="none" points="809.5,-236 809.5,-258 938.5,-258 938.5,-236 809.5,-236"/>
<polygon fill="none" stroke="black" points="809.5,-236 809.5,-258 938.5,-258 938.5,-236 809.5,-236"/>
<text text-anchor="start" x="814.5" y="-243.55" font-family="Helvetica,sans-Serif" font-weight="bold" font-size="11.00">token_transfers</text>
<text text-anchor="start" x="904.5" y="-242.55" font-family="Helvetica,sans-Serif" font-size="11.00">[table]</text>
<polygon fill="none" stroke="black" points="809.5,-218 809.5,-236 938.5,-236 938.5,-218 809.5,-218"/>
<text text-anchor="start" x="812.5" y="-222.55" font-family="Helvetica,sans-Serif" font-size="11.00">...</text>
<polygon fill="#ffffff" stroke="none" points="809.5,-200 809.5,-218 872.5,-218 872.5,-200 809.5,-200"/>
<polygon fill="none" stroke="black" points="809.5,-200 809.5,-218 872.5,-218 872.5,-200 809.5,-200"/>
<text text-anchor="start" x="812.5" y="-204.55" font-family="Helvetica,sans-Serif" font-size="11.00">&lt; 2</text>
<polygon fill="#ffffff" stroke="none" points="872.5,-200 872.5,-218 905.5,-218 905.5,-200 872.5,-200"/>
<polygon fill="none" stroke="black" points="872.5,-200 872.5,-218 905.5,-218 905.5,-200 872.5,-200"/>
<text text-anchor="start" x="896.5" y="-204.55" font-family="Helvetica,sans-Serif" font-size="11.00"> &#160;</text>
<polygon fill="#ffffff" stroke="none" points="905.5,-200 905.5,-218 938.5,-218 938.5,-200 905.5,-200"/>
<polygon fill="none" stroke="black" points="905.5,-200 905.5,-218 938.5,-218 938.5,-200 905.5,-200"/>
<text text-anchor="start" x="929.5" y="-204.55" font-family="Helvetica,sans-Serif" font-size="11.00"> &#160;</text>
</a>
</g>
</g>
<!-- token_transfers&#45;&gt;blocks -->
<g id="edge12" class="edge">
<title>token_transfers:w&#45;&gt;blocks:e</title>
<path fill="none" stroke="black" d="M786.17,-210.13C640.3,-180.56 354.28,-132.44 276,-191 223.69,-230.13 299.82,-332 234.5,-332"/>
<polygon fill="black" stroke="black" points="793.38,-211.61 800.49,-216.74 797.63,-212.48 800.89,-213.15 800.89,-213.15 800.89,-213.15 797.63,-212.48 801.94,-209.69 793.38,-211.61"/>
<ellipse fill="none" stroke="black" cx="788.56" cy="-210.62" rx="3.2" ry="3.2"/>
</g>
<!-- token_transfers&#45;&gt;transactions -->
<g id="edge13" class="edge">
<title>token_transfers:w&#45;&gt;transactions:e</title>
<path fill="none" stroke="black" d="M787.01,-261.95C757.38,-273.3 724.79,-285.79 697.45,-296.26"/>
<polygon fill="black" stroke="black" points="793.96,-259.29 802.72,-259.78 798.01,-257.73 801.12,-256.54 801.12,-256.54 801.12,-256.54 798.01,-257.73 800.14,-253.06 793.96,-259.29"/>
<ellipse fill="none" stroke="black" cx="789.37" cy="-261.04" rx="3.2" ry="3.2"/>
</g>
<!-- transaction_actions -->
<g id="node11" class="node">
<title>transaction_actions</title>
<g id="a_node11"><a xlink:href="../../tables/transaction_actions.html" xlink:title="transaction_actions" target="_top">
<polygon fill="#ffffff" stroke="none" points="798,-358 798,-416 950,-416 950,-358 798,-358"/>
<polygon fill="#f5f5f5" stroke="none" points="798,-394 798,-416 950,-416 950,-394 798,-394"/>
<polygon fill="none" stroke="black" points="798,-394 798,-416 950,-416 950,-394 798,-394"/>
<text text-anchor="start" x="803" y="-401.55" font-family="Helvetica,sans-Serif" font-weight="bold" font-size="11.00">transaction_actions</text>
<text text-anchor="start" x="916" y="-400.55" font-family="Helvetica,sans-Serif" font-size="11.00">[table]</text>
<polygon fill="none" stroke="black" points="798,-376 798,-394 950,-394 950,-376 798,-376"/>
<text text-anchor="start" x="801" y="-380.55" font-family="Helvetica,sans-Serif" font-size="11.00">...</text>
<polygon fill="#ffffff" stroke="none" points="798,-358 798,-376 872,-376 872,-358 798,-358"/>
<polygon fill="none" stroke="black" points="798,-358 798,-376 872,-376 872,-358 798,-358"/>
<text text-anchor="start" x="801" y="-362.55" font-family="Helvetica,sans-Serif" font-size="11.00">&lt; 1</text>
<polygon fill="#ffffff" stroke="none" points="872,-358 872,-376 911,-376 911,-358 872,-358"/>
<polygon fill="none" stroke="black" points="872,-358 872,-376 911,-376 911,-358 872,-358"/>
<text text-anchor="start" x="902" y="-362.55" font-family="Helvetica,sans-Serif" font-size="11.00"> &#160;</text>
<polygon fill="#ffffff" stroke="none" points="911,-358 911,-376 950,-376 950,-358 911,-358"/>
<polygon fill="none" stroke="black" points="911,-358 911,-376 950,-376 950,-358 911,-358"/>
<text text-anchor="start" x="941" y="-362.55" font-family="Helvetica,sans-Serif" font-size="11.00"> &#160;</text>
</a>
</g>
</g>
<!-- transaction_actions&#45;&gt;transactions -->
<g id="edge14" class="edge">
<title>transaction_actions:w&#45;&gt;transactions:e</title>
<path fill="none" stroke="black" d="M781.77,-381.94C772.33,-377.49 767.12,-369.09 753,-363 735.15,-355.3 715.42,-347.73 697.3,-341.14"/>
<polygon fill="black" stroke="black" points="788.83,-383.36 795.96,-388.46 793.08,-384.21 796.34,-384.87 796.34,-384.87 796.34,-384.87 793.08,-384.21 797.38,-381.4 788.83,-383.36"/>
<ellipse fill="none" stroke="black" cx="784.01" cy="-382.39" rx="3.2" ry="3.2"/>
</g>
<!-- transaction_forks -->
<g id="node12" class="node">
<title>transaction_forks</title>
<g id="a_node12"><a xlink:href="../../tables/transaction_forks.html" xlink:title="transaction_forks" target="_top">
<polygon fill="#ffffff" stroke="none" points="804.5,-121 804.5,-179 943.5,-179 943.5,-121 804.5,-121"/>
<polygon fill="#f5f5f5" stroke="none" points="804.5,-157 804.5,-179 943.5,-179 943.5,-157 804.5,-157"/>
<polygon fill="none" stroke="black" points="804.5,-157 804.5,-179 943.5,-179 943.5,-157 804.5,-157"/>
<text text-anchor="start" x="809.5" y="-164.55" font-family="Helvetica,sans-Serif" font-weight="bold" font-size="11.00">transaction_forks</text>
<text text-anchor="start" x="909.5" y="-163.55" font-family="Helvetica,sans-Serif" font-size="11.00">[table]</text>
<polygon fill="none" stroke="black" points="804.5,-139 804.5,-157 943.5,-157 943.5,-139 804.5,-139"/>
<text text-anchor="start" x="807.5" y="-143.55" font-family="Helvetica,sans-Serif" font-size="11.00">...</text>
<polygon fill="#ffffff" stroke="none" points="804.5,-121 804.5,-139 872.5,-139 872.5,-121 804.5,-121"/>
<polygon fill="none" stroke="black" points="804.5,-121 804.5,-139 872.5,-139 872.5,-121 804.5,-121"/>
<text text-anchor="start" x="807.5" y="-125.55" font-family="Helvetica,sans-Serif" font-size="11.00">&lt; 2</text>
<polygon fill="#ffffff" stroke="none" points="872.5,-121 872.5,-139 907.5,-139 907.5,-121 872.5,-121"/>
<polygon fill="none" stroke="black" points="872.5,-121 872.5,-139 907.5,-139 907.5,-121 872.5,-121"/>
<text text-anchor="start" x="898.5" y="-125.55" font-family="Helvetica,sans-Serif" font-size="11.00"> &#160;</text>
<polygon fill="#ffffff" stroke="none" points="907.5,-121 907.5,-139 943.5,-139 943.5,-121 907.5,-121"/>
<polygon fill="none" stroke="black" points="907.5,-121 907.5,-139 943.5,-139 943.5,-121 907.5,-121"/>
<text text-anchor="start" x="934.5" y="-125.55" font-family="Helvetica,sans-Serif" font-size="11.00"> &#160;</text>
</a>
</g>
</g>
<!-- transaction_forks&#45;&gt;blocks -->
<g id="edge16" class="edge">
<title>transaction_forks:w&#45;&gt;blocks:e</title>
<path fill="none" stroke="black" d="M781.42,-120.53C653.35,-85.54 420.29,-45.37 276,-161 214.97,-209.91 312.71,-332 234.5,-332"/>
<polygon fill="black" stroke="black" points="788.48,-122.51 795.21,-128.13 792.65,-123.68 795.86,-124.58 795.86,-124.58 795.86,-124.58 792.65,-123.68 797.15,-121.2 788.48,-122.51"/>
<ellipse fill="none" stroke="black" cx="783.74" cy="-121.18" rx="3.2" ry="3.2"/>
</g>
<!-- transaction_forks&#45;&gt;transactions -->
<g id="edge15" class="edge">
<title>transaction_forks:w&#45;&gt;transactions:e</title>
<path fill="none" stroke="black" d="M784.55,-191.54C734.79,-224.8 694.75,-261.16 667.98,-287.13"/>
<polygon fill="black" stroke="black" points="790.78,-187.48 799.45,-186.13 794.41,-185.11 797.2,-183.29 797.2,-183.29 797.2,-183.29 794.41,-185.11 795.52,-180.1 790.78,-187.48"/>
<ellipse fill="none" stroke="black" cx="786.66" cy="-190.16" rx="3.2" ry="3.2"/>
</g>
</g>
</svg>
