<?xml version="1.0" encoding="UTF-8" standalone="no"?>
<!DOCTYPE svg PUBLIC "-//W3C//DTD SVG 1.1//EN"
 "http://www.w3.org/Graphics/SVG/1.1/DTD/svg11.dtd">
<!-- Generated by graphviz version 9.0.0 (20230911.1827)
 -->
<!-- Title: twoDegreesRelationshipsDiagram Pages: 1 -->
<svg width="712pt" height="605pt"
 viewBox="0.00 0.00 712.00 605.00" xmlns="http://www.w3.org/2000/svg" xmlns:xlink="http://www.w3.org/1999/xlink">
<g id="graph0" class="graph" transform="scale(1 1) rotate(0) translate(4 601)">
<title>twoDegreesRelationshipsDiagram</title>
<polygon fill="#ffffff" stroke="none" points="-4,4 -4,-601 708,-601 708,4 -4,4"/>
<text text-anchor="middle" x="71.38" y="-5.55" font-family="Helvetica,sans-Serif" font-size="11.00">Generated by SchemaSpy</text>
<!-- block_rewards -->
<g id="node1" class="node">
<title>block_rewards</title>
<g id="a_node1"><a xlink:href="../../tables/block_rewards.html" xlink:title="block_rewards" target="_top">
<polygon fill="#ffffff" stroke="none" points="273,-535 273,-593 396,-593 396,-535 273,-535"/>
<polygon fill="#f5f5f5" stroke="none" points="273,-571 273,-593 396,-593 396,-571 273,-571"/>
<polygon fill="none" stroke="black" points="273,-571 273,-593 396,-593 396,-571 273,-571"/>
<text text-anchor="start" x="278" y="-578.55" font-family="Helvetica,sans-Serif" font-weight="bold" font-size="11.00">block_rewards</text>
<text text-anchor="start" x="362" y="-577.55" font-family="Helvetica,sans-Serif" font-size="11.00">[table]</text>
<polygon fill="none" stroke="black" points="273,-553 273,-571 396,-571 396,-553 273,-553"/>
<text text-anchor="start" x="276" y="-557.55" font-family="Helvetica,sans-Serif" font-size="11.00">...</text>
<polygon fill="#ffffff" stroke="none" points="273,-535 273,-553 333,-553 333,-535 273,-535"/>
<polygon fill="none" stroke="black" points="273,-535 273,-553 333,-553 333,-535 273,-535"/>
<text text-anchor="start" x="276" y="-539.55" font-family="Helvetica,sans-Serif" font-size="11.00">&lt; 1</text>
<polygon fill="#ffffff" stroke="none" points="333,-535 333,-553 364,-553 364,-535 333,-535"/>
<polygon fill="none" stroke="black" points="333,-535 333,-553 364,-553 364,-535 333,-535"/>
<text text-anchor="start" x="355" y="-539.55" font-family="Helvetica,sans-Serif" font-size="11.00"> &#160;</text>
<polygon fill="#ffffff" stroke="none" points="364,-535 364,-553 396,-553 396,-535 364,-535"/>
<polygon fill="none" stroke="black" points="364,-535 364,-553 396,-553 396,-535 364,-535"/>
<text text-anchor="start" x="387" y="-539.55" font-family="Helvetica,sans-Serif" font-size="11.00"> &#160;</text>
</a>
</g>
</g>
<!-- blocks -->
<g id="node2" class="node">
<title>blocks</title>
<g id="a_node2"><a xlink:href="../../tables/blocks.html" xlink:title="blocks" target="_top">
<polygon fill="#ffffff" stroke="none" points="8,-97 8,-331 133,-331 133,-97 8,-97"/>
<polygon fill="#f5f5f5" stroke="none" points="8,-309 8,-331 133,-331 133,-309 8,-309"/>
<polygon fill="none" stroke="black" points="8,-309 8,-331 133,-331 133,-309 8,-309"/>
<text text-anchor="start" x="12.75" y="-316.55" font-family="Helvetica,sans-Serif" font-weight="bold" font-size="11.00">blocks</text>
<text text-anchor="start" x="98.75" y="-315.55" font-family="Helvetica,sans-Serif" font-size="11.00">[table]</text>
<polygon fill="#ffffff" stroke="none" points="8,-287 8,-309 133,-309 133,-287 8,-287"/>
<polygon fill="none" stroke="black" points="8,-287 8,-309 133,-309 133,-287 8,-287"/>
<text text-anchor="start" x="28" y="-293.55" font-family="Helvetica,sans-Serif" font-size="11.00">consensus</text>
<polygon fill="none" stroke="black" points="8,-265 8,-287 133,-287 133,-265 8,-265"/>
<image xlink:href="../../images/primaryKeys.png" width="11px" height="12px" preserveAspectRatio="xMinYMin meet" x="13" y="-282"/>
<text text-anchor="start" x="28" y="-271.55" font-family="Helvetica,sans-Serif" font-size="11.00">hash</text>
<polygon fill="#ffffff" stroke="none" points="8,-243 8,-265 133,-265 133,-243 8,-243"/>
<polygon fill="none" stroke="black" points="8,-243 8,-265 133,-265 133,-243 8,-243"/>
<text text-anchor="start" x="28" y="-249.55" font-family="Helvetica,sans-Serif" font-size="11.00">miner_hash</text>
<polygon fill="#ffffff" stroke="none" points="8,-221 8,-243 133,-243 133,-221 8,-221"/>
<polygon fill="none" stroke="black" points="8,-221 8,-243 133,-243 133,-221 8,-221"/>
<text text-anchor="start" x="28" y="-227.55" font-family="Helvetica,sans-Serif" font-size="11.00">number</text>
<polygon fill="#ffffff" stroke="none" points="8,-199 8,-221 133,-221 133,-199 8,-199"/>
<polygon fill="none" stroke="black" points="8,-199 8,-221 133,-221 133,-199 8,-199"/>
<text text-anchor="start" x="28" y="-205.55" font-family="Helvetica,sans-Serif" font-size="11.00">parent_hash</text>
<polygon fill="#ffffff" stroke="none" points="8,-177 8,-199 133,-199 133,-177 8,-177"/>
<polygon fill="none" stroke="black" points="8,-177 8,-199 133,-199 133,-177 8,-177"/>
<text text-anchor="start" x="28" y="-183.55" font-family="Helvetica,sans-Serif" font-size="11.00">timestamp</text>
<polygon fill="#ffffff" stroke="none" points="8,-155 8,-177 133,-177 133,-155 8,-155"/>
<polygon fill="none" stroke="black" points="8,-155 8,-177 133,-177 133,-155 8,-155"/>
<text text-anchor="start" x="28" y="-161.55" font-family="Helvetica,sans-Serif" font-size="11.00">inserted_at</text>
<polygon fill="#ffffff" stroke="none" points="8,-133 8,-155 133,-155 133,-133 8,-133"/>
<polygon fill="none" stroke="black" points="8,-133 8,-155 133,-155 133,-133 8,-133"/>
<text text-anchor="start" x="28" y="-139.55" font-family="Helvetica,sans-Serif" font-size="11.00">is_empty</text>
<polygon fill="none" stroke="black" points="8,-115 8,-133 133,-133 133,-115 8,-115"/>
<text text-anchor="start" x="11" y="-119.55" font-family="Helvetica,sans-Serif" font-size="11.00">...</text>
<polygon fill="#ffffff" stroke="none" points="8,-97 8,-115 60,-115 60,-97 8,-97"/>
<polygon fill="none" stroke="black" points="8,-97 8,-115 60,-115 60,-97 8,-97"/>
<text text-anchor="start" x="11" y="-101.55" font-family="Helvetica,sans-Serif" font-size="11.00"> &#160;</text>
<polygon fill="#ffffff" stroke="none" points="60,-97 60,-115 92,-115 92,-97 60,-97"/>
<polygon fill="none" stroke="black" points="60,-97 60,-115 92,-115 92,-97 60,-97"/>
<text text-anchor="start" x="83" y="-101.55" font-family="Helvetica,sans-Serif" font-size="11.00"> &#160;</text>
<polygon fill="#ffffff" stroke="none" points="92,-97 92,-115 133,-115 133,-97 92,-97"/>
<polygon fill="none" stroke="black" points="92,-97 92,-115 133,-115 133,-97 92,-97"/>
<text text-anchor="start" x="114.25" y="-101.55" font-family="Helvetica,sans-Serif" font-size="11.00">9 &gt;</text>
</a>
</g>
</g>
<!-- block_rewards&#45;&gt;blocks -->
<g id="edge1" class="edge">
<title>block_rewards:w&#45;&gt;blocks:e</title>
<path fill="none" stroke="black" d="M255.68,-561.89C219.74,-561.24 199.7,-556.61 174,-525 138.65,-481.53 190.53,-276 134.5,-276"/>
<polygon fill="black" stroke="black" points="263.17,-561.94 271.14,-565.6 267.5,-561.97 270.83,-562 270.83,-562 270.83,-562 267.5,-561.97 271.19,-558.4 263.17,-561.94"/>
<ellipse fill="none" stroke="black" cx="258.25" cy="-561.91" rx="3.2" ry="3.2"/>
</g>
<!-- block_second_degree_relations -->
<g id="node3" class="node">
<title>block_second_degree_relations</title>
<g id="a_node3"><a xlink:href="../../tables/block_second_degree_relations.html" xlink:title="block_second_degree_relations" target="_top">
<polygon fill="#ffffff" stroke="none" points="182,-382 182,-514 487,-514 487,-382 182,-382"/>
<polygon fill="#f5f5f5" stroke="none" points="184,-490 184,-512 485,-512 485,-490 184,-490"/>
<polygon fill="none" stroke="black" points="184,-490 184,-512 485,-512 485,-490 184,-490"/>
<text text-anchor="start" x="189" y="-497.55" font-family="Helvetica,sans-Serif" font-weight="bold" font-size="11.00">block_second_degree_relations</text>
<text text-anchor="start" x="450.75" y="-496.55" font-family="Helvetica,sans-Serif" font-size="11.00">[table]</text>
<polygon fill="none" stroke="black" points="184,-468 184,-490 387,-490 387,-468 184,-468"/>
<image xlink:href="../../images/primaryKeys.png" width="11px" height="12px" preserveAspectRatio="xMinYMin meet" x="189" y="-485"/>
<text text-anchor="start" x="204" y="-474.55" font-family="Helvetica,sans-Serif" font-size="11.00">nephew_hash</text>
<polygon fill="none" stroke="black" points="387,-468 387,-490 485,-490 485,-468 387,-468"/>
<text text-anchor="start" x="389.88" y="-474.55" font-family="Helvetica,sans-Serif" font-size="11.00">bytea[2147483647]</text>
<polygon fill="none" stroke="black" points="184,-446 184,-468 387,-468 387,-446 184,-446"/>
<image xlink:href="../../images/primaryKeys.png" width="11px" height="12px" preserveAspectRatio="xMinYMin meet" x="189" y="-463"/>
<text text-anchor="start" x="204" y="-452.55" font-family="Helvetica,sans-Serif" font-size="11.00">uncle_hash</text>
<polygon fill="none" stroke="black" points="387,-446 387,-468 485,-468 485,-446 387,-446"/>
<text text-anchor="start" x="389.88" y="-452.55" font-family="Helvetica,sans-Serif" font-size="11.00">bytea[2147483647]</text>
<polygon fill="none" stroke="black" points="184,-424 184,-446 387,-446 387,-424 184,-424"/>
<text text-anchor="start" x="204" y="-430.55" font-family="Helvetica,sans-Serif" font-size="11.00">uncle_fetched_at</text>
<polygon fill="none" stroke="black" points="387,-424 387,-446 485,-446 485,-424 387,-424"/>
<text text-anchor="start" x="390" y="-430.55" font-family="Helvetica,sans-Serif" font-size="11.00">timestamp[29,6]</text>
<polygon fill="none" stroke="black" points="184,-402 184,-424 387,-424 387,-402 184,-402"/>
<image xlink:href="../../images/foreignKeys.png" width="11px" height="12px" preserveAspectRatio="xMinYMin meet" x="189" y="-419"/>
<text text-anchor="start" x="204" y="-408.55" font-family="Helvetica,sans-Serif" font-size="11.00">index</text>
<polygon fill="none" stroke="black" points="387,-402 387,-424 485,-424 485,-402 387,-402"/>
<text text-anchor="start" x="390" y="-408.55" font-family="Helvetica,sans-Serif" font-size="11.00">int4[10]</text>
<polygon fill="#ffffff" stroke="none" points="184,-384 184,-402 290,-402 290,-384 184,-384"/>
<polygon fill="none" stroke="black" points="184,-384 184,-402 290,-402 290,-384 184,-384"/>
<text text-anchor="start" x="187" y="-388.55" font-family="Helvetica,sans-Serif" font-size="11.00">&lt; 1</text>
<polygon fill="#ffffff" stroke="none" points="290,-384 290,-402 387,-402 387,-384 290,-384"/>
<polygon fill="none" stroke="black" points="290,-384 290,-402 387,-402 387,-384 290,-384"/>
<text text-anchor="start" x="378" y="-388.55" font-family="Helvetica,sans-Serif" font-size="11.00"> &#160;</text>
<polygon fill="#ffffff" stroke="none" points="387,-384 387,-402 485,-402 485,-384 387,-384"/>
<polygon fill="none" stroke="black" points="387,-384 387,-402 485,-402 485,-384 387,-384"/>
<text text-anchor="start" x="466.25" y="-388.55" font-family="Helvetica,sans-Serif" font-size="11.00">0 &gt;</text>
<polygon fill="none" stroke="black" stroke-width="2" points="183,-383 183,-513 486,-513 486,-383 183,-383"/>
</a>
</g>
</g>
<!-- block_second_degree_relations&#45;&gt;blocks -->
<g id="edge2" class="edge">
<title>block_second_degree_relations:w&#45;&gt;blocks:e</title>
<path fill="none" stroke="black" d="M166.94,-476.43C107.03,-452.93 221.05,-276 134.5,-276"/>
<polygon fill="black" stroke="black" points="174.28,-477.64 181.58,-482.5 178.55,-478.35 181.84,-478.89 181.84,-478.89 181.84,-478.89 178.55,-478.35 182.76,-475.39 174.28,-477.64"/>
<ellipse fill="none" stroke="black" cx="169.42" cy="-476.84" rx="3.2" ry="3.2"/>
</g>
<!-- internal_transactions -->
<g id="node4" class="node">
<title>internal_transactions</title>
<g id="a_node4"><a xlink:href="../../tables/internal_transactions.html" xlink:title="internal_transactions" target="_top">
<polygon fill="#ffffff" stroke="none" points="536,-330 536,-388 696,-388 696,-330 536,-330"/>
<polygon fill="#f5f5f5" stroke="none" points="536,-366 536,-388 696,-388 696,-366 536,-366"/>
<polygon fill="none" stroke="black" points="536,-366 536,-388 696,-388 696,-366 536,-366"/>
<text text-anchor="start" x="541" y="-373.55" font-family="Helvetica,sans-Serif" font-weight="bold" font-size="11.00">internal_transactions</text>
<text text-anchor="start" x="662" y="-372.55" font-family="Helvetica,sans-Serif" font-size="11.00">[table]</text>
<polygon fill="none" stroke="black" points="536,-348 536,-366 696,-366 696,-348 536,-348"/>
<text text-anchor="start" x="539" y="-352.55" font-family="Helvetica,sans-Serif" font-size="11.00">...</text>
<polygon fill="#ffffff" stroke="none" points="536,-330 536,-348 614,-348 614,-330 536,-330"/>
<polygon fill="none" stroke="black" points="536,-330 536,-348 614,-348 614,-330 536,-330"/>
<text text-anchor="start" x="539" y="-334.55" font-family="Helvetica,sans-Serif" font-size="11.00">&lt; 2</text>
<polygon fill="#ffffff" stroke="none" points="614,-330 614,-348 655,-348 655,-330 614,-330"/>
<polygon fill="none" stroke="black" points="614,-330 614,-348 655,-348 655,-330 614,-330"/>
<text text-anchor="start" x="646" y="-334.55" font-family="Helvetica,sans-Serif" font-size="11.00"> &#160;</text>
<polygon fill="#ffffff" stroke="none" points="655,-330 655,-348 696,-348 696,-330 655,-330"/>
<polygon fill="none" stroke="black" points="655,-330 655,-348 696,-348 696,-330 655,-330"/>
<text text-anchor="start" x="687" y="-334.55" font-family="Helvetica,sans-Serif" font-size="11.00"> &#160;</text>
</a>
</g>
</g>
<!-- internal_transactions&#45;&gt;blocks -->
<g id="edge3" class="edge">
<title>internal_transactions:w&#45;&gt;blocks:e</title>
<path fill="none" stroke="black" d="M519.31,-357.19C430,-359.07 239.46,-373.77 174,-336 146.35,-320.04 166.43,-276 134.5,-276"/>
<polygon fill="black" stroke="black" points="526.67,-357.1 534.71,-360.6 531,-357.05 534.33,-357.01 534.33,-357.01 534.33,-357.01 531,-357.05 534.62,-353.4 526.67,-357.1"/>
<ellipse fill="none" stroke="black" cx="521.75" cy="-357.16" rx="3.2" ry="3.2"/>
</g>
<!-- transactions -->
<g id="node5" class="node">
<title>transactions</title>
<g id="a_node5"><a xlink:href="../../tables/transactions.html" xlink:title="transactions" target="_top">
<polygon fill="#ffffff" stroke="none" points="279.5,-249 279.5,-307 389.5,-307 389.5,-249 279.5,-249"/>
<polygon fill="#f5f5f5" stroke="none" points="279.5,-285 279.5,-307 389.5,-307 389.5,-285 279.5,-285"/>
<polygon fill="none" stroke="black" points="279.5,-285 279.5,-307 389.5,-307 389.5,-285 279.5,-285"/>
<text text-anchor="start" x="284.5" y="-292.55" font-family="Helvetica,sans-Serif" font-weight="bold" font-size="11.00">transactions</text>
<text text-anchor="start" x="355.5" y="-291.55" font-family="Helvetica,sans-Serif" font-size="11.00">[table]</text>
<polygon fill="none" stroke="black" points="279.5,-267 279.5,-285 389.5,-285 389.5,-267 279.5,-267"/>
<text text-anchor="start" x="282.5" y="-271.55" font-family="Helvetica,sans-Serif" font-size="11.00">...</text>
<polygon fill="#ffffff" stroke="none" points="279.5,-249 279.5,-267 328.5,-267 328.5,-249 279.5,-249"/>
<polygon fill="none" stroke="black" points="279.5,-249 279.5,-267 328.5,-267 328.5,-249 279.5,-249"/>
<text text-anchor="start" x="282.5" y="-253.55" font-family="Helvetica,sans-Serif" font-size="11.00">&lt; 1</text>
<polygon fill="#ffffff" stroke="none" points="328.5,-249 328.5,-267 354.5,-267 354.5,-249 328.5,-249"/>
<polygon fill="none" stroke="black" points="328.5,-249 328.5,-267 354.5,-267 354.5,-249 328.5,-249"/>
<text text-anchor="start" x="345.5" y="-253.55" font-family="Helvetica,sans-Serif" font-size="11.00"> &#160;</text>
<polygon fill="#ffffff" stroke="none" points="354.5,-249 354.5,-267 389.5,-267 389.5,-249 354.5,-249"/>
<polygon fill="none" stroke="black" points="354.5,-249 354.5,-267 389.5,-267 389.5,-249 354.5,-249"/>
<text text-anchor="start" x="370.75" y="-253.55" font-family="Helvetica,sans-Serif" font-size="11.00">5 &gt;</text>
</a>
</g>
</g>
<!-- internal_transactions&#45;&gt;transactions -->
<g id="edge4" class="edge">
<title>internal_transactions:w&#45;&gt;transactions:e</title>
<path fill="none" stroke="black" d="M519.44,-355.66C461.35,-345.13 458.52,-276 390.5,-276"/>
<polygon fill="black" stroke="black" points="526.7,-356.29 534.36,-360.56 531.01,-356.66 534.33,-356.94 534.33,-356.94 534.33,-356.94 531.01,-356.66 534.98,-353.38 526.7,-356.29"/>
<ellipse fill="none" stroke="black" cx="521.8" cy="-355.86" rx="3.2" ry="3.2"/>
</g>
<!-- transactions&#45;&gt;blocks -->
<g id="edge12" class="edge">
<title>transactions:w&#45;&gt;blocks:e</title>
<path fill="none" stroke="black" d="M262.67,-276C211.32,-276 192.88,-276 134.5,-276"/>
<polygon fill="black" stroke="black" points="270.17,-276 278.17,-279.6 274.5,-276 277.83,-276 277.83,-276 277.83,-276 274.5,-276 278.17,-272.4 270.17,-276"/>
<ellipse fill="none" stroke="black" cx="265.25" cy="-276" rx="3.2" ry="3.2"/>
</g>
<!-- logs -->
<g id="node6" class="node">
<title>logs</title>
<g id="a_node6"><a xlink:href="../../tables/logs.html" xlink:title="logs" target="_top">
<polygon fill="#ffffff" stroke="none" points="584.5,-251 584.5,-309 647.5,-309 647.5,-251 584.5,-251"/>
<polygon fill="#f5f5f5" stroke="none" points="584.5,-287 584.5,-309 647.5,-309 647.5,-287 584.5,-287"/>
<polygon fill="none" stroke="black" points="584.5,-287 584.5,-309 647.5,-309 647.5,-287 584.5,-287"/>
<text text-anchor="start" x="588.25" y="-294.55" font-family="Helvetica,sans-Serif" font-weight="bold" font-size="11.00">logs</text>
<text text-anchor="start" x="613.5" y="-293.55" font-family="Helvetica,sans-Serif" font-size="11.00">[table]</text>
<polygon fill="none" stroke="black" points="584.5,-269 584.5,-287 647.5,-287 647.5,-269 584.5,-269"/>
<text text-anchor="start" x="587.5" y="-273.55" font-family="Helvetica,sans-Serif" font-size="11.00">...</text>
<polygon fill="#ffffff" stroke="none" points="584.5,-251 584.5,-269 614.5,-269 614.5,-251 584.5,-251"/>
<polygon fill="none" stroke="black" points="584.5,-251 584.5,-269 614.5,-269 614.5,-251 584.5,-251"/>
<text text-anchor="start" x="587.5" y="-255.55" font-family="Helvetica,sans-Serif" font-size="11.00">&lt; 2</text>
<polygon fill="#ffffff" stroke="none" points="614.5,-251 614.5,-269 630.5,-269 630.5,-251 614.5,-251"/>
<polygon fill="none" stroke="black" points="614.5,-251 614.5,-269 630.5,-269 630.5,-251 614.5,-251"/>
<text text-anchor="start" x="621.5" y="-255.55" font-family="Helvetica,sans-Serif" font-size="11.00"> &#160;</text>
<polygon fill="#ffffff" stroke="none" points="630.5,-251 630.5,-269 647.5,-269 647.5,-251 630.5,-251"/>
<polygon fill="none" stroke="black" points="630.5,-251 630.5,-269 647.5,-269 647.5,-251 630.5,-251"/>
<text text-anchor="start" x="638.5" y="-255.55" font-family="Helvetica,sans-Serif" font-size="11.00"> &#160;</text>
</a>
</g>
</g>
<!-- logs&#45;&gt;blocks -->
<g id="edge5" class="edge">
<title>logs:w&#45;&gt;blocks:e</title>
<path fill="none" stroke="black" d="M567.42,-279.6C538.48,-286.04 531.25,-310.15 495,-318 425.28,-333.1 239.48,-346.31 174,-318 150.48,-307.83 160.13,-276 134.5,-276"/>
<polygon fill="black" stroke="black" points="574.71,-278.85 583.03,-281.62 579.02,-278.41 582.33,-278.07 582.33,-278.07 582.33,-278.07 579.02,-278.41 582.3,-274.45 574.71,-278.85"/>
<ellipse fill="none" stroke="black" cx="569.82" cy="-279.35" rx="3.2" ry="3.2"/>
</g>
<!-- logs&#45;&gt;transactions -->
<g id="edge6" class="edge">
<title>logs:w&#45;&gt;transactions:e</title>
<path fill="none" stroke="black" d="M567.22,-277.98C494.42,-277.75 470.55,-276 390.5,-276"/>
<polygon fill="black" stroke="black" points="574.67,-277.99 582.66,-281.6 579,-277.99 582.33,-278 582.33,-278 582.33,-278 579,-277.99 582.67,-274.4 574.67,-277.99"/>
<ellipse fill="none" stroke="black" cx="569.75" cy="-277.98" rx="3.2" ry="3.2"/>
</g>
<!-- pending_block_operations -->
<g id="node7" class="node">
<title>pending_block_operations</title>
<g id="a_node7"><a xlink:href="../../tables/pending_block_operations.html" xlink:title="pending_block_operations" target="_top">
<polygon fill="#ffffff" stroke="none" points="239,-170 239,-228 430,-228 430,-170 239,-170"/>
<polygon fill="#f5f5f5" stroke="none" points="239,-206 239,-228 430,-228 430,-206 239,-206"/>
<polygon fill="none" stroke="black" points="239,-206 239,-228 430,-228 430,-206 239,-206"/>
<text text-anchor="start" x="244" y="-213.55" font-family="Helvetica,sans-Serif" font-weight="bold" font-size="11.00">pending_block_operations</text>
<text text-anchor="start" x="396" y="-212.55" font-family="Helvetica,sans-Serif" font-size="11.00">[table]</text>
<polygon fill="none" stroke="black" points="239,-188 239,-206 430,-206 430,-188 239,-188"/>
<text text-anchor="start" x="242" y="-192.55" font-family="Helvetica,sans-Serif" font-size="11.00">...</text>
<polygon fill="#ffffff" stroke="none" points="239,-170 239,-188 333,-188 333,-170 239,-170"/>
<polygon fill="none" stroke="black" points="239,-170 239,-188 333,-188 333,-170 239,-170"/>
<text text-anchor="start" x="242" y="-174.55" font-family="Helvetica,sans-Serif" font-size="11.00">&lt; 1</text>
<polygon fill="#ffffff" stroke="none" points="333,-170 333,-188 381,-188 381,-170 333,-170"/>
<polygon fill="none" stroke="black" points="333,-170 333,-188 381,-188 381,-170 333,-170"/>
<text text-anchor="start" x="372" y="-174.55" font-family="Helvetica,sans-Serif" font-size="11.00"> &#160;</text>
<polygon fill="#ffffff" stroke="none" points="381,-170 381,-188 430,-188 430,-170 381,-170"/>
<polygon fill="none" stroke="black" points="381,-170 381,-188 430,-188 430,-170 381,-170"/>
<text text-anchor="start" x="421" y="-174.55" font-family="Helvetica,sans-Serif" font-size="11.00"> &#160;</text>
</a>
</g>
</g>
<!-- pending_block_operations&#45;&gt;blocks -->
<g id="edge7" class="edge">
<title>pending_block_operations:w&#45;&gt;blocks:e</title>
<path fill="none" stroke="black" d="M226.15,-197.94C202.52,-202.26 197.23,-220.65 174,-239 155.12,-253.91 158.55,-276 134.5,-276"/>
<polygon fill="black" stroke="black" points="236.37,-193.08 237.03,-201.05 235.44,-201.19 234.78,-193.21 236.37,-193.08"/>
<polyline fill="none" stroke="black" points="237.5,-197 233.51,-197.33"/>
<ellipse fill="none" stroke="black" cx="229.83" cy="-197.64" rx="3.2" ry="3.2"/>
</g>
<!-- token_transfers -->
<g id="node8" class="node">
<title>token_transfers</title>
<g id="a_node8"><a xlink:href="../../tables/token_transfers.html" xlink:title="token_transfers" target="_top">
<polygon fill="#ffffff" stroke="none" points="551.5,-172 551.5,-230 680.5,-230 680.5,-172 551.5,-172"/>
<polygon fill="#f5f5f5" stroke="none" points="551.5,-208 551.5,-230 680.5,-230 680.5,-208 551.5,-208"/>
<polygon fill="none" stroke="black" points="551.5,-208 551.5,-230 680.5,-230 680.5,-208 551.5,-208"/>
<text text-anchor="start" x="556.5" y="-215.55" font-family="Helvetica,sans-Serif" font-weight="bold" font-size="11.00">token_transfers</text>
<text text-anchor="start" x="646.5" y="-214.55" font-family="Helvetica,sans-Serif" font-size="11.00">[table]</text>
<polygon fill="none" stroke="black" points="551.5,-190 551.5,-208 680.5,-208 680.5,-190 551.5,-190"/>
<text text-anchor="start" x="554.5" y="-194.55" font-family="Helvetica,sans-Serif" font-size="11.00">...</text>
<polygon fill="#ffffff" stroke="none" points="551.5,-172 551.5,-190 614.5,-190 614.5,-172 551.5,-172"/>
<polygon fill="none" stroke="black" points="551.5,-172 551.5,-190 614.5,-190 614.5,-172 551.5,-172"/>
<text text-anchor="start" x="554.5" y="-176.55" font-family="Helvetica,sans-Serif" font-size="11.00">&lt; 2</text>
<polygon fill="#ffffff" stroke="none" points="614.5,-172 614.5,-190 647.5,-190 647.5,-172 614.5,-172"/>
<polygon fill="none" stroke="black" points="614.5,-172 614.5,-190 647.5,-190 647.5,-172 614.5,-172"/>
<text text-anchor="start" x="638.5" y="-176.55" font-family="Helvetica,sans-Serif" font-size="11.00"> &#160;</text>
<polygon fill="#ffffff" stroke="none" points="647.5,-172 647.5,-190 680.5,-190 680.5,-172 647.5,-172"/>
<polygon fill="none" stroke="black" points="647.5,-172 647.5,-190 680.5,-190 680.5,-172 647.5,-172"/>
<text text-anchor="start" x="671.5" y="-176.55" font-family="Helvetica,sans-Serif" font-size="11.00"> &#160;</text>
</a>
</g>
</g>
<!-- token_transfers&#45;&gt;blocks -->
<g id="edge8" class="edge">
<title>token_transfers:w&#45;&gt;blocks:e</title>
<path fill="none" stroke="black" d="M534.89,-195.48C520.09,-187.31 517.53,-167.18 495,-160 427.03,-138.35 232,-118.48 174,-160 129.72,-191.7 188.96,-276 134.5,-276"/>
<polygon fill="black" stroke="black" points="541.88,-197.11 548.86,-202.43 546.1,-198.09 549.35,-198.85 549.35,-198.85 549.35,-198.85 546.1,-198.09 550.49,-195.42 541.88,-197.11"/>
<ellipse fill="none" stroke="black" cx="537.09" cy="-196" rx="3.2" ry="3.2"/>
</g>
<!-- token_transfers&#45;&gt;transactions -->
<g id="edge9" class="edge">
<title>token_transfers:w&#45;&gt;transactions:e</title>
<path fill="none" stroke="black" d="M534.6,-202.11C519.33,-209.41 516.1,-227.89 495,-239 451.4,-261.95 439.77,-276 390.5,-276"/>
<polygon fill="black" stroke="black" points="541.83,-200.65 550.38,-202.6 546.08,-199.79 549.34,-199.13 549.34,-199.13 549.34,-199.13 546.08,-199.79 548.96,-195.54 541.83,-200.65"/>
<ellipse fill="none" stroke="black" cx="537.01" cy="-201.62" rx="3.2" ry="3.2"/>
</g>
<!-- transaction_forks -->
<g id="node9" class="node">
<title>transaction_forks</title>
<g id="a_node9"><a xlink:href="../../tables/transaction_forks.html" xlink:title="transaction_forks" target="_top">
<polygon fill="#ffffff" stroke="none" points="546.5,-93 546.5,-151 685.5,-151 685.5,-93 546.5,-93"/>
<polygon fill="#f5f5f5" stroke="none" points="546.5,-129 546.5,-151 685.5,-151 685.5,-129 546.5,-129"/>
<polygon fill="none" stroke="black" points="546.5,-129 546.5,-151 685.5,-151 685.5,-129 546.5,-129"/>
<text text-anchor="start" x="551.5" y="-136.55" font-family="Helvetica,sans-Serif" font-weight="bold" font-size="11.00">transaction_forks</text>
<text text-anchor="start" x="651.5" y="-135.55" font-family="Helvetica,sans-Serif" font-size="11.00">[table]</text>
<polygon fill="none" stroke="black" points="546.5,-111 546.5,-129 685.5,-129 685.5,-111 546.5,-111"/>
<text text-anchor="start" x="549.5" y="-115.55" font-family="Helvetica,sans-Serif" font-size="11.00">...</text>
<polygon fill="#ffffff" stroke="none" points="546.5,-93 546.5,-111 614.5,-111 614.5,-93 546.5,-93"/>
<polygon fill="none" stroke="black" points="546.5,-93 546.5,-111 614.5,-111 614.5,-93 546.5,-93"/>
<text text-anchor="start" x="549.5" y="-97.55" font-family="Helvetica,sans-Serif" font-size="11.00">&lt; 2</text>
<polygon fill="#ffffff" stroke="none" points="614.5,-93 614.5,-111 649.5,-111 649.5,-93 614.5,-93"/>
<polygon fill="none" stroke="black" points="614.5,-93 614.5,-111 649.5,-111 649.5,-93 614.5,-93"/>
<text text-anchor="start" x="640.5" y="-97.55" font-family="Helvetica,sans-Serif" font-size="11.00"> &#160;</text>
<polygon fill="#ffffff" stroke="none" points="649.5,-93 649.5,-111 685.5,-111 685.5,-93 649.5,-93"/>
<polygon fill="none" stroke="black" points="649.5,-93 649.5,-111 685.5,-111 685.5,-93 649.5,-93"/>
<text text-anchor="start" x="676.5" y="-97.55" font-family="Helvetica,sans-Serif" font-size="11.00"> &#160;</text>
</a>
</g>
</g>
<!-- transaction_forks&#45;&gt;blocks -->
<g id="edge11" class="edge">
<title>transaction_forks:w&#45;&gt;blocks:e</title>
<path fill="none" stroke="black" d="M529.5,-119.74C455.68,-118 203.67,-108.61 174,-132 121.89,-173.09 200.86,-276 134.5,-276"/>
<polygon fill="black" stroke="black" points="536.67,-119.86 544.61,-123.59 541,-119.93 544.33,-119.99 544.33,-119.99 544.33,-119.99 541,-119.93 544.72,-116.39 536.67,-119.86"/>
<ellipse fill="none" stroke="black" cx="531.75" cy="-119.78" rx="3.2" ry="3.2"/>
</g>
<!-- transaction_forks&#45;&gt;transactions -->
<g id="edge10" class="edge">
<title>transaction_forks:w&#45;&gt;transactions:e</title>
<path fill="none" stroke="black" d="M529.74,-122.7C497.28,-136.93 532.15,-203.92 495,-239 459.17,-272.82 439.77,-276 390.5,-276"/>
<polygon fill="black" stroke="black" points="536.79,-121.45 545.3,-123.6 541.06,-120.7 544.34,-120.12 544.34,-120.12 544.34,-120.12 541.06,-120.7 544.04,-116.51 536.79,-121.45"/>
<ellipse fill="none" stroke="black" cx="531.95" cy="-122.31" rx="3.2" ry="3.2"/>
</g>
<!-- withdrawals -->
<g id="node10" class="node">
<title>withdrawals</title>
<g id="a_node10"><a xlink:href="../../tables/withdrawals.html" xlink:title="withdrawals" target="_top">
<polygon fill="#ffffff" stroke="none" points="281,-37 281,-95 388,-95 388,-37 281,-37"/>
<polygon fill="#f5f5f5" stroke="none" points="281,-73 281,-95 388,-95 388,-73 281,-73"/>
<polygon fill="none" stroke="black" points="281,-73 281,-95 388,-95 388,-73 281,-73"/>
<text text-anchor="start" x="286" y="-80.55" font-family="Helvetica,sans-Serif" font-weight="bold" font-size="11.00">withdrawals</text>
<text text-anchor="start" x="354" y="-79.55" font-family="Helvetica,sans-Serif" font-size="11.00">[table]</text>
<polygon fill="none" stroke="black" points="281,-55 281,-73 388,-73 388,-55 281,-55"/>
<text text-anchor="start" x="284" y="-59.55" font-family="Helvetica,sans-Serif" font-size="11.00">...</text>
<polygon fill="#ffffff" stroke="none" points="281,-37 281,-55 333,-55 333,-37 281,-37"/>
<polygon fill="none" stroke="black" points="281,-37 281,-55 333,-55 333,-37 281,-37"/>
<text text-anchor="start" x="284" y="-41.55" font-family="Helvetica,sans-Serif" font-size="11.00">&lt; 1</text>
<polygon fill="#ffffff" stroke="none" points="333,-37 333,-55 360,-55 360,-37 333,-37"/>
<polygon fill="none" stroke="black" points="333,-37 333,-55 360,-55 360,-37 333,-37"/>
<text text-anchor="start" x="351" y="-41.55" font-family="Helvetica,sans-Serif" font-size="11.00"> &#160;</text>
<polygon fill="#ffffff" stroke="none" points="360,-37 360,-55 388,-55 388,-37 360,-37"/>
<polygon fill="none" stroke="black" points="360,-37 360,-55 388,-55 388,-37 360,-37"/>
<text text-anchor="start" x="379" y="-41.55" font-family="Helvetica,sans-Serif" font-size="11.00"> &#160;</text>
</a>
</g>
</g>
<!-- withdrawals&#45;&gt;blocks -->
<g id="edge13" class="edge">
<title>withdrawals:w&#45;&gt;blocks:e</title>
<path fill="none" stroke="black" d="M263.77,-64.25C223.65,-65.71 203.25,-74.27 174,-109 124.87,-167.34 210.77,-276 134.5,-276"/>
<polygon fill="black" stroke="black" points="271.17,-64.13 279.22,-67.6 275.5,-64.06 278.83,-64.01 278.83,-64.01 278.83,-64.01 275.5,-64.06 279.11,-60.41 271.17,-64.13"/>
<ellipse fill="none" stroke="black" cx="266.25" cy="-64.21" rx="3.2" ry="3.2"/>
</g>
</g>
</svg>
