<?xml version="1.0" encoding="UTF-8" standalone="no"?>
<!DOCTYPE svg PUBLIC "-//W3C//DTD SVG 1.1//EN"
 "http://www.w3.org/Graphics/SVG/1.1/DTD/svg11.dtd">
<!-- Generated by graphviz version 2.38.0 (20140413.2041)
 -->
<!-- Title: oneDegreeRelationshipsDiagram Pages: 1 -->
<svg width="513pt" height="283pt"
 viewBox="0.00 0.00 513.00 283.00" xmlns="http://www.w3.org/2000/svg" xmlns:xlink="http://www.w3.org/1999/xlink">
<g id="graph0" class="graph" transform="scale(1 1) rotate(0) translate(4 279)">
<title>oneDegreeRelationshipsDiagram</title>
<polygon fill="#ffffff" stroke="none" points="-4,4 -4,-279 509,-279 509,4 -4,4"/>
<text text-anchor="middle" x="74.5" y="-7.2" font-family="Helvetica,sans-Serif" font-size="11.00">Generated by SchemaSpy</text>
<!-- block_second_degree_relations -->
<g id="node1" class="node"><title>block_second_degree_relations</title>
<g id="a_node1"><a xlink:href="../../tables/block_second_degree_relations.html" xlink:title="block_second_degree_relations" target="_top">
<polygon fill="#ffffff" stroke="none" points="179,-119 179,-251 497,-251 497,-119 179,-119"/>
<polygon fill="#f5f5f5" stroke="none" points="181,-227 181,-249 495,-249 495,-227 181,-227"/>
<polygon fill="none" stroke="black" points="181,-227 181,-249 495,-249 495,-227 181,-227"/>
<text text-anchor="start" x="186" y="-236.2" font-family="Helvetica,sans-Serif" font-weight="bold" font-size="11.00">block_second_degree_relations</text>
<text text-anchor="start" x="456" y="-235.2" font-family="Helvetica,sans-Serif" font-size="11.00">[table]</text>
<polygon fill="none" stroke="black" points="181,-205 181,-227 385,-227 385,-205 181,-205"/>
<image xlink:href="../../images/primaryKeys.png" width="11px" height="12px" preserveAspectRatio="xMinYMin meet" x="186" y="-222"/>
<text text-anchor="start" x="201" y="-213.2" font-family="Helvetica,sans-Serif" font-size="11.00">nephew_hash</text>
<polygon fill="none" stroke="black" points="385,-205 385,-227 495,-227 495,-205 385,-205"/>
<text text-anchor="start" x="388" y="-213.2" font-family="Helvetica,sans-Serif" font-size="11.00">bytea[2147483647]</text>
<polygon fill="none" stroke="black" points="181,-183 181,-205 385,-205 385,-183 181,-183"/>
<image xlink:href="../../images/primaryKeys.png" width="11px" height="12px" preserveAspectRatio="xMinYMin meet" x="186" y="-200"/>
<text text-anchor="start" x="201" y="-191.2" font-family="Helvetica,sans-Serif" font-size="11.00">uncle_hash</text>
<polygon fill="none" stroke="black" points="385,-183 385,-205 495,-205 495,-183 385,-183"/>
<text text-anchor="start" x="388" y="-191.2" font-family="Helvetica,sans-Serif" font-size="11.00">bytea[2147483647]</text>
<polygon fill="none" stroke="black" points="181,-161 181,-183 385,-183 385,-161 181,-161"/>
<text text-anchor="start" x="201" y="-169.2" font-family="Helvetica,sans-Serif" font-size="11.00">uncle_fetched_at</text>
<polygon fill="none" stroke="black" points="385,-161 385,-183 495,-183 495,-161 385,-161"/>
<text text-anchor="start" x="388" y="-169.2" font-family="Helvetica,sans-Serif" font-size="11.00">timestamp[29,6]</text>
<polygon fill="none" stroke="black" points="181,-139 181,-161 385,-161 385,-139 181,-139"/>
<text text-anchor="start" x="201" y="-147.2" font-family="Helvetica,sans-Serif" font-size="11.00">index</text>
<polygon fill="none" stroke="black" points="385,-139 385,-161 495,-161 495,-139 385,-139"/>
<text text-anchor="start" x="388" y="-147.2" font-family="Helvetica,sans-Serif" font-size="11.00">int4[10]</text>
<polygon fill="#ffffff" stroke="none" points="181,-121 181,-139 273,-139 273,-121 181,-121"/>
<polygon fill="none" stroke="black" points="181,-121 181,-139 273,-139 273,-121 181,-121"/>
<text text-anchor="start" x="184" y="-127.2" font-family="Helvetica,sans-Serif" font-size="11.00">&lt; 1</text>
<polygon fill="#ffffff" stroke="none" points="273,-121 273,-139 385,-139 385,-121 273,-121"/>
<polygon fill="none" stroke="black" points="273,-121 273,-139 385,-139 385,-121 273,-121"/>
<text text-anchor="start" x="346" y="-127.2" font-family="Helvetica,sans-Serif" font-size="11.00">0 rows</text>
<polygon fill="#ffffff" stroke="none" points="385,-121 385,-139 495,-139 495,-121 385,-121"/>
<polygon fill="none" stroke="black" points="385,-121 385,-139 495,-139 495,-121 385,-121"/>
<text text-anchor="start" x="475" y="-127.2" font-family="Helvetica,sans-Serif" font-size="11.00">0 &gt;</text>
<polygon fill="none" stroke="black" stroke-width="2" points="180,-120 180,-250 496,-250 496,-120 180,-120"/>
</a>
</g>
</g>
<!-- blocks -->
<g id="node2" class="node"><title>blocks</title>
<g id="a_node2"><a xlink:href="../../tables/blocks.html" xlink:title="blocks" target="_top">
<polygon fill="#ffffff" stroke="none" points="8,-37 8,-271 130,-271 130,-37 8,-37"/>
<polygon fill="#f5f5f5" stroke="none" points="8,-249 8,-271 130,-271 130,-249 8,-249"/>
<polygon fill="none" stroke="black" points="8,-249 8,-271 130,-271 130,-249 8,-249"/>
<text text-anchor="start" x="13" y="-258.2" font-family="Helvetica,sans-Serif" font-weight="bold" font-size="11.00">blocks</text>
<text text-anchor="start" x="91" y="-257.2" font-family="Helvetica,sans-Serif" font-size="11.00">[table]</text>
<polygon fill="#ffffff" stroke="none" points="8,-227 8,-249 130,-249 130,-227 8,-227"/>
<polygon fill="none" stroke="black" points="8,-227 8,-249 130,-249 130,-227 8,-227"/>
<text text-anchor="start" x="28" y="-235.2" font-family="Helvetica,sans-Serif" font-size="11.00">consensus</text>
<polygon fill="none" stroke="black" points="8,-205 8,-227 130,-227 130,-205 8,-205"/>
<image xlink:href="../../images/primaryKeys.png" width="11px" height="12px" preserveAspectRatio="xMinYMin meet" x="13" y="-222"/>
<text text-anchor="start" x="28" y="-213.2" font-family="Helvetica,sans-Serif" font-size="11.00">hash</text>
<polygon fill="#ffffff" stroke="none" points="8,-183 8,-205 130,-205 130,-183 8,-183"/>
<polygon fill="none" stroke="black" points="8,-183 8,-205 130,-205 130,-183 8,-183"/>
<image xlink:href="../../images/foreignKeys.png" width="11px" height="12px" preserveAspectRatio="xMinYMin meet" x="13" y="-200"/>
<text text-anchor="start" x="28" y="-191.2" font-family="Helvetica,sans-Serif" font-size="11.00">miner_hash</text>
<polygon fill="#ffffff" stroke="none" points="8,-161 8,-183 130,-183 130,-161 8,-161"/>
<polygon fill="none" stroke="black" points="8,-161 8,-183 130,-183 130,-161 8,-161"/>
<text text-anchor="start" x="28" y="-169.2" font-family="Helvetica,sans-Serif" font-size="11.00">number</text>
<polygon fill="#ffffff" stroke="none" points="8,-139 8,-161 130,-161 130,-139 8,-139"/>
<polygon fill="none" stroke="black" points="8,-139 8,-161 130,-161 130,-139 8,-139"/>
<text text-anchor="start" x="28" y="-147.2" font-family="Helvetica,sans-Serif" font-size="11.00">parent_hash</text>
<polygon fill="#ffffff" stroke="none" points="8,-117 8,-139 130,-139 130,-117 8,-117"/>
<polygon fill="none" stroke="black" points="8,-117 8,-139 130,-139 130,-117 8,-117"/>
<text text-anchor="start" x="28" y="-125.2" font-family="Helvetica,sans-Serif" font-size="11.00">timestamp</text>
<polygon fill="#ffffff" stroke="none" points="8,-95 8,-117 130,-117 130,-95 8,-95"/>
<polygon fill="none" stroke="black" points="8,-95 8,-117 130,-117 130,-95 8,-95"/>
<text text-anchor="start" x="28" y="-103.2" font-family="Helvetica,sans-Serif" font-size="11.00">inserted_at</text>
<polygon fill="#ffffff" stroke="none" points="8,-73 8,-95 130,-95 130,-73 8,-73"/>
<polygon fill="none" stroke="black" points="8,-73 8,-95 130,-95 130,-73 8,-73"/>
<text text-anchor="start" x="28" y="-81.2" font-family="Helvetica,sans-Serif" font-size="11.00">is_empty</text>
<polygon fill="none" stroke="black" points="8,-55 8,-73 130,-73 130,-55 8,-55"/>
<text text-anchor="start" x="11" y="-61.2" font-family="Helvetica,sans-Serif" font-size="11.00">...</text>
<polygon fill="#ffffff" stroke="none" points="8,-37 8,-55 48,-55 48,-37 8,-37"/>
<polygon fill="none" stroke="black" points="8,-37 8,-55 48,-55 48,-37 8,-37"/>
<text text-anchor="start" x="11" y="-43.2" font-family="Helvetica,sans-Serif" font-size="11.00">&lt; 1</text>
<polygon fill="#ffffff" stroke="none" points="48,-37 48,-55 98,-55 98,-37 48,-37"/>
<polygon fill="none" stroke="black" points="48,-37 48,-55 98,-55 98,-37 48,-37"/>
<text text-anchor="start" x="59" y="-43.2" font-family="Helvetica,sans-Serif" font-size="11.00">3 rows</text>
<polygon fill="#ffffff" stroke="none" points="98,-37 98,-55 130,-55 130,-37 98,-37"/>
<polygon fill="none" stroke="black" points="98,-37 98,-55 130,-55 130,-37 98,-37"/>
<text text-anchor="start" x="110" y="-43.2" font-family="Helvetica,sans-Serif" font-size="11.00">8 &gt;</text>
</a>
</g>
</g>
<!-- block_second_degree_relations&#45;&gt;blocks -->
<g id="edge1" class="edge"><title>block_second_degree_relations:nephew_hash:w&#45;&gt;blocks:hash:e</title>
<path fill="none" stroke="black" d="M165.491,-216C154.177,-216 146.993,-216 131,-216"/>
<polygon fill="black" stroke="black" points="172,-216 180,-219.6 176,-216 180,-216 180,-216 180,-216 176,-216 180,-212.4 172,-216 172,-216"/>
<ellipse fill="none" stroke="black" cx="168.8" cy="-216" rx="3.2" ry="3.2"/>
</g>
</g>
</svg>
