<?xml version="1.0" encoding="UTF-8" standalone="no"?>
<!DOCTYPE svg PUBLIC "-//W3C//DTD SVG 1.1//EN"
 "http://www.w3.org/Graphics/SVG/1.1/DTD/svg11.dtd">
<!-- Generated by graphviz version 2.43.0 (0)
 -->
<!-- Title: twoDegreesRelationshipsDiagramImplied Pages: 1 -->
<svg width="1247pt" height="648pt"
 viewBox="0.00 0.00 1247.00 648.19" xmlns="http://www.w3.org/2000/svg" xmlns:xlink="http://www.w3.org/1999/xlink">
<g id="graph0" class="graph" transform="scale(1 1) rotate(0) translate(4 644.19)">
<title>twoDegreesRelationshipsDiagramImplied</title>
<polygon fill="#ffffff" stroke="transparent" points="-4,4 -4,-644.19 1243,-644.19 1243,4 -4,4"/>
<text text-anchor="middle" x="79.5" y="-7.2" font-family="Helvetica,sans-Serif" font-size="11.00">Generated by SchemaSpy</text>
<!-- block_rewards -->
<g id="node1" class="node">
<title>block_rewards</title>
<g id="a_node1"><a xlink:href="../../tables/block_rewards.html" xlink:title="block_rewards" target="_top">
<polygon fill="#ffffff" stroke="transparent" points="413,-460.19 413,-636.19 658,-636.19 658,-460.19 413,-460.19"/>
<polygon fill="#f5f5f5" stroke="transparent" points="415.5,-612.19 415.5,-634.19 656.5,-634.19 656.5,-612.19 415.5,-612.19"/>
<polygon fill="none" stroke="black" points="415.5,-612.19 415.5,-634.19 656.5,-634.19 656.5,-612.19 415.5,-612.19"/>
<text text-anchor="start" x="420.5" y="-621.39" font-family="Helvetica,sans-Serif" font-weight="bold" font-size="11.00">block_rewards</text>
<text text-anchor="start" x="614.5" y="-620.39" font-family="Helvetica,sans-Serif" font-size="11.00">[table]</text>
<polygon fill="none" stroke="black" points="415.5,-590.19 415.5,-612.19 541.5,-612.19 541.5,-590.19 415.5,-590.19"/>
<image xlink:href="../../images/primaryKeys.png" width="11px" height="12px" preserveAspectRatio="xMinYMin meet" x="420.5" y="-607.19"/>
<text text-anchor="start" x="435.5" y="-598.39" font-family="Helvetica,sans-Serif" font-size="11.00">address_hash</text>
<polygon fill="none" stroke="black" points="541.5,-590.19 541.5,-612.19 656.5,-612.19 656.5,-590.19 541.5,-590.19"/>
<text text-anchor="start" x="544.5" y="-598.39" font-family="Helvetica,sans-Serif" font-size="11.00">bytea[2147483647]</text>
<polygon fill="none" stroke="black" points="415.5,-568.19 415.5,-590.19 541.5,-590.19 541.5,-568.19 415.5,-568.19"/>
<image xlink:href="../../images/primaryKeys.png" width="11px" height="12px" preserveAspectRatio="xMinYMin meet" x="420.5" y="-585.19"/>
<text text-anchor="start" x="435.5" y="-576.39" font-family="Helvetica,sans-Serif" font-size="11.00">address_type</text>
<polygon fill="none" stroke="black" points="541.5,-568.19 541.5,-590.19 656.5,-590.19 656.5,-568.19 541.5,-568.19"/>
<text text-anchor="start" x="544.5" y="-576.39" font-family="Helvetica,sans-Serif" font-size="11.00">varchar[255]</text>
<polygon fill="none" stroke="black" points="415.5,-546.19 415.5,-568.19 541.5,-568.19 541.5,-546.19 415.5,-546.19"/>
<image xlink:href="../../images/primaryKeys.png" width="11px" height="12px" preserveAspectRatio="xMinYMin meet" x="420.5" y="-563.19"/>
<text text-anchor="start" x="435.5" y="-554.39" font-family="Helvetica,sans-Serif" font-size="11.00">block_hash</text>
<polygon fill="none" stroke="black" points="541.5,-546.19 541.5,-568.19 656.5,-568.19 656.5,-546.19 541.5,-546.19"/>
<text text-anchor="start" x="544.5" y="-554.39" font-family="Helvetica,sans-Serif" font-size="11.00">bytea[2147483647]</text>
<polygon fill="none" stroke="black" points="415.5,-524.19 415.5,-546.19 541.5,-546.19 541.5,-524.19 415.5,-524.19"/>
<text text-anchor="start" x="435.5" y="-532.39" font-family="Helvetica,sans-Serif" font-size="11.00">reward</text>
<polygon fill="none" stroke="black" points="541.5,-524.19 541.5,-546.19 656.5,-546.19 656.5,-524.19 541.5,-524.19"/>
<text text-anchor="start" x="544.5" y="-532.39" font-family="Helvetica,sans-Serif" font-size="11.00">numeric[100]</text>
<polygon fill="none" stroke="black" points="415.5,-502.19 415.5,-524.19 541.5,-524.19 541.5,-502.19 415.5,-502.19"/>
<text text-anchor="start" x="435.5" y="-510.39" font-family="Helvetica,sans-Serif" font-size="11.00">inserted_at</text>
<polygon fill="none" stroke="black" points="541.5,-502.19 541.5,-524.19 656.5,-524.19 656.5,-502.19 541.5,-502.19"/>
<text text-anchor="start" x="544.5" y="-510.39" font-family="Helvetica,sans-Serif" font-size="11.00">timestamp[22]</text>
<polygon fill="none" stroke="black" points="415.5,-480.19 415.5,-502.19 541.5,-502.19 541.5,-480.19 415.5,-480.19"/>
<text text-anchor="start" x="435.5" y="-488.39" font-family="Helvetica,sans-Serif" font-size="11.00">updated_at</text>
<polygon fill="none" stroke="black" points="541.5,-480.19 541.5,-502.19 656.5,-502.19 656.5,-480.19 541.5,-480.19"/>
<text text-anchor="start" x="544.5" y="-488.39" font-family="Helvetica,sans-Serif" font-size="11.00">timestamp[22]</text>
<polygon fill="#ffffff" stroke="transparent" points="415.5,-462.19 415.5,-480.19 656.5,-480.19 656.5,-462.19 415.5,-462.19"/>
<polygon fill="none" stroke="black" points="415.5,-462.19 415.5,-480.19 656.5,-480.19 656.5,-462.19 415.5,-462.19"/>
<polygon fill="#ffffff" stroke="transparent" points="416.5,-463.19 416.5,-479.19 500.5,-479.19 500.5,-463.19 416.5,-463.19"/>
<text text-anchor="start" x="418.5" y="-468.39" font-family="Helvetica,sans-Serif" font-size="11.00">&lt; 1</text>
<polygon fill="#ffffff" stroke="transparent" points="500.5,-463.19 500.5,-479.19 572.5,-479.19 572.5,-463.19 500.5,-463.19"/>
<text text-anchor="start" x="532.5" y="-468.39" font-family="Helvetica,sans-Serif" font-size="11.00"> &#160;</text>
<polygon fill="#ffffff" stroke="transparent" points="572.5,-463.19 572.5,-479.19 655.5,-479.19 655.5,-463.19 572.5,-463.19"/>
<text text-anchor="start" x="633.5" y="-468.39" font-family="Helvetica,sans-Serif" font-size="11.00">0 &gt;</text>
<polygon fill="black" stroke="black" points="500.5,-463.19 500.5,-479.19 500.5,-479.19 500.5,-463.19 500.5,-463.19"/>
<polygon fill="black" stroke="black" points="572.5,-463.19 572.5,-479.19 572.5,-479.19 572.5,-463.19 572.5,-463.19"/>
<polygon fill="none" stroke="black" stroke-width="2" points="414,-461.19 414,-635.19 657,-635.19 657,-461.19 414,-461.19"/>
</a>
</g>
</g>
<!-- blocks -->
<g id="node2" class="node">
<title>blocks</title>
<g id="a_node2"><a xlink:href="../../tables/blocks.html" xlink:title="blocks" target="_top">
<polygon fill="#ffffff" stroke="transparent" points="216,-96.19 216,-330.19 364,-330.19 364,-96.19 216,-96.19"/>
<polygon fill="#f5f5f5" stroke="transparent" points="216,-308.19 216,-330.19 364,-330.19 364,-308.19 216,-308.19"/>
<polygon fill="none" stroke="black" points="216,-308.19 216,-330.19 364,-330.19 364,-308.19 216,-308.19"/>
<text text-anchor="start" x="221" y="-317.39" font-family="Helvetica,sans-Serif" font-weight="bold" font-size="11.00">blocks</text>
<text text-anchor="start" x="322" y="-316.39" font-family="Helvetica,sans-Serif" font-size="11.00">[table]</text>
<polygon fill="#ffffff" stroke="transparent" points="216,-286.19 216,-308.19 364,-308.19 364,-286.19 216,-286.19"/>
<polygon fill="none" stroke="black" points="216,-286.19 216,-308.19 364,-308.19 364,-286.19 216,-286.19"/>
<text text-anchor="start" x="236" y="-294.39" font-family="Helvetica,sans-Serif" font-size="11.00">consensus</text>
<polygon fill="none" stroke="black" points="216,-264.19 216,-286.19 364,-286.19 364,-264.19 216,-264.19"/>
<image xlink:href="../../images/primaryKeys.png" width="11px" height="12px" preserveAspectRatio="xMinYMin meet" x="221" y="-281.19"/>
<text text-anchor="start" x="236" y="-272.39" font-family="Helvetica,sans-Serif" font-size="11.00">hash</text>
<polygon fill="#ffffff" stroke="transparent" points="216,-242.19 216,-264.19 364,-264.19 364,-242.19 216,-242.19"/>
<polygon fill="none" stroke="black" points="216,-242.19 216,-264.19 364,-264.19 364,-242.19 216,-242.19"/>
<text text-anchor="start" x="236" y="-250.39" font-family="Helvetica,sans-Serif" font-size="11.00">miner_hash</text>
<polygon fill="#ffffff" stroke="transparent" points="216,-220.19 216,-242.19 364,-242.19 364,-220.19 216,-220.19"/>
<polygon fill="none" stroke="black" points="216,-220.19 216,-242.19 364,-242.19 364,-220.19 216,-220.19"/>
<image xlink:href="../../images/foreignKeys.png" width="11px" height="12px" preserveAspectRatio="xMinYMin meet" x="221" y="-237.19"/>
<text text-anchor="start" x="236" y="-228.39" font-family="Helvetica,sans-Serif" font-size="11.00">number</text>
<polygon fill="#ffffff" stroke="transparent" points="216,-198.19 216,-220.19 364,-220.19 364,-198.19 216,-198.19"/>
<polygon fill="none" stroke="black" points="216,-198.19 216,-220.19 364,-220.19 364,-198.19 216,-198.19"/>
<text text-anchor="start" x="236" y="-206.39" font-family="Helvetica,sans-Serif" font-size="11.00">parent_hash</text>
<polygon fill="#ffffff" stroke="transparent" points="216,-176.19 216,-198.19 364,-198.19 364,-176.19 216,-176.19"/>
<polygon fill="none" stroke="black" points="216,-176.19 216,-198.19 364,-198.19 364,-176.19 216,-176.19"/>
<text text-anchor="start" x="236" y="-184.39" font-family="Helvetica,sans-Serif" font-size="11.00">timestamp</text>
<polygon fill="#ffffff" stroke="transparent" points="216,-154.19 216,-176.19 364,-176.19 364,-154.19 216,-154.19"/>
<polygon fill="none" stroke="black" points="216,-154.19 216,-176.19 364,-176.19 364,-154.19 216,-154.19"/>
<text text-anchor="start" x="236" y="-162.39" font-family="Helvetica,sans-Serif" font-size="11.00">inserted_at</text>
<polygon fill="#ffffff" stroke="transparent" points="216,-132.19 216,-154.19 364,-154.19 364,-132.19 216,-132.19"/>
<polygon fill="none" stroke="black" points="216,-132.19 216,-154.19 364,-154.19 364,-132.19 216,-132.19"/>
<text text-anchor="start" x="236" y="-140.39" font-family="Helvetica,sans-Serif" font-size="11.00">is_empty</text>
<polygon fill="none" stroke="black" points="216,-114.19 216,-132.19 364,-132.19 364,-114.19 216,-114.19"/>
<text text-anchor="start" x="219" y="-120.39" font-family="Helvetica,sans-Serif" font-size="11.00">...</text>
<polygon fill="#ffffff" stroke="transparent" points="216,-96.19 216,-114.19 364,-114.19 364,-96.19 216,-96.19"/>
<polygon fill="none" stroke="black" points="216,-96.19 216,-114.19 364,-114.19 364,-96.19 216,-96.19"/>
<polygon fill="#ffffff" stroke="transparent" points="217,-97.19 217,-113.19 270,-113.19 270,-97.19 217,-97.19"/>
<text text-anchor="start" x="219" y="-102.39" font-family="Helvetica,sans-Serif" font-size="11.00">&lt; 1</text>
<polygon fill="#ffffff" stroke="transparent" points="270,-97.19 270,-113.19 311,-113.19 311,-97.19 270,-97.19"/>
<text text-anchor="start" x="286.5" y="-102.39" font-family="Helvetica,sans-Serif" font-size="11.00"> &#160;</text>
<polygon fill="#ffffff" stroke="transparent" points="311,-97.19 311,-113.19 363,-113.19 363,-97.19 311,-97.19"/>
<text text-anchor="start" x="341" y="-102.39" font-family="Helvetica,sans-Serif" font-size="11.00">9 &gt;</text>
<polygon fill="black" stroke="black" points="270,-97.19 270,-113.19 270,-113.19 270,-97.19 270,-97.19"/>
<polygon fill="black" stroke="black" points="311,-97.19 311,-113.19 311,-113.19 311,-97.19 311,-97.19"/>
</a>
</g>
</g>
<!-- block_rewards&#45;&gt;blocks -->
<g id="edge1" class="edge">
<title>block_rewards:w&#45;&gt;blocks:e</title>
<path fill="none" stroke="black" d="M401.05,-551.3C363.19,-510.8 423.16,-275.19 365,-275.19"/>
<polygon fill="black" stroke="black" points="407.17,-553.98 413.06,-560.49 410.84,-555.58 414.5,-557.19 414.5,-557.19 414.5,-557.19 410.84,-555.58 415.94,-553.89 407.17,-553.98 407.17,-553.98"/>
<ellipse fill="none" stroke="black" cx="404.24" cy="-552.7" rx="3.2" ry="3.2"/>
</g>
<!-- massive_blocks -->
<g id="node5" class="node">
<title>massive_blocks</title>
<g id="a_node5"><a xlink:href="../../tables/massive_blocks.html" xlink:title="massive_blocks" target="_top">
<polygon fill="#ffffff" stroke="transparent" points="8,-204.19 8,-262.19 167,-262.19 167,-204.19 8,-204.19"/>
<polygon fill="#f5f5f5" stroke="transparent" points="8.5,-240.19 8.5,-262.19 167.5,-262.19 167.5,-240.19 8.5,-240.19"/>
<polygon fill="none" stroke="black" points="8.5,-240.19 8.5,-262.19 167.5,-262.19 167.5,-240.19 8.5,-240.19"/>
<text text-anchor="start" x="13.5" y="-249.39" font-family="Helvetica,sans-Serif" font-weight="bold" font-size="11.00">massive_blocks</text>
<text text-anchor="start" x="125.5" y="-248.39" font-family="Helvetica,sans-Serif" font-size="11.00">[table]</text>
<polygon fill="none" stroke="black" points="8.5,-222.19 8.5,-240.19 167.5,-240.19 167.5,-222.19 8.5,-222.19"/>
<text text-anchor="start" x="11.5" y="-228.39" font-family="Helvetica,sans-Serif" font-size="11.00">...</text>
<polygon fill="#ffffff" stroke="transparent" points="8.5,-204.19 8.5,-222.19 167.5,-222.19 167.5,-204.19 8.5,-204.19"/>
<polygon fill="none" stroke="black" points="8.5,-204.19 8.5,-222.19 167.5,-222.19 167.5,-204.19 8.5,-204.19"/>
<polygon fill="#ffffff" stroke="transparent" points="9.5,-205.19 9.5,-221.19 58.5,-221.19 58.5,-205.19 9.5,-205.19"/>
<text text-anchor="start" x="11.5" y="-210.39" font-family="Helvetica,sans-Serif" font-size="11.00"> &#160;</text>
<polygon fill="#ffffff" stroke="transparent" points="58.5,-205.19 58.5,-221.19 106.5,-221.19 106.5,-205.19 58.5,-205.19"/>
<text text-anchor="start" x="78.5" y="-210.39" font-family="Helvetica,sans-Serif" font-size="11.00"> &#160;</text>
<polygon fill="#ffffff" stroke="transparent" points="106.5,-205.19 106.5,-221.19 166.5,-221.19 166.5,-205.19 106.5,-205.19"/>
<text text-anchor="start" x="144.5" y="-210.39" font-family="Helvetica,sans-Serif" font-size="11.00">1 &gt;</text>
<polygon fill="black" stroke="black" points="58.5,-205.19 58.5,-221.19 58.5,-221.19 58.5,-205.19 58.5,-205.19"/>
<polygon fill="black" stroke="black" points="106.5,-205.19 106.5,-221.19 106.5,-221.19 106.5,-205.19 106.5,-205.19"/>
</a>
</g>
</g>
<!-- blocks&#45;&gt;massive_blocks -->
<g id="edge4" class="edge">
<title>blocks:w&#45;&gt;massive_blocks:e</title>
<path fill="none" stroke="black" stroke-dasharray="5,2" d="M204.43,-231.19C191.72,-231.19 185.13,-231.19 168.5,-231.19"/>
<polygon fill="black" stroke="black" points="214.2,-227.19 214.2,-235.19 212.6,-235.19 212.6,-227.19 214.2,-227.19"/>
<polyline fill="none" stroke="black" points="215,-231.19 211,-231.19 "/>
<ellipse fill="none" stroke="black" cx="207.8" cy="-231.19" rx="3.2" ry="3.2"/>
</g>
<!-- block_second_degree_relations -->
<g id="node3" class="node">
<title>block_second_degree_relations</title>
<g id="a_node3"><a xlink:href="../../tables/block_second_degree_relations.html" xlink:title="block_second_degree_relations" target="_top">
<polygon fill="#ffffff" stroke="transparent" points="707,-354.19 707,-412.19 980,-412.19 980,-354.19 707,-354.19"/>
<polygon fill="#f5f5f5" stroke="transparent" points="707.5,-390.19 707.5,-412.19 980.5,-412.19 980.5,-390.19 707.5,-390.19"/>
<polygon fill="none" stroke="black" points="707.5,-390.19 707.5,-412.19 980.5,-412.19 980.5,-390.19 707.5,-390.19"/>
<text text-anchor="start" x="712.5" y="-399.39" font-family="Helvetica,sans-Serif" font-weight="bold" font-size="11.00">block_second_degree_relations</text>
<text text-anchor="start" x="938.5" y="-398.39" font-family="Helvetica,sans-Serif" font-size="11.00">[table]</text>
<polygon fill="none" stroke="black" points="707.5,-372.19 707.5,-390.19 980.5,-390.19 980.5,-372.19 707.5,-372.19"/>
<text text-anchor="start" x="710.5" y="-378.39" font-family="Helvetica,sans-Serif" font-size="11.00">...</text>
<polygon fill="#ffffff" stroke="transparent" points="707.5,-354.19 707.5,-372.19 980.5,-372.19 980.5,-354.19 707.5,-354.19"/>
<polygon fill="none" stroke="black" points="707.5,-354.19 707.5,-372.19 980.5,-372.19 980.5,-354.19 707.5,-354.19"/>
<polygon fill="#ffffff" stroke="transparent" points="708.5,-355.19 708.5,-371.19 807.5,-371.19 807.5,-355.19 708.5,-355.19"/>
<text text-anchor="start" x="710.5" y="-360.39" font-family="Helvetica,sans-Serif" font-size="11.00">&lt; 2</text>
<polygon fill="#ffffff" stroke="transparent" points="807.5,-355.19 807.5,-371.19 893.5,-371.19 893.5,-355.19 807.5,-355.19"/>
<text text-anchor="start" x="846.5" y="-360.39" font-family="Helvetica,sans-Serif" font-size="11.00"> &#160;</text>
<polygon fill="#ffffff" stroke="transparent" points="893.5,-355.19 893.5,-371.19 979.5,-371.19 979.5,-355.19 893.5,-355.19"/>
<text text-anchor="start" x="969.5" y="-360.39" font-family="Helvetica,sans-Serif" font-size="11.00"> &#160;</text>
<polygon fill="black" stroke="black" points="807.5,-355.19 807.5,-371.19 807.5,-371.19 807.5,-355.19 807.5,-355.19"/>
<polygon fill="black" stroke="black" points="893.5,-355.19 893.5,-371.19 893.5,-371.19 893.5,-355.19 893.5,-355.19"/>
</a>
</g>
</g>
<!-- block_second_degree_relations&#45;&gt;blocks -->
<g id="edge3" class="edge">
<title>block_second_degree_relations:w&#45;&gt;blocks:e</title>
<path fill="none" stroke="black" d="M691.88,-381.44C568.07,-385.69 511.31,-441.52 405,-368.19 367.96,-342.64 409.99,-275.19 365,-275.19"/>
<polygon fill="black" stroke="black" points="698.5,-381.33 706.56,-384.79 702.5,-381.26 706.5,-381.19 706.5,-381.19 706.5,-381.19 702.5,-381.26 706.44,-377.59 698.5,-381.33 698.5,-381.33"/>
<ellipse fill="none" stroke="black" cx="695.3" cy="-381.38" rx="3.2" ry="3.2"/>
</g>
<!-- withdrawals -->
<g id="node4" class="node">
<title>withdrawals</title>
<g id="a_node4"><a xlink:href="../../tables/withdrawals.html" xlink:title="withdrawals" target="_top">
<polygon fill="#ffffff" stroke="transparent" points="467.5,-299.19 467.5,-357.19 603.5,-357.19 603.5,-299.19 467.5,-299.19"/>
<polygon fill="#f5f5f5" stroke="transparent" points="467.5,-335.19 467.5,-357.19 603.5,-357.19 603.5,-335.19 467.5,-335.19"/>
<polygon fill="none" stroke="black" points="467.5,-335.19 467.5,-357.19 603.5,-357.19 603.5,-335.19 467.5,-335.19"/>
<text text-anchor="start" x="472.5" y="-344.39" font-family="Helvetica,sans-Serif" font-weight="bold" font-size="11.00">withdrawals</text>
<text text-anchor="start" x="561.5" y="-343.39" font-family="Helvetica,sans-Serif" font-size="11.00">[table]</text>
<polygon fill="none" stroke="black" points="467.5,-317.19 467.5,-335.19 603.5,-335.19 603.5,-317.19 467.5,-317.19"/>
<text text-anchor="start" x="470.5" y="-323.39" font-family="Helvetica,sans-Serif" font-size="11.00">...</text>
<polygon fill="#ffffff" stroke="transparent" points="467.5,-299.19 467.5,-317.19 603.5,-317.19 603.5,-299.19 467.5,-299.19"/>
<polygon fill="none" stroke="black" points="467.5,-299.19 467.5,-317.19 603.5,-317.19 603.5,-299.19 467.5,-299.19"/>
<polygon fill="#ffffff" stroke="transparent" points="468.5,-300.19 468.5,-316.19 517.5,-316.19 517.5,-300.19 468.5,-300.19"/>
<text text-anchor="start" x="470.5" y="-305.39" font-family="Helvetica,sans-Serif" font-size="11.00">&lt; 1</text>
<polygon fill="#ffffff" stroke="transparent" points="517.5,-300.19 517.5,-316.19 554.5,-316.19 554.5,-300.19 517.5,-300.19"/>
<text text-anchor="start" x="532" y="-305.39" font-family="Helvetica,sans-Serif" font-size="11.00"> &#160;</text>
<polygon fill="#ffffff" stroke="transparent" points="554.5,-300.19 554.5,-316.19 602.5,-316.19 602.5,-300.19 554.5,-300.19"/>
<text text-anchor="start" x="580.5" y="-305.39" font-family="Helvetica,sans-Serif" font-size="11.00">5 &gt;</text>
<polygon fill="black" stroke="black" points="517.5,-300.19 517.5,-316.19 517.5,-316.19 517.5,-300.19 517.5,-300.19"/>
<polygon fill="black" stroke="black" points="554.5,-300.19 554.5,-316.19 554.5,-316.19 554.5,-300.19 554.5,-300.19"/>
</a>
</g>
</g>
<!-- block_second_degree_relations&#45;&gt;withdrawals -->
<g id="edge2" class="edge">
<title>block_second_degree_relations:w&#45;&gt;withdrawals:e</title>
<path fill="none" stroke="black" stroke-dasharray="5,2" d="M691.83,-379.48C654.62,-370.2 650.57,-326.19 604.5,-326.19"/>
<polygon fill="black" stroke="black" points="698.55,-380.26 706.08,-384.77 702.53,-380.73 706.5,-381.19 706.5,-381.19 706.5,-381.19 702.53,-380.73 706.92,-377.61 698.55,-380.26 698.55,-380.26"/>
<ellipse fill="none" stroke="black" cx="695.38" cy="-379.9" rx="3.2" ry="3.2"/>
</g>
<!-- withdrawals&#45;&gt;blocks -->
<g id="edge18" class="edge">
<title>withdrawals:w&#45;&gt;blocks:e</title>
<path fill="none" stroke="black" d="M452.08,-324.61C415.35,-316 410.16,-275.19 365,-275.19"/>
<polygon fill="black" stroke="black" points="458.55,-325.32 466.11,-329.77 462.52,-325.75 466.5,-326.19 466.5,-326.19 466.5,-326.19 462.52,-325.75 466.89,-322.61 458.55,-325.32 458.55,-325.32"/>
<ellipse fill="none" stroke="black" cx="455.37" cy="-324.97" rx="3.2" ry="3.2"/>
</g>
<!-- internal_transactions -->
<g id="node6" class="node">
<title>internal_transactions</title>
<g id="a_node6"><a xlink:href="../../tables/internal_transactions.html" xlink:title="internal_transactions" target="_top">
<polygon fill="#ffffff" stroke="transparent" points="1029,-304.19 1029,-362.19 1231,-362.19 1231,-304.19 1029,-304.19"/>
<polygon fill="#f5f5f5" stroke="transparent" points="1029,-340.19 1029,-362.19 1231,-362.19 1231,-340.19 1029,-340.19"/>
<polygon fill="none" stroke="black" points="1029,-340.19 1029,-362.19 1231,-362.19 1231,-340.19 1029,-340.19"/>
<text text-anchor="start" x="1034" y="-349.39" font-family="Helvetica,sans-Serif" font-weight="bold" font-size="11.00">internal_transactions</text>
<text text-anchor="start" x="1189" y="-348.39" font-family="Helvetica,sans-Serif" font-size="11.00">[table]</text>
<polygon fill="none" stroke="black" points="1029,-322.19 1029,-340.19 1231,-340.19 1231,-322.19 1029,-322.19"/>
<text text-anchor="start" x="1032" y="-328.39" font-family="Helvetica,sans-Serif" font-size="11.00">...</text>
<polygon fill="#ffffff" stroke="transparent" points="1029,-304.19 1029,-322.19 1231,-322.19 1231,-304.19 1029,-304.19"/>
<polygon fill="none" stroke="black" points="1029,-304.19 1029,-322.19 1231,-322.19 1231,-304.19 1029,-304.19"/>
<polygon fill="#ffffff" stroke="transparent" points="1030,-305.19 1030,-321.19 1105,-321.19 1105,-305.19 1030,-305.19"/>
<text text-anchor="start" x="1032" y="-310.39" font-family="Helvetica,sans-Serif" font-size="11.00">&lt; 4</text>
<polygon fill="#ffffff" stroke="transparent" points="1105,-305.19 1105,-321.19 1168,-321.19 1168,-305.19 1105,-305.19"/>
<text text-anchor="start" x="1132.5" y="-310.39" font-family="Helvetica,sans-Serif" font-size="11.00"> &#160;</text>
<polygon fill="#ffffff" stroke="transparent" points="1168,-305.19 1168,-321.19 1230,-321.19 1230,-305.19 1168,-305.19"/>
<text text-anchor="start" x="1220" y="-310.39" font-family="Helvetica,sans-Serif" font-size="11.00"> &#160;</text>
<polygon fill="black" stroke="black" points="1105,-305.19 1105,-321.19 1105,-321.19 1105,-305.19 1105,-305.19"/>
<polygon fill="black" stroke="black" points="1168,-305.19 1168,-321.19 1168,-321.19 1168,-305.19 1168,-305.19"/>
</a>
</g>
</g>
<!-- internal_transactions&#45;&gt;blocks -->
<g id="edge5" class="edge">
<title>internal_transactions:w&#45;&gt;blocks:e</title>
<path fill="none" stroke="black" d="M1013.86,-334.89C993.62,-349.34 1020.04,-402.18 988,-423.19 880.58,-493.62 827.31,-429.07 699,-423.19 567.92,-417.18 507.72,-477.83 405,-396.19 360.66,-360.95 421.64,-275.19 365,-275.19"/>
<polygon fill="black" stroke="black" points="1020.26,-333.21 1028.91,-334.67 1024.13,-332.2 1028,-331.19 1028,-331.19 1028,-331.19 1024.13,-332.2 1027.09,-327.71 1020.26,-333.21 1020.26,-333.21"/>
<ellipse fill="none" stroke="black" cx="1017.16" cy="-334.02" rx="3.2" ry="3.2"/>
</g>
<!-- internal_transactions&#45;&gt;withdrawals -->
<g id="edge6" class="edge">
<title>internal_transactions:w&#45;&gt;withdrawals:e</title>
<path fill="none" stroke="black" stroke-dasharray="5,2" d="M1013.4,-331.18C837.19,-330.93 787.77,-326.19 604.5,-326.19"/>
<polygon fill="black" stroke="black" points="1020,-331.18 1028,-334.79 1024,-331.19 1028,-331.19 1028,-331.19 1028,-331.19 1024,-331.19 1028,-327.59 1020,-331.18 1020,-331.18"/>
<ellipse fill="none" stroke="black" cx="1016.8" cy="-331.18" rx="3.2" ry="3.2"/>
</g>
<!-- internal_transactions&#45;&gt;withdrawals -->
<g id="edge8" class="edge">
<title>internal_transactions:w&#45;&gt;withdrawals:e</title>
<path fill="none" stroke="black" stroke-dasharray="5,2" d="M1013.4,-331.18C837.19,-330.93 787.77,-326.19 604.5,-326.19"/>
<polygon fill="black" stroke="black" points="1020,-331.18 1028,-334.79 1024,-331.19 1028,-331.19 1028,-331.19 1028,-331.19 1024,-331.19 1028,-327.59 1020,-331.18 1020,-331.18"/>
<ellipse fill="none" stroke="black" cx="1016.8" cy="-331.18" rx="3.2" ry="3.2"/>
</g>
<!-- transactions -->
<g id="node7" class="node">
<title>transactions</title>
<g id="a_node7"><a xlink:href="../../tables/transactions.html" xlink:title="transactions" target="_top">
<polygon fill="#ffffff" stroke="transparent" points="774.5,-193.19 774.5,-251.19 912.5,-251.19 912.5,-193.19 774.5,-193.19"/>
<polygon fill="#f5f5f5" stroke="transparent" points="774.5,-229.19 774.5,-251.19 912.5,-251.19 912.5,-229.19 774.5,-229.19"/>
<polygon fill="none" stroke="black" points="774.5,-229.19 774.5,-251.19 912.5,-251.19 912.5,-229.19 774.5,-229.19"/>
<text text-anchor="start" x="779.5" y="-238.39" font-family="Helvetica,sans-Serif" font-weight="bold" font-size="11.00">transactions</text>
<text text-anchor="start" x="870.5" y="-237.39" font-family="Helvetica,sans-Serif" font-size="11.00">[table]</text>
<polygon fill="none" stroke="black" points="774.5,-211.19 774.5,-229.19 912.5,-229.19 912.5,-211.19 774.5,-211.19"/>
<text text-anchor="start" x="777.5" y="-217.39" font-family="Helvetica,sans-Serif" font-size="11.00">...</text>
<polygon fill="#ffffff" stroke="transparent" points="774.5,-193.19 774.5,-211.19 912.5,-211.19 912.5,-193.19 774.5,-193.19"/>
<polygon fill="none" stroke="black" points="774.5,-193.19 774.5,-211.19 912.5,-211.19 912.5,-193.19 774.5,-193.19"/>
<polygon fill="#ffffff" stroke="transparent" points="775.5,-194.19 775.5,-210.19 825.5,-210.19 825.5,-194.19 775.5,-194.19"/>
<text text-anchor="start" x="777.5" y="-199.39" font-family="Helvetica,sans-Serif" font-size="11.00">&lt; 2</text>
<polygon fill="#ffffff" stroke="transparent" points="825.5,-194.19 825.5,-210.19 862.5,-210.19 862.5,-194.19 825.5,-194.19"/>
<text text-anchor="start" x="840" y="-199.39" font-family="Helvetica,sans-Serif" font-size="11.00"> &#160;</text>
<polygon fill="#ffffff" stroke="transparent" points="862.5,-194.19 862.5,-210.19 911.5,-210.19 911.5,-194.19 862.5,-194.19"/>
<text text-anchor="start" x="889.5" y="-199.39" font-family="Helvetica,sans-Serif" font-size="11.00">7 &gt;</text>
<polygon fill="black" stroke="black" points="825.5,-194.19 825.5,-210.19 825.5,-210.19 825.5,-194.19 825.5,-194.19"/>
<polygon fill="black" stroke="black" points="862.5,-194.19 862.5,-210.19 862.5,-210.19 862.5,-194.19 862.5,-194.19"/>
</a>
</g>
</g>
<!-- internal_transactions&#45;&gt;transactions -->
<g id="edge7" class="edge">
<title>internal_transactions:w&#45;&gt;transactions:e</title>
<path fill="none" stroke="black" d="M1014.36,-326.42C981.78,-305.17 944.51,-220.19 913.5,-220.19"/>
<polygon fill="black" stroke="black" points="1020.45,-328.55 1026.81,-334.59 1024.22,-329.87 1028,-331.19 1028,-331.19 1028,-331.19 1024.22,-329.87 1029.19,-327.79 1020.45,-328.55 1020.45,-328.55"/>
<ellipse fill="none" stroke="black" cx="1017.43" cy="-327.49" rx="3.2" ry="3.2"/>
</g>
<!-- transactions&#45;&gt;blocks -->
<g id="edge16" class="edge">
<title>transactions:w&#45;&gt;blocks:e</title>
<path fill="none" stroke="black" d="M758.9,-220.49C722.33,-222.11 708.62,-229.77 666,-235.19 550.17,-249.93 519.88,-244.32 405,-265.19 386.97,-268.46 383.32,-275.19 365,-275.19"/>
<polygon fill="black" stroke="black" points="765.5,-220.36 773.58,-223.79 769.5,-220.27 773.5,-220.19 773.5,-220.19 773.5,-220.19 769.5,-220.27 773.42,-216.59 765.5,-220.36 765.5,-220.36"/>
<ellipse fill="none" stroke="black" cx="762.3" cy="-220.42" rx="3.2" ry="3.2"/>
</g>
<!-- transactions&#45;&gt;withdrawals -->
<g id="edge17" class="edge">
<title>transactions:w&#45;&gt;withdrawals:e</title>
<path fill="none" stroke="black" stroke-dasharray="5,2" d="M758.87,-221.24C685.48,-232.25 687.97,-326.19 604.5,-326.19"/>
<polygon fill="black" stroke="black" points="765.52,-220.76 773.76,-223.78 769.51,-220.48 773.5,-220.19 773.5,-220.19 773.5,-220.19 769.51,-220.48 773.24,-216.6 765.52,-220.76 765.52,-220.76"/>
<ellipse fill="none" stroke="black" cx="762.33" cy="-220.99" rx="3.2" ry="3.2"/>
</g>
<!-- logs -->
<g id="node8" class="node">
<title>logs</title>
<g id="a_node8"><a xlink:href="../../tables/logs.html" xlink:title="logs" target="_top">
<polygon fill="#ffffff" stroke="transparent" points="1091.5,-225.19 1091.5,-283.19 1168.5,-283.19 1168.5,-225.19 1091.5,-225.19"/>
<polygon fill="#f5f5f5" stroke="transparent" points="1092,-261.19 1092,-283.19 1169,-283.19 1169,-261.19 1092,-261.19"/>
<polygon fill="none" stroke="black" points="1092,-261.19 1092,-283.19 1169,-283.19 1169,-261.19 1092,-261.19"/>
<text text-anchor="start" x="1097" y="-270.39" font-family="Helvetica,sans-Serif" font-weight="bold" font-size="11.00">logs</text>
<text text-anchor="start" x="1127" y="-269.39" font-family="Helvetica,sans-Serif" font-size="11.00">[table]</text>
<polygon fill="none" stroke="black" points="1092,-243.19 1092,-261.19 1169,-261.19 1169,-243.19 1092,-243.19"/>
<text text-anchor="start" x="1095" y="-249.39" font-family="Helvetica,sans-Serif" font-size="11.00">...</text>
<polygon fill="#ffffff" stroke="transparent" points="1092,-225.19 1092,-243.19 1169,-243.19 1169,-225.19 1092,-225.19"/>
<polygon fill="none" stroke="black" points="1092,-225.19 1092,-243.19 1169,-243.19 1169,-225.19 1092,-225.19"/>
<polygon fill="#ffffff" stroke="transparent" points="1093,-226.19 1093,-242.19 1126,-242.19 1126,-226.19 1093,-226.19"/>
<text text-anchor="start" x="1095" y="-231.39" font-family="Helvetica,sans-Serif" font-size="11.00">&lt; 2</text>
<polygon fill="#ffffff" stroke="transparent" points="1126,-226.19 1126,-242.19 1147,-242.19 1147,-226.19 1126,-226.19"/>
<text text-anchor="start" x="1132.5" y="-231.39" font-family="Helvetica,sans-Serif" font-size="11.00"> &#160;</text>
<polygon fill="#ffffff" stroke="transparent" points="1147,-226.19 1147,-242.19 1168,-242.19 1168,-226.19 1147,-226.19"/>
<text text-anchor="start" x="1158" y="-231.39" font-family="Helvetica,sans-Serif" font-size="11.00"> &#160;</text>
<polygon fill="black" stroke="black" points="1126,-226.19 1126,-242.19 1126,-242.19 1126,-226.19 1126,-226.19"/>
<polygon fill="black" stroke="black" points="1147,-226.19 1147,-242.19 1147,-242.19 1147,-226.19 1147,-226.19"/>
</a>
</g>
</g>
<!-- logs&#45;&gt;blocks -->
<g id="edge9" class="edge">
<title>logs:w&#45;&gt;blocks:e</title>
<path fill="none" stroke="black" d="M1076.16,-252.47C1041.93,-253.84 1028.53,-259.8 988,-262.19 711.53,-278.47 641.95,-275.19 365,-275.19"/>
<polygon fill="black" stroke="black" points="1083,-252.34 1091.07,-255.79 1087,-252.27 1091,-252.19 1091,-252.19 1091,-252.19 1087,-252.27 1090.93,-248.59 1083,-252.34 1083,-252.34"/>
<ellipse fill="none" stroke="black" cx="1079.8" cy="-252.4" rx="3.2" ry="3.2"/>
</g>
<!-- logs&#45;&gt;transactions -->
<g id="edge10" class="edge">
<title>logs:w&#45;&gt;transactions:e</title>
<path fill="none" stroke="black" d="M1076.25,-251.81C1008.36,-248.2 988.49,-220.19 913.5,-220.19"/>
<polygon fill="black" stroke="black" points="1083,-251.98 1090.91,-255.79 1087,-252.09 1091,-252.19 1091,-252.19 1091,-252.19 1087,-252.09 1091.09,-248.59 1083,-251.98 1083,-251.98"/>
<ellipse fill="none" stroke="black" cx="1079.8" cy="-251.9" rx="3.2" ry="3.2"/>
</g>
<!-- pending_block_operations -->
<g id="node9" class="node">
<title>pending_block_operations</title>
<g id="a_node9"><a xlink:href="../../tables/pending_block_operations.html" xlink:title="pending_block_operations" target="_top">
<polygon fill="#ffffff" stroke="transparent" points="417,-166.19 417,-224.19 654,-224.19 654,-166.19 417,-166.19"/>
<polygon fill="#f5f5f5" stroke="transparent" points="417.5,-202.19 417.5,-224.19 654.5,-224.19 654.5,-202.19 417.5,-202.19"/>
<polygon fill="none" stroke="black" points="417.5,-202.19 417.5,-224.19 654.5,-224.19 654.5,-202.19 417.5,-202.19"/>
<text text-anchor="start" x="422.5" y="-211.39" font-family="Helvetica,sans-Serif" font-weight="bold" font-size="11.00">pending_block_operations</text>
<text text-anchor="start" x="612.5" y="-210.39" font-family="Helvetica,sans-Serif" font-size="11.00">[table]</text>
<polygon fill="none" stroke="black" points="417.5,-184.19 417.5,-202.19 654.5,-202.19 654.5,-184.19 417.5,-184.19"/>
<text text-anchor="start" x="420.5" y="-190.39" font-family="Helvetica,sans-Serif" font-size="11.00">...</text>
<polygon fill="#ffffff" stroke="transparent" points="417.5,-166.19 417.5,-184.19 654.5,-184.19 654.5,-166.19 417.5,-166.19"/>
<polygon fill="none" stroke="black" points="417.5,-166.19 417.5,-184.19 654.5,-184.19 654.5,-166.19 417.5,-166.19"/>
<polygon fill="#ffffff" stroke="transparent" points="418.5,-167.19 418.5,-183.19 505.5,-183.19 505.5,-167.19 418.5,-167.19"/>
<text text-anchor="start" x="420.5" y="-172.39" font-family="Helvetica,sans-Serif" font-size="11.00">&lt; 1</text>
<polygon fill="#ffffff" stroke="transparent" points="505.5,-167.19 505.5,-183.19 579.5,-183.19 579.5,-167.19 505.5,-167.19"/>
<text text-anchor="start" x="538.5" y="-172.39" font-family="Helvetica,sans-Serif" font-size="11.00"> &#160;</text>
<polygon fill="#ffffff" stroke="transparent" points="579.5,-167.19 579.5,-183.19 653.5,-183.19 653.5,-167.19 579.5,-167.19"/>
<text text-anchor="start" x="643.5" y="-172.39" font-family="Helvetica,sans-Serif" font-size="11.00"> &#160;</text>
<polygon fill="black" stroke="black" points="505.5,-167.19 505.5,-183.19 505.5,-183.19 505.5,-167.19 505.5,-167.19"/>
<polygon fill="black" stroke="black" points="579.5,-167.19 579.5,-183.19 579.5,-183.19 579.5,-167.19 579.5,-167.19"/>
</a>
</g>
</g>
<!-- pending_block_operations&#45;&gt;blocks -->
<g id="edge11" class="edge">
<title>pending_block_operations:w&#45;&gt;blocks:e</title>
<path fill="none" stroke="black" d="M405.97,-195.38C379.48,-208.42 403.83,-275.19 365,-275.19"/>
<polygon fill="black" stroke="black" points="414.9,-189.44 416.53,-197.27 414.97,-197.59 413.33,-189.76 414.9,-189.44"/>
<polyline fill="none" stroke="black" points="416.5,-193.19 412.58,-194.01 "/>
<ellipse fill="none" stroke="black" cx="409.45" cy="-194.66" rx="3.2" ry="3.2"/>
</g>
<!-- token_transfers -->
<g id="node10" class="node">
<title>token_transfers</title>
<g id="a_node10"><a xlink:href="../../tables/token_transfers.html" xlink:title="token_transfers" target="_top">
<polygon fill="#ffffff" stroke="transparent" points="1049,-146.19 1049,-204.19 1211,-204.19 1211,-146.19 1049,-146.19"/>
<polygon fill="#f5f5f5" stroke="transparent" points="1049,-182.19 1049,-204.19 1211,-204.19 1211,-182.19 1049,-182.19"/>
<polygon fill="none" stroke="black" points="1049,-182.19 1049,-204.19 1211,-204.19 1211,-182.19 1049,-182.19"/>
<text text-anchor="start" x="1054" y="-191.39" font-family="Helvetica,sans-Serif" font-weight="bold" font-size="11.00">token_transfers</text>
<text text-anchor="start" x="1169" y="-190.39" font-family="Helvetica,sans-Serif" font-size="11.00">[table]</text>
<polygon fill="none" stroke="black" points="1049,-164.19 1049,-182.19 1211,-182.19 1211,-164.19 1049,-164.19"/>
<text text-anchor="start" x="1052" y="-170.39" font-family="Helvetica,sans-Serif" font-size="11.00">...</text>
<polygon fill="#ffffff" stroke="transparent" points="1049,-146.19 1049,-164.19 1211,-164.19 1211,-146.19 1049,-146.19"/>
<polygon fill="none" stroke="black" points="1049,-146.19 1049,-164.19 1211,-164.19 1211,-146.19 1049,-146.19"/>
<polygon fill="#ffffff" stroke="transparent" points="1050,-147.19 1050,-163.19 1112,-163.19 1112,-147.19 1050,-147.19"/>
<text text-anchor="start" x="1052" y="-152.39" font-family="Helvetica,sans-Serif" font-size="11.00">&lt; 2</text>
<polygon fill="#ffffff" stroke="transparent" points="1112,-147.19 1112,-163.19 1161,-163.19 1161,-147.19 1112,-147.19"/>
<text text-anchor="start" x="1132.5" y="-152.39" font-family="Helvetica,sans-Serif" font-size="11.00"> &#160;</text>
<polygon fill="#ffffff" stroke="transparent" points="1161,-147.19 1161,-163.19 1210,-163.19 1210,-147.19 1161,-147.19"/>
<text text-anchor="start" x="1200" y="-152.39" font-family="Helvetica,sans-Serif" font-size="11.00"> &#160;</text>
<polygon fill="black" stroke="black" points="1112,-147.19 1112,-163.19 1112,-163.19 1112,-147.19 1112,-147.19"/>
<polygon fill="black" stroke="black" points="1161,-147.19 1161,-163.19 1161,-163.19 1161,-147.19 1161,-147.19"/>
</a>
</g>
</g>
<!-- token_transfers&#45;&gt;blocks -->
<g id="edge12" class="edge">
<title>token_transfers:w&#45;&gt;blocks:e</title>
<path fill="none" stroke="black" d="M1033.45,-172.89C880.59,-166.91 517.32,-75.45 405,-156.19 359.69,-188.76 420.8,-275.19 365,-275.19"/>
<polygon fill="black" stroke="black" points="1040,-173.02 1047.92,-176.79 1044,-173.11 1048,-173.19 1048,-173.19 1048,-173.19 1044,-173.11 1048.08,-169.59 1040,-173.02 1040,-173.02"/>
<ellipse fill="none" stroke="black" cx="1036.8" cy="-172.96" rx="3.2" ry="3.2"/>
</g>
<!-- token_transfers&#45;&gt;transactions -->
<g id="edge13" class="edge">
<title>token_transfers:w&#45;&gt;transactions:e</title>
<path fill="none" stroke="black" d="M1033.48,-174.09C983.02,-180.58 971.63,-220.19 913.5,-220.19"/>
<polygon fill="black" stroke="black" points="1040.02,-173.68 1048.22,-176.78 1044.01,-173.44 1048,-173.19 1048,-173.19 1048,-173.19 1044.01,-173.44 1047.78,-169.6 1040.02,-173.68 1040.02,-173.68"/>
<ellipse fill="none" stroke="black" cx="1036.82" cy="-173.88" rx="3.2" ry="3.2"/>
</g>
<!-- transaction_forks -->
<g id="node11" class="node">
<title>transaction_forks</title>
<g id="a_node11"><a xlink:href="../../tables/transaction_forks.html" xlink:title="transaction_forks" target="_top">
<polygon fill="#ffffff" stroke="transparent" points="1043,-67.19 1043,-125.19 1217,-125.19 1217,-67.19 1043,-67.19"/>
<polygon fill="#f5f5f5" stroke="transparent" points="1043,-103.19 1043,-125.19 1217,-125.19 1217,-103.19 1043,-103.19"/>
<polygon fill="none" stroke="black" points="1043,-103.19 1043,-125.19 1217,-125.19 1217,-103.19 1043,-103.19"/>
<text text-anchor="start" x="1048" y="-112.39" font-family="Helvetica,sans-Serif" font-weight="bold" font-size="11.00">transaction_forks</text>
<text text-anchor="start" x="1175" y="-111.39" font-family="Helvetica,sans-Serif" font-size="11.00">[table]</text>
<polygon fill="none" stroke="black" points="1043,-85.19 1043,-103.19 1217,-103.19 1217,-85.19 1043,-85.19"/>
<text text-anchor="start" x="1046" y="-91.39" font-family="Helvetica,sans-Serif" font-size="11.00">...</text>
<polygon fill="#ffffff" stroke="transparent" points="1043,-67.19 1043,-85.19 1217,-85.19 1217,-67.19 1043,-67.19"/>
<polygon fill="none" stroke="black" points="1043,-67.19 1043,-85.19 1217,-85.19 1217,-67.19 1043,-67.19"/>
<polygon fill="#ffffff" stroke="transparent" points="1044,-68.19 1044,-84.19 1110,-84.19 1110,-68.19 1044,-68.19"/>
<text text-anchor="start" x="1046" y="-73.39" font-family="Helvetica,sans-Serif" font-size="11.00">&lt; 2</text>
<polygon fill="#ffffff" stroke="transparent" points="1110,-68.19 1110,-84.19 1163,-84.19 1163,-68.19 1110,-68.19"/>
<text text-anchor="start" x="1132.5" y="-73.39" font-family="Helvetica,sans-Serif" font-size="11.00"> &#160;</text>
<polygon fill="#ffffff" stroke="transparent" points="1163,-68.19 1163,-84.19 1216,-84.19 1216,-68.19 1163,-68.19"/>
<text text-anchor="start" x="1206" y="-73.39" font-family="Helvetica,sans-Serif" font-size="11.00"> &#160;</text>
<polygon fill="black" stroke="black" points="1110,-68.19 1110,-84.19 1110,-84.19 1110,-68.19 1110,-68.19"/>
<polygon fill="black" stroke="black" points="1163,-68.19 1163,-84.19 1163,-84.19 1163,-68.19 1163,-68.19"/>
</a>
</g>
</g>
<!-- transaction_forks&#45;&gt;blocks -->
<g id="edge15" class="edge">
<title>transaction_forks:w&#45;&gt;blocks:e</title>
<path fill="none" stroke="black" d="M1027.2,-94.05C753.96,-88.91 621.52,55.73 405,-119.19 349.32,-164.17 436.58,-275.19 365,-275.19"/>
<polygon fill="black" stroke="black" points="1034,-94.11 1041.97,-97.79 1038,-94.15 1042,-94.19 1042,-94.19 1042,-94.19 1038,-94.15 1042.03,-90.59 1034,-94.11 1034,-94.11"/>
<ellipse fill="none" stroke="black" cx="1030.8" cy="-94.08" rx="3.2" ry="3.2"/>
</g>
<!-- transaction_forks&#45;&gt;transactions -->
<g id="edge14" class="edge">
<title>transaction_forks:w&#45;&gt;transactions:e</title>
<path fill="none" stroke="black" d="M1027.47,-95.78C965.7,-110.37 988.17,-220.19 913.5,-220.19"/>
<polygon fill="black" stroke="black" points="1034.05,-95.06 1042.39,-97.77 1038.02,-94.63 1042,-94.19 1042,-94.19 1042,-94.19 1038.02,-94.63 1041.61,-90.61 1034.05,-95.06 1034.05,-95.06"/>
<ellipse fill="none" stroke="black" cx="1030.87" cy="-95.41" rx="3.2" ry="3.2"/>
</g>
</g>
</svg>
