<?xml version="1.0" encoding="UTF-8" standalone="no"?>
<!DOCTYPE svg PUBLIC "-//W3C//DTD SVG 1.1//EN"
 "http://www.w3.org/Graphics/SVG/1.1/DTD/svg11.dtd">
<!-- Generated by graphviz version 2.43.0 (0)
 -->
<!-- Title: twoDegreesRelationshipsDiagram Pages: 1 -->
<svg width="745pt" height="649pt"
 viewBox="0.00 0.00 745.00 649.00" xmlns="http://www.w3.org/2000/svg" xmlns:xlink="http://www.w3.org/1999/xlink">
<g id="graph0" class="graph" transform="scale(1 1) rotate(0) translate(4 645)">
<title>twoDegreesRelationshipsDiagram</title>
<polygon fill="#ffffff" stroke="transparent" points="-4,4 -4,-645 741,-645 741,4 -4,4"/>
<text text-anchor="middle" x="79.5" y="-7.2" font-family="Helvetica,sans-Serif" font-size="11.00">Generated by SchemaSpy</text>
<!-- block_rewards -->
<g id="node1" class="node">
<title>block_rewards</title>
<g id="a_node1"><a xlink:href="../../tables/block_rewards.html" xlink:title="block_rewards" target="_top">
<polygon fill="#ffffff" stroke="transparent" points="219,-461 219,-637 464,-637 464,-461 219,-461"/>
<polygon fill="#f5f5f5" stroke="transparent" points="221.5,-613 221.5,-635 462.5,-635 462.5,-613 221.5,-613"/>
<polygon fill="none" stroke="black" points="221.5,-613 221.5,-635 462.5,-635 462.5,-613 221.5,-613"/>
<text text-anchor="start" x="226.5" y="-622.2" font-family="Helvetica,sans-Serif" font-weight="bold" font-size="11.00">block_rewards</text>
<text text-anchor="start" x="420.5" y="-621.2" font-family="Helvetica,sans-Serif" font-size="11.00">[table]</text>
<polygon fill="none" stroke="black" points="221.5,-591 221.5,-613 347.5,-613 347.5,-591 221.5,-591"/>
<image xlink:href="../../images/primaryKeys.png" width="11px" height="12px" preserveAspectRatio="xMinYMin meet" x="226.5" y="-608"/>
<text text-anchor="start" x="241.5" y="-599.2" font-family="Helvetica,sans-Serif" font-size="11.00">address_hash</text>
<polygon fill="none" stroke="black" points="347.5,-591 347.5,-613 462.5,-613 462.5,-591 347.5,-591"/>
<text text-anchor="start" x="350.5" y="-599.2" font-family="Helvetica,sans-Serif" font-size="11.00">bytea[2147483647]</text>
<polygon fill="none" stroke="black" points="221.5,-569 221.5,-591 347.5,-591 347.5,-569 221.5,-569"/>
<image xlink:href="../../images/primaryKeys.png" width="11px" height="12px" preserveAspectRatio="xMinYMin meet" x="226.5" y="-586"/>
<text text-anchor="start" x="241.5" y="-577.2" font-family="Helvetica,sans-Serif" font-size="11.00">address_type</text>
<polygon fill="none" stroke="black" points="347.5,-569 347.5,-591 462.5,-591 462.5,-569 347.5,-569"/>
<text text-anchor="start" x="350.5" y="-577.2" font-family="Helvetica,sans-Serif" font-size="11.00">varchar[255]</text>
<polygon fill="none" stroke="black" points="221.5,-547 221.5,-569 347.5,-569 347.5,-547 221.5,-547"/>
<image xlink:href="../../images/primaryKeys.png" width="11px" height="12px" preserveAspectRatio="xMinYMin meet" x="226.5" y="-564"/>
<text text-anchor="start" x="241.5" y="-555.2" font-family="Helvetica,sans-Serif" font-size="11.00">block_hash</text>
<polygon fill="none" stroke="black" points="347.5,-547 347.5,-569 462.5,-569 462.5,-547 347.5,-547"/>
<text text-anchor="start" x="350.5" y="-555.2" font-family="Helvetica,sans-Serif" font-size="11.00">bytea[2147483647]</text>
<polygon fill="none" stroke="black" points="221.5,-525 221.5,-547 347.5,-547 347.5,-525 221.5,-525"/>
<text text-anchor="start" x="241.5" y="-533.2" font-family="Helvetica,sans-Serif" font-size="11.00">reward</text>
<polygon fill="none" stroke="black" points="347.5,-525 347.5,-547 462.5,-547 462.5,-525 347.5,-525"/>
<text text-anchor="start" x="350.5" y="-533.2" font-family="Helvetica,sans-Serif" font-size="11.00">numeric[100]</text>
<polygon fill="none" stroke="black" points="221.5,-503 221.5,-525 347.5,-525 347.5,-503 221.5,-503"/>
<text text-anchor="start" x="241.5" y="-511.2" font-family="Helvetica,sans-Serif" font-size="11.00">inserted_at</text>
<polygon fill="none" stroke="black" points="347.5,-503 347.5,-525 462.5,-525 462.5,-503 347.5,-503"/>
<text text-anchor="start" x="350.5" y="-511.2" font-family="Helvetica,sans-Serif" font-size="11.00">timestamp[22]</text>
<polygon fill="none" stroke="black" points="221.5,-481 221.5,-503 347.5,-503 347.5,-481 221.5,-481"/>
<text text-anchor="start" x="241.5" y="-489.2" font-family="Helvetica,sans-Serif" font-size="11.00">updated_at</text>
<polygon fill="none" stroke="black" points="347.5,-481 347.5,-503 462.5,-503 462.5,-481 347.5,-481"/>
<text text-anchor="start" x="350.5" y="-489.2" font-family="Helvetica,sans-Serif" font-size="11.00">timestamp[22]</text>
<polygon fill="#ffffff" stroke="transparent" points="221.5,-463 221.5,-481 462.5,-481 462.5,-463 221.5,-463"/>
<polygon fill="none" stroke="black" points="221.5,-463 221.5,-481 462.5,-481 462.5,-463 221.5,-463"/>
<polygon fill="#ffffff" stroke="transparent" points="222.5,-464 222.5,-480 306.5,-480 306.5,-464 222.5,-464"/>
<text text-anchor="start" x="224.5" y="-469.2" font-family="Helvetica,sans-Serif" font-size="11.00">&lt; 1</text>
<polygon fill="#ffffff" stroke="transparent" points="306.5,-464 306.5,-480 378.5,-480 378.5,-464 306.5,-464"/>
<text text-anchor="start" x="338.5" y="-469.2" font-family="Helvetica,sans-Serif" font-size="11.00"> &#160;</text>
<polygon fill="#ffffff" stroke="transparent" points="378.5,-464 378.5,-480 461.5,-480 461.5,-464 378.5,-464"/>
<text text-anchor="start" x="439.5" y="-469.2" font-family="Helvetica,sans-Serif" font-size="11.00">0 &gt;</text>
<polygon fill="black" stroke="black" points="306.5,-464 306.5,-480 306.5,-480 306.5,-464 306.5,-464"/>
<polygon fill="black" stroke="black" points="378.5,-464 378.5,-480 378.5,-480 378.5,-464 378.5,-464"/>
<polygon fill="none" stroke="black" stroke-width="2" points="220,-462 220,-636 463,-636 463,-462 220,-462"/>
</a>
</g>
</g>
<!-- blocks -->
<g id="node2" class="node">
<title>blocks</title>
<g id="a_node2"><a xlink:href="../../tables/blocks.html" xlink:title="blocks" target="_top">
<polygon fill="#ffffff" stroke="transparent" points="8,-97 8,-331 156,-331 156,-97 8,-97"/>
<polygon fill="#f5f5f5" stroke="transparent" points="8,-309 8,-331 156,-331 156,-309 8,-309"/>
<polygon fill="none" stroke="black" points="8,-309 8,-331 156,-331 156,-309 8,-309"/>
<text text-anchor="start" x="13" y="-318.2" font-family="Helvetica,sans-Serif" font-weight="bold" font-size="11.00">blocks</text>
<text text-anchor="start" x="114" y="-317.2" font-family="Helvetica,sans-Serif" font-size="11.00">[table]</text>
<polygon fill="#ffffff" stroke="transparent" points="8,-287 8,-309 156,-309 156,-287 8,-287"/>
<polygon fill="none" stroke="black" points="8,-287 8,-309 156,-309 156,-287 8,-287"/>
<text text-anchor="start" x="28" y="-295.2" font-family="Helvetica,sans-Serif" font-size="11.00">consensus</text>
<polygon fill="none" stroke="black" points="8,-265 8,-287 156,-287 156,-265 8,-265"/>
<image xlink:href="../../images/primaryKeys.png" width="11px" height="12px" preserveAspectRatio="xMinYMin meet" x="13" y="-282"/>
<text text-anchor="start" x="28" y="-273.2" font-family="Helvetica,sans-Serif" font-size="11.00">hash</text>
<polygon fill="#ffffff" stroke="transparent" points="8,-243 8,-265 156,-265 156,-243 8,-243"/>
<polygon fill="none" stroke="black" points="8,-243 8,-265 156,-265 156,-243 8,-243"/>
<text text-anchor="start" x="28" y="-251.2" font-family="Helvetica,sans-Serif" font-size="11.00">miner_hash</text>
<polygon fill="#ffffff" stroke="transparent" points="8,-221 8,-243 156,-243 156,-221 8,-221"/>
<polygon fill="none" stroke="black" points="8,-221 8,-243 156,-243 156,-221 8,-221"/>
<image xlink:href="../../images/foreignKeys.png" width="11px" height="12px" preserveAspectRatio="xMinYMin meet" x="13" y="-238"/>
<text text-anchor="start" x="28" y="-229.2" font-family="Helvetica,sans-Serif" font-size="11.00">number</text>
<polygon fill="#ffffff" stroke="transparent" points="8,-199 8,-221 156,-221 156,-199 8,-199"/>
<polygon fill="none" stroke="black" points="8,-199 8,-221 156,-221 156,-199 8,-199"/>
<text text-anchor="start" x="28" y="-207.2" font-family="Helvetica,sans-Serif" font-size="11.00">parent_hash</text>
<polygon fill="#ffffff" stroke="transparent" points="8,-177 8,-199 156,-199 156,-177 8,-177"/>
<polygon fill="none" stroke="black" points="8,-177 8,-199 156,-199 156,-177 8,-177"/>
<text text-anchor="start" x="28" y="-185.2" font-family="Helvetica,sans-Serif" font-size="11.00">timestamp</text>
<polygon fill="#ffffff" stroke="transparent" points="8,-155 8,-177 156,-177 156,-155 8,-155"/>
<polygon fill="none" stroke="black" points="8,-155 8,-177 156,-177 156,-155 8,-155"/>
<text text-anchor="start" x="28" y="-163.2" font-family="Helvetica,sans-Serif" font-size="11.00">inserted_at</text>
<polygon fill="#ffffff" stroke="transparent" points="8,-133 8,-155 156,-155 156,-133 8,-133"/>
<polygon fill="none" stroke="black" points="8,-133 8,-155 156,-155 156,-133 8,-133"/>
<text text-anchor="start" x="28" y="-141.2" font-family="Helvetica,sans-Serif" font-size="11.00">is_empty</text>
<polygon fill="none" stroke="black" points="8,-115 8,-133 156,-133 156,-115 8,-115"/>
<text text-anchor="start" x="11" y="-121.2" font-family="Helvetica,sans-Serif" font-size="11.00">...</text>
<polygon fill="#ffffff" stroke="transparent" points="8,-97 8,-115 156,-115 156,-97 8,-97"/>
<polygon fill="none" stroke="black" points="8,-97 8,-115 156,-115 156,-97 8,-97"/>
<polygon fill="#ffffff" stroke="transparent" points="9,-98 9,-114 54,-114 54,-98 9,-98"/>
<text text-anchor="start" x="11" y="-103.2" font-family="Helvetica,sans-Serif" font-size="11.00"> &#160;</text>
<polygon fill="#ffffff" stroke="transparent" points="54,-98 54,-114 99,-114 99,-98 54,-98"/>
<text text-anchor="start" x="72.5" y="-103.2" font-family="Helvetica,sans-Serif" font-size="11.00"> &#160;</text>
<polygon fill="#ffffff" stroke="transparent" points="99,-98 99,-114 155,-114 155,-98 99,-98"/>
<text text-anchor="start" x="133" y="-103.2" font-family="Helvetica,sans-Serif" font-size="11.00">9 &gt;</text>
<polygon fill="black" stroke="black" points="54,-98 54,-114 54,-114 54,-98 54,-98"/>
<polygon fill="black" stroke="black" points="99,-98 99,-114 99,-114 99,-98 99,-98"/>
</a>
</g>
</g>
<!-- block_rewards&#45;&gt;blocks -->
<g id="edge1" class="edge">
<title>block_rewards:w&#45;&gt;blocks:e</title>
<path fill="none" stroke="black" d="M206.9,-552.37C166.27,-512.62 215.84,-276 157,-276"/>
<polygon fill="black" stroke="black" points="213.11,-554.94 219.12,-561.33 216.8,-556.47 220.5,-558 220.5,-558 220.5,-558 216.8,-556.47 221.88,-554.67 213.11,-554.94 213.11,-554.94"/>
<ellipse fill="none" stroke="black" cx="210.15" cy="-553.71" rx="3.2" ry="3.2"/>
</g>
<!-- block_second_degree_relations -->
<g id="node3" class="node">
<title>block_second_degree_relations</title>
<g id="a_node3"><a xlink:href="../../tables/block_second_degree_relations.html" xlink:title="block_second_degree_relations" target="_top">
<polygon fill="#ffffff" stroke="transparent" points="205,-382 205,-440 478,-440 478,-382 205,-382"/>
<polygon fill="#f5f5f5" stroke="transparent" points="205.5,-418 205.5,-440 478.5,-440 478.5,-418 205.5,-418"/>
<polygon fill="none" stroke="black" points="205.5,-418 205.5,-440 478.5,-440 478.5,-418 205.5,-418"/>
<text text-anchor="start" x="210.5" y="-427.2" font-family="Helvetica,sans-Serif" font-weight="bold" font-size="11.00">block_second_degree_relations</text>
<text text-anchor="start" x="436.5" y="-426.2" font-family="Helvetica,sans-Serif" font-size="11.00">[table]</text>
<polygon fill="none" stroke="black" points="205.5,-400 205.5,-418 478.5,-418 478.5,-400 205.5,-400"/>
<text text-anchor="start" x="208.5" y="-406.2" font-family="Helvetica,sans-Serif" font-size="11.00">...</text>
<polygon fill="#ffffff" stroke="transparent" points="205.5,-382 205.5,-400 478.5,-400 478.5,-382 205.5,-382"/>
<polygon fill="none" stroke="black" points="205.5,-382 205.5,-400 478.5,-400 478.5,-382 205.5,-382"/>
<polygon fill="#ffffff" stroke="transparent" points="206.5,-383 206.5,-399 305.5,-399 305.5,-383 206.5,-383"/>
<text text-anchor="start" x="208.5" y="-388.2" font-family="Helvetica,sans-Serif" font-size="11.00">&lt; 1</text>
<polygon fill="#ffffff" stroke="transparent" points="305.5,-383 305.5,-399 391.5,-399 391.5,-383 305.5,-383"/>
<text text-anchor="start" x="344.5" y="-388.2" font-family="Helvetica,sans-Serif" font-size="11.00"> &#160;</text>
<polygon fill="#ffffff" stroke="transparent" points="391.5,-383 391.5,-399 477.5,-399 477.5,-383 391.5,-383"/>
<text text-anchor="start" x="467.5" y="-388.2" font-family="Helvetica,sans-Serif" font-size="11.00"> &#160;</text>
<polygon fill="black" stroke="black" points="305.5,-383 305.5,-399 305.5,-399 305.5,-383 305.5,-383"/>
<polygon fill="black" stroke="black" points="391.5,-383 391.5,-399 391.5,-399 391.5,-383 391.5,-383"/>
</a>
</g>
</g>
<!-- block_second_degree_relations&#45;&gt;blocks -->
<g id="edge2" class="edge">
<title>block_second_degree_relations:w&#45;&gt;blocks:e</title>
<path fill="none" stroke="black" d="M190.33,-405.71C155.13,-385.23 213.88,-276 157,-276"/>
<polygon fill="black" stroke="black" points="196.71,-407.19 203.69,-412.51 200.6,-408.1 204.5,-409 204.5,-409 204.5,-409 200.6,-408.1 205.31,-405.49 196.71,-407.19 196.71,-407.19"/>
<ellipse fill="none" stroke="black" cx="193.59" cy="-406.47" rx="3.2" ry="3.2"/>
</g>
<!-- internal_transactions -->
<g id="node4" class="node">
<title>internal_transactions</title>
<g id="a_node4"><a xlink:href="../../tables/internal_transactions.html" xlink:title="internal_transactions" target="_top">
<polygon fill="#ffffff" stroke="transparent" points="527,-330 527,-388 729,-388 729,-330 527,-330"/>
<polygon fill="#f5f5f5" stroke="transparent" points="527,-366 527,-388 729,-388 729,-366 527,-366"/>
<polygon fill="none" stroke="black" points="527,-366 527,-388 729,-388 729,-366 527,-366"/>
<text text-anchor="start" x="532" y="-375.2" font-family="Helvetica,sans-Serif" font-weight="bold" font-size="11.00">internal_transactions</text>
<text text-anchor="start" x="687" y="-374.2" font-family="Helvetica,sans-Serif" font-size="11.00">[table]</text>
<polygon fill="none" stroke="black" points="527,-348 527,-366 729,-366 729,-348 527,-348"/>
<text text-anchor="start" x="530" y="-354.2" font-family="Helvetica,sans-Serif" font-size="11.00">...</text>
<polygon fill="#ffffff" stroke="transparent" points="527,-330 527,-348 729,-348 729,-330 527,-330"/>
<polygon fill="none" stroke="black" points="527,-330 527,-348 729,-348 729,-330 527,-330"/>
<polygon fill="#ffffff" stroke="transparent" points="528,-331 528,-347 603,-347 603,-331 528,-331"/>
<text text-anchor="start" x="530" y="-336.2" font-family="Helvetica,sans-Serif" font-size="11.00">&lt; 2</text>
<polygon fill="#ffffff" stroke="transparent" points="603,-331 603,-347 666,-347 666,-331 603,-331"/>
<text text-anchor="start" x="630.5" y="-336.2" font-family="Helvetica,sans-Serif" font-size="11.00"> &#160;</text>
<polygon fill="#ffffff" stroke="transparent" points="666,-331 666,-347 728,-347 728,-331 666,-331"/>
<text text-anchor="start" x="718" y="-336.2" font-family="Helvetica,sans-Serif" font-size="11.00"> &#160;</text>
<polygon fill="black" stroke="black" points="603,-331 603,-347 603,-347 603,-331 603,-331"/>
<polygon fill="black" stroke="black" points="666,-331 666,-347 666,-347 666,-331 666,-331"/>
</a>
</g>
</g>
<!-- internal_transactions&#45;&gt;blocks -->
<g id="edge3" class="edge">
<title>internal_transactions:w&#45;&gt;blocks:e</title>
<path fill="none" stroke="black" d="M511.45,-357.23C429.93,-359.49 256.12,-377.1 197,-342 167.51,-324.49 191.3,-276 157,-276"/>
<polygon fill="black" stroke="black" points="518,-357.13 526.06,-360.6 522,-357.06 526,-357 526,-357 526,-357 522,-357.06 525.94,-353.4 518,-357.13 518,-357.13"/>
<ellipse fill="none" stroke="black" cx="514.8" cy="-357.18" rx="3.2" ry="3.2"/>
</g>
<!-- transactions -->
<g id="node5" class="node">
<title>transactions</title>
<g id="a_node5"><a xlink:href="../../tables/transactions.html" xlink:title="transactions" target="_top">
<polygon fill="#ffffff" stroke="transparent" points="272.5,-249 272.5,-307 410.5,-307 410.5,-249 272.5,-249"/>
<polygon fill="#f5f5f5" stroke="transparent" points="272.5,-285 272.5,-307 410.5,-307 410.5,-285 272.5,-285"/>
<polygon fill="none" stroke="black" points="272.5,-285 272.5,-307 410.5,-307 410.5,-285 272.5,-285"/>
<text text-anchor="start" x="277.5" y="-294.2" font-family="Helvetica,sans-Serif" font-weight="bold" font-size="11.00">transactions</text>
<text text-anchor="start" x="368.5" y="-293.2" font-family="Helvetica,sans-Serif" font-size="11.00">[table]</text>
<polygon fill="none" stroke="black" points="272.5,-267 272.5,-285 410.5,-285 410.5,-267 272.5,-267"/>
<text text-anchor="start" x="275.5" y="-273.2" font-family="Helvetica,sans-Serif" font-size="11.00">...</text>
<polygon fill="#ffffff" stroke="transparent" points="272.5,-249 272.5,-267 410.5,-267 410.5,-249 272.5,-249"/>
<polygon fill="none" stroke="black" points="272.5,-249 272.5,-267 410.5,-267 410.5,-249 272.5,-249"/>
<polygon fill="#ffffff" stroke="transparent" points="273.5,-250 273.5,-266 323.5,-266 323.5,-250 273.5,-250"/>
<text text-anchor="start" x="275.5" y="-255.2" font-family="Helvetica,sans-Serif" font-size="11.00">&lt; 1</text>
<polygon fill="#ffffff" stroke="transparent" points="323.5,-250 323.5,-266 360.5,-266 360.5,-250 323.5,-250"/>
<text text-anchor="start" x="338" y="-255.2" font-family="Helvetica,sans-Serif" font-size="11.00"> &#160;</text>
<polygon fill="#ffffff" stroke="transparent" points="360.5,-250 360.5,-266 409.5,-266 409.5,-250 360.5,-250"/>
<text text-anchor="start" x="387.5" y="-255.2" font-family="Helvetica,sans-Serif" font-size="11.00">7 &gt;</text>
<polygon fill="black" stroke="black" points="323.5,-250 323.5,-266 323.5,-266 323.5,-250 323.5,-250"/>
<polygon fill="black" stroke="black" points="360.5,-250 360.5,-266 360.5,-266 360.5,-250 360.5,-250"/>
</a>
</g>
</g>
<!-- internal_transactions&#45;&gt;transactions -->
<g id="edge4" class="edge">
<title>internal_transactions:w&#45;&gt;transactions:e</title>
<path fill="none" stroke="black" d="M511.44,-355.31C464.88,-343.68 468.48,-276 411.5,-276"/>
<polygon fill="black" stroke="black" points="518.05,-356.08 525.58,-360.58 522.03,-356.54 526,-357 526,-357 526,-357 522.03,-356.54 526.42,-353.42 518.05,-356.08 518.05,-356.08"/>
<ellipse fill="none" stroke="black" cx="514.87" cy="-355.71" rx="3.2" ry="3.2"/>
</g>
<!-- transactions&#45;&gt;blocks -->
<g id="edge12" class="edge">
<title>transactions:w&#45;&gt;blocks:e</title>
<path fill="none" stroke="black" d="M257.1,-276C217.63,-276 202.72,-276 157,-276"/>
<polygon fill="black" stroke="black" points="263.5,-276 271.5,-279.6 267.5,-276 271.5,-276 271.5,-276 271.5,-276 267.5,-276 271.5,-272.4 263.5,-276 263.5,-276"/>
<ellipse fill="none" stroke="black" cx="260.3" cy="-276" rx="3.2" ry="3.2"/>
</g>
<!-- logs -->
<g id="node6" class="node">
<title>logs</title>
<g id="a_node6"><a xlink:href="../../tables/logs.html" xlink:title="logs" target="_top">
<polygon fill="#ffffff" stroke="transparent" points="589.5,-251 589.5,-309 666.5,-309 666.5,-251 589.5,-251"/>
<polygon fill="#f5f5f5" stroke="transparent" points="590,-287 590,-309 667,-309 667,-287 590,-287"/>
<polygon fill="none" stroke="black" points="590,-287 590,-309 667,-309 667,-287 590,-287"/>
<text text-anchor="start" x="595" y="-296.2" font-family="Helvetica,sans-Serif" font-weight="bold" font-size="11.00">logs</text>
<text text-anchor="start" x="625" y="-295.2" font-family="Helvetica,sans-Serif" font-size="11.00">[table]</text>
<polygon fill="none" stroke="black" points="590,-269 590,-287 667,-287 667,-269 590,-269"/>
<text text-anchor="start" x="593" y="-275.2" font-family="Helvetica,sans-Serif" font-size="11.00">...</text>
<polygon fill="#ffffff" stroke="transparent" points="590,-251 590,-269 667,-269 667,-251 590,-251"/>
<polygon fill="none" stroke="black" points="590,-251 590,-269 667,-269 667,-251 590,-251"/>
<polygon fill="#ffffff" stroke="transparent" points="591,-252 591,-268 624,-268 624,-252 591,-252"/>
<text text-anchor="start" x="593" y="-257.2" font-family="Helvetica,sans-Serif" font-size="11.00">&lt; 2</text>
<polygon fill="#ffffff" stroke="transparent" points="624,-252 624,-268 645,-268 645,-252 624,-252"/>
<text text-anchor="start" x="630.5" y="-257.2" font-family="Helvetica,sans-Serif" font-size="11.00"> &#160;</text>
<polygon fill="#ffffff" stroke="transparent" points="645,-252 645,-268 666,-268 666,-252 645,-252"/>
<text text-anchor="start" x="656" y="-257.2" font-family="Helvetica,sans-Serif" font-size="11.00"> &#160;</text>
<polygon fill="black" stroke="black" points="624,-252 624,-268 624,-268 624,-252 624,-252"/>
<polygon fill="black" stroke="black" points="645,-252 645,-268 645,-268 645,-252 645,-252"/>
</a>
</g>
</g>
<!-- logs&#45;&gt;blocks -->
<g id="edge5" class="edge">
<title>logs:w&#45;&gt;blocks:e</title>
<path fill="none" stroke="black" d="M574.33,-279.04C538.15,-284.51 528.99,-309.95 486,-318 359.75,-341.65 315.06,-368.6 197,-318 173.31,-307.85 182.78,-276 157,-276"/>
<polygon fill="black" stroke="black" points="581.02,-278.57 589.26,-281.59 585.01,-278.28 589,-278 589,-278 589,-278 585.01,-278.28 588.74,-274.41 581.02,-278.57 581.02,-278.57"/>
<ellipse fill="none" stroke="black" cx="577.83" cy="-278.79" rx="3.2" ry="3.2"/>
</g>
<!-- logs&#45;&gt;transactions -->
<g id="edge6" class="edge">
<title>logs:w&#45;&gt;transactions:e</title>
<path fill="none" stroke="black" d="M574.45,-277.98C507.32,-277.75 485.31,-276 411.5,-276"/>
<polygon fill="black" stroke="black" points="581,-277.99 588.99,-281.6 585,-277.99 589,-278 589,-278 589,-278 585,-277.99 589.01,-274.4 581,-277.99 581,-277.99"/>
<ellipse fill="none" stroke="black" cx="577.8" cy="-277.98" rx="3.2" ry="3.2"/>
</g>
<!-- pending_block_operations -->
<g id="node7" class="node">
<title>pending_block_operations</title>
<g id="a_node7"><a xlink:href="../../tables/pending_block_operations.html" xlink:title="pending_block_operations" target="_top">
<polygon fill="#ffffff" stroke="transparent" points="223,-170 223,-228 460,-228 460,-170 223,-170"/>
<polygon fill="#f5f5f5" stroke="transparent" points="223.5,-206 223.5,-228 460.5,-228 460.5,-206 223.5,-206"/>
<polygon fill="none" stroke="black" points="223.5,-206 223.5,-228 460.5,-228 460.5,-206 223.5,-206"/>
<text text-anchor="start" x="228.5" y="-215.2" font-family="Helvetica,sans-Serif" font-weight="bold" font-size="11.00">pending_block_operations</text>
<text text-anchor="start" x="418.5" y="-214.2" font-family="Helvetica,sans-Serif" font-size="11.00">[table]</text>
<polygon fill="none" stroke="black" points="223.5,-188 223.5,-206 460.5,-206 460.5,-188 223.5,-188"/>
<text text-anchor="start" x="226.5" y="-194.2" font-family="Helvetica,sans-Serif" font-size="11.00">...</text>
<polygon fill="#ffffff" stroke="transparent" points="223.5,-170 223.5,-188 460.5,-188 460.5,-170 223.5,-170"/>
<polygon fill="none" stroke="black" points="223.5,-170 223.5,-188 460.5,-188 460.5,-170 223.5,-170"/>
<polygon fill="#ffffff" stroke="transparent" points="224.5,-171 224.5,-187 311.5,-187 311.5,-171 224.5,-171"/>
<text text-anchor="start" x="226.5" y="-176.2" font-family="Helvetica,sans-Serif" font-size="11.00">&lt; 1</text>
<polygon fill="#ffffff" stroke="transparent" points="311.5,-171 311.5,-187 385.5,-187 385.5,-171 311.5,-171"/>
<text text-anchor="start" x="344.5" y="-176.2" font-family="Helvetica,sans-Serif" font-size="11.00"> &#160;</text>
<polygon fill="#ffffff" stroke="transparent" points="385.5,-171 385.5,-187 459.5,-187 459.5,-171 385.5,-171"/>
<text text-anchor="start" x="449.5" y="-176.2" font-family="Helvetica,sans-Serif" font-size="11.00"> &#160;</text>
<polygon fill="black" stroke="black" points="311.5,-171 311.5,-187 311.5,-187 311.5,-171 311.5,-171"/>
<polygon fill="black" stroke="black" points="385.5,-171 385.5,-187 385.5,-187 385.5,-171 385.5,-171"/>
</a>
</g>
</g>
<!-- pending_block_operations&#45;&gt;blocks -->
<g id="edge7" class="edge">
<title>pending_block_operations:w&#45;&gt;blocks:e</title>
<path fill="none" stroke="black" d="M212.23,-198.65C180.78,-209.99 198.69,-276 157,-276"/>
<polygon fill="black" stroke="black" points="221.08,-193.18 222.34,-201.08 220.77,-201.33 219.5,-193.43 221.08,-193.18"/>
<polyline fill="none" stroke="black" points="222.5,-197 218.55,-197.63 "/>
<ellipse fill="none" stroke="black" cx="215.39" cy="-198.14" rx="3.2" ry="3.2"/>
</g>
<!-- token_transfers -->
<g id="node8" class="node">
<title>token_transfers</title>
<g id="a_node8"><a xlink:href="../../tables/token_transfers.html" xlink:title="token_transfers" target="_top">
<polygon fill="#ffffff" stroke="transparent" points="547,-172 547,-230 709,-230 709,-172 547,-172"/>
<polygon fill="#f5f5f5" stroke="transparent" points="547,-208 547,-230 709,-230 709,-208 547,-208"/>
<polygon fill="none" stroke="black" points="547,-208 547,-230 709,-230 709,-208 547,-208"/>
<text text-anchor="start" x="552" y="-217.2" font-family="Helvetica,sans-Serif" font-weight="bold" font-size="11.00">token_transfers</text>
<text text-anchor="start" x="667" y="-216.2" font-family="Helvetica,sans-Serif" font-size="11.00">[table]</text>
<polygon fill="none" stroke="black" points="547,-190 547,-208 709,-208 709,-190 547,-190"/>
<text text-anchor="start" x="550" y="-196.2" font-family="Helvetica,sans-Serif" font-size="11.00">...</text>
<polygon fill="#ffffff" stroke="transparent" points="547,-172 547,-190 709,-190 709,-172 547,-172"/>
<polygon fill="none" stroke="black" points="547,-172 547,-190 709,-190 709,-172 547,-172"/>
<polygon fill="#ffffff" stroke="transparent" points="548,-173 548,-189 610,-189 610,-173 548,-173"/>
<text text-anchor="start" x="550" y="-178.2" font-family="Helvetica,sans-Serif" font-size="11.00">&lt; 2</text>
<polygon fill="#ffffff" stroke="transparent" points="610,-173 610,-189 659,-189 659,-173 610,-173"/>
<text text-anchor="start" x="630.5" y="-178.2" font-family="Helvetica,sans-Serif" font-size="11.00"> &#160;</text>
<polygon fill="#ffffff" stroke="transparent" points="659,-173 659,-189 708,-189 708,-173 659,-173"/>
<text text-anchor="start" x="698" y="-178.2" font-family="Helvetica,sans-Serif" font-size="11.00"> &#160;</text>
<polygon fill="black" stroke="black" points="610,-173 610,-189 610,-189 610,-173 610,-173"/>
<polygon fill="black" stroke="black" points="659,-173 659,-189 659,-189 659,-173 659,-173"/>
</a>
</g>
</g>
<!-- token_transfers&#45;&gt;blocks -->
<g id="edge8" class="edge">
<title>token_transfers:w&#45;&gt;blocks:e</title>
<path fill="none" stroke="black" d="M531.77,-196.39C513.96,-188.91 511.01,-167.42 486,-160 424.43,-141.75 249.29,-122.72 197,-160 152.6,-191.66 211.53,-276 157,-276"/>
<polygon fill="black" stroke="black" points="538.13,-197.56 545.35,-202.54 542.07,-198.28 546,-199 546,-199 546,-199 542.07,-198.28 546.65,-195.46 538.13,-197.56 538.13,-197.56"/>
<ellipse fill="none" stroke="black" cx="534.98" cy="-196.98" rx="3.2" ry="3.2"/>
</g>
<!-- token_transfers&#45;&gt;transactions -->
<g id="edge9" class="edge">
<title>token_transfers:w&#45;&gt;transactions:e</title>
<path fill="none" stroke="black" d="M531.73,-201.05C513.03,-207.18 508.86,-225.77 486,-239 454,-257.51 448.47,-276 411.5,-276"/>
<polygon fill="black" stroke="black" points="538.08,-200.14 546.51,-202.56 542.04,-199.57 546,-199 546,-199 546,-199 542.04,-199.57 545.49,-195.44 538.08,-200.14 538.08,-200.14"/>
<ellipse fill="none" stroke="black" cx="534.91" cy="-200.59" rx="3.2" ry="3.2"/>
</g>
<!-- transaction_forks -->
<g id="node9" class="node">
<title>transaction_forks</title>
<g id="a_node9"><a xlink:href="../../tables/transaction_forks.html" xlink:title="transaction_forks" target="_top">
<polygon fill="#ffffff" stroke="transparent" points="541,-93 541,-151 715,-151 715,-93 541,-93"/>
<polygon fill="#f5f5f5" stroke="transparent" points="541,-129 541,-151 715,-151 715,-129 541,-129"/>
<polygon fill="none" stroke="black" points="541,-129 541,-151 715,-151 715,-129 541,-129"/>
<text text-anchor="start" x="546" y="-138.2" font-family="Helvetica,sans-Serif" font-weight="bold" font-size="11.00">transaction_forks</text>
<text text-anchor="start" x="673" y="-137.2" font-family="Helvetica,sans-Serif" font-size="11.00">[table]</text>
<polygon fill="none" stroke="black" points="541,-111 541,-129 715,-129 715,-111 541,-111"/>
<text text-anchor="start" x="544" y="-117.2" font-family="Helvetica,sans-Serif" font-size="11.00">...</text>
<polygon fill="#ffffff" stroke="transparent" points="541,-93 541,-111 715,-111 715,-93 541,-93"/>
<polygon fill="none" stroke="black" points="541,-93 541,-111 715,-111 715,-93 541,-93"/>
<polygon fill="#ffffff" stroke="transparent" points="542,-94 542,-110 608,-110 608,-94 542,-94"/>
<text text-anchor="start" x="544" y="-99.2" font-family="Helvetica,sans-Serif" font-size="11.00">&lt; 2</text>
<polygon fill="#ffffff" stroke="transparent" points="608,-94 608,-110 661,-110 661,-94 608,-94"/>
<text text-anchor="start" x="630.5" y="-99.2" font-family="Helvetica,sans-Serif" font-size="11.00"> &#160;</text>
<polygon fill="#ffffff" stroke="transparent" points="661,-94 661,-110 714,-110 714,-94 661,-94"/>
<text text-anchor="start" x="704" y="-99.2" font-family="Helvetica,sans-Serif" font-size="11.00"> &#160;</text>
<polygon fill="black" stroke="black" points="608,-94 608,-110 608,-110 608,-94 608,-94"/>
<polygon fill="black" stroke="black" points="661,-94 661,-110 661,-110 661,-94 661,-94"/>
</a>
</g>
</g>
<!-- transaction_forks&#45;&gt;blocks -->
<g id="edge11" class="edge">
<title>transaction_forks:w&#45;&gt;blocks:e</title>
<path fill="none" stroke="black" d="M525.57,-119.7C440.36,-116.54 253.4,-90.41 197,-135 145.9,-175.4 222.14,-276 157,-276"/>
<polygon fill="black" stroke="black" points="532,-119.83 539.93,-123.6 536,-119.92 540,-120 540,-120 540,-120 536,-119.92 540.07,-116.4 532,-119.83 532,-119.83"/>
<ellipse fill="none" stroke="black" cx="528.8" cy="-119.77" rx="3.2" ry="3.2"/>
</g>
<!-- transaction_forks&#45;&gt;transactions -->
<g id="edge10" class="edge">
<title>transaction_forks:w&#45;&gt;transactions:e</title>
<path fill="none" stroke="black" d="M525.73,-122.09C489.71,-134.67 522,-200.92 486,-239 460.6,-265.86 448.47,-276 411.5,-276"/>
<polygon fill="black" stroke="black" points="532.08,-121.16 540.52,-123.56 536.04,-120.58 540,-120 540,-120 540,-120 536.04,-120.58 539.48,-116.44 532.08,-121.16 532.08,-121.16"/>
<ellipse fill="none" stroke="black" cx="528.92" cy="-121.63" rx="3.2" ry="3.2"/>
</g>
<!-- withdrawals -->
<g id="node10" class="node">
<title>withdrawals</title>
<g id="a_node10"><a xlink:href="../../tables/withdrawals.html" xlink:title="withdrawals" target="_top">
<polygon fill="#ffffff" stroke="transparent" points="273.5,-37 273.5,-95 409.5,-95 409.5,-37 273.5,-37"/>
<polygon fill="#f5f5f5" stroke="transparent" points="273.5,-73 273.5,-95 409.5,-95 409.5,-73 273.5,-73"/>
<polygon fill="none" stroke="black" points="273.5,-73 273.5,-95 409.5,-95 409.5,-73 273.5,-73"/>
<text text-anchor="start" x="278.5" y="-82.2" font-family="Helvetica,sans-Serif" font-weight="bold" font-size="11.00">withdrawals</text>
<text text-anchor="start" x="367.5" y="-81.2" font-family="Helvetica,sans-Serif" font-size="11.00">[table]</text>
<polygon fill="none" stroke="black" points="273.5,-55 273.5,-73 409.5,-73 409.5,-55 273.5,-55"/>
<text text-anchor="start" x="276.5" y="-61.2" font-family="Helvetica,sans-Serif" font-size="11.00">...</text>
<polygon fill="#ffffff" stroke="transparent" points="273.5,-37 273.5,-55 409.5,-55 409.5,-37 273.5,-37"/>
<polygon fill="none" stroke="black" points="273.5,-37 273.5,-55 409.5,-55 409.5,-37 273.5,-37"/>
<polygon fill="#ffffff" stroke="transparent" points="274.5,-38 274.5,-54 327.5,-54 327.5,-38 274.5,-38"/>
<text text-anchor="start" x="276.5" y="-43.2" font-family="Helvetica,sans-Serif" font-size="11.00">&lt; 1</text>
<polygon fill="#ffffff" stroke="transparent" points="327.5,-38 327.5,-54 368.5,-54 368.5,-38 327.5,-38"/>
<text text-anchor="start" x="344" y="-43.2" font-family="Helvetica,sans-Serif" font-size="11.00"> &#160;</text>
<polygon fill="#ffffff" stroke="transparent" points="368.5,-38 368.5,-54 408.5,-54 408.5,-38 368.5,-38"/>
<text text-anchor="start" x="398.5" y="-43.2" font-family="Helvetica,sans-Serif" font-size="11.00"> &#160;</text>
<polygon fill="black" stroke="black" points="327.5,-38 327.5,-54 327.5,-54 327.5,-38 327.5,-38"/>
<polygon fill="black" stroke="black" points="368.5,-38 368.5,-54 368.5,-54 368.5,-38 368.5,-38"/>
</a>
</g>
</g>
<!-- withdrawals&#45;&gt;blocks -->
<g id="edge13" class="edge">
<title>withdrawals:w&#45;&gt;blocks:e</title>
<path fill="none" stroke="black" d="M257.83,-64.77C229.62,-68.04 216.98,-81.83 197,-109 151.78,-170.48 233.32,-276 157,-276"/>
<polygon fill="black" stroke="black" points="264.51,-64.42 272.69,-67.6 268.51,-64.21 272.5,-64 272.5,-64 272.5,-64 268.51,-64.21 272.31,-60.4 264.51,-64.42 264.51,-64.42"/>
<ellipse fill="none" stroke="black" cx="261.32" cy="-64.59" rx="3.2" ry="3.2"/>
</g>
</g>
</svg>
