<?xml version="1.0" encoding="UTF-8" standalone="no"?>
<!DOCTYPE svg PUBLIC "-//W3C//DTD SVG 1.1//EN"
 "http://www.w3.org/Graphics/SVG/1.1/DTD/svg11.dtd">
<!-- Generated by graphviz version 9.0.0 (20230911.1827)
 -->
<!-- Title: oneDegreeRelationshipsDiagramImplied Pages: 1 -->
<svg width="661pt" height="317pt"
 viewBox="0.00 0.00 661.00 317.00" xmlns="http://www.w3.org/2000/svg" xmlns:xlink="http://www.w3.org/1999/xlink">
<g id="graph0" class="graph" transform="scale(1 1) rotate(0) translate(4 313)">
<title>oneDegreeRelationshipsDiagramImplied</title>
<polygon fill="#ffffff" stroke="none" points="-4,4 -4,-313 657,-313 657,4 -4,4"/>
<text text-anchor="middle" x="71.38" y="-5.55" font-family="Helvetica,sans-Serif" font-size="11.00">Generated by SchemaSpy</text>
<!-- block_second_degree_relations -->
<g id="node1" class="node">
<title>block_second_degree_relations</title>
<g id="a_node1"><a xlink:href="../../tables/block_second_degree_relations.html" xlink:title="block_second_degree_relations" target="_top">
<polygon fill="#ffffff" stroke="none" points="340,-173 340,-305 645,-305 645,-173 340,-173"/>
<polygon fill="#f5f5f5" stroke="none" points="342,-281 342,-303 643,-303 643,-281 342,-281"/>
<polygon fill="none" stroke="black" points="342,-281 342,-303 643,-303 643,-281 342,-281"/>
<text text-anchor="start" x="347" y="-288.55" font-family="Helvetica,sans-Serif" font-weight="bold" font-size="11.00">block_second_degree_relations</text>
<text text-anchor="start" x="608.75" y="-287.55" font-family="Helvetica,sans-Serif" font-size="11.00">[table]</text>
<polygon fill="none" stroke="black" points="342,-259 342,-281 545,-281 545,-259 342,-259"/>
<image xlink:href="../../images/primaryKeys.png" width="11px" height="12px" preserveAspectRatio="xMinYMin meet" x="347" y="-276"/>
<text text-anchor="start" x="362" y="-265.55" font-family="Helvetica,sans-Serif" font-size="11.00">nephew_hash</text>
<polygon fill="none" stroke="black" points="545,-259 545,-281 643,-281 643,-259 545,-259"/>
<text text-anchor="start" x="547.88" y="-265.55" font-family="Helvetica,sans-Serif" font-size="11.00">bytea[2147483647]</text>
<polygon fill="none" stroke="black" points="342,-237 342,-259 545,-259 545,-237 342,-237"/>
<image xlink:href="../../images/primaryKeys.png" width="11px" height="12px" preserveAspectRatio="xMinYMin meet" x="347" y="-254"/>
<text text-anchor="start" x="362" y="-243.55" font-family="Helvetica,sans-Serif" font-size="11.00">uncle_hash</text>
<polygon fill="none" stroke="black" points="545,-237 545,-259 643,-259 643,-237 545,-237"/>
<text text-anchor="start" x="547.88" y="-243.55" font-family="Helvetica,sans-Serif" font-size="11.00">bytea[2147483647]</text>
<polygon fill="none" stroke="black" points="342,-215 342,-237 545,-237 545,-215 342,-215"/>
<text text-anchor="start" x="362" y="-221.55" font-family="Helvetica,sans-Serif" font-size="11.00">uncle_fetched_at</text>
<polygon fill="none" stroke="black" points="545,-215 545,-237 643,-237 643,-215 545,-215"/>
<text text-anchor="start" x="548" y="-221.55" font-family="Helvetica,sans-Serif" font-size="11.00">timestamp[29,6]</text>
<polygon fill="none" stroke="black" points="342,-193 342,-215 545,-215 545,-193 342,-193"/>
<image xlink:href="../../images/foreignKeys.png" width="11px" height="12px" preserveAspectRatio="xMinYMin meet" x="347" y="-210"/>
<text text-anchor="start" x="362" y="-199.55" font-family="Helvetica,sans-Serif" font-size="11.00">index</text>
<polygon fill="none" stroke="black" points="545,-193 545,-215 643,-215 643,-193 545,-193"/>
<text text-anchor="start" x="548" y="-199.55" font-family="Helvetica,sans-Serif" font-size="11.00">int4[10]</text>
<polygon fill="#ffffff" stroke="none" points="342,-175 342,-193 448,-193 448,-175 342,-175"/>
<polygon fill="none" stroke="black" points="342,-175 342,-193 448,-193 448,-175 342,-175"/>
<text text-anchor="start" x="345" y="-179.55" font-family="Helvetica,sans-Serif" font-size="11.00">&lt; 2</text>
<polygon fill="#ffffff" stroke="none" points="448,-175 448,-193 545,-193 545,-175 448,-175"/>
<polygon fill="none" stroke="black" points="448,-175 448,-193 545,-193 545,-175 448,-175"/>
<text text-anchor="start" x="536" y="-179.55" font-family="Helvetica,sans-Serif" font-size="11.00"> &#160;</text>
<polygon fill="#ffffff" stroke="none" points="545,-175 545,-193 643,-193 643,-175 545,-175"/>
<polygon fill="none" stroke="black" points="545,-175 545,-193 643,-193 643,-175 545,-175"/>
<text text-anchor="start" x="624.25" y="-179.55" font-family="Helvetica,sans-Serif" font-size="11.00">0 &gt;</text>
<polygon fill="none" stroke="black" stroke-width="2" points="341,-174 341,-304 644,-304 644,-174 341,-174"/>
</a>
</g>
</g>
<!-- withdrawals -->
<g id="node2" class="node">
<title>withdrawals</title>
<g id="a_node2"><a xlink:href="../../tables/withdrawals.html" xlink:title="withdrawals" target="_top">
<polygon fill="#ffffff" stroke="none" points="182,-116 182,-240 291,-240 291,-116 182,-116"/>
<polygon fill="#f5f5f5" stroke="none" points="182,-218 182,-240 291,-240 291,-218 182,-218"/>
<polygon fill="none" stroke="black" points="182,-218 182,-240 291,-240 291,-218 182,-218"/>
<text text-anchor="start" x="187" y="-225.55" font-family="Helvetica,sans-Serif" font-weight="bold" font-size="11.00">withdrawals</text>
<text text-anchor="start" x="256.75" y="-224.55" font-family="Helvetica,sans-Serif" font-size="11.00">[table]</text>
<polygon fill="none" stroke="black" points="182,-196 182,-218 291,-218 291,-196 182,-196"/>
<image xlink:href="../../images/primaryKeys.png" width="11px" height="12px" preserveAspectRatio="xMinYMin meet" x="187" y="-213"/>
<text text-anchor="start" x="202" y="-202.55" font-family="Helvetica,sans-Serif" font-size="11.00">index</text>
<polygon fill="#ffffff" stroke="none" points="182,-174 182,-196 291,-196 291,-174 182,-174"/>
<polygon fill="none" stroke="black" points="182,-174 182,-196 291,-196 291,-174 182,-174"/>
<text text-anchor="start" x="202" y="-180.55" font-family="Helvetica,sans-Serif" font-size="11.00">address_hash</text>
<polygon fill="#ffffff" stroke="none" points="182,-152 182,-174 291,-174 291,-152 182,-152"/>
<polygon fill="none" stroke="black" points="182,-152 182,-174 291,-174 291,-152 182,-152"/>
<image xlink:href="../../images/foreignKeys.png" width="11px" height="12px" preserveAspectRatio="xMinYMin meet" x="187" y="-169"/>
<text text-anchor="start" x="202" y="-158.55" font-family="Helvetica,sans-Serif" font-size="11.00">block_hash</text>
<polygon fill="none" stroke="black" points="182,-134 182,-152 291,-152 291,-134 182,-134"/>
<text text-anchor="start" x="185" y="-138.55" font-family="Helvetica,sans-Serif" font-size="11.00">...</text>
<polygon fill="#ffffff" stroke="none" points="182,-116 182,-134 230,-134 230,-116 182,-116"/>
<polygon fill="none" stroke="black" points="182,-116 182,-134 230,-134 230,-116 182,-116"/>
<text text-anchor="start" x="185" y="-120.55" font-family="Helvetica,sans-Serif" font-size="11.00">&lt; 1</text>
<polygon fill="#ffffff" stroke="none" points="230,-116 230,-134 256,-134 256,-116 230,-116"/>
<polygon fill="none" stroke="black" points="230,-116 230,-134 256,-134 256,-116 230,-116"/>
<text text-anchor="start" x="247" y="-120.55" font-family="Helvetica,sans-Serif" font-size="11.00"> &#160;</text>
<polygon fill="#ffffff" stroke="none" points="256,-116 256,-134 291,-134 291,-116 256,-116"/>
<polygon fill="none" stroke="black" points="256,-116 256,-134 291,-134 291,-116 256,-116"/>
<text text-anchor="start" x="272.25" y="-120.55" font-family="Helvetica,sans-Serif" font-size="11.00">5 &gt;</text>
</a>
</g>
</g>
<!-- block_second_degree_relations&#45;&gt;withdrawals -->
<g id="edge1" class="edge">
<title>block_second_degree_relations:w&#45;&gt;withdrawals:e</title>
<path fill="none" stroke="black" stroke-dasharray="5,2" d="M324.88,-204.64C314.59,-205.52 307.53,-207 292.5,-207"/>
<polygon fill="black" stroke="black" points="332.17,-204.34 340.31,-207.61 336.5,-204.16 339.83,-204.03 339.83,-204.03 339.83,-204.03 336.5,-204.16 340.02,-200.42 332.17,-204.34"/>
<ellipse fill="none" stroke="black" cx="327.26" cy="-204.54" rx="3.2" ry="3.2"/>
</g>
<!-- blocks -->
<g id="node3" class="node">
<title>blocks</title>
<g id="a_node3"><a xlink:href="../../tables/blocks.html" xlink:title="blocks" target="_top">
<polygon fill="#ffffff" stroke="none" points="8,-37 8,-271 133,-271 133,-37 8,-37"/>
<polygon fill="#f5f5f5" stroke="none" points="8,-249 8,-271 133,-271 133,-249 8,-249"/>
<polygon fill="none" stroke="black" points="8,-249 8,-271 133,-271 133,-249 8,-249"/>
<text text-anchor="start" x="12.75" y="-256.55" font-family="Helvetica,sans-Serif" font-weight="bold" font-size="11.00">blocks</text>
<text text-anchor="start" x="98.75" y="-255.55" font-family="Helvetica,sans-Serif" font-size="11.00">[table]</text>
<polygon fill="#ffffff" stroke="none" points="8,-227 8,-249 133,-249 133,-227 8,-227"/>
<polygon fill="none" stroke="black" points="8,-227 8,-249 133,-249 133,-227 8,-227"/>
<text text-anchor="start" x="28" y="-233.55" font-family="Helvetica,sans-Serif" font-size="11.00">consensus</text>
<polygon fill="none" stroke="black" points="8,-205 8,-227 133,-227 133,-205 8,-205"/>
<image xlink:href="../../images/primaryKeys.png" width="11px" height="12px" preserveAspectRatio="xMinYMin meet" x="13" y="-222"/>
<text text-anchor="start" x="28" y="-211.55" font-family="Helvetica,sans-Serif" font-size="11.00">hash</text>
<polygon fill="#ffffff" stroke="none" points="8,-183 8,-205 133,-205 133,-183 8,-183"/>
<polygon fill="none" stroke="black" points="8,-183 8,-205 133,-205 133,-183 8,-183"/>
<text text-anchor="start" x="28" y="-189.55" font-family="Helvetica,sans-Serif" font-size="11.00">miner_hash</text>
<polygon fill="#ffffff" stroke="none" points="8,-161 8,-183 133,-183 133,-161 8,-161"/>
<polygon fill="none" stroke="black" points="8,-161 8,-183 133,-183 133,-161 8,-161"/>
<text text-anchor="start" x="28" y="-167.55" font-family="Helvetica,sans-Serif" font-size="11.00">number</text>
<polygon fill="#ffffff" stroke="none" points="8,-139 8,-161 133,-161 133,-139 8,-139"/>
<polygon fill="none" stroke="black" points="8,-139 8,-161 133,-161 133,-139 8,-139"/>
<text text-anchor="start" x="28" y="-145.55" font-family="Helvetica,sans-Serif" font-size="11.00">parent_hash</text>
<polygon fill="#ffffff" stroke="none" points="8,-117 8,-139 133,-139 133,-117 8,-117"/>
<polygon fill="none" stroke="black" points="8,-117 8,-139 133,-139 133,-117 8,-117"/>
<text text-anchor="start" x="28" y="-123.55" font-family="Helvetica,sans-Serif" font-size="11.00">timestamp</text>
<polygon fill="#ffffff" stroke="none" points="8,-95 8,-117 133,-117 133,-95 8,-95"/>
<polygon fill="none" stroke="black" points="8,-95 8,-117 133,-117 133,-95 8,-95"/>
<text text-anchor="start" x="28" y="-101.55" font-family="Helvetica,sans-Serif" font-size="11.00">inserted_at</text>
<polygon fill="#ffffff" stroke="none" points="8,-73 8,-95 133,-95 133,-73 8,-73"/>
<polygon fill="none" stroke="black" points="8,-73 8,-95 133,-95 133,-73 8,-73"/>
<text text-anchor="start" x="28" y="-79.55" font-family="Helvetica,sans-Serif" font-size="11.00">is_empty</text>
<polygon fill="none" stroke="black" points="8,-55 8,-73 133,-73 133,-55 8,-55"/>
<text text-anchor="start" x="11" y="-59.55" font-family="Helvetica,sans-Serif" font-size="11.00">...</text>
<polygon fill="#ffffff" stroke="none" points="8,-37 8,-55 60,-55 60,-37 8,-37"/>
<polygon fill="none" stroke="black" points="8,-37 8,-55 60,-55 60,-37 8,-37"/>
<text text-anchor="start" x="11" y="-41.55" font-family="Helvetica,sans-Serif" font-size="11.00"> &#160;</text>
<polygon fill="#ffffff" stroke="none" points="60,-37 60,-55 92,-55 92,-37 60,-37"/>
<polygon fill="none" stroke="black" points="60,-37 60,-55 92,-55 92,-37 60,-37"/>
<text text-anchor="start" x="83" y="-41.55" font-family="Helvetica,sans-Serif" font-size="11.00"> &#160;</text>
<polygon fill="#ffffff" stroke="none" points="92,-37 92,-55 133,-55 133,-37 92,-37"/>
<polygon fill="none" stroke="black" points="92,-37 92,-55 133,-55 133,-37 92,-37"/>
<text text-anchor="start" x="114.25" y="-41.55" font-family="Helvetica,sans-Serif" font-size="11.00">9 &gt;</text>
</a>
</g>
</g>
<!-- block_second_degree_relations&#45;&gt;blocks -->
<g id="edge2" class="edge">
<title>block_second_degree_relations:w&#45;&gt;blocks:e</title>
<path fill="none" stroke="black" d="M324.71,-270.17C262.22,-271.45 236.98,-279.07 174,-251 152.58,-241.45 157.96,-216 134.5,-216"/>
<polygon fill="black" stroke="black" points="332.17,-270.09 340.2,-273.6 336.5,-270.04 339.83,-270.01 339.83,-270.01 339.83,-270.01 336.5,-270.04 340.13,-266.4 332.17,-270.09"/>
<ellipse fill="none" stroke="black" cx="327.25" cy="-270.14" rx="3.2" ry="3.2"/>
</g>
<!-- withdrawals&#45;&gt;blocks -->
<g id="edge3" class="edge">
<title>withdrawals:w&#45;&gt;blocks:e</title>
<path fill="none" stroke="black" d="M166.22,-169.08C154.1,-183 159.11,-216 134.5,-216"/>
<polygon fill="black" stroke="black" points="172.83,-166.26 181.6,-166.44 176.82,-164.57 179.88,-163.26 179.88,-163.26 179.88,-163.26 176.82,-164.57 178.78,-159.82 172.83,-166.26"/>
<ellipse fill="none" stroke="black" cx="168.31" cy="-168.19" rx="3.2" ry="3.2"/>
</g>
</g>
</svg>
