<?xml version="1.0" encoding="UTF-8" standalone="no"?>
<!DOCTYPE svg PUBLIC "-//W3C//DTD SVG 1.1//EN"
 "http://www.w3.org/Graphics/SVG/1.1/DTD/svg11.dtd">
<!-- Generated by graphviz version 2.43.0 (0)
 -->
<!-- Title: twoDegreesRelationshipsDiagramImplied Pages: 1 -->
<svg width="1277pt" height="567pt"
 viewBox="0.00 0.00 1277.00 567.45" xmlns="http://www.w3.org/2000/svg" xmlns:xlink="http://www.w3.org/1999/xlink">
<g id="graph0" class="graph" transform="scale(1 1) rotate(0) translate(4 563.45)">
<title>twoDegreesRelationshipsDiagramImplied</title>
<polygon fill="#ffffff" stroke="transparent" points="-4,4 -4,-563.45 1273,-563.45 1273,4 -4,4"/>
<text text-anchor="middle" x="79.5" y="-7.2" font-family="Helvetica,sans-Serif" font-size="11.00">Generated by SchemaSpy</text>
<!-- block_rewards -->
<g id="node1" class="node">
<title>block_rewards</title>
<g id="a_node1"><a xlink:href="../../tables/block_rewards.html" xlink:title="block_rewards" target="_top">
<polygon fill="#ffffff" stroke="transparent" points="400.5,-411.45 400.5,-469.45 552.5,-469.45 552.5,-411.45 400.5,-411.45"/>
<polygon fill="#f5f5f5" stroke="transparent" points="400.5,-447.45 400.5,-469.45 552.5,-469.45 552.5,-447.45 400.5,-447.45"/>
<polygon fill="none" stroke="black" points="400.5,-447.45 400.5,-469.45 552.5,-469.45 552.5,-447.45 400.5,-447.45"/>
<text text-anchor="start" x="405.5" y="-456.65" font-family="Helvetica,sans-Serif" font-weight="bold" font-size="11.00">block_rewards</text>
<text text-anchor="start" x="510.5" y="-455.65" font-family="Helvetica,sans-Serif" font-size="11.00">[table]</text>
<polygon fill="none" stroke="black" points="400.5,-429.45 400.5,-447.45 552.5,-447.45 552.5,-429.45 400.5,-429.45"/>
<text text-anchor="start" x="403.5" y="-435.65" font-family="Helvetica,sans-Serif" font-size="11.00">...</text>
<polygon fill="#ffffff" stroke="transparent" points="400.5,-411.45 400.5,-429.45 552.5,-429.45 552.5,-411.45 400.5,-411.45"/>
<polygon fill="none" stroke="black" points="400.5,-411.45 400.5,-429.45 552.5,-429.45 552.5,-411.45 400.5,-411.45"/>
<polygon fill="#ffffff" stroke="transparent" points="401.5,-412.45 401.5,-428.45 459.5,-428.45 459.5,-412.45 401.5,-412.45"/>
<text text-anchor="start" x="403.5" y="-417.65" font-family="Helvetica,sans-Serif" font-size="11.00">&lt; 1</text>
<polygon fill="#ffffff" stroke="transparent" points="459.5,-412.45 459.5,-428.45 505.5,-428.45 505.5,-412.45 459.5,-412.45"/>
<text text-anchor="start" x="478.5" y="-417.65" font-family="Helvetica,sans-Serif" font-size="11.00"> &#160;</text>
<polygon fill="#ffffff" stroke="transparent" points="505.5,-412.45 505.5,-428.45 551.5,-428.45 551.5,-412.45 505.5,-412.45"/>
<text text-anchor="start" x="541.5" y="-417.65" font-family="Helvetica,sans-Serif" font-size="11.00"> &#160;</text>
<polygon fill="black" stroke="black" points="459.5,-412.45 459.5,-428.45 459.5,-428.45 459.5,-412.45 459.5,-412.45"/>
<polygon fill="black" stroke="black" points="505.5,-412.45 505.5,-428.45 505.5,-428.45 505.5,-412.45 505.5,-412.45"/>
</a>
</g>
</g>
<!-- blocks -->
<g id="node2" class="node">
<title>blocks</title>
<g id="a_node2"><a xlink:href="../../tables/blocks.html" xlink:title="blocks" target="_top">
<polygon fill="#ffffff" stroke="transparent" points="216,-225.45 216,-283.45 309,-283.45 309,-225.45 216,-225.45"/>
<polygon fill="#f5f5f5" stroke="transparent" points="216.5,-261.45 216.5,-283.45 309.5,-283.45 309.5,-261.45 216.5,-261.45"/>
<polygon fill="none" stroke="black" points="216.5,-261.45 216.5,-283.45 309.5,-283.45 309.5,-261.45 216.5,-261.45"/>
<text text-anchor="start" x="221.5" y="-270.65" font-family="Helvetica,sans-Serif" font-weight="bold" font-size="11.00">blocks</text>
<text text-anchor="start" x="267.5" y="-269.65" font-family="Helvetica,sans-Serif" font-size="11.00">[table]</text>
<polygon fill="none" stroke="black" points="216.5,-243.45 216.5,-261.45 309.5,-261.45 309.5,-243.45 216.5,-243.45"/>
<text text-anchor="start" x="219.5" y="-249.65" font-family="Helvetica,sans-Serif" font-size="11.00">...</text>
<polygon fill="#ffffff" stroke="transparent" points="216.5,-225.45 216.5,-243.45 309.5,-243.45 309.5,-225.45 216.5,-225.45"/>
<polygon fill="none" stroke="black" points="216.5,-225.45 216.5,-243.45 309.5,-243.45 309.5,-225.45 216.5,-225.45"/>
<polygon fill="#ffffff" stroke="transparent" points="217.5,-226.45 217.5,-242.45 252.5,-242.45 252.5,-226.45 217.5,-226.45"/>
<text text-anchor="start" x="219.5" y="-231.65" font-family="Helvetica,sans-Serif" font-size="11.00">&lt; 1</text>
<polygon fill="#ffffff" stroke="transparent" points="252.5,-226.45 252.5,-242.45 274.5,-242.45 274.5,-226.45 252.5,-226.45"/>
<text text-anchor="start" x="259.5" y="-231.65" font-family="Helvetica,sans-Serif" font-size="11.00"> &#160;</text>
<polygon fill="#ffffff" stroke="transparent" points="274.5,-226.45 274.5,-242.45 308.5,-242.45 308.5,-226.45 274.5,-226.45"/>
<text text-anchor="start" x="286.5" y="-231.65" font-family="Helvetica,sans-Serif" font-size="11.00">9 &gt;</text>
<polygon fill="black" stroke="black" points="252.5,-226.45 252.5,-242.45 252.5,-242.45 252.5,-226.45 252.5,-226.45"/>
<polygon fill="black" stroke="black" points="274.5,-226.45 274.5,-242.45 274.5,-242.45 274.5,-226.45 274.5,-226.45"/>
</a>
</g>
</g>
<!-- block_rewards&#45;&gt;blocks -->
<g id="edge1" class="edge">
<title>block_rewards:w&#45;&gt;blocks:e</title>
<path fill="none" stroke="black" d="M384.8,-437.12C320.28,-425.3 286.05,-337.17 271.75,-287.77"/>
<polygon fill="black" stroke="black" points="391.53,-437.73 399.18,-442.03 395.52,-438.09 399.5,-438.45 399.5,-438.45 399.5,-438.45 395.52,-438.09 399.82,-434.86 391.53,-437.73 391.53,-437.73"/>
<ellipse fill="none" stroke="black" cx="388.35" cy="-437.44" rx="3.2" ry="3.2"/>
</g>
<!-- massive_blocks -->
<g id="node5" class="node">
<title>massive_blocks</title>
<g id="a_node5"><a xlink:href="../../tables/massive_blocks.html" xlink:title="massive_blocks" target="_top">
<polygon fill="#ffffff" stroke="transparent" points="8,-227.45 8,-285.45 167,-285.45 167,-227.45 8,-227.45"/>
<polygon fill="#f5f5f5" stroke="transparent" points="8.5,-263.45 8.5,-285.45 167.5,-285.45 167.5,-263.45 8.5,-263.45"/>
<polygon fill="none" stroke="black" points="8.5,-263.45 8.5,-285.45 167.5,-285.45 167.5,-263.45 8.5,-263.45"/>
<text text-anchor="start" x="13.5" y="-272.65" font-family="Helvetica,sans-Serif" font-weight="bold" font-size="11.00">massive_blocks</text>
<text text-anchor="start" x="125.5" y="-271.65" font-family="Helvetica,sans-Serif" font-size="11.00">[table]</text>
<polygon fill="none" stroke="black" points="8.5,-245.45 8.5,-263.45 167.5,-263.45 167.5,-245.45 8.5,-245.45"/>
<text text-anchor="start" x="11.5" y="-251.65" font-family="Helvetica,sans-Serif" font-size="11.00">...</text>
<polygon fill="#ffffff" stroke="transparent" points="8.5,-227.45 8.5,-245.45 167.5,-245.45 167.5,-227.45 8.5,-227.45"/>
<polygon fill="none" stroke="black" points="8.5,-227.45 8.5,-245.45 167.5,-245.45 167.5,-227.45 8.5,-227.45"/>
<polygon fill="#ffffff" stroke="transparent" points="9.5,-228.45 9.5,-244.45 58.5,-244.45 58.5,-228.45 9.5,-228.45"/>
<text text-anchor="start" x="11.5" y="-233.65" font-family="Helvetica,sans-Serif" font-size="11.00"> &#160;</text>
<polygon fill="#ffffff" stroke="transparent" points="58.5,-228.45 58.5,-244.45 106.5,-244.45 106.5,-228.45 58.5,-228.45"/>
<text text-anchor="start" x="78.5" y="-233.65" font-family="Helvetica,sans-Serif" font-size="11.00"> &#160;</text>
<polygon fill="#ffffff" stroke="transparent" points="106.5,-228.45 106.5,-244.45 166.5,-244.45 166.5,-228.45 106.5,-228.45"/>
<text text-anchor="start" x="144.5" y="-233.65" font-family="Helvetica,sans-Serif" font-size="11.00">1 &gt;</text>
<polygon fill="black" stroke="black" points="58.5,-228.45 58.5,-244.45 58.5,-244.45 58.5,-228.45 58.5,-228.45"/>
<polygon fill="black" stroke="black" points="106.5,-228.45 106.5,-244.45 106.5,-244.45 106.5,-228.45 106.5,-228.45"/>
</a>
</g>
</g>
<!-- blocks&#45;&gt;massive_blocks -->
<g id="edge4" class="edge">
<title>blocks:w&#45;&gt;massive_blocks:e</title>
<path fill="none" stroke="black" stroke-dasharray="5,2" d="M197.47,-254.45C187.76,-254.45 177.87,-254.45 168.5,-254.45"/>
<polygon fill="black" stroke="black" points="207.1,-250.45 207.1,-258.45 205.5,-258.45 205.5,-250.45 207.1,-250.45"/>
<polyline fill="none" stroke="black" points="207.9,-254.45 203.9,-254.45 "/>
<ellipse fill="none" stroke="black" cx="200.7" cy="-254.45" rx="3.2" ry="3.2"/>
</g>
<!-- block_second_degree_relations -->
<g id="node3" class="node">
<title>block_second_degree_relations</title>
<g id="a_node3"><a xlink:href="../../tables/block_second_degree_relations.html" xlink:title="block_second_degree_relations" target="_top">
<polygon fill="#ffffff" stroke="transparent" points="644,-423.45 644,-555.45 1010,-555.45 1010,-423.45 644,-423.45"/>
<polygon fill="#f5f5f5" stroke="transparent" points="646,-531.45 646,-553.45 1008,-553.45 1008,-531.45 646,-531.45"/>
<polygon fill="none" stroke="black" points="646,-531.45 646,-553.45 1008,-553.45 1008,-531.45 646,-531.45"/>
<text text-anchor="start" x="651" y="-540.65" font-family="Helvetica,sans-Serif" font-weight="bold" font-size="11.00">block_second_degree_relations</text>
<text text-anchor="start" x="966" y="-539.65" font-family="Helvetica,sans-Serif" font-size="11.00">[table]</text>
<polygon fill="none" stroke="black" points="646,-509.45 646,-531.45 893,-531.45 893,-509.45 646,-509.45"/>
<image xlink:href="../../images/primaryKeys.png" width="11px" height="12px" preserveAspectRatio="xMinYMin meet" x="651" y="-526.445"/>
<text text-anchor="start" x="666" y="-517.65" font-family="Helvetica,sans-Serif" font-size="11.00">nephew_hash</text>
<polygon fill="none" stroke="black" points="893,-509.45 893,-531.45 1008,-531.45 1008,-509.45 893,-509.45"/>
<text text-anchor="start" x="896" y="-517.65" font-family="Helvetica,sans-Serif" font-size="11.00">bytea[2147483647]</text>
<polygon fill="none" stroke="black" points="646,-487.45 646,-509.45 893,-509.45 893,-487.45 646,-487.45"/>
<image xlink:href="../../images/primaryKeys.png" width="11px" height="12px" preserveAspectRatio="xMinYMin meet" x="651" y="-504.445"/>
<text text-anchor="start" x="666" y="-495.65" font-family="Helvetica,sans-Serif" font-size="11.00">uncle_hash</text>
<polygon fill="none" stroke="black" points="893,-487.45 893,-509.45 1008,-509.45 1008,-487.45 893,-487.45"/>
<text text-anchor="start" x="896" y="-495.65" font-family="Helvetica,sans-Serif" font-size="11.00">bytea[2147483647]</text>
<polygon fill="none" stroke="black" points="646,-465.45 646,-487.45 893,-487.45 893,-465.45 646,-465.45"/>
<text text-anchor="start" x="666" y="-473.65" font-family="Helvetica,sans-Serif" font-size="11.00">uncle_fetched_at</text>
<polygon fill="none" stroke="black" points="893,-465.45 893,-487.45 1008,-487.45 1008,-465.45 893,-465.45"/>
<text text-anchor="start" x="896" y="-473.65" font-family="Helvetica,sans-Serif" font-size="11.00">timestamp[29,6]</text>
<polygon fill="none" stroke="black" points="646,-443.45 646,-465.45 893,-465.45 893,-443.45 646,-443.45"/>
<image xlink:href="../../images/foreignKeys.png" width="11px" height="12px" preserveAspectRatio="xMinYMin meet" x="651" y="-460.445"/>
<text text-anchor="start" x="666" y="-451.65" font-family="Helvetica,sans-Serif" font-size="11.00">index</text>
<polygon fill="none" stroke="black" points="893,-443.45 893,-465.45 1008,-465.45 1008,-443.45 893,-443.45"/>
<text text-anchor="start" x="896" y="-451.65" font-family="Helvetica,sans-Serif" font-size="11.00">int4[10]</text>
<polygon fill="#ffffff" stroke="transparent" points="646,-425.45 646,-443.45 1008,-443.45 1008,-425.45 646,-425.45"/>
<polygon fill="none" stroke="black" points="646,-425.45 646,-443.45 1008,-443.45 1008,-425.45 646,-425.45"/>
<polygon fill="#ffffff" stroke="transparent" points="647,-426.45 647,-442.45 771,-442.45 771,-426.45 647,-426.45"/>
<text text-anchor="start" x="649" y="-431.65" font-family="Helvetica,sans-Serif" font-size="11.00">&lt; 2</text>
<polygon fill="#ffffff" stroke="transparent" points="771,-426.45 771,-442.45 883,-442.45 883,-426.45 771,-426.45"/>
<text text-anchor="start" x="823" y="-431.65" font-family="Helvetica,sans-Serif" font-size="11.00"> &#160;</text>
<polygon fill="#ffffff" stroke="transparent" points="883,-426.45 883,-442.45 1007,-442.45 1007,-426.45 883,-426.45"/>
<text text-anchor="start" x="985" y="-431.65" font-family="Helvetica,sans-Serif" font-size="11.00">0 &gt;</text>
<polygon fill="black" stroke="black" points="771,-426.45 771,-442.45 771,-442.45 771,-426.45 771,-426.45"/>
<polygon fill="black" stroke="black" points="883,-426.45 883,-442.45 883,-442.45 883,-426.45 883,-426.45"/>
<polygon fill="none" stroke="black" stroke-width="2" points="645,-424.45 645,-554.45 1009,-554.45 1009,-424.45 645,-424.45"/>
</a>
</g>
</g>
<!-- block_second_degree_relations&#45;&gt;blocks -->
<g id="edge3" class="edge">
<title>block_second_degree_relations:w&#45;&gt;blocks:e</title>
<path fill="none" stroke="black" d="M630.81,-517.79C600.03,-503.23 642.36,-432.56 603,-401.45 514.29,-331.32 447.78,-431.25 350,-374.45 316.02,-354.71 291.76,-315.7 277.74,-287.51"/>
<polygon fill="black" stroke="black" points="637.14,-518.97 644.34,-523.98 641.07,-519.71 645,-520.45 645,-520.45 645,-520.45 641.07,-519.71 645.66,-516.91 637.14,-518.97 637.14,-518.97"/>
<ellipse fill="none" stroke="black" cx="633.99" cy="-518.39" rx="3.2" ry="3.2"/>
</g>
<!-- withdrawals -->
<g id="node4" class="node">
<title>withdrawals</title>
<g id="a_node4"><a xlink:href="../../tables/withdrawals.html" xlink:title="withdrawals" target="_top">
<polygon fill="#ffffff" stroke="transparent" points="408.5,-305.45 408.5,-363.45 544.5,-363.45 544.5,-305.45 408.5,-305.45"/>
<polygon fill="#f5f5f5" stroke="transparent" points="408.5,-341.45 408.5,-363.45 544.5,-363.45 544.5,-341.45 408.5,-341.45"/>
<polygon fill="none" stroke="black" points="408.5,-341.45 408.5,-363.45 544.5,-363.45 544.5,-341.45 408.5,-341.45"/>
<text text-anchor="start" x="413.5" y="-350.65" font-family="Helvetica,sans-Serif" font-weight="bold" font-size="11.00">withdrawals</text>
<text text-anchor="start" x="502.5" y="-349.65" font-family="Helvetica,sans-Serif" font-size="11.00">[table]</text>
<polygon fill="none" stroke="black" points="408.5,-323.45 408.5,-341.45 544.5,-341.45 544.5,-323.45 408.5,-323.45"/>
<text text-anchor="start" x="411.5" y="-329.65" font-family="Helvetica,sans-Serif" font-size="11.00">...</text>
<polygon fill="#ffffff" stroke="transparent" points="408.5,-305.45 408.5,-323.45 544.5,-323.45 544.5,-305.45 408.5,-305.45"/>
<polygon fill="none" stroke="black" points="408.5,-305.45 408.5,-323.45 544.5,-323.45 544.5,-305.45 408.5,-305.45"/>
<polygon fill="#ffffff" stroke="transparent" points="409.5,-306.45 409.5,-322.45 458.5,-322.45 458.5,-306.45 409.5,-306.45"/>
<text text-anchor="start" x="411.5" y="-311.65" font-family="Helvetica,sans-Serif" font-size="11.00">&lt; 1</text>
<polygon fill="#ffffff" stroke="transparent" points="458.5,-306.45 458.5,-322.45 495.5,-322.45 495.5,-306.45 458.5,-306.45"/>
<text text-anchor="start" x="473" y="-311.65" font-family="Helvetica,sans-Serif" font-size="11.00"> &#160;</text>
<polygon fill="#ffffff" stroke="transparent" points="495.5,-306.45 495.5,-322.45 543.5,-322.45 543.5,-306.45 495.5,-306.45"/>
<text text-anchor="start" x="521.5" y="-311.65" font-family="Helvetica,sans-Serif" font-size="11.00">5 &gt;</text>
<polygon fill="black" stroke="black" points="458.5,-306.45 458.5,-322.45 458.5,-322.45 458.5,-306.45 458.5,-306.45"/>
<polygon fill="black" stroke="black" points="495.5,-306.45 495.5,-322.45 495.5,-322.45 495.5,-306.45 495.5,-306.45"/>
</a>
</g>
</g>
<!-- block_second_degree_relations&#45;&gt;withdrawals -->
<g id="edge2" class="edge">
<title>block_second_degree_relations:w&#45;&gt;withdrawals:e</title>
<path fill="none" stroke="black" stroke-dasharray="5,2" d="M630.58,-450.6C613.28,-438.15 627.91,-398.46 603,-377.45 588.56,-365.27 570.5,-356.48 552.61,-350.16"/>
<polygon fill="black" stroke="black" points="637.27,-452.39 644.07,-457.92 641.13,-453.42 645,-454.45 645,-454.45 645,-454.45 641.13,-453.42 645.93,-450.97 637.27,-452.39 637.27,-452.39"/>
<ellipse fill="none" stroke="black" cx="634.18" cy="-451.56" rx="3.2" ry="3.2"/>
</g>
<!-- withdrawals&#45;&gt;blocks -->
<g id="edge19" class="edge">
<title>withdrawals:w&#45;&gt;blocks:e</title>
<path fill="none" stroke="black" d="M386.41,-304.83C374.13,-300.49 361.71,-295.95 350,-291.45 339.33,-287.34 328.03,-282.71 317.23,-278.16"/>
<polygon fill="black" stroke="black" points="392.63,-307.01 398.99,-313.05 396.41,-308.33 400.18,-309.65 400.18,-309.65 400.18,-309.65 396.41,-308.33 401.37,-306.26 392.63,-307.01 392.63,-307.01"/>
<ellipse fill="none" stroke="black" cx="389.61" cy="-305.95" rx="3.2" ry="3.2"/>
</g>
<!-- internal_transactions -->
<g id="node6" class="node">
<title>internal_transactions</title>
<g id="a_node6"><a xlink:href="../../tables/internal_transactions.html" xlink:title="internal_transactions" target="_top">
<polygon fill="#ffffff" stroke="transparent" points="1059,-335.45 1059,-393.45 1261,-393.45 1261,-335.45 1059,-335.45"/>
<polygon fill="#f5f5f5" stroke="transparent" points="1059,-371.45 1059,-393.45 1261,-393.45 1261,-371.45 1059,-371.45"/>
<polygon fill="none" stroke="black" points="1059,-371.45 1059,-393.45 1261,-393.45 1261,-371.45 1059,-371.45"/>
<text text-anchor="start" x="1064" y="-380.65" font-family="Helvetica,sans-Serif" font-weight="bold" font-size="11.00">internal_transactions</text>
<text text-anchor="start" x="1219" y="-379.65" font-family="Helvetica,sans-Serif" font-size="11.00">[table]</text>
<polygon fill="none" stroke="black" points="1059,-353.45 1059,-371.45 1261,-371.45 1261,-353.45 1059,-353.45"/>
<text text-anchor="start" x="1062" y="-359.65" font-family="Helvetica,sans-Serif" font-size="11.00">...</text>
<polygon fill="#ffffff" stroke="transparent" points="1059,-335.45 1059,-353.45 1261,-353.45 1261,-335.45 1059,-335.45"/>
<polygon fill="none" stroke="black" points="1059,-335.45 1059,-353.45 1261,-353.45 1261,-335.45 1059,-335.45"/>
<polygon fill="#ffffff" stroke="transparent" points="1060,-336.45 1060,-352.45 1135,-352.45 1135,-336.45 1060,-336.45"/>
<text text-anchor="start" x="1062" y="-341.65" font-family="Helvetica,sans-Serif" font-size="11.00">&lt; 4</text>
<polygon fill="#ffffff" stroke="transparent" points="1135,-336.45 1135,-352.45 1198,-352.45 1198,-336.45 1135,-336.45"/>
<text text-anchor="start" x="1162.5" y="-341.65" font-family="Helvetica,sans-Serif" font-size="11.00"> &#160;</text>
<polygon fill="#ffffff" stroke="transparent" points="1198,-336.45 1198,-352.45 1260,-352.45 1260,-336.45 1198,-336.45"/>
<text text-anchor="start" x="1250" y="-341.65" font-family="Helvetica,sans-Serif" font-size="11.00"> &#160;</text>
<polygon fill="black" stroke="black" points="1135,-336.45 1135,-352.45 1135,-352.45 1135,-336.45 1135,-336.45"/>
<polygon fill="black" stroke="black" points="1198,-336.45 1198,-352.45 1198,-352.45 1198,-336.45 1198,-336.45"/>
</a>
</g>
</g>
<!-- internal_transactions&#45;&gt;blocks -->
<g id="edge5" class="edge">
<title>internal_transactions:w&#45;&gt;blocks:e</title>
<path fill="none" stroke="black" d="M1043.98,-357.79C1030.57,-345.11 1042.17,-309.94 1018,-295.45 954.27,-257.23 424.09,-269.07 350,-263.45 339.46,-262.65 328.22,-261.61 317.44,-260.53"/>
<polygon fill="black" stroke="black" points="1050.41,-359.92 1056.87,-365.86 1054.2,-361.18 1058,-362.45 1058,-362.45 1058,-362.45 1054.2,-361.18 1059.13,-359.03 1050.41,-359.92 1050.41,-359.92"/>
<ellipse fill="none" stroke="black" cx="1047.37" cy="-358.92" rx="3.2" ry="3.2"/>
</g>
<!-- internal_transactions&#45;&gt;withdrawals -->
<g id="edge6" class="edge">
<title>internal_transactions:w&#45;&gt;withdrawals:e</title>
<path fill="none" stroke="black" stroke-dasharray="5,2" d="M1043.64,-360.71C1035.78,-361.84 1030.34,-366.63 1018,-368.45 850.02,-393.1 804.48,-389.38 636,-368.45 608.4,-365.02 578.7,-358.35 552.56,-351.77"/>
<polygon fill="black" stroke="black" points="1050.06,-361.48 1057.57,-366.02 1054.03,-361.96 1058,-362.45 1058,-362.45 1058,-362.45 1054.03,-361.96 1058.43,-358.87 1050.06,-361.48 1050.06,-361.48"/>
<ellipse fill="none" stroke="black" cx="1046.88" cy="-361.1" rx="3.2" ry="3.2"/>
</g>
<!-- internal_transactions&#45;&gt;withdrawals -->
<g id="edge8" class="edge">
<title>internal_transactions:w&#45;&gt;withdrawals:e</title>
<path fill="none" stroke="black" stroke-dasharray="5,2" d="M1045.04,-368.88C1036.38,-374.27 1031.06,-379.53 1018,-381.45 850.02,-406.1 804.48,-402.38 636,-381.45 608.4,-378.02 578.7,-371.35 552.56,-364.04"/>
<polygon fill="black" stroke="black" points="1050.83,-366 1059.6,-365.67 1054.42,-364.22 1058,-362.45 1058,-362.45 1058,-362.45 1054.42,-364.22 1056.4,-359.22 1050.83,-366 1050.83,-366"/>
<ellipse fill="none" stroke="black" cx="1047.97" cy="-367.43" rx="3.2" ry="3.2"/>
</g>
<!-- transactions -->
<g id="node7" class="node">
<title>transactions</title>
<g id="a_node7"><a xlink:href="../../tables/transactions.html" xlink:title="transactions" target="_top">
<polygon fill="#ffffff" stroke="transparent" points="758,-172.45 758,-230.45 896,-230.45 896,-172.45 758,-172.45"/>
<polygon fill="#f5f5f5" stroke="transparent" points="758,-208.45 758,-230.45 896,-230.45 896,-208.45 758,-208.45"/>
<polygon fill="none" stroke="black" points="758,-208.45 758,-230.45 896,-230.45 896,-208.45 758,-208.45"/>
<text text-anchor="start" x="763" y="-217.65" font-family="Helvetica,sans-Serif" font-weight="bold" font-size="11.00">transactions</text>
<text text-anchor="start" x="854" y="-216.65" font-family="Helvetica,sans-Serif" font-size="11.00">[table]</text>
<polygon fill="none" stroke="black" points="758,-190.45 758,-208.45 896,-208.45 896,-190.45 758,-190.45"/>
<text text-anchor="start" x="761" y="-196.65" font-family="Helvetica,sans-Serif" font-size="11.00">...</text>
<polygon fill="#ffffff" stroke="transparent" points="758,-172.45 758,-190.45 896,-190.45 896,-172.45 758,-172.45"/>
<polygon fill="none" stroke="black" points="758,-172.45 758,-190.45 896,-190.45 896,-172.45 758,-172.45"/>
<polygon fill="#ffffff" stroke="transparent" points="759,-173.45 759,-189.45 809,-189.45 809,-173.45 759,-173.45"/>
<text text-anchor="start" x="761" y="-178.65" font-family="Helvetica,sans-Serif" font-size="11.00">&lt; 2</text>
<polygon fill="#ffffff" stroke="transparent" points="809,-173.45 809,-189.45 846,-189.45 846,-173.45 809,-173.45"/>
<text text-anchor="start" x="823.5" y="-178.65" font-family="Helvetica,sans-Serif" font-size="11.00"> &#160;</text>
<polygon fill="#ffffff" stroke="transparent" points="846,-173.45 846,-189.45 895,-189.45 895,-173.45 846,-173.45"/>
<text text-anchor="start" x="873" y="-178.65" font-family="Helvetica,sans-Serif" font-size="11.00">7 &gt;</text>
<polygon fill="black" stroke="black" points="809,-173.45 809,-189.45 809,-189.45 809,-173.45 809,-173.45"/>
<polygon fill="black" stroke="black" points="846,-173.45 846,-189.45 846,-189.45 846,-173.45 846,-173.45"/>
</a>
</g>
</g>
<!-- internal_transactions&#45;&gt;transactions -->
<g id="edge7" class="edge">
<title>internal_transactions:w&#45;&gt;transactions:e</title>
<path fill="none" stroke="black" d="M1043.87,-359.41C1021.79,-347.08 1043.27,-300.02 1018,-271.45 976.54,-224.57 959.58,-199.45 897,-199.45"/>
<polygon fill="black" stroke="black" points="1050.18,-360.76 1057.24,-365.96 1054.09,-361.6 1058,-362.45 1058,-362.45 1058,-362.45 1054.09,-361.6 1058.76,-358.93 1050.18,-360.76 1050.18,-360.76"/>
<ellipse fill="none" stroke="black" cx="1047.05" cy="-360.09" rx="3.2" ry="3.2"/>
</g>
<!-- transactions&#45;&gt;blocks -->
<g id="edge17" class="edge">
<title>transactions:w&#45;&gt;blocks:e</title>
<path fill="none" stroke="black" d="M742.39,-200.45C677.14,-206.2 428.03,-235.16 317.21,-248.14"/>
<polygon fill="black" stroke="black" points="749.02,-199.99 757.25,-203.04 753.01,-199.72 757,-199.45 757,-199.45 757,-199.45 753.01,-199.72 756.75,-195.85 749.02,-199.99 749.02,-199.99"/>
<ellipse fill="none" stroke="black" cx="745.83" cy="-200.21" rx="3.2" ry="3.2"/>
</g>
<!-- transactions&#45;&gt;withdrawals -->
<g id="edge18" class="edge">
<title>transactions:w&#45;&gt;withdrawals:e</title>
<path fill="none" stroke="black" stroke-dasharray="5,2" d="M742.48,-199.93C653.77,-205.8 565.69,-263.52 516.74,-301.42"/>
<polygon fill="black" stroke="black" points="749,-199.71 757.12,-203.04 753,-199.58 757,-199.45 757,-199.45 757,-199.45 753,-199.58 756.88,-195.85 749,-199.71 749,-199.71"/>
<ellipse fill="none" stroke="black" cx="745.81" cy="-199.82" rx="3.2" ry="3.2"/>
</g>
<!-- logs -->
<g id="node8" class="node">
<title>logs</title>
<g id="a_node8"><a xlink:href="../../tables/logs.html" xlink:title="logs" target="_top">
<polygon fill="#ffffff" stroke="transparent" points="1121.5,-226.45 1121.5,-284.45 1198.5,-284.45 1198.5,-226.45 1121.5,-226.45"/>
<polygon fill="#f5f5f5" stroke="transparent" points="1122,-262.45 1122,-284.45 1199,-284.45 1199,-262.45 1122,-262.45"/>
<polygon fill="none" stroke="black" points="1122,-262.45 1122,-284.45 1199,-284.45 1199,-262.45 1122,-262.45"/>
<text text-anchor="start" x="1127" y="-271.65" font-family="Helvetica,sans-Serif" font-weight="bold" font-size="11.00">logs</text>
<text text-anchor="start" x="1157" y="-270.65" font-family="Helvetica,sans-Serif" font-size="11.00">[table]</text>
<polygon fill="none" stroke="black" points="1122,-244.45 1122,-262.45 1199,-262.45 1199,-244.45 1122,-244.45"/>
<text text-anchor="start" x="1125" y="-250.65" font-family="Helvetica,sans-Serif" font-size="11.00">...</text>
<polygon fill="#ffffff" stroke="transparent" points="1122,-226.45 1122,-244.45 1199,-244.45 1199,-226.45 1122,-226.45"/>
<polygon fill="none" stroke="black" points="1122,-226.45 1122,-244.45 1199,-244.45 1199,-226.45 1122,-226.45"/>
<polygon fill="#ffffff" stroke="transparent" points="1123,-227.45 1123,-243.45 1156,-243.45 1156,-227.45 1123,-227.45"/>
<text text-anchor="start" x="1125" y="-232.65" font-family="Helvetica,sans-Serif" font-size="11.00">&lt; 2</text>
<polygon fill="#ffffff" stroke="transparent" points="1156,-227.45 1156,-243.45 1177,-243.45 1177,-227.45 1156,-227.45"/>
<text text-anchor="start" x="1162.5" y="-232.65" font-family="Helvetica,sans-Serif" font-size="11.00"> &#160;</text>
<polygon fill="#ffffff" stroke="transparent" points="1177,-227.45 1177,-243.45 1198,-243.45 1198,-227.45 1177,-227.45"/>
<text text-anchor="start" x="1188" y="-232.65" font-family="Helvetica,sans-Serif" font-size="11.00"> &#160;</text>
<polygon fill="black" stroke="black" points="1156,-227.45 1156,-243.45 1156,-243.45 1156,-227.45 1156,-227.45"/>
<polygon fill="black" stroke="black" points="1177,-227.45 1177,-243.45 1177,-243.45 1177,-227.45 1177,-227.45"/>
</a>
</g>
</g>
<!-- logs&#45;&gt;blocks -->
<g id="edge9" class="edge">
<title>logs:w&#45;&gt;blocks:e</title>
<path fill="none" stroke="black" d="M1106.26,-253.45C805.24,-253.47 450.03,-254.09 317.18,-254.34"/>
<polygon fill="black" stroke="black" points="1113,-253.45 1121,-257.05 1117,-253.45 1121,-253.45 1121,-253.45 1121,-253.45 1117,-253.45 1121,-249.85 1113,-253.45 1113,-253.45"/>
<ellipse fill="none" stroke="black" cx="1109.8" cy="-253.45" rx="3.2" ry="3.2"/>
</g>
<!-- logs&#45;&gt;transactions -->
<g id="edge10" class="edge">
<title>logs:w&#45;&gt;transactions:e</title>
<path fill="none" stroke="black" d="M1106.57,-253.07C1016.52,-248.3 994.41,-199.45 897,-199.45"/>
<polygon fill="black" stroke="black" points="1113,-253.24 1120.91,-257.04 1117,-253.34 1121,-253.45 1121,-253.45 1121,-253.45 1117,-253.34 1121.09,-249.85 1113,-253.24 1113,-253.24"/>
<ellipse fill="none" stroke="black" cx="1109.8" cy="-253.16" rx="3.2" ry="3.2"/>
</g>
<!-- pending_block_operations -->
<g id="node9" class="node">
<title>pending_block_operations</title>
<g id="a_node9"><a xlink:href="../../tables/pending_block_operations.html" xlink:title="pending_block_operations" target="_top">
<polygon fill="#ffffff" stroke="transparent" points="358,-145.45 358,-203.45 595,-203.45 595,-145.45 358,-145.45"/>
<polygon fill="#f5f5f5" stroke="transparent" points="358.5,-181.45 358.5,-203.45 595.5,-203.45 595.5,-181.45 358.5,-181.45"/>
<polygon fill="none" stroke="black" points="358.5,-181.45 358.5,-203.45 595.5,-203.45 595.5,-181.45 358.5,-181.45"/>
<text text-anchor="start" x="363.5" y="-190.65" font-family="Helvetica,sans-Serif" font-weight="bold" font-size="11.00">pending_block_operations</text>
<text text-anchor="start" x="553.5" y="-189.65" font-family="Helvetica,sans-Serif" font-size="11.00">[table]</text>
<polygon fill="none" stroke="black" points="358.5,-163.45 358.5,-181.45 595.5,-181.45 595.5,-163.45 358.5,-163.45"/>
<text text-anchor="start" x="361.5" y="-169.65" font-family="Helvetica,sans-Serif" font-size="11.00">...</text>
<polygon fill="#ffffff" stroke="transparent" points="358.5,-145.45 358.5,-163.45 595.5,-163.45 595.5,-145.45 358.5,-145.45"/>
<polygon fill="none" stroke="black" points="358.5,-145.45 358.5,-163.45 595.5,-163.45 595.5,-145.45 358.5,-145.45"/>
<polygon fill="#ffffff" stroke="transparent" points="359.5,-146.45 359.5,-162.45 446.5,-162.45 446.5,-146.45 359.5,-146.45"/>
<text text-anchor="start" x="361.5" y="-151.65" font-family="Helvetica,sans-Serif" font-size="11.00">&lt; 1</text>
<polygon fill="#ffffff" stroke="transparent" points="446.5,-146.45 446.5,-162.45 520.5,-162.45 520.5,-146.45 446.5,-146.45"/>
<text text-anchor="start" x="479.5" y="-151.65" font-family="Helvetica,sans-Serif" font-size="11.00"> &#160;</text>
<polygon fill="#ffffff" stroke="transparent" points="520.5,-146.45 520.5,-162.45 594.5,-162.45 594.5,-146.45 520.5,-146.45"/>
<text text-anchor="start" x="584.5" y="-151.65" font-family="Helvetica,sans-Serif" font-size="11.00"> &#160;</text>
<polygon fill="black" stroke="black" points="446.5,-146.45 446.5,-162.45 446.5,-162.45 446.5,-146.45 446.5,-146.45"/>
<polygon fill="black" stroke="black" points="520.5,-146.45 520.5,-162.45 520.5,-162.45 520.5,-146.45 520.5,-146.45"/>
</a>
</g>
</g>
<!-- pending_block_operations&#45;&gt;blocks -->
<g id="edge11" class="edge">
<title>pending_block_operations:w&#45;&gt;blocks:e</title>
<path fill="none" stroke="black" d="M347.11,-173.4C320.58,-178.28 298.59,-200.96 283.83,-221.09"/>
<polygon fill="black" stroke="black" points="356.34,-168.54 357.07,-176.5 355.48,-176.65 354.74,-168.68 356.34,-168.54"/>
<polyline fill="none" stroke="black" points="357.5,-172.45 353.52,-172.81 "/>
<ellipse fill="none" stroke="black" cx="350.33" cy="-173.11" rx="3.2" ry="3.2"/>
</g>
<!-- token_instances -->
<g id="node10" class="node">
<title>token_instances</title>
<g id="a_node10"><a xlink:href="../../tables/token_instances.html" xlink:title="token_instances" target="_top">
<polygon fill="#ffffff" stroke="transparent" points="744.5,-305.45 744.5,-363.45 909.5,-363.45 909.5,-305.45 744.5,-305.45"/>
<polygon fill="#f5f5f5" stroke="transparent" points="745,-341.45 745,-363.45 910,-363.45 910,-341.45 745,-341.45"/>
<polygon fill="none" stroke="black" points="745,-341.45 745,-363.45 910,-363.45 910,-341.45 745,-341.45"/>
<text text-anchor="start" x="750" y="-350.65" font-family="Helvetica,sans-Serif" font-weight="bold" font-size="11.00">token_instances</text>
<text text-anchor="start" x="868" y="-349.65" font-family="Helvetica,sans-Serif" font-size="11.00">[table]</text>
<polygon fill="none" stroke="black" points="745,-323.45 745,-341.45 910,-341.45 910,-323.45 745,-323.45"/>
<text text-anchor="start" x="748" y="-329.65" font-family="Helvetica,sans-Serif" font-size="11.00">...</text>
<polygon fill="#ffffff" stroke="transparent" points="745,-305.45 745,-323.45 910,-323.45 910,-305.45 745,-305.45"/>
<polygon fill="none" stroke="black" points="745,-305.45 745,-323.45 910,-323.45 910,-305.45 745,-305.45"/>
<polygon fill="#ffffff" stroke="transparent" points="746,-306.45 746,-322.45 809,-322.45 809,-306.45 746,-306.45"/>
<text text-anchor="start" x="748" y="-311.65" font-family="Helvetica,sans-Serif" font-size="11.00">&lt; 2</text>
<polygon fill="#ffffff" stroke="transparent" points="809,-306.45 809,-322.45 859,-322.45 859,-306.45 809,-306.45"/>
<text text-anchor="start" x="830" y="-311.65" font-family="Helvetica,sans-Serif" font-size="11.00"> &#160;</text>
<polygon fill="#ffffff" stroke="transparent" points="859,-306.45 859,-322.45 909,-322.45 909,-306.45 859,-306.45"/>
<text text-anchor="start" x="899" y="-311.65" font-family="Helvetica,sans-Serif" font-size="11.00"> &#160;</text>
<polygon fill="black" stroke="black" points="809,-306.45 809,-322.45 809,-322.45 809,-306.45 809,-306.45"/>
<polygon fill="black" stroke="black" points="859,-306.45 859,-322.45 859,-322.45 859,-306.45 859,-306.45"/>
</a>
</g>
</g>
<!-- token_instances&#45;&gt;withdrawals -->
<g id="edge12" class="edge">
<title>token_instances:w&#45;&gt;withdrawals:e</title>
<path fill="none" stroke="black" stroke-dasharray="5,2" d="M729.5,-332.45C668.68,-332.53 602.16,-333.08 552.74,-333.58"/>
<polygon fill="black" stroke="black" points="736,-332.45 744,-336.05 740,-332.45 744,-332.45 744,-332.45 744,-332.45 740,-332.45 744,-328.85 736,-332.45 736,-332.45"/>
<ellipse fill="none" stroke="black" cx="732.8" cy="-332.45" rx="3.2" ry="3.2"/>
</g>
<!-- token_transfers -->
<g id="node11" class="node">
<title>token_transfers</title>
<g id="a_node11"><a xlink:href="../../tables/token_transfers.html" xlink:title="token_transfers" target="_top">
<polygon fill="#ffffff" stroke="transparent" points="1079,-147.45 1079,-205.45 1241,-205.45 1241,-147.45 1079,-147.45"/>
<polygon fill="#f5f5f5" stroke="transparent" points="1079,-183.45 1079,-205.45 1241,-205.45 1241,-183.45 1079,-183.45"/>
<polygon fill="none" stroke="black" points="1079,-183.45 1079,-205.45 1241,-205.45 1241,-183.45 1079,-183.45"/>
<text text-anchor="start" x="1084" y="-192.65" font-family="Helvetica,sans-Serif" font-weight="bold" font-size="11.00">token_transfers</text>
<text text-anchor="start" x="1199" y="-191.65" font-family="Helvetica,sans-Serif" font-size="11.00">[table]</text>
<polygon fill="none" stroke="black" points="1079,-165.45 1079,-183.45 1241,-183.45 1241,-165.45 1079,-165.45"/>
<text text-anchor="start" x="1082" y="-171.65" font-family="Helvetica,sans-Serif" font-size="11.00">...</text>
<polygon fill="#ffffff" stroke="transparent" points="1079,-147.45 1079,-165.45 1241,-165.45 1241,-147.45 1079,-147.45"/>
<polygon fill="none" stroke="black" points="1079,-147.45 1079,-165.45 1241,-165.45 1241,-147.45 1079,-147.45"/>
<polygon fill="#ffffff" stroke="transparent" points="1080,-148.45 1080,-164.45 1142,-164.45 1142,-148.45 1080,-148.45"/>
<text text-anchor="start" x="1082" y="-153.65" font-family="Helvetica,sans-Serif" font-size="11.00">&lt; 2</text>
<polygon fill="#ffffff" stroke="transparent" points="1142,-148.45 1142,-164.45 1191,-164.45 1191,-148.45 1142,-148.45"/>
<text text-anchor="start" x="1162.5" y="-153.65" font-family="Helvetica,sans-Serif" font-size="11.00"> &#160;</text>
<polygon fill="#ffffff" stroke="transparent" points="1191,-148.45 1191,-164.45 1240,-164.45 1240,-148.45 1191,-148.45"/>
<text text-anchor="start" x="1230" y="-153.65" font-family="Helvetica,sans-Serif" font-size="11.00"> &#160;</text>
<polygon fill="black" stroke="black" points="1142,-148.45 1142,-164.45 1142,-164.45 1142,-148.45 1142,-148.45"/>
<polygon fill="black" stroke="black" points="1191,-148.45 1191,-164.45 1191,-164.45 1191,-148.45 1191,-148.45"/>
</a>
</g>
</g>
<!-- token_transfers&#45;&gt;blocks -->
<g id="edge13" class="edge">
<title>token_transfers:w&#45;&gt;blocks:e</title>
<path fill="none" stroke="black" d="M1063.21,-173.35C1047.36,-170.8 1039.32,-164.43 1018,-161.45 834.95,-135.8 787.74,-140.45 603,-134.45 490.61,-130.79 450.09,-83.21 350,-134.45 314.68,-152.52 290.49,-192.49 276.85,-221.34"/>
<polygon fill="black" stroke="black" points="1070.02,-173.86 1077.73,-178.04 1074.01,-174.15 1078,-174.45 1078,-174.45 1078,-174.45 1074.01,-174.15 1078.27,-170.85 1070.02,-173.86 1070.02,-173.86"/>
<ellipse fill="none" stroke="black" cx="1066.83" cy="-173.62" rx="3.2" ry="3.2"/>
</g>
<!-- token_transfers&#45;&gt;transactions -->
<g id="edge14" class="edge">
<title>token_transfers:w&#45;&gt;transactions:e</title>
<path fill="none" stroke="black" d="M1063.48,-174.73C994.22,-177.47 973.13,-199.45 897,-199.45"/>
<polygon fill="black" stroke="black" points="1070,-174.6 1078.07,-178.04 1074,-174.52 1078,-174.45 1078,-174.45 1078,-174.45 1074,-174.52 1077.93,-170.85 1070,-174.6 1070,-174.6"/>
<ellipse fill="none" stroke="black" cx="1066.8" cy="-174.66" rx="3.2" ry="3.2"/>
</g>
<!-- transaction_forks -->
<g id="node12" class="node">
<title>transaction_forks</title>
<g id="a_node12"><a xlink:href="../../tables/transaction_forks.html" xlink:title="transaction_forks" target="_top">
<polygon fill="#ffffff" stroke="transparent" points="1073,-68.45 1073,-126.45 1247,-126.45 1247,-68.45 1073,-68.45"/>
<polygon fill="#f5f5f5" stroke="transparent" points="1073,-104.45 1073,-126.45 1247,-126.45 1247,-104.45 1073,-104.45"/>
<polygon fill="none" stroke="black" points="1073,-104.45 1073,-126.45 1247,-126.45 1247,-104.45 1073,-104.45"/>
<text text-anchor="start" x="1078" y="-113.65" font-family="Helvetica,sans-Serif" font-weight="bold" font-size="11.00">transaction_forks</text>
<text text-anchor="start" x="1205" y="-112.65" font-family="Helvetica,sans-Serif" font-size="11.00">[table]</text>
<polygon fill="none" stroke="black" points="1073,-86.45 1073,-104.45 1247,-104.45 1247,-86.45 1073,-86.45"/>
<text text-anchor="start" x="1076" y="-92.65" font-family="Helvetica,sans-Serif" font-size="11.00">...</text>
<polygon fill="#ffffff" stroke="transparent" points="1073,-68.45 1073,-86.45 1247,-86.45 1247,-68.45 1073,-68.45"/>
<polygon fill="none" stroke="black" points="1073,-68.45 1073,-86.45 1247,-86.45 1247,-68.45 1073,-68.45"/>
<polygon fill="#ffffff" stroke="transparent" points="1074,-69.45 1074,-85.45 1140,-85.45 1140,-69.45 1074,-69.45"/>
<text text-anchor="start" x="1076" y="-74.65" font-family="Helvetica,sans-Serif" font-size="11.00">&lt; 2</text>
<polygon fill="#ffffff" stroke="transparent" points="1140,-69.45 1140,-85.45 1193,-85.45 1193,-69.45 1140,-69.45"/>
<text text-anchor="start" x="1162.5" y="-74.65" font-family="Helvetica,sans-Serif" font-size="11.00"> &#160;</text>
<polygon fill="#ffffff" stroke="transparent" points="1193,-69.45 1193,-85.45 1246,-85.45 1246,-69.45 1193,-69.45"/>
<text text-anchor="start" x="1236" y="-74.65" font-family="Helvetica,sans-Serif" font-size="11.00"> &#160;</text>
<polygon fill="black" stroke="black" points="1140,-69.45 1140,-85.45 1140,-85.45 1140,-69.45 1140,-69.45"/>
<polygon fill="black" stroke="black" points="1193,-69.45 1193,-85.45 1193,-85.45 1193,-69.45 1193,-69.45"/>
</a>
</g>
</g>
<!-- transaction_forks&#45;&gt;blocks -->
<g id="edge16" class="edge">
<title>transaction_forks:w&#45;&gt;blocks:e</title>
<path fill="none" stroke="black" d="M1057.56,-95.34C747.28,-91.02 623.2,50.52 350,-108.45 308.11,-132.82 284.34,-186.15 272.7,-221.16"/>
<polygon fill="black" stroke="black" points="1064,-95.39 1071.97,-99.05 1068,-95.42 1072,-95.45 1072,-95.45 1072,-95.45 1068,-95.42 1072.03,-91.85 1064,-95.39 1064,-95.39"/>
<ellipse fill="none" stroke="black" cx="1060.8" cy="-95.37" rx="3.2" ry="3.2"/>
</g>
<!-- transaction_forks&#45;&gt;transactions -->
<g id="edge15" class="edge">
<title>transaction_forks:w&#45;&gt;transactions:e</title>
<path fill="none" stroke="black" d="M1057.52,-96.41C981.89,-106.89 982.35,-199.45 897,-199.45"/>
<polygon fill="black" stroke="black" points="1064.02,-95.98 1072.24,-99.04 1068.01,-95.71 1072,-95.45 1072,-95.45 1072,-95.45 1068.01,-95.71 1071.76,-91.85 1064.02,-95.98 1064.02,-95.98"/>
<ellipse fill="none" stroke="black" cx="1060.82" cy="-96.19" rx="3.2" ry="3.2"/>
</g>
</g>
</svg>
