<?xml version="1.0" encoding="UTF-8" standalone="no"?>
<!DOCTYPE svg PUBLIC "-//W3C//DTD SVG 1.1//EN"
 "http://www.w3.org/Graphics/SVG/1.1/DTD/svg11.dtd">
<!-- Generated by graphviz version 2.43.0 (0)
 -->
<!-- Title: oneDegreeRelationshipsDiagram Pages: 1 -->
<svg width="466pt" height="307pt"
 viewBox="0.00 0.00 466.00 307.00" xmlns="http://www.w3.org/2000/svg" xmlns:xlink="http://www.w3.org/1999/xlink">
<g id="graph0" class="graph" transform="scale(1 1) rotate(0) translate(4 303)">
<title>oneDegreeRelationshipsDiagram</title>
<polygon fill="#ffffff" stroke="transparent" points="-4,4 -4,-303 462,-303 462,4 -4,4"/>
<text text-anchor="middle" x="79.5" y="-7.2" font-family="Helvetica,sans-Serif" font-size="11.00">Generated by SchemaSpy</text>
<!-- block_rewards -->
<g id="node1" class="node">
<title>block_rewards</title>
<g id="a_node1"><a xlink:href="../../tables/block_rewards.html" xlink:title="block_rewards" target="_top">
<polygon fill="#ffffff" stroke="transparent" points="205,-119 205,-295 450,-295 450,-119 205,-119"/>
<polygon fill="#f5f5f5" stroke="transparent" points="207.5,-271 207.5,-293 448.5,-293 448.5,-271 207.5,-271"/>
<polygon fill="none" stroke="black" points="207.5,-271 207.5,-293 448.5,-293 448.5,-271 207.5,-271"/>
<text text-anchor="start" x="212.5" y="-280.2" font-family="Helvetica,sans-Serif" font-weight="bold" font-size="11.00">block_rewards</text>
<text text-anchor="start" x="406.5" y="-279.2" font-family="Helvetica,sans-Serif" font-size="11.00">[table]</text>
<polygon fill="none" stroke="black" points="207.5,-249 207.5,-271 333.5,-271 333.5,-249 207.5,-249"/>
<image xlink:href="../../images/primaryKeys.png" width="11px" height="12px" preserveAspectRatio="xMinYMin meet" x="212.5" y="-266"/>
<text text-anchor="start" x="227.5" y="-257.2" font-family="Helvetica,sans-Serif" font-size="11.00">address_hash</text>
<polygon fill="none" stroke="black" points="333.5,-249 333.5,-271 448.5,-271 448.5,-249 333.5,-249"/>
<text text-anchor="start" x="336.5" y="-257.2" font-family="Helvetica,sans-Serif" font-size="11.00">bytea[2147483647]</text>
<polygon fill="none" stroke="black" points="207.5,-227 207.5,-249 333.5,-249 333.5,-227 207.5,-227"/>
<image xlink:href="../../images/primaryKeys.png" width="11px" height="12px" preserveAspectRatio="xMinYMin meet" x="212.5" y="-244"/>
<text text-anchor="start" x="227.5" y="-235.2" font-family="Helvetica,sans-Serif" font-size="11.00">address_type</text>
<polygon fill="none" stroke="black" points="333.5,-227 333.5,-249 448.5,-249 448.5,-227 333.5,-227"/>
<text text-anchor="start" x="336.5" y="-235.2" font-family="Helvetica,sans-Serif" font-size="11.00">varchar[255]</text>
<polygon fill="none" stroke="black" points="207.5,-205 207.5,-227 333.5,-227 333.5,-205 207.5,-205"/>
<image xlink:href="../../images/primaryKeys.png" width="11px" height="12px" preserveAspectRatio="xMinYMin meet" x="212.5" y="-222"/>
<text text-anchor="start" x="227.5" y="-213.2" font-family="Helvetica,sans-Serif" font-size="11.00">block_hash</text>
<polygon fill="none" stroke="black" points="333.5,-205 333.5,-227 448.5,-227 448.5,-205 333.5,-205"/>
<text text-anchor="start" x="336.5" y="-213.2" font-family="Helvetica,sans-Serif" font-size="11.00">bytea[2147483647]</text>
<polygon fill="none" stroke="black" points="207.5,-183 207.5,-205 333.5,-205 333.5,-183 207.5,-183"/>
<text text-anchor="start" x="227.5" y="-191.2" font-family="Helvetica,sans-Serif" font-size="11.00">reward</text>
<polygon fill="none" stroke="black" points="333.5,-183 333.5,-205 448.5,-205 448.5,-183 333.5,-183"/>
<text text-anchor="start" x="336.5" y="-191.2" font-family="Helvetica,sans-Serif" font-size="11.00">numeric[100]</text>
<polygon fill="none" stroke="black" points="207.5,-161 207.5,-183 333.5,-183 333.5,-161 207.5,-161"/>
<text text-anchor="start" x="227.5" y="-169.2" font-family="Helvetica,sans-Serif" font-size="11.00">inserted_at</text>
<polygon fill="none" stroke="black" points="333.5,-161 333.5,-183 448.5,-183 448.5,-161 333.5,-161"/>
<text text-anchor="start" x="336.5" y="-169.2" font-family="Helvetica,sans-Serif" font-size="11.00">timestamp[22]</text>
<polygon fill="none" stroke="black" points="207.5,-139 207.5,-161 333.5,-161 333.5,-139 207.5,-139"/>
<text text-anchor="start" x="227.5" y="-147.2" font-family="Helvetica,sans-Serif" font-size="11.00">updated_at</text>
<polygon fill="none" stroke="black" points="333.5,-139 333.5,-161 448.5,-161 448.5,-139 333.5,-139"/>
<text text-anchor="start" x="336.5" y="-147.2" font-family="Helvetica,sans-Serif" font-size="11.00">timestamp[22]</text>
<polygon fill="#ffffff" stroke="transparent" points="207.5,-121 207.5,-139 448.5,-139 448.5,-121 207.5,-121"/>
<polygon fill="none" stroke="black" points="207.5,-121 207.5,-139 448.5,-139 448.5,-121 207.5,-121"/>
<polygon fill="#ffffff" stroke="transparent" points="208.5,-122 208.5,-138 292.5,-138 292.5,-122 208.5,-122"/>
<text text-anchor="start" x="210.5" y="-127.2" font-family="Helvetica,sans-Serif" font-size="11.00">&lt; 1</text>
<polygon fill="#ffffff" stroke="transparent" points="292.5,-122 292.5,-138 364.5,-138 364.5,-122 292.5,-122"/>
<text text-anchor="start" x="324.5" y="-127.2" font-family="Helvetica,sans-Serif" font-size="11.00"> &#160;</text>
<polygon fill="#ffffff" stroke="transparent" points="364.5,-122 364.5,-138 447.5,-138 447.5,-122 364.5,-122"/>
<text text-anchor="start" x="425.5" y="-127.2" font-family="Helvetica,sans-Serif" font-size="11.00">0 &gt;</text>
<polygon fill="black" stroke="black" points="292.5,-122 292.5,-138 292.5,-138 292.5,-122 292.5,-122"/>
<polygon fill="black" stroke="black" points="364.5,-122 364.5,-138 364.5,-138 364.5,-122 364.5,-122"/>
<polygon fill="none" stroke="black" stroke-width="2" points="206,-120 206,-294 449,-294 449,-120 206,-120"/>
</a>
</g>
</g>
<!-- blocks -->
<g id="node2" class="node">
<title>blocks</title>
<g id="a_node2"><a xlink:href="../../tables/blocks.html" xlink:title="blocks" target="_top">
<polygon fill="#ffffff" stroke="transparent" points="8,-37 8,-271 156,-271 156,-37 8,-37"/>
<polygon fill="#f5f5f5" stroke="transparent" points="8,-249 8,-271 156,-271 156,-249 8,-249"/>
<polygon fill="none" stroke="black" points="8,-249 8,-271 156,-271 156,-249 8,-249"/>
<text text-anchor="start" x="13" y="-258.2" font-family="Helvetica,sans-Serif" font-weight="bold" font-size="11.00">blocks</text>
<text text-anchor="start" x="114" y="-257.2" font-family="Helvetica,sans-Serif" font-size="11.00">[table]</text>
<polygon fill="#ffffff" stroke="transparent" points="8,-227 8,-249 156,-249 156,-227 8,-227"/>
<polygon fill="none" stroke="black" points="8,-227 8,-249 156,-249 156,-227 8,-227"/>
<text text-anchor="start" x="28" y="-235.2" font-family="Helvetica,sans-Serif" font-size="11.00">consensus</text>
<polygon fill="none" stroke="black" points="8,-205 8,-227 156,-227 156,-205 8,-205"/>
<image xlink:href="../../images/primaryKeys.png" width="11px" height="12px" preserveAspectRatio="xMinYMin meet" x="13" y="-222"/>
<text text-anchor="start" x="28" y="-213.2" font-family="Helvetica,sans-Serif" font-size="11.00">hash</text>
<polygon fill="#ffffff" stroke="transparent" points="8,-183 8,-205 156,-205 156,-183 8,-183"/>
<polygon fill="none" stroke="black" points="8,-183 8,-205 156,-205 156,-183 8,-183"/>
<text text-anchor="start" x="28" y="-191.2" font-family="Helvetica,sans-Serif" font-size="11.00">miner_hash</text>
<polygon fill="#ffffff" stroke="transparent" points="8,-161 8,-183 156,-183 156,-161 8,-161"/>
<polygon fill="none" stroke="black" points="8,-161 8,-183 156,-183 156,-161 8,-161"/>
<image xlink:href="../../images/foreignKeys.png" width="11px" height="12px" preserveAspectRatio="xMinYMin meet" x="13" y="-178"/>
<text text-anchor="start" x="28" y="-169.2" font-family="Helvetica,sans-Serif" font-size="11.00">number</text>
<polygon fill="#ffffff" stroke="transparent" points="8,-139 8,-161 156,-161 156,-139 8,-139"/>
<polygon fill="none" stroke="black" points="8,-139 8,-161 156,-161 156,-139 8,-139"/>
<text text-anchor="start" x="28" y="-147.2" font-family="Helvetica,sans-Serif" font-size="11.00">parent_hash</text>
<polygon fill="#ffffff" stroke="transparent" points="8,-117 8,-139 156,-139 156,-117 8,-117"/>
<polygon fill="none" stroke="black" points="8,-117 8,-139 156,-139 156,-117 8,-117"/>
<text text-anchor="start" x="28" y="-125.2" font-family="Helvetica,sans-Serif" font-size="11.00">timestamp</text>
<polygon fill="#ffffff" stroke="transparent" points="8,-95 8,-117 156,-117 156,-95 8,-95"/>
<polygon fill="none" stroke="black" points="8,-95 8,-117 156,-117 156,-95 8,-95"/>
<text text-anchor="start" x="28" y="-103.2" font-family="Helvetica,sans-Serif" font-size="11.00">inserted_at</text>
<polygon fill="#ffffff" stroke="transparent" points="8,-73 8,-95 156,-95 156,-73 8,-73"/>
<polygon fill="none" stroke="black" points="8,-73 8,-95 156,-95 156,-73 8,-73"/>
<text text-anchor="start" x="28" y="-81.2" font-family="Helvetica,sans-Serif" font-size="11.00">is_empty</text>
<polygon fill="none" stroke="black" points="8,-55 8,-73 156,-73 156,-55 8,-55"/>
<text text-anchor="start" x="11" y="-61.2" font-family="Helvetica,sans-Serif" font-size="11.00">...</text>
<polygon fill="#ffffff" stroke="transparent" points="8,-37 8,-55 156,-55 156,-37 8,-37"/>
<polygon fill="none" stroke="black" points="8,-37 8,-55 156,-55 156,-37 8,-37"/>
<polygon fill="#ffffff" stroke="transparent" points="9,-38 9,-54 54,-54 54,-38 9,-38"/>
<text text-anchor="start" x="11" y="-43.2" font-family="Helvetica,sans-Serif" font-size="11.00"> &#160;</text>
<polygon fill="#ffffff" stroke="transparent" points="54,-38 54,-54 99,-54 99,-38 54,-38"/>
<text text-anchor="start" x="72.5" y="-43.2" font-family="Helvetica,sans-Serif" font-size="11.00"> &#160;</text>
<polygon fill="#ffffff" stroke="transparent" points="99,-38 99,-54 155,-54 155,-38 99,-38"/>
<text text-anchor="start" x="133" y="-43.2" font-family="Helvetica,sans-Serif" font-size="11.00">9 &gt;</text>
<polygon fill="black" stroke="black" points="54,-38 54,-54 54,-54 54,-38 54,-38"/>
<polygon fill="black" stroke="black" points="99,-38 99,-54 99,-54 99,-38 99,-38"/>
</a>
</g>
</g>
<!-- block_rewards&#45;&gt;blocks -->
<g id="edge1" class="edge">
<title>block_rewards:w&#45;&gt;blocks:e</title>
<path fill="none" stroke="black" d="M191.84,-216C180.41,-216 173.16,-216 157,-216"/>
<polygon fill="black" stroke="black" points="198.5,-216 206.5,-219.6 202.5,-216 206.5,-216 206.5,-216 206.5,-216 202.5,-216 206.5,-212.4 198.5,-216 198.5,-216"/>
<ellipse fill="none" stroke="black" cx="195.3" cy="-216" rx="3.2" ry="3.2"/>
</g>
</g>
</svg>
