<?xml version="1.0" encoding="UTF-8" standalone="no"?>
<!DOCTYPE svg PUBLIC "-//W3C//DTD SVG 1.1//EN"
 "http://www.w3.org/Graphics/SVG/1.1/DTD/svg11.dtd">
<!-- Generated by graphviz version 2.43.0 (0)
 -->
<!-- Title: oneDegreeRelationshipsDiagram Pages: 1 -->
<svg width="587pt" height="283pt"
 viewBox="0.00 0.00 587.00 283.00" xmlns="http://www.w3.org/2000/svg" xmlns:xlink="http://www.w3.org/1999/xlink">
<g id="graph0" class="graph" transform="scale(1 1) rotate(0) translate(4 279)">
<title>oneDegreeRelationshipsDiagram</title>
<polygon fill="#ffffff" stroke="transparent" points="-4,4 -4,-279 583,-279 583,4 -4,4"/>
<text text-anchor="middle" x="79.5" y="-7.2" font-family="Helvetica,sans-Serif" font-size="11.00">Generated by SchemaSpy</text>
<!-- block_second_degree_relations -->
<g id="node1" class="node">
<title>block_second_degree_relations</title>
<g id="a_node1"><a xlink:href="../../tables/block_second_degree_relations.html" xlink:title="block_second_degree_relations" target="_top">
<polygon fill="#ffffff" stroke="transparent" points="205,-119 205,-251 571,-251 571,-119 205,-119"/>
<polygon fill="#f5f5f5" stroke="transparent" points="207,-227 207,-249 569,-249 569,-227 207,-227"/>
<polygon fill="none" stroke="black" points="207,-227 207,-249 569,-249 569,-227 207,-227"/>
<text text-anchor="start" x="212" y="-236.2" font-family="Helvetica,sans-Serif" font-weight="bold" font-size="11.00">block_second_degree_relations</text>
<text text-anchor="start" x="527" y="-235.2" font-family="Helvetica,sans-Serif" font-size="11.00">[table]</text>
<polygon fill="none" stroke="black" points="207,-205 207,-227 454,-227 454,-205 207,-205"/>
<image xlink:href="../../images/primaryKeys.png" width="11px" height="12px" preserveAspectRatio="xMinYMin meet" x="212" y="-222"/>
<text text-anchor="start" x="227" y="-213.2" font-family="Helvetica,sans-Serif" font-size="11.00">nephew_hash</text>
<polygon fill="none" stroke="black" points="454,-205 454,-227 569,-227 569,-205 454,-205"/>
<text text-anchor="start" x="457" y="-213.2" font-family="Helvetica,sans-Serif" font-size="11.00">bytea[2147483647]</text>
<polygon fill="none" stroke="black" points="207,-183 207,-205 454,-205 454,-183 207,-183"/>
<image xlink:href="../../images/primaryKeys.png" width="11px" height="12px" preserveAspectRatio="xMinYMin meet" x="212" y="-200"/>
<text text-anchor="start" x="227" y="-191.2" font-family="Helvetica,sans-Serif" font-size="11.00">uncle_hash</text>
<polygon fill="none" stroke="black" points="454,-183 454,-205 569,-205 569,-183 454,-183"/>
<text text-anchor="start" x="457" y="-191.2" font-family="Helvetica,sans-Serif" font-size="11.00">bytea[2147483647]</text>
<polygon fill="none" stroke="black" points="207,-161 207,-183 454,-183 454,-161 207,-161"/>
<text text-anchor="start" x="227" y="-169.2" font-family="Helvetica,sans-Serif" font-size="11.00">uncle_fetched_at</text>
<polygon fill="none" stroke="black" points="454,-161 454,-183 569,-183 569,-161 454,-161"/>
<text text-anchor="start" x="457" y="-169.2" font-family="Helvetica,sans-Serif" font-size="11.00">timestamp[29,6]</text>
<polygon fill="none" stroke="black" points="207,-139 207,-161 454,-161 454,-139 207,-139"/>
<image xlink:href="../../images/foreignKeys.png" width="11px" height="12px" preserveAspectRatio="xMinYMin meet" x="212" y="-156"/>
<text text-anchor="start" x="227" y="-147.2" font-family="Helvetica,sans-Serif" font-size="11.00">index</text>
<polygon fill="none" stroke="black" points="454,-139 454,-161 569,-161 569,-139 454,-139"/>
<text text-anchor="start" x="457" y="-147.2" font-family="Helvetica,sans-Serif" font-size="11.00">int4[10]</text>
<polygon fill="#ffffff" stroke="transparent" points="207,-121 207,-139 569,-139 569,-121 207,-121"/>
<polygon fill="none" stroke="black" points="207,-121 207,-139 569,-139 569,-121 207,-121"/>
<polygon fill="#ffffff" stroke="transparent" points="208,-122 208,-138 332,-138 332,-122 208,-122"/>
<text text-anchor="start" x="210" y="-127.2" font-family="Helvetica,sans-Serif" font-size="11.00">&lt; 1</text>
<polygon fill="#ffffff" stroke="transparent" points="332,-122 332,-138 444,-138 444,-122 332,-122"/>
<text text-anchor="start" x="384" y="-127.2" font-family="Helvetica,sans-Serif" font-size="11.00"> &#160;</text>
<polygon fill="#ffffff" stroke="transparent" points="444,-122 444,-138 568,-138 568,-122 444,-122"/>
<text text-anchor="start" x="546" y="-127.2" font-family="Helvetica,sans-Serif" font-size="11.00">0 &gt;</text>
<polygon fill="black" stroke="black" points="332,-122 332,-138 332,-138 332,-122 332,-122"/>
<polygon fill="black" stroke="black" points="444,-122 444,-138 444,-138 444,-122 444,-122"/>
<polygon fill="none" stroke="black" stroke-width="2" points="206,-120 206,-250 570,-250 570,-120 206,-120"/>
</a>
</g>
</g>
<!-- blocks -->
<g id="node2" class="node">
<title>blocks</title>
<g id="a_node2"><a xlink:href="../../tables/blocks.html" xlink:title="blocks" target="_top">
<polygon fill="#ffffff" stroke="transparent" points="8,-37 8,-271 156,-271 156,-37 8,-37"/>
<polygon fill="#f5f5f5" stroke="transparent" points="8,-249 8,-271 156,-271 156,-249 8,-249"/>
<polygon fill="none" stroke="black" points="8,-249 8,-271 156,-271 156,-249 8,-249"/>
<text text-anchor="start" x="13" y="-258.2" font-family="Helvetica,sans-Serif" font-weight="bold" font-size="11.00">blocks</text>
<text text-anchor="start" x="114" y="-257.2" font-family="Helvetica,sans-Serif" font-size="11.00">[table]</text>
<polygon fill="#ffffff" stroke="transparent" points="8,-227 8,-249 156,-249 156,-227 8,-227"/>
<polygon fill="none" stroke="black" points="8,-227 8,-249 156,-249 156,-227 8,-227"/>
<text text-anchor="start" x="28" y="-235.2" font-family="Helvetica,sans-Serif" font-size="11.00">consensus</text>
<polygon fill="none" stroke="black" points="8,-205 8,-227 156,-227 156,-205 8,-205"/>
<image xlink:href="../../images/primaryKeys.png" width="11px" height="12px" preserveAspectRatio="xMinYMin meet" x="13" y="-222"/>
<text text-anchor="start" x="28" y="-213.2" font-family="Helvetica,sans-Serif" font-size="11.00">hash</text>
<polygon fill="#ffffff" stroke="transparent" points="8,-183 8,-205 156,-205 156,-183 8,-183"/>
<polygon fill="none" stroke="black" points="8,-183 8,-205 156,-205 156,-183 8,-183"/>
<text text-anchor="start" x="28" y="-191.2" font-family="Helvetica,sans-Serif" font-size="11.00">miner_hash</text>
<polygon fill="#ffffff" stroke="transparent" points="8,-161 8,-183 156,-183 156,-161 8,-161"/>
<polygon fill="none" stroke="black" points="8,-161 8,-183 156,-183 156,-161 8,-161"/>
<image xlink:href="../../images/foreignKeys.png" width="11px" height="12px" preserveAspectRatio="xMinYMin meet" x="13" y="-178"/>
<text text-anchor="start" x="28" y="-169.2" font-family="Helvetica,sans-Serif" font-size="11.00">number</text>
<polygon fill="#ffffff" stroke="transparent" points="8,-139 8,-161 156,-161 156,-139 8,-139"/>
<polygon fill="none" stroke="black" points="8,-139 8,-161 156,-161 156,-139 8,-139"/>
<text text-anchor="start" x="28" y="-147.2" font-family="Helvetica,sans-Serif" font-size="11.00">parent_hash</text>
<polygon fill="#ffffff" stroke="transparent" points="8,-117 8,-139 156,-139 156,-117 8,-117"/>
<polygon fill="none" stroke="black" points="8,-117 8,-139 156,-139 156,-117 8,-117"/>
<text text-anchor="start" x="28" y="-125.2" font-family="Helvetica,sans-Serif" font-size="11.00">timestamp</text>
<polygon fill="#ffffff" stroke="transparent" points="8,-95 8,-117 156,-117 156,-95 8,-95"/>
<polygon fill="none" stroke="black" points="8,-95 8,-117 156,-117 156,-95 8,-95"/>
<text text-anchor="start" x="28" y="-103.2" font-family="Helvetica,sans-Serif" font-size="11.00">inserted_at</text>
<polygon fill="#ffffff" stroke="transparent" points="8,-73 8,-95 156,-95 156,-73 8,-73"/>
<polygon fill="none" stroke="black" points="8,-73 8,-95 156,-95 156,-73 8,-73"/>
<text text-anchor="start" x="28" y="-81.2" font-family="Helvetica,sans-Serif" font-size="11.00">is_empty</text>
<polygon fill="none" stroke="black" points="8,-55 8,-73 156,-73 156,-55 8,-55"/>
<text text-anchor="start" x="11" y="-61.2" font-family="Helvetica,sans-Serif" font-size="11.00">...</text>
<polygon fill="#ffffff" stroke="transparent" points="8,-37 8,-55 156,-55 156,-37 8,-37"/>
<polygon fill="none" stroke="black" points="8,-37 8,-55 156,-55 156,-37 8,-37"/>
<polygon fill="#ffffff" stroke="transparent" points="9,-38 9,-54 54,-54 54,-38 9,-38"/>
<text text-anchor="start" x="11" y="-43.2" font-family="Helvetica,sans-Serif" font-size="11.00"> &#160;</text>
<polygon fill="#ffffff" stroke="transparent" points="54,-38 54,-54 99,-54 99,-38 54,-38"/>
<text text-anchor="start" x="72.5" y="-43.2" font-family="Helvetica,sans-Serif" font-size="11.00"> &#160;</text>
<polygon fill="#ffffff" stroke="transparent" points="99,-38 99,-54 155,-54 155,-38 99,-38"/>
<text text-anchor="start" x="133" y="-43.2" font-family="Helvetica,sans-Serif" font-size="11.00">9 &gt;</text>
<polygon fill="black" stroke="black" points="54,-38 54,-54 54,-54 54,-38 54,-38"/>
<polygon fill="black" stroke="black" points="99,-38 99,-54 99,-54 99,-38 99,-38"/>
</a>
</g>
</g>
<!-- block_second_degree_relations&#45;&gt;blocks -->
<g id="edge1" class="edge">
<title>block_second_degree_relations:w&#45;&gt;blocks:e</title>
<path fill="none" stroke="black" d="M191.49,-216C180.18,-216 172.99,-216 157,-216"/>
<polygon fill="black" stroke="black" points="198,-216 206,-219.6 202,-216 206,-216 206,-216 206,-216 202,-216 206,-212.4 198,-216 198,-216"/>
<ellipse fill="none" stroke="black" cx="194.8" cy="-216" rx="3.2" ry="3.2"/>
</g>
</g>
</svg>
