<?xml version="1.0" encoding="UTF-8" standalone="no"?>
<!DOCTYPE svg PUBLIC "-//W3C//DTD SVG 1.1//EN"
 "http://www.w3.org/Graphics/SVG/1.1/DTD/svg11.dtd">
<!-- Generated by graphviz version 2.43.0 (0)
 -->
<!-- Title: twoDegreesRelationshipsDiagram Pages: 1 -->
<svg width="838pt" height="605pt"
 viewBox="0.00 0.00 838.00 605.00" xmlns="http://www.w3.org/2000/svg" xmlns:xlink="http://www.w3.org/1999/xlink">
<g id="graph0" class="graph" transform="scale(1 1) rotate(0) translate(4 601)">
<title>twoDegreesRelationshipsDiagram</title>
<polygon fill="#ffffff" stroke="transparent" points="-4,4 -4,-601 834,-601 834,4 -4,4"/>
<text text-anchor="middle" x="79.5" y="-7.2" font-family="Helvetica,sans-Serif" font-size="11.00">Generated by SchemaSpy</text>
<!-- block_rewards -->
<g id="node1" class="node">
<title>block_rewards</title>
<g id="a_node1"><a xlink:href="../../tables/block_rewards.html" xlink:title="block_rewards" target="_top">
<polygon fill="#ffffff" stroke="transparent" points="312,-535 312,-593 464,-593 464,-535 312,-535"/>
<polygon fill="#f5f5f5" stroke="transparent" points="312,-571 312,-593 464,-593 464,-571 312,-571"/>
<polygon fill="none" stroke="black" points="312,-571 312,-593 464,-593 464,-571 312,-571"/>
<text text-anchor="start" x="317" y="-580.2" font-family="Helvetica,sans-Serif" font-weight="bold" font-size="11.00">block_rewards</text>
<text text-anchor="start" x="422" y="-579.2" font-family="Helvetica,sans-Serif" font-size="11.00">[table]</text>
<polygon fill="none" stroke="black" points="312,-553 312,-571 464,-571 464,-553 312,-553"/>
<text text-anchor="start" x="315" y="-559.2" font-family="Helvetica,sans-Serif" font-size="11.00">...</text>
<polygon fill="#ffffff" stroke="transparent" points="312,-535 312,-553 464,-553 464,-535 312,-535"/>
<polygon fill="none" stroke="black" points="312,-535 312,-553 464,-553 464,-535 312,-535"/>
<polygon fill="#ffffff" stroke="transparent" points="313,-536 313,-552 371,-552 371,-536 313,-536"/>
<text text-anchor="start" x="315" y="-541.2" font-family="Helvetica,sans-Serif" font-size="11.00">&lt; 1</text>
<polygon fill="#ffffff" stroke="transparent" points="371,-536 371,-552 417,-552 417,-536 371,-536"/>
<text text-anchor="start" x="390" y="-541.2" font-family="Helvetica,sans-Serif" font-size="11.00"> &#160;</text>
<polygon fill="#ffffff" stroke="transparent" points="417,-536 417,-552 463,-552 463,-536 417,-536"/>
<text text-anchor="start" x="453" y="-541.2" font-family="Helvetica,sans-Serif" font-size="11.00"> &#160;</text>
<polygon fill="black" stroke="black" points="371,-536 371,-552 371,-552 371,-536 371,-536"/>
<polygon fill="black" stroke="black" points="417,-536 417,-552 417,-552 417,-536 417,-536"/>
</a>
</g>
</g>
<!-- blocks -->
<g id="node2" class="node">
<title>blocks</title>
<g id="a_node2"><a xlink:href="../../tables/blocks.html" xlink:title="blocks" target="_top">
<polygon fill="#ffffff" stroke="transparent" points="8,-97 8,-331 156,-331 156,-97 8,-97"/>
<polygon fill="#f5f5f5" stroke="transparent" points="8,-309 8,-331 156,-331 156,-309 8,-309"/>
<polygon fill="none" stroke="black" points="8,-309 8,-331 156,-331 156,-309 8,-309"/>
<text text-anchor="start" x="13" y="-318.2" font-family="Helvetica,sans-Serif" font-weight="bold" font-size="11.00">blocks</text>
<text text-anchor="start" x="114" y="-317.2" font-family="Helvetica,sans-Serif" font-size="11.00">[table]</text>
<polygon fill="#ffffff" stroke="transparent" points="8,-287 8,-309 156,-309 156,-287 8,-287"/>
<polygon fill="none" stroke="black" points="8,-287 8,-309 156,-309 156,-287 8,-287"/>
<text text-anchor="start" x="28" y="-295.2" font-family="Helvetica,sans-Serif" font-size="11.00">consensus</text>
<polygon fill="none" stroke="black" points="8,-265 8,-287 156,-287 156,-265 8,-265"/>
<image xlink:href="../../images/primaryKeys.png" width="11px" height="12px" preserveAspectRatio="xMinYMin meet" x="13" y="-282"/>
<text text-anchor="start" x="28" y="-273.2" font-family="Helvetica,sans-Serif" font-size="11.00">hash</text>
<polygon fill="#ffffff" stroke="transparent" points="8,-243 8,-265 156,-265 156,-243 8,-243"/>
<polygon fill="none" stroke="black" points="8,-243 8,-265 156,-265 156,-243 8,-243"/>
<text text-anchor="start" x="28" y="-251.2" font-family="Helvetica,sans-Serif" font-size="11.00">miner_hash</text>
<polygon fill="#ffffff" stroke="transparent" points="8,-221 8,-243 156,-243 156,-221 8,-221"/>
<polygon fill="none" stroke="black" points="8,-221 8,-243 156,-243 156,-221 8,-221"/>
<image xlink:href="../../images/foreignKeys.png" width="11px" height="12px" preserveAspectRatio="xMinYMin meet" x="13" y="-238"/>
<text text-anchor="start" x="28" y="-229.2" font-family="Helvetica,sans-Serif" font-size="11.00">number</text>
<polygon fill="#ffffff" stroke="transparent" points="8,-199 8,-221 156,-221 156,-199 8,-199"/>
<polygon fill="none" stroke="black" points="8,-199 8,-221 156,-221 156,-199 8,-199"/>
<text text-anchor="start" x="28" y="-207.2" font-family="Helvetica,sans-Serif" font-size="11.00">parent_hash</text>
<polygon fill="#ffffff" stroke="transparent" points="8,-177 8,-199 156,-199 156,-177 8,-177"/>
<polygon fill="none" stroke="black" points="8,-177 8,-199 156,-199 156,-177 8,-177"/>
<text text-anchor="start" x="28" y="-185.2" font-family="Helvetica,sans-Serif" font-size="11.00">timestamp</text>
<polygon fill="#ffffff" stroke="transparent" points="8,-155 8,-177 156,-177 156,-155 8,-155"/>
<polygon fill="none" stroke="black" points="8,-155 8,-177 156,-177 156,-155 8,-155"/>
<text text-anchor="start" x="28" y="-163.2" font-family="Helvetica,sans-Serif" font-size="11.00">inserted_at</text>
<polygon fill="#ffffff" stroke="transparent" points="8,-133 8,-155 156,-155 156,-133 8,-133"/>
<polygon fill="none" stroke="black" points="8,-133 8,-155 156,-155 156,-133 8,-133"/>
<text text-anchor="start" x="28" y="-141.2" font-family="Helvetica,sans-Serif" font-size="11.00">is_empty</text>
<polygon fill="none" stroke="black" points="8,-115 8,-133 156,-133 156,-115 8,-115"/>
<text text-anchor="start" x="11" y="-121.2" font-family="Helvetica,sans-Serif" font-size="11.00">...</text>
<polygon fill="#ffffff" stroke="transparent" points="8,-97 8,-115 156,-115 156,-97 8,-97"/>
<polygon fill="none" stroke="black" points="8,-97 8,-115 156,-115 156,-97 8,-97"/>
<polygon fill="#ffffff" stroke="transparent" points="9,-98 9,-114 54,-114 54,-98 9,-98"/>
<text text-anchor="start" x="11" y="-103.2" font-family="Helvetica,sans-Serif" font-size="11.00"> &#160;</text>
<polygon fill="#ffffff" stroke="transparent" points="54,-98 54,-114 99,-114 99,-98 54,-98"/>
<text text-anchor="start" x="72.5" y="-103.2" font-family="Helvetica,sans-Serif" font-size="11.00"> &#160;</text>
<polygon fill="#ffffff" stroke="transparent" points="99,-98 99,-114 155,-114 155,-98 99,-98"/>
<text text-anchor="start" x="133" y="-103.2" font-family="Helvetica,sans-Serif" font-size="11.00">9 &gt;</text>
<polygon fill="black" stroke="black" points="54,-98 54,-114 54,-114 54,-98 54,-98"/>
<polygon fill="black" stroke="black" points="99,-98 99,-114 99,-114 99,-98 99,-98"/>
</a>
</g>
</g>
<!-- block_rewards&#45;&gt;blocks -->
<g id="edge1" class="edge">
<title>block_rewards:w&#45;&gt;blocks:e</title>
<path fill="none" stroke="black" d="M296.42,-562.05C252.66,-562.26 228.33,-561.59 197,-525 160.55,-482.43 213.04,-276 157,-276"/>
<polygon fill="black" stroke="black" points="303,-562.03 311.01,-565.6 307,-562.01 311,-562 311,-562 311,-562 307,-562.01 310.99,-558.4 303,-562.03 303,-562.03"/>
<ellipse fill="none" stroke="black" cx="299.8" cy="-562.04" rx="3.2" ry="3.2"/>
</g>
<!-- block_second_degree_relations -->
<g id="node3" class="node">
<title>block_second_degree_relations</title>
<g id="a_node3"><a xlink:href="../../tables/block_second_degree_relations.html" xlink:title="block_second_degree_relations" target="_top">
<polygon fill="#ffffff" stroke="transparent" points="205,-382 205,-514 571,-514 571,-382 205,-382"/>
<polygon fill="#f5f5f5" stroke="transparent" points="207,-490 207,-512 569,-512 569,-490 207,-490"/>
<polygon fill="none" stroke="black" points="207,-490 207,-512 569,-512 569,-490 207,-490"/>
<text text-anchor="start" x="212" y="-499.2" font-family="Helvetica,sans-Serif" font-weight="bold" font-size="11.00">block_second_degree_relations</text>
<text text-anchor="start" x="527" y="-498.2" font-family="Helvetica,sans-Serif" font-size="11.00">[table]</text>
<polygon fill="none" stroke="black" points="207,-468 207,-490 454,-490 454,-468 207,-468"/>
<image xlink:href="../../images/primaryKeys.png" width="11px" height="12px" preserveAspectRatio="xMinYMin meet" x="212" y="-485"/>
<text text-anchor="start" x="227" y="-476.2" font-family="Helvetica,sans-Serif" font-size="11.00">nephew_hash</text>
<polygon fill="none" stroke="black" points="454,-468 454,-490 569,-490 569,-468 454,-468"/>
<text text-anchor="start" x="457" y="-476.2" font-family="Helvetica,sans-Serif" font-size="11.00">bytea[2147483647]</text>
<polygon fill="none" stroke="black" points="207,-446 207,-468 454,-468 454,-446 207,-446"/>
<image xlink:href="../../images/primaryKeys.png" width="11px" height="12px" preserveAspectRatio="xMinYMin meet" x="212" y="-463"/>
<text text-anchor="start" x="227" y="-454.2" font-family="Helvetica,sans-Serif" font-size="11.00">uncle_hash</text>
<polygon fill="none" stroke="black" points="454,-446 454,-468 569,-468 569,-446 454,-446"/>
<text text-anchor="start" x="457" y="-454.2" font-family="Helvetica,sans-Serif" font-size="11.00">bytea[2147483647]</text>
<polygon fill="none" stroke="black" points="207,-424 207,-446 454,-446 454,-424 207,-424"/>
<text text-anchor="start" x="227" y="-432.2" font-family="Helvetica,sans-Serif" font-size="11.00">uncle_fetched_at</text>
<polygon fill="none" stroke="black" points="454,-424 454,-446 569,-446 569,-424 454,-424"/>
<text text-anchor="start" x="457" y="-432.2" font-family="Helvetica,sans-Serif" font-size="11.00">timestamp[29,6]</text>
<polygon fill="none" stroke="black" points="207,-402 207,-424 454,-424 454,-402 207,-402"/>
<image xlink:href="../../images/foreignKeys.png" width="11px" height="12px" preserveAspectRatio="xMinYMin meet" x="212" y="-419"/>
<text text-anchor="start" x="227" y="-410.2" font-family="Helvetica,sans-Serif" font-size="11.00">index</text>
<polygon fill="none" stroke="black" points="454,-402 454,-424 569,-424 569,-402 454,-402"/>
<text text-anchor="start" x="457" y="-410.2" font-family="Helvetica,sans-Serif" font-size="11.00">int4[10]</text>
<polygon fill="#ffffff" stroke="transparent" points="207,-384 207,-402 569,-402 569,-384 207,-384"/>
<polygon fill="none" stroke="black" points="207,-384 207,-402 569,-402 569,-384 207,-384"/>
<polygon fill="#ffffff" stroke="transparent" points="208,-385 208,-401 332,-401 332,-385 208,-385"/>
<text text-anchor="start" x="210" y="-390.2" font-family="Helvetica,sans-Serif" font-size="11.00">&lt; 1</text>
<polygon fill="#ffffff" stroke="transparent" points="332,-385 332,-401 444,-401 444,-385 332,-385"/>
<text text-anchor="start" x="384" y="-390.2" font-family="Helvetica,sans-Serif" font-size="11.00"> &#160;</text>
<polygon fill="#ffffff" stroke="transparent" points="444,-385 444,-401 568,-401 568,-385 444,-385"/>
<text text-anchor="start" x="546" y="-390.2" font-family="Helvetica,sans-Serif" font-size="11.00">0 &gt;</text>
<polygon fill="black" stroke="black" points="332,-385 332,-401 332,-401 332,-385 332,-385"/>
<polygon fill="black" stroke="black" points="444,-385 444,-401 444,-401 444,-385 444,-385"/>
<polygon fill="none" stroke="black" stroke-width="2" points="206,-383 206,-513 570,-513 570,-383 206,-383"/>
</a>
</g>
</g>
<!-- block_second_degree_relations&#45;&gt;blocks -->
<g id="edge2" class="edge">
<title>block_second_degree_relations:w&#45;&gt;blocks:e</title>
<path fill="none" stroke="black" d="M191.56,-476.86C128.89,-455.16 244.19,-276 157,-276"/>
<polygon fill="black" stroke="black" points="198.09,-477.83 205.47,-482.56 202.04,-478.41 206,-479 206,-479 206,-479 202.04,-478.41 206.53,-475.44 198.09,-477.83 198.09,-477.83"/>
<ellipse fill="none" stroke="black" cx="194.92" cy="-477.36" rx="3.2" ry="3.2"/>
</g>
<!-- internal_transactions -->
<g id="node4" class="node">
<title>internal_transactions</title>
<g id="a_node4"><a xlink:href="../../tables/internal_transactions.html" xlink:title="internal_transactions" target="_top">
<polygon fill="#ffffff" stroke="transparent" points="620,-330 620,-388 822,-388 822,-330 620,-330"/>
<polygon fill="#f5f5f5" stroke="transparent" points="620,-366 620,-388 822,-388 822,-366 620,-366"/>
<polygon fill="none" stroke="black" points="620,-366 620,-388 822,-388 822,-366 620,-366"/>
<text text-anchor="start" x="625" y="-375.2" font-family="Helvetica,sans-Serif" font-weight="bold" font-size="11.00">internal_transactions</text>
<text text-anchor="start" x="780" y="-374.2" font-family="Helvetica,sans-Serif" font-size="11.00">[table]</text>
<polygon fill="none" stroke="black" points="620,-348 620,-366 822,-366 822,-348 620,-348"/>
<text text-anchor="start" x="623" y="-354.2" font-family="Helvetica,sans-Serif" font-size="11.00">...</text>
<polygon fill="#ffffff" stroke="transparent" points="620,-330 620,-348 822,-348 822,-330 620,-330"/>
<polygon fill="none" stroke="black" points="620,-330 620,-348 822,-348 822,-330 620,-330"/>
<polygon fill="#ffffff" stroke="transparent" points="621,-331 621,-347 696,-347 696,-331 621,-331"/>
<text text-anchor="start" x="623" y="-336.2" font-family="Helvetica,sans-Serif" font-size="11.00">&lt; 2</text>
<polygon fill="#ffffff" stroke="transparent" points="696,-331 696,-347 759,-347 759,-331 696,-331"/>
<text text-anchor="start" x="723.5" y="-336.2" font-family="Helvetica,sans-Serif" font-size="11.00"> &#160;</text>
<polygon fill="#ffffff" stroke="transparent" points="759,-331 759,-347 821,-347 821,-331 759,-331"/>
<text text-anchor="start" x="811" y="-336.2" font-family="Helvetica,sans-Serif" font-size="11.00"> &#160;</text>
<polygon fill="black" stroke="black" points="696,-331 696,-347 696,-347 696,-331 696,-331"/>
<polygon fill="black" stroke="black" points="759,-331 759,-347 759,-347 759,-331 759,-331"/>
</a>
</g>
</g>
<!-- internal_transactions&#45;&gt;blocks -->
<g id="edge3" class="edge">
<title>internal_transactions:w&#45;&gt;blocks:e</title>
<path fill="none" stroke="black" d="M604.51,-357.17C501.9,-359.37 274.62,-381.33 197,-337 168.85,-320.92 189.42,-276 157,-276"/>
<polygon fill="black" stroke="black" points="611,-357.09 619.04,-360.6 615,-357.05 619,-357 619,-357 619,-357 615,-357.05 618.96,-353.4 611,-357.09 611,-357.09"/>
<ellipse fill="none" stroke="black" cx="607.8" cy="-357.13" rx="3.2" ry="3.2"/>
</g>
<!-- transactions -->
<g id="node5" class="node">
<title>transactions</title>
<g id="a_node5"><a xlink:href="../../tables/transactions.html" xlink:title="transactions" target="_top">
<polygon fill="#ffffff" stroke="transparent" points="319,-249 319,-307 457,-307 457,-249 319,-249"/>
<polygon fill="#f5f5f5" stroke="transparent" points="319,-285 319,-307 457,-307 457,-285 319,-285"/>
<polygon fill="none" stroke="black" points="319,-285 319,-307 457,-307 457,-285 319,-285"/>
<text text-anchor="start" x="324" y="-294.2" font-family="Helvetica,sans-Serif" font-weight="bold" font-size="11.00">transactions</text>
<text text-anchor="start" x="415" y="-293.2" font-family="Helvetica,sans-Serif" font-size="11.00">[table]</text>
<polygon fill="none" stroke="black" points="319,-267 319,-285 457,-285 457,-267 319,-267"/>
<text text-anchor="start" x="322" y="-273.2" font-family="Helvetica,sans-Serif" font-size="11.00">...</text>
<polygon fill="#ffffff" stroke="transparent" points="319,-249 319,-267 457,-267 457,-249 319,-249"/>
<polygon fill="none" stroke="black" points="319,-249 319,-267 457,-267 457,-249 319,-249"/>
<polygon fill="#ffffff" stroke="transparent" points="320,-250 320,-266 370,-266 370,-250 320,-250"/>
<text text-anchor="start" x="322" y="-255.2" font-family="Helvetica,sans-Serif" font-size="11.00">&lt; 1</text>
<polygon fill="#ffffff" stroke="transparent" points="370,-250 370,-266 407,-266 407,-250 370,-250"/>
<text text-anchor="start" x="384.5" y="-255.2" font-family="Helvetica,sans-Serif" font-size="11.00"> &#160;</text>
<polygon fill="#ffffff" stroke="transparent" points="407,-250 407,-266 456,-266 456,-250 407,-250"/>
<text text-anchor="start" x="434" y="-255.2" font-family="Helvetica,sans-Serif" font-size="11.00">7 &gt;</text>
<polygon fill="black" stroke="black" points="370,-250 370,-266 370,-266 370,-250 370,-250"/>
<polygon fill="black" stroke="black" points="407,-250 407,-266 407,-266 407,-250 407,-250"/>
</a>
</g>
</g>
<!-- internal_transactions&#45;&gt;transactions -->
<g id="edge4" class="edge">
<title>internal_transactions:w&#45;&gt;transactions:e</title>
<path fill="none" stroke="black" d="M604.78,-354.4C562.04,-340.53 493.75,-276 458,-276"/>
<polygon fill="black" stroke="black" points="611.13,-355.56 618.35,-360.54 615.07,-356.28 619,-357 619,-357 619,-357 615.07,-356.28 619.65,-353.46 611.13,-355.56 611.13,-355.56"/>
<ellipse fill="none" stroke="black" cx="607.98" cy="-354.98" rx="3.2" ry="3.2"/>
</g>
<!-- transactions&#45;&gt;blocks -->
<g id="edge12" class="edge">
<title>transactions:w&#45;&gt;blocks:e</title>
<path fill="none" stroke="black" d="M303.29,-276C243.58,-276 223.38,-276 157,-276"/>
<polygon fill="black" stroke="black" points="310,-276 318,-279.6 314,-276 318,-276 318,-276 318,-276 314,-276 318,-272.4 310,-276 310,-276"/>
<ellipse fill="none" stroke="black" cx="306.8" cy="-276" rx="3.2" ry="3.2"/>
</g>
<!-- logs -->
<g id="node6" class="node">
<title>logs</title>
<g id="a_node6"><a xlink:href="../../tables/logs.html" xlink:title="logs" target="_top">
<polygon fill="#ffffff" stroke="transparent" points="682.5,-251 682.5,-309 759.5,-309 759.5,-251 682.5,-251"/>
<polygon fill="#f5f5f5" stroke="transparent" points="683,-287 683,-309 760,-309 760,-287 683,-287"/>
<polygon fill="none" stroke="black" points="683,-287 683,-309 760,-309 760,-287 683,-287"/>
<text text-anchor="start" x="688" y="-296.2" font-family="Helvetica,sans-Serif" font-weight="bold" font-size="11.00">logs</text>
<text text-anchor="start" x="718" y="-295.2" font-family="Helvetica,sans-Serif" font-size="11.00">[table]</text>
<polygon fill="none" stroke="black" points="683,-269 683,-287 760,-287 760,-269 683,-269"/>
<text text-anchor="start" x="686" y="-275.2" font-family="Helvetica,sans-Serif" font-size="11.00">...</text>
<polygon fill="#ffffff" stroke="transparent" points="683,-251 683,-269 760,-269 760,-251 683,-251"/>
<polygon fill="none" stroke="black" points="683,-251 683,-269 760,-269 760,-251 683,-251"/>
<polygon fill="#ffffff" stroke="transparent" points="684,-252 684,-268 717,-268 717,-252 684,-252"/>
<text text-anchor="start" x="686" y="-257.2" font-family="Helvetica,sans-Serif" font-size="11.00">&lt; 2</text>
<polygon fill="#ffffff" stroke="transparent" points="717,-252 717,-268 738,-268 738,-252 717,-252"/>
<text text-anchor="start" x="723.5" y="-257.2" font-family="Helvetica,sans-Serif" font-size="11.00"> &#160;</text>
<polygon fill="#ffffff" stroke="transparent" points="738,-252 738,-268 759,-268 759,-252 738,-252"/>
<text text-anchor="start" x="749" y="-257.2" font-family="Helvetica,sans-Serif" font-size="11.00"> &#160;</text>
<polygon fill="black" stroke="black" points="717,-252 717,-268 717,-268 717,-252 717,-252"/>
<polygon fill="black" stroke="black" points="738,-252 738,-268 738,-268 738,-252 738,-252"/>
</a>
</g>
</g>
<!-- logs&#45;&gt;blocks -->
<g id="edge5" class="edge">
<title>logs:w&#45;&gt;blocks:e</title>
<path fill="none" stroke="black" d="M667.33,-279.04C631.15,-284.51 621.99,-309.95 579,-318 495.56,-333.63 275.03,-351.44 197,-318 173.31,-307.85 182.78,-276 157,-276"/>
<polygon fill="black" stroke="black" points="674.02,-278.57 682.26,-281.59 678.01,-278.28 682,-278 682,-278 682,-278 678.01,-278.28 681.74,-274.41 674.02,-278.57 674.02,-278.57"/>
<ellipse fill="none" stroke="black" cx="670.83" cy="-278.79" rx="3.2" ry="3.2"/>
</g>
<!-- logs&#45;&gt;transactions -->
<g id="edge6" class="edge">
<title>logs:w&#45;&gt;transactions:e</title>
<path fill="none" stroke="black" d="M667.39,-277.99C579.72,-277.8 552.5,-276 458,-276"/>
<polygon fill="black" stroke="black" points="674,-277.99 682,-281.6 678,-278 682,-278 682,-278 682,-278 678,-278 682,-274.4 674,-277.99 674,-277.99"/>
<ellipse fill="none" stroke="black" cx="670.8" cy="-277.99" rx="3.2" ry="3.2"/>
</g>
<!-- pending_block_operations -->
<g id="node7" class="node">
<title>pending_block_operations</title>
<g id="a_node7"><a xlink:href="../../tables/pending_block_operations.html" xlink:title="pending_block_operations" target="_top">
<polygon fill="#ffffff" stroke="transparent" points="269.5,-170 269.5,-228 506.5,-228 506.5,-170 269.5,-170"/>
<polygon fill="#f5f5f5" stroke="transparent" points="270,-206 270,-228 507,-228 507,-206 270,-206"/>
<polygon fill="none" stroke="black" points="270,-206 270,-228 507,-228 507,-206 270,-206"/>
<text text-anchor="start" x="275" y="-215.2" font-family="Helvetica,sans-Serif" font-weight="bold" font-size="11.00">pending_block_operations</text>
<text text-anchor="start" x="465" y="-214.2" font-family="Helvetica,sans-Serif" font-size="11.00">[table]</text>
<polygon fill="none" stroke="black" points="270,-188 270,-206 507,-206 507,-188 270,-188"/>
<text text-anchor="start" x="273" y="-194.2" font-family="Helvetica,sans-Serif" font-size="11.00">...</text>
<polygon fill="#ffffff" stroke="transparent" points="270,-170 270,-188 507,-188 507,-170 270,-170"/>
<polygon fill="none" stroke="black" points="270,-170 270,-188 507,-188 507,-170 270,-170"/>
<polygon fill="#ffffff" stroke="transparent" points="271,-171 271,-187 358,-187 358,-171 271,-171"/>
<text text-anchor="start" x="273" y="-176.2" font-family="Helvetica,sans-Serif" font-size="11.00">&lt; 1</text>
<polygon fill="#ffffff" stroke="transparent" points="358,-171 358,-187 432,-187 432,-171 358,-171"/>
<text text-anchor="start" x="391" y="-176.2" font-family="Helvetica,sans-Serif" font-size="11.00"> &#160;</text>
<polygon fill="#ffffff" stroke="transparent" points="432,-171 432,-187 506,-187 506,-171 432,-171"/>
<text text-anchor="start" x="496" y="-176.2" font-family="Helvetica,sans-Serif" font-size="11.00"> &#160;</text>
<polygon fill="black" stroke="black" points="358,-171 358,-187 358,-187 358,-171 358,-171"/>
<polygon fill="black" stroke="black" points="432,-171 432,-187 432,-187 432,-171 432,-171"/>
</a>
</g>
</g>
<!-- pending_block_operations&#45;&gt;blocks -->
<g id="edge7" class="edge">
<title>pending_block_operations:w&#45;&gt;blocks:e</title>
<path fill="none" stroke="black" d="M258.28,-197.65C230.59,-201.23 223.63,-219.28 197,-239 177.54,-253.41 181.22,-276 157,-276"/>
<polygon fill="black" stroke="black" points="267.96,-193.06 268.44,-201.04 266.84,-201.14 266.36,-193.15 267.96,-193.06"/>
<polyline fill="none" stroke="black" points="269,-197 265.01,-197.24 "/>
<ellipse fill="none" stroke="black" cx="261.81" cy="-197.43" rx="3.2" ry="3.2"/>
</g>
<!-- token_transfers -->
<g id="node8" class="node">
<title>token_transfers</title>
<g id="a_node8"><a xlink:href="../../tables/token_transfers.html" xlink:title="token_transfers" target="_top">
<polygon fill="#ffffff" stroke="transparent" points="640,-172 640,-230 802,-230 802,-172 640,-172"/>
<polygon fill="#f5f5f5" stroke="transparent" points="640,-208 640,-230 802,-230 802,-208 640,-208"/>
<polygon fill="none" stroke="black" points="640,-208 640,-230 802,-230 802,-208 640,-208"/>
<text text-anchor="start" x="645" y="-217.2" font-family="Helvetica,sans-Serif" font-weight="bold" font-size="11.00">token_transfers</text>
<text text-anchor="start" x="760" y="-216.2" font-family="Helvetica,sans-Serif" font-size="11.00">[table]</text>
<polygon fill="none" stroke="black" points="640,-190 640,-208 802,-208 802,-190 640,-190"/>
<text text-anchor="start" x="643" y="-196.2" font-family="Helvetica,sans-Serif" font-size="11.00">...</text>
<polygon fill="#ffffff" stroke="transparent" points="640,-172 640,-190 802,-190 802,-172 640,-172"/>
<polygon fill="none" stroke="black" points="640,-172 640,-190 802,-190 802,-172 640,-172"/>
<polygon fill="#ffffff" stroke="transparent" points="641,-173 641,-189 703,-189 703,-173 641,-173"/>
<text text-anchor="start" x="643" y="-178.2" font-family="Helvetica,sans-Serif" font-size="11.00">&lt; 2</text>
<polygon fill="#ffffff" stroke="transparent" points="703,-173 703,-189 752,-189 752,-173 703,-173"/>
<text text-anchor="start" x="723.5" y="-178.2" font-family="Helvetica,sans-Serif" font-size="11.00"> &#160;</text>
<polygon fill="#ffffff" stroke="transparent" points="752,-173 752,-189 801,-189 801,-173 752,-173"/>
<text text-anchor="start" x="791" y="-178.2" font-family="Helvetica,sans-Serif" font-size="11.00"> &#160;</text>
<polygon fill="black" stroke="black" points="703,-173 703,-189 703,-189 703,-173 703,-173"/>
<polygon fill="black" stroke="black" points="752,-173 752,-189 752,-189 752,-173 752,-173"/>
</a>
</g>
</g>
<!-- token_transfers&#45;&gt;blocks -->
<g id="edge8" class="edge">
<title>token_transfers:w&#45;&gt;blocks:e</title>
<path fill="none" stroke="black" d="M624.77,-196.39C606.96,-188.91 604.01,-167.42 579,-160 497.61,-135.87 266.12,-110.72 197,-160 152.6,-191.66 211.53,-276 157,-276"/>
<polygon fill="black" stroke="black" points="631.13,-197.56 638.35,-202.54 635.07,-198.28 639,-199 639,-199 639,-199 635.07,-198.28 639.65,-195.46 631.13,-197.56 631.13,-197.56"/>
<ellipse fill="none" stroke="black" cx="627.98" cy="-196.98" rx="3.2" ry="3.2"/>
</g>
<!-- token_transfers&#45;&gt;transactions -->
<g id="edge9" class="edge">
<title>token_transfers:w&#45;&gt;transactions:e</title>
<path fill="none" stroke="black" d="M624.56,-201.32C606.35,-208.04 602.76,-227.75 579,-239 528.18,-263.07 514.24,-276 458,-276"/>
<polygon fill="black" stroke="black" points="631.1,-200.27 639.57,-202.55 635.05,-199.63 639,-199 639,-199 639,-199 635.05,-199.63 638.43,-195.45 631.1,-200.27 631.1,-200.27"/>
<ellipse fill="none" stroke="black" cx="627.94" cy="-200.78" rx="3.2" ry="3.2"/>
</g>
<!-- transaction_forks -->
<g id="node9" class="node">
<title>transaction_forks</title>
<g id="a_node9"><a xlink:href="../../tables/transaction_forks.html" xlink:title="transaction_forks" target="_top">
<polygon fill="#ffffff" stroke="transparent" points="634,-93 634,-151 808,-151 808,-93 634,-93"/>
<polygon fill="#f5f5f5" stroke="transparent" points="634,-129 634,-151 808,-151 808,-129 634,-129"/>
<polygon fill="none" stroke="black" points="634,-129 634,-151 808,-151 808,-129 634,-129"/>
<text text-anchor="start" x="639" y="-138.2" font-family="Helvetica,sans-Serif" font-weight="bold" font-size="11.00">transaction_forks</text>
<text text-anchor="start" x="766" y="-137.2" font-family="Helvetica,sans-Serif" font-size="11.00">[table]</text>
<polygon fill="none" stroke="black" points="634,-111 634,-129 808,-129 808,-111 634,-111"/>
<text text-anchor="start" x="637" y="-117.2" font-family="Helvetica,sans-Serif" font-size="11.00">...</text>
<polygon fill="#ffffff" stroke="transparent" points="634,-93 634,-111 808,-111 808,-93 634,-93"/>
<polygon fill="none" stroke="black" points="634,-93 634,-111 808,-111 808,-93 634,-93"/>
<polygon fill="#ffffff" stroke="transparent" points="635,-94 635,-110 701,-110 701,-94 635,-94"/>
<text text-anchor="start" x="637" y="-99.2" font-family="Helvetica,sans-Serif" font-size="11.00">&lt; 2</text>
<polygon fill="#ffffff" stroke="transparent" points="701,-94 701,-110 754,-110 754,-94 701,-94"/>
<text text-anchor="start" x="723.5" y="-99.2" font-family="Helvetica,sans-Serif" font-size="11.00"> &#160;</text>
<polygon fill="#ffffff" stroke="transparent" points="754,-94 754,-110 807,-110 807,-94 754,-94"/>
<text text-anchor="start" x="797" y="-99.2" font-family="Helvetica,sans-Serif" font-size="11.00"> &#160;</text>
<polygon fill="black" stroke="black" points="701,-94 701,-110 701,-110 701,-94 701,-94"/>
<polygon fill="black" stroke="black" points="754,-94 754,-110 754,-110 754,-94 754,-94"/>
</a>
</g>
</g>
<!-- transaction_forks&#45;&gt;blocks -->
<g id="edge11" class="edge">
<title>transaction_forks:w&#45;&gt;blocks:e</title>
<path fill="none" stroke="black" d="M618.53,-119.73C536.95,-117.46 232.5,-102.27 197,-130 143.98,-171.42 224.28,-276 157,-276"/>
<polygon fill="black" stroke="black" points="625,-119.85 632.93,-123.6 629,-119.93 633,-120 633,-120 633,-120 629,-119.93 633.07,-116.4 625,-119.85 625,-119.85"/>
<ellipse fill="none" stroke="black" cx="621.8" cy="-119.79" rx="3.2" ry="3.2"/>
</g>
<!-- transaction_forks&#45;&gt;transactions -->
<g id="edge10" class="edge">
<title>transaction_forks:w&#45;&gt;transactions:e</title>
<path fill="none" stroke="black" d="M618.36,-122.35C583.6,-135.87 617.84,-204.15 579,-239 537.14,-276.56 514.24,-276 458,-276"/>
<polygon fill="black" stroke="black" points="625.1,-121.27 633.57,-123.55 629.05,-120.64 633,-120 633,-120 633,-120 629.05,-120.64 632.43,-116.45 625.1,-121.27 625.1,-121.27"/>
<ellipse fill="none" stroke="black" cx="621.94" cy="-121.78" rx="3.2" ry="3.2"/>
</g>
<!-- withdrawals -->
<g id="node10" class="node">
<title>withdrawals</title>
<g id="a_node10"><a xlink:href="../../tables/withdrawals.html" xlink:title="withdrawals" target="_top">
<polygon fill="#ffffff" stroke="transparent" points="320,-37 320,-95 456,-95 456,-37 320,-37"/>
<polygon fill="#f5f5f5" stroke="transparent" points="320,-73 320,-95 456,-95 456,-73 320,-73"/>
<polygon fill="none" stroke="black" points="320,-73 320,-95 456,-95 456,-73 320,-73"/>
<text text-anchor="start" x="325" y="-82.2" font-family="Helvetica,sans-Serif" font-weight="bold" font-size="11.00">withdrawals</text>
<text text-anchor="start" x="414" y="-81.2" font-family="Helvetica,sans-Serif" font-size="11.00">[table]</text>
<polygon fill="none" stroke="black" points="320,-55 320,-73 456,-73 456,-55 320,-55"/>
<text text-anchor="start" x="323" y="-61.2" font-family="Helvetica,sans-Serif" font-size="11.00">...</text>
<polygon fill="#ffffff" stroke="transparent" points="320,-37 320,-55 456,-55 456,-37 320,-37"/>
<polygon fill="none" stroke="black" points="320,-37 320,-55 456,-55 456,-37 320,-37"/>
<polygon fill="#ffffff" stroke="transparent" points="321,-38 321,-54 374,-54 374,-38 321,-38"/>
<text text-anchor="start" x="323" y="-43.2" font-family="Helvetica,sans-Serif" font-size="11.00">&lt; 1</text>
<polygon fill="#ffffff" stroke="transparent" points="374,-38 374,-54 415,-54 415,-38 374,-38"/>
<text text-anchor="start" x="390.5" y="-43.2" font-family="Helvetica,sans-Serif" font-size="11.00"> &#160;</text>
<polygon fill="#ffffff" stroke="transparent" points="415,-38 415,-54 455,-54 455,-38 415,-38"/>
<text text-anchor="start" x="445" y="-43.2" font-family="Helvetica,sans-Serif" font-size="11.00"> &#160;</text>
<polygon fill="black" stroke="black" points="374,-38 374,-54 374,-54 374,-38 374,-38"/>
<polygon fill="black" stroke="black" points="415,-38 415,-54 415,-54 415,-38 415,-38"/>
</a>
</g>
</g>
<!-- withdrawals&#45;&gt;blocks -->
<g id="edge13" class="edge">
<title>withdrawals:w&#45;&gt;blocks:e</title>
<path fill="none" stroke="black" d="M304.47,-64.07C256.57,-64.63 232.01,-69.59 197,-109 146.32,-166.06 233.32,-276 157,-276"/>
<polygon fill="black" stroke="black" points="311,-64.04 319.02,-67.6 315,-64.02 319,-64 319,-64 319,-64 315,-64.02 318.98,-60.4 311,-64.04 311,-64.04"/>
<ellipse fill="none" stroke="black" cx="307.8" cy="-64.05" rx="3.2" ry="3.2"/>
</g>
</g>
</svg>
