<?xml version="1.0" encoding="UTF-8" standalone="no"?>
<!DOCTYPE svg PUBLIC "-//W3C//DTD SVG 1.1//EN"
 "http://www.w3.org/Graphics/SVG/1.1/DTD/svg11.dtd">
<!-- Generated by graphviz version 9.0.0 (20230911.1827)
 -->
<!-- Title: oneDegreeRelationshipsDiagram Pages: 1 -->
<svg width="503pt" height="283pt"
 viewBox="0.00 0.00 503.00 283.00" xmlns="http://www.w3.org/2000/svg" xmlns:xlink="http://www.w3.org/1999/xlink">
<g id="graph0" class="graph" transform="scale(1 1) rotate(0) translate(4 279)">
<title>oneDegreeRelationshipsDiagram</title>
<polygon fill="#ffffff" stroke="none" points="-4,4 -4,-279 499,-279 499,4 -4,4"/>
<text text-anchor="middle" x="71.38" y="-5.55" font-family="Helvetica,sans-Serif" font-size="11.00">Generated by SchemaSpy</text>
<!-- block_second_degree_relations -->
<g id="node1" class="node">
<title>block_second_degree_relations</title>
<g id="a_node1"><a xlink:href="../../tables/block_second_degree_relations.html" xlink:title="block_second_degree_relations" target="_top">
<polygon fill="#ffffff" stroke="none" points="182,-119 182,-251 487,-251 487,-119 182,-119"/>
<polygon fill="#f5f5f5" stroke="none" points="184,-227 184,-249 485,-249 485,-227 184,-227"/>
<polygon fill="none" stroke="black" points="184,-227 184,-249 485,-249 485,-227 184,-227"/>
<text text-anchor="start" x="189" y="-234.55" font-family="Helvetica,sans-Serif" font-weight="bold" font-size="11.00">block_second_degree_relations</text>
<text text-anchor="start" x="450.75" y="-233.55" font-family="Helvetica,sans-Serif" font-size="11.00">[table]</text>
<polygon fill="none" stroke="black" points="184,-205 184,-227 387,-227 387,-205 184,-205"/>
<image xlink:href="../../images/primaryKeys.png" width="11px" height="12px" preserveAspectRatio="xMinYMin meet" x="189" y="-222"/>
<text text-anchor="start" x="204" y="-211.55" font-family="Helvetica,sans-Serif" font-size="11.00">nephew_hash</text>
<polygon fill="none" stroke="black" points="387,-205 387,-227 485,-227 485,-205 387,-205"/>
<text text-anchor="start" x="389.88" y="-211.55" font-family="Helvetica,sans-Serif" font-size="11.00">bytea[2147483647]</text>
<polygon fill="none" stroke="black" points="184,-183 184,-205 387,-205 387,-183 184,-183"/>
<image xlink:href="../../images/primaryKeys.png" width="11px" height="12px" preserveAspectRatio="xMinYMin meet" x="189" y="-200"/>
<text text-anchor="start" x="204" y="-189.55" font-family="Helvetica,sans-Serif" font-size="11.00">uncle_hash</text>
<polygon fill="none" stroke="black" points="387,-183 387,-205 485,-205 485,-183 387,-183"/>
<text text-anchor="start" x="389.88" y="-189.55" font-family="Helvetica,sans-Serif" font-size="11.00">bytea[2147483647]</text>
<polygon fill="none" stroke="black" points="184,-161 184,-183 387,-183 387,-161 184,-161"/>
<text text-anchor="start" x="204" y="-167.55" font-family="Helvetica,sans-Serif" font-size="11.00">uncle_fetched_at</text>
<polygon fill="none" stroke="black" points="387,-161 387,-183 485,-183 485,-161 387,-161"/>
<text text-anchor="start" x="390" y="-167.55" font-family="Helvetica,sans-Serif" font-size="11.00">timestamp[29,6]</text>
<polygon fill="none" stroke="black" points="184,-139 184,-161 387,-161 387,-139 184,-139"/>
<image xlink:href="../../images/foreignKeys.png" width="11px" height="12px" preserveAspectRatio="xMinYMin meet" x="189" y="-156"/>
<text text-anchor="start" x="204" y="-145.55" font-family="Helvetica,sans-Serif" font-size="11.00">index</text>
<polygon fill="none" stroke="black" points="387,-139 387,-161 485,-161 485,-139 387,-139"/>
<text text-anchor="start" x="390" y="-145.55" font-family="Helvetica,sans-Serif" font-size="11.00">int4[10]</text>
<polygon fill="#ffffff" stroke="none" points="184,-121 184,-139 290,-139 290,-121 184,-121"/>
<polygon fill="none" stroke="black" points="184,-121 184,-139 290,-139 290,-121 184,-121"/>
<text text-anchor="start" x="187" y="-125.55" font-family="Helvetica,sans-Serif" font-size="11.00">&lt; 1</text>
<polygon fill="#ffffff" stroke="none" points="290,-121 290,-139 387,-139 387,-121 290,-121"/>
<polygon fill="none" stroke="black" points="290,-121 290,-139 387,-139 387,-121 290,-121"/>
<text text-anchor="start" x="378" y="-125.55" font-family="Helvetica,sans-Serif" font-size="11.00"> &#160;</text>
<polygon fill="#ffffff" stroke="none" points="387,-121 387,-139 485,-139 485,-121 387,-121"/>
<polygon fill="none" stroke="black" points="387,-121 387,-139 485,-139 485,-121 387,-121"/>
<text text-anchor="start" x="466.25" y="-125.55" font-family="Helvetica,sans-Serif" font-size="11.00">0 &gt;</text>
<polygon fill="none" stroke="black" stroke-width="2" points="183,-120 183,-250 486,-250 486,-120 183,-120"/>
</a>
</g>
</g>
<!-- blocks -->
<g id="node2" class="node">
<title>blocks</title>
<g id="a_node2"><a xlink:href="../../tables/blocks.html" xlink:title="blocks" target="_top">
<polygon fill="#ffffff" stroke="none" points="8,-37 8,-271 133,-271 133,-37 8,-37"/>
<polygon fill="#f5f5f5" stroke="none" points="8,-249 8,-271 133,-271 133,-249 8,-249"/>
<polygon fill="none" stroke="black" points="8,-249 8,-271 133,-271 133,-249 8,-249"/>
<text text-anchor="start" x="12.75" y="-256.55" font-family="Helvetica,sans-Serif" font-weight="bold" font-size="11.00">blocks</text>
<text text-anchor="start" x="98.75" y="-255.55" font-family="Helvetica,sans-Serif" font-size="11.00">[table]</text>
<polygon fill="#ffffff" stroke="none" points="8,-227 8,-249 133,-249 133,-227 8,-227"/>
<polygon fill="none" stroke="black" points="8,-227 8,-249 133,-249 133,-227 8,-227"/>
<text text-anchor="start" x="28" y="-233.55" font-family="Helvetica,sans-Serif" font-size="11.00">consensus</text>
<polygon fill="none" stroke="black" points="8,-205 8,-227 133,-227 133,-205 8,-205"/>
<image xlink:href="../../images/primaryKeys.png" width="11px" height="12px" preserveAspectRatio="xMinYMin meet" x="13" y="-222"/>
<text text-anchor="start" x="28" y="-211.55" font-family="Helvetica,sans-Serif" font-size="11.00">hash</text>
<polygon fill="#ffffff" stroke="none" points="8,-183 8,-205 133,-205 133,-183 8,-183"/>
<polygon fill="none" stroke="black" points="8,-183 8,-205 133,-205 133,-183 8,-183"/>
<text text-anchor="start" x="28" y="-189.55" font-family="Helvetica,sans-Serif" font-size="11.00">miner_hash</text>
<polygon fill="#ffffff" stroke="none" points="8,-161 8,-183 133,-183 133,-161 8,-161"/>
<polygon fill="none" stroke="black" points="8,-161 8,-183 133,-183 133,-161 8,-161"/>
<text text-anchor="start" x="28" y="-167.55" font-family="Helvetica,sans-Serif" font-size="11.00">number</text>
<polygon fill="#ffffff" stroke="none" points="8,-139 8,-161 133,-161 133,-139 8,-139"/>
<polygon fill="none" stroke="black" points="8,-139 8,-161 133,-161 133,-139 8,-139"/>
<text text-anchor="start" x="28" y="-145.55" font-family="Helvetica,sans-Serif" font-size="11.00">parent_hash</text>
<polygon fill="#ffffff" stroke="none" points="8,-117 8,-139 133,-139 133,-117 8,-117"/>
<polygon fill="none" stroke="black" points="8,-117 8,-139 133,-139 133,-117 8,-117"/>
<text text-anchor="start" x="28" y="-123.55" font-family="Helvetica,sans-Serif" font-size="11.00">timestamp</text>
<polygon fill="#ffffff" stroke="none" points="8,-95 8,-117 133,-117 133,-95 8,-95"/>
<polygon fill="none" stroke="black" points="8,-95 8,-117 133,-117 133,-95 8,-95"/>
<text text-anchor="start" x="28" y="-101.55" font-family="Helvetica,sans-Serif" font-size="11.00">inserted_at</text>
<polygon fill="#ffffff" stroke="none" points="8,-73 8,-95 133,-95 133,-73 8,-73"/>
<polygon fill="none" stroke="black" points="8,-73 8,-95 133,-95 133,-73 8,-73"/>
<text text-anchor="start" x="28" y="-79.55" font-family="Helvetica,sans-Serif" font-size="11.00">is_empty</text>
<polygon fill="none" stroke="black" points="8,-55 8,-73 133,-73 133,-55 8,-55"/>
<text text-anchor="start" x="11" y="-59.55" font-family="Helvetica,sans-Serif" font-size="11.00">...</text>
<polygon fill="#ffffff" stroke="none" points="8,-37 8,-55 60,-55 60,-37 8,-37"/>
<polygon fill="none" stroke="black" points="8,-37 8,-55 60,-55 60,-37 8,-37"/>
<text text-anchor="start" x="11" y="-41.55" font-family="Helvetica,sans-Serif" font-size="11.00"> &#160;</text>
<polygon fill="#ffffff" stroke="none" points="60,-37 60,-55 92,-55 92,-37 60,-37"/>
<polygon fill="none" stroke="black" points="60,-37 60,-55 92,-55 92,-37 60,-37"/>
<text text-anchor="start" x="83" y="-41.55" font-family="Helvetica,sans-Serif" font-size="11.00"> &#160;</text>
<polygon fill="#ffffff" stroke="none" points="92,-37 92,-55 133,-55 133,-37 92,-37"/>
<polygon fill="none" stroke="black" points="92,-37 92,-55 133,-55 133,-37 92,-37"/>
<text text-anchor="start" x="114.25" y="-41.55" font-family="Helvetica,sans-Serif" font-size="11.00">9 &gt;</text>
</a>
</g>
</g>
<!-- block_second_degree_relations&#45;&gt;blocks -->
<g id="edge1" class="edge">
<title>block_second_degree_relations:w&#45;&gt;blocks:e</title>
<path fill="none" stroke="black" d="M166.89,-216C156.59,-216 149.5,-216 134.5,-216"/>
<polygon fill="black" stroke="black" points="174.17,-216 182.17,-219.6 178.5,-216 181.83,-216 181.83,-216 181.83,-216 178.5,-216 182.17,-212.4 174.17,-216"/>
<ellipse fill="none" stroke="black" cx="169.25" cy="-216" rx="3.2" ry="3.2"/>
</g>
</g>
</svg>
