<?xml version="1.0" encoding="UTF-8" standalone="no"?>
<!DOCTYPE svg PUBLIC "-//W3C//DTD SVG 1.1//EN"
 "http://www.w3.org/Graphics/SVG/1.1/DTD/svg11.dtd">
<!-- Generated by graphviz version 2.43.0 (0)
 -->
<!-- Title: oneDegreeRelationshipsDiagramImplied Pages: 1 -->
<svg width="772pt" height="317pt"
 viewBox="0.00 0.00 772.00 317.00" xmlns="http://www.w3.org/2000/svg" xmlns:xlink="http://www.w3.org/1999/xlink">
<g id="graph0" class="graph" transform="scale(1 1) rotate(0) translate(4 313)">
<title>oneDegreeRelationshipsDiagramImplied</title>
<polygon fill="#ffffff" stroke="transparent" points="-4,4 -4,-313 768,-313 768,4 -4,4"/>
<text text-anchor="middle" x="79.5" y="-7.2" font-family="Helvetica,sans-Serif" font-size="11.00">Generated by SchemaSpy</text>
<!-- block_second_degree_relations -->
<g id="node1" class="node">
<title>block_second_degree_relations</title>
<g id="a_node1"><a xlink:href="../../tables/block_second_degree_relations.html" xlink:title="block_second_degree_relations" target="_top">
<polygon fill="#ffffff" stroke="transparent" points="390,-173 390,-305 756,-305 756,-173 390,-173"/>
<polygon fill="#f5f5f5" stroke="transparent" points="392,-281 392,-303 754,-303 754,-281 392,-281"/>
<polygon fill="none" stroke="black" points="392,-281 392,-303 754,-303 754,-281 392,-281"/>
<text text-anchor="start" x="397" y="-290.2" font-family="Helvetica,sans-Serif" font-weight="bold" font-size="11.00">block_second_degree_relations</text>
<text text-anchor="start" x="712" y="-289.2" font-family="Helvetica,sans-Serif" font-size="11.00">[table]</text>
<polygon fill="none" stroke="black" points="392,-259 392,-281 639,-281 639,-259 392,-259"/>
<image xlink:href="../../images/primaryKeys.png" width="11px" height="12px" preserveAspectRatio="xMinYMin meet" x="397" y="-276"/>
<text text-anchor="start" x="412" y="-267.2" font-family="Helvetica,sans-Serif" font-size="11.00">nephew_hash</text>
<polygon fill="none" stroke="black" points="639,-259 639,-281 754,-281 754,-259 639,-259"/>
<text text-anchor="start" x="642" y="-267.2" font-family="Helvetica,sans-Serif" font-size="11.00">bytea[2147483647]</text>
<polygon fill="none" stroke="black" points="392,-237 392,-259 639,-259 639,-237 392,-237"/>
<image xlink:href="../../images/primaryKeys.png" width="11px" height="12px" preserveAspectRatio="xMinYMin meet" x="397" y="-254"/>
<text text-anchor="start" x="412" y="-245.2" font-family="Helvetica,sans-Serif" font-size="11.00">uncle_hash</text>
<polygon fill="none" stroke="black" points="639,-237 639,-259 754,-259 754,-237 639,-237"/>
<text text-anchor="start" x="642" y="-245.2" font-family="Helvetica,sans-Serif" font-size="11.00">bytea[2147483647]</text>
<polygon fill="none" stroke="black" points="392,-215 392,-237 639,-237 639,-215 392,-215"/>
<text text-anchor="start" x="412" y="-223.2" font-family="Helvetica,sans-Serif" font-size="11.00">uncle_fetched_at</text>
<polygon fill="none" stroke="black" points="639,-215 639,-237 754,-237 754,-215 639,-215"/>
<text text-anchor="start" x="642" y="-223.2" font-family="Helvetica,sans-Serif" font-size="11.00">timestamp[29,6]</text>
<polygon fill="none" stroke="black" points="392,-193 392,-215 639,-215 639,-193 392,-193"/>
<image xlink:href="../../images/foreignKeys.png" width="11px" height="12px" preserveAspectRatio="xMinYMin meet" x="397" y="-210"/>
<text text-anchor="start" x="412" y="-201.2" font-family="Helvetica,sans-Serif" font-size="11.00">index</text>
<polygon fill="none" stroke="black" points="639,-193 639,-215 754,-215 754,-193 639,-193"/>
<text text-anchor="start" x="642" y="-201.2" font-family="Helvetica,sans-Serif" font-size="11.00">int4[10]</text>
<polygon fill="#ffffff" stroke="transparent" points="392,-175 392,-193 754,-193 754,-175 392,-175"/>
<polygon fill="none" stroke="black" points="392,-175 392,-193 754,-193 754,-175 392,-175"/>
<polygon fill="#ffffff" stroke="transparent" points="393,-176 393,-192 517,-192 517,-176 393,-176"/>
<text text-anchor="start" x="395" y="-181.2" font-family="Helvetica,sans-Serif" font-size="11.00">&lt; 2</text>
<polygon fill="#ffffff" stroke="transparent" points="517,-176 517,-192 629,-192 629,-176 517,-176"/>
<text text-anchor="start" x="569" y="-181.2" font-family="Helvetica,sans-Serif" font-size="11.00"> &#160;</text>
<polygon fill="#ffffff" stroke="transparent" points="629,-176 629,-192 753,-192 753,-176 629,-176"/>
<text text-anchor="start" x="731" y="-181.2" font-family="Helvetica,sans-Serif" font-size="11.00">0 &gt;</text>
<polygon fill="black" stroke="black" points="517,-176 517,-192 517,-192 517,-176 517,-176"/>
<polygon fill="black" stroke="black" points="629,-176 629,-192 629,-192 629,-176 629,-176"/>
<polygon fill="none" stroke="black" stroke-width="2" points="391,-174 391,-304 755,-304 755,-174 391,-174"/>
</a>
</g>
</g>
<!-- withdrawals -->
<g id="node2" class="node">
<title>withdrawals</title>
<g id="a_node2"><a xlink:href="../../tables/withdrawals.html" xlink:title="withdrawals" target="_top">
<polygon fill="#ffffff" stroke="transparent" points="205,-116 205,-240 341,-240 341,-116 205,-116"/>
<polygon fill="#f5f5f5" stroke="transparent" points="205,-218 205,-240 341,-240 341,-218 205,-218"/>
<polygon fill="none" stroke="black" points="205,-218 205,-240 341,-240 341,-218 205,-218"/>
<text text-anchor="start" x="210" y="-227.2" font-family="Helvetica,sans-Serif" font-weight="bold" font-size="11.00">withdrawals</text>
<text text-anchor="start" x="299" y="-226.2" font-family="Helvetica,sans-Serif" font-size="11.00">[table]</text>
<polygon fill="none" stroke="black" points="205,-196 205,-218 341,-218 341,-196 205,-196"/>
<image xlink:href="../../images/primaryKeys.png" width="11px" height="12px" preserveAspectRatio="xMinYMin meet" x="210" y="-213"/>
<text text-anchor="start" x="227" y="-204.2" font-family="Helvetica,sans-Serif" font-size="11.00">index</text>
<polygon fill="#ffffff" stroke="transparent" points="205,-174 205,-196 341,-196 341,-174 205,-174"/>
<polygon fill="none" stroke="black" points="205,-174 205,-196 341,-196 341,-174 205,-174"/>
<text text-anchor="start" x="227" y="-182.2" font-family="Helvetica,sans-Serif" font-size="11.00">address_hash</text>
<polygon fill="#ffffff" stroke="transparent" points="205,-152 205,-174 341,-174 341,-152 205,-152"/>
<polygon fill="none" stroke="black" points="205,-152 205,-174 341,-174 341,-152 205,-152"/>
<image xlink:href="../../images/foreignKeys.png" width="11px" height="12px" preserveAspectRatio="xMinYMin meet" x="210" y="-169"/>
<text text-anchor="start" x="227" y="-160.2" font-family="Helvetica,sans-Serif" font-size="11.00">block_hash</text>
<polygon fill="none" stroke="black" points="205,-134 205,-152 341,-152 341,-134 205,-134"/>
<text text-anchor="start" x="208" y="-140.2" font-family="Helvetica,sans-Serif" font-size="11.00">...</text>
<polygon fill="#ffffff" stroke="transparent" points="205,-116 205,-134 341,-134 341,-116 205,-116"/>
<polygon fill="none" stroke="black" points="205,-116 205,-134 341,-134 341,-116 205,-116"/>
<polygon fill="#ffffff" stroke="transparent" points="206,-117 206,-133 255,-133 255,-117 206,-117"/>
<text text-anchor="start" x="208" y="-122.2" font-family="Helvetica,sans-Serif" font-size="11.00">&lt; 1</text>
<polygon fill="#ffffff" stroke="transparent" points="255,-117 255,-133 292,-133 292,-117 255,-117"/>
<text text-anchor="start" x="269.5" y="-122.2" font-family="Helvetica,sans-Serif" font-size="11.00"> &#160;</text>
<polygon fill="#ffffff" stroke="transparent" points="292,-117 292,-133 340,-133 340,-117 292,-117"/>
<text text-anchor="start" x="318" y="-122.2" font-family="Helvetica,sans-Serif" font-size="11.00">5 &gt;</text>
<polygon fill="black" stroke="black" points="255,-117 255,-133 255,-133 255,-117 255,-117"/>
<polygon fill="black" stroke="black" points="292,-117 292,-133 292,-133 292,-117 292,-117"/>
</a>
</g>
</g>
<!-- block_second_degree_relations&#45;&gt;withdrawals -->
<g id="edge1" class="edge">
<title>block_second_degree_relations:w&#45;&gt;withdrawals:e</title>
<path fill="none" stroke="black" stroke-dasharray="5,2" d="M376.48,-204.52C365.17,-205.38 358.02,-207 342,-207"/>
<polygon fill="black" stroke="black" points="383.01,-204.29 391.13,-207.6 387,-204.14 391,-204 391,-204 391,-204 387,-204.14 390.87,-200.4 383.01,-204.29 383.01,-204.29"/>
<ellipse fill="none" stroke="black" cx="379.81" cy="-204.4" rx="3.2" ry="3.2"/>
</g>
<!-- blocks -->
<g id="node3" class="node">
<title>blocks</title>
<g id="a_node3"><a xlink:href="../../tables/blocks.html" xlink:title="blocks" target="_top">
<polygon fill="#ffffff" stroke="transparent" points="8,-37 8,-271 156,-271 156,-37 8,-37"/>
<polygon fill="#f5f5f5" stroke="transparent" points="8,-249 8,-271 156,-271 156,-249 8,-249"/>
<polygon fill="none" stroke="black" points="8,-249 8,-271 156,-271 156,-249 8,-249"/>
<text text-anchor="start" x="13" y="-258.2" font-family="Helvetica,sans-Serif" font-weight="bold" font-size="11.00">blocks</text>
<text text-anchor="start" x="114" y="-257.2" font-family="Helvetica,sans-Serif" font-size="11.00">[table]</text>
<polygon fill="#ffffff" stroke="transparent" points="8,-227 8,-249 156,-249 156,-227 8,-227"/>
<polygon fill="none" stroke="black" points="8,-227 8,-249 156,-249 156,-227 8,-227"/>
<text text-anchor="start" x="28" y="-235.2" font-family="Helvetica,sans-Serif" font-size="11.00">consensus</text>
<polygon fill="none" stroke="black" points="8,-205 8,-227 156,-227 156,-205 8,-205"/>
<image xlink:href="../../images/primaryKeys.png" width="11px" height="12px" preserveAspectRatio="xMinYMin meet" x="13" y="-222"/>
<text text-anchor="start" x="28" y="-213.2" font-family="Helvetica,sans-Serif" font-size="11.00">hash</text>
<polygon fill="#ffffff" stroke="transparent" points="8,-183 8,-205 156,-205 156,-183 8,-183"/>
<polygon fill="none" stroke="black" points="8,-183 8,-205 156,-205 156,-183 8,-183"/>
<text text-anchor="start" x="28" y="-191.2" font-family="Helvetica,sans-Serif" font-size="11.00">miner_hash</text>
<polygon fill="#ffffff" stroke="transparent" points="8,-161 8,-183 156,-183 156,-161 8,-161"/>
<polygon fill="none" stroke="black" points="8,-161 8,-183 156,-183 156,-161 8,-161"/>
<image xlink:href="../../images/foreignKeys.png" width="11px" height="12px" preserveAspectRatio="xMinYMin meet" x="13" y="-178"/>
<text text-anchor="start" x="28" y="-169.2" font-family="Helvetica,sans-Serif" font-size="11.00">number</text>
<polygon fill="#ffffff" stroke="transparent" points="8,-139 8,-161 156,-161 156,-139 8,-139"/>
<polygon fill="none" stroke="black" points="8,-139 8,-161 156,-161 156,-139 8,-139"/>
<text text-anchor="start" x="28" y="-147.2" font-family="Helvetica,sans-Serif" font-size="11.00">parent_hash</text>
<polygon fill="#ffffff" stroke="transparent" points="8,-117 8,-139 156,-139 156,-117 8,-117"/>
<polygon fill="none" stroke="black" points="8,-117 8,-139 156,-139 156,-117 8,-117"/>
<text text-anchor="start" x="28" y="-125.2" font-family="Helvetica,sans-Serif" font-size="11.00">timestamp</text>
<polygon fill="#ffffff" stroke="transparent" points="8,-95 8,-117 156,-117 156,-95 8,-95"/>
<polygon fill="none" stroke="black" points="8,-95 8,-117 156,-117 156,-95 8,-95"/>
<text text-anchor="start" x="28" y="-103.2" font-family="Helvetica,sans-Serif" font-size="11.00">inserted_at</text>
<polygon fill="#ffffff" stroke="transparent" points="8,-73 8,-95 156,-95 156,-73 8,-73"/>
<polygon fill="none" stroke="black" points="8,-73 8,-95 156,-95 156,-73 8,-73"/>
<text text-anchor="start" x="28" y="-81.2" font-family="Helvetica,sans-Serif" font-size="11.00">is_empty</text>
<polygon fill="none" stroke="black" points="8,-55 8,-73 156,-73 156,-55 8,-55"/>
<text text-anchor="start" x="11" y="-61.2" font-family="Helvetica,sans-Serif" font-size="11.00">...</text>
<polygon fill="#ffffff" stroke="transparent" points="8,-37 8,-55 156,-55 156,-37 8,-37"/>
<polygon fill="none" stroke="black" points="8,-37 8,-55 156,-55 156,-37 8,-37"/>
<polygon fill="#ffffff" stroke="transparent" points="9,-38 9,-54 54,-54 54,-38 9,-38"/>
<text text-anchor="start" x="11" y="-43.2" font-family="Helvetica,sans-Serif" font-size="11.00"> &#160;</text>
<polygon fill="#ffffff" stroke="transparent" points="54,-38 54,-54 99,-54 99,-38 54,-38"/>
<text text-anchor="start" x="72.5" y="-43.2" font-family="Helvetica,sans-Serif" font-size="11.00"> &#160;</text>
<polygon fill="#ffffff" stroke="transparent" points="99,-38 99,-54 155,-54 155,-38 99,-38"/>
<text text-anchor="start" x="133" y="-43.2" font-family="Helvetica,sans-Serif" font-size="11.00">9 &gt;</text>
<polygon fill="black" stroke="black" points="54,-38 54,-54 54,-54 54,-38 54,-38"/>
<polygon fill="black" stroke="black" points="99,-38 99,-54 99,-54 99,-38 99,-38"/>
</a>
</g>
</g>
<!-- block_second_degree_relations&#45;&gt;blocks -->
<g id="edge2" class="edge">
<title>block_second_degree_relations:w&#45;&gt;blocks:e</title>
<path fill="none" stroke="black" d="M376.35,-270.15C300.92,-271.63 271.86,-283.38 197,-251 175.32,-241.62 180.62,-216 157,-216"/>
<polygon fill="black" stroke="black" points="383,-270.08 391.04,-273.6 387,-270.04 391,-270 391,-270 391,-270 387,-270.04 390.96,-266.4 383,-270.08 383,-270.08"/>
<ellipse fill="none" stroke="black" cx="379.8" cy="-270.11" rx="3.2" ry="3.2"/>
</g>
<!-- withdrawals&#45;&gt;blocks -->
<g id="edge3" class="edge">
<title>withdrawals:w&#45;&gt;blocks:e</title>
<path fill="none" stroke="black" d="M190.28,-168.28C176.94,-181.68 182.33,-216 157,-216"/>
<polygon fill="black" stroke="black" points="196.53,-165.87 205.29,-166.36 200.27,-164.44 204,-163 204,-163 204,-163 200.27,-164.44 202.71,-159.64 196.53,-165.87 196.53,-165.87"/>
<ellipse fill="none" stroke="black" cx="193.55" cy="-167.02" rx="3.2" ry="3.2"/>
</g>
</g>
</svg>
