<?xml version="1.0" encoding="UTF-8" standalone="no"?>
<!DOCTYPE svg PUBLIC "-//W3C//DTD SVG 1.1//EN"
 "http://www.w3.org/Graphics/SVG/1.1/DTD/svg11.dtd">
<!-- Generated by graphviz version 2.38.0 (20140413.2041)
 -->
<!-- Title: twoDegreesRelationshipsDiagram Pages: 1 -->
<svg width="887pt" height="683pt"
 viewBox="0.00 0.00 887.00 683.00" xmlns="http://www.w3.org/2000/svg" xmlns:xlink="http://www.w3.org/1999/xlink">
<g id="graph0" class="graph" transform="scale(1 1) rotate(0) translate(4 679)">
<title>twoDegreesRelationshipsDiagram</title>
<polygon fill="#ffffff" stroke="none" points="-4,4 -4,-679 883,-679 883,4 -4,4"/>
<text text-anchor="middle" x="74.5" y="-7.2" font-family="Helvetica,sans-Serif" font-size="11.00">Generated by SchemaSpy</text>
<!-- block_rewards -->
<g id="node1" class="node"><title>block_rewards</title>
<g id="a_node1"><a xlink:href="../../tables/block_rewards.html" xlink:title="block_rewards" target="_top">
<polygon fill="#ffffff" stroke="none" points="427,-519 427,-577 557,-577 557,-519 427,-519"/>
<polygon fill="#f5f5f5" stroke="none" points="427,-555 427,-577 557,-577 557,-555 427,-555"/>
<polygon fill="none" stroke="black" points="427,-555 427,-577 557,-577 557,-555 427,-555"/>
<text text-anchor="start" x="432" y="-564.2" font-family="Helvetica,sans-Serif" font-weight="bold" font-size="11.00">block_rewards</text>
<text text-anchor="start" x="518" y="-563.2" font-family="Helvetica,sans-Serif" font-size="11.00">[table]</text>
<polygon fill="none" stroke="black" points="427,-537 427,-555 557,-555 557,-537 427,-537"/>
<text text-anchor="start" x="430" y="-543.2" font-family="Helvetica,sans-Serif" font-size="11.00">...</text>
<polygon fill="#ffffff" stroke="none" points="427,-519 427,-537 476,-537 476,-519 427,-519"/>
<polygon fill="none" stroke="black" points="427,-519 427,-537 476,-537 476,-519 427,-519"/>
<text text-anchor="start" x="430" y="-525.2" font-family="Helvetica,sans-Serif" font-size="11.00">&lt; 2</text>
<polygon fill="#ffffff" stroke="none" points="476,-519 476,-537 531,-537 531,-519 476,-519"/>
<polygon fill="none" stroke="black" points="476,-519 476,-537 531,-537 531,-519 476,-519"/>
<text text-anchor="start" x="492" y="-525.2" font-family="Helvetica,sans-Serif" font-size="11.00">0 rows</text>
<polygon fill="#ffffff" stroke="none" points="531,-519 531,-537 557,-537 557,-519 531,-519"/>
<polygon fill="none" stroke="black" points="531,-519 531,-537 557,-537 557,-519 531,-519"/>
<text text-anchor="start" x="547" y="-525.2" font-family="Helvetica,sans-Serif" font-size="11.00"> &#160;</text>
</a>
</g>
</g>
<!-- addresses -->
<g id="node2" class="node"><title>addresses</title>
<g id="a_node2"><a xlink:href="../../tables/addresses.html" xlink:title="addresses" target="_top">
<polygon fill="#ffffff" stroke="none" points="8,-223 8,-281 113,-281 113,-223 8,-223"/>
<polygon fill="#f5f5f5" stroke="none" points="8.5,-259 8.5,-281 113.5,-281 113.5,-259 8.5,-259"/>
<polygon fill="none" stroke="black" points="8.5,-259 8.5,-281 113.5,-281 113.5,-259 8.5,-259"/>
<text text-anchor="start" x="13.5" y="-268.2" font-family="Helvetica,sans-Serif" font-weight="bold" font-size="11.00">addresses</text>
<text text-anchor="start" x="74.5" y="-267.2" font-family="Helvetica,sans-Serif" font-size="11.00">[table]</text>
<polygon fill="none" stroke="black" points="8.5,-241 8.5,-259 113.5,-259 113.5,-241 8.5,-241"/>
<text text-anchor="start" x="11.5" y="-247.2" font-family="Helvetica,sans-Serif" font-size="11.00">...</text>
<polygon fill="#ffffff" stroke="none" points="8.5,-223 8.5,-241 31.5,-241 31.5,-223 8.5,-223"/>
<polygon fill="none" stroke="black" points="8.5,-223 8.5,-241 31.5,-241 31.5,-223 8.5,-223"/>
<text text-anchor="start" x="11.5" y="-229.2" font-family="Helvetica,sans-Serif" font-size="11.00"> &#160;</text>
<polygon fill="#ffffff" stroke="none" points="31.5,-223 31.5,-241 78.5,-241 78.5,-223 31.5,-223"/>
<polygon fill="none" stroke="black" points="31.5,-223 31.5,-241 78.5,-241 78.5,-223 31.5,-223"/>
<text text-anchor="start" x="39.5" y="-229.2" font-family="Helvetica,sans-Serif" font-size="11.00">2 rows</text>
<polygon fill="#ffffff" stroke="none" points="78.5,-223 78.5,-241 113.5,-241 113.5,-223 78.5,-223"/>
<polygon fill="none" stroke="black" points="78.5,-223 78.5,-241 113.5,-241 113.5,-223 78.5,-223"/>
<text text-anchor="start" x="86.5" y="-229.2" font-family="Helvetica,sans-Serif" font-size="11.00">19 &gt;</text>
</a>
</g>
</g>
<!-- block_rewards&#45;&gt;addresses -->
<g id="edge1" class="edge"><title>block_rewards:elipses:w&#45;&gt;addresses:elipses:e</title>
<path fill="none" stroke="black" d="M411.486,-543.892C353.218,-531.254 179.147,-465.081 154,-435 100.075,-370.496 198.576,-250 114.5,-250"/>
<polygon fill="black" stroke="black" points="418.083,-544.85 425.482,-549.563 422.042,-545.425 426,-546 426,-546 426,-546 422.042,-545.425 426.518,-542.437 418.083,-544.85 418.083,-544.85"/>
<ellipse fill="none" stroke="black" cx="414.916" cy="-544.39" rx="3.2" ry="3.2"/>
</g>
<!-- blocks -->
<g id="node3" class="node"><title>blocks</title>
<g id="a_node3"><a xlink:href="../../tables/blocks.html" xlink:title="blocks" target="_top">
<polygon fill="#ffffff" stroke="none" points="162,-190 162,-424 284,-424 284,-190 162,-190"/>
<polygon fill="#f5f5f5" stroke="none" points="162,-402 162,-424 284,-424 284,-402 162,-402"/>
<polygon fill="none" stroke="black" points="162,-402 162,-424 284,-424 284,-402 162,-402"/>
<text text-anchor="start" x="167" y="-411.2" font-family="Helvetica,sans-Serif" font-weight="bold" font-size="11.00">blocks</text>
<text text-anchor="start" x="245" y="-410.2" font-family="Helvetica,sans-Serif" font-size="11.00">[table]</text>
<polygon fill="#ffffff" stroke="none" points="162,-380 162,-402 284,-402 284,-380 162,-380"/>
<polygon fill="none" stroke="black" points="162,-380 162,-402 284,-402 284,-380 162,-380"/>
<text text-anchor="start" x="182" y="-388.2" font-family="Helvetica,sans-Serif" font-size="11.00">consensus</text>
<polygon fill="none" stroke="black" points="162,-358 162,-380 284,-380 284,-358 162,-358"/>
<image xlink:href="../../images/primaryKeys.png" width="11px" height="12px" preserveAspectRatio="xMinYMin meet" x="167" y="-375"/>
<text text-anchor="start" x="182" y="-366.2" font-family="Helvetica,sans-Serif" font-size="11.00">hash</text>
<polygon fill="#ffffff" stroke="none" points="162,-336 162,-358 284,-358 284,-336 162,-336"/>
<polygon fill="none" stroke="black" points="162,-336 162,-358 284,-358 284,-336 162,-336"/>
<image xlink:href="../../images/foreignKeys.png" width="11px" height="12px" preserveAspectRatio="xMinYMin meet" x="167" y="-353"/>
<text text-anchor="start" x="182" y="-344.2" font-family="Helvetica,sans-Serif" font-size="11.00">miner_hash</text>
<polygon fill="#ffffff" stroke="none" points="162,-314 162,-336 284,-336 284,-314 162,-314"/>
<polygon fill="none" stroke="black" points="162,-314 162,-336 284,-336 284,-314 162,-314"/>
<text text-anchor="start" x="182" y="-322.2" font-family="Helvetica,sans-Serif" font-size="11.00">number</text>
<polygon fill="#ffffff" stroke="none" points="162,-292 162,-314 284,-314 284,-292 162,-292"/>
<polygon fill="none" stroke="black" points="162,-292 162,-314 284,-314 284,-292 162,-292"/>
<text text-anchor="start" x="182" y="-300.2" font-family="Helvetica,sans-Serif" font-size="11.00">parent_hash</text>
<polygon fill="#ffffff" stroke="none" points="162,-270 162,-292 284,-292 284,-270 162,-270"/>
<polygon fill="none" stroke="black" points="162,-270 162,-292 284,-292 284,-270 162,-270"/>
<text text-anchor="start" x="182" y="-278.2" font-family="Helvetica,sans-Serif" font-size="11.00">timestamp</text>
<polygon fill="#ffffff" stroke="none" points="162,-248 162,-270 284,-270 284,-248 162,-248"/>
<polygon fill="none" stroke="black" points="162,-248 162,-270 284,-270 284,-248 162,-248"/>
<text text-anchor="start" x="182" y="-256.2" font-family="Helvetica,sans-Serif" font-size="11.00">inserted_at</text>
<polygon fill="#ffffff" stroke="none" points="162,-226 162,-248 284,-248 284,-226 162,-226"/>
<polygon fill="none" stroke="black" points="162,-226 162,-248 284,-248 284,-226 162,-226"/>
<text text-anchor="start" x="182" y="-234.2" font-family="Helvetica,sans-Serif" font-size="11.00">is_empty</text>
<polygon fill="none" stroke="black" points="162,-208 162,-226 284,-226 284,-208 162,-208"/>
<text text-anchor="start" x="165" y="-214.2" font-family="Helvetica,sans-Serif" font-size="11.00">...</text>
<polygon fill="#ffffff" stroke="none" points="162,-190 162,-208 202,-208 202,-190 162,-190"/>
<polygon fill="none" stroke="black" points="162,-190 162,-208 202,-208 202,-190 162,-190"/>
<text text-anchor="start" x="165" y="-196.2" font-family="Helvetica,sans-Serif" font-size="11.00">&lt; 1</text>
<polygon fill="#ffffff" stroke="none" points="202,-190 202,-208 252,-208 252,-190 202,-190"/>
<polygon fill="none" stroke="black" points="202,-190 202,-208 252,-208 252,-190 202,-190"/>
<text text-anchor="start" x="213" y="-196.2" font-family="Helvetica,sans-Serif" font-size="11.00">3 rows</text>
<polygon fill="#ffffff" stroke="none" points="252,-190 252,-208 284,-208 284,-190 252,-190"/>
<polygon fill="none" stroke="black" points="252,-190 252,-208 284,-208 284,-190 252,-190"/>
<text text-anchor="start" x="264" y="-196.2" font-family="Helvetica,sans-Serif" font-size="11.00">8 &gt;</text>
</a>
</g>
</g>
<!-- block_rewards&#45;&gt;blocks -->
<g id="edge2" class="edge"><title>block_rewards:elipses:w&#45;&gt;blocks:hash:e</title>
<path fill="none" stroke="black" d="M411.571,-545.8C373.187,-544.585 354.081,-537.131 325,-505 282.721,-458.287 348.005,-369 285,-369"/>
<polygon fill="black" stroke="black" points="418.001,-545.889 425.95,-549.6 422,-545.945 426,-546 426,-546 426,-546 422,-545.945 426.05,-542.4 418.001,-545.889 418.001,-545.889"/>
<ellipse fill="none" stroke="black" cx="414.801" cy="-545.845" rx="3.2" ry="3.2"/>
</g>
<!-- blocks&#45;&gt;addresses -->
<g id="edge4" class="edge"><title>blocks:miner_hash:w&#45;&gt;addresses:elipses:e</title>
<path fill="none" stroke="black" d="M146.928,-342.58C124.244,-323.604 156.146,-250 114.5,-250"/>
<polygon fill="black" stroke="black" points="153.368,-344.603 159.921,-350.435 157.184,-345.801 161,-347 161,-347 161,-347 157.184,-345.801 162.079,-343.565 153.368,-344.603 153.368,-344.603"/>
<ellipse fill="none" stroke="black" cx="150.315" cy="-343.644" rx="3.20001" ry="3.20001"/>
</g>
<!-- block_second_degree_relations -->
<g id="node4" class="node"><title>block_second_degree_relations</title>
<g id="a_node4"><a xlink:href="../../tables/block_second_degree_relations.html" xlink:title="block_second_degree_relations" target="_top">
<polygon fill="#ffffff" stroke="none" points="333,-339 333,-471 651,-471 651,-339 333,-339"/>
<polygon fill="#f5f5f5" stroke="none" points="335,-447 335,-469 649,-469 649,-447 335,-447"/>
<polygon fill="none" stroke="black" points="335,-447 335,-469 649,-469 649,-447 335,-447"/>
<text text-anchor="start" x="340" y="-456.2" font-family="Helvetica,sans-Serif" font-weight="bold" font-size="11.00">block_second_degree_relations</text>
<text text-anchor="start" x="610" y="-455.2" font-family="Helvetica,sans-Serif" font-size="11.00">[table]</text>
<polygon fill="none" stroke="black" points="335,-425 335,-447 539,-447 539,-425 335,-425"/>
<image xlink:href="../../images/primaryKeys.png" width="11px" height="12px" preserveAspectRatio="xMinYMin meet" x="340" y="-442"/>
<text text-anchor="start" x="355" y="-433.2" font-family="Helvetica,sans-Serif" font-size="11.00">nephew_hash</text>
<polygon fill="none" stroke="black" points="539,-425 539,-447 649,-447 649,-425 539,-425"/>
<text text-anchor="start" x="542" y="-433.2" font-family="Helvetica,sans-Serif" font-size="11.00">bytea[2147483647]</text>
<polygon fill="none" stroke="black" points="335,-403 335,-425 539,-425 539,-403 335,-403"/>
<image xlink:href="../../images/primaryKeys.png" width="11px" height="12px" preserveAspectRatio="xMinYMin meet" x="340" y="-420"/>
<text text-anchor="start" x="355" y="-411.2" font-family="Helvetica,sans-Serif" font-size="11.00">uncle_hash</text>
<polygon fill="none" stroke="black" points="539,-403 539,-425 649,-425 649,-403 539,-403"/>
<text text-anchor="start" x="542" y="-411.2" font-family="Helvetica,sans-Serif" font-size="11.00">bytea[2147483647]</text>
<polygon fill="none" stroke="black" points="335,-381 335,-403 539,-403 539,-381 335,-381"/>
<text text-anchor="start" x="355" y="-389.2" font-family="Helvetica,sans-Serif" font-size="11.00">uncle_fetched_at</text>
<polygon fill="none" stroke="black" points="539,-381 539,-403 649,-403 649,-381 539,-381"/>
<text text-anchor="start" x="542" y="-389.2" font-family="Helvetica,sans-Serif" font-size="11.00">timestamp[29,6]</text>
<polygon fill="none" stroke="black" points="335,-359 335,-381 539,-381 539,-359 335,-359"/>
<text text-anchor="start" x="355" y="-367.2" font-family="Helvetica,sans-Serif" font-size="11.00">index</text>
<polygon fill="none" stroke="black" points="539,-359 539,-381 649,-381 649,-359 539,-359"/>
<text text-anchor="start" x="542" y="-367.2" font-family="Helvetica,sans-Serif" font-size="11.00">int4[10]</text>
<polygon fill="#ffffff" stroke="none" points="335,-341 335,-359 427,-359 427,-341 335,-341"/>
<polygon fill="none" stroke="black" points="335,-341 335,-359 427,-359 427,-341 335,-341"/>
<text text-anchor="start" x="338" y="-347.2" font-family="Helvetica,sans-Serif" font-size="11.00">&lt; 1</text>
<polygon fill="#ffffff" stroke="none" points="427,-341 427,-359 539,-359 539,-341 427,-341"/>
<polygon fill="none" stroke="black" points="427,-341 427,-359 539,-359 539,-341 427,-341"/>
<text text-anchor="start" x="500" y="-347.2" font-family="Helvetica,sans-Serif" font-size="11.00">0 rows</text>
<polygon fill="#ffffff" stroke="none" points="539,-341 539,-359 649,-359 649,-341 539,-341"/>
<polygon fill="none" stroke="black" points="539,-341 539,-359 649,-359 649,-341 539,-341"/>
<text text-anchor="start" x="629" y="-347.2" font-family="Helvetica,sans-Serif" font-size="11.00">0 &gt;</text>
<polygon fill="none" stroke="black" stroke-width="2" points="334,-340 334,-470 650,-470 650,-340 334,-340"/>
</a>
</g>
</g>
<!-- block_second_degree_relations&#45;&gt;blocks -->
<g id="edge3" class="edge"><title>block_second_degree_relations:nephew_hash:w&#45;&gt;blocks:hash:e</title>
<path fill="none" stroke="black" d="M320.278,-431.182C303.58,-415.819 315.839,-369 285,-369"/>
<polygon fill="black" stroke="black" points="326.452,-433.349 332.807,-439.397 330.226,-434.675 334,-436 334,-436 334,-436 330.226,-434.675 335.193,-432.603 326.452,-433.349 326.452,-433.349"/>
<ellipse fill="none" stroke="black" cx="323.433" cy="-432.289" rx="3.20001" ry="3.20001"/>
</g>
<!-- internal_transactions -->
<g id="node5" class="node"><title>internal_transactions</title>
<g id="a_node5"><a xlink:href="../../tables/internal_transactions.html" xlink:title="internal_transactions" target="_top">
<polygon fill="#ffffff" stroke="none" points="700,-613 700,-671 871,-671 871,-613 700,-613"/>
<polygon fill="#f5f5f5" stroke="none" points="700.5,-649 700.5,-671 871.5,-671 871.5,-649 700.5,-649"/>
<polygon fill="none" stroke="black" points="700.5,-649 700.5,-671 871.5,-671 871.5,-649 700.5,-649"/>
<text text-anchor="start" x="705.5" y="-658.2" font-family="Helvetica,sans-Serif" font-weight="bold" font-size="11.00">internal_transactions</text>
<text text-anchor="start" x="832.5" y="-657.2" font-family="Helvetica,sans-Serif" font-size="11.00">[table]</text>
<polygon fill="none" stroke="black" points="700.5,-631 700.5,-649 871.5,-649 871.5,-631 700.5,-631"/>
<text text-anchor="start" x="703.5" y="-637.2" font-family="Helvetica,sans-Serif" font-size="11.00">...</text>
<polygon fill="#ffffff" stroke="none" points="700.5,-613 700.5,-631 772.5,-631 772.5,-613 700.5,-613"/>
<polygon fill="none" stroke="black" points="700.5,-613 700.5,-631 772.5,-631 772.5,-613 700.5,-613"/>
<text text-anchor="start" x="703.5" y="-619.2" font-family="Helvetica,sans-Serif" font-size="11.00">&lt; 5</text>
<polygon fill="#ffffff" stroke="none" points="772.5,-613 772.5,-631 833.5,-631 833.5,-613 772.5,-613"/>
<polygon fill="none" stroke="black" points="772.5,-613 772.5,-631 833.5,-631 833.5,-613 772.5,-613"/>
<text text-anchor="start" x="799.5" y="-619.2" font-family="Helvetica,sans-Serif" font-size="11.00">1 row</text>
<polygon fill="#ffffff" stroke="none" points="833.5,-613 833.5,-631 871.5,-631 871.5,-613 833.5,-613"/>
<polygon fill="none" stroke="black" points="833.5,-613 833.5,-631 871.5,-631 871.5,-613 833.5,-613"/>
<text text-anchor="start" x="861.5" y="-619.2" font-family="Helvetica,sans-Serif" font-size="11.00"> &#160;</text>
</a>
</g>
</g>
<!-- internal_transactions&#45;&gt;addresses -->
<g id="edge6" class="edge"><title>internal_transactions:elipses:w&#45;&gt;addresses:elipses:e</title>
<path fill="none" stroke="black" d="M684.804,-640.11C446.897,-643.636 301.103,-729.791 154,-538 114.685,-486.742 179.099,-250 114.5,-250"/>
<polygon fill="black" stroke="black" points="691.5,-640.06 699.527,-643.6 695.5,-640.03 699.5,-640 699.5,-640 699.5,-640 695.5,-640.03 699.473,-636.4 691.5,-640.06 691.5,-640.06"/>
<ellipse fill="none" stroke="black" cx="688.3" cy="-640.084" rx="3.2" ry="3.2"/>
</g>
<!-- internal_transactions&#45;&gt;addresses -->
<g id="edge7" class="edge"><title>internal_transactions:elipses:w&#45;&gt;addresses:elipses:e</title>
<path fill="none" stroke="black" d="M684.783,-639.754C446.517,-637.54 299.585,-721.354 154,-528 115.673,-477.097 178.219,-244 114.5,-250"/>
<polygon fill="black" stroke="black" points="691.501,-639.866 699.44,-643.599 695.501,-639.933 699.5,-640 699.5,-640 699.5,-640 695.501,-639.933 699.56,-636.401 691.501,-639.866 691.501,-639.866"/>
<ellipse fill="none" stroke="black" cx="688.302" cy="-639.812" rx="3.2" ry="3.2"/>
</g>
<!-- internal_transactions&#45;&gt;addresses -->
<g id="edge8" class="edge"><title>internal_transactions:elipses:w&#45;&gt;addresses:elipses:e</title>
<path fill="none" stroke="black" d="M684.783,-640.519C446.517,-650.54 299.585,-734.354 154,-541 115.673,-490.097 178.219,-257 114.5,-250"/>
<polygon fill="black" stroke="black" points="691.505,-640.282 699.627,-643.598 695.502,-640.141 699.5,-640 699.5,-640 699.5,-640 695.502,-640.141 699.373,-636.402 691.505,-640.282 691.505,-640.282"/>
<ellipse fill="none" stroke="black" cx="688.307" cy="-640.395" rx="3.2" ry="3.2"/>
</g>
<!-- internal_transactions&#45;&gt;blocks -->
<g id="edge5" class="edge"><title>internal_transactions:elipses:w&#45;&gt;blocks:hash:e</title>
<path fill="none" stroke="black" d="M685.107,-637.48C650.736,-622.382 701.903,-543.398 659,-509 600.903,-462.42 384.026,-527.397 325,-482 282.77,-449.52 338.276,-369 285,-369"/>
<polygon fill="black" stroke="black" points="691.62,-638.62 698.879,-643.546 695.56,-639.31 699.5,-640 699.5,-640 699.5,-640 695.56,-639.31 700.121,-636.454 691.62,-638.62 691.62,-638.62"/>
<ellipse fill="none" stroke="black" cx="688.468" cy="-638.068" rx="3.2" ry="3.2"/>
</g>
<!-- transactions -->
<g id="node6" class="node"><title>transactions</title>
<g id="a_node6"><a xlink:href="../../tables/transactions.html" xlink:title="transactions" target="_top">
<polygon fill="#ffffff" stroke="none" points="432,-127 432,-185 552,-185 552,-127 432,-127"/>
<polygon fill="#f5f5f5" stroke="none" points="432,-163 432,-185 552,-185 552,-163 432,-163"/>
<polygon fill="none" stroke="black" points="432,-163 432,-185 552,-185 552,-163 432,-163"/>
<text text-anchor="start" x="437" y="-172.2" font-family="Helvetica,sans-Serif" font-weight="bold" font-size="11.00">transactions</text>
<text text-anchor="start" x="513" y="-171.2" font-family="Helvetica,sans-Serif" font-size="11.00">[table]</text>
<polygon fill="none" stroke="black" points="432,-145 432,-163 552,-163 552,-145 432,-145"/>
<text text-anchor="start" x="435" y="-151.2" font-family="Helvetica,sans-Serif" font-size="11.00">...</text>
<polygon fill="#ffffff" stroke="none" points="432,-127 432,-145 473,-145 473,-127 432,-127"/>
<polygon fill="none" stroke="black" points="432,-127 432,-145 473,-145 473,-127 432,-127"/>
<text text-anchor="start" x="435" y="-133.2" font-family="Helvetica,sans-Serif" font-size="11.00">&lt; 4</text>
<polygon fill="#ffffff" stroke="none" points="473,-127 473,-145 519,-145 519,-127 473,-127"/>
<polygon fill="none" stroke="black" points="473,-127 473,-145 519,-145 519,-127 473,-127"/>
<text text-anchor="start" x="485" y="-133.2" font-family="Helvetica,sans-Serif" font-size="11.00">1 row</text>
<polygon fill="#ffffff" stroke="none" points="519,-127 519,-145 552,-145 552,-127 519,-127"/>
<polygon fill="none" stroke="black" points="519,-127 519,-145 552,-145 552,-127 519,-127"/>
<text text-anchor="start" x="532" y="-133.2" font-family="Helvetica,sans-Serif" font-size="11.00">4 &gt;</text>
</a>
</g>
</g>
<!-- internal_transactions&#45;&gt;transactions -->
<g id="edge9" class="edge"><title>internal_transactions:elipses:w&#45;&gt;transactions:elipses:e</title>
<path fill="none" stroke="black" d="M688.533,-630.572C659.975,-574.396 676.775,-285.064 659,-250 630.262,-193.308 616.56,-154 553,-154"/>
<polygon fill="black" stroke="black" points="693.434,-634.785 697.153,-642.73 696.467,-637.392 699.5,-640 699.5,-640 699.5,-640 696.467,-637.392 701.847,-637.27 693.434,-634.785 693.434,-634.785"/>
<ellipse fill="none" stroke="black" cx="691.007" cy="-632.699" rx="3.20001" ry="3.20001"/>
</g>
<!-- transactions&#45;&gt;addresses -->
<g id="edge22" class="edge"><title>transactions:elipses:w&#45;&gt;addresses:elipses:e</title>
<path fill="none" stroke="black" d="M416.495,-153.811C303.289,-150.868 253.593,-115.414 154,-180 124.028,-199.437 150.223,-250 114.5,-250"/>
<polygon fill="black" stroke="black" points="423.001,-153.896 430.953,-157.6 427,-153.948 431,-154 431,-154 431,-154 427,-153.948 431.047,-150.4 423.001,-153.896 423.001,-153.896"/>
<ellipse fill="none" stroke="black" cx="419.801" cy="-153.854" rx="3.2" ry="3.2"/>
</g>
<!-- transactions&#45;&gt;addresses -->
<g id="edge23" class="edge"><title>transactions:elipses:w&#45;&gt;addresses:elipses:e</title>
<path fill="none" stroke="black" d="M416.478,-153.14C303.165,-145.22 254.099,-113.884 154,-178 125.214,-196.439 148.685,-244 114.5,-250"/>
<polygon fill="black" stroke="black" points="423.014,-153.527 430.787,-157.594 427.007,-153.763 431,-154 431,-154 431,-154 427.007,-153.763 431.213,-150.406 423.014,-153.527 423.014,-153.527"/>
<ellipse fill="none" stroke="black" cx="419.82" cy="-153.338" rx="3.2" ry="3.2"/>
</g>
<!-- transactions&#45;&gt;addresses -->
<g id="edge24" class="edge"><title>transactions:elipses:w&#45;&gt;addresses:elipses:e</title>
<path fill="none" stroke="black" d="M416.478,-154.64C303.165,-158.22 254.099,-126.884 154,-191 125.214,-209.439 148.685,-257 114.5,-250"/>
<polygon fill="black" stroke="black" points="423.008,-154.352 431.158,-157.597 427.004,-154.176 431,-154 431,-154 431,-154 427.004,-154.176 430.842,-150.403 423.008,-154.352 423.008,-154.352"/>
<ellipse fill="none" stroke="black" cx="419.811" cy="-154.493" rx="3.2" ry="3.2"/>
</g>
<!-- transactions&#45;&gt;blocks -->
<g id="edge21" class="edge"><title>transactions:elipses:w&#45;&gt;blocks:hash:e</title>
<path fill="none" stroke="black" d="M416.539,-154.202C375.358,-155.498 354.695,-163.76 325,-199 274.984,-258.356 362.619,-369 285,-369"/>
<polygon fill="black" stroke="black" points="423.001,-154.112 431.05,-157.6 427,-154.056 431,-154 431,-154 431,-154 427,-154.056 430.95,-150.4 423.001,-154.112 423.001,-154.112"/>
<ellipse fill="none" stroke="black" cx="419.801" cy="-154.156" rx="3.2" ry="3.2"/>
</g>
<!-- logs -->
<g id="node7" class="node"><title>logs</title>
<g id="a_node7"><a xlink:href="../../tables/logs.html" xlink:title="logs" target="_top">
<polygon fill="#ffffff" stroke="none" points="746.5,-209 746.5,-267 824.5,-267 824.5,-209 746.5,-209"/>
<polygon fill="#f5f5f5" stroke="none" points="746.5,-245 746.5,-267 824.5,-267 824.5,-245 746.5,-245"/>
<polygon fill="none" stroke="black" points="746.5,-245 746.5,-267 824.5,-267 824.5,-245 746.5,-245"/>
<text text-anchor="start" x="751.5" y="-254.2" font-family="Helvetica,sans-Serif" font-weight="bold" font-size="11.00">logs</text>
<text text-anchor="start" x="785.5" y="-253.2" font-family="Helvetica,sans-Serif" font-size="11.00">[table]</text>
<polygon fill="none" stroke="black" points="746.5,-227 746.5,-245 824.5,-245 824.5,-227 746.5,-227"/>
<text text-anchor="start" x="749.5" y="-233.2" font-family="Helvetica,sans-Serif" font-size="11.00">...</text>
<polygon fill="#ffffff" stroke="none" points="746.5,-209 746.5,-227 769.5,-227 769.5,-209 746.5,-209"/>
<polygon fill="none" stroke="black" points="746.5,-209 746.5,-227 769.5,-227 769.5,-209 746.5,-209"/>
<text text-anchor="start" x="749.5" y="-215.2" font-family="Helvetica,sans-Serif" font-size="11.00">&lt; 3</text>
<polygon fill="#ffffff" stroke="none" points="769.5,-209 769.5,-227 811.5,-227 811.5,-209 769.5,-209"/>
<polygon fill="none" stroke="black" points="769.5,-209 769.5,-227 811.5,-227 811.5,-209 769.5,-209"/>
<text text-anchor="start" x="772.5" y="-215.2" font-family="Helvetica,sans-Serif" font-size="11.00">0 rows</text>
<polygon fill="#ffffff" stroke="none" points="811.5,-209 811.5,-227 824.5,-227 824.5,-209 811.5,-209"/>
<polygon fill="none" stroke="black" points="811.5,-209 811.5,-227 824.5,-227 824.5,-209 811.5,-209"/>
<text text-anchor="start" x="814.5" y="-215.2" font-family="Helvetica,sans-Serif" font-size="11.00"> &#160;</text>
</a>
</g>
</g>
<!-- logs&#45;&gt;addresses -->
<g id="edge10" class="edge"><title>logs:elipses:w&#45;&gt;addresses:elipses:e</title>
<path fill="none" stroke="black" d="M731.031,-236.773C597.04,-252.122 781.694,-491.806 659,-588 600.589,-633.795 396.254,-608.779 325,-588 238.477,-562.769 203.923,-554.037 154,-479 125.396,-436.006 166.14,-250 114.5,-250"/>
<polygon fill="black" stroke="black" points="737.511,-236.427 745.692,-239.595 741.506,-236.214 745.5,-236 745.5,-236 745.5,-236 741.506,-236.214 745.308,-232.405 737.511,-236.427 737.511,-236.427"/>
<ellipse fill="none" stroke="black" cx="734.316" cy="-236.598" rx="3.2" ry="3.2"/>
</g>
<!-- logs&#45;&gt;blocks -->
<g id="edge11" class="edge"><title>logs:elipses:w&#45;&gt;blocks:hash:e</title>
<path fill="none" stroke="black" d="M731.026,-235.728C628.291,-232.221 396.409,-196.843 325,-250 280.242,-283.317 340.797,-369 285,-369"/>
<polygon fill="black" stroke="black" points="737.501,-235.85 745.432,-239.599 741.501,-235.925 745.5,-236 745.5,-236 745.5,-236 741.501,-235.925 745.568,-232.401 737.501,-235.85 737.501,-235.85"/>
<ellipse fill="none" stroke="black" cx="734.302" cy="-235.789" rx="3.2" ry="3.2"/>
</g>
<!-- logs&#45;&gt;transactions -->
<g id="edge12" class="edge"><title>logs:elipses:w&#45;&gt;transactions:elipses:e</title>
<path fill="none" stroke="black" d="M730.991,-235.291C651.535,-227.276 640.909,-154 553,-154"/>
<polygon fill="black" stroke="black" points="737.51,-235.61 745.324,-239.596 741.505,-235.805 745.5,-236 745.5,-236 745.5,-236 741.505,-235.805 745.676,-232.404 737.51,-235.61 737.51,-235.61"/>
<ellipse fill="none" stroke="black" cx="734.313" cy="-235.453" rx="3.2" ry="3.2"/>
</g>
<!-- pending_block_operations -->
<g id="node8" class="node"><title>pending_block_operations</title>
<g id="a_node8"><a xlink:href="../../tables/pending_block_operations.html" xlink:title="pending_block_operations" target="_top">
<polygon fill="#ffffff" stroke="none" points="394,-260 394,-318 590,-318 590,-260 394,-260"/>
<polygon fill="#f5f5f5" stroke="none" points="394,-296 394,-318 590,-318 590,-296 394,-296"/>
<polygon fill="none" stroke="black" points="394,-296 394,-318 590,-318 590,-296 394,-296"/>
<text text-anchor="start" x="399" y="-305.2" font-family="Helvetica,sans-Serif" font-weight="bold" font-size="11.00">pending_block_operations</text>
<text text-anchor="start" x="551" y="-304.2" font-family="Helvetica,sans-Serif" font-size="11.00">[table]</text>
<polygon fill="none" stroke="black" points="394,-278 394,-296 590,-296 590,-278 394,-278"/>
<text text-anchor="start" x="397" y="-284.2" font-family="Helvetica,sans-Serif" font-size="11.00">...</text>
<polygon fill="#ffffff" stroke="none" points="394,-260 394,-278 478,-278 478,-260 394,-260"/>
<polygon fill="none" stroke="black" points="394,-260 394,-278 478,-278 478,-260 394,-260"/>
<text text-anchor="start" x="397" y="-266.2" font-family="Helvetica,sans-Serif" font-size="11.00">&lt; 1</text>
<polygon fill="#ffffff" stroke="none" points="478,-260 478,-278 546,-278 546,-260 478,-260"/>
<polygon fill="none" stroke="black" points="478,-260 478,-278 546,-278 546,-260 478,-260"/>
<text text-anchor="start" x="512" y="-266.2" font-family="Helvetica,sans-Serif" font-size="11.00">1 row</text>
<polygon fill="#ffffff" stroke="none" points="546,-260 546,-278 590,-278 590,-260 546,-260"/>
<polygon fill="none" stroke="black" points="546,-260 546,-278 590,-278 590,-260 546,-260"/>
<text text-anchor="start" x="580" y="-266.2" font-family="Helvetica,sans-Serif" font-size="11.00"> &#160;</text>
</a>
</g>
</g>
<!-- pending_block_operations&#45;&gt;blocks -->
<g id="edge13" class="edge"><title>pending_block_operations:elipses:w&#45;&gt;blocks:hash:e</title>
<path fill="none" stroke="black" d="M382.382,-287.693C356.189,-291.391 349.811,-309.37 325,-329 305.283,-344.6 310.142,-369 285,-369"/>
<polygon fill="black" stroke="black" points="391.941,-283.061 392.462,-291.044 390.866,-291.148 390.345,-283.165 391.941,-283.061"/>
<polyline fill="none" stroke="black" points="393,-287 389.008,-287.261 "/>
<ellipse fill="none" stroke="black" cx="385.815" cy="-287.469" rx="3.2" ry="3.2"/>
</g>
<!-- token_transfers -->
<g id="node9" class="node"><title>token_transfers</title>
<g id="a_node9"><a xlink:href="../../tables/token_transfers.html" xlink:title="token_transfers" target="_top">
<polygon fill="#ffffff" stroke="none" points="716.5,-37 716.5,-95 854.5,-95 854.5,-37 716.5,-37"/>
<polygon fill="#f5f5f5" stroke="none" points="716.5,-73 716.5,-95 854.5,-95 854.5,-73 716.5,-73"/>
<polygon fill="none" stroke="black" points="716.5,-73 716.5,-95 854.5,-95 854.5,-73 716.5,-73"/>
<text text-anchor="start" x="721.5" y="-82.2" font-family="Helvetica,sans-Serif" font-weight="bold" font-size="11.00">token_transfers</text>
<text text-anchor="start" x="815.5" y="-81.2" font-family="Helvetica,sans-Serif" font-size="11.00">[table]</text>
<polygon fill="none" stroke="black" points="716.5,-55 716.5,-73 854.5,-73 854.5,-55 716.5,-55"/>
<text text-anchor="start" x="719.5" y="-61.2" font-family="Helvetica,sans-Serif" font-size="11.00">...</text>
<polygon fill="#ffffff" stroke="none" points="716.5,-37 716.5,-55 769.5,-55 769.5,-37 716.5,-37"/>
<polygon fill="none" stroke="black" points="716.5,-37 716.5,-55 769.5,-55 769.5,-37 716.5,-37"/>
<text text-anchor="start" x="719.5" y="-43.2" font-family="Helvetica,sans-Serif" font-size="11.00">&lt; 5</text>
<polygon fill="#ffffff" stroke="none" points="769.5,-37 769.5,-55 826.5,-55 826.5,-37 769.5,-37"/>
<polygon fill="none" stroke="black" points="769.5,-37 769.5,-55 826.5,-55 826.5,-37 769.5,-37"/>
<text text-anchor="start" x="787.5" y="-43.2" font-family="Helvetica,sans-Serif" font-size="11.00">0 rows</text>
<polygon fill="#ffffff" stroke="none" points="826.5,-37 826.5,-55 854.5,-55 854.5,-37 826.5,-37"/>
<polygon fill="none" stroke="black" points="826.5,-37 826.5,-55 854.5,-55 854.5,-37 826.5,-37"/>
<text text-anchor="start" x="844.5" y="-43.2" font-family="Helvetica,sans-Serif" font-size="11.00"> &#160;</text>
</a>
</g>
</g>
<!-- token_transfers&#45;&gt;addresses -->
<g id="edge15" class="edge"><title>token_transfers:elipses:w&#45;&gt;addresses:elipses:e</title>
<path fill="none" stroke="black" d="M700.885,-63.8905C458.66,-60.2721 332.409,30.6929 154,-140 116.466,-175.91 166.445,-250 114.5,-250"/>
<polygon fill="black" stroke="black" points="707.5,-63.94 715.473,-67.5999 711.5,-63.97 715.5,-64 715.5,-64 715.5,-64 711.5,-63.97 715.527,-60.4001 707.5,-63.94 707.5,-63.94"/>
<ellipse fill="none" stroke="black" cx="704.3" cy="-63.916" rx="3.2" ry="3.2"/>
</g>
<!-- token_transfers&#45;&gt;addresses -->
<g id="edge16" class="edge"><title>token_transfers:elipses:w&#45;&gt;addresses:elipses:e</title>
<path fill="none" stroke="black" d="M701.038,-63.4704C539.017,-57.2019 490.619,-44.1792 325,-77 245.848,-92.6855 211.456,-81.3451 154,-138 118.201,-173.3 164.776,-244 114.5,-250"/>
<polygon fill="black" stroke="black" points="707.505,-63.7072 715.368,-67.5976 711.503,-63.8536 715.5,-64 715.5,-64 715.5,-64 711.503,-63.8536 715.632,-60.4024 707.505,-63.7072 707.505,-63.7072"/>
<ellipse fill="none" stroke="black" cx="704.308" cy="-63.5901" rx="3.2" ry="3.2"/>
</g>
<!-- token_transfers&#45;&gt;addresses -->
<g id="edge17" class="edge"><title>token_transfers:elipses:w&#45;&gt;addresses:elipses:e</title>
<path fill="none" stroke="black" d="M701.038,-64.5439C539.017,-70.2019 490.619,-57.1792 325,-90 245.848,-105.685 211.456,-94.3451 154,-151 118.201,-186.3 164.776,-257 114.5,-250"/>
<polygon fill="black" stroke="black" points="707.506,-64.3007 715.635,-67.5975 711.503,-64.1504 715.5,-64 715.5,-64 715.5,-64 711.503,-64.1504 715.365,-60.4025 707.506,-64.3007 707.506,-64.3007"/>
<ellipse fill="none" stroke="black" cx="704.308" cy="-64.421" rx="3.2" ry="3.2"/>
</g>
<!-- token_transfers&#45;&gt;blocks -->
<g id="edge14" class="edge"><title>token_transfers:elipses:w&#45;&gt;blocks:hash:e</title>
<path fill="none" stroke="black" d="M701.164,-65.8713C686.13,-70.2404 679.694,-81.1124 659,-86 586.455,-103.134 379.39,-66.0284 325,-117 283.627,-155.772 341.701,-369 285,-369"/>
<polygon fill="black" stroke="black" points="707.567,-65.0355 715.966,-67.5697 711.534,-64.5177 715.5,-64 715.5,-64 715.5,-64 711.534,-64.5177 715.034,-60.4303 707.567,-65.0355 707.567,-65.0355"/>
<ellipse fill="none" stroke="black" cx="704.394" cy="-65.4497" rx="3.2" ry="3.2"/>
</g>
<!-- token_transfers&#45;&gt;transactions -->
<g id="edge18" class="edge"><title>token_transfers:elipses:w&#45;&gt;transactions:elipses:e</title>
<path fill="none" stroke="black" d="M701.145,-66.7004C683.054,-74.7462 682.473,-98.8735 659,-113 615.721,-139.046 603.512,-154 553,-154"/>
<polygon fill="black" stroke="black" points="707.638,-65.479 716.166,-67.5379 711.569,-64.7395 715.5,-64 715.5,-64 715.5,-64 711.569,-64.7395 714.834,-60.4621 707.638,-65.479 707.638,-65.479"/>
<ellipse fill="none" stroke="black" cx="704.493" cy="-66.0706" rx="3.2" ry="3.2"/>
</g>
<!-- transaction_forks -->
<g id="node10" class="node"><title>transaction_forks</title>
<g id="a_node10"><a xlink:href="../../tables/transaction_forks.html" xlink:title="transaction_forks" target="_top">
<polygon fill="#ffffff" stroke="none" points="711.5,-128 711.5,-186 859.5,-186 859.5,-128 711.5,-128"/>
<polygon fill="#f5f5f5" stroke="none" points="711.5,-164 711.5,-186 859.5,-186 859.5,-164 711.5,-164"/>
<polygon fill="none" stroke="black" points="711.5,-164 711.5,-186 859.5,-186 859.5,-164 711.5,-164"/>
<text text-anchor="start" x="716.5" y="-173.2" font-family="Helvetica,sans-Serif" font-weight="bold" font-size="11.00">transaction_forks</text>
<text text-anchor="start" x="820.5" y="-172.2" font-family="Helvetica,sans-Serif" font-size="11.00">[table]</text>
<polygon fill="none" stroke="black" points="711.5,-146 711.5,-164 859.5,-164 859.5,-146 711.5,-146"/>
<text text-anchor="start" x="714.5" y="-152.2" font-family="Helvetica,sans-Serif" font-size="11.00">...</text>
<polygon fill="#ffffff" stroke="none" points="711.5,-128 711.5,-146 769.5,-146 769.5,-128 711.5,-128"/>
<polygon fill="none" stroke="black" points="711.5,-128 711.5,-146 769.5,-146 769.5,-128 711.5,-128"/>
<text text-anchor="start" x="714.5" y="-134.2" font-family="Helvetica,sans-Serif" font-size="11.00">&lt; 2</text>
<polygon fill="#ffffff" stroke="none" points="769.5,-128 769.5,-146 828.5,-146 828.5,-128 769.5,-128"/>
<polygon fill="none" stroke="black" points="769.5,-128 769.5,-146 828.5,-146 828.5,-128 769.5,-128"/>
<text text-anchor="start" x="789.5" y="-134.2" font-family="Helvetica,sans-Serif" font-size="11.00">0 rows</text>
<polygon fill="#ffffff" stroke="none" points="828.5,-128 828.5,-146 859.5,-146 859.5,-128 828.5,-128"/>
<polygon fill="none" stroke="black" points="828.5,-128 828.5,-146 859.5,-146 859.5,-128 828.5,-128"/>
<text text-anchor="start" x="849.5" y="-134.2" font-family="Helvetica,sans-Serif" font-size="11.00"> &#160;</text>
</a>
</g>
</g>
<!-- transaction_forks&#45;&gt;blocks -->
<g id="edge20" class="edge"><title>transaction_forks:elipses:w&#45;&gt;blocks:hash:e</title>
<path fill="none" stroke="black" d="M696.356,-158.339C681.948,-166.522 680.719,-187.525 659,-196 589.678,-223.051 382.385,-172.626 325,-220 272.124,-263.652 353.567,-369 285,-369"/>
<polygon fill="black" stroke="black" points="702.714,-156.838 711.327,-158.504 706.607,-155.919 710.5,-155 710.5,-155 710.5,-155 706.607,-155.919 709.673,-151.496 702.714,-156.838 702.714,-156.838"/>
<ellipse fill="none" stroke="black" cx="699.6" cy="-157.573" rx="3.2" ry="3.2"/>
</g>
<!-- transaction_forks&#45;&gt;transactions -->
<g id="edge19" class="edge"><title>transaction_forks:elipses:w&#45;&gt;transactions:elipses:e</title>
<path fill="none" stroke="black" d="M695.738,-154.984C637.612,-154.857 617.806,-154 553,-154"/>
<polygon fill="black" stroke="black" points="702.5,-154.991 710.496,-158.6 706.5,-154.996 710.5,-155 710.5,-155 710.5,-155 706.5,-154.996 710.504,-151.4 702.5,-154.991 702.5,-154.991"/>
<ellipse fill="none" stroke="black" cx="699.3" cy="-154.988" rx="3.2" ry="3.2"/>
</g>
</g>
</svg>
