<?xml version="1.0" encoding="UTF-8" standalone="no"?>
<!DOCTYPE svg PUBLIC "-//W3C//DTD SVG 1.1//EN"
 "http://www.w3.org/Graphics/SVG/1.1/DTD/svg11.dtd">
<!-- Generated by graphviz version 9.0.0 (20230911.1827)
 -->
<!-- Title: twoDegreesRelationshipsDiagram Pages: 1 -->
<svg width="730pt" height="751pt"
 viewBox="0.00 0.00 730.00 751.00" xmlns="http://www.w3.org/2000/svg" xmlns:xlink="http://www.w3.org/1999/xlink">
<g id="graph0" class="graph" transform="scale(1 1) rotate(0) translate(4 747)">
<title>twoDegreesRelationshipsDiagram</title>
<polygon fill="#ffffff" stroke="none" points="-4,4 -4,-747 726,-747 726,4 -4,4"/>
<text text-anchor="middle" x="71.38" y="-5.55" font-family="Helvetica,sans-Serif" font-size="11.00">Generated by SchemaSpy</text>
<!-- block_rewards -->
<g id="node1" class="node">
<title>block_rewards</title>
<g id="a_node1"><a xlink:href="../../tables/block_rewards.html" xlink:title="block_rewards" target="_top">
<polygon fill="#ffffff" stroke="none" points="333,-615 333,-739 456,-739 456,-615 333,-615"/>
<polygon fill="#f5f5f5" stroke="none" points="333,-717 333,-739 456,-739 456,-717 333,-717"/>
<polygon fill="none" stroke="black" points="333,-717 333,-739 456,-739 456,-717 333,-717"/>
<text text-anchor="start" x="338" y="-724.55" font-family="Helvetica,sans-Serif" font-weight="bold" font-size="11.00">block_rewards</text>
<text text-anchor="start" x="422" y="-723.55" font-family="Helvetica,sans-Serif" font-size="11.00">[table]</text>
<polygon fill="none" stroke="black" points="333,-695 333,-717 456,-717 456,-695 333,-695"/>
<image xlink:href="../../images/primaryKeys.png" width="11px" height="12px" preserveAspectRatio="xMinYMin meet" x="338" y="-712"/>
<text text-anchor="start" x="362" y="-701.55" font-family="Helvetica,sans-Serif" font-size="11.00">address_hash</text>
<polygon fill="none" stroke="black" points="333,-673 333,-695 456,-695 456,-673 333,-673"/>
<image xlink:href="../../images/primaryKeys.png" width="11px" height="12px" preserveAspectRatio="xMinYMin meet" x="338" y="-690"/>
<text text-anchor="start" x="362" y="-679.55" font-family="Helvetica,sans-Serif" font-size="11.00">address_type</text>
<polygon fill="none" stroke="black" points="333,-651 333,-673 456,-673 456,-651 333,-651"/>
<image xlink:href="../../images/primaryKeys.png" width="11px" height="12px" preserveAspectRatio="xMinYMin meet" x="338" y="-668"/>
<text text-anchor="start" x="362" y="-657.55" font-family="Helvetica,sans-Serif" font-size="11.00">block_hash</text>
<polygon fill="none" stroke="black" points="333,-633 333,-651 456,-651 456,-633 333,-633"/>
<text text-anchor="start" x="336" y="-637.55" font-family="Helvetica,sans-Serif" font-size="11.00">...</text>
<polygon fill="#ffffff" stroke="none" points="333,-615 333,-633 393,-633 393,-615 333,-615"/>
<polygon fill="none" stroke="black" points="333,-615 333,-633 393,-633 393,-615 333,-615"/>
<text text-anchor="start" x="336" y="-619.55" font-family="Helvetica,sans-Serif" font-size="11.00">&lt; 1</text>
<polygon fill="#ffffff" stroke="none" points="393,-615 393,-633 424,-633 424,-615 393,-615"/>
<polygon fill="none" stroke="black" points="393,-615 393,-633 424,-633 424,-615 393,-615"/>
<text text-anchor="start" x="415" y="-619.55" font-family="Helvetica,sans-Serif" font-size="11.00"> &#160;</text>
<polygon fill="#ffffff" stroke="none" points="424,-615 424,-633 456,-633 456,-615 424,-615"/>
<polygon fill="none" stroke="black" points="424,-615 424,-633 456,-633 456,-615 424,-615"/>
<text text-anchor="start" x="447" y="-619.55" font-family="Helvetica,sans-Serif" font-size="11.00"> &#160;</text>
</a>
</g>
</g>
<!-- blocks -->
<g id="node2" class="node">
<title>blocks</title>
<g id="a_node2"><a xlink:href="../../tables/blocks.html" xlink:title="blocks" target="_top">
<polygon fill="#ffffff" stroke="none" points="8,-71 8,-489 235,-489 235,-71 8,-71"/>
<polygon fill="#f5f5f5" stroke="none" points="10,-465 10,-487 233,-487 233,-465 10,-465"/>
<polygon fill="none" stroke="black" points="10,-465 10,-487 233,-487 233,-465 10,-465"/>
<text text-anchor="start" x="14.75" y="-472.55" font-family="Helvetica,sans-Serif" font-weight="bold" font-size="11.00">blocks</text>
<text text-anchor="start" x="198.75" y="-471.55" font-family="Helvetica,sans-Serif" font-size="11.00">[table]</text>
<polygon fill="#ffffff" stroke="none" points="10,-443 10,-465 135,-465 135,-443 10,-443"/>
<polygon fill="none" stroke="black" points="10,-443 10,-465 135,-465 135,-443 10,-443"/>
<text text-anchor="start" x="30" y="-449.55" font-family="Helvetica,sans-Serif" font-size="11.00">consensus</text>
<polygon fill="none" stroke="black" points="135,-443 135,-465 233,-465 233,-443 135,-443"/>
<text text-anchor="start" x="138" y="-449.55" font-family="Helvetica,sans-Serif" font-size="11.00">bool[1]</text>
<polygon fill="none" stroke="black" points="10,-421 10,-443 135,-443 135,-421 10,-421"/>
<text text-anchor="start" x="30" y="-427.55" font-family="Helvetica,sans-Serif" font-size="11.00">difficulty</text>
<polygon fill="none" stroke="black" points="135,-421 135,-443 233,-443 233,-421 135,-421"/>
<text text-anchor="start" x="138" y="-427.55" font-family="Helvetica,sans-Serif" font-size="11.00">numeric[50]</text>
<polygon fill="none" stroke="black" points="10,-399 10,-421 135,-421 135,-399 10,-399"/>
<text text-anchor="start" x="30" y="-405.55" font-family="Helvetica,sans-Serif" font-size="11.00">gas_limit</text>
<polygon fill="none" stroke="black" points="135,-399 135,-421 233,-421 233,-399 135,-399"/>
<text text-anchor="start" x="138" y="-405.55" font-family="Helvetica,sans-Serif" font-size="11.00">numeric[100]</text>
<polygon fill="none" stroke="black" points="10,-377 10,-399 135,-399 135,-377 10,-377"/>
<text text-anchor="start" x="30" y="-383.55" font-family="Helvetica,sans-Serif" font-size="11.00">gas_used</text>
<polygon fill="none" stroke="black" points="135,-377 135,-399 233,-399 233,-377 135,-377"/>
<text text-anchor="start" x="138" y="-383.55" font-family="Helvetica,sans-Serif" font-size="11.00">numeric[100]</text>
<polygon fill="none" stroke="black" points="10,-355 10,-377 135,-377 135,-355 10,-355"/>
<image xlink:href="../../images/primaryKeys.png" width="11px" height="12px" preserveAspectRatio="xMinYMin meet" x="15" y="-372"/>
<text text-anchor="start" x="30" y="-361.55" font-family="Helvetica,sans-Serif" font-size="11.00">hash</text>
<polygon fill="none" stroke="black" points="135,-355 135,-377 233,-377 233,-355 135,-355"/>
<text text-anchor="start" x="137.88" y="-361.55" font-family="Helvetica,sans-Serif" font-size="11.00">bytea[2147483647]</text>
<polygon fill="#ffffff" stroke="none" points="10,-333 10,-355 135,-355 135,-333 10,-333"/>
<polygon fill="none" stroke="black" points="10,-333 10,-355 135,-355 135,-333 10,-333"/>
<text text-anchor="start" x="30" y="-339.55" font-family="Helvetica,sans-Serif" font-size="11.00">miner_hash</text>
<polygon fill="none" stroke="black" points="135,-333 135,-355 233,-355 233,-333 135,-333"/>
<text text-anchor="start" x="137.88" y="-339.55" font-family="Helvetica,sans-Serif" font-size="11.00">bytea[2147483647]</text>
<polygon fill="none" stroke="black" points="10,-311 10,-333 135,-333 135,-311 10,-311"/>
<text text-anchor="start" x="30" y="-317.55" font-family="Helvetica,sans-Serif" font-size="11.00">nonce</text>
<polygon fill="none" stroke="black" points="135,-311 135,-333 233,-333 233,-311 135,-311"/>
<text text-anchor="start" x="137.88" y="-317.55" font-family="Helvetica,sans-Serif" font-size="11.00">bytea[2147483647]</text>
<polygon fill="#ffffff" stroke="none" points="10,-289 10,-311 135,-311 135,-289 10,-289"/>
<polygon fill="none" stroke="black" points="10,-289 10,-311 135,-311 135,-289 10,-289"/>
<text text-anchor="start" x="30" y="-295.55" font-family="Helvetica,sans-Serif" font-size="11.00">number</text>
<polygon fill="none" stroke="black" points="135,-289 135,-311 233,-311 233,-289 135,-289"/>
<text text-anchor="start" x="138" y="-295.55" font-family="Helvetica,sans-Serif" font-size="11.00">int8[19]</text>
<polygon fill="#ffffff" stroke="none" points="10,-267 10,-289 135,-289 135,-267 10,-267"/>
<polygon fill="none" stroke="black" points="10,-267 10,-289 135,-289 135,-267 10,-267"/>
<text text-anchor="start" x="30" y="-273.55" font-family="Helvetica,sans-Serif" font-size="11.00">parent_hash</text>
<polygon fill="none" stroke="black" points="135,-267 135,-289 233,-289 233,-267 135,-267"/>
<text text-anchor="start" x="137.88" y="-273.55" font-family="Helvetica,sans-Serif" font-size="11.00">bytea[2147483647]</text>
<polygon fill="none" stroke="black" points="10,-245 10,-267 135,-267 135,-245 10,-245"/>
<text text-anchor="start" x="30" y="-251.55" font-family="Helvetica,sans-Serif" font-size="11.00">size</text>
<polygon fill="none" stroke="black" points="135,-245 135,-267 233,-267 233,-245 135,-245"/>
<text text-anchor="start" x="138" y="-251.55" font-family="Helvetica,sans-Serif" font-size="11.00">int4[10]</text>
<polygon fill="#ffffff" stroke="none" points="10,-223 10,-245 135,-245 135,-223 10,-223"/>
<polygon fill="none" stroke="black" points="10,-223 10,-245 135,-245 135,-223 10,-223"/>
<text text-anchor="start" x="30" y="-229.55" font-family="Helvetica,sans-Serif" font-size="11.00">timestamp</text>
<polygon fill="none" stroke="black" points="135,-223 135,-245 233,-245 233,-223 135,-223"/>
<text text-anchor="start" x="138" y="-229.55" font-family="Helvetica,sans-Serif" font-size="11.00">timestamp[29,6]</text>
<polygon fill="none" stroke="black" points="10,-201 10,-223 135,-223 135,-201 10,-201"/>
<text text-anchor="start" x="30" y="-207.55" font-family="Helvetica,sans-Serif" font-size="11.00">total_difficulty</text>
<polygon fill="none" stroke="black" points="135,-201 135,-223 233,-223 233,-201 135,-201"/>
<text text-anchor="start" x="138" y="-207.55" font-family="Helvetica,sans-Serif" font-size="11.00">numeric[50]</text>
<polygon fill="#ffffff" stroke="none" points="10,-179 10,-201 135,-201 135,-179 10,-179"/>
<polygon fill="none" stroke="black" points="10,-179 10,-201 135,-201 135,-179 10,-179"/>
<text text-anchor="start" x="30" y="-185.55" font-family="Helvetica,sans-Serif" font-size="11.00">inserted_at</text>
<polygon fill="none" stroke="black" points="135,-179 135,-201 233,-201 233,-179 135,-179"/>
<text text-anchor="start" x="138" y="-185.55" font-family="Helvetica,sans-Serif" font-size="11.00">timestamp[29,6]</text>
<polygon fill="none" stroke="black" points="10,-157 10,-179 135,-179 135,-157 10,-157"/>
<text text-anchor="start" x="30" y="-163.55" font-family="Helvetica,sans-Serif" font-size="11.00">updated_at</text>
<polygon fill="none" stroke="black" points="135,-157 135,-179 233,-179 233,-157 135,-157"/>
<text text-anchor="start" x="138" y="-163.55" font-family="Helvetica,sans-Serif" font-size="11.00">timestamp[29,6]</text>
<polygon fill="none" stroke="black" points="10,-135 10,-157 135,-157 135,-135 10,-135"/>
<text text-anchor="start" x="30" y="-141.55" font-family="Helvetica,sans-Serif" font-size="11.00">refetch_needed</text>
<polygon fill="none" stroke="black" points="135,-135 135,-157 233,-157 233,-135 135,-135"/>
<text text-anchor="start" x="138" y="-141.55" font-family="Helvetica,sans-Serif" font-size="11.00">bool[1]</text>
<polygon fill="none" stroke="black" points="10,-113 10,-135 135,-135 135,-113 10,-113"/>
<text text-anchor="start" x="30" y="-119.55" font-family="Helvetica,sans-Serif" font-size="11.00">base_fee_per_gas</text>
<polygon fill="none" stroke="black" points="135,-113 135,-135 233,-135 233,-113 135,-113"/>
<text text-anchor="start" x="138" y="-119.55" font-family="Helvetica,sans-Serif" font-size="11.00">numeric[100]</text>
<polygon fill="#ffffff" stroke="none" points="10,-91 10,-113 135,-113 135,-91 10,-91"/>
<polygon fill="none" stroke="black" points="10,-91 10,-113 135,-113 135,-91 10,-91"/>
<text text-anchor="start" x="30" y="-97.55" font-family="Helvetica,sans-Serif" font-size="11.00">is_empty</text>
<polygon fill="none" stroke="black" points="135,-91 135,-113 233,-113 233,-91 135,-91"/>
<text text-anchor="start" x="138" y="-97.55" font-family="Helvetica,sans-Serif" font-size="11.00">bool[1]</text>
<polygon fill="#ffffff" stroke="none" points="10,-73 10,-91 77,-91 77,-73 10,-73"/>
<polygon fill="none" stroke="black" points="10,-73 10,-91 77,-91 77,-73 10,-73"/>
<text text-anchor="start" x="13" y="-77.55" font-family="Helvetica,sans-Serif" font-size="11.00">&lt; 0</text>
<polygon fill="#ffffff" stroke="none" points="77,-73 77,-91 135,-91 135,-73 77,-73"/>
<polygon fill="none" stroke="black" points="77,-73 77,-91 135,-91 135,-73 77,-73"/>
<text text-anchor="start" x="126" y="-77.55" font-family="Helvetica,sans-Serif" font-size="11.00"> &#160;</text>
<polygon fill="#ffffff" stroke="none" points="135,-73 135,-91 233,-91 233,-73 135,-73"/>
<polygon fill="none" stroke="black" points="135,-73 135,-91 233,-91 233,-73 135,-73"/>
<text text-anchor="start" x="214.25" y="-77.55" font-family="Helvetica,sans-Serif" font-size="11.00">9 &gt;</text>
<polygon fill="none" stroke="black" stroke-width="2" points="9,-72 9,-488 234,-488 234,-72 9,-72"/>
</a>
</g>
</g>
<!-- block_rewards&#45;&gt;blocks -->
<g id="edge1" class="edge">
<title>block_rewards:w&#45;&gt;blocks:e</title>
<path fill="none" stroke="black" d="M315.82,-659.84C294.39,-653.05 289.31,-631.08 276,-605 251.49,-556.99 288.41,-366 234.5,-366"/>
<polygon fill="black" stroke="black" points="323.24,-660.86 330.68,-665.52 327.54,-661.45 330.84,-661.91 330.84,-661.91 330.84,-661.91 327.54,-661.45 331.66,-658.39 323.24,-660.86"/>
<ellipse fill="none" stroke="black" cx="318.37" cy="-660.19" rx="3.2" ry="3.2"/>
</g>
<!-- block_second_degree_relations -->
<g id="node3" class="node">
<title>block_second_degree_relations</title>
<g id="a_node3"><a xlink:href="../../tables/block_second_degree_relations.html" xlink:title="block_second_degree_relations" target="_top">
<polygon fill="#ffffff" stroke="none" points="284,-470 284,-594 505,-594 505,-470 284,-470"/>
<polygon fill="#f5f5f5" stroke="none" points="284,-572 284,-594 505,-594 505,-572 284,-572"/>
<polygon fill="none" stroke="black" points="284,-572 284,-594 505,-594 505,-572 284,-572"/>
<text text-anchor="start" x="289" y="-579.55" font-family="Helvetica,sans-Serif" font-weight="bold" font-size="11.00">block_second_degree_relations</text>
<text text-anchor="start" x="471" y="-578.55" font-family="Helvetica,sans-Serif" font-size="11.00">[table]</text>
<polygon fill="none" stroke="black" points="284,-550 284,-572 505,-572 505,-550 284,-550"/>
<image xlink:href="../../images/primaryKeys.png" width="11px" height="12px" preserveAspectRatio="xMinYMin meet" x="289" y="-567"/>
<text text-anchor="start" x="313" y="-556.55" font-family="Helvetica,sans-Serif" font-size="11.00">nephew_hash</text>
<polygon fill="none" stroke="black" points="284,-528 284,-550 505,-550 505,-528 284,-528"/>
<image xlink:href="../../images/primaryKeys.png" width="11px" height="12px" preserveAspectRatio="xMinYMin meet" x="289" y="-545"/>
<text text-anchor="start" x="313" y="-534.55" font-family="Helvetica,sans-Serif" font-size="11.00">uncle_hash</text>
<polygon fill="none" stroke="black" points="284,-506 284,-528 505,-528 505,-506 284,-506"/>
<image xlink:href="../../images/foreignKeys.png" width="11px" height="12px" preserveAspectRatio="xMinYMin meet" x="289" y="-523"/>
<text text-anchor="start" x="313" y="-512.55" font-family="Helvetica,sans-Serif" font-size="11.00">index</text>
<polygon fill="none" stroke="black" points="284,-488 284,-506 505,-506 505,-488 284,-488"/>
<text text-anchor="start" x="287" y="-492.55" font-family="Helvetica,sans-Serif" font-size="11.00">...</text>
<polygon fill="#ffffff" stroke="none" points="284,-470 284,-488 393,-488 393,-470 284,-470"/>
<polygon fill="none" stroke="black" points="284,-470 284,-488 393,-488 393,-470 284,-470"/>
<text text-anchor="start" x="287" y="-474.55" font-family="Helvetica,sans-Serif" font-size="11.00">&lt; 1</text>
<polygon fill="#ffffff" stroke="none" points="393,-470 393,-488 449,-488 449,-470 393,-470"/>
<polygon fill="none" stroke="black" points="393,-470 393,-488 449,-488 449,-470 393,-470"/>
<text text-anchor="start" x="440" y="-474.55" font-family="Helvetica,sans-Serif" font-size="11.00"> &#160;</text>
<polygon fill="#ffffff" stroke="none" points="449,-470 449,-488 505,-488 505,-470 449,-470"/>
<polygon fill="none" stroke="black" points="449,-470 449,-488 505,-488 505,-470 449,-470"/>
<text text-anchor="start" x="496" y="-474.55" font-family="Helvetica,sans-Serif" font-size="11.00"> &#160;</text>
</a>
</g>
</g>
<!-- block_second_degree_relations&#45;&gt;blocks -->
<g id="edge2" class="edge">
<title>block_second_degree_relations:w&#45;&gt;blocks:e</title>
<path fill="none" stroke="black" d="M267.14,-558.39C210.06,-535.25 317.65,-366 234.5,-366"/>
<polygon fill="black" stroke="black" points="274.28,-559.6 281.57,-564.49 278.56,-560.33 281.84,-560.89 281.84,-560.89 281.84,-560.89 278.56,-560.33 282.77,-557.39 274.28,-559.6"/>
<ellipse fill="none" stroke="black" cx="269.43" cy="-558.78" rx="3.2" ry="3.2"/>
</g>
<!-- internal_transactions -->
<g id="node4" class="node">
<title>internal_transactions</title>
<g id="a_node4"><a xlink:href="../../tables/internal_transactions.html" xlink:title="internal_transactions" target="_top">
<polygon fill="#ffffff" stroke="none" points="554,-469 554,-527 714,-527 714,-469 554,-469"/>
<polygon fill="#f5f5f5" stroke="none" points="554,-505 554,-527 714,-527 714,-505 554,-505"/>
<polygon fill="none" stroke="black" points="554,-505 554,-527 714,-527 714,-505 554,-505"/>
<text text-anchor="start" x="559" y="-512.55" font-family="Helvetica,sans-Serif" font-weight="bold" font-size="11.00">internal_transactions</text>
<text text-anchor="start" x="680" y="-511.55" font-family="Helvetica,sans-Serif" font-size="11.00">[table]</text>
<polygon fill="none" stroke="black" points="554,-487 554,-505 714,-505 714,-487 554,-487"/>
<text text-anchor="start" x="557" y="-491.55" font-family="Helvetica,sans-Serif" font-size="11.00">...</text>
<polygon fill="#ffffff" stroke="none" points="554,-469 554,-487 632,-487 632,-469 554,-469"/>
<polygon fill="none" stroke="black" points="554,-469 554,-487 632,-487 632,-469 554,-469"/>
<text text-anchor="start" x="557" y="-473.55" font-family="Helvetica,sans-Serif" font-size="11.00">&lt; 2</text>
<polygon fill="#ffffff" stroke="none" points="632,-469 632,-487 673,-487 673,-469 632,-469"/>
<polygon fill="none" stroke="black" points="632,-469 632,-487 673,-487 673,-469 632,-469"/>
<text text-anchor="start" x="664" y="-473.55" font-family="Helvetica,sans-Serif" font-size="11.00"> &#160;</text>
<polygon fill="#ffffff" stroke="none" points="673,-469 673,-487 714,-487 714,-469 673,-469"/>
<polygon fill="none" stroke="black" points="673,-469 673,-487 714,-487 714,-469 673,-469"/>
<text text-anchor="start" x="705" y="-473.55" font-family="Helvetica,sans-Serif" font-size="11.00"> &#160;</text>
</a>
</g>
</g>
<!-- internal_transactions&#45;&gt;blocks -->
<g id="edge3" class="edge">
<title>internal_transactions:w&#45;&gt;blocks:e</title>
<path fill="none" stroke="black" d="M531.11,-464.52C525.01,-462.89 518.94,-461.37 513,-460 409.25,-436.07 366.65,-480.85 276,-425 248.71,-408.18 266.56,-366 234.5,-366"/>
<polygon fill="black" stroke="black" points="538.25,-466.51 544.99,-472.12 542.43,-467.67 545.64,-468.56 545.64,-468.56 545.64,-468.56 542.43,-467.67 546.93,-465.18 538.25,-466.51"/>
<ellipse fill="none" stroke="black" cx="533.51" cy="-465.19" rx="3.2" ry="3.2"/>
</g>
<!-- transactions -->
<g id="node5" class="node">
<title>transactions</title>
<g id="a_node5"><a xlink:href="../../tables/transactions.html" xlink:title="transactions" target="_top">
<polygon fill="#ffffff" stroke="none" points="339.5,-337 339.5,-395 449.5,-395 449.5,-337 339.5,-337"/>
<polygon fill="#f5f5f5" stroke="none" points="339.5,-373 339.5,-395 449.5,-395 449.5,-373 339.5,-373"/>
<polygon fill="none" stroke="black" points="339.5,-373 339.5,-395 449.5,-395 449.5,-373 339.5,-373"/>
<text text-anchor="start" x="344.5" y="-380.55" font-family="Helvetica,sans-Serif" font-weight="bold" font-size="11.00">transactions</text>
<text text-anchor="start" x="415.5" y="-379.55" font-family="Helvetica,sans-Serif" font-size="11.00">[table]</text>
<polygon fill="none" stroke="black" points="339.5,-355 339.5,-373 449.5,-373 449.5,-355 339.5,-355"/>
<text text-anchor="start" x="342.5" y="-359.55" font-family="Helvetica,sans-Serif" font-size="11.00">...</text>
<polygon fill="#ffffff" stroke="none" points="339.5,-337 339.5,-355 388.5,-355 388.5,-337 339.5,-337"/>
<polygon fill="none" stroke="black" points="339.5,-337 339.5,-355 388.5,-355 388.5,-337 339.5,-337"/>
<text text-anchor="start" x="342.5" y="-341.55" font-family="Helvetica,sans-Serif" font-size="11.00">&lt; 1</text>
<polygon fill="#ffffff" stroke="none" points="388.5,-337 388.5,-355 414.5,-355 414.5,-337 388.5,-337"/>
<polygon fill="none" stroke="black" points="388.5,-337 388.5,-355 414.5,-355 414.5,-337 388.5,-337"/>
<text text-anchor="start" x="405.5" y="-341.55" font-family="Helvetica,sans-Serif" font-size="11.00"> &#160;</text>
<polygon fill="#ffffff" stroke="none" points="414.5,-337 414.5,-355 449.5,-355 449.5,-337 414.5,-337"/>
<polygon fill="none" stroke="black" points="414.5,-337 414.5,-355 449.5,-355 449.5,-337 414.5,-337"/>
<text text-anchor="start" x="430.75" y="-341.55" font-family="Helvetica,sans-Serif" font-size="11.00">5 &gt;</text>
</a>
</g>
</g>
<!-- internal_transactions&#45;&gt;transactions -->
<g id="edge4" class="edge">
<title>internal_transactions:w&#45;&gt;transactions:e</title>
<path fill="none" stroke="black" d="M543.56,-457.13C528.94,-448.15 524.97,-443.72 513,-436 493.55,-423.45 471.87,-410.3 452.48,-398.84"/>
<polygon fill="black" stroke="black" points="549.92,-460.83 555.02,-467.97 553.67,-463.01 556.55,-464.69 556.55,-464.69 556.55,-464.69 553.67,-463.01 558.64,-461.74 549.92,-460.83"/>
<ellipse fill="none" stroke="black" cx="545.67" cy="-458.36" rx="3.2" ry="3.2"/>
</g>
<!-- transactions&#45;&gt;blocks -->
<g id="edge13" class="edge">
<title>transactions:w&#45;&gt;blocks:e</title>
<path fill="none" stroke="black" d="M315.91,-366C290.02,-366 261.02,-366 234.5,-366"/>
<polygon fill="black" stroke="black" points="323.25,-366 331.25,-369.6 327.58,-366 330.91,-366 330.91,-366 330.91,-366 327.58,-366 331.25,-362.4 323.25,-366"/>
<ellipse fill="none" stroke="black" cx="318.33" cy="-366" rx="3.2" ry="3.2"/>
</g>
<!-- logs -->
<g id="node6" class="node">
<title>logs</title>
<g id="a_node6"><a xlink:href="../../tables/logs.html" xlink:title="logs" target="_top">
<polygon fill="#ffffff" stroke="none" points="602.5,-390 602.5,-448 665.5,-448 665.5,-390 602.5,-390"/>
<polygon fill="#f5f5f5" stroke="none" points="602.5,-426 602.5,-448 665.5,-448 665.5,-426 602.5,-426"/>
<polygon fill="none" stroke="black" points="602.5,-426 602.5,-448 665.5,-448 665.5,-426 602.5,-426"/>
<text text-anchor="start" x="606.25" y="-433.55" font-family="Helvetica,sans-Serif" font-weight="bold" font-size="11.00">logs</text>
<text text-anchor="start" x="631.5" y="-432.55" font-family="Helvetica,sans-Serif" font-size="11.00">[table]</text>
<polygon fill="none" stroke="black" points="602.5,-408 602.5,-426 665.5,-426 665.5,-408 602.5,-408"/>
<text text-anchor="start" x="605.5" y="-412.55" font-family="Helvetica,sans-Serif" font-size="11.00">...</text>
<polygon fill="#ffffff" stroke="none" points="602.5,-390 602.5,-408 632.5,-408 632.5,-390 602.5,-390"/>
<polygon fill="none" stroke="black" points="602.5,-390 602.5,-408 632.5,-408 632.5,-390 602.5,-390"/>
<text text-anchor="start" x="605.5" y="-394.55" font-family="Helvetica,sans-Serif" font-size="11.00">&lt; 2</text>
<polygon fill="#ffffff" stroke="none" points="632.5,-390 632.5,-408 648.5,-408 648.5,-390 632.5,-390"/>
<polygon fill="none" stroke="black" points="632.5,-390 632.5,-408 648.5,-408 648.5,-390 632.5,-390"/>
<text text-anchor="start" x="639.5" y="-394.55" font-family="Helvetica,sans-Serif" font-size="11.00"> &#160;</text>
<polygon fill="#ffffff" stroke="none" points="648.5,-390 648.5,-408 665.5,-408 665.5,-390 648.5,-390"/>
<polygon fill="none" stroke="black" points="648.5,-390 648.5,-408 665.5,-408 665.5,-390 648.5,-390"/>
<text text-anchor="start" x="656.5" y="-394.55" font-family="Helvetica,sans-Serif" font-size="11.00"> &#160;</text>
</a>
</g>
</g>
<!-- logs&#45;&gt;blocks -->
<g id="edge5" class="edge">
<title>logs:w&#45;&gt;blocks:e</title>
<path fill="none" stroke="black" d="M579.12,-421.69C493.1,-425.2 329.02,-428.52 276,-406 252.42,-395.98 260.12,-366 234.5,-366"/>
<polygon fill="black" stroke="black" points="586.4,-421.37 594.55,-424.62 590.73,-421.18 594.06,-421.04 594.06,-421.04 594.06,-421.04 590.73,-421.18 594.24,-417.43 586.4,-421.37"/>
<ellipse fill="none" stroke="black" cx="581.49" cy="-421.58" rx="3.2" ry="3.2"/>
</g>
<!-- logs&#45;&gt;transactions -->
<g id="edge6" class="edge">
<title>logs:w&#45;&gt;transactions:e</title>
<path fill="none" stroke="black" d="M579.3,-407.02C542.98,-398.91 494.92,-388.19 457.05,-379.74"/>
<polygon fill="black" stroke="black" points="586.44,-408.61 593.47,-413.87 590.67,-409.55 593.92,-410.28 593.92,-410.28 593.92,-410.28 590.67,-409.55 595.04,-406.84 586.44,-408.61"/>
<ellipse fill="none" stroke="black" cx="581.64" cy="-407.54" rx="3.2" ry="3.2"/>
</g>
<!-- pending_block_operations -->
<g id="node7" class="node">
<title>pending_block_operations</title>
<g id="a_node7"><a xlink:href="../../tables/pending_block_operations.html" xlink:title="pending_block_operations" target="_top">
<polygon fill="#ffffff" stroke="none" points="299,-236 299,-316 490,-316 490,-236 299,-236"/>
<polygon fill="#f5f5f5" stroke="none" points="299,-294 299,-316 490,-316 490,-294 299,-294"/>
<polygon fill="none" stroke="black" points="299,-294 299,-316 490,-316 490,-294 299,-294"/>
<text text-anchor="start" x="304" y="-301.55" font-family="Helvetica,sans-Serif" font-weight="bold" font-size="11.00">pending_block_operations</text>
<text text-anchor="start" x="456" y="-300.55" font-family="Helvetica,sans-Serif" font-size="11.00">[table]</text>
<polygon fill="none" stroke="black" points="299,-272 299,-294 490,-294 490,-272 299,-272"/>
<image xlink:href="../../images/primaryKeys.png" width="11px" height="12px" preserveAspectRatio="xMinYMin meet" x="304" y="-289"/>
<text text-anchor="start" x="328" y="-278.55" font-family="Helvetica,sans-Serif" font-size="11.00">block_hash</text>
<polygon fill="none" stroke="black" points="299,-254 299,-272 490,-272 490,-254 299,-254"/>
<text text-anchor="start" x="302" y="-258.55" font-family="Helvetica,sans-Serif" font-size="11.00">...</text>
<polygon fill="#ffffff" stroke="none" points="299,-236 299,-254 393,-254 393,-236 299,-236"/>
<polygon fill="none" stroke="black" points="299,-236 299,-254 393,-254 393,-236 299,-236"/>
<text text-anchor="start" x="302" y="-240.55" font-family="Helvetica,sans-Serif" font-size="11.00">&lt; 1</text>
<polygon fill="#ffffff" stroke="none" points="393,-236 393,-254 441,-254 441,-236 393,-236"/>
<polygon fill="none" stroke="black" points="393,-236 393,-254 441,-254 441,-236 393,-236"/>
<text text-anchor="start" x="432" y="-240.55" font-family="Helvetica,sans-Serif" font-size="11.00"> &#160;</text>
<polygon fill="#ffffff" stroke="none" points="441,-236 441,-254 490,-254 490,-236 441,-236"/>
<polygon fill="none" stroke="black" points="441,-236 441,-254 490,-254 490,-236 441,-236"/>
<text text-anchor="start" x="481" y="-240.55" font-family="Helvetica,sans-Serif" font-size="11.00"> &#160;</text>
</a>
</g>
</g>
<!-- pending_block_operations&#45;&gt;blocks -->
<g id="edge7" class="edge">
<title>pending_block_operations:w&#45;&gt;blocks:e</title>
<path fill="none" stroke="black" d="M286.35,-285.05C256.08,-297.83 276.47,-366 234.5,-366"/>
<polygon fill="black" stroke="black" points="295.99,-279.21 297.44,-287.08 295.86,-287.37 294.42,-279.5 295.99,-279.21"/>
<polyline fill="none" stroke="black" points="297.5,-283 293.57,-283.72"/>
<ellipse fill="none" stroke="black" cx="289.93" cy="-284.39" rx="3.2" ry="3.2"/>
</g>
<!-- token_transfers -->
<g id="node8" class="node">
<title>token_transfers</title>
<g id="a_node8"><a xlink:href="../../tables/token_transfers.html" xlink:title="token_transfers" target="_top">
<polygon fill="#ffffff" stroke="none" points="569.5,-232 569.5,-290 698.5,-290 698.5,-232 569.5,-232"/>
<polygon fill="#f5f5f5" stroke="none" points="569.5,-268 569.5,-290 698.5,-290 698.5,-268 569.5,-268"/>
<polygon fill="none" stroke="black" points="569.5,-268 569.5,-290 698.5,-290 698.5,-268 569.5,-268"/>
<text text-anchor="start" x="574.5" y="-275.55" font-family="Helvetica,sans-Serif" font-weight="bold" font-size="11.00">token_transfers</text>
<text text-anchor="start" x="664.5" y="-274.55" font-family="Helvetica,sans-Serif" font-size="11.00">[table]</text>
<polygon fill="none" stroke="black" points="569.5,-250 569.5,-268 698.5,-268 698.5,-250 569.5,-250"/>
<text text-anchor="start" x="572.5" y="-254.55" font-family="Helvetica,sans-Serif" font-size="11.00">...</text>
<polygon fill="#ffffff" stroke="none" points="569.5,-232 569.5,-250 632.5,-250 632.5,-232 569.5,-232"/>
<polygon fill="none" stroke="black" points="569.5,-232 569.5,-250 632.5,-250 632.5,-232 569.5,-232"/>
<text text-anchor="start" x="572.5" y="-236.55" font-family="Helvetica,sans-Serif" font-size="11.00">&lt; 2</text>
<polygon fill="#ffffff" stroke="none" points="632.5,-232 632.5,-250 665.5,-250 665.5,-232 632.5,-232"/>
<polygon fill="none" stroke="black" points="632.5,-232 632.5,-250 665.5,-250 665.5,-232 632.5,-232"/>
<text text-anchor="start" x="656.5" y="-236.55" font-family="Helvetica,sans-Serif" font-size="11.00"> &#160;</text>
<polygon fill="#ffffff" stroke="none" points="665.5,-232 665.5,-250 698.5,-250 698.5,-232 665.5,-232"/>
<polygon fill="none" stroke="black" points="665.5,-232 665.5,-250 698.5,-250 698.5,-232 665.5,-232"/>
<text text-anchor="start" x="689.5" y="-236.55" font-family="Helvetica,sans-Serif" font-size="11.00"> &#160;</text>
</a>
</g>
</g>
<!-- token_transfers&#45;&gt;blocks -->
<g id="edge8" class="edge">
<title>token_transfers:w&#45;&gt;blocks:e</title>
<path fill="none" stroke="black" d="M546.61,-232.66C535.41,-229.92 524,-227.57 513,-226 460.86,-218.55 318.2,-194.49 276,-226 224,-264.83 299.4,-366 234.5,-366"/>
<polygon fill="black" stroke="black" points="553.65,-234.5 560.47,-240.01 557.84,-235.6 561.06,-236.45 561.06,-236.45 561.06,-236.45 557.84,-235.6 562.3,-233.05 553.65,-234.5"/>
<ellipse fill="none" stroke="black" cx="548.89" cy="-233.26" rx="3.2" ry="3.2"/>
</g>
<!-- token_transfers&#45;&gt;transactions -->
<g id="edge9" class="edge">
<title>token_transfers:w&#45;&gt;transactions:e</title>
<path fill="none" stroke="black" d="M547.87,-299.87C547.24,-300.24 546.62,-300.62 546,-301 530.07,-310.75 529.44,-318.15 513,-327 495.68,-336.32 475.74,-343.96 457.25,-349.93"/>
<polygon fill="black" stroke="black" points="554.27,-296.26 563.01,-295.47 558.05,-294.13 560.95,-292.5 560.95,-292.5 560.95,-292.5 558.05,-294.13 559.47,-289.2 554.27,-296.26"/>
<ellipse fill="none" stroke="black" cx="549.98" cy="-298.68" rx="3.2" ry="3.2"/>
</g>
<!-- transaction_actions -->
<g id="node9" class="node">
<title>transaction_actions</title>
<g id="a_node9"><a xlink:href="../../tables/transaction_actions.html" xlink:title="transaction_actions" target="_top">
<polygon fill="#ffffff" stroke="none" points="558,-311 558,-369 710,-369 710,-311 558,-311"/>
<polygon fill="#f5f5f5" stroke="none" points="558,-347 558,-369 710,-369 710,-347 558,-347"/>
<polygon fill="none" stroke="black" points="558,-347 558,-369 710,-369 710,-347 558,-347"/>
<text text-anchor="start" x="563" y="-354.55" font-family="Helvetica,sans-Serif" font-weight="bold" font-size="11.00">transaction_actions</text>
<text text-anchor="start" x="676" y="-353.55" font-family="Helvetica,sans-Serif" font-size="11.00">[table]</text>
<polygon fill="none" stroke="black" points="558,-329 558,-347 710,-347 710,-329 558,-329"/>
<text text-anchor="start" x="561" y="-333.55" font-family="Helvetica,sans-Serif" font-size="11.00">...</text>
<polygon fill="#ffffff" stroke="none" points="558,-311 558,-329 632,-329 632,-311 558,-311"/>
<polygon fill="none" stroke="black" points="558,-311 558,-329 632,-329 632,-311 558,-311"/>
<text text-anchor="start" x="561" y="-315.55" font-family="Helvetica,sans-Serif" font-size="11.00">&lt; 1</text>
<polygon fill="#ffffff" stroke="none" points="632,-311 632,-329 671,-329 671,-311 632,-311"/>
<polygon fill="none" stroke="black" points="632,-311 632,-329 671,-329 671,-311 632,-311"/>
<text text-anchor="start" x="662" y="-315.55" font-family="Helvetica,sans-Serif" font-size="11.00"> &#160;</text>
<polygon fill="#ffffff" stroke="none" points="671,-311 671,-329 710,-329 710,-311 671,-311"/>
<polygon fill="none" stroke="black" points="671,-311 671,-329 710,-329 710,-311 671,-311"/>
<text text-anchor="start" x="701" y="-315.55" font-family="Helvetica,sans-Serif" font-size="11.00"> &#160;</text>
</a>
</g>
</g>
<!-- transaction_actions&#45;&gt;transactions -->
<g id="edge10" class="edge">
<title>transaction_actions:w&#45;&gt;transactions:e</title>
<path fill="none" stroke="black" d="M541.19,-338.41C512.43,-339.84 482.44,-344.84 457.19,-350.2"/>
<polygon fill="black" stroke="black" points="548.67,-338.22 556.76,-341.61 553,-338.1 556.33,-338.02 556.33,-338.02 556.33,-338.02 553,-338.1 556.57,-334.41 548.67,-338.22"/>
<ellipse fill="none" stroke="black" cx="543.75" cy="-338.34" rx="3.2" ry="3.2"/>
</g>
<!-- transaction_forks -->
<g id="node10" class="node">
<title>transaction_forks</title>
<g id="a_node10"><a xlink:href="../../tables/transaction_forks.html" xlink:title="transaction_forks" target="_top">
<polygon fill="#ffffff" stroke="none" points="564.5,-153 564.5,-211 703.5,-211 703.5,-153 564.5,-153"/>
<polygon fill="#f5f5f5" stroke="none" points="564.5,-189 564.5,-211 703.5,-211 703.5,-189 564.5,-189"/>
<polygon fill="none" stroke="black" points="564.5,-189 564.5,-211 703.5,-211 703.5,-189 564.5,-189"/>
<text text-anchor="start" x="569.5" y="-196.55" font-family="Helvetica,sans-Serif" font-weight="bold" font-size="11.00">transaction_forks</text>
<text text-anchor="start" x="669.5" y="-195.55" font-family="Helvetica,sans-Serif" font-size="11.00">[table]</text>
<polygon fill="none" stroke="black" points="564.5,-171 564.5,-189 703.5,-189 703.5,-171 564.5,-171"/>
<text text-anchor="start" x="567.5" y="-175.55" font-family="Helvetica,sans-Serif" font-size="11.00">...</text>
<polygon fill="#ffffff" stroke="none" points="564.5,-153 564.5,-171 632.5,-171 632.5,-153 564.5,-153"/>
<polygon fill="none" stroke="black" points="564.5,-153 564.5,-171 632.5,-171 632.5,-153 564.5,-153"/>
<text text-anchor="start" x="567.5" y="-157.55" font-family="Helvetica,sans-Serif" font-size="11.00">&lt; 2</text>
<polygon fill="#ffffff" stroke="none" points="632.5,-153 632.5,-171 667.5,-171 667.5,-153 632.5,-153"/>
<polygon fill="none" stroke="black" points="632.5,-153 632.5,-171 667.5,-171 667.5,-153 632.5,-153"/>
<text text-anchor="start" x="658.5" y="-157.55" font-family="Helvetica,sans-Serif" font-size="11.00"> &#160;</text>
<polygon fill="#ffffff" stroke="none" points="667.5,-153 667.5,-171 703.5,-171 703.5,-153 667.5,-153"/>
<polygon fill="none" stroke="black" points="667.5,-153 667.5,-171 703.5,-171 703.5,-153 667.5,-153"/>
<text text-anchor="start" x="694.5" y="-157.55" font-family="Helvetica,sans-Serif" font-size="11.00"> &#160;</text>
</a>
</g>
</g>
<!-- transaction_forks&#45;&gt;blocks -->
<g id="edge12" class="edge">
<title>transaction_forks:w&#45;&gt;blocks:e</title>
<path fill="none" stroke="black" d="M541.03,-176.69C448.76,-173.37 314.93,-174.7 276,-207 219.8,-253.64 307.53,-366 234.5,-366"/>
<polygon fill="black" stroke="black" points="548.27,-176.97 556.12,-180.89 552.6,-177.15 555.93,-177.28 555.93,-177.28 555.93,-177.28 552.6,-177.15 556.4,-173.69 548.27,-176.97"/>
<ellipse fill="none" stroke="black" cx="543.35" cy="-176.78" rx="3.2" ry="3.2"/>
</g>
<!-- transaction_forks&#45;&gt;transactions -->
<g id="edge11" class="edge">
<title>transaction_forks:w&#45;&gt;transactions:e</title>
<path fill="none" stroke="black" d="M546.79,-224.31C519.16,-264.72 544.23,-295.27 513,-327 498.15,-342.09 477.33,-351.34 457.34,-357.01"/>
<polygon fill="black" stroke="black" points="551.4,-218.55 559.21,-214.56 554.11,-215.17 556.2,-212.57 556.2,-212.57 556.2,-212.57 554.11,-215.17 553.59,-210.05 551.4,-218.55"/>
<ellipse fill="none" stroke="black" cx="548.33" cy="-222.39" rx="3.2" ry="3.2"/>
</g>
<!-- withdrawals -->
<g id="node11" class="node">
<title>withdrawals</title>
<g id="a_node11"><a xlink:href="../../tables/withdrawals.html" xlink:title="withdrawals" target="_top">
<polygon fill="#ffffff" stroke="none" points="340,-37 340,-161 449,-161 449,-37 340,-37"/>
<polygon fill="#f5f5f5" stroke="none" points="340,-139 340,-161 449,-161 449,-139 340,-139"/>
<polygon fill="none" stroke="black" points="340,-139 340,-161 449,-161 449,-139 340,-139"/>
<text text-anchor="start" x="345" y="-146.55" font-family="Helvetica,sans-Serif" font-weight="bold" font-size="11.00">withdrawals</text>
<text text-anchor="start" x="414.75" y="-145.55" font-family="Helvetica,sans-Serif" font-size="11.00">[table]</text>
<polygon fill="none" stroke="black" points="340,-117 340,-139 449,-139 449,-117 340,-117"/>
<image xlink:href="../../images/primaryKeys.png" width="11px" height="12px" preserveAspectRatio="xMinYMin meet" x="345" y="-134"/>
<text text-anchor="start" x="360" y="-123.55" font-family="Helvetica,sans-Serif" font-size="11.00">index</text>
<polygon fill="#ffffff" stroke="none" points="340,-95 340,-117 449,-117 449,-95 340,-95"/>
<polygon fill="none" stroke="black" points="340,-95 340,-117 449,-117 449,-95 340,-95"/>
<text text-anchor="start" x="360" y="-101.55" font-family="Helvetica,sans-Serif" font-size="11.00">address_hash</text>
<polygon fill="#ffffff" stroke="none" points="340,-73 340,-95 449,-95 449,-73 340,-73"/>
<polygon fill="none" stroke="black" points="340,-73 340,-95 449,-95 449,-73 340,-73"/>
<image xlink:href="../../images/foreignKeys.png" width="11px" height="12px" preserveAspectRatio="xMinYMin meet" x="345" y="-90"/>
<text text-anchor="start" x="360" y="-79.55" font-family="Helvetica,sans-Serif" font-size="11.00">block_hash</text>
<polygon fill="none" stroke="black" points="340,-55 340,-73 449,-73 449,-55 340,-55"/>
<text text-anchor="start" x="343" y="-59.55" font-family="Helvetica,sans-Serif" font-size="11.00">...</text>
<polygon fill="#ffffff" stroke="none" points="340,-37 340,-55 393,-55 393,-37 340,-37"/>
<polygon fill="none" stroke="black" points="340,-37 340,-55 393,-55 393,-37 340,-37"/>
<text text-anchor="start" x="343" y="-41.55" font-family="Helvetica,sans-Serif" font-size="11.00">&lt; 1</text>
<polygon fill="#ffffff" stroke="none" points="393,-37 393,-55 421,-55 421,-37 393,-37"/>
<polygon fill="none" stroke="black" points="393,-37 393,-55 421,-55 421,-37 393,-37"/>
<text text-anchor="start" x="412" y="-41.55" font-family="Helvetica,sans-Serif" font-size="11.00"> &#160;</text>
<polygon fill="#ffffff" stroke="none" points="421,-37 421,-55 449,-55 449,-37 421,-37"/>
<polygon fill="none" stroke="black" points="421,-37 421,-55 449,-55 449,-37 421,-37"/>
<text text-anchor="start" x="440" y="-41.55" font-family="Helvetica,sans-Serif" font-size="11.00"> &#160;</text>
</a>
</g>
</g>
<!-- withdrawals&#45;&gt;blocks -->
<g id="edge14" class="edge">
<title>withdrawals:w&#45;&gt;blocks:e</title>
<path fill="none" stroke="black" d="M322.96,-85.94C290.52,-95.12 293.11,-135.41 276,-175 258.77,-214.87 277.93,-366 234.5,-366"/>
<polygon fill="black" stroke="black" points="330.23,-85.03 338.61,-87.61 334.53,-84.5 337.84,-84.08 337.84,-84.08 337.84,-84.08 334.53,-84.5 337.72,-80.47 330.23,-85.03"/>
<ellipse fill="none" stroke="black" cx="325.35" cy="-85.64" rx="3.2" ry="3.2"/>
</g>
</g>
</svg>
