<?xml version="1.0" encoding="UTF-8" standalone="no"?>
<!DOCTYPE svg PUBLIC "-//W3C//DTD SVG 1.1//EN"
 "http://www.w3.org/Graphics/SVG/1.1/DTD/svg11.dtd">
<!-- Generated by graphviz version 2.38.0 (20140413.2041)
 -->
<!-- Title: oneDegreeRelationshipsDiagram Pages: 1 -->
<svg width="589pt" height="313pt"
 viewBox="0.00 0.00 589.00 313.00" xmlns="http://www.w3.org/2000/svg" xmlns:xlink="http://www.w3.org/1999/xlink">
<g id="graph0" class="graph" transform="scale(1 1) rotate(0) translate(4 309)">
<title>oneDegreeRelationshipsDiagram</title>
<polygon fill="#ffffff" stroke="none" points="-4,4 -4,-309 585,-309 585,4 -4,4"/>
<text text-anchor="middle" x="74.5" y="-7.2" font-family="Helvetica,sans-Serif" font-size="11.00">Generated by SchemaSpy</text>
<!-- bridged_tokens -->
<g id="node1" class="node"><title>bridged_tokens</title>
<g id="a_node1"><a xlink:href="../../tables/bridged_tokens.html" xlink:title="bridged_tokens" target="_top">
<polygon fill="#ffffff" stroke="none" points="214,-37 214,-301 573,-301 573,-37 214,-37"/>
<polygon fill="#f5f5f5" stroke="none" points="216.5,-277 216.5,-299 571.5,-299 571.5,-277 216.5,-277"/>
<polygon fill="none" stroke="black" points="216.5,-277 216.5,-299 571.5,-299 571.5,-277 216.5,-277"/>
<text text-anchor="start" x="221.5" y="-286.2" font-family="Helvetica,sans-Serif" font-weight="bold" font-size="11.00">bridged_tokens</text>
<text text-anchor="start" x="532.5" y="-285.2" font-family="Helvetica,sans-Serif" font-size="11.00">[table]</text>
<polygon fill="none" stroke="black" points="216.5,-255 216.5,-277 461.5,-277 461.5,-255 216.5,-255"/>
<text text-anchor="start" x="236.5" y="-263.2" font-family="Helvetica,sans-Serif" font-size="11.00">foreign_chain_id</text>
<polygon fill="none" stroke="black" points="461.5,-255 461.5,-277 571.5,-277 571.5,-255 461.5,-255"/>
<text text-anchor="start" x="464.5" y="-263.2" font-family="Helvetica,sans-Serif" font-size="11.00">numeric[131089]</text>
<polygon fill="none" stroke="black" points="216.5,-233 216.5,-255 461.5,-255 461.5,-233 216.5,-233"/>
<text text-anchor="start" x="236.5" y="-241.2" font-family="Helvetica,sans-Serif" font-size="11.00">foreign_token_contract_address_hash</text>
<polygon fill="none" stroke="black" points="461.5,-233 461.5,-255 571.5,-255 571.5,-233 461.5,-233"/>
<text text-anchor="start" x="464.5" y="-241.2" font-family="Helvetica,sans-Serif" font-size="11.00">bytea[2147483647]</text>
<polygon fill="#ffffff" stroke="none" points="216.5,-211 216.5,-233 461.5,-233 461.5,-211 216.5,-211"/>
<polygon fill="none" stroke="black" points="216.5,-211 216.5,-233 461.5,-233 461.5,-211 216.5,-211"/>
<image xlink:href="../../images/foreignKeys.png" width="11px" height="12px" preserveAspectRatio="xMinYMin meet" x="221.5" y="-228"/>
<text text-anchor="start" x="236.5" y="-219.2" font-family="Helvetica,sans-Serif" font-size="11.00">home_token_contract_address_hash</text>
<polygon fill="none" stroke="black" points="461.5,-211 461.5,-233 571.5,-233 571.5,-211 461.5,-211"/>
<text text-anchor="start" x="464.5" y="-219.2" font-family="Helvetica,sans-Serif" font-size="11.00">bytea[2147483647]</text>
<polygon fill="none" stroke="black" points="216.5,-189 216.5,-211 461.5,-211 461.5,-189 216.5,-189"/>
<text text-anchor="start" x="236.5" y="-197.2" font-family="Helvetica,sans-Serif" font-size="11.00">inserted_at</text>
<polygon fill="none" stroke="black" points="461.5,-189 461.5,-211 571.5,-211 571.5,-189 461.5,-189"/>
<text text-anchor="start" x="464.5" y="-197.2" font-family="Helvetica,sans-Serif" font-size="11.00">timestamp[29,6]</text>
<polygon fill="none" stroke="black" points="216.5,-167 216.5,-189 461.5,-189 461.5,-167 216.5,-167"/>
<text text-anchor="start" x="236.5" y="-175.2" font-family="Helvetica,sans-Serif" font-size="11.00">updated_at</text>
<polygon fill="none" stroke="black" points="461.5,-167 461.5,-189 571.5,-189 571.5,-167 461.5,-167"/>
<text text-anchor="start" x="464.5" y="-175.2" font-family="Helvetica,sans-Serif" font-size="11.00">timestamp[29,6]</text>
<polygon fill="none" stroke="black" points="216.5,-145 216.5,-167 461.5,-167 461.5,-145 216.5,-145"/>
<text text-anchor="start" x="236.5" y="-153.2" font-family="Helvetica,sans-Serif" font-size="11.00">custom_metadata</text>
<polygon fill="none" stroke="black" points="461.5,-145 461.5,-167 571.5,-167 571.5,-145 461.5,-145"/>
<text text-anchor="start" x="464.5" y="-153.2" font-family="Helvetica,sans-Serif" font-size="11.00">varchar[255]</text>
<polygon fill="none" stroke="black" points="216.5,-123 216.5,-145 461.5,-145 461.5,-123 216.5,-123"/>
<text text-anchor="start" x="236.5" y="-131.2" font-family="Helvetica,sans-Serif" font-size="11.00">type</text>
<polygon fill="none" stroke="black" points="461.5,-123 461.5,-145 571.5,-145 571.5,-123 461.5,-123"/>
<text text-anchor="start" x="464.5" y="-131.2" font-family="Helvetica,sans-Serif" font-size="11.00">varchar[255]</text>
<polygon fill="none" stroke="black" points="216.5,-101 216.5,-123 461.5,-123 461.5,-101 216.5,-101"/>
<text text-anchor="start" x="236.5" y="-109.2" font-family="Helvetica,sans-Serif" font-size="11.00">exchange_rate</text>
<polygon fill="none" stroke="black" points="461.5,-101 461.5,-123 571.5,-123 571.5,-101 461.5,-101"/>
<text text-anchor="start" x="464.5" y="-109.2" font-family="Helvetica,sans-Serif" font-size="11.00">numeric[131089]</text>
<polygon fill="none" stroke="black" points="216.5,-79 216.5,-101 461.5,-101 461.5,-79 216.5,-79"/>
<text text-anchor="start" x="236.5" y="-87.2" font-family="Helvetica,sans-Serif" font-size="11.00">lp_token</text>
<polygon fill="none" stroke="black" points="461.5,-79 461.5,-101 571.5,-101 571.5,-79 461.5,-79"/>
<text text-anchor="start" x="464.5" y="-87.2" font-family="Helvetica,sans-Serif" font-size="11.00">bool[1]</text>
<polygon fill="none" stroke="black" points="216.5,-57 216.5,-79 461.5,-79 461.5,-57 216.5,-57"/>
<text text-anchor="start" x="236.5" y="-65.2" font-family="Helvetica,sans-Serif" font-size="11.00">custom_cap</text>
<polygon fill="none" stroke="black" points="461.5,-57 461.5,-79 571.5,-79 571.5,-57 461.5,-57"/>
<text text-anchor="start" x="464.5" y="-65.2" font-family="Helvetica,sans-Serif" font-size="11.00">numeric[131089]</text>
<polygon fill="#ffffff" stroke="none" points="216.5,-39 216.5,-57 329.5,-57 329.5,-39 216.5,-39"/>
<polygon fill="none" stroke="black" points="216.5,-39 216.5,-57 329.5,-57 329.5,-39 216.5,-39"/>
<text text-anchor="start" x="219.5" y="-45.2" font-family="Helvetica,sans-Serif" font-size="11.00">&lt; 1</text>
<polygon fill="#ffffff" stroke="none" points="329.5,-39 329.5,-57 461.5,-57 461.5,-39 329.5,-39"/>
<polygon fill="none" stroke="black" points="329.5,-39 329.5,-57 461.5,-57 461.5,-39 329.5,-39"/>
<text text-anchor="start" x="422.5" y="-45.2" font-family="Helvetica,sans-Serif" font-size="11.00">0 rows</text>
<polygon fill="#ffffff" stroke="none" points="461.5,-39 461.5,-57 571.5,-57 571.5,-39 461.5,-39"/>
<polygon fill="none" stroke="black" points="461.5,-39 461.5,-57 571.5,-57 571.5,-39 461.5,-39"/>
<text text-anchor="start" x="551.5" y="-45.2" font-family="Helvetica,sans-Serif" font-size="11.00">0 &gt;</text>
<polygon fill="none" stroke="black" stroke-width="2" points="215,-38 215,-300 572,-300 572,-38 215,-38"/>
</a>
</g>
</g>
<!-- tokens -->
<g id="node2" class="node"><title>tokens</title>
<g id="a_node2"><a xlink:href="../../tables/tokens.html" xlink:title="tokens" target="_top">
<polygon fill="#ffffff" stroke="none" points="8,-175 8,-299 165,-299 165,-175 8,-175"/>
<polygon fill="#f5f5f5" stroke="none" points="8.5,-277 8.5,-299 165.5,-299 165.5,-277 8.5,-277"/>
<polygon fill="none" stroke="black" points="8.5,-277 8.5,-299 165.5,-299 165.5,-277 8.5,-277"/>
<text text-anchor="start" x="13.5" y="-286.2" font-family="Helvetica,sans-Serif" font-weight="bold" font-size="11.00">tokens</text>
<text text-anchor="start" x="126.5" y="-285.2" font-family="Helvetica,sans-Serif" font-size="11.00">[table]</text>
<polygon fill="#ffffff" stroke="none" points="8.5,-255 8.5,-277 165.5,-277 165.5,-255 8.5,-255"/>
<polygon fill="none" stroke="black" points="8.5,-255 8.5,-277 165.5,-277 165.5,-255 8.5,-255"/>
<text text-anchor="start" x="28.5" y="-263.2" font-family="Helvetica,sans-Serif" font-size="11.00">symbol</text>
<polygon fill="#ffffff" stroke="none" points="8.5,-233 8.5,-255 165.5,-255 165.5,-233 8.5,-233"/>
<polygon fill="none" stroke="black" points="8.5,-233 8.5,-255 165.5,-255 165.5,-233 8.5,-233"/>
<text text-anchor="start" x="28.5" y="-241.2" font-family="Helvetica,sans-Serif" font-size="11.00">type</text>
<polygon fill="none" stroke="black" points="8.5,-211 8.5,-233 165.5,-233 165.5,-211 8.5,-211"/>
<image xlink:href="../../images/primaryKeys.png" width="11px" height="12px" preserveAspectRatio="xMinYMin meet" x="13.5" y="-228"/>
<text text-anchor="start" x="28.5" y="-219.2" font-family="Helvetica,sans-Serif" font-size="11.00">contract_address_hash</text>
<polygon fill="none" stroke="black" points="8.5,-193 8.5,-211 165.5,-211 165.5,-193 8.5,-193"/>
<text text-anchor="start" x="11.5" y="-199.2" font-family="Helvetica,sans-Serif" font-size="11.00">...</text>
<polygon fill="#ffffff" stroke="none" points="8.5,-175 8.5,-193 65.5,-193 65.5,-175 8.5,-175"/>
<polygon fill="none" stroke="black" points="8.5,-175 8.5,-193 65.5,-193 65.5,-175 8.5,-175"/>
<text text-anchor="start" x="11.5" y="-181.2" font-family="Helvetica,sans-Serif" font-size="11.00">&lt; 1</text>
<polygon fill="#ffffff" stroke="none" points="65.5,-175 65.5,-193 124.5,-193 124.5,-175 65.5,-175"/>
<polygon fill="none" stroke="black" points="65.5,-175 65.5,-193 124.5,-193 124.5,-175 65.5,-175"/>
<text text-anchor="start" x="85.5" y="-181.2" font-family="Helvetica,sans-Serif" font-size="11.00">0 rows</text>
<polygon fill="#ffffff" stroke="none" points="124.5,-175 124.5,-193 165.5,-193 165.5,-175 124.5,-175"/>
<polygon fill="none" stroke="black" points="124.5,-175 124.5,-193 165.5,-193 165.5,-175 124.5,-175"/>
<text text-anchor="start" x="145.5" y="-181.2" font-family="Helvetica,sans-Serif" font-size="11.00">4 &gt;</text>
</a>
</g>
</g>
<!-- bridged_tokens&#45;&gt;tokens -->
<g id="edge1" class="edge"><title>bridged_tokens:home_token_contract_address_hash:w&#45;&gt;tokens:contract_address_hash:e</title>
<path fill="none" stroke="black" d="M204.757,-222C191.106,-222 184.194,-222 166.5,-222"/>
<polygon fill="black" stroke="black" points="214.7,-218 214.7,-226 213.1,-226 213.1,-218 214.7,-218"/>
<polyline fill="none" stroke="black" points="215.5,-222 211.5,-222 "/>
<ellipse fill="none" stroke="black" cx="208.3" cy="-222" rx="3.2" ry="3.2"/>
</g>
</g>
</svg>
