<?xml version="1.0" encoding="UTF-8" standalone="no"?>
<!DOCTYPE svg PUBLIC "-//W3C//DTD SVG 1.1//EN"
 "http://www.w3.org/Graphics/SVG/1.1/DTD/svg11.dtd">
<!-- Generated by graphviz version 2.38.0 (20140413.2041)
 -->
<!-- Title: twoDegreesRelationshipsDiagram Pages: 1 -->
<svg width="743pt" height="550pt"
 viewBox="0.00 0.00 743.00 550.00" xmlns="http://www.w3.org/2000/svg" xmlns:xlink="http://www.w3.org/1999/xlink">
<g id="graph0" class="graph" transform="scale(1 1) rotate(0) translate(4 546)">
<title>twoDegreesRelationshipsDiagram</title>
<polygon fill="#ffffff" stroke="none" points="-4,4 -4,-546 739,-546 739,4 -4,4"/>
<text text-anchor="middle" x="74.5" y="-7.2" font-family="Helvetica,sans-Serif" font-size="11.00">Generated by SchemaSpy</text>
<!-- address_current_token_balances -->
<g id="node1" class="node"><title>address_current_token_balances</title>
<g id="a_node1"><a xlink:href="../../tables/address_current_token_balances.html" xlink:title="address_current_token_balances" target="_top">
<polygon fill="#ffffff" stroke="none" points="431,-480 431,-538 664,-538 664,-480 431,-480"/>
<polygon fill="#f5f5f5" stroke="none" points="431.5,-516 431.5,-538 664.5,-538 664.5,-516 431.5,-516"/>
<polygon fill="none" stroke="black" points="431.5,-516 431.5,-538 664.5,-538 664.5,-516 431.5,-516"/>
<text text-anchor="start" x="436.5" y="-525.2" font-family="Helvetica,sans-Serif" font-weight="bold" font-size="11.00">address_current_token_balances</text>
<text text-anchor="start" x="625.5" y="-524.2" font-family="Helvetica,sans-Serif" font-size="11.00">[table]</text>
<polygon fill="none" stroke="black" points="431.5,-498 431.5,-516 664.5,-516 664.5,-498 431.5,-498"/>
<text text-anchor="start" x="434.5" y="-504.2" font-family="Helvetica,sans-Serif" font-size="11.00">...</text>
<polygon fill="#ffffff" stroke="none" points="431.5,-480 431.5,-498 531.5,-498 531.5,-480 431.5,-480"/>
<polygon fill="none" stroke="black" points="431.5,-480 431.5,-498 531.5,-498 531.5,-480 431.5,-480"/>
<text text-anchor="start" x="434.5" y="-486.2" font-family="Helvetica,sans-Serif" font-size="11.00">&lt; 2</text>
<polygon fill="#ffffff" stroke="none" points="531.5,-480 531.5,-498 612.5,-498 612.5,-480 531.5,-480"/>
<polygon fill="none" stroke="black" points="531.5,-480 531.5,-498 612.5,-498 612.5,-480 531.5,-480"/>
<text text-anchor="start" x="573.5" y="-486.2" font-family="Helvetica,sans-Serif" font-size="11.00">0 rows</text>
<polygon fill="#ffffff" stroke="none" points="612.5,-480 612.5,-498 664.5,-498 664.5,-480 612.5,-480"/>
<polygon fill="none" stroke="black" points="612.5,-480 612.5,-498 664.5,-498 664.5,-480 612.5,-480"/>
<text text-anchor="start" x="654.5" y="-486.2" font-family="Helvetica,sans-Serif" font-size="11.00"> &#160;</text>
</a>
</g>
</g>
<!-- addresses -->
<g id="node2" class="node"><title>addresses</title>
<g id="a_node2"><a xlink:href="../../tables/addresses.html" xlink:title="addresses" target="_top">
<polygon fill="#ffffff" stroke="none" points="8,-234 8,-292 113,-292 113,-234 8,-234"/>
<polygon fill="#f5f5f5" stroke="none" points="8.5,-270 8.5,-292 113.5,-292 113.5,-270 8.5,-270"/>
<polygon fill="none" stroke="black" points="8.5,-270 8.5,-292 113.5,-292 113.5,-270 8.5,-270"/>
<text text-anchor="start" x="13.5" y="-279.2" font-family="Helvetica,sans-Serif" font-weight="bold" font-size="11.00">addresses</text>
<text text-anchor="start" x="74.5" y="-278.2" font-family="Helvetica,sans-Serif" font-size="11.00">[table]</text>
<polygon fill="none" stroke="black" points="8.5,-252 8.5,-270 113.5,-270 113.5,-252 8.5,-252"/>
<text text-anchor="start" x="11.5" y="-258.2" font-family="Helvetica,sans-Serif" font-size="11.00">...</text>
<polygon fill="#ffffff" stroke="none" points="8.5,-234 8.5,-252 31.5,-252 31.5,-234 8.5,-234"/>
<polygon fill="none" stroke="black" points="8.5,-234 8.5,-252 31.5,-252 31.5,-234 8.5,-234"/>
<text text-anchor="start" x="11.5" y="-240.2" font-family="Helvetica,sans-Serif" font-size="11.00"> &#160;</text>
<polygon fill="#ffffff" stroke="none" points="31.5,-234 31.5,-252 78.5,-252 78.5,-234 31.5,-234"/>
<polygon fill="none" stroke="black" points="31.5,-234 31.5,-252 78.5,-252 78.5,-234 31.5,-234"/>
<text text-anchor="start" x="39.5" y="-240.2" font-family="Helvetica,sans-Serif" font-size="11.00">2 rows</text>
<polygon fill="#ffffff" stroke="none" points="78.5,-234 78.5,-252 113.5,-252 113.5,-234 78.5,-234"/>
<polygon fill="none" stroke="black" points="78.5,-234 78.5,-252 113.5,-252 113.5,-234 78.5,-234"/>
<text text-anchor="start" x="86.5" y="-240.2" font-family="Helvetica,sans-Serif" font-size="11.00">19 &gt;</text>
</a>
</g>
</g>
<!-- address_current_token_balances&#45;&gt;addresses -->
<g id="edge1" class="edge"><title>address_current_token_balances:elipses:w&#45;&gt;addresses:elipses:e</title>
<path fill="none" stroke="black" d="M415.771,-506.066C358.517,-499.366 249.729,-455.796 154,-349 125.385,-317.077 157.37,-261 114.5,-261"/>
<polygon fill="black" stroke="black" points="422.516,-506.494 430.272,-510.593 426.508,-506.747 430.5,-507 430.5,-507 430.5,-507 426.508,-506.747 430.728,-503.407 422.516,-506.494 422.516,-506.494"/>
<ellipse fill="none" stroke="black" cx="419.322" cy="-506.291" rx="3.2" ry="3.2"/>
</g>
<!-- tokens -->
<g id="node3" class="node"><title>tokens</title>
<g id="a_node3"><a xlink:href="../../tables/tokens.html" xlink:title="tokens" target="_top">
<polygon fill="#ffffff" stroke="none" points="162,-214 162,-338 319,-338 319,-214 162,-214"/>
<polygon fill="#f5f5f5" stroke="none" points="162.5,-316 162.5,-338 319.5,-338 319.5,-316 162.5,-316"/>
<polygon fill="none" stroke="black" points="162.5,-316 162.5,-338 319.5,-338 319.5,-316 162.5,-316"/>
<text text-anchor="start" x="167.5" y="-325.2" font-family="Helvetica,sans-Serif" font-weight="bold" font-size="11.00">tokens</text>
<text text-anchor="start" x="280.5" y="-324.2" font-family="Helvetica,sans-Serif" font-size="11.00">[table]</text>
<polygon fill="#ffffff" stroke="none" points="162.5,-294 162.5,-316 319.5,-316 319.5,-294 162.5,-294"/>
<polygon fill="none" stroke="black" points="162.5,-294 162.5,-316 319.5,-316 319.5,-294 162.5,-294"/>
<text text-anchor="start" x="182.5" y="-302.2" font-family="Helvetica,sans-Serif" font-size="11.00">symbol</text>
<polygon fill="#ffffff" stroke="none" points="162.5,-272 162.5,-294 319.5,-294 319.5,-272 162.5,-272"/>
<polygon fill="none" stroke="black" points="162.5,-272 162.5,-294 319.5,-294 319.5,-272 162.5,-272"/>
<text text-anchor="start" x="182.5" y="-280.2" font-family="Helvetica,sans-Serif" font-size="11.00">type</text>
<polygon fill="none" stroke="black" points="162.5,-250 162.5,-272 319.5,-272 319.5,-250 162.5,-250"/>
<image xlink:href="../../images/primaryKeys.png" width="11px" height="12px" preserveAspectRatio="xMinYMin meet" x="167.5" y="-267"/>
<text text-anchor="start" x="182.5" y="-258.2" font-family="Helvetica,sans-Serif" font-size="11.00">contract_address_hash</text>
<polygon fill="none" stroke="black" points="162.5,-232 162.5,-250 319.5,-250 319.5,-232 162.5,-232"/>
<text text-anchor="start" x="165.5" y="-238.2" font-family="Helvetica,sans-Serif" font-size="11.00">...</text>
<polygon fill="#ffffff" stroke="none" points="162.5,-214 162.5,-232 219.5,-232 219.5,-214 162.5,-214"/>
<polygon fill="none" stroke="black" points="162.5,-214 162.5,-232 219.5,-232 219.5,-214 162.5,-214"/>
<text text-anchor="start" x="165.5" y="-220.2" font-family="Helvetica,sans-Serif" font-size="11.00">&lt; 1</text>
<polygon fill="#ffffff" stroke="none" points="219.5,-214 219.5,-232 278.5,-232 278.5,-214 219.5,-214"/>
<polygon fill="none" stroke="black" points="219.5,-214 219.5,-232 278.5,-232 278.5,-214 219.5,-214"/>
<text text-anchor="start" x="239.5" y="-220.2" font-family="Helvetica,sans-Serif" font-size="11.00">0 rows</text>
<polygon fill="#ffffff" stroke="none" points="278.5,-214 278.5,-232 319.5,-232 319.5,-214 278.5,-214"/>
<polygon fill="none" stroke="black" points="278.5,-214 278.5,-232 319.5,-232 319.5,-214 278.5,-214"/>
<text text-anchor="start" x="299.5" y="-220.2" font-family="Helvetica,sans-Serif" font-size="11.00">4 &gt;</text>
</a>
</g>
</g>
<!-- address_current_token_balances&#45;&gt;tokens -->
<g id="edge2" class="edge"><title>address_current_token_balances:elipses:w&#45;&gt;tokens:contract_address_hash:e</title>
<path fill="none" stroke="black" d="M416.059,-506.397C390.785,-504.022 377.927,-494.222 360,-470 331.881,-432.007 367.767,-261 320.5,-261"/>
<polygon fill="black" stroke="black" points="422.507,-506.666 430.35,-510.597 426.503,-506.833 430.5,-507 430.5,-507 430.5,-507 426.503,-506.833 430.65,-503.403 422.507,-506.666 422.507,-506.666"/>
<ellipse fill="none" stroke="black" cx="419.31" cy="-506.533" rx="3.2" ry="3.2"/>
</g>
<!-- tokens&#45;&gt;addresses -->
<g id="edge7" class="edge"><title>tokens:contract_address_hash:w&#45;&gt;addresses:elipses:e</title>
<path fill="none" stroke="black" d="M150.82,-261C137.974,-261 131.309,-261 114.5,-261"/>
<polygon fill="black" stroke="black" points="160.7,-257 160.7,-265 159.1,-265 159.1,-257 160.7,-257"/>
<polyline fill="none" stroke="black" points="161.5,-261 157.5,-261 "/>
<ellipse fill="none" stroke="black" cx="154.3" cy="-261" rx="3.2" ry="3.2"/>
</g>
<!-- address_token_balances -->
<g id="node4" class="node"><title>address_token_balances</title>
<g id="a_node4"><a xlink:href="../../tables/address_token_balances.html" xlink:title="address_token_balances" target="_top">
<polygon fill="#ffffff" stroke="none" points="455,-37 455,-95 640,-95 640,-37 455,-37"/>
<polygon fill="#f5f5f5" stroke="none" points="455.5,-73 455.5,-95 640.5,-95 640.5,-73 455.5,-73"/>
<polygon fill="none" stroke="black" points="455.5,-73 455.5,-95 640.5,-95 640.5,-73 455.5,-73"/>
<text text-anchor="start" x="460.5" y="-82.2" font-family="Helvetica,sans-Serif" font-weight="bold" font-size="11.00">address_token_balances</text>
<text text-anchor="start" x="601.5" y="-81.2" font-family="Helvetica,sans-Serif" font-size="11.00">[table]</text>
<polygon fill="none" stroke="black" points="455.5,-55 455.5,-73 640.5,-73 640.5,-55 455.5,-55"/>
<text text-anchor="start" x="458.5" y="-61.2" font-family="Helvetica,sans-Serif" font-size="11.00">...</text>
<polygon fill="#ffffff" stroke="none" points="455.5,-37 455.5,-55 531.5,-55 531.5,-37 455.5,-37"/>
<polygon fill="none" stroke="black" points="455.5,-37 455.5,-55 531.5,-55 531.5,-37 455.5,-37"/>
<text text-anchor="start" x="458.5" y="-43.2" font-family="Helvetica,sans-Serif" font-size="11.00">&lt; 2</text>
<polygon fill="#ffffff" stroke="none" points="531.5,-37 531.5,-55 600.5,-55 600.5,-37 531.5,-37"/>
<polygon fill="none" stroke="black" points="531.5,-37 531.5,-55 600.5,-55 600.5,-37 531.5,-37"/>
<text text-anchor="start" x="561.5" y="-43.2" font-family="Helvetica,sans-Serif" font-size="11.00">0 rows</text>
<polygon fill="#ffffff" stroke="none" points="600.5,-37 600.5,-55 640.5,-55 640.5,-37 600.5,-37"/>
<polygon fill="none" stroke="black" points="600.5,-37 600.5,-55 640.5,-55 640.5,-37 600.5,-37"/>
<text text-anchor="start" x="630.5" y="-43.2" font-family="Helvetica,sans-Serif" font-size="11.00"> &#160;</text>
</a>
</g>
</g>
<!-- address_token_balances&#45;&gt;addresses -->
<g id="edge3" class="edge"><title>address_token_balances:elipses:w&#45;&gt;addresses:elipses:e</title>
<path fill="none" stroke="black" d="M440.117,-65.7775C381.101,-77.5665 222.493,-145.79 154,-204 130.514,-223.96 145.322,-261 114.5,-261"/>
<polygon fill="black" stroke="black" points="446.56,-64.9813 454.942,-67.5728 450.53,-64.4906 454.5,-64 454.5,-64 454.5,-64 450.53,-64.4906 454.058,-60.4272 446.56,-64.9813 446.56,-64.9813"/>
<ellipse fill="none" stroke="black" cx="443.385" cy="-65.3738" rx="3.2" ry="3.2"/>
</g>
<!-- address_token_balances&#45;&gt;tokens -->
<g id="edge4" class="edge"><title>address_token_balances:elipses:w&#45;&gt;tokens:contract_address_hash:e</title>
<path fill="none" stroke="black" d="M439.867,-64.2958C404.12,-65.9207 386.288,-74.8566 360,-106 314.145,-160.325 391.591,-261 320.5,-261"/>
<polygon fill="black" stroke="black" points="446.502,-64.1618 454.573,-67.5993 450.501,-64.0809 454.5,-64 454.5,-64 454.5,-64 450.501,-64.0809 454.427,-60.4007 446.502,-64.1618 446.502,-64.1618"/>
<ellipse fill="none" stroke="black" cx="443.302" cy="-64.2265" rx="3.2" ry="3.2"/>
</g>
<!-- bridged_tokens -->
<g id="node5" class="node"><title>bridged_tokens</title>
<g id="a_node5"><a xlink:href="../../tables/bridged_tokens.html" xlink:title="bridged_tokens" target="_top">
<polygon fill="#ffffff" stroke="none" points="368,-195 368,-459 727,-459 727,-195 368,-195"/>
<polygon fill="#f5f5f5" stroke="none" points="370.5,-435 370.5,-457 725.5,-457 725.5,-435 370.5,-435"/>
<polygon fill="none" stroke="black" points="370.5,-435 370.5,-457 725.5,-457 725.5,-435 370.5,-435"/>
<text text-anchor="start" x="375.5" y="-444.2" font-family="Helvetica,sans-Serif" font-weight="bold" font-size="11.00">bridged_tokens</text>
<text text-anchor="start" x="686.5" y="-443.2" font-family="Helvetica,sans-Serif" font-size="11.00">[table]</text>
<polygon fill="none" stroke="black" points="370.5,-413 370.5,-435 615.5,-435 615.5,-413 370.5,-413"/>
<text text-anchor="start" x="390.5" y="-421.2" font-family="Helvetica,sans-Serif" font-size="11.00">foreign_chain_id</text>
<polygon fill="none" stroke="black" points="615.5,-413 615.5,-435 725.5,-435 725.5,-413 615.5,-413"/>
<text text-anchor="start" x="618.5" y="-421.2" font-family="Helvetica,sans-Serif" font-size="11.00">numeric[131089]</text>
<polygon fill="none" stroke="black" points="370.5,-391 370.5,-413 615.5,-413 615.5,-391 370.5,-391"/>
<text text-anchor="start" x="390.5" y="-399.2" font-family="Helvetica,sans-Serif" font-size="11.00">foreign_token_contract_address_hash</text>
<polygon fill="none" stroke="black" points="615.5,-391 615.5,-413 725.5,-413 725.5,-391 615.5,-391"/>
<text text-anchor="start" x="618.5" y="-399.2" font-family="Helvetica,sans-Serif" font-size="11.00">bytea[2147483647]</text>
<polygon fill="#ffffff" stroke="none" points="370.5,-369 370.5,-391 615.5,-391 615.5,-369 370.5,-369"/>
<polygon fill="none" stroke="black" points="370.5,-369 370.5,-391 615.5,-391 615.5,-369 370.5,-369"/>
<image xlink:href="../../images/foreignKeys.png" width="11px" height="12px" preserveAspectRatio="xMinYMin meet" x="375.5" y="-386"/>
<text text-anchor="start" x="390.5" y="-377.2" font-family="Helvetica,sans-Serif" font-size="11.00">home_token_contract_address_hash</text>
<polygon fill="none" stroke="black" points="615.5,-369 615.5,-391 725.5,-391 725.5,-369 615.5,-369"/>
<text text-anchor="start" x="618.5" y="-377.2" font-family="Helvetica,sans-Serif" font-size="11.00">bytea[2147483647]</text>
<polygon fill="none" stroke="black" points="370.5,-347 370.5,-369 615.5,-369 615.5,-347 370.5,-347"/>
<text text-anchor="start" x="390.5" y="-355.2" font-family="Helvetica,sans-Serif" font-size="11.00">inserted_at</text>
<polygon fill="none" stroke="black" points="615.5,-347 615.5,-369 725.5,-369 725.5,-347 615.5,-347"/>
<text text-anchor="start" x="618.5" y="-355.2" font-family="Helvetica,sans-Serif" font-size="11.00">timestamp[29,6]</text>
<polygon fill="none" stroke="black" points="370.5,-325 370.5,-347 615.5,-347 615.5,-325 370.5,-325"/>
<text text-anchor="start" x="390.5" y="-333.2" font-family="Helvetica,sans-Serif" font-size="11.00">updated_at</text>
<polygon fill="none" stroke="black" points="615.5,-325 615.5,-347 725.5,-347 725.5,-325 615.5,-325"/>
<text text-anchor="start" x="618.5" y="-333.2" font-family="Helvetica,sans-Serif" font-size="11.00">timestamp[29,6]</text>
<polygon fill="none" stroke="black" points="370.5,-303 370.5,-325 615.5,-325 615.5,-303 370.5,-303"/>
<text text-anchor="start" x="390.5" y="-311.2" font-family="Helvetica,sans-Serif" font-size="11.00">custom_metadata</text>
<polygon fill="none" stroke="black" points="615.5,-303 615.5,-325 725.5,-325 725.5,-303 615.5,-303"/>
<text text-anchor="start" x="618.5" y="-311.2" font-family="Helvetica,sans-Serif" font-size="11.00">varchar[255]</text>
<polygon fill="none" stroke="black" points="370.5,-281 370.5,-303 615.5,-303 615.5,-281 370.5,-281"/>
<text text-anchor="start" x="390.5" y="-289.2" font-family="Helvetica,sans-Serif" font-size="11.00">type</text>
<polygon fill="none" stroke="black" points="615.5,-281 615.5,-303 725.5,-303 725.5,-281 615.5,-281"/>
<text text-anchor="start" x="618.5" y="-289.2" font-family="Helvetica,sans-Serif" font-size="11.00">varchar[255]</text>
<polygon fill="none" stroke="black" points="370.5,-259 370.5,-281 615.5,-281 615.5,-259 370.5,-259"/>
<text text-anchor="start" x="390.5" y="-267.2" font-family="Helvetica,sans-Serif" font-size="11.00">exchange_rate</text>
<polygon fill="none" stroke="black" points="615.5,-259 615.5,-281 725.5,-281 725.5,-259 615.5,-259"/>
<text text-anchor="start" x="618.5" y="-267.2" font-family="Helvetica,sans-Serif" font-size="11.00">numeric[131089]</text>
<polygon fill="none" stroke="black" points="370.5,-237 370.5,-259 615.5,-259 615.5,-237 370.5,-237"/>
<text text-anchor="start" x="390.5" y="-245.2" font-family="Helvetica,sans-Serif" font-size="11.00">lp_token</text>
<polygon fill="none" stroke="black" points="615.5,-237 615.5,-259 725.5,-259 725.5,-237 615.5,-237"/>
<text text-anchor="start" x="618.5" y="-245.2" font-family="Helvetica,sans-Serif" font-size="11.00">bool[1]</text>
<polygon fill="none" stroke="black" points="370.5,-215 370.5,-237 615.5,-237 615.5,-215 370.5,-215"/>
<text text-anchor="start" x="390.5" y="-223.2" font-family="Helvetica,sans-Serif" font-size="11.00">custom_cap</text>
<polygon fill="none" stroke="black" points="615.5,-215 615.5,-237 725.5,-237 725.5,-215 615.5,-215"/>
<text text-anchor="start" x="618.5" y="-223.2" font-family="Helvetica,sans-Serif" font-size="11.00">numeric[131089]</text>
<polygon fill="#ffffff" stroke="none" points="370.5,-197 370.5,-215 483.5,-215 483.5,-197 370.5,-197"/>
<polygon fill="none" stroke="black" points="370.5,-197 370.5,-215 483.5,-215 483.5,-197 370.5,-197"/>
<text text-anchor="start" x="373.5" y="-203.2" font-family="Helvetica,sans-Serif" font-size="11.00">&lt; 1</text>
<polygon fill="#ffffff" stroke="none" points="483.5,-197 483.5,-215 615.5,-215 615.5,-197 483.5,-197"/>
<polygon fill="none" stroke="black" points="483.5,-197 483.5,-215 615.5,-215 615.5,-197 483.5,-197"/>
<text text-anchor="start" x="576.5" y="-203.2" font-family="Helvetica,sans-Serif" font-size="11.00">0 rows</text>
<polygon fill="#ffffff" stroke="none" points="615.5,-197 615.5,-215 725.5,-215 725.5,-197 615.5,-197"/>
<polygon fill="none" stroke="black" points="615.5,-197 615.5,-215 725.5,-215 725.5,-197 615.5,-197"/>
<text text-anchor="start" x="705.5" y="-203.2" font-family="Helvetica,sans-Serif" font-size="11.00">0 &gt;</text>
<polygon fill="none" stroke="black" stroke-width="2" points="369,-196 369,-458 726,-458 726,-196 369,-196"/>
</a>
</g>
</g>
<!-- bridged_tokens&#45;&gt;tokens -->
<g id="edge5" class="edge"><title>bridged_tokens:home_token_contract_address_hash:w&#45;&gt;tokens:contract_address_hash:e</title>
<path fill="none" stroke="black" d="M359.168,-378.318C320.893,-363.854 373.675,-261 320.5,-261"/>
<polygon fill="black" stroke="black" points="369.353,-375.923 368.068,-383.819 366.488,-383.562 367.774,-375.666 369.353,-375.923"/>
<polyline fill="none" stroke="black" points="369.5,-380 365.552,-379.357 "/>
<ellipse fill="none" stroke="black" cx="362.394" cy="-378.843" rx="3.2" ry="3.2"/>
</g>
<!-- token_instances -->
<g id="node6" class="node"><title>token_instances</title>
<g id="a_node6"><a xlink:href="../../tables/token_instances.html" xlink:title="token_instances" target="_top">
<polygon fill="#ffffff" stroke="none" points="477.5,-116 477.5,-174 617.5,-174 617.5,-116 477.5,-116"/>
<polygon fill="#f5f5f5" stroke="none" points="477.5,-152 477.5,-174 617.5,-174 617.5,-152 477.5,-152"/>
<polygon fill="none" stroke="black" points="477.5,-152 477.5,-174 617.5,-174 617.5,-152 477.5,-152"/>
<text text-anchor="start" x="482.5" y="-161.2" font-family="Helvetica,sans-Serif" font-weight="bold" font-size="11.00">token_instances</text>
<text text-anchor="start" x="578.5" y="-160.2" font-family="Helvetica,sans-Serif" font-size="11.00">[table]</text>
<polygon fill="none" stroke="black" points="477.5,-134 477.5,-152 617.5,-152 617.5,-134 477.5,-134"/>
<text text-anchor="start" x="480.5" y="-140.2" font-family="Helvetica,sans-Serif" font-size="11.00">...</text>
<polygon fill="#ffffff" stroke="none" points="477.5,-116 477.5,-134 531.5,-134 531.5,-116 477.5,-116"/>
<polygon fill="none" stroke="black" points="477.5,-116 477.5,-134 531.5,-134 531.5,-116 477.5,-116"/>
<text text-anchor="start" x="480.5" y="-122.2" font-family="Helvetica,sans-Serif" font-size="11.00">&lt; 1</text>
<polygon fill="#ffffff" stroke="none" points="531.5,-116 531.5,-134 588.5,-134 588.5,-116 531.5,-116"/>
<polygon fill="none" stroke="black" points="531.5,-116 531.5,-134 588.5,-134 588.5,-116 531.5,-116"/>
<text text-anchor="start" x="549.5" y="-122.2" font-family="Helvetica,sans-Serif" font-size="11.00">0 rows</text>
<polygon fill="#ffffff" stroke="none" points="588.5,-116 588.5,-134 617.5,-134 617.5,-116 588.5,-116"/>
<polygon fill="none" stroke="black" points="588.5,-116 588.5,-134 617.5,-134 617.5,-116 588.5,-116"/>
<text text-anchor="start" x="607.5" y="-122.2" font-family="Helvetica,sans-Serif" font-size="11.00"> &#160;</text>
</a>
</g>
</g>
<!-- token_instances&#45;&gt;tokens -->
<g id="edge6" class="edge"><title>token_instances:elipses:w&#45;&gt;tokens:contract_address_hash:e</title>
<path fill="none" stroke="black" d="M461.897,-143.172C417.516,-144.348 397.541,-152.157 360,-185 331.349,-210.065 358.568,-261 320.5,-261"/>
<polygon fill="black" stroke="black" points="468.501,-143.094 476.542,-146.6 472.5,-143.047 476.5,-143 476.5,-143 476.5,-143 472.5,-143.047 476.458,-139.4 468.501,-143.094 468.501,-143.094"/>
<ellipse fill="none" stroke="black" cx="465.301" cy="-143.132" rx="3.2" ry="3.2"/>
</g>
</g>
</svg>
