<?xml version="1.0" encoding="UTF-8" standalone="no"?>
<!DOCTYPE svg PUBLIC "-//W3C//DTD SVG 1.1//EN"
 "http://www.w3.org/Graphics/SVG/1.1/DTD/svg11.dtd">
<!-- Generated by graphviz version 9.0.0 (20230911.1827)
 -->
<!-- Title: oneDegreeRelationshipsDiagram Pages: 1 -->
<svg width="195pt" height="181pt"
 viewBox="0.00 0.00 195.00 181.00" xmlns="http://www.w3.org/2000/svg" xmlns:xlink="http://www.w3.org/1999/xlink">
<g id="graph0" class="graph" transform="scale(1 1) rotate(0) translate(4 177)">
<title>oneDegreeRelationshipsDiagram</title>
<polygon fill="#ffffff" stroke="none" points="-4,4 -4,-177 191,-177 191,4 -4,4"/>
<text text-anchor="middle" x="71.38" y="-5.55" font-family="Helvetica,sans-Serif" font-size="11.00">Generated by SchemaSpy</text>
<!-- constants -->
<g id="node1" class="node">
<title>constants</title>
<g id="a_node1"><a xlink:href="../../tables/constants.html" xlink:title="constants" target="_top">
<polygon fill="#ffffff" stroke="none" points="8,-37 8,-169 179,-169 179,-37 8,-37"/>
<polygon fill="#f5f5f5" stroke="none" points="10,-145 10,-167 177,-167 177,-145 10,-145"/>
<polygon fill="none" stroke="black" points="10,-145 10,-167 177,-167 177,-145 10,-145"/>
<text text-anchor="start" x="15" y="-152.55" font-family="Helvetica,sans-Serif" font-weight="bold" font-size="11.00">constants</text>
<text text-anchor="start" x="142.75" y="-151.55" font-family="Helvetica,sans-Serif" font-size="11.00">[table]</text>
<polygon fill="none" stroke="black" points="10,-123 10,-145 95,-145 95,-123 10,-123"/>
<image xlink:href="../../images/primaryKeys.png" width="11px" height="12px" preserveAspectRatio="xMinYMin meet" x="15" y="-140"/>
<text text-anchor="start" x="30" y="-129.55" font-family="Helvetica,sans-Serif" font-size="11.00">key</text>
<polygon fill="none" stroke="black" points="95,-123 95,-145 177,-145 177,-123 95,-123"/>
<text text-anchor="start" x="98" y="-129.55" font-family="Helvetica,sans-Serif" font-size="11.00">varchar[255]</text>
<polygon fill="none" stroke="black" points="10,-101 10,-123 95,-123 95,-101 10,-101"/>
<text text-anchor="start" x="30" y="-107.55" font-family="Helvetica,sans-Serif" font-size="11.00">value</text>
<polygon fill="none" stroke="black" points="95,-101 95,-123 177,-123 177,-101 95,-101"/>
<text text-anchor="start" x="98" y="-107.55" font-family="Helvetica,sans-Serif" font-size="11.00">varchar[255]</text>
<polygon fill="none" stroke="black" points="10,-79 10,-101 95,-101 95,-79 10,-79"/>
<text text-anchor="start" x="30" y="-85.55" font-family="Helvetica,sans-Serif" font-size="11.00">inserted_at</text>
<polygon fill="none" stroke="black" points="95,-79 95,-101 177,-101 177,-79 95,-79"/>
<text text-anchor="start" x="97.75" y="-85.55" font-family="Helvetica,sans-Serif" font-size="11.00">timestamp[29,6]</text>
<polygon fill="none" stroke="black" points="10,-57 10,-79 95,-79 95,-57 10,-57"/>
<text text-anchor="start" x="30" y="-63.55" font-family="Helvetica,sans-Serif" font-size="11.00">updated_at</text>
<polygon fill="none" stroke="black" points="95,-57 95,-79 177,-79 177,-57 95,-57"/>
<text text-anchor="start" x="97.75" y="-63.55" font-family="Helvetica,sans-Serif" font-size="11.00">timestamp[29,6]</text>
<polygon fill="#ffffff" stroke="none" points="10,-39 10,-57 57,-57 57,-39 10,-39"/>
<polygon fill="none" stroke="black" points="10,-39 10,-57 57,-57 57,-39 10,-39"/>
<text text-anchor="start" x="13" y="-43.55" font-family="Helvetica,sans-Serif" font-size="11.00">&lt; 0</text>
<polygon fill="#ffffff" stroke="none" points="57,-39 57,-57 95,-57 95,-39 57,-39"/>
<polygon fill="none" stroke="black" points="57,-39 57,-57 95,-57 95,-39 57,-39"/>
<text text-anchor="start" x="86" y="-43.55" font-family="Helvetica,sans-Serif" font-size="11.00"> &#160;</text>
<polygon fill="#ffffff" stroke="none" points="95,-39 95,-57 177,-57 177,-39 95,-39"/>
<polygon fill="none" stroke="black" points="95,-39 95,-57 177,-57 177,-39 95,-39"/>
<text text-anchor="start" x="158.25" y="-43.55" font-family="Helvetica,sans-Serif" font-size="11.00">0 &gt;</text>
<polygon fill="none" stroke="black" stroke-width="2" points="9,-38 9,-168 178,-168 178,-38 9,-38"/>
</a>
</g>
</g>
</g>
</svg>
