<?xml version="1.0" encoding="UTF-8" standalone="no"?>
<!DOCTYPE svg PUBLIC "-//W3C//DTD SVG 1.1//EN"
 "http://www.w3.org/Graphics/SVG/1.1/DTD/svg11.dtd">
<!-- Generated by graphviz version 9.0.0 (20230911.1827)
 -->
<!-- Title: oneDegreeRelationshipsDiagram Pages: 1 -->
<svg width="250pt" height="225pt"
 viewBox="0.00 0.00 250.00 225.00" xmlns="http://www.w3.org/2000/svg" xmlns:xlink="http://www.w3.org/1999/xlink">
<g id="graph0" class="graph" transform="scale(1 1) rotate(0) translate(4 221)">
<title>oneDegreeRelationshipsDiagram</title>
<polygon fill="#ffffff" stroke="none" points="-4,4 -4,-221 246,-221 246,4 -4,4"/>
<text text-anchor="middle" x="71.38" y="-5.55" font-family="Helvetica,sans-Serif" font-size="11.00">Generated by SchemaSpy</text>
<!-- contract_methods -->
<g id="node1" class="node">
<title>contract_methods</title>
<g id="a_node1"><a xlink:href="../../tables/contract_methods.html" xlink:title="contract_methods" target="_top">
<polygon fill="#ffffff" stroke="none" points="8,-37 8,-213 234,-213 234,-37 8,-37"/>
<polygon fill="#f5f5f5" stroke="none" points="10,-189 10,-211 232,-211 232,-189 10,-189"/>
<polygon fill="none" stroke="black" points="10,-189 10,-211 232,-211 232,-189 10,-189"/>
<text text-anchor="start" x="15" y="-196.55" font-family="Helvetica,sans-Serif" font-weight="bold" font-size="11.00">contract_methods</text>
<text text-anchor="start" x="197.75" y="-195.55" font-family="Helvetica,sans-Serif" font-size="11.00">[table]</text>
<polygon fill="none" stroke="black" points="10,-167 10,-189 135,-189 135,-167 10,-167"/>
<image xlink:href="../../images/primaryKeys.png" width="11px" height="12px" preserveAspectRatio="xMinYMin meet" x="15" y="-184"/>
<text text-anchor="start" x="30" y="-173.55" font-family="Helvetica,sans-Serif" font-size="11.00">id</text>
<polygon fill="none" stroke="black" points="135,-167 135,-189 232,-189 232,-167 135,-167"/>
<text text-anchor="start" x="138" y="-173.55" font-family="Helvetica,sans-Serif" font-size="11.00">bigserial[19]</text>
<polygon fill="#ffffff" stroke="none" points="10,-145 10,-167 135,-167 135,-145 10,-145"/>
<polygon fill="none" stroke="black" points="10,-145 10,-167 135,-167 135,-145 10,-145"/>
<text text-anchor="start" x="30" y="-151.55" font-family="Helvetica,sans-Serif" font-size="11.00">identifier</text>
<polygon fill="none" stroke="black" points="135,-145 135,-167 232,-167 232,-145 135,-145"/>
<text text-anchor="start" x="138" y="-151.55" font-family="Helvetica,sans-Serif" font-size="11.00">int4[10]</text>
<polygon fill="#ffffff" stroke="none" points="10,-123 10,-145 135,-145 135,-123 10,-123"/>
<polygon fill="none" stroke="black" points="10,-123 10,-145 135,-145 135,-123 10,-123"/>
<text text-anchor="start" x="30" y="-129.55" font-family="Helvetica,sans-Serif" font-size="11.00">abi</text>
<polygon fill="none" stroke="black" points="135,-123 135,-145 232,-145 232,-123 135,-123"/>
<text text-anchor="start" x="137.75" y="-129.55" font-family="Helvetica,sans-Serif" font-size="11.00">jsonb[2147483647]</text>
<polygon fill="none" stroke="black" points="10,-101 10,-123 135,-123 135,-101 10,-101"/>
<text text-anchor="start" x="30" y="-107.55" font-family="Helvetica,sans-Serif" font-size="11.00">type</text>
<polygon fill="none" stroke="black" points="135,-101 135,-123 232,-123 232,-101 135,-101"/>
<text text-anchor="start" x="138" y="-107.55" font-family="Helvetica,sans-Serif" font-size="11.00">varchar[255]</text>
<polygon fill="none" stroke="black" points="10,-79 10,-101 135,-101 135,-79 10,-79"/>
<text text-anchor="start" x="30" y="-85.55" font-family="Helvetica,sans-Serif" font-size="11.00">inserted_at</text>
<polygon fill="none" stroke="black" points="135,-79 135,-101 232,-101 232,-79 135,-79"/>
<text text-anchor="start" x="138" y="-85.55" font-family="Helvetica,sans-Serif" font-size="11.00">timestamp[29,6]</text>
<polygon fill="none" stroke="black" points="10,-57 10,-79 135,-79 135,-57 10,-57"/>
<text text-anchor="start" x="30" y="-63.55" font-family="Helvetica,sans-Serif" font-size="11.00">updated_at</text>
<polygon fill="none" stroke="black" points="135,-57 135,-79 232,-79 232,-57 135,-57"/>
<text text-anchor="start" x="138" y="-63.55" font-family="Helvetica,sans-Serif" font-size="11.00">timestamp[29,6]</text>
<polygon fill="#ffffff" stroke="none" points="10,-39 10,-57 77,-57 77,-39 10,-39"/>
<polygon fill="none" stroke="black" points="10,-39 10,-57 77,-57 77,-39 10,-39"/>
<text text-anchor="start" x="13" y="-43.55" font-family="Helvetica,sans-Serif" font-size="11.00">&lt; 0</text>
<polygon fill="#ffffff" stroke="none" points="77,-39 77,-57 135,-57 135,-39 77,-39"/>
<polygon fill="none" stroke="black" points="77,-39 77,-57 135,-57 135,-39 77,-39"/>
<text text-anchor="start" x="126" y="-43.55" font-family="Helvetica,sans-Serif" font-size="11.00"> &#160;</text>
<polygon fill="#ffffff" stroke="none" points="135,-39 135,-57 232,-57 232,-39 135,-39"/>
<polygon fill="none" stroke="black" points="135,-39 135,-57 232,-57 232,-39 135,-39"/>
<text text-anchor="start" x="213.25" y="-43.55" font-family="Helvetica,sans-Serif" font-size="11.00">0 &gt;</text>
<polygon fill="none" stroke="black" stroke-width="2" points="9,-38 9,-212 233,-212 233,-38 9,-38"/>
</a>
</g>
</g>
</g>
</svg>
