<?xml version="1.0" encoding="UTF-8" standalone="no"?>
<!DOCTYPE svg PUBLIC "-//W3C//DTD SVG 1.1//EN"
 "http://www.w3.org/Graphics/SVG/1.1/DTD/svg11.dtd">
<!-- Generated by graphviz version 9.0.0 (20230911.1827)
 -->
<!-- Title: oneDegreeRelationshipsDiagram Pages: 1 -->
<svg width="307pt" height="203pt"
 viewBox="0.00 0.00 307.00 203.00" xmlns="http://www.w3.org/2000/svg" xmlns:xlink="http://www.w3.org/1999/xlink">
<g id="graph0" class="graph" transform="scale(1 1) rotate(0) translate(4 199)">
<title>oneDegreeRelationshipsDiagram</title>
<polygon fill="#ffffff" stroke="none" points="-4,4 -4,-199 303,-199 303,4 -4,4"/>
<text text-anchor="middle" x="71.38" y="-5.55" font-family="Helvetica,sans-Serif" font-size="11.00">Generated by SchemaSpy</text>
<!-- contract_verification_status -->
<g id="node1" class="node">
<title>contract_verification_status</title>
<g id="a_node1"><a xlink:href="../../tables/contract_verification_status.html" xlink:title="contract_verification_status" target="_top">
<polygon fill="#ffffff" stroke="none" points="8,-37 8,-191 291,-191 291,-37 8,-37"/>
<polygon fill="#f5f5f5" stroke="none" points="10,-167 10,-189 289,-189 289,-167 10,-167"/>
<polygon fill="none" stroke="black" points="10,-167 10,-189 289,-189 289,-167 10,-167"/>
<text text-anchor="start" x="15" y="-174.55" font-family="Helvetica,sans-Serif" font-weight="bold" font-size="11.00">contract_verification_status</text>
<text text-anchor="start" x="254.75" y="-173.55" font-family="Helvetica,sans-Serif" font-size="11.00">[table]</text>
<polygon fill="none" stroke="black" points="10,-145 10,-167 191,-167 191,-145 10,-145"/>
<image xlink:href="../../images/primaryKeys.png" width="11px" height="12px" preserveAspectRatio="xMinYMin meet" x="15" y="-162"/>
<text text-anchor="start" x="30" y="-151.55" font-family="Helvetica,sans-Serif" font-size="11.00">uid</text>
<polygon fill="none" stroke="black" points="191,-145 191,-167 289,-167 289,-145 191,-145"/>
<text text-anchor="start" x="194" y="-151.55" font-family="Helvetica,sans-Serif" font-size="11.00">varchar[64]</text>
<polygon fill="none" stroke="black" points="10,-123 10,-145 191,-145 191,-123 10,-123"/>
<text text-anchor="start" x="30" y="-129.55" font-family="Helvetica,sans-Serif" font-size="11.00">status</text>
<polygon fill="none" stroke="black" points="191,-123 191,-145 289,-145 289,-123 191,-123"/>
<text text-anchor="start" x="194" y="-129.55" font-family="Helvetica,sans-Serif" font-size="11.00">int2[5]</text>
<polygon fill="none" stroke="black" points="10,-101 10,-123 191,-123 191,-101 10,-101"/>
<text text-anchor="start" x="30" y="-107.55" font-family="Helvetica,sans-Serif" font-size="11.00">address_hash</text>
<polygon fill="none" stroke="black" points="191,-101 191,-123 289,-123 289,-101 191,-101"/>
<text text-anchor="start" x="193.88" y="-107.55" font-family="Helvetica,sans-Serif" font-size="11.00">bytea[2147483647]</text>
<polygon fill="none" stroke="black" points="10,-79 10,-101 191,-101 191,-79 10,-79"/>
<text text-anchor="start" x="30" y="-85.55" font-family="Helvetica,sans-Serif" font-size="11.00">inserted_at</text>
<polygon fill="none" stroke="black" points="191,-79 191,-101 289,-101 289,-79 191,-79"/>
<text text-anchor="start" x="194" y="-85.55" font-family="Helvetica,sans-Serif" font-size="11.00">timestamp[29,6]</text>
<polygon fill="none" stroke="black" points="10,-57 10,-79 191,-79 191,-57 10,-57"/>
<text text-anchor="start" x="30" y="-63.55" font-family="Helvetica,sans-Serif" font-size="11.00">updated_at</text>
<polygon fill="none" stroke="black" points="191,-57 191,-79 289,-79 289,-57 191,-57"/>
<text text-anchor="start" x="194" y="-63.55" font-family="Helvetica,sans-Serif" font-size="11.00">timestamp[29,6]</text>
<polygon fill="#ffffff" stroke="none" points="10,-39 10,-57 105,-57 105,-39 10,-39"/>
<polygon fill="none" stroke="black" points="10,-39 10,-57 105,-57 105,-39 10,-39"/>
<text text-anchor="start" x="13" y="-43.55" font-family="Helvetica,sans-Serif" font-size="11.00">&lt; 0</text>
<polygon fill="#ffffff" stroke="none" points="105,-39 105,-57 191,-57 191,-39 105,-39"/>
<polygon fill="none" stroke="black" points="105,-39 105,-57 191,-57 191,-39 105,-39"/>
<text text-anchor="start" x="182" y="-43.55" font-family="Helvetica,sans-Serif" font-size="11.00"> &#160;</text>
<polygon fill="#ffffff" stroke="none" points="191,-39 191,-57 289,-57 289,-39 191,-39"/>
<polygon fill="none" stroke="black" points="191,-39 191,-57 289,-57 289,-39 191,-39"/>
<text text-anchor="start" x="270.25" y="-43.55" font-family="Helvetica,sans-Serif" font-size="11.00">0 &gt;</text>
<polygon fill="none" stroke="black" stroke-width="2" points="9,-38 9,-190 290,-190 290,-38 9,-38"/>
</a>
</g>
</g>
</g>
</svg>
