<?xml version="1.0" encoding="UTF-8" standalone="no"?>
<!DOCTYPE svg PUBLIC "-//W3C//DTD SVG 1.1//EN"
 "http://www.w3.org/Graphics/SVG/1.1/DTD/svg11.dtd">
<!-- Generated by graphviz version 2.43.0 (0)
 -->
<!-- Title: oneDegreeRelationshipsDiagram Pages: 1 -->
<svg width="292pt" height="225pt"
 viewBox="0.00 0.00 292.00 225.00" xmlns="http://www.w3.org/2000/svg" xmlns:xlink="http://www.w3.org/1999/xlink">
<g id="graph0" class="graph" transform="scale(1 1) rotate(0) translate(4 221)">
<title>oneDegreeRelationshipsDiagram</title>
<polygon fill="#ffffff" stroke="transparent" points="-4,4 -4,-221 288,-221 288,4 -4,4"/>
<text text-anchor="middle" x="79.5" y="-7.2" font-family="Helvetica,sans-Serif" font-size="11.00">Generated by SchemaSpy</text>
<!-- contract_methods -->
<g id="node1" class="node">
<title>contract_methods</title>
<g id="a_node1"><a xlink:href="../../tables/contract_methods.html" xlink:title="contract_methods" target="_top">
<polygon fill="#ffffff" stroke="transparent" points="8,-37 8,-213 276,-213 276,-37 8,-37"/>
<polygon fill="#f5f5f5" stroke="transparent" points="10,-189 10,-211 274,-211 274,-189 10,-189"/>
<polygon fill="none" stroke="black" points="10,-189 10,-211 274,-211 274,-189 10,-189"/>
<text text-anchor="start" x="15" y="-198.2" font-family="Helvetica,sans-Serif" font-weight="bold" font-size="11.00">contract_methods</text>
<text text-anchor="start" x="232" y="-197.2" font-family="Helvetica,sans-Serif" font-size="11.00">[table]</text>
<polygon fill="none" stroke="black" points="10,-167 10,-189 162,-189 162,-167 10,-167"/>
<image xlink:href="../../images/primaryKeys.png" width="11px" height="12px" preserveAspectRatio="xMinYMin meet" x="15" y="-184"/>
<text text-anchor="start" x="30" y="-175.2" font-family="Helvetica,sans-Serif" font-size="11.00">id</text>
<polygon fill="none" stroke="black" points="162,-167 162,-189 274,-189 274,-167 162,-167"/>
<text text-anchor="start" x="165" y="-175.2" font-family="Helvetica,sans-Serif" font-size="11.00">bigserial[19]</text>
<polygon fill="#ffffff" stroke="transparent" points="10,-145 10,-167 162,-167 162,-145 10,-145"/>
<polygon fill="none" stroke="black" points="10,-145 10,-167 162,-167 162,-145 10,-145"/>
<text text-anchor="start" x="30" y="-153.2" font-family="Helvetica,sans-Serif" font-size="11.00">identifier</text>
<polygon fill="none" stroke="black" points="162,-145 162,-167 274,-167 274,-145 162,-145"/>
<text text-anchor="start" x="165" y="-153.2" font-family="Helvetica,sans-Serif" font-size="11.00">int4[10]</text>
<polygon fill="#ffffff" stroke="transparent" points="10,-123 10,-145 162,-145 162,-123 10,-123"/>
<polygon fill="none" stroke="black" points="10,-123 10,-145 162,-145 162,-123 10,-123"/>
<text text-anchor="start" x="30" y="-131.2" font-family="Helvetica,sans-Serif" font-size="11.00">abi</text>
<polygon fill="none" stroke="black" points="162,-123 162,-145 274,-145 274,-123 162,-123"/>
<text text-anchor="start" x="165" y="-131.2" font-family="Helvetica,sans-Serif" font-size="11.00">jsonb[2147483647]</text>
<polygon fill="none" stroke="black" points="10,-101 10,-123 162,-123 162,-101 10,-101"/>
<text text-anchor="start" x="30" y="-109.2" font-family="Helvetica,sans-Serif" font-size="11.00">type</text>
<polygon fill="none" stroke="black" points="162,-101 162,-123 274,-123 274,-101 162,-101"/>
<text text-anchor="start" x="165" y="-109.2" font-family="Helvetica,sans-Serif" font-size="11.00">varchar[255]</text>
<polygon fill="#ffffff" stroke="transparent" points="10,-79 10,-101 162,-101 162,-79 10,-79"/>
<polygon fill="none" stroke="black" points="10,-79 10,-101 162,-101 162,-79 10,-79"/>
<text text-anchor="start" x="30" y="-87.2" font-family="Helvetica,sans-Serif" font-size="11.00">inserted_at</text>
<polygon fill="none" stroke="black" points="162,-79 162,-101 274,-101 274,-79 162,-79"/>
<text text-anchor="start" x="165" y="-87.2" font-family="Helvetica,sans-Serif" font-size="11.00">timestamp[29,6]</text>
<polygon fill="none" stroke="black" points="10,-57 10,-79 162,-79 162,-57 10,-57"/>
<text text-anchor="start" x="30" y="-65.2" font-family="Helvetica,sans-Serif" font-size="11.00">updated_at</text>
<polygon fill="none" stroke="black" points="162,-57 162,-79 274,-79 274,-57 162,-57"/>
<text text-anchor="start" x="165" y="-65.2" font-family="Helvetica,sans-Serif" font-size="11.00">timestamp[29,6]</text>
<polygon fill="#ffffff" stroke="transparent" points="10,-39 10,-57 274,-57 274,-39 10,-39"/>
<polygon fill="none" stroke="black" points="10,-39 10,-57 274,-57 274,-39 10,-39"/>
<polygon fill="#ffffff" stroke="transparent" points="11,-40 11,-56 103,-56 103,-40 11,-40"/>
<text text-anchor="start" x="13" y="-45.2" font-family="Helvetica,sans-Serif" font-size="11.00">&lt; 0</text>
<polygon fill="#ffffff" stroke="transparent" points="103,-40 103,-56 182,-56 182,-40 103,-40"/>
<text text-anchor="start" x="138.5" y="-45.2" font-family="Helvetica,sans-Serif" font-size="11.00"> &#160;</text>
<polygon fill="#ffffff" stroke="transparent" points="182,-40 182,-56 273,-56 273,-40 182,-40"/>
<text text-anchor="start" x="251" y="-45.2" font-family="Helvetica,sans-Serif" font-size="11.00">0 &gt;</text>
<polygon fill="black" stroke="black" points="103,-40 103,-56 103,-56 103,-40 103,-40"/>
<polygon fill="black" stroke="black" points="182,-40 182,-56 182,-56 182,-40 182,-40"/>
<polygon fill="none" stroke="black" stroke-width="2" points="9,-38 9,-212 275,-212 275,-38 9,-38"/>
</a>
</g>
</g>
</g>
</svg>
