<?xml version="1.0" encoding="UTF-8" standalone="no"?>
<!DOCTYPE svg PUBLIC "-//W3C//DTD SVG 1.1//EN"
 "http://www.w3.org/Graphics/SVG/1.1/DTD/svg11.dtd">
<!-- Generated by graphviz version 2.43.0 (0)
 -->
<!-- Title: oneDegreeRelationshipsDiagram Pages: 1 -->
<svg width="367pt" height="203pt"
 viewBox="0.00 0.00 367.00 203.00" xmlns="http://www.w3.org/2000/svg" xmlns:xlink="http://www.w3.org/1999/xlink">
<g id="graph0" class="graph" transform="scale(1 1) rotate(0) translate(4 199)">
<title>oneDegreeRelationshipsDiagram</title>
<polygon fill="#ffffff" stroke="transparent" points="-4,4 -4,-199 363,-199 363,4 -4,4"/>
<text text-anchor="middle" x="79.5" y="-7.2" font-family="Helvetica,sans-Serif" font-size="11.00">Generated by SchemaSpy</text>
<!-- contract_verification_status -->
<g id="node1" class="node">
<title>contract_verification_status</title>
<g id="a_node1"><a xlink:href="../../tables/contract_verification_status.html" xlink:title="contract_verification_status" target="_top">
<polygon fill="#ffffff" stroke="transparent" points="8,-37 8,-191 351,-191 351,-37 8,-37"/>
<polygon fill="#f5f5f5" stroke="transparent" points="10.5,-167 10.5,-189 349.5,-189 349.5,-167 10.5,-167"/>
<polygon fill="none" stroke="black" points="10.5,-167 10.5,-189 349.5,-189 349.5,-167 10.5,-167"/>
<text text-anchor="start" x="15.5" y="-176.2" font-family="Helvetica,sans-Serif" font-weight="bold" font-size="11.00">contract_verification_status</text>
<text text-anchor="start" x="307.5" y="-175.2" font-family="Helvetica,sans-Serif" font-size="11.00">[table]</text>
<polygon fill="none" stroke="black" points="10.5,-145 10.5,-167 234.5,-167 234.5,-145 10.5,-145"/>
<image xlink:href="../../images/primaryKeys.png" width="11px" height="12px" preserveAspectRatio="xMinYMin meet" x="15.5" y="-162"/>
<text text-anchor="start" x="30.5" y="-153.2" font-family="Helvetica,sans-Serif" font-size="11.00">uid</text>
<polygon fill="none" stroke="black" points="234.5,-145 234.5,-167 349.5,-167 349.5,-145 234.5,-145"/>
<text text-anchor="start" x="237.5" y="-153.2" font-family="Helvetica,sans-Serif" font-size="11.00">varchar[64]</text>
<polygon fill="none" stroke="black" points="10.5,-123 10.5,-145 234.5,-145 234.5,-123 10.5,-123"/>
<text text-anchor="start" x="30.5" y="-131.2" font-family="Helvetica,sans-Serif" font-size="11.00">status</text>
<polygon fill="none" stroke="black" points="234.5,-123 234.5,-145 349.5,-145 349.5,-123 234.5,-123"/>
<text text-anchor="start" x="237.5" y="-131.2" font-family="Helvetica,sans-Serif" font-size="11.00">int2[5]</text>
<polygon fill="none" stroke="black" points="10.5,-101 10.5,-123 234.5,-123 234.5,-101 10.5,-101"/>
<text text-anchor="start" x="30.5" y="-109.2" font-family="Helvetica,sans-Serif" font-size="11.00">address_hash</text>
<polygon fill="none" stroke="black" points="234.5,-101 234.5,-123 349.5,-123 349.5,-101 234.5,-101"/>
<text text-anchor="start" x="237.5" y="-109.2" font-family="Helvetica,sans-Serif" font-size="11.00">bytea[2147483647]</text>
<polygon fill="none" stroke="black" points="10.5,-79 10.5,-101 234.5,-101 234.5,-79 10.5,-79"/>
<text text-anchor="start" x="30.5" y="-87.2" font-family="Helvetica,sans-Serif" font-size="11.00">inserted_at</text>
<polygon fill="none" stroke="black" points="234.5,-79 234.5,-101 349.5,-101 349.5,-79 234.5,-79"/>
<text text-anchor="start" x="237.5" y="-87.2" font-family="Helvetica,sans-Serif" font-size="11.00">timestamp[29,6]</text>
<polygon fill="none" stroke="black" points="10.5,-57 10.5,-79 234.5,-79 234.5,-57 10.5,-57"/>
<text text-anchor="start" x="30.5" y="-65.2" font-family="Helvetica,sans-Serif" font-size="11.00">updated_at</text>
<polygon fill="none" stroke="black" points="234.5,-57 234.5,-79 349.5,-79 349.5,-57 234.5,-57"/>
<text text-anchor="start" x="237.5" y="-65.2" font-family="Helvetica,sans-Serif" font-size="11.00">timestamp[29,6]</text>
<polygon fill="#ffffff" stroke="transparent" points="10.5,-39 10.5,-57 349.5,-57 349.5,-39 10.5,-39"/>
<polygon fill="none" stroke="black" points="10.5,-39 10.5,-57 349.5,-57 349.5,-39 10.5,-39"/>
<polygon fill="#ffffff" stroke="transparent" points="11.5,-40 11.5,-56 128.5,-56 128.5,-40 11.5,-40"/>
<text text-anchor="start" x="13.5" y="-45.2" font-family="Helvetica,sans-Serif" font-size="11.00">&lt; 0</text>
<polygon fill="#ffffff" stroke="transparent" points="128.5,-40 128.5,-56 232.5,-56 232.5,-40 128.5,-40"/>
<text text-anchor="start" x="176.5" y="-45.2" font-family="Helvetica,sans-Serif" font-size="11.00"> &#160;</text>
<polygon fill="#ffffff" stroke="transparent" points="232.5,-40 232.5,-56 348.5,-56 348.5,-40 232.5,-40"/>
<text text-anchor="start" x="326.5" y="-45.2" font-family="Helvetica,sans-Serif" font-size="11.00">0 &gt;</text>
<polygon fill="black" stroke="black" points="128.5,-40 128.5,-56 128.5,-56 128.5,-40 128.5,-40"/>
<polygon fill="black" stroke="black" points="232.5,-40 232.5,-56 232.5,-56 232.5,-40 232.5,-40"/>
<polygon fill="none" stroke="black" stroke-width="2" points="9,-38 9,-190 350,-190 350,-38 9,-38"/>
</a>
</g>
</g>
</g>
</svg>
