<?xml version="1.0" encoding="UTF-8" standalone="no"?>
<!DOCTYPE svg PUBLIC "-//W3C//DTD SVG 1.1//EN"
 "http://www.w3.org/Graphics/SVG/1.1/DTD/svg11.dtd">
<!-- Generated by graphviz version 2.43.0 (0)
 -->
<!-- Title: oneDegreeRelationshipsDiagram Pages: 1 -->
<svg width="373pt" height="159pt"
 viewBox="0.00 0.00 373.00 159.00" xmlns="http://www.w3.org/2000/svg" xmlns:xlink="http://www.w3.org/1999/xlink">
<g id="graph0" class="graph" transform="scale(1 1) rotate(0) translate(4 155)">
<title>oneDegreeRelationshipsDiagram</title>
<polygon fill="#ffffff" stroke="transparent" points="-4,4 -4,-155 369,-155 369,4 -4,4"/>
<text text-anchor="middle" x="79.5" y="-7.2" font-family="Helvetica,sans-Serif" font-size="11.00">Generated by SchemaSpy</text>
<!-- decompiled_smart_contracts -->
<g id="node1" class="node">
<title>decompiled_smart_contracts</title>
<g id="a_node1"><a xlink:href="../../tables/decompiled_smart_contracts.html" xlink:title="decompiled_smart_contracts" target="_top">
<polygon fill="#ffffff" stroke="transparent" points="8,-37 8,-147 357,-147 357,-37 8,-37"/>
<polygon fill="#f5f5f5" stroke="transparent" points="10.5,-123 10.5,-145 355.5,-145 355.5,-123 10.5,-123"/>
<polygon fill="none" stroke="black" points="10.5,-123 10.5,-145 355.5,-145 355.5,-123 10.5,-123"/>
<text text-anchor="start" x="15.5" y="-132.2" font-family="Helvetica,sans-Serif" font-weight="bold" font-size="11.00">decompiled_smart_contracts</text>
<text text-anchor="start" x="313.5" y="-131.2" font-family="Helvetica,sans-Serif" font-size="11.00">[table]</text>
<polygon fill="none" stroke="black" points="10.5,-101 10.5,-123 240.5,-123 240.5,-101 10.5,-101"/>
<text text-anchor="start" x="30.5" y="-109.2" font-family="Helvetica,sans-Serif" font-size="11.00">decompiler_version</text>
<polygon fill="none" stroke="black" points="240.5,-101 240.5,-123 355.5,-123 355.5,-101 240.5,-101"/>
<text text-anchor="start" x="243.5" y="-109.2" font-family="Helvetica,sans-Serif" font-size="11.00">varchar[255]</text>
<polygon fill="none" stroke="black" points="10.5,-79 10.5,-101 240.5,-101 240.5,-79 10.5,-79"/>
<text text-anchor="start" x="30.5" y="-87.2" font-family="Helvetica,sans-Serif" font-size="11.00">decompiled_source_code</text>
<polygon fill="none" stroke="black" points="240.5,-79 240.5,-101 355.5,-101 355.5,-79 240.5,-79"/>
<text text-anchor="start" x="243.5" y="-87.2" font-family="Helvetica,sans-Serif" font-size="11.00">text[2147483647]</text>
<polygon fill="none" stroke="black" points="10.5,-57 10.5,-79 240.5,-79 240.5,-57 10.5,-57"/>
<text text-anchor="start" x="30.5" y="-65.2" font-family="Helvetica,sans-Serif" font-size="11.00">address_hash</text>
<polygon fill="none" stroke="black" points="240.5,-57 240.5,-79 355.5,-79 355.5,-57 240.5,-57"/>
<text text-anchor="start" x="243.5" y="-65.2" font-family="Helvetica,sans-Serif" font-size="11.00">bytea[2147483647]</text>
<polygon fill="#ffffff" stroke="transparent" points="10.5,-39 10.5,-57 355.5,-57 355.5,-39 10.5,-39"/>
<polygon fill="none" stroke="black" points="10.5,-39 10.5,-57 355.5,-57 355.5,-39 10.5,-39"/>
<polygon fill="#ffffff" stroke="transparent" points="11.5,-40 11.5,-56 130.5,-56 130.5,-40 11.5,-40"/>
<text text-anchor="start" x="13.5" y="-45.2" font-family="Helvetica,sans-Serif" font-size="11.00">&lt; 0</text>
<polygon fill="#ffffff" stroke="transparent" points="130.5,-40 130.5,-56 236.5,-56 236.5,-40 130.5,-40"/>
<text text-anchor="start" x="179.5" y="-45.2" font-family="Helvetica,sans-Serif" font-size="11.00"> &#160;</text>
<polygon fill="#ffffff" stroke="transparent" points="236.5,-40 236.5,-56 354.5,-56 354.5,-40 236.5,-40"/>
<text text-anchor="start" x="332.5" y="-45.2" font-family="Helvetica,sans-Serif" font-size="11.00">0 &gt;</text>
<polygon fill="black" stroke="black" points="130.5,-40 130.5,-56 130.5,-56 130.5,-40 130.5,-40"/>
<polygon fill="black" stroke="black" points="236.5,-40 236.5,-56 236.5,-56 236.5,-40 236.5,-40"/>
<polygon fill="none" stroke="black" stroke-width="2" points="9,-38 9,-146 356,-146 356,-38 9,-38"/>
</a>
</g>
</g>
</g>
</svg>
