<?xml version="1.0" encoding="UTF-8" standalone="no"?>
<!DOCTYPE svg PUBLIC "-//W3C//DTD SVG 1.1//EN"
 "http://www.w3.org/Graphics/SVG/1.1/DTD/svg11.dtd">
<!-- Generated by graphviz version 2.43.0 (0)
 -->
<!-- Title: oneDegreeRelationshipsDiagram Pages: 1 -->
<svg width="315pt" height="137pt"
 viewBox="0.00 0.00 315.00 137.00" xmlns="http://www.w3.org/2000/svg" xmlns:xlink="http://www.w3.org/1999/xlink">
<g id="graph0" class="graph" transform="scale(1 1) rotate(0) translate(4 133)">
<title>oneDegreeRelationshipsDiagram</title>
<polygon fill="#ffffff" stroke="transparent" points="-4,4 -4,-133 311,-133 311,4 -4,4"/>
<text text-anchor="middle" x="79.5" y="-7.2" font-family="Helvetica,sans-Serif" font-size="11.00">Generated by SchemaSpy</text>
<!-- emission_rewards -->
<g id="node1" class="node">
<title>emission_rewards</title>
<g id="a_node1"><a xlink:href="../../tables/emission_rewards.html" xlink:title="emission_rewards" target="_top">
<polygon fill="#ffffff" stroke="transparent" points="8,-37 8,-125 299,-125 299,-37 8,-37"/>
<polygon fill="#f5f5f5" stroke="transparent" points="10.5,-101 10.5,-123 297.5,-123 297.5,-101 10.5,-101"/>
<polygon fill="none" stroke="black" points="10.5,-101 10.5,-123 297.5,-123 297.5,-101 10.5,-101"/>
<text text-anchor="start" x="15.5" y="-110.2" font-family="Helvetica,sans-Serif" font-weight="bold" font-size="11.00">emission_rewards</text>
<text text-anchor="start" x="255.5" y="-109.2" font-family="Helvetica,sans-Serif" font-size="11.00">[table]</text>
<polygon fill="none" stroke="black" points="10.5,-79 10.5,-101 161.5,-101 161.5,-79 10.5,-79"/>
<image xlink:href="../../images/primaryKeys.png" width="11px" height="12px" preserveAspectRatio="xMinYMin meet" x="15.5" y="-96"/>
<text text-anchor="start" x="30.5" y="-87.2" font-family="Helvetica,sans-Serif" font-size="11.00">block_range</text>
<polygon fill="none" stroke="black" points="161.5,-79 161.5,-101 297.5,-101 297.5,-79 161.5,-79"/>
<text text-anchor="start" x="164.5" y="-87.2" font-family="Helvetica,sans-Serif" font-size="11.00">int8range[2147483647]</text>
<polygon fill="none" stroke="black" points="10.5,-57 10.5,-79 161.5,-79 161.5,-57 10.5,-57"/>
<text text-anchor="start" x="30.5" y="-65.2" font-family="Helvetica,sans-Serif" font-size="11.00">reward</text>
<polygon fill="none" stroke="black" points="161.5,-57 161.5,-79 297.5,-79 297.5,-57 161.5,-57"/>
<text text-anchor="start" x="164.5" y="-65.2" font-family="Helvetica,sans-Serif" font-size="11.00">numeric[0]</text>
<polygon fill="#ffffff" stroke="transparent" points="10.5,-39 10.5,-57 297.5,-57 297.5,-39 10.5,-39"/>
<polygon fill="none" stroke="black" points="10.5,-39 10.5,-57 297.5,-57 297.5,-39 10.5,-39"/>
<polygon fill="#ffffff" stroke="transparent" points="11.5,-40 11.5,-56 110.5,-56 110.5,-40 11.5,-40"/>
<text text-anchor="start" x="13.5" y="-45.2" font-family="Helvetica,sans-Serif" font-size="11.00">&lt; 0</text>
<polygon fill="#ffffff" stroke="transparent" points="110.5,-40 110.5,-56 197.5,-56 197.5,-40 110.5,-40"/>
<text text-anchor="start" x="150" y="-45.2" font-family="Helvetica,sans-Serif" font-size="11.00"> &#160;</text>
<polygon fill="#ffffff" stroke="transparent" points="197.5,-40 197.5,-56 296.5,-56 296.5,-40 197.5,-40"/>
<text text-anchor="start" x="274.5" y="-45.2" font-family="Helvetica,sans-Serif" font-size="11.00">0 &gt;</text>
<polygon fill="black" stroke="black" points="110.5,-40 110.5,-56 110.5,-56 110.5,-40 110.5,-40"/>
<polygon fill="black" stroke="black" points="197.5,-40 197.5,-56 197.5,-56 197.5,-40 197.5,-40"/>
<polygon fill="none" stroke="black" stroke-width="2" points="9,-38 9,-124 298,-124 298,-38 9,-38"/>
</a>
</g>
</g>
</g>
</svg>
