<?xml version="1.0" encoding="UTF-8" standalone="no"?>
<!DOCTYPE svg PUBLIC "-//W3C//DTD SVG 1.1//EN"
 "http://www.w3.org/Graphics/SVG/1.1/DTD/svg11.dtd">
<!-- Generated by graphviz version 2.43.0 (0)
 -->
<!-- Title: oneDegreeRelationshipsDiagramImplied Pages: 1 -->
<svg width="717pt" height="179pt"
 viewBox="0.00 0.00 717.00 179.00" xmlns="http://www.w3.org/2000/svg" xmlns:xlink="http://www.w3.org/1999/xlink">
<g id="graph0" class="graph" transform="scale(1 1) rotate(0) translate(4 175)">
<title>oneDegreeRelationshipsDiagramImplied</title>
<polygon fill="#ffffff" stroke="transparent" points="-4,4 -4,-175 713,-175 713,4 -4,4"/>
<text text-anchor="middle" x="79.5" y="-7.2" font-family="Helvetica,sans-Serif" font-size="11.00">Generated by SchemaSpy</text>
<!-- multichain_search_db_main_export_queue -->
<g id="node1" class="node">
<title>multichain_search_db_main_export_queue</title>
<g id="a_node1"><a xlink:href="../../tables/multichain_search_db_main_export_queue.html" xlink:title="multichain_search_db_main_export_queue" target="_top">
<polygon fill="#ffffff" stroke="transparent" points="348,-43 348,-167 701,-167 701,-43 348,-43"/>
<polygon fill="#f5f5f5" stroke="transparent" points="348.5,-145 348.5,-167 701.5,-167 701.5,-145 348.5,-145"/>
<polygon fill="none" stroke="black" points="348.5,-145 348.5,-167 701.5,-167 701.5,-145 348.5,-145"/>
<text text-anchor="start" x="353.5" y="-154.2" font-family="Helvetica,sans-Serif" font-weight="bold" font-size="11.00">multichain_search_db_main_export_queue</text>
<text text-anchor="start" x="659.5" y="-153.2" font-family="Helvetica,sans-Serif" font-size="11.00">[table]</text>
<polygon fill="none" stroke="black" points="348.5,-123 348.5,-145 701.5,-145 701.5,-123 348.5,-123"/>
<image xlink:href="../../images/primaryKeys.png" width="11px" height="12px" preserveAspectRatio="xMinYMin meet" x="353.5" y="-140"/>
<text text-anchor="start" x="381.5" y="-131.2" font-family="Helvetica,sans-Serif" font-size="11.00">hash</text>
<polygon fill="none" stroke="black" points="348.5,-101 348.5,-123 701.5,-123 701.5,-101 348.5,-101"/>
<image xlink:href="../../images/primaryKeys.png" width="11px" height="12px" preserveAspectRatio="xMinYMin meet" x="353.5" y="-118"/>
<text text-anchor="start" x="381.5" y="-109.2" font-family="Helvetica,sans-Serif" font-size="11.00">hash_type</text>
<polygon fill="none" stroke="black" points="348.5,-79 348.5,-101 701.5,-101 701.5,-79 348.5,-79"/>
<image xlink:href="../../images/foreignKeys.png" width="11px" height="12px" preserveAspectRatio="xMinYMin meet" x="353.5" y="-96"/>
<text text-anchor="start" x="381.5" y="-87.2" font-family="Helvetica,sans-Serif" font-size="11.00">block_range</text>
<polygon fill="none" stroke="black" points="348.5,-61 348.5,-79 701.5,-79 701.5,-61 348.5,-61"/>
<text text-anchor="start" x="351.5" y="-67.2" font-family="Helvetica,sans-Serif" font-size="11.00">...</text>
<polygon fill="#ffffff" stroke="transparent" points="348.5,-43 348.5,-61 701.5,-61 701.5,-43 348.5,-43"/>
<polygon fill="none" stroke="black" points="348.5,-43 348.5,-61 701.5,-61 701.5,-43 348.5,-43"/>
<polygon fill="#ffffff" stroke="transparent" points="349.5,-44 349.5,-60 474.5,-60 474.5,-44 349.5,-44"/>
<text text-anchor="start" x="351.5" y="-49.2" font-family="Helvetica,sans-Serif" font-size="11.00">&lt; 1</text>
<polygon fill="#ffffff" stroke="transparent" points="474.5,-44 474.5,-60 587.5,-60 587.5,-44 474.5,-44"/>
<text text-anchor="start" x="527" y="-49.2" font-family="Helvetica,sans-Serif" font-size="11.00"> &#160;</text>
<polygon fill="#ffffff" stroke="transparent" points="587.5,-44 587.5,-60 700.5,-60 700.5,-44 587.5,-44"/>
<text text-anchor="start" x="690.5" y="-49.2" font-family="Helvetica,sans-Serif" font-size="11.00"> &#160;</text>
<polygon fill="black" stroke="black" points="474.5,-44 474.5,-60 474.5,-60 474.5,-44 474.5,-44"/>
<polygon fill="black" stroke="black" points="587.5,-44 587.5,-60 587.5,-60 587.5,-44 587.5,-44"/>
</a>
</g>
</g>
<!-- emission_rewards -->
<g id="node2" class="node">
<title>emission_rewards</title>
<g id="a_node2"><a xlink:href="../../tables/emission_rewards.html" xlink:title="emission_rewards" target="_top">
<polygon fill="#ffffff" stroke="transparent" points="8,-37 8,-125 299,-125 299,-37 8,-37"/>
<polygon fill="#f5f5f5" stroke="transparent" points="10.5,-101 10.5,-123 297.5,-123 297.5,-101 10.5,-101"/>
<polygon fill="none" stroke="black" points="10.5,-101 10.5,-123 297.5,-123 297.5,-101 10.5,-101"/>
<text text-anchor="start" x="15.5" y="-110.2" font-family="Helvetica,sans-Serif" font-weight="bold" font-size="11.00">emission_rewards</text>
<text text-anchor="start" x="255.5" y="-109.2" font-family="Helvetica,sans-Serif" font-size="11.00">[table]</text>
<polygon fill="none" stroke="black" points="10.5,-79 10.5,-101 161.5,-101 161.5,-79 10.5,-79"/>
<image xlink:href="../../images/primaryKeys.png" width="11px" height="12px" preserveAspectRatio="xMinYMin meet" x="15.5" y="-96"/>
<text text-anchor="start" x="30.5" y="-87.2" font-family="Helvetica,sans-Serif" font-size="11.00">block_range</text>
<polygon fill="none" stroke="black" points="161.5,-79 161.5,-101 297.5,-101 297.5,-79 161.5,-79"/>
<text text-anchor="start" x="164.5" y="-87.2" font-family="Helvetica,sans-Serif" font-size="11.00">int8range[2147483647]</text>
<polygon fill="none" stroke="black" points="10.5,-57 10.5,-79 161.5,-79 161.5,-57 10.5,-57"/>
<text text-anchor="start" x="30.5" y="-65.2" font-family="Helvetica,sans-Serif" font-size="11.00">reward</text>
<polygon fill="none" stroke="black" points="161.5,-57 161.5,-79 297.5,-79 297.5,-57 161.5,-57"/>
<text text-anchor="start" x="164.5" y="-65.2" font-family="Helvetica,sans-Serif" font-size="11.00">numeric[0]</text>
<polygon fill="#ffffff" stroke="transparent" points="10.5,-39 10.5,-57 297.5,-57 297.5,-39 10.5,-39"/>
<polygon fill="none" stroke="black" points="10.5,-39 10.5,-57 297.5,-57 297.5,-39 10.5,-39"/>
<polygon fill="#ffffff" stroke="transparent" points="11.5,-40 11.5,-56 110.5,-56 110.5,-40 11.5,-40"/>
<text text-anchor="start" x="13.5" y="-45.2" font-family="Helvetica,sans-Serif" font-size="11.00">&lt; 0</text>
<polygon fill="#ffffff" stroke="transparent" points="110.5,-40 110.5,-56 197.5,-56 197.5,-40 110.5,-40"/>
<text text-anchor="start" x="150" y="-45.2" font-family="Helvetica,sans-Serif" font-size="11.00"> &#160;</text>
<polygon fill="#ffffff" stroke="transparent" points="197.5,-40 197.5,-56 296.5,-56 296.5,-40 197.5,-40"/>
<text text-anchor="start" x="274.5" y="-45.2" font-family="Helvetica,sans-Serif" font-size="11.00">1 &gt;</text>
<polygon fill="black" stroke="black" points="110.5,-40 110.5,-56 110.5,-56 110.5,-40 110.5,-40"/>
<polygon fill="black" stroke="black" points="197.5,-40 197.5,-56 197.5,-56 197.5,-40 197.5,-40"/>
<polygon fill="none" stroke="black" stroke-width="2" points="9,-38 9,-124 298,-124 298,-38 9,-38"/>
</a>
</g>
</g>
<!-- multichain_search_db_main_export_queue&#45;&gt;emission_rewards -->
<g id="edge1" class="edge">
<title>multichain_search_db_main_export_queue:w&#45;&gt;emission_rewards:e</title>
<path fill="none" stroke="black" stroke-dasharray="5,2" d="M332.99,-90C321.68,-90 314.49,-90 298.5,-90"/>
<polygon fill="black" stroke="black" points="339.5,-90 347.5,-93.6 343.5,-90 347.5,-90 347.5,-90 347.5,-90 343.5,-90 347.5,-86.4 339.5,-90 339.5,-90"/>
<ellipse fill="none" stroke="black" cx="336.3" cy="-90" rx="3.2" ry="3.2"/>
</g>
</g>
</svg>
