<?xml version="1.0" encoding="UTF-8" standalone="no"?>
<!DOCTYPE svg PUBLIC "-//W3C//DTD SVG 1.1//EN"
 "http://www.w3.org/Graphics/SVG/1.1/DTD/svg11.dtd">
<!-- Generated by graphviz version 9.0.0 (20230911.1827)
 -->
<!-- Title: oneDegreeRelationshipsDiagram Pages: 1 -->
<svg width="270pt" height="137pt"
 viewBox="0.00 0.00 270.00 137.00" xmlns="http://www.w3.org/2000/svg" xmlns:xlink="http://www.w3.org/1999/xlink">
<g id="graph0" class="graph" transform="scale(1 1) rotate(0) translate(4 133)">
<title>oneDegreeRelationshipsDiagram</title>
<polygon fill="#ffffff" stroke="none" points="-4,4 -4,-133 266,-133 266,4 -4,4"/>
<text text-anchor="middle" x="71.38" y="-5.55" font-family="Helvetica,sans-Serif" font-size="11.00">Generated by SchemaSpy</text>
<!-- emission_rewards -->
<g id="node1" class="node">
<title>emission_rewards</title>
<g id="a_node1"><a xlink:href="../../tables/emission_rewards.html" xlink:title="emission_rewards" target="_top">
<polygon fill="#ffffff" stroke="none" points="8,-37 8,-125 254,-125 254,-37 8,-37"/>
<polygon fill="#f5f5f5" stroke="none" points="10,-101 10,-123 252,-123 252,-101 10,-101"/>
<polygon fill="none" stroke="black" points="10,-101 10,-123 252,-123 252,-101 10,-101"/>
<text text-anchor="start" x="15" y="-108.55" font-family="Helvetica,sans-Serif" font-weight="bold" font-size="11.00">emission_rewards</text>
<text text-anchor="start" x="217.75" y="-107.55" font-family="Helvetica,sans-Serif" font-size="11.00">[table]</text>
<polygon fill="none" stroke="black" points="10,-79 10,-101 135,-101 135,-79 10,-79"/>
<image xlink:href="../../images/primaryKeys.png" width="11px" height="12px" preserveAspectRatio="xMinYMin meet" x="15" y="-96"/>
<text text-anchor="start" x="30" y="-85.55" font-family="Helvetica,sans-Serif" font-size="11.00">block_range</text>
<polygon fill="none" stroke="black" points="135,-79 135,-101 252,-101 252,-79 135,-79"/>
<text text-anchor="start" x="138" y="-85.55" font-family="Helvetica,sans-Serif" font-size="11.00">int8range[2147483647]</text>
<polygon fill="none" stroke="black" points="10,-57 10,-79 135,-79 135,-57 10,-57"/>
<text text-anchor="start" x="30" y="-63.55" font-family="Helvetica,sans-Serif" font-size="11.00">reward</text>
<polygon fill="none" stroke="black" points="135,-57 135,-79 252,-79 252,-57 135,-57"/>
<text text-anchor="start" x="138" y="-63.55" font-family="Helvetica,sans-Serif" font-size="11.00">numeric[0]</text>
<polygon fill="#ffffff" stroke="none" points="10,-39 10,-57 77,-57 77,-39 10,-39"/>
<polygon fill="none" stroke="black" points="10,-39 10,-57 77,-57 77,-39 10,-39"/>
<text text-anchor="start" x="13" y="-43.55" font-family="Helvetica,sans-Serif" font-size="11.00">&lt; 0</text>
<polygon fill="#ffffff" stroke="none" points="77,-39 77,-57 135,-57 135,-39 77,-39"/>
<polygon fill="none" stroke="black" points="77,-39 77,-57 135,-57 135,-39 77,-39"/>
<text text-anchor="start" x="126" y="-43.55" font-family="Helvetica,sans-Serif" font-size="11.00"> &#160;</text>
<polygon fill="#ffffff" stroke="none" points="135,-39 135,-57 252,-57 252,-39 135,-39"/>
<polygon fill="none" stroke="black" points="135,-39 135,-57 252,-57 252,-39 135,-39"/>
<text text-anchor="start" x="233.25" y="-43.55" font-family="Helvetica,sans-Serif" font-size="11.00">0 &gt;</text>
<polygon fill="none" stroke="black" stroke-width="2" points="9,-38 9,-124 253,-124 253,-38 9,-38"/>
</a>
</g>
</g>
</g>
</svg>
