<?xml version="1.0" encoding="UTF-8" standalone="no"?>
<!DOCTYPE svg PUBLIC "-//W3C//DTD SVG 1.1//EN"
 "http://www.w3.org/Graphics/SVG/1.1/DTD/svg11.dtd">
<!-- Generated by graphviz version 9.0.0 (20230911.1827)
 -->
<!-- Title: oneDegreeRelationshipsDiagram Pages: 1 -->
<svg width="247pt" height="137pt"
 viewBox="0.00 0.00 247.00 137.00" xmlns="http://www.w3.org/2000/svg" xmlns:xlink="http://www.w3.org/1999/xlink">
<g id="graph0" class="graph" transform="scale(1 1) rotate(0) translate(4 133)">
<title>oneDegreeRelationshipsDiagram</title>
<polygon fill="#ffffff" stroke="none" points="-4,4 -4,-133 243,-133 243,4 -4,4"/>
<text text-anchor="middle" x="71.38" y="-5.55" font-family="Helvetica,sans-Serif" font-size="11.00">Generated by SchemaSpy</text>
<!-- event_notifications -->
<g id="node1" class="node">
<title>event_notifications</title>
<g id="a_node1"><a xlink:href="../../tables/event_notifications.html" xlink:title="event_notifications" target="_top">
<polygon fill="#ffffff" stroke="none" points="8,-37 8,-125 231,-125 231,-37 8,-37"/>
<polygon fill="#f5f5f5" stroke="none" points="10,-101 10,-123 229,-123 229,-101 10,-101"/>
<polygon fill="none" stroke="black" points="10,-101 10,-123 229,-123 229,-101 10,-101"/>
<text text-anchor="start" x="15" y="-108.55" font-family="Helvetica,sans-Serif" font-weight="bold" font-size="11.00">event_notifications</text>
<text text-anchor="start" x="194.75" y="-107.55" font-family="Helvetica,sans-Serif" font-size="11.00">[table]</text>
<polygon fill="none" stroke="black" points="10,-79 10,-101 140,-101 140,-79 10,-79"/>
<image xlink:href="../../images/primaryKeys.png" width="11px" height="12px" preserveAspectRatio="xMinYMin meet" x="15" y="-96"/>
<text text-anchor="start" x="30" y="-85.55" font-family="Helvetica,sans-Serif" font-size="11.00">id</text>
<polygon fill="none" stroke="black" points="140,-79 140,-101 229,-101 229,-79 140,-79"/>
<text text-anchor="start" x="143" y="-85.55" font-family="Helvetica,sans-Serif" font-size="11.00">bigserial[19]</text>
<polygon fill="none" stroke="black" points="10,-57 10,-79 140,-79 140,-57 10,-57"/>
<text text-anchor="start" x="30" y="-63.55" font-family="Helvetica,sans-Serif" font-size="11.00">data</text>
<polygon fill="none" stroke="black" points="140,-57 140,-79 229,-79 229,-57 140,-57"/>
<text text-anchor="start" x="142.88" y="-63.55" font-family="Helvetica,sans-Serif" font-size="11.00">text[2147483647]</text>
<polygon fill="#ffffff" stroke="none" points="10,-39 10,-57 79,-57 79,-39 10,-39"/>
<polygon fill="none" stroke="black" points="10,-39 10,-57 79,-57 79,-39 10,-39"/>
<text text-anchor="start" x="13" y="-43.55" font-family="Helvetica,sans-Serif" font-size="11.00">&lt; 0</text>
<polygon fill="#ffffff" stroke="none" points="79,-39 79,-57 140,-57 140,-39 79,-39"/>
<polygon fill="none" stroke="black" points="79,-39 79,-57 140,-57 140,-39 79,-39"/>
<text text-anchor="start" x="131" y="-43.55" font-family="Helvetica,sans-Serif" font-size="11.00"> &#160;</text>
<polygon fill="#ffffff" stroke="none" points="140,-39 140,-57 229,-57 229,-39 140,-39"/>
<polygon fill="none" stroke="black" points="140,-39 140,-57 229,-57 229,-39 140,-39"/>
<text text-anchor="start" x="210.25" y="-43.55" font-family="Helvetica,sans-Serif" font-size="11.00">0 &gt;</text>
<polygon fill="none" stroke="black" stroke-width="2" points="9,-38 9,-124 230,-124 230,-38 9,-38"/>
</a>
</g>
</g>
</g>
</svg>
