<?xml version="1.0" encoding="UTF-8" standalone="no"?>
<!DOCTYPE svg PUBLIC "-//W3C//DTD SVG 1.1//EN"
 "http://www.w3.org/Graphics/SVG/1.1/DTD/svg11.dtd">
<!-- Generated by graphviz version 2.43.0 (0)
 -->
<!-- Title: oneDegreeRelationshipsDiagram Pages: 1 -->
<svg width="402pt" height="577pt"
 viewBox="0.00 0.00 402.00 577.00" xmlns="http://www.w3.org/2000/svg" xmlns:xlink="http://www.w3.org/1999/xlink">
<g id="graph0" class="graph" transform="scale(1 1) rotate(0) translate(4 573)">
<title>oneDegreeRelationshipsDiagram</title>
<polygon fill="#ffffff" stroke="transparent" points="-4,4 -4,-573 398,-573 398,4 -4,4"/>
<text text-anchor="middle" x="79.5" y="-7.2" font-family="Helvetica,sans-Serif" font-size="11.00">Generated by SchemaSpy</text>
<!-- internal_transactions_bkp_latest -->
<g id="node1" class="node">
<title>internal_transactions_bkp_latest</title>
<g id="a_node1"><a xlink:href="../../tables/internal_transactions_bkp_latest.html" xlink:title="internal_transactions_bkp_latest" target="_top">
<polygon fill="#ffffff" stroke="transparent" points="8,-37 8,-565 386,-565 386,-37 8,-37"/>
<polygon fill="#f5f5f5" stroke="transparent" points="10,-541 10,-563 384,-563 384,-541 10,-541"/>
<polygon fill="none" stroke="black" points="10,-541 10,-563 384,-563 384,-541 10,-541"/>
<text text-anchor="start" x="15" y="-550.2" font-family="Helvetica,sans-Serif" font-weight="bold" font-size="11.00">internal_transactions_bkp_latest</text>
<text text-anchor="start" x="342" y="-549.2" font-family="Helvetica,sans-Serif" font-size="11.00">[table]</text>
<polygon fill="none" stroke="black" points="10,-519 10,-541 269,-541 269,-519 10,-519"/>
<text text-anchor="start" x="30" y="-527.2" font-family="Helvetica,sans-Serif" font-size="11.00">call_type</text>
<polygon fill="none" stroke="black" points="269,-519 269,-541 384,-541 384,-519 269,-519"/>
<text text-anchor="start" x="272" y="-527.2" font-family="Helvetica,sans-Serif" font-size="11.00">varchar[255]</text>
<polygon fill="none" stroke="black" points="10,-497 10,-519 269,-519 269,-497 10,-497"/>
<text text-anchor="start" x="30" y="-505.2" font-family="Helvetica,sans-Serif" font-size="11.00">created_contract_code</text>
<polygon fill="none" stroke="black" points="269,-497 269,-519 384,-519 384,-497 269,-497"/>
<text text-anchor="start" x="272" y="-505.2" font-family="Helvetica,sans-Serif" font-size="11.00">bytea[2147483647]</text>
<polygon fill="none" stroke="black" points="10,-475 10,-497 269,-497 269,-475 10,-475"/>
<text text-anchor="start" x="30" y="-483.2" font-family="Helvetica,sans-Serif" font-size="11.00">error</text>
<polygon fill="none" stroke="black" points="269,-475 269,-497 384,-497 384,-475 269,-475"/>
<text text-anchor="start" x="272" y="-483.2" font-family="Helvetica,sans-Serif" font-size="11.00">varchar[255]</text>
<polygon fill="none" stroke="black" points="10,-453 10,-475 269,-475 269,-453 10,-453"/>
<text text-anchor="start" x="30" y="-461.2" font-family="Helvetica,sans-Serif" font-size="11.00">gas</text>
<polygon fill="none" stroke="black" points="269,-453 269,-475 384,-475 384,-453 269,-453"/>
<text text-anchor="start" x="272" y="-461.2" font-family="Helvetica,sans-Serif" font-size="11.00">numeric[100]</text>
<polygon fill="none" stroke="black" points="10,-431 10,-453 269,-453 269,-431 10,-431"/>
<text text-anchor="start" x="30" y="-439.2" font-family="Helvetica,sans-Serif" font-size="11.00">gas_used</text>
<polygon fill="none" stroke="black" points="269,-431 269,-453 384,-453 384,-431 269,-431"/>
<text text-anchor="start" x="272" y="-439.2" font-family="Helvetica,sans-Serif" font-size="11.00">numeric[100]</text>
<polygon fill="none" stroke="black" points="10,-409 10,-431 269,-431 269,-409 10,-409"/>
<image xlink:href="../../images/foreignKeys.png" width="11px" height="12px" preserveAspectRatio="xMinYMin meet" x="15" y="-426"/>
<text text-anchor="start" x="30" y="-417.2" font-family="Helvetica,sans-Serif" font-size="11.00">index</text>
<polygon fill="none" stroke="black" points="269,-409 269,-431 384,-431 384,-409 269,-409"/>
<text text-anchor="start" x="272" y="-417.2" font-family="Helvetica,sans-Serif" font-size="11.00">int4[10]</text>
<polygon fill="none" stroke="black" points="10,-387 10,-409 269,-409 269,-387 10,-387"/>
<text text-anchor="start" x="30" y="-395.2" font-family="Helvetica,sans-Serif" font-size="11.00">init</text>
<polygon fill="none" stroke="black" points="269,-387 269,-409 384,-409 384,-387 269,-387"/>
<text text-anchor="start" x="272" y="-395.2" font-family="Helvetica,sans-Serif" font-size="11.00">bytea[2147483647]</text>
<polygon fill="none" stroke="black" points="10,-365 10,-387 269,-387 269,-365 10,-365"/>
<text text-anchor="start" x="30" y="-373.2" font-family="Helvetica,sans-Serif" font-size="11.00">input</text>
<polygon fill="none" stroke="black" points="269,-365 269,-387 384,-387 384,-365 269,-365"/>
<text text-anchor="start" x="272" y="-373.2" font-family="Helvetica,sans-Serif" font-size="11.00">bytea[2147483647]</text>
<polygon fill="none" stroke="black" points="10,-343 10,-365 269,-365 269,-343 10,-343"/>
<text text-anchor="start" x="30" y="-351.2" font-family="Helvetica,sans-Serif" font-size="11.00">output</text>
<polygon fill="none" stroke="black" points="269,-343 269,-365 384,-365 384,-343 269,-343"/>
<text text-anchor="start" x="272" y="-351.2" font-family="Helvetica,sans-Serif" font-size="11.00">bytea[2147483647]</text>
<polygon fill="none" stroke="black" points="10,-321 10,-343 269,-343 269,-321 10,-321"/>
<text text-anchor="start" x="30" y="-329.2" font-family="Helvetica,sans-Serif" font-size="11.00">trace_address</text>
<polygon fill="none" stroke="black" points="269,-321 269,-343 384,-343 384,-321 269,-321"/>
<text text-anchor="start" x="272" y="-329.2" font-family="Helvetica,sans-Serif" font-size="11.00">_int4[10]</text>
<polygon fill="none" stroke="black" points="10,-299 10,-321 269,-321 269,-299 10,-299"/>
<text text-anchor="start" x="30" y="-307.2" font-family="Helvetica,sans-Serif" font-size="11.00">type</text>
<polygon fill="none" stroke="black" points="269,-299 269,-321 384,-321 384,-299 269,-299"/>
<text text-anchor="start" x="272" y="-307.2" font-family="Helvetica,sans-Serif" font-size="11.00">varchar[255]</text>
<polygon fill="none" stroke="black" points="10,-277 10,-299 269,-299 269,-277 10,-277"/>
<text text-anchor="start" x="30" y="-285.2" font-family="Helvetica,sans-Serif" font-size="11.00">value</text>
<polygon fill="none" stroke="black" points="269,-277 269,-299 384,-299 384,-277 269,-277"/>
<text text-anchor="start" x="272" y="-285.2" font-family="Helvetica,sans-Serif" font-size="11.00">numeric[100]</text>
<polygon fill="none" stroke="black" points="10,-255 10,-277 269,-277 269,-255 10,-255"/>
<text text-anchor="start" x="30" y="-263.2" font-family="Helvetica,sans-Serif" font-size="11.00">inserted_at</text>
<polygon fill="none" stroke="black" points="269,-255 269,-277 384,-277 384,-255 269,-255"/>
<text text-anchor="start" x="272" y="-263.2" font-family="Helvetica,sans-Serif" font-size="11.00">timestamp[29,6]</text>
<polygon fill="none" stroke="black" points="10,-233 10,-255 269,-255 269,-233 10,-233"/>
<text text-anchor="start" x="30" y="-241.2" font-family="Helvetica,sans-Serif" font-size="11.00">updated_at</text>
<polygon fill="none" stroke="black" points="269,-233 269,-255 384,-255 384,-233 269,-233"/>
<text text-anchor="start" x="272" y="-241.2" font-family="Helvetica,sans-Serif" font-size="11.00">timestamp[29,6]</text>
<polygon fill="none" stroke="black" points="10,-211 10,-233 269,-233 269,-211 10,-211"/>
<text text-anchor="start" x="30" y="-219.2" font-family="Helvetica,sans-Serif" font-size="11.00">created_contract_address_hash</text>
<polygon fill="none" stroke="black" points="269,-211 269,-233 384,-233 384,-211 269,-211"/>
<text text-anchor="start" x="272" y="-219.2" font-family="Helvetica,sans-Serif" font-size="11.00">bytea[2147483647]</text>
<polygon fill="none" stroke="black" points="10,-189 10,-211 269,-211 269,-189 10,-189"/>
<text text-anchor="start" x="30" y="-197.2" font-family="Helvetica,sans-Serif" font-size="11.00">from_address_hash</text>
<polygon fill="none" stroke="black" points="269,-189 269,-211 384,-211 384,-189 269,-189"/>
<text text-anchor="start" x="272" y="-197.2" font-family="Helvetica,sans-Serif" font-size="11.00">bytea[2147483647]</text>
<polygon fill="none" stroke="black" points="10,-167 10,-189 269,-189 269,-167 10,-167"/>
<text text-anchor="start" x="30" y="-175.2" font-family="Helvetica,sans-Serif" font-size="11.00">to_address_hash</text>
<polygon fill="none" stroke="black" points="269,-167 269,-189 384,-189 384,-167 269,-167"/>
<text text-anchor="start" x="272" y="-175.2" font-family="Helvetica,sans-Serif" font-size="11.00">bytea[2147483647]</text>
<polygon fill="none" stroke="black" points="10,-145 10,-167 269,-167 269,-145 10,-145"/>
<text text-anchor="start" x="30" y="-153.2" font-family="Helvetica,sans-Serif" font-size="11.00">transaction_hash</text>
<polygon fill="none" stroke="black" points="269,-145 269,-167 384,-167 384,-145 269,-145"/>
<text text-anchor="start" x="272" y="-153.2" font-family="Helvetica,sans-Serif" font-size="11.00">bytea[2147483647]</text>
<polygon fill="none" stroke="black" points="10,-123 10,-145 269,-145 269,-123 10,-123"/>
<text text-anchor="start" x="30" y="-131.2" font-family="Helvetica,sans-Serif" font-size="11.00">block_number</text>
<polygon fill="none" stroke="black" points="269,-123 269,-145 384,-145 384,-123 269,-123"/>
<text text-anchor="start" x="272" y="-131.2" font-family="Helvetica,sans-Serif" font-size="11.00">int4[10]</text>
<polygon fill="none" stroke="black" points="10,-101 10,-123 269,-123 269,-101 10,-101"/>
<image xlink:href="../../images/foreignKeys.png" width="11px" height="12px" preserveAspectRatio="xMinYMin meet" x="15" y="-118"/>
<text text-anchor="start" x="30" y="-109.2" font-family="Helvetica,sans-Serif" font-size="11.00">transaction_index</text>
<polygon fill="none" stroke="black" points="269,-101 269,-123 384,-123 384,-101 269,-101"/>
<text text-anchor="start" x="272" y="-109.2" font-family="Helvetica,sans-Serif" font-size="11.00">int4[10]</text>
<polygon fill="none" stroke="black" points="10,-79 10,-101 269,-101 269,-79 10,-79"/>
<text text-anchor="start" x="30" y="-87.2" font-family="Helvetica,sans-Serif" font-size="11.00">block_hash</text>
<polygon fill="none" stroke="black" points="269,-79 269,-101 384,-101 384,-79 269,-79"/>
<text text-anchor="start" x="272" y="-87.2" font-family="Helvetica,sans-Serif" font-size="11.00">bytea[2147483647]</text>
<polygon fill="none" stroke="black" points="10,-57 10,-79 269,-79 269,-57 10,-57"/>
<image xlink:href="../../images/foreignKeys.png" width="11px" height="12px" preserveAspectRatio="xMinYMin meet" x="15" y="-74"/>
<text text-anchor="start" x="30" y="-65.2" font-family="Helvetica,sans-Serif" font-size="11.00">block_index</text>
<polygon fill="none" stroke="black" points="269,-57 269,-79 384,-79 384,-57 269,-57"/>
<text text-anchor="start" x="272" y="-65.2" font-family="Helvetica,sans-Serif" font-size="11.00">int4[10]</text>
<polygon fill="#ffffff" stroke="transparent" points="10,-39 10,-57 384,-57 384,-39 10,-39"/>
<polygon fill="none" stroke="black" points="10,-39 10,-57 384,-57 384,-39 10,-39"/>
<polygon fill="#ffffff" stroke="transparent" points="11,-40 11,-56 117,-56 117,-40 11,-40"/>
<text text-anchor="start" x="13" y="-45.2" font-family="Helvetica,sans-Serif" font-size="11.00">&lt; 0</text>
<polygon fill="#ffffff" stroke="transparent" points="117,-40 117,-56 278,-56 278,-40 117,-40"/>
<text text-anchor="start" x="160" y="-45.2" font-family="Helvetica,sans-Serif" font-size="11.00">626,527 rows</text>
<polygon fill="#ffffff" stroke="transparent" points="278,-40 278,-56 383,-56 383,-40 278,-40"/>
<text text-anchor="start" x="361" y="-45.2" font-family="Helvetica,sans-Serif" font-size="11.00">0 &gt;</text>
<polygon fill="black" stroke="black" points="117,-40 117,-56 117,-56 117,-40 117,-40"/>
<polygon fill="black" stroke="black" points="278,-40 278,-56 278,-56 278,-40 278,-40"/>
<polygon fill="none" stroke="black" stroke-width="2" points="9,-38 9,-564 385,-564 385,-38 9,-38"/>
</a>
</g>
</g>
</g>
</svg>
