<?xml version="1.0" encoding="UTF-8" standalone="no"?>
<!DOCTYPE svg PUBLIC "-//W3C//DTD SVG 1.1//EN"
 "http://www.w3.org/Graphics/SVG/1.1/DTD/svg11.dtd">
<!-- Generated by graphviz version 2.43.0 (0)
 -->
<!-- Title: oneDegreeRelationshipsDiagram Pages: 1 -->
<svg width="911pt" height="736pt"
 viewBox="0.00 0.00 911.00 736.00" xmlns="http://www.w3.org/2000/svg" xmlns:xlink="http://www.w3.org/1999/xlink">
<g id="graph0" class="graph" transform="scale(1 1) rotate(0) translate(4 732)">
<title>oneDegreeRelationshipsDiagram</title>
<polygon fill="#ffffff" stroke="transparent" points="-4,4 -4,-732 907,-732 907,4 -4,4"/>
<text text-anchor="middle" x="79.5" y="-7.2" font-family="Helvetica,sans-Serif" font-size="11.00">Generated by SchemaSpy</text>
<!-- internal_transactions -->
<g id="node1" class="node">
<title>internal_transactions</title>
<g id="a_node1"><a xlink:href="../../tables/internal_transactions.html" xlink:title="internal_transactions" target="_top">
<polygon fill="#ffffff" stroke="transparent" points="526,-196 526,-724 895,-724 895,-196 526,-196"/>
<polygon fill="#f5f5f5" stroke="transparent" points="528.5,-700 528.5,-722 893.5,-722 893.5,-700 528.5,-700"/>
<polygon fill="none" stroke="black" points="528.5,-700 528.5,-722 893.5,-722 893.5,-700 528.5,-700"/>
<text text-anchor="start" x="533.5" y="-709.2" font-family="Helvetica,sans-Serif" font-weight="bold" font-size="11.00">internal_transactions</text>
<text text-anchor="start" x="851.5" y="-708.2" font-family="Helvetica,sans-Serif" font-size="11.00">[table]</text>
<polygon fill="none" stroke="black" points="528.5,-678 528.5,-700 778.5,-700 778.5,-678 528.5,-678"/>
<text text-anchor="start" x="548.5" y="-686.2" font-family="Helvetica,sans-Serif" font-size="11.00">call_type</text>
<polygon fill="none" stroke="black" points="778.5,-678 778.5,-700 893.5,-700 893.5,-678 778.5,-678"/>
<text text-anchor="start" x="781.5" y="-686.2" font-family="Helvetica,sans-Serif" font-size="11.00">varchar[255]</text>
<polygon fill="none" stroke="black" points="528.5,-656 528.5,-678 778.5,-678 778.5,-656 528.5,-656"/>
<text text-anchor="start" x="548.5" y="-664.2" font-family="Helvetica,sans-Serif" font-size="11.00">created_contract_code</text>
<polygon fill="none" stroke="black" points="778.5,-656 778.5,-678 893.5,-678 893.5,-656 778.5,-656"/>
<text text-anchor="start" x="781.5" y="-664.2" font-family="Helvetica,sans-Serif" font-size="11.00">bytea[2147483647]</text>
<polygon fill="none" stroke="black" points="528.5,-634 528.5,-656 778.5,-656 778.5,-634 528.5,-634"/>
<text text-anchor="start" x="548.5" y="-642.2" font-family="Helvetica,sans-Serif" font-size="11.00">error</text>
<polygon fill="none" stroke="black" points="778.5,-634 778.5,-656 893.5,-656 893.5,-634 778.5,-634"/>
<text text-anchor="start" x="781.5" y="-642.2" font-family="Helvetica,sans-Serif" font-size="11.00">varchar[255]</text>
<polygon fill="none" stroke="black" points="528.5,-612 528.5,-634 778.5,-634 778.5,-612 528.5,-612"/>
<text text-anchor="start" x="548.5" y="-620.2" font-family="Helvetica,sans-Serif" font-size="11.00">gas</text>
<polygon fill="none" stroke="black" points="778.5,-612 778.5,-634 893.5,-634 893.5,-612 778.5,-612"/>
<text text-anchor="start" x="781.5" y="-620.2" font-family="Helvetica,sans-Serif" font-size="11.00">numeric[100]</text>
<polygon fill="none" stroke="black" points="528.5,-590 528.5,-612 778.5,-612 778.5,-590 528.5,-590"/>
<text text-anchor="start" x="548.5" y="-598.2" font-family="Helvetica,sans-Serif" font-size="11.00">gas_used</text>
<polygon fill="none" stroke="black" points="778.5,-590 778.5,-612 893.5,-612 893.5,-590 778.5,-590"/>
<text text-anchor="start" x="781.5" y="-598.2" font-family="Helvetica,sans-Serif" font-size="11.00">numeric[100]</text>
<polygon fill="#ffffff" stroke="transparent" points="528.5,-568 528.5,-590 778.5,-590 778.5,-568 528.5,-568"/>
<polygon fill="none" stroke="black" points="528.5,-568 528.5,-590 778.5,-590 778.5,-568 528.5,-568"/>
<image xlink:href="../../images/foreignKeys.png" width="11px" height="12px" preserveAspectRatio="xMinYMin meet" x="533.5" y="-585"/>
<text text-anchor="start" x="548.5" y="-576.2" font-family="Helvetica,sans-Serif" font-size="11.00">index</text>
<polygon fill="none" stroke="black" points="778.5,-568 778.5,-590 893.5,-590 893.5,-568 778.5,-568"/>
<text text-anchor="start" x="781.5" y="-576.2" font-family="Helvetica,sans-Serif" font-size="11.00">int4[10]</text>
<polygon fill="none" stroke="black" points="528.5,-546 528.5,-568 778.5,-568 778.5,-546 528.5,-546"/>
<text text-anchor="start" x="548.5" y="-554.2" font-family="Helvetica,sans-Serif" font-size="11.00">init</text>
<polygon fill="none" stroke="black" points="778.5,-546 778.5,-568 893.5,-568 893.5,-546 778.5,-546"/>
<text text-anchor="start" x="781.5" y="-554.2" font-family="Helvetica,sans-Serif" font-size="11.00">bytea[2147483647]</text>
<polygon fill="none" stroke="black" points="528.5,-524 528.5,-546 778.5,-546 778.5,-524 528.5,-524"/>
<text text-anchor="start" x="548.5" y="-532.2" font-family="Helvetica,sans-Serif" font-size="11.00">input</text>
<polygon fill="none" stroke="black" points="778.5,-524 778.5,-546 893.5,-546 893.5,-524 778.5,-524"/>
<text text-anchor="start" x="781.5" y="-532.2" font-family="Helvetica,sans-Serif" font-size="11.00">bytea[2147483647]</text>
<polygon fill="none" stroke="black" points="528.5,-502 528.5,-524 778.5,-524 778.5,-502 528.5,-502"/>
<text text-anchor="start" x="548.5" y="-510.2" font-family="Helvetica,sans-Serif" font-size="11.00">output</text>
<polygon fill="none" stroke="black" points="778.5,-502 778.5,-524 893.5,-524 893.5,-502 778.5,-502"/>
<text text-anchor="start" x="781.5" y="-510.2" font-family="Helvetica,sans-Serif" font-size="11.00">bytea[2147483647]</text>
<polygon fill="none" stroke="black" points="528.5,-480 528.5,-502 778.5,-502 778.5,-480 528.5,-480"/>
<text text-anchor="start" x="548.5" y="-488.2" font-family="Helvetica,sans-Serif" font-size="11.00">trace_address</text>
<polygon fill="none" stroke="black" points="778.5,-480 778.5,-502 893.5,-502 893.5,-480 778.5,-480"/>
<text text-anchor="start" x="781.5" y="-488.2" font-family="Helvetica,sans-Serif" font-size="11.00">_int4[10]</text>
<polygon fill="none" stroke="black" points="528.5,-458 528.5,-480 778.5,-480 778.5,-458 528.5,-458"/>
<text text-anchor="start" x="548.5" y="-466.2" font-family="Helvetica,sans-Serif" font-size="11.00">type</text>
<polygon fill="none" stroke="black" points="778.5,-458 778.5,-480 893.5,-480 893.5,-458 778.5,-458"/>
<text text-anchor="start" x="781.5" y="-466.2" font-family="Helvetica,sans-Serif" font-size="11.00">varchar[255]</text>
<polygon fill="none" stroke="black" points="528.5,-436 528.5,-458 778.5,-458 778.5,-436 528.5,-436"/>
<text text-anchor="start" x="548.5" y="-444.2" font-family="Helvetica,sans-Serif" font-size="11.00">value</text>
<polygon fill="none" stroke="black" points="778.5,-436 778.5,-458 893.5,-458 893.5,-436 778.5,-436"/>
<text text-anchor="start" x="781.5" y="-444.2" font-family="Helvetica,sans-Serif" font-size="11.00">numeric[100]</text>
<polygon fill="none" stroke="black" points="528.5,-414 528.5,-436 778.5,-436 778.5,-414 528.5,-414"/>
<text text-anchor="start" x="548.5" y="-422.2" font-family="Helvetica,sans-Serif" font-size="11.00">inserted_at</text>
<polygon fill="none" stroke="black" points="778.5,-414 778.5,-436 893.5,-436 893.5,-414 778.5,-414"/>
<text text-anchor="start" x="781.5" y="-422.2" font-family="Helvetica,sans-Serif" font-size="11.00">timestamp[29,6]</text>
<polygon fill="none" stroke="black" points="528.5,-392 528.5,-414 778.5,-414 778.5,-392 528.5,-392"/>
<text text-anchor="start" x="548.5" y="-400.2" font-family="Helvetica,sans-Serif" font-size="11.00">updated_at</text>
<polygon fill="none" stroke="black" points="778.5,-392 778.5,-414 893.5,-414 893.5,-392 778.5,-392"/>
<text text-anchor="start" x="781.5" y="-400.2" font-family="Helvetica,sans-Serif" font-size="11.00">timestamp[29,6]</text>
<polygon fill="#ffffff" stroke="transparent" points="528.5,-370 528.5,-392 778.5,-392 778.5,-370 528.5,-370"/>
<polygon fill="none" stroke="black" points="528.5,-370 528.5,-392 778.5,-392 778.5,-370 528.5,-370"/>
<text text-anchor="start" x="548.5" y="-378.2" font-family="Helvetica,sans-Serif" font-size="11.00">created_contract_address_hash</text>
<polygon fill="none" stroke="black" points="778.5,-370 778.5,-392 893.5,-392 893.5,-370 778.5,-370"/>
<text text-anchor="start" x="781.5" y="-378.2" font-family="Helvetica,sans-Serif" font-size="11.00">bytea[2147483647]</text>
<polygon fill="#ffffff" stroke="transparent" points="528.5,-348 528.5,-370 778.5,-370 778.5,-348 528.5,-348"/>
<polygon fill="none" stroke="black" points="528.5,-348 528.5,-370 778.5,-370 778.5,-348 528.5,-348"/>
<text text-anchor="start" x="548.5" y="-356.2" font-family="Helvetica,sans-Serif" font-size="11.00">from_address_hash</text>
<polygon fill="none" stroke="black" points="778.5,-348 778.5,-370 893.5,-370 893.5,-348 778.5,-348"/>
<text text-anchor="start" x="781.5" y="-356.2" font-family="Helvetica,sans-Serif" font-size="11.00">bytea[2147483647]</text>
<polygon fill="#ffffff" stroke="transparent" points="528.5,-326 528.5,-348 778.5,-348 778.5,-326 528.5,-326"/>
<polygon fill="none" stroke="black" points="528.5,-326 528.5,-348 778.5,-348 778.5,-326 528.5,-326"/>
<text text-anchor="start" x="548.5" y="-334.2" font-family="Helvetica,sans-Serif" font-size="11.00">to_address_hash</text>
<polygon fill="none" stroke="black" points="778.5,-326 778.5,-348 893.5,-348 893.5,-326 778.5,-326"/>
<text text-anchor="start" x="781.5" y="-334.2" font-family="Helvetica,sans-Serif" font-size="11.00">bytea[2147483647]</text>
<polygon fill="#ffffff" stroke="transparent" points="528.5,-304 528.5,-326 778.5,-326 778.5,-304 528.5,-304"/>
<polygon fill="none" stroke="black" points="528.5,-304 528.5,-326 778.5,-326 778.5,-304 528.5,-304"/>
<image xlink:href="../../images/foreignKeys.png" width="11px" height="12px" preserveAspectRatio="xMinYMin meet" x="533.5" y="-321"/>
<text text-anchor="start" x="548.5" y="-312.2" font-family="Helvetica,sans-Serif" font-size="11.00">transaction_hash</text>
<polygon fill="none" stroke="black" points="778.5,-304 778.5,-326 893.5,-326 893.5,-304 778.5,-304"/>
<text text-anchor="start" x="781.5" y="-312.2" font-family="Helvetica,sans-Serif" font-size="11.00">bytea[2147483647]</text>
<polygon fill="#ffffff" stroke="transparent" points="528.5,-282 528.5,-304 778.5,-304 778.5,-282 528.5,-282"/>
<polygon fill="none" stroke="black" points="528.5,-282 528.5,-304 778.5,-304 778.5,-282 528.5,-282"/>
<text text-anchor="start" x="548.5" y="-290.2" font-family="Helvetica,sans-Serif" font-size="11.00">block_number</text>
<polygon fill="none" stroke="black" points="778.5,-282 778.5,-304 893.5,-304 893.5,-282 778.5,-282"/>
<text text-anchor="start" x="781.5" y="-290.2" font-family="Helvetica,sans-Serif" font-size="11.00">int4[10]</text>
<polygon fill="#ffffff" stroke="transparent" points="528.5,-260 528.5,-282 778.5,-282 778.5,-260 528.5,-260"/>
<polygon fill="none" stroke="black" points="528.5,-260 528.5,-282 778.5,-282 778.5,-260 528.5,-260"/>
<image xlink:href="../../images/foreignKeys.png" width="11px" height="12px" preserveAspectRatio="xMinYMin meet" x="533.5" y="-277"/>
<text text-anchor="start" x="548.5" y="-268.2" font-family="Helvetica,sans-Serif" font-size="11.00">transaction_index</text>
<polygon fill="none" stroke="black" points="778.5,-260 778.5,-282 893.5,-282 893.5,-260 778.5,-260"/>
<text text-anchor="start" x="781.5" y="-268.2" font-family="Helvetica,sans-Serif" font-size="11.00">int4[10]</text>
<polygon fill="none" stroke="black" points="528.5,-238 528.5,-260 778.5,-260 778.5,-238 528.5,-238"/>
<image xlink:href="../../images/primaryKeys.png" width="11px" height="12px" preserveAspectRatio="xMinYMin meet" x="533.5" y="-255"/>
<text text-anchor="start" x="548.5" y="-246.2" font-family="Helvetica,sans-Serif" font-size="11.00">block_hash</text>
<polygon fill="none" stroke="black" points="778.5,-238 778.5,-260 893.5,-260 893.5,-238 778.5,-238"/>
<text text-anchor="start" x="781.5" y="-246.2" font-family="Helvetica,sans-Serif" font-size="11.00">bytea[2147483647]</text>
<polygon fill="none" stroke="black" points="528.5,-216 528.5,-238 778.5,-238 778.5,-216 528.5,-216"/>
<image xlink:href="../../images/primaryKeys.png" width="11px" height="12px" preserveAspectRatio="xMinYMin meet" x="533.5" y="-233"/>
<text text-anchor="start" x="548.5" y="-224.2" font-family="Helvetica,sans-Serif" font-size="11.00">block_index</text>
<polygon fill="none" stroke="black" points="778.5,-216 778.5,-238 893.5,-238 893.5,-216 778.5,-216"/>
<text text-anchor="start" x="781.5" y="-224.2" font-family="Helvetica,sans-Serif" font-size="11.00">int4[10]</text>
<polygon fill="#ffffff" stroke="transparent" points="528.5,-198 528.5,-216 893.5,-216 893.5,-198 528.5,-198"/>
<polygon fill="none" stroke="black" points="528.5,-198 528.5,-216 893.5,-216 893.5,-198 528.5,-198"/>
<polygon fill="#ffffff" stroke="transparent" points="529.5,-199 529.5,-215 654.5,-215 654.5,-199 529.5,-199"/>
<text text-anchor="start" x="531.5" y="-204.2" font-family="Helvetica,sans-Serif" font-size="11.00">&lt; 2</text>
<polygon fill="#ffffff" stroke="transparent" points="654.5,-199 654.5,-215 767.5,-215 767.5,-199 654.5,-199"/>
<text text-anchor="start" x="707" y="-204.2" font-family="Helvetica,sans-Serif" font-size="11.00"> &#160;</text>
<polygon fill="#ffffff" stroke="transparent" points="767.5,-199 767.5,-215 892.5,-215 892.5,-199 767.5,-199"/>
<text text-anchor="start" x="870.5" y="-204.2" font-family="Helvetica,sans-Serif" font-size="11.00">0 &gt;</text>
<polygon fill="black" stroke="black" points="654.5,-199 654.5,-215 654.5,-215 654.5,-199 654.5,-199"/>
<polygon fill="black" stroke="black" points="767.5,-199 767.5,-215 767.5,-215 767.5,-199 767.5,-199"/>
<polygon fill="none" stroke="black" stroke-width="2" points="527,-197 527,-723 894,-723 894,-197 527,-197"/>
</a>
</g>
</g>
<!-- blocks -->
<g id="node2" class="node">
<title>blocks</title>
<g id="a_node2"><a xlink:href="../../tables/blocks.html" xlink:title="blocks" target="_top">
<polygon fill="#ffffff" stroke="transparent" points="8,-37 8,-271 156,-271 156,-37 8,-37"/>
<polygon fill="#f5f5f5" stroke="transparent" points="8,-249 8,-271 156,-271 156,-249 8,-249"/>
<polygon fill="none" stroke="black" points="8,-249 8,-271 156,-271 156,-249 8,-249"/>
<text text-anchor="start" x="13" y="-258.2" font-family="Helvetica,sans-Serif" font-weight="bold" font-size="11.00">blocks</text>
<text text-anchor="start" x="114" y="-257.2" font-family="Helvetica,sans-Serif" font-size="11.00">[table]</text>
<polygon fill="#ffffff" stroke="transparent" points="8,-227 8,-249 156,-249 156,-227 8,-227"/>
<polygon fill="none" stroke="black" points="8,-227 8,-249 156,-249 156,-227 8,-227"/>
<text text-anchor="start" x="28" y="-235.2" font-family="Helvetica,sans-Serif" font-size="11.00">consensus</text>
<polygon fill="none" stroke="black" points="8,-205 8,-227 156,-227 156,-205 8,-205"/>
<image xlink:href="../../images/primaryKeys.png" width="11px" height="12px" preserveAspectRatio="xMinYMin meet" x="13" y="-222"/>
<text text-anchor="start" x="28" y="-213.2" font-family="Helvetica,sans-Serif" font-size="11.00">hash</text>
<polygon fill="#ffffff" stroke="transparent" points="8,-183 8,-205 156,-205 156,-183 8,-183"/>
<polygon fill="none" stroke="black" points="8,-183 8,-205 156,-205 156,-183 8,-183"/>
<text text-anchor="start" x="28" y="-191.2" font-family="Helvetica,sans-Serif" font-size="11.00">miner_hash</text>
<polygon fill="#ffffff" stroke="transparent" points="8,-161 8,-183 156,-183 156,-161 8,-161"/>
<polygon fill="none" stroke="black" points="8,-161 8,-183 156,-183 156,-161 8,-161"/>
<image xlink:href="../../images/foreignKeys.png" width="11px" height="12px" preserveAspectRatio="xMinYMin meet" x="13" y="-178"/>
<text text-anchor="start" x="28" y="-169.2" font-family="Helvetica,sans-Serif" font-size="11.00">number</text>
<polygon fill="#ffffff" stroke="transparent" points="8,-139 8,-161 156,-161 156,-139 8,-139"/>
<polygon fill="none" stroke="black" points="8,-139 8,-161 156,-161 156,-139 8,-139"/>
<text text-anchor="start" x="28" y="-147.2" font-family="Helvetica,sans-Serif" font-size="11.00">parent_hash</text>
<polygon fill="#ffffff" stroke="transparent" points="8,-117 8,-139 156,-139 156,-117 8,-117"/>
<polygon fill="none" stroke="black" points="8,-117 8,-139 156,-139 156,-117 8,-117"/>
<text text-anchor="start" x="28" y="-125.2" font-family="Helvetica,sans-Serif" font-size="11.00">timestamp</text>
<polygon fill="#ffffff" stroke="transparent" points="8,-95 8,-117 156,-117 156,-95 8,-95"/>
<polygon fill="none" stroke="black" points="8,-95 8,-117 156,-117 156,-95 8,-95"/>
<text text-anchor="start" x="28" y="-103.2" font-family="Helvetica,sans-Serif" font-size="11.00">inserted_at</text>
<polygon fill="#ffffff" stroke="transparent" points="8,-73 8,-95 156,-95 156,-73 8,-73"/>
<polygon fill="none" stroke="black" points="8,-73 8,-95 156,-95 156,-73 8,-73"/>
<text text-anchor="start" x="28" y="-81.2" font-family="Helvetica,sans-Serif" font-size="11.00">is_empty</text>
<polygon fill="none" stroke="black" points="8,-55 8,-73 156,-73 156,-55 8,-55"/>
<text text-anchor="start" x="11" y="-61.2" font-family="Helvetica,sans-Serif" font-size="11.00">...</text>
<polygon fill="#ffffff" stroke="transparent" points="8,-37 8,-55 156,-55 156,-37 8,-37"/>
<polygon fill="none" stroke="black" points="8,-37 8,-55 156,-55 156,-37 8,-37"/>
<polygon fill="#ffffff" stroke="transparent" points="9,-38 9,-54 54,-54 54,-38 9,-38"/>
<text text-anchor="start" x="11" y="-43.2" font-family="Helvetica,sans-Serif" font-size="11.00"> &#160;</text>
<polygon fill="#ffffff" stroke="transparent" points="54,-38 54,-54 99,-54 99,-38 54,-38"/>
<text text-anchor="start" x="72.5" y="-43.2" font-family="Helvetica,sans-Serif" font-size="11.00"> &#160;</text>
<polygon fill="#ffffff" stroke="transparent" points="99,-38 99,-54 155,-54 155,-38 99,-38"/>
<text text-anchor="start" x="133" y="-43.2" font-family="Helvetica,sans-Serif" font-size="11.00">9 &gt;</text>
<polygon fill="black" stroke="black" points="54,-38 54,-54 54,-54 54,-38 54,-38"/>
<polygon fill="black" stroke="black" points="99,-38 99,-54 99,-54 99,-38 99,-38"/>
</a>
</g>
</g>
<!-- internal_transactions&#45;&gt;blocks -->
<g id="edge1" class="edge">
<title>internal_transactions:w&#45;&gt;blocks:e</title>
<path fill="none" stroke="black" d="M512.95,-246.41C478.2,-230.87 529.95,-149.75 485,-117 381.55,-41.63 303.12,-45.42 197,-117 157.66,-143.54 204.46,-216 157,-216"/>
<polygon fill="black" stroke="black" points="519.62,-247.6 526.87,-252.54 523.56,-248.3 527.5,-249 527.5,-249 527.5,-249 523.56,-248.3 528.13,-245.46 519.62,-247.6 519.62,-247.6"/>
<ellipse fill="none" stroke="black" cx="516.47" cy="-247.03" rx="3.2" ry="3.2"/>
</g>
<!-- transactions -->
<g id="node3" class="node">
<title>transactions</title>
<g id="a_node3"><a xlink:href="../../tables/transactions.html" xlink:title="transactions" target="_top">
<polygon fill="#ffffff" stroke="transparent" points="205,-128 205,-516 477,-516 477,-128 205,-128"/>
<polygon fill="#f5f5f5" stroke="transparent" points="205,-494 205,-516 477,-516 477,-494 205,-494"/>
<polygon fill="none" stroke="black" points="205,-494 205,-516 477,-516 477,-494 205,-494"/>
<text text-anchor="start" x="210" y="-503.2" font-family="Helvetica,sans-Serif" font-weight="bold" font-size="11.00">transactions</text>
<text text-anchor="start" x="435" y="-502.2" font-family="Helvetica,sans-Serif" font-size="11.00">[table]</text>
<polygon fill="#ffffff" stroke="transparent" points="205,-472 205,-494 477,-494 477,-472 205,-472"/>
<polygon fill="none" stroke="black" points="205,-472 205,-494 477,-494 477,-472 205,-472"/>
<text text-anchor="start" x="225" y="-480.2" font-family="Helvetica,sans-Serif" font-size="11.00">error</text>
<polygon fill="none" stroke="black" points="205,-450 205,-472 477,-472 477,-450 205,-450"/>
<image xlink:href="../../images/primaryKeys.png" width="11px" height="12px" preserveAspectRatio="xMinYMin meet" x="210" y="-467"/>
<text text-anchor="start" x="225" y="-458.2" font-family="Helvetica,sans-Serif" font-size="11.00">hash</text>
<polygon fill="#ffffff" stroke="transparent" points="205,-428 205,-450 477,-450 477,-428 205,-428"/>
<polygon fill="none" stroke="black" points="205,-428 205,-450 477,-450 477,-428 205,-428"/>
<image xlink:href="../../images/foreignKeys.png" width="11px" height="12px" preserveAspectRatio="xMinYMin meet" x="210" y="-445"/>
<text text-anchor="start" x="225" y="-436.2" font-family="Helvetica,sans-Serif" font-size="11.00">index</text>
<polygon fill="#ffffff" stroke="transparent" points="205,-406 205,-428 477,-428 477,-406 205,-406"/>
<polygon fill="none" stroke="black" points="205,-406 205,-428 477,-428 477,-406 205,-406"/>
<text text-anchor="start" x="225" y="-414.2" font-family="Helvetica,sans-Serif" font-size="11.00">nonce</text>
<polygon fill="#ffffff" stroke="transparent" points="205,-384 205,-406 477,-406 477,-384 205,-384"/>
<polygon fill="none" stroke="black" points="205,-384 205,-406 477,-406 477,-384 205,-384"/>
<text text-anchor="start" x="225" y="-392.2" font-family="Helvetica,sans-Serif" font-size="11.00">status</text>
<polygon fill="#ffffff" stroke="transparent" points="205,-362 205,-384 477,-384 477,-362 205,-362"/>
<polygon fill="none" stroke="black" points="205,-362 205,-384 477,-384 477,-362 205,-362"/>
<text text-anchor="start" x="225" y="-370.2" font-family="Helvetica,sans-Serif" font-size="11.00">inserted_at</text>
<polygon fill="#ffffff" stroke="transparent" points="205,-340 205,-362 477,-362 477,-340 205,-340"/>
<polygon fill="none" stroke="black" points="205,-340 205,-362 477,-362 477,-340 205,-340"/>
<text text-anchor="start" x="225" y="-348.2" font-family="Helvetica,sans-Serif" font-size="11.00">updated_at</text>
<polygon fill="#ffffff" stroke="transparent" points="205,-318 205,-340 477,-340 477,-318 205,-318"/>
<polygon fill="none" stroke="black" points="205,-318 205,-340 477,-340 477,-318 205,-318"/>
<image xlink:href="../../images/foreignKeys.png" width="11px" height="12px" preserveAspectRatio="xMinYMin meet" x="210" y="-335"/>
<text text-anchor="start" x="225" y="-326.2" font-family="Helvetica,sans-Serif" font-size="11.00">block_hash</text>
<polygon fill="#ffffff" stroke="transparent" points="205,-296 205,-318 477,-318 477,-296 205,-296"/>
<polygon fill="none" stroke="black" points="205,-296 205,-318 477,-318 477,-296 205,-296"/>
<text text-anchor="start" x="225" y="-304.2" font-family="Helvetica,sans-Serif" font-size="11.00">block_number</text>
<polygon fill="#ffffff" stroke="transparent" points="205,-274 205,-296 477,-296 477,-274 205,-274"/>
<polygon fill="none" stroke="black" points="205,-274 205,-296 477,-296 477,-274 205,-274"/>
<text text-anchor="start" x="225" y="-282.2" font-family="Helvetica,sans-Serif" font-size="11.00">from_address_hash</text>
<polygon fill="#ffffff" stroke="transparent" points="205,-252 205,-274 477,-274 477,-252 205,-252"/>
<polygon fill="none" stroke="black" points="205,-252 205,-274 477,-274 477,-252 205,-252"/>
<text text-anchor="start" x="225" y="-260.2" font-family="Helvetica,sans-Serif" font-size="11.00">to_address_hash</text>
<polygon fill="#ffffff" stroke="transparent" points="205,-230 205,-252 477,-252 477,-230 205,-230"/>
<polygon fill="none" stroke="black" points="205,-230 205,-252 477,-252 477,-230 205,-230"/>
<text text-anchor="start" x="225" y="-238.2" font-family="Helvetica,sans-Serif" font-size="11.00">created_contract_address_hash</text>
<polygon fill="#ffffff" stroke="transparent" points="205,-208 205,-230 477,-230 477,-208 205,-208"/>
<polygon fill="none" stroke="black" points="205,-208 205,-230 477,-230 477,-208 205,-208"/>
<text text-anchor="start" x="225" y="-216.2" font-family="Helvetica,sans-Serif" font-size="11.00">created_contract_code_indexed_at</text>
<polygon fill="#ffffff" stroke="transparent" points="205,-186 205,-208 477,-208 477,-186 205,-186"/>
<polygon fill="none" stroke="black" points="205,-186 205,-208 477,-208 477,-186 205,-186"/>
<text text-anchor="start" x="225" y="-194.2" font-family="Helvetica,sans-Serif" font-size="11.00">block_timestamp</text>
<polygon fill="#ffffff" stroke="transparent" points="205,-164 205,-186 477,-186 477,-164 205,-164"/>
<polygon fill="none" stroke="black" points="205,-164 205,-186 477,-186 477,-164 205,-164"/>
<text text-anchor="start" x="225" y="-172.2" font-family="Helvetica,sans-Serif" font-size="11.00">block_consensus</text>
<polygon fill="none" stroke="black" points="205,-146 205,-164 477,-164 477,-146 205,-146"/>
<text text-anchor="start" x="208" y="-152.2" font-family="Helvetica,sans-Serif" font-size="11.00">...</text>
<polygon fill="#ffffff" stroke="transparent" points="205,-128 205,-146 477,-146 477,-128 205,-128"/>
<polygon fill="none" stroke="black" points="205,-128 205,-146 477,-146 477,-128 205,-128"/>
<polygon fill="#ffffff" stroke="transparent" points="206,-129 206,-145 300,-145 300,-129 206,-129"/>
<text text-anchor="start" x="208" y="-134.2" font-family="Helvetica,sans-Serif" font-size="11.00">&lt; 1</text>
<polygon fill="#ffffff" stroke="transparent" points="300,-129 300,-145 382,-145 382,-129 300,-129"/>
<text text-anchor="start" x="337" y="-134.2" font-family="Helvetica,sans-Serif" font-size="11.00"> &#160;</text>
<polygon fill="#ffffff" stroke="transparent" points="382,-129 382,-145 476,-145 476,-129 382,-129"/>
<text text-anchor="start" x="454" y="-134.2" font-family="Helvetica,sans-Serif" font-size="11.00">7 &gt;</text>
<polygon fill="black" stroke="black" points="300,-129 300,-145 300,-145 300,-129 300,-129"/>
<polygon fill="black" stroke="black" points="382,-129 382,-145 382,-145 382,-129 382,-129"/>
</a>
</g>
</g>
<!-- internal_transactions&#45;&gt;transactions -->
<g id="edge2" class="edge">
<title>internal_transactions:w&#45;&gt;transactions:e</title>
<path fill="none" stroke="black" d="M513.35,-317.92C472.59,-338.49 540.76,-461 478,-461"/>
<polygon fill="black" stroke="black" points="519.66,-316.62 528.23,-318.53 523.58,-315.81 527.5,-315 527.5,-315 527.5,-315 523.58,-315.81 526.77,-311.47 519.66,-316.62 519.66,-316.62"/>
<ellipse fill="none" stroke="black" cx="516.53" cy="-317.26" rx="3.2" ry="3.2"/>
</g>
<!-- transactions&#45;&gt;blocks -->
<g id="edge3" class="edge">
<title>transactions:w&#45;&gt;blocks:e</title>
<path fill="none" stroke="black" d="M190.02,-325.24C161.73,-305.63 205.44,-216 157,-216"/>
<polygon fill="black" stroke="black" points="196.27,-326.92 203.07,-332.48 200.14,-327.96 204,-329 204,-329 204,-329 200.14,-327.96 204.93,-325.52 196.27,-326.92 196.27,-326.92"/>
<ellipse fill="none" stroke="black" cx="193.18" cy="-326.09" rx="3.2" ry="3.2"/>
</g>
</g>
</svg>
