<?xml version="1.0" encoding="UTF-8" standalone="no"?>
<!DOCTYPE svg PUBLIC "-//W3C//DTD SVG 1.1//EN"
 "http://www.w3.org/Graphics/SVG/1.1/DTD/svg11.dtd">
<!-- Generated by graphviz version 9.0.0 (20230911.1827)
 -->
<!-- Title: oneDegreeRelationshipsDiagram Pages: 1 -->
<svg width="775pt" height="736pt"
 viewBox="0.00 0.00 775.00 736.00" xmlns="http://www.w3.org/2000/svg" xmlns:xlink="http://www.w3.org/1999/xlink">
<g id="graph0" class="graph" transform="scale(1 1) rotate(0) translate(4 732)">
<title>oneDegreeRelationshipsDiagram</title>
<polygon fill="#ffffff" stroke="none" points="-4,4 -4,-732 771,-732 771,4 -4,4"/>
<text text-anchor="middle" x="71.38" y="-5.55" font-family="Helvetica,sans-Serif" font-size="11.00">Generated by SchemaSpy</text>
<!-- internal_transactions -->
<g id="node1" class="node">
<title>internal_transactions</title>
<g id="a_node1"><a xlink:href="../../tables/internal_transactions.html" xlink:title="internal_transactions" target="_top">
<polygon fill="#ffffff" stroke="none" points="452,-196 452,-724 759,-724 759,-196 452,-196"/>
<polygon fill="#f5f5f5" stroke="none" points="454,-700 454,-722 757,-722 757,-700 454,-700"/>
<polygon fill="none" stroke="black" points="454,-700 454,-722 757,-722 757,-700 454,-700"/>
<text text-anchor="start" x="459" y="-707.55" font-family="Helvetica,sans-Serif" font-weight="bold" font-size="11.00">internal_transactions</text>
<text text-anchor="start" x="722.75" y="-706.55" font-family="Helvetica,sans-Serif" font-size="11.00">[table]</text>
<polygon fill="none" stroke="black" points="454,-678 454,-700 659,-700 659,-678 454,-678"/>
<text text-anchor="start" x="474" y="-684.55" font-family="Helvetica,sans-Serif" font-size="11.00">call_type</text>
<polygon fill="none" stroke="black" points="659,-678 659,-700 757,-700 757,-678 659,-678"/>
<text text-anchor="start" x="662" y="-684.55" font-family="Helvetica,sans-Serif" font-size="11.00">varchar[255]</text>
<polygon fill="none" stroke="black" points="454,-656 454,-678 659,-678 659,-656 454,-656"/>
<text text-anchor="start" x="474" y="-662.55" font-family="Helvetica,sans-Serif" font-size="11.00">created_contract_code</text>
<polygon fill="none" stroke="black" points="659,-656 659,-678 757,-678 757,-656 659,-656"/>
<text text-anchor="start" x="661.88" y="-662.55" font-family="Helvetica,sans-Serif" font-size="11.00">bytea[2147483647]</text>
<polygon fill="none" stroke="black" points="454,-634 454,-656 659,-656 659,-634 454,-634"/>
<text text-anchor="start" x="474" y="-640.55" font-family="Helvetica,sans-Serif" font-size="11.00">error</text>
<polygon fill="none" stroke="black" points="659,-634 659,-656 757,-656 757,-634 659,-634"/>
<text text-anchor="start" x="662" y="-640.55" font-family="Helvetica,sans-Serif" font-size="11.00">varchar[255]</text>
<polygon fill="none" stroke="black" points="454,-612 454,-634 659,-634 659,-612 454,-612"/>
<text text-anchor="start" x="474" y="-618.55" font-family="Helvetica,sans-Serif" font-size="11.00">gas</text>
<polygon fill="none" stroke="black" points="659,-612 659,-634 757,-634 757,-612 659,-612"/>
<text text-anchor="start" x="662" y="-618.55" font-family="Helvetica,sans-Serif" font-size="11.00">numeric[100]</text>
<polygon fill="none" stroke="black" points="454,-590 454,-612 659,-612 659,-590 454,-590"/>
<text text-anchor="start" x="474" y="-596.55" font-family="Helvetica,sans-Serif" font-size="11.00">gas_used</text>
<polygon fill="none" stroke="black" points="659,-590 659,-612 757,-612 757,-590 659,-590"/>
<text text-anchor="start" x="662" y="-596.55" font-family="Helvetica,sans-Serif" font-size="11.00">numeric[100]</text>
<polygon fill="#ffffff" stroke="none" points="454,-568 454,-590 659,-590 659,-568 454,-568"/>
<polygon fill="none" stroke="black" points="454,-568 454,-590 659,-590 659,-568 454,-568"/>
<image xlink:href="../../images/foreignKeys.png" width="11px" height="12px" preserveAspectRatio="xMinYMin meet" x="459" y="-585"/>
<text text-anchor="start" x="474" y="-574.55" font-family="Helvetica,sans-Serif" font-size="11.00">index</text>
<polygon fill="none" stroke="black" points="659,-568 659,-590 757,-590 757,-568 659,-568"/>
<text text-anchor="start" x="662" y="-574.55" font-family="Helvetica,sans-Serif" font-size="11.00">int4[10]</text>
<polygon fill="none" stroke="black" points="454,-546 454,-568 659,-568 659,-546 454,-546"/>
<text text-anchor="start" x="474" y="-552.55" font-family="Helvetica,sans-Serif" font-size="11.00">init</text>
<polygon fill="none" stroke="black" points="659,-546 659,-568 757,-568 757,-546 659,-546"/>
<text text-anchor="start" x="661.88" y="-552.55" font-family="Helvetica,sans-Serif" font-size="11.00">bytea[2147483647]</text>
<polygon fill="none" stroke="black" points="454,-524 454,-546 659,-546 659,-524 454,-524"/>
<text text-anchor="start" x="474" y="-530.55" font-family="Helvetica,sans-Serif" font-size="11.00">input</text>
<polygon fill="none" stroke="black" points="659,-524 659,-546 757,-546 757,-524 659,-524"/>
<text text-anchor="start" x="661.88" y="-530.55" font-family="Helvetica,sans-Serif" font-size="11.00">bytea[2147483647]</text>
<polygon fill="none" stroke="black" points="454,-502 454,-524 659,-524 659,-502 454,-502"/>
<text text-anchor="start" x="474" y="-508.55" font-family="Helvetica,sans-Serif" font-size="11.00">output</text>
<polygon fill="none" stroke="black" points="659,-502 659,-524 757,-524 757,-502 659,-502"/>
<text text-anchor="start" x="661.88" y="-508.55" font-family="Helvetica,sans-Serif" font-size="11.00">bytea[2147483647]</text>
<polygon fill="none" stroke="black" points="454,-480 454,-502 659,-502 659,-480 454,-480"/>
<text text-anchor="start" x="474" y="-486.55" font-family="Helvetica,sans-Serif" font-size="11.00">trace_address</text>
<polygon fill="none" stroke="black" points="659,-480 659,-502 757,-502 757,-480 659,-480"/>
<text text-anchor="start" x="662" y="-486.55" font-family="Helvetica,sans-Serif" font-size="11.00">_int4[10]</text>
<polygon fill="none" stroke="black" points="454,-458 454,-480 659,-480 659,-458 454,-458"/>
<text text-anchor="start" x="474" y="-464.55" font-family="Helvetica,sans-Serif" font-size="11.00">type</text>
<polygon fill="none" stroke="black" points="659,-458 659,-480 757,-480 757,-458 659,-458"/>
<text text-anchor="start" x="662" y="-464.55" font-family="Helvetica,sans-Serif" font-size="11.00">varchar[255]</text>
<polygon fill="none" stroke="black" points="454,-436 454,-458 659,-458 659,-436 454,-436"/>
<text text-anchor="start" x="474" y="-442.55" font-family="Helvetica,sans-Serif" font-size="11.00">value</text>
<polygon fill="none" stroke="black" points="659,-436 659,-458 757,-458 757,-436 659,-436"/>
<text text-anchor="start" x="662" y="-442.55" font-family="Helvetica,sans-Serif" font-size="11.00">numeric[100]</text>
<polygon fill="none" stroke="black" points="454,-414 454,-436 659,-436 659,-414 454,-414"/>
<text text-anchor="start" x="474" y="-420.55" font-family="Helvetica,sans-Serif" font-size="11.00">inserted_at</text>
<polygon fill="none" stroke="black" points="659,-414 659,-436 757,-436 757,-414 659,-414"/>
<text text-anchor="start" x="662" y="-420.55" font-family="Helvetica,sans-Serif" font-size="11.00">timestamp[29,6]</text>
<polygon fill="none" stroke="black" points="454,-392 454,-414 659,-414 659,-392 454,-392"/>
<text text-anchor="start" x="474" y="-398.55" font-family="Helvetica,sans-Serif" font-size="11.00">updated_at</text>
<polygon fill="none" stroke="black" points="659,-392 659,-414 757,-414 757,-392 659,-392"/>
<text text-anchor="start" x="662" y="-398.55" font-family="Helvetica,sans-Serif" font-size="11.00">timestamp[29,6]</text>
<polygon fill="#ffffff" stroke="none" points="454,-370 454,-392 659,-392 659,-370 454,-370"/>
<polygon fill="none" stroke="black" points="454,-370 454,-392 659,-392 659,-370 454,-370"/>
<text text-anchor="start" x="474" y="-376.55" font-family="Helvetica,sans-Serif" font-size="11.00">created_contract_address_hash</text>
<polygon fill="none" stroke="black" points="659,-370 659,-392 757,-392 757,-370 659,-370"/>
<text text-anchor="start" x="661.88" y="-376.55" font-family="Helvetica,sans-Serif" font-size="11.00">bytea[2147483647]</text>
<polygon fill="#ffffff" stroke="none" points="454,-348 454,-370 659,-370 659,-348 454,-348"/>
<polygon fill="none" stroke="black" points="454,-348 454,-370 659,-370 659,-348 454,-348"/>
<text text-anchor="start" x="474" y="-354.55" font-family="Helvetica,sans-Serif" font-size="11.00">from_address_hash</text>
<polygon fill="none" stroke="black" points="659,-348 659,-370 757,-370 757,-348 659,-348"/>
<text text-anchor="start" x="661.88" y="-354.55" font-family="Helvetica,sans-Serif" font-size="11.00">bytea[2147483647]</text>
<polygon fill="#ffffff" stroke="none" points="454,-326 454,-348 659,-348 659,-326 454,-326"/>
<polygon fill="none" stroke="black" points="454,-326 454,-348 659,-348 659,-326 454,-326"/>
<text text-anchor="start" x="474" y="-332.55" font-family="Helvetica,sans-Serif" font-size="11.00">to_address_hash</text>
<polygon fill="none" stroke="black" points="659,-326 659,-348 757,-348 757,-326 659,-326"/>
<text text-anchor="start" x="661.88" y="-332.55" font-family="Helvetica,sans-Serif" font-size="11.00">bytea[2147483647]</text>
<polygon fill="#ffffff" stroke="none" points="454,-304 454,-326 659,-326 659,-304 454,-304"/>
<polygon fill="none" stroke="black" points="454,-304 454,-326 659,-326 659,-304 454,-304"/>
<image xlink:href="../../images/foreignKeys.png" width="11px" height="12px" preserveAspectRatio="xMinYMin meet" x="459" y="-321"/>
<text text-anchor="start" x="474" y="-310.55" font-family="Helvetica,sans-Serif" font-size="11.00">transaction_hash</text>
<polygon fill="none" stroke="black" points="659,-304 659,-326 757,-326 757,-304 659,-304"/>
<text text-anchor="start" x="661.88" y="-310.55" font-family="Helvetica,sans-Serif" font-size="11.00">bytea[2147483647]</text>
<polygon fill="#ffffff" stroke="none" points="454,-282 454,-304 659,-304 659,-282 454,-282"/>
<polygon fill="none" stroke="black" points="454,-282 454,-304 659,-304 659,-282 454,-282"/>
<text text-anchor="start" x="474" y="-288.55" font-family="Helvetica,sans-Serif" font-size="11.00">block_number</text>
<polygon fill="none" stroke="black" points="659,-282 659,-304 757,-304 757,-282 659,-282"/>
<text text-anchor="start" x="662" y="-288.55" font-family="Helvetica,sans-Serif" font-size="11.00">int4[10]</text>
<polygon fill="#ffffff" stroke="none" points="454,-260 454,-282 659,-282 659,-260 454,-260"/>
<polygon fill="none" stroke="black" points="454,-260 454,-282 659,-282 659,-260 454,-260"/>
<image xlink:href="../../images/foreignKeys.png" width="11px" height="12px" preserveAspectRatio="xMinYMin meet" x="459" y="-277"/>
<text text-anchor="start" x="474" y="-266.55" font-family="Helvetica,sans-Serif" font-size="11.00">transaction_index</text>
<polygon fill="none" stroke="black" points="659,-260 659,-282 757,-282 757,-260 659,-260"/>
<text text-anchor="start" x="662" y="-266.55" font-family="Helvetica,sans-Serif" font-size="11.00">int4[10]</text>
<polygon fill="none" stroke="black" points="454,-238 454,-260 659,-260 659,-238 454,-238"/>
<image xlink:href="../../images/primaryKeys.png" width="11px" height="12px" preserveAspectRatio="xMinYMin meet" x="459" y="-255"/>
<text text-anchor="start" x="474" y="-244.55" font-family="Helvetica,sans-Serif" font-size="11.00">block_hash</text>
<polygon fill="none" stroke="black" points="659,-238 659,-260 757,-260 757,-238 659,-238"/>
<text text-anchor="start" x="661.88" y="-244.55" font-family="Helvetica,sans-Serif" font-size="11.00">bytea[2147483647]</text>
<polygon fill="none" stroke="black" points="454,-216 454,-238 659,-238 659,-216 454,-216"/>
<image xlink:href="../../images/primaryKeys.png" width="11px" height="12px" preserveAspectRatio="xMinYMin meet" x="459" y="-233"/>
<text text-anchor="start" x="474" y="-222.55" font-family="Helvetica,sans-Serif" font-size="11.00">block_index</text>
<polygon fill="none" stroke="black" points="659,-216 659,-238 757,-238 757,-216 659,-216"/>
<text text-anchor="start" x="662" y="-222.55" font-family="Helvetica,sans-Serif" font-size="11.00">int4[10]</text>
<polygon fill="#ffffff" stroke="none" points="454,-198 454,-216 561,-216 561,-198 454,-198"/>
<polygon fill="none" stroke="black" points="454,-198 454,-216 561,-216 561,-198 454,-198"/>
<text text-anchor="start" x="457" y="-202.55" font-family="Helvetica,sans-Serif" font-size="11.00">&lt; 2</text>
<polygon fill="#ffffff" stroke="none" points="561,-198 561,-216 659,-216 659,-198 561,-198"/>
<polygon fill="none" stroke="black" points="561,-198 561,-216 659,-216 659,-198 561,-198"/>
<text text-anchor="start" x="650" y="-202.55" font-family="Helvetica,sans-Serif" font-size="11.00"> &#160;</text>
<polygon fill="#ffffff" stroke="none" points="659,-198 659,-216 757,-216 757,-198 659,-198"/>
<polygon fill="none" stroke="black" points="659,-198 659,-216 757,-216 757,-198 659,-198"/>
<text text-anchor="start" x="738.25" y="-202.55" font-family="Helvetica,sans-Serif" font-size="11.00">0 &gt;</text>
<polygon fill="none" stroke="black" stroke-width="2" points="453,-197 453,-723 758,-723 758,-197 453,-197"/>
</a>
</g>
</g>
<!-- blocks -->
<g id="node2" class="node">
<title>blocks</title>
<g id="a_node2"><a xlink:href="../../tables/blocks.html" xlink:title="blocks" target="_top">
<polygon fill="#ffffff" stroke="none" points="8,-37 8,-271 133,-271 133,-37 8,-37"/>
<polygon fill="#f5f5f5" stroke="none" points="8,-249 8,-271 133,-271 133,-249 8,-249"/>
<polygon fill="none" stroke="black" points="8,-249 8,-271 133,-271 133,-249 8,-249"/>
<text text-anchor="start" x="12.75" y="-256.55" font-family="Helvetica,sans-Serif" font-weight="bold" font-size="11.00">blocks</text>
<text text-anchor="start" x="98.75" y="-255.55" font-family="Helvetica,sans-Serif" font-size="11.00">[table]</text>
<polygon fill="#ffffff" stroke="none" points="8,-227 8,-249 133,-249 133,-227 8,-227"/>
<polygon fill="none" stroke="black" points="8,-227 8,-249 133,-249 133,-227 8,-227"/>
<text text-anchor="start" x="28" y="-233.55" font-family="Helvetica,sans-Serif" font-size="11.00">consensus</text>
<polygon fill="none" stroke="black" points="8,-205 8,-227 133,-227 133,-205 8,-205"/>
<image xlink:href="../../images/primaryKeys.png" width="11px" height="12px" preserveAspectRatio="xMinYMin meet" x="13" y="-222"/>
<text text-anchor="start" x="28" y="-211.55" font-family="Helvetica,sans-Serif" font-size="11.00">hash</text>
<polygon fill="#ffffff" stroke="none" points="8,-183 8,-205 133,-205 133,-183 8,-183"/>
<polygon fill="none" stroke="black" points="8,-183 8,-205 133,-205 133,-183 8,-183"/>
<text text-anchor="start" x="28" y="-189.55" font-family="Helvetica,sans-Serif" font-size="11.00">miner_hash</text>
<polygon fill="#ffffff" stroke="none" points="8,-161 8,-183 133,-183 133,-161 8,-161"/>
<polygon fill="none" stroke="black" points="8,-161 8,-183 133,-183 133,-161 8,-161"/>
<text text-anchor="start" x="28" y="-167.55" font-family="Helvetica,sans-Serif" font-size="11.00">number</text>
<polygon fill="#ffffff" stroke="none" points="8,-139 8,-161 133,-161 133,-139 8,-139"/>
<polygon fill="none" stroke="black" points="8,-139 8,-161 133,-161 133,-139 8,-139"/>
<text text-anchor="start" x="28" y="-145.55" font-family="Helvetica,sans-Serif" font-size="11.00">parent_hash</text>
<polygon fill="#ffffff" stroke="none" points="8,-117 8,-139 133,-139 133,-117 8,-117"/>
<polygon fill="none" stroke="black" points="8,-117 8,-139 133,-139 133,-117 8,-117"/>
<text text-anchor="start" x="28" y="-123.55" font-family="Helvetica,sans-Serif" font-size="11.00">timestamp</text>
<polygon fill="#ffffff" stroke="none" points="8,-95 8,-117 133,-117 133,-95 8,-95"/>
<polygon fill="none" stroke="black" points="8,-95 8,-117 133,-117 133,-95 8,-95"/>
<text text-anchor="start" x="28" y="-101.55" font-family="Helvetica,sans-Serif" font-size="11.00">inserted_at</text>
<polygon fill="#ffffff" stroke="none" points="8,-73 8,-95 133,-95 133,-73 8,-73"/>
<polygon fill="none" stroke="black" points="8,-73 8,-95 133,-95 133,-73 8,-73"/>
<text text-anchor="start" x="28" y="-79.55" font-family="Helvetica,sans-Serif" font-size="11.00">is_empty</text>
<polygon fill="none" stroke="black" points="8,-55 8,-73 133,-73 133,-55 8,-55"/>
<text text-anchor="start" x="11" y="-59.55" font-family="Helvetica,sans-Serif" font-size="11.00">...</text>
<polygon fill="#ffffff" stroke="none" points="8,-37 8,-55 60,-55 60,-37 8,-37"/>
<polygon fill="none" stroke="black" points="8,-37 8,-55 60,-55 60,-37 8,-37"/>
<text text-anchor="start" x="11" y="-41.55" font-family="Helvetica,sans-Serif" font-size="11.00"> &#160;</text>
<polygon fill="#ffffff" stroke="none" points="60,-37 60,-55 92,-55 92,-37 60,-37"/>
<polygon fill="none" stroke="black" points="60,-37 60,-55 92,-55 92,-37 60,-37"/>
<text text-anchor="start" x="83" y="-41.55" font-family="Helvetica,sans-Serif" font-size="11.00"> &#160;</text>
<polygon fill="#ffffff" stroke="none" points="92,-37 92,-55 133,-55 133,-37 92,-37"/>
<polygon fill="none" stroke="black" points="92,-37 92,-55 133,-55 133,-37 92,-37"/>
<text text-anchor="start" x="114.25" y="-41.55" font-family="Helvetica,sans-Serif" font-size="11.00">9 &gt;</text>
</a>
</g>
</g>
<!-- internal_transactions&#45;&gt;blocks -->
<g id="edge1" class="edge">
<title>internal_transactions:w&#45;&gt;blocks:e</title>
<path fill="none" stroke="black" d="M437.12,-245.99C404.35,-229.49 455.35,-149.55 411,-117 326.08,-54.68 261.2,-57.91 174,-117 134.78,-143.58 181.87,-216 134.5,-216"/>
<polygon fill="black" stroke="black" points="444.32,-247.4 451.48,-252.47 448.57,-248.23 451.84,-248.87 451.84,-248.87 451.84,-248.87 448.57,-248.23 452.86,-245.4 444.32,-247.4"/>
<ellipse fill="none" stroke="black" cx="439.49" cy="-246.45" rx="3.2" ry="3.2"/>
</g>
<!-- transactions -->
<g id="node3" class="node">
<title>transactions</title>
<g id="a_node3"><a xlink:href="../../tables/transactions.html" xlink:title="transactions" target="_top">
<polygon fill="#ffffff" stroke="none" points="182,-128 182,-516 403,-516 403,-128 182,-128"/>
<polygon fill="#f5f5f5" stroke="none" points="182,-494 182,-516 403,-516 403,-494 182,-494"/>
<polygon fill="none" stroke="black" points="182,-494 182,-516 403,-516 403,-494 182,-494"/>
<text text-anchor="start" x="187" y="-501.55" font-family="Helvetica,sans-Serif" font-weight="bold" font-size="11.00">transactions</text>
<text text-anchor="start" x="368.75" y="-500.55" font-family="Helvetica,sans-Serif" font-size="11.00">[table]</text>
<polygon fill="#ffffff" stroke="none" points="182,-472 182,-494 403,-494 403,-472 182,-472"/>
<polygon fill="none" stroke="black" points="182,-472 182,-494 403,-494 403,-472 182,-472"/>
<text text-anchor="start" x="202" y="-478.55" font-family="Helvetica,sans-Serif" font-size="11.00">error</text>
<polygon fill="none" stroke="black" points="182,-450 182,-472 403,-472 403,-450 182,-450"/>
<image xlink:href="../../images/primaryKeys.png" width="11px" height="12px" preserveAspectRatio="xMinYMin meet" x="187" y="-467"/>
<text text-anchor="start" x="202" y="-456.55" font-family="Helvetica,sans-Serif" font-size="11.00">hash</text>
<polygon fill="#ffffff" stroke="none" points="182,-428 182,-450 403,-450 403,-428 182,-428"/>
<polygon fill="none" stroke="black" points="182,-428 182,-450 403,-450 403,-428 182,-428"/>
<image xlink:href="../../images/foreignKeys.png" width="11px" height="12px" preserveAspectRatio="xMinYMin meet" x="187" y="-445"/>
<text text-anchor="start" x="202" y="-434.55" font-family="Helvetica,sans-Serif" font-size="11.00">index</text>
<polygon fill="#ffffff" stroke="none" points="182,-406 182,-428 403,-428 403,-406 182,-406"/>
<polygon fill="none" stroke="black" points="182,-406 182,-428 403,-428 403,-406 182,-406"/>
<text text-anchor="start" x="202" y="-412.55" font-family="Helvetica,sans-Serif" font-size="11.00">nonce</text>
<polygon fill="#ffffff" stroke="none" points="182,-384 182,-406 403,-406 403,-384 182,-384"/>
<polygon fill="none" stroke="black" points="182,-384 182,-406 403,-406 403,-384 182,-384"/>
<text text-anchor="start" x="202" y="-390.55" font-family="Helvetica,sans-Serif" font-size="11.00">status</text>
<polygon fill="#ffffff" stroke="none" points="182,-362 182,-384 403,-384 403,-362 182,-362"/>
<polygon fill="none" stroke="black" points="182,-362 182,-384 403,-384 403,-362 182,-362"/>
<text text-anchor="start" x="202" y="-368.55" font-family="Helvetica,sans-Serif" font-size="11.00">inserted_at</text>
<polygon fill="#ffffff" stroke="none" points="182,-340 182,-362 403,-362 403,-340 182,-340"/>
<polygon fill="none" stroke="black" points="182,-340 182,-362 403,-362 403,-340 182,-340"/>
<text text-anchor="start" x="202" y="-346.55" font-family="Helvetica,sans-Serif" font-size="11.00">updated_at</text>
<polygon fill="#ffffff" stroke="none" points="182,-318 182,-340 403,-340 403,-318 182,-318"/>
<polygon fill="none" stroke="black" points="182,-318 182,-340 403,-340 403,-318 182,-318"/>
<image xlink:href="../../images/foreignKeys.png" width="11px" height="12px" preserveAspectRatio="xMinYMin meet" x="187" y="-335"/>
<text text-anchor="start" x="202" y="-324.55" font-family="Helvetica,sans-Serif" font-size="11.00">block_hash</text>
<polygon fill="#ffffff" stroke="none" points="182,-296 182,-318 403,-318 403,-296 182,-296"/>
<polygon fill="none" stroke="black" points="182,-296 182,-318 403,-318 403,-296 182,-296"/>
<text text-anchor="start" x="202" y="-302.55" font-family="Helvetica,sans-Serif" font-size="11.00">block_number</text>
<polygon fill="#ffffff" stroke="none" points="182,-274 182,-296 403,-296 403,-274 182,-274"/>
<polygon fill="none" stroke="black" points="182,-274 182,-296 403,-296 403,-274 182,-274"/>
<text text-anchor="start" x="202" y="-280.55" font-family="Helvetica,sans-Serif" font-size="11.00">from_address_hash</text>
<polygon fill="#ffffff" stroke="none" points="182,-252 182,-274 403,-274 403,-252 182,-252"/>
<polygon fill="none" stroke="black" points="182,-252 182,-274 403,-274 403,-252 182,-252"/>
<text text-anchor="start" x="202" y="-258.55" font-family="Helvetica,sans-Serif" font-size="11.00">to_address_hash</text>
<polygon fill="#ffffff" stroke="none" points="182,-230 182,-252 403,-252 403,-230 182,-230"/>
<polygon fill="none" stroke="black" points="182,-230 182,-252 403,-252 403,-230 182,-230"/>
<text text-anchor="start" x="202" y="-236.55" font-family="Helvetica,sans-Serif" font-size="11.00">created_contract_address_hash</text>
<polygon fill="#ffffff" stroke="none" points="182,-208 182,-230 403,-230 403,-208 182,-208"/>
<polygon fill="none" stroke="black" points="182,-208 182,-230 403,-230 403,-208 182,-208"/>
<text text-anchor="start" x="202" y="-214.55" font-family="Helvetica,sans-Serif" font-size="11.00">created_contract_code_indexed_at</text>
<polygon fill="#ffffff" stroke="none" points="182,-186 182,-208 403,-208 403,-186 182,-186"/>
<polygon fill="none" stroke="black" points="182,-186 182,-208 403,-208 403,-186 182,-186"/>
<text text-anchor="start" x="202" y="-192.55" font-family="Helvetica,sans-Serif" font-size="11.00">block_timestamp</text>
<polygon fill="#ffffff" stroke="none" points="182,-164 182,-186 403,-186 403,-164 182,-164"/>
<polygon fill="none" stroke="black" points="182,-164 182,-186 403,-186 403,-164 182,-164"/>
<text text-anchor="start" x="202" y="-170.55" font-family="Helvetica,sans-Serif" font-size="11.00">block_consensus</text>
<polygon fill="none" stroke="black" points="182,-146 182,-164 403,-164 403,-146 182,-146"/>
<text text-anchor="start" x="185" y="-150.55" font-family="Helvetica,sans-Serif" font-size="11.00">...</text>
<polygon fill="#ffffff" stroke="none" points="182,-128 182,-146 286,-146 286,-128 182,-128"/>
<polygon fill="none" stroke="black" points="182,-128 182,-146 286,-146 286,-128 182,-128"/>
<text text-anchor="start" x="185" y="-132.55" font-family="Helvetica,sans-Serif" font-size="11.00">&lt; 1</text>
<polygon fill="#ffffff" stroke="none" points="286,-128 286,-146 340,-146 340,-128 286,-128"/>
<polygon fill="none" stroke="black" points="286,-128 286,-146 340,-146 340,-128 286,-128"/>
<text text-anchor="start" x="331" y="-132.55" font-family="Helvetica,sans-Serif" font-size="11.00"> &#160;</text>
<polygon fill="#ffffff" stroke="none" points="340,-128 340,-146 403,-146 403,-128 340,-128"/>
<polygon fill="none" stroke="black" points="340,-128 340,-146 403,-146 403,-128 340,-128"/>
<text text-anchor="start" x="384.25" y="-132.55" font-family="Helvetica,sans-Serif" font-size="11.00">5 &gt;</text>
</a>
</g>
</g>
<!-- internal_transactions&#45;&gt;transactions -->
<g id="edge2" class="edge">
<title>internal_transactions:w&#45;&gt;transactions:e</title>
<path fill="none" stroke="black" d="M437.17,-318.61C399.43,-341.09 466.4,-461 404.5,-461"/>
<polygon fill="black" stroke="black" points="444.39,-316.91 453,-318.58 448.61,-315.92 451.85,-315.15 451.85,-315.15 451.85,-315.15 448.61,-315.92 451.35,-311.57 444.39,-316.91"/>
<ellipse fill="none" stroke="black" cx="439.6" cy="-318.04" rx="3.2" ry="3.2"/>
</g>
<!-- transactions&#45;&gt;blocks -->
<g id="edge3" class="edge">
<title>transactions:w&#45;&gt;blocks:e</title>
<path fill="none" stroke="black" d="M165.52,-324.43C139.69,-303.29 182.16,-216 134.5,-216"/>
<polygon fill="black" stroke="black" points="172.53,-326.57 179.13,-332.35 176.67,-327.83 179.86,-328.8 179.86,-328.8 179.86,-328.8 176.67,-327.83 181.23,-325.46 172.53,-326.57"/>
<ellipse fill="none" stroke="black" cx="167.82" cy="-325.13" rx="3.2" ry="3.2"/>
</g>
</g>
</svg>
