<?xml version="1.0" encoding="UTF-8" standalone="no"?>
<!DOCTYPE svg PUBLIC "-//W3C//DTD SVG 1.1//EN"
 "http://www.w3.org/Graphics/SVG/1.1/DTD/svg11.dtd">
<!-- Generated by graphviz version 2.38.0 (20140413.2041)
 -->
<!-- Title: oneDegreeRelationshipsDiagram Pages: 1 -->
<svg width="1078pt" height="841pt"
 viewBox="0.00 0.00 1078.00 841.00" xmlns="http://www.w3.org/2000/svg" xmlns:xlink="http://www.w3.org/1999/xlink">
<g id="graph0" class="graph" transform="scale(1 1) rotate(0) translate(4 837)">
<title>oneDegreeRelationshipsDiagram</title>
<polygon fill="#ffffff" stroke="none" points="-4,4 -4,-837 1074,-837 1074,4 -4,4"/>
<text text-anchor="middle" x="74.5" y="-7.2" font-family="Helvetica,sans-Serif" font-size="11.00">Generated by SchemaSpy</text>
<!-- blocks -->
<g id="node1" class="node"><title>blocks</title>
<g id="a_node1"><a xlink:href="../../tables/blocks.html" xlink:title="blocks" target="_top">
<polygon fill="#ffffff" stroke="none" points="295,-179 295,-413 417,-413 417,-179 295,-179"/>
<polygon fill="#f5f5f5" stroke="none" points="295,-391 295,-413 417,-413 417,-391 295,-391"/>
<polygon fill="none" stroke="black" points="295,-391 295,-413 417,-413 417,-391 295,-391"/>
<text text-anchor="start" x="300" y="-400.2" font-family="Helvetica,sans-Serif" font-weight="bold" font-size="11.00">blocks</text>
<text text-anchor="start" x="378" y="-399.2" font-family="Helvetica,sans-Serif" font-size="11.00">[table]</text>
<polygon fill="#ffffff" stroke="none" points="295,-369 295,-391 417,-391 417,-369 295,-369"/>
<polygon fill="none" stroke="black" points="295,-369 295,-391 417,-391 417,-369 295,-369"/>
<text text-anchor="start" x="315" y="-377.2" font-family="Helvetica,sans-Serif" font-size="11.00">consensus</text>
<polygon fill="none" stroke="black" points="295,-347 295,-369 417,-369 417,-347 295,-347"/>
<image xlink:href="../../images/primaryKeys.png" width="11px" height="12px" preserveAspectRatio="xMinYMin meet" x="300" y="-364"/>
<text text-anchor="start" x="315" y="-355.2" font-family="Helvetica,sans-Serif" font-size="11.00">hash</text>
<polygon fill="#ffffff" stroke="none" points="295,-325 295,-347 417,-347 417,-325 295,-325"/>
<polygon fill="none" stroke="black" points="295,-325 295,-347 417,-347 417,-325 295,-325"/>
<image xlink:href="../../images/foreignKeys.png" width="11px" height="12px" preserveAspectRatio="xMinYMin meet" x="300" y="-342"/>
<text text-anchor="start" x="315" y="-333.2" font-family="Helvetica,sans-Serif" font-size="11.00">miner_hash</text>
<polygon fill="#ffffff" stroke="none" points="295,-303 295,-325 417,-325 417,-303 295,-303"/>
<polygon fill="none" stroke="black" points="295,-303 295,-325 417,-325 417,-303 295,-303"/>
<text text-anchor="start" x="315" y="-311.2" font-family="Helvetica,sans-Serif" font-size="11.00">number</text>
<polygon fill="#ffffff" stroke="none" points="295,-281 295,-303 417,-303 417,-281 295,-281"/>
<polygon fill="none" stroke="black" points="295,-281 295,-303 417,-303 417,-281 295,-281"/>
<text text-anchor="start" x="315" y="-289.2" font-family="Helvetica,sans-Serif" font-size="11.00">parent_hash</text>
<polygon fill="#ffffff" stroke="none" points="295,-259 295,-281 417,-281 417,-259 295,-259"/>
<polygon fill="none" stroke="black" points="295,-259 295,-281 417,-281 417,-259 295,-259"/>
<text text-anchor="start" x="315" y="-267.2" font-family="Helvetica,sans-Serif" font-size="11.00">timestamp</text>
<polygon fill="#ffffff" stroke="none" points="295,-237 295,-259 417,-259 417,-237 295,-237"/>
<polygon fill="none" stroke="black" points="295,-237 295,-259 417,-259 417,-237 295,-237"/>
<text text-anchor="start" x="315" y="-245.2" font-family="Helvetica,sans-Serif" font-size="11.00">inserted_at</text>
<polygon fill="#ffffff" stroke="none" points="295,-215 295,-237 417,-237 417,-215 295,-215"/>
<polygon fill="none" stroke="black" points="295,-215 295,-237 417,-237 417,-215 295,-215"/>
<text text-anchor="start" x="315" y="-223.2" font-family="Helvetica,sans-Serif" font-size="11.00">is_empty</text>
<polygon fill="none" stroke="black" points="295,-197 295,-215 417,-215 417,-197 295,-197"/>
<text text-anchor="start" x="298" y="-203.2" font-family="Helvetica,sans-Serif" font-size="11.00">...</text>
<polygon fill="#ffffff" stroke="none" points="295,-179 295,-197 335,-197 335,-179 295,-179"/>
<polygon fill="none" stroke="black" points="295,-179 295,-197 335,-197 335,-179 295,-179"/>
<text text-anchor="start" x="298" y="-185.2" font-family="Helvetica,sans-Serif" font-size="11.00">&lt; 1</text>
<polygon fill="#ffffff" stroke="none" points="335,-179 335,-197 385,-197 385,-179 335,-179"/>
<polygon fill="none" stroke="black" points="335,-179 335,-197 385,-197 385,-179 335,-179"/>
<text text-anchor="start" x="346" y="-185.2" font-family="Helvetica,sans-Serif" font-size="11.00">3 rows</text>
<polygon fill="#ffffff" stroke="none" points="385,-179 385,-197 417,-197 417,-179 385,-179"/>
<polygon fill="none" stroke="black" points="385,-179 385,-197 417,-197 417,-179 385,-179"/>
<text text-anchor="start" x="397" y="-185.2" font-family="Helvetica,sans-Serif" font-size="11.00">8 &gt;</text>
</a>
</g>
</g>
<!-- addresses -->
<g id="node2" class="node"><title>addresses</title>
<g id="a_node2"><a xlink:href="../../tables/addresses.html" xlink:title="addresses" target="_top">
<polygon fill="#ffffff" stroke="none" points="8,-267 8,-391 246,-391 246,-267 8,-267"/>
<polygon fill="#f5f5f5" stroke="none" points="8,-369 8,-391 246,-391 246,-369 8,-369"/>
<polygon fill="none" stroke="black" points="8,-369 8,-391 246,-391 246,-369 8,-369"/>
<text text-anchor="start" x="13" y="-378.2" font-family="Helvetica,sans-Serif" font-weight="bold" font-size="11.00">addresses</text>
<text text-anchor="start" x="207" y="-377.2" font-family="Helvetica,sans-Serif" font-size="11.00">[table]</text>
<polygon fill="#ffffff" stroke="none" points="8,-347 8,-369 246,-369 246,-347 8,-347"/>
<polygon fill="none" stroke="black" points="8,-347 8,-369 246,-369 246,-347 8,-347"/>
<text text-anchor="start" x="28" y="-355.2" font-family="Helvetica,sans-Serif" font-size="11.00">fetched_coin_balance</text>
<polygon fill="none" stroke="black" points="8,-325 8,-347 246,-347 246,-325 8,-325"/>
<image xlink:href="../../images/primaryKeys.png" width="11px" height="12px" preserveAspectRatio="xMinYMin meet" x="13" y="-342"/>
<text text-anchor="start" x="28" y="-333.2" font-family="Helvetica,sans-Serif" font-size="11.00">hash</text>
<polygon fill="#ffffff" stroke="none" points="8,-303 8,-325 246,-325 246,-303 8,-303"/>
<polygon fill="none" stroke="black" points="8,-303 8,-325 246,-325 246,-303 8,-303"/>
<text text-anchor="start" x="28" y="-311.2" font-family="Helvetica,sans-Serif" font-size="11.00">inserted_at</text>
<polygon fill="none" stroke="black" points="8,-285 8,-303 246,-303 246,-285 8,-285"/>
<text text-anchor="start" x="11" y="-291.2" font-family="Helvetica,sans-Serif" font-size="11.00">...</text>
<polygon fill="#ffffff" stroke="none" points="8,-267 8,-285 97,-285 97,-267 8,-267"/>
<polygon fill="none" stroke="black" points="8,-267 8,-285 97,-285 97,-267 8,-267"/>
<text text-anchor="start" x="11" y="-273.2" font-family="Helvetica,sans-Serif" font-size="11.00"> &#160;</text>
<polygon fill="#ffffff" stroke="none" points="97,-267 97,-285 177,-285 177,-267 97,-267"/>
<polygon fill="none" stroke="black" points="97,-267 97,-285 177,-285 177,-267 97,-267"/>
<text text-anchor="start" x="138" y="-273.2" font-family="Helvetica,sans-Serif" font-size="11.00">2 rows</text>
<polygon fill="#ffffff" stroke="none" points="177,-267 177,-285 246,-285 246,-267 177,-267"/>
<polygon fill="none" stroke="black" points="177,-267 177,-285 246,-285 246,-267 177,-267"/>
<text text-anchor="start" x="219" y="-273.2" font-family="Helvetica,sans-Serif" font-size="11.00">19 &gt;</text>
</a>
</g>
</g>
<!-- blocks&#45;&gt;addresses -->
<g id="edge1" class="edge"><title>blocks:miner_hash:w&#45;&gt;addresses:hash:e</title>
<path fill="none" stroke="black" d="M279.396,-336C268.934,-336 262.014,-336 247,-336"/>
<polygon fill="black" stroke="black" points="286,-336 294,-339.6 290,-336 294,-336 294,-336 294,-336 290,-336 294,-332.4 286,-336 286,-336"/>
<ellipse fill="none" stroke="black" cx="282.8" cy="-336" rx="3.2" ry="3.2"/>
</g>
<!-- internal_transactions -->
<g id="node3" class="node"><title>internal_transactions</title>
<g id="a_node3"><a xlink:href="../../tables/internal_transactions.html" xlink:title="internal_transactions" target="_top">
<polygon fill="#ffffff" stroke="none" points="740,-301 740,-829 1062,-829 1062,-301 740,-301"/>
<polygon fill="#f5f5f5" stroke="none" points="742,-805 742,-827 1060,-827 1060,-805 742,-805"/>
<polygon fill="none" stroke="black" points="742,-805 742,-827 1060,-827 1060,-805 742,-805"/>
<text text-anchor="start" x="747" y="-814.2" font-family="Helvetica,sans-Serif" font-weight="bold" font-size="11.00">internal_transactions</text>
<text text-anchor="start" x="1021" y="-813.2" font-family="Helvetica,sans-Serif" font-size="11.00">[table]</text>
<polygon fill="none" stroke="black" points="742,-783 742,-805 950,-805 950,-783 742,-783"/>
<text text-anchor="start" x="762" y="-791.2" font-family="Helvetica,sans-Serif" font-size="11.00">call_type</text>
<polygon fill="none" stroke="black" points="950,-783 950,-805 1060,-805 1060,-783 950,-783"/>
<text text-anchor="start" x="953" y="-791.2" font-family="Helvetica,sans-Serif" font-size="11.00">varchar[255]</text>
<polygon fill="none" stroke="black" points="742,-761 742,-783 950,-783 950,-761 742,-761"/>
<text text-anchor="start" x="762" y="-769.2" font-family="Helvetica,sans-Serif" font-size="11.00">created_contract_code</text>
<polygon fill="none" stroke="black" points="950,-761 950,-783 1060,-783 1060,-761 950,-761"/>
<text text-anchor="start" x="953" y="-769.2" font-family="Helvetica,sans-Serif" font-size="11.00">bytea[2147483647]</text>
<polygon fill="none" stroke="black" points="742,-739 742,-761 950,-761 950,-739 742,-739"/>
<text text-anchor="start" x="762" y="-747.2" font-family="Helvetica,sans-Serif" font-size="11.00">error</text>
<polygon fill="none" stroke="black" points="950,-739 950,-761 1060,-761 1060,-739 950,-739"/>
<text text-anchor="start" x="953" y="-747.2" font-family="Helvetica,sans-Serif" font-size="11.00">varchar[255]</text>
<polygon fill="none" stroke="black" points="742,-717 742,-739 950,-739 950,-717 742,-717"/>
<text text-anchor="start" x="762" y="-725.2" font-family="Helvetica,sans-Serif" font-size="11.00">gas</text>
<polygon fill="none" stroke="black" points="950,-717 950,-739 1060,-739 1060,-717 950,-717"/>
<text text-anchor="start" x="953" y="-725.2" font-family="Helvetica,sans-Serif" font-size="11.00">numeric[100]</text>
<polygon fill="none" stroke="black" points="742,-695 742,-717 950,-717 950,-695 742,-695"/>
<text text-anchor="start" x="762" y="-703.2" font-family="Helvetica,sans-Serif" font-size="11.00">gas_used</text>
<polygon fill="none" stroke="black" points="950,-695 950,-717 1060,-717 1060,-695 950,-695"/>
<text text-anchor="start" x="953" y="-703.2" font-family="Helvetica,sans-Serif" font-size="11.00">numeric[100]</text>
<polygon fill="#ffffff" stroke="none" points="742,-673 742,-695 950,-695 950,-673 742,-673"/>
<polygon fill="none" stroke="black" points="742,-673 742,-695 950,-695 950,-673 742,-673"/>
<text text-anchor="start" x="762" y="-681.2" font-family="Helvetica,sans-Serif" font-size="11.00">index</text>
<polygon fill="none" stroke="black" points="950,-673 950,-695 1060,-695 1060,-673 950,-673"/>
<text text-anchor="start" x="953" y="-681.2" font-family="Helvetica,sans-Serif" font-size="11.00">int4[10]</text>
<polygon fill="none" stroke="black" points="742,-651 742,-673 950,-673 950,-651 742,-651"/>
<text text-anchor="start" x="762" y="-659.2" font-family="Helvetica,sans-Serif" font-size="11.00">init</text>
<polygon fill="none" stroke="black" points="950,-651 950,-673 1060,-673 1060,-651 950,-651"/>
<text text-anchor="start" x="953" y="-659.2" font-family="Helvetica,sans-Serif" font-size="11.00">bytea[2147483647]</text>
<polygon fill="none" stroke="black" points="742,-629 742,-651 950,-651 950,-629 742,-629"/>
<text text-anchor="start" x="762" y="-637.2" font-family="Helvetica,sans-Serif" font-size="11.00">input</text>
<polygon fill="none" stroke="black" points="950,-629 950,-651 1060,-651 1060,-629 950,-629"/>
<text text-anchor="start" x="953" y="-637.2" font-family="Helvetica,sans-Serif" font-size="11.00">bytea[2147483647]</text>
<polygon fill="none" stroke="black" points="742,-607 742,-629 950,-629 950,-607 742,-607"/>
<text text-anchor="start" x="762" y="-615.2" font-family="Helvetica,sans-Serif" font-size="11.00">output</text>
<polygon fill="none" stroke="black" points="950,-607 950,-629 1060,-629 1060,-607 950,-607"/>
<text text-anchor="start" x="953" y="-615.2" font-family="Helvetica,sans-Serif" font-size="11.00">bytea[2147483647]</text>
<polygon fill="none" stroke="black" points="742,-585 742,-607 950,-607 950,-585 742,-585"/>
<text text-anchor="start" x="762" y="-593.2" font-family="Helvetica,sans-Serif" font-size="11.00">trace_address</text>
<polygon fill="none" stroke="black" points="950,-585 950,-607 1060,-607 1060,-585 950,-585"/>
<text text-anchor="start" x="953" y="-593.2" font-family="Helvetica,sans-Serif" font-size="11.00">_int4[10]</text>
<polygon fill="none" stroke="black" points="742,-563 742,-585 950,-585 950,-563 742,-563"/>
<text text-anchor="start" x="762" y="-571.2" font-family="Helvetica,sans-Serif" font-size="11.00">type</text>
<polygon fill="none" stroke="black" points="950,-563 950,-585 1060,-585 1060,-563 950,-563"/>
<text text-anchor="start" x="953" y="-571.2" font-family="Helvetica,sans-Serif" font-size="11.00">varchar[255]</text>
<polygon fill="none" stroke="black" points="742,-541 742,-563 950,-563 950,-541 742,-541"/>
<text text-anchor="start" x="762" y="-549.2" font-family="Helvetica,sans-Serif" font-size="11.00">value</text>
<polygon fill="none" stroke="black" points="950,-541 950,-563 1060,-563 1060,-541 950,-541"/>
<text text-anchor="start" x="953" y="-549.2" font-family="Helvetica,sans-Serif" font-size="11.00">numeric[100]</text>
<polygon fill="none" stroke="black" points="742,-519 742,-541 950,-541 950,-519 742,-519"/>
<text text-anchor="start" x="762" y="-527.2" font-family="Helvetica,sans-Serif" font-size="11.00">inserted_at</text>
<polygon fill="none" stroke="black" points="950,-519 950,-541 1060,-541 1060,-519 950,-519"/>
<text text-anchor="start" x="953" y="-527.2" font-family="Helvetica,sans-Serif" font-size="11.00">timestamp[29,6]</text>
<polygon fill="none" stroke="black" points="742,-497 742,-519 950,-519 950,-497 742,-497"/>
<text text-anchor="start" x="762" y="-505.2" font-family="Helvetica,sans-Serif" font-size="11.00">updated_at</text>
<polygon fill="none" stroke="black" points="950,-497 950,-519 1060,-519 1060,-497 950,-497"/>
<text text-anchor="start" x="953" y="-505.2" font-family="Helvetica,sans-Serif" font-size="11.00">timestamp[29,6]</text>
<polygon fill="#ffffff" stroke="none" points="742,-475 742,-497 950,-497 950,-475 742,-475"/>
<polygon fill="none" stroke="black" points="742,-475 742,-497 950,-497 950,-475 742,-475"/>
<image xlink:href="../../images/foreignKeys.png" width="11px" height="12px" preserveAspectRatio="xMinYMin meet" x="747" y="-492"/>
<text text-anchor="start" x="762" y="-483.2" font-family="Helvetica,sans-Serif" font-size="11.00">created_contract_address_hash</text>
<polygon fill="none" stroke="black" points="950,-475 950,-497 1060,-497 1060,-475 950,-475"/>
<text text-anchor="start" x="953" y="-483.2" font-family="Helvetica,sans-Serif" font-size="11.00">bytea[2147483647]</text>
<polygon fill="#ffffff" stroke="none" points="742,-453 742,-475 950,-475 950,-453 742,-453"/>
<polygon fill="none" stroke="black" points="742,-453 742,-475 950,-475 950,-453 742,-453"/>
<image xlink:href="../../images/foreignKeys.png" width="11px" height="12px" preserveAspectRatio="xMinYMin meet" x="747" y="-470"/>
<text text-anchor="start" x="762" y="-461.2" font-family="Helvetica,sans-Serif" font-size="11.00">from_address_hash</text>
<polygon fill="none" stroke="black" points="950,-453 950,-475 1060,-475 1060,-453 950,-453"/>
<text text-anchor="start" x="953" y="-461.2" font-family="Helvetica,sans-Serif" font-size="11.00">bytea[2147483647]</text>
<polygon fill="#ffffff" stroke="none" points="742,-431 742,-453 950,-453 950,-431 742,-431"/>
<polygon fill="none" stroke="black" points="742,-431 742,-453 950,-453 950,-431 742,-431"/>
<image xlink:href="../../images/foreignKeys.png" width="11px" height="12px" preserveAspectRatio="xMinYMin meet" x="747" y="-448"/>
<text text-anchor="start" x="762" y="-439.2" font-family="Helvetica,sans-Serif" font-size="11.00">to_address_hash</text>
<polygon fill="none" stroke="black" points="950,-431 950,-453 1060,-453 1060,-431 950,-431"/>
<text text-anchor="start" x="953" y="-439.2" font-family="Helvetica,sans-Serif" font-size="11.00">bytea[2147483647]</text>
<polygon fill="#ffffff" stroke="none" points="742,-409 742,-431 950,-431 950,-409 742,-409"/>
<polygon fill="none" stroke="black" points="742,-409 742,-431 950,-431 950,-409 742,-409"/>
<image xlink:href="../../images/foreignKeys.png" width="11px" height="12px" preserveAspectRatio="xMinYMin meet" x="747" y="-426"/>
<text text-anchor="start" x="762" y="-417.2" font-family="Helvetica,sans-Serif" font-size="11.00">transaction_hash</text>
<polygon fill="none" stroke="black" points="950,-409 950,-431 1060,-431 1060,-409 950,-409"/>
<text text-anchor="start" x="953" y="-417.2" font-family="Helvetica,sans-Serif" font-size="11.00">bytea[2147483647]</text>
<polygon fill="#ffffff" stroke="none" points="742,-387 742,-409 950,-409 950,-387 742,-387"/>
<polygon fill="none" stroke="black" points="742,-387 742,-409 950,-409 950,-387 742,-387"/>
<text text-anchor="start" x="762" y="-395.2" font-family="Helvetica,sans-Serif" font-size="11.00">block_number</text>
<polygon fill="none" stroke="black" points="950,-387 950,-409 1060,-409 1060,-387 950,-387"/>
<text text-anchor="start" x="953" y="-395.2" font-family="Helvetica,sans-Serif" font-size="11.00">int4[10]</text>
<polygon fill="#ffffff" stroke="none" points="742,-365 742,-387 950,-387 950,-365 742,-365"/>
<polygon fill="none" stroke="black" points="742,-365 742,-387 950,-387 950,-365 742,-365"/>
<text text-anchor="start" x="762" y="-373.2" font-family="Helvetica,sans-Serif" font-size="11.00">transaction_index</text>
<polygon fill="none" stroke="black" points="950,-365 950,-387 1060,-387 1060,-365 950,-365"/>
<text text-anchor="start" x="953" y="-373.2" font-family="Helvetica,sans-Serif" font-size="11.00">int4[10]</text>
<polygon fill="none" stroke="black" points="742,-343 742,-365 950,-365 950,-343 742,-343"/>
<image xlink:href="../../images/primaryKeys.png" width="11px" height="12px" preserveAspectRatio="xMinYMin meet" x="747" y="-360"/>
<text text-anchor="start" x="762" y="-351.2" font-family="Helvetica,sans-Serif" font-size="11.00">block_hash</text>
<polygon fill="none" stroke="black" points="950,-343 950,-365 1060,-365 1060,-343 950,-343"/>
<text text-anchor="start" x="953" y="-351.2" font-family="Helvetica,sans-Serif" font-size="11.00">bytea[2147483647]</text>
<polygon fill="none" stroke="black" points="742,-321 742,-343 950,-343 950,-321 742,-321"/>
<image xlink:href="../../images/primaryKeys.png" width="11px" height="12px" preserveAspectRatio="xMinYMin meet" x="747" y="-338"/>
<text text-anchor="start" x="762" y="-329.2" font-family="Helvetica,sans-Serif" font-size="11.00">block_index</text>
<polygon fill="none" stroke="black" points="950,-321 950,-343 1060,-343 1060,-321 950,-321"/>
<text text-anchor="start" x="953" y="-329.2" font-family="Helvetica,sans-Serif" font-size="11.00">int4[10]</text>
<polygon fill="#ffffff" stroke="none" points="742,-303 742,-321 839,-321 839,-303 742,-303"/>
<polygon fill="none" stroke="black" points="742,-303 742,-321 839,-321 839,-303 742,-303"/>
<text text-anchor="start" x="745" y="-309.2" font-family="Helvetica,sans-Serif" font-size="11.00">&lt; 5</text>
<polygon fill="#ffffff" stroke="none" points="839,-303 839,-321 950,-321 950,-303 839,-303"/>
<polygon fill="none" stroke="black" points="839,-303 839,-321 950,-321 950,-303 839,-303"/>
<text text-anchor="start" x="916" y="-309.2" font-family="Helvetica,sans-Serif" font-size="11.00">1 row</text>
<polygon fill="#ffffff" stroke="none" points="950,-303 950,-321 1060,-321 1060,-303 950,-303"/>
<polygon fill="none" stroke="black" points="950,-303 950,-321 1060,-321 1060,-303 950,-303"/>
<text text-anchor="start" x="1040" y="-309.2" font-family="Helvetica,sans-Serif" font-size="11.00">0 &gt;</text>
<polygon fill="none" stroke="black" stroke-width="2" points="741,-302 741,-828 1061,-828 1061,-302 741,-302"/>
</a>
</g>
</g>
<!-- internal_transactions&#45;&gt;blocks -->
<g id="edge2" class="edge"><title>internal_transactions:block_hash:w&#45;&gt;blocks:hash:e</title>
<path fill="none" stroke="black" d="M727.215,-358.545C717.359,-366.892 716.455,-384.408 699,-391 598.796,-428.842 558.803,-427.215 458,-391 436.31,-383.208 441.047,-358 418,-358"/>
<polygon fill="black" stroke="black" points="733.402,-356.505 742.127,-357.419 737.201,-355.253 741,-354 741,-354 741,-354 737.201,-355.253 739.873,-350.581 733.402,-356.505 733.402,-356.505"/>
<ellipse fill="none" stroke="black" cx="730.363" cy="-357.507" rx="3.20001" ry="3.20001"/>
</g>
<!-- internal_transactions&#45;&gt;addresses -->
<g id="edge3" class="edge"><title>internal_transactions:created_contract_address_hash:w&#45;&gt;addresses:hash:e</title>
<path fill="none" stroke="black" d="M726.409,-486.194C534.6,-491.298 442.861,-594.354 287,-474 236.457,-434.971 310.858,-336 247,-336"/>
<polygon fill="black" stroke="black" points="733.001,-486.106 741.048,-489.6 737,-486.053 741,-486 741,-486 741,-486 737,-486.053 740.952,-482.4 733.001,-486.106 733.001,-486.106"/>
<ellipse fill="none" stroke="black" cx="729.801" cy="-486.149" rx="3.2" ry="3.2"/>
</g>
<!-- internal_transactions&#45;&gt;addresses -->
<g id="edge4" class="edge"><title>internal_transactions:from_address_hash:w&#45;&gt;addresses:hash:e</title>
<path fill="none" stroke="black" d="M726.472,-464.162C642.428,-465.549 324.968,-474.752 287,-447 244.664,-416.056 299.439,-336 247,-336"/>
<polygon fill="black" stroke="black" points="733,-464.089 741.04,-467.6 737,-464.045 741,-464 741,-464 741,-464 737,-464.045 740.96,-460.4 733,-464.089 733,-464.089"/>
<ellipse fill="none" stroke="black" cx="729.801" cy="-464.125" rx="3.2" ry="3.2"/>
</g>
<!-- internal_transactions&#45;&gt;addresses -->
<g id="edge5" class="edge"><title>internal_transactions:to_address_hash:w&#45;&gt;addresses:hash:e</title>
<path fill="none" stroke="black" d="M726.486,-442.113C642.57,-443.073 326.063,-449.202 287,-423 251.657,-399.293 289.558,-336 247,-336"/>
<polygon fill="black" stroke="black" points="733,-442.062 741.028,-445.6 737,-442.031 741,-442 741,-442 741,-442 737,-442.031 740.972,-438.4 733,-442.062 733,-442.062"/>
<ellipse fill="none" stroke="black" cx="729.8" cy="-442.087" rx="3.2" ry="3.2"/>
</g>
<!-- transactions -->
<g id="node4" class="node"><title>transactions</title>
<g id="a_node4"><a xlink:href="../../tables/transactions.html" xlink:title="transactions" target="_top">
<polygon fill="#ffffff" stroke="none" points="466,-37 466,-381 691,-381 691,-37 466,-37"/>
<polygon fill="#f5f5f5" stroke="none" points="466.5,-359 466.5,-381 691.5,-381 691.5,-359 466.5,-359"/>
<polygon fill="none" stroke="black" points="466.5,-359 466.5,-381 691.5,-381 691.5,-359 466.5,-359"/>
<text text-anchor="start" x="471.5" y="-368.2" font-family="Helvetica,sans-Serif" font-weight="bold" font-size="11.00">transactions</text>
<text text-anchor="start" x="652.5" y="-367.2" font-family="Helvetica,sans-Serif" font-size="11.00">[table]</text>
<polygon fill="#ffffff" stroke="none" points="466.5,-337 466.5,-359 691.5,-359 691.5,-337 466.5,-337"/>
<polygon fill="none" stroke="black" points="466.5,-337 466.5,-359 691.5,-359 691.5,-337 466.5,-337"/>
<text text-anchor="start" x="486.5" y="-345.2" font-family="Helvetica,sans-Serif" font-size="11.00">error</text>
<polygon fill="none" stroke="black" points="466.5,-315 466.5,-337 691.5,-337 691.5,-315 466.5,-315"/>
<image xlink:href="../../images/primaryKeys.png" width="11px" height="12px" preserveAspectRatio="xMinYMin meet" x="471.5" y="-332"/>
<text text-anchor="start" x="486.5" y="-323.2" font-family="Helvetica,sans-Serif" font-size="11.00">hash</text>
<polygon fill="#ffffff" stroke="none" points="466.5,-293 466.5,-315 691.5,-315 691.5,-293 466.5,-293"/>
<polygon fill="none" stroke="black" points="466.5,-293 466.5,-315 691.5,-315 691.5,-293 466.5,-293"/>
<text text-anchor="start" x="486.5" y="-301.2" font-family="Helvetica,sans-Serif" font-size="11.00">index</text>
<polygon fill="#ffffff" stroke="none" points="466.5,-271 466.5,-293 691.5,-293 691.5,-271 466.5,-271"/>
<polygon fill="none" stroke="black" points="466.5,-271 466.5,-293 691.5,-293 691.5,-271 466.5,-271"/>
<text text-anchor="start" x="486.5" y="-279.2" font-family="Helvetica,sans-Serif" font-size="11.00">nonce</text>
<polygon fill="#ffffff" stroke="none" points="466.5,-249 466.5,-271 691.5,-271 691.5,-249 466.5,-249"/>
<polygon fill="none" stroke="black" points="466.5,-249 466.5,-271 691.5,-271 691.5,-249 466.5,-249"/>
<text text-anchor="start" x="486.5" y="-257.2" font-family="Helvetica,sans-Serif" font-size="11.00">status</text>
<polygon fill="#ffffff" stroke="none" points="466.5,-227 466.5,-249 691.5,-249 691.5,-227 466.5,-227"/>
<polygon fill="none" stroke="black" points="466.5,-227 466.5,-249 691.5,-249 691.5,-227 466.5,-227"/>
<text text-anchor="start" x="486.5" y="-235.2" font-family="Helvetica,sans-Serif" font-size="11.00">inserted_at</text>
<polygon fill="#ffffff" stroke="none" points="466.5,-205 466.5,-227 691.5,-227 691.5,-205 466.5,-205"/>
<polygon fill="none" stroke="black" points="466.5,-205 466.5,-227 691.5,-227 691.5,-205 466.5,-205"/>
<text text-anchor="start" x="486.5" y="-213.2" font-family="Helvetica,sans-Serif" font-size="11.00">updated_at</text>
<polygon fill="#ffffff" stroke="none" points="466.5,-183 466.5,-205 691.5,-205 691.5,-183 466.5,-183"/>
<polygon fill="none" stroke="black" points="466.5,-183 466.5,-205 691.5,-205 691.5,-183 466.5,-183"/>
<image xlink:href="../../images/foreignKeys.png" width="11px" height="12px" preserveAspectRatio="xMinYMin meet" x="471.5" y="-200"/>
<text text-anchor="start" x="486.5" y="-191.2" font-family="Helvetica,sans-Serif" font-size="11.00">block_hash</text>
<polygon fill="#ffffff" stroke="none" points="466.5,-161 466.5,-183 691.5,-183 691.5,-161 466.5,-161"/>
<polygon fill="none" stroke="black" points="466.5,-161 466.5,-183 691.5,-183 691.5,-161 466.5,-161"/>
<text text-anchor="start" x="486.5" y="-169.2" font-family="Helvetica,sans-Serif" font-size="11.00">block_number</text>
<polygon fill="#ffffff" stroke="none" points="466.5,-139 466.5,-161 691.5,-161 691.5,-139 466.5,-139"/>
<polygon fill="none" stroke="black" points="466.5,-139 466.5,-161 691.5,-161 691.5,-139 466.5,-139"/>
<image xlink:href="../../images/foreignKeys.png" width="11px" height="12px" preserveAspectRatio="xMinYMin meet" x="471.5" y="-156"/>
<text text-anchor="start" x="486.5" y="-147.2" font-family="Helvetica,sans-Serif" font-size="11.00">from_address_hash</text>
<polygon fill="#ffffff" stroke="none" points="466.5,-117 466.5,-139 691.5,-139 691.5,-117 466.5,-117"/>
<polygon fill="none" stroke="black" points="466.5,-117 466.5,-139 691.5,-139 691.5,-117 466.5,-117"/>
<image xlink:href="../../images/foreignKeys.png" width="11px" height="12px" preserveAspectRatio="xMinYMin meet" x="471.5" y="-134"/>
<text text-anchor="start" x="486.5" y="-125.2" font-family="Helvetica,sans-Serif" font-size="11.00">to_address_hash</text>
<polygon fill="#ffffff" stroke="none" points="466.5,-95 466.5,-117 691.5,-117 691.5,-95 466.5,-95"/>
<polygon fill="none" stroke="black" points="466.5,-95 466.5,-117 691.5,-117 691.5,-95 466.5,-95"/>
<image xlink:href="../../images/foreignKeys.png" width="11px" height="12px" preserveAspectRatio="xMinYMin meet" x="471.5" y="-112"/>
<text text-anchor="start" x="486.5" y="-103.2" font-family="Helvetica,sans-Serif" font-size="11.00">created_contract_address_hash</text>
<polygon fill="#ffffff" stroke="none" points="466.5,-73 466.5,-95 691.5,-95 691.5,-73 466.5,-73"/>
<polygon fill="none" stroke="black" points="466.5,-73 466.5,-95 691.5,-95 691.5,-73 466.5,-73"/>
<text text-anchor="start" x="486.5" y="-81.2" font-family="Helvetica,sans-Serif" font-size="11.00">created_contract_code_indexed_at</text>
<polygon fill="none" stroke="black" points="466.5,-55 466.5,-73 691.5,-73 691.5,-55 466.5,-55"/>
<text text-anchor="start" x="469.5" y="-61.2" font-family="Helvetica,sans-Serif" font-size="11.00">...</text>
<polygon fill="#ffffff" stroke="none" points="466.5,-37 466.5,-55 560.5,-55 560.5,-37 466.5,-37"/>
<polygon fill="none" stroke="black" points="466.5,-37 466.5,-55 560.5,-55 560.5,-37 466.5,-37"/>
<text text-anchor="start" x="469.5" y="-43.2" font-family="Helvetica,sans-Serif" font-size="11.00">&lt; 4</text>
<polygon fill="#ffffff" stroke="none" points="560.5,-37 560.5,-55 632.5,-55 632.5,-37 560.5,-37"/>
<polygon fill="none" stroke="black" points="560.5,-37 560.5,-55 632.5,-55 632.5,-37 560.5,-37"/>
<text text-anchor="start" x="598.5" y="-43.2" font-family="Helvetica,sans-Serif" font-size="11.00">1 row</text>
<polygon fill="#ffffff" stroke="none" points="632.5,-37 632.5,-55 691.5,-55 691.5,-37 632.5,-37"/>
<polygon fill="none" stroke="black" points="632.5,-37 632.5,-55 691.5,-55 691.5,-37 632.5,-37"/>
<text text-anchor="start" x="671.5" y="-43.2" font-family="Helvetica,sans-Serif" font-size="11.00">4 &gt;</text>
</a>
</g>
</g>
<!-- internal_transactions&#45;&gt;transactions -->
<g id="edge6" class="edge"><title>internal_transactions:transaction_hash:w&#45;&gt;transactions:hash:e</title>
<path fill="none" stroke="black" d="M727.036,-415.717C704.188,-397.328 733.451,-326 692.5,-326"/>
<polygon fill="black" stroke="black" points="733.352,-417.654 739.944,-423.442 737.176,-418.827 741,-420 741,-420 741,-420 737.176,-418.827 742.056,-416.558 733.352,-417.654 733.352,-417.654"/>
<ellipse fill="none" stroke="black" cx="730.292" cy="-416.715" rx="3.20001" ry="3.20001"/>
</g>
<!-- transactions&#45;&gt;blocks -->
<g id="edge7" class="edge"><title>transactions:block_hash:w&#45;&gt;blocks:hash:e</title>
<path fill="none" stroke="black" d="M451.136,-196.71C404.455,-218.033 488.104,-358 418,-358"/>
<polygon fill="black" stroke="black" points="457.639,-195.483 466.167,-197.538 461.569,-194.742 465.5,-194 465.5,-194 465.5,-194 461.569,-194.742 464.833,-190.462 457.639,-195.483 457.639,-195.483"/>
<ellipse fill="none" stroke="black" cx="454.494" cy="-196.076" rx="3.2" ry="3.2"/>
</g>
<!-- transactions&#45;&gt;addresses -->
<g id="edge8" class="edge"><title>transactions:created_contract_address_hash:w&#45;&gt;addresses:hash:e</title>
<path fill="none" stroke="black" d="M451.044,-105.553C380.955,-101.252 342.635,-68.3882 287,-118 213.479,-183.561 345.506,-336 247,-336"/>
<polygon fill="black" stroke="black" points="457.504,-105.753 465.389,-109.598 461.502,-105.876 465.5,-106 465.5,-106 465.5,-106 461.502,-105.876 465.611,-102.402 457.504,-105.753 457.504,-105.753"/>
<ellipse fill="none" stroke="black" cx="454.305" cy="-105.654" rx="3.2" ry="3.2"/>
</g>
<!-- transactions&#45;&gt;addresses -->
<g id="edge9" class="edge"><title>transactions:from_address_hash:w&#45;&gt;addresses:hash:e</title>
<path fill="none" stroke="black" d="M451.015,-149.625C380.837,-146.027 343.259,-118.778 287,-168 229.234,-218.54 323.754,-336 247,-336"/>
<polygon fill="black" stroke="black" points="457.503,-149.793 465.407,-153.599 461.501,-149.897 465.5,-150 465.5,-150 465.5,-150 461.501,-149.897 465.593,-146.401 457.503,-149.793 457.503,-149.793"/>
<ellipse fill="none" stroke="black" cx="454.304" cy="-149.71" rx="3.2" ry="3.2"/>
</g>
<!-- transactions&#45;&gt;addresses -->
<g id="edge10" class="edge"><title>transactions:to_address_hash:w&#45;&gt;addresses:hash:e</title>
<path fill="none" stroke="black" d="M451.103,-127.577C404.082,-125.318 313.879,-115.614 287,-139 219.598,-197.642 336.342,-336 247,-336"/>
<polygon fill="black" stroke="black" points="457.503,-127.765 465.394,-131.598 461.502,-127.883 465.5,-128 465.5,-128 465.5,-128 461.502,-127.883 465.606,-124.402 457.503,-127.765 457.503,-127.765"/>
<ellipse fill="none" stroke="black" cx="454.305" cy="-127.671" rx="3.2" ry="3.2"/>
</g>
</g>
</svg>
