<?xml version="1.0" encoding="UTF-8" standalone="no"?>
<!DOCTYPE svg PUBLIC "-//W3C//DTD SVG 1.1//EN"
 "http://www.w3.org/Graphics/SVG/1.1/DTD/svg11.dtd">
<!-- Generated by graphviz version 2.43.0 (0)
 -->
<!-- Title: oneDegreeRelationshipsDiagram Pages: 1 -->
<svg width="408pt" height="159pt"
 viewBox="0.00 0.00 408.00 159.00" xmlns="http://www.w3.org/2000/svg" xmlns:xlink="http://www.w3.org/1999/xlink">
<g id="graph0" class="graph" transform="scale(1 1) rotate(0) translate(4 155)">
<title>oneDegreeRelationshipsDiagram</title>
<polygon fill="#ffffff" stroke="transparent" points="-4,4 -4,-155 404,-155 404,4 -4,4"/>
<text text-anchor="middle" x="79.5" y="-7.2" font-family="Helvetica,sans-Serif" font-size="11.00">Generated by SchemaSpy</text>
<!-- internal_transactions_delete_queue -->
<g id="node1" class="node">
<title>internal_transactions_delete_queue</title>
<g id="a_node1"><a xlink:href="../../tables/internal_transactions_delete_queue.html" xlink:title="internal_transactions_delete_queue" target="_top">
<polygon fill="#ffffff" stroke="transparent" points="8,-37 8,-147 392,-147 392,-37 8,-37"/>
<polygon fill="#f5f5f5" stroke="transparent" points="10,-123 10,-145 390,-145 390,-123 10,-123"/>
<polygon fill="none" stroke="black" points="10,-123 10,-145 390,-145 390,-123 10,-123"/>
<text text-anchor="start" x="15" y="-132.2" font-family="Helvetica,sans-Serif" font-weight="bold" font-size="11.00">internal_transactions_delete_queue</text>
<text text-anchor="start" x="348" y="-131.2" font-family="Helvetica,sans-Serif" font-size="11.00">[table]</text>
<polygon fill="none" stroke="black" points="10,-101 10,-123 291,-123 291,-101 10,-101"/>
<image xlink:href="../../images/primaryKeys.png" width="11px" height="12px" preserveAspectRatio="xMinYMin meet" x="15" y="-118"/>
<text text-anchor="start" x="30" y="-109.2" font-family="Helvetica,sans-Serif" font-size="11.00">block_number</text>
<polygon fill="none" stroke="black" points="291,-101 291,-123 390,-123 390,-101 291,-101"/>
<text text-anchor="start" x="294" y="-109.2" font-family="Helvetica,sans-Serif" font-size="11.00">int8[19]</text>
<polygon fill="none" stroke="black" points="10,-79 10,-101 291,-101 291,-79 10,-79"/>
<text text-anchor="start" x="30" y="-87.2" font-family="Helvetica,sans-Serif" font-size="11.00">inserted_at</text>
<polygon fill="none" stroke="black" points="291,-79 291,-101 390,-101 390,-79 291,-79"/>
<text text-anchor="start" x="294" y="-87.2" font-family="Helvetica,sans-Serif" font-size="11.00">timestamp[29,6]</text>
<polygon fill="none" stroke="black" points="10,-57 10,-79 291,-79 291,-57 10,-57"/>
<text text-anchor="start" x="30" y="-65.2" font-family="Helvetica,sans-Serif" font-size="11.00">updated_at</text>
<polygon fill="none" stroke="black" points="291,-57 291,-79 390,-79 390,-57 291,-57"/>
<text text-anchor="start" x="294" y="-65.2" font-family="Helvetica,sans-Serif" font-size="11.00">timestamp[29,6]</text>
<polygon fill="#ffffff" stroke="transparent" points="10,-39 10,-57 390,-57 390,-39 10,-39"/>
<polygon fill="none" stroke="black" points="10,-39 10,-57 390,-57 390,-39 10,-39"/>
<polygon fill="#ffffff" stroke="transparent" points="11,-40 11,-56 141,-56 141,-40 11,-40"/>
<text text-anchor="start" x="13" y="-45.2" font-family="Helvetica,sans-Serif" font-size="11.00">&lt; 0</text>
<polygon fill="#ffffff" stroke="transparent" points="141,-40 141,-56 259,-56 259,-40 141,-40"/>
<text text-anchor="start" x="196" y="-45.2" font-family="Helvetica,sans-Serif" font-size="11.00"> &#160;</text>
<polygon fill="#ffffff" stroke="transparent" points="259,-40 259,-56 389,-56 389,-40 259,-40"/>
<text text-anchor="start" x="367" y="-45.2" font-family="Helvetica,sans-Serif" font-size="11.00">0 &gt;</text>
<polygon fill="black" stroke="black" points="141,-40 141,-56 141,-56 141,-40 141,-40"/>
<polygon fill="black" stroke="black" points="259,-40 259,-56 259,-56 259,-40 259,-40"/>
<polygon fill="none" stroke="black" stroke-width="2" points="9,-38 9,-146 391,-146 391,-38 9,-38"/>
</a>
</g>
</g>
</g>
</svg>
