<?xml version="1.0" encoding="UTF-8" standalone="no"?>
<!DOCTYPE svg PUBLIC "-//W3C//DTD SVG 1.1//EN"
 "http://www.w3.org/Graphics/SVG/1.1/DTD/svg11.dtd">
<!-- Generated by graphviz version 2.43.0 (0)
 -->
<!-- Title: twoDegreesRelationshipsDiagramImplied Pages: 1 -->
<svg width="1005pt" height="1070pt"
 viewBox="0.00 0.00 1005.00 1070.32" xmlns="http://www.w3.org/2000/svg" xmlns:xlink="http://www.w3.org/1999/xlink">
<g id="graph0" class="graph" transform="scale(1 1) rotate(0) translate(4 1066.32)">
<title>twoDegreesRelationshipsDiagramImplied</title>
<polygon fill="#ffffff" stroke="transparent" points="-4,4 -4,-1066.32 1001,-1066.32 1001,4 -4,4"/>
<text text-anchor="middle" x="79.5" y="-7.2" font-family="Helvetica,sans-Serif" font-size="11.00">Generated by SchemaSpy</text>
<!-- archival_internal_transactions -->
<g id="node1" class="node">
<title>archival_internal_transactions</title>
<g id="a_node1"><a xlink:href="../../tables/archival_internal_transactions.html" xlink:title="archival_internal_transactions" target="_top">
<polygon fill="#ffffff" stroke="transparent" points="420,-665 420,-723 687,-723 687,-665 420,-665"/>
<polygon fill="#f5f5f5" stroke="transparent" points="420.5,-701 420.5,-723 687.5,-723 687.5,-701 420.5,-701"/>
<polygon fill="none" stroke="black" points="420.5,-701 420.5,-723 687.5,-723 687.5,-701 420.5,-701"/>
<text text-anchor="start" x="425.5" y="-710.2" font-family="Helvetica,sans-Serif" font-weight="bold" font-size="11.00">archival_internal_transactions</text>
<text text-anchor="start" x="645.5" y="-709.2" font-family="Helvetica,sans-Serif" font-size="11.00">[table]</text>
<polygon fill="none" stroke="black" points="420.5,-683 420.5,-701 687.5,-701 687.5,-683 420.5,-683"/>
<text text-anchor="start" x="423.5" y="-689.2" font-family="Helvetica,sans-Serif" font-size="11.00">...</text>
<polygon fill="#ffffff" stroke="transparent" points="420.5,-665 420.5,-683 687.5,-683 687.5,-665 420.5,-665"/>
<polygon fill="none" stroke="black" points="420.5,-665 420.5,-683 687.5,-683 687.5,-665 420.5,-665"/>
<polygon fill="#ffffff" stroke="transparent" points="421.5,-666 421.5,-682 495.5,-682 495.5,-666 421.5,-666"/>
<text text-anchor="start" x="423.5" y="-671.2" font-family="Helvetica,sans-Serif" font-size="11.00">&lt; 3</text>
<polygon fill="#ffffff" stroke="transparent" points="495.5,-666 495.5,-682 624.5,-682 624.5,-666 495.5,-666"/>
<text text-anchor="start" x="522.5" y="-671.2" font-family="Helvetica,sans-Serif" font-size="11.00">524,630 rows</text>
<polygon fill="#ffffff" stroke="transparent" points="624.5,-666 624.5,-682 686.5,-682 686.5,-666 624.5,-666"/>
<text text-anchor="start" x="676.5" y="-671.2" font-family="Helvetica,sans-Serif" font-size="11.00"> &#160;</text>
<polygon fill="black" stroke="black" points="495.5,-666 495.5,-682 495.5,-682 495.5,-666 495.5,-666"/>
<polygon fill="black" stroke="black" points="624.5,-666 624.5,-682 624.5,-682 624.5,-666 624.5,-666"/>
</a>
</g>
</g>
<!-- withdrawals -->
<g id="node2" class="node">
<title>withdrawals</title>
<g id="a_node2"><a xlink:href="../../tables/withdrawals.html" xlink:title="withdrawals" target="_top">
<polygon fill="#ffffff" stroke="transparent" points="184,-629 184,-753 320,-753 320,-629 184,-629"/>
<polygon fill="#f5f5f5" stroke="transparent" points="184,-731 184,-753 320,-753 320,-731 184,-731"/>
<polygon fill="none" stroke="black" points="184,-731 184,-753 320,-753 320,-731 184,-731"/>
<text text-anchor="start" x="189" y="-740.2" font-family="Helvetica,sans-Serif" font-weight="bold" font-size="11.00">withdrawals</text>
<text text-anchor="start" x="278" y="-739.2" font-family="Helvetica,sans-Serif" font-size="11.00">[table]</text>
<polygon fill="none" stroke="black" points="184,-709 184,-731 320,-731 320,-709 184,-709"/>
<image xlink:href="../../images/primaryKeys.png" width="11px" height="12px" preserveAspectRatio="xMinYMin meet" x="189" y="-726"/>
<text text-anchor="start" x="206" y="-717.2" font-family="Helvetica,sans-Serif" font-size="11.00">index</text>
<polygon fill="#ffffff" stroke="transparent" points="184,-687 184,-709 320,-709 320,-687 184,-687"/>
<polygon fill="none" stroke="black" points="184,-687 184,-709 320,-709 320,-687 184,-687"/>
<text text-anchor="start" x="206" y="-695.2" font-family="Helvetica,sans-Serif" font-size="11.00">address_hash</text>
<polygon fill="#ffffff" stroke="transparent" points="184,-665 184,-687 320,-687 320,-665 184,-665"/>
<polygon fill="none" stroke="black" points="184,-665 184,-687 320,-687 320,-665 184,-665"/>
<image xlink:href="../../images/foreignKeys.png" width="11px" height="12px" preserveAspectRatio="xMinYMin meet" x="189" y="-682"/>
<text text-anchor="start" x="206" y="-673.2" font-family="Helvetica,sans-Serif" font-size="11.00">block_hash</text>
<polygon fill="none" stroke="black" points="184,-647 184,-665 320,-665 320,-647 184,-647"/>
<text text-anchor="start" x="187" y="-653.2" font-family="Helvetica,sans-Serif" font-size="11.00">...</text>
<polygon fill="#ffffff" stroke="transparent" points="184,-629 184,-647 320,-647 320,-629 184,-629"/>
<polygon fill="none" stroke="black" points="184,-629 184,-647 320,-647 320,-629 184,-629"/>
<polygon fill="#ffffff" stroke="transparent" points="185,-630 185,-646 209,-646 209,-630 185,-630"/>
<text text-anchor="start" x="187" y="-635.2" font-family="Helvetica,sans-Serif" font-size="11.00">&lt; 1</text>
<polygon fill="#ffffff" stroke="transparent" points="209,-630 209,-646 288,-646 288,-630 209,-630"/>
<text text-anchor="start" x="211" y="-635.2" font-family="Helvetica,sans-Serif" font-size="11.00">552,138 rows</text>
<polygon fill="#ffffff" stroke="transparent" points="288,-630 288,-646 319,-646 319,-630 288,-630"/>
<text text-anchor="start" x="290" y="-635.2" font-family="Helvetica,sans-Serif" font-size="11.00">13 &gt;</text>
<polygon fill="black" stroke="black" points="209,-630 209,-646 209,-646 209,-630 209,-630"/>
<polygon fill="black" stroke="black" points="288,-630 288,-646 288,-646 288,-630 288,-630"/>
</a>
</g>
</g>
<!-- archival_internal_transactions&#45;&gt;withdrawals -->
<g id="edge1" class="edge">
<title>archival_internal_transactions:w&#45;&gt;withdrawals:e</title>
<path fill="none" stroke="black" stroke-dasharray="5,2" d="M405.39,-689.08C371.81,-685.15 361.36,-708.47 321,-720"/>
<polygon fill="black" stroke="black" points="411.67,-690.38 418.77,-695.53 415.58,-691.19 419.5,-692 419.5,-692 419.5,-692 415.58,-691.19 420.23,-688.47 411.67,-690.38 411.67,-690.38"/>
<ellipse fill="none" stroke="black" cx="408.53" cy="-689.73" rx="3.2" ry="3.2"/>
</g>
<!-- archival_internal_transactions&#45;&gt;withdrawals -->
<g id="edge2" class="edge">
<title>archival_internal_transactions:w&#45;&gt;withdrawals:e</title>
<path fill="none" stroke="black" stroke-dasharray="5,2" d="M404.94,-693.06C371.71,-698.18 361.18,-720 321,-720"/>
<polygon fill="black" stroke="black" points="411.52,-692.58 419.76,-695.59 415.51,-692.29 419.5,-692 419.5,-692 419.5,-692 415.51,-692.29 419.24,-688.41 411.52,-692.58 411.52,-692.58"/>
<ellipse fill="none" stroke="black" cx="408.33" cy="-692.82" rx="3.2" ry="3.2"/>
</g>
<!-- archival_internal_transactions&#45;&gt;withdrawals -->
<g id="edge3" class="edge">
<title>archival_internal_transactions:w&#45;&gt;withdrawals:e</title>
<path fill="none" stroke="black" stroke-dasharray="5,2" d="M405.83,-696.73C371.9,-710.63 361.53,-731.58 321,-720"/>
<polygon fill="black" stroke="black" points="411.94,-694.62 420.68,-695.4 415.72,-693.31 419.5,-692 419.5,-692 419.5,-692 415.72,-693.31 418.32,-688.6 411.94,-694.62 411.94,-694.62"/>
<ellipse fill="none" stroke="black" cx="408.92" cy="-695.66" rx="3.2" ry="3.2"/>
</g>
<!-- blocks -->
<g id="node4" class="node">
<title>blocks</title>
<g id="a_node4"><a xlink:href="../../tables/blocks.html" xlink:title="blocks" target="_top">
<polygon fill="#ffffff" stroke="transparent" points="8,-744 8,-802 135,-802 135,-744 8,-744"/>
<polygon fill="#f5f5f5" stroke="transparent" points="8.5,-780 8.5,-802 135.5,-802 135.5,-780 8.5,-780"/>
<polygon fill="none" stroke="black" points="8.5,-780 8.5,-802 135.5,-802 135.5,-780 8.5,-780"/>
<text text-anchor="start" x="13.5" y="-789.2" font-family="Helvetica,sans-Serif" font-weight="bold" font-size="11.00">blocks</text>
<text text-anchor="start" x="93.5" y="-788.2" font-family="Helvetica,sans-Serif" font-size="11.00">[table]</text>
<polygon fill="none" stroke="black" points="8.5,-762 8.5,-780 135.5,-780 135.5,-762 8.5,-762"/>
<text text-anchor="start" x="11.5" y="-768.2" font-family="Helvetica,sans-Serif" font-size="11.00">...</text>
<polygon fill="#ffffff" stroke="transparent" points="8.5,-744 8.5,-762 135.5,-762 135.5,-744 8.5,-744"/>
<polygon fill="none" stroke="black" points="8.5,-744 8.5,-762 135.5,-762 135.5,-744 8.5,-744"/>
<polygon fill="#ffffff" stroke="transparent" points="9.5,-745 9.5,-761 21.5,-761 21.5,-745 9.5,-745"/>
<text text-anchor="start" x="11.5" y="-750.2" font-family="Helvetica,sans-Serif" font-size="11.00"> &#160;</text>
<polygon fill="#ffffff" stroke="transparent" points="21.5,-745 21.5,-761 110.5,-761 110.5,-745 21.5,-745"/>
<text text-anchor="start" x="23.5" y="-750.2" font-family="Helvetica,sans-Serif" font-size="11.00">1,446,481 rows</text>
<polygon fill="#ffffff" stroke="transparent" points="110.5,-745 110.5,-761 134.5,-761 134.5,-745 110.5,-745"/>
<text text-anchor="start" x="112.5" y="-750.2" font-family="Helvetica,sans-Serif" font-size="11.00">9 &gt;</text>
<polygon fill="black" stroke="black" points="21.5,-745 21.5,-761 21.5,-761 21.5,-745 21.5,-745"/>
<polygon fill="black" stroke="black" points="110.5,-745 110.5,-761 110.5,-761 110.5,-745 110.5,-745"/>
</a>
</g>
</g>
<!-- withdrawals&#45;&gt;blocks -->
<g id="edge18" class="edge">
<title>withdrawals:w&#45;&gt;blocks:e</title>
<path fill="none" stroke="black" d="M169.13,-680.33C146.67,-698.91 177.45,-771 136.5,-771"/>
<polygon fill="black" stroke="black" points="175.36,-678.38 184.07,-679.44 179.18,-677.19 183,-676 183,-676 183,-676 179.18,-677.19 181.93,-672.56 175.36,-678.38 175.36,-678.38"/>
<ellipse fill="none" stroke="black" cx="172.31" cy="-679.34" rx="3.2" ry="3.2"/>
</g>
<!-- block_second_degree_relations -->
<g id="node3" class="node">
<title>block_second_degree_relations</title>
<g id="a_node3"><a xlink:href="../../tables/block_second_degree_relations.html" xlink:title="block_second_degree_relations" target="_top">
<polygon fill="#ffffff" stroke="transparent" points="417,-929 417,-987 690,-987 690,-929 417,-929"/>
<polygon fill="#f5f5f5" stroke="transparent" points="417.5,-965 417.5,-987 690.5,-987 690.5,-965 417.5,-965"/>
<polygon fill="none" stroke="black" points="417.5,-965 417.5,-987 690.5,-987 690.5,-965 417.5,-965"/>
<text text-anchor="start" x="422.5" y="-974.2" font-family="Helvetica,sans-Serif" font-weight="bold" font-size="11.00">block_second_degree_relations</text>
<text text-anchor="start" x="648.5" y="-973.2" font-family="Helvetica,sans-Serif" font-size="11.00">[table]</text>
<polygon fill="none" stroke="black" points="417.5,-947 417.5,-965 690.5,-965 690.5,-947 417.5,-947"/>
<text text-anchor="start" x="420.5" y="-953.2" font-family="Helvetica,sans-Serif" font-size="11.00">...</text>
<polygon fill="#ffffff" stroke="transparent" points="417.5,-929 417.5,-947 690.5,-947 690.5,-929 417.5,-929"/>
<polygon fill="none" stroke="black" points="417.5,-929 417.5,-947 690.5,-947 690.5,-929 417.5,-929"/>
<polygon fill="#ffffff" stroke="transparent" points="418.5,-930 418.5,-946 497.5,-946 497.5,-930 418.5,-930"/>
<text text-anchor="start" x="420.5" y="-935.2" font-family="Helvetica,sans-Serif" font-size="11.00">&lt; 2</text>
<polygon fill="#ffffff" stroke="transparent" points="497.5,-930 497.5,-946 623.5,-946 623.5,-930 497.5,-930"/>
<text text-anchor="start" x="526.5" y="-935.2" font-family="Helvetica,sans-Serif" font-size="11.00">39,778 rows</text>
<polygon fill="#ffffff" stroke="transparent" points="623.5,-930 623.5,-946 689.5,-946 689.5,-930 623.5,-930"/>
<text text-anchor="start" x="679.5" y="-935.2" font-family="Helvetica,sans-Serif" font-size="11.00"> &#160;</text>
<polygon fill="black" stroke="black" points="497.5,-930 497.5,-946 497.5,-946 497.5,-930 497.5,-930"/>
<polygon fill="black" stroke="black" points="623.5,-930 623.5,-946 623.5,-946 623.5,-930 623.5,-930"/>
</a>
</g>
</g>
<!-- block_second_degree_relations&#45;&gt;withdrawals -->
<g id="edge4" class="edge">
<title>block_second_degree_relations:w&#45;&gt;withdrawals:e</title>
<path fill="none" stroke="black" stroke-dasharray="5,2" d="M402.05,-954.75C383.18,-951.04 374.48,-939.1 361,-919 310.77,-844.07 411.21,-720 321,-720"/>
<polygon fill="black" stroke="black" points="408.53,-955.31 416.19,-959.59 412.51,-955.65 416.5,-956 416.5,-956 416.5,-956 412.51,-955.65 416.81,-952.41 408.53,-955.31 408.53,-955.31"/>
<ellipse fill="none" stroke="black" cx="405.34" cy="-955.03" rx="3.2" ry="3.2"/>
</g>
<!-- block_second_degree_relations&#45;&gt;blocks -->
<g id="edge5" class="edge">
<title>block_second_degree_relations:w&#45;&gt;blocks:e</title>
<path fill="none" stroke="black" d="M401.78,-955.37C268.4,-943.57 280.56,-771 136.5,-771"/>
<polygon fill="black" stroke="black" points="408.51,-955.66 416.35,-959.6 412.5,-955.83 416.5,-956 416.5,-956 416.5,-956 412.5,-955.83 416.65,-952.4 408.51,-955.66 408.51,-955.66"/>
<ellipse fill="none" stroke="black" cx="405.31" cy="-955.52" rx="3.2" ry="3.2"/>
</g>
<!-- internal_transactions -->
<g id="node5" class="node">
<title>internal_transactions</title>
<g id="a_node5"><a xlink:href="../../tables/internal_transactions.html" xlink:title="internal_transactions" target="_top">
<polygon fill="#ffffff" stroke="transparent" points="787,-720 787,-778 989,-778 989,-720 787,-720"/>
<polygon fill="#f5f5f5" stroke="transparent" points="787,-756 787,-778 989,-778 989,-756 787,-756"/>
<polygon fill="none" stroke="black" points="787,-756 787,-778 989,-778 989,-756 787,-756"/>
<text text-anchor="start" x="792" y="-765.2" font-family="Helvetica,sans-Serif" font-weight="bold" font-size="11.00">internal_transactions</text>
<text text-anchor="start" x="947" y="-764.2" font-family="Helvetica,sans-Serif" font-size="11.00">[table]</text>
<polygon fill="none" stroke="black" points="787,-738 787,-756 989,-756 989,-738 787,-738"/>
<text text-anchor="start" x="790" y="-744.2" font-family="Helvetica,sans-Serif" font-size="11.00">...</text>
<polygon fill="#ffffff" stroke="transparent" points="787,-720 787,-738 989,-738 989,-720 787,-720"/>
<polygon fill="none" stroke="black" points="787,-720 787,-738 989,-738 989,-720 787,-720"/>
<polygon fill="#ffffff" stroke="transparent" points="788,-721 788,-737 845,-737 845,-721 788,-721"/>
<text text-anchor="start" x="790" y="-726.2" font-family="Helvetica,sans-Serif" font-size="11.00">&lt; 3</text>
<polygon fill="#ffffff" stroke="transparent" points="845,-721 845,-737 943,-737 943,-721 845,-721"/>
<text text-anchor="start" x="863.5" y="-726.2" font-family="Helvetica,sans-Serif" font-size="11.00">4,167 rows</text>
<polygon fill="#ffffff" stroke="transparent" points="943,-721 943,-737 988,-737 988,-721 943,-721"/>
<text text-anchor="start" x="978" y="-726.2" font-family="Helvetica,sans-Serif" font-size="11.00"> &#160;</text>
<polygon fill="black" stroke="black" points="845,-721 845,-737 845,-737 845,-721 845,-721"/>
<polygon fill="black" stroke="black" points="943,-721 943,-737 943,-737 943,-721 943,-721"/>
</a>
</g>
</g>
<!-- internal_transactions&#45;&gt;withdrawals -->
<g id="edge7" class="edge">
<title>internal_transactions:w&#45;&gt;withdrawals:e</title>
<path fill="none" stroke="black" stroke-dasharray="5,2" d="M771.34,-747.04C594.28,-748.1 541.9,-767.6 361,-734 342.48,-730.56 339.84,-720 321,-720"/>
<polygon fill="black" stroke="black" points="778,-747.02 786.01,-750.6 782,-747.01 786,-747 786,-747 786,-747 782,-747.01 785.99,-743.4 778,-747.02 778,-747.02"/>
<ellipse fill="none" stroke="black" cx="774.8" cy="-747.03" rx="3.2" ry="3.2"/>
</g>
<!-- internal_transactions&#45;&gt;blocks -->
<g id="edge6" class="edge">
<title>internal_transactions:w&#45;&gt;blocks:e</title>
<path fill="none" stroke="black" d="M772.57,-752.77C740.15,-787.17 784.77,-964.92 746,-998 615.83,-1109.07 523.21,-1052.46 361,-998 263.25,-965.18 240.4,-938.53 176,-858 149.48,-824.84 178.97,-771 136.5,-771"/>
<polygon fill="black" stroke="black" points="778.65,-750.16 787.42,-750.31 782.32,-748.58 786,-747 786,-747 786,-747 782.32,-748.58 784.58,-743.69 778.65,-750.16 778.65,-750.16"/>
<ellipse fill="none" stroke="black" cx="775.71" cy="-751.42" rx="3.2" ry="3.2"/>
</g>
<!-- transactions -->
<g id="node6" class="node">
<title>transactions</title>
<g id="a_node6"><a xlink:href="../../tables/transactions.html" xlink:title="transactions" target="_top">
<polygon fill="#ffffff" stroke="transparent" points="484,-37 484,-95 623,-95 623,-37 484,-37"/>
<polygon fill="#f5f5f5" stroke="transparent" points="484.5,-73 484.5,-95 623.5,-95 623.5,-73 484.5,-73"/>
<polygon fill="none" stroke="black" points="484.5,-73 484.5,-95 623.5,-95 623.5,-73 484.5,-73"/>
<text text-anchor="start" x="489.5" y="-82.2" font-family="Helvetica,sans-Serif" font-weight="bold" font-size="11.00">transactions</text>
<text text-anchor="start" x="581.5" y="-81.2" font-family="Helvetica,sans-Serif" font-size="11.00">[table]</text>
<polygon fill="none" stroke="black" points="484.5,-55 484.5,-73 623.5,-73 623.5,-55 484.5,-55"/>
<text text-anchor="start" x="487.5" y="-61.2" font-family="Helvetica,sans-Serif" font-size="11.00">...</text>
<polygon fill="#ffffff" stroke="transparent" points="484.5,-37 484.5,-55 623.5,-55 623.5,-37 484.5,-37"/>
<polygon fill="none" stroke="black" points="484.5,-37 484.5,-55 623.5,-55 623.5,-37 484.5,-37"/>
<polygon fill="#ffffff" stroke="transparent" points="485.5,-38 485.5,-54 509.5,-54 509.5,-38 485.5,-38"/>
<text text-anchor="start" x="487.5" y="-43.2" font-family="Helvetica,sans-Serif" font-size="11.00">&lt; 2</text>
<polygon fill="#ffffff" stroke="transparent" points="509.5,-38 509.5,-54 598.5,-54 598.5,-38 509.5,-38"/>
<text text-anchor="start" x="511.5" y="-43.2" font-family="Helvetica,sans-Serif" font-size="11.00">5,902,854 rows</text>
<polygon fill="#ffffff" stroke="transparent" points="598.5,-38 598.5,-54 622.5,-54 622.5,-38 598.5,-38"/>
<text text-anchor="start" x="600.5" y="-43.2" font-family="Helvetica,sans-Serif" font-size="11.00">8 &gt;</text>
<polygon fill="black" stroke="black" points="509.5,-38 509.5,-54 509.5,-54 509.5,-38 509.5,-38"/>
<polygon fill="black" stroke="black" points="598.5,-38 598.5,-54 598.5,-54 598.5,-38 598.5,-38"/>
</a>
</g>
</g>
<!-- internal_transactions&#45;&gt;transactions -->
<g id="edge8" class="edge">
<title>internal_transactions:w&#45;&gt;transactions:e</title>
<path fill="none" stroke="black" d="M773.62,-739.58C723.96,-671.6 786.58,-157.97 746,-105 711.34,-59.76 681.49,-64 624.5,-64"/>
<polygon fill="black" stroke="black" points="779.14,-742.89 784.15,-750.09 782.57,-744.94 786,-747 786,-747 786,-747 782.57,-744.94 787.85,-743.91 779.14,-742.89 779.14,-742.89"/>
<ellipse fill="none" stroke="black" cx="776.39" cy="-741.24" rx="3.2" ry="3.2"/>
</g>
<!-- transactions&#45;&gt;withdrawals -->
<g id="edge17" class="edge">
<title>transactions:w&#45;&gt;withdrawals:e</title>
<path fill="none" stroke="black" stroke-dasharray="5,2" d="M468.97,-63.93C420.77,-63.6 392.96,-63.51 361,-105 319.21,-159.25 389.48,-720 321,-720"/>
<polygon fill="black" stroke="black" points="475.5,-63.96 483.48,-67.6 479.5,-63.98 483.5,-64 483.5,-64 483.5,-64 479.5,-63.98 483.52,-60.4 475.5,-63.96 475.5,-63.96"/>
<ellipse fill="none" stroke="black" cx="472.3" cy="-63.95" rx="3.2" ry="3.2"/>
</g>
<!-- transactions&#45;&gt;blocks -->
<g id="edge16" class="edge">
<title>transactions:w&#45;&gt;blocks:e</title>
<path fill="none" stroke="black" d="M468.94,-64.26C203.49,-74.04 257.84,-354.32 176,-619 155.38,-685.68 206.3,-771 136.5,-771"/>
<polygon fill="black" stroke="black" points="475.5,-64.14 483.57,-67.6 479.5,-64.07 483.5,-64 483.5,-64 483.5,-64 479.5,-64.07 483.43,-60.4 475.5,-64.14 475.5,-64.14"/>
<ellipse fill="none" stroke="black" cx="472.3" cy="-64.2" rx="3.2" ry="3.2"/>
</g>
<!-- internal_transactions_bkp -->
<g id="node7" class="node">
<title>internal_transactions_bkp</title>
<g id="a_node7"><a xlink:href="../../tables/internal_transactions_bkp.html" xlink:title="internal_transactions_bkp" target="_top">
<polygon fill="#ffffff" stroke="transparent" points="369,-116 369,-644 738,-644 738,-116 369,-116"/>
<polygon fill="#f5f5f5" stroke="transparent" points="371.5,-620 371.5,-642 736.5,-642 736.5,-620 371.5,-620"/>
<polygon fill="none" stroke="black" points="371.5,-620 371.5,-642 736.5,-642 736.5,-620 371.5,-620"/>
<text text-anchor="start" x="376.5" y="-629.2" font-family="Helvetica,sans-Serif" font-weight="bold" font-size="11.00">internal_transactions_bkp</text>
<text text-anchor="start" x="694.5" y="-628.2" font-family="Helvetica,sans-Serif" font-size="11.00">[table]</text>
<polygon fill="none" stroke="black" points="371.5,-598 371.5,-620 621.5,-620 621.5,-598 371.5,-598"/>
<text text-anchor="start" x="391.5" y="-606.2" font-family="Helvetica,sans-Serif" font-size="11.00">call_type</text>
<polygon fill="none" stroke="black" points="621.5,-598 621.5,-620 736.5,-620 736.5,-598 621.5,-598"/>
<text text-anchor="start" x="624.5" y="-606.2" font-family="Helvetica,sans-Serif" font-size="11.00">varchar[255]</text>
<polygon fill="none" stroke="black" points="371.5,-576 371.5,-598 621.5,-598 621.5,-576 371.5,-576"/>
<text text-anchor="start" x="391.5" y="-584.2" font-family="Helvetica,sans-Serif" font-size="11.00">created_contract_code</text>
<polygon fill="none" stroke="black" points="621.5,-576 621.5,-598 736.5,-598 736.5,-576 621.5,-576"/>
<text text-anchor="start" x="624.5" y="-584.2" font-family="Helvetica,sans-Serif" font-size="11.00">bytea[2147483647]</text>
<polygon fill="none" stroke="black" points="371.5,-554 371.5,-576 621.5,-576 621.5,-554 371.5,-554"/>
<text text-anchor="start" x="391.5" y="-562.2" font-family="Helvetica,sans-Serif" font-size="11.00">error</text>
<polygon fill="none" stroke="black" points="621.5,-554 621.5,-576 736.5,-576 736.5,-554 621.5,-554"/>
<text text-anchor="start" x="624.5" y="-562.2" font-family="Helvetica,sans-Serif" font-size="11.00">varchar[255]</text>
<polygon fill="none" stroke="black" points="371.5,-532 371.5,-554 621.5,-554 621.5,-532 371.5,-532"/>
<text text-anchor="start" x="391.5" y="-540.2" font-family="Helvetica,sans-Serif" font-size="11.00">gas</text>
<polygon fill="none" stroke="black" points="621.5,-532 621.5,-554 736.5,-554 736.5,-532 621.5,-532"/>
<text text-anchor="start" x="624.5" y="-540.2" font-family="Helvetica,sans-Serif" font-size="11.00">numeric[100]</text>
<polygon fill="none" stroke="black" points="371.5,-510 371.5,-532 621.5,-532 621.5,-510 371.5,-510"/>
<text text-anchor="start" x="391.5" y="-518.2" font-family="Helvetica,sans-Serif" font-size="11.00">gas_used</text>
<polygon fill="none" stroke="black" points="621.5,-510 621.5,-532 736.5,-532 736.5,-510 621.5,-510"/>
<text text-anchor="start" x="624.5" y="-518.2" font-family="Helvetica,sans-Serif" font-size="11.00">numeric[100]</text>
<polygon fill="none" stroke="black" points="371.5,-488 371.5,-510 621.5,-510 621.5,-488 371.5,-488"/>
<image xlink:href="../../images/foreignKeys.png" width="11px" height="12px" preserveAspectRatio="xMinYMin meet" x="376.5" y="-505"/>
<text text-anchor="start" x="391.5" y="-496.2" font-family="Helvetica,sans-Serif" font-size="11.00">index</text>
<polygon fill="none" stroke="black" points="621.5,-488 621.5,-510 736.5,-510 736.5,-488 621.5,-488"/>
<text text-anchor="start" x="624.5" y="-496.2" font-family="Helvetica,sans-Serif" font-size="11.00">int4[10]</text>
<polygon fill="none" stroke="black" points="371.5,-466 371.5,-488 621.5,-488 621.5,-466 371.5,-466"/>
<text text-anchor="start" x="391.5" y="-474.2" font-family="Helvetica,sans-Serif" font-size="11.00">init</text>
<polygon fill="none" stroke="black" points="621.5,-466 621.5,-488 736.5,-488 736.5,-466 621.5,-466"/>
<text text-anchor="start" x="624.5" y="-474.2" font-family="Helvetica,sans-Serif" font-size="11.00">bytea[2147483647]</text>
<polygon fill="none" stroke="black" points="371.5,-444 371.5,-466 621.5,-466 621.5,-444 371.5,-444"/>
<text text-anchor="start" x="391.5" y="-452.2" font-family="Helvetica,sans-Serif" font-size="11.00">input</text>
<polygon fill="none" stroke="black" points="621.5,-444 621.5,-466 736.5,-466 736.5,-444 621.5,-444"/>
<text text-anchor="start" x="624.5" y="-452.2" font-family="Helvetica,sans-Serif" font-size="11.00">bytea[2147483647]</text>
<polygon fill="none" stroke="black" points="371.5,-422 371.5,-444 621.5,-444 621.5,-422 371.5,-422"/>
<text text-anchor="start" x="391.5" y="-430.2" font-family="Helvetica,sans-Serif" font-size="11.00">output</text>
<polygon fill="none" stroke="black" points="621.5,-422 621.5,-444 736.5,-444 736.5,-422 621.5,-422"/>
<text text-anchor="start" x="624.5" y="-430.2" font-family="Helvetica,sans-Serif" font-size="11.00">bytea[2147483647]</text>
<polygon fill="none" stroke="black" points="371.5,-400 371.5,-422 621.5,-422 621.5,-400 371.5,-400"/>
<text text-anchor="start" x="391.5" y="-408.2" font-family="Helvetica,sans-Serif" font-size="11.00">trace_address</text>
<polygon fill="none" stroke="black" points="621.5,-400 621.5,-422 736.5,-422 736.5,-400 621.5,-400"/>
<text text-anchor="start" x="624.5" y="-408.2" font-family="Helvetica,sans-Serif" font-size="11.00">_int4[10]</text>
<polygon fill="none" stroke="black" points="371.5,-378 371.5,-400 621.5,-400 621.5,-378 371.5,-378"/>
<text text-anchor="start" x="391.5" y="-386.2" font-family="Helvetica,sans-Serif" font-size="11.00">type</text>
<polygon fill="none" stroke="black" points="621.5,-378 621.5,-400 736.5,-400 736.5,-378 621.5,-378"/>
<text text-anchor="start" x="624.5" y="-386.2" font-family="Helvetica,sans-Serif" font-size="11.00">varchar[255]</text>
<polygon fill="none" stroke="black" points="371.5,-356 371.5,-378 621.5,-378 621.5,-356 371.5,-356"/>
<text text-anchor="start" x="391.5" y="-364.2" font-family="Helvetica,sans-Serif" font-size="11.00">value</text>
<polygon fill="none" stroke="black" points="621.5,-356 621.5,-378 736.5,-378 736.5,-356 621.5,-356"/>
<text text-anchor="start" x="624.5" y="-364.2" font-family="Helvetica,sans-Serif" font-size="11.00">numeric[100]</text>
<polygon fill="none" stroke="black" points="371.5,-334 371.5,-356 621.5,-356 621.5,-334 371.5,-334"/>
<text text-anchor="start" x="391.5" y="-342.2" font-family="Helvetica,sans-Serif" font-size="11.00">inserted_at</text>
<polygon fill="none" stroke="black" points="621.5,-334 621.5,-356 736.5,-356 736.5,-334 621.5,-334"/>
<text text-anchor="start" x="624.5" y="-342.2" font-family="Helvetica,sans-Serif" font-size="11.00">timestamp[29,6]</text>
<polygon fill="none" stroke="black" points="371.5,-312 371.5,-334 621.5,-334 621.5,-312 371.5,-312"/>
<text text-anchor="start" x="391.5" y="-320.2" font-family="Helvetica,sans-Serif" font-size="11.00">updated_at</text>
<polygon fill="none" stroke="black" points="621.5,-312 621.5,-334 736.5,-334 736.5,-312 621.5,-312"/>
<text text-anchor="start" x="624.5" y="-320.2" font-family="Helvetica,sans-Serif" font-size="11.00">timestamp[29,6]</text>
<polygon fill="none" stroke="black" points="371.5,-290 371.5,-312 621.5,-312 621.5,-290 371.5,-290"/>
<text text-anchor="start" x="391.5" y="-298.2" font-family="Helvetica,sans-Serif" font-size="11.00">created_contract_address_hash</text>
<polygon fill="none" stroke="black" points="621.5,-290 621.5,-312 736.5,-312 736.5,-290 621.5,-290"/>
<text text-anchor="start" x="624.5" y="-298.2" font-family="Helvetica,sans-Serif" font-size="11.00">bytea[2147483647]</text>
<polygon fill="none" stroke="black" points="371.5,-268 371.5,-290 621.5,-290 621.5,-268 371.5,-268"/>
<text text-anchor="start" x="391.5" y="-276.2" font-family="Helvetica,sans-Serif" font-size="11.00">from_address_hash</text>
<polygon fill="none" stroke="black" points="621.5,-268 621.5,-290 736.5,-290 736.5,-268 621.5,-268"/>
<text text-anchor="start" x="624.5" y="-276.2" font-family="Helvetica,sans-Serif" font-size="11.00">bytea[2147483647]</text>
<polygon fill="none" stroke="black" points="371.5,-246 371.5,-268 621.5,-268 621.5,-246 371.5,-246"/>
<text text-anchor="start" x="391.5" y="-254.2" font-family="Helvetica,sans-Serif" font-size="11.00">to_address_hash</text>
<polygon fill="none" stroke="black" points="621.5,-246 621.5,-268 736.5,-268 736.5,-246 621.5,-246"/>
<text text-anchor="start" x="624.5" y="-254.2" font-family="Helvetica,sans-Serif" font-size="11.00">bytea[2147483647]</text>
<polygon fill="none" stroke="black" points="371.5,-224 371.5,-246 621.5,-246 621.5,-224 371.5,-224"/>
<text text-anchor="start" x="391.5" y="-232.2" font-family="Helvetica,sans-Serif" font-size="11.00">transaction_hash</text>
<polygon fill="none" stroke="black" points="621.5,-224 621.5,-246 736.5,-246 736.5,-224 621.5,-224"/>
<text text-anchor="start" x="624.5" y="-232.2" font-family="Helvetica,sans-Serif" font-size="11.00">bytea[2147483647]</text>
<polygon fill="none" stroke="black" points="371.5,-202 371.5,-224 621.5,-224 621.5,-202 371.5,-202"/>
<text text-anchor="start" x="391.5" y="-210.2" font-family="Helvetica,sans-Serif" font-size="11.00">block_number</text>
<polygon fill="none" stroke="black" points="621.5,-202 621.5,-224 736.5,-224 736.5,-202 621.5,-202"/>
<text text-anchor="start" x="624.5" y="-210.2" font-family="Helvetica,sans-Serif" font-size="11.00">int4[10]</text>
<polygon fill="none" stroke="black" points="371.5,-180 371.5,-202 621.5,-202 621.5,-180 371.5,-180"/>
<image xlink:href="../../images/foreignKeys.png" width="11px" height="12px" preserveAspectRatio="xMinYMin meet" x="376.5" y="-197"/>
<text text-anchor="start" x="391.5" y="-188.2" font-family="Helvetica,sans-Serif" font-size="11.00">transaction_index</text>
<polygon fill="none" stroke="black" points="621.5,-180 621.5,-202 736.5,-202 736.5,-180 621.5,-180"/>
<text text-anchor="start" x="624.5" y="-188.2" font-family="Helvetica,sans-Serif" font-size="11.00">int4[10]</text>
<polygon fill="none" stroke="black" points="371.5,-158 371.5,-180 621.5,-180 621.5,-158 371.5,-158"/>
<text text-anchor="start" x="391.5" y="-166.2" font-family="Helvetica,sans-Serif" font-size="11.00">block_hash</text>
<polygon fill="none" stroke="black" points="621.5,-158 621.5,-180 736.5,-180 736.5,-158 621.5,-158"/>
<text text-anchor="start" x="624.5" y="-166.2" font-family="Helvetica,sans-Serif" font-size="11.00">bytea[2147483647]</text>
<polygon fill="none" stroke="black" points="371.5,-136 371.5,-158 621.5,-158 621.5,-136 371.5,-136"/>
<image xlink:href="../../images/foreignKeys.png" width="11px" height="12px" preserveAspectRatio="xMinYMin meet" x="376.5" y="-153"/>
<text text-anchor="start" x="391.5" y="-144.2" font-family="Helvetica,sans-Serif" font-size="11.00">block_index</text>
<polygon fill="none" stroke="black" points="621.5,-136 621.5,-158 736.5,-158 736.5,-136 621.5,-136"/>
<text text-anchor="start" x="624.5" y="-144.2" font-family="Helvetica,sans-Serif" font-size="11.00">int4[10]</text>
<polygon fill="#ffffff" stroke="transparent" points="371.5,-118 371.5,-136 736.5,-136 736.5,-118 371.5,-118"/>
<polygon fill="none" stroke="black" points="371.5,-118 371.5,-136 736.5,-136 736.5,-118 371.5,-118"/>
<polygon fill="#ffffff" stroke="transparent" points="372.5,-119 372.5,-135 475.5,-135 475.5,-119 372.5,-119"/>
<text text-anchor="start" x="374.5" y="-124.2" font-family="Helvetica,sans-Serif" font-size="11.00">&lt; 3</text>
<polygon fill="#ffffff" stroke="transparent" points="475.5,-119 475.5,-135 633.5,-135 633.5,-119 475.5,-119"/>
<text text-anchor="start" x="517" y="-124.2" font-family="Helvetica,sans-Serif" font-size="11.00">524,719 rows</text>
<polygon fill="#ffffff" stroke="transparent" points="633.5,-119 633.5,-135 735.5,-135 735.5,-119 633.5,-119"/>
<text text-anchor="start" x="713.5" y="-124.2" font-family="Helvetica,sans-Serif" font-size="11.00">0 &gt;</text>
<polygon fill="black" stroke="black" points="475.5,-119 475.5,-135 475.5,-135 475.5,-119 475.5,-119"/>
<polygon fill="black" stroke="black" points="633.5,-119 633.5,-135 633.5,-135 633.5,-119 633.5,-119"/>
<polygon fill="none" stroke="black" stroke-width="2" points="370,-117 370,-643 737,-643 737,-117 370,-117"/>
</a>
</g>
</g>
<!-- internal_transactions_bkp&#45;&gt;withdrawals -->
<g id="edge9" class="edge">
<title>internal_transactions_bkp:w&#45;&gt;withdrawals:e</title>
<path fill="none" stroke="black" stroke-dasharray="5,2" d="M358.77,-155.54C317.17,-226.82 380.29,-720 321,-720"/>
<polygon fill="black" stroke="black" points="364.03,-151.71 372.62,-149.91 367.27,-149.35 370.5,-147 370.5,-147 370.5,-147 367.27,-149.35 368.38,-144.09 364.03,-151.71 364.03,-151.71"/>
<ellipse fill="none" stroke="black" cx="361.45" cy="-153.59" rx="3.2" ry="3.2"/>
</g>
<!-- internal_transactions_bkp&#45;&gt;withdrawals -->
<g id="edge10" class="edge">
<title>internal_transactions_bkp:w&#45;&gt;withdrawals:e</title>
<path fill="none" stroke="black" stroke-dasharray="5,2" d="M356.17,-500.91C285.69,-522.51 416.15,-720 321,-720"/>
<polygon fill="black" stroke="black" points="362.57,-500.06 370.98,-502.57 366.54,-499.53 370.5,-499 370.5,-499 370.5,-499 366.54,-499.53 370.02,-495.43 362.57,-500.06 362.57,-500.06"/>
<ellipse fill="none" stroke="black" cx="359.4" cy="-500.48" rx="3.2" ry="3.2"/>
</g>
<!-- internal_transactions_bkp&#45;&gt;withdrawals -->
<g id="edge11" class="edge">
<title>internal_transactions_bkp:w&#45;&gt;withdrawals:e</title>
<path fill="none" stroke="black" stroke-dasharray="5,2" d="M358.88,-200.18C321.4,-270.43 375.42,-720 321,-720"/>
<polygon fill="black" stroke="black" points="364.22,-195.96 372.73,-193.82 367.36,-193.48 370.5,-191 370.5,-191 370.5,-191 367.36,-193.48 368.27,-188.18 364.22,-195.96 364.22,-195.96"/>
<ellipse fill="none" stroke="black" cx="361.71" cy="-197.94" rx="3.2" ry="3.2"/>
</g>
<!-- internal_transactions_bkp_latest -->
<g id="node8" class="node">
<title>internal_transactions_bkp_latest</title>
<g id="a_node8"><a xlink:href="../../tables/internal_transactions_bkp_latest.html" xlink:title="internal_transactions_bkp_latest" target="_top">
<polygon fill="#ffffff" stroke="transparent" points="411,-850 411,-908 696,-908 696,-850 411,-850"/>
<polygon fill="#f5f5f5" stroke="transparent" points="411.5,-886 411.5,-908 696.5,-908 696.5,-886 411.5,-886"/>
<polygon fill="none" stroke="black" points="411.5,-886 411.5,-908 696.5,-908 696.5,-886 411.5,-886"/>
<text text-anchor="start" x="416.5" y="-895.2" font-family="Helvetica,sans-Serif" font-weight="bold" font-size="11.00">internal_transactions_bkp_latest</text>
<text text-anchor="start" x="654.5" y="-894.2" font-family="Helvetica,sans-Serif" font-size="11.00">[table]</text>
<polygon fill="none" stroke="black" points="411.5,-868 411.5,-886 696.5,-886 696.5,-868 411.5,-868"/>
<text text-anchor="start" x="414.5" y="-874.2" font-family="Helvetica,sans-Serif" font-size="11.00">...</text>
<polygon fill="#ffffff" stroke="transparent" points="411.5,-850 411.5,-868 696.5,-868 696.5,-850 411.5,-850"/>
<polygon fill="none" stroke="black" points="411.5,-850 411.5,-868 696.5,-868 696.5,-850 411.5,-850"/>
<polygon fill="#ffffff" stroke="transparent" points="412.5,-851 412.5,-867 492.5,-867 492.5,-851 412.5,-851"/>
<text text-anchor="start" x="414.5" y="-856.2" font-family="Helvetica,sans-Serif" font-size="11.00">&lt; 3</text>
<polygon fill="#ffffff" stroke="transparent" points="492.5,-851 492.5,-867 627.5,-867 627.5,-851 492.5,-851"/>
<text text-anchor="start" x="522.5" y="-856.2" font-family="Helvetica,sans-Serif" font-size="11.00">626,527 rows</text>
<polygon fill="#ffffff" stroke="transparent" points="627.5,-851 627.5,-867 695.5,-867 695.5,-851 627.5,-851"/>
<text text-anchor="start" x="685.5" y="-856.2" font-family="Helvetica,sans-Serif" font-size="11.00"> &#160;</text>
<polygon fill="black" stroke="black" points="492.5,-851 492.5,-867 492.5,-867 492.5,-851 492.5,-851"/>
<polygon fill="black" stroke="black" points="627.5,-851 627.5,-867 627.5,-867 627.5,-851 627.5,-851"/>
</a>
</g>
</g>
<!-- internal_transactions_bkp_latest&#45;&gt;withdrawals -->
<g id="edge12" class="edge">
<title>internal_transactions_bkp_latest:w&#45;&gt;withdrawals:e</title>
<path fill="none" stroke="black" stroke-dasharray="5,2" d="M397.59,-869.79C380.57,-858.46 374.19,-845.27 361,-827 328.09,-781.42 377.22,-707 321,-720"/>
<polygon fill="black" stroke="black" points="403.52,-873.1 408.74,-880.14 407.01,-875.05 410.5,-877 410.5,-877 410.5,-877 407.01,-875.05 412.26,-873.86 403.52,-873.1 403.52,-873.1"/>
<ellipse fill="none" stroke="black" cx="400.72" cy="-871.54" rx="3.2" ry="3.2"/>
</g>
<!-- internal_transactions_bkp_latest&#45;&gt;withdrawals -->
<g id="edge13" class="edge">
<title>internal_transactions_bkp_latest:w&#45;&gt;withdrawals:e</title>
<path fill="none" stroke="black" stroke-dasharray="5,2" d="M396.16,-875.24C380.2,-870.7 373.81,-857.75 361,-840 328.09,-794.42 377.22,-720 321,-720"/>
<polygon fill="black" stroke="black" points="402.56,-876.02 410.06,-880.57 406.53,-876.51 410.5,-877 410.5,-877 410.5,-877 406.53,-876.51 410.94,-873.43 402.56,-876.02 402.56,-876.02"/>
<ellipse fill="none" stroke="black" cx="399.38" cy="-875.63" rx="3.2" ry="3.2"/>
</g>
<!-- internal_transactions_bkp_latest&#45;&gt;withdrawals -->
<g id="edge14" class="edge">
<title>internal_transactions_bkp_latest:w&#45;&gt;withdrawals:e</title>
<path fill="none" stroke="black" stroke-dasharray="5,2" d="M396.63,-881.59C380.32,-883.96 373.94,-870.92 361,-853 328.09,-807.42 377.22,-733 321,-720"/>
<polygon fill="black" stroke="black" points="402.91,-879.52 411.63,-880.42 406.7,-878.26 410.5,-877 410.5,-877 410.5,-877 406.7,-878.26 409.37,-873.58 402.91,-879.52 402.91,-879.52"/>
<ellipse fill="none" stroke="black" cx="399.87" cy="-880.52" rx="3.2" ry="3.2"/>
</g>
<!-- token_instances -->
<g id="node9" class="node">
<title>token_instances</title>
<g id="a_node9"><a xlink:href="../../tables/token_instances.html" xlink:title="token_instances" target="_top">
<polygon fill="#ffffff" stroke="transparent" points="471,-771 471,-829 636,-829 636,-771 471,-771"/>
<polygon fill="#f5f5f5" stroke="transparent" points="471.5,-807 471.5,-829 636.5,-829 636.5,-807 471.5,-807"/>
<polygon fill="none" stroke="black" points="471.5,-807 471.5,-829 636.5,-829 636.5,-807 471.5,-807"/>
<text text-anchor="start" x="476.5" y="-816.2" font-family="Helvetica,sans-Serif" font-weight="bold" font-size="11.00">token_instances</text>
<text text-anchor="start" x="594.5" y="-815.2" font-family="Helvetica,sans-Serif" font-size="11.00">[table]</text>
<polygon fill="none" stroke="black" points="471.5,-789 471.5,-807 636.5,-807 636.5,-789 471.5,-789"/>
<text text-anchor="start" x="474.5" y="-795.2" font-family="Helvetica,sans-Serif" font-size="11.00">...</text>
<polygon fill="#ffffff" stroke="transparent" points="471.5,-771 471.5,-789 636.5,-789 636.5,-771 471.5,-771"/>
<polygon fill="none" stroke="black" points="471.5,-771 471.5,-789 636.5,-789 636.5,-771 471.5,-771"/>
<polygon fill="#ffffff" stroke="transparent" points="472.5,-772 472.5,-788 512.5,-788 512.5,-772 472.5,-772"/>
<text text-anchor="start" x="474.5" y="-777.2" font-family="Helvetica,sans-Serif" font-size="11.00">&lt; 2</text>
<polygon fill="#ffffff" stroke="transparent" points="512.5,-772 512.5,-788 607.5,-788 607.5,-772 512.5,-772"/>
<text text-anchor="start" x="522.5" y="-777.2" font-family="Helvetica,sans-Serif" font-size="11.00">137,721 rows</text>
<polygon fill="#ffffff" stroke="transparent" points="607.5,-772 607.5,-788 635.5,-788 635.5,-772 607.5,-772"/>
<text text-anchor="start" x="625.5" y="-777.2" font-family="Helvetica,sans-Serif" font-size="11.00"> &#160;</text>
<polygon fill="black" stroke="black" points="512.5,-772 512.5,-788 512.5,-788 512.5,-772 512.5,-772"/>
<polygon fill="black" stroke="black" points="607.5,-772 607.5,-788 607.5,-788 607.5,-772 607.5,-772"/>
</a>
</g>
</g>
<!-- token_instances&#45;&gt;withdrawals -->
<g id="edge15" class="edge">
<title>token_instances:w&#45;&gt;withdrawals:e</title>
<path fill="none" stroke="black" stroke-dasharray="5,2" d="M456.05,-797.59C415.58,-795.13 400.83,-781.55 361,-757 340.38,-744.29 345.22,-720 321,-720"/>
<polygon fill="black" stroke="black" points="462.5,-797.77 470.4,-801.6 466.5,-797.89 470.5,-798 470.5,-798 470.5,-798 466.5,-797.89 470.6,-794.4 462.5,-797.77 462.5,-797.77"/>
<ellipse fill="none" stroke="black" cx="459.3" cy="-797.68" rx="3.2" ry="3.2"/>
</g>
</g>
</svg>
