<?xml version="1.0" encoding="UTF-8" standalone="no"?>
<!DOCTYPE svg PUBLIC "-//W3C//DTD SVG 1.1//EN"
 "http://www.w3.org/Graphics/SVG/1.1/DTD/svg11.dtd">
<!-- Generated by graphviz version 2.43.0 (0)
 -->
<!-- Title: twoDegreesRelationshipsDiagramImplied Pages: 1 -->
<svg width="1014pt" height="1045pt"
 viewBox="0.00 0.00 1014.00 1045.41" xmlns="http://www.w3.org/2000/svg" xmlns:xlink="http://www.w3.org/1999/xlink">
<g id="graph0" class="graph" transform="scale(1 1) rotate(0) translate(4 1041.41)">
<title>twoDegreesRelationshipsDiagramImplied</title>
<polygon fill="#ffffff" stroke="transparent" points="-4,4 -4,-1041.41 1010,-1041.41 1010,4 -4,4"/>
<text text-anchor="middle" x="79.5" y="-7.2" font-family="Helvetica,sans-Serif" font-size="11.00">Generated by SchemaSpy</text>
<!-- archival_internal_transactions -->
<g id="node1" class="node">
<title>archival_internal_transactions</title>
<g id="a_node1"><a xlink:href="../../tables/archival_internal_transactions.html" xlink:title="archival_internal_transactions" target="_top">
<polygon fill="#ffffff" stroke="transparent" points="424.5,-195 424.5,-253 691.5,-253 691.5,-195 424.5,-195"/>
<polygon fill="#f5f5f5" stroke="transparent" points="425,-231 425,-253 692,-253 692,-231 425,-231"/>
<polygon fill="none" stroke="black" points="425,-231 425,-253 692,-253 692,-231 425,-231"/>
<text text-anchor="start" x="430" y="-240.2" font-family="Helvetica,sans-Serif" font-weight="bold" font-size="11.00">archival_internal_transactions</text>
<text text-anchor="start" x="650" y="-239.2" font-family="Helvetica,sans-Serif" font-size="11.00">[table]</text>
<polygon fill="none" stroke="black" points="425,-213 425,-231 692,-231 692,-213 425,-213"/>
<text text-anchor="start" x="428" y="-219.2" font-family="Helvetica,sans-Serif" font-size="11.00">...</text>
<polygon fill="#ffffff" stroke="transparent" points="425,-195 425,-213 692,-213 692,-195 425,-195"/>
<polygon fill="none" stroke="black" points="425,-195 425,-213 692,-213 692,-195 425,-195"/>
<polygon fill="#ffffff" stroke="transparent" points="426,-196 426,-212 500,-212 500,-196 426,-196"/>
<text text-anchor="start" x="428" y="-201.2" font-family="Helvetica,sans-Serif" font-size="11.00">&lt; 3</text>
<polygon fill="#ffffff" stroke="transparent" points="500,-196 500,-212 629,-212 629,-196 500,-196"/>
<text text-anchor="start" x="527" y="-201.2" font-family="Helvetica,sans-Serif" font-size="11.00">524,630 rows</text>
<polygon fill="#ffffff" stroke="transparent" points="629,-196 629,-212 691,-212 691,-196 629,-196"/>
<text text-anchor="start" x="681" y="-201.2" font-family="Helvetica,sans-Serif" font-size="11.00"> &#160;</text>
<polygon fill="black" stroke="black" points="500,-196 500,-212 500,-212 500,-196 500,-196"/>
<polygon fill="black" stroke="black" points="629,-196 629,-212 629,-212 629,-196 629,-196"/>
</a>
</g>
</g>
<!-- withdrawals -->
<g id="node2" class="node">
<title>withdrawals</title>
<g id="a_node2"><a xlink:href="../../tables/withdrawals.html" xlink:title="withdrawals" target="_top">
<polygon fill="#ffffff" stroke="transparent" points="184,-162 184,-286 320,-286 320,-162 184,-162"/>
<polygon fill="#f5f5f5" stroke="transparent" points="184,-264 184,-286 320,-286 320,-264 184,-264"/>
<polygon fill="none" stroke="black" points="184,-264 184,-286 320,-286 320,-264 184,-264"/>
<text text-anchor="start" x="189" y="-273.2" font-family="Helvetica,sans-Serif" font-weight="bold" font-size="11.00">withdrawals</text>
<text text-anchor="start" x="278" y="-272.2" font-family="Helvetica,sans-Serif" font-size="11.00">[table]</text>
<polygon fill="none" stroke="black" points="184,-242 184,-264 320,-264 320,-242 184,-242"/>
<image xlink:href="../../images/primaryKeys.png" width="11px" height="12px" preserveAspectRatio="xMinYMin meet" x="189" y="-259"/>
<text text-anchor="start" x="206" y="-250.2" font-family="Helvetica,sans-Serif" font-size="11.00">index</text>
<polygon fill="#ffffff" stroke="transparent" points="184,-220 184,-242 320,-242 320,-220 184,-220"/>
<polygon fill="none" stroke="black" points="184,-220 184,-242 320,-242 320,-220 184,-220"/>
<text text-anchor="start" x="206" y="-228.2" font-family="Helvetica,sans-Serif" font-size="11.00">address_hash</text>
<polygon fill="#ffffff" stroke="transparent" points="184,-198 184,-220 320,-220 320,-198 184,-198"/>
<polygon fill="none" stroke="black" points="184,-198 184,-220 320,-220 320,-198 184,-198"/>
<image xlink:href="../../images/foreignKeys.png" width="11px" height="12px" preserveAspectRatio="xMinYMin meet" x="189" y="-215"/>
<text text-anchor="start" x="206" y="-206.2" font-family="Helvetica,sans-Serif" font-size="11.00">block_hash</text>
<polygon fill="none" stroke="black" points="184,-180 184,-198 320,-198 320,-180 184,-180"/>
<text text-anchor="start" x="187" y="-186.2" font-family="Helvetica,sans-Serif" font-size="11.00">...</text>
<polygon fill="#ffffff" stroke="transparent" points="184,-162 184,-180 320,-180 320,-162 184,-162"/>
<polygon fill="none" stroke="black" points="184,-162 184,-180 320,-180 320,-162 184,-162"/>
<polygon fill="#ffffff" stroke="transparent" points="185,-163 185,-179 209,-179 209,-163 185,-163"/>
<text text-anchor="start" x="187" y="-168.2" font-family="Helvetica,sans-Serif" font-size="11.00">&lt; 1</text>
<polygon fill="#ffffff" stroke="transparent" points="209,-163 209,-179 288,-179 288,-163 209,-163"/>
<text text-anchor="start" x="211" y="-168.2" font-family="Helvetica,sans-Serif" font-size="11.00">552,138 rows</text>
<polygon fill="#ffffff" stroke="transparent" points="288,-163 288,-179 319,-179 319,-163 288,-163"/>
<text text-anchor="start" x="290" y="-168.2" font-family="Helvetica,sans-Serif" font-size="11.00">13 &gt;</text>
<polygon fill="black" stroke="black" points="209,-163 209,-179 209,-179 209,-163 209,-163"/>
<polygon fill="black" stroke="black" points="288,-163 288,-179 288,-179 288,-163 288,-163"/>
</a>
</g>
</g>
<!-- archival_internal_transactions&#45;&gt;withdrawals -->
<g id="edge1" class="edge">
<title>archival_internal_transactions:w&#45;&gt;withdrawals:e</title>
<path fill="none" stroke="black" stroke-dasharray="5,2" d="M409.66,-219.23C374.09,-215.57 363.58,-241.42 321,-253"/>
<polygon fill="black" stroke="black" points="416.14,-220.48 423.32,-225.53 420.07,-221.24 424,-222 424,-222 424,-222 420.07,-221.24 424.68,-218.47 416.14,-220.48 416.14,-220.48"/>
<ellipse fill="none" stroke="black" cx="413" cy="-219.88" rx="3.2" ry="3.2"/>
</g>
<!-- archival_internal_transactions&#45;&gt;withdrawals -->
<g id="edge2" class="edge">
<title>archival_internal_transactions:w&#45;&gt;withdrawals:e</title>
<path fill="none" stroke="black" stroke-dasharray="5,2" d="M409.19,-223.1C374,-228.63 363.39,-253 321,-253"/>
<polygon fill="black" stroke="black" points="416.02,-222.59 424.27,-225.59 420.01,-222.3 424,-222 424,-222 424,-222 420.01,-222.3 423.73,-218.41 416.02,-222.59 416.02,-222.59"/>
<ellipse fill="none" stroke="black" cx="412.83" cy="-222.83" rx="3.2" ry="3.2"/>
</g>
<!-- archival_internal_transactions&#45;&gt;withdrawals -->
<g id="edge3" class="edge">
<title>archival_internal_transactions:w&#45;&gt;withdrawals:e</title>
<path fill="none" stroke="black" stroke-dasharray="5,2" d="M410.13,-226.64C374.19,-241.05 363.76,-264.63 321,-253"/>
<polygon fill="black" stroke="black" points="416.41,-224.54 425.14,-225.41 420.21,-223.27 424,-222 424,-222 424,-222 420.21,-223.27 422.86,-218.59 416.41,-224.54 416.41,-224.54"/>
<ellipse fill="none" stroke="black" cx="413.38" cy="-225.55" rx="3.2" ry="3.2"/>
</g>
<!-- blocks -->
<g id="node4" class="node">
<title>blocks</title>
<g id="a_node4"><a xlink:href="../../tables/blocks.html" xlink:title="blocks" target="_top">
<polygon fill="#ffffff" stroke="transparent" points="8,-394 8,-452 135,-452 135,-394 8,-394"/>
<polygon fill="#f5f5f5" stroke="transparent" points="8.5,-430 8.5,-452 135.5,-452 135.5,-430 8.5,-430"/>
<polygon fill="none" stroke="black" points="8.5,-430 8.5,-452 135.5,-452 135.5,-430 8.5,-430"/>
<text text-anchor="start" x="13.5" y="-439.2" font-family="Helvetica,sans-Serif" font-weight="bold" font-size="11.00">blocks</text>
<text text-anchor="start" x="93.5" y="-438.2" font-family="Helvetica,sans-Serif" font-size="11.00">[table]</text>
<polygon fill="none" stroke="black" points="8.5,-412 8.5,-430 135.5,-430 135.5,-412 8.5,-412"/>
<text text-anchor="start" x="11.5" y="-418.2" font-family="Helvetica,sans-Serif" font-size="11.00">...</text>
<polygon fill="#ffffff" stroke="transparent" points="8.5,-394 8.5,-412 135.5,-412 135.5,-394 8.5,-394"/>
<polygon fill="none" stroke="black" points="8.5,-394 8.5,-412 135.5,-412 135.5,-394 8.5,-394"/>
<polygon fill="#ffffff" stroke="transparent" points="9.5,-395 9.5,-411 21.5,-411 21.5,-395 9.5,-395"/>
<text text-anchor="start" x="11.5" y="-400.2" font-family="Helvetica,sans-Serif" font-size="11.00"> &#160;</text>
<polygon fill="#ffffff" stroke="transparent" points="21.5,-395 21.5,-411 110.5,-411 110.5,-395 21.5,-395"/>
<text text-anchor="start" x="23.5" y="-400.2" font-family="Helvetica,sans-Serif" font-size="11.00">1,446,481 rows</text>
<polygon fill="#ffffff" stroke="transparent" points="110.5,-395 110.5,-411 134.5,-411 134.5,-395 110.5,-395"/>
<text text-anchor="start" x="112.5" y="-400.2" font-family="Helvetica,sans-Serif" font-size="11.00">9 &gt;</text>
<polygon fill="black" stroke="black" points="21.5,-395 21.5,-411 21.5,-411 21.5,-395 21.5,-395"/>
<polygon fill="black" stroke="black" points="110.5,-395 110.5,-411 110.5,-411 110.5,-395 110.5,-395"/>
</a>
</g>
</g>
<!-- withdrawals&#45;&gt;blocks -->
<g id="edge18" class="edge">
<title>withdrawals:w&#45;&gt;blocks:e</title>
<path fill="none" stroke="black" d="M168.45,-211.1C102.86,-233.12 227.31,-421 136.5,-421"/>
<polygon fill="black" stroke="black" points="175.08,-210.14 183.51,-212.56 179.04,-209.57 183,-209 183,-209 183,-209 179.04,-209.57 182.49,-205.44 175.08,-210.14 175.08,-210.14"/>
<ellipse fill="none" stroke="black" cx="171.91" cy="-210.6" rx="3.2" ry="3.2"/>
</g>
<!-- block_second_degree_relations -->
<g id="node3" class="node">
<title>block_second_degree_relations</title>
<g id="a_node3"><a xlink:href="../../tables/block_second_degree_relations.html" xlink:title="block_second_degree_relations" target="_top">
<polygon fill="#ffffff" stroke="transparent" points="421.5,-929 421.5,-987 694.5,-987 694.5,-929 421.5,-929"/>
<polygon fill="#f5f5f5" stroke="transparent" points="422,-965 422,-987 695,-987 695,-965 422,-965"/>
<polygon fill="none" stroke="black" points="422,-965 422,-987 695,-987 695,-965 422,-965"/>
<text text-anchor="start" x="427" y="-974.2" font-family="Helvetica,sans-Serif" font-weight="bold" font-size="11.00">block_second_degree_relations</text>
<text text-anchor="start" x="653" y="-973.2" font-family="Helvetica,sans-Serif" font-size="11.00">[table]</text>
<polygon fill="none" stroke="black" points="422,-947 422,-965 695,-965 695,-947 422,-947"/>
<text text-anchor="start" x="425" y="-953.2" font-family="Helvetica,sans-Serif" font-size="11.00">...</text>
<polygon fill="#ffffff" stroke="transparent" points="422,-929 422,-947 695,-947 695,-929 422,-929"/>
<polygon fill="none" stroke="black" points="422,-929 422,-947 695,-947 695,-929 422,-929"/>
<polygon fill="#ffffff" stroke="transparent" points="423,-930 423,-946 502,-946 502,-930 423,-930"/>
<text text-anchor="start" x="425" y="-935.2" font-family="Helvetica,sans-Serif" font-size="11.00">&lt; 2</text>
<polygon fill="#ffffff" stroke="transparent" points="502,-930 502,-946 628,-946 628,-930 502,-930"/>
<text text-anchor="start" x="531" y="-935.2" font-family="Helvetica,sans-Serif" font-size="11.00">39,778 rows</text>
<polygon fill="#ffffff" stroke="transparent" points="628,-930 628,-946 694,-946 694,-930 628,-930"/>
<text text-anchor="start" x="684" y="-935.2" font-family="Helvetica,sans-Serif" font-size="11.00"> &#160;</text>
<polygon fill="black" stroke="black" points="502,-930 502,-946 502,-946 502,-930 502,-930"/>
<polygon fill="black" stroke="black" points="628,-930 628,-946 628,-946 628,-930 628,-930"/>
</a>
</g>
</g>
<!-- block_second_degree_relations&#45;&gt;withdrawals -->
<g id="edge4" class="edge">
<title>block_second_degree_relations:w&#45;&gt;withdrawals:e</title>
<path fill="none" stroke="black" stroke-dasharray="5,2" d="M406.39,-955.07C385.24,-952.03 374.32,-941.26 361,-919 322.94,-855.38 395.13,-253 321,-253"/>
<polygon fill="black" stroke="black" points="413.02,-955.49 420.77,-959.59 417.01,-955.75 421,-956 421,-956 421,-956 417.01,-955.75 421.23,-952.41 413.02,-955.49 413.02,-955.49"/>
<ellipse fill="none" stroke="black" cx="409.82" cy="-955.29" rx="3.2" ry="3.2"/>
</g>
<!-- block_second_degree_relations&#45;&gt;blocks -->
<g id="edge5" class="edge">
<title>block_second_degree_relations:w&#45;&gt;blocks:e</title>
<path fill="none" stroke="black" d="M406.54,-955.45C160.94,-936.33 400.81,-421 136.5,-421"/>
<polygon fill="black" stroke="black" points="413.01,-955.7 420.86,-959.6 417,-955.85 421,-956 421,-956 421,-956 417,-955.85 421.14,-952.4 413.01,-955.7 413.01,-955.7"/>
<ellipse fill="none" stroke="black" cx="409.81" cy="-955.58" rx="3.2" ry="3.2"/>
</g>
<!-- internal_transactions -->
<g id="node5" class="node">
<title>internal_transactions</title>
<g id="a_node5"><a xlink:href="../../tables/internal_transactions.html" xlink:title="internal_transactions" target="_top">
<polygon fill="#ffffff" stroke="transparent" points="796,-250 796,-308 998,-308 998,-250 796,-250"/>
<polygon fill="#f5f5f5" stroke="transparent" points="796,-286 796,-308 998,-308 998,-286 796,-286"/>
<polygon fill="none" stroke="black" points="796,-286 796,-308 998,-308 998,-286 796,-286"/>
<text text-anchor="start" x="801" y="-295.2" font-family="Helvetica,sans-Serif" font-weight="bold" font-size="11.00">internal_transactions</text>
<text text-anchor="start" x="956" y="-294.2" font-family="Helvetica,sans-Serif" font-size="11.00">[table]</text>
<polygon fill="none" stroke="black" points="796,-268 796,-286 998,-286 998,-268 796,-268"/>
<text text-anchor="start" x="799" y="-274.2" font-family="Helvetica,sans-Serif" font-size="11.00">...</text>
<polygon fill="#ffffff" stroke="transparent" points="796,-250 796,-268 998,-268 998,-250 796,-250"/>
<polygon fill="none" stroke="black" points="796,-250 796,-268 998,-268 998,-250 796,-250"/>
<polygon fill="#ffffff" stroke="transparent" points="797,-251 797,-267 854,-267 854,-251 797,-251"/>
<text text-anchor="start" x="799" y="-256.2" font-family="Helvetica,sans-Serif" font-size="11.00">&lt; 3</text>
<polygon fill="#ffffff" stroke="transparent" points="854,-251 854,-267 952,-267 952,-251 854,-251"/>
<text text-anchor="start" x="872.5" y="-256.2" font-family="Helvetica,sans-Serif" font-size="11.00">4,167 rows</text>
<polygon fill="#ffffff" stroke="transparent" points="952,-251 952,-267 997,-267 997,-251 952,-251"/>
<text text-anchor="start" x="987" y="-256.2" font-family="Helvetica,sans-Serif" font-size="11.00"> &#160;</text>
<polygon fill="black" stroke="black" points="854,-251 854,-267 854,-267 854,-251 854,-251"/>
<polygon fill="black" stroke="black" points="952,-251 952,-267 952,-267 952,-251 952,-251"/>
</a>
</g>
</g>
<!-- internal_transactions&#45;&gt;withdrawals -->
<g id="edge7" class="edge">
<title>internal_transactions:w&#45;&gt;withdrawals:e</title>
<path fill="none" stroke="black" stroke-dasharray="5,2" d="M780.57,-277.03C599.39,-277.77 546.99,-291.95 361,-264 342.77,-261.26 339.44,-253 321,-253"/>
<polygon fill="black" stroke="black" points="787,-277.02 795.01,-280.6 791,-277.01 795,-277 795,-277 795,-277 791,-277.01 794.99,-273.4 787,-277.02 787,-277.02"/>
<ellipse fill="none" stroke="black" cx="783.8" cy="-277.02" rx="3.2" ry="3.2"/>
</g>
<!-- internal_transactions&#45;&gt;blocks -->
<g id="edge6" class="edge">
<title>internal_transactions:w&#45;&gt;blocks:e</title>
<path fill="none" stroke="black" d="M782.32,-284.04C726.12,-355.39 809.76,-946.2 755,-998 691.4,-1058.17 436.96,-1041.55 361,-998 219.82,-917.06 230.26,-835.43 176,-682 156.44,-626.7 195.16,-421 136.5,-421"/>
<polygon fill="black" stroke="black" points="788.01,-280.88 796.75,-280.15 791.5,-278.94 795,-277 795,-277 795,-277 791.5,-278.94 793.25,-273.85 788.01,-280.88 788.01,-280.88"/>
<ellipse fill="none" stroke="black" cx="785.21" cy="-282.44" rx="3.2" ry="3.2"/>
</g>
<!-- transactions -->
<g id="node6" class="node">
<title>transactions</title>
<g id="a_node6"><a xlink:href="../../tables/transactions.html" xlink:title="transactions" target="_top">
<polygon fill="#ffffff" stroke="transparent" points="488.5,-37 488.5,-95 627.5,-95 627.5,-37 488.5,-37"/>
<polygon fill="#f5f5f5" stroke="transparent" points="489,-73 489,-95 628,-95 628,-73 489,-73"/>
<polygon fill="none" stroke="black" points="489,-73 489,-95 628,-95 628,-73 489,-73"/>
<text text-anchor="start" x="494" y="-82.2" font-family="Helvetica,sans-Serif" font-weight="bold" font-size="11.00">transactions</text>
<text text-anchor="start" x="586" y="-81.2" font-family="Helvetica,sans-Serif" font-size="11.00">[table]</text>
<polygon fill="none" stroke="black" points="489,-55 489,-73 628,-73 628,-55 489,-55"/>
<text text-anchor="start" x="492" y="-61.2" font-family="Helvetica,sans-Serif" font-size="11.00">...</text>
<polygon fill="#ffffff" stroke="transparent" points="489,-37 489,-55 628,-55 628,-37 489,-37"/>
<polygon fill="none" stroke="black" points="489,-37 489,-55 628,-55 628,-37 489,-37"/>
<polygon fill="#ffffff" stroke="transparent" points="490,-38 490,-54 514,-54 514,-38 490,-38"/>
<text text-anchor="start" x="492" y="-43.2" font-family="Helvetica,sans-Serif" font-size="11.00">&lt; 2</text>
<polygon fill="#ffffff" stroke="transparent" points="514,-38 514,-54 603,-54 603,-38 514,-38"/>
<text text-anchor="start" x="516" y="-43.2" font-family="Helvetica,sans-Serif" font-size="11.00">5,902,854 rows</text>
<polygon fill="#ffffff" stroke="transparent" points="603,-38 603,-54 627,-54 627,-38 603,-38"/>
<text text-anchor="start" x="605" y="-43.2" font-family="Helvetica,sans-Serif" font-size="11.00">8 &gt;</text>
<polygon fill="black" stroke="black" points="514,-38 514,-54 514,-54 514,-38 514,-38"/>
<polygon fill="black" stroke="black" points="603,-38 603,-54 603,-54 603,-38 603,-38"/>
</a>
</g>
</g>
<!-- internal_transactions&#45;&gt;transactions -->
<g id="edge8" class="edge">
<title>internal_transactions:w&#45;&gt;transactions:e</title>
<path fill="none" stroke="black" d="M780.53,-275.28C728.99,-260.79 804.22,-158.65 755,-105 715.19,-61.6 687.89,-64 629,-64"/>
<polygon fill="black" stroke="black" points="787.06,-276.05 794.57,-280.57 791.03,-276.53 795,-277 795,-277 795,-277 791.03,-276.53 795.43,-273.43 787.06,-276.05 787.06,-276.05"/>
<ellipse fill="none" stroke="black" cx="783.88" cy="-275.67" rx="3.2" ry="3.2"/>
</g>
<!-- transactions&#45;&gt;withdrawals -->
<g id="edge17" class="edge">
<title>transactions:w&#45;&gt;withdrawals:e</title>
<path fill="none" stroke="black" stroke-dasharray="5,2" d="M473.4,-63.99C423.98,-64 398.4,-65.75 361,-105 314,-154.33 389.14,-253 321,-253"/>
<polygon fill="black" stroke="black" points="480,-63.99 488,-67.6 484,-64 488,-64 488,-64 488,-64 484,-64 488,-60.4 480,-63.99 480,-63.99"/>
<ellipse fill="none" stroke="black" cx="476.8" cy="-63.99" rx="3.2" ry="3.2"/>
</g>
<!-- transactions&#45;&gt;blocks -->
<g id="edge16" class="edge">
<title>transactions:w&#45;&gt;blocks:e</title>
<path fill="none" stroke="black" d="M473.47,-63.94C338.92,-62.77 267.84,-47.46 176,-152 136.12,-197.39 196.92,-421 136.5,-421"/>
<polygon fill="black" stroke="black" points="480,-63.96 487.98,-67.6 484,-63.98 488,-64 488,-64 488,-64 484,-63.98 488.02,-60.4 480,-63.96 480,-63.96"/>
<ellipse fill="none" stroke="black" cx="476.8" cy="-63.95" rx="3.2" ry="3.2"/>
</g>
<!-- internal_transactions_bkp -->
<g id="node7" class="node">
<title>internal_transactions_bkp</title>
<g id="a_node7"><a xlink:href="../../tables/internal_transactions_bkp.html" xlink:title="internal_transactions_bkp" target="_top">
<polygon fill="#ffffff" stroke="transparent" points="440,-116 440,-174 676,-174 676,-116 440,-116"/>
<polygon fill="#f5f5f5" stroke="transparent" points="440,-152 440,-174 676,-174 676,-152 440,-152"/>
<polygon fill="none" stroke="black" points="440,-152 440,-174 676,-174 676,-152 440,-152"/>
<text text-anchor="start" x="445" y="-161.2" font-family="Helvetica,sans-Serif" font-weight="bold" font-size="11.00">internal_transactions_bkp</text>
<text text-anchor="start" x="634" y="-160.2" font-family="Helvetica,sans-Serif" font-size="11.00">[table]</text>
<polygon fill="none" stroke="black" points="440,-134 440,-152 676,-152 676,-134 440,-134"/>
<text text-anchor="start" x="443" y="-140.2" font-family="Helvetica,sans-Serif" font-size="11.00">...</text>
<polygon fill="#ffffff" stroke="transparent" points="440,-116 440,-134 676,-134 676,-116 440,-116"/>
<polygon fill="none" stroke="black" points="440,-116 440,-134 676,-134 676,-116 440,-116"/>
<polygon fill="#ffffff" stroke="transparent" points="441,-117 441,-133 505,-133 505,-117 441,-117"/>
<text text-anchor="start" x="443" y="-122.2" font-family="Helvetica,sans-Serif" font-size="11.00">&lt; 3</text>
<polygon fill="#ffffff" stroke="transparent" points="505,-117 505,-133 624,-133 624,-117 505,-117"/>
<text text-anchor="start" x="527" y="-122.2" font-family="Helvetica,sans-Serif" font-size="11.00">524,719 rows</text>
<polygon fill="#ffffff" stroke="transparent" points="624,-117 624,-133 675,-133 675,-117 624,-117"/>
<text text-anchor="start" x="665" y="-122.2" font-family="Helvetica,sans-Serif" font-size="11.00"> &#160;</text>
<polygon fill="black" stroke="black" points="505,-117 505,-133 505,-133 505,-117 505,-117"/>
<polygon fill="black" stroke="black" points="624,-117 624,-133 624,-133 624,-117 624,-117"/>
</a>
</g>
</g>
<!-- internal_transactions_bkp&#45;&gt;withdrawals -->
<g id="edge9" class="edge">
<title>internal_transactions_bkp:w&#45;&gt;withdrawals:e</title>
<path fill="none" stroke="black" stroke-dasharray="5,2" d="M424.74,-139.25C396.58,-134.12 385.59,-148.32 361,-172 335.74,-196.32 356.06,-240 321,-253"/>
<polygon fill="black" stroke="black" points="431.26,-140.97 438.08,-146.48 435.13,-141.98 439,-143 439,-143 439,-143 435.13,-141.98 439.92,-139.52 431.26,-140.97 431.26,-140.97"/>
<ellipse fill="none" stroke="black" cx="428.17" cy="-140.15" rx="3.2" ry="3.2"/>
</g>
<!-- internal_transactions_bkp&#45;&gt;withdrawals -->
<g id="edge10" class="edge">
<title>internal_transactions_bkp:w&#45;&gt;withdrawals:e</title>
<path fill="none" stroke="black" stroke-dasharray="5,2" d="M424.36,-143.82C396.48,-147.25 385.48,-161.42 361,-185 335.74,-209.32 356.06,-253 321,-253"/>
<polygon fill="black" stroke="black" points="431.01,-143.45 439.2,-146.59 435.01,-143.22 439,-143 439,-143 439,-143 435.01,-143.22 438.8,-139.41 431.01,-143.45 431.01,-143.45"/>
<ellipse fill="none" stroke="black" cx="427.82" cy="-143.63" rx="3.2" ry="3.2"/>
</g>
<!-- internal_transactions_bkp&#45;&gt;withdrawals -->
<g id="edge11" class="edge">
<title>internal_transactions_bkp:w&#45;&gt;withdrawals:e</title>
<path fill="none" stroke="black" stroke-dasharray="5,2" d="M425.12,-148.14C396.68,-160 385.71,-174.21 361,-198 335.74,-222.32 356.06,-266 321,-253"/>
<polygon fill="black" stroke="black" points="431.5,-145.78 440.25,-146.38 435.25,-144.39 439,-143 439,-143 439,-143 435.25,-144.39 437.75,-139.62 431.5,-145.78 431.5,-145.78"/>
<ellipse fill="none" stroke="black" cx="428.5" cy="-146.89" rx="3.2" ry="3.2"/>
</g>
<!-- internal_transactions_bkp_latest -->
<g id="node8" class="node">
<title>internal_transactions_bkp_latest</title>
<g id="a_node8"><a xlink:href="../../tables/internal_transactions_bkp_latest.html" xlink:title="internal_transactions_bkp_latest" target="_top">
<polygon fill="#ffffff" stroke="transparent" points="369,-380 369,-908 747,-908 747,-380 369,-380"/>
<polygon fill="#f5f5f5" stroke="transparent" points="371,-884 371,-906 745,-906 745,-884 371,-884"/>
<polygon fill="none" stroke="black" points="371,-884 371,-906 745,-906 745,-884 371,-884"/>
<text text-anchor="start" x="376" y="-893.2" font-family="Helvetica,sans-Serif" font-weight="bold" font-size="11.00">internal_transactions_bkp_latest</text>
<text text-anchor="start" x="703" y="-892.2" font-family="Helvetica,sans-Serif" font-size="11.00">[table]</text>
<polygon fill="none" stroke="black" points="371,-862 371,-884 630,-884 630,-862 371,-862"/>
<text text-anchor="start" x="391" y="-870.2" font-family="Helvetica,sans-Serif" font-size="11.00">call_type</text>
<polygon fill="none" stroke="black" points="630,-862 630,-884 745,-884 745,-862 630,-862"/>
<text text-anchor="start" x="633" y="-870.2" font-family="Helvetica,sans-Serif" font-size="11.00">varchar[255]</text>
<polygon fill="none" stroke="black" points="371,-840 371,-862 630,-862 630,-840 371,-840"/>
<text text-anchor="start" x="391" y="-848.2" font-family="Helvetica,sans-Serif" font-size="11.00">created_contract_code</text>
<polygon fill="none" stroke="black" points="630,-840 630,-862 745,-862 745,-840 630,-840"/>
<text text-anchor="start" x="633" y="-848.2" font-family="Helvetica,sans-Serif" font-size="11.00">bytea[2147483647]</text>
<polygon fill="none" stroke="black" points="371,-818 371,-840 630,-840 630,-818 371,-818"/>
<text text-anchor="start" x="391" y="-826.2" font-family="Helvetica,sans-Serif" font-size="11.00">error</text>
<polygon fill="none" stroke="black" points="630,-818 630,-840 745,-840 745,-818 630,-818"/>
<text text-anchor="start" x="633" y="-826.2" font-family="Helvetica,sans-Serif" font-size="11.00">varchar[255]</text>
<polygon fill="none" stroke="black" points="371,-796 371,-818 630,-818 630,-796 371,-796"/>
<text text-anchor="start" x="391" y="-804.2" font-family="Helvetica,sans-Serif" font-size="11.00">gas</text>
<polygon fill="none" stroke="black" points="630,-796 630,-818 745,-818 745,-796 630,-796"/>
<text text-anchor="start" x="633" y="-804.2" font-family="Helvetica,sans-Serif" font-size="11.00">numeric[100]</text>
<polygon fill="none" stroke="black" points="371,-774 371,-796 630,-796 630,-774 371,-774"/>
<text text-anchor="start" x="391" y="-782.2" font-family="Helvetica,sans-Serif" font-size="11.00">gas_used</text>
<polygon fill="none" stroke="black" points="630,-774 630,-796 745,-796 745,-774 630,-774"/>
<text text-anchor="start" x="633" y="-782.2" font-family="Helvetica,sans-Serif" font-size="11.00">numeric[100]</text>
<polygon fill="none" stroke="black" points="371,-752 371,-774 630,-774 630,-752 371,-752"/>
<image xlink:href="../../images/foreignKeys.png" width="11px" height="12px" preserveAspectRatio="xMinYMin meet" x="376" y="-769"/>
<text text-anchor="start" x="391" y="-760.2" font-family="Helvetica,sans-Serif" font-size="11.00">index</text>
<polygon fill="none" stroke="black" points="630,-752 630,-774 745,-774 745,-752 630,-752"/>
<text text-anchor="start" x="633" y="-760.2" font-family="Helvetica,sans-Serif" font-size="11.00">int4[10]</text>
<polygon fill="none" stroke="black" points="371,-730 371,-752 630,-752 630,-730 371,-730"/>
<text text-anchor="start" x="391" y="-738.2" font-family="Helvetica,sans-Serif" font-size="11.00">init</text>
<polygon fill="none" stroke="black" points="630,-730 630,-752 745,-752 745,-730 630,-730"/>
<text text-anchor="start" x="633" y="-738.2" font-family="Helvetica,sans-Serif" font-size="11.00">bytea[2147483647]</text>
<polygon fill="none" stroke="black" points="371,-708 371,-730 630,-730 630,-708 371,-708"/>
<text text-anchor="start" x="391" y="-716.2" font-family="Helvetica,sans-Serif" font-size="11.00">input</text>
<polygon fill="none" stroke="black" points="630,-708 630,-730 745,-730 745,-708 630,-708"/>
<text text-anchor="start" x="633" y="-716.2" font-family="Helvetica,sans-Serif" font-size="11.00">bytea[2147483647]</text>
<polygon fill="none" stroke="black" points="371,-686 371,-708 630,-708 630,-686 371,-686"/>
<text text-anchor="start" x="391" y="-694.2" font-family="Helvetica,sans-Serif" font-size="11.00">output</text>
<polygon fill="none" stroke="black" points="630,-686 630,-708 745,-708 745,-686 630,-686"/>
<text text-anchor="start" x="633" y="-694.2" font-family="Helvetica,sans-Serif" font-size="11.00">bytea[2147483647]</text>
<polygon fill="none" stroke="black" points="371,-664 371,-686 630,-686 630,-664 371,-664"/>
<text text-anchor="start" x="391" y="-672.2" font-family="Helvetica,sans-Serif" font-size="11.00">trace_address</text>
<polygon fill="none" stroke="black" points="630,-664 630,-686 745,-686 745,-664 630,-664"/>
<text text-anchor="start" x="633" y="-672.2" font-family="Helvetica,sans-Serif" font-size="11.00">_int4[10]</text>
<polygon fill="none" stroke="black" points="371,-642 371,-664 630,-664 630,-642 371,-642"/>
<text text-anchor="start" x="391" y="-650.2" font-family="Helvetica,sans-Serif" font-size="11.00">type</text>
<polygon fill="none" stroke="black" points="630,-642 630,-664 745,-664 745,-642 630,-642"/>
<text text-anchor="start" x="633" y="-650.2" font-family="Helvetica,sans-Serif" font-size="11.00">varchar[255]</text>
<polygon fill="none" stroke="black" points="371,-620 371,-642 630,-642 630,-620 371,-620"/>
<text text-anchor="start" x="391" y="-628.2" font-family="Helvetica,sans-Serif" font-size="11.00">value</text>
<polygon fill="none" stroke="black" points="630,-620 630,-642 745,-642 745,-620 630,-620"/>
<text text-anchor="start" x="633" y="-628.2" font-family="Helvetica,sans-Serif" font-size="11.00">numeric[100]</text>
<polygon fill="none" stroke="black" points="371,-598 371,-620 630,-620 630,-598 371,-598"/>
<text text-anchor="start" x="391" y="-606.2" font-family="Helvetica,sans-Serif" font-size="11.00">inserted_at</text>
<polygon fill="none" stroke="black" points="630,-598 630,-620 745,-620 745,-598 630,-598"/>
<text text-anchor="start" x="633" y="-606.2" font-family="Helvetica,sans-Serif" font-size="11.00">timestamp[29,6]</text>
<polygon fill="none" stroke="black" points="371,-576 371,-598 630,-598 630,-576 371,-576"/>
<text text-anchor="start" x="391" y="-584.2" font-family="Helvetica,sans-Serif" font-size="11.00">updated_at</text>
<polygon fill="none" stroke="black" points="630,-576 630,-598 745,-598 745,-576 630,-576"/>
<text text-anchor="start" x="633" y="-584.2" font-family="Helvetica,sans-Serif" font-size="11.00">timestamp[29,6]</text>
<polygon fill="none" stroke="black" points="371,-554 371,-576 630,-576 630,-554 371,-554"/>
<text text-anchor="start" x="391" y="-562.2" font-family="Helvetica,sans-Serif" font-size="11.00">created_contract_address_hash</text>
<polygon fill="none" stroke="black" points="630,-554 630,-576 745,-576 745,-554 630,-554"/>
<text text-anchor="start" x="633" y="-562.2" font-family="Helvetica,sans-Serif" font-size="11.00">bytea[2147483647]</text>
<polygon fill="none" stroke="black" points="371,-532 371,-554 630,-554 630,-532 371,-532"/>
<text text-anchor="start" x="391" y="-540.2" font-family="Helvetica,sans-Serif" font-size="11.00">from_address_hash</text>
<polygon fill="none" stroke="black" points="630,-532 630,-554 745,-554 745,-532 630,-532"/>
<text text-anchor="start" x="633" y="-540.2" font-family="Helvetica,sans-Serif" font-size="11.00">bytea[2147483647]</text>
<polygon fill="none" stroke="black" points="371,-510 371,-532 630,-532 630,-510 371,-510"/>
<text text-anchor="start" x="391" y="-518.2" font-family="Helvetica,sans-Serif" font-size="11.00">to_address_hash</text>
<polygon fill="none" stroke="black" points="630,-510 630,-532 745,-532 745,-510 630,-510"/>
<text text-anchor="start" x="633" y="-518.2" font-family="Helvetica,sans-Serif" font-size="11.00">bytea[2147483647]</text>
<polygon fill="none" stroke="black" points="371,-488 371,-510 630,-510 630,-488 371,-488"/>
<text text-anchor="start" x="391" y="-496.2" font-family="Helvetica,sans-Serif" font-size="11.00">transaction_hash</text>
<polygon fill="none" stroke="black" points="630,-488 630,-510 745,-510 745,-488 630,-488"/>
<text text-anchor="start" x="633" y="-496.2" font-family="Helvetica,sans-Serif" font-size="11.00">bytea[2147483647]</text>
<polygon fill="none" stroke="black" points="371,-466 371,-488 630,-488 630,-466 371,-466"/>
<text text-anchor="start" x="391" y="-474.2" font-family="Helvetica,sans-Serif" font-size="11.00">block_number</text>
<polygon fill="none" stroke="black" points="630,-466 630,-488 745,-488 745,-466 630,-466"/>
<text text-anchor="start" x="633" y="-474.2" font-family="Helvetica,sans-Serif" font-size="11.00">int4[10]</text>
<polygon fill="none" stroke="black" points="371,-444 371,-466 630,-466 630,-444 371,-444"/>
<image xlink:href="../../images/foreignKeys.png" width="11px" height="12px" preserveAspectRatio="xMinYMin meet" x="376" y="-461"/>
<text text-anchor="start" x="391" y="-452.2" font-family="Helvetica,sans-Serif" font-size="11.00">transaction_index</text>
<polygon fill="none" stroke="black" points="630,-444 630,-466 745,-466 745,-444 630,-444"/>
<text text-anchor="start" x="633" y="-452.2" font-family="Helvetica,sans-Serif" font-size="11.00">int4[10]</text>
<polygon fill="none" stroke="black" points="371,-422 371,-444 630,-444 630,-422 371,-422"/>
<text text-anchor="start" x="391" y="-430.2" font-family="Helvetica,sans-Serif" font-size="11.00">block_hash</text>
<polygon fill="none" stroke="black" points="630,-422 630,-444 745,-444 745,-422 630,-422"/>
<text text-anchor="start" x="633" y="-430.2" font-family="Helvetica,sans-Serif" font-size="11.00">bytea[2147483647]</text>
<polygon fill="none" stroke="black" points="371,-400 371,-422 630,-422 630,-400 371,-400"/>
<image xlink:href="../../images/foreignKeys.png" width="11px" height="12px" preserveAspectRatio="xMinYMin meet" x="376" y="-417"/>
<text text-anchor="start" x="391" y="-408.2" font-family="Helvetica,sans-Serif" font-size="11.00">block_index</text>
<polygon fill="none" stroke="black" points="630,-400 630,-422 745,-422 745,-400 630,-400"/>
<text text-anchor="start" x="633" y="-408.2" font-family="Helvetica,sans-Serif" font-size="11.00">int4[10]</text>
<polygon fill="#ffffff" stroke="transparent" points="371,-382 371,-400 745,-400 745,-382 371,-382"/>
<polygon fill="none" stroke="black" points="371,-382 371,-400 745,-400 745,-382 371,-382"/>
<polygon fill="#ffffff" stroke="transparent" points="372,-383 372,-399 478,-399 478,-383 372,-383"/>
<text text-anchor="start" x="374" y="-388.2" font-family="Helvetica,sans-Serif" font-size="11.00">&lt; 3</text>
<polygon fill="#ffffff" stroke="transparent" points="478,-383 478,-399 639,-399 639,-383 478,-383"/>
<text text-anchor="start" x="521" y="-388.2" font-family="Helvetica,sans-Serif" font-size="11.00">626,527 rows</text>
<polygon fill="#ffffff" stroke="transparent" points="639,-383 639,-399 744,-399 744,-383 639,-383"/>
<text text-anchor="start" x="722" y="-388.2" font-family="Helvetica,sans-Serif" font-size="11.00">0 &gt;</text>
<polygon fill="black" stroke="black" points="478,-383 478,-399 478,-399 478,-383 478,-383"/>
<polygon fill="black" stroke="black" points="639,-383 639,-399 639,-399 639,-383 639,-383"/>
<polygon fill="none" stroke="black" stroke-width="2" points="370,-381 370,-907 746,-907 746,-381 370,-381"/>
</a>
</g>
</g>
<!-- internal_transactions_bkp_latest&#45;&gt;withdrawals -->
<g id="edge12" class="edge">
<title>internal_transactions_bkp_latest:w&#45;&gt;withdrawals:e</title>
<path fill="none" stroke="black" stroke-dasharray="5,2" d="M355.75,-408.26C310.75,-387.28 388.78,-253 321,-253"/>
<polygon fill="black" stroke="black" points="362.14,-409.49 369.32,-414.54 366.07,-410.24 370,-411 370,-411 370,-411 366.07,-410.24 370.68,-407.46 362.14,-409.49 362.14,-409.49"/>
<ellipse fill="none" stroke="black" cx="359" cy="-408.88" rx="3.2" ry="3.2"/>
</g>
<!-- internal_transactions_bkp_latest&#45;&gt;withdrawals -->
<g id="edge13" class="edge">
<title>internal_transactions_bkp_latest:w&#45;&gt;withdrawals:e</title>
<path fill="none" stroke="black" stroke-dasharray="5,2" d="M355.86,-759.74C272.26,-716.31 429.52,-253 321,-253"/>
<polygon fill="black" stroke="black" points="362.2,-761.2 369.19,-766.51 366.1,-762.1 370,-763 370,-763 370,-763 366.1,-762.1 370.81,-759.49 362.2,-761.2 362.2,-761.2"/>
<ellipse fill="none" stroke="black" cx="359.09" cy="-760.49" rx="3.2" ry="3.2"/>
</g>
<!-- internal_transactions_bkp_latest&#45;&gt;withdrawals -->
<g id="edge14" class="edge">
<title>internal_transactions_bkp_latest:w&#45;&gt;withdrawals:e</title>
<path fill="none" stroke="black" stroke-dasharray="5,2" d="M355.63,-452.87C293.22,-431.28 407.79,-253 321,-253"/>
<polygon fill="black" stroke="black" points="362.09,-453.83 369.47,-458.56 366.04,-454.41 370,-455 370,-455 370,-455 366.04,-454.41 370.53,-451.44 362.09,-453.83 362.09,-453.83"/>
<ellipse fill="none" stroke="black" cx="358.92" cy="-453.36" rx="3.2" ry="3.2"/>
</g>
<!-- token_instances -->
<g id="node9" class="node">
<title>token_instances</title>
<g id="a_node9"><a xlink:href="../../tables/token_instances.html" xlink:title="token_instances" target="_top">
<polygon fill="#ffffff" stroke="transparent" points="475.5,-301 475.5,-359 640.5,-359 640.5,-301 475.5,-301"/>
<polygon fill="#f5f5f5" stroke="transparent" points="476,-337 476,-359 641,-359 641,-337 476,-337"/>
<polygon fill="none" stroke="black" points="476,-337 476,-359 641,-359 641,-337 476,-337"/>
<text text-anchor="start" x="481" y="-346.2" font-family="Helvetica,sans-Serif" font-weight="bold" font-size="11.00">token_instances</text>
<text text-anchor="start" x="599" y="-345.2" font-family="Helvetica,sans-Serif" font-size="11.00">[table]</text>
<polygon fill="none" stroke="black" points="476,-319 476,-337 641,-337 641,-319 476,-319"/>
<text text-anchor="start" x="479" y="-325.2" font-family="Helvetica,sans-Serif" font-size="11.00">...</text>
<polygon fill="#ffffff" stroke="transparent" points="476,-301 476,-319 641,-319 641,-301 476,-301"/>
<polygon fill="none" stroke="black" points="476,-301 476,-319 641,-319 641,-301 476,-301"/>
<polygon fill="#ffffff" stroke="transparent" points="477,-302 477,-318 517,-318 517,-302 477,-302"/>
<text text-anchor="start" x="479" y="-307.2" font-family="Helvetica,sans-Serif" font-size="11.00">&lt; 2</text>
<polygon fill="#ffffff" stroke="transparent" points="517,-302 517,-318 612,-318 612,-302 517,-302"/>
<text text-anchor="start" x="527" y="-307.2" font-family="Helvetica,sans-Serif" font-size="11.00">137,721 rows</text>
<polygon fill="#ffffff" stroke="transparent" points="612,-302 612,-318 640,-318 640,-302 612,-302"/>
<text text-anchor="start" x="630" y="-307.2" font-family="Helvetica,sans-Serif" font-size="11.00"> &#160;</text>
<polygon fill="black" stroke="black" points="517,-302 517,-318 517,-318 517,-302 517,-302"/>
<polygon fill="black" stroke="black" points="612,-302 612,-318 612,-318 612,-302 612,-302"/>
</a>
</g>
</g>
<!-- token_instances&#45;&gt;withdrawals -->
<g id="edge15" class="edge">
<title>token_instances:w&#45;&gt;withdrawals:e</title>
<path fill="none" stroke="black" stroke-dasharray="5,2" d="M460.58,-327.62C418.26,-325.2 403.14,-311.4 361,-287 340.81,-275.31 344.33,-253 321,-253"/>
<polygon fill="black" stroke="black" points="467,-327.79 474.9,-331.6 471,-327.89 475,-328 475,-328 475,-328 471,-327.89 475.1,-324.4 467,-327.79 467,-327.79"/>
<ellipse fill="none" stroke="black" cx="463.8" cy="-327.7" rx="3.2" ry="3.2"/>
</g>
</g>
</svg>
