<?xml version="1.0" encoding="UTF-8" standalone="no"?>
<!DOCTYPE svg PUBLIC "-//W3C//DTD SVG 1.1//EN"
 "http://www.w3.org/Graphics/SVG/1.1/DTD/svg11.dtd">
<!-- Generated by graphviz version 2.43.0 (0)
 -->
<!-- Title: oneDegreeRelationshipsDiagramImplied Pages: 1 -->
<svg width="578pt" height="593pt"
 viewBox="0.00 0.00 578.00 593.00" xmlns="http://www.w3.org/2000/svg" xmlns:xlink="http://www.w3.org/1999/xlink">
<g id="graph0" class="graph" transform="scale(1 1) rotate(0) translate(4 589)">
<title>oneDegreeRelationshipsDiagramImplied</title>
<polygon fill="#ffffff" stroke="transparent" points="-4,4 -4,-589 574,-589 574,4 -4,4"/>
<text text-anchor="middle" x="79.5" y="-7.2" font-family="Helvetica,sans-Serif" font-size="11.00">Generated by SchemaSpy</text>
<!-- internal_transactions_bkp -->
<g id="node1" class="node">
<title>internal_transactions_bkp</title>
<g id="a_node1"><a xlink:href="../../tables/internal_transactions_bkp.html" xlink:title="internal_transactions_bkp" target="_top">
<polygon fill="#ffffff" stroke="transparent" points="193,-53 193,-581 562,-581 562,-53 193,-53"/>
<polygon fill="#f5f5f5" stroke="transparent" points="195.5,-557 195.5,-579 560.5,-579 560.5,-557 195.5,-557"/>
<polygon fill="none" stroke="black" points="195.5,-557 195.5,-579 560.5,-579 560.5,-557 195.5,-557"/>
<text text-anchor="start" x="200.5" y="-566.2" font-family="Helvetica,sans-Serif" font-weight="bold" font-size="11.00">internal_transactions_bkp</text>
<text text-anchor="start" x="518.5" y="-565.2" font-family="Helvetica,sans-Serif" font-size="11.00">[table]</text>
<polygon fill="none" stroke="black" points="195.5,-535 195.5,-557 445.5,-557 445.5,-535 195.5,-535"/>
<text text-anchor="start" x="215.5" y="-543.2" font-family="Helvetica,sans-Serif" font-size="11.00">call_type</text>
<polygon fill="none" stroke="black" points="445.5,-535 445.5,-557 560.5,-557 560.5,-535 445.5,-535"/>
<text text-anchor="start" x="448.5" y="-543.2" font-family="Helvetica,sans-Serif" font-size="11.00">varchar[255]</text>
<polygon fill="none" stroke="black" points="195.5,-513 195.5,-535 445.5,-535 445.5,-513 195.5,-513"/>
<text text-anchor="start" x="215.5" y="-521.2" font-family="Helvetica,sans-Serif" font-size="11.00">created_contract_code</text>
<polygon fill="none" stroke="black" points="445.5,-513 445.5,-535 560.5,-535 560.5,-513 445.5,-513"/>
<text text-anchor="start" x="448.5" y="-521.2" font-family="Helvetica,sans-Serif" font-size="11.00">bytea[2147483647]</text>
<polygon fill="none" stroke="black" points="195.5,-491 195.5,-513 445.5,-513 445.5,-491 195.5,-491"/>
<text text-anchor="start" x="215.5" y="-499.2" font-family="Helvetica,sans-Serif" font-size="11.00">error</text>
<polygon fill="none" stroke="black" points="445.5,-491 445.5,-513 560.5,-513 560.5,-491 445.5,-491"/>
<text text-anchor="start" x="448.5" y="-499.2" font-family="Helvetica,sans-Serif" font-size="11.00">varchar[255]</text>
<polygon fill="none" stroke="black" points="195.5,-469 195.5,-491 445.5,-491 445.5,-469 195.5,-469"/>
<text text-anchor="start" x="215.5" y="-477.2" font-family="Helvetica,sans-Serif" font-size="11.00">gas</text>
<polygon fill="none" stroke="black" points="445.5,-469 445.5,-491 560.5,-491 560.5,-469 445.5,-469"/>
<text text-anchor="start" x="448.5" y="-477.2" font-family="Helvetica,sans-Serif" font-size="11.00">numeric[100]</text>
<polygon fill="none" stroke="black" points="195.5,-447 195.5,-469 445.5,-469 445.5,-447 195.5,-447"/>
<text text-anchor="start" x="215.5" y="-455.2" font-family="Helvetica,sans-Serif" font-size="11.00">gas_used</text>
<polygon fill="none" stroke="black" points="445.5,-447 445.5,-469 560.5,-469 560.5,-447 445.5,-447"/>
<text text-anchor="start" x="448.5" y="-455.2" font-family="Helvetica,sans-Serif" font-size="11.00">numeric[100]</text>
<polygon fill="none" stroke="black" points="195.5,-425 195.5,-447 445.5,-447 445.5,-425 195.5,-425"/>
<image xlink:href="../../images/foreignKeys.png" width="11px" height="12px" preserveAspectRatio="xMinYMin meet" x="200.5" y="-442"/>
<text text-anchor="start" x="215.5" y="-433.2" font-family="Helvetica,sans-Serif" font-size="11.00">index</text>
<polygon fill="none" stroke="black" points="445.5,-425 445.5,-447 560.5,-447 560.5,-425 445.5,-425"/>
<text text-anchor="start" x="448.5" y="-433.2" font-family="Helvetica,sans-Serif" font-size="11.00">int4[10]</text>
<polygon fill="none" stroke="black" points="195.5,-403 195.5,-425 445.5,-425 445.5,-403 195.5,-403"/>
<text text-anchor="start" x="215.5" y="-411.2" font-family="Helvetica,sans-Serif" font-size="11.00">init</text>
<polygon fill="none" stroke="black" points="445.5,-403 445.5,-425 560.5,-425 560.5,-403 445.5,-403"/>
<text text-anchor="start" x="448.5" y="-411.2" font-family="Helvetica,sans-Serif" font-size="11.00">bytea[2147483647]</text>
<polygon fill="none" stroke="black" points="195.5,-381 195.5,-403 445.5,-403 445.5,-381 195.5,-381"/>
<text text-anchor="start" x="215.5" y="-389.2" font-family="Helvetica,sans-Serif" font-size="11.00">input</text>
<polygon fill="none" stroke="black" points="445.5,-381 445.5,-403 560.5,-403 560.5,-381 445.5,-381"/>
<text text-anchor="start" x="448.5" y="-389.2" font-family="Helvetica,sans-Serif" font-size="11.00">bytea[2147483647]</text>
<polygon fill="none" stroke="black" points="195.5,-359 195.5,-381 445.5,-381 445.5,-359 195.5,-359"/>
<text text-anchor="start" x="215.5" y="-367.2" font-family="Helvetica,sans-Serif" font-size="11.00">output</text>
<polygon fill="none" stroke="black" points="445.5,-359 445.5,-381 560.5,-381 560.5,-359 445.5,-359"/>
<text text-anchor="start" x="448.5" y="-367.2" font-family="Helvetica,sans-Serif" font-size="11.00">bytea[2147483647]</text>
<polygon fill="none" stroke="black" points="195.5,-337 195.5,-359 445.5,-359 445.5,-337 195.5,-337"/>
<text text-anchor="start" x="215.5" y="-345.2" font-family="Helvetica,sans-Serif" font-size="11.00">trace_address</text>
<polygon fill="none" stroke="black" points="445.5,-337 445.5,-359 560.5,-359 560.5,-337 445.5,-337"/>
<text text-anchor="start" x="448.5" y="-345.2" font-family="Helvetica,sans-Serif" font-size="11.00">_int4[10]</text>
<polygon fill="none" stroke="black" points="195.5,-315 195.5,-337 445.5,-337 445.5,-315 195.5,-315"/>
<text text-anchor="start" x="215.5" y="-323.2" font-family="Helvetica,sans-Serif" font-size="11.00">type</text>
<polygon fill="none" stroke="black" points="445.5,-315 445.5,-337 560.5,-337 560.5,-315 445.5,-315"/>
<text text-anchor="start" x="448.5" y="-323.2" font-family="Helvetica,sans-Serif" font-size="11.00">varchar[255]</text>
<polygon fill="none" stroke="black" points="195.5,-293 195.5,-315 445.5,-315 445.5,-293 195.5,-293"/>
<text text-anchor="start" x="215.5" y="-301.2" font-family="Helvetica,sans-Serif" font-size="11.00">value</text>
<polygon fill="none" stroke="black" points="445.5,-293 445.5,-315 560.5,-315 560.5,-293 445.5,-293"/>
<text text-anchor="start" x="448.5" y="-301.2" font-family="Helvetica,sans-Serif" font-size="11.00">numeric[100]</text>
<polygon fill="none" stroke="black" points="195.5,-271 195.5,-293 445.5,-293 445.5,-271 195.5,-271"/>
<text text-anchor="start" x="215.5" y="-279.2" font-family="Helvetica,sans-Serif" font-size="11.00">inserted_at</text>
<polygon fill="none" stroke="black" points="445.5,-271 445.5,-293 560.5,-293 560.5,-271 445.5,-271"/>
<text text-anchor="start" x="448.5" y="-279.2" font-family="Helvetica,sans-Serif" font-size="11.00">timestamp[29,6]</text>
<polygon fill="none" stroke="black" points="195.5,-249 195.5,-271 445.5,-271 445.5,-249 195.5,-249"/>
<text text-anchor="start" x="215.5" y="-257.2" font-family="Helvetica,sans-Serif" font-size="11.00">updated_at</text>
<polygon fill="none" stroke="black" points="445.5,-249 445.5,-271 560.5,-271 560.5,-249 445.5,-249"/>
<text text-anchor="start" x="448.5" y="-257.2" font-family="Helvetica,sans-Serif" font-size="11.00">timestamp[29,6]</text>
<polygon fill="none" stroke="black" points="195.5,-227 195.5,-249 445.5,-249 445.5,-227 195.5,-227"/>
<text text-anchor="start" x="215.5" y="-235.2" font-family="Helvetica,sans-Serif" font-size="11.00">created_contract_address_hash</text>
<polygon fill="none" stroke="black" points="445.5,-227 445.5,-249 560.5,-249 560.5,-227 445.5,-227"/>
<text text-anchor="start" x="448.5" y="-235.2" font-family="Helvetica,sans-Serif" font-size="11.00">bytea[2147483647]</text>
<polygon fill="none" stroke="black" points="195.5,-205 195.5,-227 445.5,-227 445.5,-205 195.5,-205"/>
<text text-anchor="start" x="215.5" y="-213.2" font-family="Helvetica,sans-Serif" font-size="11.00">from_address_hash</text>
<polygon fill="none" stroke="black" points="445.5,-205 445.5,-227 560.5,-227 560.5,-205 445.5,-205"/>
<text text-anchor="start" x="448.5" y="-213.2" font-family="Helvetica,sans-Serif" font-size="11.00">bytea[2147483647]</text>
<polygon fill="none" stroke="black" points="195.5,-183 195.5,-205 445.5,-205 445.5,-183 195.5,-183"/>
<text text-anchor="start" x="215.5" y="-191.2" font-family="Helvetica,sans-Serif" font-size="11.00">to_address_hash</text>
<polygon fill="none" stroke="black" points="445.5,-183 445.5,-205 560.5,-205 560.5,-183 445.5,-183"/>
<text text-anchor="start" x="448.5" y="-191.2" font-family="Helvetica,sans-Serif" font-size="11.00">bytea[2147483647]</text>
<polygon fill="none" stroke="black" points="195.5,-161 195.5,-183 445.5,-183 445.5,-161 195.5,-161"/>
<text text-anchor="start" x="215.5" y="-169.2" font-family="Helvetica,sans-Serif" font-size="11.00">transaction_hash</text>
<polygon fill="none" stroke="black" points="445.5,-161 445.5,-183 560.5,-183 560.5,-161 445.5,-161"/>
<text text-anchor="start" x="448.5" y="-169.2" font-family="Helvetica,sans-Serif" font-size="11.00">bytea[2147483647]</text>
<polygon fill="none" stroke="black" points="195.5,-139 195.5,-161 445.5,-161 445.5,-139 195.5,-139"/>
<text text-anchor="start" x="215.5" y="-147.2" font-family="Helvetica,sans-Serif" font-size="11.00">block_number</text>
<polygon fill="none" stroke="black" points="445.5,-139 445.5,-161 560.5,-161 560.5,-139 445.5,-139"/>
<text text-anchor="start" x="448.5" y="-147.2" font-family="Helvetica,sans-Serif" font-size="11.00">int4[10]</text>
<polygon fill="none" stroke="black" points="195.5,-117 195.5,-139 445.5,-139 445.5,-117 195.5,-117"/>
<image xlink:href="../../images/foreignKeys.png" width="11px" height="12px" preserveAspectRatio="xMinYMin meet" x="200.5" y="-134"/>
<text text-anchor="start" x="215.5" y="-125.2" font-family="Helvetica,sans-Serif" font-size="11.00">transaction_index</text>
<polygon fill="none" stroke="black" points="445.5,-117 445.5,-139 560.5,-139 560.5,-117 445.5,-117"/>
<text text-anchor="start" x="448.5" y="-125.2" font-family="Helvetica,sans-Serif" font-size="11.00">int4[10]</text>
<polygon fill="none" stroke="black" points="195.5,-95 195.5,-117 445.5,-117 445.5,-95 195.5,-95"/>
<text text-anchor="start" x="215.5" y="-103.2" font-family="Helvetica,sans-Serif" font-size="11.00">block_hash</text>
<polygon fill="none" stroke="black" points="445.5,-95 445.5,-117 560.5,-117 560.5,-95 445.5,-95"/>
<text text-anchor="start" x="448.5" y="-103.2" font-family="Helvetica,sans-Serif" font-size="11.00">bytea[2147483647]</text>
<polygon fill="none" stroke="black" points="195.5,-73 195.5,-95 445.5,-95 445.5,-73 195.5,-73"/>
<image xlink:href="../../images/foreignKeys.png" width="11px" height="12px" preserveAspectRatio="xMinYMin meet" x="200.5" y="-90"/>
<text text-anchor="start" x="215.5" y="-81.2" font-family="Helvetica,sans-Serif" font-size="11.00">block_index</text>
<polygon fill="none" stroke="black" points="445.5,-73 445.5,-95 560.5,-95 560.5,-73 445.5,-73"/>
<text text-anchor="start" x="448.5" y="-81.2" font-family="Helvetica,sans-Serif" font-size="11.00">int4[10]</text>
<polygon fill="#ffffff" stroke="transparent" points="195.5,-55 195.5,-73 560.5,-73 560.5,-55 195.5,-55"/>
<polygon fill="none" stroke="black" points="195.5,-55 195.5,-73 560.5,-73 560.5,-55 195.5,-55"/>
<polygon fill="#ffffff" stroke="transparent" points="196.5,-56 196.5,-72 299.5,-72 299.5,-56 196.5,-56"/>
<text text-anchor="start" x="198.5" y="-61.2" font-family="Helvetica,sans-Serif" font-size="11.00">&lt; 3</text>
<polygon fill="#ffffff" stroke="transparent" points="299.5,-56 299.5,-72 457.5,-72 457.5,-56 299.5,-56"/>
<text text-anchor="start" x="341" y="-61.2" font-family="Helvetica,sans-Serif" font-size="11.00">524,719 rows</text>
<polygon fill="#ffffff" stroke="transparent" points="457.5,-56 457.5,-72 559.5,-72 559.5,-56 457.5,-56"/>
<text text-anchor="start" x="537.5" y="-61.2" font-family="Helvetica,sans-Serif" font-size="11.00">0 &gt;</text>
<polygon fill="black" stroke="black" points="299.5,-56 299.5,-72 299.5,-72 299.5,-56 299.5,-56"/>
<polygon fill="black" stroke="black" points="457.5,-56 457.5,-72 457.5,-72 457.5,-56 457.5,-56"/>
<polygon fill="none" stroke="black" stroke-width="2" points="194,-54 194,-580 561,-580 561,-54 194,-54"/>
</a>
</g>
</g>
<!-- withdrawals -->
<g id="node2" class="node">
<title>withdrawals</title>
<g id="a_node2"><a xlink:href="../../tables/withdrawals.html" xlink:title="withdrawals" target="_top">
<polygon fill="#ffffff" stroke="transparent" points="8,-37 8,-161 144,-161 144,-37 8,-37"/>
<polygon fill="#f5f5f5" stroke="transparent" points="8,-139 8,-161 144,-161 144,-139 8,-139"/>
<polygon fill="none" stroke="black" points="8,-139 8,-161 144,-161 144,-139 8,-139"/>
<text text-anchor="start" x="13" y="-148.2" font-family="Helvetica,sans-Serif" font-weight="bold" font-size="11.00">withdrawals</text>
<text text-anchor="start" x="102" y="-147.2" font-family="Helvetica,sans-Serif" font-size="11.00">[table]</text>
<polygon fill="none" stroke="black" points="8,-117 8,-139 144,-139 144,-117 8,-117"/>
<image xlink:href="../../images/primaryKeys.png" width="11px" height="12px" preserveAspectRatio="xMinYMin meet" x="13" y="-134"/>
<text text-anchor="start" x="30" y="-125.2" font-family="Helvetica,sans-Serif" font-size="11.00">index</text>
<polygon fill="#ffffff" stroke="transparent" points="8,-95 8,-117 144,-117 144,-95 8,-95"/>
<polygon fill="none" stroke="black" points="8,-95 8,-117 144,-117 144,-95 8,-95"/>
<text text-anchor="start" x="30" y="-103.2" font-family="Helvetica,sans-Serif" font-size="11.00">address_hash</text>
<polygon fill="#ffffff" stroke="transparent" points="8,-73 8,-95 144,-95 144,-73 8,-73"/>
<polygon fill="none" stroke="black" points="8,-73 8,-95 144,-95 144,-73 8,-73"/>
<image xlink:href="../../images/foreignKeys.png" width="11px" height="12px" preserveAspectRatio="xMinYMin meet" x="13" y="-90"/>
<text text-anchor="start" x="30" y="-81.2" font-family="Helvetica,sans-Serif" font-size="11.00">block_hash</text>
<polygon fill="none" stroke="black" points="8,-55 8,-73 144,-73 144,-55 8,-55"/>
<text text-anchor="start" x="11" y="-61.2" font-family="Helvetica,sans-Serif" font-size="11.00">...</text>
<polygon fill="#ffffff" stroke="transparent" points="8,-37 8,-55 144,-55 144,-37 8,-37"/>
<polygon fill="none" stroke="black" points="8,-37 8,-55 144,-55 144,-37 8,-37"/>
<polygon fill="#ffffff" stroke="transparent" points="9,-38 9,-54 33,-54 33,-38 9,-38"/>
<text text-anchor="start" x="11" y="-43.2" font-family="Helvetica,sans-Serif" font-size="11.00">&lt; 1</text>
<polygon fill="#ffffff" stroke="transparent" points="33,-38 33,-54 112,-54 112,-38 33,-38"/>
<text text-anchor="start" x="35" y="-43.2" font-family="Helvetica,sans-Serif" font-size="11.00">552,138 rows</text>
<polygon fill="#ffffff" stroke="transparent" points="112,-38 112,-54 143,-54 143,-38 112,-38"/>
<text text-anchor="start" x="114" y="-43.2" font-family="Helvetica,sans-Serif" font-size="11.00">13 &gt;</text>
<polygon fill="black" stroke="black" points="33,-38 33,-54 33,-54 33,-38 33,-38"/>
<polygon fill="black" stroke="black" points="112,-38 112,-54 112,-54 112,-38 112,-38"/>
</a>
</g>
</g>
<!-- internal_transactions_bkp&#45;&gt;withdrawals -->
<g id="edge1" class="edge">
<title>internal_transactions_bkp:w&#45;&gt;withdrawals:e</title>
<path fill="none" stroke="black" stroke-dasharray="5,2" d="M180.72,-88.71C167.27,-100.06 168.46,-128 145,-128"/>
<polygon fill="black" stroke="black" points="186.93,-86.59 195.66,-87.41 190.71,-85.29 194.5,-84 194.5,-84 194.5,-84 190.71,-85.29 193.34,-80.59 186.93,-86.59 186.93,-86.59"/>
<ellipse fill="none" stroke="black" cx="183.9" cy="-87.62" rx="3.2" ry="3.2"/>
</g>
<!-- internal_transactions_bkp&#45;&gt;withdrawals -->
<g id="edge2" class="edge">
<title>internal_transactions_bkp:w&#45;&gt;withdrawals:e</title>
<path fill="none" stroke="black" stroke-dasharray="5,2" d="M179.89,-434.63C73.09,-412.41 278.23,-128 145,-128"/>
<polygon fill="black" stroke="black" points="186.54,-435.25 194.16,-439.58 190.52,-435.63 194.5,-436 194.5,-436 194.5,-436 190.52,-435.63 194.84,-432.42 186.54,-435.25 186.54,-435.25"/>
<ellipse fill="none" stroke="black" cx="183.35" cy="-434.95" rx="3.2" ry="3.2"/>
</g>
<!-- internal_transactions_bkp&#45;&gt;withdrawals -->
<g id="edge3" class="edge">
<title>internal_transactions_bkp:w&#45;&gt;withdrawals:e</title>
<path fill="none" stroke="black" stroke-dasharray="5,2" d="M179.84,-128C168.41,-128 161.16,-128 145,-128"/>
<polygon fill="black" stroke="black" points="186.5,-128 194.5,-131.6 190.5,-128 194.5,-128 194.5,-128 194.5,-128 190.5,-128 194.5,-124.4 186.5,-128 186.5,-128"/>
<ellipse fill="none" stroke="black" cx="183.3" cy="-128" rx="3.2" ry="3.2"/>
</g>
</g>
</svg>
