<?xml version="1.0" encoding="UTF-8" standalone="no"?>
<!DOCTYPE svg PUBLIC "-//W3C//DTD SVG 1.1//EN"
 "http://www.w3.org/Graphics/SVG/1.1/DTD/svg11.dtd">
<!-- Generated by graphviz version 9.0.0 (20230911.1827)
 -->
<!-- Title: oneDegreeRelationshipsDiagramImplied Pages: 1 -->
<svg width="933pt" height="607pt"
 viewBox="0.00 0.00 933.00 606.89" xmlns="http://www.w3.org/2000/svg" xmlns:xlink="http://www.w3.org/1999/xlink">
<g id="graph0" class="graph" transform="scale(1 1) rotate(0) translate(4 602.89)">
<title>oneDegreeRelationshipsDiagramImplied</title>
<polygon fill="#ffffff" stroke="none" points="-4,4 -4,-602.89 929,-602.89 929,4 -4,4"/>
<text text-anchor="middle" x="71.38" y="-5.55" font-family="Helvetica,sans-Serif" font-size="11.00">Generated by SchemaSpy</text>
<!-- internal_transactions -->
<g id="node1" class="node">
<title>internal_transactions</title>
<g id="a_node1"><a xlink:href="../../tables/internal_transactions.html" xlink:title="internal_transactions" target="_top">
<polygon fill="#ffffff" stroke="none" points="610,-66.89 610,-594.89 917,-594.89 917,-66.89 610,-66.89"/>
<polygon fill="#f5f5f5" stroke="none" points="612,-570.89 612,-592.89 915,-592.89 915,-570.89 612,-570.89"/>
<polygon fill="none" stroke="black" points="612,-570.89 612,-592.89 915,-592.89 915,-570.89 612,-570.89"/>
<text text-anchor="start" x="617" y="-578.44" font-family="Helvetica,sans-Serif" font-weight="bold" font-size="11.00">internal_transactions</text>
<text text-anchor="start" x="880.75" y="-577.44" font-family="Helvetica,sans-Serif" font-size="11.00">[table]</text>
<polygon fill="none" stroke="black" points="612,-548.89 612,-570.89 817,-570.89 817,-548.89 612,-548.89"/>
<text text-anchor="start" x="632" y="-555.44" font-family="Helvetica,sans-Serif" font-size="11.00">call_type</text>
<polygon fill="none" stroke="black" points="817,-548.89 817,-570.89 915,-570.89 915,-548.89 817,-548.89"/>
<text text-anchor="start" x="820" y="-555.44" font-family="Helvetica,sans-Serif" font-size="11.00">varchar[255]</text>
<polygon fill="none" stroke="black" points="612,-526.89 612,-548.89 817,-548.89 817,-526.89 612,-526.89"/>
<text text-anchor="start" x="632" y="-533.44" font-family="Helvetica,sans-Serif" font-size="11.00">created_contract_code</text>
<polygon fill="none" stroke="black" points="817,-526.89 817,-548.89 915,-548.89 915,-526.89 817,-526.89"/>
<text text-anchor="start" x="819.88" y="-533.44" font-family="Helvetica,sans-Serif" font-size="11.00">bytea[2147483647]</text>
<polygon fill="none" stroke="black" points="612,-504.89 612,-526.89 817,-526.89 817,-504.89 612,-504.89"/>
<text text-anchor="start" x="632" y="-511.44" font-family="Helvetica,sans-Serif" font-size="11.00">error</text>
<polygon fill="none" stroke="black" points="817,-504.89 817,-526.89 915,-526.89 915,-504.89 817,-504.89"/>
<text text-anchor="start" x="820" y="-511.44" font-family="Helvetica,sans-Serif" font-size="11.00">varchar[255]</text>
<polygon fill="none" stroke="black" points="612,-482.89 612,-504.89 817,-504.89 817,-482.89 612,-482.89"/>
<text text-anchor="start" x="632" y="-489.44" font-family="Helvetica,sans-Serif" font-size="11.00">gas</text>
<polygon fill="none" stroke="black" points="817,-482.89 817,-504.89 915,-504.89 915,-482.89 817,-482.89"/>
<text text-anchor="start" x="820" y="-489.44" font-family="Helvetica,sans-Serif" font-size="11.00">numeric[100]</text>
<polygon fill="none" stroke="black" points="612,-460.89 612,-482.89 817,-482.89 817,-460.89 612,-460.89"/>
<text text-anchor="start" x="632" y="-467.44" font-family="Helvetica,sans-Serif" font-size="11.00">gas_used</text>
<polygon fill="none" stroke="black" points="817,-460.89 817,-482.89 915,-482.89 915,-460.89 817,-460.89"/>
<text text-anchor="start" x="820" y="-467.44" font-family="Helvetica,sans-Serif" font-size="11.00">numeric[100]</text>
<polygon fill="#ffffff" stroke="none" points="612,-438.89 612,-460.89 817,-460.89 817,-438.89 612,-438.89"/>
<polygon fill="none" stroke="black" points="612,-438.89 612,-460.89 817,-460.89 817,-438.89 612,-438.89"/>
<image xlink:href="../../images/foreignKeys.png" width="11px" height="12px" preserveAspectRatio="xMinYMin meet" x="617" y="-455.888"/>
<text text-anchor="start" x="632" y="-445.44" font-family="Helvetica,sans-Serif" font-size="11.00">index</text>
<polygon fill="none" stroke="black" points="817,-438.89 817,-460.89 915,-460.89 915,-438.89 817,-438.89"/>
<text text-anchor="start" x="820" y="-445.44" font-family="Helvetica,sans-Serif" font-size="11.00">int4[10]</text>
<polygon fill="none" stroke="black" points="612,-416.89 612,-438.89 817,-438.89 817,-416.89 612,-416.89"/>
<text text-anchor="start" x="632" y="-423.44" font-family="Helvetica,sans-Serif" font-size="11.00">init</text>
<polygon fill="none" stroke="black" points="817,-416.89 817,-438.89 915,-438.89 915,-416.89 817,-416.89"/>
<text text-anchor="start" x="819.88" y="-423.44" font-family="Helvetica,sans-Serif" font-size="11.00">bytea[2147483647]</text>
<polygon fill="none" stroke="black" points="612,-394.89 612,-416.89 817,-416.89 817,-394.89 612,-394.89"/>
<text text-anchor="start" x="632" y="-401.44" font-family="Helvetica,sans-Serif" font-size="11.00">input</text>
<polygon fill="none" stroke="black" points="817,-394.89 817,-416.89 915,-416.89 915,-394.89 817,-394.89"/>
<text text-anchor="start" x="819.88" y="-401.44" font-family="Helvetica,sans-Serif" font-size="11.00">bytea[2147483647]</text>
<polygon fill="none" stroke="black" points="612,-372.89 612,-394.89 817,-394.89 817,-372.89 612,-372.89"/>
<text text-anchor="start" x="632" y="-379.44" font-family="Helvetica,sans-Serif" font-size="11.00">output</text>
<polygon fill="none" stroke="black" points="817,-372.89 817,-394.89 915,-394.89 915,-372.89 817,-372.89"/>
<text text-anchor="start" x="819.88" y="-379.44" font-family="Helvetica,sans-Serif" font-size="11.00">bytea[2147483647]</text>
<polygon fill="none" stroke="black" points="612,-350.89 612,-372.89 817,-372.89 817,-350.89 612,-350.89"/>
<text text-anchor="start" x="632" y="-357.44" font-family="Helvetica,sans-Serif" font-size="11.00">trace_address</text>
<polygon fill="none" stroke="black" points="817,-350.89 817,-372.89 915,-372.89 915,-350.89 817,-350.89"/>
<text text-anchor="start" x="820" y="-357.44" font-family="Helvetica,sans-Serif" font-size="11.00">_int4[10]</text>
<polygon fill="none" stroke="black" points="612,-328.89 612,-350.89 817,-350.89 817,-328.89 612,-328.89"/>
<text text-anchor="start" x="632" y="-335.44" font-family="Helvetica,sans-Serif" font-size="11.00">type</text>
<polygon fill="none" stroke="black" points="817,-328.89 817,-350.89 915,-350.89 915,-328.89 817,-328.89"/>
<text text-anchor="start" x="820" y="-335.44" font-family="Helvetica,sans-Serif" font-size="11.00">varchar[255]</text>
<polygon fill="none" stroke="black" points="612,-306.89 612,-328.89 817,-328.89 817,-306.89 612,-306.89"/>
<text text-anchor="start" x="632" y="-313.44" font-family="Helvetica,sans-Serif" font-size="11.00">value</text>
<polygon fill="none" stroke="black" points="817,-306.89 817,-328.89 915,-328.89 915,-306.89 817,-306.89"/>
<text text-anchor="start" x="820" y="-313.44" font-family="Helvetica,sans-Serif" font-size="11.00">numeric[100]</text>
<polygon fill="none" stroke="black" points="612,-284.89 612,-306.89 817,-306.89 817,-284.89 612,-284.89"/>
<text text-anchor="start" x="632" y="-291.44" font-family="Helvetica,sans-Serif" font-size="11.00">inserted_at</text>
<polygon fill="none" stroke="black" points="817,-284.89 817,-306.89 915,-306.89 915,-284.89 817,-284.89"/>
<text text-anchor="start" x="820" y="-291.44" font-family="Helvetica,sans-Serif" font-size="11.00">timestamp[29,6]</text>
<polygon fill="none" stroke="black" points="612,-262.89 612,-284.89 817,-284.89 817,-262.89 612,-262.89"/>
<text text-anchor="start" x="632" y="-269.44" font-family="Helvetica,sans-Serif" font-size="11.00">updated_at</text>
<polygon fill="none" stroke="black" points="817,-262.89 817,-284.89 915,-284.89 915,-262.89 817,-262.89"/>
<text text-anchor="start" x="820" y="-269.44" font-family="Helvetica,sans-Serif" font-size="11.00">timestamp[29,6]</text>
<polygon fill="#ffffff" stroke="none" points="612,-240.89 612,-262.89 817,-262.89 817,-240.89 612,-240.89"/>
<polygon fill="none" stroke="black" points="612,-240.89 612,-262.89 817,-262.89 817,-240.89 612,-240.89"/>
<text text-anchor="start" x="632" y="-247.44" font-family="Helvetica,sans-Serif" font-size="11.00">created_contract_address_hash</text>
<polygon fill="none" stroke="black" points="817,-240.89 817,-262.89 915,-262.89 915,-240.89 817,-240.89"/>
<text text-anchor="start" x="819.88" y="-247.44" font-family="Helvetica,sans-Serif" font-size="11.00">bytea[2147483647]</text>
<polygon fill="#ffffff" stroke="none" points="612,-218.89 612,-240.89 817,-240.89 817,-218.89 612,-218.89"/>
<polygon fill="none" stroke="black" points="612,-218.89 612,-240.89 817,-240.89 817,-218.89 612,-218.89"/>
<text text-anchor="start" x="632" y="-225.44" font-family="Helvetica,sans-Serif" font-size="11.00">from_address_hash</text>
<polygon fill="none" stroke="black" points="817,-218.89 817,-240.89 915,-240.89 915,-218.89 817,-218.89"/>
<text text-anchor="start" x="819.88" y="-225.44" font-family="Helvetica,sans-Serif" font-size="11.00">bytea[2147483647]</text>
<polygon fill="#ffffff" stroke="none" points="612,-196.89 612,-218.89 817,-218.89 817,-196.89 612,-196.89"/>
<polygon fill="none" stroke="black" points="612,-196.89 612,-218.89 817,-218.89 817,-196.89 612,-196.89"/>
<text text-anchor="start" x="632" y="-203.44" font-family="Helvetica,sans-Serif" font-size="11.00">to_address_hash</text>
<polygon fill="none" stroke="black" points="817,-196.89 817,-218.89 915,-218.89 915,-196.89 817,-196.89"/>
<text text-anchor="start" x="819.88" y="-203.44" font-family="Helvetica,sans-Serif" font-size="11.00">bytea[2147483647]</text>
<polygon fill="#ffffff" stroke="none" points="612,-174.89 612,-196.89 817,-196.89 817,-174.89 612,-174.89"/>
<polygon fill="none" stroke="black" points="612,-174.89 612,-196.89 817,-196.89 817,-174.89 612,-174.89"/>
<image xlink:href="../../images/foreignKeys.png" width="11px" height="12px" preserveAspectRatio="xMinYMin meet" x="617" y="-191.888"/>
<text text-anchor="start" x="632" y="-181.44" font-family="Helvetica,sans-Serif" font-size="11.00">transaction_hash</text>
<polygon fill="none" stroke="black" points="817,-174.89 817,-196.89 915,-196.89 915,-174.89 817,-174.89"/>
<text text-anchor="start" x="819.88" y="-181.44" font-family="Helvetica,sans-Serif" font-size="11.00">bytea[2147483647]</text>
<polygon fill="#ffffff" stroke="none" points="612,-152.89 612,-174.89 817,-174.89 817,-152.89 612,-152.89"/>
<polygon fill="none" stroke="black" points="612,-152.89 612,-174.89 817,-174.89 817,-152.89 612,-152.89"/>
<text text-anchor="start" x="632" y="-159.44" font-family="Helvetica,sans-Serif" font-size="11.00">block_number</text>
<polygon fill="none" stroke="black" points="817,-152.89 817,-174.89 915,-174.89 915,-152.89 817,-152.89"/>
<text text-anchor="start" x="820" y="-159.44" font-family="Helvetica,sans-Serif" font-size="11.00">int4[10]</text>
<polygon fill="#ffffff" stroke="none" points="612,-130.89 612,-152.89 817,-152.89 817,-130.89 612,-130.89"/>
<polygon fill="none" stroke="black" points="612,-130.89 612,-152.89 817,-152.89 817,-130.89 612,-130.89"/>
<image xlink:href="../../images/foreignKeys.png" width="11px" height="12px" preserveAspectRatio="xMinYMin meet" x="617" y="-147.888"/>
<text text-anchor="start" x="632" y="-137.44" font-family="Helvetica,sans-Serif" font-size="11.00">transaction_index</text>
<polygon fill="none" stroke="black" points="817,-130.89 817,-152.89 915,-152.89 915,-130.89 817,-130.89"/>
<text text-anchor="start" x="820" y="-137.44" font-family="Helvetica,sans-Serif" font-size="11.00">int4[10]</text>
<polygon fill="none" stroke="black" points="612,-108.89 612,-130.89 817,-130.89 817,-108.89 612,-108.89"/>
<image xlink:href="../../images/primaryKeys.png" width="11px" height="12px" preserveAspectRatio="xMinYMin meet" x="617" y="-125.888"/>
<text text-anchor="start" x="632" y="-115.44" font-family="Helvetica,sans-Serif" font-size="11.00">block_hash</text>
<polygon fill="none" stroke="black" points="817,-108.89 817,-130.89 915,-130.89 915,-108.89 817,-108.89"/>
<text text-anchor="start" x="819.88" y="-115.44" font-family="Helvetica,sans-Serif" font-size="11.00">bytea[2147483647]</text>
<polygon fill="none" stroke="black" points="612,-86.89 612,-108.89 817,-108.89 817,-86.89 612,-86.89"/>
<image xlink:href="../../images/primaryKeys.png" width="11px" height="12px" preserveAspectRatio="xMinYMin meet" x="617" y="-103.888"/>
<text text-anchor="start" x="632" y="-93.44" font-family="Helvetica,sans-Serif" font-size="11.00">block_index</text>
<polygon fill="none" stroke="black" points="817,-86.89 817,-108.89 915,-108.89 915,-86.89 817,-86.89"/>
<text text-anchor="start" x="820" y="-93.44" font-family="Helvetica,sans-Serif" font-size="11.00">int4[10]</text>
<polygon fill="#ffffff" stroke="none" points="612,-68.89 612,-86.89 719,-86.89 719,-68.89 612,-68.89"/>
<polygon fill="none" stroke="black" points="612,-68.89 612,-86.89 719,-86.89 719,-68.89 612,-68.89"/>
<text text-anchor="start" x="615" y="-73.44" font-family="Helvetica,sans-Serif" font-size="11.00">&lt; 4</text>
<polygon fill="#ffffff" stroke="none" points="719,-68.89 719,-86.89 817,-86.89 817,-68.89 719,-68.89"/>
<polygon fill="none" stroke="black" points="719,-68.89 719,-86.89 817,-86.89 817,-68.89 719,-68.89"/>
<text text-anchor="start" x="808" y="-73.44" font-family="Helvetica,sans-Serif" font-size="11.00"> &#160;</text>
<polygon fill="#ffffff" stroke="none" points="817,-68.89 817,-86.89 915,-86.89 915,-68.89 817,-68.89"/>
<polygon fill="none" stroke="black" points="817,-68.89 817,-86.89 915,-86.89 915,-68.89 817,-68.89"/>
<text text-anchor="start" x="896.25" y="-73.44" font-family="Helvetica,sans-Serif" font-size="11.00">0 &gt;</text>
<polygon fill="none" stroke="black" stroke-width="2" points="611,-67.89 611,-593.89 916,-593.89 916,-67.89 611,-67.89"/>
</a>
</g>
</g>
<!-- blocks -->
<g id="node2" class="node">
<title>blocks</title>
<g id="a_node2"><a xlink:href="../../tables/blocks.html" xlink:title="blocks" target="_top">
<polygon fill="#ffffff" stroke="none" points="8,-118.89 8,-352.89 133,-352.89 133,-118.89 8,-118.89"/>
<polygon fill="#f5f5f5" stroke="none" points="8,-330.89 8,-352.89 133,-352.89 133,-330.89 8,-330.89"/>
<polygon fill="none" stroke="black" points="8,-330.89 8,-352.89 133,-352.89 133,-330.89 8,-330.89"/>
<text text-anchor="start" x="12.75" y="-338.44" font-family="Helvetica,sans-Serif" font-weight="bold" font-size="11.00">blocks</text>
<text text-anchor="start" x="98.75" y="-337.44" font-family="Helvetica,sans-Serif" font-size="11.00">[table]</text>
<polygon fill="#ffffff" stroke="none" points="8,-308.89 8,-330.89 133,-330.89 133,-308.89 8,-308.89"/>
<polygon fill="none" stroke="black" points="8,-308.89 8,-330.89 133,-330.89 133,-308.89 8,-308.89"/>
<text text-anchor="start" x="28" y="-315.44" font-family="Helvetica,sans-Serif" font-size="11.00">consensus</text>
<polygon fill="none" stroke="black" points="8,-286.89 8,-308.89 133,-308.89 133,-286.89 8,-286.89"/>
<image xlink:href="../../images/primaryKeys.png" width="11px" height="12px" preserveAspectRatio="xMinYMin meet" x="13" y="-303.888"/>
<text text-anchor="start" x="28" y="-293.44" font-family="Helvetica,sans-Serif" font-size="11.00">hash</text>
<polygon fill="#ffffff" stroke="none" points="8,-264.89 8,-286.89 133,-286.89 133,-264.89 8,-264.89"/>
<polygon fill="none" stroke="black" points="8,-264.89 8,-286.89 133,-286.89 133,-264.89 8,-264.89"/>
<text text-anchor="start" x="28" y="-271.44" font-family="Helvetica,sans-Serif" font-size="11.00">miner_hash</text>
<polygon fill="#ffffff" stroke="none" points="8,-242.89 8,-264.89 133,-264.89 133,-242.89 8,-242.89"/>
<polygon fill="none" stroke="black" points="8,-242.89 8,-264.89 133,-264.89 133,-242.89 8,-242.89"/>
<text text-anchor="start" x="28" y="-249.44" font-family="Helvetica,sans-Serif" font-size="11.00">number</text>
<polygon fill="#ffffff" stroke="none" points="8,-220.89 8,-242.89 133,-242.89 133,-220.89 8,-220.89"/>
<polygon fill="none" stroke="black" points="8,-220.89 8,-242.89 133,-242.89 133,-220.89 8,-220.89"/>
<text text-anchor="start" x="28" y="-227.44" font-family="Helvetica,sans-Serif" font-size="11.00">parent_hash</text>
<polygon fill="#ffffff" stroke="none" points="8,-198.89 8,-220.89 133,-220.89 133,-198.89 8,-198.89"/>
<polygon fill="none" stroke="black" points="8,-198.89 8,-220.89 133,-220.89 133,-198.89 8,-198.89"/>
<text text-anchor="start" x="28" y="-205.44" font-family="Helvetica,sans-Serif" font-size="11.00">timestamp</text>
<polygon fill="#ffffff" stroke="none" points="8,-176.89 8,-198.89 133,-198.89 133,-176.89 8,-176.89"/>
<polygon fill="none" stroke="black" points="8,-176.89 8,-198.89 133,-198.89 133,-176.89 8,-176.89"/>
<text text-anchor="start" x="28" y="-183.44" font-family="Helvetica,sans-Serif" font-size="11.00">inserted_at</text>
<polygon fill="#ffffff" stroke="none" points="8,-154.89 8,-176.89 133,-176.89 133,-154.89 8,-154.89"/>
<polygon fill="none" stroke="black" points="8,-154.89 8,-176.89 133,-176.89 133,-154.89 8,-154.89"/>
<text text-anchor="start" x="28" y="-161.44" font-family="Helvetica,sans-Serif" font-size="11.00">is_empty</text>
<polygon fill="none" stroke="black" points="8,-136.89 8,-154.89 133,-154.89 133,-136.89 8,-136.89"/>
<text text-anchor="start" x="11" y="-141.44" font-family="Helvetica,sans-Serif" font-size="11.00">...</text>
<polygon fill="#ffffff" stroke="none" points="8,-118.89 8,-136.89 60,-136.89 60,-118.89 8,-118.89"/>
<polygon fill="none" stroke="black" points="8,-118.89 8,-136.89 60,-136.89 60,-118.89 8,-118.89"/>
<text text-anchor="start" x="11" y="-123.44" font-family="Helvetica,sans-Serif" font-size="11.00"> &#160;</text>
<polygon fill="#ffffff" stroke="none" points="60,-118.89 60,-136.89 92,-136.89 92,-118.89 60,-118.89"/>
<polygon fill="none" stroke="black" points="60,-118.89 60,-136.89 92,-136.89 92,-118.89 60,-118.89"/>
<text text-anchor="start" x="83" y="-123.44" font-family="Helvetica,sans-Serif" font-size="11.00"> &#160;</text>
<polygon fill="#ffffff" stroke="none" points="92,-118.89 92,-136.89 133,-136.89 133,-118.89 92,-118.89"/>
<polygon fill="none" stroke="black" points="92,-118.89 92,-136.89 133,-136.89 133,-118.89 92,-118.89"/>
<text text-anchor="start" x="114.25" y="-123.44" font-family="Helvetica,sans-Serif" font-size="11.00">9 &gt;</text>
</a>
</g>
</g>
<!-- internal_transactions&#45;&gt;blocks -->
<g id="edge1" class="edge">
<title>internal_transactions:w&#45;&gt;blocks:e</title>
<path fill="none" stroke="black" d="M595.79,-114.17C585.44,-102.66 589.59,-76.92 569,-66.89 474.3,-20.76 427.67,-22.81 332,-66.89 209.32,-123.41 269.58,-297.89 134.5,-297.89"/>
<polygon fill="black" stroke="black" points="602.73,-116.87 608.88,-123.12 606.77,-118.44 609.88,-119.65 609.88,-119.65 609.88,-119.65 606.77,-118.44 611.49,-116.41 602.73,-116.87"/>
<ellipse fill="none" stroke="black" cx="598.15" cy="-115.09" rx="3.2" ry="3.2"/>
</g>
<!-- withdrawals -->
<g id="node3" class="node">
<title>withdrawals</title>
<g id="a_node3"><a xlink:href="../../tables/withdrawals.html" xlink:title="withdrawals" target="_top">
<polygon fill="#ffffff" stroke="none" points="182,-321.89 182,-445.89 291,-445.89 291,-321.89 182,-321.89"/>
<polygon fill="#f5f5f5" stroke="none" points="182,-423.89 182,-445.89 291,-445.89 291,-423.89 182,-423.89"/>
<polygon fill="none" stroke="black" points="182,-423.89 182,-445.89 291,-445.89 291,-423.89 182,-423.89"/>
<text text-anchor="start" x="187" y="-431.44" font-family="Helvetica,sans-Serif" font-weight="bold" font-size="11.00">withdrawals</text>
<text text-anchor="start" x="256.75" y="-430.44" font-family="Helvetica,sans-Serif" font-size="11.00">[table]</text>
<polygon fill="none" stroke="black" points="182,-401.89 182,-423.89 291,-423.89 291,-401.89 182,-401.89"/>
<image xlink:href="../../images/primaryKeys.png" width="11px" height="12px" preserveAspectRatio="xMinYMin meet" x="187" y="-418.888"/>
<text text-anchor="start" x="202" y="-408.44" font-family="Helvetica,sans-Serif" font-size="11.00">index</text>
<polygon fill="#ffffff" stroke="none" points="182,-379.89 182,-401.89 291,-401.89 291,-379.89 182,-379.89"/>
<polygon fill="none" stroke="black" points="182,-379.89 182,-401.89 291,-401.89 291,-379.89 182,-379.89"/>
<text text-anchor="start" x="202" y="-386.44" font-family="Helvetica,sans-Serif" font-size="11.00">address_hash</text>
<polygon fill="#ffffff" stroke="none" points="182,-357.89 182,-379.89 291,-379.89 291,-357.89 182,-357.89"/>
<polygon fill="none" stroke="black" points="182,-357.89 182,-379.89 291,-379.89 291,-357.89 182,-357.89"/>
<image xlink:href="../../images/foreignKeys.png" width="11px" height="12px" preserveAspectRatio="xMinYMin meet" x="187" y="-374.888"/>
<text text-anchor="start" x="202" y="-364.44" font-family="Helvetica,sans-Serif" font-size="11.00">block_hash</text>
<polygon fill="none" stroke="black" points="182,-339.89 182,-357.89 291,-357.89 291,-339.89 182,-339.89"/>
<text text-anchor="start" x="185" y="-344.44" font-family="Helvetica,sans-Serif" font-size="11.00">...</text>
<polygon fill="#ffffff" stroke="none" points="182,-321.89 182,-339.89 230,-339.89 230,-321.89 182,-321.89"/>
<polygon fill="none" stroke="black" points="182,-321.89 182,-339.89 230,-339.89 230,-321.89 182,-321.89"/>
<text text-anchor="start" x="185" y="-326.44" font-family="Helvetica,sans-Serif" font-size="11.00">&lt; 1</text>
<polygon fill="#ffffff" stroke="none" points="230,-321.89 230,-339.89 256,-339.89 256,-321.89 230,-321.89"/>
<polygon fill="none" stroke="black" points="230,-321.89 230,-339.89 256,-339.89 256,-321.89 230,-321.89"/>
<text text-anchor="start" x="247" y="-326.44" font-family="Helvetica,sans-Serif" font-size="11.00"> &#160;</text>
<polygon fill="#ffffff" stroke="none" points="256,-321.89 256,-339.89 291,-339.89 291,-321.89 256,-321.89"/>
<polygon fill="none" stroke="black" points="256,-321.89 256,-339.89 291,-339.89 291,-321.89 256,-321.89"/>
<text text-anchor="start" x="272.25" y="-326.44" font-family="Helvetica,sans-Serif" font-size="11.00">5 &gt;</text>
</a>
</g>
</g>
<!-- internal_transactions&#45;&gt;withdrawals -->
<g id="edge2" class="edge">
<title>internal_transactions:w&#45;&gt;withdrawals:e</title>
<path fill="none" stroke="black" stroke-dasharray="5,2" d="M596.01,-455.4C585.67,-466.49 589.21,-491.28 569,-500.89 473.87,-546.12 420.43,-558.12 332,-500.89 296.01,-477.59 335.37,-412.89 292.5,-412.89"/>
<polygon fill="black" stroke="black" points="602.71,-452.85 611.47,-453.37 606.76,-451.31 609.87,-450.13 609.87,-450.13 609.87,-450.13 606.76,-451.31 608.91,-446.64 602.71,-452.85"/>
<ellipse fill="none" stroke="black" cx="598.11" cy="-454.6" rx="3.2" ry="3.2"/>
</g>
<!-- internal_transactions&#45;&gt;withdrawals -->
<g id="edge4" class="edge">
<title>internal_transactions:w&#45;&gt;withdrawals:e</title>
<path fill="none" stroke="black" stroke-dasharray="5,2" d="M596.01,-136.38C585.67,-125.29 589.21,-100.5 569,-90.89 521.44,-68.27 371.44,-55.99 332,-90.89 278.01,-138.66 364.59,-412.89 292.5,-412.89"/>
<polygon fill="black" stroke="black" points="602.71,-138.93 608.91,-145.13 606.76,-140.47 609.87,-141.65 609.87,-141.65 609.87,-141.65 606.76,-140.47 611.47,-138.4 602.71,-138.93"/>
<ellipse fill="none" stroke="black" cx="598.11" cy="-137.18" rx="3.2" ry="3.2"/>
</g>
<!-- transactions -->
<g id="node4" class="node">
<title>transactions</title>
<g id="a_node4"><a xlink:href="../../tables/transactions.html" xlink:title="transactions" target="_top">
<polygon fill="#ffffff" stroke="none" points="340,-101.89 340,-489.89 561,-489.89 561,-101.89 340,-101.89"/>
<polygon fill="#f5f5f5" stroke="none" points="340,-467.89 340,-489.89 561,-489.89 561,-467.89 340,-467.89"/>
<polygon fill="none" stroke="black" points="340,-467.89 340,-489.89 561,-489.89 561,-467.89 340,-467.89"/>
<text text-anchor="start" x="345" y="-475.44" font-family="Helvetica,sans-Serif" font-weight="bold" font-size="11.00">transactions</text>
<text text-anchor="start" x="526.75" y="-474.44" font-family="Helvetica,sans-Serif" font-size="11.00">[table]</text>
<polygon fill="#ffffff" stroke="none" points="340,-445.89 340,-467.89 561,-467.89 561,-445.89 340,-445.89"/>
<polygon fill="none" stroke="black" points="340,-445.89 340,-467.89 561,-467.89 561,-445.89 340,-445.89"/>
<text text-anchor="start" x="360" y="-452.44" font-family="Helvetica,sans-Serif" font-size="11.00">error</text>
<polygon fill="none" stroke="black" points="340,-423.89 340,-445.89 561,-445.89 561,-423.89 340,-423.89"/>
<image xlink:href="../../images/primaryKeys.png" width="11px" height="12px" preserveAspectRatio="xMinYMin meet" x="345" y="-440.888"/>
<text text-anchor="start" x="360" y="-430.44" font-family="Helvetica,sans-Serif" font-size="11.00">hash</text>
<polygon fill="#ffffff" stroke="none" points="340,-401.89 340,-423.89 561,-423.89 561,-401.89 340,-401.89"/>
<polygon fill="none" stroke="black" points="340,-401.89 340,-423.89 561,-423.89 561,-401.89 340,-401.89"/>
<image xlink:href="../../images/foreignKeys.png" width="11px" height="12px" preserveAspectRatio="xMinYMin meet" x="345" y="-418.888"/>
<text text-anchor="start" x="360" y="-408.44" font-family="Helvetica,sans-Serif" font-size="11.00">index</text>
<polygon fill="#ffffff" stroke="none" points="340,-379.89 340,-401.89 561,-401.89 561,-379.89 340,-379.89"/>
<polygon fill="none" stroke="black" points="340,-379.89 340,-401.89 561,-401.89 561,-379.89 340,-379.89"/>
<text text-anchor="start" x="360" y="-386.44" font-family="Helvetica,sans-Serif" font-size="11.00">nonce</text>
<polygon fill="#ffffff" stroke="none" points="340,-357.89 340,-379.89 561,-379.89 561,-357.89 340,-357.89"/>
<polygon fill="none" stroke="black" points="340,-357.89 340,-379.89 561,-379.89 561,-357.89 340,-357.89"/>
<text text-anchor="start" x="360" y="-364.44" font-family="Helvetica,sans-Serif" font-size="11.00">status</text>
<polygon fill="#ffffff" stroke="none" points="340,-335.89 340,-357.89 561,-357.89 561,-335.89 340,-335.89"/>
<polygon fill="none" stroke="black" points="340,-335.89 340,-357.89 561,-357.89 561,-335.89 340,-335.89"/>
<text text-anchor="start" x="360" y="-342.44" font-family="Helvetica,sans-Serif" font-size="11.00">inserted_at</text>
<polygon fill="#ffffff" stroke="none" points="340,-313.89 340,-335.89 561,-335.89 561,-313.89 340,-313.89"/>
<polygon fill="none" stroke="black" points="340,-313.89 340,-335.89 561,-335.89 561,-313.89 340,-313.89"/>
<text text-anchor="start" x="360" y="-320.44" font-family="Helvetica,sans-Serif" font-size="11.00">updated_at</text>
<polygon fill="#ffffff" stroke="none" points="340,-291.89 340,-313.89 561,-313.89 561,-291.89 340,-291.89"/>
<polygon fill="none" stroke="black" points="340,-291.89 340,-313.89 561,-313.89 561,-291.89 340,-291.89"/>
<image xlink:href="../../images/foreignKeys.png" width="11px" height="12px" preserveAspectRatio="xMinYMin meet" x="345" y="-308.888"/>
<text text-anchor="start" x="360" y="-298.44" font-family="Helvetica,sans-Serif" font-size="11.00">block_hash</text>
<polygon fill="#ffffff" stroke="none" points="340,-269.89 340,-291.89 561,-291.89 561,-269.89 340,-269.89"/>
<polygon fill="none" stroke="black" points="340,-269.89 340,-291.89 561,-291.89 561,-269.89 340,-269.89"/>
<text text-anchor="start" x="360" y="-276.44" font-family="Helvetica,sans-Serif" font-size="11.00">block_number</text>
<polygon fill="#ffffff" stroke="none" points="340,-247.89 340,-269.89 561,-269.89 561,-247.89 340,-247.89"/>
<polygon fill="none" stroke="black" points="340,-247.89 340,-269.89 561,-269.89 561,-247.89 340,-247.89"/>
<text text-anchor="start" x="360" y="-254.44" font-family="Helvetica,sans-Serif" font-size="11.00">from_address_hash</text>
<polygon fill="#ffffff" stroke="none" points="340,-225.89 340,-247.89 561,-247.89 561,-225.89 340,-225.89"/>
<polygon fill="none" stroke="black" points="340,-225.89 340,-247.89 561,-247.89 561,-225.89 340,-225.89"/>
<text text-anchor="start" x="360" y="-232.44" font-family="Helvetica,sans-Serif" font-size="11.00">to_address_hash</text>
<polygon fill="#ffffff" stroke="none" points="340,-203.89 340,-225.89 561,-225.89 561,-203.89 340,-203.89"/>
<polygon fill="none" stroke="black" points="340,-203.89 340,-225.89 561,-225.89 561,-203.89 340,-203.89"/>
<text text-anchor="start" x="360" y="-210.44" font-family="Helvetica,sans-Serif" font-size="11.00">created_contract_address_hash</text>
<polygon fill="#ffffff" stroke="none" points="340,-181.89 340,-203.89 561,-203.89 561,-181.89 340,-181.89"/>
<polygon fill="none" stroke="black" points="340,-181.89 340,-203.89 561,-203.89 561,-181.89 340,-181.89"/>
<text text-anchor="start" x="360" y="-188.44" font-family="Helvetica,sans-Serif" font-size="11.00">created_contract_code_indexed_at</text>
<polygon fill="#ffffff" stroke="none" points="340,-159.89 340,-181.89 561,-181.89 561,-159.89 340,-159.89"/>
<polygon fill="none" stroke="black" points="340,-159.89 340,-181.89 561,-181.89 561,-159.89 340,-159.89"/>
<text text-anchor="start" x="360" y="-166.44" font-family="Helvetica,sans-Serif" font-size="11.00">block_timestamp</text>
<polygon fill="#ffffff" stroke="none" points="340,-137.89 340,-159.89 561,-159.89 561,-137.89 340,-137.89"/>
<polygon fill="none" stroke="black" points="340,-137.89 340,-159.89 561,-159.89 561,-137.89 340,-137.89"/>
<text text-anchor="start" x="360" y="-144.44" font-family="Helvetica,sans-Serif" font-size="11.00">block_consensus</text>
<polygon fill="none" stroke="black" points="340,-119.89 340,-137.89 561,-137.89 561,-119.89 340,-119.89"/>
<text text-anchor="start" x="343" y="-124.44" font-family="Helvetica,sans-Serif" font-size="11.00">...</text>
<polygon fill="#ffffff" stroke="none" points="340,-101.89 340,-119.89 444,-119.89 444,-101.89 340,-101.89"/>
<polygon fill="none" stroke="black" points="340,-101.89 340,-119.89 444,-119.89 444,-101.89 340,-101.89"/>
<text text-anchor="start" x="343" y="-106.44" font-family="Helvetica,sans-Serif" font-size="11.00">&lt; 2</text>
<polygon fill="#ffffff" stroke="none" points="444,-101.89 444,-119.89 498,-119.89 498,-101.89 444,-101.89"/>
<polygon fill="none" stroke="black" points="444,-101.89 444,-119.89 498,-119.89 498,-101.89 444,-101.89"/>
<text text-anchor="start" x="489" y="-106.44" font-family="Helvetica,sans-Serif" font-size="11.00"> &#160;</text>
<polygon fill="#ffffff" stroke="none" points="498,-101.89 498,-119.89 561,-119.89 561,-101.89 498,-101.89"/>
<polygon fill="none" stroke="black" points="498,-101.89 498,-119.89 561,-119.89 561,-101.89 498,-101.89"/>
<text text-anchor="start" x="542.25" y="-106.44" font-family="Helvetica,sans-Serif" font-size="11.00">5 &gt;</text>
</a>
</g>
</g>
<!-- internal_transactions&#45;&gt;transactions -->
<g id="edge3" class="edge">
<title>internal_transactions:w&#45;&gt;transactions:e</title>
<path fill="none" stroke="black" d="M595.01,-187.89C515.7,-211.46 669.26,-434.89 562.5,-434.89"/>
<polygon fill="black" stroke="black" points="602.23,-186.96 610.63,-189.5 606.53,-186.4 609.84,-185.97 609.84,-185.97 609.84,-185.97 606.53,-186.4 609.71,-182.36 602.23,-186.96"/>
<ellipse fill="none" stroke="black" cx="597.36" cy="-187.59" rx="3.2" ry="3.2"/>
</g>
<!-- withdrawals&#45;&gt;blocks -->
<g id="edge7" class="edge">
<title>withdrawals:w&#45;&gt;blocks:e</title>
<path fill="none" stroke="black" d="M165.93,-362.83C151.24,-345.67 165.34,-297.89 134.5,-297.89"/>
<polygon fill="black" stroke="black" points="172.8,-365.69 178.81,-372.08 176.81,-367.35 179.88,-368.63 179.88,-368.63 179.88,-368.63 176.81,-367.35 181.57,-365.44 172.8,-365.69"/>
<ellipse fill="none" stroke="black" cx="168.26" cy="-363.8" rx="3.2" ry="3.2"/>
</g>
<!-- transactions&#45;&gt;blocks -->
<g id="edge5" class="edge">
<title>transactions:w&#45;&gt;blocks:e</title>
<path fill="none" stroke="black" d="M322.74,-302.84C244.82,-302.3 219.7,-297.89 134.5,-297.89"/>
<polygon fill="black" stroke="black" points="330.17,-302.86 338.15,-306.49 334.5,-302.87 337.83,-302.89 337.83,-302.89 337.83,-302.89 334.5,-302.87 338.18,-299.29 330.17,-302.86"/>
<ellipse fill="none" stroke="black" cx="325.25" cy="-302.84" rx="3.2" ry="3.2"/>
</g>
<!-- transactions&#45;&gt;withdrawals -->
<g id="edge6" class="edge">
<title>transactions:w&#45;&gt;withdrawals:e</title>
<path fill="none" stroke="black" stroke-dasharray="5,2" d="M322.89,-412.89C313.36,-412.89 306.56,-412.89 292.5,-412.89"/>
<polygon fill="black" stroke="black" points="330.17,-412.89 338.17,-416.49 334.5,-412.89 337.83,-412.89 337.83,-412.89 337.83,-412.89 334.5,-412.89 338.17,-409.29 330.17,-412.89"/>
<ellipse fill="none" stroke="black" cx="325.25" cy="-412.89" rx="3.2" ry="3.2"/>
</g>
</g>
</svg>
