<?xml version="1.0" encoding="UTF-8" standalone="no"?>
<!DOCTYPE svg PUBLIC "-//W3C//DTD SVG 1.1//EN"
 "http://www.w3.org/Graphics/SVG/1.1/DTD/svg11.dtd">
<!-- Generated by graphviz version 2.43.0 (0)
 -->
<!-- Title: twoDegreesRelationshipsDiagram Pages: 1 -->
<svg width="857pt" height="1051pt"
 viewBox="0.00 0.00 857.00 1051.00" xmlns="http://www.w3.org/2000/svg" xmlns:xlink="http://www.w3.org/1999/xlink">
<g id="graph0" class="graph" transform="scale(1 1) rotate(0) translate(4 1047)">
<title>twoDegreesRelationshipsDiagram</title>
<polygon fill="#ffffff" stroke="transparent" points="-4,4 -4,-1047 853,-1047 853,4 -4,4"/>
<text text-anchor="middle" x="79.5" y="-7.2" font-family="Helvetica,sans-Serif" font-size="11.00">Generated by SchemaSpy</text>
<!-- block_rewards -->
<g id="node1" class="node">
<title>block_rewards</title>
<g id="a_node1"><a xlink:href="../../tables/block_rewards.html" xlink:title="block_rewards" target="_top">
<polygon fill="#ffffff" stroke="transparent" points="210.5,-484 210.5,-542 362.5,-542 362.5,-484 210.5,-484"/>
<polygon fill="#f5f5f5" stroke="transparent" points="210.5,-520 210.5,-542 362.5,-542 362.5,-520 210.5,-520"/>
<polygon fill="none" stroke="black" points="210.5,-520 210.5,-542 362.5,-542 362.5,-520 210.5,-520"/>
<text text-anchor="start" x="215.5" y="-529.2" font-family="Helvetica,sans-Serif" font-weight="bold" font-size="11.00">block_rewards</text>
<text text-anchor="start" x="320.5" y="-528.2" font-family="Helvetica,sans-Serif" font-size="11.00">[table]</text>
<polygon fill="none" stroke="black" points="210.5,-502 210.5,-520 362.5,-520 362.5,-502 210.5,-502"/>
<text text-anchor="start" x="213.5" y="-508.2" font-family="Helvetica,sans-Serif" font-size="11.00">...</text>
<polygon fill="#ffffff" stroke="transparent" points="210.5,-484 210.5,-502 362.5,-502 362.5,-484 210.5,-484"/>
<polygon fill="none" stroke="black" points="210.5,-484 210.5,-502 362.5,-502 362.5,-484 210.5,-484"/>
<polygon fill="#ffffff" stroke="transparent" points="211.5,-485 211.5,-501 269.5,-501 269.5,-485 211.5,-485"/>
<text text-anchor="start" x="213.5" y="-490.2" font-family="Helvetica,sans-Serif" font-size="11.00">&lt; 1</text>
<polygon fill="#ffffff" stroke="transparent" points="269.5,-485 269.5,-501 315.5,-501 315.5,-485 269.5,-485"/>
<text text-anchor="start" x="288.5" y="-490.2" font-family="Helvetica,sans-Serif" font-size="11.00"> &#160;</text>
<polygon fill="#ffffff" stroke="transparent" points="315.5,-485 315.5,-501 361.5,-501 361.5,-485 315.5,-485"/>
<text text-anchor="start" x="351.5" y="-490.2" font-family="Helvetica,sans-Serif" font-size="11.00"> &#160;</text>
<polygon fill="black" stroke="black" points="269.5,-485 269.5,-501 269.5,-501 269.5,-485 269.5,-485"/>
<polygon fill="black" stroke="black" points="315.5,-485 315.5,-501 315.5,-501 315.5,-485 315.5,-485"/>
</a>
</g>
</g>
<!-- blocks -->
<g id="node2" class="node">
<title>blocks</title>
<g id="a_node2"><a xlink:href="../../tables/blocks.html" xlink:title="blocks" target="_top">
<polygon fill="#ffffff" stroke="transparent" points="8,-272 8,-330 101,-330 101,-272 8,-272"/>
<polygon fill="#f5f5f5" stroke="transparent" points="8.5,-308 8.5,-330 101.5,-330 101.5,-308 8.5,-308"/>
<polygon fill="none" stroke="black" points="8.5,-308 8.5,-330 101.5,-330 101.5,-308 8.5,-308"/>
<text text-anchor="start" x="13.5" y="-317.2" font-family="Helvetica,sans-Serif" font-weight="bold" font-size="11.00">blocks</text>
<text text-anchor="start" x="59.5" y="-316.2" font-family="Helvetica,sans-Serif" font-size="11.00">[table]</text>
<polygon fill="none" stroke="black" points="8.5,-290 8.5,-308 101.5,-308 101.5,-290 8.5,-290"/>
<text text-anchor="start" x="11.5" y="-296.2" font-family="Helvetica,sans-Serif" font-size="11.00">...</text>
<polygon fill="#ffffff" stroke="transparent" points="8.5,-272 8.5,-290 101.5,-290 101.5,-272 8.5,-272"/>
<polygon fill="none" stroke="black" points="8.5,-272 8.5,-290 101.5,-290 101.5,-272 8.5,-272"/>
<polygon fill="#ffffff" stroke="transparent" points="9.5,-273 9.5,-289 36.5,-289 36.5,-273 9.5,-273"/>
<text text-anchor="start" x="11.5" y="-278.2" font-family="Helvetica,sans-Serif" font-size="11.00"> &#160;</text>
<polygon fill="#ffffff" stroke="transparent" points="36.5,-273 36.5,-289 62.5,-289 62.5,-273 36.5,-273"/>
<text text-anchor="start" x="45.5" y="-278.2" font-family="Helvetica,sans-Serif" font-size="11.00"> &#160;</text>
<polygon fill="#ffffff" stroke="transparent" points="62.5,-273 62.5,-289 100.5,-289 100.5,-273 62.5,-273"/>
<text text-anchor="start" x="78.5" y="-278.2" font-family="Helvetica,sans-Serif" font-size="11.00">9 &gt;</text>
<polygon fill="black" stroke="black" points="36.5,-273 36.5,-289 36.5,-289 36.5,-273 36.5,-273"/>
<polygon fill="black" stroke="black" points="62.5,-273 62.5,-289 62.5,-289 62.5,-273 62.5,-273"/>
</a>
</g>
</g>
<!-- block_rewards&#45;&gt;blocks -->
<g id="edge1" class="edge">
<title>block_rewards:w&#45;&gt;blocks:e</title>
<path fill="none" stroke="black" d="M194.72,-509.83C117.95,-497.43 78.74,-390.02 63.41,-334.28"/>
<polygon fill="black" stroke="black" points="201.53,-510.37 209.21,-514.59 205.51,-510.68 209.5,-511 209.5,-511 209.5,-511 205.51,-510.68 209.79,-507.41 201.53,-510.37 201.53,-510.37"/>
<ellipse fill="none" stroke="black" cx="198.34" cy="-510.11" rx="3.2" ry="3.2"/>
</g>
<!-- block_second_degree_relations -->
<g id="node3" class="node">
<title>block_second_degree_relations</title>
<g id="a_node3"><a xlink:href="../../tables/block_second_degree_relations.html" xlink:title="block_second_degree_relations" target="_top">
<polygon fill="#ffffff" stroke="transparent" points="150,-405 150,-463 423,-463 423,-405 150,-405"/>
<polygon fill="#f5f5f5" stroke="transparent" points="150.5,-441 150.5,-463 423.5,-463 423.5,-441 150.5,-441"/>
<polygon fill="none" stroke="black" points="150.5,-441 150.5,-463 423.5,-463 423.5,-441 150.5,-441"/>
<text text-anchor="start" x="155.5" y="-450.2" font-family="Helvetica,sans-Serif" font-weight="bold" font-size="11.00">block_second_degree_relations</text>
<text text-anchor="start" x="381.5" y="-449.2" font-family="Helvetica,sans-Serif" font-size="11.00">[table]</text>
<polygon fill="none" stroke="black" points="150.5,-423 150.5,-441 423.5,-441 423.5,-423 150.5,-423"/>
<text text-anchor="start" x="153.5" y="-429.2" font-family="Helvetica,sans-Serif" font-size="11.00">...</text>
<polygon fill="#ffffff" stroke="transparent" points="150.5,-405 150.5,-423 423.5,-423 423.5,-405 150.5,-405"/>
<polygon fill="none" stroke="black" points="150.5,-405 150.5,-423 423.5,-423 423.5,-405 150.5,-405"/>
<polygon fill="#ffffff" stroke="transparent" points="151.5,-406 151.5,-422 250.5,-422 250.5,-406 151.5,-406"/>
<text text-anchor="start" x="153.5" y="-411.2" font-family="Helvetica,sans-Serif" font-size="11.00">&lt; 1</text>
<polygon fill="#ffffff" stroke="transparent" points="250.5,-406 250.5,-422 336.5,-422 336.5,-406 250.5,-406"/>
<text text-anchor="start" x="289.5" y="-411.2" font-family="Helvetica,sans-Serif" font-size="11.00"> &#160;</text>
<polygon fill="#ffffff" stroke="transparent" points="336.5,-406 336.5,-422 422.5,-422 422.5,-406 336.5,-406"/>
<text text-anchor="start" x="412.5" y="-411.2" font-family="Helvetica,sans-Serif" font-size="11.00"> &#160;</text>
<polygon fill="black" stroke="black" points="250.5,-406 250.5,-422 250.5,-422 250.5,-406 250.5,-406"/>
<polygon fill="black" stroke="black" points="336.5,-406 336.5,-422 336.5,-422 336.5,-406 336.5,-406"/>
</a>
</g>
</g>
<!-- block_second_degree_relations&#45;&gt;blocks -->
<g id="edge2" class="edge">
<title>block_second_degree_relations:w&#45;&gt;blocks:e</title>
<path fill="none" stroke="black" d="M135,-430.12C96.05,-419.75 74.23,-368.77 63.67,-334.06"/>
<polygon fill="black" stroke="black" points="141.57,-430.97 149.04,-435.57 145.53,-431.49 149.5,-432 149.5,-432 149.5,-432 145.53,-431.49 149.96,-428.43 141.57,-430.97 141.57,-430.97"/>
<ellipse fill="none" stroke="black" cx="138.39" cy="-430.56" rx="3.2" ry="3.2"/>
</g>
<!-- internal_transactions -->
<g id="node4" class="node">
<title>internal_transactions</title>
<g id="a_node4"><a xlink:href="../../tables/internal_transactions.html" xlink:title="internal_transactions" target="_top">
<polygon fill="#ffffff" stroke="transparent" points="472,-511 472,-1039 841,-1039 841,-511 472,-511"/>
<polygon fill="#f5f5f5" stroke="transparent" points="474.5,-1015 474.5,-1037 839.5,-1037 839.5,-1015 474.5,-1015"/>
<polygon fill="none" stroke="black" points="474.5,-1015 474.5,-1037 839.5,-1037 839.5,-1015 474.5,-1015"/>
<text text-anchor="start" x="479.5" y="-1024.2" font-family="Helvetica,sans-Serif" font-weight="bold" font-size="11.00">internal_transactions</text>
<text text-anchor="start" x="797.5" y="-1023.2" font-family="Helvetica,sans-Serif" font-size="11.00">[table]</text>
<polygon fill="none" stroke="black" points="474.5,-993 474.5,-1015 724.5,-1015 724.5,-993 474.5,-993"/>
<text text-anchor="start" x="494.5" y="-1001.2" font-family="Helvetica,sans-Serif" font-size="11.00">call_type</text>
<polygon fill="none" stroke="black" points="724.5,-993 724.5,-1015 839.5,-1015 839.5,-993 724.5,-993"/>
<text text-anchor="start" x="727.5" y="-1001.2" font-family="Helvetica,sans-Serif" font-size="11.00">varchar[255]</text>
<polygon fill="none" stroke="black" points="474.5,-971 474.5,-993 724.5,-993 724.5,-971 474.5,-971"/>
<text text-anchor="start" x="494.5" y="-979.2" font-family="Helvetica,sans-Serif" font-size="11.00">created_contract_code</text>
<polygon fill="none" stroke="black" points="724.5,-971 724.5,-993 839.5,-993 839.5,-971 724.5,-971"/>
<text text-anchor="start" x="727.5" y="-979.2" font-family="Helvetica,sans-Serif" font-size="11.00">bytea[2147483647]</text>
<polygon fill="none" stroke="black" points="474.5,-949 474.5,-971 724.5,-971 724.5,-949 474.5,-949"/>
<text text-anchor="start" x="494.5" y="-957.2" font-family="Helvetica,sans-Serif" font-size="11.00">error</text>
<polygon fill="none" stroke="black" points="724.5,-949 724.5,-971 839.5,-971 839.5,-949 724.5,-949"/>
<text text-anchor="start" x="727.5" y="-957.2" font-family="Helvetica,sans-Serif" font-size="11.00">varchar[255]</text>
<polygon fill="none" stroke="black" points="474.5,-927 474.5,-949 724.5,-949 724.5,-927 474.5,-927"/>
<text text-anchor="start" x="494.5" y="-935.2" font-family="Helvetica,sans-Serif" font-size="11.00">gas</text>
<polygon fill="none" stroke="black" points="724.5,-927 724.5,-949 839.5,-949 839.5,-927 724.5,-927"/>
<text text-anchor="start" x="727.5" y="-935.2" font-family="Helvetica,sans-Serif" font-size="11.00">numeric[100]</text>
<polygon fill="none" stroke="black" points="474.5,-905 474.5,-927 724.5,-927 724.5,-905 474.5,-905"/>
<text text-anchor="start" x="494.5" y="-913.2" font-family="Helvetica,sans-Serif" font-size="11.00">gas_used</text>
<polygon fill="none" stroke="black" points="724.5,-905 724.5,-927 839.5,-927 839.5,-905 724.5,-905"/>
<text text-anchor="start" x="727.5" y="-913.2" font-family="Helvetica,sans-Serif" font-size="11.00">numeric[100]</text>
<polygon fill="#ffffff" stroke="transparent" points="474.5,-883 474.5,-905 724.5,-905 724.5,-883 474.5,-883"/>
<polygon fill="none" stroke="black" points="474.5,-883 474.5,-905 724.5,-905 724.5,-883 474.5,-883"/>
<image xlink:href="../../images/foreignKeys.png" width="11px" height="12px" preserveAspectRatio="xMinYMin meet" x="479.5" y="-900"/>
<text text-anchor="start" x="494.5" y="-891.2" font-family="Helvetica,sans-Serif" font-size="11.00">index</text>
<polygon fill="none" stroke="black" points="724.5,-883 724.5,-905 839.5,-905 839.5,-883 724.5,-883"/>
<text text-anchor="start" x="727.5" y="-891.2" font-family="Helvetica,sans-Serif" font-size="11.00">int4[10]</text>
<polygon fill="none" stroke="black" points="474.5,-861 474.5,-883 724.5,-883 724.5,-861 474.5,-861"/>
<text text-anchor="start" x="494.5" y="-869.2" font-family="Helvetica,sans-Serif" font-size="11.00">init</text>
<polygon fill="none" stroke="black" points="724.5,-861 724.5,-883 839.5,-883 839.5,-861 724.5,-861"/>
<text text-anchor="start" x="727.5" y="-869.2" font-family="Helvetica,sans-Serif" font-size="11.00">bytea[2147483647]</text>
<polygon fill="none" stroke="black" points="474.5,-839 474.5,-861 724.5,-861 724.5,-839 474.5,-839"/>
<text text-anchor="start" x="494.5" y="-847.2" font-family="Helvetica,sans-Serif" font-size="11.00">input</text>
<polygon fill="none" stroke="black" points="724.5,-839 724.5,-861 839.5,-861 839.5,-839 724.5,-839"/>
<text text-anchor="start" x="727.5" y="-847.2" font-family="Helvetica,sans-Serif" font-size="11.00">bytea[2147483647]</text>
<polygon fill="none" stroke="black" points="474.5,-817 474.5,-839 724.5,-839 724.5,-817 474.5,-817"/>
<text text-anchor="start" x="494.5" y="-825.2" font-family="Helvetica,sans-Serif" font-size="11.00">output</text>
<polygon fill="none" stroke="black" points="724.5,-817 724.5,-839 839.5,-839 839.5,-817 724.5,-817"/>
<text text-anchor="start" x="727.5" y="-825.2" font-family="Helvetica,sans-Serif" font-size="11.00">bytea[2147483647]</text>
<polygon fill="none" stroke="black" points="474.5,-795 474.5,-817 724.5,-817 724.5,-795 474.5,-795"/>
<text text-anchor="start" x="494.5" y="-803.2" font-family="Helvetica,sans-Serif" font-size="11.00">trace_address</text>
<polygon fill="none" stroke="black" points="724.5,-795 724.5,-817 839.5,-817 839.5,-795 724.5,-795"/>
<text text-anchor="start" x="727.5" y="-803.2" font-family="Helvetica,sans-Serif" font-size="11.00">_int4[10]</text>
<polygon fill="none" stroke="black" points="474.5,-773 474.5,-795 724.5,-795 724.5,-773 474.5,-773"/>
<text text-anchor="start" x="494.5" y="-781.2" font-family="Helvetica,sans-Serif" font-size="11.00">type</text>
<polygon fill="none" stroke="black" points="724.5,-773 724.5,-795 839.5,-795 839.5,-773 724.5,-773"/>
<text text-anchor="start" x="727.5" y="-781.2" font-family="Helvetica,sans-Serif" font-size="11.00">varchar[255]</text>
<polygon fill="none" stroke="black" points="474.5,-751 474.5,-773 724.5,-773 724.5,-751 474.5,-751"/>
<text text-anchor="start" x="494.5" y="-759.2" font-family="Helvetica,sans-Serif" font-size="11.00">value</text>
<polygon fill="none" stroke="black" points="724.5,-751 724.5,-773 839.5,-773 839.5,-751 724.5,-751"/>
<text text-anchor="start" x="727.5" y="-759.2" font-family="Helvetica,sans-Serif" font-size="11.00">numeric[100]</text>
<polygon fill="none" stroke="black" points="474.5,-729 474.5,-751 724.5,-751 724.5,-729 474.5,-729"/>
<text text-anchor="start" x="494.5" y="-737.2" font-family="Helvetica,sans-Serif" font-size="11.00">inserted_at</text>
<polygon fill="none" stroke="black" points="724.5,-729 724.5,-751 839.5,-751 839.5,-729 724.5,-729"/>
<text text-anchor="start" x="727.5" y="-737.2" font-family="Helvetica,sans-Serif" font-size="11.00">timestamp[29,6]</text>
<polygon fill="none" stroke="black" points="474.5,-707 474.5,-729 724.5,-729 724.5,-707 474.5,-707"/>
<text text-anchor="start" x="494.5" y="-715.2" font-family="Helvetica,sans-Serif" font-size="11.00">updated_at</text>
<polygon fill="none" stroke="black" points="724.5,-707 724.5,-729 839.5,-729 839.5,-707 724.5,-707"/>
<text text-anchor="start" x="727.5" y="-715.2" font-family="Helvetica,sans-Serif" font-size="11.00">timestamp[29,6]</text>
<polygon fill="#ffffff" stroke="transparent" points="474.5,-685 474.5,-707 724.5,-707 724.5,-685 474.5,-685"/>
<polygon fill="none" stroke="black" points="474.5,-685 474.5,-707 724.5,-707 724.5,-685 474.5,-685"/>
<text text-anchor="start" x="494.5" y="-693.2" font-family="Helvetica,sans-Serif" font-size="11.00">created_contract_address_hash</text>
<polygon fill="none" stroke="black" points="724.5,-685 724.5,-707 839.5,-707 839.5,-685 724.5,-685"/>
<text text-anchor="start" x="727.5" y="-693.2" font-family="Helvetica,sans-Serif" font-size="11.00">bytea[2147483647]</text>
<polygon fill="#ffffff" stroke="transparent" points="474.5,-663 474.5,-685 724.5,-685 724.5,-663 474.5,-663"/>
<polygon fill="none" stroke="black" points="474.5,-663 474.5,-685 724.5,-685 724.5,-663 474.5,-663"/>
<text text-anchor="start" x="494.5" y="-671.2" font-family="Helvetica,sans-Serif" font-size="11.00">from_address_hash</text>
<polygon fill="none" stroke="black" points="724.5,-663 724.5,-685 839.5,-685 839.5,-663 724.5,-663"/>
<text text-anchor="start" x="727.5" y="-671.2" font-family="Helvetica,sans-Serif" font-size="11.00">bytea[2147483647]</text>
<polygon fill="#ffffff" stroke="transparent" points="474.5,-641 474.5,-663 724.5,-663 724.5,-641 474.5,-641"/>
<polygon fill="none" stroke="black" points="474.5,-641 474.5,-663 724.5,-663 724.5,-641 474.5,-641"/>
<text text-anchor="start" x="494.5" y="-649.2" font-family="Helvetica,sans-Serif" font-size="11.00">to_address_hash</text>
<polygon fill="none" stroke="black" points="724.5,-641 724.5,-663 839.5,-663 839.5,-641 724.5,-641"/>
<text text-anchor="start" x="727.5" y="-649.2" font-family="Helvetica,sans-Serif" font-size="11.00">bytea[2147483647]</text>
<polygon fill="#ffffff" stroke="transparent" points="474.5,-619 474.5,-641 724.5,-641 724.5,-619 474.5,-619"/>
<polygon fill="none" stroke="black" points="474.5,-619 474.5,-641 724.5,-641 724.5,-619 474.5,-619"/>
<image xlink:href="../../images/foreignKeys.png" width="11px" height="12px" preserveAspectRatio="xMinYMin meet" x="479.5" y="-636"/>
<text text-anchor="start" x="494.5" y="-627.2" font-family="Helvetica,sans-Serif" font-size="11.00">transaction_hash</text>
<polygon fill="none" stroke="black" points="724.5,-619 724.5,-641 839.5,-641 839.5,-619 724.5,-619"/>
<text text-anchor="start" x="727.5" y="-627.2" font-family="Helvetica,sans-Serif" font-size="11.00">bytea[2147483647]</text>
<polygon fill="#ffffff" stroke="transparent" points="474.5,-597 474.5,-619 724.5,-619 724.5,-597 474.5,-597"/>
<polygon fill="none" stroke="black" points="474.5,-597 474.5,-619 724.5,-619 724.5,-597 474.5,-597"/>
<text text-anchor="start" x="494.5" y="-605.2" font-family="Helvetica,sans-Serif" font-size="11.00">block_number</text>
<polygon fill="none" stroke="black" points="724.5,-597 724.5,-619 839.5,-619 839.5,-597 724.5,-597"/>
<text text-anchor="start" x="727.5" y="-605.2" font-family="Helvetica,sans-Serif" font-size="11.00">int4[10]</text>
<polygon fill="#ffffff" stroke="transparent" points="474.5,-575 474.5,-597 724.5,-597 724.5,-575 474.5,-575"/>
<polygon fill="none" stroke="black" points="474.5,-575 474.5,-597 724.5,-597 724.5,-575 474.5,-575"/>
<image xlink:href="../../images/foreignKeys.png" width="11px" height="12px" preserveAspectRatio="xMinYMin meet" x="479.5" y="-592"/>
<text text-anchor="start" x="494.5" y="-583.2" font-family="Helvetica,sans-Serif" font-size="11.00">transaction_index</text>
<polygon fill="none" stroke="black" points="724.5,-575 724.5,-597 839.5,-597 839.5,-575 724.5,-575"/>
<text text-anchor="start" x="727.5" y="-583.2" font-family="Helvetica,sans-Serif" font-size="11.00">int4[10]</text>
<polygon fill="none" stroke="black" points="474.5,-553 474.5,-575 724.5,-575 724.5,-553 474.5,-553"/>
<image xlink:href="../../images/primaryKeys.png" width="11px" height="12px" preserveAspectRatio="xMinYMin meet" x="479.5" y="-570"/>
<text text-anchor="start" x="494.5" y="-561.2" font-family="Helvetica,sans-Serif" font-size="11.00">block_hash</text>
<polygon fill="none" stroke="black" points="724.5,-553 724.5,-575 839.5,-575 839.5,-553 724.5,-553"/>
<text text-anchor="start" x="727.5" y="-561.2" font-family="Helvetica,sans-Serif" font-size="11.00">bytea[2147483647]</text>
<polygon fill="none" stroke="black" points="474.5,-531 474.5,-553 724.5,-553 724.5,-531 474.5,-531"/>
<image xlink:href="../../images/primaryKeys.png" width="11px" height="12px" preserveAspectRatio="xMinYMin meet" x="479.5" y="-548"/>
<text text-anchor="start" x="494.5" y="-539.2" font-family="Helvetica,sans-Serif" font-size="11.00">block_index</text>
<polygon fill="none" stroke="black" points="724.5,-531 724.5,-553 839.5,-553 839.5,-531 724.5,-531"/>
<text text-anchor="start" x="727.5" y="-539.2" font-family="Helvetica,sans-Serif" font-size="11.00">int4[10]</text>
<polygon fill="#ffffff" stroke="transparent" points="474.5,-513 474.5,-531 839.5,-531 839.5,-513 474.5,-513"/>
<polygon fill="none" stroke="black" points="474.5,-513 474.5,-531 839.5,-531 839.5,-513 474.5,-513"/>
<polygon fill="#ffffff" stroke="transparent" points="475.5,-514 475.5,-530 600.5,-530 600.5,-514 475.5,-514"/>
<text text-anchor="start" x="477.5" y="-519.2" font-family="Helvetica,sans-Serif" font-size="11.00">&lt; 2</text>
<polygon fill="#ffffff" stroke="transparent" points="600.5,-514 600.5,-530 713.5,-530 713.5,-514 600.5,-514"/>
<text text-anchor="start" x="653" y="-519.2" font-family="Helvetica,sans-Serif" font-size="11.00"> &#160;</text>
<polygon fill="#ffffff" stroke="transparent" points="713.5,-514 713.5,-530 838.5,-530 838.5,-514 713.5,-514"/>
<text text-anchor="start" x="816.5" y="-519.2" font-family="Helvetica,sans-Serif" font-size="11.00">0 &gt;</text>
<polygon fill="black" stroke="black" points="600.5,-514 600.5,-530 600.5,-530 600.5,-514 600.5,-514"/>
<polygon fill="black" stroke="black" points="713.5,-514 713.5,-530 713.5,-530 713.5,-514 713.5,-514"/>
<polygon fill="none" stroke="black" stroke-width="2" points="473,-512 473,-1038 840,-1038 840,-512 473,-512"/>
</a>
</g>
</g>
<!-- internal_transactions&#45;&gt;blocks -->
<g id="edge3" class="edge">
<title>internal_transactions:w&#45;&gt;blocks:e</title>
<path fill="none" stroke="black" d="M458.95,-562.12C409.1,-546.8 485.27,-441.86 431,-395 382.15,-352.82 202.12,-389.47 142,-366 123.45,-358.76 105.43,-346.37 90.69,-334.34"/>
<polygon fill="black" stroke="black" points="465.57,-562.97 473.04,-567.57 469.53,-563.49 473.5,-564 473.5,-564 473.5,-564 469.53,-563.49 473.96,-560.43 465.57,-562.97 465.57,-562.97"/>
<ellipse fill="none" stroke="black" cx="462.39" cy="-562.56" rx="3.2" ry="3.2"/>
</g>
<!-- transactions -->
<g id="node5" class="node">
<title>transactions</title>
<g id="a_node5"><a xlink:href="../../tables/transactions.html" xlink:title="transactions" target="_top">
<polygon fill="#ffffff" stroke="transparent" points="217.5,-272 217.5,-330 355.5,-330 355.5,-272 217.5,-272"/>
<polygon fill="#f5f5f5" stroke="transparent" points="217.5,-308 217.5,-330 355.5,-330 355.5,-308 217.5,-308"/>
<polygon fill="none" stroke="black" points="217.5,-308 217.5,-330 355.5,-330 355.5,-308 217.5,-308"/>
<text text-anchor="start" x="222.5" y="-317.2" font-family="Helvetica,sans-Serif" font-weight="bold" font-size="11.00">transactions</text>
<text text-anchor="start" x="313.5" y="-316.2" font-family="Helvetica,sans-Serif" font-size="11.00">[table]</text>
<polygon fill="none" stroke="black" points="217.5,-290 217.5,-308 355.5,-308 355.5,-290 217.5,-290"/>
<text text-anchor="start" x="220.5" y="-296.2" font-family="Helvetica,sans-Serif" font-size="11.00">...</text>
<polygon fill="#ffffff" stroke="transparent" points="217.5,-272 217.5,-290 355.5,-290 355.5,-272 217.5,-272"/>
<polygon fill="none" stroke="black" points="217.5,-272 217.5,-290 355.5,-290 355.5,-272 217.5,-272"/>
<polygon fill="#ffffff" stroke="transparent" points="218.5,-273 218.5,-289 268.5,-289 268.5,-273 218.5,-273"/>
<text text-anchor="start" x="220.5" y="-278.2" font-family="Helvetica,sans-Serif" font-size="11.00">&lt; 1</text>
<polygon fill="#ffffff" stroke="transparent" points="268.5,-273 268.5,-289 305.5,-289 305.5,-273 268.5,-273"/>
<text text-anchor="start" x="283" y="-278.2" font-family="Helvetica,sans-Serif" font-size="11.00"> &#160;</text>
<polygon fill="#ffffff" stroke="transparent" points="305.5,-273 305.5,-289 354.5,-289 354.5,-273 305.5,-273"/>
<text text-anchor="start" x="332.5" y="-278.2" font-family="Helvetica,sans-Serif" font-size="11.00">7 &gt;</text>
<polygon fill="black" stroke="black" points="268.5,-273 268.5,-289 268.5,-289 268.5,-273 268.5,-273"/>
<polygon fill="black" stroke="black" points="305.5,-273 305.5,-289 305.5,-289 305.5,-273 305.5,-273"/>
</a>
</g>
</g>
<!-- internal_transactions&#45;&gt;transactions -->
<g id="edge4" class="edge">
<title>internal_transactions:w&#45;&gt;transactions:e</title>
<path fill="none" stroke="black" d="M459.81,-624.72C423.92,-591.66 462.56,-413.4 431,-371 414.37,-348.65 388.68,-333.06 363.61,-322.37"/>
<polygon fill="black" stroke="black" points="466.04,-627.12 472.2,-633.36 469.77,-628.56 473.5,-630 473.5,-630 473.5,-630 469.77,-628.56 474.8,-626.64 466.04,-627.12 466.04,-627.12"/>
<ellipse fill="none" stroke="black" cx="463.05" cy="-625.97" rx="3.2" ry="3.2"/>
</g>
<!-- transactions&#45;&gt;blocks -->
<g id="edge15" class="edge">
<title>transactions:w&#45;&gt;blocks:e</title>
<path fill="none" stroke="black" d="M194.74,-301C165.71,-301 134.52,-301 109.03,-301"/>
<polygon fill="black" stroke="black" points="201.23,-301 209.23,-304.6 205.23,-301 209.23,-301 209.23,-301 209.23,-301 205.23,-301 209.23,-297.4 201.23,-301 201.23,-301"/>
<ellipse fill="none" stroke="black" cx="198.03" cy="-301" rx="3.2" ry="3.2"/>
</g>
<!-- logs -->
<g id="node6" class="node">
<title>logs</title>
<g id="a_node6"><a xlink:href="../../tables/logs.html" xlink:title="logs" target="_top">
<polygon fill="#ffffff" stroke="transparent" points="618,-432 618,-490 695,-490 695,-432 618,-432"/>
<polygon fill="#f5f5f5" stroke="transparent" points="618.5,-468 618.5,-490 695.5,-490 695.5,-468 618.5,-468"/>
<polygon fill="none" stroke="black" points="618.5,-468 618.5,-490 695.5,-490 695.5,-468 618.5,-468"/>
<text text-anchor="start" x="623.5" y="-477.2" font-family="Helvetica,sans-Serif" font-weight="bold" font-size="11.00">logs</text>
<text text-anchor="start" x="653.5" y="-476.2" font-family="Helvetica,sans-Serif" font-size="11.00">[table]</text>
<polygon fill="none" stroke="black" points="618.5,-450 618.5,-468 695.5,-468 695.5,-450 618.5,-450"/>
<text text-anchor="start" x="621.5" y="-456.2" font-family="Helvetica,sans-Serif" font-size="11.00">...</text>
<polygon fill="#ffffff" stroke="transparent" points="618.5,-432 618.5,-450 695.5,-450 695.5,-432 618.5,-432"/>
<polygon fill="none" stroke="black" points="618.5,-432 618.5,-450 695.5,-450 695.5,-432 618.5,-432"/>
<polygon fill="#ffffff" stroke="transparent" points="619.5,-433 619.5,-449 652.5,-449 652.5,-433 619.5,-433"/>
<text text-anchor="start" x="621.5" y="-438.2" font-family="Helvetica,sans-Serif" font-size="11.00">&lt; 2</text>
<polygon fill="#ffffff" stroke="transparent" points="652.5,-433 652.5,-449 673.5,-449 673.5,-433 652.5,-433"/>
<text text-anchor="start" x="659" y="-438.2" font-family="Helvetica,sans-Serif" font-size="11.00"> &#160;</text>
<polygon fill="#ffffff" stroke="transparent" points="673.5,-433 673.5,-449 694.5,-449 694.5,-433 673.5,-433"/>
<text text-anchor="start" x="684.5" y="-438.2" font-family="Helvetica,sans-Serif" font-size="11.00"> &#160;</text>
<polygon fill="black" stroke="black" points="652.5,-433 652.5,-449 652.5,-449 652.5,-433 652.5,-433"/>
<polygon fill="black" stroke="black" points="673.5,-433 673.5,-449 673.5,-449 673.5,-433 673.5,-433"/>
</a>
</g>
</g>
<!-- logs&#45;&gt;blocks -->
<g id="edge5" class="edge">
<title>logs:w&#45;&gt;blocks:e</title>
<path fill="none" stroke="black" d="M602.95,-459.04C543.39,-459.29 517.12,-459.64 464,-422 441.97,-406.39 454.02,-385.11 431,-371 375.95,-337.25 204.26,-358.12 142,-341 131.15,-338.02 119.96,-333.8 109.38,-329.21"/>
<polygon fill="black" stroke="black" points="609.5,-459.02 617.51,-462.6 613.5,-459.01 617.5,-459 617.5,-459 617.5,-459 613.5,-459.01 617.49,-455.4 609.5,-459.02 609.5,-459.02"/>
<ellipse fill="none" stroke="black" cx="606.3" cy="-459.03" rx="3.2" ry="3.2"/>
</g>
<!-- logs&#45;&gt;transactions -->
<g id="edge6" class="edge">
<title>logs:w&#45;&gt;transactions:e</title>
<path fill="none" stroke="black" d="M602.89,-459.11C542.89,-459.93 513.65,-464.12 464,-422 435.3,-397.65 459.03,-369.13 431,-344 412.41,-327.33 387.58,-317.12 363.81,-310.86"/>
<polygon fill="black" stroke="black" points="609.5,-459.06 617.53,-462.6 613.5,-459.03 617.5,-459 617.5,-459 617.5,-459 613.5,-459.03 617.47,-455.4 609.5,-459.06 609.5,-459.06"/>
<ellipse fill="none" stroke="black" cx="606.3" cy="-459.08" rx="3.2" ry="3.2"/>
</g>
<!-- pending_block_operations -->
<g id="node7" class="node">
<title>pending_block_operations</title>
<g id="a_node7"><a xlink:href="../../tables/pending_block_operations.html" xlink:title="pending_block_operations" target="_top">
<polygon fill="#ffffff" stroke="transparent" points="168,-193 168,-251 405,-251 405,-193 168,-193"/>
<polygon fill="#f5f5f5" stroke="transparent" points="168.5,-229 168.5,-251 405.5,-251 405.5,-229 168.5,-229"/>
<polygon fill="none" stroke="black" points="168.5,-229 168.5,-251 405.5,-251 405.5,-229 168.5,-229"/>
<text text-anchor="start" x="173.5" y="-238.2" font-family="Helvetica,sans-Serif" font-weight="bold" font-size="11.00">pending_block_operations</text>
<text text-anchor="start" x="363.5" y="-237.2" font-family="Helvetica,sans-Serif" font-size="11.00">[table]</text>
<polygon fill="none" stroke="black" points="168.5,-211 168.5,-229 405.5,-229 405.5,-211 168.5,-211"/>
<text text-anchor="start" x="171.5" y="-217.2" font-family="Helvetica,sans-Serif" font-size="11.00">...</text>
<polygon fill="#ffffff" stroke="transparent" points="168.5,-193 168.5,-211 405.5,-211 405.5,-193 168.5,-193"/>
<polygon fill="none" stroke="black" points="168.5,-193 168.5,-211 405.5,-211 405.5,-193 168.5,-193"/>
<polygon fill="#ffffff" stroke="transparent" points="169.5,-194 169.5,-210 256.5,-210 256.5,-194 169.5,-194"/>
<text text-anchor="start" x="171.5" y="-199.2" font-family="Helvetica,sans-Serif" font-size="11.00">&lt; 1</text>
<polygon fill="#ffffff" stroke="transparent" points="256.5,-194 256.5,-210 330.5,-210 330.5,-194 256.5,-194"/>
<text text-anchor="start" x="289.5" y="-199.2" font-family="Helvetica,sans-Serif" font-size="11.00"> &#160;</text>
<polygon fill="#ffffff" stroke="transparent" points="330.5,-194 330.5,-210 404.5,-210 404.5,-194 330.5,-194"/>
<text text-anchor="start" x="394.5" y="-199.2" font-family="Helvetica,sans-Serif" font-size="11.00"> &#160;</text>
<polygon fill="black" stroke="black" points="256.5,-194 256.5,-210 256.5,-210 256.5,-194 256.5,-194"/>
<polygon fill="black" stroke="black" points="330.5,-194 330.5,-210 330.5,-210 330.5,-194 330.5,-194"/>
</a>
</g>
</g>
<!-- pending_block_operations&#45;&gt;blocks -->
<g id="edge7" class="edge">
<title>pending_block_operations:w&#45;&gt;blocks:e</title>
<path fill="none" stroke="black" d="M156.76,-220.81C126.78,-225.3 100.08,-247.63 81.64,-267.59"/>
<polygon fill="black" stroke="black" points="166.4,-216.07 167,-224.05 165.41,-224.17 164.81,-216.19 166.4,-216.07"/>
<polyline fill="none" stroke="black" points="167.5,-220 163.51,-220.3 "/>
<ellipse fill="none" stroke="black" cx="160.32" cy="-220.54" rx="3.2" ry="3.2"/>
</g>
<!-- pending_transaction_operations -->
<g id="node8" class="node">
<title>pending_transaction_operations</title>
<g id="a_node8"><a xlink:href="../../tables/pending_transaction_operations.html" xlink:title="pending_transaction_operations" target="_top">
<polygon fill="#ffffff" stroke="transparent" points="515.5,-353 515.5,-411 797.5,-411 797.5,-353 515.5,-353"/>
<polygon fill="#f5f5f5" stroke="transparent" points="515.5,-389 515.5,-411 797.5,-411 797.5,-389 515.5,-389"/>
<polygon fill="none" stroke="black" points="515.5,-389 515.5,-411 797.5,-411 797.5,-389 515.5,-389"/>
<text text-anchor="start" x="520.5" y="-398.2" font-family="Helvetica,sans-Serif" font-weight="bold" font-size="11.00">pending_transaction_operations</text>
<text text-anchor="start" x="755.5" y="-397.2" font-family="Helvetica,sans-Serif" font-size="11.00">[table]</text>
<polygon fill="none" stroke="black" points="515.5,-371 515.5,-389 797.5,-389 797.5,-371 515.5,-371"/>
<text text-anchor="start" x="518.5" y="-377.2" font-family="Helvetica,sans-Serif" font-size="11.00">...</text>
<polygon fill="#ffffff" stroke="transparent" points="515.5,-353 515.5,-371 797.5,-371 797.5,-353 515.5,-353"/>
<polygon fill="none" stroke="black" points="515.5,-353 515.5,-371 797.5,-371 797.5,-353 515.5,-353"/>
<polygon fill="#ffffff" stroke="transparent" points="516.5,-354 516.5,-370 618.5,-370 618.5,-354 516.5,-354"/>
<text text-anchor="start" x="518.5" y="-359.2" font-family="Helvetica,sans-Serif" font-size="11.00">&lt; 1</text>
<polygon fill="#ffffff" stroke="transparent" points="618.5,-354 618.5,-370 707.5,-370 707.5,-354 618.5,-354"/>
<text text-anchor="start" x="659" y="-359.2" font-family="Helvetica,sans-Serif" font-size="11.00"> &#160;</text>
<polygon fill="#ffffff" stroke="transparent" points="707.5,-354 707.5,-370 796.5,-370 796.5,-354 707.5,-354"/>
<text text-anchor="start" x="786.5" y="-359.2" font-family="Helvetica,sans-Serif" font-size="11.00"> &#160;</text>
<polygon fill="black" stroke="black" points="618.5,-354 618.5,-370 618.5,-370 618.5,-354 618.5,-354"/>
<polygon fill="black" stroke="black" points="707.5,-354 707.5,-370 707.5,-370 707.5,-354 707.5,-354"/>
</a>
</g>
</g>
<!-- pending_transaction_operations&#45;&gt;transactions -->
<g id="edge8" class="edge">
<title>pending_transaction_operations:w&#45;&gt;transactions:e</title>
<path fill="none" stroke="black" d="M504.01,-379.44C472.84,-375.92 465.42,-356.53 431,-344 409.37,-336.13 385.55,-328.56 363.63,-322.02"/>
<polygon fill="black" stroke="black" points="513.91,-375.96 513.49,-383.95 511.89,-383.87 512.32,-375.88 513.91,-375.96"/>
<polyline fill="none" stroke="black" points="514.5,-380 510.51,-379.79 "/>
<ellipse fill="none" stroke="black" cx="507.31" cy="-379.62" rx="3.2" ry="3.2"/>
</g>
<!-- signed_authorizations -->
<g id="node9" class="node">
<title>signed_authorizations</title>
<g id="a_node9"><a xlink:href="../../tables/signed_authorizations.html" xlink:title="signed_authorizations" target="_top">
<polygon fill="#ffffff" stroke="transparent" points="552.5,-274 552.5,-332 760.5,-332 760.5,-274 552.5,-274"/>
<polygon fill="#f5f5f5" stroke="transparent" points="552.5,-310 552.5,-332 760.5,-332 760.5,-310 552.5,-310"/>
<polygon fill="none" stroke="black" points="552.5,-310 552.5,-332 760.5,-332 760.5,-310 552.5,-310"/>
<text text-anchor="start" x="557.5" y="-319.2" font-family="Helvetica,sans-Serif" font-weight="bold" font-size="11.00">signed_authorizations</text>
<text text-anchor="start" x="718.5" y="-318.2" font-family="Helvetica,sans-Serif" font-size="11.00">[table]</text>
<polygon fill="none" stroke="black" points="552.5,-292 552.5,-310 760.5,-310 760.5,-292 552.5,-292"/>
<text text-anchor="start" x="555.5" y="-298.2" font-family="Helvetica,sans-Serif" font-size="11.00">...</text>
<polygon fill="#ffffff" stroke="transparent" points="552.5,-274 552.5,-292 760.5,-292 760.5,-274 552.5,-274"/>
<polygon fill="none" stroke="black" points="552.5,-274 552.5,-292 760.5,-292 760.5,-274 552.5,-274"/>
<polygon fill="#ffffff" stroke="transparent" points="553.5,-275 553.5,-291 630.5,-291 630.5,-275 553.5,-275"/>
<text text-anchor="start" x="555.5" y="-280.2" font-family="Helvetica,sans-Serif" font-size="11.00">&lt; 1</text>
<polygon fill="#ffffff" stroke="transparent" points="630.5,-275 630.5,-291 695.5,-291 695.5,-275 630.5,-275"/>
<text text-anchor="start" x="659" y="-280.2" font-family="Helvetica,sans-Serif" font-size="11.00"> &#160;</text>
<polygon fill="#ffffff" stroke="transparent" points="695.5,-275 695.5,-291 759.5,-291 759.5,-275 695.5,-275"/>
<text text-anchor="start" x="749.5" y="-280.2" font-family="Helvetica,sans-Serif" font-size="11.00"> &#160;</text>
<polygon fill="black" stroke="black" points="630.5,-275 630.5,-291 630.5,-291 630.5,-275 630.5,-275"/>
<polygon fill="black" stroke="black" points="695.5,-275 695.5,-291 695.5,-291 695.5,-275 695.5,-275"/>
</a>
</g>
</g>
<!-- signed_authorizations&#45;&gt;transactions -->
<g id="edge9" class="edge">
<title>signed_authorizations:w&#45;&gt;transactions:e</title>
<path fill="none" stroke="black" d="M536.91,-301C477.43,-301 412.46,-301 363.75,-301"/>
<polygon fill="black" stroke="black" points="543.5,-301 551.5,-304.6 547.5,-301 551.5,-301 551.5,-301 551.5,-301 547.5,-301 551.5,-297.4 543.5,-301 543.5,-301"/>
<ellipse fill="none" stroke="black" cx="540.3" cy="-301" rx="3.2" ry="3.2"/>
</g>
<!-- token_transfers -->
<g id="node10" class="node">
<title>token_transfers</title>
<g id="a_node10"><a xlink:href="../../tables/token_transfers.html" xlink:title="token_transfers" target="_top">
<polygon fill="#ffffff" stroke="transparent" points="575.5,-116 575.5,-174 737.5,-174 737.5,-116 575.5,-116"/>
<polygon fill="#f5f5f5" stroke="transparent" points="575.5,-152 575.5,-174 737.5,-174 737.5,-152 575.5,-152"/>
<polygon fill="none" stroke="black" points="575.5,-152 575.5,-174 737.5,-174 737.5,-152 575.5,-152"/>
<text text-anchor="start" x="580.5" y="-161.2" font-family="Helvetica,sans-Serif" font-weight="bold" font-size="11.00">token_transfers</text>
<text text-anchor="start" x="695.5" y="-160.2" font-family="Helvetica,sans-Serif" font-size="11.00">[table]</text>
<polygon fill="none" stroke="black" points="575.5,-134 575.5,-152 737.5,-152 737.5,-134 575.5,-134"/>
<text text-anchor="start" x="578.5" y="-140.2" font-family="Helvetica,sans-Serif" font-size="11.00">...</text>
<polygon fill="#ffffff" stroke="transparent" points="575.5,-116 575.5,-134 737.5,-134 737.5,-116 575.5,-116"/>
<polygon fill="none" stroke="black" points="575.5,-116 575.5,-134 737.5,-134 737.5,-116 575.5,-116"/>
<polygon fill="#ffffff" stroke="transparent" points="576.5,-117 576.5,-133 638.5,-133 638.5,-117 576.5,-117"/>
<text text-anchor="start" x="578.5" y="-122.2" font-family="Helvetica,sans-Serif" font-size="11.00">&lt; 2</text>
<polygon fill="#ffffff" stroke="transparent" points="638.5,-117 638.5,-133 687.5,-133 687.5,-117 638.5,-117"/>
<text text-anchor="start" x="659" y="-122.2" font-family="Helvetica,sans-Serif" font-size="11.00"> &#160;</text>
<polygon fill="#ffffff" stroke="transparent" points="687.5,-117 687.5,-133 736.5,-133 736.5,-117 687.5,-117"/>
<text text-anchor="start" x="726.5" y="-122.2" font-family="Helvetica,sans-Serif" font-size="11.00"> &#160;</text>
<polygon fill="black" stroke="black" points="638.5,-117 638.5,-133 638.5,-133 638.5,-117 638.5,-117"/>
<polygon fill="black" stroke="black" points="687.5,-117 687.5,-133 687.5,-133 687.5,-117 687.5,-117"/>
</a>
</g>
</g>
<!-- token_transfers&#45;&gt;blocks -->
<g id="edge10" class="edge">
<title>token_transfers:w&#45;&gt;blocks:e</title>
<path fill="none" stroke="black" d="M559.73,-143.65C483.72,-147.92 161.11,-172.18 142,-183 108.4,-202.02 84.21,-240.06 70.09,-267.82"/>
<polygon fill="black" stroke="black" points="566.51,-143.35 574.66,-146.6 570.5,-143.18 574.5,-143 574.5,-143 574.5,-143 570.5,-143.18 574.34,-139.4 566.51,-143.35 566.51,-143.35"/>
<ellipse fill="none" stroke="black" cx="563.31" cy="-143.49" rx="3.2" ry="3.2"/>
</g>
<!-- token_transfers&#45;&gt;transactions -->
<g id="edge11" class="edge">
<title>token_transfers:w&#45;&gt;transactions:e</title>
<path fill="none" stroke="black" d="M559.99,-143.18C517.88,-144.39 498.21,-152.18 464,-185 437.13,-210.77 459.1,-237.57 431,-262 412.3,-278.26 387.44,-287.81 363.68,-293.4"/>
<polygon fill="black" stroke="black" points="566.5,-143.1 574.55,-146.6 570.5,-143.05 574.5,-143 574.5,-143 574.5,-143 570.5,-143.05 574.45,-139.4 566.5,-143.1 566.5,-143.1"/>
<ellipse fill="none" stroke="black" cx="563.3" cy="-143.14" rx="3.2" ry="3.2"/>
</g>
<!-- transaction_actions -->
<g id="node11" class="node">
<title>transaction_actions</title>
<g id="a_node11"><a xlink:href="../../tables/transaction_actions.html" xlink:title="transaction_actions" target="_top">
<polygon fill="#ffffff" stroke="transparent" points="561.5,-195 561.5,-253 751.5,-253 751.5,-195 561.5,-195"/>
<polygon fill="#f5f5f5" stroke="transparent" points="561.5,-231 561.5,-253 751.5,-253 751.5,-231 561.5,-231"/>
<polygon fill="none" stroke="black" points="561.5,-231 561.5,-253 751.5,-253 751.5,-231 561.5,-231"/>
<text text-anchor="start" x="566.5" y="-240.2" font-family="Helvetica,sans-Serif" font-weight="bold" font-size="11.00">transaction_actions</text>
<text text-anchor="start" x="709.5" y="-239.2" font-family="Helvetica,sans-Serif" font-size="11.00">[table]</text>
<polygon fill="none" stroke="black" points="561.5,-213 561.5,-231 751.5,-231 751.5,-213 561.5,-213"/>
<text text-anchor="start" x="564.5" y="-219.2" font-family="Helvetica,sans-Serif" font-size="11.00">...</text>
<polygon fill="#ffffff" stroke="transparent" points="561.5,-195 561.5,-213 751.5,-213 751.5,-195 561.5,-195"/>
<polygon fill="none" stroke="black" points="561.5,-195 561.5,-213 751.5,-213 751.5,-195 561.5,-195"/>
<polygon fill="#ffffff" stroke="transparent" points="562.5,-196 562.5,-212 633.5,-212 633.5,-196 562.5,-196"/>
<text text-anchor="start" x="564.5" y="-201.2" font-family="Helvetica,sans-Serif" font-size="11.00">&lt; 1</text>
<polygon fill="#ffffff" stroke="transparent" points="633.5,-196 633.5,-212 692.5,-212 692.5,-196 633.5,-196"/>
<text text-anchor="start" x="659" y="-201.2" font-family="Helvetica,sans-Serif" font-size="11.00"> &#160;</text>
<polygon fill="#ffffff" stroke="transparent" points="692.5,-196 692.5,-212 750.5,-212 750.5,-196 692.5,-196"/>
<text text-anchor="start" x="740.5" y="-201.2" font-family="Helvetica,sans-Serif" font-size="11.00"> &#160;</text>
<polygon fill="black" stroke="black" points="633.5,-196 633.5,-212 633.5,-212 633.5,-196 633.5,-196"/>
<polygon fill="black" stroke="black" points="692.5,-196 692.5,-212 692.5,-212 692.5,-196 692.5,-196"/>
</a>
</g>
</g>
<!-- transaction_actions&#45;&gt;transactions -->
<g id="edge12" class="edge">
<title>transaction_actions:w&#45;&gt;transactions:e</title>
<path fill="none" stroke="black" d="M545.99,-222.5C497.96,-225.94 483.88,-246.65 431,-262 409.18,-268.33 385.41,-274.92 363.6,-280.84"/>
<polygon fill="black" stroke="black" points="552.5,-222.27 560.62,-225.6 556.5,-222.14 560.5,-222 560.5,-222 560.5,-222 556.5,-222.14 560.38,-218.4 552.5,-222.27 552.5,-222.27"/>
<ellipse fill="none" stroke="black" cx="549.31" cy="-222.38" rx="3.2" ry="3.2"/>
</g>
<!-- transaction_forks -->
<g id="node12" class="node">
<title>transaction_forks</title>
<g id="a_node12"><a xlink:href="../../tables/transaction_forks.html" xlink:title="transaction_forks" target="_top">
<polygon fill="#ffffff" stroke="transparent" points="569.5,-37 569.5,-95 743.5,-95 743.5,-37 569.5,-37"/>
<polygon fill="#f5f5f5" stroke="transparent" points="569.5,-73 569.5,-95 743.5,-95 743.5,-73 569.5,-73"/>
<polygon fill="none" stroke="black" points="569.5,-73 569.5,-95 743.5,-95 743.5,-73 569.5,-73"/>
<text text-anchor="start" x="574.5" y="-82.2" font-family="Helvetica,sans-Serif" font-weight="bold" font-size="11.00">transaction_forks</text>
<text text-anchor="start" x="701.5" y="-81.2" font-family="Helvetica,sans-Serif" font-size="11.00">[table]</text>
<polygon fill="none" stroke="black" points="569.5,-55 569.5,-73 743.5,-73 743.5,-55 569.5,-55"/>
<text text-anchor="start" x="572.5" y="-61.2" font-family="Helvetica,sans-Serif" font-size="11.00">...</text>
<polygon fill="#ffffff" stroke="transparent" points="569.5,-37 569.5,-55 743.5,-55 743.5,-37 569.5,-37"/>
<polygon fill="none" stroke="black" points="569.5,-37 569.5,-55 743.5,-55 743.5,-37 569.5,-37"/>
<polygon fill="#ffffff" stroke="transparent" points="570.5,-38 570.5,-54 636.5,-54 636.5,-38 570.5,-38"/>
<text text-anchor="start" x="572.5" y="-43.2" font-family="Helvetica,sans-Serif" font-size="11.00">&lt; 2</text>
<polygon fill="#ffffff" stroke="transparent" points="636.5,-38 636.5,-54 689.5,-54 689.5,-38 636.5,-38"/>
<text text-anchor="start" x="659" y="-43.2" font-family="Helvetica,sans-Serif" font-size="11.00"> &#160;</text>
<polygon fill="#ffffff" stroke="transparent" points="689.5,-38 689.5,-54 742.5,-54 742.5,-38 689.5,-38"/>
<text text-anchor="start" x="732.5" y="-43.2" font-family="Helvetica,sans-Serif" font-size="11.00"> &#160;</text>
<polygon fill="black" stroke="black" points="636.5,-38 636.5,-54 636.5,-54 636.5,-38 636.5,-38"/>
<polygon fill="black" stroke="black" points="689.5,-38 689.5,-54 689.5,-54 689.5,-38 689.5,-38"/>
</a>
</g>
</g>
<!-- transaction_forks&#45;&gt;blocks -->
<g id="edge14" class="edge">
<title>transaction_forks:w&#45;&gt;blocks:e</title>
<path fill="none" stroke="black" d="M553.9,-64.59C515.88,-67.9 503.39,-84.71 464,-106 448.27,-114.5 447.82,-122.94 431,-129 370.37,-150.84 196.52,-118.64 142,-153 100.58,-179.1 76.68,-232.77 64.88,-267.8"/>
<polygon fill="black" stroke="black" points="560.51,-64.32 568.65,-67.6 564.5,-64.16 568.5,-64 568.5,-64 568.5,-64 564.5,-64.16 568.35,-60.4 560.51,-64.32 560.51,-64.32"/>
<ellipse fill="none" stroke="black" cx="557.31" cy="-64.45" rx="3.2" ry="3.2"/>
</g>
<!-- transaction_forks&#45;&gt;transactions -->
<g id="edge13" class="edge">
<title>transaction_forks:w&#45;&gt;transactions:e</title>
<path fill="none" stroke="black" d="M554.07,-64.15C513.82,-65.1 492.92,-71.56 464,-106 418.42,-160.27 479.67,-210.48 431,-262 413.54,-280.49 388.27,-290.52 363.79,-295.87"/>
<polygon fill="black" stroke="black" points="560.5,-64.08 568.54,-67.6 564.5,-64.04 568.5,-64 568.5,-64 568.5,-64 564.5,-64.04 568.46,-60.4 560.5,-64.08 560.5,-64.08"/>
<ellipse fill="none" stroke="black" cx="557.3" cy="-64.11" rx="3.2" ry="3.2"/>
</g>
<!-- withdrawals -->
<g id="node13" class="node">
<title>withdrawals</title>
<g id="a_node13"><a xlink:href="../../tables/withdrawals.html" xlink:title="withdrawals" target="_top">
<polygon fill="#ffffff" stroke="transparent" points="218.5,-60 218.5,-118 354.5,-118 354.5,-60 218.5,-60"/>
<polygon fill="#f5f5f5" stroke="transparent" points="218.5,-96 218.5,-118 354.5,-118 354.5,-96 218.5,-96"/>
<polygon fill="none" stroke="black" points="218.5,-96 218.5,-118 354.5,-118 354.5,-96 218.5,-96"/>
<text text-anchor="start" x="223.5" y="-105.2" font-family="Helvetica,sans-Serif" font-weight="bold" font-size="11.00">withdrawals</text>
<text text-anchor="start" x="312.5" y="-104.2" font-family="Helvetica,sans-Serif" font-size="11.00">[table]</text>
<polygon fill="none" stroke="black" points="218.5,-78 218.5,-96 354.5,-96 354.5,-78 218.5,-78"/>
<text text-anchor="start" x="221.5" y="-84.2" font-family="Helvetica,sans-Serif" font-size="11.00">...</text>
<polygon fill="#ffffff" stroke="transparent" points="218.5,-60 218.5,-78 354.5,-78 354.5,-60 218.5,-60"/>
<polygon fill="none" stroke="black" points="218.5,-60 218.5,-78 354.5,-78 354.5,-60 218.5,-60"/>
<polygon fill="#ffffff" stroke="transparent" points="219.5,-61 219.5,-77 272.5,-77 272.5,-61 219.5,-61"/>
<text text-anchor="start" x="221.5" y="-66.2" font-family="Helvetica,sans-Serif" font-size="11.00">&lt; 1</text>
<polygon fill="#ffffff" stroke="transparent" points="272.5,-61 272.5,-77 313.5,-77 313.5,-61 272.5,-61"/>
<text text-anchor="start" x="289" y="-66.2" font-family="Helvetica,sans-Serif" font-size="11.00"> &#160;</text>
<polygon fill="#ffffff" stroke="transparent" points="313.5,-61 313.5,-77 353.5,-77 353.5,-61 313.5,-61"/>
<text text-anchor="start" x="343.5" y="-66.2" font-family="Helvetica,sans-Serif" font-size="11.00"> &#160;</text>
<polygon fill="black" stroke="black" points="272.5,-61 272.5,-77 272.5,-77 272.5,-61 272.5,-61"/>
<polygon fill="black" stroke="black" points="313.5,-61 313.5,-77 313.5,-77 313.5,-61 313.5,-61"/>
</a>
</g>
</g>
<!-- withdrawals&#45;&gt;blocks -->
<g id="edge16" class="edge">
<title>withdrawals:w&#45;&gt;blocks:e</title>
<path fill="none" stroke="black" d="M202.71,-88.13C122.87,-100.44 80.64,-210.78 64.04,-267.56"/>
<polygon fill="black" stroke="black" points="209.52,-87.61 217.77,-90.59 213.51,-87.3 217.5,-87 217.5,-87 217.5,-87 213.51,-87.3 217.23,-83.41 209.52,-87.61 209.52,-87.61"/>
<ellipse fill="none" stroke="black" cx="206.33" cy="-87.85" rx="3.2" ry="3.2"/>
</g>
</g>
</svg>
