<?xml version="1.0" encoding="UTF-8" standalone="no"?>
<!DOCTYPE svg PUBLIC "-//W3C//DTD SVG 1.1//EN"
 "http://www.w3.org/Graphics/SVG/1.1/DTD/svg11.dtd">
<!-- Generated by graphviz version 2.43.0 (0)
 -->
<!-- Title: oneDegreeRelationshipsDiagramImplied Pages: 1 -->
<svg width="587pt" height="593pt"
 viewBox="0.00 0.00 587.00 593.00" xmlns="http://www.w3.org/2000/svg" xmlns:xlink="http://www.w3.org/1999/xlink">
<g id="graph0" class="graph" transform="scale(1 1) rotate(0) translate(4 589)">
<title>oneDegreeRelationshipsDiagramImplied</title>
<polygon fill="#ffffff" stroke="transparent" points="-4,4 -4,-589 583,-589 583,4 -4,4"/>
<text text-anchor="middle" x="79.5" y="-7.2" font-family="Helvetica,sans-Serif" font-size="11.00">Generated by SchemaSpy</text>
<!-- internal_transactions_bkp_latest -->
<g id="node1" class="node">
<title>internal_transactions_bkp_latest</title>
<g id="a_node1"><a xlink:href="../../tables/internal_transactions_bkp_latest.html" xlink:title="internal_transactions_bkp_latest" target="_top">
<polygon fill="#ffffff" stroke="transparent" points="193,-53 193,-581 571,-581 571,-53 193,-53"/>
<polygon fill="#f5f5f5" stroke="transparent" points="195,-557 195,-579 569,-579 569,-557 195,-557"/>
<polygon fill="none" stroke="black" points="195,-557 195,-579 569,-579 569,-557 195,-557"/>
<text text-anchor="start" x="200" y="-566.2" font-family="Helvetica,sans-Serif" font-weight="bold" font-size="11.00">internal_transactions_bkp_latest</text>
<text text-anchor="start" x="527" y="-565.2" font-family="Helvetica,sans-Serif" font-size="11.00">[table]</text>
<polygon fill="none" stroke="black" points="195,-535 195,-557 454,-557 454,-535 195,-535"/>
<text text-anchor="start" x="215" y="-543.2" font-family="Helvetica,sans-Serif" font-size="11.00">call_type</text>
<polygon fill="none" stroke="black" points="454,-535 454,-557 569,-557 569,-535 454,-535"/>
<text text-anchor="start" x="457" y="-543.2" font-family="Helvetica,sans-Serif" font-size="11.00">varchar[255]</text>
<polygon fill="none" stroke="black" points="195,-513 195,-535 454,-535 454,-513 195,-513"/>
<text text-anchor="start" x="215" y="-521.2" font-family="Helvetica,sans-Serif" font-size="11.00">created_contract_code</text>
<polygon fill="none" stroke="black" points="454,-513 454,-535 569,-535 569,-513 454,-513"/>
<text text-anchor="start" x="457" y="-521.2" font-family="Helvetica,sans-Serif" font-size="11.00">bytea[2147483647]</text>
<polygon fill="none" stroke="black" points="195,-491 195,-513 454,-513 454,-491 195,-491"/>
<text text-anchor="start" x="215" y="-499.2" font-family="Helvetica,sans-Serif" font-size="11.00">error</text>
<polygon fill="none" stroke="black" points="454,-491 454,-513 569,-513 569,-491 454,-491"/>
<text text-anchor="start" x="457" y="-499.2" font-family="Helvetica,sans-Serif" font-size="11.00">varchar[255]</text>
<polygon fill="none" stroke="black" points="195,-469 195,-491 454,-491 454,-469 195,-469"/>
<text text-anchor="start" x="215" y="-477.2" font-family="Helvetica,sans-Serif" font-size="11.00">gas</text>
<polygon fill="none" stroke="black" points="454,-469 454,-491 569,-491 569,-469 454,-469"/>
<text text-anchor="start" x="457" y="-477.2" font-family="Helvetica,sans-Serif" font-size="11.00">numeric[100]</text>
<polygon fill="none" stroke="black" points="195,-447 195,-469 454,-469 454,-447 195,-447"/>
<text text-anchor="start" x="215" y="-455.2" font-family="Helvetica,sans-Serif" font-size="11.00">gas_used</text>
<polygon fill="none" stroke="black" points="454,-447 454,-469 569,-469 569,-447 454,-447"/>
<text text-anchor="start" x="457" y="-455.2" font-family="Helvetica,sans-Serif" font-size="11.00">numeric[100]</text>
<polygon fill="none" stroke="black" points="195,-425 195,-447 454,-447 454,-425 195,-425"/>
<image xlink:href="../../images/foreignKeys.png" width="11px" height="12px" preserveAspectRatio="xMinYMin meet" x="200" y="-442"/>
<text text-anchor="start" x="215" y="-433.2" font-family="Helvetica,sans-Serif" font-size="11.00">index</text>
<polygon fill="none" stroke="black" points="454,-425 454,-447 569,-447 569,-425 454,-425"/>
<text text-anchor="start" x="457" y="-433.2" font-family="Helvetica,sans-Serif" font-size="11.00">int4[10]</text>
<polygon fill="none" stroke="black" points="195,-403 195,-425 454,-425 454,-403 195,-403"/>
<text text-anchor="start" x="215" y="-411.2" font-family="Helvetica,sans-Serif" font-size="11.00">init</text>
<polygon fill="none" stroke="black" points="454,-403 454,-425 569,-425 569,-403 454,-403"/>
<text text-anchor="start" x="457" y="-411.2" font-family="Helvetica,sans-Serif" font-size="11.00">bytea[2147483647]</text>
<polygon fill="none" stroke="black" points="195,-381 195,-403 454,-403 454,-381 195,-381"/>
<text text-anchor="start" x="215" y="-389.2" font-family="Helvetica,sans-Serif" font-size="11.00">input</text>
<polygon fill="none" stroke="black" points="454,-381 454,-403 569,-403 569,-381 454,-381"/>
<text text-anchor="start" x="457" y="-389.2" font-family="Helvetica,sans-Serif" font-size="11.00">bytea[2147483647]</text>
<polygon fill="none" stroke="black" points="195,-359 195,-381 454,-381 454,-359 195,-359"/>
<text text-anchor="start" x="215" y="-367.2" font-family="Helvetica,sans-Serif" font-size="11.00">output</text>
<polygon fill="none" stroke="black" points="454,-359 454,-381 569,-381 569,-359 454,-359"/>
<text text-anchor="start" x="457" y="-367.2" font-family="Helvetica,sans-Serif" font-size="11.00">bytea[2147483647]</text>
<polygon fill="none" stroke="black" points="195,-337 195,-359 454,-359 454,-337 195,-337"/>
<text text-anchor="start" x="215" y="-345.2" font-family="Helvetica,sans-Serif" font-size="11.00">trace_address</text>
<polygon fill="none" stroke="black" points="454,-337 454,-359 569,-359 569,-337 454,-337"/>
<text text-anchor="start" x="457" y="-345.2" font-family="Helvetica,sans-Serif" font-size="11.00">_int4[10]</text>
<polygon fill="none" stroke="black" points="195,-315 195,-337 454,-337 454,-315 195,-315"/>
<text text-anchor="start" x="215" y="-323.2" font-family="Helvetica,sans-Serif" font-size="11.00">type</text>
<polygon fill="none" stroke="black" points="454,-315 454,-337 569,-337 569,-315 454,-315"/>
<text text-anchor="start" x="457" y="-323.2" font-family="Helvetica,sans-Serif" font-size="11.00">varchar[255]</text>
<polygon fill="none" stroke="black" points="195,-293 195,-315 454,-315 454,-293 195,-293"/>
<text text-anchor="start" x="215" y="-301.2" font-family="Helvetica,sans-Serif" font-size="11.00">value</text>
<polygon fill="none" stroke="black" points="454,-293 454,-315 569,-315 569,-293 454,-293"/>
<text text-anchor="start" x="457" y="-301.2" font-family="Helvetica,sans-Serif" font-size="11.00">numeric[100]</text>
<polygon fill="none" stroke="black" points="195,-271 195,-293 454,-293 454,-271 195,-271"/>
<text text-anchor="start" x="215" y="-279.2" font-family="Helvetica,sans-Serif" font-size="11.00">inserted_at</text>
<polygon fill="none" stroke="black" points="454,-271 454,-293 569,-293 569,-271 454,-271"/>
<text text-anchor="start" x="457" y="-279.2" font-family="Helvetica,sans-Serif" font-size="11.00">timestamp[29,6]</text>
<polygon fill="none" stroke="black" points="195,-249 195,-271 454,-271 454,-249 195,-249"/>
<text text-anchor="start" x="215" y="-257.2" font-family="Helvetica,sans-Serif" font-size="11.00">updated_at</text>
<polygon fill="none" stroke="black" points="454,-249 454,-271 569,-271 569,-249 454,-249"/>
<text text-anchor="start" x="457" y="-257.2" font-family="Helvetica,sans-Serif" font-size="11.00">timestamp[29,6]</text>
<polygon fill="none" stroke="black" points="195,-227 195,-249 454,-249 454,-227 195,-227"/>
<text text-anchor="start" x="215" y="-235.2" font-family="Helvetica,sans-Serif" font-size="11.00">created_contract_address_hash</text>
<polygon fill="none" stroke="black" points="454,-227 454,-249 569,-249 569,-227 454,-227"/>
<text text-anchor="start" x="457" y="-235.2" font-family="Helvetica,sans-Serif" font-size="11.00">bytea[2147483647]</text>
<polygon fill="none" stroke="black" points="195,-205 195,-227 454,-227 454,-205 195,-205"/>
<text text-anchor="start" x="215" y="-213.2" font-family="Helvetica,sans-Serif" font-size="11.00">from_address_hash</text>
<polygon fill="none" stroke="black" points="454,-205 454,-227 569,-227 569,-205 454,-205"/>
<text text-anchor="start" x="457" y="-213.2" font-family="Helvetica,sans-Serif" font-size="11.00">bytea[2147483647]</text>
<polygon fill="none" stroke="black" points="195,-183 195,-205 454,-205 454,-183 195,-183"/>
<text text-anchor="start" x="215" y="-191.2" font-family="Helvetica,sans-Serif" font-size="11.00">to_address_hash</text>
<polygon fill="none" stroke="black" points="454,-183 454,-205 569,-205 569,-183 454,-183"/>
<text text-anchor="start" x="457" y="-191.2" font-family="Helvetica,sans-Serif" font-size="11.00">bytea[2147483647]</text>
<polygon fill="none" stroke="black" points="195,-161 195,-183 454,-183 454,-161 195,-161"/>
<text text-anchor="start" x="215" y="-169.2" font-family="Helvetica,sans-Serif" font-size="11.00">transaction_hash</text>
<polygon fill="none" stroke="black" points="454,-161 454,-183 569,-183 569,-161 454,-161"/>
<text text-anchor="start" x="457" y="-169.2" font-family="Helvetica,sans-Serif" font-size="11.00">bytea[2147483647]</text>
<polygon fill="none" stroke="black" points="195,-139 195,-161 454,-161 454,-139 195,-139"/>
<text text-anchor="start" x="215" y="-147.2" font-family="Helvetica,sans-Serif" font-size="11.00">block_number</text>
<polygon fill="none" stroke="black" points="454,-139 454,-161 569,-161 569,-139 454,-139"/>
<text text-anchor="start" x="457" y="-147.2" font-family="Helvetica,sans-Serif" font-size="11.00">int4[10]</text>
<polygon fill="none" stroke="black" points="195,-117 195,-139 454,-139 454,-117 195,-117"/>
<image xlink:href="../../images/foreignKeys.png" width="11px" height="12px" preserveAspectRatio="xMinYMin meet" x="200" y="-134"/>
<text text-anchor="start" x="215" y="-125.2" font-family="Helvetica,sans-Serif" font-size="11.00">transaction_index</text>
<polygon fill="none" stroke="black" points="454,-117 454,-139 569,-139 569,-117 454,-117"/>
<text text-anchor="start" x="457" y="-125.2" font-family="Helvetica,sans-Serif" font-size="11.00">int4[10]</text>
<polygon fill="none" stroke="black" points="195,-95 195,-117 454,-117 454,-95 195,-95"/>
<text text-anchor="start" x="215" y="-103.2" font-family="Helvetica,sans-Serif" font-size="11.00">block_hash</text>
<polygon fill="none" stroke="black" points="454,-95 454,-117 569,-117 569,-95 454,-95"/>
<text text-anchor="start" x="457" y="-103.2" font-family="Helvetica,sans-Serif" font-size="11.00">bytea[2147483647]</text>
<polygon fill="none" stroke="black" points="195,-73 195,-95 454,-95 454,-73 195,-73"/>
<image xlink:href="../../images/foreignKeys.png" width="11px" height="12px" preserveAspectRatio="xMinYMin meet" x="200" y="-90"/>
<text text-anchor="start" x="215" y="-81.2" font-family="Helvetica,sans-Serif" font-size="11.00">block_index</text>
<polygon fill="none" stroke="black" points="454,-73 454,-95 569,-95 569,-73 454,-73"/>
<text text-anchor="start" x="457" y="-81.2" font-family="Helvetica,sans-Serif" font-size="11.00">int4[10]</text>
<polygon fill="#ffffff" stroke="transparent" points="195,-55 195,-73 569,-73 569,-55 195,-55"/>
<polygon fill="none" stroke="black" points="195,-55 195,-73 569,-73 569,-55 195,-55"/>
<polygon fill="#ffffff" stroke="transparent" points="196,-56 196,-72 302,-72 302,-56 196,-56"/>
<text text-anchor="start" x="198" y="-61.2" font-family="Helvetica,sans-Serif" font-size="11.00">&lt; 3</text>
<polygon fill="#ffffff" stroke="transparent" points="302,-56 302,-72 463,-72 463,-56 302,-56"/>
<text text-anchor="start" x="345" y="-61.2" font-family="Helvetica,sans-Serif" font-size="11.00">626,527 rows</text>
<polygon fill="#ffffff" stroke="transparent" points="463,-56 463,-72 568,-72 568,-56 463,-56"/>
<text text-anchor="start" x="546" y="-61.2" font-family="Helvetica,sans-Serif" font-size="11.00">0 &gt;</text>
<polygon fill="black" stroke="black" points="302,-56 302,-72 302,-72 302,-56 302,-56"/>
<polygon fill="black" stroke="black" points="463,-56 463,-72 463,-72 463,-56 463,-56"/>
<polygon fill="none" stroke="black" stroke-width="2" points="194,-54 194,-580 570,-580 570,-54 194,-54"/>
</a>
</g>
</g>
<!-- withdrawals -->
<g id="node2" class="node">
<title>withdrawals</title>
<g id="a_node2"><a xlink:href="../../tables/withdrawals.html" xlink:title="withdrawals" target="_top">
<polygon fill="#ffffff" stroke="transparent" points="8,-37 8,-161 144,-161 144,-37 8,-37"/>
<polygon fill="#f5f5f5" stroke="transparent" points="8,-139 8,-161 144,-161 144,-139 8,-139"/>
<polygon fill="none" stroke="black" points="8,-139 8,-161 144,-161 144,-139 8,-139"/>
<text text-anchor="start" x="13" y="-148.2" font-family="Helvetica,sans-Serif" font-weight="bold" font-size="11.00">withdrawals</text>
<text text-anchor="start" x="102" y="-147.2" font-family="Helvetica,sans-Serif" font-size="11.00">[table]</text>
<polygon fill="none" stroke="black" points="8,-117 8,-139 144,-139 144,-117 8,-117"/>
<image xlink:href="../../images/primaryKeys.png" width="11px" height="12px" preserveAspectRatio="xMinYMin meet" x="13" y="-134"/>
<text text-anchor="start" x="30" y="-125.2" font-family="Helvetica,sans-Serif" font-size="11.00">index</text>
<polygon fill="#ffffff" stroke="transparent" points="8,-95 8,-117 144,-117 144,-95 8,-95"/>
<polygon fill="none" stroke="black" points="8,-95 8,-117 144,-117 144,-95 8,-95"/>
<text text-anchor="start" x="30" y="-103.2" font-family="Helvetica,sans-Serif" font-size="11.00">address_hash</text>
<polygon fill="#ffffff" stroke="transparent" points="8,-73 8,-95 144,-95 144,-73 8,-73"/>
<polygon fill="none" stroke="black" points="8,-73 8,-95 144,-95 144,-73 8,-73"/>
<image xlink:href="../../images/foreignKeys.png" width="11px" height="12px" preserveAspectRatio="xMinYMin meet" x="13" y="-90"/>
<text text-anchor="start" x="30" y="-81.2" font-family="Helvetica,sans-Serif" font-size="11.00">block_hash</text>
<polygon fill="none" stroke="black" points="8,-55 8,-73 144,-73 144,-55 8,-55"/>
<text text-anchor="start" x="11" y="-61.2" font-family="Helvetica,sans-Serif" font-size="11.00">...</text>
<polygon fill="#ffffff" stroke="transparent" points="8,-37 8,-55 144,-55 144,-37 8,-37"/>
<polygon fill="none" stroke="black" points="8,-37 8,-55 144,-55 144,-37 8,-37"/>
<polygon fill="#ffffff" stroke="transparent" points="9,-38 9,-54 33,-54 33,-38 9,-38"/>
<text text-anchor="start" x="11" y="-43.2" font-family="Helvetica,sans-Serif" font-size="11.00">&lt; 1</text>
<polygon fill="#ffffff" stroke="transparent" points="33,-38 33,-54 112,-54 112,-38 33,-38"/>
<text text-anchor="start" x="35" y="-43.2" font-family="Helvetica,sans-Serif" font-size="11.00">552,138 rows</text>
<polygon fill="#ffffff" stroke="transparent" points="112,-38 112,-54 143,-54 143,-38 112,-38"/>
<text text-anchor="start" x="114" y="-43.2" font-family="Helvetica,sans-Serif" font-size="11.00">13 &gt;</text>
<polygon fill="black" stroke="black" points="33,-38 33,-54 33,-54 33,-38 33,-38"/>
<polygon fill="black" stroke="black" points="112,-38 112,-54 112,-54 112,-38 112,-38"/>
</a>
</g>
</g>
<!-- internal_transactions_bkp_latest&#45;&gt;withdrawals -->
<g id="edge1" class="edge">
<title>internal_transactions_bkp_latest:w&#45;&gt;withdrawals:e</title>
<path fill="none" stroke="black" stroke-dasharray="5,2" d="M180.32,-88.71C167,-100.06 168.32,-128 145,-128"/>
<polygon fill="black" stroke="black" points="186.44,-86.6 195.17,-87.4 190.22,-85.3 194,-84 194,-84 194,-84 190.22,-85.3 192.83,-80.6 186.44,-86.6 186.44,-86.6"/>
<ellipse fill="none" stroke="black" cx="183.41" cy="-87.64" rx="3.2" ry="3.2"/>
</g>
<!-- internal_transactions_bkp_latest&#45;&gt;withdrawals -->
<g id="edge2" class="edge">
<title>internal_transactions_bkp_latest:w&#45;&gt;withdrawals:e</title>
<path fill="none" stroke="black" stroke-dasharray="5,2" d="M179.39,-434.63C72.66,-412.41 278.2,-128 145,-128"/>
<polygon fill="black" stroke="black" points="186.04,-435.25 193.66,-439.58 190.02,-435.63 194,-436 194,-436 194,-436 190.02,-435.63 194.34,-432.42 186.04,-435.25 186.04,-435.25"/>
<ellipse fill="none" stroke="black" cx="182.85" cy="-434.95" rx="3.2" ry="3.2"/>
</g>
<!-- internal_transactions_bkp_latest&#45;&gt;withdrawals -->
<g id="edge3" class="edge">
<title>internal_transactions_bkp_latest:w&#45;&gt;withdrawals:e</title>
<path fill="none" stroke="black" stroke-dasharray="5,2" d="M179.49,-128C168.18,-128 160.99,-128 145,-128"/>
<polygon fill="black" stroke="black" points="186,-128 194,-131.6 190,-128 194,-128 194,-128 194,-128 190,-128 194,-124.4 186,-128 186,-128"/>
<ellipse fill="none" stroke="black" cx="182.8" cy="-128" rx="3.2" ry="3.2"/>
</g>
</g>
</svg>
