<?xml version="1.0" encoding="UTF-8" standalone="no"?>
<!DOCTYPE svg PUBLIC "-//W3C//DTD SVG 1.1//EN"
 "http://www.w3.org/Graphics/SVG/1.1/DTD/svg11.dtd">
<!-- Generated by graphviz version 9.0.0 (20230911.1827)
 -->
<!-- Title: twoDegreesRelationshipsDiagram Pages: 1 -->
<svg width="727pt" height="923pt"
 viewBox="0.00 0.00 727.00 923.00" xmlns="http://www.w3.org/2000/svg" xmlns:xlink="http://www.w3.org/1999/xlink">
<g id="graph0" class="graph" transform="scale(1 1) rotate(0) translate(4 919)">
<title>twoDegreesRelationshipsDiagram</title>
<polygon fill="#ffffff" stroke="none" points="-4,4 -4,-919 723,-919 723,4 -4,4"/>
<text text-anchor="middle" x="71.38" y="-5.55" font-family="Helvetica,sans-Serif" font-size="11.00">Generated by SchemaSpy</text>
<!-- block_rewards -->
<g id="node1" class="node">
<title>block_rewards</title>
<g id="a_node1"><a xlink:href="../../tables/block_rewards.html" xlink:title="block_rewards" target="_top">
<polygon fill="#ffffff" stroke="none" points="183,-461 183,-519 306,-519 306,-461 183,-461"/>
<polygon fill="#f5f5f5" stroke="none" points="183,-497 183,-519 306,-519 306,-497 183,-497"/>
<polygon fill="none" stroke="black" points="183,-497 183,-519 306,-519 306,-497 183,-497"/>
<text text-anchor="start" x="188" y="-504.55" font-family="Helvetica,sans-Serif" font-weight="bold" font-size="11.00">block_rewards</text>
<text text-anchor="start" x="272" y="-503.55" font-family="Helvetica,sans-Serif" font-size="11.00">[table]</text>
<polygon fill="none" stroke="black" points="183,-479 183,-497 306,-497 306,-479 183,-479"/>
<text text-anchor="start" x="186" y="-483.55" font-family="Helvetica,sans-Serif" font-size="11.00">...</text>
<polygon fill="#ffffff" stroke="none" points="183,-461 183,-479 243,-479 243,-461 183,-461"/>
<polygon fill="none" stroke="black" points="183,-461 183,-479 243,-479 243,-461 183,-461"/>
<text text-anchor="start" x="186" y="-465.55" font-family="Helvetica,sans-Serif" font-size="11.00">&lt; 1</text>
<polygon fill="#ffffff" stroke="none" points="243,-461 243,-479 274,-479 274,-461 243,-461"/>
<polygon fill="none" stroke="black" points="243,-461 243,-479 274,-479 274,-461 243,-461"/>
<text text-anchor="start" x="265" y="-465.55" font-family="Helvetica,sans-Serif" font-size="11.00"> &#160;</text>
<polygon fill="#ffffff" stroke="none" points="274,-461 274,-479 306,-479 306,-461 274,-461"/>
<polygon fill="none" stroke="black" points="274,-461 274,-479 306,-479 306,-461 274,-461"/>
<text text-anchor="start" x="297" y="-465.55" font-family="Helvetica,sans-Serif" font-size="11.00"> &#160;</text>
</a>
</g>
</g>
<!-- blocks -->
<g id="node2" class="node">
<title>blocks</title>
<g id="a_node2"><a xlink:href="../../tables/blocks.html" xlink:title="blocks" target="_top">
<polygon fill="#ffffff" stroke="none" points="8,-249 8,-307 85,-307 85,-249 8,-249"/>
<polygon fill="#f5f5f5" stroke="none" points="8,-285 8,-307 85,-307 85,-285 8,-285"/>
<polygon fill="none" stroke="black" points="8,-285 8,-307 85,-307 85,-285 8,-285"/>
<text text-anchor="start" x="12.75" y="-292.55" font-family="Helvetica,sans-Serif" font-weight="bold" font-size="11.00">blocks</text>
<text text-anchor="start" x="51" y="-291.55" font-family="Helvetica,sans-Serif" font-size="11.00">[table]</text>
<polygon fill="none" stroke="black" points="8,-267 8,-285 85,-285 85,-267 8,-267"/>
<text text-anchor="start" x="11" y="-271.55" font-family="Helvetica,sans-Serif" font-size="11.00">...</text>
<polygon fill="#ffffff" stroke="none" points="8,-249 8,-267 36,-267 36,-249 8,-249"/>
<polygon fill="none" stroke="black" points="8,-249 8,-267 36,-267 36,-249 8,-249"/>
<text text-anchor="start" x="11" y="-253.55" font-family="Helvetica,sans-Serif" font-size="11.00"> &#160;</text>
<polygon fill="#ffffff" stroke="none" points="36,-249 36,-267 56,-267 56,-249 36,-249"/>
<polygon fill="none" stroke="black" points="36,-249 36,-267 56,-267 56,-249 36,-249"/>
<text text-anchor="start" x="47" y="-253.55" font-family="Helvetica,sans-Serif" font-size="11.00"> &#160;</text>
<polygon fill="#ffffff" stroke="none" points="56,-249 56,-267 85,-267 85,-249 56,-249"/>
<polygon fill="none" stroke="black" points="56,-249 56,-267 85,-267 85,-249 56,-249"/>
<text text-anchor="start" x="66.25" y="-253.55" font-family="Helvetica,sans-Serif" font-size="11.00">9 &gt;</text>
</a>
</g>
</g>
<!-- block_rewards&#45;&gt;blocks -->
<g id="edge1" class="edge">
<title>block_rewards:w&#45;&gt;blocks:e</title>
<path fill="none" stroke="black" d="M166.05,-486.58C94.19,-473.02 63.85,-366.07 52.87,-310.81"/>
<polygon fill="black" stroke="black" points="173.2,-487.23 180.84,-491.55 177.52,-487.63 180.83,-487.94 180.83,-487.94 180.83,-487.94 177.52,-487.63 181.5,-484.38 173.2,-487.23"/>
<ellipse fill="none" stroke="black" cx="168.3" cy="-486.78" rx="3.2" ry="3.2"/>
</g>
<!-- block_second_degree_relations -->
<g id="node3" class="node">
<title>block_second_degree_relations</title>
<g id="a_node3"><a xlink:href="../../tables/block_second_degree_relations.html" xlink:title="block_second_degree_relations" target="_top">
<polygon fill="#ffffff" stroke="none" points="134,-382 134,-440 355,-440 355,-382 134,-382"/>
<polygon fill="#f5f5f5" stroke="none" points="134,-418 134,-440 355,-440 355,-418 134,-418"/>
<polygon fill="none" stroke="black" points="134,-418 134,-440 355,-440 355,-418 134,-418"/>
<text text-anchor="start" x="139" y="-425.55" font-family="Helvetica,sans-Serif" font-weight="bold" font-size="11.00">block_second_degree_relations</text>
<text text-anchor="start" x="321" y="-424.55" font-family="Helvetica,sans-Serif" font-size="11.00">[table]</text>
<polygon fill="none" stroke="black" points="134,-400 134,-418 355,-418 355,-400 134,-400"/>
<text text-anchor="start" x="137" y="-404.55" font-family="Helvetica,sans-Serif" font-size="11.00">...</text>
<polygon fill="#ffffff" stroke="none" points="134,-382 134,-400 243,-400 243,-382 134,-382"/>
<polygon fill="none" stroke="black" points="134,-382 134,-400 243,-400 243,-382 134,-382"/>
<text text-anchor="start" x="137" y="-386.55" font-family="Helvetica,sans-Serif" font-size="11.00">&lt; 1</text>
<polygon fill="#ffffff" stroke="none" points="243,-382 243,-400 299,-400 299,-382 243,-382"/>
<polygon fill="none" stroke="black" points="243,-382 243,-400 299,-400 299,-382 243,-382"/>
<text text-anchor="start" x="290" y="-386.55" font-family="Helvetica,sans-Serif" font-size="11.00"> &#160;</text>
<polygon fill="#ffffff" stroke="none" points="299,-382 299,-400 355,-400 355,-382 299,-382"/>
<polygon fill="none" stroke="black" points="299,-382 299,-400 355,-400 355,-382 299,-382"/>
<text text-anchor="start" x="346" y="-386.55" font-family="Helvetica,sans-Serif" font-size="11.00"> &#160;</text>
</a>
</g>
</g>
<!-- block_second_degree_relations&#45;&gt;blocks -->
<g id="edge2" class="edge">
<title>block_second_degree_relations:w&#45;&gt;blocks:e</title>
<path fill="none" stroke="black" d="M117.05,-406.68C80.67,-395.34 62.27,-344.97 53.8,-310.72"/>
<polygon fill="black" stroke="black" points="124.26,-407.76 131.63,-412.51 128.54,-408.41 131.84,-408.9 131.84,-408.9 131.84,-408.9 128.54,-408.41 132.7,-405.39 124.26,-407.76"/>
<ellipse fill="none" stroke="black" cx="119.39" cy="-407.03" rx="3.2" ry="3.2"/>
</g>
<!-- internal_transactions -->
<g id="node4" class="node">
<title>internal_transactions</title>
<g id="a_node4"><a xlink:href="../../tables/internal_transactions.html" xlink:title="internal_transactions" target="_top">
<polygon fill="#ffffff" stroke="none" points="404,-383 404,-911 711,-911 711,-383 404,-383"/>
<polygon fill="#f5f5f5" stroke="none" points="406,-887 406,-909 709,-909 709,-887 406,-887"/>
<polygon fill="none" stroke="black" points="406,-887 406,-909 709,-909 709,-887 406,-887"/>
<text text-anchor="start" x="411" y="-894.55" font-family="Helvetica,sans-Serif" font-weight="bold" font-size="11.00">internal_transactions</text>
<text text-anchor="start" x="674.75" y="-893.55" font-family="Helvetica,sans-Serif" font-size="11.00">[table]</text>
<polygon fill="none" stroke="black" points="406,-865 406,-887 611,-887 611,-865 406,-865"/>
<text text-anchor="start" x="426" y="-871.55" font-family="Helvetica,sans-Serif" font-size="11.00">call_type</text>
<polygon fill="none" stroke="black" points="611,-865 611,-887 709,-887 709,-865 611,-865"/>
<text text-anchor="start" x="614" y="-871.55" font-family="Helvetica,sans-Serif" font-size="11.00">varchar[255]</text>
<polygon fill="none" stroke="black" points="406,-843 406,-865 611,-865 611,-843 406,-843"/>
<text text-anchor="start" x="426" y="-849.55" font-family="Helvetica,sans-Serif" font-size="11.00">created_contract_code</text>
<polygon fill="none" stroke="black" points="611,-843 611,-865 709,-865 709,-843 611,-843"/>
<text text-anchor="start" x="613.88" y="-849.55" font-family="Helvetica,sans-Serif" font-size="11.00">bytea[2147483647]</text>
<polygon fill="none" stroke="black" points="406,-821 406,-843 611,-843 611,-821 406,-821"/>
<text text-anchor="start" x="426" y="-827.55" font-family="Helvetica,sans-Serif" font-size="11.00">error</text>
<polygon fill="none" stroke="black" points="611,-821 611,-843 709,-843 709,-821 611,-821"/>
<text text-anchor="start" x="614" y="-827.55" font-family="Helvetica,sans-Serif" font-size="11.00">varchar[255]</text>
<polygon fill="none" stroke="black" points="406,-799 406,-821 611,-821 611,-799 406,-799"/>
<text text-anchor="start" x="426" y="-805.55" font-family="Helvetica,sans-Serif" font-size="11.00">gas</text>
<polygon fill="none" stroke="black" points="611,-799 611,-821 709,-821 709,-799 611,-799"/>
<text text-anchor="start" x="614" y="-805.55" font-family="Helvetica,sans-Serif" font-size="11.00">numeric[100]</text>
<polygon fill="none" stroke="black" points="406,-777 406,-799 611,-799 611,-777 406,-777"/>
<text text-anchor="start" x="426" y="-783.55" font-family="Helvetica,sans-Serif" font-size="11.00">gas_used</text>
<polygon fill="none" stroke="black" points="611,-777 611,-799 709,-799 709,-777 611,-777"/>
<text text-anchor="start" x="614" y="-783.55" font-family="Helvetica,sans-Serif" font-size="11.00">numeric[100]</text>
<polygon fill="#ffffff" stroke="none" points="406,-755 406,-777 611,-777 611,-755 406,-755"/>
<polygon fill="none" stroke="black" points="406,-755 406,-777 611,-777 611,-755 406,-755"/>
<image xlink:href="../../images/foreignKeys.png" width="11px" height="12px" preserveAspectRatio="xMinYMin meet" x="411" y="-772"/>
<text text-anchor="start" x="426" y="-761.55" font-family="Helvetica,sans-Serif" font-size="11.00">index</text>
<polygon fill="none" stroke="black" points="611,-755 611,-777 709,-777 709,-755 611,-755"/>
<text text-anchor="start" x="614" y="-761.55" font-family="Helvetica,sans-Serif" font-size="11.00">int4[10]</text>
<polygon fill="none" stroke="black" points="406,-733 406,-755 611,-755 611,-733 406,-733"/>
<text text-anchor="start" x="426" y="-739.55" font-family="Helvetica,sans-Serif" font-size="11.00">init</text>
<polygon fill="none" stroke="black" points="611,-733 611,-755 709,-755 709,-733 611,-733"/>
<text text-anchor="start" x="613.88" y="-739.55" font-family="Helvetica,sans-Serif" font-size="11.00">bytea[2147483647]</text>
<polygon fill="none" stroke="black" points="406,-711 406,-733 611,-733 611,-711 406,-711"/>
<text text-anchor="start" x="426" y="-717.55" font-family="Helvetica,sans-Serif" font-size="11.00">input</text>
<polygon fill="none" stroke="black" points="611,-711 611,-733 709,-733 709,-711 611,-711"/>
<text text-anchor="start" x="613.88" y="-717.55" font-family="Helvetica,sans-Serif" font-size="11.00">bytea[2147483647]</text>
<polygon fill="none" stroke="black" points="406,-689 406,-711 611,-711 611,-689 406,-689"/>
<text text-anchor="start" x="426" y="-695.55" font-family="Helvetica,sans-Serif" font-size="11.00">output</text>
<polygon fill="none" stroke="black" points="611,-689 611,-711 709,-711 709,-689 611,-689"/>
<text text-anchor="start" x="613.88" y="-695.55" font-family="Helvetica,sans-Serif" font-size="11.00">bytea[2147483647]</text>
<polygon fill="none" stroke="black" points="406,-667 406,-689 611,-689 611,-667 406,-667"/>
<text text-anchor="start" x="426" y="-673.55" font-family="Helvetica,sans-Serif" font-size="11.00">trace_address</text>
<polygon fill="none" stroke="black" points="611,-667 611,-689 709,-689 709,-667 611,-667"/>
<text text-anchor="start" x="614" y="-673.55" font-family="Helvetica,sans-Serif" font-size="11.00">_int4[10]</text>
<polygon fill="none" stroke="black" points="406,-645 406,-667 611,-667 611,-645 406,-645"/>
<text text-anchor="start" x="426" y="-651.55" font-family="Helvetica,sans-Serif" font-size="11.00">type</text>
<polygon fill="none" stroke="black" points="611,-645 611,-667 709,-667 709,-645 611,-645"/>
<text text-anchor="start" x="614" y="-651.55" font-family="Helvetica,sans-Serif" font-size="11.00">varchar[255]</text>
<polygon fill="none" stroke="black" points="406,-623 406,-645 611,-645 611,-623 406,-623"/>
<text text-anchor="start" x="426" y="-629.55" font-family="Helvetica,sans-Serif" font-size="11.00">value</text>
<polygon fill="none" stroke="black" points="611,-623 611,-645 709,-645 709,-623 611,-623"/>
<text text-anchor="start" x="614" y="-629.55" font-family="Helvetica,sans-Serif" font-size="11.00">numeric[100]</text>
<polygon fill="none" stroke="black" points="406,-601 406,-623 611,-623 611,-601 406,-601"/>
<text text-anchor="start" x="426" y="-607.55" font-family="Helvetica,sans-Serif" font-size="11.00">inserted_at</text>
<polygon fill="none" stroke="black" points="611,-601 611,-623 709,-623 709,-601 611,-601"/>
<text text-anchor="start" x="614" y="-607.55" font-family="Helvetica,sans-Serif" font-size="11.00">timestamp[29,6]</text>
<polygon fill="none" stroke="black" points="406,-579 406,-601 611,-601 611,-579 406,-579"/>
<text text-anchor="start" x="426" y="-585.55" font-family="Helvetica,sans-Serif" font-size="11.00">updated_at</text>
<polygon fill="none" stroke="black" points="611,-579 611,-601 709,-601 709,-579 611,-579"/>
<text text-anchor="start" x="614" y="-585.55" font-family="Helvetica,sans-Serif" font-size="11.00">timestamp[29,6]</text>
<polygon fill="#ffffff" stroke="none" points="406,-557 406,-579 611,-579 611,-557 406,-557"/>
<polygon fill="none" stroke="black" points="406,-557 406,-579 611,-579 611,-557 406,-557"/>
<text text-anchor="start" x="426" y="-563.55" font-family="Helvetica,sans-Serif" font-size="11.00">created_contract_address_hash</text>
<polygon fill="none" stroke="black" points="611,-557 611,-579 709,-579 709,-557 611,-557"/>
<text text-anchor="start" x="613.88" y="-563.55" font-family="Helvetica,sans-Serif" font-size="11.00">bytea[2147483647]</text>
<polygon fill="#ffffff" stroke="none" points="406,-535 406,-557 611,-557 611,-535 406,-535"/>
<polygon fill="none" stroke="black" points="406,-535 406,-557 611,-557 611,-535 406,-535"/>
<text text-anchor="start" x="426" y="-541.55" font-family="Helvetica,sans-Serif" font-size="11.00">from_address_hash</text>
<polygon fill="none" stroke="black" points="611,-535 611,-557 709,-557 709,-535 611,-535"/>
<text text-anchor="start" x="613.88" y="-541.55" font-family="Helvetica,sans-Serif" font-size="11.00">bytea[2147483647]</text>
<polygon fill="#ffffff" stroke="none" points="406,-513 406,-535 611,-535 611,-513 406,-513"/>
<polygon fill="none" stroke="black" points="406,-513 406,-535 611,-535 611,-513 406,-513"/>
<text text-anchor="start" x="426" y="-519.55" font-family="Helvetica,sans-Serif" font-size="11.00">to_address_hash</text>
<polygon fill="none" stroke="black" points="611,-513 611,-535 709,-535 709,-513 611,-513"/>
<text text-anchor="start" x="613.88" y="-519.55" font-family="Helvetica,sans-Serif" font-size="11.00">bytea[2147483647]</text>
<polygon fill="#ffffff" stroke="none" points="406,-491 406,-513 611,-513 611,-491 406,-491"/>
<polygon fill="none" stroke="black" points="406,-491 406,-513 611,-513 611,-491 406,-491"/>
<image xlink:href="../../images/foreignKeys.png" width="11px" height="12px" preserveAspectRatio="xMinYMin meet" x="411" y="-508"/>
<text text-anchor="start" x="426" y="-497.55" font-family="Helvetica,sans-Serif" font-size="11.00">transaction_hash</text>
<polygon fill="none" stroke="black" points="611,-491 611,-513 709,-513 709,-491 611,-491"/>
<text text-anchor="start" x="613.88" y="-497.55" font-family="Helvetica,sans-Serif" font-size="11.00">bytea[2147483647]</text>
<polygon fill="#ffffff" stroke="none" points="406,-469 406,-491 611,-491 611,-469 406,-469"/>
<polygon fill="none" stroke="black" points="406,-469 406,-491 611,-491 611,-469 406,-469"/>
<text text-anchor="start" x="426" y="-475.55" font-family="Helvetica,sans-Serif" font-size="11.00">block_number</text>
<polygon fill="none" stroke="black" points="611,-469 611,-491 709,-491 709,-469 611,-469"/>
<text text-anchor="start" x="614" y="-475.55" font-family="Helvetica,sans-Serif" font-size="11.00">int4[10]</text>
<polygon fill="#ffffff" stroke="none" points="406,-447 406,-469 611,-469 611,-447 406,-447"/>
<polygon fill="none" stroke="black" points="406,-447 406,-469 611,-469 611,-447 406,-447"/>
<image xlink:href="../../images/foreignKeys.png" width="11px" height="12px" preserveAspectRatio="xMinYMin meet" x="411" y="-464"/>
<text text-anchor="start" x="426" y="-453.55" font-family="Helvetica,sans-Serif" font-size="11.00">transaction_index</text>
<polygon fill="none" stroke="black" points="611,-447 611,-469 709,-469 709,-447 611,-447"/>
<text text-anchor="start" x="614" y="-453.55" font-family="Helvetica,sans-Serif" font-size="11.00">int4[10]</text>
<polygon fill="none" stroke="black" points="406,-425 406,-447 611,-447 611,-425 406,-425"/>
<image xlink:href="../../images/primaryKeys.png" width="11px" height="12px" preserveAspectRatio="xMinYMin meet" x="411" y="-442"/>
<text text-anchor="start" x="426" y="-431.55" font-family="Helvetica,sans-Serif" font-size="11.00">block_hash</text>
<polygon fill="none" stroke="black" points="611,-425 611,-447 709,-447 709,-425 611,-425"/>
<text text-anchor="start" x="613.88" y="-431.55" font-family="Helvetica,sans-Serif" font-size="11.00">bytea[2147483647]</text>
<polygon fill="none" stroke="black" points="406,-403 406,-425 611,-425 611,-403 406,-403"/>
<image xlink:href="../../images/primaryKeys.png" width="11px" height="12px" preserveAspectRatio="xMinYMin meet" x="411" y="-420"/>
<text text-anchor="start" x="426" y="-409.55" font-family="Helvetica,sans-Serif" font-size="11.00">block_index</text>
<polygon fill="none" stroke="black" points="611,-403 611,-425 709,-425 709,-403 611,-403"/>
<text text-anchor="start" x="614" y="-409.55" font-family="Helvetica,sans-Serif" font-size="11.00">int4[10]</text>
<polygon fill="#ffffff" stroke="none" points="406,-385 406,-403 513,-403 513,-385 406,-385"/>
<polygon fill="none" stroke="black" points="406,-385 406,-403 513,-403 513,-385 406,-385"/>
<text text-anchor="start" x="409" y="-389.55" font-family="Helvetica,sans-Serif" font-size="11.00">&lt; 2</text>
<polygon fill="#ffffff" stroke="none" points="513,-385 513,-403 611,-403 611,-385 513,-385"/>
<polygon fill="none" stroke="black" points="513,-385 513,-403 611,-403 611,-385 513,-385"/>
<text text-anchor="start" x="602" y="-389.55" font-family="Helvetica,sans-Serif" font-size="11.00"> &#160;</text>
<polygon fill="#ffffff" stroke="none" points="611,-385 611,-403 709,-403 709,-385 611,-385"/>
<polygon fill="none" stroke="black" points="611,-385 611,-403 709,-403 709,-385 611,-385"/>
<text text-anchor="start" x="690.25" y="-389.55" font-family="Helvetica,sans-Serif" font-size="11.00">0 &gt;</text>
<polygon fill="none" stroke="black" stroke-width="2" points="405,-384 405,-910 710,-910 710,-384 405,-384"/>
</a>
</g>
</g>
<!-- internal_transactions&#45;&gt;blocks -->
<g id="edge3" class="edge">
<title>internal_transactions:w&#45;&gt;blocks:e</title>
<path fill="none" stroke="black" d="M389.76,-430.95C377.08,-418.53 385.79,-386.51 363,-372 273.29,-314.89 223.98,-380.36 126,-339 110.1,-332.29 94.64,-321.51 81.71,-310.87"/>
<polygon fill="black" stroke="black" points="396.62,-433.3 403.02,-439.3 400.72,-434.7 403.87,-435.78 403.87,-435.78 403.87,-435.78 400.72,-434.7 405.35,-432.49 396.62,-433.3"/>
<ellipse fill="none" stroke="black" cx="391.96" cy="-431.7" rx="3.2" ry="3.2"/>
</g>
<!-- transactions -->
<g id="node5" class="node">
<title>transactions</title>
<g id="a_node5"><a xlink:href="../../tables/transactions.html" xlink:title="transactions" target="_top">
<polygon fill="#ffffff" stroke="none" points="189.5,-249 189.5,-307 299.5,-307 299.5,-249 189.5,-249"/>
<polygon fill="#f5f5f5" stroke="none" points="189.5,-285 189.5,-307 299.5,-307 299.5,-285 189.5,-285"/>
<polygon fill="none" stroke="black" points="189.5,-285 189.5,-307 299.5,-307 299.5,-285 189.5,-285"/>
<text text-anchor="start" x="194.5" y="-292.55" font-family="Helvetica,sans-Serif" font-weight="bold" font-size="11.00">transactions</text>
<text text-anchor="start" x="265.5" y="-291.55" font-family="Helvetica,sans-Serif" font-size="11.00">[table]</text>
<polygon fill="none" stroke="black" points="189.5,-267 189.5,-285 299.5,-285 299.5,-267 189.5,-267"/>
<text text-anchor="start" x="192.5" y="-271.55" font-family="Helvetica,sans-Serif" font-size="11.00">...</text>
<polygon fill="#ffffff" stroke="none" points="189.5,-249 189.5,-267 238.5,-267 238.5,-249 189.5,-249"/>
<polygon fill="none" stroke="black" points="189.5,-249 189.5,-267 238.5,-267 238.5,-249 189.5,-249"/>
<text text-anchor="start" x="192.5" y="-253.55" font-family="Helvetica,sans-Serif" font-size="11.00">&lt; 1</text>
<polygon fill="#ffffff" stroke="none" points="238.5,-249 238.5,-267 264.5,-267 264.5,-249 238.5,-249"/>
<polygon fill="none" stroke="black" points="238.5,-249 238.5,-267 264.5,-267 264.5,-249 238.5,-249"/>
<text text-anchor="start" x="255.5" y="-253.55" font-family="Helvetica,sans-Serif" font-size="11.00"> &#160;</text>
<polygon fill="#ffffff" stroke="none" points="264.5,-249 264.5,-267 299.5,-267 299.5,-249 264.5,-249"/>
<polygon fill="none" stroke="black" points="264.5,-249 264.5,-267 299.5,-267 299.5,-249 264.5,-249"/>
<text text-anchor="start" x="280.75" y="-253.55" font-family="Helvetica,sans-Serif" font-size="11.00">5 &gt;</text>
</a>
</g>
</g>
<!-- internal_transactions&#45;&gt;transactions -->
<g id="edge4" class="edge">
<title>internal_transactions:w&#45;&gt;transactions:e</title>
<path fill="none" stroke="black" d="M388.95,-499.83C345.42,-485.18 402.04,-399.54 363,-348 348.66,-329.07 327.59,-314.25 307.25,-303.22"/>
<polygon fill="black" stroke="black" points="396.25,-500.85 403.67,-505.52 400.54,-501.45 403.84,-501.91 403.84,-501.91 403.84,-501.91 400.54,-501.45 404.67,-498.39 396.25,-500.85"/>
<ellipse fill="none" stroke="black" cx="391.37" cy="-500.17" rx="3.2" ry="3.2"/>
</g>
<!-- transactions&#45;&gt;blocks -->
<g id="edge13" class="edge">
<title>transactions:w&#45;&gt;blocks:e</title>
<path fill="none" stroke="black" d="M166.16,-278C141.29,-278 114.56,-278 92.77,-278"/>
<polygon fill="black" stroke="black" points="173.42,-278 181.42,-281.6 177.75,-278 181.08,-278 181.08,-278 181.08,-278 177.75,-278 181.42,-274.4 173.42,-278"/>
<ellipse fill="none" stroke="black" cx="168.5" cy="-278" rx="3.2" ry="3.2"/>
</g>
<!-- logs -->
<g id="node6" class="node">
<title>logs</title>
<g id="a_node6"><a xlink:href="../../tables/logs.html" xlink:title="logs" target="_top">
<polygon fill="#ffffff" stroke="none" points="526,-304 526,-362 589,-362 589,-304 526,-304"/>
<polygon fill="#f5f5f5" stroke="none" points="526,-340 526,-362 589,-362 589,-340 526,-340"/>
<polygon fill="none" stroke="black" points="526,-340 526,-362 589,-362 589,-340 526,-340"/>
<text text-anchor="start" x="529.75" y="-347.55" font-family="Helvetica,sans-Serif" font-weight="bold" font-size="11.00">logs</text>
<text text-anchor="start" x="555" y="-346.55" font-family="Helvetica,sans-Serif" font-size="11.00">[table]</text>
<polygon fill="none" stroke="black" points="526,-322 526,-340 589,-340 589,-322 526,-322"/>
<text text-anchor="start" x="529" y="-326.55" font-family="Helvetica,sans-Serif" font-size="11.00">...</text>
<polygon fill="#ffffff" stroke="none" points="526,-304 526,-322 556,-322 556,-304 526,-304"/>
<polygon fill="none" stroke="black" points="526,-304 526,-322 556,-322 556,-304 526,-304"/>
<text text-anchor="start" x="529" y="-308.55" font-family="Helvetica,sans-Serif" font-size="11.00">&lt; 2</text>
<polygon fill="#ffffff" stroke="none" points="556,-304 556,-322 572,-322 572,-304 556,-304"/>
<polygon fill="none" stroke="black" points="556,-304 556,-322 572,-322 572,-304 556,-304"/>
<text text-anchor="start" x="563" y="-308.55" font-family="Helvetica,sans-Serif" font-size="11.00"> &#160;</text>
<polygon fill="#ffffff" stroke="none" points="572,-304 572,-322 589,-322 589,-304 572,-304"/>
<polygon fill="none" stroke="black" points="572,-304 572,-322 589,-322 589,-304 572,-304"/>
<text text-anchor="start" x="580" y="-308.55" font-family="Helvetica,sans-Serif" font-size="11.00"> &#160;</text>
</a>
</g>
</g>
<!-- logs&#45;&gt;blocks -->
<g id="edge5" class="edge">
<title>logs:w&#45;&gt;blocks:e</title>
<path fill="none" stroke="black" d="M508.75,-331.08C344.17,-332.82 292.42,-360.84 126,-318 114.74,-315.1 103.25,-310.4 92.66,-305.22"/>
<polygon fill="black" stroke="black" points="516.17,-331.04 524.18,-334.6 520.5,-331.02 523.83,-331 523.83,-331 523.83,-331 520.5,-331.02 524.15,-327.4 516.17,-331.04"/>
<ellipse fill="none" stroke="black" cx="511.25" cy="-331.07" rx="3.2" ry="3.2"/>
</g>
<!-- logs&#45;&gt;transactions -->
<g id="edge6" class="edge">
<title>logs:w&#45;&gt;transactions:e</title>
<path fill="none" stroke="black" d="M508.86,-330.74C437.3,-328.41 359.75,-310.9 307.47,-296.69"/>
<polygon fill="black" stroke="black" points="516.17,-330.86 524.11,-334.59 520.5,-330.93 523.83,-330.99 523.83,-330.99 523.83,-330.99 520.5,-330.93 524.23,-327.39 516.17,-330.86"/>
<ellipse fill="none" stroke="black" cx="511.25" cy="-330.78" rx="3.2" ry="3.2"/>
</g>
<!-- pending_block_operations -->
<g id="node7" class="node">
<title>pending_block_operations</title>
<g id="a_node7"><a xlink:href="../../tables/pending_block_operations.html" xlink:title="pending_block_operations" target="_top">
<polygon fill="#ffffff" stroke="none" points="149,-170 149,-228 340,-228 340,-170 149,-170"/>
<polygon fill="#f5f5f5" stroke="none" points="149,-206 149,-228 340,-228 340,-206 149,-206"/>
<polygon fill="none" stroke="black" points="149,-206 149,-228 340,-228 340,-206 149,-206"/>
<text text-anchor="start" x="154" y="-213.55" font-family="Helvetica,sans-Serif" font-weight="bold" font-size="11.00">pending_block_operations</text>
<text text-anchor="start" x="306" y="-212.55" font-family="Helvetica,sans-Serif" font-size="11.00">[table]</text>
<polygon fill="none" stroke="black" points="149,-188 149,-206 340,-206 340,-188 149,-188"/>
<text text-anchor="start" x="152" y="-192.55" font-family="Helvetica,sans-Serif" font-size="11.00">...</text>
<polygon fill="#ffffff" stroke="none" points="149,-170 149,-188 243,-188 243,-170 149,-170"/>
<polygon fill="none" stroke="black" points="149,-170 149,-188 243,-188 243,-170 149,-170"/>
<text text-anchor="start" x="152" y="-174.55" font-family="Helvetica,sans-Serif" font-size="11.00">&lt; 1</text>
<polygon fill="#ffffff" stroke="none" points="243,-170 243,-188 291,-188 291,-170 243,-170"/>
<polygon fill="none" stroke="black" points="243,-170 243,-188 291,-188 291,-170 243,-170"/>
<text text-anchor="start" x="282" y="-174.55" font-family="Helvetica,sans-Serif" font-size="11.00"> &#160;</text>
<polygon fill="#ffffff" stroke="none" points="291,-170 291,-188 340,-188 340,-170 291,-170"/>
<polygon fill="none" stroke="black" points="291,-170 291,-188 340,-188 340,-170 291,-170"/>
<text text-anchor="start" x="331" y="-174.55" font-family="Helvetica,sans-Serif" font-size="11.00"> &#160;</text>
</a>
</g>
</g>
<!-- pending_block_operations&#45;&gt;blocks -->
<g id="edge7" class="edge">
<title>pending_block_operations:w&#45;&gt;blocks:e</title>
<path fill="none" stroke="black" d="M136.39,-198.01C108.99,-202.96 85.6,-225.26 69.7,-245.05"/>
<polygon fill="black" stroke="black" points="146.34,-193.09 147.07,-201.06 145.47,-201.2 144.75,-193.23 146.34,-193.09"/>
<polyline fill="none" stroke="black" points="147.5,-197 143.52,-197.36"/>
<ellipse fill="none" stroke="black" cx="139.83" cy="-197.7" rx="3.2" ry="3.2"/>
</g>
<!-- token_transfers -->
<g id="node8" class="node">
<title>token_transfers</title>
<g id="a_node8"><a xlink:href="../../tables/token_transfers.html" xlink:title="token_transfers" target="_top">
<polygon fill="#ffffff" stroke="none" points="493,-146 493,-204 622,-204 622,-146 493,-146"/>
<polygon fill="#f5f5f5" stroke="none" points="493,-182 493,-204 622,-204 622,-182 493,-182"/>
<polygon fill="none" stroke="black" points="493,-182 493,-204 622,-204 622,-182 493,-182"/>
<text text-anchor="start" x="498" y="-189.55" font-family="Helvetica,sans-Serif" font-weight="bold" font-size="11.00">token_transfers</text>
<text text-anchor="start" x="588" y="-188.55" font-family="Helvetica,sans-Serif" font-size="11.00">[table]</text>
<polygon fill="none" stroke="black" points="493,-164 493,-182 622,-182 622,-164 493,-164"/>
<text text-anchor="start" x="496" y="-168.55" font-family="Helvetica,sans-Serif" font-size="11.00">...</text>
<polygon fill="#ffffff" stroke="none" points="493,-146 493,-164 556,-164 556,-146 493,-146"/>
<polygon fill="none" stroke="black" points="493,-146 493,-164 556,-164 556,-146 493,-146"/>
<text text-anchor="start" x="496" y="-150.55" font-family="Helvetica,sans-Serif" font-size="11.00">&lt; 2</text>
<polygon fill="#ffffff" stroke="none" points="556,-146 556,-164 589,-164 589,-146 556,-146"/>
<polygon fill="none" stroke="black" points="556,-146 556,-164 589,-164 589,-146 556,-146"/>
<text text-anchor="start" x="580" y="-150.55" font-family="Helvetica,sans-Serif" font-size="11.00"> &#160;</text>
<polygon fill="#ffffff" stroke="none" points="589,-146 589,-164 622,-164 622,-146 589,-146"/>
<polygon fill="none" stroke="black" points="589,-146 589,-164 622,-164 622,-146 589,-146"/>
<text text-anchor="start" x="613" y="-150.55" font-family="Helvetica,sans-Serif" font-size="11.00"> &#160;</text>
</a>
</g>
</g>
<!-- token_transfers&#45;&gt;blocks -->
<g id="edge8" class="edge">
<title>token_transfers:w&#45;&gt;blocks:e</title>
<path fill="none" stroke="black" d="M475.92,-172.5C385.8,-167.29 193.44,-123.86 126,-160 92.6,-177.9 70.98,-216.96 59.05,-245.25"/>
<polygon fill="black" stroke="black" points="483.17,-172.73 491.05,-176.59 487.5,-172.87 490.83,-172.98 490.83,-172.98 490.83,-172.98 487.5,-172.87 491.28,-169.39 483.17,-172.73"/>
<ellipse fill="none" stroke="black" cx="478.25" cy="-172.57" rx="3.2" ry="3.2"/>
</g>
<!-- token_transfers&#45;&gt;transactions -->
<g id="edge9" class="edge">
<title>token_transfers:w&#45;&gt;transactions:e</title>
<path fill="none" stroke="black" d="M475.73,-173.86C442.41,-177.79 431.18,-194.79 396,-215 380.28,-224.04 379.13,-230.71 363,-239 345.6,-247.94 325.73,-255.45 307.33,-261.42"/>
<polygon fill="black" stroke="black" points="483.18,-173.45 491.36,-176.61 487.51,-173.22 490.83,-173.04 490.83,-173.04 490.83,-173.04 487.51,-173.22 490.97,-169.42 483.18,-173.45"/>
<ellipse fill="none" stroke="black" cx="478.27" cy="-173.72" rx="3.2" ry="3.2"/>
</g>
<!-- transaction_actions -->
<g id="node9" class="node">
<title>transaction_actions</title>
<g id="a_node9"><a xlink:href="../../tables/transaction_actions.html" xlink:title="transaction_actions" target="_top">
<polygon fill="#ffffff" stroke="none" points="481.5,-225 481.5,-283 633.5,-283 633.5,-225 481.5,-225"/>
<polygon fill="#f5f5f5" stroke="none" points="481.5,-261 481.5,-283 633.5,-283 633.5,-261 481.5,-261"/>
<polygon fill="none" stroke="black" points="481.5,-261 481.5,-283 633.5,-283 633.5,-261 481.5,-261"/>
<text text-anchor="start" x="486.5" y="-268.55" font-family="Helvetica,sans-Serif" font-weight="bold" font-size="11.00">transaction_actions</text>
<text text-anchor="start" x="599.5" y="-267.55" font-family="Helvetica,sans-Serif" font-size="11.00">[table]</text>
<polygon fill="none" stroke="black" points="481.5,-243 481.5,-261 633.5,-261 633.5,-243 481.5,-243"/>
<text text-anchor="start" x="484.5" y="-247.55" font-family="Helvetica,sans-Serif" font-size="11.00">...</text>
<polygon fill="#ffffff" stroke="none" points="481.5,-225 481.5,-243 555.5,-243 555.5,-225 481.5,-225"/>
<polygon fill="none" stroke="black" points="481.5,-225 481.5,-243 555.5,-243 555.5,-225 481.5,-225"/>
<text text-anchor="start" x="484.5" y="-229.55" font-family="Helvetica,sans-Serif" font-size="11.00">&lt; 1</text>
<polygon fill="#ffffff" stroke="none" points="555.5,-225 555.5,-243 594.5,-243 594.5,-225 555.5,-225"/>
<polygon fill="none" stroke="black" points="555.5,-225 555.5,-243 594.5,-243 594.5,-225 555.5,-225"/>
<text text-anchor="start" x="585.5" y="-229.55" font-family="Helvetica,sans-Serif" font-size="11.00"> &#160;</text>
<polygon fill="#ffffff" stroke="none" points="594.5,-225 594.5,-243 633.5,-243 633.5,-225 594.5,-225"/>
<polygon fill="none" stroke="black" points="594.5,-225 594.5,-243 633.5,-243 633.5,-225 594.5,-225"/>
<text text-anchor="start" x="624.5" y="-229.55" font-family="Helvetica,sans-Serif" font-size="11.00"> &#160;</text>
</a>
</g>
</g>
<!-- transaction_actions&#45;&gt;transactions -->
<g id="edge10" class="edge">
<title>transaction_actions:w&#45;&gt;transactions:e</title>
<path fill="none" stroke="black" d="M464.75,-252.18C409.77,-253.44 350.27,-260.86 307.14,-267.42"/>
<polygon fill="black" stroke="black" points="472.17,-252.1 480.21,-255.6 476.5,-252.05 479.83,-252.01 479.83,-252.01 479.83,-252.01 476.5,-252.05 480.12,-248.4 472.17,-252.1"/>
<ellipse fill="none" stroke="black" cx="467.25" cy="-252.16" rx="3.2" ry="3.2"/>
</g>
<!-- transaction_forks -->
<g id="node10" class="node">
<title>transaction_forks</title>
<g id="a_node10"><a xlink:href="../../tables/transaction_forks.html" xlink:title="transaction_forks" target="_top">
<polygon fill="#ffffff" stroke="none" points="488,-67 488,-125 627,-125 627,-67 488,-67"/>
<polygon fill="#f5f5f5" stroke="none" points="488,-103 488,-125 627,-125 627,-103 488,-103"/>
<polygon fill="none" stroke="black" points="488,-103 488,-125 627,-125 627,-103 488,-103"/>
<text text-anchor="start" x="493" y="-110.55" font-family="Helvetica,sans-Serif" font-weight="bold" font-size="11.00">transaction_forks</text>
<text text-anchor="start" x="593" y="-109.55" font-family="Helvetica,sans-Serif" font-size="11.00">[table]</text>
<polygon fill="none" stroke="black" points="488,-85 488,-103 627,-103 627,-85 488,-85"/>
<text text-anchor="start" x="491" y="-89.55" font-family="Helvetica,sans-Serif" font-size="11.00">...</text>
<polygon fill="#ffffff" stroke="none" points="488,-67 488,-85 556,-85 556,-67 488,-67"/>
<polygon fill="none" stroke="black" points="488,-67 488,-85 556,-85 556,-67 488,-67"/>
<text text-anchor="start" x="491" y="-71.55" font-family="Helvetica,sans-Serif" font-size="11.00">&lt; 2</text>
<polygon fill="#ffffff" stroke="none" points="556,-67 556,-85 591,-85 591,-67 556,-67"/>
<polygon fill="none" stroke="black" points="556,-67 556,-85 591,-85 591,-67 556,-67"/>
<text text-anchor="start" x="582" y="-71.55" font-family="Helvetica,sans-Serif" font-size="11.00"> &#160;</text>
<polygon fill="#ffffff" stroke="none" points="591,-67 591,-85 627,-85 627,-67 591,-67"/>
<polygon fill="none" stroke="black" points="591,-67 591,-85 627,-85 627,-67 591,-67"/>
<text text-anchor="start" x="618" y="-71.55" font-family="Helvetica,sans-Serif" font-size="11.00"> &#160;</text>
</a>
</g>
</g>
<!-- transaction_forks&#45;&gt;blocks -->
<g id="edge12" class="edge">
<title>transaction_forks:w&#45;&gt;blocks:e</title>
<path fill="none" stroke="black" d="M470.7,-95.15C401.47,-101.47 141.02,-131.95 126,-142 89.75,-166.26 68.15,-213.32 57.05,-245.2"/>
<polygon fill="black" stroke="black" points="478.19,-94.61 486.43,-97.61 482.51,-94.29 485.83,-94.05 485.83,-94.05 485.83,-94.05 482.51,-94.29 485.9,-90.43 478.19,-94.61"/>
<ellipse fill="none" stroke="black" cx="473.28" cy="-94.97" rx="3.2" ry="3.2"/>
</g>
<!-- transaction_forks&#45;&gt;transactions -->
<g id="edge11" class="edge">
<title>transaction_forks:w&#45;&gt;transactions:e</title>
<path fill="none" stroke="black" d="M471.08,-94.44C437.76,-96.57 421.68,-106.91 396,-136 364.19,-172.04 396.81,-204.83 363,-239 348.11,-254.05 327.28,-263.29 307.29,-268.97"/>
<polygon fill="black" stroke="black" points="478.17,-94.24 486.27,-97.61 482.5,-94.11 485.83,-94.02 485.83,-94.02 485.83,-94.02 482.5,-94.11 486.06,-90.41 478.17,-94.24"/>
<ellipse fill="none" stroke="black" cx="473.25" cy="-94.38" rx="3.2" ry="3.2"/>
</g>
<!-- withdrawals -->
<g id="node11" class="node">
<title>withdrawals</title>
<g id="a_node11"><a xlink:href="../../tables/withdrawals.html" xlink:title="withdrawals" target="_top">
<polygon fill="#ffffff" stroke="none" points="191,-37 191,-95 298,-95 298,-37 191,-37"/>
<polygon fill="#f5f5f5" stroke="none" points="191,-73 191,-95 298,-95 298,-73 191,-73"/>
<polygon fill="none" stroke="black" points="191,-73 191,-95 298,-95 298,-73 191,-73"/>
<text text-anchor="start" x="196" y="-80.55" font-family="Helvetica,sans-Serif" font-weight="bold" font-size="11.00">withdrawals</text>
<text text-anchor="start" x="264" y="-79.55" font-family="Helvetica,sans-Serif" font-size="11.00">[table]</text>
<polygon fill="none" stroke="black" points="191,-55 191,-73 298,-73 298,-55 191,-55"/>
<text text-anchor="start" x="194" y="-59.55" font-family="Helvetica,sans-Serif" font-size="11.00">...</text>
<polygon fill="#ffffff" stroke="none" points="191,-37 191,-55 243,-55 243,-37 191,-37"/>
<polygon fill="none" stroke="black" points="191,-37 191,-55 243,-55 243,-37 191,-37"/>
<text text-anchor="start" x="194" y="-41.55" font-family="Helvetica,sans-Serif" font-size="11.00">&lt; 1</text>
<polygon fill="#ffffff" stroke="none" points="243,-37 243,-55 270,-55 270,-37 243,-37"/>
<polygon fill="none" stroke="black" points="243,-37 243,-55 270,-55 270,-37 243,-37"/>
<text text-anchor="start" x="261" y="-41.55" font-family="Helvetica,sans-Serif" font-size="11.00"> &#160;</text>
<polygon fill="#ffffff" stroke="none" points="270,-37 270,-55 298,-55 298,-37 270,-37"/>
<polygon fill="none" stroke="black" points="270,-37 270,-55 298,-55 298,-37 270,-37"/>
<text text-anchor="start" x="289" y="-41.55" font-family="Helvetica,sans-Serif" font-size="11.00"> &#160;</text>
</a>
</g>
</g>
<!-- withdrawals&#45;&gt;blocks -->
<g id="edge14" class="edge">
<title>withdrawals:w&#45;&gt;blocks:e</title>
<path fill="none" stroke="black" d="M173.97,-65.37C99.13,-78.89 65.81,-188.75 53.53,-245.03"/>
<polygon fill="black" stroke="black" points="181.2,-64.73 189.48,-67.62 185.52,-64.35 188.83,-64.06 188.83,-64.06 188.83,-64.06 185.52,-64.35 188.85,-60.44 181.2,-64.73"/>
<ellipse fill="none" stroke="black" cx="176.3" cy="-65.17" rx="3.2" ry="3.2"/>
</g>
</g>
</svg>
