<?xml version="1.0" encoding="UTF-8" standalone="no"?>
<!DOCTYPE svg PUBLIC "-//W3C//DTD SVG 1.1//EN"
 "http://www.w3.org/Graphics/SVG/1.1/DTD/svg11.dtd">
<!-- Generated by graphviz version 2.43.0 (0)
 -->
<!-- Title: oneDegreeRelationshipsDiagram Pages: 1 -->
<svg width="308pt" height="181pt"
 viewBox="0.00 0.00 308.00 181.00" xmlns="http://www.w3.org/2000/svg" xmlns:xlink="http://www.w3.org/1999/xlink">
<g id="graph0" class="graph" transform="scale(1 1) rotate(0) translate(4 177)">
<title>oneDegreeRelationshipsDiagram</title>
<polygon fill="#ffffff" stroke="transparent" points="-4,4 -4,-177 304,-177 304,4 -4,4"/>
<text text-anchor="middle" x="79.5" y="-7.2" font-family="Helvetica,sans-Serif" font-size="11.00">Generated by SchemaSpy</text>
<!-- last_fetched_counters -->
<g id="node1" class="node">
<title>last_fetched_counters</title>
<g id="a_node1"><a xlink:href="../../tables/last_fetched_counters.html" xlink:title="last_fetched_counters" target="_top">
<polygon fill="#ffffff" stroke="transparent" points="8,-37 8,-169 292,-169 292,-37 8,-37"/>
<polygon fill="#f5f5f5" stroke="transparent" points="10,-145 10,-167 290,-167 290,-145 10,-145"/>
<polygon fill="none" stroke="black" points="10,-145 10,-167 290,-167 290,-145 10,-145"/>
<text text-anchor="start" x="15" y="-154.2" font-family="Helvetica,sans-Serif" font-weight="bold" font-size="11.00">last_fetched_counters</text>
<text text-anchor="start" x="248" y="-153.2" font-family="Helvetica,sans-Serif" font-size="11.00">[table]</text>
<polygon fill="none" stroke="black" points="10,-123 10,-145 191,-145 191,-123 10,-123"/>
<image xlink:href="../../images/primaryKeys.png" width="11px" height="12px" preserveAspectRatio="xMinYMin meet" x="15" y="-140"/>
<text text-anchor="start" x="30" y="-131.2" font-family="Helvetica,sans-Serif" font-size="11.00">counter_type</text>
<polygon fill="none" stroke="black" points="191,-123 191,-145 290,-145 290,-123 191,-123"/>
<text text-anchor="start" x="194" y="-131.2" font-family="Helvetica,sans-Serif" font-size="11.00">varchar[255]</text>
<polygon fill="none" stroke="black" points="10,-101 10,-123 191,-123 191,-101 10,-101"/>
<text text-anchor="start" x="30" y="-109.2" font-family="Helvetica,sans-Serif" font-size="11.00">value</text>
<polygon fill="none" stroke="black" points="191,-101 191,-123 290,-123 290,-101 191,-101"/>
<text text-anchor="start" x="194" y="-109.2" font-family="Helvetica,sans-Serif" font-size="11.00">numeric[100]</text>
<polygon fill="none" stroke="black" points="10,-79 10,-101 191,-101 191,-79 10,-79"/>
<text text-anchor="start" x="30" y="-87.2" font-family="Helvetica,sans-Serif" font-size="11.00">inserted_at</text>
<polygon fill="none" stroke="black" points="191,-79 191,-101 290,-101 290,-79 191,-79"/>
<text text-anchor="start" x="194" y="-87.2" font-family="Helvetica,sans-Serif" font-size="11.00">timestamp[29,6]</text>
<polygon fill="none" stroke="black" points="10,-57 10,-79 191,-79 191,-57 10,-57"/>
<text text-anchor="start" x="30" y="-65.2" font-family="Helvetica,sans-Serif" font-size="11.00">updated_at</text>
<polygon fill="none" stroke="black" points="191,-57 191,-79 290,-79 290,-57 191,-57"/>
<text text-anchor="start" x="194" y="-65.2" font-family="Helvetica,sans-Serif" font-size="11.00">timestamp[29,6]</text>
<polygon fill="#ffffff" stroke="transparent" points="10,-39 10,-57 290,-57 290,-39 10,-39"/>
<polygon fill="none" stroke="black" points="10,-39 10,-57 290,-57 290,-39 10,-39"/>
<polygon fill="#ffffff" stroke="transparent" points="11,-40 11,-56 108,-56 108,-40 11,-40"/>
<text text-anchor="start" x="13" y="-45.2" font-family="Helvetica,sans-Serif" font-size="11.00">&lt; 0</text>
<polygon fill="#ffffff" stroke="transparent" points="108,-40 108,-56 193,-56 193,-40 108,-40"/>
<text text-anchor="start" x="146.5" y="-45.2" font-family="Helvetica,sans-Serif" font-size="11.00"> &#160;</text>
<polygon fill="#ffffff" stroke="transparent" points="193,-40 193,-56 289,-56 289,-40 193,-40"/>
<text text-anchor="start" x="267" y="-45.2" font-family="Helvetica,sans-Serif" font-size="11.00">0 &gt;</text>
<polygon fill="black" stroke="black" points="108,-40 108,-56 108,-56 108,-40 108,-40"/>
<polygon fill="black" stroke="black" points="193,-40 193,-56 193,-56 193,-40 193,-40"/>
<polygon fill="none" stroke="black" stroke-width="2" points="9,-38 9,-168 291,-168 291,-38 9,-38"/>
</a>
</g>
</g>
</g>
</svg>
