<?xml version="1.0" encoding="UTF-8" standalone="no"?>
<!DOCTYPE svg PUBLIC "-//W3C//DTD SVG 1.1//EN"
 "http://www.w3.org/Graphics/SVG/1.1/DTD/svg11.dtd">
<!-- Generated by graphviz version 2.43.0 (0)
 -->
<!-- Title: twoDegreesRelationshipsDiagramImplied Pages: 1 -->
<svg width="1264pt" height="831pt"
 viewBox="0.00 0.00 1264.00 831.00" xmlns="http://www.w3.org/2000/svg" xmlns:xlink="http://www.w3.org/1999/xlink">
<g id="graph0" class="graph" transform="scale(1 1) rotate(0) translate(4 827)">
<title>twoDegreesRelationshipsDiagramImplied</title>
<polygon fill="#ffffff" stroke="transparent" points="-4,4 -4,-827 1260,-827 1260,4 -4,4"/>
<text text-anchor="middle" x="79.5" y="-7.2" font-family="Helvetica,sans-Serif" font-size="11.00">Generated by SchemaSpy</text>
<!-- block_rewards -->
<g id="node1" class="node">
<title>block_rewards</title>
<g id="a_node1"><a xlink:href="../../tables/block_rewards.html" xlink:title="block_rewards" target="_top">
<polygon fill="#ffffff" stroke="transparent" points="400.5,-746 400.5,-804 552.5,-804 552.5,-746 400.5,-746"/>
<polygon fill="#f5f5f5" stroke="transparent" points="400.5,-782 400.5,-804 552.5,-804 552.5,-782 400.5,-782"/>
<polygon fill="none" stroke="black" points="400.5,-782 400.5,-804 552.5,-804 552.5,-782 400.5,-782"/>
<text text-anchor="start" x="405.5" y="-791.2" font-family="Helvetica,sans-Serif" font-weight="bold" font-size="11.00">block_rewards</text>
<text text-anchor="start" x="510.5" y="-790.2" font-family="Helvetica,sans-Serif" font-size="11.00">[table]</text>
<polygon fill="none" stroke="black" points="400.5,-764 400.5,-782 552.5,-782 552.5,-764 400.5,-764"/>
<text text-anchor="start" x="403.5" y="-770.2" font-family="Helvetica,sans-Serif" font-size="11.00">...</text>
<polygon fill="#ffffff" stroke="transparent" points="400.5,-746 400.5,-764 552.5,-764 552.5,-746 400.5,-746"/>
<polygon fill="none" stroke="black" points="400.5,-746 400.5,-764 552.5,-764 552.5,-746 400.5,-746"/>
<polygon fill="#ffffff" stroke="transparent" points="401.5,-747 401.5,-763 459.5,-763 459.5,-747 401.5,-747"/>
<text text-anchor="start" x="403.5" y="-752.2" font-family="Helvetica,sans-Serif" font-size="11.00">&lt; 1</text>
<polygon fill="#ffffff" stroke="transparent" points="459.5,-747 459.5,-763 505.5,-763 505.5,-747 459.5,-747"/>
<text text-anchor="start" x="478.5" y="-752.2" font-family="Helvetica,sans-Serif" font-size="11.00"> &#160;</text>
<polygon fill="#ffffff" stroke="transparent" points="505.5,-747 505.5,-763 551.5,-763 551.5,-747 505.5,-747"/>
<text text-anchor="start" x="541.5" y="-752.2" font-family="Helvetica,sans-Serif" font-size="11.00"> &#160;</text>
<polygon fill="black" stroke="black" points="459.5,-747 459.5,-763 459.5,-763 459.5,-747 459.5,-747"/>
<polygon fill="black" stroke="black" points="505.5,-747 505.5,-763 505.5,-763 505.5,-747 505.5,-747"/>
</a>
</g>
</g>
<!-- blocks -->
<g id="node2" class="node">
<title>blocks</title>
<g id="a_node2"><a xlink:href="../../tables/blocks.html" xlink:title="blocks" target="_top">
<polygon fill="#ffffff" stroke="transparent" points="216,-522 216,-580 309,-580 309,-522 216,-522"/>
<polygon fill="#f5f5f5" stroke="transparent" points="216.5,-558 216.5,-580 309.5,-580 309.5,-558 216.5,-558"/>
<polygon fill="none" stroke="black" points="216.5,-558 216.5,-580 309.5,-580 309.5,-558 216.5,-558"/>
<text text-anchor="start" x="221.5" y="-567.2" font-family="Helvetica,sans-Serif" font-weight="bold" font-size="11.00">blocks</text>
<text text-anchor="start" x="267.5" y="-566.2" font-family="Helvetica,sans-Serif" font-size="11.00">[table]</text>
<polygon fill="none" stroke="black" points="216.5,-540 216.5,-558 309.5,-558 309.5,-540 216.5,-540"/>
<text text-anchor="start" x="219.5" y="-546.2" font-family="Helvetica,sans-Serif" font-size="11.00">...</text>
<polygon fill="#ffffff" stroke="transparent" points="216.5,-522 216.5,-540 309.5,-540 309.5,-522 216.5,-522"/>
<polygon fill="none" stroke="black" points="216.5,-522 216.5,-540 309.5,-540 309.5,-522 216.5,-522"/>
<polygon fill="#ffffff" stroke="transparent" points="217.5,-523 217.5,-539 252.5,-539 252.5,-523 217.5,-523"/>
<text text-anchor="start" x="219.5" y="-528.2" font-family="Helvetica,sans-Serif" font-size="11.00">&lt; 1</text>
<polygon fill="#ffffff" stroke="transparent" points="252.5,-523 252.5,-539 274.5,-539 274.5,-523 252.5,-523"/>
<text text-anchor="start" x="259.5" y="-528.2" font-family="Helvetica,sans-Serif" font-size="11.00"> &#160;</text>
<polygon fill="#ffffff" stroke="transparent" points="274.5,-523 274.5,-539 308.5,-539 308.5,-523 274.5,-523"/>
<text text-anchor="start" x="286.5" y="-528.2" font-family="Helvetica,sans-Serif" font-size="11.00">9 &gt;</text>
<polygon fill="black" stroke="black" points="252.5,-523 252.5,-539 252.5,-539 252.5,-523 252.5,-523"/>
<polygon fill="black" stroke="black" points="274.5,-523 274.5,-539 274.5,-539 274.5,-523 274.5,-523"/>
</a>
</g>
</g>
<!-- block_rewards&#45;&gt;blocks -->
<g id="edge1" class="edge">
<title>block_rewards:w&#45;&gt;blocks:e</title>
<path fill="none" stroke="black" d="M384.68,-771.73C308.26,-758.36 278.46,-642.54 268.22,-584.24"/>
<polygon fill="black" stroke="black" points="391.53,-772.32 399.19,-776.59 395.51,-772.66 399.5,-773 399.5,-773 399.5,-773 395.51,-772.66 399.81,-769.41 391.53,-772.32 391.53,-772.32"/>
<ellipse fill="none" stroke="black" cx="388.34" cy="-772.05" rx="3.2" ry="3.2"/>
</g>
<!-- massive_blocks -->
<g id="node5" class="node">
<title>massive_blocks</title>
<g id="a_node5"><a xlink:href="../../tables/massive_blocks.html" xlink:title="massive_blocks" target="_top">
<polygon fill="#ffffff" stroke="transparent" points="8,-524 8,-582 167,-582 167,-524 8,-524"/>
<polygon fill="#f5f5f5" stroke="transparent" points="8.5,-560 8.5,-582 167.5,-582 167.5,-560 8.5,-560"/>
<polygon fill="none" stroke="black" points="8.5,-560 8.5,-582 167.5,-582 167.5,-560 8.5,-560"/>
<text text-anchor="start" x="13.5" y="-569.2" font-family="Helvetica,sans-Serif" font-weight="bold" font-size="11.00">massive_blocks</text>
<text text-anchor="start" x="125.5" y="-568.2" font-family="Helvetica,sans-Serif" font-size="11.00">[table]</text>
<polygon fill="none" stroke="black" points="8.5,-542 8.5,-560 167.5,-560 167.5,-542 8.5,-542"/>
<text text-anchor="start" x="11.5" y="-548.2" font-family="Helvetica,sans-Serif" font-size="11.00">...</text>
<polygon fill="#ffffff" stroke="transparent" points="8.5,-524 8.5,-542 167.5,-542 167.5,-524 8.5,-524"/>
<polygon fill="none" stroke="black" points="8.5,-524 8.5,-542 167.5,-542 167.5,-524 8.5,-524"/>
<polygon fill="#ffffff" stroke="transparent" points="9.5,-525 9.5,-541 58.5,-541 58.5,-525 9.5,-525"/>
<text text-anchor="start" x="11.5" y="-530.2" font-family="Helvetica,sans-Serif" font-size="11.00"> &#160;</text>
<polygon fill="#ffffff" stroke="transparent" points="58.5,-525 58.5,-541 106.5,-541 106.5,-525 58.5,-525"/>
<text text-anchor="start" x="78.5" y="-530.2" font-family="Helvetica,sans-Serif" font-size="11.00"> &#160;</text>
<polygon fill="#ffffff" stroke="transparent" points="106.5,-525 106.5,-541 166.5,-541 166.5,-525 106.5,-525"/>
<text text-anchor="start" x="144.5" y="-530.2" font-family="Helvetica,sans-Serif" font-size="11.00">1 &gt;</text>
<polygon fill="black" stroke="black" points="58.5,-525 58.5,-541 58.5,-541 58.5,-525 58.5,-525"/>
<polygon fill="black" stroke="black" points="106.5,-525 106.5,-541 106.5,-541 106.5,-525 106.5,-525"/>
</a>
</g>
</g>
<!-- blocks&#45;&gt;massive_blocks -->
<g id="edge4" class="edge">
<title>blocks:w&#45;&gt;massive_blocks:e</title>
<path fill="none" stroke="black" stroke-dasharray="5,2" d="M197.47,-551C187.76,-551 177.87,-551 168.5,-551"/>
<polygon fill="black" stroke="black" points="207.1,-547 207.1,-555 205.5,-555 205.5,-547 207.1,-547"/>
<polyline fill="none" stroke="black" points="207.9,-551 203.9,-551 "/>
<ellipse fill="none" stroke="black" cx="200.7" cy="-551" rx="3.2" ry="3.2"/>
</g>
<!-- block_second_degree_relations -->
<g id="node3" class="node">
<title>block_second_degree_relations</title>
<g id="a_node3"><a xlink:href="../../tables/block_second_degree_relations.html" xlink:title="block_second_degree_relations" target="_top">
<polygon fill="#ffffff" stroke="transparent" points="644,-640 644,-698 917,-698 917,-640 644,-640"/>
<polygon fill="#f5f5f5" stroke="transparent" points="644.5,-676 644.5,-698 917.5,-698 917.5,-676 644.5,-676"/>
<polygon fill="none" stroke="black" points="644.5,-676 644.5,-698 917.5,-698 917.5,-676 644.5,-676"/>
<text text-anchor="start" x="649.5" y="-685.2" font-family="Helvetica,sans-Serif" font-weight="bold" font-size="11.00">block_second_degree_relations</text>
<text text-anchor="start" x="875.5" y="-684.2" font-family="Helvetica,sans-Serif" font-size="11.00">[table]</text>
<polygon fill="none" stroke="black" points="644.5,-658 644.5,-676 917.5,-676 917.5,-658 644.5,-658"/>
<text text-anchor="start" x="647.5" y="-664.2" font-family="Helvetica,sans-Serif" font-size="11.00">...</text>
<polygon fill="#ffffff" stroke="transparent" points="644.5,-640 644.5,-658 917.5,-658 917.5,-640 644.5,-640"/>
<polygon fill="none" stroke="black" points="644.5,-640 644.5,-658 917.5,-658 917.5,-640 644.5,-640"/>
<polygon fill="#ffffff" stroke="transparent" points="645.5,-641 645.5,-657 744.5,-657 744.5,-641 645.5,-641"/>
<text text-anchor="start" x="647.5" y="-646.2" font-family="Helvetica,sans-Serif" font-size="11.00">&lt; 2</text>
<polygon fill="#ffffff" stroke="transparent" points="744.5,-641 744.5,-657 830.5,-657 830.5,-641 744.5,-641"/>
<text text-anchor="start" x="783.5" y="-646.2" font-family="Helvetica,sans-Serif" font-size="11.00"> &#160;</text>
<polygon fill="#ffffff" stroke="transparent" points="830.5,-641 830.5,-657 916.5,-657 916.5,-641 830.5,-641"/>
<text text-anchor="start" x="906.5" y="-646.2" font-family="Helvetica,sans-Serif" font-size="11.00"> &#160;</text>
<polygon fill="black" stroke="black" points="744.5,-641 744.5,-657 744.5,-657 744.5,-641 744.5,-641"/>
<polygon fill="black" stroke="black" points="830.5,-641 830.5,-657 830.5,-657 830.5,-641 830.5,-641"/>
</a>
</g>
</g>
<!-- block_second_degree_relations&#45;&gt;blocks -->
<g id="edge3" class="edge">
<title>block_second_degree_relations:w&#45;&gt;blocks:e</title>
<path fill="none" stroke="black" d="M628.94,-667.18C509.3,-670.1 462.76,-707.42 350,-652 320.37,-637.44 296.85,-607.63 281.86,-584.15"/>
<polygon fill="black" stroke="black" points="635.5,-667.1 643.54,-670.6 639.5,-667.05 643.5,-667 643.5,-667 643.5,-667 639.5,-667.05 643.46,-663.4 635.5,-667.1 635.5,-667.1"/>
<ellipse fill="none" stroke="black" cx="632.3" cy="-667.14" rx="3.2" ry="3.2"/>
</g>
<!-- withdrawals -->
<g id="node4" class="node">
<title>withdrawals</title>
<g id="a_node4"><a xlink:href="../../tables/withdrawals.html" xlink:title="withdrawals" target="_top">
<polygon fill="#ffffff" stroke="transparent" points="408.5,-583 408.5,-641 544.5,-641 544.5,-583 408.5,-583"/>
<polygon fill="#f5f5f5" stroke="transparent" points="408.5,-619 408.5,-641 544.5,-641 544.5,-619 408.5,-619"/>
<polygon fill="none" stroke="black" points="408.5,-619 408.5,-641 544.5,-641 544.5,-619 408.5,-619"/>
<text text-anchor="start" x="413.5" y="-628.2" font-family="Helvetica,sans-Serif" font-weight="bold" font-size="11.00">withdrawals</text>
<text text-anchor="start" x="502.5" y="-627.2" font-family="Helvetica,sans-Serif" font-size="11.00">[table]</text>
<polygon fill="none" stroke="black" points="408.5,-601 408.5,-619 544.5,-619 544.5,-601 408.5,-601"/>
<text text-anchor="start" x="411.5" y="-607.2" font-family="Helvetica,sans-Serif" font-size="11.00">...</text>
<polygon fill="#ffffff" stroke="transparent" points="408.5,-583 408.5,-601 544.5,-601 544.5,-583 408.5,-583"/>
<polygon fill="none" stroke="black" points="408.5,-583 408.5,-601 544.5,-601 544.5,-583 408.5,-583"/>
<polygon fill="#ffffff" stroke="transparent" points="409.5,-584 409.5,-600 458.5,-600 458.5,-584 409.5,-584"/>
<text text-anchor="start" x="411.5" y="-589.2" font-family="Helvetica,sans-Serif" font-size="11.00">&lt; 1</text>
<polygon fill="#ffffff" stroke="transparent" points="458.5,-584 458.5,-600 495.5,-600 495.5,-584 458.5,-584"/>
<text text-anchor="start" x="473" y="-589.2" font-family="Helvetica,sans-Serif" font-size="11.00"> &#160;</text>
<polygon fill="#ffffff" stroke="transparent" points="495.5,-584 495.5,-600 543.5,-600 543.5,-584 495.5,-584"/>
<text text-anchor="start" x="521.5" y="-589.2" font-family="Helvetica,sans-Serif" font-size="11.00">5 &gt;</text>
<polygon fill="black" stroke="black" points="458.5,-584 458.5,-600 458.5,-600 458.5,-584 458.5,-584"/>
<polygon fill="black" stroke="black" points="495.5,-584 495.5,-600 495.5,-600 495.5,-584 495.5,-584"/>
</a>
</g>
</g>
<!-- block_second_degree_relations&#45;&gt;withdrawals -->
<g id="edge2" class="edge">
<title>block_second_degree_relations:w&#45;&gt;withdrawals:e</title>
<path fill="none" stroke="black" stroke-dasharray="5,2" d="M629.21,-665.23C593.11,-655.61 590.57,-610 545.5,-610"/>
<polygon fill="black" stroke="black" points="635.56,-666.02 643.06,-670.57 639.53,-666.51 643.5,-667 643.5,-667 643.5,-667 639.53,-666.51 643.94,-663.43 635.56,-666.02 635.56,-666.02"/>
<ellipse fill="none" stroke="black" cx="632.38" cy="-665.62" rx="3.2" ry="3.2"/>
</g>
<!-- withdrawals&#45;&gt;blocks -->
<g id="edge21" class="edge">
<title>withdrawals:w&#45;&gt;blocks:e</title>
<path fill="none" stroke="black" d="M392.94,-609.17C365.87,-606.19 338.8,-595.52 316.46,-584.12"/>
<polygon fill="black" stroke="black" points="399.51,-609.55 407.3,-613.59 403.51,-609.77 407.5,-610 407.5,-610 407.5,-610 403.51,-609.77 407.7,-606.41 399.51,-609.55 399.51,-609.55"/>
<ellipse fill="none" stroke="black" cx="396.32" cy="-609.37" rx="3.2" ry="3.2"/>
</g>
<!-- internal_transactions -->
<g id="node6" class="node">
<title>internal_transactions</title>
<g id="a_node6"><a xlink:href="../../tables/internal_transactions.html" xlink:title="internal_transactions" target="_top">
<polygon fill="#ffffff" stroke="transparent" points="1006,-761 1006,-819 1208,-819 1208,-761 1006,-761"/>
<polygon fill="#f5f5f5" stroke="transparent" points="1006,-797 1006,-819 1208,-819 1208,-797 1006,-797"/>
<polygon fill="none" stroke="black" points="1006,-797 1006,-819 1208,-819 1208,-797 1006,-797"/>
<text text-anchor="start" x="1011" y="-806.2" font-family="Helvetica,sans-Serif" font-weight="bold" font-size="11.00">internal_transactions</text>
<text text-anchor="start" x="1166" y="-805.2" font-family="Helvetica,sans-Serif" font-size="11.00">[table]</text>
<polygon fill="none" stroke="black" points="1006,-779 1006,-797 1208,-797 1208,-779 1006,-779"/>
<text text-anchor="start" x="1009" y="-785.2" font-family="Helvetica,sans-Serif" font-size="11.00">...</text>
<polygon fill="#ffffff" stroke="transparent" points="1006,-761 1006,-779 1208,-779 1208,-761 1006,-761"/>
<polygon fill="none" stroke="black" points="1006,-761 1006,-779 1208,-779 1208,-761 1006,-761"/>
<polygon fill="#ffffff" stroke="transparent" points="1007,-762 1007,-778 1082,-778 1082,-762 1007,-762"/>
<text text-anchor="start" x="1009" y="-767.2" font-family="Helvetica,sans-Serif" font-size="11.00">&lt; 4</text>
<polygon fill="#ffffff" stroke="transparent" points="1082,-762 1082,-778 1145,-778 1145,-762 1082,-762"/>
<text text-anchor="start" x="1109.5" y="-767.2" font-family="Helvetica,sans-Serif" font-size="11.00"> &#160;</text>
<polygon fill="#ffffff" stroke="transparent" points="1145,-762 1145,-778 1207,-778 1207,-762 1145,-762"/>
<text text-anchor="start" x="1197" y="-767.2" font-family="Helvetica,sans-Serif" font-size="11.00"> &#160;</text>
<polygon fill="black" stroke="black" points="1082,-762 1082,-778 1082,-778 1082,-762 1082,-762"/>
<polygon fill="black" stroke="black" points="1145,-762 1145,-778 1145,-778 1145,-762 1145,-762"/>
</a>
</g>
</g>
<!-- internal_transactions&#45;&gt;blocks -->
<g id="edge5" class="edge">
<title>internal_transactions:w&#45;&gt;blocks:e</title>
<path fill="none" stroke="black" d="M990.38,-786.81C891.51,-776.04 379.01,-695.53 350,-677 315.34,-654.86 290.94,-613.34 277.08,-584.02"/>
<polygon fill="black" stroke="black" points="997.03,-787.35 1004.71,-791.59 1001.01,-787.67 1005,-788 1005,-788 1005,-788 1001.01,-787.67 1005.29,-784.41 997.03,-787.35 997.03,-787.35"/>
<ellipse fill="none" stroke="black" cx="993.84" cy="-787.09" rx="3.2" ry="3.2"/>
</g>
<!-- internal_transactions&#45;&gt;withdrawals -->
<g id="edge6" class="edge">
<title>internal_transactions:w&#45;&gt;withdrawals:e</title>
<path fill="none" stroke="black" stroke-dasharray="5,2" d="M990.68,-786.09C975.6,-781.41 969.58,-768.49 958,-751 927.22,-704.53 968.39,-664.99 925,-630 859.26,-576.99 629.95,-610 545.5,-610"/>
<polygon fill="black" stroke="black" points="997.07,-786.94 1004.52,-791.57 1001.04,-787.47 1005,-788 1005,-788 1005,-788 1001.04,-787.47 1005.48,-784.43 997.07,-786.94 997.07,-786.94"/>
<ellipse fill="none" stroke="black" cx="993.9" cy="-786.52" rx="3.2" ry="3.2"/>
</g>
<!-- internal_transactions&#45;&gt;withdrawals -->
<g id="edge8" class="edge">
<title>internal_transactions:w&#45;&gt;withdrawals:e</title>
<path fill="none" stroke="black" stroke-dasharray="5,2" d="M990.69,-786.08C975.63,-781.39 969.66,-768.44 958,-751 927.97,-706.09 967.03,-667.95 925,-634 859.27,-580.9 630,-610 545.5,-610"/>
<polygon fill="black" stroke="black" points="997.07,-786.94 1004.52,-791.57 1001.04,-787.47 1005,-788 1005,-788 1005,-788 1001.04,-787.47 1005.48,-784.43 997.07,-786.94 997.07,-786.94"/>
<ellipse fill="none" stroke="black" cx="993.9" cy="-786.51" rx="3.2" ry="3.2"/>
</g>
<!-- transactions -->
<g id="node7" class="node">
<title>transactions</title>
<g id="a_node7"><a xlink:href="../../tables/transactions.html" xlink:title="transactions" target="_top">
<polygon fill="#ffffff" stroke="transparent" points="711.5,-522 711.5,-580 849.5,-580 849.5,-522 711.5,-522"/>
<polygon fill="#f5f5f5" stroke="transparent" points="711.5,-558 711.5,-580 849.5,-580 849.5,-558 711.5,-558"/>
<polygon fill="none" stroke="black" points="711.5,-558 711.5,-580 849.5,-580 849.5,-558 711.5,-558"/>
<text text-anchor="start" x="716.5" y="-567.2" font-family="Helvetica,sans-Serif" font-weight="bold" font-size="11.00">transactions</text>
<text text-anchor="start" x="807.5" y="-566.2" font-family="Helvetica,sans-Serif" font-size="11.00">[table]</text>
<polygon fill="none" stroke="black" points="711.5,-540 711.5,-558 849.5,-558 849.5,-540 711.5,-540"/>
<text text-anchor="start" x="714.5" y="-546.2" font-family="Helvetica,sans-Serif" font-size="11.00">...</text>
<polygon fill="#ffffff" stroke="transparent" points="711.5,-522 711.5,-540 849.5,-540 849.5,-522 711.5,-522"/>
<polygon fill="none" stroke="black" points="711.5,-522 711.5,-540 849.5,-540 849.5,-522 711.5,-522"/>
<polygon fill="#ffffff" stroke="transparent" points="712.5,-523 712.5,-539 762.5,-539 762.5,-523 712.5,-523"/>
<text text-anchor="start" x="714.5" y="-528.2" font-family="Helvetica,sans-Serif" font-size="11.00">&lt; 2</text>
<polygon fill="#ffffff" stroke="transparent" points="762.5,-523 762.5,-539 799.5,-539 799.5,-523 762.5,-523"/>
<text text-anchor="start" x="777" y="-528.2" font-family="Helvetica,sans-Serif" font-size="11.00"> &#160;</text>
<polygon fill="#ffffff" stroke="transparent" points="799.5,-523 799.5,-539 848.5,-539 848.5,-523 799.5,-523"/>
<text text-anchor="start" x="826.5" y="-528.2" font-family="Helvetica,sans-Serif" font-size="11.00">7 &gt;</text>
<polygon fill="black" stroke="black" points="762.5,-523 762.5,-539 762.5,-539 762.5,-523 762.5,-523"/>
<polygon fill="black" stroke="black" points="799.5,-523 799.5,-539 799.5,-539 799.5,-523 799.5,-523"/>
</a>
</g>
</g>
<!-- internal_transactions&#45;&gt;transactions -->
<g id="edge7" class="edge">
<title>internal_transactions:w&#45;&gt;transactions:e</title>
<path fill="none" stroke="black" d="M990.5,-786.45C913.03,-768.94 938.26,-608.42 925,-594 907.57,-575.05 882.17,-564.32 857.55,-558.29"/>
<polygon fill="black" stroke="black" points="997.05,-787.15 1004.62,-791.58 1001.02,-787.58 1005,-788 1005,-788 1005,-788 1001.02,-787.58 1005.38,-784.42 997.05,-787.15 997.05,-787.15"/>
<ellipse fill="none" stroke="black" cx="993.86" cy="-786.81" rx="3.2" ry="3.2"/>
</g>
<!-- transactions&#45;&gt;blocks -->
<g id="edge19" class="edge">
<title>transactions:w&#45;&gt;blocks:e</title>
<path fill="none" stroke="black" d="M688.63,-551C580.93,-551 405.01,-551 317.07,-551"/>
<polygon fill="black" stroke="black" points="695.36,-551 703.36,-554.6 699.36,-551 703.36,-551 703.36,-551 703.36,-551 699.36,-551 703.36,-547.4 695.36,-551 695.36,-551"/>
<ellipse fill="none" stroke="black" cx="692.16" cy="-551" rx="3.2" ry="3.2"/>
</g>
<!-- transactions&#45;&gt;withdrawals -->
<g id="edge20" class="edge">
<title>transactions:w&#45;&gt;withdrawals:e</title>
<path fill="none" stroke="black" stroke-dasharray="5,2" d="M689.32,-578.58C635.96,-593.94 573.48,-610 545.5,-610"/>
<polygon fill="black" stroke="black" points="695.7,-576.72 704.39,-577.94 699.54,-575.61 703.38,-574.49 703.38,-574.49 703.38,-574.49 699.54,-575.61 702.38,-571.03 695.7,-576.72 695.7,-576.72"/>
<ellipse fill="none" stroke="black" cx="692.63" cy="-577.62" rx="3.2" ry="3.2"/>
</g>
<!-- logs -->
<g id="node8" class="node">
<title>logs</title>
<g id="a_node8"><a xlink:href="../../tables/logs.html" xlink:title="logs" target="_top">
<polygon fill="#ffffff" stroke="transparent" points="974.5,-195 974.5,-503 1239.5,-503 1239.5,-195 974.5,-195"/>
<polygon fill="#f5f5f5" stroke="transparent" points="977,-479 977,-501 1238,-501 1238,-479 977,-479"/>
<polygon fill="none" stroke="black" points="977,-479 977,-501 1238,-501 1238,-479 977,-479"/>
<text text-anchor="start" x="982" y="-488.2" font-family="Helvetica,sans-Serif" font-weight="bold" font-size="11.00">logs</text>
<text text-anchor="start" x="1196" y="-487.2" font-family="Helvetica,sans-Serif" font-size="11.00">[table]</text>
<polygon fill="none" stroke="black" points="977,-457 977,-479 1123,-479 1123,-457 977,-457"/>
<text text-anchor="start" x="997" y="-465.2" font-family="Helvetica,sans-Serif" font-size="11.00">data</text>
<polygon fill="none" stroke="black" points="1123,-457 1123,-479 1238,-479 1238,-457 1123,-457"/>
<text text-anchor="start" x="1126" y="-465.2" font-family="Helvetica,sans-Serif" font-size="11.00">bytea[2147483647]</text>
<polygon fill="none" stroke="black" points="977,-435 977,-457 1123,-457 1123,-435 977,-435"/>
<image xlink:href="../../images/primaryKeys.png" width="11px" height="12px" preserveAspectRatio="xMinYMin meet" x="982" y="-452"/>
<text text-anchor="start" x="997" y="-443.2" font-family="Helvetica,sans-Serif" font-size="11.00">index</text>
<polygon fill="none" stroke="black" points="1123,-435 1123,-457 1238,-457 1238,-435 1123,-435"/>
<text text-anchor="start" x="1126" y="-443.2" font-family="Helvetica,sans-Serif" font-size="11.00">int4[10]</text>
<polygon fill="#ffffff" stroke="transparent" points="977,-413 977,-435 1123,-435 1123,-413 977,-413"/>
<polygon fill="none" stroke="black" points="977,-413 977,-435 1123,-435 1123,-413 977,-413"/>
<text text-anchor="start" x="997" y="-421.2" font-family="Helvetica,sans-Serif" font-size="11.00">first_topic</text>
<polygon fill="none" stroke="black" points="1123,-413 1123,-435 1238,-435 1238,-413 1123,-413"/>
<text text-anchor="start" x="1126" y="-421.2" font-family="Helvetica,sans-Serif" font-size="11.00">bytea[2147483647]</text>
<polygon fill="#ffffff" stroke="transparent" points="977,-391 977,-413 1123,-413 1123,-391 977,-391"/>
<polygon fill="none" stroke="black" points="977,-391 977,-413 1123,-413 1123,-391 977,-391"/>
<text text-anchor="start" x="997" y="-399.2" font-family="Helvetica,sans-Serif" font-size="11.00">second_topic</text>
<polygon fill="none" stroke="black" points="1123,-391 1123,-413 1238,-413 1238,-391 1123,-391"/>
<text text-anchor="start" x="1126" y="-399.2" font-family="Helvetica,sans-Serif" font-size="11.00">bytea[2147483647]</text>
<polygon fill="#ffffff" stroke="transparent" points="977,-369 977,-391 1123,-391 1123,-369 977,-369"/>
<polygon fill="none" stroke="black" points="977,-369 977,-391 1123,-391 1123,-369 977,-369"/>
<text text-anchor="start" x="997" y="-377.2" font-family="Helvetica,sans-Serif" font-size="11.00">third_topic</text>
<polygon fill="none" stroke="black" points="1123,-369 1123,-391 1238,-391 1238,-369 1123,-369"/>
<text text-anchor="start" x="1126" y="-377.2" font-family="Helvetica,sans-Serif" font-size="11.00">bytea[2147483647]</text>
<polygon fill="#ffffff" stroke="transparent" points="977,-347 977,-369 1123,-369 1123,-347 977,-347"/>
<polygon fill="none" stroke="black" points="977,-347 977,-369 1123,-369 1123,-347 977,-347"/>
<text text-anchor="start" x="997" y="-355.2" font-family="Helvetica,sans-Serif" font-size="11.00">fourth_topic</text>
<polygon fill="none" stroke="black" points="1123,-347 1123,-369 1238,-369 1238,-347 1123,-347"/>
<text text-anchor="start" x="1126" y="-355.2" font-family="Helvetica,sans-Serif" font-size="11.00">bytea[2147483647]</text>
<polygon fill="none" stroke="black" points="977,-325 977,-347 1123,-347 1123,-325 977,-325"/>
<text text-anchor="start" x="997" y="-333.2" font-family="Helvetica,sans-Serif" font-size="11.00">inserted_at</text>
<polygon fill="none" stroke="black" points="1123,-325 1123,-347 1238,-347 1238,-325 1123,-325"/>
<text text-anchor="start" x="1126" y="-333.2" font-family="Helvetica,sans-Serif" font-size="11.00">timestamp[29,6]</text>
<polygon fill="none" stroke="black" points="977,-303 977,-325 1123,-325 1123,-303 977,-303"/>
<text text-anchor="start" x="997" y="-311.2" font-family="Helvetica,sans-Serif" font-size="11.00">updated_at</text>
<polygon fill="none" stroke="black" points="1123,-303 1123,-325 1238,-325 1238,-303 1123,-303"/>
<text text-anchor="start" x="1126" y="-311.2" font-family="Helvetica,sans-Serif" font-size="11.00">timestamp[29,6]</text>
<polygon fill="#ffffff" stroke="transparent" points="977,-281 977,-303 1123,-303 1123,-281 977,-281"/>
<polygon fill="none" stroke="black" points="977,-281 977,-303 1123,-303 1123,-281 977,-281"/>
<text text-anchor="start" x="997" y="-289.2" font-family="Helvetica,sans-Serif" font-size="11.00">address_hash</text>
<polygon fill="none" stroke="black" points="1123,-281 1123,-303 1238,-303 1238,-281 1123,-281"/>
<text text-anchor="start" x="1126" y="-289.2" font-family="Helvetica,sans-Serif" font-size="11.00">bytea[2147483647]</text>
<polygon fill="none" stroke="black" points="977,-259 977,-281 1123,-281 1123,-259 977,-259"/>
<image xlink:href="../../images/primaryKeys.png" width="11px" height="12px" preserveAspectRatio="xMinYMin meet" x="982" y="-276"/>
<text text-anchor="start" x="997" y="-267.2" font-family="Helvetica,sans-Serif" font-size="11.00">transaction_hash</text>
<polygon fill="none" stroke="black" points="1123,-259 1123,-281 1238,-281 1238,-259 1123,-259"/>
<text text-anchor="start" x="1126" y="-267.2" font-family="Helvetica,sans-Serif" font-size="11.00">bytea[2147483647]</text>
<polygon fill="none" stroke="black" points="977,-237 977,-259 1123,-259 1123,-237 977,-237"/>
<image xlink:href="../../images/primaryKeys.png" width="11px" height="12px" preserveAspectRatio="xMinYMin meet" x="982" y="-254"/>
<text text-anchor="start" x="997" y="-245.2" font-family="Helvetica,sans-Serif" font-size="11.00">block_hash</text>
<polygon fill="none" stroke="black" points="1123,-237 1123,-259 1238,-259 1238,-237 1123,-237"/>
<text text-anchor="start" x="1126" y="-245.2" font-family="Helvetica,sans-Serif" font-size="11.00">bytea[2147483647]</text>
<polygon fill="#ffffff" stroke="transparent" points="977,-215 977,-237 1123,-237 1123,-215 977,-215"/>
<polygon fill="none" stroke="black" points="977,-215 977,-237 1123,-237 1123,-215 977,-215"/>
<text text-anchor="start" x="997" y="-223.2" font-family="Helvetica,sans-Serif" font-size="11.00">block_number</text>
<polygon fill="none" stroke="black" points="1123,-215 1123,-237 1238,-237 1238,-215 1123,-215"/>
<text text-anchor="start" x="1126" y="-223.2" font-family="Helvetica,sans-Serif" font-size="11.00">int4[10]</text>
<polygon fill="#ffffff" stroke="transparent" points="977,-197 977,-215 1238,-215 1238,-197 977,-197"/>
<polygon fill="none" stroke="black" points="977,-197 977,-215 1238,-215 1238,-197 977,-197"/>
<polygon fill="#ffffff" stroke="transparent" points="978,-198 978,-214 1069,-214 1069,-198 978,-198"/>
<text text-anchor="start" x="980" y="-203.2" font-family="Helvetica,sans-Serif" font-size="11.00">&lt; 2</text>
<polygon fill="#ffffff" stroke="transparent" points="1069,-198 1069,-214 1147,-214 1147,-198 1069,-198"/>
<text text-anchor="start" x="1104" y="-203.2" font-family="Helvetica,sans-Serif" font-size="11.00"> &#160;</text>
<polygon fill="#ffffff" stroke="transparent" points="1147,-198 1147,-214 1237,-214 1237,-198 1147,-198"/>
<text text-anchor="start" x="1215" y="-203.2" font-family="Helvetica,sans-Serif" font-size="11.00">0 &gt;</text>
<polygon fill="black" stroke="black" points="1069,-198 1069,-214 1069,-214 1069,-198 1069,-198"/>
<polygon fill="black" stroke="black" points="1147,-198 1147,-214 1147,-214 1147,-198 1147,-198"/>
<polygon fill="none" stroke="black" stroke-width="2" points="975.5,-196 975.5,-502 1238.5,-502 1238.5,-196 975.5,-196"/>
</a>
</g>
</g>
<!-- logs&#45;&gt;blocks -->
<g id="edge9" class="edge">
<title>logs:w&#45;&gt;blocks:e</title>
<path fill="none" stroke="black" d="M963.04,-255.29C897.63,-294.93 608.1,-482.97 603,-485 506.64,-523.38 385.73,-540.02 317.29,-546.78"/>
<polygon fill="black" stroke="black" points="969.03,-251.92 977.76,-251.14 972.51,-249.96 976,-248 976,-248 976,-248 972.51,-249.96 974.24,-244.86 969.03,-251.92 969.03,-251.92"/>
<ellipse fill="none" stroke="black" cx="966.24" cy="-253.49" rx="3.2" ry="3.2"/>
</g>
<!-- logs&#45;&gt;transactions -->
<g id="edge10" class="edge">
<title>logs:w&#45;&gt;transactions:e</title>
<path fill="none" stroke="black" d="M961.56,-271.15C880.32,-285.59 994.72,-432.47 925,-508 907.54,-526.92 882.12,-537.64 857.51,-543.67"/>
<polygon fill="black" stroke="black" points="968.03,-270.64 976.29,-273.59 972.01,-270.32 976,-270 976,-270 976,-270 972.01,-270.32 975.71,-266.41 968.03,-270.64 968.03,-270.64"/>
<ellipse fill="none" stroke="black" cx="964.84" cy="-270.89" rx="3.2" ry="3.2"/>
</g>
<!-- pending_block_operations -->
<g id="node9" class="node">
<title>pending_block_operations</title>
<g id="a_node9"><a xlink:href="../../tables/pending_block_operations.html" xlink:title="pending_block_operations" target="_top">
<polygon fill="#ffffff" stroke="transparent" points="358,-416 358,-474 595,-474 595,-416 358,-416"/>
<polygon fill="#f5f5f5" stroke="transparent" points="358.5,-452 358.5,-474 595.5,-474 595.5,-452 358.5,-452"/>
<polygon fill="none" stroke="black" points="358.5,-452 358.5,-474 595.5,-474 595.5,-452 358.5,-452"/>
<text text-anchor="start" x="363.5" y="-461.2" font-family="Helvetica,sans-Serif" font-weight="bold" font-size="11.00">pending_block_operations</text>
<text text-anchor="start" x="553.5" y="-460.2" font-family="Helvetica,sans-Serif" font-size="11.00">[table]</text>
<polygon fill="none" stroke="black" points="358.5,-434 358.5,-452 595.5,-452 595.5,-434 358.5,-434"/>
<text text-anchor="start" x="361.5" y="-440.2" font-family="Helvetica,sans-Serif" font-size="11.00">...</text>
<polygon fill="#ffffff" stroke="transparent" points="358.5,-416 358.5,-434 595.5,-434 595.5,-416 358.5,-416"/>
<polygon fill="none" stroke="black" points="358.5,-416 358.5,-434 595.5,-434 595.5,-416 358.5,-416"/>
<polygon fill="#ffffff" stroke="transparent" points="359.5,-417 359.5,-433 446.5,-433 446.5,-417 359.5,-417"/>
<text text-anchor="start" x="361.5" y="-422.2" font-family="Helvetica,sans-Serif" font-size="11.00">&lt; 1</text>
<polygon fill="#ffffff" stroke="transparent" points="446.5,-417 446.5,-433 520.5,-433 520.5,-417 446.5,-417"/>
<text text-anchor="start" x="479.5" y="-422.2" font-family="Helvetica,sans-Serif" font-size="11.00"> &#160;</text>
<polygon fill="#ffffff" stroke="transparent" points="520.5,-417 520.5,-433 594.5,-433 594.5,-417 520.5,-417"/>
<text text-anchor="start" x="584.5" y="-422.2" font-family="Helvetica,sans-Serif" font-size="11.00"> &#160;</text>
<polygon fill="black" stroke="black" points="446.5,-417 446.5,-433 446.5,-433 446.5,-417 446.5,-417"/>
<polygon fill="black" stroke="black" points="520.5,-417 520.5,-433 520.5,-433 520.5,-417 520.5,-417"/>
</a>
</g>
</g>
<!-- pending_block_operations&#45;&gt;blocks -->
<g id="edge11" class="edge">
<title>pending_block_operations:w&#45;&gt;blocks:e</title>
<path fill="none" stroke="black" d="M347,-444C312.62,-450.63 289.16,-488.83 276.06,-517.72"/>
<polygon fill="black" stroke="black" points="356.32,-439.09 357.08,-447.06 355.49,-447.21 354.73,-439.25 356.32,-439.09"/>
<polyline fill="none" stroke="black" points="357.5,-443 353.52,-443.38 "/>
<ellipse fill="none" stroke="black" cx="350.33" cy="-443.68" rx="3.2" ry="3.2"/>
</g>
<!-- pending_transaction_operations -->
<g id="node10" class="node">
<title>pending_transaction_operations</title>
<g id="a_node10"><a xlink:href="../../tables/pending_transaction_operations.html" xlink:title="pending_transaction_operations" target="_top">
<polygon fill="#ffffff" stroke="transparent" points="966,-524 966,-582 1248,-582 1248,-524 966,-524"/>
<polygon fill="#f5f5f5" stroke="transparent" points="966,-560 966,-582 1248,-582 1248,-560 966,-560"/>
<polygon fill="none" stroke="black" points="966,-560 966,-582 1248,-582 1248,-560 966,-560"/>
<text text-anchor="start" x="971" y="-569.2" font-family="Helvetica,sans-Serif" font-weight="bold" font-size="11.00">pending_transaction_operations</text>
<text text-anchor="start" x="1206" y="-568.2" font-family="Helvetica,sans-Serif" font-size="11.00">[table]</text>
<polygon fill="none" stroke="black" points="966,-542 966,-560 1248,-560 1248,-542 966,-542"/>
<text text-anchor="start" x="969" y="-548.2" font-family="Helvetica,sans-Serif" font-size="11.00">...</text>
<polygon fill="#ffffff" stroke="transparent" points="966,-524 966,-542 1248,-542 1248,-524 966,-524"/>
<polygon fill="none" stroke="black" points="966,-524 966,-542 1248,-542 1248,-524 966,-524"/>
<polygon fill="#ffffff" stroke="transparent" points="967,-525 967,-541 1069,-541 1069,-525 967,-525"/>
<text text-anchor="start" x="969" y="-530.2" font-family="Helvetica,sans-Serif" font-size="11.00">&lt; 1</text>
<polygon fill="#ffffff" stroke="transparent" points="1069,-525 1069,-541 1158,-541 1158,-525 1069,-525"/>
<text text-anchor="start" x="1109.5" y="-530.2" font-family="Helvetica,sans-Serif" font-size="11.00"> &#160;</text>
<polygon fill="#ffffff" stroke="transparent" points="1158,-525 1158,-541 1247,-541 1247,-525 1158,-525"/>
<text text-anchor="start" x="1237" y="-530.2" font-family="Helvetica,sans-Serif" font-size="11.00"> &#160;</text>
<polygon fill="black" stroke="black" points="1069,-525 1069,-541 1069,-541 1069,-525 1069,-525"/>
<polygon fill="black" stroke="black" points="1158,-525 1158,-541 1158,-541 1158,-525 1158,-525"/>
</a>
</g>
</g>
<!-- pending_transaction_operations&#45;&gt;transactions -->
<g id="edge12" class="edge">
<title>pending_transaction_operations:w&#45;&gt;transactions:e</title>
<path fill="none" stroke="black" d="M954.59,-551C922.24,-551 887.58,-551 857.83,-551"/>
<polygon fill="black" stroke="black" points="964.2,-547 964.2,-555 962.6,-555 962.6,-547 964.2,-547"/>
<polyline fill="none" stroke="black" points="965,-551 961,-551 "/>
<ellipse fill="none" stroke="black" cx="957.8" cy="-551" rx="3.2" ry="3.2"/>
</g>
<!-- signed_authorizations -->
<g id="node11" class="node">
<title>signed_authorizations</title>
<g id="a_node11"><a xlink:href="../../tables/signed_authorizations.html" xlink:title="signed_authorizations" target="_top">
<polygon fill="#ffffff" stroke="transparent" points="1003,-682 1003,-740 1211,-740 1211,-682 1003,-682"/>
<polygon fill="#f5f5f5" stroke="transparent" points="1003,-718 1003,-740 1211,-740 1211,-718 1003,-718"/>
<polygon fill="none" stroke="black" points="1003,-718 1003,-740 1211,-740 1211,-718 1003,-718"/>
<text text-anchor="start" x="1008" y="-727.2" font-family="Helvetica,sans-Serif" font-weight="bold" font-size="11.00">signed_authorizations</text>
<text text-anchor="start" x="1169" y="-726.2" font-family="Helvetica,sans-Serif" font-size="11.00">[table]</text>
<polygon fill="none" stroke="black" points="1003,-700 1003,-718 1211,-718 1211,-700 1003,-700"/>
<text text-anchor="start" x="1006" y="-706.2" font-family="Helvetica,sans-Serif" font-size="11.00">...</text>
<polygon fill="#ffffff" stroke="transparent" points="1003,-682 1003,-700 1211,-700 1211,-682 1003,-682"/>
<polygon fill="none" stroke="black" points="1003,-682 1003,-700 1211,-700 1211,-682 1003,-682"/>
<polygon fill="#ffffff" stroke="transparent" points="1004,-683 1004,-699 1081,-699 1081,-683 1004,-683"/>
<text text-anchor="start" x="1006" y="-688.2" font-family="Helvetica,sans-Serif" font-size="11.00">&lt; 1</text>
<polygon fill="#ffffff" stroke="transparent" points="1081,-683 1081,-699 1146,-699 1146,-683 1081,-683"/>
<text text-anchor="start" x="1109.5" y="-688.2" font-family="Helvetica,sans-Serif" font-size="11.00"> &#160;</text>
<polygon fill="#ffffff" stroke="transparent" points="1146,-683 1146,-699 1210,-699 1210,-683 1146,-683"/>
<text text-anchor="start" x="1200" y="-688.2" font-family="Helvetica,sans-Serif" font-size="11.00"> &#160;</text>
<polygon fill="black" stroke="black" points="1081,-683 1081,-699 1081,-699 1081,-683 1081,-683"/>
<polygon fill="black" stroke="black" points="1146,-683 1146,-699 1146,-699 1146,-683 1146,-683"/>
</a>
</g>
</g>
<!-- signed_authorizations&#45;&gt;transactions -->
<g id="edge13" class="edge">
<title>signed_authorizations:w&#45;&gt;transactions:e</title>
<path fill="none" stroke="black" d="M987.67,-706.61C974.35,-701.34 969.74,-687.9 958,-672 935.64,-641.72 953.03,-619.13 925,-594 906.41,-577.33 881.58,-567.12 857.81,-560.86"/>
<polygon fill="black" stroke="black" points="994.11,-707.68 1001.41,-712.55 998.05,-708.34 1002,-709 1002,-709 1002,-709 998.05,-708.34 1002.59,-705.45 994.11,-707.68 994.11,-707.68"/>
<ellipse fill="none" stroke="black" cx="990.95" cy="-707.16" rx="3.2" ry="3.2"/>
</g>
<!-- token_transfers -->
<g id="node12" class="node">
<title>token_transfers</title>
<g id="a_node12"><a xlink:href="../../tables/token_transfers.html" xlink:title="token_transfers" target="_top">
<polygon fill="#ffffff" stroke="transparent" points="1026,-116 1026,-174 1188,-174 1188,-116 1026,-116"/>
<polygon fill="#f5f5f5" stroke="transparent" points="1026,-152 1026,-174 1188,-174 1188,-152 1026,-152"/>
<polygon fill="none" stroke="black" points="1026,-152 1026,-174 1188,-174 1188,-152 1026,-152"/>
<text text-anchor="start" x="1031" y="-161.2" font-family="Helvetica,sans-Serif" font-weight="bold" font-size="11.00">token_transfers</text>
<text text-anchor="start" x="1146" y="-160.2" font-family="Helvetica,sans-Serif" font-size="11.00">[table]</text>
<polygon fill="none" stroke="black" points="1026,-134 1026,-152 1188,-152 1188,-134 1026,-134"/>
<text text-anchor="start" x="1029" y="-140.2" font-family="Helvetica,sans-Serif" font-size="11.00">...</text>
<polygon fill="#ffffff" stroke="transparent" points="1026,-116 1026,-134 1188,-134 1188,-116 1026,-116"/>
<polygon fill="none" stroke="black" points="1026,-116 1026,-134 1188,-134 1188,-116 1026,-116"/>
<polygon fill="#ffffff" stroke="transparent" points="1027,-117 1027,-133 1089,-133 1089,-117 1027,-117"/>
<text text-anchor="start" x="1029" y="-122.2" font-family="Helvetica,sans-Serif" font-size="11.00">&lt; 2</text>
<polygon fill="#ffffff" stroke="transparent" points="1089,-117 1089,-133 1138,-133 1138,-117 1089,-117"/>
<text text-anchor="start" x="1109.5" y="-122.2" font-family="Helvetica,sans-Serif" font-size="11.00"> &#160;</text>
<polygon fill="#ffffff" stroke="transparent" points="1138,-117 1138,-133 1187,-133 1187,-117 1138,-117"/>
<text text-anchor="start" x="1177" y="-122.2" font-family="Helvetica,sans-Serif" font-size="11.00"> &#160;</text>
<polygon fill="black" stroke="black" points="1089,-117 1089,-133 1089,-133 1089,-117 1089,-117"/>
<polygon fill="black" stroke="black" points="1138,-117 1138,-133 1138,-133 1138,-117 1138,-117"/>
</a>
</g>
</g>
<!-- token_transfers&#45;&gt;blocks -->
<g id="edge14" class="edge">
<title>token_transfers:w&#45;&gt;blocks:e</title>
<path fill="none" stroke="black" d="M1010.43,-144.39C894.49,-162.61 407.31,-354.18 350,-405 314.73,-436.28 289.76,-485.49 275.99,-518"/>
<polygon fill="black" stroke="black" points="1017.04,-143.76 1025.34,-146.58 1021.02,-143.38 1025,-143 1025,-143 1025,-143 1021.02,-143.38 1024.66,-139.42 1017.04,-143.76 1017.04,-143.76"/>
<ellipse fill="none" stroke="black" cx="1013.85" cy="-144.07" rx="3.2" ry="3.2"/>
</g>
<!-- token_transfers&#45;&gt;transactions -->
<g id="edge15" class="edge">
<title>token_transfers:w&#45;&gt;transactions:e</title>
<path fill="none" stroke="black" d="M1010.31,-144.01C986.63,-147.65 976.51,-161.09 958,-184 930.17,-218.44 942.68,-237.41 925,-278 886.19,-367.1 830.28,-467.08 801.03,-517.73"/>
<polygon fill="black" stroke="black" points="1017.02,-143.55 1025.25,-146.59 1021.01,-143.27 1025,-143 1025,-143 1025,-143 1021.01,-143.27 1024.75,-139.41 1017.02,-143.55 1017.02,-143.55"/>
<ellipse fill="none" stroke="black" cx="1013.83" cy="-143.77" rx="3.2" ry="3.2"/>
</g>
<!-- transaction_actions -->
<g id="node13" class="node">
<title>transaction_actions</title>
<g id="a_node13"><a xlink:href="../../tables/transaction_actions.html" xlink:title="transaction_actions" target="_top">
<polygon fill="#ffffff" stroke="transparent" points="1012,-603 1012,-661 1202,-661 1202,-603 1012,-603"/>
<polygon fill="#f5f5f5" stroke="transparent" points="1012,-639 1012,-661 1202,-661 1202,-639 1012,-639"/>
<polygon fill="none" stroke="black" points="1012,-639 1012,-661 1202,-661 1202,-639 1012,-639"/>
<text text-anchor="start" x="1017" y="-648.2" font-family="Helvetica,sans-Serif" font-weight="bold" font-size="11.00">transaction_actions</text>
<text text-anchor="start" x="1160" y="-647.2" font-family="Helvetica,sans-Serif" font-size="11.00">[table]</text>
<polygon fill="none" stroke="black" points="1012,-621 1012,-639 1202,-639 1202,-621 1012,-621"/>
<text text-anchor="start" x="1015" y="-627.2" font-family="Helvetica,sans-Serif" font-size="11.00">...</text>
<polygon fill="#ffffff" stroke="transparent" points="1012,-603 1012,-621 1202,-621 1202,-603 1012,-603"/>
<polygon fill="none" stroke="black" points="1012,-603 1012,-621 1202,-621 1202,-603 1012,-603"/>
<polygon fill="#ffffff" stroke="transparent" points="1013,-604 1013,-620 1084,-620 1084,-604 1013,-604"/>
<text text-anchor="start" x="1015" y="-609.2" font-family="Helvetica,sans-Serif" font-size="11.00">&lt; 1</text>
<polygon fill="#ffffff" stroke="transparent" points="1084,-604 1084,-620 1143,-620 1143,-604 1084,-604"/>
<text text-anchor="start" x="1109.5" y="-609.2" font-family="Helvetica,sans-Serif" font-size="11.00"> &#160;</text>
<polygon fill="#ffffff" stroke="transparent" points="1143,-604 1143,-620 1201,-620 1201,-604 1143,-604"/>
<text text-anchor="start" x="1191" y="-609.2" font-family="Helvetica,sans-Serif" font-size="11.00"> &#160;</text>
<polygon fill="black" stroke="black" points="1084,-604 1084,-620 1084,-620 1084,-604 1084,-604"/>
<polygon fill="black" stroke="black" points="1143,-604 1143,-620 1143,-620 1143,-604 1143,-604"/>
</a>
</g>
</g>
<!-- transaction_actions&#45;&gt;transactions -->
<g id="edge16" class="edge">
<title>transaction_actions:w&#45;&gt;transactions:e</title>
<path fill="none" stroke="black" d="M996.62,-628.97C967.58,-624.45 958.98,-606.17 925,-594 903.33,-586.24 879.49,-578.71 857.58,-572.17"/>
<polygon fill="black" stroke="black" points="1003.02,-629.43 1010.74,-633.59 1007.01,-629.71 1011,-630 1011,-630 1011,-630 1007.01,-629.71 1011.26,-626.41 1003.02,-629.43 1003.02,-629.43"/>
<ellipse fill="none" stroke="black" cx="999.83" cy="-629.2" rx="3.2" ry="3.2"/>
</g>
<!-- transaction_forks -->
<g id="node14" class="node">
<title>transaction_forks</title>
<g id="a_node14"><a xlink:href="../../tables/transaction_forks.html" xlink:title="transaction_forks" target="_top">
<polygon fill="#ffffff" stroke="transparent" points="1020,-37 1020,-95 1194,-95 1194,-37 1020,-37"/>
<polygon fill="#f5f5f5" stroke="transparent" points="1020,-73 1020,-95 1194,-95 1194,-73 1020,-73"/>
<polygon fill="none" stroke="black" points="1020,-73 1020,-95 1194,-95 1194,-73 1020,-73"/>
<text text-anchor="start" x="1025" y="-82.2" font-family="Helvetica,sans-Serif" font-weight="bold" font-size="11.00">transaction_forks</text>
<text text-anchor="start" x="1152" y="-81.2" font-family="Helvetica,sans-Serif" font-size="11.00">[table]</text>
<polygon fill="none" stroke="black" points="1020,-55 1020,-73 1194,-73 1194,-55 1020,-55"/>
<text text-anchor="start" x="1023" y="-61.2" font-family="Helvetica,sans-Serif" font-size="11.00">...</text>
<polygon fill="#ffffff" stroke="transparent" points="1020,-37 1020,-55 1194,-55 1194,-37 1020,-37"/>
<polygon fill="none" stroke="black" points="1020,-37 1020,-55 1194,-55 1194,-37 1020,-37"/>
<polygon fill="#ffffff" stroke="transparent" points="1021,-38 1021,-54 1087,-54 1087,-38 1021,-38"/>
<text text-anchor="start" x="1023" y="-43.2" font-family="Helvetica,sans-Serif" font-size="11.00">&lt; 2</text>
<polygon fill="#ffffff" stroke="transparent" points="1087,-38 1087,-54 1140,-54 1140,-38 1087,-38"/>
<text text-anchor="start" x="1109.5" y="-43.2" font-family="Helvetica,sans-Serif" font-size="11.00"> &#160;</text>
<polygon fill="#ffffff" stroke="transparent" points="1140,-38 1140,-54 1193,-54 1193,-38 1140,-38"/>
<text text-anchor="start" x="1183" y="-43.2" font-family="Helvetica,sans-Serif" font-size="11.00"> &#160;</text>
<polygon fill="black" stroke="black" points="1087,-38 1087,-54 1087,-54 1087,-38 1087,-38"/>
<polygon fill="black" stroke="black" points="1140,-38 1140,-54 1140,-54 1140,-38 1140,-38"/>
</a>
</g>
</g>
<!-- transaction_forks&#45;&gt;blocks -->
<g id="edge18" class="edge">
<title>transaction_forks:w&#45;&gt;blocks:e</title>
<path fill="none" stroke="black" d="M1004.46,-63.99C701.78,-63.71 559.45,-56.4 350,-282 287.58,-349.23 270.2,-461.77 265.36,-517.56"/>
<polygon fill="black" stroke="black" points="1011,-64 1019,-67.6 1015,-64 1019,-64 1019,-64 1019,-64 1015,-64 1019,-60.4 1011,-64 1011,-64"/>
<ellipse fill="none" stroke="black" cx="1007.8" cy="-63.99" rx="3.2" ry="3.2"/>
</g>
<!-- transaction_forks&#45;&gt;transactions -->
<g id="edge17" class="edge">
<title>transaction_forks:w&#45;&gt;transactions:e</title>
<path fill="none" stroke="black" d="M1004.46,-65.29C983.34,-69.51 975.05,-83.83 958,-105 930.45,-139.21 828.41,-420.01 793.39,-517.67"/>
<polygon fill="black" stroke="black" points="1011.03,-64.71 1019.32,-67.59 1015.02,-64.35 1019,-64 1019,-64 1019,-64 1015.02,-64.35 1018.68,-60.41 1011.03,-64.71 1011.03,-64.71"/>
<ellipse fill="none" stroke="black" cx="1007.84" cy="-64.99" rx="3.2" ry="3.2"/>
</g>
</g>
</svg>
