<?xml version="1.0" encoding="UTF-8" standalone="no"?>
<!DOCTYPE svg PUBLIC "-//W3C//DTD SVG 1.1//EN"
 "http://www.w3.org/Graphics/SVG/1.1/DTD/svg11.dtd">
<!-- Generated by graphviz version 9.0.0 (20230911.1827)
 -->
<!-- Title: twoDegreesRelationshipsDiagram Pages: 1 -->
<svg width="642pt" height="677pt"
 viewBox="0.00 0.00 642.00 677.00" xmlns="http://www.w3.org/2000/svg" xmlns:xlink="http://www.w3.org/1999/xlink">
<g id="graph0" class="graph" transform="scale(1 1) rotate(0) translate(4 673)">
<title>twoDegreesRelationshipsDiagram</title>
<polygon fill="#ffffff" stroke="none" points="-4,4 -4,-673 638,-673 638,4 -4,4"/>
<text text-anchor="middle" x="71.38" y="-5.55" font-family="Helvetica,sans-Serif" font-size="11.00">Generated by SchemaSpy</text>
<!-- block_rewards -->
<g id="node1" class="node">
<title>block_rewards</title>
<g id="a_node1"><a xlink:href="../../tables/block_rewards.html" xlink:title="block_rewards" target="_top">
<polygon fill="#ffffff" stroke="none" points="183,-461 183,-519 306,-519 306,-461 183,-461"/>
<polygon fill="#f5f5f5" stroke="none" points="183,-497 183,-519 306,-519 306,-497 183,-497"/>
<polygon fill="none" stroke="black" points="183,-497 183,-519 306,-519 306,-497 183,-497"/>
<text text-anchor="start" x="188" y="-504.55" font-family="Helvetica,sans-Serif" font-weight="bold" font-size="11.00">block_rewards</text>
<text text-anchor="start" x="272" y="-503.55" font-family="Helvetica,sans-Serif" font-size="11.00">[table]</text>
<polygon fill="none" stroke="black" points="183,-479 183,-497 306,-497 306,-479 183,-479"/>
<text text-anchor="start" x="186" y="-483.55" font-family="Helvetica,sans-Serif" font-size="11.00">...</text>
<polygon fill="#ffffff" stroke="none" points="183,-461 183,-479 243,-479 243,-461 183,-461"/>
<polygon fill="none" stroke="black" points="183,-461 183,-479 243,-479 243,-461 183,-461"/>
<text text-anchor="start" x="186" y="-465.55" font-family="Helvetica,sans-Serif" font-size="11.00">&lt; 1</text>
<polygon fill="#ffffff" stroke="none" points="243,-461 243,-479 274,-479 274,-461 243,-461"/>
<polygon fill="none" stroke="black" points="243,-461 243,-479 274,-479 274,-461 243,-461"/>
<text text-anchor="start" x="265" y="-465.55" font-family="Helvetica,sans-Serif" font-size="11.00"> &#160;</text>
<polygon fill="#ffffff" stroke="none" points="274,-461 274,-479 306,-479 306,-461 274,-461"/>
<polygon fill="none" stroke="black" points="274,-461 274,-479 306,-479 306,-461 274,-461"/>
<text text-anchor="start" x="297" y="-465.55" font-family="Helvetica,sans-Serif" font-size="11.00"> &#160;</text>
</a>
</g>
</g>
<!-- blocks -->
<g id="node2" class="node">
<title>blocks</title>
<g id="a_node2"><a xlink:href="../../tables/blocks.html" xlink:title="blocks" target="_top">
<polygon fill="#ffffff" stroke="none" points="8,-223 8,-281 85,-281 85,-223 8,-223"/>
<polygon fill="#f5f5f5" stroke="none" points="8,-259 8,-281 85,-281 85,-259 8,-259"/>
<polygon fill="none" stroke="black" points="8,-259 8,-281 85,-281 85,-259 8,-259"/>
<text text-anchor="start" x="12.75" y="-266.55" font-family="Helvetica,sans-Serif" font-weight="bold" font-size="11.00">blocks</text>
<text text-anchor="start" x="51" y="-265.55" font-family="Helvetica,sans-Serif" font-size="11.00">[table]</text>
<polygon fill="none" stroke="black" points="8,-241 8,-259 85,-259 85,-241 8,-241"/>
<text text-anchor="start" x="11" y="-245.55" font-family="Helvetica,sans-Serif" font-size="11.00">...</text>
<polygon fill="#ffffff" stroke="none" points="8,-223 8,-241 36,-241 36,-223 8,-223"/>
<polygon fill="none" stroke="black" points="8,-223 8,-241 36,-241 36,-223 8,-223"/>
<text text-anchor="start" x="11" y="-227.55" font-family="Helvetica,sans-Serif" font-size="11.00"> &#160;</text>
<polygon fill="#ffffff" stroke="none" points="36,-223 36,-241 56,-241 56,-223 36,-223"/>
<polygon fill="none" stroke="black" points="36,-223 36,-241 56,-241 56,-223 36,-223"/>
<text text-anchor="start" x="47" y="-227.55" font-family="Helvetica,sans-Serif" font-size="11.00"> &#160;</text>
<polygon fill="#ffffff" stroke="none" points="56,-223 56,-241 85,-241 85,-223 56,-223"/>
<polygon fill="none" stroke="black" points="56,-223 56,-241 85,-241 85,-223 56,-223"/>
<text text-anchor="start" x="66.25" y="-227.55" font-family="Helvetica,sans-Serif" font-size="11.00">9 &gt;</text>
</a>
</g>
</g>
<!-- block_rewards&#45;&gt;blocks -->
<g id="edge1" class="edge">
<title>block_rewards:w&#45;&gt;blocks:e</title>
<path fill="none" stroke="black" d="M165.91,-486.62C85.77,-472.04 59.15,-345.86 50.91,-284.81"/>
<polygon fill="black" stroke="black" points="173.2,-487.26 180.85,-491.56 177.52,-487.65 180.83,-487.94 180.83,-487.94 180.83,-487.94 177.52,-487.65 181.48,-484.38 173.2,-487.26"/>
<ellipse fill="none" stroke="black" cx="168.3" cy="-486.83" rx="3.2" ry="3.2"/>
</g>
<!-- block_second_degree_relations -->
<g id="node3" class="node">
<title>block_second_degree_relations</title>
<g id="a_node3"><a xlink:href="../../tables/block_second_degree_relations.html" xlink:title="block_second_degree_relations" target="_top">
<polygon fill="#ffffff" stroke="none" points="134,-382 134,-440 355,-440 355,-382 134,-382"/>
<polygon fill="#f5f5f5" stroke="none" points="134,-418 134,-440 355,-440 355,-418 134,-418"/>
<polygon fill="none" stroke="black" points="134,-418 134,-440 355,-440 355,-418 134,-418"/>
<text text-anchor="start" x="139" y="-425.55" font-family="Helvetica,sans-Serif" font-weight="bold" font-size="11.00">block_second_degree_relations</text>
<text text-anchor="start" x="321" y="-424.55" font-family="Helvetica,sans-Serif" font-size="11.00">[table]</text>
<polygon fill="none" stroke="black" points="134,-400 134,-418 355,-418 355,-400 134,-400"/>
<text text-anchor="start" x="137" y="-404.55" font-family="Helvetica,sans-Serif" font-size="11.00">...</text>
<polygon fill="#ffffff" stroke="none" points="134,-382 134,-400 243,-400 243,-382 134,-382"/>
<polygon fill="none" stroke="black" points="134,-382 134,-400 243,-400 243,-382 134,-382"/>
<text text-anchor="start" x="137" y="-386.55" font-family="Helvetica,sans-Serif" font-size="11.00">&lt; 1</text>
<polygon fill="#ffffff" stroke="none" points="243,-382 243,-400 299,-400 299,-382 243,-382"/>
<polygon fill="none" stroke="black" points="243,-382 243,-400 299,-400 299,-382 243,-382"/>
<text text-anchor="start" x="290" y="-386.55" font-family="Helvetica,sans-Serif" font-size="11.00"> &#160;</text>
<polygon fill="#ffffff" stroke="none" points="299,-382 299,-400 355,-400 355,-382 299,-382"/>
<polygon fill="none" stroke="black" points="299,-382 299,-400 355,-400 355,-382 299,-382"/>
<text text-anchor="start" x="346" y="-386.55" font-family="Helvetica,sans-Serif" font-size="11.00"> &#160;</text>
</a>
</g>
</g>
<!-- block_second_degree_relations&#45;&gt;blocks -->
<g id="edge2" class="edge">
<title>block_second_degree_relations:w&#45;&gt;blocks:e</title>
<path fill="none" stroke="black" d="M116.85,-406.79C72.83,-393.77 56.59,-326.36 50.72,-284.91"/>
<polygon fill="black" stroke="black" points="124.25,-407.83 131.66,-412.52 128.54,-408.44 131.84,-408.91 131.84,-408.91 131.84,-408.91 128.54,-408.44 132.67,-405.39 124.25,-407.83"/>
<ellipse fill="none" stroke="black" cx="119.38" cy="-407.14" rx="3.2" ry="3.2"/>
</g>
<!-- internal_transactions -->
<g id="node4" class="node">
<title>internal_transactions</title>
<g id="a_node4"><a xlink:href="../../tables/internal_transactions.html" xlink:title="internal_transactions" target="_top">
<polygon fill="#ffffff" stroke="none" points="435,-607 435,-665 595,-665 595,-607 435,-607"/>
<polygon fill="#f5f5f5" stroke="none" points="435,-643 435,-665 595,-665 595,-643 435,-643"/>
<polygon fill="none" stroke="black" points="435,-643 435,-665 595,-665 595,-643 435,-643"/>
<text text-anchor="start" x="440" y="-650.55" font-family="Helvetica,sans-Serif" font-weight="bold" font-size="11.00">internal_transactions</text>
<text text-anchor="start" x="561" y="-649.55" font-family="Helvetica,sans-Serif" font-size="11.00">[table]</text>
<polygon fill="none" stroke="black" points="435,-625 435,-643 595,-643 595,-625 435,-625"/>
<text text-anchor="start" x="438" y="-629.55" font-family="Helvetica,sans-Serif" font-size="11.00">...</text>
<polygon fill="#ffffff" stroke="none" points="435,-607 435,-625 513,-625 513,-607 435,-607"/>
<polygon fill="none" stroke="black" points="435,-607 435,-625 513,-625 513,-607 435,-607"/>
<text text-anchor="start" x="438" y="-611.55" font-family="Helvetica,sans-Serif" font-size="11.00">&lt; 2</text>
<polygon fill="#ffffff" stroke="none" points="513,-607 513,-625 554,-625 554,-607 513,-607"/>
<polygon fill="none" stroke="black" points="513,-607 513,-625 554,-625 554,-607 513,-607"/>
<text text-anchor="start" x="545" y="-611.55" font-family="Helvetica,sans-Serif" font-size="11.00"> &#160;</text>
<polygon fill="#ffffff" stroke="none" points="554,-607 554,-625 595,-625 595,-607 554,-607"/>
<polygon fill="none" stroke="black" points="554,-607 554,-625 595,-625 595,-607 554,-607"/>
<text text-anchor="start" x="586" y="-611.55" font-family="Helvetica,sans-Serif" font-size="11.00"> &#160;</text>
</a>
</g>
</g>
<!-- internal_transactions&#45;&gt;blocks -->
<g id="edge3" class="edge">
<title>internal_transactions:w&#45;&gt;blocks:e</title>
<path fill="none" stroke="black" d="M418.57,-630.63C407.88,-624.87 403.79,-612.25 396,-597 350.03,-506.99 435.61,-442.31 363,-372 324.92,-335.13 172.73,-370.02 126,-345 100.48,-331.34 79.79,-305.66 66.08,-284.75"/>
<polygon fill="black" stroke="black" points="425.86,-632.22 432.91,-637.45 430.09,-633.15 433.35,-633.86 433.35,-633.86 433.35,-633.86 430.09,-633.15 434.44,-630.41 425.86,-632.22"/>
<ellipse fill="none" stroke="black" cx="421.05" cy="-631.18" rx="3.2" ry="3.2"/>
</g>
<!-- transactions -->
<g id="node5" class="node">
<title>transactions</title>
<g id="a_node5"><a xlink:href="../../tables/transactions.html" xlink:title="transactions" target="_top">
<polygon fill="#ffffff" stroke="none" points="189.5,-276 189.5,-334 299.5,-334 299.5,-276 189.5,-276"/>
<polygon fill="#f5f5f5" stroke="none" points="189.5,-312 189.5,-334 299.5,-334 299.5,-312 189.5,-312"/>
<polygon fill="none" stroke="black" points="189.5,-312 189.5,-334 299.5,-334 299.5,-312 189.5,-312"/>
<text text-anchor="start" x="194.5" y="-319.55" font-family="Helvetica,sans-Serif" font-weight="bold" font-size="11.00">transactions</text>
<text text-anchor="start" x="265.5" y="-318.55" font-family="Helvetica,sans-Serif" font-size="11.00">[table]</text>
<polygon fill="none" stroke="black" points="189.5,-294 189.5,-312 299.5,-312 299.5,-294 189.5,-294"/>
<text text-anchor="start" x="192.5" y="-298.55" font-family="Helvetica,sans-Serif" font-size="11.00">...</text>
<polygon fill="#ffffff" stroke="none" points="189.5,-276 189.5,-294 238.5,-294 238.5,-276 189.5,-276"/>
<polygon fill="none" stroke="black" points="189.5,-276 189.5,-294 238.5,-294 238.5,-276 189.5,-276"/>
<text text-anchor="start" x="192.5" y="-280.55" font-family="Helvetica,sans-Serif" font-size="11.00">&lt; 1</text>
<polygon fill="#ffffff" stroke="none" points="238.5,-276 238.5,-294 264.5,-294 264.5,-276 238.5,-276"/>
<polygon fill="none" stroke="black" points="238.5,-276 238.5,-294 264.5,-294 264.5,-276 238.5,-276"/>
<text text-anchor="start" x="255.5" y="-280.55" font-family="Helvetica,sans-Serif" font-size="11.00"> &#160;</text>
<polygon fill="#ffffff" stroke="none" points="264.5,-276 264.5,-294 299.5,-294 299.5,-276 264.5,-276"/>
<polygon fill="none" stroke="black" points="264.5,-276 264.5,-294 299.5,-294 299.5,-276 264.5,-276"/>
<text text-anchor="start" x="280.75" y="-280.55" font-family="Helvetica,sans-Serif" font-size="11.00">5 &gt;</text>
</a>
</g>
</g>
<!-- internal_transactions&#45;&gt;transactions -->
<g id="edge4" class="edge">
<title>internal_transactions:w&#45;&gt;transactions:e</title>
<path fill="none" stroke="black" d="M418.55,-630.65C407.82,-624.9 403.68,-612.31 396,-597 345.92,-497.23 432.84,-435.09 363,-348 349.28,-330.88 328.09,-320.58 307.47,-314.38"/>
<polygon fill="black" stroke="black" points="425.86,-632.23 432.91,-637.45 430.09,-633.15 433.35,-633.86 433.35,-633.86 433.35,-633.86 430.09,-633.15 434.44,-630.41 425.86,-632.23"/>
<ellipse fill="none" stroke="black" cx="421.05" cy="-631.19" rx="3.2" ry="3.2"/>
</g>
<!-- transactions&#45;&gt;blocks -->
<g id="edge13" class="edge">
<title>transactions:w&#45;&gt;blocks:e</title>
<path fill="none" stroke="black" d="M166.51,-284.18C141.54,-277.43 114.66,-270.16 92.77,-264.24"/>
<polygon fill="black" stroke="black" points="173.71,-286.13 180.49,-291.69 177.89,-287.26 181.11,-288.13 181.11,-288.13 181.11,-288.13 177.89,-287.26 182.37,-284.74 173.71,-286.13"/>
<ellipse fill="none" stroke="black" cx="168.96" cy="-284.84" rx="3.2" ry="3.2"/>
</g>
<!-- logs -->
<g id="node6" class="node">
<title>logs</title>
<g id="a_node6"><a xlink:href="../../tables/logs.html" xlink:title="logs" target="_top">
<polygon fill="#ffffff" stroke="none" points="404,-199 404,-507 626,-507 626,-199 404,-199"/>
<polygon fill="#f5f5f5" stroke="none" points="406,-483 406,-505 624,-505 624,-483 406,-483"/>
<polygon fill="none" stroke="black" points="406,-483 406,-505 624,-505 624,-483 406,-483"/>
<text text-anchor="start" x="409.75" y="-490.55" font-family="Helvetica,sans-Serif" font-weight="bold" font-size="11.00">logs</text>
<text text-anchor="start" x="589.75" y="-489.55" font-family="Helvetica,sans-Serif" font-size="11.00">[table]</text>
<polygon fill="none" stroke="black" points="406,-461 406,-483 526,-483 526,-461 406,-461"/>
<text text-anchor="start" x="426" y="-467.55" font-family="Helvetica,sans-Serif" font-size="11.00">data</text>
<polygon fill="none" stroke="black" points="526,-461 526,-483 624,-483 624,-461 526,-461"/>
<text text-anchor="start" x="528.88" y="-467.55" font-family="Helvetica,sans-Serif" font-size="11.00">bytea[2147483647]</text>
<polygon fill="none" stroke="black" points="406,-439 406,-461 526,-461 526,-439 406,-439"/>
<image xlink:href="../../images/primaryKeys.png" width="11px" height="12px" preserveAspectRatio="xMinYMin meet" x="411" y="-456"/>
<text text-anchor="start" x="426" y="-445.55" font-family="Helvetica,sans-Serif" font-size="11.00">index</text>
<polygon fill="none" stroke="black" points="526,-439 526,-461 624,-461 624,-439 526,-439"/>
<text text-anchor="start" x="529" y="-445.55" font-family="Helvetica,sans-Serif" font-size="11.00">int4[10]</text>
<polygon fill="#ffffff" stroke="none" points="406,-417 406,-439 526,-439 526,-417 406,-417"/>
<polygon fill="none" stroke="black" points="406,-417 406,-439 526,-439 526,-417 406,-417"/>
<text text-anchor="start" x="426" y="-423.55" font-family="Helvetica,sans-Serif" font-size="11.00">first_topic</text>
<polygon fill="none" stroke="black" points="526,-417 526,-439 624,-439 624,-417 526,-417"/>
<text text-anchor="start" x="528.88" y="-423.55" font-family="Helvetica,sans-Serif" font-size="11.00">bytea[2147483647]</text>
<polygon fill="#ffffff" stroke="none" points="406,-395 406,-417 526,-417 526,-395 406,-395"/>
<polygon fill="none" stroke="black" points="406,-395 406,-417 526,-417 526,-395 406,-395"/>
<text text-anchor="start" x="426" y="-401.55" font-family="Helvetica,sans-Serif" font-size="11.00">second_topic</text>
<polygon fill="none" stroke="black" points="526,-395 526,-417 624,-417 624,-395 526,-395"/>
<text text-anchor="start" x="528.88" y="-401.55" font-family="Helvetica,sans-Serif" font-size="11.00">bytea[2147483647]</text>
<polygon fill="#ffffff" stroke="none" points="406,-373 406,-395 526,-395 526,-373 406,-373"/>
<polygon fill="none" stroke="black" points="406,-373 406,-395 526,-395 526,-373 406,-373"/>
<text text-anchor="start" x="426" y="-379.55" font-family="Helvetica,sans-Serif" font-size="11.00">third_topic</text>
<polygon fill="none" stroke="black" points="526,-373 526,-395 624,-395 624,-373 526,-373"/>
<text text-anchor="start" x="528.88" y="-379.55" font-family="Helvetica,sans-Serif" font-size="11.00">bytea[2147483647]</text>
<polygon fill="#ffffff" stroke="none" points="406,-351 406,-373 526,-373 526,-351 406,-351"/>
<polygon fill="none" stroke="black" points="406,-351 406,-373 526,-373 526,-351 406,-351"/>
<text text-anchor="start" x="426" y="-357.55" font-family="Helvetica,sans-Serif" font-size="11.00">fourth_topic</text>
<polygon fill="none" stroke="black" points="526,-351 526,-373 624,-373 624,-351 526,-351"/>
<text text-anchor="start" x="528.88" y="-357.55" font-family="Helvetica,sans-Serif" font-size="11.00">bytea[2147483647]</text>
<polygon fill="none" stroke="black" points="406,-329 406,-351 526,-351 526,-329 406,-329"/>
<text text-anchor="start" x="426" y="-335.55" font-family="Helvetica,sans-Serif" font-size="11.00">inserted_at</text>
<polygon fill="none" stroke="black" points="526,-329 526,-351 624,-351 624,-329 526,-329"/>
<text text-anchor="start" x="529" y="-335.55" font-family="Helvetica,sans-Serif" font-size="11.00">timestamp[29,6]</text>
<polygon fill="none" stroke="black" points="406,-307 406,-329 526,-329 526,-307 406,-307"/>
<text text-anchor="start" x="426" y="-313.55" font-family="Helvetica,sans-Serif" font-size="11.00">updated_at</text>
<polygon fill="none" stroke="black" points="526,-307 526,-329 624,-329 624,-307 526,-307"/>
<text text-anchor="start" x="529" y="-313.55" font-family="Helvetica,sans-Serif" font-size="11.00">timestamp[29,6]</text>
<polygon fill="#ffffff" stroke="none" points="406,-285 406,-307 526,-307 526,-285 406,-285"/>
<polygon fill="none" stroke="black" points="406,-285 406,-307 526,-307 526,-285 406,-285"/>
<text text-anchor="start" x="426" y="-291.55" font-family="Helvetica,sans-Serif" font-size="11.00">address_hash</text>
<polygon fill="none" stroke="black" points="526,-285 526,-307 624,-307 624,-285 526,-285"/>
<text text-anchor="start" x="528.88" y="-291.55" font-family="Helvetica,sans-Serif" font-size="11.00">bytea[2147483647]</text>
<polygon fill="none" stroke="black" points="406,-263 406,-285 526,-285 526,-263 406,-263"/>
<image xlink:href="../../images/primaryKeys.png" width="11px" height="12px" preserveAspectRatio="xMinYMin meet" x="411" y="-280"/>
<text text-anchor="start" x="426" y="-269.55" font-family="Helvetica,sans-Serif" font-size="11.00">transaction_hash</text>
<polygon fill="none" stroke="black" points="526,-263 526,-285 624,-285 624,-263 526,-263"/>
<text text-anchor="start" x="528.88" y="-269.55" font-family="Helvetica,sans-Serif" font-size="11.00">bytea[2147483647]</text>
<polygon fill="none" stroke="black" points="406,-241 406,-263 526,-263 526,-241 406,-241"/>
<image xlink:href="../../images/primaryKeys.png" width="11px" height="12px" preserveAspectRatio="xMinYMin meet" x="411" y="-258"/>
<text text-anchor="start" x="426" y="-247.55" font-family="Helvetica,sans-Serif" font-size="11.00">block_hash</text>
<polygon fill="none" stroke="black" points="526,-241 526,-263 624,-263 624,-241 526,-241"/>
<text text-anchor="start" x="528.88" y="-247.55" font-family="Helvetica,sans-Serif" font-size="11.00">bytea[2147483647]</text>
<polygon fill="#ffffff" stroke="none" points="406,-219 406,-241 526,-241 526,-219 406,-219"/>
<polygon fill="none" stroke="black" points="406,-219 406,-241 526,-241 526,-219 406,-219"/>
<text text-anchor="start" x="426" y="-225.55" font-family="Helvetica,sans-Serif" font-size="11.00">block_number</text>
<polygon fill="none" stroke="black" points="526,-219 526,-241 624,-241 624,-219 526,-219"/>
<text text-anchor="start" x="529" y="-225.55" font-family="Helvetica,sans-Serif" font-size="11.00">int4[10]</text>
<polygon fill="#ffffff" stroke="none" points="406,-201 406,-219 470,-219 470,-201 406,-201"/>
<polygon fill="none" stroke="black" points="406,-201 406,-219 470,-219 470,-201 406,-201"/>
<text text-anchor="start" x="409" y="-205.55" font-family="Helvetica,sans-Serif" font-size="11.00">&lt; 2</text>
<polygon fill="#ffffff" stroke="none" points="470,-201 470,-219 526,-219 526,-201 470,-201"/>
<polygon fill="none" stroke="black" points="470,-201 470,-219 526,-219 526,-201 470,-201"/>
<text text-anchor="start" x="517" y="-205.55" font-family="Helvetica,sans-Serif" font-size="11.00"> &#160;</text>
<polygon fill="#ffffff" stroke="none" points="526,-201 526,-219 624,-219 624,-201 526,-201"/>
<polygon fill="none" stroke="black" points="526,-201 526,-219 624,-219 624,-201 526,-201"/>
<text text-anchor="start" x="605.25" y="-205.55" font-family="Helvetica,sans-Serif" font-size="11.00">0 &gt;</text>
<polygon fill="none" stroke="black" stroke-width="2" points="405,-200 405,-506 625,-506 625,-200 405,-200"/>
</a>
</g>
</g>
<!-- logs&#45;&gt;blocks -->
<g id="edge5" class="edge">
<title>logs:w&#45;&gt;blocks:e</title>
<path fill="none" stroke="black" d="M389.44,-252C280.83,-252 157.71,-252 92.93,-252"/>
<polygon fill="black" stroke="black" points="396.67,-252 404.67,-255.6 401,-252 404.33,-252 404.33,-252 404.33,-252 401,-252 404.67,-248.4 396.67,-252"/>
<ellipse fill="none" stroke="black" cx="391.75" cy="-252" rx="3.2" ry="3.2"/>
</g>
<!-- logs&#45;&gt;transactions -->
<g id="edge6" class="edge">
<title>logs:w&#45;&gt;transactions:e</title>
<path fill="none" stroke="black" d="M389.54,-274.44C361.43,-275.99 332.19,-281.39 307.45,-287.24"/>
<polygon fill="black" stroke="black" points="396.67,-274.24 404.77,-277.61 401,-274.11 404.33,-274.02 404.33,-274.02 404.33,-274.02 401,-274.11 404.56,-270.41 396.67,-274.24"/>
<ellipse fill="none" stroke="black" cx="391.75" cy="-274.38" rx="3.2" ry="3.2"/>
</g>
<!-- pending_block_operations -->
<g id="node7" class="node">
<title>pending_block_operations</title>
<g id="a_node7"><a xlink:href="../../tables/pending_block_operations.html" xlink:title="pending_block_operations" target="_top">
<polygon fill="#ffffff" stroke="none" points="149,-170 149,-228 340,-228 340,-170 149,-170"/>
<polygon fill="#f5f5f5" stroke="none" points="149,-206 149,-228 340,-228 340,-206 149,-206"/>
<polygon fill="none" stroke="black" points="149,-206 149,-228 340,-228 340,-206 149,-206"/>
<text text-anchor="start" x="154" y="-213.55" font-family="Helvetica,sans-Serif" font-weight="bold" font-size="11.00">pending_block_operations</text>
<text text-anchor="start" x="306" y="-212.55" font-family="Helvetica,sans-Serif" font-size="11.00">[table]</text>
<polygon fill="none" stroke="black" points="149,-188 149,-206 340,-206 340,-188 149,-188"/>
<text text-anchor="start" x="152" y="-192.55" font-family="Helvetica,sans-Serif" font-size="11.00">...</text>
<polygon fill="#ffffff" stroke="none" points="149,-170 149,-188 243,-188 243,-170 149,-170"/>
<polygon fill="none" stroke="black" points="149,-170 149,-188 243,-188 243,-170 149,-170"/>
<text text-anchor="start" x="152" y="-174.55" font-family="Helvetica,sans-Serif" font-size="11.00">&lt; 1</text>
<polygon fill="#ffffff" stroke="none" points="243,-170 243,-188 291,-188 291,-170 243,-170"/>
<polygon fill="none" stroke="black" points="243,-170 243,-188 291,-188 291,-170 243,-170"/>
<text text-anchor="start" x="282" y="-174.55" font-family="Helvetica,sans-Serif" font-size="11.00"> &#160;</text>
<polygon fill="#ffffff" stroke="none" points="291,-170 291,-188 340,-188 340,-170 291,-170"/>
<polygon fill="none" stroke="black" points="291,-170 291,-188 340,-188 340,-170 291,-170"/>
<text text-anchor="start" x="331" y="-174.55" font-family="Helvetica,sans-Serif" font-size="11.00"> &#160;</text>
</a>
</g>
</g>
<!-- pending_block_operations&#45;&gt;blocks -->
<g id="edge7" class="edge">
<title>pending_block_operations:w&#45;&gt;blocks:e</title>
<path fill="none" stroke="black" d="M136.2,-197.87C118.16,-200.6 100.77,-209.35 86.24,-219.05"/>
<polygon fill="black" stroke="black" points="146.39,-193.07 147.01,-201.05 145.41,-201.17 144.8,-193.2 146.39,-193.07"/>
<polyline fill="none" stroke="black" points="147.5,-197 143.51,-197.31"/>
<ellipse fill="none" stroke="black" cx="139.82" cy="-197.59" rx="3.2" ry="3.2"/>
</g>
<!-- token_transfers -->
<g id="node8" class="node">
<title>token_transfers</title>
<g id="a_node8"><a xlink:href="../../tables/token_transfers.html" xlink:title="token_transfers" target="_top">
<polygon fill="#ffffff" stroke="none" points="450.5,-120 450.5,-178 579.5,-178 579.5,-120 450.5,-120"/>
<polygon fill="#f5f5f5" stroke="none" points="450.5,-156 450.5,-178 579.5,-178 579.5,-156 450.5,-156"/>
<polygon fill="none" stroke="black" points="450.5,-156 450.5,-178 579.5,-178 579.5,-156 450.5,-156"/>
<text text-anchor="start" x="455.5" y="-163.55" font-family="Helvetica,sans-Serif" font-weight="bold" font-size="11.00">token_transfers</text>
<text text-anchor="start" x="545.5" y="-162.55" font-family="Helvetica,sans-Serif" font-size="11.00">[table]</text>
<polygon fill="none" stroke="black" points="450.5,-138 450.5,-156 579.5,-156 579.5,-138 450.5,-138"/>
<text text-anchor="start" x="453.5" y="-142.55" font-family="Helvetica,sans-Serif" font-size="11.00">...</text>
<polygon fill="#ffffff" stroke="none" points="450.5,-120 450.5,-138 513.5,-138 513.5,-120 450.5,-120"/>
<polygon fill="none" stroke="black" points="450.5,-120 450.5,-138 513.5,-138 513.5,-120 450.5,-120"/>
<text text-anchor="start" x="453.5" y="-124.55" font-family="Helvetica,sans-Serif" font-size="11.00">&lt; 2</text>
<polygon fill="#ffffff" stroke="none" points="513.5,-120 513.5,-138 546.5,-138 546.5,-120 513.5,-120"/>
<polygon fill="none" stroke="black" points="513.5,-120 513.5,-138 546.5,-138 546.5,-120 513.5,-120"/>
<text text-anchor="start" x="537.5" y="-124.55" font-family="Helvetica,sans-Serif" font-size="11.00"> &#160;</text>
<polygon fill="#ffffff" stroke="none" points="546.5,-120 546.5,-138 579.5,-138 579.5,-120 546.5,-120"/>
<polygon fill="none" stroke="black" points="546.5,-120 546.5,-138 579.5,-138 579.5,-120 546.5,-120"/>
<text text-anchor="start" x="570.5" y="-124.55" font-family="Helvetica,sans-Serif" font-size="11.00"> &#160;</text>
</a>
</g>
</g>
<!-- token_transfers&#45;&gt;blocks -->
<g id="edge8" class="edge">
<title>token_transfers:w&#45;&gt;blocks:e</title>
<path fill="none" stroke="black" d="M433.24,-146.78C352.93,-144.78 186.32,-130.69 126,-160 99.94,-172.66 79.16,-198.41 65.55,-219.45"/>
<polygon fill="black" stroke="black" points="440.67,-146.88 448.61,-150.59 445,-146.94 448.33,-146.99 448.33,-146.99 448.33,-146.99 445,-146.94 448.72,-143.4 440.67,-146.88"/>
<ellipse fill="none" stroke="black" cx="435.75" cy="-146.81" rx="3.2" ry="3.2"/>
</g>
<!-- token_transfers&#45;&gt;transactions -->
<g id="edge9" class="edge">
<title>token_transfers:w&#45;&gt;transactions:e</title>
<path fill="none" stroke="black" d="M433.38,-148.72C394.76,-158.19 399.65,-204.89 363,-239 346.82,-254.06 326.57,-267 307.46,-277.33"/>
<polygon fill="black" stroke="black" points="440.72,-147.91 449.06,-150.61 445.02,-147.44 448.34,-147.07 448.34,-147.07 448.34,-147.07 445.02,-147.44 448.27,-143.46 440.72,-147.91"/>
<ellipse fill="none" stroke="black" cx="435.83" cy="-148.45" rx="3.2" ry="3.2"/>
</g>
<!-- transaction_actions -->
<g id="node9" class="node">
<title>transaction_actions</title>
<g id="a_node9"><a xlink:href="../../tables/transaction_actions.html" xlink:title="transaction_actions" target="_top">
<polygon fill="#ffffff" stroke="none" points="439,-528 439,-586 591,-586 591,-528 439,-528"/>
<polygon fill="#f5f5f5" stroke="none" points="439,-564 439,-586 591,-586 591,-564 439,-564"/>
<polygon fill="none" stroke="black" points="439,-564 439,-586 591,-586 591,-564 439,-564"/>
<text text-anchor="start" x="444" y="-571.55" font-family="Helvetica,sans-Serif" font-weight="bold" font-size="11.00">transaction_actions</text>
<text text-anchor="start" x="557" y="-570.55" font-family="Helvetica,sans-Serif" font-size="11.00">[table]</text>
<polygon fill="none" stroke="black" points="439,-546 439,-564 591,-564 591,-546 439,-546"/>
<text text-anchor="start" x="442" y="-550.55" font-family="Helvetica,sans-Serif" font-size="11.00">...</text>
<polygon fill="#ffffff" stroke="none" points="439,-528 439,-546 513,-546 513,-528 439,-528"/>
<polygon fill="none" stroke="black" points="439,-528 439,-546 513,-546 513,-528 439,-528"/>
<text text-anchor="start" x="442" y="-532.55" font-family="Helvetica,sans-Serif" font-size="11.00">&lt; 1</text>
<polygon fill="#ffffff" stroke="none" points="513,-528 513,-546 552,-546 552,-528 513,-528"/>
<polygon fill="none" stroke="black" points="513,-528 513,-546 552,-546 552,-528 513,-528"/>
<text text-anchor="start" x="543" y="-532.55" font-family="Helvetica,sans-Serif" font-size="11.00"> &#160;</text>
<polygon fill="#ffffff" stroke="none" points="552,-528 552,-546 591,-546 591,-528 552,-528"/>
<polygon fill="none" stroke="black" points="552,-528 552,-546 591,-546 591,-528 552,-528"/>
<text text-anchor="start" x="582" y="-532.55" font-family="Helvetica,sans-Serif" font-size="11.00"> &#160;</text>
</a>
</g>
</g>
<!-- transaction_actions&#45;&gt;transactions -->
<g id="edge10" class="edge">
<title>transaction_actions:w&#45;&gt;transactions:e</title>
<path fill="none" stroke="black" d="M422.36,-552.77C363.92,-534.07 409.61,-402.69 363,-348 348.84,-331.39 327.69,-321.19 307.22,-314.93"/>
<polygon fill="black" stroke="black" points="429.75,-553.82 437.16,-558.52 434.04,-554.44 437.34,-554.91 437.34,-554.91 437.34,-554.91 434.04,-554.44 438.18,-551.39 429.75,-553.82"/>
<ellipse fill="none" stroke="black" cx="424.88" cy="-553.13" rx="3.2" ry="3.2"/>
</g>
<!-- transaction_forks -->
<g id="node10" class="node">
<title>transaction_forks</title>
<g id="a_node10"><a xlink:href="../../tables/transaction_forks.html" xlink:title="transaction_forks" target="_top">
<polygon fill="#ffffff" stroke="none" points="445.5,-41 445.5,-99 584.5,-99 584.5,-41 445.5,-41"/>
<polygon fill="#f5f5f5" stroke="none" points="445.5,-77 445.5,-99 584.5,-99 584.5,-77 445.5,-77"/>
<polygon fill="none" stroke="black" points="445.5,-77 445.5,-99 584.5,-99 584.5,-77 445.5,-77"/>
<text text-anchor="start" x="450.5" y="-84.55" font-family="Helvetica,sans-Serif" font-weight="bold" font-size="11.00">transaction_forks</text>
<text text-anchor="start" x="550.5" y="-83.55" font-family="Helvetica,sans-Serif" font-size="11.00">[table]</text>
<polygon fill="none" stroke="black" points="445.5,-59 445.5,-77 584.5,-77 584.5,-59 445.5,-59"/>
<text text-anchor="start" x="448.5" y="-63.55" font-family="Helvetica,sans-Serif" font-size="11.00">...</text>
<polygon fill="#ffffff" stroke="none" points="445.5,-41 445.5,-59 513.5,-59 513.5,-41 445.5,-41"/>
<polygon fill="none" stroke="black" points="445.5,-41 445.5,-59 513.5,-59 513.5,-41 445.5,-41"/>
<text text-anchor="start" x="448.5" y="-45.55" font-family="Helvetica,sans-Serif" font-size="11.00">&lt; 2</text>
<polygon fill="#ffffff" stroke="none" points="513.5,-41 513.5,-59 548.5,-59 548.5,-41 513.5,-41"/>
<polygon fill="none" stroke="black" points="513.5,-41 513.5,-59 548.5,-59 548.5,-41 513.5,-41"/>
<text text-anchor="start" x="539.5" y="-45.55" font-family="Helvetica,sans-Serif" font-size="11.00"> &#160;</text>
<polygon fill="#ffffff" stroke="none" points="548.5,-41 548.5,-59 584.5,-59 584.5,-41 548.5,-41"/>
<polygon fill="none" stroke="black" points="548.5,-41 548.5,-59 584.5,-59 584.5,-41 548.5,-41"/>
<text text-anchor="start" x="575.5" y="-45.55" font-family="Helvetica,sans-Serif" font-size="11.00"> &#160;</text>
</a>
</g>
</g>
<!-- transaction_forks&#45;&gt;blocks -->
<g id="edge12" class="edge">
<title>transaction_forks:w&#45;&gt;blocks:e</title>
<path fill="none" stroke="black" d="M428.48,-69.63C402.55,-75.6 395.48,-96.43 363,-106 261.04,-136.03 216.56,-82.35 126,-138 95.29,-156.87 73.62,-192.77 60.93,-219.26"/>
<polygon fill="black" stroke="black" points="435.71,-68.87 444.04,-71.62 440.02,-68.42 443.33,-68.07 443.33,-68.07 443.33,-68.07 440.02,-68.42 443.29,-64.45 435.71,-68.87"/>
<ellipse fill="none" stroke="black" cx="430.82" cy="-69.39" rx="3.2" ry="3.2"/>
</g>
<!-- transaction_forks&#45;&gt;transactions -->
<g id="edge11" class="edge">
<title>transaction_forks:w&#45;&gt;transactions:e</title>
<path fill="none" stroke="black" d="M428.62,-69.42C366.84,-82.08 410.71,-176.85 363,-239 348.75,-257.56 327.71,-271.69 307.35,-282.02"/>
<polygon fill="black" stroke="black" points="435.7,-68.76 444,-71.62 440.02,-68.37 443.33,-68.06 443.33,-68.06 443.33,-68.06 440.02,-68.37 443.34,-64.45 435.7,-68.76"/>
<ellipse fill="none" stroke="black" cx="430.8" cy="-69.22" rx="3.2" ry="3.2"/>
</g>
<!-- withdrawals -->
<g id="node11" class="node">
<title>withdrawals</title>
<g id="a_node11"><a xlink:href="../../tables/withdrawals.html" xlink:title="withdrawals" target="_top">
<polygon fill="#ffffff" stroke="none" points="191,-37 191,-95 298,-95 298,-37 191,-37"/>
<polygon fill="#f5f5f5" stroke="none" points="191,-73 191,-95 298,-95 298,-73 191,-73"/>
<polygon fill="none" stroke="black" points="191,-73 191,-95 298,-95 298,-73 191,-73"/>
<text text-anchor="start" x="196" y="-80.55" font-family="Helvetica,sans-Serif" font-weight="bold" font-size="11.00">withdrawals</text>
<text text-anchor="start" x="264" y="-79.55" font-family="Helvetica,sans-Serif" font-size="11.00">[table]</text>
<polygon fill="none" stroke="black" points="191,-55 191,-73 298,-73 298,-55 191,-55"/>
<text text-anchor="start" x="194" y="-59.55" font-family="Helvetica,sans-Serif" font-size="11.00">...</text>
<polygon fill="#ffffff" stroke="none" points="191,-37 191,-55 243,-55 243,-37 191,-37"/>
<polygon fill="none" stroke="black" points="191,-37 191,-55 243,-55 243,-37 191,-37"/>
<text text-anchor="start" x="194" y="-41.55" font-family="Helvetica,sans-Serif" font-size="11.00">&lt; 1</text>
<polygon fill="#ffffff" stroke="none" points="243,-37 243,-55 270,-55 270,-37 243,-37"/>
<polygon fill="none" stroke="black" points="243,-37 243,-55 270,-55 270,-37 243,-37"/>
<text text-anchor="start" x="261" y="-41.55" font-family="Helvetica,sans-Serif" font-size="11.00"> &#160;</text>
<polygon fill="#ffffff" stroke="none" points="270,-37 270,-55 298,-55 298,-37 270,-37"/>
<polygon fill="none" stroke="black" points="270,-37 270,-55 298,-55 298,-37 270,-37"/>
<text text-anchor="start" x="289" y="-41.55" font-family="Helvetica,sans-Serif" font-size="11.00"> &#160;</text>
</a>
</g>
</g>
<!-- withdrawals&#45;&gt;blocks -->
<g id="edge14" class="edge">
<title>withdrawals:w&#45;&gt;blocks:e</title>
<path fill="none" stroke="black" d="M173.81,-65.45C107.02,-78.02 70.93,-169.18 55.96,-219.25"/>
<polygon fill="black" stroke="black" points="181.2,-64.77 189.5,-67.62 185.52,-64.37 188.83,-64.06 188.83,-64.06 188.83,-64.06 185.52,-64.37 188.84,-60.45 181.2,-64.77"/>
<ellipse fill="none" stroke="black" cx="176.3" cy="-65.22" rx="3.2" ry="3.2"/>
</g>
</g>
</svg>
