<?xml version="1.0" encoding="UTF-8" standalone="no"?>
<!DOCTYPE svg PUBLIC "-//W3C//DTD SVG 1.1//EN"
 "http://www.w3.org/Graphics/SVG/1.1/DTD/svg11.dtd">
<!-- Generated by graphviz version 9.0.0 (20230911.1827)
 -->
<!-- Title: twoDegreesRelationshipsDiagramImplied Pages: 1 -->
<svg width="882pt" height="673pt"
 viewBox="0.00 0.00 882.00 673.00" xmlns="http://www.w3.org/2000/svg" xmlns:xlink="http://www.w3.org/1999/xlink">
<g id="graph0" class="graph" transform="scale(1 1) rotate(0) translate(4 669)">
<title>twoDegreesRelationshipsDiagramImplied</title>
<polygon fill="#ffffff" stroke="none" points="-4,4 -4,-669 878,-669 878,4 -4,4"/>
<text text-anchor="middle" x="71.38" y="-5.55" font-family="Helvetica,sans-Serif" font-size="11.00">Generated by SchemaSpy</text>
<!-- block_rewards -->
<g id="node1" class="node">
<title>block_rewards</title>
<g id="a_node1"><a xlink:href="../../tables/block_rewards.html" xlink:title="block_rewards" target="_top">
<polygon fill="#ffffff" stroke="none" points="168,-497 168,-555 291,-555 291,-497 168,-497"/>
<polygon fill="#f5f5f5" stroke="none" points="168,-533 168,-555 291,-555 291,-533 168,-533"/>
<polygon fill="none" stroke="black" points="168,-533 168,-555 291,-555 291,-533 168,-533"/>
<text text-anchor="start" x="173" y="-540.55" font-family="Helvetica,sans-Serif" font-weight="bold" font-size="11.00">block_rewards</text>
<text text-anchor="start" x="257" y="-539.55" font-family="Helvetica,sans-Serif" font-size="11.00">[table]</text>
<polygon fill="none" stroke="black" points="168,-515 168,-533 291,-533 291,-515 168,-515"/>
<text text-anchor="start" x="171" y="-519.55" font-family="Helvetica,sans-Serif" font-size="11.00">...</text>
<polygon fill="#ffffff" stroke="none" points="168,-497 168,-515 228,-515 228,-497 168,-497"/>
<polygon fill="none" stroke="black" points="168,-497 168,-515 228,-515 228,-497 168,-497"/>
<text text-anchor="start" x="171" y="-501.55" font-family="Helvetica,sans-Serif" font-size="11.00">&lt; 1</text>
<polygon fill="#ffffff" stroke="none" points="228,-497 228,-515 259,-515 259,-497 228,-497"/>
<polygon fill="none" stroke="black" points="228,-497 228,-515 259,-515 259,-497 228,-497"/>
<text text-anchor="start" x="250" y="-501.55" font-family="Helvetica,sans-Serif" font-size="11.00"> &#160;</text>
<polygon fill="#ffffff" stroke="none" points="259,-497 259,-515 291,-515 291,-497 259,-497"/>
<polygon fill="none" stroke="black" points="259,-497 259,-515 291,-515 291,-497 259,-497"/>
<text text-anchor="start" x="282" y="-501.55" font-family="Helvetica,sans-Serif" font-size="11.00"> &#160;</text>
</a>
</g>
</g>
<!-- blocks -->
<g id="node2" class="node">
<title>blocks</title>
<g id="a_node2"><a xlink:href="../../tables/blocks.html" xlink:title="blocks" target="_top">
<polygon fill="#ffffff" stroke="none" points="8,-273 8,-331 85,-331 85,-273 8,-273"/>
<polygon fill="#f5f5f5" stroke="none" points="8,-309 8,-331 85,-331 85,-309 8,-309"/>
<polygon fill="none" stroke="black" points="8,-309 8,-331 85,-331 85,-309 8,-309"/>
<text text-anchor="start" x="12.75" y="-316.55" font-family="Helvetica,sans-Serif" font-weight="bold" font-size="11.00">blocks</text>
<text text-anchor="start" x="51" y="-315.55" font-family="Helvetica,sans-Serif" font-size="11.00">[table]</text>
<polygon fill="none" stroke="black" points="8,-291 8,-309 85,-309 85,-291 8,-291"/>
<text text-anchor="start" x="11" y="-295.55" font-family="Helvetica,sans-Serif" font-size="11.00">...</text>
<polygon fill="#ffffff" stroke="none" points="8,-273 8,-291 36,-291 36,-273 8,-273"/>
<polygon fill="none" stroke="black" points="8,-273 8,-291 36,-291 36,-273 8,-273"/>
<text text-anchor="start" x="11" y="-277.55" font-family="Helvetica,sans-Serif" font-size="11.00"> &#160;</text>
<polygon fill="#ffffff" stroke="none" points="36,-273 36,-291 56,-291 56,-273 36,-273"/>
<polygon fill="none" stroke="black" points="36,-273 36,-291 56,-291 56,-273 36,-273"/>
<text text-anchor="start" x="47" y="-277.55" font-family="Helvetica,sans-Serif" font-size="11.00"> &#160;</text>
<polygon fill="#ffffff" stroke="none" points="56,-273 56,-291 85,-291 85,-273 56,-273"/>
<polygon fill="none" stroke="black" points="56,-273 56,-291 85,-291 85,-273 56,-273"/>
<text text-anchor="start" x="66.25" y="-277.55" font-family="Helvetica,sans-Serif" font-size="11.00">9 &gt;</text>
</a>
</g>
</g>
<!-- block_rewards&#45;&gt;blocks -->
<g id="edge1" class="edge">
<title>block_rewards:w&#45;&gt;blocks:e</title>
<path fill="none" stroke="black" d="M150.84,-522.46C78.57,-507.84 56.62,-392.53 50.13,-334.76"/>
<polygon fill="black" stroke="black" points="158.21,-523.19 165.82,-527.55 162.52,-523.61 165.83,-523.93 165.83,-523.93 165.83,-523.93 162.52,-523.61 166.52,-520.38 158.21,-523.19"/>
<ellipse fill="none" stroke="black" cx="153.31" cy="-522.71" rx="3.2" ry="3.2"/>
</g>
<!-- block_second_degree_relations -->
<g id="node3" class="node">
<title>block_second_degree_relations</title>
<g id="a_node3"><a xlink:href="../../tables/block_second_degree_relations.html" xlink:title="block_second_degree_relations" target="_top">
<polygon fill="#ffffff" stroke="none" points="374,-391 374,-449 595,-449 595,-391 374,-391"/>
<polygon fill="#f5f5f5" stroke="none" points="374,-427 374,-449 595,-449 595,-427 374,-427"/>
<polygon fill="none" stroke="black" points="374,-427 374,-449 595,-449 595,-427 374,-427"/>
<text text-anchor="start" x="379" y="-434.55" font-family="Helvetica,sans-Serif" font-weight="bold" font-size="11.00">block_second_degree_relations</text>
<text text-anchor="start" x="561" y="-433.55" font-family="Helvetica,sans-Serif" font-size="11.00">[table]</text>
<polygon fill="none" stroke="black" points="374,-409 374,-427 595,-427 595,-409 374,-409"/>
<text text-anchor="start" x="377" y="-413.55" font-family="Helvetica,sans-Serif" font-size="11.00">...</text>
<polygon fill="#ffffff" stroke="none" points="374,-391 374,-409 483,-409 483,-391 374,-391"/>
<polygon fill="none" stroke="black" points="374,-391 374,-409 483,-409 483,-391 374,-391"/>
<text text-anchor="start" x="377" y="-395.55" font-family="Helvetica,sans-Serif" font-size="11.00">&lt; 2</text>
<polygon fill="#ffffff" stroke="none" points="483,-391 483,-409 539,-409 539,-391 483,-391"/>
<polygon fill="none" stroke="black" points="483,-391 483,-409 539,-409 539,-391 483,-391"/>
<text text-anchor="start" x="530" y="-395.55" font-family="Helvetica,sans-Serif" font-size="11.00"> &#160;</text>
<polygon fill="#ffffff" stroke="none" points="539,-391 539,-409 595,-409 595,-391 539,-391"/>
<polygon fill="none" stroke="black" points="539,-391 539,-409 595,-409 595,-391 539,-391"/>
<text text-anchor="start" x="586" y="-395.55" font-family="Helvetica,sans-Serif" font-size="11.00"> &#160;</text>
</a>
</g>
</g>
<!-- block_second_degree_relations&#45;&gt;blocks -->
<g id="edge3" class="edge">
<title>block_second_degree_relations:w&#45;&gt;blocks:e</title>
<path fill="none" stroke="black" d="M356.91,-418.24C258.73,-421.33 218.34,-451.71 126,-403 97.71,-388.08 76.41,-357.99 63.19,-334.51"/>
<polygon fill="black" stroke="black" points="364.17,-418.13 372.22,-421.6 368.5,-418.06 371.83,-418.01 371.83,-418.01 371.83,-418.01 368.5,-418.06 372.11,-414.41 364.17,-418.13"/>
<ellipse fill="none" stroke="black" cx="359.25" cy="-418.21" rx="3.2" ry="3.2"/>
</g>
<!-- withdrawals -->
<g id="node4" class="node">
<title>withdrawals</title>
<g id="a_node4"><a xlink:href="../../tables/withdrawals.html" xlink:title="withdrawals" target="_top">
<polygon fill="#ffffff" stroke="none" points="176,-334 176,-392 283,-392 283,-334 176,-334"/>
<polygon fill="#f5f5f5" stroke="none" points="176,-370 176,-392 283,-392 283,-370 176,-370"/>
<polygon fill="none" stroke="black" points="176,-370 176,-392 283,-392 283,-370 176,-370"/>
<text text-anchor="start" x="181" y="-377.55" font-family="Helvetica,sans-Serif" font-weight="bold" font-size="11.00">withdrawals</text>
<text text-anchor="start" x="249" y="-376.55" font-family="Helvetica,sans-Serif" font-size="11.00">[table]</text>
<polygon fill="none" stroke="black" points="176,-352 176,-370 283,-370 283,-352 176,-352"/>
<text text-anchor="start" x="179" y="-356.55" font-family="Helvetica,sans-Serif" font-size="11.00">...</text>
<polygon fill="#ffffff" stroke="none" points="176,-334 176,-352 223,-352 223,-334 176,-334"/>
<polygon fill="none" stroke="black" points="176,-334 176,-352 223,-352 223,-334 176,-334"/>
<text text-anchor="start" x="179" y="-338.55" font-family="Helvetica,sans-Serif" font-size="11.00">&lt; 1</text>
<polygon fill="#ffffff" stroke="none" points="223,-334 223,-352 248,-352 248,-334 223,-334"/>
<polygon fill="none" stroke="black" points="223,-334 223,-352 248,-352 248,-334 223,-334"/>
<text text-anchor="start" x="239" y="-338.55" font-family="Helvetica,sans-Serif" font-size="11.00"> &#160;</text>
<polygon fill="#ffffff" stroke="none" points="248,-334 248,-352 283,-352 283,-334 248,-334"/>
<polygon fill="none" stroke="black" points="248,-334 248,-352 283,-352 283,-334 248,-334"/>
<text text-anchor="start" x="264.25" y="-338.55" font-family="Helvetica,sans-Serif" font-size="11.00">5 &gt;</text>
</a>
</g>
</g>
<!-- block_second_degree_relations&#45;&gt;withdrawals -->
<g id="edge2" class="edge">
<title>block_second_degree_relations:w&#45;&gt;withdrawals:e</title>
<path fill="none" stroke="black" stroke-dasharray="5,2" d="M357.25,-415.55C326.39,-404.64 325.27,-361 284.5,-361"/>
<polygon fill="black" stroke="black" points="364.27,-416.68 371.6,-421.5 368.55,-417.37 371.84,-417.89 371.84,-417.89 371.84,-417.89 368.55,-417.37 372.74,-414.39 364.27,-416.68"/>
<ellipse fill="none" stroke="black" cx="359.41" cy="-415.9" rx="3.2" ry="3.2"/>
</g>
<!-- withdrawals&#45;&gt;blocks -->
<g id="edge18" class="edge">
<title>withdrawals:w&#45;&gt;blocks:e</title>
<path fill="none" stroke="black" d="M158.89,-359.83C135.18,-356.39 111.91,-345.8 92.83,-334.61"/>
<polygon fill="black" stroke="black" points="166.19,-360.38 173.9,-364.57 170.51,-360.7 173.83,-360.95 173.83,-360.95 173.83,-360.95 170.51,-360.7 174.43,-357.39 166.19,-360.38"/>
<ellipse fill="none" stroke="black" cx="161.28" cy="-360.01" rx="3.2" ry="3.2"/>
</g>
<!-- internal_transactions -->
<g id="node5" class="node">
<title>internal_transactions</title>
<g id="a_node5"><a xlink:href="../../tables/internal_transactions.html" xlink:title="internal_transactions" target="_top">
<polygon fill="#ffffff" stroke="none" points="675,-603 675,-661 835,-661 835,-603 675,-603"/>
<polygon fill="#f5f5f5" stroke="none" points="675,-639 675,-661 835,-661 835,-639 675,-639"/>
<polygon fill="none" stroke="black" points="675,-639 675,-661 835,-661 835,-639 675,-639"/>
<text text-anchor="start" x="680" y="-646.55" font-family="Helvetica,sans-Serif" font-weight="bold" font-size="11.00">internal_transactions</text>
<text text-anchor="start" x="801" y="-645.55" font-family="Helvetica,sans-Serif" font-size="11.00">[table]</text>
<polygon fill="none" stroke="black" points="675,-621 675,-639 835,-639 835,-621 675,-621"/>
<text text-anchor="start" x="678" y="-625.55" font-family="Helvetica,sans-Serif" font-size="11.00">...</text>
<polygon fill="#ffffff" stroke="none" points="675,-603 675,-621 753,-621 753,-603 675,-603"/>
<polygon fill="none" stroke="black" points="675,-603 675,-621 753,-621 753,-603 675,-603"/>
<text text-anchor="start" x="678" y="-607.55" font-family="Helvetica,sans-Serif" font-size="11.00">&lt; 4</text>
<polygon fill="#ffffff" stroke="none" points="753,-603 753,-621 794,-621 794,-603 753,-603"/>
<polygon fill="none" stroke="black" points="753,-603 753,-621 794,-621 794,-603 753,-603"/>
<text text-anchor="start" x="785" y="-607.55" font-family="Helvetica,sans-Serif" font-size="11.00"> &#160;</text>
<polygon fill="#ffffff" stroke="none" points="794,-603 794,-621 835,-621 835,-603 794,-603"/>
<polygon fill="none" stroke="black" points="794,-603 794,-621 835,-621 835,-603 794,-603"/>
<text text-anchor="start" x="826" y="-607.55" font-family="Helvetica,sans-Serif" font-size="11.00"> &#160;</text>
</a>
</g>
</g>
<!-- internal_transactions&#45;&gt;blocks -->
<g id="edge4" class="edge">
<title>internal_transactions:w&#45;&gt;blocks:e</title>
<path fill="none" stroke="black" d="M658.55,-629.73C508.11,-624.37 482.84,-540.31 333,-487 242.64,-454.85 202.56,-483.78 126,-426 94.99,-402.59 73.07,-363.07 60.41,-334.94"/>
<polygon fill="black" stroke="black" points="665.67,-629.85 673.6,-633.59 670,-629.93 673.33,-629.99 673.33,-629.99 673.33,-629.99 670,-629.93 673.73,-626.39 665.67,-629.85"/>
<ellipse fill="none" stroke="black" cx="660.75" cy="-629.77" rx="3.2" ry="3.2"/>
</g>
<!-- internal_transactions&#45;&gt;withdrawals -->
<g id="edge5" class="edge">
<title>internal_transactions:w&#45;&gt;withdrawals:e</title>
<path fill="none" stroke="black" stroke-dasharray="5,2" d="M658.58,-626.63C647.91,-620.85 643.86,-608.22 636,-593 592.26,-508.27 673.45,-445.27 603,-381 550.61,-333.21 355.42,-361 284.5,-361"/>
<polygon fill="black" stroke="black" points="665.86,-628.22 672.9,-633.45 670.09,-629.15 673.35,-629.86 673.35,-629.86 673.35,-629.86 670.09,-629.15 674.44,-626.41 665.86,-628.22"/>
<ellipse fill="none" stroke="black" cx="661.05" cy="-627.17" rx="3.2" ry="3.2"/>
</g>
<!-- internal_transactions&#45;&gt;withdrawals -->
<g id="edge7" class="edge">
<title>internal_transactions:w&#45;&gt;withdrawals:e</title>
<path fill="none" stroke="black" stroke-dasharray="5,2" d="M658.59,-626.62C647.93,-620.85 643.88,-608.21 636,-593 592.94,-509.89 671.85,-448.41 603,-385 550.79,-336.91 355.48,-361 284.5,-361"/>
<polygon fill="black" stroke="black" points="665.86,-628.22 672.9,-633.45 670.09,-629.14 673.35,-629.86 673.35,-629.86 673.35,-629.86 670.09,-629.14 674.44,-626.41 665.86,-628.22"/>
<ellipse fill="none" stroke="black" cx="661.05" cy="-627.16" rx="3.2" ry="3.2"/>
</g>
<!-- transactions -->
<g id="node6" class="node">
<title>transactions</title>
<g id="a_node6"><a xlink:href="../../tables/transactions.html" xlink:title="transactions" target="_top">
<polygon fill="#ffffff" stroke="none" points="429.5,-273 429.5,-331 539.5,-331 539.5,-273 429.5,-273"/>
<polygon fill="#f5f5f5" stroke="none" points="429.5,-309 429.5,-331 539.5,-331 539.5,-309 429.5,-309"/>
<polygon fill="none" stroke="black" points="429.5,-309 429.5,-331 539.5,-331 539.5,-309 429.5,-309"/>
<text text-anchor="start" x="434.5" y="-316.55" font-family="Helvetica,sans-Serif" font-weight="bold" font-size="11.00">transactions</text>
<text text-anchor="start" x="505.5" y="-315.55" font-family="Helvetica,sans-Serif" font-size="11.00">[table]</text>
<polygon fill="none" stroke="black" points="429.5,-291 429.5,-309 539.5,-309 539.5,-291 429.5,-291"/>
<text text-anchor="start" x="432.5" y="-295.55" font-family="Helvetica,sans-Serif" font-size="11.00">...</text>
<polygon fill="#ffffff" stroke="none" points="429.5,-273 429.5,-291 478.5,-291 478.5,-273 429.5,-273"/>
<polygon fill="none" stroke="black" points="429.5,-273 429.5,-291 478.5,-291 478.5,-273 429.5,-273"/>
<text text-anchor="start" x="432.5" y="-277.55" font-family="Helvetica,sans-Serif" font-size="11.00">&lt; 2</text>
<polygon fill="#ffffff" stroke="none" points="478.5,-273 478.5,-291 504.5,-291 504.5,-273 478.5,-273"/>
<polygon fill="none" stroke="black" points="478.5,-273 478.5,-291 504.5,-291 504.5,-273 478.5,-273"/>
<text text-anchor="start" x="495.5" y="-277.55" font-family="Helvetica,sans-Serif" font-size="11.00"> &#160;</text>
<polygon fill="#ffffff" stroke="none" points="504.5,-273 504.5,-291 539.5,-291 539.5,-273 504.5,-273"/>
<polygon fill="none" stroke="black" points="504.5,-273 504.5,-291 539.5,-291 539.5,-273 504.5,-273"/>
<text text-anchor="start" x="520.75" y="-277.55" font-family="Helvetica,sans-Serif" font-size="11.00">5 &gt;</text>
</a>
</g>
</g>
<!-- internal_transactions&#45;&gt;transactions -->
<g id="edge6" class="edge">
<title>internal_transactions:w&#45;&gt;transactions:e</title>
<path fill="none" stroke="black" d="M658.55,-626.65C647.82,-620.9 643.69,-608.3 636,-593 586.09,-493.64 672.58,-431.73 603,-345 589.27,-327.89 568.09,-317.58 547.46,-311.38"/>
<polygon fill="black" stroke="black" points="665.86,-628.23 672.91,-633.45 670.09,-629.15 673.35,-629.86 673.35,-629.86 673.35,-629.86 670.09,-629.15 674.44,-626.41 665.86,-628.23"/>
<ellipse fill="none" stroke="black" cx="661.05" cy="-627.19" rx="3.2" ry="3.2"/>
</g>
<!-- transactions&#45;&gt;blocks -->
<g id="edge16" class="edge">
<title>transactions:w&#45;&gt;blocks:e</title>
<path fill="none" stroke="black" d="M406.2,-302C315.16,-302 166.96,-302 92.79,-302"/>
<polygon fill="black" stroke="black" points="413.62,-302 421.62,-305.6 417.96,-302 421.29,-302 421.29,-302 421.29,-302 417.96,-302 421.62,-298.4 413.62,-302"/>
<ellipse fill="none" stroke="black" cx="408.7" cy="-302" rx="3.2" ry="3.2"/>
</g>
<!-- transactions&#45;&gt;withdrawals -->
<g id="edge17" class="edge">
<title>transactions:w&#45;&gt;withdrawals:e</title>
<path fill="none" stroke="black" stroke-dasharray="5,2" d="M407.14,-329.53C361.8,-344.91 308.59,-361 284.5,-361"/>
<polygon fill="black" stroke="black" points="413.97,-327.18 422.71,-327.99 418.07,-325.77 421.22,-324.69 421.22,-324.69 421.22,-324.69 418.07,-325.77 420.37,-321.18 413.97,-327.18"/>
<ellipse fill="none" stroke="black" cx="409.32" cy="-328.78" rx="3.2" ry="3.2"/>
</g>
<!-- logs -->
<g id="node7" class="node">
<title>logs</title>
<g id="a_node7"><a xlink:href="../../tables/logs.html" xlink:title="logs" target="_top">
<polygon fill="#ffffff" stroke="none" points="644,-195 644,-503 866,-503 866,-195 644,-195"/>
<polygon fill="#f5f5f5" stroke="none" points="646,-479 646,-501 864,-501 864,-479 646,-479"/>
<polygon fill="none" stroke="black" points="646,-479 646,-501 864,-501 864,-479 646,-479"/>
<text text-anchor="start" x="649.75" y="-486.55" font-family="Helvetica,sans-Serif" font-weight="bold" font-size="11.00">logs</text>
<text text-anchor="start" x="829.75" y="-485.55" font-family="Helvetica,sans-Serif" font-size="11.00">[table]</text>
<polygon fill="none" stroke="black" points="646,-457 646,-479 766,-479 766,-457 646,-457"/>
<text text-anchor="start" x="666" y="-463.55" font-family="Helvetica,sans-Serif" font-size="11.00">data</text>
<polygon fill="none" stroke="black" points="766,-457 766,-479 864,-479 864,-457 766,-457"/>
<text text-anchor="start" x="768.88" y="-463.55" font-family="Helvetica,sans-Serif" font-size="11.00">bytea[2147483647]</text>
<polygon fill="none" stroke="black" points="646,-435 646,-457 766,-457 766,-435 646,-435"/>
<image xlink:href="../../images/primaryKeys.png" width="11px" height="12px" preserveAspectRatio="xMinYMin meet" x="651" y="-452"/>
<text text-anchor="start" x="666" y="-441.55" font-family="Helvetica,sans-Serif" font-size="11.00">index</text>
<polygon fill="none" stroke="black" points="766,-435 766,-457 864,-457 864,-435 766,-435"/>
<text text-anchor="start" x="769" y="-441.55" font-family="Helvetica,sans-Serif" font-size="11.00">int4[10]</text>
<polygon fill="#ffffff" stroke="none" points="646,-413 646,-435 766,-435 766,-413 646,-413"/>
<polygon fill="none" stroke="black" points="646,-413 646,-435 766,-435 766,-413 646,-413"/>
<text text-anchor="start" x="666" y="-419.55" font-family="Helvetica,sans-Serif" font-size="11.00">first_topic</text>
<polygon fill="none" stroke="black" points="766,-413 766,-435 864,-435 864,-413 766,-413"/>
<text text-anchor="start" x="768.88" y="-419.55" font-family="Helvetica,sans-Serif" font-size="11.00">bytea[2147483647]</text>
<polygon fill="#ffffff" stroke="none" points="646,-391 646,-413 766,-413 766,-391 646,-391"/>
<polygon fill="none" stroke="black" points="646,-391 646,-413 766,-413 766,-391 646,-391"/>
<text text-anchor="start" x="666" y="-397.55" font-family="Helvetica,sans-Serif" font-size="11.00">second_topic</text>
<polygon fill="none" stroke="black" points="766,-391 766,-413 864,-413 864,-391 766,-391"/>
<text text-anchor="start" x="768.88" y="-397.55" font-family="Helvetica,sans-Serif" font-size="11.00">bytea[2147483647]</text>
<polygon fill="#ffffff" stroke="none" points="646,-369 646,-391 766,-391 766,-369 646,-369"/>
<polygon fill="none" stroke="black" points="646,-369 646,-391 766,-391 766,-369 646,-369"/>
<text text-anchor="start" x="666" y="-375.55" font-family="Helvetica,sans-Serif" font-size="11.00">third_topic</text>
<polygon fill="none" stroke="black" points="766,-369 766,-391 864,-391 864,-369 766,-369"/>
<text text-anchor="start" x="768.88" y="-375.55" font-family="Helvetica,sans-Serif" font-size="11.00">bytea[2147483647]</text>
<polygon fill="#ffffff" stroke="none" points="646,-347 646,-369 766,-369 766,-347 646,-347"/>
<polygon fill="none" stroke="black" points="646,-347 646,-369 766,-369 766,-347 646,-347"/>
<text text-anchor="start" x="666" y="-353.55" font-family="Helvetica,sans-Serif" font-size="11.00">fourth_topic</text>
<polygon fill="none" stroke="black" points="766,-347 766,-369 864,-369 864,-347 766,-347"/>
<text text-anchor="start" x="768.88" y="-353.55" font-family="Helvetica,sans-Serif" font-size="11.00">bytea[2147483647]</text>
<polygon fill="none" stroke="black" points="646,-325 646,-347 766,-347 766,-325 646,-325"/>
<text text-anchor="start" x="666" y="-331.55" font-family="Helvetica,sans-Serif" font-size="11.00">inserted_at</text>
<polygon fill="none" stroke="black" points="766,-325 766,-347 864,-347 864,-325 766,-325"/>
<text text-anchor="start" x="769" y="-331.55" font-family="Helvetica,sans-Serif" font-size="11.00">timestamp[29,6]</text>
<polygon fill="none" stroke="black" points="646,-303 646,-325 766,-325 766,-303 646,-303"/>
<text text-anchor="start" x="666" y="-309.55" font-family="Helvetica,sans-Serif" font-size="11.00">updated_at</text>
<polygon fill="none" stroke="black" points="766,-303 766,-325 864,-325 864,-303 766,-303"/>
<text text-anchor="start" x="769" y="-309.55" font-family="Helvetica,sans-Serif" font-size="11.00">timestamp[29,6]</text>
<polygon fill="#ffffff" stroke="none" points="646,-281 646,-303 766,-303 766,-281 646,-281"/>
<polygon fill="none" stroke="black" points="646,-281 646,-303 766,-303 766,-281 646,-281"/>
<text text-anchor="start" x="666" y="-287.55" font-family="Helvetica,sans-Serif" font-size="11.00">address_hash</text>
<polygon fill="none" stroke="black" points="766,-281 766,-303 864,-303 864,-281 766,-281"/>
<text text-anchor="start" x="768.88" y="-287.55" font-family="Helvetica,sans-Serif" font-size="11.00">bytea[2147483647]</text>
<polygon fill="none" stroke="black" points="646,-259 646,-281 766,-281 766,-259 646,-259"/>
<image xlink:href="../../images/primaryKeys.png" width="11px" height="12px" preserveAspectRatio="xMinYMin meet" x="651" y="-276"/>
<text text-anchor="start" x="666" y="-265.55" font-family="Helvetica,sans-Serif" font-size="11.00">transaction_hash</text>
<polygon fill="none" stroke="black" points="766,-259 766,-281 864,-281 864,-259 766,-259"/>
<text text-anchor="start" x="768.88" y="-265.55" font-family="Helvetica,sans-Serif" font-size="11.00">bytea[2147483647]</text>
<polygon fill="none" stroke="black" points="646,-237 646,-259 766,-259 766,-237 646,-237"/>
<image xlink:href="../../images/primaryKeys.png" width="11px" height="12px" preserveAspectRatio="xMinYMin meet" x="651" y="-254"/>
<text text-anchor="start" x="666" y="-243.55" font-family="Helvetica,sans-Serif" font-size="11.00">block_hash</text>
<polygon fill="none" stroke="black" points="766,-237 766,-259 864,-259 864,-237 766,-237"/>
<text text-anchor="start" x="768.88" y="-243.55" font-family="Helvetica,sans-Serif" font-size="11.00">bytea[2147483647]</text>
<polygon fill="#ffffff" stroke="none" points="646,-215 646,-237 766,-237 766,-215 646,-215"/>
<polygon fill="none" stroke="black" points="646,-215 646,-237 766,-237 766,-215 646,-215"/>
<text text-anchor="start" x="666" y="-221.55" font-family="Helvetica,sans-Serif" font-size="11.00">block_number</text>
<polygon fill="none" stroke="black" points="766,-215 766,-237 864,-237 864,-215 766,-215"/>
<text text-anchor="start" x="769" y="-221.55" font-family="Helvetica,sans-Serif" font-size="11.00">int4[10]</text>
<polygon fill="#ffffff" stroke="none" points="646,-197 646,-215 710,-215 710,-197 646,-197"/>
<polygon fill="none" stroke="black" points="646,-197 646,-215 710,-215 710,-197 646,-197"/>
<text text-anchor="start" x="649" y="-201.55" font-family="Helvetica,sans-Serif" font-size="11.00">&lt; 2</text>
<polygon fill="#ffffff" stroke="none" points="710,-197 710,-215 766,-215 766,-197 710,-197"/>
<polygon fill="none" stroke="black" points="710,-197 710,-215 766,-215 766,-197 710,-197"/>
<text text-anchor="start" x="757" y="-201.55" font-family="Helvetica,sans-Serif" font-size="11.00"> &#160;</text>
<polygon fill="#ffffff" stroke="none" points="766,-197 766,-215 864,-215 864,-197 766,-197"/>
<polygon fill="none" stroke="black" points="766,-197 766,-215 864,-215 864,-197 766,-197"/>
<text text-anchor="start" x="845.25" y="-201.55" font-family="Helvetica,sans-Serif" font-size="11.00">0 &gt;</text>
<polygon fill="none" stroke="black" stroke-width="2" points="645,-196 645,-502 865,-502 865,-196 645,-196"/>
</a>
</g>
</g>
<!-- logs&#45;&gt;blocks -->
<g id="edge8" class="edge">
<title>logs:w&#45;&gt;blocks:e</title>
<path fill="none" stroke="black" d="M629.16,-248.06C425.61,-249.64 189.74,-280.92 92.72,-295.11"/>
<polygon fill="black" stroke="black" points="636.67,-248.03 644.68,-251.6 641,-248.02 644.33,-248 644.33,-248 644.33,-248 641,-248.02 644.65,-244.4 636.67,-248.03"/>
<ellipse fill="none" stroke="black" cx="631.75" cy="-248.05" rx="3.2" ry="3.2"/>
</g>
<!-- logs&#45;&gt;transactions -->
<g id="edge9" class="edge">
<title>logs:w&#45;&gt;transactions:e</title>
<path fill="none" stroke="black" d="M629.52,-270.45C601.39,-272.05 572.15,-277.63 547.42,-283.66"/>
<polygon fill="black" stroke="black" points="636.67,-270.24 644.77,-273.61 641,-270.12 644.33,-270.02 644.33,-270.02 644.33,-270.02 641,-270.12 644.56,-266.41 636.67,-270.24"/>
<ellipse fill="none" stroke="black" cx="631.75" cy="-270.39" rx="3.2" ry="3.2"/>
</g>
<!-- pending_block_operations -->
<g id="node8" class="node">
<title>pending_block_operations</title>
<g id="a_node8"><a xlink:href="../../tables/pending_block_operations.html" xlink:title="pending_block_operations" target="_top">
<polygon fill="#ffffff" stroke="none" points="134,-167 134,-225 325,-225 325,-167 134,-167"/>
<polygon fill="#f5f5f5" stroke="none" points="134,-203 134,-225 325,-225 325,-203 134,-203"/>
<polygon fill="none" stroke="black" points="134,-203 134,-225 325,-225 325,-203 134,-203"/>
<text text-anchor="start" x="139" y="-210.55" font-family="Helvetica,sans-Serif" font-weight="bold" font-size="11.00">pending_block_operations</text>
<text text-anchor="start" x="291" y="-209.55" font-family="Helvetica,sans-Serif" font-size="11.00">[table]</text>
<polygon fill="none" stroke="black" points="134,-185 134,-203 325,-203 325,-185 134,-185"/>
<text text-anchor="start" x="137" y="-189.55" font-family="Helvetica,sans-Serif" font-size="11.00">...</text>
<polygon fill="#ffffff" stroke="none" points="134,-167 134,-185 228,-185 228,-167 134,-167"/>
<polygon fill="none" stroke="black" points="134,-167 134,-185 228,-185 228,-167 134,-167"/>
<text text-anchor="start" x="137" y="-171.55" font-family="Helvetica,sans-Serif" font-size="11.00">&lt; 1</text>
<polygon fill="#ffffff" stroke="none" points="228,-167 228,-185 276,-185 276,-167 228,-167"/>
<polygon fill="none" stroke="black" points="228,-167 228,-185 276,-185 276,-167 228,-167"/>
<text text-anchor="start" x="267" y="-171.55" font-family="Helvetica,sans-Serif" font-size="11.00"> &#160;</text>
<polygon fill="#ffffff" stroke="none" points="276,-167 276,-185 325,-185 325,-167 276,-167"/>
<polygon fill="none" stroke="black" points="276,-167 276,-185 325,-185 325,-167 276,-167"/>
<text text-anchor="start" x="316" y="-171.55" font-family="Helvetica,sans-Serif" font-size="11.00"> &#160;</text>
</a>
</g>
</g>
<!-- pending_block_operations&#45;&gt;blocks -->
<g id="edge10" class="edge">
<title>pending_block_operations:w&#45;&gt;blocks:e</title>
<path fill="none" stroke="black" d="M121.18,-195.28C89.14,-202.67 68.83,-240.47 57.83,-269.01"/>
<polygon fill="black" stroke="black" points="131.26,-190.12 132.15,-198.06 130.57,-198.24 129.67,-190.3 131.26,-190.12"/>
<polyline fill="none" stroke="black" points="132.5,-194 128.53,-194.45"/>
<ellipse fill="none" stroke="black" cx="124.85" cy="-194.87" rx="3.2" ry="3.2"/>
</g>
<!-- token_transfers -->
<g id="node9" class="node">
<title>token_transfers</title>
<g id="a_node9"><a xlink:href="../../tables/token_transfers.html" xlink:title="token_transfers" target="_top">
<polygon fill="#ffffff" stroke="none" points="690.5,-116 690.5,-174 819.5,-174 819.5,-116 690.5,-116"/>
<polygon fill="#f5f5f5" stroke="none" points="690.5,-152 690.5,-174 819.5,-174 819.5,-152 690.5,-152"/>
<polygon fill="none" stroke="black" points="690.5,-152 690.5,-174 819.5,-174 819.5,-152 690.5,-152"/>
<text text-anchor="start" x="695.5" y="-159.55" font-family="Helvetica,sans-Serif" font-weight="bold" font-size="11.00">token_transfers</text>
<text text-anchor="start" x="785.5" y="-158.55" font-family="Helvetica,sans-Serif" font-size="11.00">[table]</text>
<polygon fill="none" stroke="black" points="690.5,-134 690.5,-152 819.5,-152 819.5,-134 690.5,-134"/>
<text text-anchor="start" x="693.5" y="-138.55" font-family="Helvetica,sans-Serif" font-size="11.00">...</text>
<polygon fill="#ffffff" stroke="none" points="690.5,-116 690.5,-134 753.5,-134 753.5,-116 690.5,-116"/>
<polygon fill="none" stroke="black" points="690.5,-116 690.5,-134 753.5,-134 753.5,-116 690.5,-116"/>
<text text-anchor="start" x="693.5" y="-120.55" font-family="Helvetica,sans-Serif" font-size="11.00">&lt; 2</text>
<polygon fill="#ffffff" stroke="none" points="753.5,-116 753.5,-134 786.5,-134 786.5,-116 753.5,-116"/>
<polygon fill="none" stroke="black" points="753.5,-116 753.5,-134 786.5,-134 786.5,-116 753.5,-116"/>
<text text-anchor="start" x="777.5" y="-120.55" font-family="Helvetica,sans-Serif" font-size="11.00"> &#160;</text>
<polygon fill="#ffffff" stroke="none" points="786.5,-116 786.5,-134 819.5,-134 819.5,-116 786.5,-116"/>
<polygon fill="none" stroke="black" points="786.5,-116 786.5,-134 819.5,-134 819.5,-116 786.5,-116"/>
<text text-anchor="start" x="810.5" y="-120.55" font-family="Helvetica,sans-Serif" font-size="11.00"> &#160;</text>
</a>
</g>
</g>
<!-- token_transfers&#45;&gt;blocks -->
<g id="edge11" class="edge">
<title>token_transfers:w&#45;&gt;blocks:e</title>
<path fill="none" stroke="black" d="M673.42,-142.77C538.32,-139.08 228.5,-93.12 126,-156 85.52,-180.83 64.61,-234.3 54.86,-269.18"/>
<polygon fill="black" stroke="black" points="680.67,-142.88 688.61,-146.59 685,-142.94 688.33,-142.99 688.33,-142.99 688.33,-142.99 685,-142.94 688.72,-139.4 680.67,-142.88"/>
<ellipse fill="none" stroke="black" cx="675.75" cy="-142.8" rx="3.2" ry="3.2"/>
</g>
<!-- token_transfers&#45;&gt;transactions -->
<g id="edge12" class="edge">
<title>token_transfers:w&#45;&gt;transactions:e</title>
<path fill="none" stroke="black" d="M673.48,-143.96C599.21,-153.11 537.6,-225.48 506.77,-269.06"/>
<polygon fill="black" stroke="black" points="680.68,-143.51 688.89,-146.61 685.01,-143.25 688.33,-143.04 688.33,-143.04 688.33,-143.04 685.01,-143.25 688.44,-139.43 680.68,-143.51"/>
<ellipse fill="none" stroke="black" cx="675.77" cy="-143.82" rx="3.2" ry="3.2"/>
</g>
<!-- transaction_actions -->
<g id="node10" class="node">
<title>transaction_actions</title>
<g id="a_node10"><a xlink:href="../../tables/transaction_actions.html" xlink:title="transaction_actions" target="_top">
<polygon fill="#ffffff" stroke="none" points="679,-524 679,-582 831,-582 831,-524 679,-524"/>
<polygon fill="#f5f5f5" stroke="none" points="679,-560 679,-582 831,-582 831,-560 679,-560"/>
<polygon fill="none" stroke="black" points="679,-560 679,-582 831,-582 831,-560 679,-560"/>
<text text-anchor="start" x="684" y="-567.55" font-family="Helvetica,sans-Serif" font-weight="bold" font-size="11.00">transaction_actions</text>
<text text-anchor="start" x="797" y="-566.55" font-family="Helvetica,sans-Serif" font-size="11.00">[table]</text>
<polygon fill="none" stroke="black" points="679,-542 679,-560 831,-560 831,-542 679,-542"/>
<text text-anchor="start" x="682" y="-546.55" font-family="Helvetica,sans-Serif" font-size="11.00">...</text>
<polygon fill="#ffffff" stroke="none" points="679,-524 679,-542 753,-542 753,-524 679,-524"/>
<polygon fill="none" stroke="black" points="679,-524 679,-542 753,-542 753,-524 679,-524"/>
<text text-anchor="start" x="682" y="-528.55" font-family="Helvetica,sans-Serif" font-size="11.00">&lt; 1</text>
<polygon fill="#ffffff" stroke="none" points="753,-524 753,-542 792,-542 792,-524 753,-524"/>
<polygon fill="none" stroke="black" points="753,-524 753,-542 792,-542 792,-524 753,-524"/>
<text text-anchor="start" x="783" y="-528.55" font-family="Helvetica,sans-Serif" font-size="11.00"> &#160;</text>
<polygon fill="#ffffff" stroke="none" points="792,-524 792,-542 831,-542 831,-524 792,-524"/>
<polygon fill="none" stroke="black" points="792,-524 792,-542 831,-542 831,-524 792,-524"/>
<text text-anchor="start" x="822" y="-528.55" font-family="Helvetica,sans-Serif" font-size="11.00"> &#160;</text>
</a>
</g>
</g>
<!-- transaction_actions&#45;&gt;transactions -->
<g id="edge13" class="edge">
<title>transaction_actions:w&#45;&gt;transactions:e</title>
<path fill="none" stroke="black" d="M662.37,-548.77C603.93,-530.03 648.63,-398.48 603,-345 588.83,-328.39 567.68,-318.2 547.21,-311.94"/>
<polygon fill="black" stroke="black" points="669.75,-549.82 677.16,-554.52 674.04,-550.43 677.34,-550.91 677.34,-550.91 677.34,-550.91 674.04,-550.43 678.18,-547.39 669.75,-549.82"/>
<ellipse fill="none" stroke="black" cx="664.88" cy="-549.12" rx="3.2" ry="3.2"/>
</g>
<!-- transaction_forks -->
<g id="node11" class="node">
<title>transaction_forks</title>
<g id="a_node11"><a xlink:href="../../tables/transaction_forks.html" xlink:title="transaction_forks" target="_top">
<polygon fill="#ffffff" stroke="none" points="685.5,-37 685.5,-95 824.5,-95 824.5,-37 685.5,-37"/>
<polygon fill="#f5f5f5" stroke="none" points="685.5,-73 685.5,-95 824.5,-95 824.5,-73 685.5,-73"/>
<polygon fill="none" stroke="black" points="685.5,-73 685.5,-95 824.5,-95 824.5,-73 685.5,-73"/>
<text text-anchor="start" x="690.5" y="-80.55" font-family="Helvetica,sans-Serif" font-weight="bold" font-size="11.00">transaction_forks</text>
<text text-anchor="start" x="790.5" y="-79.55" font-family="Helvetica,sans-Serif" font-size="11.00">[table]</text>
<polygon fill="none" stroke="black" points="685.5,-55 685.5,-73 824.5,-73 824.5,-55 685.5,-55"/>
<text text-anchor="start" x="688.5" y="-59.55" font-family="Helvetica,sans-Serif" font-size="11.00">...</text>
<polygon fill="#ffffff" stroke="none" points="685.5,-37 685.5,-55 753.5,-55 753.5,-37 685.5,-37"/>
<polygon fill="none" stroke="black" points="685.5,-37 685.5,-55 753.5,-55 753.5,-37 685.5,-37"/>
<text text-anchor="start" x="688.5" y="-41.55" font-family="Helvetica,sans-Serif" font-size="11.00">&lt; 2</text>
<polygon fill="#ffffff" stroke="none" points="753.5,-37 753.5,-55 788.5,-55 788.5,-37 753.5,-37"/>
<polygon fill="none" stroke="black" points="753.5,-37 753.5,-55 788.5,-55 788.5,-37 753.5,-37"/>
<text text-anchor="start" x="779.5" y="-41.55" font-family="Helvetica,sans-Serif" font-size="11.00"> &#160;</text>
<polygon fill="#ffffff" stroke="none" points="788.5,-37 788.5,-55 824.5,-55 824.5,-37 788.5,-37"/>
<polygon fill="none" stroke="black" points="788.5,-37 788.5,-55 824.5,-55 824.5,-37 788.5,-37"/>
<text text-anchor="start" x="815.5" y="-41.55" font-family="Helvetica,sans-Serif" font-size="11.00"> &#160;</text>
</a>
</g>
</g>
<!-- transaction_forks&#45;&gt;blocks -->
<g id="edge15" class="edge">
<title>transaction_forks:w&#45;&gt;blocks:e</title>
<path fill="none" stroke="black" d="M668.48,-63.88C430.15,-60.32 322.96,23.12 126,-121 77.9,-156.19 58.92,-227.16 51.7,-269.02"/>
<polygon fill="black" stroke="black" points="675.67,-63.94 683.64,-67.6 680,-63.97 683.33,-63.99 683.33,-63.99 683.33,-63.99 680,-63.97 683.69,-60.4 675.67,-63.94"/>
<ellipse fill="none" stroke="black" cx="670.75" cy="-63.9" rx="3.2" ry="3.2"/>
</g>
<!-- transaction_forks&#45;&gt;transactions -->
<g id="edge14" class="edge">
<title>transaction_forks:w&#45;&gt;transactions:e</title>
<path fill="none" stroke="black" d="M668.6,-67.38C615.28,-89.11 538.95,-210.21 504.12,-269.41"/>
<polygon fill="black" stroke="black" points="675.86,-65.79 684.44,-67.59 680.09,-64.86 683.35,-64.14 683.35,-64.14 683.35,-64.14 680.09,-64.86 682.9,-60.56 675.86,-65.79"/>
<ellipse fill="none" stroke="black" cx="671.06" cy="-66.84" rx="3.2" ry="3.2"/>
</g>
</g>
</svg>
