<?xml version="1.0" encoding="UTF-8" standalone="no"?>
<!DOCTYPE svg PUBLIC "-//W3C//DTD SVG 1.1//EN"
 "http://www.w3.org/Graphics/SVG/1.1/DTD/svg11.dtd">
<!-- Generated by graphviz version 9.0.0 (20230911.1827)
 -->
<!-- Title: oneDegreeRelationshipsDiagram Pages: 1 -->
<svg width="198pt" height="225pt"
 viewBox="0.00 0.00 198.00 225.00" xmlns="http://www.w3.org/2000/svg" xmlns:xlink="http://www.w3.org/1999/xlink">
<g id="graph0" class="graph" transform="scale(1 1) rotate(0) translate(4 221)">
<title>oneDegreeRelationshipsDiagram</title>
<polygon fill="#ffffff" stroke="none" points="-4,4 -4,-221 194,-221 194,4 -4,4"/>
<text text-anchor="middle" x="71.38" y="-5.55" font-family="Helvetica,sans-Serif" font-size="11.00">Generated by SchemaSpy</text>
<!-- market_history -->
<g id="node1" class="node">
<title>market_history</title>
<g id="a_node1"><a xlink:href="../../tables/market_history.html" xlink:title="market_history" target="_top">
<polygon fill="#ffffff" stroke="none" points="8,-37 8,-213 182,-213 182,-37 8,-37"/>
<polygon fill="#f5f5f5" stroke="none" points="10,-189 10,-211 180,-211 180,-189 10,-189"/>
<polygon fill="none" stroke="black" points="10,-189 10,-211 180,-211 180,-189 10,-189"/>
<text text-anchor="start" x="15" y="-196.55" font-family="Helvetica,sans-Serif" font-weight="bold" font-size="11.00">market_history</text>
<text text-anchor="start" x="145.75" y="-195.55" font-family="Helvetica,sans-Serif" font-size="11.00">[table]</text>
<polygon fill="none" stroke="black" points="10,-167 10,-189 117,-189 117,-167 10,-167"/>
<image xlink:href="../../images/primaryKeys.png" width="11px" height="12px" preserveAspectRatio="xMinYMin meet" x="15" y="-184"/>
<text text-anchor="start" x="30" y="-173.55" font-family="Helvetica,sans-Serif" font-size="11.00">id</text>
<polygon fill="none" stroke="black" points="117,-167 117,-189 180,-189 180,-167 117,-167"/>
<text text-anchor="start" x="119.62" y="-173.55" font-family="Helvetica,sans-Serif" font-size="11.00">bigserial[19]</text>
<polygon fill="#ffffff" stroke="none" points="10,-145 10,-167 117,-167 117,-145 10,-145"/>
<polygon fill="none" stroke="black" points="10,-145 10,-167 117,-167 117,-145 10,-145"/>
<text text-anchor="start" x="30" y="-151.55" font-family="Helvetica,sans-Serif" font-size="11.00">date</text>
<polygon fill="none" stroke="black" points="117,-145 117,-167 180,-167 180,-145 117,-145"/>
<text text-anchor="start" x="120" y="-151.55" font-family="Helvetica,sans-Serif" font-size="11.00">date[13]</text>
<polygon fill="none" stroke="black" points="10,-123 10,-145 117,-145 117,-123 10,-123"/>
<text text-anchor="start" x="30" y="-129.55" font-family="Helvetica,sans-Serif" font-size="11.00">closing_price</text>
<polygon fill="none" stroke="black" points="117,-123 117,-145 180,-145 180,-123 117,-123"/>
<text text-anchor="start" x="120" y="-129.55" font-family="Helvetica,sans-Serif" font-size="11.00">numeric[0]</text>
<polygon fill="none" stroke="black" points="10,-101 10,-123 117,-123 117,-101 10,-101"/>
<text text-anchor="start" x="30" y="-107.55" font-family="Helvetica,sans-Serif" font-size="11.00">opening_price</text>
<polygon fill="none" stroke="black" points="117,-101 117,-123 180,-123 180,-101 117,-101"/>
<text text-anchor="start" x="120" y="-107.55" font-family="Helvetica,sans-Serif" font-size="11.00">numeric[0]</text>
<polygon fill="none" stroke="black" points="10,-79 10,-101 117,-101 117,-79 10,-79"/>
<text text-anchor="start" x="30" y="-85.55" font-family="Helvetica,sans-Serif" font-size="11.00">market_cap</text>
<polygon fill="none" stroke="black" points="117,-79 117,-101 180,-101 180,-79 117,-79"/>
<text text-anchor="start" x="120" y="-85.55" font-family="Helvetica,sans-Serif" font-size="11.00">numeric[0]</text>
<polygon fill="none" stroke="black" points="10,-57 10,-79 117,-79 117,-57 10,-57"/>
<text text-anchor="start" x="30" y="-63.55" font-family="Helvetica,sans-Serif" font-size="11.00">tvl</text>
<polygon fill="none" stroke="black" points="117,-57 117,-79 180,-79 180,-57 117,-57"/>
<text text-anchor="start" x="120" y="-63.55" font-family="Helvetica,sans-Serif" font-size="11.00">numeric[0]</text>
<polygon fill="#ffffff" stroke="none" points="10,-39 10,-57 68,-57 68,-39 10,-39"/>
<polygon fill="none" stroke="black" points="10,-39 10,-57 68,-57 68,-39 10,-39"/>
<text text-anchor="start" x="13" y="-43.55" font-family="Helvetica,sans-Serif" font-size="11.00">&lt; 0</text>
<polygon fill="#ffffff" stroke="none" points="68,-39 68,-57 117,-57 117,-39 68,-39"/>
<polygon fill="none" stroke="black" points="68,-39 68,-57 117,-57 117,-39 68,-39"/>
<text text-anchor="start" x="108" y="-43.55" font-family="Helvetica,sans-Serif" font-size="11.00"> &#160;</text>
<polygon fill="#ffffff" stroke="none" points="117,-39 117,-57 180,-57 180,-39 117,-39"/>
<polygon fill="none" stroke="black" points="117,-39 117,-57 180,-57 180,-39 117,-39"/>
<text text-anchor="start" x="161.25" y="-43.55" font-family="Helvetica,sans-Serif" font-size="11.00">0 &gt;</text>
<polygon fill="none" stroke="black" stroke-width="2" points="9,-38 9,-212 181,-212 181,-38 9,-38"/>
</a>
</g>
</g>
</g>
</svg>
