<?xml version="1.0" encoding="UTF-8" standalone="no"?>
<!DOCTYPE svg PUBLIC "-//W3C//DTD SVG 1.1//EN"
 "http://www.w3.org/Graphics/SVG/1.1/DTD/svg11.dtd">
<!-- Generated by graphviz version 2.43.0 (0)
 -->
<!-- Title: oneDegreeRelationshipsDiagram Pages: 1 -->
<svg width="237pt" height="247pt"
 viewBox="0.00 0.00 237.00 247.00" xmlns="http://www.w3.org/2000/svg" xmlns:xlink="http://www.w3.org/1999/xlink">
<g id="graph0" class="graph" transform="scale(1 1) rotate(0) translate(4 243)">
<title>oneDegreeRelationshipsDiagram</title>
<polygon fill="#ffffff" stroke="transparent" points="-4,4 -4,-243 233,-243 233,4 -4,4"/>
<text text-anchor="middle" x="79.5" y="-7.2" font-family="Helvetica,sans-Serif" font-size="11.00">Generated by SchemaSpy</text>
<!-- market_history -->
<g id="node1" class="node">
<title>market_history</title>
<g id="a_node1"><a xlink:href="../../tables/market_history.html" xlink:title="market_history" target="_top">
<polygon fill="#ffffff" stroke="transparent" points="8,-37 8,-235 221,-235 221,-37 8,-37"/>
<polygon fill="#f5f5f5" stroke="transparent" points="10.5,-211 10.5,-233 219.5,-233 219.5,-211 10.5,-211"/>
<polygon fill="none" stroke="black" points="10.5,-211 10.5,-233 219.5,-233 219.5,-211 10.5,-211"/>
<text text-anchor="start" x="15.5" y="-220.2" font-family="Helvetica,sans-Serif" font-weight="bold" font-size="11.00">market_history</text>
<text text-anchor="start" x="177.5" y="-219.2" font-family="Helvetica,sans-Serif" font-size="11.00">[table]</text>
<polygon fill="none" stroke="black" points="10.5,-189 10.5,-211 143.5,-211 143.5,-189 10.5,-189"/>
<image xlink:href="../../images/primaryKeys.png" width="11px" height="12px" preserveAspectRatio="xMinYMin meet" x="15.5" y="-206"/>
<text text-anchor="start" x="30.5" y="-197.2" font-family="Helvetica,sans-Serif" font-size="11.00">id</text>
<polygon fill="none" stroke="black" points="143.5,-189 143.5,-211 219.5,-211 219.5,-189 143.5,-189"/>
<text text-anchor="start" x="146.5" y="-197.2" font-family="Helvetica,sans-Serif" font-size="11.00">bigserial[19]</text>
<polygon fill="#ffffff" stroke="transparent" points="10.5,-167 10.5,-189 143.5,-189 143.5,-167 10.5,-167"/>
<polygon fill="none" stroke="black" points="10.5,-167 10.5,-189 143.5,-189 143.5,-167 10.5,-167"/>
<text text-anchor="start" x="30.5" y="-175.2" font-family="Helvetica,sans-Serif" font-size="11.00">date</text>
<polygon fill="none" stroke="black" points="143.5,-167 143.5,-189 219.5,-189 219.5,-167 143.5,-167"/>
<text text-anchor="start" x="146.5" y="-175.2" font-family="Helvetica,sans-Serif" font-size="11.00">date[13]</text>
<polygon fill="none" stroke="black" points="10.5,-145 10.5,-167 143.5,-167 143.5,-145 10.5,-145"/>
<text text-anchor="start" x="30.5" y="-153.2" font-family="Helvetica,sans-Serif" font-size="11.00">closing_price</text>
<polygon fill="none" stroke="black" points="143.5,-145 143.5,-167 219.5,-167 219.5,-145 143.5,-145"/>
<text text-anchor="start" x="146.5" y="-153.2" font-family="Helvetica,sans-Serif" font-size="11.00">numeric[0]</text>
<polygon fill="none" stroke="black" points="10.5,-123 10.5,-145 143.5,-145 143.5,-123 10.5,-123"/>
<text text-anchor="start" x="30.5" y="-131.2" font-family="Helvetica,sans-Serif" font-size="11.00">opening_price</text>
<polygon fill="none" stroke="black" points="143.5,-123 143.5,-145 219.5,-145 219.5,-123 143.5,-123"/>
<text text-anchor="start" x="146.5" y="-131.2" font-family="Helvetica,sans-Serif" font-size="11.00">numeric[0]</text>
<polygon fill="none" stroke="black" points="10.5,-101 10.5,-123 143.5,-123 143.5,-101 10.5,-101"/>
<text text-anchor="start" x="30.5" y="-109.2" font-family="Helvetica,sans-Serif" font-size="11.00">market_cap</text>
<polygon fill="none" stroke="black" points="143.5,-101 143.5,-123 219.5,-123 219.5,-101 143.5,-101"/>
<text text-anchor="start" x="146.5" y="-109.2" font-family="Helvetica,sans-Serif" font-size="11.00">numeric[0]</text>
<polygon fill="none" stroke="black" points="10.5,-79 10.5,-101 143.5,-101 143.5,-79 10.5,-79"/>
<text text-anchor="start" x="30.5" y="-87.2" font-family="Helvetica,sans-Serif" font-size="11.00">tvl</text>
<polygon fill="none" stroke="black" points="143.5,-79 143.5,-101 219.5,-101 219.5,-79 143.5,-79"/>
<text text-anchor="start" x="146.5" y="-87.2" font-family="Helvetica,sans-Serif" font-size="11.00">numeric[0]</text>
<polygon fill="#ffffff" stroke="transparent" points="10.5,-57 10.5,-79 143.5,-79 143.5,-57 10.5,-57"/>
<polygon fill="none" stroke="black" points="10.5,-57 10.5,-79 143.5,-79 143.5,-57 10.5,-57"/>
<text text-anchor="start" x="30.5" y="-65.2" font-family="Helvetica,sans-Serif" font-size="11.00">secondary_coin</text>
<polygon fill="none" stroke="black" points="143.5,-57 143.5,-79 219.5,-79 219.5,-57 143.5,-57"/>
<text text-anchor="start" x="146.5" y="-65.2" font-family="Helvetica,sans-Serif" font-size="11.00">bool[1]</text>
<polygon fill="#ffffff" stroke="transparent" points="10.5,-39 10.5,-57 219.5,-57 219.5,-39 10.5,-39"/>
<polygon fill="none" stroke="black" points="10.5,-39 10.5,-57 219.5,-57 219.5,-39 10.5,-39"/>
<polygon fill="#ffffff" stroke="transparent" points="11.5,-40 11.5,-56 84.5,-56 84.5,-40 11.5,-40"/>
<text text-anchor="start" x="13.5" y="-45.2" font-family="Helvetica,sans-Serif" font-size="11.00">&lt; 0</text>
<polygon fill="#ffffff" stroke="transparent" points="84.5,-40 84.5,-56 145.5,-56 145.5,-40 84.5,-40"/>
<text text-anchor="start" x="111" y="-45.2" font-family="Helvetica,sans-Serif" font-size="11.00"> &#160;</text>
<polygon fill="#ffffff" stroke="transparent" points="145.5,-40 145.5,-56 218.5,-56 218.5,-40 145.5,-40"/>
<text text-anchor="start" x="196.5" y="-45.2" font-family="Helvetica,sans-Serif" font-size="11.00">0 &gt;</text>
<polygon fill="black" stroke="black" points="84.5,-40 84.5,-56 84.5,-56 84.5,-40 84.5,-40"/>
<polygon fill="black" stroke="black" points="145.5,-40 145.5,-56 145.5,-56 145.5,-40 145.5,-40"/>
<polygon fill="none" stroke="black" stroke-width="2" points="9,-38 9,-234 220,-234 220,-38 9,-38"/>
</a>
</g>
</g>
</g>
</svg>
