<?xml version="1.0" encoding="UTF-8" standalone="no"?>
<!DOCTYPE svg PUBLIC "-//W3C//DTD SVG 1.1//EN"
 "http://www.w3.org/Graphics/SVG/1.1/DTD/svg11.dtd">
<!-- Generated by graphviz version 2.43.0 (0)
 -->
<!-- Title: oneDegreeRelationshipsDiagramImplied Pages: 1 -->
<svg width="457pt" height="283pt"
 viewBox="0.00 0.00 457.00 283.00" xmlns="http://www.w3.org/2000/svg" xmlns:xlink="http://www.w3.org/1999/xlink">
<g id="graph0" class="graph" transform="scale(1 1) rotate(0) translate(4 279)">
<title>oneDegreeRelationshipsDiagramImplied</title>
<polygon fill="#ffffff" stroke="transparent" points="-4,4 -4,-279 453,-279 453,4 -4,4"/>
<text text-anchor="middle" x="79.5" y="-7.2" font-family="Helvetica,sans-Serif" font-size="11.00">Generated by SchemaSpy</text>
<!-- blocks -->
<g id="node1" class="node">
<title>blocks</title>
<g id="a_node1"><a xlink:href="../../tables/blocks.html" xlink:title="blocks" target="_top">
<polygon fill="#ffffff" stroke="transparent" points="293,-37 293,-271 441,-271 441,-37 293,-37"/>
<polygon fill="#f5f5f5" stroke="transparent" points="293,-249 293,-271 441,-271 441,-249 293,-249"/>
<polygon fill="none" stroke="black" points="293,-249 293,-271 441,-271 441,-249 293,-249"/>
<text text-anchor="start" x="298" y="-258.2" font-family="Helvetica,sans-Serif" font-weight="bold" font-size="11.00">blocks</text>
<text text-anchor="start" x="399" y="-257.2" font-family="Helvetica,sans-Serif" font-size="11.00">[table]</text>
<polygon fill="#ffffff" stroke="transparent" points="293,-227 293,-249 441,-249 441,-227 293,-227"/>
<polygon fill="none" stroke="black" points="293,-227 293,-249 441,-249 441,-227 293,-227"/>
<text text-anchor="start" x="313" y="-235.2" font-family="Helvetica,sans-Serif" font-size="11.00">consensus</text>
<polygon fill="none" stroke="black" points="293,-205 293,-227 441,-227 441,-205 293,-205"/>
<image xlink:href="../../images/primaryKeys.png" width="11px" height="12px" preserveAspectRatio="xMinYMin meet" x="298" y="-222"/>
<text text-anchor="start" x="313" y="-213.2" font-family="Helvetica,sans-Serif" font-size="11.00">hash</text>
<polygon fill="#ffffff" stroke="transparent" points="293,-183 293,-205 441,-205 441,-183 293,-183"/>
<polygon fill="none" stroke="black" points="293,-183 293,-205 441,-205 441,-183 293,-183"/>
<text text-anchor="start" x="313" y="-191.2" font-family="Helvetica,sans-Serif" font-size="11.00">miner_hash</text>
<polygon fill="#ffffff" stroke="transparent" points="293,-161 293,-183 441,-183 441,-161 293,-161"/>
<polygon fill="none" stroke="black" points="293,-161 293,-183 441,-183 441,-161 293,-161"/>
<image xlink:href="../../images/foreignKeys.png" width="11px" height="12px" preserveAspectRatio="xMinYMin meet" x="298" y="-178"/>
<text text-anchor="start" x="313" y="-169.2" font-family="Helvetica,sans-Serif" font-size="11.00">number</text>
<polygon fill="#ffffff" stroke="transparent" points="293,-139 293,-161 441,-161 441,-139 293,-139"/>
<polygon fill="none" stroke="black" points="293,-139 293,-161 441,-161 441,-139 293,-139"/>
<text text-anchor="start" x="313" y="-147.2" font-family="Helvetica,sans-Serif" font-size="11.00">parent_hash</text>
<polygon fill="#ffffff" stroke="transparent" points="293,-117 293,-139 441,-139 441,-117 293,-117"/>
<polygon fill="none" stroke="black" points="293,-117 293,-139 441,-139 441,-117 293,-117"/>
<text text-anchor="start" x="313" y="-125.2" font-family="Helvetica,sans-Serif" font-size="11.00">timestamp</text>
<polygon fill="#ffffff" stroke="transparent" points="293,-95 293,-117 441,-117 441,-95 293,-95"/>
<polygon fill="none" stroke="black" points="293,-95 293,-117 441,-117 441,-95 293,-95"/>
<text text-anchor="start" x="313" y="-103.2" font-family="Helvetica,sans-Serif" font-size="11.00">inserted_at</text>
<polygon fill="#ffffff" stroke="transparent" points="293,-73 293,-95 441,-95 441,-73 293,-73"/>
<polygon fill="none" stroke="black" points="293,-73 293,-95 441,-95 441,-73 293,-73"/>
<text text-anchor="start" x="313" y="-81.2" font-family="Helvetica,sans-Serif" font-size="11.00">is_empty</text>
<polygon fill="none" stroke="black" points="293,-55 293,-73 441,-73 441,-55 293,-55"/>
<text text-anchor="start" x="296" y="-61.2" font-family="Helvetica,sans-Serif" font-size="11.00">...</text>
<polygon fill="#ffffff" stroke="transparent" points="293,-37 293,-55 441,-55 441,-37 293,-37"/>
<polygon fill="none" stroke="black" points="293,-37 293,-55 441,-55 441,-37 293,-37"/>
<polygon fill="#ffffff" stroke="transparent" points="294,-38 294,-54 347,-54 347,-38 294,-38"/>
<text text-anchor="start" x="296" y="-43.2" font-family="Helvetica,sans-Serif" font-size="11.00">&lt; 1</text>
<polygon fill="#ffffff" stroke="transparent" points="347,-38 347,-54 388,-54 388,-38 347,-38"/>
<text text-anchor="start" x="363.5" y="-43.2" font-family="Helvetica,sans-Serif" font-size="11.00"> &#160;</text>
<polygon fill="#ffffff" stroke="transparent" points="388,-38 388,-54 440,-54 440,-38 388,-38"/>
<text text-anchor="start" x="418" y="-43.2" font-family="Helvetica,sans-Serif" font-size="11.00">9 &gt;</text>
<polygon fill="black" stroke="black" points="347,-38 347,-54 347,-54 347,-38 347,-38"/>
<polygon fill="black" stroke="black" points="388,-38 388,-54 388,-54 388,-38 388,-38"/>
</a>
</g>
</g>
<!-- massive_blocks -->
<g id="node2" class="node">
<title>massive_blocks</title>
<g id="a_node2"><a xlink:href="../../tables/massive_blocks.html" xlink:title="massive_blocks" target="_top">
<polygon fill="#ffffff" stroke="transparent" points="8,-97 8,-207 244,-207 244,-97 8,-97"/>
<polygon fill="#f5f5f5" stroke="transparent" points="10,-183 10,-205 242,-205 242,-183 10,-183"/>
<polygon fill="none" stroke="black" points="10,-183 10,-205 242,-205 242,-183 10,-183"/>
<text text-anchor="start" x="15" y="-192.2" font-family="Helvetica,sans-Serif" font-weight="bold" font-size="11.00">massive_blocks</text>
<text text-anchor="start" x="200" y="-191.2" font-family="Helvetica,sans-Serif" font-size="11.00">[table]</text>
<polygon fill="none" stroke="black" points="10,-161 10,-183 143,-183 143,-161 10,-161"/>
<image xlink:href="../../images/primaryKeys.png" width="11px" height="12px" preserveAspectRatio="xMinYMin meet" x="15" y="-178"/>
<text text-anchor="start" x="30" y="-169.2" font-family="Helvetica,sans-Serif" font-size="11.00">number</text>
<polygon fill="none" stroke="black" points="143,-161 143,-183 242,-183 242,-161 143,-161"/>
<text text-anchor="start" x="146" y="-169.2" font-family="Helvetica,sans-Serif" font-size="11.00">int8[19]</text>
<polygon fill="none" stroke="black" points="10,-139 10,-161 143,-161 143,-139 10,-139"/>
<text text-anchor="start" x="30" y="-147.2" font-family="Helvetica,sans-Serif" font-size="11.00">inserted_at</text>
<polygon fill="none" stroke="black" points="143,-139 143,-161 242,-161 242,-139 143,-139"/>
<text text-anchor="start" x="146" y="-147.2" font-family="Helvetica,sans-Serif" font-size="11.00">timestamp[29,6]</text>
<polygon fill="none" stroke="black" points="10,-117 10,-139 143,-139 143,-117 10,-117"/>
<text text-anchor="start" x="30" y="-125.2" font-family="Helvetica,sans-Serif" font-size="11.00">updated_at</text>
<polygon fill="none" stroke="black" points="143,-117 143,-139 242,-139 242,-117 143,-117"/>
<text text-anchor="start" x="146" y="-125.2" font-family="Helvetica,sans-Serif" font-size="11.00">timestamp[29,6]</text>
<polygon fill="#ffffff" stroke="transparent" points="10,-99 10,-117 242,-117 242,-99 10,-99"/>
<polygon fill="none" stroke="black" points="10,-99 10,-117 242,-117 242,-99 10,-99"/>
<polygon fill="#ffffff" stroke="transparent" points="11,-100 11,-116 92,-116 92,-100 11,-100"/>
<text text-anchor="start" x="13" y="-105.2" font-family="Helvetica,sans-Serif" font-size="11.00">&lt; 0</text>
<polygon fill="#ffffff" stroke="transparent" points="92,-100 92,-116 161,-116 161,-100 92,-100"/>
<text text-anchor="start" x="122.5" y="-105.2" font-family="Helvetica,sans-Serif" font-size="11.00"> &#160;</text>
<polygon fill="#ffffff" stroke="transparent" points="161,-100 161,-116 241,-116 241,-100 161,-100"/>
<text text-anchor="start" x="219" y="-105.2" font-family="Helvetica,sans-Serif" font-size="11.00">1 &gt;</text>
<polygon fill="black" stroke="black" points="92,-100 92,-116 92,-116 92,-100 92,-100"/>
<polygon fill="black" stroke="black" points="161,-100 161,-116 161,-116 161,-100 161,-100"/>
<polygon fill="none" stroke="black" stroke-width="2" points="9,-98 9,-206 243,-206 243,-98 9,-98"/>
</a>
</g>
</g>
<!-- blocks&#45;&gt;massive_blocks -->
<g id="edge1" class="edge">
<title>blocks:w&#45;&gt;massive_blocks:e</title>
<path fill="none" stroke="black" stroke-dasharray="5,2" d="M281.26,-172C267.61,-172 260.69,-172 243,-172"/>
<polygon fill="black" stroke="black" points="291.2,-168 291.2,-176 289.6,-176 289.6,-168 291.2,-168"/>
<polyline fill="none" stroke="black" points="292,-172 288,-172 "/>
<ellipse fill="none" stroke="black" cx="284.8" cy="-172" rx="3.2" ry="3.2"/>
</g>
</g>
</svg>
