<?xml version="1.0" encoding="UTF-8" standalone="no"?>
<!DOCTYPE svg PUBLIC "-//W3C//DTD SVG 1.1//EN"
 "http://www.w3.org/Graphics/SVG/1.1/DTD/svg11.dtd">
<!-- Generated by graphviz version 2.43.0 (0)
 -->
<!-- Title: oneDegreeRelationshipsDiagram Pages: 1 -->
<svg width="260pt" height="159pt"
 viewBox="0.00 0.00 260.00 159.00" xmlns="http://www.w3.org/2000/svg" xmlns:xlink="http://www.w3.org/1999/xlink">
<g id="graph0" class="graph" transform="scale(1 1) rotate(0) translate(4 155)">
<title>oneDegreeRelationshipsDiagram</title>
<polygon fill="#ffffff" stroke="transparent" points="-4,4 -4,-155 256,-155 256,4 -4,4"/>
<text text-anchor="middle" x="79.5" y="-7.2" font-family="Helvetica,sans-Serif" font-size="11.00">Generated by SchemaSpy</text>
<!-- massive_blocks -->
<g id="node1" class="node">
<title>massive_blocks</title>
<g id="a_node1"><a xlink:href="../../tables/massive_blocks.html" xlink:title="massive_blocks" target="_top">
<polygon fill="#ffffff" stroke="transparent" points="8,-37 8,-147 244,-147 244,-37 8,-37"/>
<polygon fill="#f5f5f5" stroke="transparent" points="10,-123 10,-145 242,-145 242,-123 10,-123"/>
<polygon fill="none" stroke="black" points="10,-123 10,-145 242,-145 242,-123 10,-123"/>
<text text-anchor="start" x="15" y="-132.2" font-family="Helvetica,sans-Serif" font-weight="bold" font-size="11.00">massive_blocks</text>
<text text-anchor="start" x="200" y="-131.2" font-family="Helvetica,sans-Serif" font-size="11.00">[table]</text>
<polygon fill="none" stroke="black" points="10,-101 10,-123 143,-123 143,-101 10,-101"/>
<image xlink:href="../../images/primaryKeys.png" width="11px" height="12px" preserveAspectRatio="xMinYMin meet" x="15" y="-118"/>
<text text-anchor="start" x="30" y="-109.2" font-family="Helvetica,sans-Serif" font-size="11.00">number</text>
<polygon fill="none" stroke="black" points="143,-101 143,-123 242,-123 242,-101 143,-101"/>
<text text-anchor="start" x="146" y="-109.2" font-family="Helvetica,sans-Serif" font-size="11.00">int8[19]</text>
<polygon fill="none" stroke="black" points="10,-79 10,-101 143,-101 143,-79 10,-79"/>
<text text-anchor="start" x="30" y="-87.2" font-family="Helvetica,sans-Serif" font-size="11.00">inserted_at</text>
<polygon fill="none" stroke="black" points="143,-79 143,-101 242,-101 242,-79 143,-79"/>
<text text-anchor="start" x="146" y="-87.2" font-family="Helvetica,sans-Serif" font-size="11.00">timestamp[29,6]</text>
<polygon fill="none" stroke="black" points="10,-57 10,-79 143,-79 143,-57 10,-57"/>
<text text-anchor="start" x="30" y="-65.2" font-family="Helvetica,sans-Serif" font-size="11.00">updated_at</text>
<polygon fill="none" stroke="black" points="143,-57 143,-79 242,-79 242,-57 143,-57"/>
<text text-anchor="start" x="146" y="-65.2" font-family="Helvetica,sans-Serif" font-size="11.00">timestamp[29,6]</text>
<polygon fill="#ffffff" stroke="transparent" points="10,-39 10,-57 242,-57 242,-39 10,-39"/>
<polygon fill="none" stroke="black" points="10,-39 10,-57 242,-57 242,-39 10,-39"/>
<polygon fill="#ffffff" stroke="transparent" points="11,-40 11,-56 92,-56 92,-40 11,-40"/>
<text text-anchor="start" x="13" y="-45.2" font-family="Helvetica,sans-Serif" font-size="11.00">&lt; 0</text>
<polygon fill="#ffffff" stroke="transparent" points="92,-40 92,-56 161,-56 161,-40 92,-40"/>
<text text-anchor="start" x="122.5" y="-45.2" font-family="Helvetica,sans-Serif" font-size="11.00"> &#160;</text>
<polygon fill="#ffffff" stroke="transparent" points="161,-40 161,-56 241,-56 241,-40 161,-40"/>
<text text-anchor="start" x="219" y="-45.2" font-family="Helvetica,sans-Serif" font-size="11.00">0 &gt;</text>
<polygon fill="black" stroke="black" points="92,-40 92,-56 92,-56 92,-40 92,-40"/>
<polygon fill="black" stroke="black" points="161,-40 161,-56 161,-56 161,-40 161,-40"/>
<polygon fill="none" stroke="black" stroke-width="2" points="9,-38 9,-146 243,-146 243,-38 9,-38"/>
</a>
</g>
</g>
</g>
</svg>
