<?xml version="1.0" encoding="UTF-8" standalone="no"?>
<!DOCTYPE svg PUBLIC "-//W3C//DTD SVG 1.1//EN"
 "http://www.w3.org/Graphics/SVG/1.1/DTD/svg11.dtd">
<!-- Generated by graphviz version 2.43.0 (0)
 -->
<!-- Title: twoDegreesRelationshipsDiagramImplied Pages: 1 -->
<svg width="1316pt" height="529pt"
 viewBox="0.00 0.00 1316.00 528.58" xmlns="http://www.w3.org/2000/svg" xmlns:xlink="http://www.w3.org/1999/xlink">
<g id="graph0" class="graph" transform="scale(1 1) rotate(0) translate(4 524.58)">
<title>twoDegreesRelationshipsDiagramImplied</title>
<polygon fill="#ffffff" stroke="transparent" points="-4,4 -4,-524.58 1312,-524.58 1312,4 -4,4"/>
<text text-anchor="middle" x="79.5" y="-7.2" font-family="Helvetica,sans-Serif" font-size="11.00">Generated by SchemaSpy</text>
<!-- block_rewards -->
<g id="node1" class="node">
<title>block_rewards</title>
<g id="a_node1"><a xlink:href="../../tables/block_rewards.html" xlink:title="block_rewards" target="_top">
<polygon fill="#ffffff" stroke="transparent" points="532.5,-458.58 532.5,-516.58 684.5,-516.58 684.5,-458.58 532.5,-458.58"/>
<polygon fill="#f5f5f5" stroke="transparent" points="532.5,-494.58 532.5,-516.58 684.5,-516.58 684.5,-494.58 532.5,-494.58"/>
<polygon fill="none" stroke="black" points="532.5,-494.58 532.5,-516.58 684.5,-516.58 684.5,-494.58 532.5,-494.58"/>
<text text-anchor="start" x="537.5" y="-503.78" font-family="Helvetica,sans-Serif" font-weight="bold" font-size="11.00">block_rewards</text>
<text text-anchor="start" x="642.5" y="-502.78" font-family="Helvetica,sans-Serif" font-size="11.00">[table]</text>
<polygon fill="none" stroke="black" points="532.5,-476.58 532.5,-494.58 684.5,-494.58 684.5,-476.58 532.5,-476.58"/>
<text text-anchor="start" x="535.5" y="-482.78" font-family="Helvetica,sans-Serif" font-size="11.00">...</text>
<polygon fill="#ffffff" stroke="transparent" points="532.5,-458.58 532.5,-476.58 684.5,-476.58 684.5,-458.58 532.5,-458.58"/>
<polygon fill="none" stroke="black" points="532.5,-458.58 532.5,-476.58 684.5,-476.58 684.5,-458.58 532.5,-458.58"/>
<polygon fill="#ffffff" stroke="transparent" points="533.5,-459.58 533.5,-475.58 591.5,-475.58 591.5,-459.58 533.5,-459.58"/>
<text text-anchor="start" x="535.5" y="-464.78" font-family="Helvetica,sans-Serif" font-size="11.00">&lt; 1</text>
<polygon fill="#ffffff" stroke="transparent" points="591.5,-459.58 591.5,-475.58 637.5,-475.58 637.5,-459.58 591.5,-459.58"/>
<text text-anchor="start" x="610.5" y="-464.78" font-family="Helvetica,sans-Serif" font-size="11.00"> &#160;</text>
<polygon fill="#ffffff" stroke="transparent" points="637.5,-459.58 637.5,-475.58 683.5,-475.58 683.5,-459.58 637.5,-459.58"/>
<text text-anchor="start" x="673.5" y="-464.78" font-family="Helvetica,sans-Serif" font-size="11.00"> &#160;</text>
<polygon fill="black" stroke="black" points="591.5,-459.58 591.5,-475.58 591.5,-475.58 591.5,-459.58 591.5,-459.58"/>
<polygon fill="black" stroke="black" points="637.5,-459.58 637.5,-475.58 637.5,-475.58 637.5,-459.58 637.5,-459.58"/>
</a>
</g>
</g>
<!-- blocks -->
<g id="node2" class="node">
<title>blocks</title>
<g id="a_node2"><a xlink:href="../../tables/blocks.html" xlink:title="blocks" target="_top">
<polygon fill="#ffffff" stroke="transparent" points="293,-94.58 293,-328.58 441,-328.58 441,-94.58 293,-94.58"/>
<polygon fill="#f5f5f5" stroke="transparent" points="293,-306.58 293,-328.58 441,-328.58 441,-306.58 293,-306.58"/>
<polygon fill="none" stroke="black" points="293,-306.58 293,-328.58 441,-328.58 441,-306.58 293,-306.58"/>
<text text-anchor="start" x="298" y="-315.78" font-family="Helvetica,sans-Serif" font-weight="bold" font-size="11.00">blocks</text>
<text text-anchor="start" x="399" y="-314.78" font-family="Helvetica,sans-Serif" font-size="11.00">[table]</text>
<polygon fill="#ffffff" stroke="transparent" points="293,-284.58 293,-306.58 441,-306.58 441,-284.58 293,-284.58"/>
<polygon fill="none" stroke="black" points="293,-284.58 293,-306.58 441,-306.58 441,-284.58 293,-284.58"/>
<text text-anchor="start" x="313" y="-292.78" font-family="Helvetica,sans-Serif" font-size="11.00">consensus</text>
<polygon fill="none" stroke="black" points="293,-262.58 293,-284.58 441,-284.58 441,-262.58 293,-262.58"/>
<image xlink:href="../../images/primaryKeys.png" width="11px" height="12px" preserveAspectRatio="xMinYMin meet" x="298" y="-279.581"/>
<text text-anchor="start" x="313" y="-270.78" font-family="Helvetica,sans-Serif" font-size="11.00">hash</text>
<polygon fill="#ffffff" stroke="transparent" points="293,-240.58 293,-262.58 441,-262.58 441,-240.58 293,-240.58"/>
<polygon fill="none" stroke="black" points="293,-240.58 293,-262.58 441,-262.58 441,-240.58 293,-240.58"/>
<text text-anchor="start" x="313" y="-248.78" font-family="Helvetica,sans-Serif" font-size="11.00">miner_hash</text>
<polygon fill="#ffffff" stroke="transparent" points="293,-218.58 293,-240.58 441,-240.58 441,-218.58 293,-218.58"/>
<polygon fill="none" stroke="black" points="293,-218.58 293,-240.58 441,-240.58 441,-218.58 293,-218.58"/>
<image xlink:href="../../images/foreignKeys.png" width="11px" height="12px" preserveAspectRatio="xMinYMin meet" x="298" y="-235.581"/>
<text text-anchor="start" x="313" y="-226.78" font-family="Helvetica,sans-Serif" font-size="11.00">number</text>
<polygon fill="#ffffff" stroke="transparent" points="293,-196.58 293,-218.58 441,-218.58 441,-196.58 293,-196.58"/>
<polygon fill="none" stroke="black" points="293,-196.58 293,-218.58 441,-218.58 441,-196.58 293,-196.58"/>
<text text-anchor="start" x="313" y="-204.78" font-family="Helvetica,sans-Serif" font-size="11.00">parent_hash</text>
<polygon fill="#ffffff" stroke="transparent" points="293,-174.58 293,-196.58 441,-196.58 441,-174.58 293,-174.58"/>
<polygon fill="none" stroke="black" points="293,-174.58 293,-196.58 441,-196.58 441,-174.58 293,-174.58"/>
<text text-anchor="start" x="313" y="-182.78" font-family="Helvetica,sans-Serif" font-size="11.00">timestamp</text>
<polygon fill="#ffffff" stroke="transparent" points="293,-152.58 293,-174.58 441,-174.58 441,-152.58 293,-152.58"/>
<polygon fill="none" stroke="black" points="293,-152.58 293,-174.58 441,-174.58 441,-152.58 293,-152.58"/>
<text text-anchor="start" x="313" y="-160.78" font-family="Helvetica,sans-Serif" font-size="11.00">inserted_at</text>
<polygon fill="#ffffff" stroke="transparent" points="293,-130.58 293,-152.58 441,-152.58 441,-130.58 293,-130.58"/>
<polygon fill="none" stroke="black" points="293,-130.58 293,-152.58 441,-152.58 441,-130.58 293,-130.58"/>
<text text-anchor="start" x="313" y="-138.78" font-family="Helvetica,sans-Serif" font-size="11.00">is_empty</text>
<polygon fill="none" stroke="black" points="293,-112.58 293,-130.58 441,-130.58 441,-112.58 293,-112.58"/>
<text text-anchor="start" x="296" y="-118.78" font-family="Helvetica,sans-Serif" font-size="11.00">...</text>
<polygon fill="#ffffff" stroke="transparent" points="293,-94.58 293,-112.58 441,-112.58 441,-94.58 293,-94.58"/>
<polygon fill="none" stroke="black" points="293,-94.58 293,-112.58 441,-112.58 441,-94.58 293,-94.58"/>
<polygon fill="#ffffff" stroke="transparent" points="294,-95.58 294,-111.58 347,-111.58 347,-95.58 294,-95.58"/>
<text text-anchor="start" x="296" y="-100.78" font-family="Helvetica,sans-Serif" font-size="11.00">&lt; 1</text>
<polygon fill="#ffffff" stroke="transparent" points="347,-95.58 347,-111.58 388,-111.58 388,-95.58 347,-95.58"/>
<text text-anchor="start" x="363.5" y="-100.78" font-family="Helvetica,sans-Serif" font-size="11.00"> &#160;</text>
<polygon fill="#ffffff" stroke="transparent" points="388,-95.58 388,-111.58 440,-111.58 440,-95.58 388,-95.58"/>
<text text-anchor="start" x="418" y="-100.78" font-family="Helvetica,sans-Serif" font-size="11.00">9 &gt;</text>
<polygon fill="black" stroke="black" points="347,-95.58 347,-111.58 347,-111.58 347,-95.58 347,-95.58"/>
<polygon fill="black" stroke="black" points="388,-95.58 388,-111.58 388,-111.58 388,-95.58 388,-95.58"/>
</a>
</g>
</g>
<!-- block_rewards&#45;&gt;blocks -->
<g id="edge1" class="edge">
<title>block_rewards:w&#45;&gt;blocks:e</title>
<path fill="none" stroke="black" d="M517.12,-483.74C500.28,-478.76 494.1,-464.13 482,-444.58 440.91,-378.22 520.05,-273.58 442,-273.58"/>
<polygon fill="black" stroke="black" points="523.57,-484.56 531.04,-489.15 527.53,-485.07 531.5,-485.58 531.5,-485.58 531.5,-485.58 527.53,-485.07 531.96,-482.01 523.57,-484.56 523.57,-484.56"/>
<ellipse fill="none" stroke="black" cx="520.39" cy="-484.16" rx="3.2" ry="3.2"/>
</g>
<!-- massive_blocks -->
<g id="node5" class="node">
<title>massive_blocks</title>
<g id="a_node5"><a xlink:href="../../tables/massive_blocks.html" xlink:title="massive_blocks" target="_top">
<polygon fill="#ffffff" stroke="transparent" points="8,-154.58 8,-264.58 244,-264.58 244,-154.58 8,-154.58"/>
<polygon fill="#f5f5f5" stroke="transparent" points="10,-240.58 10,-262.58 242,-262.58 242,-240.58 10,-240.58"/>
<polygon fill="none" stroke="black" points="10,-240.58 10,-262.58 242,-262.58 242,-240.58 10,-240.58"/>
<text text-anchor="start" x="15" y="-249.78" font-family="Helvetica,sans-Serif" font-weight="bold" font-size="11.00">massive_blocks</text>
<text text-anchor="start" x="200" y="-248.78" font-family="Helvetica,sans-Serif" font-size="11.00">[table]</text>
<polygon fill="none" stroke="black" points="10,-218.58 10,-240.58 143,-240.58 143,-218.58 10,-218.58"/>
<image xlink:href="../../images/primaryKeys.png" width="11px" height="12px" preserveAspectRatio="xMinYMin meet" x="15" y="-235.581"/>
<text text-anchor="start" x="30" y="-226.78" font-family="Helvetica,sans-Serif" font-size="11.00">number</text>
<polygon fill="none" stroke="black" points="143,-218.58 143,-240.58 242,-240.58 242,-218.58 143,-218.58"/>
<text text-anchor="start" x="146" y="-226.78" font-family="Helvetica,sans-Serif" font-size="11.00">int8[19]</text>
<polygon fill="none" stroke="black" points="10,-196.58 10,-218.58 143,-218.58 143,-196.58 10,-196.58"/>
<text text-anchor="start" x="30" y="-204.78" font-family="Helvetica,sans-Serif" font-size="11.00">inserted_at</text>
<polygon fill="none" stroke="black" points="143,-196.58 143,-218.58 242,-218.58 242,-196.58 143,-196.58"/>
<text text-anchor="start" x="146" y="-204.78" font-family="Helvetica,sans-Serif" font-size="11.00">timestamp[29,6]</text>
<polygon fill="none" stroke="black" points="10,-174.58 10,-196.58 143,-196.58 143,-174.58 10,-174.58"/>
<text text-anchor="start" x="30" y="-182.78" font-family="Helvetica,sans-Serif" font-size="11.00">updated_at</text>
<polygon fill="none" stroke="black" points="143,-174.58 143,-196.58 242,-196.58 242,-174.58 143,-174.58"/>
<text text-anchor="start" x="146" y="-182.78" font-family="Helvetica,sans-Serif" font-size="11.00">timestamp[29,6]</text>
<polygon fill="#ffffff" stroke="transparent" points="10,-156.58 10,-174.58 242,-174.58 242,-156.58 10,-156.58"/>
<polygon fill="none" stroke="black" points="10,-156.58 10,-174.58 242,-174.58 242,-156.58 10,-156.58"/>
<polygon fill="#ffffff" stroke="transparent" points="11,-157.58 11,-173.58 92,-173.58 92,-157.58 11,-157.58"/>
<text text-anchor="start" x="13" y="-162.78" font-family="Helvetica,sans-Serif" font-size="11.00">&lt; 0</text>
<polygon fill="#ffffff" stroke="transparent" points="92,-157.58 92,-173.58 161,-173.58 161,-157.58 92,-157.58"/>
<text text-anchor="start" x="122.5" y="-162.78" font-family="Helvetica,sans-Serif" font-size="11.00"> &#160;</text>
<polygon fill="#ffffff" stroke="transparent" points="161,-157.58 161,-173.58 241,-173.58 241,-157.58 161,-157.58"/>
<text text-anchor="start" x="219" y="-162.78" font-family="Helvetica,sans-Serif" font-size="11.00">1 &gt;</text>
<polygon fill="black" stroke="black" points="92,-157.58 92,-173.58 92,-173.58 92,-157.58 92,-157.58"/>
<polygon fill="black" stroke="black" points="161,-157.58 161,-173.58 161,-173.58 161,-157.58 161,-157.58"/>
<polygon fill="none" stroke="black" stroke-width="2" points="9,-155.58 9,-263.58 243,-263.58 243,-155.58 9,-155.58"/>
</a>
</g>
</g>
<!-- blocks&#45;&gt;massive_blocks -->
<g id="edge4" class="edge">
<title>blocks:w&#45;&gt;massive_blocks:e</title>
<path fill="none" stroke="black" stroke-dasharray="5,2" d="M281.26,-229.58C267.61,-229.58 260.69,-229.58 243,-229.58"/>
<polygon fill="black" stroke="black" points="291.2,-225.58 291.2,-233.58 289.6,-233.58 289.6,-225.58 291.2,-225.58"/>
<polyline fill="none" stroke="black" points="292,-229.58 288,-229.58 "/>
<ellipse fill="none" stroke="black" cx="284.8" cy="-229.58" rx="3.2" ry="3.2"/>
</g>
<!-- block_second_degree_relations -->
<g id="node3" class="node">
<title>block_second_degree_relations</title>
<g id="a_node3"><a xlink:href="../../tables/block_second_degree_relations.html" xlink:title="block_second_degree_relations" target="_top">
<polygon fill="#ffffff" stroke="transparent" points="776,-352.58 776,-410.58 1049,-410.58 1049,-352.58 776,-352.58"/>
<polygon fill="#f5f5f5" stroke="transparent" points="776.5,-388.58 776.5,-410.58 1049.5,-410.58 1049.5,-388.58 776.5,-388.58"/>
<polygon fill="none" stroke="black" points="776.5,-388.58 776.5,-410.58 1049.5,-410.58 1049.5,-388.58 776.5,-388.58"/>
<text text-anchor="start" x="781.5" y="-397.78" font-family="Helvetica,sans-Serif" font-weight="bold" font-size="11.00">block_second_degree_relations</text>
<text text-anchor="start" x="1007.5" y="-396.78" font-family="Helvetica,sans-Serif" font-size="11.00">[table]</text>
<polygon fill="none" stroke="black" points="776.5,-370.58 776.5,-388.58 1049.5,-388.58 1049.5,-370.58 776.5,-370.58"/>
<text text-anchor="start" x="779.5" y="-376.78" font-family="Helvetica,sans-Serif" font-size="11.00">...</text>
<polygon fill="#ffffff" stroke="transparent" points="776.5,-352.58 776.5,-370.58 1049.5,-370.58 1049.5,-352.58 776.5,-352.58"/>
<polygon fill="none" stroke="black" points="776.5,-352.58 776.5,-370.58 1049.5,-370.58 1049.5,-352.58 776.5,-352.58"/>
<polygon fill="#ffffff" stroke="transparent" points="777.5,-353.58 777.5,-369.58 876.5,-369.58 876.5,-353.58 777.5,-353.58"/>
<text text-anchor="start" x="779.5" y="-358.78" font-family="Helvetica,sans-Serif" font-size="11.00">&lt; 2</text>
<polygon fill="#ffffff" stroke="transparent" points="876.5,-353.58 876.5,-369.58 962.5,-369.58 962.5,-353.58 876.5,-353.58"/>
<text text-anchor="start" x="915.5" y="-358.78" font-family="Helvetica,sans-Serif" font-size="11.00"> &#160;</text>
<polygon fill="#ffffff" stroke="transparent" points="962.5,-353.58 962.5,-369.58 1048.5,-369.58 1048.5,-353.58 962.5,-353.58"/>
<text text-anchor="start" x="1038.5" y="-358.78" font-family="Helvetica,sans-Serif" font-size="11.00"> &#160;</text>
<polygon fill="black" stroke="black" points="876.5,-353.58 876.5,-369.58 876.5,-369.58 876.5,-353.58 876.5,-353.58"/>
<polygon fill="black" stroke="black" points="962.5,-353.58 962.5,-369.58 962.5,-369.58 962.5,-353.58 962.5,-353.58"/>
</a>
</g>
</g>
<!-- block_second_degree_relations&#45;&gt;blocks -->
<g id="edge3" class="edge">
<title>block_second_degree_relations:w&#45;&gt;blocks:e</title>
<path fill="none" stroke="black" d="M760.9,-379.84C640.63,-384.05 585.35,-437.96 482,-366.58 444.98,-341.01 486.99,-273.58 442,-273.58"/>
<polygon fill="black" stroke="black" points="767.5,-379.72 775.56,-383.18 771.5,-379.65 775.5,-379.58 775.5,-379.58 775.5,-379.58 771.5,-379.65 775.44,-375.98 767.5,-379.72 767.5,-379.72"/>
<ellipse fill="none" stroke="black" cx="764.3" cy="-379.78" rx="3.2" ry="3.2"/>
</g>
<!-- withdrawals -->
<g id="node4" class="node">
<title>withdrawals</title>
<g id="a_node4"><a xlink:href="../../tables/withdrawals.html" xlink:title="withdrawals" target="_top">
<polygon fill="#ffffff" stroke="transparent" points="540.5,-297.58 540.5,-355.58 676.5,-355.58 676.5,-297.58 540.5,-297.58"/>
<polygon fill="#f5f5f5" stroke="transparent" points="540.5,-333.58 540.5,-355.58 676.5,-355.58 676.5,-333.58 540.5,-333.58"/>
<polygon fill="none" stroke="black" points="540.5,-333.58 540.5,-355.58 676.5,-355.58 676.5,-333.58 540.5,-333.58"/>
<text text-anchor="start" x="545.5" y="-342.78" font-family="Helvetica,sans-Serif" font-weight="bold" font-size="11.00">withdrawals</text>
<text text-anchor="start" x="634.5" y="-341.78" font-family="Helvetica,sans-Serif" font-size="11.00">[table]</text>
<polygon fill="none" stroke="black" points="540.5,-315.58 540.5,-333.58 676.5,-333.58 676.5,-315.58 540.5,-315.58"/>
<text text-anchor="start" x="543.5" y="-321.78" font-family="Helvetica,sans-Serif" font-size="11.00">...</text>
<polygon fill="#ffffff" stroke="transparent" points="540.5,-297.58 540.5,-315.58 676.5,-315.58 676.5,-297.58 540.5,-297.58"/>
<polygon fill="none" stroke="black" points="540.5,-297.58 540.5,-315.58 676.5,-315.58 676.5,-297.58 540.5,-297.58"/>
<polygon fill="#ffffff" stroke="transparent" points="541.5,-298.58 541.5,-314.58 590.5,-314.58 590.5,-298.58 541.5,-298.58"/>
<text text-anchor="start" x="543.5" y="-303.78" font-family="Helvetica,sans-Serif" font-size="11.00">&lt; 1</text>
<polygon fill="#ffffff" stroke="transparent" points="590.5,-298.58 590.5,-314.58 627.5,-314.58 627.5,-298.58 590.5,-298.58"/>
<text text-anchor="start" x="605" y="-303.78" font-family="Helvetica,sans-Serif" font-size="11.00"> &#160;</text>
<polygon fill="#ffffff" stroke="transparent" points="627.5,-298.58 627.5,-314.58 675.5,-314.58 675.5,-298.58 627.5,-298.58"/>
<text text-anchor="start" x="653.5" y="-303.78" font-family="Helvetica,sans-Serif" font-size="11.00">5 &gt;</text>
<polygon fill="black" stroke="black" points="590.5,-298.58 590.5,-314.58 590.5,-314.58 590.5,-298.58 590.5,-298.58"/>
<polygon fill="black" stroke="black" points="627.5,-298.58 627.5,-314.58 627.5,-314.58 627.5,-298.58 627.5,-298.58"/>
</a>
</g>
</g>
<!-- block_second_degree_relations&#45;&gt;withdrawals -->
<g id="edge2" class="edge">
<title>block_second_degree_relations:w&#45;&gt;withdrawals:e</title>
<path fill="none" stroke="black" stroke-dasharray="5,2" d="M760.84,-377.75C725.35,-368.21 721.98,-324.58 677.5,-324.58"/>
<polygon fill="black" stroke="black" points="767.56,-378.59 775.05,-383.15 771.53,-379.09 775.5,-379.58 775.5,-379.58 775.5,-379.58 771.53,-379.09 775.95,-376.01 767.56,-378.59 767.56,-378.59"/>
<ellipse fill="none" stroke="black" cx="764.39" cy="-378.19" rx="3.2" ry="3.2"/>
</g>
<!-- withdrawals&#45;&gt;blocks -->
<g id="edge18" class="edge">
<title>withdrawals:w&#45;&gt;blocks:e</title>
<path fill="none" stroke="black" d="M525.09,-322.88C490.07,-314.04 485.55,-273.58 442,-273.58"/>
<polygon fill="black" stroke="black" points="531.55,-323.65 539.08,-328.16 535.53,-324.11 539.5,-324.58 539.5,-324.58 539.5,-324.58 535.53,-324.11 539.92,-321.01 531.55,-323.65 531.55,-323.65"/>
<ellipse fill="none" stroke="black" cx="528.38" cy="-323.27" rx="3.2" ry="3.2"/>
</g>
<!-- internal_transactions -->
<g id="node6" class="node">
<title>internal_transactions</title>
<g id="a_node6"><a xlink:href="../../tables/internal_transactions.html" xlink:title="internal_transactions" target="_top">
<polygon fill="#ffffff" stroke="transparent" points="1098,-302.58 1098,-360.58 1300,-360.58 1300,-302.58 1098,-302.58"/>
<polygon fill="#f5f5f5" stroke="transparent" points="1098,-338.58 1098,-360.58 1300,-360.58 1300,-338.58 1098,-338.58"/>
<polygon fill="none" stroke="black" points="1098,-338.58 1098,-360.58 1300,-360.58 1300,-338.58 1098,-338.58"/>
<text text-anchor="start" x="1103" y="-347.78" font-family="Helvetica,sans-Serif" font-weight="bold" font-size="11.00">internal_transactions</text>
<text text-anchor="start" x="1258" y="-346.78" font-family="Helvetica,sans-Serif" font-size="11.00">[table]</text>
<polygon fill="none" stroke="black" points="1098,-320.58 1098,-338.58 1300,-338.58 1300,-320.58 1098,-320.58"/>
<text text-anchor="start" x="1101" y="-326.78" font-family="Helvetica,sans-Serif" font-size="11.00">...</text>
<polygon fill="#ffffff" stroke="transparent" points="1098,-302.58 1098,-320.58 1300,-320.58 1300,-302.58 1098,-302.58"/>
<polygon fill="none" stroke="black" points="1098,-302.58 1098,-320.58 1300,-320.58 1300,-302.58 1098,-302.58"/>
<polygon fill="#ffffff" stroke="transparent" points="1099,-303.58 1099,-319.58 1174,-319.58 1174,-303.58 1099,-303.58"/>
<text text-anchor="start" x="1101" y="-308.78" font-family="Helvetica,sans-Serif" font-size="11.00">&lt; 4</text>
<polygon fill="#ffffff" stroke="transparent" points="1174,-303.58 1174,-319.58 1237,-319.58 1237,-303.58 1174,-303.58"/>
<text text-anchor="start" x="1201.5" y="-308.78" font-family="Helvetica,sans-Serif" font-size="11.00"> &#160;</text>
<polygon fill="#ffffff" stroke="transparent" points="1237,-303.58 1237,-319.58 1299,-319.58 1299,-303.58 1237,-303.58"/>
<text text-anchor="start" x="1289" y="-308.78" font-family="Helvetica,sans-Serif" font-size="11.00"> &#160;</text>
<polygon fill="black" stroke="black" points="1174,-303.58 1174,-319.58 1174,-319.58 1174,-303.58 1174,-303.58"/>
<polygon fill="black" stroke="black" points="1237,-303.58 1237,-319.58 1237,-319.58 1237,-303.58 1237,-303.58"/>
</a>
</g>
</g>
<!-- internal_transactions&#45;&gt;blocks -->
<g id="edge5" class="edge">
<title>internal_transactions:w&#45;&gt;blocks:e</title>
<path fill="none" stroke="black" d="M1082.86,-333.28C1062.62,-347.73 1089.04,-400.57 1057,-421.58 949.58,-492.01 896.3,-427.62 768,-421.58 640.47,-415.57 581.85,-474.15 482,-394.58 437.7,-359.28 498.64,-273.58 442,-273.58"/>
<polygon fill="black" stroke="black" points="1089.26,-331.61 1097.91,-333.06 1093.13,-330.59 1097,-329.58 1097,-329.58 1097,-329.58 1093.13,-330.59 1096.09,-326.1 1089.26,-331.61 1089.26,-331.61"/>
<ellipse fill="none" stroke="black" cx="1086.16" cy="-332.42" rx="3.2" ry="3.2"/>
</g>
<!-- internal_transactions&#45;&gt;withdrawals -->
<g id="edge6" class="edge">
<title>internal_transactions:w&#45;&gt;withdrawals:e</title>
<path fill="none" stroke="black" stroke-dasharray="5,2" d="M1082.54,-329.57C907.99,-329.32 859.04,-324.58 677.5,-324.58"/>
<polygon fill="black" stroke="black" points="1089,-329.58 1097,-333.18 1093,-329.58 1097,-329.58 1097,-329.58 1097,-329.58 1093,-329.58 1097,-325.98 1089,-329.58 1089,-329.58"/>
<ellipse fill="none" stroke="black" cx="1085.8" cy="-329.57" rx="3.2" ry="3.2"/>
</g>
<!-- internal_transactions&#45;&gt;withdrawals -->
<g id="edge8" class="edge">
<title>internal_transactions:w&#45;&gt;withdrawals:e</title>
<path fill="none" stroke="black" stroke-dasharray="5,2" d="M1082.54,-329.57C907.99,-329.32 859.04,-324.58 677.5,-324.58"/>
<polygon fill="black" stroke="black" points="1089,-329.58 1097,-333.18 1093,-329.58 1097,-329.58 1097,-329.58 1097,-329.58 1093,-329.58 1097,-325.98 1089,-329.58 1089,-329.58"/>
<ellipse fill="none" stroke="black" cx="1085.8" cy="-329.57" rx="3.2" ry="3.2"/>
</g>
<!-- transactions -->
<g id="node7" class="node">
<title>transactions</title>
<g id="a_node7"><a xlink:href="../../tables/transactions.html" xlink:title="transactions" target="_top">
<polygon fill="#ffffff" stroke="transparent" points="843.5,-191.58 843.5,-249.58 981.5,-249.58 981.5,-191.58 843.5,-191.58"/>
<polygon fill="#f5f5f5" stroke="transparent" points="843.5,-227.58 843.5,-249.58 981.5,-249.58 981.5,-227.58 843.5,-227.58"/>
<polygon fill="none" stroke="black" points="843.5,-227.58 843.5,-249.58 981.5,-249.58 981.5,-227.58 843.5,-227.58"/>
<text text-anchor="start" x="848.5" y="-236.78" font-family="Helvetica,sans-Serif" font-weight="bold" font-size="11.00">transactions</text>
<text text-anchor="start" x="939.5" y="-235.78" font-family="Helvetica,sans-Serif" font-size="11.00">[table]</text>
<polygon fill="none" stroke="black" points="843.5,-209.58 843.5,-227.58 981.5,-227.58 981.5,-209.58 843.5,-209.58"/>
<text text-anchor="start" x="846.5" y="-215.78" font-family="Helvetica,sans-Serif" font-size="11.00">...</text>
<polygon fill="#ffffff" stroke="transparent" points="843.5,-191.58 843.5,-209.58 981.5,-209.58 981.5,-191.58 843.5,-191.58"/>
<polygon fill="none" stroke="black" points="843.5,-191.58 843.5,-209.58 981.5,-209.58 981.5,-191.58 843.5,-191.58"/>
<polygon fill="#ffffff" stroke="transparent" points="844.5,-192.58 844.5,-208.58 894.5,-208.58 894.5,-192.58 844.5,-192.58"/>
<text text-anchor="start" x="846.5" y="-197.78" font-family="Helvetica,sans-Serif" font-size="11.00">&lt; 2</text>
<polygon fill="#ffffff" stroke="transparent" points="894.5,-192.58 894.5,-208.58 931.5,-208.58 931.5,-192.58 894.5,-192.58"/>
<text text-anchor="start" x="909" y="-197.78" font-family="Helvetica,sans-Serif" font-size="11.00"> &#160;</text>
<polygon fill="#ffffff" stroke="transparent" points="931.5,-192.58 931.5,-208.58 980.5,-208.58 980.5,-192.58 931.5,-192.58"/>
<text text-anchor="start" x="958.5" y="-197.78" font-family="Helvetica,sans-Serif" font-size="11.00">7 &gt;</text>
<polygon fill="black" stroke="black" points="894.5,-192.58 894.5,-208.58 894.5,-208.58 894.5,-192.58 894.5,-192.58"/>
<polygon fill="black" stroke="black" points="931.5,-192.58 931.5,-208.58 931.5,-208.58 931.5,-192.58 931.5,-192.58"/>
</a>
</g>
</g>
<!-- internal_transactions&#45;&gt;transactions -->
<g id="edge7" class="edge">
<title>internal_transactions:w&#45;&gt;transactions:e</title>
<path fill="none" stroke="black" d="M1083.36,-324.81C1050.78,-303.57 1013.51,-218.58 982.5,-218.58"/>
<polygon fill="black" stroke="black" points="1089.45,-326.94 1095.81,-332.98 1093.22,-328.26 1097,-329.58 1097,-329.58 1097,-329.58 1093.22,-328.26 1098.19,-326.18 1089.45,-326.94 1089.45,-326.94"/>
<ellipse fill="none" stroke="black" cx="1086.43" cy="-325.88" rx="3.2" ry="3.2"/>
</g>
<!-- transactions&#45;&gt;blocks -->
<g id="edge16" class="edge">
<title>transactions:w&#45;&gt;blocks:e</title>
<path fill="none" stroke="black" d="M827.9,-218.88C791.33,-220.48 777.61,-228.08 735,-233.58 622.7,-248.07 593.37,-243.14 482,-263.58 463.98,-266.89 460.32,-273.58 442,-273.58"/>
<polygon fill="black" stroke="black" points="834.5,-218.75 842.57,-222.18 838.5,-218.66 842.5,-218.58 842.5,-218.58 842.5,-218.58 838.5,-218.66 842.43,-214.98 834.5,-218.75 834.5,-218.75"/>
<ellipse fill="none" stroke="black" cx="831.3" cy="-218.81" rx="3.2" ry="3.2"/>
</g>
<!-- transactions&#45;&gt;withdrawals -->
<g id="edge17" class="edge">
<title>transactions:w&#45;&gt;withdrawals:e</title>
<path fill="none" stroke="black" stroke-dasharray="5,2" d="M828.13,-219.63C756.1,-230.64 759.55,-324.58 677.5,-324.58"/>
<polygon fill="black" stroke="black" points="834.52,-219.16 842.76,-222.17 838.51,-218.87 842.5,-218.58 842.5,-218.58 842.5,-218.58 838.51,-218.87 842.24,-214.99 834.52,-219.16 834.52,-219.16"/>
<ellipse fill="none" stroke="black" cx="831.33" cy="-219.4" rx="3.2" ry="3.2"/>
</g>
<!-- logs -->
<g id="node8" class="node">
<title>logs</title>
<g id="a_node8"><a xlink:href="../../tables/logs.html" xlink:title="logs" target="_top">
<polygon fill="#ffffff" stroke="transparent" points="1160.5,-223.58 1160.5,-281.58 1237.5,-281.58 1237.5,-223.58 1160.5,-223.58"/>
<polygon fill="#f5f5f5" stroke="transparent" points="1161,-259.58 1161,-281.58 1238,-281.58 1238,-259.58 1161,-259.58"/>
<polygon fill="none" stroke="black" points="1161,-259.58 1161,-281.58 1238,-281.58 1238,-259.58 1161,-259.58"/>
<text text-anchor="start" x="1166" y="-268.78" font-family="Helvetica,sans-Serif" font-weight="bold" font-size="11.00">logs</text>
<text text-anchor="start" x="1196" y="-267.78" font-family="Helvetica,sans-Serif" font-size="11.00">[table]</text>
<polygon fill="none" stroke="black" points="1161,-241.58 1161,-259.58 1238,-259.58 1238,-241.58 1161,-241.58"/>
<text text-anchor="start" x="1164" y="-247.78" font-family="Helvetica,sans-Serif" font-size="11.00">...</text>
<polygon fill="#ffffff" stroke="transparent" points="1161,-223.58 1161,-241.58 1238,-241.58 1238,-223.58 1161,-223.58"/>
<polygon fill="none" stroke="black" points="1161,-223.58 1161,-241.58 1238,-241.58 1238,-223.58 1161,-223.58"/>
<polygon fill="#ffffff" stroke="transparent" points="1162,-224.58 1162,-240.58 1195,-240.58 1195,-224.58 1162,-224.58"/>
<text text-anchor="start" x="1164" y="-229.78" font-family="Helvetica,sans-Serif" font-size="11.00">&lt; 2</text>
<polygon fill="#ffffff" stroke="transparent" points="1195,-224.58 1195,-240.58 1216,-240.58 1216,-224.58 1195,-224.58"/>
<text text-anchor="start" x="1201.5" y="-229.78" font-family="Helvetica,sans-Serif" font-size="11.00"> &#160;</text>
<polygon fill="#ffffff" stroke="transparent" points="1216,-224.58 1216,-240.58 1237,-240.58 1237,-224.58 1216,-224.58"/>
<text text-anchor="start" x="1227" y="-229.78" font-family="Helvetica,sans-Serif" font-size="11.00"> &#160;</text>
<polygon fill="black" stroke="black" points="1195,-224.58 1195,-240.58 1195,-240.58 1195,-224.58 1195,-224.58"/>
<polygon fill="black" stroke="black" points="1216,-224.58 1216,-240.58 1216,-240.58 1216,-224.58 1216,-224.58"/>
</a>
</g>
</g>
<!-- logs&#45;&gt;blocks -->
<g id="edge9" class="edge">
<title>logs:w&#45;&gt;blocks:e</title>
<path fill="none" stroke="black" d="M1145.16,-250.86C1110.93,-252.23 1097.53,-258.19 1057,-260.58 784.08,-276.69 715.39,-273.58 442,-273.58"/>
<polygon fill="black" stroke="black" points="1152,-250.73 1160.07,-254.18 1156,-250.66 1160,-250.58 1160,-250.58 1160,-250.58 1156,-250.66 1159.93,-246.98 1152,-250.73 1152,-250.73"/>
<ellipse fill="none" stroke="black" cx="1148.8" cy="-250.79" rx="3.2" ry="3.2"/>
</g>
<!-- logs&#45;&gt;transactions -->
<g id="edge10" class="edge">
<title>logs:w&#45;&gt;transactions:e</title>
<path fill="none" stroke="black" d="M1145.25,-250.2C1077.36,-246.59 1057.49,-218.58 982.5,-218.58"/>
<polygon fill="black" stroke="black" points="1152,-250.37 1159.91,-254.18 1156,-250.48 1160,-250.58 1160,-250.58 1160,-250.58 1156,-250.48 1160.09,-246.98 1152,-250.37 1152,-250.37"/>
<ellipse fill="none" stroke="black" cx="1148.8" cy="-250.29" rx="3.2" ry="3.2"/>
</g>
<!-- pending_block_operations -->
<g id="node9" class="node">
<title>pending_block_operations</title>
<g id="a_node9"><a xlink:href="../../tables/pending_block_operations.html" xlink:title="pending_block_operations" target="_top">
<polygon fill="#ffffff" stroke="transparent" points="490,-164.58 490,-222.58 727,-222.58 727,-164.58 490,-164.58"/>
<polygon fill="#f5f5f5" stroke="transparent" points="490.5,-200.58 490.5,-222.58 727.5,-222.58 727.5,-200.58 490.5,-200.58"/>
<polygon fill="none" stroke="black" points="490.5,-200.58 490.5,-222.58 727.5,-222.58 727.5,-200.58 490.5,-200.58"/>
<text text-anchor="start" x="495.5" y="-209.78" font-family="Helvetica,sans-Serif" font-weight="bold" font-size="11.00">pending_block_operations</text>
<text text-anchor="start" x="685.5" y="-208.78" font-family="Helvetica,sans-Serif" font-size="11.00">[table]</text>
<polygon fill="none" stroke="black" points="490.5,-182.58 490.5,-200.58 727.5,-200.58 727.5,-182.58 490.5,-182.58"/>
<text text-anchor="start" x="493.5" y="-188.78" font-family="Helvetica,sans-Serif" font-size="11.00">...</text>
<polygon fill="#ffffff" stroke="transparent" points="490.5,-164.58 490.5,-182.58 727.5,-182.58 727.5,-164.58 490.5,-164.58"/>
<polygon fill="none" stroke="black" points="490.5,-164.58 490.5,-182.58 727.5,-182.58 727.5,-164.58 490.5,-164.58"/>
<polygon fill="#ffffff" stroke="transparent" points="491.5,-165.58 491.5,-181.58 578.5,-181.58 578.5,-165.58 491.5,-165.58"/>
<text text-anchor="start" x="493.5" y="-170.78" font-family="Helvetica,sans-Serif" font-size="11.00">&lt; 1</text>
<polygon fill="#ffffff" stroke="transparent" points="578.5,-165.58 578.5,-181.58 652.5,-181.58 652.5,-165.58 578.5,-165.58"/>
<text text-anchor="start" x="611.5" y="-170.78" font-family="Helvetica,sans-Serif" font-size="11.00"> &#160;</text>
<polygon fill="#ffffff" stroke="transparent" points="652.5,-165.58 652.5,-181.58 726.5,-181.58 726.5,-165.58 652.5,-165.58"/>
<text text-anchor="start" x="716.5" y="-170.78" font-family="Helvetica,sans-Serif" font-size="11.00"> &#160;</text>
<polygon fill="black" stroke="black" points="578.5,-165.58 578.5,-181.58 578.5,-181.58 578.5,-165.58 578.5,-165.58"/>
<polygon fill="black" stroke="black" points="652.5,-165.58 652.5,-181.58 652.5,-181.58 652.5,-165.58 652.5,-165.58"/>
</a>
</g>
</g>
<!-- pending_block_operations&#45;&gt;blocks -->
<g id="edge11" class="edge">
<title>pending_block_operations:w&#45;&gt;blocks:e</title>
<path fill="none" stroke="black" d="M479.27,-193.77C453.81,-206.81 480,-273.58 442,-273.58"/>
<polygon fill="black" stroke="black" points="487.88,-187.84 489.56,-195.66 487.99,-196 486.31,-188.17 487.88,-187.84"/>
<polyline fill="none" stroke="black" points="489.5,-191.58 485.59,-192.42 "/>
<ellipse fill="none" stroke="black" cx="482.46" cy="-193.09" rx="3.2" ry="3.2"/>
</g>
<!-- token_transfers -->
<g id="node10" class="node">
<title>token_transfers</title>
<g id="a_node10"><a xlink:href="../../tables/token_transfers.html" xlink:title="token_transfers" target="_top">
<polygon fill="#ffffff" stroke="transparent" points="1118,-144.58 1118,-202.58 1280,-202.58 1280,-144.58 1118,-144.58"/>
<polygon fill="#f5f5f5" stroke="transparent" points="1118,-180.58 1118,-202.58 1280,-202.58 1280,-180.58 1118,-180.58"/>
<polygon fill="none" stroke="black" points="1118,-180.58 1118,-202.58 1280,-202.58 1280,-180.58 1118,-180.58"/>
<text text-anchor="start" x="1123" y="-189.78" font-family="Helvetica,sans-Serif" font-weight="bold" font-size="11.00">token_transfers</text>
<text text-anchor="start" x="1238" y="-188.78" font-family="Helvetica,sans-Serif" font-size="11.00">[table]</text>
<polygon fill="none" stroke="black" points="1118,-162.58 1118,-180.58 1280,-180.58 1280,-162.58 1118,-162.58"/>
<text text-anchor="start" x="1121" y="-168.78" font-family="Helvetica,sans-Serif" font-size="11.00">...</text>
<polygon fill="#ffffff" stroke="transparent" points="1118,-144.58 1118,-162.58 1280,-162.58 1280,-144.58 1118,-144.58"/>
<polygon fill="none" stroke="black" points="1118,-144.58 1118,-162.58 1280,-162.58 1280,-144.58 1118,-144.58"/>
<polygon fill="#ffffff" stroke="transparent" points="1119,-145.58 1119,-161.58 1181,-161.58 1181,-145.58 1119,-145.58"/>
<text text-anchor="start" x="1121" y="-150.78" font-family="Helvetica,sans-Serif" font-size="11.00">&lt; 2</text>
<polygon fill="#ffffff" stroke="transparent" points="1181,-145.58 1181,-161.58 1230,-161.58 1230,-145.58 1181,-145.58"/>
<text text-anchor="start" x="1201.5" y="-150.78" font-family="Helvetica,sans-Serif" font-size="11.00"> &#160;</text>
<polygon fill="#ffffff" stroke="transparent" points="1230,-145.58 1230,-161.58 1279,-161.58 1279,-145.58 1230,-145.58"/>
<text text-anchor="start" x="1269" y="-150.78" font-family="Helvetica,sans-Serif" font-size="11.00"> &#160;</text>
<polygon fill="black" stroke="black" points="1181,-145.58 1181,-161.58 1181,-161.58 1181,-145.58 1181,-145.58"/>
<polygon fill="black" stroke="black" points="1230,-145.58 1230,-161.58 1230,-161.58 1230,-145.58 1230,-145.58"/>
</a>
</g>
</g>
<!-- token_transfers&#45;&gt;blocks -->
<g id="edge12" class="edge">
<title>token_transfers:w&#45;&gt;blocks:e</title>
<path fill="none" stroke="black" d="M1102.17,-171.26C950.95,-165.18 592.81,-74.92 482,-154.58 436.69,-187.15 497.8,-273.58 442,-273.58"/>
<polygon fill="black" stroke="black" points="1109,-171.41 1116.92,-175.18 1113,-171.5 1117,-171.58 1117,-171.58 1117,-171.58 1113,-171.5 1117.08,-167.98 1109,-171.41 1109,-171.41"/>
<ellipse fill="none" stroke="black" cx="1105.8" cy="-171.34" rx="3.2" ry="3.2"/>
</g>
<!-- token_transfers&#45;&gt;transactions -->
<g id="edge13" class="edge">
<title>token_transfers:w&#45;&gt;transactions:e</title>
<path fill="none" stroke="black" d="M1102.48,-172.48C1052.02,-178.98 1040.63,-218.58 982.5,-218.58"/>
<polygon fill="black" stroke="black" points="1109.02,-172.07 1117.22,-175.17 1113.01,-171.83 1117,-171.58 1117,-171.58 1117,-171.58 1113.01,-171.83 1116.78,-167.99 1109.02,-172.07 1109.02,-172.07"/>
<ellipse fill="none" stroke="black" cx="1105.82" cy="-172.27" rx="3.2" ry="3.2"/>
</g>
<!-- transaction_forks -->
<g id="node11" class="node">
<title>transaction_forks</title>
<g id="a_node11"><a xlink:href="../../tables/transaction_forks.html" xlink:title="transaction_forks" target="_top">
<polygon fill="#ffffff" stroke="transparent" points="1112,-65.58 1112,-123.58 1286,-123.58 1286,-65.58 1112,-65.58"/>
<polygon fill="#f5f5f5" stroke="transparent" points="1112,-101.58 1112,-123.58 1286,-123.58 1286,-101.58 1112,-101.58"/>
<polygon fill="none" stroke="black" points="1112,-101.58 1112,-123.58 1286,-123.58 1286,-101.58 1112,-101.58"/>
<text text-anchor="start" x="1117" y="-110.78" font-family="Helvetica,sans-Serif" font-weight="bold" font-size="11.00">transaction_forks</text>
<text text-anchor="start" x="1244" y="-109.78" font-family="Helvetica,sans-Serif" font-size="11.00">[table]</text>
<polygon fill="none" stroke="black" points="1112,-83.58 1112,-101.58 1286,-101.58 1286,-83.58 1112,-83.58"/>
<text text-anchor="start" x="1115" y="-89.78" font-family="Helvetica,sans-Serif" font-size="11.00">...</text>
<polygon fill="#ffffff" stroke="transparent" points="1112,-65.58 1112,-83.58 1286,-83.58 1286,-65.58 1112,-65.58"/>
<polygon fill="none" stroke="black" points="1112,-65.58 1112,-83.58 1286,-83.58 1286,-65.58 1112,-65.58"/>
<polygon fill="#ffffff" stroke="transparent" points="1113,-66.58 1113,-82.58 1179,-82.58 1179,-66.58 1113,-66.58"/>
<text text-anchor="start" x="1115" y="-71.78" font-family="Helvetica,sans-Serif" font-size="11.00">&lt; 2</text>
<polygon fill="#ffffff" stroke="transparent" points="1179,-66.58 1179,-82.58 1232,-82.58 1232,-66.58 1179,-66.58"/>
<text text-anchor="start" x="1201.5" y="-71.78" font-family="Helvetica,sans-Serif" font-size="11.00"> &#160;</text>
<polygon fill="#ffffff" stroke="transparent" points="1232,-66.58 1232,-82.58 1285,-82.58 1285,-66.58 1232,-66.58"/>
<text text-anchor="start" x="1275" y="-71.78" font-family="Helvetica,sans-Serif" font-size="11.00"> &#160;</text>
<polygon fill="black" stroke="black" points="1179,-66.58 1179,-82.58 1179,-82.58 1179,-66.58 1179,-66.58"/>
<polygon fill="black" stroke="black" points="1232,-66.58 1232,-82.58 1232,-82.58 1232,-66.58 1232,-66.58"/>
</a>
</g>
</g>
<!-- transaction_forks&#45;&gt;blocks -->
<g id="edge15" class="edge">
<title>transaction_forks:w&#45;&gt;blocks:e</title>
<path fill="none" stroke="black" d="M1096.38,-92.44C826.55,-87.41 695.77,54.21 482,-118.58 426.67,-163.3 513.15,-273.58 442,-273.58"/>
<polygon fill="black" stroke="black" points="1103,-92.51 1110.97,-96.18 1107,-92.54 1111,-92.58 1111,-92.58 1111,-92.58 1107,-92.54 1111.03,-88.98 1103,-92.51 1103,-92.51"/>
<ellipse fill="none" stroke="black" cx="1099.8" cy="-92.48" rx="3.2" ry="3.2"/>
</g>
<!-- transaction_forks&#45;&gt;transactions -->
<g id="edge14" class="edge">
<title>transaction_forks:w&#45;&gt;transactions:e</title>
<path fill="none" stroke="black" d="M1096.47,-94.17C1034.7,-108.76 1057.17,-218.58 982.5,-218.58"/>
<polygon fill="black" stroke="black" points="1103.05,-93.45 1111.39,-96.16 1107.02,-93.02 1111,-92.58 1111,-92.58 1111,-92.58 1107.02,-93.02 1110.61,-89 1103.05,-93.45 1103.05,-93.45"/>
<ellipse fill="none" stroke="black" cx="1099.87" cy="-93.8" rx="3.2" ry="3.2"/>
</g>
</g>
</svg>
