<?xml version="1.0" encoding="UTF-8" standalone="no"?>
<!DOCTYPE svg PUBLIC "-//W3C//DTD SVG 1.1//EN"
 "http://www.w3.org/Graphics/SVG/1.1/DTD/svg11.dtd">
<!-- Generated by graphviz version 9.0.0 (20230911.1827)
 -->
<!-- Title: oneDegreeRelationshipsDiagram Pages: 1 -->
<svg width="234pt" height="181pt"
 viewBox="0.00 0.00 234.00 181.00" xmlns="http://www.w3.org/2000/svg" xmlns:xlink="http://www.w3.org/1999/xlink">
<g id="graph0" class="graph" transform="scale(1 1) rotate(0) translate(4 177)">
<title>oneDegreeRelationshipsDiagram</title>
<polygon fill="#ffffff" stroke="none" points="-4,4 -4,-177 230,-177 230,4 -4,4"/>
<text text-anchor="middle" x="71.38" y="-5.55" font-family="Helvetica,sans-Serif" font-size="11.00">Generated by SchemaSpy</text>
<!-- migrations_status -->
<g id="node1" class="node">
<title>migrations_status</title>
<g id="a_node1"><a xlink:href="../../tables/migrations_status.html" xlink:title="migrations_status" target="_top">
<polygon fill="#ffffff" stroke="none" points="8,-37 8,-169 218,-169 218,-37 8,-37"/>
<polygon fill="#f5f5f5" stroke="none" points="10,-145 10,-167 216,-167 216,-145 10,-145"/>
<polygon fill="none" stroke="black" points="10,-145 10,-167 216,-167 216,-145 10,-145"/>
<text text-anchor="start" x="15" y="-152.55" font-family="Helvetica,sans-Serif" font-weight="bold" font-size="11.00">migrations_status</text>
<text text-anchor="start" x="181.75" y="-151.55" font-family="Helvetica,sans-Serif" font-size="11.00">[table]</text>
<polygon fill="none" stroke="black" points="10,-123 10,-145 134,-145 134,-123 10,-123"/>
<image xlink:href="../../images/primaryKeys.png" width="11px" height="12px" preserveAspectRatio="xMinYMin meet" x="15" y="-140"/>
<text text-anchor="start" x="30" y="-129.55" font-family="Helvetica,sans-Serif" font-size="11.00">migration_name</text>
<polygon fill="none" stroke="black" points="134,-123 134,-145 216,-145 216,-123 134,-123"/>
<text text-anchor="start" x="137" y="-129.55" font-family="Helvetica,sans-Serif" font-size="11.00">varchar[255]</text>
<polygon fill="none" stroke="black" points="10,-101 10,-123 134,-123 134,-101 10,-101"/>
<text text-anchor="start" x="30" y="-107.55" font-family="Helvetica,sans-Serif" font-size="11.00">status</text>
<polygon fill="none" stroke="black" points="134,-101 134,-123 216,-123 216,-101 134,-101"/>
<text text-anchor="start" x="137" y="-107.55" font-family="Helvetica,sans-Serif" font-size="11.00">varchar[255]</text>
<polygon fill="none" stroke="black" points="10,-79 10,-101 134,-101 134,-79 10,-79"/>
<text text-anchor="start" x="30" y="-85.55" font-family="Helvetica,sans-Serif" font-size="11.00">inserted_at</text>
<polygon fill="none" stroke="black" points="134,-79 134,-101 216,-101 216,-79 134,-79"/>
<text text-anchor="start" x="136.75" y="-85.55" font-family="Helvetica,sans-Serif" font-size="11.00">timestamp[29,6]</text>
<polygon fill="none" stroke="black" points="10,-57 10,-79 134,-79 134,-57 10,-57"/>
<text text-anchor="start" x="30" y="-63.55" font-family="Helvetica,sans-Serif" font-size="11.00">updated_at</text>
<polygon fill="none" stroke="black" points="134,-57 134,-79 216,-79 216,-57 134,-57"/>
<text text-anchor="start" x="136.75" y="-63.55" font-family="Helvetica,sans-Serif" font-size="11.00">timestamp[29,6]</text>
<polygon fill="#ffffff" stroke="none" points="10,-39 10,-57 76,-57 76,-39 10,-39"/>
<polygon fill="none" stroke="black" points="10,-39 10,-57 76,-57 76,-39 10,-39"/>
<text text-anchor="start" x="13" y="-43.55" font-family="Helvetica,sans-Serif" font-size="11.00">&lt; 0</text>
<polygon fill="#ffffff" stroke="none" points="76,-39 76,-57 134,-57 134,-39 76,-39"/>
<polygon fill="none" stroke="black" points="76,-39 76,-57 134,-57 134,-39 76,-39"/>
<text text-anchor="start" x="125" y="-43.55" font-family="Helvetica,sans-Serif" font-size="11.00"> &#160;</text>
<polygon fill="#ffffff" stroke="none" points="134,-39 134,-57 216,-57 216,-39 134,-39"/>
<polygon fill="none" stroke="black" points="134,-39 134,-57 216,-57 216,-39 134,-39"/>
<text text-anchor="start" x="197.25" y="-43.55" font-family="Helvetica,sans-Serif" font-size="11.00">0 &gt;</text>
<polygon fill="none" stroke="black" stroke-width="2" points="9,-38 9,-168 217,-168 217,-38 9,-38"/>
</a>
</g>
</g>
</g>
</svg>
