<?xml version="1.0" encoding="UTF-8" standalone="no"?>
<!DOCTYPE svg PUBLIC "-//W3C//DTD SVG 1.1//EN"
 "http://www.w3.org/Graphics/SVG/1.1/DTD/svg11.dtd">
<!-- Generated by graphviz version 9.0.0 (20230911.1827)
 -->
<!-- Title: oneDegreeRelationshipsDiagram Pages: 1 -->
<svg width="241pt" height="159pt"
 viewBox="0.00 0.00 241.00 159.00" xmlns="http://www.w3.org/2000/svg" xmlns:xlink="http://www.w3.org/1999/xlink">
<g id="graph0" class="graph" transform="scale(1 1) rotate(0) translate(4 155)">
<title>oneDegreeRelationshipsDiagram</title>
<polygon fill="#ffffff" stroke="none" points="-4,4 -4,-155 237,-155 237,4 -4,4"/>
<text text-anchor="middle" x="71.38" y="-5.55" font-family="Helvetica,sans-Serif" font-size="11.00">Generated by SchemaSpy</text>
<!-- missing_block_ranges -->
<g id="node1" class="node">
<title>missing_block_ranges</title>
<g id="a_node1"><a xlink:href="../../tables/missing_block_ranges.html" xlink:title="missing_block_ranges" target="_top">
<polygon fill="#ffffff" stroke="none" points="8,-37 8,-147 225,-147 225,-37 8,-37"/>
<polygon fill="#f5f5f5" stroke="none" points="10,-123 10,-145 223,-145 223,-123 10,-123"/>
<polygon fill="none" stroke="black" points="10,-123 10,-145 223,-145 223,-123 10,-123"/>
<text text-anchor="start" x="15" y="-130.55" font-family="Helvetica,sans-Serif" font-weight="bold" font-size="11.00">missing_block_ranges</text>
<text text-anchor="start" x="188.75" y="-129.55" font-family="Helvetica,sans-Serif" font-size="11.00">[table]</text>
<polygon fill="none" stroke="black" points="10,-101 10,-123 160,-123 160,-101 10,-101"/>
<image xlink:href="../../images/primaryKeys.png" width="11px" height="12px" preserveAspectRatio="xMinYMin meet" x="15" y="-118"/>
<text text-anchor="start" x="30" y="-107.55" font-family="Helvetica,sans-Serif" font-size="11.00">id</text>
<polygon fill="none" stroke="black" points="160,-101 160,-123 223,-123 223,-101 160,-101"/>
<text text-anchor="start" x="162.62" y="-107.55" font-family="Helvetica,sans-Serif" font-size="11.00">bigserial[19]</text>
<polygon fill="#ffffff" stroke="none" points="10,-79 10,-101 160,-101 160,-79 10,-79"/>
<polygon fill="none" stroke="black" points="10,-79 10,-101 160,-101 160,-79 10,-79"/>
<text text-anchor="start" x="30" y="-85.55" font-family="Helvetica,sans-Serif" font-size="11.00">from_number</text>
<polygon fill="none" stroke="black" points="160,-79 160,-101 223,-101 223,-79 160,-79"/>
<text text-anchor="start" x="163" y="-85.55" font-family="Helvetica,sans-Serif" font-size="11.00">int4[10]</text>
<polygon fill="#ffffff" stroke="none" points="10,-57 10,-79 160,-79 160,-57 10,-57"/>
<polygon fill="none" stroke="black" points="10,-57 10,-79 160,-79 160,-57 10,-57"/>
<text text-anchor="start" x="30" y="-63.55" font-family="Helvetica,sans-Serif" font-size="11.00">to_number</text>
<polygon fill="none" stroke="black" points="160,-57 160,-79 223,-79 223,-57 160,-57"/>
<text text-anchor="start" x="163" y="-63.55" font-family="Helvetica,sans-Serif" font-size="11.00">int4[10]</text>
<polygon fill="#ffffff" stroke="none" points="10,-39 10,-57 89,-57 89,-39 10,-39"/>
<polygon fill="none" stroke="black" points="10,-39 10,-57 89,-57 89,-39 10,-39"/>
<text text-anchor="start" x="13" y="-43.55" font-family="Helvetica,sans-Serif" font-size="11.00">&lt; 0</text>
<polygon fill="#ffffff" stroke="none" points="89,-39 89,-57 160,-57 160,-39 89,-39"/>
<polygon fill="none" stroke="black" points="89,-39 89,-57 160,-57 160,-39 89,-39"/>
<text text-anchor="start" x="151" y="-43.55" font-family="Helvetica,sans-Serif" font-size="11.00"> &#160;</text>
<polygon fill="#ffffff" stroke="none" points="160,-39 160,-57 223,-57 223,-39 160,-39"/>
<polygon fill="none" stroke="black" points="160,-39 160,-57 223,-57 223,-39 160,-39"/>
<text text-anchor="start" x="204.25" y="-43.55" font-family="Helvetica,sans-Serif" font-size="11.00">0 &gt;</text>
<polygon fill="none" stroke="black" stroke-width="2" points="9,-38 9,-146 224,-146 224,-38 9,-38"/>
</a>
</g>
</g>
</g>
</svg>
