<?xml version="1.0" encoding="UTF-8" standalone="no"?>
<!DOCTYPE svg PUBLIC "-//W3C//DTD SVG 1.1//EN"
 "http://www.w3.org/Graphics/SVG/1.1/DTD/svg11.dtd">
<!-- Generated by graphviz version 2.43.0 (0)
 -->
<!-- Title: oneDegreeRelationshipsDiagram Pages: 1 -->
<svg width="283pt" height="181pt"
 viewBox="0.00 0.00 283.00 181.00" xmlns="http://www.w3.org/2000/svg" xmlns:xlink="http://www.w3.org/1999/xlink">
<g id="graph0" class="graph" transform="scale(1 1) rotate(0) translate(4 177)">
<title>oneDegreeRelationshipsDiagram</title>
<polygon fill="#ffffff" stroke="transparent" points="-4,4 -4,-177 279,-177 279,4 -4,4"/>
<text text-anchor="middle" x="79.5" y="-7.2" font-family="Helvetica,sans-Serif" font-size="11.00">Generated by SchemaSpy</text>
<!-- missing_block_ranges -->
<g id="node1" class="node">
<title>missing_block_ranges</title>
<g id="a_node1"><a xlink:href="../../tables/missing_block_ranges.html" xlink:title="missing_block_ranges" target="_top">
<polygon fill="#ffffff" stroke="transparent" points="8,-37 8,-169 267,-169 267,-37 8,-37"/>
<polygon fill="#f5f5f5" stroke="transparent" points="10.5,-145 10.5,-167 265.5,-167 265.5,-145 10.5,-145"/>
<polygon fill="none" stroke="black" points="10.5,-145 10.5,-167 265.5,-167 265.5,-145 10.5,-145"/>
<text text-anchor="start" x="15.5" y="-154.2" font-family="Helvetica,sans-Serif" font-weight="bold" font-size="11.00">missing_block_ranges</text>
<text text-anchor="start" x="223.5" y="-153.2" font-family="Helvetica,sans-Serif" font-size="11.00">[table]</text>
<polygon fill="none" stroke="black" points="10.5,-123 10.5,-145 189.5,-145 189.5,-123 10.5,-123"/>
<image xlink:href="../../images/primaryKeys.png" width="11px" height="12px" preserveAspectRatio="xMinYMin meet" x="15.5" y="-140"/>
<text text-anchor="start" x="30.5" y="-131.2" font-family="Helvetica,sans-Serif" font-size="11.00">id</text>
<polygon fill="none" stroke="black" points="189.5,-123 189.5,-145 265.5,-145 265.5,-123 189.5,-123"/>
<text text-anchor="start" x="192.5" y="-131.2" font-family="Helvetica,sans-Serif" font-size="11.00">bigserial[19]</text>
<polygon fill="#ffffff" stroke="transparent" points="10.5,-101 10.5,-123 189.5,-123 189.5,-101 10.5,-101"/>
<polygon fill="none" stroke="black" points="10.5,-101 10.5,-123 189.5,-123 189.5,-101 10.5,-101"/>
<text text-anchor="start" x="30.5" y="-109.2" font-family="Helvetica,sans-Serif" font-size="11.00">from_number</text>
<polygon fill="none" stroke="black" points="189.5,-101 189.5,-123 265.5,-123 265.5,-101 189.5,-101"/>
<text text-anchor="start" x="192.5" y="-109.2" font-family="Helvetica,sans-Serif" font-size="11.00">int4[10]</text>
<polygon fill="#ffffff" stroke="transparent" points="10.5,-79 10.5,-101 189.5,-101 189.5,-79 10.5,-79"/>
<polygon fill="none" stroke="black" points="10.5,-79 10.5,-101 189.5,-101 189.5,-79 10.5,-79"/>
<text text-anchor="start" x="30.5" y="-87.2" font-family="Helvetica,sans-Serif" font-size="11.00">to_number</text>
<polygon fill="none" stroke="black" points="189.5,-79 189.5,-101 265.5,-101 265.5,-79 189.5,-79"/>
<text text-anchor="start" x="192.5" y="-87.2" font-family="Helvetica,sans-Serif" font-size="11.00">int4[10]</text>
<polygon fill="#ffffff" stroke="transparent" points="10.5,-57 10.5,-79 189.5,-79 189.5,-57 10.5,-57"/>
<polygon fill="none" stroke="black" points="10.5,-57 10.5,-79 189.5,-79 189.5,-57 10.5,-57"/>
<text text-anchor="start" x="30.5" y="-65.2" font-family="Helvetica,sans-Serif" font-size="11.00">priority</text>
<polygon fill="none" stroke="black" points="189.5,-57 189.5,-79 265.5,-79 265.5,-57 189.5,-57"/>
<text text-anchor="start" x="192.5" y="-65.2" font-family="Helvetica,sans-Serif" font-size="11.00">int2[5]</text>
<polygon fill="#ffffff" stroke="transparent" points="10.5,-39 10.5,-57 265.5,-57 265.5,-39 10.5,-39"/>
<polygon fill="none" stroke="black" points="10.5,-39 10.5,-57 265.5,-57 265.5,-39 10.5,-39"/>
<polygon fill="#ffffff" stroke="transparent" points="11.5,-40 11.5,-56 100.5,-56 100.5,-40 11.5,-40"/>
<text text-anchor="start" x="13.5" y="-45.2" font-family="Helvetica,sans-Serif" font-size="11.00">&lt; 0</text>
<polygon fill="#ffffff" stroke="transparent" points="100.5,-40 100.5,-56 176.5,-56 176.5,-40 100.5,-40"/>
<text text-anchor="start" x="134.5" y="-45.2" font-family="Helvetica,sans-Serif" font-size="11.00"> &#160;</text>
<polygon fill="#ffffff" stroke="transparent" points="176.5,-40 176.5,-56 264.5,-56 264.5,-40 176.5,-40"/>
<text text-anchor="start" x="242.5" y="-45.2" font-family="Helvetica,sans-Serif" font-size="11.00">0 &gt;</text>
<polygon fill="black" stroke="black" points="100.5,-40 100.5,-56 100.5,-56 100.5,-40 100.5,-40"/>
<polygon fill="black" stroke="black" points="176.5,-40 176.5,-56 176.5,-56 176.5,-40 176.5,-40"/>
<polygon fill="none" stroke="black" stroke-width="2" points="9,-38 9,-168 266,-168 266,-38 9,-38"/>
</a>
</g>
</g>
</g>
</svg>
