<?xml version="1.0" encoding="UTF-8" standalone="no"?>
<!DOCTYPE svg PUBLIC "-//W3C//DTD SVG 1.1//EN"
 "http://www.w3.org/Graphics/SVG/1.1/DTD/svg11.dtd">
<!-- Generated by graphviz version 2.43.0 (0)
 -->
<!-- Title: oneDegreeRelationshipsDiagram Pages: 1 -->
<svg width="674pt" height="225pt"
 viewBox="0.00 0.00 674.00 225.00" xmlns="http://www.w3.org/2000/svg" xmlns:xlink="http://www.w3.org/1999/xlink">
<g id="graph0" class="graph" transform="scale(1 1) rotate(0) translate(4 221)">
<title>oneDegreeRelationshipsDiagram</title>
<polygon fill="#ffffff" stroke="transparent" points="-4,4 -4,-221 670,-221 670,4 -4,4"/>
<text text-anchor="middle" x="79.5" y="-7.2" font-family="Helvetica,sans-Serif" font-size="11.00">Generated by SchemaSpy</text>
<!-- multichain_search_db_export_token_info_queue -->
<g id="node1" class="node">
<title>multichain_search_db_export_token_info_queue</title>
<g id="a_node1"><a xlink:href="../../tables/multichain_search_db_export_toke_3330450.html" xlink:title="multichain_search_db_export_token_info_queue" target="_top">
<polygon fill="#ffffff" stroke="transparent" points="8,-37 8,-213 658,-213 658,-37 8,-37"/>
<polygon fill="#f5f5f5" stroke="transparent" points="10,-189 10,-211 656,-211 656,-189 10,-189"/>
<polygon fill="none" stroke="black" points="10,-189 10,-211 656,-211 656,-189 10,-189"/>
<text text-anchor="start" x="15" y="-198.2" font-family="Helvetica,sans-Serif" font-weight="bold" font-size="11.00">multichain_search_db_export_token_info_queue</text>
<text text-anchor="start" x="614" y="-197.2" font-family="Helvetica,sans-Serif" font-size="11.00">[table]</text>
<polygon fill="none" stroke="black" points="10,-167 10,-189 378,-189 378,-167 10,-167"/>
<image xlink:href="../../images/primaryKeys.png" width="11px" height="12px" preserveAspectRatio="xMinYMin meet" x="15" y="-184"/>
<text text-anchor="start" x="30" y="-175.2" font-family="Helvetica,sans-Serif" font-size="11.00">address_hash</text>
<polygon fill="none" stroke="black" points="378,-167 378,-189 656,-189 656,-167 378,-167"/>
<text text-anchor="start" x="381" y="-175.2" font-family="Helvetica,sans-Serif" font-size="11.00">bytea[2147483647]</text>
<polygon fill="none" stroke="black" points="10,-145 10,-167 378,-167 378,-145 10,-145"/>
<image xlink:href="../../images/primaryKeys.png" width="11px" height="12px" preserveAspectRatio="xMinYMin meet" x="15" y="-162"/>
<text text-anchor="start" x="30" y="-153.2" font-family="Helvetica,sans-Serif" font-size="11.00">data_type</text>
<polygon fill="none" stroke="black" points="378,-145 378,-167 656,-167 656,-145 378,-145"/>
<text text-anchor="start" x="381" y="-153.2" font-family="Helvetica,sans-Serif" font-size="11.00">multichain_search_token_data_type[2147483647]</text>
<polygon fill="none" stroke="black" points="10,-123 10,-145 378,-145 378,-123 10,-123"/>
<text text-anchor="start" x="30" y="-131.2" font-family="Helvetica,sans-Serif" font-size="11.00">data</text>
<polygon fill="none" stroke="black" points="378,-123 378,-145 656,-145 656,-123 378,-123"/>
<text text-anchor="start" x="381" y="-131.2" font-family="Helvetica,sans-Serif" font-size="11.00">jsonb[2147483647]</text>
<polygon fill="none" stroke="black" points="10,-101 10,-123 378,-123 378,-101 10,-101"/>
<text text-anchor="start" x="30" y="-109.2" font-family="Helvetica,sans-Serif" font-size="11.00">retries_number</text>
<polygon fill="none" stroke="black" points="378,-101 378,-123 656,-123 656,-101 378,-101"/>
<text text-anchor="start" x="381" y="-109.2" font-family="Helvetica,sans-Serif" font-size="11.00">int2[5]</text>
<polygon fill="none" stroke="black" points="10,-79 10,-101 378,-101 378,-79 10,-79"/>
<text text-anchor="start" x="30" y="-87.2" font-family="Helvetica,sans-Serif" font-size="11.00">inserted_at</text>
<polygon fill="none" stroke="black" points="378,-79 378,-101 656,-101 656,-79 378,-79"/>
<text text-anchor="start" x="381" y="-87.2" font-family="Helvetica,sans-Serif" font-size="11.00">timestamp[29,6]</text>
<polygon fill="none" stroke="black" points="10,-57 10,-79 378,-79 378,-57 10,-57"/>
<text text-anchor="start" x="30" y="-65.2" font-family="Helvetica,sans-Serif" font-size="11.00">updated_at</text>
<polygon fill="none" stroke="black" points="378,-57 378,-79 656,-79 656,-57 378,-57"/>
<text text-anchor="start" x="381" y="-65.2" font-family="Helvetica,sans-Serif" font-size="11.00">timestamp[29,6]</text>
<polygon fill="#ffffff" stroke="transparent" points="10,-39 10,-57 656,-57 656,-39 10,-39"/>
<polygon fill="none" stroke="black" points="10,-39 10,-57 656,-57 656,-39 10,-39"/>
<polygon fill="#ffffff" stroke="transparent" points="11,-40 11,-56 230,-56 230,-40 11,-40"/>
<text text-anchor="start" x="13" y="-45.2" font-family="Helvetica,sans-Serif" font-size="11.00">&lt; 0</text>
<polygon fill="#ffffff" stroke="transparent" points="230,-40 230,-56 437,-56 437,-40 230,-40"/>
<text text-anchor="start" x="329.5" y="-45.2" font-family="Helvetica,sans-Serif" font-size="11.00"> &#160;</text>
<polygon fill="#ffffff" stroke="transparent" points="437,-40 437,-56 655,-56 655,-40 437,-40"/>
<text text-anchor="start" x="633" y="-45.2" font-family="Helvetica,sans-Serif" font-size="11.00">0 &gt;</text>
<polygon fill="black" stroke="black" points="230,-40 230,-56 230,-56 230,-40 230,-40"/>
<polygon fill="black" stroke="black" points="437,-40 437,-56 437,-56 437,-40 437,-40"/>
<polygon fill="none" stroke="black" stroke-width="2" points="9,-38 9,-212 657,-212 657,-38 9,-38"/>
</a>
</g>
</g>
</g>
</svg>
