<?xml version="1.0" encoding="UTF-8" standalone="no"?>
<!DOCTYPE svg PUBLIC "-//W3C//DTD SVG 1.1//EN"
 "http://www.w3.org/Graphics/SVG/1.1/DTD/svg11.dtd">
<!-- Generated by graphviz version 2.43.0 (0)
 -->
<!-- Title: oneDegreeRelationshipsDiagramImplied Pages: 1 -->
<svg width="825pt" height="225pt"
 viewBox="0.00 0.00 825.00 225.00" xmlns="http://www.w3.org/2000/svg" xmlns:xlink="http://www.w3.org/1999/xlink">
<g id="graph0" class="graph" transform="scale(1 1) rotate(0) translate(4 221)">
<title>oneDegreeRelationshipsDiagramImplied</title>
<polygon fill="#ffffff" stroke="transparent" points="-4,4 -4,-221 821,-221 821,4 -4,4"/>
<text text-anchor="middle" x="79.5" y="-7.2" font-family="Helvetica,sans-Serif" font-size="11.00">Generated by SchemaSpy</text>
<!-- multichain_search_db_main_export_queue -->
<g id="node1" class="node">
<title>multichain_search_db_main_export_queue</title>
<g id="a_node1"><a xlink:href="../../tables/multichain_search_db_main_export_queue.html" xlink:title="multichain_search_db_main_export_queue" target="_top">
<polygon fill="#ffffff" stroke="transparent" points="234,-37 234,-213 809,-213 809,-37 234,-37"/>
<polygon fill="#f5f5f5" stroke="transparent" points="236.5,-189 236.5,-211 807.5,-211 807.5,-189 236.5,-189"/>
<polygon fill="none" stroke="black" points="236.5,-189 236.5,-211 807.5,-211 807.5,-189 236.5,-189"/>
<text text-anchor="start" x="241.5" y="-198.2" font-family="Helvetica,sans-Serif" font-weight="bold" font-size="11.00">multichain_search_db_main_export_queue</text>
<text text-anchor="start" x="765.5" y="-197.2" font-family="Helvetica,sans-Serif" font-size="11.00">[table]</text>
<polygon fill="none" stroke="black" points="236.5,-167 236.5,-189 563.5,-189 563.5,-167 236.5,-167"/>
<image xlink:href="../../images/primaryKeys.png" width="11px" height="12px" preserveAspectRatio="xMinYMin meet" x="241.5" y="-184"/>
<text text-anchor="start" x="256.5" y="-175.2" font-family="Helvetica,sans-Serif" font-size="11.00">hash</text>
<polygon fill="none" stroke="black" points="563.5,-167 563.5,-189 807.5,-189 807.5,-167 563.5,-167"/>
<text text-anchor="start" x="566.5" y="-175.2" font-family="Helvetica,sans-Serif" font-size="11.00">bytea[2147483647]</text>
<polygon fill="none" stroke="black" points="236.5,-145 236.5,-167 563.5,-167 563.5,-145 236.5,-145"/>
<image xlink:href="../../images/primaryKeys.png" width="11px" height="12px" preserveAspectRatio="xMinYMin meet" x="241.5" y="-162"/>
<text text-anchor="start" x="256.5" y="-153.2" font-family="Helvetica,sans-Serif" font-size="11.00">hash_type</text>
<polygon fill="none" stroke="black" points="563.5,-145 563.5,-167 807.5,-167 807.5,-145 563.5,-145"/>
<text text-anchor="start" x="566.5" y="-153.2" font-family="Helvetica,sans-Serif" font-size="11.00">multichain_search_hash_type[2147483647]</text>
<polygon fill="none" stroke="black" points="236.5,-123 236.5,-145 563.5,-145 563.5,-123 236.5,-123"/>
<text text-anchor="start" x="256.5" y="-131.2" font-family="Helvetica,sans-Serif" font-size="11.00">inserted_at</text>
<polygon fill="none" stroke="black" points="563.5,-123 563.5,-145 807.5,-145 807.5,-123 563.5,-123"/>
<text text-anchor="start" x="566.5" y="-131.2" font-family="Helvetica,sans-Serif" font-size="11.00">timestamp[29,6]</text>
<polygon fill="none" stroke="black" points="236.5,-101 236.5,-123 563.5,-123 563.5,-101 236.5,-101"/>
<text text-anchor="start" x="256.5" y="-109.2" font-family="Helvetica,sans-Serif" font-size="11.00">updated_at</text>
<polygon fill="none" stroke="black" points="563.5,-101 563.5,-123 807.5,-123 807.5,-101 563.5,-101"/>
<text text-anchor="start" x="566.5" y="-109.2" font-family="Helvetica,sans-Serif" font-size="11.00">timestamp[29,6]</text>
<polygon fill="none" stroke="black" points="236.5,-79 236.5,-101 563.5,-101 563.5,-79 236.5,-79"/>
<image xlink:href="../../images/foreignKeys.png" width="11px" height="12px" preserveAspectRatio="xMinYMin meet" x="241.5" y="-96"/>
<text text-anchor="start" x="256.5" y="-87.2" font-family="Helvetica,sans-Serif" font-size="11.00">block_range</text>
<polygon fill="none" stroke="black" points="563.5,-79 563.5,-101 807.5,-101 807.5,-79 563.5,-79"/>
<text text-anchor="start" x="566.5" y="-87.2" font-family="Helvetica,sans-Serif" font-size="11.00">int8range[2147483647]</text>
<polygon fill="none" stroke="black" points="236.5,-57 236.5,-79 563.5,-79 563.5,-57 236.5,-57"/>
<text text-anchor="start" x="256.5" y="-65.2" font-family="Helvetica,sans-Serif" font-size="11.00">retries_number</text>
<polygon fill="none" stroke="black" points="563.5,-57 563.5,-79 807.5,-79 807.5,-57 563.5,-57"/>
<text text-anchor="start" x="566.5" y="-65.2" font-family="Helvetica,sans-Serif" font-size="11.00">int2[5]</text>
<polygon fill="#ffffff" stroke="transparent" points="236.5,-39 236.5,-57 807.5,-57 807.5,-39 236.5,-39"/>
<polygon fill="none" stroke="black" points="236.5,-39 236.5,-57 807.5,-57 807.5,-39 236.5,-39"/>
<polygon fill="#ffffff" stroke="transparent" points="237.5,-40 237.5,-56 431.5,-56 431.5,-40 237.5,-40"/>
<text text-anchor="start" x="239.5" y="-45.2" font-family="Helvetica,sans-Serif" font-size="11.00">&lt; 1</text>
<polygon fill="#ffffff" stroke="transparent" points="431.5,-40 431.5,-56 613.5,-56 613.5,-40 431.5,-40"/>
<text text-anchor="start" x="518.5" y="-45.2" font-family="Helvetica,sans-Serif" font-size="11.00"> &#160;</text>
<polygon fill="#ffffff" stroke="transparent" points="613.5,-40 613.5,-56 806.5,-56 806.5,-40 613.5,-40"/>
<text text-anchor="start" x="784.5" y="-45.2" font-family="Helvetica,sans-Serif" font-size="11.00">0 &gt;</text>
<polygon fill="black" stroke="black" points="431.5,-40 431.5,-56 431.5,-56 431.5,-40 431.5,-40"/>
<polygon fill="black" stroke="black" points="613.5,-40 613.5,-56 613.5,-56 613.5,-40 613.5,-40"/>
<polygon fill="none" stroke="black" stroke-width="2" points="235,-38 235,-212 808,-212 808,-38 235,-38"/>
</a>
</g>
</g>
<!-- emission_rewards -->
<g id="node2" class="node">
<title>emission_rewards</title>
<g id="a_node2"><a xlink:href="../../tables/emission_rewards.html" xlink:title="emission_rewards" target="_top">
<polygon fill="#ffffff" stroke="transparent" points="8,-43 8,-123 185,-123 185,-43 8,-43"/>
<polygon fill="#f5f5f5" stroke="transparent" points="8.5,-101 8.5,-123 185.5,-123 185.5,-101 8.5,-101"/>
<polygon fill="none" stroke="black" points="8.5,-101 8.5,-123 185.5,-123 185.5,-101 8.5,-101"/>
<text text-anchor="start" x="13.5" y="-110.2" font-family="Helvetica,sans-Serif" font-weight="bold" font-size="11.00">emission_rewards</text>
<text text-anchor="start" x="143.5" y="-109.2" font-family="Helvetica,sans-Serif" font-size="11.00">[table]</text>
<polygon fill="none" stroke="black" points="8.5,-79 8.5,-101 185.5,-101 185.5,-79 8.5,-79"/>
<image xlink:href="../../images/primaryKeys.png" width="11px" height="12px" preserveAspectRatio="xMinYMin meet" x="13.5" y="-96"/>
<text text-anchor="start" x="41.5" y="-87.2" font-family="Helvetica,sans-Serif" font-size="11.00">block_range</text>
<polygon fill="none" stroke="black" points="8.5,-61 8.5,-79 185.5,-79 185.5,-61 8.5,-61"/>
<text text-anchor="start" x="11.5" y="-67.2" font-family="Helvetica,sans-Serif" font-size="11.00">...</text>
<polygon fill="#ffffff" stroke="transparent" points="8.5,-43 8.5,-61 185.5,-61 185.5,-43 8.5,-43"/>
<polygon fill="none" stroke="black" points="8.5,-43 8.5,-61 185.5,-61 185.5,-43 8.5,-43"/>
<polygon fill="#ffffff" stroke="transparent" points="9.5,-44 9.5,-60 64.5,-60 64.5,-44 9.5,-44"/>
<text text-anchor="start" x="11.5" y="-49.2" font-family="Helvetica,sans-Serif" font-size="11.00"> &#160;</text>
<polygon fill="#ffffff" stroke="transparent" points="64.5,-44 64.5,-60 118.5,-60 118.5,-44 64.5,-44"/>
<text text-anchor="start" x="87.5" y="-49.2" font-family="Helvetica,sans-Serif" font-size="11.00"> &#160;</text>
<polygon fill="#ffffff" stroke="transparent" points="118.5,-44 118.5,-60 184.5,-60 184.5,-44 118.5,-44"/>
<text text-anchor="start" x="162.5" y="-49.2" font-family="Helvetica,sans-Serif" font-size="11.00">1 &gt;</text>
<polygon fill="black" stroke="black" points="64.5,-44 64.5,-60 64.5,-60 64.5,-44 64.5,-44"/>
<polygon fill="black" stroke="black" points="118.5,-44 118.5,-60 118.5,-60 118.5,-44 118.5,-44"/>
</a>
</g>
</g>
<!-- multichain_search_db_main_export_queue&#45;&gt;emission_rewards -->
<g id="edge1" class="edge">
<title>multichain_search_db_main_export_queue:w&#45;&gt;emission_rewards:e</title>
<path fill="none" stroke="black" stroke-dasharray="5,2" d="M220.99,-90C209.68,-90 202.49,-90 186.5,-90"/>
<polygon fill="black" stroke="black" points="227.5,-90 235.5,-93.6 231.5,-90 235.5,-90 235.5,-90 235.5,-90 231.5,-90 235.5,-86.4 227.5,-90 227.5,-90"/>
<ellipse fill="none" stroke="black" cx="224.3" cy="-90" rx="3.2" ry="3.2"/>
</g>
</g>
</svg>
