<?xml version="1.0" encoding="UTF-8" standalone="no"?>
<!DOCTYPE svg PUBLIC "-//W3C//DTD SVG 1.1//EN"
 "http://www.w3.org/Graphics/SVG/1.1/DTD/svg11.dtd">
<!-- Generated by graphviz version 2.43.0 (0)
 -->
<!-- Title: oneDegreeRelationshipsDiagram Pages: 1 -->
<svg width="599pt" height="225pt"
 viewBox="0.00 0.00 599.00 225.00" xmlns="http://www.w3.org/2000/svg" xmlns:xlink="http://www.w3.org/1999/xlink">
<g id="graph0" class="graph" transform="scale(1 1) rotate(0) translate(4 221)">
<title>oneDegreeRelationshipsDiagram</title>
<polygon fill="#ffffff" stroke="transparent" points="-4,4 -4,-221 595,-221 595,4 -4,4"/>
<text text-anchor="middle" x="79.5" y="-7.2" font-family="Helvetica,sans-Serif" font-size="11.00">Generated by SchemaSpy</text>
<!-- multichain_search_db_main_export_queue -->
<g id="node1" class="node">
<title>multichain_search_db_main_export_queue</title>
<g id="a_node1"><a xlink:href="../../tables/multichain_search_db_main_export_queue.html" xlink:title="multichain_search_db_main_export_queue" target="_top">
<polygon fill="#ffffff" stroke="transparent" points="8,-37 8,-213 583,-213 583,-37 8,-37"/>
<polygon fill="#f5f5f5" stroke="transparent" points="10.5,-189 10.5,-211 581.5,-211 581.5,-189 10.5,-189"/>
<polygon fill="none" stroke="black" points="10.5,-189 10.5,-211 581.5,-211 581.5,-189 10.5,-189"/>
<text text-anchor="start" x="15.5" y="-198.2" font-family="Helvetica,sans-Serif" font-weight="bold" font-size="11.00">multichain_search_db_main_export_queue</text>
<text text-anchor="start" x="539.5" y="-197.2" font-family="Helvetica,sans-Serif" font-size="11.00">[table]</text>
<polygon fill="none" stroke="black" points="10.5,-167 10.5,-189 337.5,-189 337.5,-167 10.5,-167"/>
<image xlink:href="../../images/primaryKeys.png" width="11px" height="12px" preserveAspectRatio="xMinYMin meet" x="15.5" y="-184"/>
<text text-anchor="start" x="30.5" y="-175.2" font-family="Helvetica,sans-Serif" font-size="11.00">hash</text>
<polygon fill="none" stroke="black" points="337.5,-167 337.5,-189 581.5,-189 581.5,-167 337.5,-167"/>
<text text-anchor="start" x="340.5" y="-175.2" font-family="Helvetica,sans-Serif" font-size="11.00">bytea[2147483647]</text>
<polygon fill="none" stroke="black" points="10.5,-145 10.5,-167 337.5,-167 337.5,-145 10.5,-145"/>
<image xlink:href="../../images/primaryKeys.png" width="11px" height="12px" preserveAspectRatio="xMinYMin meet" x="15.5" y="-162"/>
<text text-anchor="start" x="30.5" y="-153.2" font-family="Helvetica,sans-Serif" font-size="11.00">hash_type</text>
<polygon fill="none" stroke="black" points="337.5,-145 337.5,-167 581.5,-167 581.5,-145 337.5,-145"/>
<text text-anchor="start" x="340.5" y="-153.2" font-family="Helvetica,sans-Serif" font-size="11.00">multichain_search_hash_type[2147483647]</text>
<polygon fill="none" stroke="black" points="10.5,-123 10.5,-145 337.5,-145 337.5,-123 10.5,-123"/>
<text text-anchor="start" x="30.5" y="-131.2" font-family="Helvetica,sans-Serif" font-size="11.00">inserted_at</text>
<polygon fill="none" stroke="black" points="337.5,-123 337.5,-145 581.5,-145 581.5,-123 337.5,-123"/>
<text text-anchor="start" x="340.5" y="-131.2" font-family="Helvetica,sans-Serif" font-size="11.00">timestamp[29,6]</text>
<polygon fill="none" stroke="black" points="10.5,-101 10.5,-123 337.5,-123 337.5,-101 10.5,-101"/>
<text text-anchor="start" x="30.5" y="-109.2" font-family="Helvetica,sans-Serif" font-size="11.00">updated_at</text>
<polygon fill="none" stroke="black" points="337.5,-101 337.5,-123 581.5,-123 581.5,-101 337.5,-101"/>
<text text-anchor="start" x="340.5" y="-109.2" font-family="Helvetica,sans-Serif" font-size="11.00">timestamp[29,6]</text>
<polygon fill="none" stroke="black" points="10.5,-79 10.5,-101 337.5,-101 337.5,-79 10.5,-79"/>
<image xlink:href="../../images/foreignKeys.png" width="11px" height="12px" preserveAspectRatio="xMinYMin meet" x="15.5" y="-96"/>
<text text-anchor="start" x="30.5" y="-87.2" font-family="Helvetica,sans-Serif" font-size="11.00">block_range</text>
<polygon fill="none" stroke="black" points="337.5,-79 337.5,-101 581.5,-101 581.5,-79 337.5,-79"/>
<text text-anchor="start" x="340.5" y="-87.2" font-family="Helvetica,sans-Serif" font-size="11.00">int8range[2147483647]</text>
<polygon fill="none" stroke="black" points="10.5,-57 10.5,-79 337.5,-79 337.5,-57 10.5,-57"/>
<text text-anchor="start" x="30.5" y="-65.2" font-family="Helvetica,sans-Serif" font-size="11.00">retries_number</text>
<polygon fill="none" stroke="black" points="337.5,-57 337.5,-79 581.5,-79 581.5,-57 337.5,-57"/>
<text text-anchor="start" x="340.5" y="-65.2" font-family="Helvetica,sans-Serif" font-size="11.00">int2[5]</text>
<polygon fill="#ffffff" stroke="transparent" points="10.5,-39 10.5,-57 581.5,-57 581.5,-39 10.5,-39"/>
<polygon fill="none" stroke="black" points="10.5,-39 10.5,-57 581.5,-57 581.5,-39 10.5,-39"/>
<polygon fill="#ffffff" stroke="transparent" points="11.5,-40 11.5,-56 205.5,-56 205.5,-40 11.5,-40"/>
<text text-anchor="start" x="13.5" y="-45.2" font-family="Helvetica,sans-Serif" font-size="11.00">&lt; 0</text>
<polygon fill="#ffffff" stroke="transparent" points="205.5,-40 205.5,-56 387.5,-56 387.5,-40 205.5,-40"/>
<text text-anchor="start" x="292.5" y="-45.2" font-family="Helvetica,sans-Serif" font-size="11.00"> &#160;</text>
<polygon fill="#ffffff" stroke="transparent" points="387.5,-40 387.5,-56 580.5,-56 580.5,-40 387.5,-40"/>
<text text-anchor="start" x="558.5" y="-45.2" font-family="Helvetica,sans-Serif" font-size="11.00">0 &gt;</text>
<polygon fill="black" stroke="black" points="205.5,-40 205.5,-56 205.5,-56 205.5,-40 205.5,-40"/>
<polygon fill="black" stroke="black" points="387.5,-40 387.5,-56 387.5,-56 387.5,-40 387.5,-40"/>
<polygon fill="none" stroke="black" stroke-width="2" points="9,-38 9,-212 582,-212 582,-38 9,-38"/>
</a>
</g>
</g>
</g>
</svg>
