<?xml version="1.0" encoding="UTF-8" standalone="no"?>
<!DOCTYPE svg PUBLIC "-//W3C//DTD SVG 1.1//EN"
 "http://www.w3.org/Graphics/SVG/1.1/DTD/svg11.dtd">
<!-- Generated by graphviz version 2.43.0 (0)
 -->
<!-- Title: oneDegreeRelationshipsDiagram Pages: 1 -->
<svg width="499pt" height="269pt"
 viewBox="0.00 0.00 499.00 269.00" xmlns="http://www.w3.org/2000/svg" xmlns:xlink="http://www.w3.org/1999/xlink">
<g id="graph0" class="graph" transform="scale(1 1) rotate(0) translate(4 265)">
<title>oneDegreeRelationshipsDiagram</title>
<polygon fill="#ffffff" stroke="transparent" points="-4,4 -4,-265 495,-265 495,4 -4,4"/>
<text text-anchor="middle" x="79.5" y="-7.2" font-family="Helvetica,sans-Serif" font-size="11.00">Generated by SchemaSpy</text>
<!-- multichain_search_db_export_balances_queue -->
<g id="node1" class="node">
<title>multichain_search_db_export_balances_queue</title>
<g id="a_node1"><a xlink:href="../../tables/multichain_search_db_export_bal_6091fe73.html" xlink:title="multichain_search_db_export_balances_queue" target="_top">
<polygon fill="#ffffff" stroke="transparent" points="8,-37 8,-257 483,-257 483,-37 8,-37"/>
<polygon fill="#f5f5f5" stroke="transparent" points="10.5,-233 10.5,-255 481.5,-255 481.5,-233 10.5,-233"/>
<polygon fill="none" stroke="black" points="10.5,-233 10.5,-255 481.5,-255 481.5,-233 10.5,-233"/>
<text text-anchor="start" x="15.5" y="-242.2" font-family="Helvetica,sans-Serif" font-weight="bold" font-size="11.00">multichain_search_db_export_balances_queue</text>
<text text-anchor="start" x="439.5" y="-241.2" font-family="Helvetica,sans-Serif" font-size="11.00">[table]</text>
<polygon fill="none" stroke="black" points="10.5,-211 10.5,-233 366.5,-233 366.5,-211 10.5,-211"/>
<image xlink:href="../../images/primaryKeys.png" width="11px" height="12px" preserveAspectRatio="xMinYMin meet" x="15.5" y="-228"/>
<text text-anchor="start" x="30.5" y="-219.2" font-family="Helvetica,sans-Serif" font-size="11.00">id</text>
<polygon fill="none" stroke="black" points="366.5,-211 366.5,-233 481.5,-233 481.5,-211 366.5,-211"/>
<text text-anchor="start" x="369.5" y="-219.2" font-family="Helvetica,sans-Serif" font-size="11.00">serial[10]</text>
<polygon fill="#ffffff" stroke="transparent" points="10.5,-189 10.5,-211 366.5,-211 366.5,-189 10.5,-189"/>
<polygon fill="none" stroke="black" points="10.5,-189 10.5,-211 366.5,-211 366.5,-189 10.5,-189"/>
<text text-anchor="start" x="30.5" y="-197.2" font-family="Helvetica,sans-Serif" font-size="11.00">address_hash</text>
<polygon fill="none" stroke="black" points="366.5,-189 366.5,-211 481.5,-211 481.5,-189 366.5,-189"/>
<text text-anchor="start" x="369.5" y="-197.2" font-family="Helvetica,sans-Serif" font-size="11.00">bytea[2147483647]</text>
<polygon fill="#ffffff" stroke="transparent" points="10.5,-167 10.5,-189 366.5,-189 366.5,-167 10.5,-167"/>
<polygon fill="none" stroke="black" points="10.5,-167 10.5,-189 366.5,-189 366.5,-167 10.5,-167"/>
<text text-anchor="start" x="30.5" y="-175.2" font-family="Helvetica,sans-Serif" font-size="11.00">token_contract_address_hash_or_native</text>
<polygon fill="none" stroke="black" points="366.5,-167 366.5,-189 481.5,-189 481.5,-167 366.5,-167"/>
<text text-anchor="start" x="369.5" y="-175.2" font-family="Helvetica,sans-Serif" font-size="11.00">bytea[2147483647]</text>
<polygon fill="none" stroke="black" points="10.5,-145 10.5,-167 366.5,-167 366.5,-145 10.5,-145"/>
<text text-anchor="start" x="30.5" y="-153.2" font-family="Helvetica,sans-Serif" font-size="11.00">value</text>
<polygon fill="none" stroke="black" points="366.5,-145 366.5,-167 481.5,-167 481.5,-145 366.5,-145"/>
<text text-anchor="start" x="369.5" y="-153.2" font-family="Helvetica,sans-Serif" font-size="11.00">numeric[100]</text>
<polygon fill="none" stroke="black" points="10.5,-123 10.5,-145 366.5,-145 366.5,-123 10.5,-123"/>
<text text-anchor="start" x="30.5" y="-131.2" font-family="Helvetica,sans-Serif" font-size="11.00">token_id</text>
<polygon fill="none" stroke="black" points="366.5,-123 366.5,-145 481.5,-145 481.5,-123 366.5,-123"/>
<text text-anchor="start" x="369.5" y="-131.2" font-family="Helvetica,sans-Serif" font-size="11.00">numeric[78]</text>
<polygon fill="none" stroke="black" points="10.5,-101 10.5,-123 366.5,-123 366.5,-101 10.5,-101"/>
<text text-anchor="start" x="30.5" y="-109.2" font-family="Helvetica,sans-Serif" font-size="11.00">retries_number</text>
<polygon fill="none" stroke="black" points="366.5,-101 366.5,-123 481.5,-123 481.5,-101 366.5,-101"/>
<text text-anchor="start" x="369.5" y="-109.2" font-family="Helvetica,sans-Serif" font-size="11.00">int2[5]</text>
<polygon fill="none" stroke="black" points="10.5,-79 10.5,-101 366.5,-101 366.5,-79 10.5,-79"/>
<text text-anchor="start" x="30.5" y="-87.2" font-family="Helvetica,sans-Serif" font-size="11.00">inserted_at</text>
<polygon fill="none" stroke="black" points="366.5,-79 366.5,-101 481.5,-101 481.5,-79 366.5,-79"/>
<text text-anchor="start" x="369.5" y="-87.2" font-family="Helvetica,sans-Serif" font-size="11.00">timestamp[29,6]</text>
<polygon fill="none" stroke="black" points="10.5,-57 10.5,-79 366.5,-79 366.5,-57 10.5,-57"/>
<text text-anchor="start" x="30.5" y="-65.2" font-family="Helvetica,sans-Serif" font-size="11.00">updated_at</text>
<polygon fill="none" stroke="black" points="366.5,-57 366.5,-79 481.5,-79 481.5,-57 366.5,-57"/>
<text text-anchor="start" x="369.5" y="-65.2" font-family="Helvetica,sans-Serif" font-size="11.00">timestamp[29,6]</text>
<polygon fill="#ffffff" stroke="transparent" points="10.5,-39 10.5,-57 481.5,-57 481.5,-39 10.5,-39"/>
<polygon fill="none" stroke="black" points="10.5,-39 10.5,-57 481.5,-57 481.5,-39 10.5,-39"/>
<polygon fill="#ffffff" stroke="transparent" points="11.5,-40 11.5,-56 172.5,-56 172.5,-40 11.5,-40"/>
<text text-anchor="start" x="13.5" y="-45.2" font-family="Helvetica,sans-Serif" font-size="11.00">&lt; 0</text>
<polygon fill="#ffffff" stroke="transparent" points="172.5,-40 172.5,-56 320.5,-56 320.5,-40 172.5,-40"/>
<text text-anchor="start" x="242.5" y="-45.2" font-family="Helvetica,sans-Serif" font-size="11.00"> &#160;</text>
<polygon fill="#ffffff" stroke="transparent" points="320.5,-40 320.5,-56 480.5,-56 480.5,-40 320.5,-40"/>
<text text-anchor="start" x="458.5" y="-45.2" font-family="Helvetica,sans-Serif" font-size="11.00">0 &gt;</text>
<polygon fill="black" stroke="black" points="172.5,-40 172.5,-56 172.5,-56 172.5,-40 172.5,-40"/>
<polygon fill="black" stroke="black" points="320.5,-40 320.5,-56 320.5,-56 320.5,-40 320.5,-40"/>
<polygon fill="none" stroke="black" stroke-width="2" points="9,-38 9,-256 482,-256 482,-38 9,-38"/>
</a>
</g>
</g>
</g>
</svg>
