<?xml version="1.0" encoding="UTF-8" standalone="no"?>
<!DOCTYPE svg PUBLIC "-//W3C//DTD SVG 1.1//EN"
 "http://www.w3.org/Graphics/SVG/1.1/DTD/svg11.dtd">
<!-- Generated by graphviz version 2.43.0 (0)
 -->
<!-- Title: twoDegreesRelationshipsDiagramImplied Pages: 1 -->
<svg width="1332pt" height="586pt"
 viewBox="0.00 0.00 1332.00 586.35" xmlns="http://www.w3.org/2000/svg" xmlns:xlink="http://www.w3.org/1999/xlink">
<g id="graph0" class="graph" transform="scale(1 1) rotate(0) translate(4 582.35)">
<title>twoDegreesRelationshipsDiagramImplied</title>
<polygon fill="#ffffff" stroke="transparent" points="-4,4 -4,-582.35 1328,-582.35 1328,4 -4,4"/>
<text text-anchor="middle" x="79.5" y="-7.2" font-family="Helvetica,sans-Serif" font-size="11.00">Generated by SchemaSpy</text>
<!-- block_rewards -->
<g id="node1" class="node">
<title>block_rewards</title>
<g id="a_node1"><a xlink:href="../../tables/block_rewards.html" xlink:title="block_rewards" target="_top">
<polygon fill="#ffffff" stroke="transparent" points="502,-516.35 502,-574.35 654,-574.35 654,-516.35 502,-516.35"/>
<polygon fill="#f5f5f5" stroke="transparent" points="502,-552.35 502,-574.35 654,-574.35 654,-552.35 502,-552.35"/>
<polygon fill="none" stroke="black" points="502,-552.35 502,-574.35 654,-574.35 654,-552.35 502,-552.35"/>
<text text-anchor="start" x="507" y="-561.55" font-family="Helvetica,sans-Serif" font-weight="bold" font-size="11.00">block_rewards</text>
<text text-anchor="start" x="612" y="-560.55" font-family="Helvetica,sans-Serif" font-size="11.00">[table]</text>
<polygon fill="none" stroke="black" points="502,-534.35 502,-552.35 654,-552.35 654,-534.35 502,-534.35"/>
<text text-anchor="start" x="505" y="-540.55" font-family="Helvetica,sans-Serif" font-size="11.00">...</text>
<polygon fill="#ffffff" stroke="transparent" points="502,-516.35 502,-534.35 654,-534.35 654,-516.35 502,-516.35"/>
<polygon fill="none" stroke="black" points="502,-516.35 502,-534.35 654,-534.35 654,-516.35 502,-516.35"/>
<polygon fill="#ffffff" stroke="transparent" points="503,-517.35 503,-533.35 561,-533.35 561,-517.35 503,-517.35"/>
<text text-anchor="start" x="505" y="-522.55" font-family="Helvetica,sans-Serif" font-size="11.00">&lt; 1</text>
<polygon fill="#ffffff" stroke="transparent" points="561,-517.35 561,-533.35 607,-533.35 607,-517.35 561,-517.35"/>
<text text-anchor="start" x="580" y="-522.55" font-family="Helvetica,sans-Serif" font-size="11.00"> &#160;</text>
<polygon fill="#ffffff" stroke="transparent" points="607,-517.35 607,-533.35 653,-533.35 653,-517.35 607,-517.35"/>
<text text-anchor="start" x="643" y="-522.55" font-family="Helvetica,sans-Serif" font-size="11.00"> &#160;</text>
<polygon fill="black" stroke="black" points="561,-517.35 561,-533.35 561,-533.35 561,-517.35 561,-517.35"/>
<polygon fill="black" stroke="black" points="607,-517.35 607,-533.35 607,-533.35 607,-517.35 607,-517.35"/>
</a>
</g>
</g>
<!-- blocks -->
<g id="node2" class="node">
<title>blocks</title>
<g id="a_node2"><a xlink:href="../../tables/blocks.html" xlink:title="blocks" target="_top">
<polygon fill="#ffffff" stroke="transparent" points="216,-168.35 216,-402.35 364,-402.35 364,-168.35 216,-168.35"/>
<polygon fill="#f5f5f5" stroke="transparent" points="216,-380.35 216,-402.35 364,-402.35 364,-380.35 216,-380.35"/>
<polygon fill="none" stroke="black" points="216,-380.35 216,-402.35 364,-402.35 364,-380.35 216,-380.35"/>
<text text-anchor="start" x="221" y="-389.55" font-family="Helvetica,sans-Serif" font-weight="bold" font-size="11.00">blocks</text>
<text text-anchor="start" x="322" y="-388.55" font-family="Helvetica,sans-Serif" font-size="11.00">[table]</text>
<polygon fill="#ffffff" stroke="transparent" points="216,-358.35 216,-380.35 364,-380.35 364,-358.35 216,-358.35"/>
<polygon fill="none" stroke="black" points="216,-358.35 216,-380.35 364,-380.35 364,-358.35 216,-358.35"/>
<text text-anchor="start" x="236" y="-366.55" font-family="Helvetica,sans-Serif" font-size="11.00">consensus</text>
<polygon fill="none" stroke="black" points="216,-336.35 216,-358.35 364,-358.35 364,-336.35 216,-336.35"/>
<image xlink:href="../../images/primaryKeys.png" width="11px" height="12px" preserveAspectRatio="xMinYMin meet" x="221" y="-353.35"/>
<text text-anchor="start" x="236" y="-344.55" font-family="Helvetica,sans-Serif" font-size="11.00">hash</text>
<polygon fill="#ffffff" stroke="transparent" points="216,-314.35 216,-336.35 364,-336.35 364,-314.35 216,-314.35"/>
<polygon fill="none" stroke="black" points="216,-314.35 216,-336.35 364,-336.35 364,-314.35 216,-314.35"/>
<text text-anchor="start" x="236" y="-322.55" font-family="Helvetica,sans-Serif" font-size="11.00">miner_hash</text>
<polygon fill="#ffffff" stroke="transparent" points="216,-292.35 216,-314.35 364,-314.35 364,-292.35 216,-292.35"/>
<polygon fill="none" stroke="black" points="216,-292.35 216,-314.35 364,-314.35 364,-292.35 216,-292.35"/>
<image xlink:href="../../images/foreignKeys.png" width="11px" height="12px" preserveAspectRatio="xMinYMin meet" x="221" y="-309.35"/>
<text text-anchor="start" x="236" y="-300.55" font-family="Helvetica,sans-Serif" font-size="11.00">number</text>
<polygon fill="#ffffff" stroke="transparent" points="216,-270.35 216,-292.35 364,-292.35 364,-270.35 216,-270.35"/>
<polygon fill="none" stroke="black" points="216,-270.35 216,-292.35 364,-292.35 364,-270.35 216,-270.35"/>
<text text-anchor="start" x="236" y="-278.55" font-family="Helvetica,sans-Serif" font-size="11.00">parent_hash</text>
<polygon fill="#ffffff" stroke="transparent" points="216,-248.35 216,-270.35 364,-270.35 364,-248.35 216,-248.35"/>
<polygon fill="none" stroke="black" points="216,-248.35 216,-270.35 364,-270.35 364,-248.35 216,-248.35"/>
<text text-anchor="start" x="236" y="-256.55" font-family="Helvetica,sans-Serif" font-size="11.00">timestamp</text>
<polygon fill="#ffffff" stroke="transparent" points="216,-226.35 216,-248.35 364,-248.35 364,-226.35 216,-226.35"/>
<polygon fill="none" stroke="black" points="216,-226.35 216,-248.35 364,-248.35 364,-226.35 216,-226.35"/>
<text text-anchor="start" x="236" y="-234.55" font-family="Helvetica,sans-Serif" font-size="11.00">inserted_at</text>
<polygon fill="#ffffff" stroke="transparent" points="216,-204.35 216,-226.35 364,-226.35 364,-204.35 216,-204.35"/>
<polygon fill="none" stroke="black" points="216,-204.35 216,-226.35 364,-226.35 364,-204.35 216,-204.35"/>
<text text-anchor="start" x="236" y="-212.55" font-family="Helvetica,sans-Serif" font-size="11.00">is_empty</text>
<polygon fill="none" stroke="black" points="216,-186.35 216,-204.35 364,-204.35 364,-186.35 216,-186.35"/>
<text text-anchor="start" x="219" y="-192.55" font-family="Helvetica,sans-Serif" font-size="11.00">...</text>
<polygon fill="#ffffff" stroke="transparent" points="216,-168.35 216,-186.35 364,-186.35 364,-168.35 216,-168.35"/>
<polygon fill="none" stroke="black" points="216,-168.35 216,-186.35 364,-186.35 364,-168.35 216,-168.35"/>
<polygon fill="#ffffff" stroke="transparent" points="217,-169.35 217,-185.35 270,-185.35 270,-169.35 217,-169.35"/>
<text text-anchor="start" x="219" y="-174.55" font-family="Helvetica,sans-Serif" font-size="11.00">&lt; 1</text>
<polygon fill="#ffffff" stroke="transparent" points="270,-169.35 270,-185.35 311,-185.35 311,-169.35 270,-169.35"/>
<text text-anchor="start" x="286.5" y="-174.55" font-family="Helvetica,sans-Serif" font-size="11.00"> &#160;</text>
<polygon fill="#ffffff" stroke="transparent" points="311,-169.35 311,-185.35 363,-185.35 363,-169.35 311,-169.35"/>
<text text-anchor="start" x="341" y="-174.55" font-family="Helvetica,sans-Serif" font-size="11.00">9 &gt;</text>
<polygon fill="black" stroke="black" points="270,-169.35 270,-185.35 270,-185.35 270,-169.35 270,-169.35"/>
<polygon fill="black" stroke="black" points="311,-169.35 311,-185.35 311,-185.35 311,-169.35 311,-169.35"/>
</a>
</g>
</g>
<!-- block_rewards&#45;&gt;blocks -->
<g id="edge1" class="edge">
<title>block_rewards:w&#45;&gt;blocks:e</title>
<path fill="none" stroke="black" d="M486.22,-543.09C450.08,-541.66 431.81,-533.55 405,-502.35 358.63,-448.39 436.15,-347.35 365,-347.35"/>
<polygon fill="black" stroke="black" points="493,-543.21 500.94,-546.95 497,-543.28 501,-543.35 501,-543.35 501,-543.35 497,-543.28 501.06,-539.75 493,-543.21 493,-543.21"/>
<ellipse fill="none" stroke="black" cx="489.8" cy="-543.15" rx="3.2" ry="3.2"/>
</g>
<!-- massive_blocks -->
<g id="node5" class="node">
<title>massive_blocks</title>
<g id="a_node5"><a xlink:href="../../tables/massive_blocks.html" xlink:title="massive_blocks" target="_top">
<polygon fill="#ffffff" stroke="transparent" points="8,-276.35 8,-334.35 167,-334.35 167,-276.35 8,-276.35"/>
<polygon fill="#f5f5f5" stroke="transparent" points="8.5,-312.35 8.5,-334.35 167.5,-334.35 167.5,-312.35 8.5,-312.35"/>
<polygon fill="none" stroke="black" points="8.5,-312.35 8.5,-334.35 167.5,-334.35 167.5,-312.35 8.5,-312.35"/>
<text text-anchor="start" x="13.5" y="-321.55" font-family="Helvetica,sans-Serif" font-weight="bold" font-size="11.00">massive_blocks</text>
<text text-anchor="start" x="125.5" y="-320.55" font-family="Helvetica,sans-Serif" font-size="11.00">[table]</text>
<polygon fill="none" stroke="black" points="8.5,-294.35 8.5,-312.35 167.5,-312.35 167.5,-294.35 8.5,-294.35"/>
<text text-anchor="start" x="11.5" y="-300.55" font-family="Helvetica,sans-Serif" font-size="11.00">...</text>
<polygon fill="#ffffff" stroke="transparent" points="8.5,-276.35 8.5,-294.35 167.5,-294.35 167.5,-276.35 8.5,-276.35"/>
<polygon fill="none" stroke="black" points="8.5,-276.35 8.5,-294.35 167.5,-294.35 167.5,-276.35 8.5,-276.35"/>
<polygon fill="#ffffff" stroke="transparent" points="9.5,-277.35 9.5,-293.35 58.5,-293.35 58.5,-277.35 9.5,-277.35"/>
<text text-anchor="start" x="11.5" y="-282.55" font-family="Helvetica,sans-Serif" font-size="11.00"> &#160;</text>
<polygon fill="#ffffff" stroke="transparent" points="58.5,-277.35 58.5,-293.35 106.5,-293.35 106.5,-277.35 58.5,-277.35"/>
<text text-anchor="start" x="78.5" y="-282.55" font-family="Helvetica,sans-Serif" font-size="11.00"> &#160;</text>
<polygon fill="#ffffff" stroke="transparent" points="106.5,-277.35 106.5,-293.35 166.5,-293.35 166.5,-277.35 106.5,-277.35"/>
<text text-anchor="start" x="144.5" y="-282.55" font-family="Helvetica,sans-Serif" font-size="11.00">1 &gt;</text>
<polygon fill="black" stroke="black" points="58.5,-277.35 58.5,-293.35 58.5,-293.35 58.5,-277.35 58.5,-277.35"/>
<polygon fill="black" stroke="black" points="106.5,-277.35 106.5,-293.35 106.5,-293.35 106.5,-277.35 106.5,-277.35"/>
</a>
</g>
</g>
<!-- blocks&#45;&gt;massive_blocks -->
<g id="edge4" class="edge">
<title>blocks:w&#45;&gt;massive_blocks:e</title>
<path fill="none" stroke="black" stroke-dasharray="5,2" d="M204.43,-303.35C191.72,-303.35 185.13,-303.35 168.5,-303.35"/>
<polygon fill="black" stroke="black" points="214.2,-299.35 214.2,-307.35 212.6,-307.35 212.6,-299.35 214.2,-299.35"/>
<polyline fill="none" stroke="black" points="215,-303.35 211,-303.35 "/>
<ellipse fill="none" stroke="black" cx="207.8" cy="-303.35" rx="3.2" ry="3.2"/>
</g>
<!-- block_second_degree_relations -->
<g id="node3" class="node">
<title>block_second_degree_relations</title>
<g id="a_node3"><a xlink:href="../../tables/block_second_degree_relations.html" xlink:title="block_second_degree_relations" target="_top">
<polygon fill="#ffffff" stroke="transparent" points="792,-410.35 792,-468.35 1065,-468.35 1065,-410.35 792,-410.35"/>
<polygon fill="#f5f5f5" stroke="transparent" points="792.5,-446.35 792.5,-468.35 1065.5,-468.35 1065.5,-446.35 792.5,-446.35"/>
<polygon fill="none" stroke="black" points="792.5,-446.35 792.5,-468.35 1065.5,-468.35 1065.5,-446.35 792.5,-446.35"/>
<text text-anchor="start" x="797.5" y="-455.55" font-family="Helvetica,sans-Serif" font-weight="bold" font-size="11.00">block_second_degree_relations</text>
<text text-anchor="start" x="1023.5" y="-454.55" font-family="Helvetica,sans-Serif" font-size="11.00">[table]</text>
<polygon fill="none" stroke="black" points="792.5,-428.35 792.5,-446.35 1065.5,-446.35 1065.5,-428.35 792.5,-428.35"/>
<text text-anchor="start" x="795.5" y="-434.55" font-family="Helvetica,sans-Serif" font-size="11.00">...</text>
<polygon fill="#ffffff" stroke="transparent" points="792.5,-410.35 792.5,-428.35 1065.5,-428.35 1065.5,-410.35 792.5,-410.35"/>
<polygon fill="none" stroke="black" points="792.5,-410.35 792.5,-428.35 1065.5,-428.35 1065.5,-410.35 792.5,-410.35"/>
<polygon fill="#ffffff" stroke="transparent" points="793.5,-411.35 793.5,-427.35 892.5,-427.35 892.5,-411.35 793.5,-411.35"/>
<text text-anchor="start" x="795.5" y="-416.55" font-family="Helvetica,sans-Serif" font-size="11.00">&lt; 2</text>
<polygon fill="#ffffff" stroke="transparent" points="892.5,-411.35 892.5,-427.35 978.5,-427.35 978.5,-411.35 892.5,-411.35"/>
<text text-anchor="start" x="931.5" y="-416.55" font-family="Helvetica,sans-Serif" font-size="11.00"> &#160;</text>
<polygon fill="#ffffff" stroke="transparent" points="978.5,-411.35 978.5,-427.35 1064.5,-427.35 1064.5,-411.35 978.5,-411.35"/>
<text text-anchor="start" x="1054.5" y="-416.55" font-family="Helvetica,sans-Serif" font-size="11.00"> &#160;</text>
<polygon fill="black" stroke="black" points="892.5,-411.35 892.5,-427.35 892.5,-427.35 892.5,-411.35 892.5,-411.35"/>
<polygon fill="black" stroke="black" points="978.5,-411.35 978.5,-427.35 978.5,-427.35 978.5,-411.35 978.5,-411.35"/>
</a>
</g>
</g>
<!-- block_second_degree_relations&#45;&gt;blocks -->
<g id="edge3" class="edge">
<title>block_second_degree_relations:w&#45;&gt;blocks:e</title>
<path fill="none" stroke="black" d="M776.89,-437.99C768.95,-438.73 762.98,-439.91 751,-440.35 597.33,-446.03 533.43,-524.92 405,-440.35 367.42,-415.61 409.99,-347.35 365,-347.35"/>
<polygon fill="black" stroke="black" points="783.51,-437.7 791.66,-440.95 787.5,-437.52 791.5,-437.35 791.5,-437.35 791.5,-437.35 787.5,-437.52 791.34,-433.75 783.51,-437.7 783.51,-437.7"/>
<ellipse fill="none" stroke="black" cx="780.31" cy="-437.84" rx="3.2" ry="3.2"/>
</g>
<!-- withdrawals -->
<g id="node4" class="node">
<title>withdrawals</title>
<g id="a_node4"><a xlink:href="../../tables/withdrawals.html" xlink:title="withdrawals" target="_top">
<polygon fill="#ffffff" stroke="transparent" points="510,-371.35 510,-429.35 646,-429.35 646,-371.35 510,-371.35"/>
<polygon fill="#f5f5f5" stroke="transparent" points="510,-407.35 510,-429.35 646,-429.35 646,-407.35 510,-407.35"/>
<polygon fill="none" stroke="black" points="510,-407.35 510,-429.35 646,-429.35 646,-407.35 510,-407.35"/>
<text text-anchor="start" x="515" y="-416.55" font-family="Helvetica,sans-Serif" font-weight="bold" font-size="11.00">withdrawals</text>
<text text-anchor="start" x="604" y="-415.55" font-family="Helvetica,sans-Serif" font-size="11.00">[table]</text>
<polygon fill="none" stroke="black" points="510,-389.35 510,-407.35 646,-407.35 646,-389.35 510,-389.35"/>
<text text-anchor="start" x="513" y="-395.55" font-family="Helvetica,sans-Serif" font-size="11.00">...</text>
<polygon fill="#ffffff" stroke="transparent" points="510,-371.35 510,-389.35 646,-389.35 646,-371.35 510,-371.35"/>
<polygon fill="none" stroke="black" points="510,-371.35 510,-389.35 646,-389.35 646,-371.35 510,-371.35"/>
<polygon fill="#ffffff" stroke="transparent" points="511,-372.35 511,-388.35 560,-388.35 560,-372.35 511,-372.35"/>
<text text-anchor="start" x="513" y="-377.55" font-family="Helvetica,sans-Serif" font-size="11.00">&lt; 1</text>
<polygon fill="#ffffff" stroke="transparent" points="560,-372.35 560,-388.35 597,-388.35 597,-372.35 560,-372.35"/>
<text text-anchor="start" x="574.5" y="-377.55" font-family="Helvetica,sans-Serif" font-size="11.00"> &#160;</text>
<polygon fill="#ffffff" stroke="transparent" points="597,-372.35 597,-388.35 645,-388.35 645,-372.35 597,-372.35"/>
<text text-anchor="start" x="623" y="-377.55" font-family="Helvetica,sans-Serif" font-size="11.00">5 &gt;</text>
<polygon fill="black" stroke="black" points="560,-372.35 560,-388.35 560,-388.35 560,-372.35 560,-372.35"/>
<polygon fill="black" stroke="black" points="597,-372.35 597,-388.35 597,-388.35 597,-372.35 597,-372.35"/>
</a>
</g>
</g>
<!-- block_second_degree_relations&#45;&gt;withdrawals -->
<g id="edge2" class="edge">
<title>block_second_degree_relations:w&#45;&gt;withdrawals:e</title>
<path fill="none" stroke="black" stroke-dasharray="5,2" d="M776.87,-436.67C722.85,-431.49 708.32,-398.35 647,-398.35"/>
<polygon fill="black" stroke="black" points="783.51,-436.98 791.33,-440.95 787.5,-437.17 791.5,-437.35 791.5,-437.35 791.5,-437.35 787.5,-437.17 791.67,-433.75 783.51,-436.98 783.51,-436.98"/>
<ellipse fill="none" stroke="black" cx="780.31" cy="-436.83" rx="3.2" ry="3.2"/>
</g>
<!-- withdrawals&#45;&gt;blocks -->
<g id="edge18" class="edge">
<title>withdrawals:w&#45;&gt;blocks:e</title>
<path fill="none" stroke="black" d="M494.71,-396.22C456.96,-386.57 394.77,-347.35 365,-347.35"/>
<polygon fill="black" stroke="black" points="501.09,-397.17 508.47,-401.91 505.04,-397.76 509,-398.35 509,-398.35 509,-398.35 505.04,-397.76 509.53,-394.79 501.09,-397.17 501.09,-397.17"/>
<ellipse fill="none" stroke="black" cx="497.92" cy="-396.7" rx="3.2" ry="3.2"/>
</g>
<!-- internal_transactions -->
<g id="node6" class="node">
<title>internal_transactions</title>
<g id="a_node6"><a xlink:href="../../tables/internal_transactions.html" xlink:title="internal_transactions" target="_top">
<polygon fill="#ffffff" stroke="transparent" points="1114,-353.35 1114,-411.35 1316,-411.35 1316,-353.35 1114,-353.35"/>
<polygon fill="#f5f5f5" stroke="transparent" points="1114,-389.35 1114,-411.35 1316,-411.35 1316,-389.35 1114,-389.35"/>
<polygon fill="none" stroke="black" points="1114,-389.35 1114,-411.35 1316,-411.35 1316,-389.35 1114,-389.35"/>
<text text-anchor="start" x="1119" y="-398.55" font-family="Helvetica,sans-Serif" font-weight="bold" font-size="11.00">internal_transactions</text>
<text text-anchor="start" x="1274" y="-397.55" font-family="Helvetica,sans-Serif" font-size="11.00">[table]</text>
<polygon fill="none" stroke="black" points="1114,-371.35 1114,-389.35 1316,-389.35 1316,-371.35 1114,-371.35"/>
<text text-anchor="start" x="1117" y="-377.55" font-family="Helvetica,sans-Serif" font-size="11.00">...</text>
<polygon fill="#ffffff" stroke="transparent" points="1114,-353.35 1114,-371.35 1316,-371.35 1316,-353.35 1114,-353.35"/>
<polygon fill="none" stroke="black" points="1114,-353.35 1114,-371.35 1316,-371.35 1316,-353.35 1114,-353.35"/>
<polygon fill="#ffffff" stroke="transparent" points="1115,-354.35 1115,-370.35 1190,-370.35 1190,-354.35 1115,-354.35"/>
<text text-anchor="start" x="1117" y="-359.55" font-family="Helvetica,sans-Serif" font-size="11.00">&lt; 4</text>
<polygon fill="#ffffff" stroke="transparent" points="1190,-354.35 1190,-370.35 1253,-370.35 1253,-354.35 1190,-354.35"/>
<text text-anchor="start" x="1217.5" y="-359.55" font-family="Helvetica,sans-Serif" font-size="11.00"> &#160;</text>
<polygon fill="#ffffff" stroke="transparent" points="1253,-354.35 1253,-370.35 1315,-370.35 1315,-354.35 1253,-354.35"/>
<text text-anchor="start" x="1305" y="-359.55" font-family="Helvetica,sans-Serif" font-size="11.00"> &#160;</text>
<polygon fill="black" stroke="black" points="1190,-354.35 1190,-370.35 1190,-370.35 1190,-354.35 1190,-354.35"/>
<polygon fill="black" stroke="black" points="1253,-354.35 1253,-370.35 1253,-370.35 1253,-354.35 1253,-354.35"/>
</a>
</g>
</g>
<!-- internal_transactions&#45;&gt;blocks -->
<g id="edge5" class="edge">
<title>internal_transactions:w&#45;&gt;blocks:e</title>
<path fill="none" stroke="black" d="M1098.96,-383.71C1076.18,-398.27 1107.27,-456.23 1073,-479.35 1026.89,-510.45 437.33,-493.43 405,-469.35 359.24,-435.26 422.06,-347.35 365,-347.35"/>
<polygon fill="black" stroke="black" points="1105.22,-382.21 1113.84,-383.85 1109.11,-381.28 1113,-380.35 1113,-380.35 1113,-380.35 1109.11,-381.28 1112.16,-376.85 1105.22,-382.21 1105.22,-382.21"/>
<ellipse fill="none" stroke="black" cx="1102.11" cy="-382.96" rx="3.2" ry="3.2"/>
</g>
<!-- internal_transactions&#45;&gt;withdrawals -->
<g id="edge6" class="edge">
<title>internal_transactions:w&#45;&gt;withdrawals:e</title>
<path fill="none" stroke="black" stroke-dasharray="5,2" d="M1098.39,-380.38C903.18,-381.2 849.31,-398.35 647,-398.35"/>
<polygon fill="black" stroke="black" points="1105,-380.37 1113.01,-383.95 1109,-380.36 1113,-380.35 1113,-380.35 1113,-380.35 1109,-380.36 1112.99,-376.75 1105,-380.37 1105,-380.37"/>
<ellipse fill="none" stroke="black" cx="1101.8" cy="-380.37" rx="3.2" ry="3.2"/>
</g>
<!-- internal_transactions&#45;&gt;withdrawals -->
<g id="edge8" class="edge">
<title>internal_transactions:w&#45;&gt;withdrawals:e</title>
<path fill="none" stroke="black" stroke-dasharray="5,2" d="M1098.39,-380.38C903.18,-381.2 849.31,-398.35 647,-398.35"/>
<polygon fill="black" stroke="black" points="1105,-380.37 1113.01,-383.95 1109,-380.36 1113,-380.35 1113,-380.35 1113,-380.35 1109,-380.36 1112.99,-376.75 1105,-380.37 1105,-380.37"/>
<ellipse fill="none" stroke="black" cx="1101.8" cy="-380.37" rx="3.2" ry="3.2"/>
</g>
<!-- transactions -->
<g id="node7" class="node">
<title>transactions</title>
<g id="a_node7"><a xlink:href="../../tables/transactions.html" xlink:title="transactions" target="_top">
<polygon fill="#ffffff" stroke="transparent" points="859.5,-265.35 859.5,-323.35 997.5,-323.35 997.5,-265.35 859.5,-265.35"/>
<polygon fill="#f5f5f5" stroke="transparent" points="859.5,-301.35 859.5,-323.35 997.5,-323.35 997.5,-301.35 859.5,-301.35"/>
<polygon fill="none" stroke="black" points="859.5,-301.35 859.5,-323.35 997.5,-323.35 997.5,-301.35 859.5,-301.35"/>
<text text-anchor="start" x="864.5" y="-310.55" font-family="Helvetica,sans-Serif" font-weight="bold" font-size="11.00">transactions</text>
<text text-anchor="start" x="955.5" y="-309.55" font-family="Helvetica,sans-Serif" font-size="11.00">[table]</text>
<polygon fill="none" stroke="black" points="859.5,-283.35 859.5,-301.35 997.5,-301.35 997.5,-283.35 859.5,-283.35"/>
<text text-anchor="start" x="862.5" y="-289.55" font-family="Helvetica,sans-Serif" font-size="11.00">...</text>
<polygon fill="#ffffff" stroke="transparent" points="859.5,-265.35 859.5,-283.35 997.5,-283.35 997.5,-265.35 859.5,-265.35"/>
<polygon fill="none" stroke="black" points="859.5,-265.35 859.5,-283.35 997.5,-283.35 997.5,-265.35 859.5,-265.35"/>
<polygon fill="#ffffff" stroke="transparent" points="860.5,-266.35 860.5,-282.35 910.5,-282.35 910.5,-266.35 860.5,-266.35"/>
<text text-anchor="start" x="862.5" y="-271.55" font-family="Helvetica,sans-Serif" font-size="11.00">&lt; 2</text>
<polygon fill="#ffffff" stroke="transparent" points="910.5,-266.35 910.5,-282.35 947.5,-282.35 947.5,-266.35 910.5,-266.35"/>
<text text-anchor="start" x="925" y="-271.55" font-family="Helvetica,sans-Serif" font-size="11.00"> &#160;</text>
<polygon fill="#ffffff" stroke="transparent" points="947.5,-266.35 947.5,-282.35 996.5,-282.35 996.5,-266.35 947.5,-266.35"/>
<text text-anchor="start" x="974.5" y="-271.55" font-family="Helvetica,sans-Serif" font-size="11.00">7 &gt;</text>
<polygon fill="black" stroke="black" points="910.5,-266.35 910.5,-282.35 910.5,-282.35 910.5,-266.35 910.5,-266.35"/>
<polygon fill="black" stroke="black" points="947.5,-266.35 947.5,-282.35 947.5,-282.35 947.5,-266.35 947.5,-266.35"/>
</a>
</g>
</g>
<!-- internal_transactions&#45;&gt;transactions -->
<g id="edge7" class="edge">
<title>internal_transactions:w&#45;&gt;transactions:e</title>
<path fill="none" stroke="black" d="M1098.69,-378.67C1050.57,-366.5 1057.42,-292.35 998.5,-292.35"/>
<polygon fill="black" stroke="black" points="1105.05,-379.42 1112.58,-383.93 1109.03,-379.88 1113,-380.35 1113,-380.35 1113,-380.35 1109.03,-379.88 1113.42,-376.77 1105.05,-379.42 1105.05,-379.42"/>
<ellipse fill="none" stroke="black" cx="1101.88" cy="-379.04" rx="3.2" ry="3.2"/>
</g>
<!-- transactions&#45;&gt;blocks -->
<g id="edge16" class="edge">
<title>transactions:w&#45;&gt;blocks:e</title>
<path fill="none" stroke="black" d="M843.9,-292.68C807.34,-294.4 793.69,-302.52 751,-307.35 597.62,-324.69 557.24,-311.89 405,-337.35 386.93,-340.37 383.32,-347.35 365,-347.35"/>
<polygon fill="black" stroke="black" points="850.5,-292.53 858.58,-295.95 854.5,-292.44 858.5,-292.35 858.5,-292.35 858.5,-292.35 854.5,-292.44 858.42,-288.75 850.5,-292.53 850.5,-292.53"/>
<ellipse fill="none" stroke="black" cx="847.3" cy="-292.6" rx="3.2" ry="3.2"/>
</g>
<!-- transactions&#45;&gt;withdrawals -->
<g id="edge17" class="edge">
<title>transactions:w&#45;&gt;withdrawals:e</title>
<path fill="none" stroke="black" stroke-dasharray="5,2" d="M844.1,-293.05C753,-302.25 747.11,-398.35 647,-398.35"/>
<polygon fill="black" stroke="black" points="850.51,-292.74 858.68,-295.95 854.5,-292.55 858.5,-292.35 858.5,-292.35 858.5,-292.35 854.5,-292.55 858.32,-288.75 850.51,-292.74 850.51,-292.74"/>
<ellipse fill="none" stroke="black" cx="847.31" cy="-292.9" rx="3.2" ry="3.2"/>
</g>
<!-- logs -->
<g id="node8" class="node">
<title>logs</title>
<g id="a_node8"><a xlink:href="../../tables/logs.html" xlink:title="logs" target="_top">
<polygon fill="#ffffff" stroke="transparent" points="1176.5,-270.35 1176.5,-328.35 1253.5,-328.35 1253.5,-270.35 1176.5,-270.35"/>
<polygon fill="#f5f5f5" stroke="transparent" points="1177,-306.35 1177,-328.35 1254,-328.35 1254,-306.35 1177,-306.35"/>
<polygon fill="none" stroke="black" points="1177,-306.35 1177,-328.35 1254,-328.35 1254,-306.35 1177,-306.35"/>
<text text-anchor="start" x="1182" y="-315.55" font-family="Helvetica,sans-Serif" font-weight="bold" font-size="11.00">logs</text>
<text text-anchor="start" x="1212" y="-314.55" font-family="Helvetica,sans-Serif" font-size="11.00">[table]</text>
<polygon fill="none" stroke="black" points="1177,-288.35 1177,-306.35 1254,-306.35 1254,-288.35 1177,-288.35"/>
<text text-anchor="start" x="1180" y="-294.55" font-family="Helvetica,sans-Serif" font-size="11.00">...</text>
<polygon fill="#ffffff" stroke="transparent" points="1177,-270.35 1177,-288.35 1254,-288.35 1254,-270.35 1177,-270.35"/>
<polygon fill="none" stroke="black" points="1177,-270.35 1177,-288.35 1254,-288.35 1254,-270.35 1177,-270.35"/>
<polygon fill="#ffffff" stroke="transparent" points="1178,-271.35 1178,-287.35 1211,-287.35 1211,-271.35 1178,-271.35"/>
<text text-anchor="start" x="1180" y="-276.55" font-family="Helvetica,sans-Serif" font-size="11.00">&lt; 2</text>
<polygon fill="#ffffff" stroke="transparent" points="1211,-271.35 1211,-287.35 1232,-287.35 1232,-271.35 1211,-271.35"/>
<text text-anchor="start" x="1217.5" y="-276.55" font-family="Helvetica,sans-Serif" font-size="11.00"> &#160;</text>
<polygon fill="#ffffff" stroke="transparent" points="1232,-271.35 1232,-287.35 1253,-287.35 1253,-271.35 1232,-271.35"/>
<text text-anchor="start" x="1243" y="-276.55" font-family="Helvetica,sans-Serif" font-size="11.00"> &#160;</text>
<polygon fill="black" stroke="black" points="1211,-271.35 1211,-287.35 1211,-287.35 1211,-271.35 1211,-271.35"/>
<polygon fill="black" stroke="black" points="1232,-271.35 1232,-287.35 1232,-287.35 1232,-271.35 1232,-271.35"/>
</a>
</g>
</g>
<!-- logs&#45;&gt;blocks -->
<g id="edge9" class="edge">
<title>logs:w&#45;&gt;blocks:e</title>
<path fill="none" stroke="black" d="M1161.44,-298.3C1125.44,-303.29 1115.61,-326.53 1073,-334.35 918.23,-362.77 522.36,-347.35 365,-347.35"/>
<polygon fill="black" stroke="black" points="1168.02,-297.87 1176.23,-300.94 1172.01,-297.61 1176,-297.35 1176,-297.35 1176,-297.35 1172.01,-297.61 1175.77,-293.76 1168.02,-297.87 1168.02,-297.87"/>
<ellipse fill="none" stroke="black" cx="1164.82" cy="-298.08" rx="3.2" ry="3.2"/>
</g>
<!-- logs&#45;&gt;transactions -->
<g id="edge10" class="edge">
<title>logs:w&#45;&gt;transactions:e</title>
<path fill="none" stroke="black" d="M1161.45,-297.29C1094.3,-296.73 1072.33,-292.35 998.5,-292.35"/>
<polygon fill="black" stroke="black" points="1168,-297.32 1175.99,-300.95 1172,-297.33 1176,-297.35 1176,-297.35 1176,-297.35 1172,-297.33 1176.01,-293.75 1168,-297.32 1168,-297.32"/>
<ellipse fill="none" stroke="black" cx="1164.8" cy="-297.3" rx="3.2" ry="3.2"/>
</g>
<!-- pending_block_operations -->
<g id="node9" class="node">
<title>pending_block_operations</title>
<g id="a_node9"><a xlink:href="../../tables/pending_block_operations.html" xlink:title="pending_block_operations" target="_top">
<polygon fill="#ffffff" stroke="transparent" points="413,-164.35 413,-296.35 743,-296.35 743,-164.35 413,-164.35"/>
<polygon fill="#f5f5f5" stroke="transparent" points="415,-272.35 415,-294.35 741,-294.35 741,-272.35 415,-272.35"/>
<polygon fill="none" stroke="black" points="415,-272.35 415,-294.35 741,-294.35 741,-272.35 415,-272.35"/>
<text text-anchor="start" x="420" y="-281.55" font-family="Helvetica,sans-Serif" font-weight="bold" font-size="11.00">pending_block_operations</text>
<text text-anchor="start" x="699" y="-280.55" font-family="Helvetica,sans-Serif" font-size="11.00">[table]</text>
<polygon fill="none" stroke="black" points="415,-250.35 415,-272.35 626,-272.35 626,-250.35 415,-250.35"/>
<image xlink:href="../../images/primaryKeys.png" width="11px" height="12px" preserveAspectRatio="xMinYMin meet" x="420" y="-267.35"/>
<text text-anchor="start" x="435" y="-258.55" font-family="Helvetica,sans-Serif" font-size="11.00">block_hash</text>
<polygon fill="none" stroke="black" points="626,-250.35 626,-272.35 741,-272.35 741,-250.35 626,-250.35"/>
<text text-anchor="start" x="629" y="-258.55" font-family="Helvetica,sans-Serif" font-size="11.00">bytea[2147483647]</text>
<polygon fill="none" stroke="black" points="415,-228.35 415,-250.35 626,-250.35 626,-228.35 415,-228.35"/>
<text text-anchor="start" x="435" y="-236.55" font-family="Helvetica,sans-Serif" font-size="11.00">inserted_at</text>
<polygon fill="none" stroke="black" points="626,-228.35 626,-250.35 741,-250.35 741,-228.35 626,-228.35"/>
<text text-anchor="start" x="629" y="-236.55" font-family="Helvetica,sans-Serif" font-size="11.00">timestamp[29,6]</text>
<polygon fill="none" stroke="black" points="415,-206.35 415,-228.35 626,-228.35 626,-206.35 415,-206.35"/>
<text text-anchor="start" x="435" y="-214.55" font-family="Helvetica,sans-Serif" font-size="11.00">updated_at</text>
<polygon fill="none" stroke="black" points="626,-206.35 626,-228.35 741,-228.35 741,-206.35 626,-206.35"/>
<text text-anchor="start" x="629" y="-214.55" font-family="Helvetica,sans-Serif" font-size="11.00">timestamp[29,6]</text>
<polygon fill="#ffffff" stroke="transparent" points="415,-184.35 415,-206.35 626,-206.35 626,-184.35 415,-184.35"/>
<polygon fill="none" stroke="black" points="415,-184.35 415,-206.35 626,-206.35 626,-184.35 415,-184.35"/>
<text text-anchor="start" x="435" y="-192.55" font-family="Helvetica,sans-Serif" font-size="11.00">block_number</text>
<polygon fill="none" stroke="black" points="626,-184.35 626,-206.35 741,-206.35 741,-184.35 626,-184.35"/>
<text text-anchor="start" x="629" y="-192.55" font-family="Helvetica,sans-Serif" font-size="11.00">int4[10]</text>
<polygon fill="#ffffff" stroke="transparent" points="415,-166.35 415,-184.35 741,-184.35 741,-166.35 415,-166.35"/>
<polygon fill="none" stroke="black" points="415,-166.35 415,-184.35 741,-184.35 741,-166.35 415,-166.35"/>
<polygon fill="#ffffff" stroke="transparent" points="416,-167.35 416,-183.35 528,-183.35 528,-167.35 416,-167.35"/>
<text text-anchor="start" x="418" y="-172.55" font-family="Helvetica,sans-Serif" font-size="11.00">&lt; 1</text>
<polygon fill="#ffffff" stroke="transparent" points="528,-167.35 528,-183.35 628,-183.35 628,-167.35 528,-167.35"/>
<text text-anchor="start" x="574" y="-172.55" font-family="Helvetica,sans-Serif" font-size="11.00"> &#160;</text>
<polygon fill="#ffffff" stroke="transparent" points="628,-167.35 628,-183.35 740,-183.35 740,-167.35 628,-167.35"/>
<text text-anchor="start" x="718" y="-172.55" font-family="Helvetica,sans-Serif" font-size="11.00">0 &gt;</text>
<polygon fill="black" stroke="black" points="528,-167.35 528,-183.35 528,-183.35 528,-167.35 528,-167.35"/>
<polygon fill="black" stroke="black" points="628,-167.35 628,-183.35 628,-183.35 628,-167.35 628,-167.35"/>
<polygon fill="none" stroke="black" stroke-width="2" points="414,-165.35 414,-295.35 742,-295.35 742,-165.35 414,-165.35"/>
</a>
</g>
</g>
<!-- pending_block_operations&#45;&gt;blocks -->
<g id="edge11" class="edge">
<title>pending_block_operations:w&#45;&gt;blocks:e</title>
<path fill="none" stroke="black" d="M403.68,-263.48C376.59,-276.72 404.87,-347.35 365,-347.35"/>
<polygon fill="black" stroke="black" points="412.41,-257.59 414.02,-265.43 412.46,-265.75 410.84,-257.92 412.41,-257.59"/>
<polyline fill="none" stroke="black" points="414,-261.35 410.08,-262.16 "/>
<ellipse fill="none" stroke="black" cx="406.95" cy="-262.8" rx="3.2" ry="3.2"/>
</g>
<!-- token_transfers -->
<g id="node10" class="node">
<title>token_transfers</title>
<g id="a_node10"><a xlink:href="../../tables/token_transfers.html" xlink:title="token_transfers" target="_top">
<polygon fill="#ffffff" stroke="transparent" points="1134,-184.35 1134,-242.35 1296,-242.35 1296,-184.35 1134,-184.35"/>
<polygon fill="#f5f5f5" stroke="transparent" points="1134,-220.35 1134,-242.35 1296,-242.35 1296,-220.35 1134,-220.35"/>
<polygon fill="none" stroke="black" points="1134,-220.35 1134,-242.35 1296,-242.35 1296,-220.35 1134,-220.35"/>
<text text-anchor="start" x="1139" y="-229.55" font-family="Helvetica,sans-Serif" font-weight="bold" font-size="11.00">token_transfers</text>
<text text-anchor="start" x="1254" y="-228.55" font-family="Helvetica,sans-Serif" font-size="11.00">[table]</text>
<polygon fill="none" stroke="black" points="1134,-202.35 1134,-220.35 1296,-220.35 1296,-202.35 1134,-202.35"/>
<text text-anchor="start" x="1137" y="-208.55" font-family="Helvetica,sans-Serif" font-size="11.00">...</text>
<polygon fill="#ffffff" stroke="transparent" points="1134,-184.35 1134,-202.35 1296,-202.35 1296,-184.35 1134,-184.35"/>
<polygon fill="none" stroke="black" points="1134,-184.35 1134,-202.35 1296,-202.35 1296,-184.35 1134,-184.35"/>
<polygon fill="#ffffff" stroke="transparent" points="1135,-185.35 1135,-201.35 1197,-201.35 1197,-185.35 1135,-185.35"/>
<text text-anchor="start" x="1137" y="-190.55" font-family="Helvetica,sans-Serif" font-size="11.00">&lt; 2</text>
<polygon fill="#ffffff" stroke="transparent" points="1197,-185.35 1197,-201.35 1246,-201.35 1246,-185.35 1197,-185.35"/>
<text text-anchor="start" x="1217.5" y="-190.55" font-family="Helvetica,sans-Serif" font-size="11.00"> &#160;</text>
<polygon fill="#ffffff" stroke="transparent" points="1246,-185.35 1246,-201.35 1295,-201.35 1295,-185.35 1246,-185.35"/>
<text text-anchor="start" x="1285" y="-190.55" font-family="Helvetica,sans-Serif" font-size="11.00"> &#160;</text>
<polygon fill="black" stroke="black" points="1197,-185.35 1197,-201.35 1197,-201.35 1197,-185.35 1197,-185.35"/>
<polygon fill="black" stroke="black" points="1246,-185.35 1246,-201.35 1246,-201.35 1246,-185.35 1246,-185.35"/>
</a>
</g>
</g>
<!-- token_transfers&#45;&gt;blocks -->
<g id="edge12" class="edge">
<title>token_transfers:w&#45;&gt;blocks:e</title>
<path fill="none" stroke="black" d="M1118.24,-211.24C958.88,-208.74 917.22,-165.9 751,-153.35 674.33,-147.56 464.61,-104.78 405,-153.35 336.75,-208.96 453.04,-347.35 365,-347.35"/>
<polygon fill="black" stroke="black" points="1125,-211.29 1132.97,-214.95 1129,-211.32 1133,-211.35 1133,-211.35 1133,-211.35 1129,-211.32 1133.03,-207.75 1125,-211.29 1125,-211.29"/>
<ellipse fill="none" stroke="black" cx="1121.8" cy="-211.26" rx="3.2" ry="3.2"/>
</g>
<!-- token_transfers&#45;&gt;transactions -->
<g id="edge13" class="edge">
<title>token_transfers:w&#45;&gt;transactions:e</title>
<path fill="none" stroke="black" d="M1118.64,-212.62C1063.56,-222.93 1063.1,-292.35 998.5,-292.35"/>
<polygon fill="black" stroke="black" points="1125.03,-212.06 1133.32,-214.94 1129.02,-211.7 1133,-211.35 1133,-211.35 1133,-211.35 1129.02,-211.7 1132.68,-207.76 1125.03,-212.06 1125.03,-212.06"/>
<ellipse fill="none" stroke="black" cx="1121.84" cy="-212.34" rx="3.2" ry="3.2"/>
</g>
<!-- transaction_forks -->
<g id="node11" class="node">
<title>transaction_forks</title>
<g id="a_node11"><a xlink:href="../../tables/transaction_forks.html" xlink:title="transaction_forks" target="_top">
<polygon fill="#ffffff" stroke="transparent" points="1128,-90.35 1128,-148.35 1302,-148.35 1302,-90.35 1128,-90.35"/>
<polygon fill="#f5f5f5" stroke="transparent" points="1128,-126.35 1128,-148.35 1302,-148.35 1302,-126.35 1128,-126.35"/>
<polygon fill="none" stroke="black" points="1128,-126.35 1128,-148.35 1302,-148.35 1302,-126.35 1128,-126.35"/>
<text text-anchor="start" x="1133" y="-135.55" font-family="Helvetica,sans-Serif" font-weight="bold" font-size="11.00">transaction_forks</text>
<text text-anchor="start" x="1260" y="-134.55" font-family="Helvetica,sans-Serif" font-size="11.00">[table]</text>
<polygon fill="none" stroke="black" points="1128,-108.35 1128,-126.35 1302,-126.35 1302,-108.35 1128,-108.35"/>
<text text-anchor="start" x="1131" y="-114.55" font-family="Helvetica,sans-Serif" font-size="11.00">...</text>
<polygon fill="#ffffff" stroke="transparent" points="1128,-90.35 1128,-108.35 1302,-108.35 1302,-90.35 1128,-90.35"/>
<polygon fill="none" stroke="black" points="1128,-90.35 1128,-108.35 1302,-108.35 1302,-90.35 1128,-90.35"/>
<polygon fill="#ffffff" stroke="transparent" points="1129,-91.35 1129,-107.35 1195,-107.35 1195,-91.35 1129,-91.35"/>
<text text-anchor="start" x="1131" y="-96.55" font-family="Helvetica,sans-Serif" font-size="11.00">&lt; 2</text>
<polygon fill="#ffffff" stroke="transparent" points="1195,-91.35 1195,-107.35 1248,-107.35 1248,-91.35 1195,-91.35"/>
<text text-anchor="start" x="1217.5" y="-96.55" font-family="Helvetica,sans-Serif" font-size="11.00"> &#160;</text>
<polygon fill="#ffffff" stroke="transparent" points="1248,-91.35 1248,-107.35 1301,-107.35 1301,-91.35 1248,-91.35"/>
<text text-anchor="start" x="1291" y="-96.55" font-family="Helvetica,sans-Serif" font-size="11.00"> &#160;</text>
<polygon fill="black" stroke="black" points="1195,-91.35 1195,-107.35 1195,-107.35 1195,-91.35 1195,-91.35"/>
<polygon fill="black" stroke="black" points="1248,-91.35 1248,-107.35 1248,-107.35 1248,-91.35 1248,-91.35"/>
</a>
</g>
</g>
<!-- transaction_forks&#45;&gt;blocks -->
<g id="edge15" class="edge">
<title>transaction_forks:w&#45;&gt;blocks:e</title>
<path fill="none" stroke="black" d="M1112.54,-117.22C801.33,-111.5 646.19,75.92 405,-128.35 329.5,-192.29 463.94,-347.35 365,-347.35"/>
<polygon fill="black" stroke="black" points="1119,-117.28 1126.97,-120.95 1123,-117.31 1127,-117.35 1127,-117.35 1127,-117.35 1123,-117.31 1127.03,-113.75 1119,-117.28 1119,-117.28"/>
<ellipse fill="none" stroke="black" cx="1115.8" cy="-117.25" rx="3.2" ry="3.2"/>
</g>
<!-- transaction_forks&#45;&gt;transactions -->
<g id="edge14" class="edge">
<title>transaction_forks:w&#45;&gt;transactions:e</title>
<path fill="none" stroke="black" d="M1112.56,-118.86C1037.08,-135.97 1089.72,-292.35 998.5,-292.35"/>
<polygon fill="black" stroke="black" points="1119.04,-118.18 1127.38,-120.93 1123.02,-117.77 1127,-117.35 1127,-117.35 1127,-117.35 1123.02,-117.77 1126.62,-113.77 1119.04,-118.18 1119.04,-118.18"/>
<ellipse fill="none" stroke="black" cx="1115.86" cy="-118.52" rx="3.2" ry="3.2"/>
</g>
</g>
</svg>
