<?xml version="1.0" encoding="UTF-8" standalone="no"?>
<!DOCTYPE svg PUBLIC "-//W3C//DTD SVG 1.1//EN"
 "http://www.w3.org/Graphics/SVG/1.1/DTD/svg11.dtd">
<!-- Generated by graphviz version 2.43.0 (0)
 -->
<!-- Title: twoDegreesRelationshipsDiagram Pages: 1 -->
<svg width="862pt" height="660pt"
 viewBox="0.00 0.00 862.00 660.33" xmlns="http://www.w3.org/2000/svg" xmlns:xlink="http://www.w3.org/1999/xlink">
<g id="graph0" class="graph" transform="scale(1 1) rotate(0) translate(4 656.33)">
<title>twoDegreesRelationshipsDiagram</title>
<polygon fill="#ffffff" stroke="transparent" points="-4,4 -4,-656.33 858,-656.33 858,4 -4,4"/>
<text text-anchor="middle" x="79.5" y="-7.2" font-family="Helvetica,sans-Serif" font-size="11.00">Generated by SchemaSpy</text>
<!-- internal_transactions -->
<g id="node1" class="node">
<title>internal_transactions</title>
<g id="a_node1"><a xlink:href="../../tables/internal_transactions.html" xlink:title="internal_transactions" target="_top">
<polygon fill="#ffffff" stroke="transparent" points="557.5,-590.33 557.5,-648.33 759.5,-648.33 759.5,-590.33 557.5,-590.33"/>
<polygon fill="#f5f5f5" stroke="transparent" points="557.5,-626.33 557.5,-648.33 759.5,-648.33 759.5,-626.33 557.5,-626.33"/>
<polygon fill="none" stroke="black" points="557.5,-626.33 557.5,-648.33 759.5,-648.33 759.5,-626.33 557.5,-626.33"/>
<text text-anchor="start" x="562.5" y="-635.53" font-family="Helvetica,sans-Serif" font-weight="bold" font-size="11.00">internal_transactions</text>
<text text-anchor="start" x="717.5" y="-634.53" font-family="Helvetica,sans-Serif" font-size="11.00">[table]</text>
<polygon fill="none" stroke="black" points="557.5,-608.33 557.5,-626.33 759.5,-626.33 759.5,-608.33 557.5,-608.33"/>
<text text-anchor="start" x="560.5" y="-614.53" font-family="Helvetica,sans-Serif" font-size="11.00">...</text>
<polygon fill="#ffffff" stroke="transparent" points="557.5,-590.33 557.5,-608.33 759.5,-608.33 759.5,-590.33 557.5,-590.33"/>
<polygon fill="none" stroke="black" points="557.5,-590.33 557.5,-608.33 759.5,-608.33 759.5,-590.33 557.5,-590.33"/>
<polygon fill="#ffffff" stroke="transparent" points="558.5,-591.33 558.5,-607.33 633.5,-607.33 633.5,-591.33 558.5,-591.33"/>
<text text-anchor="start" x="560.5" y="-596.53" font-family="Helvetica,sans-Serif" font-size="11.00">&lt; 2</text>
<polygon fill="#ffffff" stroke="transparent" points="633.5,-591.33 633.5,-607.33 696.5,-607.33 696.5,-591.33 633.5,-591.33"/>
<text text-anchor="start" x="661" y="-596.53" font-family="Helvetica,sans-Serif" font-size="11.00"> &#160;</text>
<polygon fill="#ffffff" stroke="transparent" points="696.5,-591.33 696.5,-607.33 758.5,-607.33 758.5,-591.33 696.5,-591.33"/>
<text text-anchor="start" x="748.5" y="-596.53" font-family="Helvetica,sans-Serif" font-size="11.00"> &#160;</text>
<polygon fill="black" stroke="black" points="633.5,-591.33 633.5,-607.33 633.5,-607.33 633.5,-591.33 633.5,-591.33"/>
<polygon fill="black" stroke="black" points="696.5,-591.33 696.5,-607.33 696.5,-607.33 696.5,-591.33 696.5,-591.33"/>
</a>
</g>
</g>
<!-- blocks -->
<g id="node2" class="node">
<title>blocks</title>
<g id="a_node2"><a xlink:href="../../tables/blocks.html" xlink:title="blocks" target="_top">
<polygon fill="#ffffff" stroke="transparent" points="8,-300.33 8,-358.33 101,-358.33 101,-300.33 8,-300.33"/>
<polygon fill="#f5f5f5" stroke="transparent" points="8.5,-336.33 8.5,-358.33 101.5,-358.33 101.5,-336.33 8.5,-336.33"/>
<polygon fill="none" stroke="black" points="8.5,-336.33 8.5,-358.33 101.5,-358.33 101.5,-336.33 8.5,-336.33"/>
<text text-anchor="start" x="13.5" y="-345.53" font-family="Helvetica,sans-Serif" font-weight="bold" font-size="11.00">blocks</text>
<text text-anchor="start" x="59.5" y="-344.53" font-family="Helvetica,sans-Serif" font-size="11.00">[table]</text>
<polygon fill="none" stroke="black" points="8.5,-318.33 8.5,-336.33 101.5,-336.33 101.5,-318.33 8.5,-318.33"/>
<text text-anchor="start" x="11.5" y="-324.53" font-family="Helvetica,sans-Serif" font-size="11.00">...</text>
<polygon fill="#ffffff" stroke="transparent" points="8.5,-300.33 8.5,-318.33 101.5,-318.33 101.5,-300.33 8.5,-300.33"/>
<polygon fill="none" stroke="black" points="8.5,-300.33 8.5,-318.33 101.5,-318.33 101.5,-300.33 8.5,-300.33"/>
<polygon fill="#ffffff" stroke="transparent" points="9.5,-301.33 9.5,-317.33 36.5,-317.33 36.5,-301.33 9.5,-301.33"/>
<text text-anchor="start" x="11.5" y="-306.53" font-family="Helvetica,sans-Serif" font-size="11.00"> &#160;</text>
<polygon fill="#ffffff" stroke="transparent" points="36.5,-301.33 36.5,-317.33 62.5,-317.33 62.5,-301.33 36.5,-301.33"/>
<text text-anchor="start" x="45.5" y="-306.53" font-family="Helvetica,sans-Serif" font-size="11.00"> &#160;</text>
<polygon fill="#ffffff" stroke="transparent" points="62.5,-301.33 62.5,-317.33 100.5,-317.33 100.5,-301.33 62.5,-301.33"/>
<text text-anchor="start" x="78.5" y="-306.53" font-family="Helvetica,sans-Serif" font-size="11.00">9 &gt;</text>
<polygon fill="black" stroke="black" points="36.5,-301.33 36.5,-317.33 36.5,-317.33 36.5,-301.33 36.5,-301.33"/>
<polygon fill="black" stroke="black" points="62.5,-301.33 62.5,-317.33 62.5,-317.33 62.5,-301.33 62.5,-301.33"/>
</a>
</g>
</g>
<!-- internal_transactions&#45;&gt;blocks -->
<g id="edge1" class="edge">
<title>internal_transactions:w&#45;&gt;blocks:e</title>
<path fill="none" stroke="black" d="M541.94,-617.46C364.99,-620.65 271.55,-679.53 142,-552.33 105.78,-516.76 153.26,-327.33 102.5,-327.33"/>
<polygon fill="black" stroke="black" points="548.5,-617.4 556.53,-620.93 552.5,-617.36 556.5,-617.33 556.5,-617.33 556.5,-617.33 552.5,-617.36 556.47,-613.73 548.5,-617.4 548.5,-617.4"/>
<ellipse fill="none" stroke="black" cx="545.3" cy="-617.43" rx="3.2" ry="3.2"/>
</g>
<!-- transactions -->
<g id="node3" class="node">
<title>transactions</title>
<g id="a_node3"><a xlink:href="../../tables/transactions.html" xlink:title="transactions" target="_top">
<polygon fill="#ffffff" stroke="transparent" points="150,-126.33 150,-514.33 422,-514.33 422,-126.33 150,-126.33"/>
<polygon fill="#f5f5f5" stroke="transparent" points="150,-492.33 150,-514.33 422,-514.33 422,-492.33 150,-492.33"/>
<polygon fill="none" stroke="black" points="150,-492.33 150,-514.33 422,-514.33 422,-492.33 150,-492.33"/>
<text text-anchor="start" x="155" y="-501.53" font-family="Helvetica,sans-Serif" font-weight="bold" font-size="11.00">transactions</text>
<text text-anchor="start" x="380" y="-500.53" font-family="Helvetica,sans-Serif" font-size="11.00">[table]</text>
<polygon fill="#ffffff" stroke="transparent" points="150,-470.33 150,-492.33 422,-492.33 422,-470.33 150,-470.33"/>
<polygon fill="none" stroke="black" points="150,-470.33 150,-492.33 422,-492.33 422,-470.33 150,-470.33"/>
<text text-anchor="start" x="170" y="-478.53" font-family="Helvetica,sans-Serif" font-size="11.00">error</text>
<polygon fill="none" stroke="black" points="150,-448.33 150,-470.33 422,-470.33 422,-448.33 150,-448.33"/>
<image xlink:href="../../images/primaryKeys.png" width="11px" height="12px" preserveAspectRatio="xMinYMin meet" x="155" y="-465.327"/>
<text text-anchor="start" x="170" y="-456.53" font-family="Helvetica,sans-Serif" font-size="11.00">hash</text>
<polygon fill="#ffffff" stroke="transparent" points="150,-426.33 150,-448.33 422,-448.33 422,-426.33 150,-426.33"/>
<polygon fill="none" stroke="black" points="150,-426.33 150,-448.33 422,-448.33 422,-426.33 150,-426.33"/>
<image xlink:href="../../images/foreignKeys.png" width="11px" height="12px" preserveAspectRatio="xMinYMin meet" x="155" y="-443.327"/>
<text text-anchor="start" x="170" y="-434.53" font-family="Helvetica,sans-Serif" font-size="11.00">index</text>
<polygon fill="#ffffff" stroke="transparent" points="150,-404.33 150,-426.33 422,-426.33 422,-404.33 150,-404.33"/>
<polygon fill="none" stroke="black" points="150,-404.33 150,-426.33 422,-426.33 422,-404.33 150,-404.33"/>
<text text-anchor="start" x="170" y="-412.53" font-family="Helvetica,sans-Serif" font-size="11.00">nonce</text>
<polygon fill="#ffffff" stroke="transparent" points="150,-382.33 150,-404.33 422,-404.33 422,-382.33 150,-382.33"/>
<polygon fill="none" stroke="black" points="150,-382.33 150,-404.33 422,-404.33 422,-382.33 150,-382.33"/>
<text text-anchor="start" x="170" y="-390.53" font-family="Helvetica,sans-Serif" font-size="11.00">status</text>
<polygon fill="#ffffff" stroke="transparent" points="150,-360.33 150,-382.33 422,-382.33 422,-360.33 150,-360.33"/>
<polygon fill="none" stroke="black" points="150,-360.33 150,-382.33 422,-382.33 422,-360.33 150,-360.33"/>
<text text-anchor="start" x="170" y="-368.53" font-family="Helvetica,sans-Serif" font-size="11.00">inserted_at</text>
<polygon fill="#ffffff" stroke="transparent" points="150,-338.33 150,-360.33 422,-360.33 422,-338.33 150,-338.33"/>
<polygon fill="none" stroke="black" points="150,-338.33 150,-360.33 422,-360.33 422,-338.33 150,-338.33"/>
<text text-anchor="start" x="170" y="-346.53" font-family="Helvetica,sans-Serif" font-size="11.00">updated_at</text>
<polygon fill="#ffffff" stroke="transparent" points="150,-316.33 150,-338.33 422,-338.33 422,-316.33 150,-316.33"/>
<polygon fill="none" stroke="black" points="150,-316.33 150,-338.33 422,-338.33 422,-316.33 150,-316.33"/>
<image xlink:href="../../images/foreignKeys.png" width="11px" height="12px" preserveAspectRatio="xMinYMin meet" x="155" y="-333.327"/>
<text text-anchor="start" x="170" y="-324.53" font-family="Helvetica,sans-Serif" font-size="11.00">block_hash</text>
<polygon fill="#ffffff" stroke="transparent" points="150,-294.33 150,-316.33 422,-316.33 422,-294.33 150,-294.33"/>
<polygon fill="none" stroke="black" points="150,-294.33 150,-316.33 422,-316.33 422,-294.33 150,-294.33"/>
<text text-anchor="start" x="170" y="-302.53" font-family="Helvetica,sans-Serif" font-size="11.00">block_number</text>
<polygon fill="#ffffff" stroke="transparent" points="150,-272.33 150,-294.33 422,-294.33 422,-272.33 150,-272.33"/>
<polygon fill="none" stroke="black" points="150,-272.33 150,-294.33 422,-294.33 422,-272.33 150,-272.33"/>
<text text-anchor="start" x="170" y="-280.53" font-family="Helvetica,sans-Serif" font-size="11.00">from_address_hash</text>
<polygon fill="#ffffff" stroke="transparent" points="150,-250.33 150,-272.33 422,-272.33 422,-250.33 150,-250.33"/>
<polygon fill="none" stroke="black" points="150,-250.33 150,-272.33 422,-272.33 422,-250.33 150,-250.33"/>
<text text-anchor="start" x="170" y="-258.53" font-family="Helvetica,sans-Serif" font-size="11.00">to_address_hash</text>
<polygon fill="#ffffff" stroke="transparent" points="150,-228.33 150,-250.33 422,-250.33 422,-228.33 150,-228.33"/>
<polygon fill="none" stroke="black" points="150,-228.33 150,-250.33 422,-250.33 422,-228.33 150,-228.33"/>
<text text-anchor="start" x="170" y="-236.53" font-family="Helvetica,sans-Serif" font-size="11.00">created_contract_address_hash</text>
<polygon fill="#ffffff" stroke="transparent" points="150,-206.33 150,-228.33 422,-228.33 422,-206.33 150,-206.33"/>
<polygon fill="none" stroke="black" points="150,-206.33 150,-228.33 422,-228.33 422,-206.33 150,-206.33"/>
<text text-anchor="start" x="170" y="-214.53" font-family="Helvetica,sans-Serif" font-size="11.00">created_contract_code_indexed_at</text>
<polygon fill="#ffffff" stroke="transparent" points="150,-184.33 150,-206.33 422,-206.33 422,-184.33 150,-184.33"/>
<polygon fill="none" stroke="black" points="150,-184.33 150,-206.33 422,-206.33 422,-184.33 150,-184.33"/>
<text text-anchor="start" x="170" y="-192.53" font-family="Helvetica,sans-Serif" font-size="11.00">block_timestamp</text>
<polygon fill="#ffffff" stroke="transparent" points="150,-162.33 150,-184.33 422,-184.33 422,-162.33 150,-162.33"/>
<polygon fill="none" stroke="black" points="150,-162.33 150,-184.33 422,-184.33 422,-162.33 150,-162.33"/>
<text text-anchor="start" x="170" y="-170.53" font-family="Helvetica,sans-Serif" font-size="11.00">block_consensus</text>
<polygon fill="none" stroke="black" points="150,-144.33 150,-162.33 422,-162.33 422,-144.33 150,-144.33"/>
<text text-anchor="start" x="153" y="-150.53" font-family="Helvetica,sans-Serif" font-size="11.00">...</text>
<polygon fill="#ffffff" stroke="transparent" points="150,-126.33 150,-144.33 422,-144.33 422,-126.33 150,-126.33"/>
<polygon fill="none" stroke="black" points="150,-126.33 150,-144.33 422,-144.33 422,-126.33 150,-126.33"/>
<polygon fill="#ffffff" stroke="transparent" points="151,-127.33 151,-143.33 245,-143.33 245,-127.33 151,-127.33"/>
<text text-anchor="start" x="153" y="-132.53" font-family="Helvetica,sans-Serif" font-size="11.00">&lt; 1</text>
<polygon fill="#ffffff" stroke="transparent" points="245,-127.33 245,-143.33 327,-143.33 327,-127.33 245,-127.33"/>
<text text-anchor="start" x="282" y="-132.53" font-family="Helvetica,sans-Serif" font-size="11.00"> &#160;</text>
<polygon fill="#ffffff" stroke="transparent" points="327,-127.33 327,-143.33 421,-143.33 421,-127.33 327,-127.33"/>
<text text-anchor="start" x="399" y="-132.53" font-family="Helvetica,sans-Serif" font-size="11.00">7 &gt;</text>
<polygon fill="black" stroke="black" points="245,-127.33 245,-143.33 245,-143.33 245,-127.33 245,-127.33"/>
<polygon fill="black" stroke="black" points="327,-127.33 327,-143.33 327,-143.33 327,-127.33 327,-127.33"/>
</a>
</g>
</g>
<!-- internal_transactions&#45;&gt;transactions -->
<g id="edge2" class="edge">
<title>internal_transactions:w&#45;&gt;transactions:e</title>
<path fill="none" stroke="black" d="M541.82,-617.1C507.39,-615.89 490.08,-609.02 463,-580.33 424.12,-539.14 479.64,-459.33 423,-459.33"/>
<polygon fill="black" stroke="black" points="548.5,-617.21 556.45,-620.93 552.5,-617.27 556.5,-617.33 556.5,-617.33 556.5,-617.33 552.5,-617.27 556.55,-613.73 548.5,-617.21 548.5,-617.21"/>
<ellipse fill="none" stroke="black" cx="545.3" cy="-617.16" rx="3.2" ry="3.2"/>
</g>
<!-- transactions&#45;&gt;blocks -->
<g id="edge12" class="edge">
<title>transactions:w&#45;&gt;blocks:e</title>
<path fill="none" stroke="black" d="M134.55,-327.33C124.2,-327.33 117.35,-327.33 102.5,-327.33"/>
<polygon fill="black" stroke="black" points="141,-327.33 149,-330.93 145,-327.33 149,-327.33 149,-327.33 149,-327.33 145,-327.33 149,-323.73 141,-327.33 141,-327.33"/>
<ellipse fill="none" stroke="black" cx="137.8" cy="-327.33" rx="3.2" ry="3.2"/>
</g>
<!-- logs -->
<g id="node4" class="node">
<title>logs</title>
<g id="a_node4"><a xlink:href="../../tables/logs.html" xlink:title="logs" target="_top">
<polygon fill="#ffffff" stroke="transparent" points="620,-511.33 620,-569.33 697,-569.33 697,-511.33 620,-511.33"/>
<polygon fill="#f5f5f5" stroke="transparent" points="620.5,-547.33 620.5,-569.33 697.5,-569.33 697.5,-547.33 620.5,-547.33"/>
<polygon fill="none" stroke="black" points="620.5,-547.33 620.5,-569.33 697.5,-569.33 697.5,-547.33 620.5,-547.33"/>
<text text-anchor="start" x="625.5" y="-556.53" font-family="Helvetica,sans-Serif" font-weight="bold" font-size="11.00">logs</text>
<text text-anchor="start" x="655.5" y="-555.53" font-family="Helvetica,sans-Serif" font-size="11.00">[table]</text>
<polygon fill="none" stroke="black" points="620.5,-529.33 620.5,-547.33 697.5,-547.33 697.5,-529.33 620.5,-529.33"/>
<text text-anchor="start" x="623.5" y="-535.53" font-family="Helvetica,sans-Serif" font-size="11.00">...</text>
<polygon fill="#ffffff" stroke="transparent" points="620.5,-511.33 620.5,-529.33 697.5,-529.33 697.5,-511.33 620.5,-511.33"/>
<polygon fill="none" stroke="black" points="620.5,-511.33 620.5,-529.33 697.5,-529.33 697.5,-511.33 620.5,-511.33"/>
<polygon fill="#ffffff" stroke="transparent" points="621.5,-512.33 621.5,-528.33 654.5,-528.33 654.5,-512.33 621.5,-512.33"/>
<text text-anchor="start" x="623.5" y="-517.53" font-family="Helvetica,sans-Serif" font-size="11.00">&lt; 2</text>
<polygon fill="#ffffff" stroke="transparent" points="654.5,-512.33 654.5,-528.33 675.5,-528.33 675.5,-512.33 654.5,-512.33"/>
<text text-anchor="start" x="661" y="-517.53" font-family="Helvetica,sans-Serif" font-size="11.00"> &#160;</text>
<polygon fill="#ffffff" stroke="transparent" points="675.5,-512.33 675.5,-528.33 696.5,-528.33 696.5,-512.33 675.5,-512.33"/>
<text text-anchor="start" x="686.5" y="-517.53" font-family="Helvetica,sans-Serif" font-size="11.00"> &#160;</text>
<polygon fill="black" stroke="black" points="654.5,-512.33 654.5,-528.33 654.5,-528.33 654.5,-512.33 654.5,-512.33"/>
<polygon fill="black" stroke="black" points="675.5,-512.33 675.5,-528.33 675.5,-528.33 675.5,-512.33 675.5,-512.33"/>
</a>
</g>
</g>
<!-- logs&#45;&gt;blocks -->
<g id="edge3" class="edge">
<title>logs:w&#45;&gt;blocks:e</title>
<path fill="none" stroke="black" d="M604.83,-538.62C488.8,-542.86 219.66,-590.82 142,-525.33 73.4,-467.48 192.23,-327.33 102.5,-327.33"/>
<polygon fill="black" stroke="black" points="611.5,-538.49 619.57,-541.93 615.5,-538.41 619.5,-538.33 619.5,-538.33 619.5,-538.33 615.5,-538.41 619.43,-534.73 611.5,-538.49 611.5,-538.49"/>
<ellipse fill="none" stroke="black" cx="608.3" cy="-538.55" rx="3.2" ry="3.2"/>
</g>
<!-- logs&#45;&gt;transactions -->
<g id="edge4" class="edge">
<title>logs:w&#45;&gt;transactions:e</title>
<path fill="none" stroke="black" d="M604.73,-538.29C544.49,-537.94 520.51,-534.33 463,-501.33 440.64,-488.5 448.78,-459.33 423,-459.33"/>
<polygon fill="black" stroke="black" points="611.5,-538.31 619.49,-541.93 615.5,-538.32 619.5,-538.33 619.5,-538.33 619.5,-538.33 615.5,-538.32 619.51,-534.73 611.5,-538.31 611.5,-538.31"/>
<ellipse fill="none" stroke="black" cx="608.3" cy="-538.3" rx="3.2" ry="3.2"/>
</g>
<!-- pending_transaction_operations -->
<g id="node5" class="node">
<title>pending_transaction_operations</title>
<g id="a_node5"><a xlink:href="../../tables/pending_transaction_operations.html" xlink:title="pending_transaction_operations" target="_top">
<polygon fill="#ffffff" stroke="transparent" points="471,-380.33 471,-490.33 846,-490.33 846,-380.33 471,-380.33"/>
<polygon fill="#f5f5f5" stroke="transparent" points="473.5,-466.33 473.5,-488.33 844.5,-488.33 844.5,-466.33 473.5,-466.33"/>
<polygon fill="none" stroke="black" points="473.5,-466.33 473.5,-488.33 844.5,-488.33 844.5,-466.33 473.5,-466.33"/>
<text text-anchor="start" x="478.5" y="-475.53" font-family="Helvetica,sans-Serif" font-weight="bold" font-size="11.00">pending_transaction_operations</text>
<text text-anchor="start" x="802.5" y="-474.53" font-family="Helvetica,sans-Serif" font-size="11.00">[table]</text>
<polygon fill="none" stroke="black" points="473.5,-444.33 473.5,-466.33 729.5,-466.33 729.5,-444.33 473.5,-444.33"/>
<image xlink:href="../../images/primaryKeys.png" width="11px" height="12px" preserveAspectRatio="xMinYMin meet" x="478.5" y="-461.327"/>
<text text-anchor="start" x="493.5" y="-452.53" font-family="Helvetica,sans-Serif" font-size="11.00">transaction_hash</text>
<polygon fill="none" stroke="black" points="729.5,-444.33 729.5,-466.33 844.5,-466.33 844.5,-444.33 729.5,-444.33"/>
<text text-anchor="start" x="732.5" y="-452.53" font-family="Helvetica,sans-Serif" font-size="11.00">bytea[2147483647]</text>
<polygon fill="none" stroke="black" points="473.5,-422.33 473.5,-444.33 729.5,-444.33 729.5,-422.33 473.5,-422.33"/>
<text text-anchor="start" x="493.5" y="-430.53" font-family="Helvetica,sans-Serif" font-size="11.00">inserted_at</text>
<polygon fill="none" stroke="black" points="729.5,-422.33 729.5,-444.33 844.5,-444.33 844.5,-422.33 729.5,-422.33"/>
<text text-anchor="start" x="732.5" y="-430.53" font-family="Helvetica,sans-Serif" font-size="11.00">timestamp[29,6]</text>
<polygon fill="none" stroke="black" points="473.5,-400.33 473.5,-422.33 729.5,-422.33 729.5,-400.33 473.5,-400.33"/>
<text text-anchor="start" x="493.5" y="-408.53" font-family="Helvetica,sans-Serif" font-size="11.00">updated_at</text>
<polygon fill="none" stroke="black" points="729.5,-400.33 729.5,-422.33 844.5,-422.33 844.5,-400.33 729.5,-400.33"/>
<text text-anchor="start" x="732.5" y="-408.53" font-family="Helvetica,sans-Serif" font-size="11.00">timestamp[29,6]</text>
<polygon fill="#ffffff" stroke="transparent" points="473.5,-382.33 473.5,-400.33 844.5,-400.33 844.5,-382.33 473.5,-382.33"/>
<polygon fill="none" stroke="black" points="473.5,-382.33 473.5,-400.33 844.5,-400.33 844.5,-382.33 473.5,-382.33"/>
<polygon fill="#ffffff" stroke="transparent" points="474.5,-383.33 474.5,-399.33 601.5,-399.33 601.5,-383.33 474.5,-383.33"/>
<text text-anchor="start" x="476.5" y="-388.53" font-family="Helvetica,sans-Serif" font-size="11.00">&lt; 1</text>
<polygon fill="#ffffff" stroke="transparent" points="601.5,-383.33 601.5,-399.33 716.5,-399.33 716.5,-383.33 601.5,-383.33"/>
<text text-anchor="start" x="655" y="-388.53" font-family="Helvetica,sans-Serif" font-size="11.00"> &#160;</text>
<polygon fill="#ffffff" stroke="transparent" points="716.5,-383.33 716.5,-399.33 843.5,-399.33 843.5,-383.33 716.5,-383.33"/>
<text text-anchor="start" x="821.5" y="-388.53" font-family="Helvetica,sans-Serif" font-size="11.00">0 &gt;</text>
<polygon fill="black" stroke="black" points="601.5,-383.33 601.5,-399.33 601.5,-399.33 601.5,-383.33 601.5,-383.33"/>
<polygon fill="black" stroke="black" points="716.5,-383.33 716.5,-399.33 716.5,-399.33 716.5,-383.33 716.5,-383.33"/>
<polygon fill="none" stroke="black" stroke-width="2" points="472,-381.33 472,-489.33 845,-489.33 845,-381.33 472,-381.33"/>
</a>
</g>
</g>
<!-- pending_transaction_operations&#45;&gt;transactions -->
<g id="edge5" class="edge">
<title>pending_transaction_operations:w&#45;&gt;transactions:e</title>
<path fill="none" stroke="black" d="M462.03,-455.67C447.96,-456.64 441.11,-459.33 423,-459.33"/>
<polygon fill="black" stroke="black" points="471.57,-451.36 471.83,-459.35 470.23,-459.4 469.97,-451.41 471.57,-451.36"/>
<polyline fill="none" stroke="black" points="472.5,-455.33 468.5,-455.46 "/>
<ellipse fill="none" stroke="black" cx="465.3" cy="-455.56" rx="3.2" ry="3.2"/>
</g>
<!-- signed_authorizations -->
<g id="node6" class="node">
<title>signed_authorizations</title>
<g id="a_node6"><a xlink:href="../../tables/signed_authorizations.html" xlink:title="signed_authorizations" target="_top">
<polygon fill="#ffffff" stroke="transparent" points="554.5,-301.33 554.5,-359.33 762.5,-359.33 762.5,-301.33 554.5,-301.33"/>
<polygon fill="#f5f5f5" stroke="transparent" points="554.5,-337.33 554.5,-359.33 762.5,-359.33 762.5,-337.33 554.5,-337.33"/>
<polygon fill="none" stroke="black" points="554.5,-337.33 554.5,-359.33 762.5,-359.33 762.5,-337.33 554.5,-337.33"/>
<text text-anchor="start" x="559.5" y="-346.53" font-family="Helvetica,sans-Serif" font-weight="bold" font-size="11.00">signed_authorizations</text>
<text text-anchor="start" x="720.5" y="-345.53" font-family="Helvetica,sans-Serif" font-size="11.00">[table]</text>
<polygon fill="none" stroke="black" points="554.5,-319.33 554.5,-337.33 762.5,-337.33 762.5,-319.33 554.5,-319.33"/>
<text text-anchor="start" x="557.5" y="-325.53" font-family="Helvetica,sans-Serif" font-size="11.00">...</text>
<polygon fill="#ffffff" stroke="transparent" points="554.5,-301.33 554.5,-319.33 762.5,-319.33 762.5,-301.33 554.5,-301.33"/>
<polygon fill="none" stroke="black" points="554.5,-301.33 554.5,-319.33 762.5,-319.33 762.5,-301.33 554.5,-301.33"/>
<polygon fill="#ffffff" stroke="transparent" points="555.5,-302.33 555.5,-318.33 632.5,-318.33 632.5,-302.33 555.5,-302.33"/>
<text text-anchor="start" x="557.5" y="-307.53" font-family="Helvetica,sans-Serif" font-size="11.00">&lt; 1</text>
<polygon fill="#ffffff" stroke="transparent" points="632.5,-302.33 632.5,-318.33 697.5,-318.33 697.5,-302.33 632.5,-302.33"/>
<text text-anchor="start" x="661" y="-307.53" font-family="Helvetica,sans-Serif" font-size="11.00"> &#160;</text>
<polygon fill="#ffffff" stroke="transparent" points="697.5,-302.33 697.5,-318.33 761.5,-318.33 761.5,-302.33 697.5,-302.33"/>
<text text-anchor="start" x="751.5" y="-307.53" font-family="Helvetica,sans-Serif" font-size="11.00"> &#160;</text>
<polygon fill="black" stroke="black" points="632.5,-302.33 632.5,-318.33 632.5,-318.33 632.5,-302.33 632.5,-302.33"/>
<polygon fill="black" stroke="black" points="697.5,-302.33 697.5,-318.33 697.5,-318.33 697.5,-302.33 697.5,-302.33"/>
</a>
</g>
</g>
<!-- signed_authorizations&#45;&gt;transactions -->
<g id="edge6" class="edge">
<title>signed_authorizations:w&#45;&gt;transactions:e</title>
<path fill="none" stroke="black" d="M539.05,-328.78C505.42,-331.07 490.51,-342.48 463,-370.33 432.52,-401.18 466.37,-459.33 423,-459.33"/>
<polygon fill="black" stroke="black" points="545.5,-328.58 553.61,-331.93 549.5,-328.45 553.5,-328.33 553.5,-328.33 553.5,-328.33 549.5,-328.45 553.39,-324.73 545.5,-328.58 545.5,-328.58"/>
<ellipse fill="none" stroke="black" cx="542.31" cy="-328.67" rx="3.2" ry="3.2"/>
</g>
<!-- token_transfers -->
<g id="node7" class="node">
<title>token_transfers</title>
<g id="a_node7"><a xlink:href="../../tables/token_transfers.html" xlink:title="token_transfers" target="_top">
<polygon fill="#ffffff" stroke="transparent" points="577.5,-139.33 577.5,-197.33 739.5,-197.33 739.5,-139.33 577.5,-139.33"/>
<polygon fill="#f5f5f5" stroke="transparent" points="577.5,-175.33 577.5,-197.33 739.5,-197.33 739.5,-175.33 577.5,-175.33"/>
<polygon fill="none" stroke="black" points="577.5,-175.33 577.5,-197.33 739.5,-197.33 739.5,-175.33 577.5,-175.33"/>
<text text-anchor="start" x="582.5" y="-184.53" font-family="Helvetica,sans-Serif" font-weight="bold" font-size="11.00">token_transfers</text>
<text text-anchor="start" x="697.5" y="-183.53" font-family="Helvetica,sans-Serif" font-size="11.00">[table]</text>
<polygon fill="none" stroke="black" points="577.5,-157.33 577.5,-175.33 739.5,-175.33 739.5,-157.33 577.5,-157.33"/>
<text text-anchor="start" x="580.5" y="-163.53" font-family="Helvetica,sans-Serif" font-size="11.00">...</text>
<polygon fill="#ffffff" stroke="transparent" points="577.5,-139.33 577.5,-157.33 739.5,-157.33 739.5,-139.33 577.5,-139.33"/>
<polygon fill="none" stroke="black" points="577.5,-139.33 577.5,-157.33 739.5,-157.33 739.5,-139.33 577.5,-139.33"/>
<polygon fill="#ffffff" stroke="transparent" points="578.5,-140.33 578.5,-156.33 640.5,-156.33 640.5,-140.33 578.5,-140.33"/>
<text text-anchor="start" x="580.5" y="-145.53" font-family="Helvetica,sans-Serif" font-size="11.00">&lt; 2</text>
<polygon fill="#ffffff" stroke="transparent" points="640.5,-140.33 640.5,-156.33 689.5,-156.33 689.5,-140.33 640.5,-140.33"/>
<text text-anchor="start" x="661" y="-145.53" font-family="Helvetica,sans-Serif" font-size="11.00"> &#160;</text>
<polygon fill="#ffffff" stroke="transparent" points="689.5,-140.33 689.5,-156.33 738.5,-156.33 738.5,-140.33 689.5,-140.33"/>
<text text-anchor="start" x="728.5" y="-145.53" font-family="Helvetica,sans-Serif" font-size="11.00"> &#160;</text>
<polygon fill="black" stroke="black" points="640.5,-140.33 640.5,-156.33 640.5,-156.33 640.5,-140.33 640.5,-140.33"/>
<polygon fill="black" stroke="black" points="689.5,-140.33 689.5,-156.33 689.5,-156.33 689.5,-140.33 689.5,-140.33"/>
</a>
</g>
</g>
<!-- token_transfers&#45;&gt;blocks -->
<g id="edge7" class="edge">
<title>token_transfers:w&#45;&gt;blocks:e</title>
<path fill="none" stroke="black" d="M562.11,-165.71C505.92,-160.73 492.83,-126.75 430,-116.33 366.86,-105.85 191.24,-75.45 142,-116.33 68.59,-177.27 197.91,-327.33 102.5,-327.33"/>
<polygon fill="black" stroke="black" points="568.51,-165.99 576.35,-169.92 572.5,-166.16 576.5,-166.33 576.5,-166.33 576.5,-166.33 572.5,-166.16 576.65,-162.73 568.51,-165.99 568.51,-165.99"/>
<ellipse fill="none" stroke="black" cx="565.31" cy="-165.85" rx="3.2" ry="3.2"/>
</g>
<!-- token_transfers&#45;&gt;transactions -->
<g id="edge8" class="edge">
<title>token_transfers:w&#45;&gt;transactions:e</title>
<path fill="none" stroke="black" d="M561.93,-166.45C517.28,-167.32 493.75,-173.76 463,-212.33 428.33,-255.8 478.6,-459.33 423,-459.33"/>
<polygon fill="black" stroke="black" points="568.5,-166.39 576.53,-169.93 572.5,-166.36 576.5,-166.33 576.5,-166.33 576.5,-166.33 572.5,-166.36 576.47,-162.73 568.5,-166.39 568.5,-166.39"/>
<ellipse fill="none" stroke="black" cx="565.3" cy="-166.42" rx="3.2" ry="3.2"/>
</g>
<!-- transaction_actions -->
<g id="node8" class="node">
<title>transaction_actions</title>
<g id="a_node8"><a xlink:href="../../tables/transaction_actions.html" xlink:title="transaction_actions" target="_top">
<polygon fill="#ffffff" stroke="transparent" points="563.5,-222.33 563.5,-280.33 753.5,-280.33 753.5,-222.33 563.5,-222.33"/>
<polygon fill="#f5f5f5" stroke="transparent" points="563.5,-258.33 563.5,-280.33 753.5,-280.33 753.5,-258.33 563.5,-258.33"/>
<polygon fill="none" stroke="black" points="563.5,-258.33 563.5,-280.33 753.5,-280.33 753.5,-258.33 563.5,-258.33"/>
<text text-anchor="start" x="568.5" y="-267.53" font-family="Helvetica,sans-Serif" font-weight="bold" font-size="11.00">transaction_actions</text>
<text text-anchor="start" x="711.5" y="-266.53" font-family="Helvetica,sans-Serif" font-size="11.00">[table]</text>
<polygon fill="none" stroke="black" points="563.5,-240.33 563.5,-258.33 753.5,-258.33 753.5,-240.33 563.5,-240.33"/>
<text text-anchor="start" x="566.5" y="-246.53" font-family="Helvetica,sans-Serif" font-size="11.00">...</text>
<polygon fill="#ffffff" stroke="transparent" points="563.5,-222.33 563.5,-240.33 753.5,-240.33 753.5,-222.33 563.5,-222.33"/>
<polygon fill="none" stroke="black" points="563.5,-222.33 563.5,-240.33 753.5,-240.33 753.5,-222.33 563.5,-222.33"/>
<polygon fill="#ffffff" stroke="transparent" points="564.5,-223.33 564.5,-239.33 635.5,-239.33 635.5,-223.33 564.5,-223.33"/>
<text text-anchor="start" x="566.5" y="-228.53" font-family="Helvetica,sans-Serif" font-size="11.00">&lt; 1</text>
<polygon fill="#ffffff" stroke="transparent" points="635.5,-223.33 635.5,-239.33 694.5,-239.33 694.5,-223.33 635.5,-223.33"/>
<text text-anchor="start" x="661" y="-228.53" font-family="Helvetica,sans-Serif" font-size="11.00"> &#160;</text>
<polygon fill="#ffffff" stroke="transparent" points="694.5,-223.33 694.5,-239.33 752.5,-239.33 752.5,-223.33 694.5,-223.33"/>
<text text-anchor="start" x="742.5" y="-228.53" font-family="Helvetica,sans-Serif" font-size="11.00"> &#160;</text>
<polygon fill="black" stroke="black" points="635.5,-223.33 635.5,-239.33 635.5,-239.33 635.5,-223.33 635.5,-223.33"/>
<polygon fill="black" stroke="black" points="694.5,-223.33 694.5,-239.33 694.5,-239.33 694.5,-223.33 694.5,-223.33"/>
</a>
</g>
</g>
<!-- transaction_actions&#45;&gt;transactions -->
<g id="edge9" class="edge">
<title>transaction_actions:w&#45;&gt;transactions:e</title>
<path fill="none" stroke="black" d="M547.94,-249.55C509.98,-250.84 490.68,-258.63 463,-291.33 413.4,-349.91 499.75,-459.33 423,-459.33"/>
<polygon fill="black" stroke="black" points="554.5,-249.45 562.55,-252.93 558.5,-249.39 562.5,-249.33 562.5,-249.33 562.5,-249.33 558.5,-249.39 562.45,-245.73 554.5,-249.45 554.5,-249.45"/>
<ellipse fill="none" stroke="black" cx="551.3" cy="-249.5" rx="3.2" ry="3.2"/>
</g>
<!-- transaction_forks -->
<g id="node9" class="node">
<title>transaction_forks</title>
<g id="a_node9"><a xlink:href="../../tables/transaction_forks.html" xlink:title="transaction_forks" target="_top">
<polygon fill="#ffffff" stroke="transparent" points="571.5,-52.33 571.5,-110.33 745.5,-110.33 745.5,-52.33 571.5,-52.33"/>
<polygon fill="#f5f5f5" stroke="transparent" points="571.5,-88.33 571.5,-110.33 745.5,-110.33 745.5,-88.33 571.5,-88.33"/>
<polygon fill="none" stroke="black" points="571.5,-88.33 571.5,-110.33 745.5,-110.33 745.5,-88.33 571.5,-88.33"/>
<text text-anchor="start" x="576.5" y="-97.53" font-family="Helvetica,sans-Serif" font-weight="bold" font-size="11.00">transaction_forks</text>
<text text-anchor="start" x="703.5" y="-96.53" font-family="Helvetica,sans-Serif" font-size="11.00">[table]</text>
<polygon fill="none" stroke="black" points="571.5,-70.33 571.5,-88.33 745.5,-88.33 745.5,-70.33 571.5,-70.33"/>
<text text-anchor="start" x="574.5" y="-76.53" font-family="Helvetica,sans-Serif" font-size="11.00">...</text>
<polygon fill="#ffffff" stroke="transparent" points="571.5,-52.33 571.5,-70.33 745.5,-70.33 745.5,-52.33 571.5,-52.33"/>
<polygon fill="none" stroke="black" points="571.5,-52.33 571.5,-70.33 745.5,-70.33 745.5,-52.33 571.5,-52.33"/>
<polygon fill="#ffffff" stroke="transparent" points="572.5,-53.33 572.5,-69.33 638.5,-69.33 638.5,-53.33 572.5,-53.33"/>
<text text-anchor="start" x="574.5" y="-58.53" font-family="Helvetica,sans-Serif" font-size="11.00">&lt; 2</text>
<polygon fill="#ffffff" stroke="transparent" points="638.5,-53.33 638.5,-69.33 691.5,-69.33 691.5,-53.33 638.5,-53.33"/>
<text text-anchor="start" x="661" y="-58.53" font-family="Helvetica,sans-Serif" font-size="11.00"> &#160;</text>
<polygon fill="#ffffff" stroke="transparent" points="691.5,-53.33 691.5,-69.33 744.5,-69.33 744.5,-53.33 691.5,-53.33"/>
<text text-anchor="start" x="734.5" y="-58.53" font-family="Helvetica,sans-Serif" font-size="11.00"> &#160;</text>
<polygon fill="black" stroke="black" points="638.5,-53.33 638.5,-69.33 638.5,-69.33 638.5,-53.33 638.5,-53.33"/>
<polygon fill="black" stroke="black" points="691.5,-53.33 691.5,-69.33 691.5,-69.33 691.5,-53.33 691.5,-53.33"/>
</a>
</g>
</g>
<!-- transaction_forks&#45;&gt;blocks -->
<g id="edge11" class="edge">
<title>transaction_forks:w&#45;&gt;blocks:e</title>
<path fill="none" stroke="black" d="M555.9,-79.11C375.05,-73.68 281.87,29.68 142,-92.33 102.09,-127.14 155.45,-327.33 102.5,-327.33"/>
<polygon fill="black" stroke="black" points="562.5,-79.21 570.45,-82.93 566.5,-79.27 570.5,-79.33 570.5,-79.33 570.5,-79.33 566.5,-79.27 570.55,-75.73 562.5,-79.21 562.5,-79.21"/>
<ellipse fill="none" stroke="black" cx="559.3" cy="-79.16" rx="3.2" ry="3.2"/>
</g>
<!-- transaction_forks&#45;&gt;transactions -->
<g id="edge10" class="edge">
<title>transaction_forks:w&#45;&gt;transactions:e</title>
<path fill="none" stroke="black" d="M555.85,-79.56C513.08,-81.1 490.94,-90.85 463,-129.33 419.6,-189.1 496.87,-459.33 423,-459.33"/>
<polygon fill="black" stroke="black" points="562.5,-79.46 570.56,-82.93 566.5,-79.39 570.5,-79.33 570.5,-79.33 570.5,-79.33 566.5,-79.39 570.44,-75.73 562.5,-79.46 562.5,-79.46"/>
<ellipse fill="none" stroke="black" cx="559.3" cy="-79.51" rx="3.2" ry="3.2"/>
</g>
</g>
</svg>
