<?xml version="1.0" encoding="UTF-8" standalone="no"?>
<!DOCTYPE svg PUBLIC "-//W3C//DTD SVG 1.1//EN"
 "http://www.w3.org/Graphics/SVG/1.1/DTD/svg11.dtd">
<!-- Generated by graphviz version 2.43.0 (0)
 -->
<!-- Title: twoDegreesRelationshipsDiagramImplied Pages: 1 -->
<svg width="1047pt" height="665pt"
 viewBox="0.00 0.00 1047.00 665.41" xmlns="http://www.w3.org/2000/svg" xmlns:xlink="http://www.w3.org/1999/xlink">
<g id="graph0" class="graph" transform="scale(1 1) rotate(0) translate(4 661.41)">
<title>twoDegreesRelationshipsDiagramImplied</title>
<polygon fill="#ffffff" stroke="transparent" points="-4,4 -4,-661.41 1043,-661.41 1043,4 -4,4"/>
<text text-anchor="middle" x="79.5" y="-7.2" font-family="Helvetica,sans-Serif" font-size="11.00">Generated by SchemaSpy</text>
<!-- internal_transactions -->
<g id="node1" class="node">
<title>internal_transactions</title>
<g id="a_node1"><a xlink:href="../../tables/internal_transactions.html" xlink:title="internal_transactions" target="_top">
<polygon fill="#ffffff" stroke="transparent" points="742.5,-579.63 742.5,-637.63 944.5,-637.63 944.5,-579.63 742.5,-579.63"/>
<polygon fill="#f5f5f5" stroke="transparent" points="742.5,-615.63 742.5,-637.63 944.5,-637.63 944.5,-615.63 742.5,-615.63"/>
<polygon fill="none" stroke="black" points="742.5,-615.63 742.5,-637.63 944.5,-637.63 944.5,-615.63 742.5,-615.63"/>
<text text-anchor="start" x="747.5" y="-624.83" font-family="Helvetica,sans-Serif" font-weight="bold" font-size="11.00">internal_transactions</text>
<text text-anchor="start" x="902.5" y="-623.83" font-family="Helvetica,sans-Serif" font-size="11.00">[table]</text>
<polygon fill="none" stroke="black" points="742.5,-597.63 742.5,-615.63 944.5,-615.63 944.5,-597.63 742.5,-597.63"/>
<text text-anchor="start" x="745.5" y="-603.83" font-family="Helvetica,sans-Serif" font-size="11.00">...</text>
<polygon fill="#ffffff" stroke="transparent" points="742.5,-579.63 742.5,-597.63 944.5,-597.63 944.5,-579.63 742.5,-579.63"/>
<polygon fill="none" stroke="black" points="742.5,-579.63 742.5,-597.63 944.5,-597.63 944.5,-579.63 742.5,-579.63"/>
<polygon fill="#ffffff" stroke="transparent" points="743.5,-580.63 743.5,-596.63 818.5,-596.63 818.5,-580.63 743.5,-580.63"/>
<text text-anchor="start" x="745.5" y="-585.83" font-family="Helvetica,sans-Serif" font-size="11.00">&lt; 4</text>
<polygon fill="#ffffff" stroke="transparent" points="818.5,-580.63 818.5,-596.63 881.5,-596.63 881.5,-580.63 818.5,-580.63"/>
<text text-anchor="start" x="846" y="-585.83" font-family="Helvetica,sans-Serif" font-size="11.00"> &#160;</text>
<polygon fill="#ffffff" stroke="transparent" points="881.5,-580.63 881.5,-596.63 943.5,-596.63 943.5,-580.63 881.5,-580.63"/>
<text text-anchor="start" x="933.5" y="-585.83" font-family="Helvetica,sans-Serif" font-size="11.00"> &#160;</text>
<polygon fill="black" stroke="black" points="818.5,-580.63 818.5,-596.63 818.5,-596.63 818.5,-580.63 818.5,-580.63"/>
<polygon fill="black" stroke="black" points="881.5,-580.63 881.5,-596.63 881.5,-596.63 881.5,-580.63 881.5,-580.63"/>
</a>
</g>
</g>
<!-- blocks -->
<g id="node2" class="node">
<title>blocks</title>
<g id="a_node2"><a xlink:href="../../tables/blocks.html" xlink:title="blocks" target="_top">
<polygon fill="#ffffff" stroke="transparent" points="8,-219.63 8,-277.63 101,-277.63 101,-219.63 8,-219.63"/>
<polygon fill="#f5f5f5" stroke="transparent" points="8.5,-255.63 8.5,-277.63 101.5,-277.63 101.5,-255.63 8.5,-255.63"/>
<polygon fill="none" stroke="black" points="8.5,-255.63 8.5,-277.63 101.5,-277.63 101.5,-255.63 8.5,-255.63"/>
<text text-anchor="start" x="13.5" y="-264.83" font-family="Helvetica,sans-Serif" font-weight="bold" font-size="11.00">blocks</text>
<text text-anchor="start" x="59.5" y="-263.83" font-family="Helvetica,sans-Serif" font-size="11.00">[table]</text>
<polygon fill="none" stroke="black" points="8.5,-237.63 8.5,-255.63 101.5,-255.63 101.5,-237.63 8.5,-237.63"/>
<text text-anchor="start" x="11.5" y="-243.83" font-family="Helvetica,sans-Serif" font-size="11.00">...</text>
<polygon fill="#ffffff" stroke="transparent" points="8.5,-219.63 8.5,-237.63 101.5,-237.63 101.5,-219.63 8.5,-219.63"/>
<polygon fill="none" stroke="black" points="8.5,-219.63 8.5,-237.63 101.5,-237.63 101.5,-219.63 8.5,-219.63"/>
<polygon fill="#ffffff" stroke="transparent" points="9.5,-220.63 9.5,-236.63 36.5,-236.63 36.5,-220.63 9.5,-220.63"/>
<text text-anchor="start" x="11.5" y="-225.83" font-family="Helvetica,sans-Serif" font-size="11.00"> &#160;</text>
<polygon fill="#ffffff" stroke="transparent" points="36.5,-220.63 36.5,-236.63 62.5,-236.63 62.5,-220.63 36.5,-220.63"/>
<text text-anchor="start" x="45.5" y="-225.83" font-family="Helvetica,sans-Serif" font-size="11.00"> &#160;</text>
<polygon fill="#ffffff" stroke="transparent" points="62.5,-220.63 62.5,-236.63 100.5,-236.63 100.5,-220.63 62.5,-220.63"/>
<text text-anchor="start" x="78.5" y="-225.83" font-family="Helvetica,sans-Serif" font-size="11.00">9 &gt;</text>
<polygon fill="black" stroke="black" points="36.5,-220.63 36.5,-236.63 36.5,-236.63 36.5,-220.63 36.5,-220.63"/>
<polygon fill="black" stroke="black" points="62.5,-220.63 62.5,-236.63 62.5,-236.63 62.5,-220.63 62.5,-220.63"/>
</a>
</g>
</g>
<!-- internal_transactions&#45;&gt;blocks -->
<g id="edge1" class="edge">
<title>internal_transactions:w&#45;&gt;blocks:e</title>
<path fill="none" stroke="black" d="M726.73,-606.78C468.51,-611.83 321.51,-746.14 142,-554.63 94.81,-504.29 171.51,-246.63 102.5,-246.63"/>
<polygon fill="black" stroke="black" points="733.5,-606.71 741.54,-610.23 737.5,-606.67 741.5,-606.63 741.5,-606.63 741.5,-606.63 737.5,-606.67 741.46,-603.03 733.5,-606.71 733.5,-606.71"/>
<ellipse fill="none" stroke="black" cx="730.3" cy="-606.74" rx="3.2" ry="3.2"/>
</g>
<!-- withdrawals -->
<g id="node3" class="node">
<title>withdrawals</title>
<g id="a_node3"><a xlink:href="../../tables/withdrawals.html" xlink:title="withdrawals" target="_top">
<polygon fill="#ffffff" stroke="transparent" points="150,-485.63 150,-543.63 286,-543.63 286,-485.63 150,-485.63"/>
<polygon fill="#f5f5f5" stroke="transparent" points="150,-521.63 150,-543.63 286,-543.63 286,-521.63 150,-521.63"/>
<polygon fill="none" stroke="black" points="150,-521.63 150,-543.63 286,-543.63 286,-521.63 150,-521.63"/>
<text text-anchor="start" x="155" y="-530.83" font-family="Helvetica,sans-Serif" font-weight="bold" font-size="11.00">withdrawals</text>
<text text-anchor="start" x="244" y="-529.83" font-family="Helvetica,sans-Serif" font-size="11.00">[table]</text>
<polygon fill="none" stroke="black" points="150,-503.63 150,-521.63 286,-521.63 286,-503.63 150,-503.63"/>
<text text-anchor="start" x="153" y="-509.83" font-family="Helvetica,sans-Serif" font-size="11.00">...</text>
<polygon fill="#ffffff" stroke="transparent" points="150,-485.63 150,-503.63 286,-503.63 286,-485.63 150,-485.63"/>
<polygon fill="none" stroke="black" points="150,-485.63 150,-503.63 286,-503.63 286,-485.63 150,-485.63"/>
<polygon fill="#ffffff" stroke="transparent" points="151,-486.63 151,-502.63 200,-502.63 200,-486.63 151,-486.63"/>
<text text-anchor="start" x="153" y="-491.83" font-family="Helvetica,sans-Serif" font-size="11.00">&lt; 1</text>
<polygon fill="#ffffff" stroke="transparent" points="200,-486.63 200,-502.63 237,-502.63 237,-486.63 200,-486.63"/>
<text text-anchor="start" x="214.5" y="-491.83" font-family="Helvetica,sans-Serif" font-size="11.00"> &#160;</text>
<polygon fill="#ffffff" stroke="transparent" points="237,-486.63 237,-502.63 285,-502.63 285,-486.63 237,-486.63"/>
<text text-anchor="start" x="263" y="-491.83" font-family="Helvetica,sans-Serif" font-size="11.00">5 &gt;</text>
<polygon fill="black" stroke="black" points="200,-486.63 200,-502.63 200,-502.63 200,-486.63 200,-486.63"/>
<polygon fill="black" stroke="black" points="237,-486.63 237,-502.63 237,-502.63 237,-486.63 237,-486.63"/>
</a>
</g>
</g>
<!-- internal_transactions&#45;&gt;withdrawals -->
<g id="edge2" class="edge">
<title>internal_transactions:w&#45;&gt;withdrawals:e</title>
<path fill="none" stroke="black" stroke-dasharray="5,2" d="M726.77,-606.19C648.16,-602.58 365.06,-577.49 327,-557.63 303.28,-545.26 313.76,-512.63 287,-512.63"/>
<polygon fill="black" stroke="black" points="733.5,-606.39 741.39,-610.23 737.5,-606.51 741.5,-606.63 741.5,-606.63 741.5,-606.63 737.5,-606.51 741.61,-603.04 733.5,-606.39 733.5,-606.39"/>
<ellipse fill="none" stroke="black" cx="730.31" cy="-606.3" rx="3.2" ry="3.2"/>
</g>
<!-- internal_transactions&#45;&gt;withdrawals -->
<g id="edge4" class="edge">
<title>internal_transactions:w&#45;&gt;withdrawals:e</title>
<path fill="none" stroke="black" stroke-dasharray="5,2" d="M726.76,-606.12C648.17,-601.9 365.47,-572.81 327,-553.63 304.22,-542.28 312.46,-512.63 287,-512.63"/>
<polygon fill="black" stroke="black" points="733.5,-606.35 741.37,-610.23 737.5,-606.49 741.5,-606.63 741.5,-606.63 741.5,-606.63 737.5,-606.49 741.63,-603.04 733.5,-606.35 733.5,-606.35"/>
<ellipse fill="none" stroke="black" cx="730.31" cy="-606.24" rx="3.2" ry="3.2"/>
</g>
<!-- transactions -->
<g id="node4" class="node">
<title>transactions</title>
<g id="a_node4"><a xlink:href="../../tables/transactions.html" xlink:title="transactions" target="_top">
<polygon fill="#ffffff" stroke="transparent" points="335,-158.63 335,-546.63 607,-546.63 607,-158.63 335,-158.63"/>
<polygon fill="#f5f5f5" stroke="transparent" points="335,-524.63 335,-546.63 607,-546.63 607,-524.63 335,-524.63"/>
<polygon fill="none" stroke="black" points="335,-524.63 335,-546.63 607,-546.63 607,-524.63 335,-524.63"/>
<text text-anchor="start" x="340" y="-533.83" font-family="Helvetica,sans-Serif" font-weight="bold" font-size="11.00">transactions</text>
<text text-anchor="start" x="565" y="-532.83" font-family="Helvetica,sans-Serif" font-size="11.00">[table]</text>
<polygon fill="#ffffff" stroke="transparent" points="335,-502.63 335,-524.63 607,-524.63 607,-502.63 335,-502.63"/>
<polygon fill="none" stroke="black" points="335,-502.63 335,-524.63 607,-524.63 607,-502.63 335,-502.63"/>
<text text-anchor="start" x="355" y="-510.83" font-family="Helvetica,sans-Serif" font-size="11.00">error</text>
<polygon fill="none" stroke="black" points="335,-480.63 335,-502.63 607,-502.63 607,-480.63 335,-480.63"/>
<image xlink:href="../../images/primaryKeys.png" width="11px" height="12px" preserveAspectRatio="xMinYMin meet" x="340" y="-497.634"/>
<text text-anchor="start" x="355" y="-488.83" font-family="Helvetica,sans-Serif" font-size="11.00">hash</text>
<polygon fill="#ffffff" stroke="transparent" points="335,-458.63 335,-480.63 607,-480.63 607,-458.63 335,-458.63"/>
<polygon fill="none" stroke="black" points="335,-458.63 335,-480.63 607,-480.63 607,-458.63 335,-458.63"/>
<image xlink:href="../../images/foreignKeys.png" width="11px" height="12px" preserveAspectRatio="xMinYMin meet" x="340" y="-475.634"/>
<text text-anchor="start" x="355" y="-466.83" font-family="Helvetica,sans-Serif" font-size="11.00">index</text>
<polygon fill="#ffffff" stroke="transparent" points="335,-436.63 335,-458.63 607,-458.63 607,-436.63 335,-436.63"/>
<polygon fill="none" stroke="black" points="335,-436.63 335,-458.63 607,-458.63 607,-436.63 335,-436.63"/>
<text text-anchor="start" x="355" y="-444.83" font-family="Helvetica,sans-Serif" font-size="11.00">nonce</text>
<polygon fill="#ffffff" stroke="transparent" points="335,-414.63 335,-436.63 607,-436.63 607,-414.63 335,-414.63"/>
<polygon fill="none" stroke="black" points="335,-414.63 335,-436.63 607,-436.63 607,-414.63 335,-414.63"/>
<text text-anchor="start" x="355" y="-422.83" font-family="Helvetica,sans-Serif" font-size="11.00">status</text>
<polygon fill="#ffffff" stroke="transparent" points="335,-392.63 335,-414.63 607,-414.63 607,-392.63 335,-392.63"/>
<polygon fill="none" stroke="black" points="335,-392.63 335,-414.63 607,-414.63 607,-392.63 335,-392.63"/>
<text text-anchor="start" x="355" y="-400.83" font-family="Helvetica,sans-Serif" font-size="11.00">inserted_at</text>
<polygon fill="#ffffff" stroke="transparent" points="335,-370.63 335,-392.63 607,-392.63 607,-370.63 335,-370.63"/>
<polygon fill="none" stroke="black" points="335,-370.63 335,-392.63 607,-392.63 607,-370.63 335,-370.63"/>
<text text-anchor="start" x="355" y="-378.83" font-family="Helvetica,sans-Serif" font-size="11.00">updated_at</text>
<polygon fill="#ffffff" stroke="transparent" points="335,-348.63 335,-370.63 607,-370.63 607,-348.63 335,-348.63"/>
<polygon fill="none" stroke="black" points="335,-348.63 335,-370.63 607,-370.63 607,-348.63 335,-348.63"/>
<image xlink:href="../../images/foreignKeys.png" width="11px" height="12px" preserveAspectRatio="xMinYMin meet" x="340" y="-365.634"/>
<text text-anchor="start" x="355" y="-356.83" font-family="Helvetica,sans-Serif" font-size="11.00">block_hash</text>
<polygon fill="#ffffff" stroke="transparent" points="335,-326.63 335,-348.63 607,-348.63 607,-326.63 335,-326.63"/>
<polygon fill="none" stroke="black" points="335,-326.63 335,-348.63 607,-348.63 607,-326.63 335,-326.63"/>
<text text-anchor="start" x="355" y="-334.83" font-family="Helvetica,sans-Serif" font-size="11.00">block_number</text>
<polygon fill="#ffffff" stroke="transparent" points="335,-304.63 335,-326.63 607,-326.63 607,-304.63 335,-304.63"/>
<polygon fill="none" stroke="black" points="335,-304.63 335,-326.63 607,-326.63 607,-304.63 335,-304.63"/>
<text text-anchor="start" x="355" y="-312.83" font-family="Helvetica,sans-Serif" font-size="11.00">from_address_hash</text>
<polygon fill="#ffffff" stroke="transparent" points="335,-282.63 335,-304.63 607,-304.63 607,-282.63 335,-282.63"/>
<polygon fill="none" stroke="black" points="335,-282.63 335,-304.63 607,-304.63 607,-282.63 335,-282.63"/>
<text text-anchor="start" x="355" y="-290.83" font-family="Helvetica,sans-Serif" font-size="11.00">to_address_hash</text>
<polygon fill="#ffffff" stroke="transparent" points="335,-260.63 335,-282.63 607,-282.63 607,-260.63 335,-260.63"/>
<polygon fill="none" stroke="black" points="335,-260.63 335,-282.63 607,-282.63 607,-260.63 335,-260.63"/>
<text text-anchor="start" x="355" y="-268.83" font-family="Helvetica,sans-Serif" font-size="11.00">created_contract_address_hash</text>
<polygon fill="#ffffff" stroke="transparent" points="335,-238.63 335,-260.63 607,-260.63 607,-238.63 335,-238.63"/>
<polygon fill="none" stroke="black" points="335,-238.63 335,-260.63 607,-260.63 607,-238.63 335,-238.63"/>
<text text-anchor="start" x="355" y="-246.83" font-family="Helvetica,sans-Serif" font-size="11.00">created_contract_code_indexed_at</text>
<polygon fill="#ffffff" stroke="transparent" points="335,-216.63 335,-238.63 607,-238.63 607,-216.63 335,-216.63"/>
<polygon fill="none" stroke="black" points="335,-216.63 335,-238.63 607,-238.63 607,-216.63 335,-216.63"/>
<text text-anchor="start" x="355" y="-224.83" font-family="Helvetica,sans-Serif" font-size="11.00">block_timestamp</text>
<polygon fill="#ffffff" stroke="transparent" points="335,-194.63 335,-216.63 607,-216.63 607,-194.63 335,-194.63"/>
<polygon fill="none" stroke="black" points="335,-194.63 335,-216.63 607,-216.63 607,-194.63 335,-194.63"/>
<text text-anchor="start" x="355" y="-202.83" font-family="Helvetica,sans-Serif" font-size="11.00">block_consensus</text>
<polygon fill="none" stroke="black" points="335,-176.63 335,-194.63 607,-194.63 607,-176.63 335,-176.63"/>
<text text-anchor="start" x="338" y="-182.83" font-family="Helvetica,sans-Serif" font-size="11.00">...</text>
<polygon fill="#ffffff" stroke="transparent" points="335,-158.63 335,-176.63 607,-176.63 607,-158.63 335,-158.63"/>
<polygon fill="none" stroke="black" points="335,-158.63 335,-176.63 607,-176.63 607,-158.63 335,-158.63"/>
<polygon fill="#ffffff" stroke="transparent" points="336,-159.63 336,-175.63 430,-175.63 430,-159.63 336,-159.63"/>
<text text-anchor="start" x="338" y="-164.83" font-family="Helvetica,sans-Serif" font-size="11.00">&lt; 2</text>
<polygon fill="#ffffff" stroke="transparent" points="430,-159.63 430,-175.63 512,-175.63 512,-159.63 430,-159.63"/>
<text text-anchor="start" x="467" y="-164.83" font-family="Helvetica,sans-Serif" font-size="11.00"> &#160;</text>
<polygon fill="#ffffff" stroke="transparent" points="512,-159.63 512,-175.63 606,-175.63 606,-159.63 512,-159.63"/>
<text text-anchor="start" x="584" y="-164.83" font-family="Helvetica,sans-Serif" font-size="11.00">7 &gt;</text>
<polygon fill="black" stroke="black" points="430,-159.63 430,-175.63 430,-175.63 430,-159.63 430,-159.63"/>
<polygon fill="black" stroke="black" points="512,-159.63 512,-175.63 512,-175.63 512,-159.63 512,-159.63"/>
</a>
</g>
</g>
<!-- internal_transactions&#45;&gt;transactions -->
<g id="edge3" class="edge">
<title>internal_transactions:w&#45;&gt;transactions:e</title>
<path fill="none" stroke="black" d="M726.91,-606.32C692.89,-604.68 677.22,-596.15 648,-569.63 619.15,-543.45 646.96,-491.63 608,-491.63"/>
<polygon fill="black" stroke="black" points="733.5,-606.46 741.42,-610.23 737.5,-606.55 741.5,-606.63 741.5,-606.63 741.5,-606.63 737.5,-606.55 741.58,-603.03 733.5,-606.46 733.5,-606.46"/>
<ellipse fill="none" stroke="black" cx="730.3" cy="-606.39" rx="3.2" ry="3.2"/>
</g>
<!-- withdrawals&#45;&gt;blocks -->
<g id="edge16" class="edge">
<title>withdrawals:w&#45;&gt;blocks:e</title>
<path fill="none" stroke="black" d="M135.87,-506.58C101.12,-466.98 157.12,-246.63 102.5,-246.63"/>
<polygon fill="black" stroke="black" points="141.73,-509.28 147.49,-515.9 145.37,-510.96 149,-512.63 149,-512.63 149,-512.63 145.37,-510.96 150.51,-509.36 141.73,-509.28 141.73,-509.28"/>
<ellipse fill="none" stroke="black" cx="138.83" cy="-507.94" rx="3.2" ry="3.2"/>
</g>
<!-- transactions&#45;&gt;blocks -->
<g id="edge14" class="edge">
<title>transactions:w&#45;&gt;blocks:e</title>
<path fill="none" stroke="black" d="M319.54,-359C219.07,-349.92 211.96,-246.63 102.5,-246.63"/>
<polygon fill="black" stroke="black" points="326.01,-359.28 333.84,-363.23 330,-359.46 334,-359.63 334,-359.63 334,-359.63 330,-359.46 334.16,-356.04 326.01,-359.28 326.01,-359.28"/>
<ellipse fill="none" stroke="black" cx="322.81" cy="-359.14" rx="3.2" ry="3.2"/>
</g>
<!-- transactions&#45;&gt;withdrawals -->
<g id="edge15" class="edge">
<title>transactions:w&#45;&gt;withdrawals:e</title>
<path fill="none" stroke="black" stroke-dasharray="5,2" d="M320.44,-474.57C308.06,-485.86 309.34,-512.63 287,-512.63"/>
<polygon fill="black" stroke="black" points="326.48,-472.37 335.23,-473.02 330.24,-471 334,-469.63 334,-469.63 334,-469.63 330.24,-471 332.77,-466.25 326.48,-472.37 326.48,-472.37"/>
<ellipse fill="none" stroke="black" cx="323.47" cy="-473.46" rx="3.2" ry="3.2"/>
</g>
<!-- logs -->
<g id="node5" class="node">
<title>logs</title>
<g id="a_node5"><a xlink:href="../../tables/logs.html" xlink:title="logs" target="_top">
<polygon fill="#ffffff" stroke="transparent" points="805,-211.63 805,-269.63 882,-269.63 882,-211.63 805,-211.63"/>
<polygon fill="#f5f5f5" stroke="transparent" points="805.5,-247.63 805.5,-269.63 882.5,-269.63 882.5,-247.63 805.5,-247.63"/>
<polygon fill="none" stroke="black" points="805.5,-247.63 805.5,-269.63 882.5,-269.63 882.5,-247.63 805.5,-247.63"/>
<text text-anchor="start" x="810.5" y="-256.83" font-family="Helvetica,sans-Serif" font-weight="bold" font-size="11.00">logs</text>
<text text-anchor="start" x="840.5" y="-255.83" font-family="Helvetica,sans-Serif" font-size="11.00">[table]</text>
<polygon fill="none" stroke="black" points="805.5,-229.63 805.5,-247.63 882.5,-247.63 882.5,-229.63 805.5,-229.63"/>
<text text-anchor="start" x="808.5" y="-235.83" font-family="Helvetica,sans-Serif" font-size="11.00">...</text>
<polygon fill="#ffffff" stroke="transparent" points="805.5,-211.63 805.5,-229.63 882.5,-229.63 882.5,-211.63 805.5,-211.63"/>
<polygon fill="none" stroke="black" points="805.5,-211.63 805.5,-229.63 882.5,-229.63 882.5,-211.63 805.5,-211.63"/>
<polygon fill="#ffffff" stroke="transparent" points="806.5,-212.63 806.5,-228.63 839.5,-228.63 839.5,-212.63 806.5,-212.63"/>
<text text-anchor="start" x="808.5" y="-217.83" font-family="Helvetica,sans-Serif" font-size="11.00">&lt; 2</text>
<polygon fill="#ffffff" stroke="transparent" points="839.5,-212.63 839.5,-228.63 860.5,-228.63 860.5,-212.63 839.5,-212.63"/>
<text text-anchor="start" x="846" y="-217.83" font-family="Helvetica,sans-Serif" font-size="11.00"> &#160;</text>
<polygon fill="#ffffff" stroke="transparent" points="860.5,-212.63 860.5,-228.63 881.5,-228.63 881.5,-212.63 860.5,-212.63"/>
<text text-anchor="start" x="871.5" y="-217.83" font-family="Helvetica,sans-Serif" font-size="11.00"> &#160;</text>
<polygon fill="black" stroke="black" points="839.5,-212.63 839.5,-228.63 839.5,-228.63 839.5,-212.63 839.5,-212.63"/>
<polygon fill="black" stroke="black" points="860.5,-212.63 860.5,-228.63 860.5,-228.63 860.5,-212.63 860.5,-212.63"/>
</a>
</g>
</g>
<!-- logs&#45;&gt;blocks -->
<g id="edge5" class="edge">
<title>logs:w&#45;&gt;blocks:e</title>
<path fill="none" stroke="black" d="M790.06,-238.69C729.08,-239.07 701.96,-240.41 648,-201.63 625.47,-185.44 639.26,-162.11 615,-148.63 559.05,-117.56 389.65,-135.56 327,-148.63 220.43,-170.88 211.37,-246.63 102.5,-246.63"/>
<polygon fill="black" stroke="black" points="796.5,-238.66 804.51,-242.23 800.5,-238.65 804.5,-238.63 804.5,-238.63 804.5,-238.63 800.5,-238.65 804.49,-235.03 796.5,-238.66 796.5,-238.66"/>
<ellipse fill="none" stroke="black" cx="793.3" cy="-238.67" rx="3.2" ry="3.2"/>
</g>
<!-- logs&#45;&gt;transactions -->
<g id="edge6" class="edge">
<title>logs:w&#45;&gt;transactions:e</title>
<path fill="none" stroke="black" d="M789.83,-238.5C727.42,-237.43 693.54,-231.55 648,-280.63 583.08,-350.6 703.45,-491.63 608,-491.63"/>
<polygon fill="black" stroke="black" points="796.5,-238.56 804.47,-242.23 800.5,-238.6 804.5,-238.63 804.5,-238.63 804.5,-238.63 800.5,-238.6 804.53,-235.03 796.5,-238.56 796.5,-238.56"/>
<ellipse fill="none" stroke="black" cx="793.3" cy="-238.53" rx="3.2" ry="3.2"/>
</g>
<!-- pending_transaction_operations -->
<g id="node6" class="node">
<title>pending_transaction_operations</title>
<g id="a_node6"><a xlink:href="../../tables/pending_transaction_operations.html" xlink:title="pending_transaction_operations" target="_top">
<polygon fill="#ffffff" stroke="transparent" points="656,-448.63 656,-558.63 1031,-558.63 1031,-448.63 656,-448.63"/>
<polygon fill="#f5f5f5" stroke="transparent" points="658.5,-534.63 658.5,-556.63 1029.5,-556.63 1029.5,-534.63 658.5,-534.63"/>
<polygon fill="none" stroke="black" points="658.5,-534.63 658.5,-556.63 1029.5,-556.63 1029.5,-534.63 658.5,-534.63"/>
<text text-anchor="start" x="663.5" y="-543.83" font-family="Helvetica,sans-Serif" font-weight="bold" font-size="11.00">pending_transaction_operations</text>
<text text-anchor="start" x="987.5" y="-542.83" font-family="Helvetica,sans-Serif" font-size="11.00">[table]</text>
<polygon fill="none" stroke="black" points="658.5,-512.63 658.5,-534.63 914.5,-534.63 914.5,-512.63 658.5,-512.63"/>
<image xlink:href="../../images/primaryKeys.png" width="11px" height="12px" preserveAspectRatio="xMinYMin meet" x="663.5" y="-529.634"/>
<text text-anchor="start" x="678.5" y="-520.83" font-family="Helvetica,sans-Serif" font-size="11.00">transaction_hash</text>
<polygon fill="none" stroke="black" points="914.5,-512.63 914.5,-534.63 1029.5,-534.63 1029.5,-512.63 914.5,-512.63"/>
<text text-anchor="start" x="917.5" y="-520.83" font-family="Helvetica,sans-Serif" font-size="11.00">bytea[2147483647]</text>
<polygon fill="none" stroke="black" points="658.5,-490.63 658.5,-512.63 914.5,-512.63 914.5,-490.63 658.5,-490.63"/>
<text text-anchor="start" x="678.5" y="-498.83" font-family="Helvetica,sans-Serif" font-size="11.00">inserted_at</text>
<polygon fill="none" stroke="black" points="914.5,-490.63 914.5,-512.63 1029.5,-512.63 1029.5,-490.63 914.5,-490.63"/>
<text text-anchor="start" x="917.5" y="-498.83" font-family="Helvetica,sans-Serif" font-size="11.00">timestamp[29,6]</text>
<polygon fill="none" stroke="black" points="658.5,-468.63 658.5,-490.63 914.5,-490.63 914.5,-468.63 658.5,-468.63"/>
<text text-anchor="start" x="678.5" y="-476.83" font-family="Helvetica,sans-Serif" font-size="11.00">updated_at</text>
<polygon fill="none" stroke="black" points="914.5,-468.63 914.5,-490.63 1029.5,-490.63 1029.5,-468.63 914.5,-468.63"/>
<text text-anchor="start" x="917.5" y="-476.83" font-family="Helvetica,sans-Serif" font-size="11.00">timestamp[29,6]</text>
<polygon fill="#ffffff" stroke="transparent" points="658.5,-450.63 658.5,-468.63 1029.5,-468.63 1029.5,-450.63 658.5,-450.63"/>
<polygon fill="none" stroke="black" points="658.5,-450.63 658.5,-468.63 1029.5,-468.63 1029.5,-450.63 658.5,-450.63"/>
<polygon fill="#ffffff" stroke="transparent" points="659.5,-451.63 659.5,-467.63 786.5,-467.63 786.5,-451.63 659.5,-451.63"/>
<text text-anchor="start" x="661.5" y="-456.83" font-family="Helvetica,sans-Serif" font-size="11.00">&lt; 1</text>
<polygon fill="#ffffff" stroke="transparent" points="786.5,-451.63 786.5,-467.63 901.5,-467.63 901.5,-451.63 786.5,-451.63"/>
<text text-anchor="start" x="840" y="-456.83" font-family="Helvetica,sans-Serif" font-size="11.00"> &#160;</text>
<polygon fill="#ffffff" stroke="transparent" points="901.5,-451.63 901.5,-467.63 1028.5,-467.63 1028.5,-451.63 901.5,-451.63"/>
<text text-anchor="start" x="1006.5" y="-456.83" font-family="Helvetica,sans-Serif" font-size="11.00">0 &gt;</text>
<polygon fill="black" stroke="black" points="786.5,-451.63 786.5,-467.63 786.5,-467.63 786.5,-451.63 786.5,-451.63"/>
<polygon fill="black" stroke="black" points="901.5,-451.63 901.5,-467.63 901.5,-467.63 901.5,-451.63 901.5,-451.63"/>
<polygon fill="none" stroke="black" stroke-width="2" points="657,-449.63 657,-557.63 1030,-557.63 1030,-449.63 657,-449.63"/>
</a>
</g>
</g>
<!-- pending_transaction_operations&#45;&gt;transactions -->
<g id="edge7" class="edge">
<title>pending_transaction_operations:w&#45;&gt;transactions:e</title>
<path fill="none" stroke="black" d="M647.13,-521.53C631.5,-514.41 630.1,-491.63 608,-491.63"/>
<polygon fill="black" stroke="black" points="657.51,-519.55 655.92,-527.4 654.35,-527.08 655.94,-519.24 657.51,-519.55"/>
<polyline fill="none" stroke="black" points="657.5,-523.63 653.58,-522.84 "/>
<ellipse fill="none" stroke="black" cx="650.44" cy="-522.2" rx="3.2" ry="3.2"/>
</g>
<!-- signed_authorizations -->
<g id="node7" class="node">
<title>signed_authorizations</title>
<g id="a_node7"><a xlink:href="../../tables/signed_authorizations.html" xlink:title="signed_authorizations" target="_top">
<polygon fill="#ffffff" stroke="transparent" points="739.5,-369.63 739.5,-427.63 947.5,-427.63 947.5,-369.63 739.5,-369.63"/>
<polygon fill="#f5f5f5" stroke="transparent" points="739.5,-405.63 739.5,-427.63 947.5,-427.63 947.5,-405.63 739.5,-405.63"/>
<polygon fill="none" stroke="black" points="739.5,-405.63 739.5,-427.63 947.5,-427.63 947.5,-405.63 739.5,-405.63"/>
<text text-anchor="start" x="744.5" y="-414.83" font-family="Helvetica,sans-Serif" font-weight="bold" font-size="11.00">signed_authorizations</text>
<text text-anchor="start" x="905.5" y="-413.83" font-family="Helvetica,sans-Serif" font-size="11.00">[table]</text>
<polygon fill="none" stroke="black" points="739.5,-387.63 739.5,-405.63 947.5,-405.63 947.5,-387.63 739.5,-387.63"/>
<text text-anchor="start" x="742.5" y="-393.83" font-family="Helvetica,sans-Serif" font-size="11.00">...</text>
<polygon fill="#ffffff" stroke="transparent" points="739.5,-369.63 739.5,-387.63 947.5,-387.63 947.5,-369.63 739.5,-369.63"/>
<polygon fill="none" stroke="black" points="739.5,-369.63 739.5,-387.63 947.5,-387.63 947.5,-369.63 739.5,-369.63"/>
<polygon fill="#ffffff" stroke="transparent" points="740.5,-370.63 740.5,-386.63 817.5,-386.63 817.5,-370.63 740.5,-370.63"/>
<text text-anchor="start" x="742.5" y="-375.83" font-family="Helvetica,sans-Serif" font-size="11.00">&lt; 1</text>
<polygon fill="#ffffff" stroke="transparent" points="817.5,-370.63 817.5,-386.63 882.5,-386.63 882.5,-370.63 817.5,-370.63"/>
<text text-anchor="start" x="846" y="-375.83" font-family="Helvetica,sans-Serif" font-size="11.00"> &#160;</text>
<polygon fill="#ffffff" stroke="transparent" points="882.5,-370.63 882.5,-386.63 946.5,-386.63 946.5,-370.63 882.5,-370.63"/>
<text text-anchor="start" x="936.5" y="-375.83" font-family="Helvetica,sans-Serif" font-size="11.00"> &#160;</text>
<polygon fill="black" stroke="black" points="817.5,-370.63 817.5,-386.63 817.5,-386.63 817.5,-370.63 817.5,-370.63"/>
<polygon fill="black" stroke="black" points="882.5,-370.63 882.5,-386.63 882.5,-386.63 882.5,-370.63 882.5,-370.63"/>
</a>
</g>
</g>
<!-- signed_authorizations&#45;&gt;transactions -->
<g id="edge8" class="edge">
<title>signed_authorizations:w&#45;&gt;transactions:e</title>
<path fill="none" stroke="black" d="M723.73,-397.25C691,-400.26 678.32,-414.15 648,-438.63 625.04,-457.18 637.51,-491.63 608,-491.63"/>
<polygon fill="black" stroke="black" points="730.51,-396.97 738.65,-400.23 734.5,-396.8 738.5,-396.63 738.5,-396.63 738.5,-396.63 734.5,-396.8 738.35,-393.04 730.51,-396.97 730.51,-396.97"/>
<ellipse fill="none" stroke="black" cx="727.31" cy="-397.1" rx="3.2" ry="3.2"/>
</g>
<!-- token_transfers -->
<g id="node8" class="node">
<title>token_transfers</title>
<g id="a_node8"><a xlink:href="../../tables/token_transfers.html" xlink:title="token_transfers" target="_top">
<polygon fill="#ffffff" stroke="transparent" points="762.5,-132.63 762.5,-190.63 924.5,-190.63 924.5,-132.63 762.5,-132.63"/>
<polygon fill="#f5f5f5" stroke="transparent" points="762.5,-168.63 762.5,-190.63 924.5,-190.63 924.5,-168.63 762.5,-168.63"/>
<polygon fill="none" stroke="black" points="762.5,-168.63 762.5,-190.63 924.5,-190.63 924.5,-168.63 762.5,-168.63"/>
<text text-anchor="start" x="767.5" y="-177.83" font-family="Helvetica,sans-Serif" font-weight="bold" font-size="11.00">token_transfers</text>
<text text-anchor="start" x="882.5" y="-176.83" font-family="Helvetica,sans-Serif" font-size="11.00">[table]</text>
<polygon fill="none" stroke="black" points="762.5,-150.63 762.5,-168.63 924.5,-168.63 924.5,-150.63 762.5,-150.63"/>
<text text-anchor="start" x="765.5" y="-156.83" font-family="Helvetica,sans-Serif" font-size="11.00">...</text>
<polygon fill="#ffffff" stroke="transparent" points="762.5,-132.63 762.5,-150.63 924.5,-150.63 924.5,-132.63 762.5,-132.63"/>
<polygon fill="none" stroke="black" points="762.5,-132.63 762.5,-150.63 924.5,-150.63 924.5,-132.63 762.5,-132.63"/>
<polygon fill="#ffffff" stroke="transparent" points="763.5,-133.63 763.5,-149.63 825.5,-149.63 825.5,-133.63 763.5,-133.63"/>
<text text-anchor="start" x="765.5" y="-138.83" font-family="Helvetica,sans-Serif" font-size="11.00">&lt; 2</text>
<polygon fill="#ffffff" stroke="transparent" points="825.5,-133.63 825.5,-149.63 874.5,-149.63 874.5,-133.63 825.5,-133.63"/>
<text text-anchor="start" x="846" y="-138.83" font-family="Helvetica,sans-Serif" font-size="11.00"> &#160;</text>
<polygon fill="#ffffff" stroke="transparent" points="874.5,-133.63 874.5,-149.63 923.5,-149.63 923.5,-133.63 874.5,-133.63"/>
<text text-anchor="start" x="913.5" y="-138.83" font-family="Helvetica,sans-Serif" font-size="11.00"> &#160;</text>
<polygon fill="black" stroke="black" points="825.5,-133.63 825.5,-149.63 825.5,-149.63 825.5,-133.63 825.5,-133.63"/>
<polygon fill="black" stroke="black" points="874.5,-133.63 874.5,-149.63 874.5,-149.63 874.5,-133.63 874.5,-133.63"/>
</a>
</g>
</g>
<!-- token_transfers&#45;&gt;blocks -->
<g id="edge9" class="edge">
<title>token_transfers:w&#45;&gt;blocks:e</title>
<path fill="none" stroke="black" d="M746.8,-159.2C692.41,-155.86 676.08,-134.23 615,-127.63 487.74,-113.9 454.66,-118.37 327,-127.63 244.12,-133.65 207.89,-104.01 142,-154.63 106.71,-181.74 147,-246.63 102.5,-246.63"/>
<polygon fill="black" stroke="black" points="753.5,-159.4 761.39,-163.23 757.5,-159.52 761.5,-159.63 761.5,-159.63 761.5,-159.63 757.5,-159.52 761.61,-156.04 753.5,-159.4 753.5,-159.4"/>
<ellipse fill="none" stroke="black" cx="750.3" cy="-159.3" rx="3.2" ry="3.2"/>
</g>
<!-- token_transfers&#45;&gt;transactions -->
<g id="edge10" class="edge">
<title>token_transfers:w&#45;&gt;transactions:e</title>
<path fill="none" stroke="black" d="M747.08,-159.67C702.76,-160.01 678.53,-163.63 648,-201.63 607.26,-252.35 673.05,-491.63 608,-491.63"/>
<polygon fill="black" stroke="black" points="753.5,-159.65 761.51,-163.23 757.5,-159.64 761.5,-159.63 761.5,-159.63 761.5,-159.63 757.5,-159.64 761.49,-156.03 753.5,-159.65 753.5,-159.65"/>
<ellipse fill="none" stroke="black" cx="750.3" cy="-159.66" rx="3.2" ry="3.2"/>
</g>
<!-- transaction_actions -->
<g id="node9" class="node">
<title>transaction_actions</title>
<g id="a_node9"><a xlink:href="../../tables/transaction_actions.html" xlink:title="transaction_actions" target="_top">
<polygon fill="#ffffff" stroke="transparent" points="748.5,-290.63 748.5,-348.63 938.5,-348.63 938.5,-290.63 748.5,-290.63"/>
<polygon fill="#f5f5f5" stroke="transparent" points="748.5,-326.63 748.5,-348.63 938.5,-348.63 938.5,-326.63 748.5,-326.63"/>
<polygon fill="none" stroke="black" points="748.5,-326.63 748.5,-348.63 938.5,-348.63 938.5,-326.63 748.5,-326.63"/>
<text text-anchor="start" x="753.5" y="-335.83" font-family="Helvetica,sans-Serif" font-weight="bold" font-size="11.00">transaction_actions</text>
<text text-anchor="start" x="896.5" y="-334.83" font-family="Helvetica,sans-Serif" font-size="11.00">[table]</text>
<polygon fill="none" stroke="black" points="748.5,-308.63 748.5,-326.63 938.5,-326.63 938.5,-308.63 748.5,-308.63"/>
<text text-anchor="start" x="751.5" y="-314.83" font-family="Helvetica,sans-Serif" font-size="11.00">...</text>
<polygon fill="#ffffff" stroke="transparent" points="748.5,-290.63 748.5,-308.63 938.5,-308.63 938.5,-290.63 748.5,-290.63"/>
<polygon fill="none" stroke="black" points="748.5,-290.63 748.5,-308.63 938.5,-308.63 938.5,-290.63 748.5,-290.63"/>
<polygon fill="#ffffff" stroke="transparent" points="749.5,-291.63 749.5,-307.63 820.5,-307.63 820.5,-291.63 749.5,-291.63"/>
<text text-anchor="start" x="751.5" y="-296.83" font-family="Helvetica,sans-Serif" font-size="11.00">&lt; 1</text>
<polygon fill="#ffffff" stroke="transparent" points="820.5,-291.63 820.5,-307.63 879.5,-307.63 879.5,-291.63 820.5,-291.63"/>
<text text-anchor="start" x="846" y="-296.83" font-family="Helvetica,sans-Serif" font-size="11.00"> &#160;</text>
<polygon fill="#ffffff" stroke="transparent" points="879.5,-291.63 879.5,-307.63 937.5,-307.63 937.5,-291.63 879.5,-291.63"/>
<text text-anchor="start" x="927.5" y="-296.83" font-family="Helvetica,sans-Serif" font-size="11.00"> &#160;</text>
<polygon fill="black" stroke="black" points="820.5,-291.63 820.5,-307.63 820.5,-307.63 820.5,-291.63 820.5,-291.63"/>
<polygon fill="black" stroke="black" points="879.5,-291.63 879.5,-307.63 879.5,-307.63 879.5,-291.63 879.5,-291.63"/>
</a>
</g>
</g>
<!-- transaction_actions&#45;&gt;transactions -->
<g id="edge11" class="edge">
<title>transaction_actions:w&#45;&gt;transactions:e</title>
<path fill="none" stroke="black" d="M732.72,-317.89C695.11,-319.37 676.6,-327.86 648,-359.63 606.99,-405.2 669.3,-491.63 608,-491.63"/>
<polygon fill="black" stroke="black" points="739.5,-317.77 747.56,-321.23 743.5,-317.7 747.5,-317.63 747.5,-317.63 747.5,-317.63 743.5,-317.7 747.44,-314.03 739.5,-317.77 739.5,-317.77"/>
<ellipse fill="none" stroke="black" cx="736.3" cy="-317.83" rx="3.2" ry="3.2"/>
</g>
<!-- transaction_forks -->
<g id="node10" class="node">
<title>transaction_forks</title>
<g id="a_node10"><a xlink:href="../../tables/transaction_forks.html" xlink:title="transaction_forks" target="_top">
<polygon fill="#ffffff" stroke="transparent" points="756.5,-53.63 756.5,-111.63 930.5,-111.63 930.5,-53.63 756.5,-53.63"/>
<polygon fill="#f5f5f5" stroke="transparent" points="756.5,-89.63 756.5,-111.63 930.5,-111.63 930.5,-89.63 756.5,-89.63"/>
<polygon fill="none" stroke="black" points="756.5,-89.63 756.5,-111.63 930.5,-111.63 930.5,-89.63 756.5,-89.63"/>
<text text-anchor="start" x="761.5" y="-98.83" font-family="Helvetica,sans-Serif" font-weight="bold" font-size="11.00">transaction_forks</text>
<text text-anchor="start" x="888.5" y="-97.83" font-family="Helvetica,sans-Serif" font-size="11.00">[table]</text>
<polygon fill="none" stroke="black" points="756.5,-71.63 756.5,-89.63 930.5,-89.63 930.5,-71.63 756.5,-71.63"/>
<text text-anchor="start" x="759.5" y="-77.83" font-family="Helvetica,sans-Serif" font-size="11.00">...</text>
<polygon fill="#ffffff" stroke="transparent" points="756.5,-53.63 756.5,-71.63 930.5,-71.63 930.5,-53.63 756.5,-53.63"/>
<polygon fill="none" stroke="black" points="756.5,-53.63 756.5,-71.63 930.5,-71.63 930.5,-53.63 756.5,-53.63"/>
<polygon fill="#ffffff" stroke="transparent" points="757.5,-54.63 757.5,-70.63 823.5,-70.63 823.5,-54.63 757.5,-54.63"/>
<text text-anchor="start" x="759.5" y="-59.83" font-family="Helvetica,sans-Serif" font-size="11.00">&lt; 2</text>
<polygon fill="#ffffff" stroke="transparent" points="823.5,-54.63 823.5,-70.63 876.5,-70.63 876.5,-54.63 823.5,-54.63"/>
<text text-anchor="start" x="846" y="-59.83" font-family="Helvetica,sans-Serif" font-size="11.00"> &#160;</text>
<polygon fill="#ffffff" stroke="transparent" points="876.5,-54.63 876.5,-70.63 929.5,-70.63 929.5,-54.63 876.5,-54.63"/>
<text text-anchor="start" x="919.5" y="-59.83" font-family="Helvetica,sans-Serif" font-size="11.00"> &#160;</text>
<polygon fill="black" stroke="black" points="823.5,-54.63 823.5,-70.63 823.5,-70.63 823.5,-54.63 823.5,-54.63"/>
<polygon fill="black" stroke="black" points="876.5,-54.63 876.5,-70.63 876.5,-70.63 876.5,-54.63 876.5,-54.63"/>
</a>
</g>
</g>
<!-- transaction_forks&#45;&gt;blocks -->
<g id="edge13" class="edge">
<title>transaction_forks:w&#45;&gt;blocks:e</title>
<path fill="none" stroke="black" d="M740.83,-80.51C477.69,-76.08 352.96,45.15 142,-120.63 95.86,-156.9 161.19,-246.63 102.5,-246.63"/>
<polygon fill="black" stroke="black" points="747.5,-80.57 755.47,-84.23 751.5,-80.6 755.5,-80.63 755.5,-80.63 755.5,-80.63 751.5,-80.6 755.53,-77.03 747.5,-80.57 747.5,-80.57"/>
<ellipse fill="none" stroke="black" cx="744.3" cy="-80.54" rx="3.2" ry="3.2"/>
</g>
<!-- transaction_forks&#45;&gt;transactions -->
<g id="edge12" class="edge">
<title>transaction_forks:w&#45;&gt;transactions:e</title>
<path fill="none" stroke="black" d="M740.92,-80.71C699.16,-81.28 676.07,-85.95 648,-122.63 597.88,-188.14 690.48,-491.63 608,-491.63"/>
<polygon fill="black" stroke="black" points="747.5,-80.67 755.52,-84.23 751.5,-80.65 755.5,-80.63 755.5,-80.63 755.5,-80.63 751.5,-80.65 755.48,-77.03 747.5,-80.67 747.5,-80.67"/>
<ellipse fill="none" stroke="black" cx="744.3" cy="-80.69" rx="3.2" ry="3.2"/>
</g>
</g>
</svg>
