<?xml version="1.0" encoding="UTF-8" standalone="no"?>
<!DOCTYPE svg PUBLIC "-//W3C//DTD SVG 1.1//EN"
 "http://www.w3.org/Graphics/SVG/1.1/DTD/svg11.dtd">
<!-- Generated by graphviz version 2.43.0 (0)
 -->
<!-- Title: oneDegreeRelationshipsDiagram Pages: 1 -->
<svg width="765pt" height="219pt"
 viewBox="0.00 0.00 765.00 219.00" xmlns="http://www.w3.org/2000/svg" xmlns:xlink="http://www.w3.org/1999/xlink">
<g id="graph0" class="graph" transform="scale(1 1) rotate(0) translate(4 215)">
<title>oneDegreeRelationshipsDiagram</title>
<polygon fill="#ffffff" stroke="transparent" points="-4,4 -4,-215 761,-215 761,4 -4,4"/>
<text text-anchor="middle" x="79.5" y="-7.2" font-family="Helvetica,sans-Serif" font-size="11.00">Generated by SchemaSpy</text>
<!-- proxy_smart_contract_verification_statuses -->
<g id="node1" class="node">
<title>proxy_smart_contract_verification_statuses</title>
<g id="a_node1"><a xlink:href="../../tables/proxy_smart_contract_verificati_d48f8abe.html" xlink:title="proxy_smart_contract_verification_statuses" target="_top">
<polygon fill="#ffffff" stroke="transparent" points="292,-53 292,-207 749,-207 749,-53 292,-53"/>
<polygon fill="#f5f5f5" stroke="transparent" points="294.5,-183 294.5,-205 747.5,-205 747.5,-183 294.5,-183"/>
<polygon fill="none" stroke="black" points="294.5,-183 294.5,-205 747.5,-205 747.5,-183 294.5,-183"/>
<text text-anchor="start" x="299.5" y="-192.2" font-family="Helvetica,sans-Serif" font-weight="bold" font-size="11.00">proxy_smart_contract_verification_statuses</text>
<text text-anchor="start" x="705.5" y="-191.2" font-family="Helvetica,sans-Serif" font-size="11.00">[table]</text>
<polygon fill="none" stroke="black" points="294.5,-161 294.5,-183 632.5,-183 632.5,-161 294.5,-161"/>
<image xlink:href="../../images/primaryKeys.png" width="11px" height="12px" preserveAspectRatio="xMinYMin meet" x="299.5" y="-178"/>
<text text-anchor="start" x="314.5" y="-169.2" font-family="Helvetica,sans-Serif" font-size="11.00">uid</text>
<polygon fill="none" stroke="black" points="632.5,-161 632.5,-183 747.5,-183 747.5,-161 632.5,-161"/>
<text text-anchor="start" x="635.5" y="-169.2" font-family="Helvetica,sans-Serif" font-size="11.00">varchar[64]</text>
<polygon fill="none" stroke="black" points="294.5,-139 294.5,-161 632.5,-161 632.5,-139 294.5,-139"/>
<text text-anchor="start" x="314.5" y="-147.2" font-family="Helvetica,sans-Serif" font-size="11.00">status</text>
<polygon fill="none" stroke="black" points="632.5,-139 632.5,-161 747.5,-161 747.5,-139 632.5,-139"/>
<text text-anchor="start" x="635.5" y="-147.2" font-family="Helvetica,sans-Serif" font-size="11.00">int2[5]</text>
<polygon fill="none" stroke="black" points="294.5,-117 294.5,-139 632.5,-139 632.5,-117 294.5,-117"/>
<image xlink:href="../../images/foreignKeys.png" width="11px" height="12px" preserveAspectRatio="xMinYMin meet" x="299.5" y="-134"/>
<text text-anchor="start" x="314.5" y="-125.2" font-family="Helvetica,sans-Serif" font-size="11.00">contract_address_hash</text>
<polygon fill="none" stroke="black" points="632.5,-117 632.5,-139 747.5,-139 747.5,-117 632.5,-117"/>
<text text-anchor="start" x="635.5" y="-125.2" font-family="Helvetica,sans-Serif" font-size="11.00">bytea[2147483647]</text>
<polygon fill="none" stroke="black" points="294.5,-95 294.5,-117 632.5,-117 632.5,-95 294.5,-95"/>
<text text-anchor="start" x="314.5" y="-103.2" font-family="Helvetica,sans-Serif" font-size="11.00">inserted_at</text>
<polygon fill="none" stroke="black" points="632.5,-95 632.5,-117 747.5,-117 747.5,-95 632.5,-95"/>
<text text-anchor="start" x="635.5" y="-103.2" font-family="Helvetica,sans-Serif" font-size="11.00">timestamp[29,6]</text>
<polygon fill="none" stroke="black" points="294.5,-73 294.5,-95 632.5,-95 632.5,-73 294.5,-73"/>
<text text-anchor="start" x="314.5" y="-81.2" font-family="Helvetica,sans-Serif" font-size="11.00">updated_at</text>
<polygon fill="none" stroke="black" points="632.5,-73 632.5,-95 747.5,-95 747.5,-73 632.5,-73"/>
<text text-anchor="start" x="635.5" y="-81.2" font-family="Helvetica,sans-Serif" font-size="11.00">timestamp[29,6]</text>
<polygon fill="#ffffff" stroke="transparent" points="294.5,-55 294.5,-73 747.5,-73 747.5,-55 294.5,-55"/>
<polygon fill="none" stroke="black" points="294.5,-55 294.5,-73 747.5,-73 747.5,-55 294.5,-55"/>
<polygon fill="#ffffff" stroke="transparent" points="295.5,-56 295.5,-72 450.5,-72 450.5,-56 295.5,-56"/>
<text text-anchor="start" x="297.5" y="-61.2" font-family="Helvetica,sans-Serif" font-size="11.00">&lt; 1</text>
<polygon fill="#ffffff" stroke="transparent" points="450.5,-56 450.5,-72 592.5,-72 592.5,-56 450.5,-56"/>
<text text-anchor="start" x="517.5" y="-61.2" font-family="Helvetica,sans-Serif" font-size="11.00"> &#160;</text>
<polygon fill="#ffffff" stroke="transparent" points="592.5,-56 592.5,-72 746.5,-72 746.5,-56 592.5,-56"/>
<text text-anchor="start" x="724.5" y="-61.2" font-family="Helvetica,sans-Serif" font-size="11.00">0 &gt;</text>
<polygon fill="black" stroke="black" points="450.5,-56 450.5,-72 450.5,-72 450.5,-56 450.5,-56"/>
<polygon fill="black" stroke="black" points="592.5,-56 592.5,-72 592.5,-72 592.5,-56 592.5,-56"/>
<polygon fill="none" stroke="black" stroke-width="2" points="293,-54 293,-206 748,-206 748,-54 293,-54"/>
</a>
</g>
</g>
<!-- smart_contracts -->
<g id="node2" class="node">
<title>smart_contracts</title>
<g id="a_node2"><a xlink:href="../../tables/smart_contracts.html" xlink:title="smart_contracts" target="_top">
<polygon fill="#ffffff" stroke="transparent" points="8,-37 8,-183 243,-183 243,-37 8,-37"/>
<polygon fill="#f5f5f5" stroke="transparent" points="8.5,-161 8.5,-183 243.5,-183 243.5,-161 8.5,-161"/>
<polygon fill="none" stroke="black" points="8.5,-161 8.5,-183 243.5,-183 243.5,-161 8.5,-161"/>
<text text-anchor="start" x="13.5" y="-170.2" font-family="Helvetica,sans-Serif" font-weight="bold" font-size="11.00">smart_contracts</text>
<text text-anchor="start" x="201.5" y="-169.2" font-family="Helvetica,sans-Serif" font-size="11.00">[table]</text>
<polygon fill="none" stroke="black" points="8.5,-139 8.5,-161 243.5,-161 243.5,-139 8.5,-139"/>
<image xlink:href="../../images/primaryKeys.png" width="11px" height="12px" preserveAspectRatio="xMinYMin meet" x="13.5" y="-156"/>
<text text-anchor="start" x="28.5" y="-147.2" font-family="Helvetica,sans-Serif" font-size="11.00">id</text>
<polygon fill="#ffffff" stroke="transparent" points="8.5,-117 8.5,-139 243.5,-139 243.5,-117 8.5,-117"/>
<polygon fill="none" stroke="black" points="8.5,-117 8.5,-139 243.5,-139 243.5,-117 8.5,-117"/>
<text text-anchor="start" x="28.5" y="-125.2" font-family="Helvetica,sans-Serif" font-size="11.00">address_hash</text>
<polygon fill="#ffffff" stroke="transparent" points="8.5,-95 8.5,-117 243.5,-117 243.5,-95 8.5,-95"/>
<polygon fill="none" stroke="black" points="8.5,-95 8.5,-117 243.5,-117 243.5,-95 8.5,-95"/>
<text text-anchor="start" x="28.5" y="-103.2" font-family="Helvetica,sans-Serif" font-size="11.00">contract_code_md5</text>
<polygon fill="#ffffff" stroke="transparent" points="8.5,-73 8.5,-95 243.5,-95 243.5,-73 8.5,-73"/>
<polygon fill="none" stroke="black" points="8.5,-73 8.5,-95 243.5,-95 243.5,-73 8.5,-73"/>
<text text-anchor="start" x="28.5" y="-81.2" font-family="Helvetica,sans-Serif" font-size="11.00">certified</text>
<polygon fill="none" stroke="black" points="8.5,-55 8.5,-73 243.5,-73 243.5,-55 8.5,-55"/>
<text text-anchor="start" x="11.5" y="-61.2" font-family="Helvetica,sans-Serif" font-size="11.00">...</text>
<polygon fill="#ffffff" stroke="transparent" points="8.5,-37 8.5,-55 243.5,-55 243.5,-37 8.5,-37"/>
<polygon fill="none" stroke="black" points="8.5,-37 8.5,-55 243.5,-55 243.5,-37 8.5,-37"/>
<polygon fill="#ffffff" stroke="transparent" points="9.5,-38 9.5,-54 83.5,-54 83.5,-38 9.5,-38"/>
<text text-anchor="start" x="11.5" y="-43.2" font-family="Helvetica,sans-Serif" font-size="11.00"> &#160;</text>
<polygon fill="#ffffff" stroke="transparent" points="83.5,-38 83.5,-54 157.5,-54 157.5,-38 83.5,-38"/>
<text text-anchor="start" x="116.5" y="-43.2" font-family="Helvetica,sans-Serif" font-size="11.00"> &#160;</text>
<polygon fill="#ffffff" stroke="transparent" points="157.5,-38 157.5,-54 242.5,-54 242.5,-38 157.5,-38"/>
<text text-anchor="start" x="220.5" y="-43.2" font-family="Helvetica,sans-Serif" font-size="11.00">3 &gt;</text>
<polygon fill="black" stroke="black" points="83.5,-38 83.5,-54 83.5,-54 83.5,-38 83.5,-38"/>
<polygon fill="black" stroke="black" points="157.5,-38 157.5,-54 157.5,-54 157.5,-38 157.5,-38"/>
</a>
</g>
</g>
<!-- proxy_smart_contract_verification_statuses&#45;&gt;smart_contracts -->
<g id="edge1" class="edge">
<title>proxy_smart_contract_verification_statuses:w&#45;&gt;smart_contracts:e</title>
<path fill="none" stroke="black" d="M278.99,-128C267.68,-128 260.49,-128 244.5,-128"/>
<polygon fill="black" stroke="black" points="285.5,-128 293.5,-131.6 289.5,-128 293.5,-128 293.5,-128 293.5,-128 289.5,-128 293.5,-124.4 285.5,-128 285.5,-128"/>
<ellipse fill="none" stroke="black" cx="282.3" cy="-128" rx="3.2" ry="3.2"/>
</g>
</g>
</svg>
