<?xml version="1.0" encoding="UTF-8" standalone="no"?>
<!DOCTYPE svg PUBLIC "-//W3C//DTD SVG 1.1//EN"
 "http://www.w3.org/Graphics/SVG/1.1/DTD/svg11.dtd">
<!-- Generated by graphviz version 9.0.0 (20230911.1827)
 -->
<!-- Title: twoDegreesRelationshipsDiagram Pages: 1 -->
<svg width="645pt" height="361pt"
 viewBox="0.00 0.00 645.00 361.00" xmlns="http://www.w3.org/2000/svg" xmlns:xlink="http://www.w3.org/1999/xlink">
<g id="graph0" class="graph" transform="scale(1 1) rotate(0) translate(4 357)">
<title>twoDegreesRelationshipsDiagram</title>
<polygon fill="#ffffff" stroke="none" points="-4,4 -4,-357 641,-357 641,4 -4,4"/>
<text text-anchor="middle" x="71.38" y="-5.55" font-family="Helvetica,sans-Serif" font-size="11.00">Generated by SchemaSpy</text>
<!-- proxy_smart_contract_verification_statuses -->
<g id="node1" class="node">
<title>proxy_smart_contract_verification_statuses</title>
<g id="a_node1"><a xlink:href="../../tables/proxy_smart_contract_verificati_d48f8abe.html" xlink:title="proxy_smart_contract_verification_statuses" target="_top">
<polygon fill="#ffffff" stroke="none" points="254,-195 254,-349 629,-349 629,-195 254,-195"/>
<polygon fill="#f5f5f5" stroke="none" points="256,-325 256,-347 627,-347 627,-325 256,-325"/>
<polygon fill="none" stroke="black" points="256,-325 256,-347 627,-347 627,-325 256,-325"/>
<text text-anchor="start" x="261" y="-332.55" font-family="Helvetica,sans-Serif" font-weight="bold" font-size="11.00">proxy_smart_contract_verification_statuses</text>
<text text-anchor="start" x="592.75" y="-331.55" font-family="Helvetica,sans-Serif" font-size="11.00">[table]</text>
<polygon fill="none" stroke="black" points="256,-303 256,-325 529,-325 529,-303 256,-303"/>
<image xlink:href="../../images/primaryKeys.png" width="11px" height="12px" preserveAspectRatio="xMinYMin meet" x="261" y="-320"/>
<text text-anchor="start" x="276" y="-309.55" font-family="Helvetica,sans-Serif" font-size="11.00">uid</text>
<polygon fill="none" stroke="black" points="529,-303 529,-325 627,-325 627,-303 529,-303"/>
<text text-anchor="start" x="532" y="-309.55" font-family="Helvetica,sans-Serif" font-size="11.00">varchar[64]</text>
<polygon fill="none" stroke="black" points="256,-281 256,-303 529,-303 529,-281 256,-281"/>
<text text-anchor="start" x="276" y="-287.55" font-family="Helvetica,sans-Serif" font-size="11.00">status</text>
<polygon fill="none" stroke="black" points="529,-281 529,-303 627,-303 627,-281 529,-281"/>
<text text-anchor="start" x="532" y="-287.55" font-family="Helvetica,sans-Serif" font-size="11.00">int2[5]</text>
<polygon fill="none" stroke="black" points="256,-259 256,-281 529,-281 529,-259 256,-259"/>
<image xlink:href="../../images/foreignKeys.png" width="11px" height="12px" preserveAspectRatio="xMinYMin meet" x="261" y="-276"/>
<text text-anchor="start" x="276" y="-265.55" font-family="Helvetica,sans-Serif" font-size="11.00">contract_address_hash</text>
<polygon fill="none" stroke="black" points="529,-259 529,-281 627,-281 627,-259 529,-259"/>
<text text-anchor="start" x="531.88" y="-265.55" font-family="Helvetica,sans-Serif" font-size="11.00">bytea[2147483647]</text>
<polygon fill="none" stroke="black" points="256,-237 256,-259 529,-259 529,-237 256,-237"/>
<text text-anchor="start" x="276" y="-243.55" font-family="Helvetica,sans-Serif" font-size="11.00">inserted_at</text>
<polygon fill="none" stroke="black" points="529,-237 529,-259 627,-259 627,-237 529,-237"/>
<text text-anchor="start" x="532" y="-243.55" font-family="Helvetica,sans-Serif" font-size="11.00">timestamp[29,6]</text>
<polygon fill="none" stroke="black" points="256,-215 256,-237 529,-237 529,-215 256,-215"/>
<text text-anchor="start" x="276" y="-221.55" font-family="Helvetica,sans-Serif" font-size="11.00">updated_at</text>
<polygon fill="none" stroke="black" points="529,-215 529,-237 627,-237 627,-215 529,-215"/>
<text text-anchor="start" x="532" y="-221.55" font-family="Helvetica,sans-Serif" font-size="11.00">timestamp[29,6]</text>
<polygon fill="#ffffff" stroke="none" points="256,-197 256,-215 397,-215 397,-197 256,-197"/>
<polygon fill="none" stroke="black" points="256,-197 256,-215 397,-215 397,-197 256,-197"/>
<text text-anchor="start" x="259" y="-201.55" font-family="Helvetica,sans-Serif" font-size="11.00">&lt; 1</text>
<polygon fill="#ffffff" stroke="none" points="397,-197 397,-215 529,-215 529,-197 397,-197"/>
<polygon fill="none" stroke="black" points="397,-197 397,-215 529,-215 529,-197 397,-197"/>
<text text-anchor="start" x="520" y="-201.55" font-family="Helvetica,sans-Serif" font-size="11.00"> &#160;</text>
<polygon fill="#ffffff" stroke="none" points="529,-197 529,-215 627,-215 627,-197 529,-197"/>
<polygon fill="none" stroke="black" points="529,-197 529,-215 627,-215 627,-197 529,-197"/>
<text text-anchor="start" x="608.25" y="-201.55" font-family="Helvetica,sans-Serif" font-size="11.00">0 &gt;</text>
<polygon fill="none" stroke="black" stroke-width="2" points="255,-196 255,-348 628,-348 628,-196 255,-196"/>
</a>
</g>
</g>
<!-- smart_contracts -->
<g id="node2" class="node">
<title>smart_contracts</title>
<g id="a_node2"><a xlink:href="../../tables/smart_contracts.html" xlink:title="smart_contracts" target="_top">
<polygon fill="#ffffff" stroke="none" points="8,-74 8,-198 205,-198 205,-74 8,-74"/>
<polygon fill="#f5f5f5" stroke="none" points="8,-176 8,-198 205,-198 205,-176 8,-176"/>
<polygon fill="none" stroke="black" points="8,-176 8,-198 205,-198 205,-176 8,-176"/>
<text text-anchor="start" x="13" y="-183.55" font-family="Helvetica,sans-Serif" font-weight="bold" font-size="11.00">smart_contracts</text>
<text text-anchor="start" x="170.75" y="-182.55" font-family="Helvetica,sans-Serif" font-size="11.00">[table]</text>
<polygon fill="none" stroke="black" points="8,-154 8,-176 205,-176 205,-154 8,-154"/>
<image xlink:href="../../images/primaryKeys.png" width="11px" height="12px" preserveAspectRatio="xMinYMin meet" x="13" y="-171"/>
<text text-anchor="start" x="28" y="-160.55" font-family="Helvetica,sans-Serif" font-size="11.00">id</text>
<polygon fill="#ffffff" stroke="none" points="8,-132 8,-154 205,-154 205,-132 8,-132"/>
<polygon fill="none" stroke="black" points="8,-132 8,-154 205,-154 205,-132 8,-132"/>
<text text-anchor="start" x="28" y="-138.55" font-family="Helvetica,sans-Serif" font-size="11.00">address_hash</text>
<polygon fill="#ffffff" stroke="none" points="8,-110 8,-132 205,-132 205,-110 8,-110"/>
<polygon fill="none" stroke="black" points="8,-110 8,-132 205,-132 205,-110 8,-110"/>
<text text-anchor="start" x="28" y="-116.55" font-family="Helvetica,sans-Serif" font-size="11.00">contract_code_md5</text>
<polygon fill="none" stroke="black" points="8,-92 8,-110 205,-110 205,-92 8,-92"/>
<text text-anchor="start" x="11" y="-96.55" font-family="Helvetica,sans-Serif" font-size="11.00">...</text>
<polygon fill="#ffffff" stroke="none" points="8,-74 8,-92 96,-92 96,-74 8,-74"/>
<polygon fill="none" stroke="black" points="8,-74 8,-92 96,-92 96,-74 8,-74"/>
<text text-anchor="start" x="11" y="-78.55" font-family="Helvetica,sans-Serif" font-size="11.00"> &#160;</text>
<polygon fill="#ffffff" stroke="none" points="96,-74 96,-92 146,-92 146,-74 96,-74"/>
<polygon fill="none" stroke="black" points="96,-74 96,-92 146,-92 146,-74 96,-74"/>
<text text-anchor="start" x="137" y="-78.55" font-family="Helvetica,sans-Serif" font-size="11.00"> &#160;</text>
<polygon fill="#ffffff" stroke="none" points="146,-74 146,-92 205,-92 205,-74 146,-74"/>
<polygon fill="none" stroke="black" points="146,-74 146,-92 205,-92 205,-74 146,-74"/>
<text text-anchor="start" x="186.25" y="-78.55" font-family="Helvetica,sans-Serif" font-size="11.00">3 &gt;</text>
</a>
</g>
</g>
<!-- proxy_smart_contract_verification_statuses&#45;&gt;smart_contracts -->
<g id="edge1" class="edge">
<title>proxy_smart_contract_verification_statuses:w&#45;&gt;smart_contracts:e</title>
<path fill="none" stroke="black" d="M239.53,-266.06C208.01,-244.62 260.48,-143 206.5,-143"/>
<polygon fill="black" stroke="black" points="246.44,-267.88 253.26,-273.4 250.63,-268.98 253.85,-269.83 253.85,-269.83 253.85,-269.83 250.63,-268.98 255.09,-266.43 246.44,-267.88"/>
<ellipse fill="none" stroke="black" cx="241.68" cy="-266.63" rx="3.2" ry="3.2"/>
</g>
<!-- smart_contract_audit_reports -->
<g id="node3" class="node">
<title>smart_contract_audit_reports</title>
<g id="a_node3"><a xlink:href="../../tables/smart_contract_audit_reports.html" xlink:title="smart_contract_audit_reports" target="_top">
<polygon fill="#ffffff" stroke="none" points="337,-116 337,-174 546,-174 546,-116 337,-116"/>
<polygon fill="#f5f5f5" stroke="none" points="337,-152 337,-174 546,-174 546,-152 337,-152"/>
<polygon fill="none" stroke="black" points="337,-152 337,-174 546,-174 546,-152 337,-152"/>
<text text-anchor="start" x="342" y="-159.55" font-family="Helvetica,sans-Serif" font-weight="bold" font-size="11.00">smart_contract_audit_reports</text>
<text text-anchor="start" x="512" y="-158.55" font-family="Helvetica,sans-Serif" font-size="11.00">[table]</text>
<polygon fill="none" stroke="black" points="337,-134 337,-152 546,-152 546,-134 337,-134"/>
<text text-anchor="start" x="340" y="-138.55" font-family="Helvetica,sans-Serif" font-size="11.00">...</text>
<polygon fill="#ffffff" stroke="none" points="337,-116 337,-134 440,-134 440,-116 337,-116"/>
<polygon fill="none" stroke="black" points="337,-116 337,-134 440,-134 440,-116 337,-116"/>
<text text-anchor="start" x="340" y="-120.55" font-family="Helvetica,sans-Serif" font-size="11.00">&lt; 1</text>
<polygon fill="#ffffff" stroke="none" points="440,-116 440,-134 493,-134 493,-116 440,-116"/>
<polygon fill="none" stroke="black" points="440,-116 440,-134 493,-134 493,-116 440,-116"/>
<text text-anchor="start" x="484" y="-120.55" font-family="Helvetica,sans-Serif" font-size="11.00"> &#160;</text>
<polygon fill="#ffffff" stroke="none" points="493,-116 493,-134 546,-134 546,-116 493,-116"/>
<polygon fill="none" stroke="black" points="493,-116 493,-134 546,-134 546,-116 493,-116"/>
<text text-anchor="start" x="537" y="-120.55" font-family="Helvetica,sans-Serif" font-size="11.00"> &#160;</text>
</a>
</g>
</g>
<!-- smart_contract_audit_reports&#45;&gt;smart_contracts -->
<g id="edge2" class="edge">
<title>smart_contract_audit_reports:w&#45;&gt;smart_contracts:e</title>
<path fill="none" stroke="black" d="M319.85,-143C274.96,-143 258.23,-143 206.5,-143"/>
<polygon fill="black" stroke="black" points="327.17,-143 335.17,-146.6 331.5,-143 334.83,-143 334.83,-143 334.83,-143 331.5,-143 335.17,-139.4 327.17,-143"/>
<ellipse fill="none" stroke="black" cx="322.25" cy="-143" rx="3.2" ry="3.2"/>
</g>
<!-- smart_contracts_additional_sources -->
<g id="node4" class="node">
<title>smart_contracts_additional_sources</title>
<g id="a_node4"><a xlink:href="../../tables/smart_contracts_additional_sources.html" xlink:title="smart_contracts_additional_sources" target="_top">
<polygon fill="#ffffff" stroke="none" points="317.5,-37 317.5,-95 565.5,-95 565.5,-37 317.5,-37"/>
<polygon fill="#f5f5f5" stroke="none" points="317.5,-73 317.5,-95 565.5,-95 565.5,-73 317.5,-73"/>
<polygon fill="none" stroke="black" points="317.5,-73 317.5,-95 565.5,-95 565.5,-73 317.5,-73"/>
<text text-anchor="start" x="322.5" y="-80.55" font-family="Helvetica,sans-Serif" font-weight="bold" font-size="11.00">smart_contracts_additional_sources</text>
<text text-anchor="start" x="531.5" y="-79.55" font-family="Helvetica,sans-Serif" font-size="11.00">[table]</text>
<polygon fill="none" stroke="black" points="317.5,-55 317.5,-73 565.5,-73 565.5,-55 317.5,-55"/>
<text text-anchor="start" x="320.5" y="-59.55" font-family="Helvetica,sans-Serif" font-size="11.00">...</text>
<polygon fill="#ffffff" stroke="none" points="317.5,-37 317.5,-55 439.5,-55 439.5,-37 317.5,-37"/>
<polygon fill="none" stroke="black" points="317.5,-37 317.5,-55 439.5,-55 439.5,-37 317.5,-37"/>
<text text-anchor="start" x="320.5" y="-41.55" font-family="Helvetica,sans-Serif" font-size="11.00">&lt; 1</text>
<polygon fill="#ffffff" stroke="none" points="439.5,-37 439.5,-55 502.5,-55 502.5,-37 439.5,-37"/>
<polygon fill="none" stroke="black" points="439.5,-37 439.5,-55 502.5,-55 502.5,-37 439.5,-37"/>
<text text-anchor="start" x="493.5" y="-41.55" font-family="Helvetica,sans-Serif" font-size="11.00"> &#160;</text>
<polygon fill="#ffffff" stroke="none" points="502.5,-37 502.5,-55 565.5,-55 565.5,-37 502.5,-37"/>
<polygon fill="none" stroke="black" points="502.5,-37 502.5,-55 565.5,-55 565.5,-37 502.5,-37"/>
<text text-anchor="start" x="556.5" y="-41.55" font-family="Helvetica,sans-Serif" font-size="11.00"> &#160;</text>
</a>
</g>
</g>
<!-- smart_contracts_additional_sources&#45;&gt;smart_contracts -->
<g id="edge3" class="edge">
<title>smart_contracts_additional_sources:w&#45;&gt;smart_contracts:e</title>
<path fill="none" stroke="black" d="M300.85,-65.54C277.77,-70.64 270.36,-87.67 246,-106 226.78,-120.46 230.55,-143 206.5,-143"/>
<polygon fill="black" stroke="black" points="308.21,-64.82 316.52,-67.62 312.52,-64.39 315.83,-64.07 315.83,-64.07 315.83,-64.07 312.52,-64.39 315.81,-60.45 308.21,-64.82"/>
<ellipse fill="none" stroke="black" cx="303.31" cy="-65.3" rx="3.2" ry="3.2"/>
</g>
</g>
</svg>
