<?xml version="1.0" encoding="UTF-8" standalone="no"?>
<!DOCTYPE svg PUBLIC "-//W3C//DTD SVG 1.1//EN"
 "http://www.w3.org/Graphics/SVG/1.1/DTD/svg11.dtd">
<!-- Generated by graphviz version 2.43.0 (0)
 -->
<!-- Title: twoDegreesRelationshipsDiagram Pages: 1 -->
<svg width="765pt" height="361pt"
 viewBox="0.00 0.00 765.00 361.00" xmlns="http://www.w3.org/2000/svg" xmlns:xlink="http://www.w3.org/1999/xlink">
<g id="graph0" class="graph" transform="scale(1 1) rotate(0) translate(4 357)">
<title>twoDegreesRelationshipsDiagram</title>
<polygon fill="#ffffff" stroke="transparent" points="-4,4 -4,-357 761,-357 761,4 -4,4"/>
<text text-anchor="middle" x="79.5" y="-7.2" font-family="Helvetica,sans-Serif" font-size="11.00">Generated by SchemaSpy</text>
<!-- proxy_smart_contract_verification_statuses -->
<g id="node1" class="node">
<title>proxy_smart_contract_verification_statuses</title>
<g id="a_node1"><a xlink:href="../../tables/proxy_smart_contract_verificati_d48f8abe.html" xlink:title="proxy_smart_contract_verification_statuses" target="_top">
<polygon fill="#ffffff" stroke="transparent" points="292,-195 292,-349 749,-349 749,-195 292,-195"/>
<polygon fill="#f5f5f5" stroke="transparent" points="294.5,-325 294.5,-347 747.5,-347 747.5,-325 294.5,-325"/>
<polygon fill="none" stroke="black" points="294.5,-325 294.5,-347 747.5,-347 747.5,-325 294.5,-325"/>
<text text-anchor="start" x="299.5" y="-334.2" font-family="Helvetica,sans-Serif" font-weight="bold" font-size="11.00">proxy_smart_contract_verification_statuses</text>
<text text-anchor="start" x="705.5" y="-333.2" font-family="Helvetica,sans-Serif" font-size="11.00">[table]</text>
<polygon fill="none" stroke="black" points="294.5,-303 294.5,-325 632.5,-325 632.5,-303 294.5,-303"/>
<image xlink:href="../../images/primaryKeys.png" width="11px" height="12px" preserveAspectRatio="xMinYMin meet" x="299.5" y="-320"/>
<text text-anchor="start" x="314.5" y="-311.2" font-family="Helvetica,sans-Serif" font-size="11.00">uid</text>
<polygon fill="none" stroke="black" points="632.5,-303 632.5,-325 747.5,-325 747.5,-303 632.5,-303"/>
<text text-anchor="start" x="635.5" y="-311.2" font-family="Helvetica,sans-Serif" font-size="11.00">varchar[64]</text>
<polygon fill="none" stroke="black" points="294.5,-281 294.5,-303 632.5,-303 632.5,-281 294.5,-281"/>
<text text-anchor="start" x="314.5" y="-289.2" font-family="Helvetica,sans-Serif" font-size="11.00">status</text>
<polygon fill="none" stroke="black" points="632.5,-281 632.5,-303 747.5,-303 747.5,-281 632.5,-281"/>
<text text-anchor="start" x="635.5" y="-289.2" font-family="Helvetica,sans-Serif" font-size="11.00">int2[5]</text>
<polygon fill="none" stroke="black" points="294.5,-259 294.5,-281 632.5,-281 632.5,-259 294.5,-259"/>
<image xlink:href="../../images/foreignKeys.png" width="11px" height="12px" preserveAspectRatio="xMinYMin meet" x="299.5" y="-276"/>
<text text-anchor="start" x="314.5" y="-267.2" font-family="Helvetica,sans-Serif" font-size="11.00">contract_address_hash</text>
<polygon fill="none" stroke="black" points="632.5,-259 632.5,-281 747.5,-281 747.5,-259 632.5,-259"/>
<text text-anchor="start" x="635.5" y="-267.2" font-family="Helvetica,sans-Serif" font-size="11.00">bytea[2147483647]</text>
<polygon fill="none" stroke="black" points="294.5,-237 294.5,-259 632.5,-259 632.5,-237 294.5,-237"/>
<text text-anchor="start" x="314.5" y="-245.2" font-family="Helvetica,sans-Serif" font-size="11.00">inserted_at</text>
<polygon fill="none" stroke="black" points="632.5,-237 632.5,-259 747.5,-259 747.5,-237 632.5,-237"/>
<text text-anchor="start" x="635.5" y="-245.2" font-family="Helvetica,sans-Serif" font-size="11.00">timestamp[29,6]</text>
<polygon fill="none" stroke="black" points="294.5,-215 294.5,-237 632.5,-237 632.5,-215 294.5,-215"/>
<text text-anchor="start" x="314.5" y="-223.2" font-family="Helvetica,sans-Serif" font-size="11.00">updated_at</text>
<polygon fill="none" stroke="black" points="632.5,-215 632.5,-237 747.5,-237 747.5,-215 632.5,-215"/>
<text text-anchor="start" x="635.5" y="-223.2" font-family="Helvetica,sans-Serif" font-size="11.00">timestamp[29,6]</text>
<polygon fill="#ffffff" stroke="transparent" points="294.5,-197 294.5,-215 747.5,-215 747.5,-197 294.5,-197"/>
<polygon fill="none" stroke="black" points="294.5,-197 294.5,-215 747.5,-215 747.5,-197 294.5,-197"/>
<polygon fill="#ffffff" stroke="transparent" points="295.5,-198 295.5,-214 450.5,-214 450.5,-198 295.5,-198"/>
<text text-anchor="start" x="297.5" y="-203.2" font-family="Helvetica,sans-Serif" font-size="11.00">&lt; 1</text>
<polygon fill="#ffffff" stroke="transparent" points="450.5,-198 450.5,-214 592.5,-214 592.5,-198 450.5,-198"/>
<text text-anchor="start" x="517.5" y="-203.2" font-family="Helvetica,sans-Serif" font-size="11.00"> &#160;</text>
<polygon fill="#ffffff" stroke="transparent" points="592.5,-198 592.5,-214 746.5,-214 746.5,-198 592.5,-198"/>
<text text-anchor="start" x="724.5" y="-203.2" font-family="Helvetica,sans-Serif" font-size="11.00">0 &gt;</text>
<polygon fill="black" stroke="black" points="450.5,-198 450.5,-214 450.5,-214 450.5,-198 450.5,-198"/>
<polygon fill="black" stroke="black" points="592.5,-198 592.5,-214 592.5,-214 592.5,-198 592.5,-198"/>
<polygon fill="none" stroke="black" stroke-width="2" points="293,-196 293,-348 748,-348 748,-196 293,-196"/>
</a>
</g>
</g>
<!-- smart_contracts -->
<g id="node2" class="node">
<title>smart_contracts</title>
<g id="a_node2"><a xlink:href="../../tables/smart_contracts.html" xlink:title="smart_contracts" target="_top">
<polygon fill="#ffffff" stroke="transparent" points="8,-52 8,-198 243,-198 243,-52 8,-52"/>
<polygon fill="#f5f5f5" stroke="transparent" points="8.5,-176 8.5,-198 243.5,-198 243.5,-176 8.5,-176"/>
<polygon fill="none" stroke="black" points="8.5,-176 8.5,-198 243.5,-198 243.5,-176 8.5,-176"/>
<text text-anchor="start" x="13.5" y="-185.2" font-family="Helvetica,sans-Serif" font-weight="bold" font-size="11.00">smart_contracts</text>
<text text-anchor="start" x="201.5" y="-184.2" font-family="Helvetica,sans-Serif" font-size="11.00">[table]</text>
<polygon fill="none" stroke="black" points="8.5,-154 8.5,-176 243.5,-176 243.5,-154 8.5,-154"/>
<image xlink:href="../../images/primaryKeys.png" width="11px" height="12px" preserveAspectRatio="xMinYMin meet" x="13.5" y="-171"/>
<text text-anchor="start" x="28.5" y="-162.2" font-family="Helvetica,sans-Serif" font-size="11.00">id</text>
<polygon fill="#ffffff" stroke="transparent" points="8.5,-132 8.5,-154 243.5,-154 243.5,-132 8.5,-132"/>
<polygon fill="none" stroke="black" points="8.5,-132 8.5,-154 243.5,-154 243.5,-132 8.5,-132"/>
<text text-anchor="start" x="28.5" y="-140.2" font-family="Helvetica,sans-Serif" font-size="11.00">address_hash</text>
<polygon fill="#ffffff" stroke="transparent" points="8.5,-110 8.5,-132 243.5,-132 243.5,-110 8.5,-110"/>
<polygon fill="none" stroke="black" points="8.5,-110 8.5,-132 243.5,-132 243.5,-110 8.5,-110"/>
<text text-anchor="start" x="28.5" y="-118.2" font-family="Helvetica,sans-Serif" font-size="11.00">contract_code_md5</text>
<polygon fill="#ffffff" stroke="transparent" points="8.5,-88 8.5,-110 243.5,-110 243.5,-88 8.5,-88"/>
<polygon fill="none" stroke="black" points="8.5,-88 8.5,-110 243.5,-110 243.5,-88 8.5,-88"/>
<text text-anchor="start" x="28.5" y="-96.2" font-family="Helvetica,sans-Serif" font-size="11.00">certified</text>
<polygon fill="none" stroke="black" points="8.5,-70 8.5,-88 243.5,-88 243.5,-70 8.5,-70"/>
<text text-anchor="start" x="11.5" y="-76.2" font-family="Helvetica,sans-Serif" font-size="11.00">...</text>
<polygon fill="#ffffff" stroke="transparent" points="8.5,-52 8.5,-70 243.5,-70 243.5,-52 8.5,-52"/>
<polygon fill="none" stroke="black" points="8.5,-52 8.5,-70 243.5,-70 243.5,-52 8.5,-52"/>
<polygon fill="#ffffff" stroke="transparent" points="9.5,-53 9.5,-69 83.5,-69 83.5,-53 9.5,-53"/>
<text text-anchor="start" x="11.5" y="-58.2" font-family="Helvetica,sans-Serif" font-size="11.00"> &#160;</text>
<polygon fill="#ffffff" stroke="transparent" points="83.5,-53 83.5,-69 157.5,-69 157.5,-53 83.5,-53"/>
<text text-anchor="start" x="116.5" y="-58.2" font-family="Helvetica,sans-Serif" font-size="11.00"> &#160;</text>
<polygon fill="#ffffff" stroke="transparent" points="157.5,-53 157.5,-69 242.5,-69 242.5,-53 157.5,-53"/>
<text text-anchor="start" x="220.5" y="-58.2" font-family="Helvetica,sans-Serif" font-size="11.00">3 &gt;</text>
<polygon fill="black" stroke="black" points="83.5,-53 83.5,-69 83.5,-69 83.5,-53 83.5,-53"/>
<polygon fill="black" stroke="black" points="157.5,-53 157.5,-69 157.5,-69 157.5,-53 157.5,-53"/>
</a>
</g>
</g>
<!-- proxy_smart_contract_verification_statuses&#45;&gt;smart_contracts -->
<g id="edge1" class="edge">
<title>proxy_smart_contract_verification_statuses:w&#45;&gt;smart_contracts:e</title>
<path fill="none" stroke="black" d="M279.32,-266.6C245.8,-246.41 299.09,-143 244.5,-143"/>
<polygon fill="black" stroke="black" points="285.72,-268.14 292.66,-273.5 289.61,-269.07 293.5,-270 293.5,-270 293.5,-270 289.61,-269.07 294.34,-266.5 285.72,-268.14 285.72,-268.14"/>
<ellipse fill="none" stroke="black" cx="282.61" cy="-267.39" rx="3.2" ry="3.2"/>
</g>
<!-- smart_contract_audit_reports -->
<g id="node3" class="node">
<title>smart_contract_audit_reports</title>
<g id="a_node3"><a xlink:href="../../tables/smart_contract_audit_reports.html" xlink:title="smart_contract_audit_reports" target="_top">
<polygon fill="#ffffff" stroke="transparent" points="389.5,-116 389.5,-174 651.5,-174 651.5,-116 389.5,-116"/>
<polygon fill="#f5f5f5" stroke="transparent" points="389.5,-152 389.5,-174 651.5,-174 651.5,-152 389.5,-152"/>
<polygon fill="none" stroke="black" points="389.5,-152 389.5,-174 651.5,-174 651.5,-152 389.5,-152"/>
<text text-anchor="start" x="394.5" y="-161.2" font-family="Helvetica,sans-Serif" font-weight="bold" font-size="11.00">smart_contract_audit_reports</text>
<text text-anchor="start" x="609.5" y="-160.2" font-family="Helvetica,sans-Serif" font-size="11.00">[table]</text>
<polygon fill="none" stroke="black" points="389.5,-134 389.5,-152 651.5,-152 651.5,-134 389.5,-134"/>
<text text-anchor="start" x="392.5" y="-140.2" font-family="Helvetica,sans-Serif" font-size="11.00">...</text>
<polygon fill="#ffffff" stroke="transparent" points="389.5,-116 389.5,-134 651.5,-134 651.5,-116 389.5,-116"/>
<polygon fill="none" stroke="black" points="389.5,-116 389.5,-134 651.5,-134 651.5,-116 389.5,-116"/>
<polygon fill="#ffffff" stroke="transparent" points="390.5,-117 390.5,-133 485.5,-133 485.5,-117 390.5,-117"/>
<text text-anchor="start" x="392.5" y="-122.2" font-family="Helvetica,sans-Serif" font-size="11.00">&lt; 1</text>
<polygon fill="#ffffff" stroke="transparent" points="485.5,-117 485.5,-133 568.5,-133 568.5,-117 485.5,-117"/>
<text text-anchor="start" x="523" y="-122.2" font-family="Helvetica,sans-Serif" font-size="11.00"> &#160;</text>
<polygon fill="#ffffff" stroke="transparent" points="568.5,-117 568.5,-133 650.5,-133 650.5,-117 568.5,-117"/>
<text text-anchor="start" x="640.5" y="-122.2" font-family="Helvetica,sans-Serif" font-size="11.00"> &#160;</text>
<polygon fill="black" stroke="black" points="485.5,-117 485.5,-133 485.5,-133 485.5,-117 485.5,-117"/>
<polygon fill="black" stroke="black" points="568.5,-117 568.5,-133 568.5,-133 568.5,-117 568.5,-117"/>
</a>
</g>
</g>
<!-- smart_contract_audit_reports&#45;&gt;smart_contracts -->
<g id="edge2" class="edge">
<title>smart_contract_audit_reports:w&#45;&gt;smart_contracts:e</title>
<path fill="none" stroke="black" d="M374,-143C321.63,-143 303.37,-143 244.5,-143"/>
<polygon fill="black" stroke="black" points="380.5,-143 388.5,-146.6 384.5,-143 388.5,-143 388.5,-143 388.5,-143 384.5,-143 388.5,-139.4 380.5,-143 380.5,-143"/>
<ellipse fill="none" stroke="black" cx="377.3" cy="-143" rx="3.2" ry="3.2"/>
</g>
<!-- smart_contracts_additional_sources -->
<g id="node4" class="node">
<title>smart_contracts_additional_sources</title>
<g id="a_node4"><a xlink:href="../../tables/smart_contracts_additional_sources.html" xlink:title="smart_contracts_additional_sources" target="_top">
<polygon fill="#ffffff" stroke="transparent" points="366.5,-37 366.5,-95 674.5,-95 674.5,-37 366.5,-37"/>
<polygon fill="#f5f5f5" stroke="transparent" points="366.5,-73 366.5,-95 674.5,-95 674.5,-73 366.5,-73"/>
<polygon fill="none" stroke="black" points="366.5,-73 366.5,-95 674.5,-95 674.5,-73 366.5,-73"/>
<text text-anchor="start" x="371.5" y="-82.2" font-family="Helvetica,sans-Serif" font-weight="bold" font-size="11.00">smart_contracts_additional_sources</text>
<text text-anchor="start" x="632.5" y="-81.2" font-family="Helvetica,sans-Serif" font-size="11.00">[table]</text>
<polygon fill="none" stroke="black" points="366.5,-55 366.5,-73 674.5,-73 674.5,-55 366.5,-55"/>
<text text-anchor="start" x="369.5" y="-61.2" font-family="Helvetica,sans-Serif" font-size="11.00">...</text>
<polygon fill="#ffffff" stroke="transparent" points="366.5,-37 366.5,-55 674.5,-55 674.5,-37 366.5,-37"/>
<polygon fill="none" stroke="black" points="366.5,-37 366.5,-55 674.5,-55 674.5,-37 366.5,-37"/>
<polygon fill="#ffffff" stroke="transparent" points="367.5,-38 367.5,-54 477.5,-54 477.5,-38 367.5,-38"/>
<text text-anchor="start" x="369.5" y="-43.2" font-family="Helvetica,sans-Serif" font-size="11.00">&lt; 1</text>
<polygon fill="#ffffff" stroke="transparent" points="477.5,-38 477.5,-54 575.5,-54 575.5,-38 477.5,-38"/>
<text text-anchor="start" x="522.5" y="-43.2" font-family="Helvetica,sans-Serif" font-size="11.00"> &#160;</text>
<polygon fill="#ffffff" stroke="transparent" points="575.5,-38 575.5,-54 673.5,-54 673.5,-38 575.5,-38"/>
<text text-anchor="start" x="663.5" y="-43.2" font-family="Helvetica,sans-Serif" font-size="11.00"> &#160;</text>
<polygon fill="black" stroke="black" points="477.5,-38 477.5,-54 477.5,-54 477.5,-38 477.5,-38"/>
<polygon fill="black" stroke="black" points="575.5,-38 575.5,-54 575.5,-54 575.5,-38 575.5,-38"/>
</a>
</g>
</g>
<!-- smart_contracts_additional_sources&#45;&gt;smart_contracts -->
<g id="edge3" class="edge">
<title>smart_contracts_additional_sources:w&#45;&gt;smart_contracts:e</title>
<path fill="none" stroke="black" d="M350.89,-64.95C322.32,-69.01 312.88,-85.63 284,-106 264.34,-119.86 268.55,-143 244.5,-143"/>
<polygon fill="black" stroke="black" points="357.52,-64.52 365.73,-67.59 361.51,-64.26 365.5,-64 365.5,-64 365.5,-64 361.51,-64.26 365.27,-60.41 357.52,-64.52 357.52,-64.52"/>
<ellipse fill="none" stroke="black" cx="354.32" cy="-64.73" rx="3.2" ry="3.2"/>
</g>
</g>
</svg>
