<?xml version="1.0" encoding="UTF-8" standalone="no"?>
<!DOCTYPE svg PUBLIC "-//W3C//DTD SVG 1.1//EN"
 "http://www.w3.org/Graphics/SVG/1.1/DTD/svg11.dtd">
<!-- Generated by graphviz version 2.43.0 (0)
 -->
<!-- Title: oneDegreeRelationshipsDiagram Pages: 1 -->
<svg width="399pt" height="269pt"
 viewBox="0.00 0.00 399.00 269.00" xmlns="http://www.w3.org/2000/svg" xmlns:xlink="http://www.w3.org/1999/xlink">
<g id="graph0" class="graph" transform="scale(1 1) rotate(0) translate(4 265)">
<title>oneDegreeRelationshipsDiagram</title>
<polygon fill="#ffffff" stroke="transparent" points="-4,4 -4,-265 395,-265 395,4 -4,4"/>
<text text-anchor="middle" x="79.5" y="-7.2" font-family="Helvetica,sans-Serif" font-size="11.00">Generated by SchemaSpy</text>
<!-- proxy_implementations -->
<g id="node1" class="node">
<title>proxy_implementations</title>
<g id="a_node1"><a xlink:href="../../tables/proxy_implementations.html" xlink:title="proxy_implementations" target="_top">
<polygon fill="#ffffff" stroke="transparent" points="8,-37 8,-257 383,-257 383,-37 8,-37"/>
<polygon fill="#f5f5f5" stroke="transparent" points="10.5,-233 10.5,-255 381.5,-255 381.5,-233 10.5,-233"/>
<polygon fill="none" stroke="black" points="10.5,-233 10.5,-255 381.5,-255 381.5,-233 10.5,-233"/>
<text text-anchor="start" x="15.5" y="-242.2" font-family="Helvetica,sans-Serif" font-weight="bold" font-size="11.00">proxy_implementations</text>
<text text-anchor="start" x="339.5" y="-241.2" font-family="Helvetica,sans-Serif" font-size="11.00">[table]</text>
<polygon fill="none" stroke="black" points="10.5,-211 10.5,-233 231.5,-233 231.5,-211 10.5,-211"/>
<image xlink:href="../../images/primaryKeys.png" width="11px" height="12px" preserveAspectRatio="xMinYMin meet" x="15.5" y="-228"/>
<text text-anchor="start" x="30.5" y="-219.2" font-family="Helvetica,sans-Serif" font-size="11.00">proxy_address_hash</text>
<polygon fill="none" stroke="black" points="231.5,-211 231.5,-233 381.5,-233 381.5,-211 231.5,-211"/>
<text text-anchor="start" x="234.5" y="-219.2" font-family="Helvetica,sans-Serif" font-size="11.00">bytea[2147483647]</text>
<polygon fill="none" stroke="black" points="10.5,-189 10.5,-211 231.5,-211 231.5,-189 10.5,-189"/>
<text text-anchor="start" x="30.5" y="-197.2" font-family="Helvetica,sans-Serif" font-size="11.00">address_hashes</text>
<polygon fill="none" stroke="black" points="231.5,-189 231.5,-211 381.5,-211 381.5,-189 231.5,-189"/>
<text text-anchor="start" x="234.5" y="-197.2" font-family="Helvetica,sans-Serif" font-size="11.00">_bytea[2147483647]</text>
<polygon fill="none" stroke="black" points="10.5,-167 10.5,-189 231.5,-189 231.5,-167 10.5,-167"/>
<text text-anchor="start" x="30.5" y="-175.2" font-family="Helvetica,sans-Serif" font-size="11.00">names</text>
<polygon fill="none" stroke="black" points="231.5,-167 231.5,-189 381.5,-189 381.5,-167 231.5,-167"/>
<text text-anchor="start" x="234.5" y="-175.2" font-family="Helvetica,sans-Serif" font-size="11.00">_varchar[255]</text>
<polygon fill="none" stroke="black" points="10.5,-145 10.5,-167 231.5,-167 231.5,-145 10.5,-145"/>
<text text-anchor="start" x="30.5" y="-153.2" font-family="Helvetica,sans-Serif" font-size="11.00">inserted_at</text>
<polygon fill="none" stroke="black" points="231.5,-145 231.5,-167 381.5,-167 381.5,-145 231.5,-145"/>
<text text-anchor="start" x="234.5" y="-153.2" font-family="Helvetica,sans-Serif" font-size="11.00">timestamp[29,6]</text>
<polygon fill="none" stroke="black" points="10.5,-123 10.5,-145 231.5,-145 231.5,-123 10.5,-123"/>
<text text-anchor="start" x="30.5" y="-131.2" font-family="Helvetica,sans-Serif" font-size="11.00">updated_at</text>
<polygon fill="none" stroke="black" points="231.5,-123 231.5,-145 381.5,-145 381.5,-123 231.5,-123"/>
<text text-anchor="start" x="234.5" y="-131.2" font-family="Helvetica,sans-Serif" font-size="11.00">timestamp[29,6]</text>
<polygon fill="#ffffff" stroke="transparent" points="10.5,-101 10.5,-123 231.5,-123 231.5,-101 10.5,-101"/>
<polygon fill="none" stroke="black" points="10.5,-101 10.5,-123 231.5,-123 231.5,-101 10.5,-101"/>
<text text-anchor="start" x="30.5" y="-109.2" font-family="Helvetica,sans-Serif" font-size="11.00">proxy_type</text>
<polygon fill="none" stroke="black" points="231.5,-101 231.5,-123 381.5,-123 381.5,-101 231.5,-101"/>
<text text-anchor="start" x="234.5" y="-109.2" font-family="Helvetica,sans-Serif" font-size="11.00">proxy_type[2147483647]</text>
<polygon fill="none" stroke="black" points="10.5,-79 10.5,-101 231.5,-101 231.5,-79 10.5,-79"/>
<text text-anchor="start" x="30.5" y="-87.2" font-family="Helvetica,sans-Serif" font-size="11.00">conflicting_proxy_types</text>
<polygon fill="none" stroke="black" points="231.5,-79 231.5,-101 381.5,-101 381.5,-79 231.5,-79"/>
<text text-anchor="start" x="234.5" y="-87.2" font-family="Helvetica,sans-Serif" font-size="11.00">_proxy_type[2147483647]</text>
<polygon fill="none" stroke="black" points="10.5,-57 10.5,-79 231.5,-79 231.5,-57 10.5,-57"/>
<text text-anchor="start" x="30.5" y="-65.2" font-family="Helvetica,sans-Serif" font-size="11.00">conflicting_address_hashes</text>
<polygon fill="none" stroke="black" points="231.5,-57 231.5,-79 381.5,-79 381.5,-57 231.5,-57"/>
<text text-anchor="start" x="234.5" y="-65.2" font-family="Helvetica,sans-Serif" font-size="11.00">_bytea[2147483647]</text>
<polygon fill="#ffffff" stroke="transparent" points="10.5,-39 10.5,-57 381.5,-57 381.5,-39 10.5,-39"/>
<polygon fill="none" stroke="black" points="10.5,-39 10.5,-57 381.5,-57 381.5,-39 10.5,-39"/>
<polygon fill="#ffffff" stroke="transparent" points="11.5,-40 11.5,-56 138.5,-56 138.5,-40 11.5,-40"/>
<text text-anchor="start" x="13.5" y="-45.2" font-family="Helvetica,sans-Serif" font-size="11.00">&lt; 0</text>
<polygon fill="#ffffff" stroke="transparent" points="138.5,-40 138.5,-56 253.5,-56 253.5,-40 138.5,-40"/>
<text text-anchor="start" x="192" y="-45.2" font-family="Helvetica,sans-Serif" font-size="11.00"> &#160;</text>
<polygon fill="#ffffff" stroke="transparent" points="253.5,-40 253.5,-56 380.5,-56 380.5,-40 253.5,-40"/>
<text text-anchor="start" x="358.5" y="-45.2" font-family="Helvetica,sans-Serif" font-size="11.00">0 &gt;</text>
<polygon fill="black" stroke="black" points="138.5,-40 138.5,-56 138.5,-56 138.5,-40 138.5,-40"/>
<polygon fill="black" stroke="black" points="253.5,-40 253.5,-56 253.5,-56 253.5,-40 253.5,-40"/>
<polygon fill="none" stroke="black" stroke-width="2" points="9,-38 9,-256 382,-256 382,-38 9,-38"/>
</a>
</g>
</g>
</g>
</svg>
