<?xml version="1.0" encoding="UTF-8" standalone="no"?>
<!DOCTYPE svg PUBLIC "-//W3C//DTD SVG 1.1//EN"
 "http://www.w3.org/Graphics/SVG/1.1/DTD/svg11.dtd">
<!-- Generated by graphviz version 9.0.0 (20230911.1827)
 -->
<!-- Title: oneDegreeRelationshipsDiagram Pages: 1 -->
<svg width="234pt" height="137pt"
 viewBox="0.00 0.00 234.00 137.00" xmlns="http://www.w3.org/2000/svg" xmlns:xlink="http://www.w3.org/1999/xlink">
<g id="graph0" class="graph" transform="scale(1 1) rotate(0) translate(4 133)">
<title>oneDegreeRelationshipsDiagram</title>
<polygon fill="#ffffff" stroke="none" points="-4,4 -4,-133 230,-133 230,4 -4,4"/>
<text text-anchor="middle" x="71.38" y="-5.55" font-family="Helvetica,sans-Serif" font-size="11.00">Generated by SchemaSpy</text>
<!-- schema_migrations -->
<g id="node1" class="node">
<title>schema_migrations</title>
<g id="a_node1"><a xlink:href="../../tables/schema_migrations.html" xlink:title="schema_migrations" target="_top">
<polygon fill="#ffffff" stroke="none" points="8,-37 8,-125 218,-125 218,-37 8,-37"/>
<polygon fill="#f5f5f5" stroke="none" points="10,-101 10,-123 216,-123 216,-101 10,-101"/>
<polygon fill="none" stroke="black" points="10,-101 10,-123 216,-123 216,-101 10,-101"/>
<text text-anchor="start" x="15" y="-108.55" font-family="Helvetica,sans-Serif" font-weight="bold" font-size="11.00">schema_migrations</text>
<text text-anchor="start" x="181.75" y="-107.55" font-family="Helvetica,sans-Serif" font-size="11.00">[table]</text>
<polygon fill="none" stroke="black" points="10,-79 10,-101 143,-101 143,-79 10,-79"/>
<image xlink:href="../../images/primaryKeys.png" width="11px" height="12px" preserveAspectRatio="xMinYMin meet" x="15" y="-96"/>
<text text-anchor="start" x="30" y="-85.55" font-family="Helvetica,sans-Serif" font-size="11.00">version</text>
<polygon fill="none" stroke="black" points="143,-79 143,-101 216,-101 216,-79 143,-79"/>
<text text-anchor="start" x="146" y="-85.55" font-family="Helvetica,sans-Serif" font-size="11.00">int8[19]</text>
<polygon fill="none" stroke="black" points="10,-57 10,-79 143,-79 143,-57 10,-57"/>
<text text-anchor="start" x="30" y="-63.55" font-family="Helvetica,sans-Serif" font-size="11.00">inserted_at</text>
<polygon fill="none" stroke="black" points="143,-57 143,-79 216,-79 216,-57 143,-57"/>
<text text-anchor="start" x="145.75" y="-63.55" font-family="Helvetica,sans-Serif" font-size="11.00">timestamp[22]</text>
<polygon fill="#ffffff" stroke="none" points="10,-39 10,-57 81,-57 81,-39 10,-39"/>
<polygon fill="none" stroke="black" points="10,-39 10,-57 81,-57 81,-39 10,-39"/>
<text text-anchor="start" x="13" y="-43.55" font-family="Helvetica,sans-Serif" font-size="11.00">&lt; 0</text>
<polygon fill="#ffffff" stroke="none" points="81,-39 81,-57 143,-57 143,-39 81,-39"/>
<polygon fill="none" stroke="black" points="81,-39 81,-57 143,-57 143,-39 81,-39"/>
<text text-anchor="start" x="134" y="-43.55" font-family="Helvetica,sans-Serif" font-size="11.00"> &#160;</text>
<polygon fill="#ffffff" stroke="none" points="143,-39 143,-57 216,-57 216,-39 143,-39"/>
<polygon fill="none" stroke="black" points="143,-39 143,-57 216,-57 216,-39 143,-39"/>
<text text-anchor="start" x="197.25" y="-43.55" font-family="Helvetica,sans-Serif" font-size="11.00">0 &gt;</text>
<polygon fill="none" stroke="black" stroke-width="2" points="9,-38 9,-124 217,-124 217,-38 9,-38"/>
</a>
</g>
</g>
</g>
</svg>
