<?xml version="1.0" encoding="UTF-8" standalone="no"?>
<!DOCTYPE svg PUBLIC "-//W3C//DTD SVG 1.1//EN"
 "http://www.w3.org/Graphics/SVG/1.1/DTD/svg11.dtd">
<!-- Generated by graphviz version 2.43.0 (0)
 -->
<!-- Title: twoDegreesRelationshipsDiagramImplied Pages: 1 -->
<svg width="1095pt" height="831pt"
 viewBox="0.00 0.00 1095.00 831.00" xmlns="http://www.w3.org/2000/svg" xmlns:xlink="http://www.w3.org/1999/xlink">
<g id="graph0" class="graph" transform="scale(1 1) rotate(0) translate(4 827)">
<title>twoDegreesRelationshipsDiagramImplied</title>
<polygon fill="#ffffff" stroke="transparent" points="-4,4 -4,-827 1091,-827 1091,4 -4,4"/>
<text text-anchor="middle" x="79.5" y="-7.2" font-family="Helvetica,sans-Serif" font-size="11.00">Generated by SchemaSpy</text>
<!-- internal_transactions -->
<g id="node1" class="node">
<title>internal_transactions</title>
<g id="a_node1"><a xlink:href="../../tables/internal_transactions.html" xlink:title="internal_transactions" target="_top">
<polygon fill="#ffffff" stroke="transparent" points="766.5,-761 766.5,-819 968.5,-819 968.5,-761 766.5,-761"/>
<polygon fill="#f5f5f5" stroke="transparent" points="766.5,-797 766.5,-819 968.5,-819 968.5,-797 766.5,-797"/>
<polygon fill="none" stroke="black" points="766.5,-797 766.5,-819 968.5,-819 968.5,-797 766.5,-797"/>
<text text-anchor="start" x="771.5" y="-806.2" font-family="Helvetica,sans-Serif" font-weight="bold" font-size="11.00">internal_transactions</text>
<text text-anchor="start" x="926.5" y="-805.2" font-family="Helvetica,sans-Serif" font-size="11.00">[table]</text>
<polygon fill="none" stroke="black" points="766.5,-779 766.5,-797 968.5,-797 968.5,-779 766.5,-779"/>
<text text-anchor="start" x="769.5" y="-785.2" font-family="Helvetica,sans-Serif" font-size="11.00">...</text>
<polygon fill="#ffffff" stroke="transparent" points="766.5,-761 766.5,-779 968.5,-779 968.5,-761 766.5,-761"/>
<polygon fill="none" stroke="black" points="766.5,-761 766.5,-779 968.5,-779 968.5,-761 766.5,-761"/>
<polygon fill="#ffffff" stroke="transparent" points="767.5,-762 767.5,-778 842.5,-778 842.5,-762 767.5,-762"/>
<text text-anchor="start" x="769.5" y="-767.2" font-family="Helvetica,sans-Serif" font-size="11.00">&lt; 4</text>
<polygon fill="#ffffff" stroke="transparent" points="842.5,-762 842.5,-778 905.5,-778 905.5,-762 842.5,-762"/>
<text text-anchor="start" x="870" y="-767.2" font-family="Helvetica,sans-Serif" font-size="11.00"> &#160;</text>
<polygon fill="#ffffff" stroke="transparent" points="905.5,-762 905.5,-778 967.5,-778 967.5,-762 905.5,-762"/>
<text text-anchor="start" x="957.5" y="-767.2" font-family="Helvetica,sans-Serif" font-size="11.00"> &#160;</text>
<polygon fill="black" stroke="black" points="842.5,-762 842.5,-778 842.5,-778 842.5,-762 842.5,-762"/>
<polygon fill="black" stroke="black" points="905.5,-762 905.5,-778 905.5,-778 905.5,-762 905.5,-762"/>
</a>
</g>
</g>
<!-- blocks -->
<g id="node2" class="node">
<title>blocks</title>
<g id="a_node2"><a xlink:href="../../tables/blocks.html" xlink:title="blocks" target="_top">
<polygon fill="#ffffff" stroke="transparent" points="8,-307 8,-365 101,-365 101,-307 8,-307"/>
<polygon fill="#f5f5f5" stroke="transparent" points="8.5,-343 8.5,-365 101.5,-365 101.5,-343 8.5,-343"/>
<polygon fill="none" stroke="black" points="8.5,-343 8.5,-365 101.5,-365 101.5,-343 8.5,-343"/>
<text text-anchor="start" x="13.5" y="-352.2" font-family="Helvetica,sans-Serif" font-weight="bold" font-size="11.00">blocks</text>
<text text-anchor="start" x="59.5" y="-351.2" font-family="Helvetica,sans-Serif" font-size="11.00">[table]</text>
<polygon fill="none" stroke="black" points="8.5,-325 8.5,-343 101.5,-343 101.5,-325 8.5,-325"/>
<text text-anchor="start" x="11.5" y="-331.2" font-family="Helvetica,sans-Serif" font-size="11.00">...</text>
<polygon fill="#ffffff" stroke="transparent" points="8.5,-307 8.5,-325 101.5,-325 101.5,-307 8.5,-307"/>
<polygon fill="none" stroke="black" points="8.5,-307 8.5,-325 101.5,-325 101.5,-307 8.5,-307"/>
<polygon fill="#ffffff" stroke="transparent" points="9.5,-308 9.5,-324 36.5,-324 36.5,-308 9.5,-308"/>
<text text-anchor="start" x="11.5" y="-313.2" font-family="Helvetica,sans-Serif" font-size="11.00"> &#160;</text>
<polygon fill="#ffffff" stroke="transparent" points="36.5,-308 36.5,-324 62.5,-324 62.5,-308 36.5,-308"/>
<text text-anchor="start" x="45.5" y="-313.2" font-family="Helvetica,sans-Serif" font-size="11.00"> &#160;</text>
<polygon fill="#ffffff" stroke="transparent" points="62.5,-308 62.5,-324 100.5,-324 100.5,-308 62.5,-308"/>
<text text-anchor="start" x="78.5" y="-313.2" font-family="Helvetica,sans-Serif" font-size="11.00">9 &gt;</text>
<polygon fill="black" stroke="black" points="36.5,-308 36.5,-324 36.5,-324 36.5,-308 36.5,-308"/>
<polygon fill="black" stroke="black" points="62.5,-308 62.5,-324 62.5,-324 62.5,-308 62.5,-308"/>
</a>
</g>
</g>
<!-- internal_transactions&#45;&gt;blocks -->
<g id="edge1" class="edge">
<title>internal_transactions:w&#45;&gt;blocks:e</title>
<path fill="none" stroke="black" d="M750.75,-788.08C478.19,-791.03 330.42,-873.14 142,-670 90.87,-614.88 177.68,-334 102.5,-334"/>
<polygon fill="black" stroke="black" points="757.5,-788.04 765.52,-791.6 761.5,-788.02 765.5,-788 765.5,-788 765.5,-788 761.5,-788.02 765.48,-784.4 757.5,-788.04 757.5,-788.04"/>
<ellipse fill="none" stroke="black" cx="754.3" cy="-788.06" rx="3.2" ry="3.2"/>
</g>
<!-- withdrawals -->
<g id="node3" class="node">
<title>withdrawals</title>
<g id="a_node3"><a xlink:href="../../tables/withdrawals.html" xlink:title="withdrawals" target="_top">
<polygon fill="#ffffff" stroke="transparent" points="150,-601 150,-659 286,-659 286,-601 150,-601"/>
<polygon fill="#f5f5f5" stroke="transparent" points="150,-637 150,-659 286,-659 286,-637 150,-637"/>
<polygon fill="none" stroke="black" points="150,-637 150,-659 286,-659 286,-637 150,-637"/>
<text text-anchor="start" x="155" y="-646.2" font-family="Helvetica,sans-Serif" font-weight="bold" font-size="11.00">withdrawals</text>
<text text-anchor="start" x="244" y="-645.2" font-family="Helvetica,sans-Serif" font-size="11.00">[table]</text>
<polygon fill="none" stroke="black" points="150,-619 150,-637 286,-637 286,-619 150,-619"/>
<text text-anchor="start" x="153" y="-625.2" font-family="Helvetica,sans-Serif" font-size="11.00">...</text>
<polygon fill="#ffffff" stroke="transparent" points="150,-601 150,-619 286,-619 286,-601 150,-601"/>
<polygon fill="none" stroke="black" points="150,-601 150,-619 286,-619 286,-601 150,-601"/>
<polygon fill="#ffffff" stroke="transparent" points="151,-602 151,-618 200,-618 200,-602 151,-602"/>
<text text-anchor="start" x="153" y="-607.2" font-family="Helvetica,sans-Serif" font-size="11.00">&lt; 1</text>
<polygon fill="#ffffff" stroke="transparent" points="200,-602 200,-618 237,-618 237,-602 200,-602"/>
<text text-anchor="start" x="214.5" y="-607.2" font-family="Helvetica,sans-Serif" font-size="11.00"> &#160;</text>
<polygon fill="#ffffff" stroke="transparent" points="237,-602 237,-618 285,-618 285,-602 237,-602"/>
<text text-anchor="start" x="263" y="-607.2" font-family="Helvetica,sans-Serif" font-size="11.00">5 &gt;</text>
<polygon fill="black" stroke="black" points="200,-602 200,-618 200,-618 200,-602 200,-602"/>
<polygon fill="black" stroke="black" points="237,-602 237,-618 237,-618 237,-602 237,-602"/>
</a>
</g>
</g>
<!-- internal_transactions&#45;&gt;withdrawals -->
<g id="edge2" class="edge">
<title>internal_transactions:w&#45;&gt;withdrawals:e</title>
<path fill="none" stroke="black" stroke-dasharray="5,2" d="M750.92,-787.47C708.33,-784.17 695.12,-766.2 648,-751 505.01,-704.88 467.59,-697.98 327,-645 308.92,-638.19 306.32,-628 287,-628"/>
<polygon fill="black" stroke="black" points="757.51,-787.71 765.37,-791.6 761.5,-787.85 765.5,-788 765.5,-788 765.5,-788 761.5,-787.85 765.63,-784.4 757.51,-787.71 757.51,-787.71"/>
<ellipse fill="none" stroke="black" cx="754.31" cy="-787.59" rx="3.2" ry="3.2"/>
</g>
<!-- internal_transactions&#45;&gt;withdrawals -->
<g id="edge4" class="edge">
<title>internal_transactions:w&#45;&gt;withdrawals:e</title>
<path fill="none" stroke="black" stroke-dasharray="5,2" d="M750.92,-787.47C708.32,-784.21 695.05,-766.42 648,-751 645.48,-750.18 289.65,-628 287,-628"/>
<polygon fill="black" stroke="black" points="757.51,-787.71 765.37,-791.6 761.5,-787.86 765.5,-788 765.5,-788 765.5,-788 761.5,-787.86 765.63,-784.4 757.51,-787.71 757.51,-787.71"/>
<ellipse fill="none" stroke="black" cx="754.31" cy="-787.59" rx="3.2" ry="3.2"/>
</g>
<!-- transactions -->
<g id="node4" class="node">
<title>transactions</title>
<g id="a_node4"><a xlink:href="../../tables/transactions.html" xlink:title="transactions" target="_top">
<polygon fill="#ffffff" stroke="transparent" points="335,-246 335,-634 607,-634 607,-246 335,-246"/>
<polygon fill="#f5f5f5" stroke="transparent" points="335,-612 335,-634 607,-634 607,-612 335,-612"/>
<polygon fill="none" stroke="black" points="335,-612 335,-634 607,-634 607,-612 335,-612"/>
<text text-anchor="start" x="340" y="-621.2" font-family="Helvetica,sans-Serif" font-weight="bold" font-size="11.00">transactions</text>
<text text-anchor="start" x="565" y="-620.2" font-family="Helvetica,sans-Serif" font-size="11.00">[table]</text>
<polygon fill="#ffffff" stroke="transparent" points="335,-590 335,-612 607,-612 607,-590 335,-590"/>
<polygon fill="none" stroke="black" points="335,-590 335,-612 607,-612 607,-590 335,-590"/>
<text text-anchor="start" x="355" y="-598.2" font-family="Helvetica,sans-Serif" font-size="11.00">error</text>
<polygon fill="none" stroke="black" points="335,-568 335,-590 607,-590 607,-568 335,-568"/>
<image xlink:href="../../images/primaryKeys.png" width="11px" height="12px" preserveAspectRatio="xMinYMin meet" x="340" y="-585"/>
<text text-anchor="start" x="355" y="-576.2" font-family="Helvetica,sans-Serif" font-size="11.00">hash</text>
<polygon fill="#ffffff" stroke="transparent" points="335,-546 335,-568 607,-568 607,-546 335,-546"/>
<polygon fill="none" stroke="black" points="335,-546 335,-568 607,-568 607,-546 335,-546"/>
<image xlink:href="../../images/foreignKeys.png" width="11px" height="12px" preserveAspectRatio="xMinYMin meet" x="340" y="-563"/>
<text text-anchor="start" x="355" y="-554.2" font-family="Helvetica,sans-Serif" font-size="11.00">index</text>
<polygon fill="#ffffff" stroke="transparent" points="335,-524 335,-546 607,-546 607,-524 335,-524"/>
<polygon fill="none" stroke="black" points="335,-524 335,-546 607,-546 607,-524 335,-524"/>
<text text-anchor="start" x="355" y="-532.2" font-family="Helvetica,sans-Serif" font-size="11.00">nonce</text>
<polygon fill="#ffffff" stroke="transparent" points="335,-502 335,-524 607,-524 607,-502 335,-502"/>
<polygon fill="none" stroke="black" points="335,-502 335,-524 607,-524 607,-502 335,-502"/>
<text text-anchor="start" x="355" y="-510.2" font-family="Helvetica,sans-Serif" font-size="11.00">status</text>
<polygon fill="#ffffff" stroke="transparent" points="335,-480 335,-502 607,-502 607,-480 335,-480"/>
<polygon fill="none" stroke="black" points="335,-480 335,-502 607,-502 607,-480 335,-480"/>
<text text-anchor="start" x="355" y="-488.2" font-family="Helvetica,sans-Serif" font-size="11.00">inserted_at</text>
<polygon fill="#ffffff" stroke="transparent" points="335,-458 335,-480 607,-480 607,-458 335,-458"/>
<polygon fill="none" stroke="black" points="335,-458 335,-480 607,-480 607,-458 335,-458"/>
<text text-anchor="start" x="355" y="-466.2" font-family="Helvetica,sans-Serif" font-size="11.00">updated_at</text>
<polygon fill="#ffffff" stroke="transparent" points="335,-436 335,-458 607,-458 607,-436 335,-436"/>
<polygon fill="none" stroke="black" points="335,-436 335,-458 607,-458 607,-436 335,-436"/>
<image xlink:href="../../images/foreignKeys.png" width="11px" height="12px" preserveAspectRatio="xMinYMin meet" x="340" y="-453"/>
<text text-anchor="start" x="355" y="-444.2" font-family="Helvetica,sans-Serif" font-size="11.00">block_hash</text>
<polygon fill="#ffffff" stroke="transparent" points="335,-414 335,-436 607,-436 607,-414 335,-414"/>
<polygon fill="none" stroke="black" points="335,-414 335,-436 607,-436 607,-414 335,-414"/>
<text text-anchor="start" x="355" y="-422.2" font-family="Helvetica,sans-Serif" font-size="11.00">block_number</text>
<polygon fill="#ffffff" stroke="transparent" points="335,-392 335,-414 607,-414 607,-392 335,-392"/>
<polygon fill="none" stroke="black" points="335,-392 335,-414 607,-414 607,-392 335,-392"/>
<text text-anchor="start" x="355" y="-400.2" font-family="Helvetica,sans-Serif" font-size="11.00">from_address_hash</text>
<polygon fill="#ffffff" stroke="transparent" points="335,-370 335,-392 607,-392 607,-370 335,-370"/>
<polygon fill="none" stroke="black" points="335,-370 335,-392 607,-392 607,-370 335,-370"/>
<text text-anchor="start" x="355" y="-378.2" font-family="Helvetica,sans-Serif" font-size="11.00">to_address_hash</text>
<polygon fill="#ffffff" stroke="transparent" points="335,-348 335,-370 607,-370 607,-348 335,-348"/>
<polygon fill="none" stroke="black" points="335,-348 335,-370 607,-370 607,-348 335,-348"/>
<text text-anchor="start" x="355" y="-356.2" font-family="Helvetica,sans-Serif" font-size="11.00">created_contract_address_hash</text>
<polygon fill="#ffffff" stroke="transparent" points="335,-326 335,-348 607,-348 607,-326 335,-326"/>
<polygon fill="none" stroke="black" points="335,-326 335,-348 607,-348 607,-326 335,-326"/>
<text text-anchor="start" x="355" y="-334.2" font-family="Helvetica,sans-Serif" font-size="11.00">created_contract_code_indexed_at</text>
<polygon fill="#ffffff" stroke="transparent" points="335,-304 335,-326 607,-326 607,-304 335,-304"/>
<polygon fill="none" stroke="black" points="335,-304 335,-326 607,-326 607,-304 335,-304"/>
<text text-anchor="start" x="355" y="-312.2" font-family="Helvetica,sans-Serif" font-size="11.00">block_timestamp</text>
<polygon fill="#ffffff" stroke="transparent" points="335,-282 335,-304 607,-304 607,-282 335,-282"/>
<polygon fill="none" stroke="black" points="335,-282 335,-304 607,-304 607,-282 335,-282"/>
<text text-anchor="start" x="355" y="-290.2" font-family="Helvetica,sans-Serif" font-size="11.00">block_consensus</text>
<polygon fill="none" stroke="black" points="335,-264 335,-282 607,-282 607,-264 335,-264"/>
<text text-anchor="start" x="338" y="-270.2" font-family="Helvetica,sans-Serif" font-size="11.00">...</text>
<polygon fill="#ffffff" stroke="transparent" points="335,-246 335,-264 607,-264 607,-246 335,-246"/>
<polygon fill="none" stroke="black" points="335,-246 335,-264 607,-264 607,-246 335,-246"/>
<polygon fill="#ffffff" stroke="transparent" points="336,-247 336,-263 430,-263 430,-247 336,-247"/>
<text text-anchor="start" x="338" y="-252.2" font-family="Helvetica,sans-Serif" font-size="11.00">&lt; 2</text>
<polygon fill="#ffffff" stroke="transparent" points="430,-247 430,-263 512,-263 512,-247 430,-247"/>
<text text-anchor="start" x="467" y="-252.2" font-family="Helvetica,sans-Serif" font-size="11.00"> &#160;</text>
<polygon fill="#ffffff" stroke="transparent" points="512,-247 512,-263 606,-263 606,-247 512,-247"/>
<text text-anchor="start" x="584" y="-252.2" font-family="Helvetica,sans-Serif" font-size="11.00">7 &gt;</text>
<polygon fill="black" stroke="black" points="430,-247 430,-263 430,-263 430,-247 430,-247"/>
<polygon fill="black" stroke="black" points="512,-247 512,-263 512,-263 512,-247 512,-247"/>
</a>
</g>
</g>
<!-- internal_transactions&#45;&gt;transactions -->
<g id="edge3" class="edge">
<title>internal_transactions:w&#45;&gt;transactions:e</title>
<path fill="none" stroke="black" d="M750.84,-788.05C705.86,-788.21 681.72,-787.4 648,-751 594.67,-693.42 686.48,-579 608,-579"/>
<polygon fill="black" stroke="black" points="757.5,-788.02 765.51,-791.6 761.5,-788.01 765.5,-788 765.5,-788 765.5,-788 761.5,-788.01 765.49,-784.4 757.5,-788.02 757.5,-788.02"/>
<ellipse fill="none" stroke="black" cx="754.3" cy="-788.03" rx="3.2" ry="3.2"/>
</g>
<!-- withdrawals&#45;&gt;blocks -->
<g id="edge16" class="edge">
<title>withdrawals:w&#45;&gt;blocks:e</title>
<path fill="none" stroke="black" d="M135.62,-622.39C95.91,-581.74 163.22,-334 102.5,-334"/>
<polygon fill="black" stroke="black" points="141.62,-624.91 147.61,-631.32 145.31,-626.45 149,-628 149,-628 149,-628 145.31,-626.45 150.39,-624.68 141.62,-624.91 141.62,-624.91"/>
<ellipse fill="none" stroke="black" cx="138.67" cy="-623.67" rx="3.2" ry="3.2"/>
</g>
<!-- transactions&#45;&gt;blocks -->
<g id="edge14" class="edge">
<title>transactions:w&#45;&gt;blocks:e</title>
<path fill="none" stroke="black" d="M319.54,-446.36C219.07,-437.29 211.96,-334 102.5,-334"/>
<polygon fill="black" stroke="black" points="326.01,-446.65 333.84,-450.6 330,-446.82 334,-447 334,-447 334,-447 330,-446.82 334.16,-443.4 326.01,-446.65 326.01,-446.65"/>
<ellipse fill="none" stroke="black" cx="322.81" cy="-446.51" rx="3.2" ry="3.2"/>
</g>
<!-- transactions&#45;&gt;withdrawals -->
<g id="edge15" class="edge">
<title>transactions:w&#45;&gt;withdrawals:e</title>
<path fill="none" stroke="black" stroke-dasharray="5,2" d="M320.16,-562.11C303.78,-578.39 318.63,-628 287,-628"/>
<polygon fill="black" stroke="black" points="326.49,-559.77 335.25,-560.38 330.25,-558.38 334,-557 334,-557 334,-557 330.25,-558.38 332.75,-553.62 326.49,-559.77 326.49,-559.77"/>
<ellipse fill="none" stroke="black" cx="323.49" cy="-560.88" rx="3.2" ry="3.2"/>
</g>
<!-- logs -->
<g id="node5" class="node">
<title>logs</title>
<g id="a_node5"><a xlink:href="../../tables/logs.html" xlink:title="logs" target="_top">
<polygon fill="#ffffff" stroke="transparent" points="829,-195 829,-253 906,-253 906,-195 829,-195"/>
<polygon fill="#f5f5f5" stroke="transparent" points="829.5,-231 829.5,-253 906.5,-253 906.5,-231 829.5,-231"/>
<polygon fill="none" stroke="black" points="829.5,-231 829.5,-253 906.5,-253 906.5,-231 829.5,-231"/>
<text text-anchor="start" x="834.5" y="-240.2" font-family="Helvetica,sans-Serif" font-weight="bold" font-size="11.00">logs</text>
<text text-anchor="start" x="864.5" y="-239.2" font-family="Helvetica,sans-Serif" font-size="11.00">[table]</text>
<polygon fill="none" stroke="black" points="829.5,-213 829.5,-231 906.5,-231 906.5,-213 829.5,-213"/>
<text text-anchor="start" x="832.5" y="-219.2" font-family="Helvetica,sans-Serif" font-size="11.00">...</text>
<polygon fill="#ffffff" stroke="transparent" points="829.5,-195 829.5,-213 906.5,-213 906.5,-195 829.5,-195"/>
<polygon fill="none" stroke="black" points="829.5,-195 829.5,-213 906.5,-213 906.5,-195 829.5,-195"/>
<polygon fill="#ffffff" stroke="transparent" points="830.5,-196 830.5,-212 863.5,-212 863.5,-196 830.5,-196"/>
<text text-anchor="start" x="832.5" y="-201.2" font-family="Helvetica,sans-Serif" font-size="11.00">&lt; 2</text>
<polygon fill="#ffffff" stroke="transparent" points="863.5,-196 863.5,-212 884.5,-212 884.5,-196 863.5,-196"/>
<text text-anchor="start" x="870" y="-201.2" font-family="Helvetica,sans-Serif" font-size="11.00"> &#160;</text>
<polygon fill="#ffffff" stroke="transparent" points="884.5,-196 884.5,-212 905.5,-212 905.5,-196 884.5,-196"/>
<text text-anchor="start" x="895.5" y="-201.2" font-family="Helvetica,sans-Serif" font-size="11.00"> &#160;</text>
<polygon fill="black" stroke="black" points="863.5,-196 863.5,-212 863.5,-212 863.5,-196 863.5,-196"/>
<polygon fill="black" stroke="black" points="884.5,-196 884.5,-212 884.5,-212 884.5,-196 884.5,-196"/>
</a>
</g>
</g>
<!-- logs&#45;&gt;blocks -->
<g id="edge5" class="edge">
<title>logs:w&#45;&gt;blocks:e</title>
<path fill="none" stroke="black" d="M814.03,-221.95C602.77,-220.52 539.83,-188.46 327,-236 220.75,-259.73 211.37,-334 102.5,-334"/>
<polygon fill="black" stroke="black" points="820.5,-221.97 828.49,-225.6 824.5,-221.99 828.5,-222 828.5,-222 828.5,-222 824.5,-221.99 828.51,-218.4 820.5,-221.97 820.5,-221.97"/>
<ellipse fill="none" stroke="black" cx="817.3" cy="-221.96" rx="3.2" ry="3.2"/>
</g>
<!-- logs&#45;&gt;transactions -->
<g id="edge6" class="edge">
<title>logs:w&#45;&gt;transactions:e</title>
<path fill="none" stroke="black" d="M813.96,-221.81C740.89,-219.98 699.85,-206.56 648,-264 600.72,-316.38 678.56,-579 608,-579"/>
<polygon fill="black" stroke="black" points="820.5,-221.9 828.45,-225.6 824.5,-221.95 828.5,-222 828.5,-222 828.5,-222 824.5,-221.95 828.55,-218.4 820.5,-221.9 820.5,-221.9"/>
<ellipse fill="none" stroke="black" cx="817.3" cy="-221.85" rx="3.2" ry="3.2"/>
</g>
<!-- pending_transaction_operations -->
<g id="node6" class="node">
<title>pending_transaction_operations</title>
<g id="a_node6"><a xlink:href="../../tables/pending_transaction_operations.html" xlink:title="pending_transaction_operations" target="_top">
<polygon fill="#ffffff" stroke="transparent" points="726.5,-682 726.5,-740 1008.5,-740 1008.5,-682 726.5,-682"/>
<polygon fill="#f5f5f5" stroke="transparent" points="726.5,-718 726.5,-740 1008.5,-740 1008.5,-718 726.5,-718"/>
<polygon fill="none" stroke="black" points="726.5,-718 726.5,-740 1008.5,-740 1008.5,-718 726.5,-718"/>
<text text-anchor="start" x="731.5" y="-727.2" font-family="Helvetica,sans-Serif" font-weight="bold" font-size="11.00">pending_transaction_operations</text>
<text text-anchor="start" x="966.5" y="-726.2" font-family="Helvetica,sans-Serif" font-size="11.00">[table]</text>
<polygon fill="none" stroke="black" points="726.5,-700 726.5,-718 1008.5,-718 1008.5,-700 726.5,-700"/>
<text text-anchor="start" x="729.5" y="-706.2" font-family="Helvetica,sans-Serif" font-size="11.00">...</text>
<polygon fill="#ffffff" stroke="transparent" points="726.5,-682 726.5,-700 1008.5,-700 1008.5,-682 726.5,-682"/>
<polygon fill="none" stroke="black" points="726.5,-682 726.5,-700 1008.5,-700 1008.5,-682 726.5,-682"/>
<polygon fill="#ffffff" stroke="transparent" points="727.5,-683 727.5,-699 829.5,-699 829.5,-683 727.5,-683"/>
<text text-anchor="start" x="729.5" y="-688.2" font-family="Helvetica,sans-Serif" font-size="11.00">&lt; 1</text>
<polygon fill="#ffffff" stroke="transparent" points="829.5,-683 829.5,-699 918.5,-699 918.5,-683 829.5,-683"/>
<text text-anchor="start" x="870" y="-688.2" font-family="Helvetica,sans-Serif" font-size="11.00"> &#160;</text>
<polygon fill="#ffffff" stroke="transparent" points="918.5,-683 918.5,-699 1007.5,-699 1007.5,-683 918.5,-683"/>
<text text-anchor="start" x="997.5" y="-688.2" font-family="Helvetica,sans-Serif" font-size="11.00"> &#160;</text>
<polygon fill="black" stroke="black" points="829.5,-683 829.5,-699 829.5,-699 829.5,-683 829.5,-683"/>
<polygon fill="black" stroke="black" points="918.5,-683 918.5,-699 918.5,-699 918.5,-683 918.5,-683"/>
</a>
</g>
</g>
<!-- pending_transaction_operations&#45;&gt;transactions -->
<g id="edge7" class="edge">
<title>pending_transaction_operations:w&#45;&gt;transactions:e</title>
<path fill="none" stroke="black" d="M715.01,-708.72C684.69,-706.98 671.87,-696.83 648,-672 616.81,-639.57 652.99,-579 608,-579"/>
<polygon fill="black" stroke="black" points="724.81,-704.98 724.59,-712.98 722.99,-712.93 723.21,-704.94 724.81,-704.98"/>
<polyline fill="none" stroke="black" points="725.5,-709 721.5,-708.89 "/>
<ellipse fill="none" stroke="black" cx="718.3" cy="-708.81" rx="3.2" ry="3.2"/>
</g>
<!-- signed_authorizations -->
<g id="node7" class="node">
<title>signed_authorizations</title>
<g id="a_node7"><a xlink:href="../../tables/signed_authorizations.html" xlink:title="signed_authorizations" target="_top">
<polygon fill="#ffffff" stroke="transparent" points="656,-353 656,-661 1079,-661 1079,-353 656,-353"/>
<polygon fill="#f5f5f5" stroke="transparent" points="658.5,-637 658.5,-659 1077.5,-659 1077.5,-637 658.5,-637"/>
<polygon fill="none" stroke="black" points="658.5,-637 658.5,-659 1077.5,-659 1077.5,-637 658.5,-637"/>
<text text-anchor="start" x="663.5" y="-646.2" font-family="Helvetica,sans-Serif" font-weight="bold" font-size="11.00">signed_authorizations</text>
<text text-anchor="start" x="1035.5" y="-645.2" font-family="Helvetica,sans-Serif" font-size="11.00">[table]</text>
<polygon fill="none" stroke="black" points="658.5,-615 658.5,-637 840.5,-637 840.5,-615 658.5,-615"/>
<image xlink:href="../../images/primaryKeys.png" width="11px" height="12px" preserveAspectRatio="xMinYMin meet" x="663.5" y="-632"/>
<text text-anchor="start" x="678.5" y="-623.2" font-family="Helvetica,sans-Serif" font-size="11.00">transaction_hash</text>
<polygon fill="none" stroke="black" points="840.5,-615 840.5,-637 1077.5,-637 1077.5,-615 840.5,-615"/>
<text text-anchor="start" x="843.5" y="-623.2" font-family="Helvetica,sans-Serif" font-size="11.00">bytea[2147483647]</text>
<polygon fill="none" stroke="black" points="658.5,-593 658.5,-615 840.5,-615 840.5,-593 658.5,-593"/>
<image xlink:href="../../images/primaryKeys.png" width="11px" height="12px" preserveAspectRatio="xMinYMin meet" x="663.5" y="-610"/>
<text text-anchor="start" x="678.5" y="-601.2" font-family="Helvetica,sans-Serif" font-size="11.00">index</text>
<polygon fill="none" stroke="black" points="840.5,-593 840.5,-615 1077.5,-615 1077.5,-593 840.5,-593"/>
<text text-anchor="start" x="843.5" y="-601.2" font-family="Helvetica,sans-Serif" font-size="11.00">int4[10]</text>
<polygon fill="none" stroke="black" points="658.5,-571 658.5,-593 840.5,-593 840.5,-571 658.5,-571"/>
<text text-anchor="start" x="678.5" y="-579.2" font-family="Helvetica,sans-Serif" font-size="11.00">chain_id</text>
<polygon fill="none" stroke="black" points="840.5,-571 840.5,-593 1077.5,-593 1077.5,-571 840.5,-571"/>
<text text-anchor="start" x="843.5" y="-579.2" font-family="Helvetica,sans-Serif" font-size="11.00">numeric[78]</text>
<polygon fill="none" stroke="black" points="658.5,-549 658.5,-571 840.5,-571 840.5,-549 658.5,-549"/>
<text text-anchor="start" x="678.5" y="-557.2" font-family="Helvetica,sans-Serif" font-size="11.00">address</text>
<polygon fill="none" stroke="black" points="840.5,-549 840.5,-571 1077.5,-571 1077.5,-549 840.5,-549"/>
<text text-anchor="start" x="843.5" y="-557.2" font-family="Helvetica,sans-Serif" font-size="11.00">bytea[2147483647]</text>
<polygon fill="#ffffff" stroke="transparent" points="658.5,-527 658.5,-549 840.5,-549 840.5,-527 658.5,-527"/>
<polygon fill="none" stroke="black" points="658.5,-527 658.5,-549 840.5,-549 840.5,-527 658.5,-527"/>
<text text-anchor="start" x="678.5" y="-535.2" font-family="Helvetica,sans-Serif" font-size="11.00">nonce</text>
<polygon fill="none" stroke="black" points="840.5,-527 840.5,-549 1077.5,-549 1077.5,-527 840.5,-527"/>
<text text-anchor="start" x="843.5" y="-535.2" font-family="Helvetica,sans-Serif" font-size="11.00">numeric[20]</text>
<polygon fill="none" stroke="black" points="658.5,-505 658.5,-527 840.5,-527 840.5,-505 658.5,-505"/>
<text text-anchor="start" x="678.5" y="-513.2" font-family="Helvetica,sans-Serif" font-size="11.00">v</text>
<polygon fill="none" stroke="black" points="840.5,-505 840.5,-527 1077.5,-527 1077.5,-505 840.5,-505"/>
<text text-anchor="start" x="843.5" y="-513.2" font-family="Helvetica,sans-Serif" font-size="11.00">int4[10]</text>
<polygon fill="none" stroke="black" points="658.5,-483 658.5,-505 840.5,-505 840.5,-483 658.5,-483"/>
<text text-anchor="start" x="678.5" y="-491.2" font-family="Helvetica,sans-Serif" font-size="11.00">r</text>
<polygon fill="none" stroke="black" points="840.5,-483 840.5,-505 1077.5,-505 1077.5,-483 840.5,-483"/>
<text text-anchor="start" x="843.5" y="-491.2" font-family="Helvetica,sans-Serif" font-size="11.00">numeric[100]</text>
<polygon fill="none" stroke="black" points="658.5,-461 658.5,-483 840.5,-483 840.5,-461 658.5,-461"/>
<text text-anchor="start" x="678.5" y="-469.2" font-family="Helvetica,sans-Serif" font-size="11.00">s</text>
<polygon fill="none" stroke="black" points="840.5,-461 840.5,-483 1077.5,-483 1077.5,-461 840.5,-461"/>
<text text-anchor="start" x="843.5" y="-469.2" font-family="Helvetica,sans-Serif" font-size="11.00">numeric[100]</text>
<polygon fill="#ffffff" stroke="transparent" points="658.5,-439 658.5,-461 840.5,-461 840.5,-439 658.5,-439"/>
<polygon fill="none" stroke="black" points="658.5,-439 658.5,-461 840.5,-461 840.5,-439 658.5,-439"/>
<text text-anchor="start" x="678.5" y="-447.2" font-family="Helvetica,sans-Serif" font-size="11.00">authority</text>
<polygon fill="none" stroke="black" points="840.5,-439 840.5,-461 1077.5,-461 1077.5,-439 840.5,-439"/>
<text text-anchor="start" x="843.5" y="-447.2" font-family="Helvetica,sans-Serif" font-size="11.00">bytea[2147483647]</text>
<polygon fill="none" stroke="black" points="658.5,-417 658.5,-439 840.5,-439 840.5,-417 658.5,-417"/>
<text text-anchor="start" x="678.5" y="-425.2" font-family="Helvetica,sans-Serif" font-size="11.00">inserted_at</text>
<polygon fill="none" stroke="black" points="840.5,-417 840.5,-439 1077.5,-439 1077.5,-417 840.5,-417"/>
<text text-anchor="start" x="843.5" y="-425.2" font-family="Helvetica,sans-Serif" font-size="11.00">timestamp[29,6]</text>
<polygon fill="none" stroke="black" points="658.5,-395 658.5,-417 840.5,-417 840.5,-395 658.5,-395"/>
<text text-anchor="start" x="678.5" y="-403.2" font-family="Helvetica,sans-Serif" font-size="11.00">updated_at</text>
<polygon fill="none" stroke="black" points="840.5,-395 840.5,-417 1077.5,-417 1077.5,-395 840.5,-395"/>
<text text-anchor="start" x="843.5" y="-403.2" font-family="Helvetica,sans-Serif" font-size="11.00">timestamp[29,6]</text>
<polygon fill="none" stroke="black" points="658.5,-373 658.5,-395 840.5,-395 840.5,-373 658.5,-373"/>
<text text-anchor="start" x="678.5" y="-381.2" font-family="Helvetica,sans-Serif" font-size="11.00">status</text>
<polygon fill="none" stroke="black" points="840.5,-373 840.5,-395 1077.5,-395 1077.5,-373 840.5,-373"/>
<text text-anchor="start" x="843.5" y="-381.2" font-family="Helvetica,sans-Serif" font-size="11.00">signed_authorization_status[2147483647]</text>
<polygon fill="#ffffff" stroke="transparent" points="658.5,-355 658.5,-373 1077.5,-373 1077.5,-355 658.5,-355"/>
<polygon fill="none" stroke="black" points="658.5,-355 658.5,-373 1077.5,-373 1077.5,-355 658.5,-355"/>
<polygon fill="#ffffff" stroke="transparent" points="659.5,-356 659.5,-372 802.5,-372 802.5,-356 659.5,-356"/>
<text text-anchor="start" x="661.5" y="-361.2" font-family="Helvetica,sans-Serif" font-size="11.00">&lt; 1</text>
<polygon fill="#ffffff" stroke="transparent" points="802.5,-356 802.5,-372 933.5,-372 933.5,-356 802.5,-356"/>
<text text-anchor="start" x="864" y="-361.2" font-family="Helvetica,sans-Serif" font-size="11.00"> &#160;</text>
<polygon fill="#ffffff" stroke="transparent" points="933.5,-356 933.5,-372 1076.5,-372 1076.5,-356 933.5,-356"/>
<text text-anchor="start" x="1054.5" y="-361.2" font-family="Helvetica,sans-Serif" font-size="11.00">0 &gt;</text>
<polygon fill="black" stroke="black" points="802.5,-356 802.5,-372 802.5,-372 802.5,-356 802.5,-356"/>
<polygon fill="black" stroke="black" points="933.5,-356 933.5,-372 933.5,-372 933.5,-356 933.5,-356"/>
<polygon fill="none" stroke="black" stroke-width="2" points="657,-354 657,-660 1078,-660 1078,-354 657,-354"/>
</a>
</g>
</g>
<!-- signed_authorizations&#45;&gt;transactions -->
<g id="edge8" class="edge">
<title>signed_authorizations:w&#45;&gt;transactions:e</title>
<path fill="none" stroke="black" d="M643.86,-621.32C629.94,-609.43 632.41,-579 608,-579"/>
<polygon fill="black" stroke="black" points="649.93,-623.41 656.33,-629.41 653.72,-624.7 657.5,-626 657.5,-626 657.5,-626 653.72,-624.7 658.67,-622.59 649.93,-623.41 649.93,-623.41"/>
<ellipse fill="none" stroke="black" cx="646.91" cy="-622.37" rx="3.2" ry="3.2"/>
</g>
<!-- token_transfers -->
<g id="node8" class="node">
<title>token_transfers</title>
<g id="a_node8"><a xlink:href="../../tables/token_transfers.html" xlink:title="token_transfers" target="_top">
<polygon fill="#ffffff" stroke="transparent" points="786.5,-116 786.5,-174 948.5,-174 948.5,-116 786.5,-116"/>
<polygon fill="#f5f5f5" stroke="transparent" points="786.5,-152 786.5,-174 948.5,-174 948.5,-152 786.5,-152"/>
<polygon fill="none" stroke="black" points="786.5,-152 786.5,-174 948.5,-174 948.5,-152 786.5,-152"/>
<text text-anchor="start" x="791.5" y="-161.2" font-family="Helvetica,sans-Serif" font-weight="bold" font-size="11.00">token_transfers</text>
<text text-anchor="start" x="906.5" y="-160.2" font-family="Helvetica,sans-Serif" font-size="11.00">[table]</text>
<polygon fill="none" stroke="black" points="786.5,-134 786.5,-152 948.5,-152 948.5,-134 786.5,-134"/>
<text text-anchor="start" x="789.5" y="-140.2" font-family="Helvetica,sans-Serif" font-size="11.00">...</text>
<polygon fill="#ffffff" stroke="transparent" points="786.5,-116 786.5,-134 948.5,-134 948.5,-116 786.5,-116"/>
<polygon fill="none" stroke="black" points="786.5,-116 786.5,-134 948.5,-134 948.5,-116 786.5,-116"/>
<polygon fill="#ffffff" stroke="transparent" points="787.5,-117 787.5,-133 849.5,-133 849.5,-117 787.5,-117"/>
<text text-anchor="start" x="789.5" y="-122.2" font-family="Helvetica,sans-Serif" font-size="11.00">&lt; 2</text>
<polygon fill="#ffffff" stroke="transparent" points="849.5,-117 849.5,-133 898.5,-133 898.5,-117 849.5,-117"/>
<text text-anchor="start" x="870" y="-122.2" font-family="Helvetica,sans-Serif" font-size="11.00"> &#160;</text>
<polygon fill="#ffffff" stroke="transparent" points="898.5,-117 898.5,-133 947.5,-133 947.5,-117 898.5,-117"/>
<text text-anchor="start" x="937.5" y="-122.2" font-family="Helvetica,sans-Serif" font-size="11.00"> &#160;</text>
<polygon fill="black" stroke="black" points="849.5,-117 849.5,-133 849.5,-133 849.5,-117 849.5,-117"/>
<polygon fill="black" stroke="black" points="898.5,-117 898.5,-133 898.5,-133 898.5,-117 898.5,-117"/>
</a>
</g>
</g>
<!-- token_transfers&#45;&gt;blocks -->
<g id="edge9" class="edge">
<title>token_transfers:w&#45;&gt;blocks:e</title>
<path fill="none" stroke="black" d="M770.8,-142.93C491.58,-140.33 363.74,-65.67 142,-244 107.96,-271.38 146.18,-334 102.5,-334"/>
<polygon fill="black" stroke="black" points="777.5,-142.96 785.48,-146.6 781.5,-142.98 785.5,-143 785.5,-143 785.5,-143 781.5,-142.98 785.52,-139.4 777.5,-142.96 777.5,-142.96"/>
<ellipse fill="none" stroke="black" cx="774.3" cy="-142.95" rx="3.2" ry="3.2"/>
</g>
<!-- token_transfers&#45;&gt;transactions -->
<g id="edge10" class="edge">
<title>token_transfers:w&#45;&gt;transactions:e</title>
<path fill="none" stroke="black" d="M771.07,-142.9C716.39,-142.19 685.39,-139.48 648,-185 592.13,-253 696.01,-579 608,-579"/>
<polygon fill="black" stroke="black" points="777.5,-142.94 785.47,-146.6 781.5,-142.97 785.5,-143 785.5,-143 785.5,-143 781.5,-142.97 785.53,-139.4 777.5,-142.94 777.5,-142.94"/>
<ellipse fill="none" stroke="black" cx="774.3" cy="-142.92" rx="3.2" ry="3.2"/>
</g>
<!-- transaction_actions -->
<g id="node9" class="node">
<title>transaction_actions</title>
<g id="a_node9"><a xlink:href="../../tables/transaction_actions.html" xlink:title="transaction_actions" target="_top">
<polygon fill="#ffffff" stroke="transparent" points="772.5,-274 772.5,-332 962.5,-332 962.5,-274 772.5,-274"/>
<polygon fill="#f5f5f5" stroke="transparent" points="772.5,-310 772.5,-332 962.5,-332 962.5,-310 772.5,-310"/>
<polygon fill="none" stroke="black" points="772.5,-310 772.5,-332 962.5,-332 962.5,-310 772.5,-310"/>
<text text-anchor="start" x="777.5" y="-319.2" font-family="Helvetica,sans-Serif" font-weight="bold" font-size="11.00">transaction_actions</text>
<text text-anchor="start" x="920.5" y="-318.2" font-family="Helvetica,sans-Serif" font-size="11.00">[table]</text>
<polygon fill="none" stroke="black" points="772.5,-292 772.5,-310 962.5,-310 962.5,-292 772.5,-292"/>
<text text-anchor="start" x="775.5" y="-298.2" font-family="Helvetica,sans-Serif" font-size="11.00">...</text>
<polygon fill="#ffffff" stroke="transparent" points="772.5,-274 772.5,-292 962.5,-292 962.5,-274 772.5,-274"/>
<polygon fill="none" stroke="black" points="772.5,-274 772.5,-292 962.5,-292 962.5,-274 772.5,-274"/>
<polygon fill="#ffffff" stroke="transparent" points="773.5,-275 773.5,-291 844.5,-291 844.5,-275 773.5,-275"/>
<text text-anchor="start" x="775.5" y="-280.2" font-family="Helvetica,sans-Serif" font-size="11.00">&lt; 1</text>
<polygon fill="#ffffff" stroke="transparent" points="844.5,-275 844.5,-291 903.5,-291 903.5,-275 844.5,-275"/>
<text text-anchor="start" x="870" y="-280.2" font-family="Helvetica,sans-Serif" font-size="11.00"> &#160;</text>
<polygon fill="#ffffff" stroke="transparent" points="903.5,-275 903.5,-291 961.5,-291 961.5,-275 903.5,-275"/>
<text text-anchor="start" x="951.5" y="-280.2" font-family="Helvetica,sans-Serif" font-size="11.00"> &#160;</text>
<polygon fill="black" stroke="black" points="844.5,-275 844.5,-291 844.5,-291 844.5,-275 844.5,-275"/>
<polygon fill="black" stroke="black" points="903.5,-275 903.5,-291 903.5,-291 903.5,-275 903.5,-275"/>
</a>
</g>
</g>
<!-- transaction_actions&#45;&gt;transactions -->
<g id="edge11" class="edge">
<title>transaction_actions:w&#45;&gt;transactions:e</title>
<path fill="none" stroke="black" d="M756.88,-300.98C708.54,-300.98 682.29,-302.74 648,-343 613.51,-383.5 661.19,-579 608,-579"/>
<polygon fill="black" stroke="black" points="763.5,-300.99 771.5,-304.6 767.5,-301 771.5,-301 771.5,-301 771.5,-301 767.5,-301 771.5,-297.4 763.5,-300.99 763.5,-300.99"/>
<ellipse fill="none" stroke="black" cx="760.3" cy="-300.99" rx="3.2" ry="3.2"/>
</g>
<!-- transaction_forks -->
<g id="node10" class="node">
<title>transaction_forks</title>
<g id="a_node10"><a xlink:href="../../tables/transaction_forks.html" xlink:title="transaction_forks" target="_top">
<polygon fill="#ffffff" stroke="transparent" points="780.5,-37 780.5,-95 954.5,-95 954.5,-37 780.5,-37"/>
<polygon fill="#f5f5f5" stroke="transparent" points="780.5,-73 780.5,-95 954.5,-95 954.5,-73 780.5,-73"/>
<polygon fill="none" stroke="black" points="780.5,-73 780.5,-95 954.5,-95 954.5,-73 780.5,-73"/>
<text text-anchor="start" x="785.5" y="-82.2" font-family="Helvetica,sans-Serif" font-weight="bold" font-size="11.00">transaction_forks</text>
<text text-anchor="start" x="912.5" y="-81.2" font-family="Helvetica,sans-Serif" font-size="11.00">[table]</text>
<polygon fill="none" stroke="black" points="780.5,-55 780.5,-73 954.5,-73 954.5,-55 780.5,-55"/>
<text text-anchor="start" x="783.5" y="-61.2" font-family="Helvetica,sans-Serif" font-size="11.00">...</text>
<polygon fill="#ffffff" stroke="transparent" points="780.5,-37 780.5,-55 954.5,-55 954.5,-37 780.5,-37"/>
<polygon fill="none" stroke="black" points="780.5,-37 780.5,-55 954.5,-55 954.5,-37 780.5,-37"/>
<polygon fill="#ffffff" stroke="transparent" points="781.5,-38 781.5,-54 847.5,-54 847.5,-38 781.5,-38"/>
<text text-anchor="start" x="783.5" y="-43.2" font-family="Helvetica,sans-Serif" font-size="11.00">&lt; 2</text>
<polygon fill="#ffffff" stroke="transparent" points="847.5,-38 847.5,-54 900.5,-54 900.5,-38 847.5,-38"/>
<text text-anchor="start" x="870" y="-43.2" font-family="Helvetica,sans-Serif" font-size="11.00"> &#160;</text>
<polygon fill="#ffffff" stroke="transparent" points="900.5,-38 900.5,-54 953.5,-54 953.5,-38 900.5,-38"/>
<text text-anchor="start" x="943.5" y="-43.2" font-family="Helvetica,sans-Serif" font-size="11.00"> &#160;</text>
<polygon fill="black" stroke="black" points="847.5,-38 847.5,-54 847.5,-54 847.5,-38 847.5,-38"/>
<polygon fill="black" stroke="black" points="900.5,-38 900.5,-54 900.5,-54 900.5,-38 900.5,-38"/>
</a>
</g>
</g>
<!-- transaction_forks&#45;&gt;blocks -->
<g id="edge13" class="edge">
<title>transaction_forks:w&#45;&gt;blocks:e</title>
<path fill="none" stroke="black" d="M764.97,-63.91C488.68,-60.33 346.7,42.53 142,-150 81.07,-207.3 186.14,-334 102.5,-334"/>
<polygon fill="black" stroke="black" points="771.5,-63.95 779.48,-67.6 775.5,-63.97 779.5,-64 779.5,-64 779.5,-64 775.5,-63.97 779.52,-60.4 771.5,-63.95 771.5,-63.95"/>
<ellipse fill="none" stroke="black" cx="768.3" cy="-63.93" rx="3.2" ry="3.2"/>
</g>
<!-- transaction_forks&#45;&gt;transactions -->
<g id="edge12" class="edge">
<title>transaction_forks:w&#45;&gt;transactions:e</title>
<path fill="none" stroke="black" d="M764.98,-63.91C712.87,-63.38 683.11,-61.96 648,-106 615.12,-147.24 660.74,-579 608,-579"/>
<polygon fill="black" stroke="black" points="771.5,-63.95 779.48,-67.6 775.5,-63.98 779.5,-64 779.5,-64 779.5,-64 775.5,-63.98 779.52,-60.4 771.5,-63.95 771.5,-63.95"/>
<ellipse fill="none" stroke="black" cx="768.3" cy="-63.93" rx="3.2" ry="3.2"/>
</g>
</g>
</svg>
