<?xml version="1.0" encoding="UTF-8" standalone="no"?>
<!DOCTYPE svg PUBLIC "-//W3C//DTD SVG 1.1//EN"
 "http://www.w3.org/Graphics/SVG/1.1/DTD/svg11.dtd">
<!-- Generated by graphviz version 2.43.0 (0)
 -->
<!-- Title: twoDegreesRelationshipsDiagram Pages: 1 -->
<svg width="910pt" height="831pt"
 viewBox="0.00 0.00 910.00 831.00" xmlns="http://www.w3.org/2000/svg" xmlns:xlink="http://www.w3.org/1999/xlink">
<g id="graph0" class="graph" transform="scale(1 1) rotate(0) translate(4 827)">
<title>twoDegreesRelationshipsDiagram</title>
<polygon fill="#ffffff" stroke="transparent" points="-4,4 -4,-827 906,-827 906,4 -4,4"/>
<text text-anchor="middle" x="79.5" y="-7.2" font-family="Helvetica,sans-Serif" font-size="11.00">Generated by SchemaSpy</text>
<!-- internal_transactions -->
<g id="node1" class="node">
<title>internal_transactions</title>
<g id="a_node1"><a xlink:href="../../tables/internal_transactions.html" xlink:title="internal_transactions" target="_top">
<polygon fill="#ffffff" stroke="transparent" points="581.5,-761 581.5,-819 783.5,-819 783.5,-761 581.5,-761"/>
<polygon fill="#f5f5f5" stroke="transparent" points="581.5,-797 581.5,-819 783.5,-819 783.5,-797 581.5,-797"/>
<polygon fill="none" stroke="black" points="581.5,-797 581.5,-819 783.5,-819 783.5,-797 581.5,-797"/>
<text text-anchor="start" x="586.5" y="-806.2" font-family="Helvetica,sans-Serif" font-weight="bold" font-size="11.00">internal_transactions</text>
<text text-anchor="start" x="741.5" y="-805.2" font-family="Helvetica,sans-Serif" font-size="11.00">[table]</text>
<polygon fill="none" stroke="black" points="581.5,-779 581.5,-797 783.5,-797 783.5,-779 581.5,-779"/>
<text text-anchor="start" x="584.5" y="-785.2" font-family="Helvetica,sans-Serif" font-size="11.00">...</text>
<polygon fill="#ffffff" stroke="transparent" points="581.5,-761 581.5,-779 783.5,-779 783.5,-761 581.5,-761"/>
<polygon fill="none" stroke="black" points="581.5,-761 581.5,-779 783.5,-779 783.5,-761 581.5,-761"/>
<polygon fill="#ffffff" stroke="transparent" points="582.5,-762 582.5,-778 657.5,-778 657.5,-762 582.5,-762"/>
<text text-anchor="start" x="584.5" y="-767.2" font-family="Helvetica,sans-Serif" font-size="11.00">&lt; 2</text>
<polygon fill="#ffffff" stroke="transparent" points="657.5,-762 657.5,-778 720.5,-778 720.5,-762 657.5,-762"/>
<text text-anchor="start" x="685" y="-767.2" font-family="Helvetica,sans-Serif" font-size="11.00"> &#160;</text>
<polygon fill="#ffffff" stroke="transparent" points="720.5,-762 720.5,-778 782.5,-778 782.5,-762 720.5,-762"/>
<text text-anchor="start" x="772.5" y="-767.2" font-family="Helvetica,sans-Serif" font-size="11.00"> &#160;</text>
<polygon fill="black" stroke="black" points="657.5,-762 657.5,-778 657.5,-778 657.5,-762 657.5,-762"/>
<polygon fill="black" stroke="black" points="720.5,-762 720.5,-778 720.5,-778 720.5,-762 720.5,-762"/>
</a>
</g>
</g>
<!-- blocks -->
<g id="node2" class="node">
<title>blocks</title>
<g id="a_node2"><a xlink:href="../../tables/blocks.html" xlink:title="blocks" target="_top">
<polygon fill="#ffffff" stroke="transparent" points="8,-388 8,-446 101,-446 101,-388 8,-388"/>
<polygon fill="#f5f5f5" stroke="transparent" points="8.5,-424 8.5,-446 101.5,-446 101.5,-424 8.5,-424"/>
<polygon fill="none" stroke="black" points="8.5,-424 8.5,-446 101.5,-446 101.5,-424 8.5,-424"/>
<text text-anchor="start" x="13.5" y="-433.2" font-family="Helvetica,sans-Serif" font-weight="bold" font-size="11.00">blocks</text>
<text text-anchor="start" x="59.5" y="-432.2" font-family="Helvetica,sans-Serif" font-size="11.00">[table]</text>
<polygon fill="none" stroke="black" points="8.5,-406 8.5,-424 101.5,-424 101.5,-406 8.5,-406"/>
<text text-anchor="start" x="11.5" y="-412.2" font-family="Helvetica,sans-Serif" font-size="11.00">...</text>
<polygon fill="#ffffff" stroke="transparent" points="8.5,-388 8.5,-406 101.5,-406 101.5,-388 8.5,-388"/>
<polygon fill="none" stroke="black" points="8.5,-388 8.5,-406 101.5,-406 101.5,-388 8.5,-388"/>
<polygon fill="#ffffff" stroke="transparent" points="9.5,-389 9.5,-405 36.5,-405 36.5,-389 9.5,-389"/>
<text text-anchor="start" x="11.5" y="-394.2" font-family="Helvetica,sans-Serif" font-size="11.00"> &#160;</text>
<polygon fill="#ffffff" stroke="transparent" points="36.5,-389 36.5,-405 62.5,-405 62.5,-389 36.5,-389"/>
<text text-anchor="start" x="45.5" y="-394.2" font-family="Helvetica,sans-Serif" font-size="11.00"> &#160;</text>
<polygon fill="#ffffff" stroke="transparent" points="62.5,-389 62.5,-405 100.5,-405 100.5,-389 62.5,-389"/>
<text text-anchor="start" x="78.5" y="-394.2" font-family="Helvetica,sans-Serif" font-size="11.00">9 &gt;</text>
<polygon fill="black" stroke="black" points="36.5,-389 36.5,-405 36.5,-405 36.5,-389 36.5,-389"/>
<polygon fill="black" stroke="black" points="62.5,-389 62.5,-405 62.5,-405 62.5,-389 62.5,-389"/>
</a>
</g>
</g>
<!-- internal_transactions&#45;&gt;blocks -->
<g id="edge1" class="edge">
<title>internal_transactions:w&#45;&gt;blocks:e</title>
<path fill="none" stroke="black" d="M565.95,-788.06C374.44,-789.74 273.7,-822.33 142,-677 102.46,-633.37 161.38,-415 102.5,-415"/>
<polygon fill="black" stroke="black" points="572.5,-788.04 580.52,-791.6 576.5,-788.02 580.5,-788 580.5,-788 580.5,-788 576.5,-788.02 580.48,-784.4 572.5,-788.04 572.5,-788.04"/>
<ellipse fill="none" stroke="black" cx="569.3" cy="-788.05" rx="3.2" ry="3.2"/>
</g>
<!-- transactions -->
<g id="node3" class="node">
<title>transactions</title>
<g id="a_node3"><a xlink:href="../../tables/transactions.html" xlink:title="transactions" target="_top">
<polygon fill="#ffffff" stroke="transparent" points="150,-214 150,-602 422,-602 422,-214 150,-214"/>
<polygon fill="#f5f5f5" stroke="transparent" points="150,-580 150,-602 422,-602 422,-580 150,-580"/>
<polygon fill="none" stroke="black" points="150,-580 150,-602 422,-602 422,-580 150,-580"/>
<text text-anchor="start" x="155" y="-589.2" font-family="Helvetica,sans-Serif" font-weight="bold" font-size="11.00">transactions</text>
<text text-anchor="start" x="380" y="-588.2" font-family="Helvetica,sans-Serif" font-size="11.00">[table]</text>
<polygon fill="#ffffff" stroke="transparent" points="150,-558 150,-580 422,-580 422,-558 150,-558"/>
<polygon fill="none" stroke="black" points="150,-558 150,-580 422,-580 422,-558 150,-558"/>
<text text-anchor="start" x="170" y="-566.2" font-family="Helvetica,sans-Serif" font-size="11.00">error</text>
<polygon fill="none" stroke="black" points="150,-536 150,-558 422,-558 422,-536 150,-536"/>
<image xlink:href="../../images/primaryKeys.png" width="11px" height="12px" preserveAspectRatio="xMinYMin meet" x="155" y="-553"/>
<text text-anchor="start" x="170" y="-544.2" font-family="Helvetica,sans-Serif" font-size="11.00">hash</text>
<polygon fill="#ffffff" stroke="transparent" points="150,-514 150,-536 422,-536 422,-514 150,-514"/>
<polygon fill="none" stroke="black" points="150,-514 150,-536 422,-536 422,-514 150,-514"/>
<image xlink:href="../../images/foreignKeys.png" width="11px" height="12px" preserveAspectRatio="xMinYMin meet" x="155" y="-531"/>
<text text-anchor="start" x="170" y="-522.2" font-family="Helvetica,sans-Serif" font-size="11.00">index</text>
<polygon fill="#ffffff" stroke="transparent" points="150,-492 150,-514 422,-514 422,-492 150,-492"/>
<polygon fill="none" stroke="black" points="150,-492 150,-514 422,-514 422,-492 150,-492"/>
<text text-anchor="start" x="170" y="-500.2" font-family="Helvetica,sans-Serif" font-size="11.00">nonce</text>
<polygon fill="#ffffff" stroke="transparent" points="150,-470 150,-492 422,-492 422,-470 150,-470"/>
<polygon fill="none" stroke="black" points="150,-470 150,-492 422,-492 422,-470 150,-470"/>
<text text-anchor="start" x="170" y="-478.2" font-family="Helvetica,sans-Serif" font-size="11.00">status</text>
<polygon fill="#ffffff" stroke="transparent" points="150,-448 150,-470 422,-470 422,-448 150,-448"/>
<polygon fill="none" stroke="black" points="150,-448 150,-470 422,-470 422,-448 150,-448"/>
<text text-anchor="start" x="170" y="-456.2" font-family="Helvetica,sans-Serif" font-size="11.00">inserted_at</text>
<polygon fill="#ffffff" stroke="transparent" points="150,-426 150,-448 422,-448 422,-426 150,-426"/>
<polygon fill="none" stroke="black" points="150,-426 150,-448 422,-448 422,-426 150,-426"/>
<text text-anchor="start" x="170" y="-434.2" font-family="Helvetica,sans-Serif" font-size="11.00">updated_at</text>
<polygon fill="#ffffff" stroke="transparent" points="150,-404 150,-426 422,-426 422,-404 150,-404"/>
<polygon fill="none" stroke="black" points="150,-404 150,-426 422,-426 422,-404 150,-404"/>
<image xlink:href="../../images/foreignKeys.png" width="11px" height="12px" preserveAspectRatio="xMinYMin meet" x="155" y="-421"/>
<text text-anchor="start" x="170" y="-412.2" font-family="Helvetica,sans-Serif" font-size="11.00">block_hash</text>
<polygon fill="#ffffff" stroke="transparent" points="150,-382 150,-404 422,-404 422,-382 150,-382"/>
<polygon fill="none" stroke="black" points="150,-382 150,-404 422,-404 422,-382 150,-382"/>
<text text-anchor="start" x="170" y="-390.2" font-family="Helvetica,sans-Serif" font-size="11.00">block_number</text>
<polygon fill="#ffffff" stroke="transparent" points="150,-360 150,-382 422,-382 422,-360 150,-360"/>
<polygon fill="none" stroke="black" points="150,-360 150,-382 422,-382 422,-360 150,-360"/>
<text text-anchor="start" x="170" y="-368.2" font-family="Helvetica,sans-Serif" font-size="11.00">from_address_hash</text>
<polygon fill="#ffffff" stroke="transparent" points="150,-338 150,-360 422,-360 422,-338 150,-338"/>
<polygon fill="none" stroke="black" points="150,-338 150,-360 422,-360 422,-338 150,-338"/>
<text text-anchor="start" x="170" y="-346.2" font-family="Helvetica,sans-Serif" font-size="11.00">to_address_hash</text>
<polygon fill="#ffffff" stroke="transparent" points="150,-316 150,-338 422,-338 422,-316 150,-316"/>
<polygon fill="none" stroke="black" points="150,-316 150,-338 422,-338 422,-316 150,-316"/>
<text text-anchor="start" x="170" y="-324.2" font-family="Helvetica,sans-Serif" font-size="11.00">created_contract_address_hash</text>
<polygon fill="#ffffff" stroke="transparent" points="150,-294 150,-316 422,-316 422,-294 150,-294"/>
<polygon fill="none" stroke="black" points="150,-294 150,-316 422,-316 422,-294 150,-294"/>
<text text-anchor="start" x="170" y="-302.2" font-family="Helvetica,sans-Serif" font-size="11.00">created_contract_code_indexed_at</text>
<polygon fill="#ffffff" stroke="transparent" points="150,-272 150,-294 422,-294 422,-272 150,-272"/>
<polygon fill="none" stroke="black" points="150,-272 150,-294 422,-294 422,-272 150,-272"/>
<text text-anchor="start" x="170" y="-280.2" font-family="Helvetica,sans-Serif" font-size="11.00">block_timestamp</text>
<polygon fill="#ffffff" stroke="transparent" points="150,-250 150,-272 422,-272 422,-250 150,-250"/>
<polygon fill="none" stroke="black" points="150,-250 150,-272 422,-272 422,-250 150,-250"/>
<text text-anchor="start" x="170" y="-258.2" font-family="Helvetica,sans-Serif" font-size="11.00">block_consensus</text>
<polygon fill="none" stroke="black" points="150,-232 150,-250 422,-250 422,-232 150,-232"/>
<text text-anchor="start" x="153" y="-238.2" font-family="Helvetica,sans-Serif" font-size="11.00">...</text>
<polygon fill="#ffffff" stroke="transparent" points="150,-214 150,-232 422,-232 422,-214 150,-214"/>
<polygon fill="none" stroke="black" points="150,-214 150,-232 422,-232 422,-214 150,-214"/>
<polygon fill="#ffffff" stroke="transparent" points="151,-215 151,-231 245,-231 245,-215 151,-215"/>
<text text-anchor="start" x="153" y="-220.2" font-family="Helvetica,sans-Serif" font-size="11.00">&lt; 1</text>
<polygon fill="#ffffff" stroke="transparent" points="245,-215 245,-231 327,-231 327,-215 245,-215"/>
<text text-anchor="start" x="282" y="-220.2" font-family="Helvetica,sans-Serif" font-size="11.00"> &#160;</text>
<polygon fill="#ffffff" stroke="transparent" points="327,-215 327,-231 421,-231 421,-215 327,-215"/>
<text text-anchor="start" x="399" y="-220.2" font-family="Helvetica,sans-Serif" font-size="11.00">7 &gt;</text>
<polygon fill="black" stroke="black" points="245,-215 245,-231 245,-231 245,-215 245,-215"/>
<polygon fill="black" stroke="black" points="327,-215 327,-231 327,-231 327,-215 327,-215"/>
</a>
</g>
</g>
<!-- internal_transactions&#45;&gt;transactions -->
<g id="edge2" class="edge">
<title>internal_transactions:w&#45;&gt;transactions:e</title>
<path fill="none" stroke="black" d="M565.82,-788.06C520.74,-788.32 496.08,-787.98 463,-751 401.41,-682.13 515.39,-547 423,-547"/>
<polygon fill="black" stroke="black" points="572.5,-788.03 580.51,-791.6 576.5,-788.02 580.5,-788 580.5,-788 580.5,-788 576.5,-788.02 580.49,-784.4 572.5,-788.03 572.5,-788.03"/>
<ellipse fill="none" stroke="black" cx="569.3" cy="-788.05" rx="3.2" ry="3.2"/>
</g>
<!-- transactions&#45;&gt;blocks -->
<g id="edge12" class="edge">
<title>transactions:w&#45;&gt;blocks:e</title>
<path fill="none" stroke="black" d="M134.55,-415C124.2,-415 117.35,-415 102.5,-415"/>
<polygon fill="black" stroke="black" points="141,-415 149,-418.6 145,-415 149,-415 149,-415 149,-415 145,-415 149,-411.4 141,-415 141,-415"/>
<ellipse fill="none" stroke="black" cx="137.8" cy="-415" rx="3.2" ry="3.2"/>
</g>
<!-- logs -->
<g id="node4" class="node">
<title>logs</title>
<g id="a_node4"><a xlink:href="../../tables/logs.html" xlink:title="logs" target="_top">
<polygon fill="#ffffff" stroke="transparent" points="644,-682 644,-740 721,-740 721,-682 644,-682"/>
<polygon fill="#f5f5f5" stroke="transparent" points="644.5,-718 644.5,-740 721.5,-740 721.5,-718 644.5,-718"/>
<polygon fill="none" stroke="black" points="644.5,-718 644.5,-740 721.5,-740 721.5,-718 644.5,-718"/>
<text text-anchor="start" x="649.5" y="-727.2" font-family="Helvetica,sans-Serif" font-weight="bold" font-size="11.00">logs</text>
<text text-anchor="start" x="679.5" y="-726.2" font-family="Helvetica,sans-Serif" font-size="11.00">[table]</text>
<polygon fill="none" stroke="black" points="644.5,-700 644.5,-718 721.5,-718 721.5,-700 644.5,-700"/>
<text text-anchor="start" x="647.5" y="-706.2" font-family="Helvetica,sans-Serif" font-size="11.00">...</text>
<polygon fill="#ffffff" stroke="transparent" points="644.5,-682 644.5,-700 721.5,-700 721.5,-682 644.5,-682"/>
<polygon fill="none" stroke="black" points="644.5,-682 644.5,-700 721.5,-700 721.5,-682 644.5,-682"/>
<polygon fill="#ffffff" stroke="transparent" points="645.5,-683 645.5,-699 678.5,-699 678.5,-683 645.5,-683"/>
<text text-anchor="start" x="647.5" y="-688.2" font-family="Helvetica,sans-Serif" font-size="11.00">&lt; 2</text>
<polygon fill="#ffffff" stroke="transparent" points="678.5,-683 678.5,-699 699.5,-699 699.5,-683 678.5,-683"/>
<text text-anchor="start" x="685" y="-688.2" font-family="Helvetica,sans-Serif" font-size="11.00"> &#160;</text>
<polygon fill="#ffffff" stroke="transparent" points="699.5,-683 699.5,-699 720.5,-699 720.5,-683 699.5,-683"/>
<text text-anchor="start" x="710.5" y="-688.2" font-family="Helvetica,sans-Serif" font-size="11.00"> &#160;</text>
<polygon fill="black" stroke="black" points="678.5,-683 678.5,-699 678.5,-699 678.5,-683 678.5,-683"/>
<polygon fill="black" stroke="black" points="699.5,-683 699.5,-699 699.5,-699 699.5,-683 699.5,-683"/>
</a>
</g>
</g>
<!-- logs&#45;&gt;blocks -->
<g id="edge3" class="edge">
<title>logs:w&#45;&gt;blocks:e</title>
<path fill="none" stroke="black" d="M629.03,-709.09C411.67,-711.64 299.63,-769.41 142,-613 78.3,-549.8 192.23,-415 102.5,-415"/>
<polygon fill="black" stroke="black" points="635.5,-709.05 643.52,-712.6 639.5,-709.02 643.5,-709 643.5,-709 643.5,-709 639.5,-709.02 643.48,-705.4 635.5,-709.05 635.5,-709.05"/>
<ellipse fill="none" stroke="black" cx="632.3" cy="-709.07" rx="3.2" ry="3.2"/>
</g>
<!-- logs&#45;&gt;transactions -->
<g id="edge4" class="edge">
<title>logs:w&#45;&gt;transactions:e</title>
<path fill="none" stroke="black" d="M629.1,-709.17C556.96,-710.88 520.24,-723.4 463,-672 419.6,-633.03 481.33,-547 423,-547"/>
<polygon fill="black" stroke="black" points="635.5,-709.1 643.54,-712.6 639.5,-709.05 643.5,-709 643.5,-709 643.5,-709 639.5,-709.05 643.46,-705.4 635.5,-709.1 635.5,-709.1"/>
<ellipse fill="none" stroke="black" cx="632.3" cy="-709.14" rx="3.2" ry="3.2"/>
</g>
<!-- pending_transaction_operations -->
<g id="node5" class="node">
<title>pending_transaction_operations</title>
<g id="a_node5"><a xlink:href="../../tables/pending_transaction_operations.html" xlink:title="pending_transaction_operations" target="_top">
<polygon fill="#ffffff" stroke="transparent" points="541.5,-603 541.5,-661 823.5,-661 823.5,-603 541.5,-603"/>
<polygon fill="#f5f5f5" stroke="transparent" points="541.5,-639 541.5,-661 823.5,-661 823.5,-639 541.5,-639"/>
<polygon fill="none" stroke="black" points="541.5,-639 541.5,-661 823.5,-661 823.5,-639 541.5,-639"/>
<text text-anchor="start" x="546.5" y="-648.2" font-family="Helvetica,sans-Serif" font-weight="bold" font-size="11.00">pending_transaction_operations</text>
<text text-anchor="start" x="781.5" y="-647.2" font-family="Helvetica,sans-Serif" font-size="11.00">[table]</text>
<polygon fill="none" stroke="black" points="541.5,-621 541.5,-639 823.5,-639 823.5,-621 541.5,-621"/>
<text text-anchor="start" x="544.5" y="-627.2" font-family="Helvetica,sans-Serif" font-size="11.00">...</text>
<polygon fill="#ffffff" stroke="transparent" points="541.5,-603 541.5,-621 823.5,-621 823.5,-603 541.5,-603"/>
<polygon fill="none" stroke="black" points="541.5,-603 541.5,-621 823.5,-621 823.5,-603 541.5,-603"/>
<polygon fill="#ffffff" stroke="transparent" points="542.5,-604 542.5,-620 644.5,-620 644.5,-604 542.5,-604"/>
<text text-anchor="start" x="544.5" y="-609.2" font-family="Helvetica,sans-Serif" font-size="11.00">&lt; 1</text>
<polygon fill="#ffffff" stroke="transparent" points="644.5,-604 644.5,-620 733.5,-620 733.5,-604 644.5,-604"/>
<text text-anchor="start" x="685" y="-609.2" font-family="Helvetica,sans-Serif" font-size="11.00"> &#160;</text>
<polygon fill="#ffffff" stroke="transparent" points="733.5,-604 733.5,-620 822.5,-620 822.5,-604 733.5,-604"/>
<text text-anchor="start" x="812.5" y="-609.2" font-family="Helvetica,sans-Serif" font-size="11.00"> &#160;</text>
<polygon fill="black" stroke="black" points="644.5,-604 644.5,-620 644.5,-620 644.5,-604 644.5,-604"/>
<polygon fill="black" stroke="black" points="733.5,-604 733.5,-620 733.5,-620 733.5,-604 733.5,-604"/>
</a>
</g>
</g>
<!-- pending_transaction_operations&#45;&gt;transactions -->
<g id="edge5" class="edge">
<title>pending_transaction_operations:w&#45;&gt;transactions:e</title>
<path fill="none" stroke="black" d="M530.11,-629.61C500.38,-627.2 490.41,-613.85 463,-593 441.44,-576.6 450.09,-547 423,-547"/>
<polygon fill="black" stroke="black" points="539.85,-625.97 539.55,-633.97 537.95,-633.91 538.25,-625.91 539.85,-625.97"/>
<polyline fill="none" stroke="black" points="540.5,-630 536.5,-629.85 "/>
<ellipse fill="none" stroke="black" cx="533.31" cy="-629.73" rx="3.2" ry="3.2"/>
</g>
<!-- signed_authorizations -->
<g id="node6" class="node">
<title>signed_authorizations</title>
<g id="a_node6"><a xlink:href="../../tables/signed_authorizations.html" xlink:title="signed_authorizations" target="_top">
<polygon fill="#ffffff" stroke="transparent" points="471,-274 471,-582 894,-582 894,-274 471,-274"/>
<polygon fill="#f5f5f5" stroke="transparent" points="473.5,-558 473.5,-580 892.5,-580 892.5,-558 473.5,-558"/>
<polygon fill="none" stroke="black" points="473.5,-558 473.5,-580 892.5,-580 892.5,-558 473.5,-558"/>
<text text-anchor="start" x="478.5" y="-567.2" font-family="Helvetica,sans-Serif" font-weight="bold" font-size="11.00">signed_authorizations</text>
<text text-anchor="start" x="850.5" y="-566.2" font-family="Helvetica,sans-Serif" font-size="11.00">[table]</text>
<polygon fill="none" stroke="black" points="473.5,-536 473.5,-558 655.5,-558 655.5,-536 473.5,-536"/>
<image xlink:href="../../images/primaryKeys.png" width="11px" height="12px" preserveAspectRatio="xMinYMin meet" x="478.5" y="-553"/>
<text text-anchor="start" x="493.5" y="-544.2" font-family="Helvetica,sans-Serif" font-size="11.00">transaction_hash</text>
<polygon fill="none" stroke="black" points="655.5,-536 655.5,-558 892.5,-558 892.5,-536 655.5,-536"/>
<text text-anchor="start" x="658.5" y="-544.2" font-family="Helvetica,sans-Serif" font-size="11.00">bytea[2147483647]</text>
<polygon fill="none" stroke="black" points="473.5,-514 473.5,-536 655.5,-536 655.5,-514 473.5,-514"/>
<image xlink:href="../../images/primaryKeys.png" width="11px" height="12px" preserveAspectRatio="xMinYMin meet" x="478.5" y="-531"/>
<text text-anchor="start" x="493.5" y="-522.2" font-family="Helvetica,sans-Serif" font-size="11.00">index</text>
<polygon fill="none" stroke="black" points="655.5,-514 655.5,-536 892.5,-536 892.5,-514 655.5,-514"/>
<text text-anchor="start" x="658.5" y="-522.2" font-family="Helvetica,sans-Serif" font-size="11.00">int4[10]</text>
<polygon fill="none" stroke="black" points="473.5,-492 473.5,-514 655.5,-514 655.5,-492 473.5,-492"/>
<text text-anchor="start" x="493.5" y="-500.2" font-family="Helvetica,sans-Serif" font-size="11.00">chain_id</text>
<polygon fill="none" stroke="black" points="655.5,-492 655.5,-514 892.5,-514 892.5,-492 655.5,-492"/>
<text text-anchor="start" x="658.5" y="-500.2" font-family="Helvetica,sans-Serif" font-size="11.00">numeric[78]</text>
<polygon fill="none" stroke="black" points="473.5,-470 473.5,-492 655.5,-492 655.5,-470 473.5,-470"/>
<text text-anchor="start" x="493.5" y="-478.2" font-family="Helvetica,sans-Serif" font-size="11.00">address</text>
<polygon fill="none" stroke="black" points="655.5,-470 655.5,-492 892.5,-492 892.5,-470 655.5,-470"/>
<text text-anchor="start" x="658.5" y="-478.2" font-family="Helvetica,sans-Serif" font-size="11.00">bytea[2147483647]</text>
<polygon fill="#ffffff" stroke="transparent" points="473.5,-448 473.5,-470 655.5,-470 655.5,-448 473.5,-448"/>
<polygon fill="none" stroke="black" points="473.5,-448 473.5,-470 655.5,-470 655.5,-448 473.5,-448"/>
<text text-anchor="start" x="493.5" y="-456.2" font-family="Helvetica,sans-Serif" font-size="11.00">nonce</text>
<polygon fill="none" stroke="black" points="655.5,-448 655.5,-470 892.5,-470 892.5,-448 655.5,-448"/>
<text text-anchor="start" x="658.5" y="-456.2" font-family="Helvetica,sans-Serif" font-size="11.00">numeric[20]</text>
<polygon fill="none" stroke="black" points="473.5,-426 473.5,-448 655.5,-448 655.5,-426 473.5,-426"/>
<text text-anchor="start" x="493.5" y="-434.2" font-family="Helvetica,sans-Serif" font-size="11.00">v</text>
<polygon fill="none" stroke="black" points="655.5,-426 655.5,-448 892.5,-448 892.5,-426 655.5,-426"/>
<text text-anchor="start" x="658.5" y="-434.2" font-family="Helvetica,sans-Serif" font-size="11.00">int4[10]</text>
<polygon fill="none" stroke="black" points="473.5,-404 473.5,-426 655.5,-426 655.5,-404 473.5,-404"/>
<text text-anchor="start" x="493.5" y="-412.2" font-family="Helvetica,sans-Serif" font-size="11.00">r</text>
<polygon fill="none" stroke="black" points="655.5,-404 655.5,-426 892.5,-426 892.5,-404 655.5,-404"/>
<text text-anchor="start" x="658.5" y="-412.2" font-family="Helvetica,sans-Serif" font-size="11.00">numeric[100]</text>
<polygon fill="none" stroke="black" points="473.5,-382 473.5,-404 655.5,-404 655.5,-382 473.5,-382"/>
<text text-anchor="start" x="493.5" y="-390.2" font-family="Helvetica,sans-Serif" font-size="11.00">s</text>
<polygon fill="none" stroke="black" points="655.5,-382 655.5,-404 892.5,-404 892.5,-382 655.5,-382"/>
<text text-anchor="start" x="658.5" y="-390.2" font-family="Helvetica,sans-Serif" font-size="11.00">numeric[100]</text>
<polygon fill="#ffffff" stroke="transparent" points="473.5,-360 473.5,-382 655.5,-382 655.5,-360 473.5,-360"/>
<polygon fill="none" stroke="black" points="473.5,-360 473.5,-382 655.5,-382 655.5,-360 473.5,-360"/>
<text text-anchor="start" x="493.5" y="-368.2" font-family="Helvetica,sans-Serif" font-size="11.00">authority</text>
<polygon fill="none" stroke="black" points="655.5,-360 655.5,-382 892.5,-382 892.5,-360 655.5,-360"/>
<text text-anchor="start" x="658.5" y="-368.2" font-family="Helvetica,sans-Serif" font-size="11.00">bytea[2147483647]</text>
<polygon fill="none" stroke="black" points="473.5,-338 473.5,-360 655.5,-360 655.5,-338 473.5,-338"/>
<text text-anchor="start" x="493.5" y="-346.2" font-family="Helvetica,sans-Serif" font-size="11.00">inserted_at</text>
<polygon fill="none" stroke="black" points="655.5,-338 655.5,-360 892.5,-360 892.5,-338 655.5,-338"/>
<text text-anchor="start" x="658.5" y="-346.2" font-family="Helvetica,sans-Serif" font-size="11.00">timestamp[29,6]</text>
<polygon fill="none" stroke="black" points="473.5,-316 473.5,-338 655.5,-338 655.5,-316 473.5,-316"/>
<text text-anchor="start" x="493.5" y="-324.2" font-family="Helvetica,sans-Serif" font-size="11.00">updated_at</text>
<polygon fill="none" stroke="black" points="655.5,-316 655.5,-338 892.5,-338 892.5,-316 655.5,-316"/>
<text text-anchor="start" x="658.5" y="-324.2" font-family="Helvetica,sans-Serif" font-size="11.00">timestamp[29,6]</text>
<polygon fill="none" stroke="black" points="473.5,-294 473.5,-316 655.5,-316 655.5,-294 473.5,-294"/>
<text text-anchor="start" x="493.5" y="-302.2" font-family="Helvetica,sans-Serif" font-size="11.00">status</text>
<polygon fill="none" stroke="black" points="655.5,-294 655.5,-316 892.5,-316 892.5,-294 655.5,-294"/>
<text text-anchor="start" x="658.5" y="-302.2" font-family="Helvetica,sans-Serif" font-size="11.00">signed_authorization_status[2147483647]</text>
<polygon fill="#ffffff" stroke="transparent" points="473.5,-276 473.5,-294 892.5,-294 892.5,-276 473.5,-276"/>
<polygon fill="none" stroke="black" points="473.5,-276 473.5,-294 892.5,-294 892.5,-276 473.5,-276"/>
<polygon fill="#ffffff" stroke="transparent" points="474.5,-277 474.5,-293 617.5,-293 617.5,-277 474.5,-277"/>
<text text-anchor="start" x="476.5" y="-282.2" font-family="Helvetica,sans-Serif" font-size="11.00">&lt; 1</text>
<polygon fill="#ffffff" stroke="transparent" points="617.5,-277 617.5,-293 748.5,-293 748.5,-277 617.5,-277"/>
<text text-anchor="start" x="679" y="-282.2" font-family="Helvetica,sans-Serif" font-size="11.00"> &#160;</text>
<polygon fill="#ffffff" stroke="transparent" points="748.5,-277 748.5,-293 891.5,-293 891.5,-277 748.5,-277"/>
<text text-anchor="start" x="869.5" y="-282.2" font-family="Helvetica,sans-Serif" font-size="11.00">0 &gt;</text>
<polygon fill="black" stroke="black" points="617.5,-277 617.5,-293 617.5,-293 617.5,-277 617.5,-277"/>
<polygon fill="black" stroke="black" points="748.5,-277 748.5,-293 748.5,-293 748.5,-277 748.5,-277"/>
<polygon fill="none" stroke="black" stroke-width="2" points="472,-275 472,-581 893,-581 893,-275 472,-275"/>
</a>
</g>
</g>
<!-- signed_authorizations&#45;&gt;transactions -->
<g id="edge6" class="edge">
<title>signed_authorizations:w&#45;&gt;transactions:e</title>
<path fill="none" stroke="black" d="M457.84,-547C446.41,-547 439.16,-547 423,-547"/>
<polygon fill="black" stroke="black" points="464.5,-547 472.5,-550.6 468.5,-547 472.5,-547 472.5,-547 472.5,-547 468.5,-547 472.5,-543.4 464.5,-547 464.5,-547"/>
<ellipse fill="none" stroke="black" cx="461.3" cy="-547" rx="3.2" ry="3.2"/>
</g>
<!-- token_transfers -->
<g id="node7" class="node">
<title>token_transfers</title>
<g id="a_node7"><a xlink:href="../../tables/token_transfers.html" xlink:title="token_transfers" target="_top">
<polygon fill="#ffffff" stroke="transparent" points="601.5,-116 601.5,-174 763.5,-174 763.5,-116 601.5,-116"/>
<polygon fill="#f5f5f5" stroke="transparent" points="601.5,-152 601.5,-174 763.5,-174 763.5,-152 601.5,-152"/>
<polygon fill="none" stroke="black" points="601.5,-152 601.5,-174 763.5,-174 763.5,-152 601.5,-152"/>
<text text-anchor="start" x="606.5" y="-161.2" font-family="Helvetica,sans-Serif" font-weight="bold" font-size="11.00">token_transfers</text>
<text text-anchor="start" x="721.5" y="-160.2" font-family="Helvetica,sans-Serif" font-size="11.00">[table]</text>
<polygon fill="none" stroke="black" points="601.5,-134 601.5,-152 763.5,-152 763.5,-134 601.5,-134"/>
<text text-anchor="start" x="604.5" y="-140.2" font-family="Helvetica,sans-Serif" font-size="11.00">...</text>
<polygon fill="#ffffff" stroke="transparent" points="601.5,-116 601.5,-134 763.5,-134 763.5,-116 601.5,-116"/>
<polygon fill="none" stroke="black" points="601.5,-116 601.5,-134 763.5,-134 763.5,-116 601.5,-116"/>
<polygon fill="#ffffff" stroke="transparent" points="602.5,-117 602.5,-133 664.5,-133 664.5,-117 602.5,-117"/>
<text text-anchor="start" x="604.5" y="-122.2" font-family="Helvetica,sans-Serif" font-size="11.00">&lt; 2</text>
<polygon fill="#ffffff" stroke="transparent" points="664.5,-117 664.5,-133 713.5,-133 713.5,-117 664.5,-117"/>
<text text-anchor="start" x="685" y="-122.2" font-family="Helvetica,sans-Serif" font-size="11.00"> &#160;</text>
<polygon fill="#ffffff" stroke="transparent" points="713.5,-117 713.5,-133 762.5,-133 762.5,-117 713.5,-117"/>
<text text-anchor="start" x="752.5" y="-122.2" font-family="Helvetica,sans-Serif" font-size="11.00"> &#160;</text>
<polygon fill="black" stroke="black" points="664.5,-117 664.5,-133 664.5,-133 664.5,-117 664.5,-117"/>
<polygon fill="black" stroke="black" points="713.5,-117 713.5,-133 713.5,-133 713.5,-117 713.5,-117"/>
</a>
</g>
</g>
<!-- token_transfers&#45;&gt;blocks -->
<g id="edge7" class="edge">
<title>token_transfers:w&#45;&gt;blocks:e</title>
<path fill="none" stroke="black" d="M585.92,-142.87C389.93,-139.28 287.58,-65.91 142,-204 72.78,-269.66 197.91,-415 102.5,-415"/>
<polygon fill="black" stroke="black" points="592.5,-142.93 600.47,-146.6 596.5,-142.96 600.5,-143 600.5,-143 600.5,-143 596.5,-142.96 600.53,-139.4 592.5,-142.93 592.5,-142.93"/>
<ellipse fill="none" stroke="black" cx="589.3" cy="-142.9" rx="3.2" ry="3.2"/>
</g>
<!-- token_transfers&#45;&gt;transactions -->
<g id="edge8" class="edge">
<title>token_transfers:w&#45;&gt;transactions:e</title>
<path fill="none" stroke="black" d="M586.07,-142.9C531.42,-142.22 500.6,-139.65 463,-185 411.35,-247.31 503.93,-547 423,-547"/>
<polygon fill="black" stroke="black" points="592.5,-142.94 600.47,-146.6 596.5,-142.97 600.5,-143 600.5,-143 600.5,-143 596.5,-142.97 600.53,-139.4 592.5,-142.94 592.5,-142.94"/>
<ellipse fill="none" stroke="black" cx="589.3" cy="-142.92" rx="3.2" ry="3.2"/>
</g>
<!-- transaction_actions -->
<g id="node8" class="node">
<title>transaction_actions</title>
<g id="a_node8"><a xlink:href="../../tables/transaction_actions.html" xlink:title="transaction_actions" target="_top">
<polygon fill="#ffffff" stroke="transparent" points="587.5,-195 587.5,-253 777.5,-253 777.5,-195 587.5,-195"/>
<polygon fill="#f5f5f5" stroke="transparent" points="587.5,-231 587.5,-253 777.5,-253 777.5,-231 587.5,-231"/>
<polygon fill="none" stroke="black" points="587.5,-231 587.5,-253 777.5,-253 777.5,-231 587.5,-231"/>
<text text-anchor="start" x="592.5" y="-240.2" font-family="Helvetica,sans-Serif" font-weight="bold" font-size="11.00">transaction_actions</text>
<text text-anchor="start" x="735.5" y="-239.2" font-family="Helvetica,sans-Serif" font-size="11.00">[table]</text>
<polygon fill="none" stroke="black" points="587.5,-213 587.5,-231 777.5,-231 777.5,-213 587.5,-213"/>
<text text-anchor="start" x="590.5" y="-219.2" font-family="Helvetica,sans-Serif" font-size="11.00">...</text>
<polygon fill="#ffffff" stroke="transparent" points="587.5,-195 587.5,-213 777.5,-213 777.5,-195 587.5,-195"/>
<polygon fill="none" stroke="black" points="587.5,-195 587.5,-213 777.5,-213 777.5,-195 587.5,-195"/>
<polygon fill="#ffffff" stroke="transparent" points="588.5,-196 588.5,-212 659.5,-212 659.5,-196 588.5,-196"/>
<text text-anchor="start" x="590.5" y="-201.2" font-family="Helvetica,sans-Serif" font-size="11.00">&lt; 1</text>
<polygon fill="#ffffff" stroke="transparent" points="659.5,-196 659.5,-212 718.5,-212 718.5,-196 659.5,-196"/>
<text text-anchor="start" x="685" y="-201.2" font-family="Helvetica,sans-Serif" font-size="11.00"> &#160;</text>
<polygon fill="#ffffff" stroke="transparent" points="718.5,-196 718.5,-212 776.5,-212 776.5,-196 718.5,-196"/>
<text text-anchor="start" x="766.5" y="-201.2" font-family="Helvetica,sans-Serif" font-size="11.00"> &#160;</text>
<polygon fill="black" stroke="black" points="659.5,-196 659.5,-212 659.5,-212 659.5,-196 659.5,-196"/>
<polygon fill="black" stroke="black" points="718.5,-196 718.5,-212 718.5,-212 718.5,-196 718.5,-196"/>
</a>
</g>
</g>
<!-- transaction_actions&#45;&gt;transactions -->
<g id="edge9" class="edge">
<title>transaction_actions:w&#45;&gt;transactions:e</title>
<path fill="none" stroke="black" d="M571.87,-221.97C523.44,-221.9 496.73,-223.27 463,-264 422.49,-312.92 486.51,-547 423,-547"/>
<polygon fill="black" stroke="black" points="578.5,-221.98 586.49,-225.6 582.5,-221.99 586.5,-222 586.5,-222 586.5,-222 582.5,-221.99 586.51,-218.4 578.5,-221.98 578.5,-221.98"/>
<ellipse fill="none" stroke="black" cx="575.3" cy="-221.98" rx="3.2" ry="3.2"/>
</g>
<!-- transaction_forks -->
<g id="node9" class="node">
<title>transaction_forks</title>
<g id="a_node9"><a xlink:href="../../tables/transaction_forks.html" xlink:title="transaction_forks" target="_top">
<polygon fill="#ffffff" stroke="transparent" points="595.5,-37 595.5,-95 769.5,-95 769.5,-37 595.5,-37"/>
<polygon fill="#f5f5f5" stroke="transparent" points="595.5,-73 595.5,-95 769.5,-95 769.5,-73 595.5,-73"/>
<polygon fill="none" stroke="black" points="595.5,-73 595.5,-95 769.5,-95 769.5,-73 595.5,-73"/>
<text text-anchor="start" x="600.5" y="-82.2" font-family="Helvetica,sans-Serif" font-weight="bold" font-size="11.00">transaction_forks</text>
<text text-anchor="start" x="727.5" y="-81.2" font-family="Helvetica,sans-Serif" font-size="11.00">[table]</text>
<polygon fill="none" stroke="black" points="595.5,-55 595.5,-73 769.5,-73 769.5,-55 595.5,-55"/>
<text text-anchor="start" x="598.5" y="-61.2" font-family="Helvetica,sans-Serif" font-size="11.00">...</text>
<polygon fill="#ffffff" stroke="transparent" points="595.5,-37 595.5,-55 769.5,-55 769.5,-37 595.5,-37"/>
<polygon fill="none" stroke="black" points="595.5,-37 595.5,-55 769.5,-55 769.5,-37 595.5,-37"/>
<polygon fill="#ffffff" stroke="transparent" points="596.5,-38 596.5,-54 662.5,-54 662.5,-38 596.5,-38"/>
<text text-anchor="start" x="598.5" y="-43.2" font-family="Helvetica,sans-Serif" font-size="11.00">&lt; 2</text>
<polygon fill="#ffffff" stroke="transparent" points="662.5,-38 662.5,-54 715.5,-54 715.5,-38 662.5,-38"/>
<text text-anchor="start" x="685" y="-43.2" font-family="Helvetica,sans-Serif" font-size="11.00"> &#160;</text>
<polygon fill="#ffffff" stroke="transparent" points="715.5,-38 715.5,-54 768.5,-54 768.5,-38 715.5,-38"/>
<text text-anchor="start" x="758.5" y="-43.2" font-family="Helvetica,sans-Serif" font-size="11.00"> &#160;</text>
<polygon fill="black" stroke="black" points="662.5,-38 662.5,-54 662.5,-54 662.5,-38 662.5,-38"/>
<polygon fill="black" stroke="black" points="715.5,-38 715.5,-54 715.5,-54 715.5,-38 715.5,-38"/>
</a>
</g>
</g>
<!-- transaction_forks&#45;&gt;blocks -->
<g id="edge11" class="edge">
<title>transaction_forks:w&#45;&gt;blocks:e</title>
<path fill="none" stroke="black" d="M579.84,-63.85C386.83,-59.79 282.74,21.62 142,-117 94.41,-163.88 169.3,-415 102.5,-415"/>
<polygon fill="black" stroke="black" points="586.5,-63.92 594.46,-67.6 590.5,-63.96 594.5,-64 594.5,-64 594.5,-64 590.5,-63.96 594.54,-60.4 586.5,-63.92 586.5,-63.92"/>
<ellipse fill="none" stroke="black" cx="583.3" cy="-63.88" rx="3.2" ry="3.2"/>
</g>
<!-- transaction_forks&#45;&gt;transactions -->
<g id="edge10" class="edge">
<title>transaction_forks:w&#45;&gt;transactions:e</title>
<path fill="none" stroke="black" d="M579.98,-63.91C527.89,-63.4 498.24,-62.07 463,-106 432.21,-144.38 472.2,-547 423,-547"/>
<polygon fill="black" stroke="black" points="586.5,-63.95 594.48,-67.6 590.5,-63.98 594.5,-64 594.5,-64 594.5,-64 590.5,-63.98 594.52,-60.4 586.5,-63.95 586.5,-63.95"/>
<ellipse fill="none" stroke="black" cx="583.3" cy="-63.93" rx="3.2" ry="3.2"/>
</g>
</g>
</svg>
