<?xml version="1.0" encoding="UTF-8" standalone="no"?>
<!DOCTYPE svg PUBLIC "-//W3C//DTD SVG 1.1//EN"
 "http://www.w3.org/Graphics/SVG/1.1/DTD/svg11.dtd">
<!-- Generated by graphviz version 2.43.0 (0)
 -->
<!-- Title: oneDegreeRelationshipsDiagramImplied Pages: 1 -->
<svg width="768pt" height="437pt"
 viewBox="0.00 0.00 768.00 437.00" xmlns="http://www.w3.org/2000/svg" xmlns:xlink="http://www.w3.org/1999/xlink">
<g id="graph0" class="graph" transform="scale(1 1) rotate(0) translate(4 433)">
<title>oneDegreeRelationshipsDiagramImplied</title>
<polygon fill="#ffffff" stroke="transparent" points="-4,4 -4,-433 764,-433 764,4 -4,4"/>
<text text-anchor="middle" x="79.5" y="-7.2" font-family="Helvetica,sans-Serif" font-size="11.00">Generated by SchemaSpy</text>
<!-- signed_authorizations -->
<g id="node1" class="node">
<title>signed_authorizations</title>
<g id="a_node1"><a xlink:href="../../tables/signed_authorizations.html" xlink:title="signed_authorizations" target="_top">
<polygon fill="#ffffff" stroke="transparent" points="329,-97 329,-405 752,-405 752,-97 329,-97"/>
<polygon fill="#f5f5f5" stroke="transparent" points="331.5,-381 331.5,-403 750.5,-403 750.5,-381 331.5,-381"/>
<polygon fill="none" stroke="black" points="331.5,-381 331.5,-403 750.5,-403 750.5,-381 331.5,-381"/>
<text text-anchor="start" x="336.5" y="-390.2" font-family="Helvetica,sans-Serif" font-weight="bold" font-size="11.00">signed_authorizations</text>
<text text-anchor="start" x="708.5" y="-389.2" font-family="Helvetica,sans-Serif" font-size="11.00">[table]</text>
<polygon fill="none" stroke="black" points="331.5,-359 331.5,-381 513.5,-381 513.5,-359 331.5,-359"/>
<image xlink:href="../../images/primaryKeys.png" width="11px" height="12px" preserveAspectRatio="xMinYMin meet" x="336.5" y="-376"/>
<text text-anchor="start" x="351.5" y="-367.2" font-family="Helvetica,sans-Serif" font-size="11.00">transaction_hash</text>
<polygon fill="none" stroke="black" points="513.5,-359 513.5,-381 750.5,-381 750.5,-359 513.5,-359"/>
<text text-anchor="start" x="516.5" y="-367.2" font-family="Helvetica,sans-Serif" font-size="11.00">bytea[2147483647]</text>
<polygon fill="none" stroke="black" points="331.5,-337 331.5,-359 513.5,-359 513.5,-337 331.5,-337"/>
<image xlink:href="../../images/primaryKeys.png" width="11px" height="12px" preserveAspectRatio="xMinYMin meet" x="336.5" y="-354"/>
<text text-anchor="start" x="351.5" y="-345.2" font-family="Helvetica,sans-Serif" font-size="11.00">index</text>
<polygon fill="none" stroke="black" points="513.5,-337 513.5,-359 750.5,-359 750.5,-337 513.5,-337"/>
<text text-anchor="start" x="516.5" y="-345.2" font-family="Helvetica,sans-Serif" font-size="11.00">int4[10]</text>
<polygon fill="none" stroke="black" points="331.5,-315 331.5,-337 513.5,-337 513.5,-315 331.5,-315"/>
<text text-anchor="start" x="351.5" y="-323.2" font-family="Helvetica,sans-Serif" font-size="11.00">chain_id</text>
<polygon fill="none" stroke="black" points="513.5,-315 513.5,-337 750.5,-337 750.5,-315 513.5,-315"/>
<text text-anchor="start" x="516.5" y="-323.2" font-family="Helvetica,sans-Serif" font-size="11.00">numeric[78]</text>
<polygon fill="none" stroke="black" points="331.5,-293 331.5,-315 513.5,-315 513.5,-293 331.5,-293"/>
<text text-anchor="start" x="351.5" y="-301.2" font-family="Helvetica,sans-Serif" font-size="11.00">address</text>
<polygon fill="none" stroke="black" points="513.5,-293 513.5,-315 750.5,-315 750.5,-293 513.5,-293"/>
<text text-anchor="start" x="516.5" y="-301.2" font-family="Helvetica,sans-Serif" font-size="11.00">bytea[2147483647]</text>
<polygon fill="#ffffff" stroke="transparent" points="331.5,-271 331.5,-293 513.5,-293 513.5,-271 331.5,-271"/>
<polygon fill="none" stroke="black" points="331.5,-271 331.5,-293 513.5,-293 513.5,-271 331.5,-271"/>
<text text-anchor="start" x="351.5" y="-279.2" font-family="Helvetica,sans-Serif" font-size="11.00">nonce</text>
<polygon fill="none" stroke="black" points="513.5,-271 513.5,-293 750.5,-293 750.5,-271 513.5,-271"/>
<text text-anchor="start" x="516.5" y="-279.2" font-family="Helvetica,sans-Serif" font-size="11.00">numeric[20]</text>
<polygon fill="none" stroke="black" points="331.5,-249 331.5,-271 513.5,-271 513.5,-249 331.5,-249"/>
<text text-anchor="start" x="351.5" y="-257.2" font-family="Helvetica,sans-Serif" font-size="11.00">v</text>
<polygon fill="none" stroke="black" points="513.5,-249 513.5,-271 750.5,-271 750.5,-249 513.5,-249"/>
<text text-anchor="start" x="516.5" y="-257.2" font-family="Helvetica,sans-Serif" font-size="11.00">int4[10]</text>
<polygon fill="none" stroke="black" points="331.5,-227 331.5,-249 513.5,-249 513.5,-227 331.5,-227"/>
<text text-anchor="start" x="351.5" y="-235.2" font-family="Helvetica,sans-Serif" font-size="11.00">r</text>
<polygon fill="none" stroke="black" points="513.5,-227 513.5,-249 750.5,-249 750.5,-227 513.5,-227"/>
<text text-anchor="start" x="516.5" y="-235.2" font-family="Helvetica,sans-Serif" font-size="11.00">numeric[100]</text>
<polygon fill="none" stroke="black" points="331.5,-205 331.5,-227 513.5,-227 513.5,-205 331.5,-205"/>
<text text-anchor="start" x="351.5" y="-213.2" font-family="Helvetica,sans-Serif" font-size="11.00">s</text>
<polygon fill="none" stroke="black" points="513.5,-205 513.5,-227 750.5,-227 750.5,-205 513.5,-205"/>
<text text-anchor="start" x="516.5" y="-213.2" font-family="Helvetica,sans-Serif" font-size="11.00">numeric[100]</text>
<polygon fill="#ffffff" stroke="transparent" points="331.5,-183 331.5,-205 513.5,-205 513.5,-183 331.5,-183"/>
<polygon fill="none" stroke="black" points="331.5,-183 331.5,-205 513.5,-205 513.5,-183 331.5,-183"/>
<text text-anchor="start" x="351.5" y="-191.2" font-family="Helvetica,sans-Serif" font-size="11.00">authority</text>
<polygon fill="none" stroke="black" points="513.5,-183 513.5,-205 750.5,-205 750.5,-183 513.5,-183"/>
<text text-anchor="start" x="516.5" y="-191.2" font-family="Helvetica,sans-Serif" font-size="11.00">bytea[2147483647]</text>
<polygon fill="none" stroke="black" points="331.5,-161 331.5,-183 513.5,-183 513.5,-161 331.5,-161"/>
<text text-anchor="start" x="351.5" y="-169.2" font-family="Helvetica,sans-Serif" font-size="11.00">inserted_at</text>
<polygon fill="none" stroke="black" points="513.5,-161 513.5,-183 750.5,-183 750.5,-161 513.5,-161"/>
<text text-anchor="start" x="516.5" y="-169.2" font-family="Helvetica,sans-Serif" font-size="11.00">timestamp[29,6]</text>
<polygon fill="none" stroke="black" points="331.5,-139 331.5,-161 513.5,-161 513.5,-139 331.5,-139"/>
<text text-anchor="start" x="351.5" y="-147.2" font-family="Helvetica,sans-Serif" font-size="11.00">updated_at</text>
<polygon fill="none" stroke="black" points="513.5,-139 513.5,-161 750.5,-161 750.5,-139 513.5,-139"/>
<text text-anchor="start" x="516.5" y="-147.2" font-family="Helvetica,sans-Serif" font-size="11.00">timestamp[29,6]</text>
<polygon fill="none" stroke="black" points="331.5,-117 331.5,-139 513.5,-139 513.5,-117 331.5,-117"/>
<text text-anchor="start" x="351.5" y="-125.2" font-family="Helvetica,sans-Serif" font-size="11.00">status</text>
<polygon fill="none" stroke="black" points="513.5,-117 513.5,-139 750.5,-139 750.5,-117 513.5,-117"/>
<text text-anchor="start" x="516.5" y="-125.2" font-family="Helvetica,sans-Serif" font-size="11.00">signed_authorization_status[2147483647]</text>
<polygon fill="#ffffff" stroke="transparent" points="331.5,-99 331.5,-117 750.5,-117 750.5,-99 331.5,-99"/>
<polygon fill="none" stroke="black" points="331.5,-99 331.5,-117 750.5,-117 750.5,-99 331.5,-99"/>
<polygon fill="#ffffff" stroke="transparent" points="332.5,-100 332.5,-116 475.5,-116 475.5,-100 332.5,-100"/>
<text text-anchor="start" x="334.5" y="-105.2" font-family="Helvetica,sans-Serif" font-size="11.00">&lt; 1</text>
<polygon fill="#ffffff" stroke="transparent" points="475.5,-100 475.5,-116 606.5,-116 606.5,-100 475.5,-100"/>
<text text-anchor="start" x="537" y="-105.2" font-family="Helvetica,sans-Serif" font-size="11.00"> &#160;</text>
<polygon fill="#ffffff" stroke="transparent" points="606.5,-100 606.5,-116 749.5,-116 749.5,-100 606.5,-100"/>
<text text-anchor="start" x="727.5" y="-105.2" font-family="Helvetica,sans-Serif" font-size="11.00">0 &gt;</text>
<polygon fill="black" stroke="black" points="475.5,-100 475.5,-116 475.5,-116 475.5,-100 475.5,-100"/>
<polygon fill="black" stroke="black" points="606.5,-100 606.5,-116 606.5,-116 606.5,-100 606.5,-100"/>
<polygon fill="none" stroke="black" stroke-width="2" points="330,-98 330,-404 751,-404 751,-98 330,-98"/>
</a>
</g>
</g>
<!-- transactions -->
<g id="node2" class="node">
<title>transactions</title>
<g id="a_node2"><a xlink:href="../../tables/transactions.html" xlink:title="transactions" target="_top">
<polygon fill="#ffffff" stroke="transparent" points="8,-37 8,-425 280,-425 280,-37 8,-37"/>
<polygon fill="#f5f5f5" stroke="transparent" points="8,-403 8,-425 280,-425 280,-403 8,-403"/>
<polygon fill="none" stroke="black" points="8,-403 8,-425 280,-425 280,-403 8,-403"/>
<text text-anchor="start" x="13" y="-412.2" font-family="Helvetica,sans-Serif" font-weight="bold" font-size="11.00">transactions</text>
<text text-anchor="start" x="238" y="-411.2" font-family="Helvetica,sans-Serif" font-size="11.00">[table]</text>
<polygon fill="#ffffff" stroke="transparent" points="8,-381 8,-403 280,-403 280,-381 8,-381"/>
<polygon fill="none" stroke="black" points="8,-381 8,-403 280,-403 280,-381 8,-381"/>
<text text-anchor="start" x="28" y="-389.2" font-family="Helvetica,sans-Serif" font-size="11.00">error</text>
<polygon fill="none" stroke="black" points="8,-359 8,-381 280,-381 280,-359 8,-359"/>
<image xlink:href="../../images/primaryKeys.png" width="11px" height="12px" preserveAspectRatio="xMinYMin meet" x="13" y="-376"/>
<text text-anchor="start" x="28" y="-367.2" font-family="Helvetica,sans-Serif" font-size="11.00">hash</text>
<polygon fill="#ffffff" stroke="transparent" points="8,-337 8,-359 280,-359 280,-337 8,-337"/>
<polygon fill="none" stroke="black" points="8,-337 8,-359 280,-359 280,-337 8,-337"/>
<image xlink:href="../../images/foreignKeys.png" width="11px" height="12px" preserveAspectRatio="xMinYMin meet" x="13" y="-354"/>
<text text-anchor="start" x="28" y="-345.2" font-family="Helvetica,sans-Serif" font-size="11.00">index</text>
<polygon fill="#ffffff" stroke="transparent" points="8,-315 8,-337 280,-337 280,-315 8,-315"/>
<polygon fill="none" stroke="black" points="8,-315 8,-337 280,-337 280,-315 8,-315"/>
<text text-anchor="start" x="28" y="-323.2" font-family="Helvetica,sans-Serif" font-size="11.00">nonce</text>
<polygon fill="#ffffff" stroke="transparent" points="8,-293 8,-315 280,-315 280,-293 8,-293"/>
<polygon fill="none" stroke="black" points="8,-293 8,-315 280,-315 280,-293 8,-293"/>
<text text-anchor="start" x="28" y="-301.2" font-family="Helvetica,sans-Serif" font-size="11.00">status</text>
<polygon fill="#ffffff" stroke="transparent" points="8,-271 8,-293 280,-293 280,-271 8,-271"/>
<polygon fill="none" stroke="black" points="8,-271 8,-293 280,-293 280,-271 8,-271"/>
<text text-anchor="start" x="28" y="-279.2" font-family="Helvetica,sans-Serif" font-size="11.00">inserted_at</text>
<polygon fill="#ffffff" stroke="transparent" points="8,-249 8,-271 280,-271 280,-249 8,-249"/>
<polygon fill="none" stroke="black" points="8,-249 8,-271 280,-271 280,-249 8,-249"/>
<text text-anchor="start" x="28" y="-257.2" font-family="Helvetica,sans-Serif" font-size="11.00">updated_at</text>
<polygon fill="#ffffff" stroke="transparent" points="8,-227 8,-249 280,-249 280,-227 8,-227"/>
<polygon fill="none" stroke="black" points="8,-227 8,-249 280,-249 280,-227 8,-227"/>
<image xlink:href="../../images/foreignKeys.png" width="11px" height="12px" preserveAspectRatio="xMinYMin meet" x="13" y="-244"/>
<text text-anchor="start" x="28" y="-235.2" font-family="Helvetica,sans-Serif" font-size="11.00">block_hash</text>
<polygon fill="#ffffff" stroke="transparent" points="8,-205 8,-227 280,-227 280,-205 8,-205"/>
<polygon fill="none" stroke="black" points="8,-205 8,-227 280,-227 280,-205 8,-205"/>
<text text-anchor="start" x="28" y="-213.2" font-family="Helvetica,sans-Serif" font-size="11.00">block_number</text>
<polygon fill="#ffffff" stroke="transparent" points="8,-183 8,-205 280,-205 280,-183 8,-183"/>
<polygon fill="none" stroke="black" points="8,-183 8,-205 280,-205 280,-183 8,-183"/>
<text text-anchor="start" x="28" y="-191.2" font-family="Helvetica,sans-Serif" font-size="11.00">from_address_hash</text>
<polygon fill="#ffffff" stroke="transparent" points="8,-161 8,-183 280,-183 280,-161 8,-161"/>
<polygon fill="none" stroke="black" points="8,-161 8,-183 280,-183 280,-161 8,-161"/>
<text text-anchor="start" x="28" y="-169.2" font-family="Helvetica,sans-Serif" font-size="11.00">to_address_hash</text>
<polygon fill="#ffffff" stroke="transparent" points="8,-139 8,-161 280,-161 280,-139 8,-139"/>
<polygon fill="none" stroke="black" points="8,-139 8,-161 280,-161 280,-139 8,-139"/>
<text text-anchor="start" x="28" y="-147.2" font-family="Helvetica,sans-Serif" font-size="11.00">created_contract_address_hash</text>
<polygon fill="#ffffff" stroke="transparent" points="8,-117 8,-139 280,-139 280,-117 8,-117"/>
<polygon fill="none" stroke="black" points="8,-117 8,-139 280,-139 280,-117 8,-117"/>
<text text-anchor="start" x="28" y="-125.2" font-family="Helvetica,sans-Serif" font-size="11.00">created_contract_code_indexed_at</text>
<polygon fill="#ffffff" stroke="transparent" points="8,-95 8,-117 280,-117 280,-95 8,-95"/>
<polygon fill="none" stroke="black" points="8,-95 8,-117 280,-117 280,-95 8,-95"/>
<text text-anchor="start" x="28" y="-103.2" font-family="Helvetica,sans-Serif" font-size="11.00">block_timestamp</text>
<polygon fill="#ffffff" stroke="transparent" points="8,-73 8,-95 280,-95 280,-73 8,-73"/>
<polygon fill="none" stroke="black" points="8,-73 8,-95 280,-95 280,-73 8,-73"/>
<text text-anchor="start" x="28" y="-81.2" font-family="Helvetica,sans-Serif" font-size="11.00">block_consensus</text>
<polygon fill="none" stroke="black" points="8,-55 8,-73 280,-73 280,-55 8,-55"/>
<text text-anchor="start" x="11" y="-61.2" font-family="Helvetica,sans-Serif" font-size="11.00">...</text>
<polygon fill="#ffffff" stroke="transparent" points="8,-37 8,-55 280,-55 280,-37 8,-37"/>
<polygon fill="none" stroke="black" points="8,-37 8,-55 280,-55 280,-37 8,-37"/>
<polygon fill="#ffffff" stroke="transparent" points="9,-38 9,-54 103,-54 103,-38 9,-38"/>
<text text-anchor="start" x="11" y="-43.2" font-family="Helvetica,sans-Serif" font-size="11.00">&lt; 1</text>
<polygon fill="#ffffff" stroke="transparent" points="103,-38 103,-54 185,-54 185,-38 103,-38"/>
<text text-anchor="start" x="140" y="-43.2" font-family="Helvetica,sans-Serif" font-size="11.00"> &#160;</text>
<polygon fill="#ffffff" stroke="transparent" points="185,-38 185,-54 279,-54 279,-38 185,-38"/>
<text text-anchor="start" x="257" y="-43.2" font-family="Helvetica,sans-Serif" font-size="11.00">7 &gt;</text>
<polygon fill="black" stroke="black" points="103,-38 103,-54 103,-54 103,-38 103,-38"/>
<polygon fill="black" stroke="black" points="185,-38 185,-54 185,-54 185,-38 185,-38"/>
</a>
</g>
</g>
<!-- signed_authorizations&#45;&gt;transactions -->
<g id="edge1" class="edge">
<title>signed_authorizations:w&#45;&gt;transactions:e</title>
<path fill="none" stroke="black" d="M315.84,-370C304.41,-370 297.16,-370 281,-370"/>
<polygon fill="black" stroke="black" points="322.5,-370 330.5,-373.6 326.5,-370 330.5,-370 330.5,-370 330.5,-370 326.5,-370 330.5,-366.4 322.5,-370 322.5,-370"/>
<ellipse fill="none" stroke="black" cx="319.3" cy="-370" rx="3.2" ry="3.2"/>
</g>
</g>
</svg>
