<?xml version="1.0" encoding="UTF-8" standalone="no"?>
<!DOCTYPE svg PUBLIC "-//W3C//DTD SVG 1.1//EN"
 "http://www.w3.org/Graphics/SVG/1.1/DTD/svg11.dtd">
<!-- Generated by graphviz version 9.0.0 (20230911.1827)
 -->
<!-- Title: oneDegreeRelationshipsDiagram Pages: 1 -->
<svg width="602pt" height="225pt"
 viewBox="0.00 0.00 602.00 225.00" xmlns="http://www.w3.org/2000/svg" xmlns:xlink="http://www.w3.org/1999/xlink">
<g id="graph0" class="graph" transform="scale(1 1) rotate(0) translate(4 221)">
<title>oneDegreeRelationshipsDiagram</title>
<polygon fill="#ffffff" stroke="none" points="-4,4 -4,-221 598,-221 598,4 -4,4"/>
<text text-anchor="middle" x="71.38" y="-5.55" font-family="Helvetica,sans-Serif" font-size="11.00">Generated by SchemaSpy</text>
<!-- smart_contracts_additional_sources -->
<g id="node1" class="node">
<title>smart_contracts_additional_sources</title>
<g id="a_node1"><a xlink:href="../../tables/smart_contracts_additional_sources.html" xlink:title="smart_contracts_additional_sources" target="_top">
<polygon fill="#ffffff" stroke="none" points="254,-37 254,-213 586,-213 586,-37 254,-37"/>
<polygon fill="#f5f5f5" stroke="none" points="256,-189 256,-211 584,-211 584,-189 256,-189"/>
<polygon fill="none" stroke="black" points="256,-189 256,-211 584,-211 584,-189 256,-189"/>
<text text-anchor="start" x="261" y="-196.55" font-family="Helvetica,sans-Serif" font-weight="bold" font-size="11.00">smart_contracts_additional_sources</text>
<text text-anchor="start" x="549.75" y="-195.55" font-family="Helvetica,sans-Serif" font-size="11.00">[table]</text>
<polygon fill="none" stroke="black" points="256,-167 256,-189 486,-189 486,-167 256,-167"/>
<image xlink:href="../../images/primaryKeys.png" width="11px" height="12px" preserveAspectRatio="xMinYMin meet" x="261" y="-184"/>
<text text-anchor="start" x="276" y="-173.55" font-family="Helvetica,sans-Serif" font-size="11.00">id</text>
<polygon fill="none" stroke="black" points="486,-167 486,-189 584,-189 584,-167 486,-167"/>
<text text-anchor="start" x="489" y="-173.55" font-family="Helvetica,sans-Serif" font-size="11.00">bigserial[19]</text>
<polygon fill="none" stroke="black" points="256,-145 256,-167 486,-167 486,-145 256,-145"/>
<text text-anchor="start" x="276" y="-151.55" font-family="Helvetica,sans-Serif" font-size="11.00">file_name</text>
<polygon fill="none" stroke="black" points="486,-145 486,-167 584,-167 584,-145 486,-145"/>
<text text-anchor="start" x="489" y="-151.55" font-family="Helvetica,sans-Serif" font-size="11.00">varchar[255]</text>
<polygon fill="none" stroke="black" points="256,-123 256,-145 486,-145 486,-123 256,-123"/>
<text text-anchor="start" x="276" y="-129.55" font-family="Helvetica,sans-Serif" font-size="11.00">contract_source_code</text>
<polygon fill="none" stroke="black" points="486,-123 486,-145 584,-145 584,-123 486,-123"/>
<text text-anchor="start" x="489" y="-129.55" font-family="Helvetica,sans-Serif" font-size="11.00">text[2147483647]</text>
<polygon fill="#ffffff" stroke="none" points="256,-101 256,-123 486,-123 486,-101 256,-101"/>
<polygon fill="none" stroke="black" points="256,-101 256,-123 486,-123 486,-101 256,-101"/>
<image xlink:href="../../images/foreignKeys.png" width="11px" height="12px" preserveAspectRatio="xMinYMin meet" x="261" y="-118"/>
<text text-anchor="start" x="276" y="-107.55" font-family="Helvetica,sans-Serif" font-size="11.00">address_hash</text>
<polygon fill="none" stroke="black" points="486,-101 486,-123 584,-123 584,-101 486,-101"/>
<text text-anchor="start" x="488.88" y="-107.55" font-family="Helvetica,sans-Serif" font-size="11.00">bytea[2147483647]</text>
<polygon fill="none" stroke="black" points="256,-79 256,-101 486,-101 486,-79 256,-79"/>
<text text-anchor="start" x="276" y="-85.55" font-family="Helvetica,sans-Serif" font-size="11.00">inserted_at</text>
<polygon fill="none" stroke="black" points="486,-79 486,-101 584,-101 584,-79 486,-79"/>
<text text-anchor="start" x="489" y="-85.55" font-family="Helvetica,sans-Serif" font-size="11.00">timestamp[29,6]</text>
<polygon fill="none" stroke="black" points="256,-57 256,-79 486,-79 486,-57 256,-57"/>
<text text-anchor="start" x="276" y="-63.55" font-family="Helvetica,sans-Serif" font-size="11.00">updated_at</text>
<polygon fill="none" stroke="black" points="486,-57 486,-79 584,-79 584,-57 486,-57"/>
<text text-anchor="start" x="489" y="-63.55" font-family="Helvetica,sans-Serif" font-size="11.00">timestamp[29,6]</text>
<polygon fill="#ffffff" stroke="none" points="256,-39 256,-57 375,-57 375,-39 256,-39"/>
<polygon fill="none" stroke="black" points="256,-39 256,-57 375,-57 375,-39 256,-39"/>
<text text-anchor="start" x="259" y="-43.55" font-family="Helvetica,sans-Serif" font-size="11.00">&lt; 1</text>
<polygon fill="#ffffff" stroke="none" points="375,-39 375,-57 486,-57 486,-39 375,-39"/>
<polygon fill="none" stroke="black" points="375,-39 375,-57 486,-57 486,-39 375,-39"/>
<text text-anchor="start" x="477" y="-43.55" font-family="Helvetica,sans-Serif" font-size="11.00"> &#160;</text>
<polygon fill="#ffffff" stroke="none" points="486,-39 486,-57 584,-57 584,-39 486,-39"/>
<polygon fill="none" stroke="black" points="486,-39 486,-57 584,-57 584,-39 486,-39"/>
<text text-anchor="start" x="565.25" y="-43.55" font-family="Helvetica,sans-Serif" font-size="11.00">0 &gt;</text>
<polygon fill="none" stroke="black" stroke-width="2" points="255,-38 255,-212 585,-212 585,-38 255,-38"/>
</a>
</g>
</g>
<!-- smart_contracts -->
<g id="node2" class="node">
<title>smart_contracts</title>
<g id="a_node2"><a xlink:href="../../tables/smart_contracts.html" xlink:title="smart_contracts" target="_top">
<polygon fill="#ffffff" stroke="none" points="8,-43 8,-167 205,-167 205,-43 8,-43"/>
<polygon fill="#f5f5f5" stroke="none" points="8,-145 8,-167 205,-167 205,-145 8,-145"/>
<polygon fill="none" stroke="black" points="8,-145 8,-167 205,-167 205,-145 8,-145"/>
<text text-anchor="start" x="13" y="-152.55" font-family="Helvetica,sans-Serif" font-weight="bold" font-size="11.00">smart_contracts</text>
<text text-anchor="start" x="170.75" y="-151.55" font-family="Helvetica,sans-Serif" font-size="11.00">[table]</text>
<polygon fill="none" stroke="black" points="8,-123 8,-145 205,-145 205,-123 8,-123"/>
<image xlink:href="../../images/primaryKeys.png" width="11px" height="12px" preserveAspectRatio="xMinYMin meet" x="13" y="-140"/>
<text text-anchor="start" x="28" y="-129.55" font-family="Helvetica,sans-Serif" font-size="11.00">id</text>
<polygon fill="#ffffff" stroke="none" points="8,-101 8,-123 205,-123 205,-101 8,-101"/>
<polygon fill="none" stroke="black" points="8,-101 8,-123 205,-123 205,-101 8,-101"/>
<text text-anchor="start" x="28" y="-107.55" font-family="Helvetica,sans-Serif" font-size="11.00">address_hash</text>
<polygon fill="#ffffff" stroke="none" points="8,-79 8,-101 205,-101 205,-79 8,-79"/>
<polygon fill="none" stroke="black" points="8,-79 8,-101 205,-101 205,-79 8,-79"/>
<text text-anchor="start" x="28" y="-85.55" font-family="Helvetica,sans-Serif" font-size="11.00">contract_code_md5</text>
<polygon fill="none" stroke="black" points="8,-61 8,-79 205,-79 205,-61 8,-61"/>
<text text-anchor="start" x="11" y="-65.55" font-family="Helvetica,sans-Serif" font-size="11.00">...</text>
<polygon fill="#ffffff" stroke="none" points="8,-43 8,-61 96,-61 96,-43 8,-43"/>
<polygon fill="none" stroke="black" points="8,-43 8,-61 96,-61 96,-43 8,-43"/>
<text text-anchor="start" x="11" y="-47.55" font-family="Helvetica,sans-Serif" font-size="11.00"> &#160;</text>
<polygon fill="#ffffff" stroke="none" points="96,-43 96,-61 146,-61 146,-43 96,-43"/>
<polygon fill="none" stroke="black" points="96,-43 96,-61 146,-61 146,-43 96,-43"/>
<text text-anchor="start" x="137" y="-47.55" font-family="Helvetica,sans-Serif" font-size="11.00"> &#160;</text>
<polygon fill="#ffffff" stroke="none" points="146,-43 146,-61 205,-61 205,-43 146,-43"/>
<polygon fill="none" stroke="black" points="146,-43 146,-61 205,-61 205,-43 146,-43"/>
<text text-anchor="start" x="186.25" y="-47.55" font-family="Helvetica,sans-Serif" font-size="11.00">3 &gt;</text>
</a>
</g>
</g>
<!-- smart_contracts_additional_sources&#45;&gt;smart_contracts -->
<g id="edge1" class="edge">
<title>smart_contracts_additional_sources:w&#45;&gt;smart_contracts:e</title>
<path fill="none" stroke="black" d="M239.23,-112C228.82,-112 221.66,-112 206.5,-112"/>
<polygon fill="black" stroke="black" points="246.67,-112 254.67,-115.6 251,-112 254.33,-112 254.33,-112 254.33,-112 251,-112 254.67,-108.4 246.67,-112"/>
<ellipse fill="none" stroke="black" cx="241.75" cy="-112" rx="3.2" ry="3.2"/>
</g>
</g>
</svg>
