<?xml version="1.0" encoding="UTF-8" standalone="no"?>
<!DOCTYPE svg PUBLIC "-//W3C//DTD SVG 1.1//EN"
 "http://www.w3.org/Graphics/SVG/1.1/DTD/svg11.dtd">
<!-- Generated by graphviz version 2.43.0 (0)
 -->
<!-- Title: oneDegreeRelationshipsDiagram Pages: 1 -->
<svg width="663pt" height="423pt"
 viewBox="0.00 0.00 663.00 423.00" xmlns="http://www.w3.org/2000/svg" xmlns:xlink="http://www.w3.org/1999/xlink">
<g id="graph0" class="graph" transform="scale(1 1) rotate(0) translate(4 419)">
<title>oneDegreeRelationshipsDiagram</title>
<polygon fill="#ffffff" stroke="transparent" points="-4,4 -4,-419 659,-419 659,4 -4,4"/>
<text text-anchor="middle" x="79.5" y="-7.2" font-family="Helvetica,sans-Serif" font-size="11.00">Generated by SchemaSpy</text>
<!-- smart_contract_audit_reports -->
<g id="node1" class="node">
<title>smart_contract_audit_reports</title>
<g id="a_node1"><a xlink:href="../../tables/smart_contract_audit_reports.html" xlink:title="smart_contract_audit_reports" target="_top">
<polygon fill="#ffffff" stroke="transparent" points="292,-37 292,-411 647,-411 647,-37 292,-37"/>
<polygon fill="#f5f5f5" stroke="transparent" points="294.5,-387 294.5,-409 645.5,-409 645.5,-387 294.5,-387"/>
<polygon fill="none" stroke="black" points="294.5,-387 294.5,-409 645.5,-409 645.5,-387 294.5,-387"/>
<text text-anchor="start" x="299.5" y="-396.2" font-family="Helvetica,sans-Serif" font-weight="bold" font-size="11.00">smart_contract_audit_reports</text>
<text text-anchor="start" x="603.5" y="-395.2" font-family="Helvetica,sans-Serif" font-size="11.00">[table]</text>
<polygon fill="none" stroke="black" points="294.5,-365 294.5,-387 530.5,-387 530.5,-365 294.5,-365"/>
<image xlink:href="../../images/primaryKeys.png" width="11px" height="12px" preserveAspectRatio="xMinYMin meet" x="299.5" y="-382"/>
<text text-anchor="start" x="314.5" y="-373.2" font-family="Helvetica,sans-Serif" font-size="11.00">id</text>
<polygon fill="none" stroke="black" points="530.5,-365 530.5,-387 645.5,-387 645.5,-365 530.5,-365"/>
<text text-anchor="start" x="533.5" y="-373.2" font-family="Helvetica,sans-Serif" font-size="11.00">bigserial[19]</text>
<polygon fill="#ffffff" stroke="transparent" points="294.5,-343 294.5,-365 530.5,-365 530.5,-343 294.5,-343"/>
<polygon fill="none" stroke="black" points="294.5,-343 294.5,-365 530.5,-365 530.5,-343 294.5,-343"/>
<image xlink:href="../../images/foreignKeys.png" width="11px" height="12px" preserveAspectRatio="xMinYMin meet" x="299.5" y="-360"/>
<text text-anchor="start" x="314.5" y="-351.2" font-family="Helvetica,sans-Serif" font-size="11.00">address_hash</text>
<polygon fill="none" stroke="black" points="530.5,-343 530.5,-365 645.5,-365 645.5,-343 530.5,-343"/>
<text text-anchor="start" x="533.5" y="-351.2" font-family="Helvetica,sans-Serif" font-size="11.00">bytea[2147483647]</text>
<polygon fill="none" stroke="black" points="294.5,-321 294.5,-343 530.5,-343 530.5,-321 294.5,-321"/>
<text text-anchor="start" x="314.5" y="-329.2" font-family="Helvetica,sans-Serif" font-size="11.00">is_approved</text>
<polygon fill="none" stroke="black" points="530.5,-321 530.5,-343 645.5,-343 645.5,-321 530.5,-321"/>
<text text-anchor="start" x="533.5" y="-329.2" font-family="Helvetica,sans-Serif" font-size="11.00">bool[1]</text>
<polygon fill="none" stroke="black" points="294.5,-299 294.5,-321 530.5,-321 530.5,-299 294.5,-299"/>
<text text-anchor="start" x="314.5" y="-307.2" font-family="Helvetica,sans-Serif" font-size="11.00">submitter_name</text>
<polygon fill="none" stroke="black" points="530.5,-299 530.5,-321 645.5,-321 645.5,-299 530.5,-299"/>
<text text-anchor="start" x="533.5" y="-307.2" font-family="Helvetica,sans-Serif" font-size="11.00">varchar[255]</text>
<polygon fill="none" stroke="black" points="294.5,-277 294.5,-299 530.5,-299 530.5,-277 294.5,-277"/>
<text text-anchor="start" x="314.5" y="-285.2" font-family="Helvetica,sans-Serif" font-size="11.00">submitter_email</text>
<polygon fill="none" stroke="black" points="530.5,-277 530.5,-299 645.5,-299 645.5,-277 530.5,-277"/>
<text text-anchor="start" x="533.5" y="-285.2" font-family="Helvetica,sans-Serif" font-size="11.00">varchar[255]</text>
<polygon fill="none" stroke="black" points="294.5,-255 294.5,-277 530.5,-277 530.5,-255 294.5,-255"/>
<text text-anchor="start" x="314.5" y="-263.2" font-family="Helvetica,sans-Serif" font-size="11.00">is_project_owner</text>
<polygon fill="none" stroke="black" points="530.5,-255 530.5,-277 645.5,-277 645.5,-255 530.5,-255"/>
<text text-anchor="start" x="533.5" y="-263.2" font-family="Helvetica,sans-Serif" font-size="11.00">bool[1]</text>
<polygon fill="none" stroke="black" points="294.5,-233 294.5,-255 530.5,-255 530.5,-233 294.5,-233"/>
<text text-anchor="start" x="314.5" y="-241.2" font-family="Helvetica,sans-Serif" font-size="11.00">project_name</text>
<polygon fill="none" stroke="black" points="530.5,-233 530.5,-255 645.5,-255 645.5,-233 530.5,-233"/>
<text text-anchor="start" x="533.5" y="-241.2" font-family="Helvetica,sans-Serif" font-size="11.00">varchar[255]</text>
<polygon fill="none" stroke="black" points="294.5,-211 294.5,-233 530.5,-233 530.5,-211 294.5,-211"/>
<text text-anchor="start" x="314.5" y="-219.2" font-family="Helvetica,sans-Serif" font-size="11.00">project_url</text>
<polygon fill="none" stroke="black" points="530.5,-211 530.5,-233 645.5,-233 645.5,-211 530.5,-211"/>
<text text-anchor="start" x="533.5" y="-219.2" font-family="Helvetica,sans-Serif" font-size="11.00">varchar[255]</text>
<polygon fill="#ffffff" stroke="transparent" points="294.5,-189 294.5,-211 530.5,-211 530.5,-189 294.5,-189"/>
<polygon fill="none" stroke="black" points="294.5,-189 294.5,-211 530.5,-211 530.5,-189 294.5,-189"/>
<text text-anchor="start" x="314.5" y="-197.2" font-family="Helvetica,sans-Serif" font-size="11.00">audit_company_name</text>
<polygon fill="none" stroke="black" points="530.5,-189 530.5,-211 645.5,-211 645.5,-189 530.5,-189"/>
<text text-anchor="start" x="533.5" y="-197.2" font-family="Helvetica,sans-Serif" font-size="11.00">varchar[255]</text>
<polygon fill="#ffffff" stroke="transparent" points="294.5,-167 294.5,-189 530.5,-189 530.5,-167 294.5,-167"/>
<polygon fill="none" stroke="black" points="294.5,-167 294.5,-189 530.5,-189 530.5,-167 294.5,-167"/>
<text text-anchor="start" x="314.5" y="-175.2" font-family="Helvetica,sans-Serif" font-size="11.00">audit_report_url</text>
<polygon fill="none" stroke="black" points="530.5,-167 530.5,-189 645.5,-189 645.5,-167 530.5,-167"/>
<text text-anchor="start" x="533.5" y="-175.2" font-family="Helvetica,sans-Serif" font-size="11.00">varchar[255]</text>
<polygon fill="#ffffff" stroke="transparent" points="294.5,-145 294.5,-167 530.5,-167 530.5,-145 294.5,-145"/>
<polygon fill="none" stroke="black" points="294.5,-145 294.5,-167 530.5,-167 530.5,-145 294.5,-145"/>
<text text-anchor="start" x="314.5" y="-153.2" font-family="Helvetica,sans-Serif" font-size="11.00">audit_publish_date</text>
<polygon fill="none" stroke="black" points="530.5,-145 530.5,-167 645.5,-167 645.5,-145 530.5,-145"/>
<text text-anchor="start" x="533.5" y="-153.2" font-family="Helvetica,sans-Serif" font-size="11.00">date[13]</text>
<polygon fill="none" stroke="black" points="294.5,-123 294.5,-145 530.5,-145 530.5,-123 294.5,-123"/>
<text text-anchor="start" x="314.5" y="-131.2" font-family="Helvetica,sans-Serif" font-size="11.00">request_id</text>
<polygon fill="none" stroke="black" points="530.5,-123 530.5,-145 645.5,-145 645.5,-123 530.5,-123"/>
<text text-anchor="start" x="533.5" y="-131.2" font-family="Helvetica,sans-Serif" font-size="11.00">varchar[255]</text>
<polygon fill="none" stroke="black" points="294.5,-101 294.5,-123 530.5,-123 530.5,-101 294.5,-101"/>
<text text-anchor="start" x="314.5" y="-109.2" font-family="Helvetica,sans-Serif" font-size="11.00">comment</text>
<polygon fill="none" stroke="black" points="530.5,-101 530.5,-123 645.5,-123 645.5,-101 530.5,-101"/>
<text text-anchor="start" x="533.5" y="-109.2" font-family="Helvetica,sans-Serif" font-size="11.00">text[2147483647]</text>
<polygon fill="none" stroke="black" points="294.5,-79 294.5,-101 530.5,-101 530.5,-79 294.5,-79"/>
<text text-anchor="start" x="314.5" y="-87.2" font-family="Helvetica,sans-Serif" font-size="11.00">inserted_at</text>
<polygon fill="none" stroke="black" points="530.5,-79 530.5,-101 645.5,-101 645.5,-79 530.5,-79"/>
<text text-anchor="start" x="533.5" y="-87.2" font-family="Helvetica,sans-Serif" font-size="11.00">timestamp[29,6]</text>
<polygon fill="none" stroke="black" points="294.5,-57 294.5,-79 530.5,-79 530.5,-57 294.5,-57"/>
<text text-anchor="start" x="314.5" y="-65.2" font-family="Helvetica,sans-Serif" font-size="11.00">updated_at</text>
<polygon fill="none" stroke="black" points="530.5,-57 530.5,-79 645.5,-79 645.5,-57 530.5,-57"/>
<text text-anchor="start" x="533.5" y="-65.2" font-family="Helvetica,sans-Serif" font-size="11.00">timestamp[29,6]</text>
<polygon fill="#ffffff" stroke="transparent" points="294.5,-39 294.5,-57 645.5,-57 645.5,-39 294.5,-39"/>
<polygon fill="none" stroke="black" points="294.5,-39 294.5,-57 645.5,-57 645.5,-39 294.5,-39"/>
<polygon fill="#ffffff" stroke="transparent" points="295.5,-40 295.5,-56 416.5,-56 416.5,-40 295.5,-40"/>
<text text-anchor="start" x="297.5" y="-45.2" font-family="Helvetica,sans-Serif" font-size="11.00">&lt; 1</text>
<polygon fill="#ffffff" stroke="transparent" points="416.5,-40 416.5,-56 524.5,-56 524.5,-40 416.5,-40"/>
<text text-anchor="start" x="466.5" y="-45.2" font-family="Helvetica,sans-Serif" font-size="11.00"> &#160;</text>
<polygon fill="#ffffff" stroke="transparent" points="524.5,-40 524.5,-56 644.5,-56 644.5,-40 524.5,-40"/>
<text text-anchor="start" x="622.5" y="-45.2" font-family="Helvetica,sans-Serif" font-size="11.00">0 &gt;</text>
<polygon fill="black" stroke="black" points="416.5,-40 416.5,-56 416.5,-56 416.5,-40 416.5,-40"/>
<polygon fill="black" stroke="black" points="524.5,-40 524.5,-56 524.5,-56 524.5,-40 524.5,-40"/>
<polygon fill="none" stroke="black" stroke-width="2" points="293,-38 293,-410 646,-410 646,-38 293,-38"/>
</a>
</g>
</g>
<!-- smart_contracts -->
<g id="node2" class="node">
<title>smart_contracts</title>
<g id="a_node2"><a xlink:href="../../tables/smart_contracts.html" xlink:title="smart_contracts" target="_top">
<polygon fill="#ffffff" stroke="transparent" points="8,-263 8,-409 243,-409 243,-263 8,-263"/>
<polygon fill="#f5f5f5" stroke="transparent" points="8.5,-387 8.5,-409 243.5,-409 243.5,-387 8.5,-387"/>
<polygon fill="none" stroke="black" points="8.5,-387 8.5,-409 243.5,-409 243.5,-387 8.5,-387"/>
<text text-anchor="start" x="13.5" y="-396.2" font-family="Helvetica,sans-Serif" font-weight="bold" font-size="11.00">smart_contracts</text>
<text text-anchor="start" x="201.5" y="-395.2" font-family="Helvetica,sans-Serif" font-size="11.00">[table]</text>
<polygon fill="none" stroke="black" points="8.5,-365 8.5,-387 243.5,-387 243.5,-365 8.5,-365"/>
<image xlink:href="../../images/primaryKeys.png" width="11px" height="12px" preserveAspectRatio="xMinYMin meet" x="13.5" y="-382"/>
<text text-anchor="start" x="28.5" y="-373.2" font-family="Helvetica,sans-Serif" font-size="11.00">id</text>
<polygon fill="#ffffff" stroke="transparent" points="8.5,-343 8.5,-365 243.5,-365 243.5,-343 8.5,-343"/>
<polygon fill="none" stroke="black" points="8.5,-343 8.5,-365 243.5,-365 243.5,-343 8.5,-343"/>
<text text-anchor="start" x="28.5" y="-351.2" font-family="Helvetica,sans-Serif" font-size="11.00">address_hash</text>
<polygon fill="#ffffff" stroke="transparent" points="8.5,-321 8.5,-343 243.5,-343 243.5,-321 8.5,-321"/>
<polygon fill="none" stroke="black" points="8.5,-321 8.5,-343 243.5,-343 243.5,-321 8.5,-321"/>
<text text-anchor="start" x="28.5" y="-329.2" font-family="Helvetica,sans-Serif" font-size="11.00">contract_code_md5</text>
<polygon fill="#ffffff" stroke="transparent" points="8.5,-299 8.5,-321 243.5,-321 243.5,-299 8.5,-299"/>
<polygon fill="none" stroke="black" points="8.5,-299 8.5,-321 243.5,-321 243.5,-299 8.5,-299"/>
<text text-anchor="start" x="28.5" y="-307.2" font-family="Helvetica,sans-Serif" font-size="11.00">certified</text>
<polygon fill="none" stroke="black" points="8.5,-281 8.5,-299 243.5,-299 243.5,-281 8.5,-281"/>
<text text-anchor="start" x="11.5" y="-287.2" font-family="Helvetica,sans-Serif" font-size="11.00">...</text>
<polygon fill="#ffffff" stroke="transparent" points="8.5,-263 8.5,-281 243.5,-281 243.5,-263 8.5,-263"/>
<polygon fill="none" stroke="black" points="8.5,-263 8.5,-281 243.5,-281 243.5,-263 8.5,-263"/>
<polygon fill="#ffffff" stroke="transparent" points="9.5,-264 9.5,-280 83.5,-280 83.5,-264 9.5,-264"/>
<text text-anchor="start" x="11.5" y="-269.2" font-family="Helvetica,sans-Serif" font-size="11.00"> &#160;</text>
<polygon fill="#ffffff" stroke="transparent" points="83.5,-264 83.5,-280 157.5,-280 157.5,-264 83.5,-264"/>
<text text-anchor="start" x="116.5" y="-269.2" font-family="Helvetica,sans-Serif" font-size="11.00"> &#160;</text>
<polygon fill="#ffffff" stroke="transparent" points="157.5,-264 157.5,-280 242.5,-280 242.5,-264 157.5,-264"/>
<text text-anchor="start" x="220.5" y="-269.2" font-family="Helvetica,sans-Serif" font-size="11.00">3 &gt;</text>
<polygon fill="black" stroke="black" points="83.5,-264 83.5,-280 83.5,-280 83.5,-264 83.5,-264"/>
<polygon fill="black" stroke="black" points="157.5,-264 157.5,-280 157.5,-280 157.5,-264 157.5,-264"/>
</a>
</g>
</g>
<!-- smart_contract_audit_reports&#45;&gt;smart_contracts -->
<g id="edge1" class="edge">
<title>smart_contract_audit_reports:w&#45;&gt;smart_contracts:e</title>
<path fill="none" stroke="black" d="M278.99,-354C267.68,-354 260.49,-354 244.5,-354"/>
<polygon fill="black" stroke="black" points="285.5,-354 293.5,-357.6 289.5,-354 293.5,-354 293.5,-354 293.5,-354 289.5,-354 293.5,-350.4 285.5,-354 285.5,-354"/>
<ellipse fill="none" stroke="black" cx="282.3" cy="-354" rx="3.2" ry="3.2"/>
</g>
</g>
</svg>
