<?xml version="1.0" encoding="UTF-8" standalone="no"?>
<!DOCTYPE svg PUBLIC "-//W3C//DTD SVG 1.1//EN"
 "http://www.w3.org/Graphics/SVG/1.1/DTD/svg11.dtd">
<!-- Generated by graphviz version 2.43.0 (0)
 -->
<!-- Title: twoDegreesRelationshipsDiagram Pages: 1 -->
<svg width="672pt" height="581pt"
 viewBox="0.00 0.00 672.00 581.00" xmlns="http://www.w3.org/2000/svg" xmlns:xlink="http://www.w3.org/1999/xlink">
<g id="graph0" class="graph" transform="scale(1 1) rotate(0) translate(4 577)">
<title>twoDegreesRelationshipsDiagram</title>
<polygon fill="#ffffff" stroke="transparent" points="-4,4 -4,-577 668,-577 668,4 -4,4"/>
<text text-anchor="middle" x="79.5" y="-7.2" font-family="Helvetica,sans-Serif" font-size="11.00">Generated by SchemaSpy</text>
<!-- proxy_smart_contract_verification_statuses -->
<g id="node1" class="node">
<title>proxy_smart_contract_verification_statuses</title>
<g id="a_node1"><a xlink:href="../../tables/proxy_smart_contract_verificati_d48f8abe.html" xlink:title="proxy_smart_contract_verification_statuses" target="_top">
<polygon fill="#ffffff" stroke="transparent" points="292,-511 292,-569 656,-569 656,-511 292,-511"/>
<polygon fill="#f5f5f5" stroke="transparent" points="292,-547 292,-569 656,-569 656,-547 292,-547"/>
<polygon fill="none" stroke="black" points="292,-547 292,-569 656,-569 656,-547 292,-547"/>
<text text-anchor="start" x="297" y="-556.2" font-family="Helvetica,sans-Serif" font-weight="bold" font-size="11.00">proxy_smart_contract_verification_statuses</text>
<text text-anchor="start" x="614" y="-555.2" font-family="Helvetica,sans-Serif" font-size="11.00">[table]</text>
<polygon fill="none" stroke="black" points="292,-529 292,-547 656,-547 656,-529 292,-529"/>
<text text-anchor="start" x="295" y="-535.2" font-family="Helvetica,sans-Serif" font-size="11.00">...</text>
<polygon fill="#ffffff" stroke="transparent" points="292,-511 292,-529 656,-529 656,-511 292,-511"/>
<polygon fill="none" stroke="black" points="292,-511 292,-529 656,-529 656,-511 292,-511"/>
<polygon fill="#ffffff" stroke="transparent" points="293,-512 293,-528 422,-528 422,-512 293,-512"/>
<text text-anchor="start" x="295" y="-517.2" font-family="Helvetica,sans-Serif" font-size="11.00">&lt; 1</text>
<polygon fill="#ffffff" stroke="transparent" points="422,-512 422,-528 539,-528 539,-512 422,-512"/>
<text text-anchor="start" x="476.5" y="-517.2" font-family="Helvetica,sans-Serif" font-size="11.00"> &#160;</text>
<polygon fill="#ffffff" stroke="transparent" points="539,-512 539,-528 655,-528 655,-512 539,-512"/>
<text text-anchor="start" x="645" y="-517.2" font-family="Helvetica,sans-Serif" font-size="11.00"> &#160;</text>
<polygon fill="black" stroke="black" points="422,-512 422,-528 422,-528 422,-512 422,-512"/>
<polygon fill="black" stroke="black" points="539,-512 539,-528 539,-528 539,-512 539,-512"/>
</a>
</g>
</g>
<!-- smart_contracts -->
<g id="node2" class="node">
<title>smart_contracts</title>
<g id="a_node2"><a xlink:href="../../tables/smart_contracts.html" xlink:title="smart_contracts" target="_top">
<polygon fill="#ffffff" stroke="transparent" points="8,-342 8,-488 243,-488 243,-342 8,-342"/>
<polygon fill="#f5f5f5" stroke="transparent" points="8.5,-466 8.5,-488 243.5,-488 243.5,-466 8.5,-466"/>
<polygon fill="none" stroke="black" points="8.5,-466 8.5,-488 243.5,-488 243.5,-466 8.5,-466"/>
<text text-anchor="start" x="13.5" y="-475.2" font-family="Helvetica,sans-Serif" font-weight="bold" font-size="11.00">smart_contracts</text>
<text text-anchor="start" x="201.5" y="-474.2" font-family="Helvetica,sans-Serif" font-size="11.00">[table]</text>
<polygon fill="none" stroke="black" points="8.5,-444 8.5,-466 243.5,-466 243.5,-444 8.5,-444"/>
<image xlink:href="../../images/primaryKeys.png" width="11px" height="12px" preserveAspectRatio="xMinYMin meet" x="13.5" y="-461"/>
<text text-anchor="start" x="28.5" y="-452.2" font-family="Helvetica,sans-Serif" font-size="11.00">id</text>
<polygon fill="#ffffff" stroke="transparent" points="8.5,-422 8.5,-444 243.5,-444 243.5,-422 8.5,-422"/>
<polygon fill="none" stroke="black" points="8.5,-422 8.5,-444 243.5,-444 243.5,-422 8.5,-422"/>
<text text-anchor="start" x="28.5" y="-430.2" font-family="Helvetica,sans-Serif" font-size="11.00">address_hash</text>
<polygon fill="#ffffff" stroke="transparent" points="8.5,-400 8.5,-422 243.5,-422 243.5,-400 8.5,-400"/>
<polygon fill="none" stroke="black" points="8.5,-400 8.5,-422 243.5,-422 243.5,-400 8.5,-400"/>
<text text-anchor="start" x="28.5" y="-408.2" font-family="Helvetica,sans-Serif" font-size="11.00">contract_code_md5</text>
<polygon fill="#ffffff" stroke="transparent" points="8.5,-378 8.5,-400 243.5,-400 243.5,-378 8.5,-378"/>
<polygon fill="none" stroke="black" points="8.5,-378 8.5,-400 243.5,-400 243.5,-378 8.5,-378"/>
<text text-anchor="start" x="28.5" y="-386.2" font-family="Helvetica,sans-Serif" font-size="11.00">certified</text>
<polygon fill="none" stroke="black" points="8.5,-360 8.5,-378 243.5,-378 243.5,-360 8.5,-360"/>
<text text-anchor="start" x="11.5" y="-366.2" font-family="Helvetica,sans-Serif" font-size="11.00">...</text>
<polygon fill="#ffffff" stroke="transparent" points="8.5,-342 8.5,-360 243.5,-360 243.5,-342 8.5,-342"/>
<polygon fill="none" stroke="black" points="8.5,-342 8.5,-360 243.5,-360 243.5,-342 8.5,-342"/>
<polygon fill="#ffffff" stroke="transparent" points="9.5,-343 9.5,-359 83.5,-359 83.5,-343 9.5,-343"/>
<text text-anchor="start" x="11.5" y="-348.2" font-family="Helvetica,sans-Serif" font-size="11.00"> &#160;</text>
<polygon fill="#ffffff" stroke="transparent" points="83.5,-343 83.5,-359 157.5,-359 157.5,-343 83.5,-343"/>
<text text-anchor="start" x="116.5" y="-348.2" font-family="Helvetica,sans-Serif" font-size="11.00"> &#160;</text>
<polygon fill="#ffffff" stroke="transparent" points="157.5,-343 157.5,-359 242.5,-359 242.5,-343 157.5,-343"/>
<text text-anchor="start" x="220.5" y="-348.2" font-family="Helvetica,sans-Serif" font-size="11.00">3 &gt;</text>
<polygon fill="black" stroke="black" points="83.5,-343 83.5,-359 83.5,-359 83.5,-343 83.5,-343"/>
<polygon fill="black" stroke="black" points="157.5,-343 157.5,-359 157.5,-359 157.5,-343 157.5,-343"/>
</a>
</g>
</g>
<!-- proxy_smart_contract_verification_statuses&#45;&gt;smart_contracts -->
<g id="edge1" class="edge">
<title>proxy_smart_contract_verification_statuses:w&#45;&gt;smart_contracts:e</title>
<path fill="none" stroke="black" d="M277.11,-534.01C251.52,-514.83 289.56,-433 244.5,-433"/>
<polygon fill="black" stroke="black" points="283.31,-535.79 290.01,-541.46 287.16,-536.9 291,-538 291,-538 291,-538 287.16,-536.9 291.99,-534.54 283.31,-535.79 283.31,-535.79"/>
<ellipse fill="none" stroke="black" cx="280.23" cy="-534.91" rx="3.2" ry="3.2"/>
</g>
<!-- smart_contract_audit_reports -->
<g id="node3" class="node">
<title>smart_contract_audit_reports</title>
<g id="a_node3"><a xlink:href="../../tables/smart_contract_audit_reports.html" xlink:title="smart_contract_audit_reports" target="_top">
<polygon fill="#ffffff" stroke="transparent" points="296.5,-116 296.5,-490 651.5,-490 651.5,-116 296.5,-116"/>
<polygon fill="#f5f5f5" stroke="transparent" points="299,-466 299,-488 650,-488 650,-466 299,-466"/>
<polygon fill="none" stroke="black" points="299,-466 299,-488 650,-488 650,-466 299,-466"/>
<text text-anchor="start" x="304" y="-475.2" font-family="Helvetica,sans-Serif" font-weight="bold" font-size="11.00">smart_contract_audit_reports</text>
<text text-anchor="start" x="608" y="-474.2" font-family="Helvetica,sans-Serif" font-size="11.00">[table]</text>
<polygon fill="none" stroke="black" points="299,-444 299,-466 535,-466 535,-444 299,-444"/>
<image xlink:href="../../images/primaryKeys.png" width="11px" height="12px" preserveAspectRatio="xMinYMin meet" x="304" y="-461"/>
<text text-anchor="start" x="319" y="-452.2" font-family="Helvetica,sans-Serif" font-size="11.00">id</text>
<polygon fill="none" stroke="black" points="535,-444 535,-466 650,-466 650,-444 535,-444"/>
<text text-anchor="start" x="538" y="-452.2" font-family="Helvetica,sans-Serif" font-size="11.00">bigserial[19]</text>
<polygon fill="#ffffff" stroke="transparent" points="299,-422 299,-444 535,-444 535,-422 299,-422"/>
<polygon fill="none" stroke="black" points="299,-422 299,-444 535,-444 535,-422 299,-422"/>
<image xlink:href="../../images/foreignKeys.png" width="11px" height="12px" preserveAspectRatio="xMinYMin meet" x="304" y="-439"/>
<text text-anchor="start" x="319" y="-430.2" font-family="Helvetica,sans-Serif" font-size="11.00">address_hash</text>
<polygon fill="none" stroke="black" points="535,-422 535,-444 650,-444 650,-422 535,-422"/>
<text text-anchor="start" x="538" y="-430.2" font-family="Helvetica,sans-Serif" font-size="11.00">bytea[2147483647]</text>
<polygon fill="none" stroke="black" points="299,-400 299,-422 535,-422 535,-400 299,-400"/>
<text text-anchor="start" x="319" y="-408.2" font-family="Helvetica,sans-Serif" font-size="11.00">is_approved</text>
<polygon fill="none" stroke="black" points="535,-400 535,-422 650,-422 650,-400 535,-400"/>
<text text-anchor="start" x="538" y="-408.2" font-family="Helvetica,sans-Serif" font-size="11.00">bool[1]</text>
<polygon fill="none" stroke="black" points="299,-378 299,-400 535,-400 535,-378 299,-378"/>
<text text-anchor="start" x="319" y="-386.2" font-family="Helvetica,sans-Serif" font-size="11.00">submitter_name</text>
<polygon fill="none" stroke="black" points="535,-378 535,-400 650,-400 650,-378 535,-378"/>
<text text-anchor="start" x="538" y="-386.2" font-family="Helvetica,sans-Serif" font-size="11.00">varchar[255]</text>
<polygon fill="none" stroke="black" points="299,-356 299,-378 535,-378 535,-356 299,-356"/>
<text text-anchor="start" x="319" y="-364.2" font-family="Helvetica,sans-Serif" font-size="11.00">submitter_email</text>
<polygon fill="none" stroke="black" points="535,-356 535,-378 650,-378 650,-356 535,-356"/>
<text text-anchor="start" x="538" y="-364.2" font-family="Helvetica,sans-Serif" font-size="11.00">varchar[255]</text>
<polygon fill="none" stroke="black" points="299,-334 299,-356 535,-356 535,-334 299,-334"/>
<text text-anchor="start" x="319" y="-342.2" font-family="Helvetica,sans-Serif" font-size="11.00">is_project_owner</text>
<polygon fill="none" stroke="black" points="535,-334 535,-356 650,-356 650,-334 535,-334"/>
<text text-anchor="start" x="538" y="-342.2" font-family="Helvetica,sans-Serif" font-size="11.00">bool[1]</text>
<polygon fill="none" stroke="black" points="299,-312 299,-334 535,-334 535,-312 299,-312"/>
<text text-anchor="start" x="319" y="-320.2" font-family="Helvetica,sans-Serif" font-size="11.00">project_name</text>
<polygon fill="none" stroke="black" points="535,-312 535,-334 650,-334 650,-312 535,-312"/>
<text text-anchor="start" x="538" y="-320.2" font-family="Helvetica,sans-Serif" font-size="11.00">varchar[255]</text>
<polygon fill="none" stroke="black" points="299,-290 299,-312 535,-312 535,-290 299,-290"/>
<text text-anchor="start" x="319" y="-298.2" font-family="Helvetica,sans-Serif" font-size="11.00">project_url</text>
<polygon fill="none" stroke="black" points="535,-290 535,-312 650,-312 650,-290 535,-290"/>
<text text-anchor="start" x="538" y="-298.2" font-family="Helvetica,sans-Serif" font-size="11.00">varchar[255]</text>
<polygon fill="#ffffff" stroke="transparent" points="299,-268 299,-290 535,-290 535,-268 299,-268"/>
<polygon fill="none" stroke="black" points="299,-268 299,-290 535,-290 535,-268 299,-268"/>
<text text-anchor="start" x="319" y="-276.2" font-family="Helvetica,sans-Serif" font-size="11.00">audit_company_name</text>
<polygon fill="none" stroke="black" points="535,-268 535,-290 650,-290 650,-268 535,-268"/>
<text text-anchor="start" x="538" y="-276.2" font-family="Helvetica,sans-Serif" font-size="11.00">varchar[255]</text>
<polygon fill="#ffffff" stroke="transparent" points="299,-246 299,-268 535,-268 535,-246 299,-246"/>
<polygon fill="none" stroke="black" points="299,-246 299,-268 535,-268 535,-246 299,-246"/>
<text text-anchor="start" x="319" y="-254.2" font-family="Helvetica,sans-Serif" font-size="11.00">audit_report_url</text>
<polygon fill="none" stroke="black" points="535,-246 535,-268 650,-268 650,-246 535,-246"/>
<text text-anchor="start" x="538" y="-254.2" font-family="Helvetica,sans-Serif" font-size="11.00">varchar[255]</text>
<polygon fill="#ffffff" stroke="transparent" points="299,-224 299,-246 535,-246 535,-224 299,-224"/>
<polygon fill="none" stroke="black" points="299,-224 299,-246 535,-246 535,-224 299,-224"/>
<text text-anchor="start" x="319" y="-232.2" font-family="Helvetica,sans-Serif" font-size="11.00">audit_publish_date</text>
<polygon fill="none" stroke="black" points="535,-224 535,-246 650,-246 650,-224 535,-224"/>
<text text-anchor="start" x="538" y="-232.2" font-family="Helvetica,sans-Serif" font-size="11.00">date[13]</text>
<polygon fill="none" stroke="black" points="299,-202 299,-224 535,-224 535,-202 299,-202"/>
<text text-anchor="start" x="319" y="-210.2" font-family="Helvetica,sans-Serif" font-size="11.00">request_id</text>
<polygon fill="none" stroke="black" points="535,-202 535,-224 650,-224 650,-202 535,-202"/>
<text text-anchor="start" x="538" y="-210.2" font-family="Helvetica,sans-Serif" font-size="11.00">varchar[255]</text>
<polygon fill="none" stroke="black" points="299,-180 299,-202 535,-202 535,-180 299,-180"/>
<text text-anchor="start" x="319" y="-188.2" font-family="Helvetica,sans-Serif" font-size="11.00">comment</text>
<polygon fill="none" stroke="black" points="535,-180 535,-202 650,-202 650,-180 535,-180"/>
<text text-anchor="start" x="538" y="-188.2" font-family="Helvetica,sans-Serif" font-size="11.00">text[2147483647]</text>
<polygon fill="none" stroke="black" points="299,-158 299,-180 535,-180 535,-158 299,-158"/>
<text text-anchor="start" x="319" y="-166.2" font-family="Helvetica,sans-Serif" font-size="11.00">inserted_at</text>
<polygon fill="none" stroke="black" points="535,-158 535,-180 650,-180 650,-158 535,-158"/>
<text text-anchor="start" x="538" y="-166.2" font-family="Helvetica,sans-Serif" font-size="11.00">timestamp[29,6]</text>
<polygon fill="none" stroke="black" points="299,-136 299,-158 535,-158 535,-136 299,-136"/>
<text text-anchor="start" x="319" y="-144.2" font-family="Helvetica,sans-Serif" font-size="11.00">updated_at</text>
<polygon fill="none" stroke="black" points="535,-136 535,-158 650,-158 650,-136 535,-136"/>
<text text-anchor="start" x="538" y="-144.2" font-family="Helvetica,sans-Serif" font-size="11.00">timestamp[29,6]</text>
<polygon fill="#ffffff" stroke="transparent" points="299,-118 299,-136 650,-136 650,-118 299,-118"/>
<polygon fill="none" stroke="black" points="299,-118 299,-136 650,-136 650,-118 299,-118"/>
<polygon fill="#ffffff" stroke="transparent" points="300,-119 300,-135 421,-135 421,-119 300,-119"/>
<text text-anchor="start" x="302" y="-124.2" font-family="Helvetica,sans-Serif" font-size="11.00">&lt; 1</text>
<polygon fill="#ffffff" stroke="transparent" points="421,-119 421,-135 529,-135 529,-119 421,-119"/>
<text text-anchor="start" x="471" y="-124.2" font-family="Helvetica,sans-Serif" font-size="11.00"> &#160;</text>
<polygon fill="#ffffff" stroke="transparent" points="529,-119 529,-135 649,-135 649,-119 529,-119"/>
<text text-anchor="start" x="627" y="-124.2" font-family="Helvetica,sans-Serif" font-size="11.00">0 &gt;</text>
<polygon fill="black" stroke="black" points="421,-119 421,-135 421,-135 421,-119 421,-119"/>
<polygon fill="black" stroke="black" points="529,-119 529,-135 529,-135 529,-119 529,-119"/>
<polygon fill="none" stroke="black" stroke-width="2" points="297.5,-117 297.5,-489 650.5,-489 650.5,-117 297.5,-117"/>
</a>
</g>
</g>
<!-- smart_contract_audit_reports&#45;&gt;smart_contracts -->
<g id="edge2" class="edge">
<title>smart_contract_audit_reports:w&#45;&gt;smart_contracts:e</title>
<path fill="none" stroke="black" d="M283.36,-433C270.3,-433 262.52,-433 244.5,-433"/>
<polygon fill="black" stroke="black" points="290,-433 298,-436.6 294,-433 298,-433 298,-433 298,-433 294,-433 298,-429.4 290,-433 290,-433"/>
<ellipse fill="none" stroke="black" cx="286.8" cy="-433" rx="3.2" ry="3.2"/>
</g>
<!-- smart_contracts_additional_sources -->
<g id="node4" class="node">
<title>smart_contracts_additional_sources</title>
<g id="a_node4"><a xlink:href="../../tables/smart_contracts_additional_sources.html" xlink:title="smart_contracts_additional_sources" target="_top">
<polygon fill="#ffffff" stroke="transparent" points="320,-37 320,-95 628,-95 628,-37 320,-37"/>
<polygon fill="#f5f5f5" stroke="transparent" points="320,-73 320,-95 628,-95 628,-73 320,-73"/>
<polygon fill="none" stroke="black" points="320,-73 320,-95 628,-95 628,-73 320,-73"/>
<text text-anchor="start" x="325" y="-82.2" font-family="Helvetica,sans-Serif" font-weight="bold" font-size="11.00">smart_contracts_additional_sources</text>
<text text-anchor="start" x="586" y="-81.2" font-family="Helvetica,sans-Serif" font-size="11.00">[table]</text>
<polygon fill="none" stroke="black" points="320,-55 320,-73 628,-73 628,-55 320,-55"/>
<text text-anchor="start" x="323" y="-61.2" font-family="Helvetica,sans-Serif" font-size="11.00">...</text>
<polygon fill="#ffffff" stroke="transparent" points="320,-37 320,-55 628,-55 628,-37 320,-37"/>
<polygon fill="none" stroke="black" points="320,-37 320,-55 628,-55 628,-37 320,-37"/>
<polygon fill="#ffffff" stroke="transparent" points="321,-38 321,-54 431,-54 431,-38 321,-38"/>
<text text-anchor="start" x="323" y="-43.2" font-family="Helvetica,sans-Serif" font-size="11.00">&lt; 1</text>
<polygon fill="#ffffff" stroke="transparent" points="431,-38 431,-54 529,-54 529,-38 431,-38"/>
<text text-anchor="start" x="476" y="-43.2" font-family="Helvetica,sans-Serif" font-size="11.00"> &#160;</text>
<polygon fill="#ffffff" stroke="transparent" points="529,-38 529,-54 627,-54 627,-38 529,-38"/>
<text text-anchor="start" x="617" y="-43.2" font-family="Helvetica,sans-Serif" font-size="11.00"> &#160;</text>
<polygon fill="black" stroke="black" points="431,-38 431,-54 431,-54 431,-38 431,-38"/>
<polygon fill="black" stroke="black" points="529,-38 529,-54 529,-54 529,-38 529,-38"/>
</a>
</g>
</g>
<!-- smart_contracts_additional_sources&#45;&gt;smart_contracts -->
<g id="edge3" class="edge">
<title>smart_contracts_additional_sources:w&#45;&gt;smart_contracts:e</title>
<path fill="none" stroke="black" d="M304.63,-67.43C293.63,-74.01 291.22,-89.27 284,-106 254.99,-173.2 317.69,-433 244.5,-433"/>
<polygon fill="black" stroke="black" points="311.22,-65.86 319.83,-67.5 315.11,-64.93 319,-64 319,-64 319,-64 315.11,-64.93 318.17,-60.5 311.22,-65.86 311.22,-65.86"/>
<ellipse fill="none" stroke="black" cx="308.11" cy="-66.6" rx="3.2" ry="3.2"/>
</g>
</g>
</svg>
