<?xml version="1.0" encoding="UTF-8" standalone="no"?>
<!DOCTYPE svg PUBLIC "-//W3C//DTD SVG 1.1//EN"
 "http://www.w3.org/Graphics/SVG/1.1/DTD/svg11.dtd">
<!-- Generated by graphviz version 2.43.0 (0)
 -->
<!-- Title: twoDegreesRelationshipsDiagram Pages: 1 -->
<svg width="709pt" height="383pt"
 viewBox="0.00 0.00 709.00 383.00" xmlns="http://www.w3.org/2000/svg" xmlns:xlink="http://www.w3.org/1999/xlink">
<g id="graph0" class="graph" transform="scale(1 1) rotate(0) translate(4 379)">
<title>twoDegreesRelationshipsDiagram</title>
<polygon fill="#ffffff" stroke="transparent" points="-4,4 -4,-379 705,-379 705,4 -4,4"/>
<text text-anchor="middle" x="79.5" y="-7.2" font-family="Helvetica,sans-Serif" font-size="11.00">Generated by SchemaSpy</text>
<!-- proxy_smart_contract_verification_statuses -->
<g id="node1" class="node">
<title>proxy_smart_contract_verification_statuses</title>
<g id="a_node1"><a xlink:href="../../tables/proxy_smart_contract_verificati_d48f8abe.html" xlink:title="proxy_smart_contract_verification_statuses" target="_top">
<polygon fill="#ffffff" stroke="transparent" points="310.5,-313 310.5,-371 674.5,-371 674.5,-313 310.5,-313"/>
<polygon fill="#f5f5f5" stroke="transparent" points="310.5,-349 310.5,-371 674.5,-371 674.5,-349 310.5,-349"/>
<polygon fill="none" stroke="black" points="310.5,-349 310.5,-371 674.5,-371 674.5,-349 310.5,-349"/>
<text text-anchor="start" x="315.5" y="-358.2" font-family="Helvetica,sans-Serif" font-weight="bold" font-size="11.00">proxy_smart_contract_verification_statuses</text>
<text text-anchor="start" x="632.5" y="-357.2" font-family="Helvetica,sans-Serif" font-size="11.00">[table]</text>
<polygon fill="none" stroke="black" points="310.5,-331 310.5,-349 674.5,-349 674.5,-331 310.5,-331"/>
<text text-anchor="start" x="313.5" y="-337.2" font-family="Helvetica,sans-Serif" font-size="11.00">...</text>
<polygon fill="#ffffff" stroke="transparent" points="310.5,-313 310.5,-331 674.5,-331 674.5,-313 310.5,-313"/>
<polygon fill="none" stroke="black" points="310.5,-313 310.5,-331 674.5,-331 674.5,-313 310.5,-313"/>
<polygon fill="#ffffff" stroke="transparent" points="311.5,-314 311.5,-330 440.5,-330 440.5,-314 311.5,-314"/>
<text text-anchor="start" x="313.5" y="-319.2" font-family="Helvetica,sans-Serif" font-size="11.00">&lt; 1</text>
<polygon fill="#ffffff" stroke="transparent" points="440.5,-314 440.5,-330 557.5,-330 557.5,-314 440.5,-314"/>
<text text-anchor="start" x="495" y="-319.2" font-family="Helvetica,sans-Serif" font-size="11.00"> &#160;</text>
<polygon fill="#ffffff" stroke="transparent" points="557.5,-314 557.5,-330 673.5,-330 673.5,-314 557.5,-314"/>
<text text-anchor="start" x="663.5" y="-319.2" font-family="Helvetica,sans-Serif" font-size="11.00"> &#160;</text>
<polygon fill="black" stroke="black" points="440.5,-314 440.5,-330 440.5,-330 440.5,-314 440.5,-314"/>
<polygon fill="black" stroke="black" points="557.5,-314 557.5,-330 557.5,-330 557.5,-314 557.5,-314"/>
</a>
</g>
</g>
<!-- smart_contracts -->
<g id="node2" class="node">
<title>smart_contracts</title>
<g id="a_node2"><a xlink:href="../../tables/smart_contracts.html" xlink:title="smart_contracts" target="_top">
<polygon fill="#ffffff" stroke="transparent" points="8,-170 8,-316 243,-316 243,-170 8,-170"/>
<polygon fill="#f5f5f5" stroke="transparent" points="8.5,-294 8.5,-316 243.5,-316 243.5,-294 8.5,-294"/>
<polygon fill="none" stroke="black" points="8.5,-294 8.5,-316 243.5,-316 243.5,-294 8.5,-294"/>
<text text-anchor="start" x="13.5" y="-303.2" font-family="Helvetica,sans-Serif" font-weight="bold" font-size="11.00">smart_contracts</text>
<text text-anchor="start" x="201.5" y="-302.2" font-family="Helvetica,sans-Serif" font-size="11.00">[table]</text>
<polygon fill="none" stroke="black" points="8.5,-272 8.5,-294 243.5,-294 243.5,-272 8.5,-272"/>
<image xlink:href="../../images/primaryKeys.png" width="11px" height="12px" preserveAspectRatio="xMinYMin meet" x="13.5" y="-289"/>
<text text-anchor="start" x="28.5" y="-280.2" font-family="Helvetica,sans-Serif" font-size="11.00">id</text>
<polygon fill="#ffffff" stroke="transparent" points="8.5,-250 8.5,-272 243.5,-272 243.5,-250 8.5,-250"/>
<polygon fill="none" stroke="black" points="8.5,-250 8.5,-272 243.5,-272 243.5,-250 8.5,-250"/>
<text text-anchor="start" x="28.5" y="-258.2" font-family="Helvetica,sans-Serif" font-size="11.00">address_hash</text>
<polygon fill="#ffffff" stroke="transparent" points="8.5,-228 8.5,-250 243.5,-250 243.5,-228 8.5,-228"/>
<polygon fill="none" stroke="black" points="8.5,-228 8.5,-250 243.5,-250 243.5,-228 8.5,-228"/>
<text text-anchor="start" x="28.5" y="-236.2" font-family="Helvetica,sans-Serif" font-size="11.00">contract_code_md5</text>
<polygon fill="#ffffff" stroke="transparent" points="8.5,-206 8.5,-228 243.5,-228 243.5,-206 8.5,-206"/>
<polygon fill="none" stroke="black" points="8.5,-206 8.5,-228 243.5,-228 243.5,-206 8.5,-206"/>
<text text-anchor="start" x="28.5" y="-214.2" font-family="Helvetica,sans-Serif" font-size="11.00">certified</text>
<polygon fill="none" stroke="black" points="8.5,-188 8.5,-206 243.5,-206 243.5,-188 8.5,-188"/>
<text text-anchor="start" x="11.5" y="-194.2" font-family="Helvetica,sans-Serif" font-size="11.00">...</text>
<polygon fill="#ffffff" stroke="transparent" points="8.5,-170 8.5,-188 243.5,-188 243.5,-170 8.5,-170"/>
<polygon fill="none" stroke="black" points="8.5,-170 8.5,-188 243.5,-188 243.5,-170 8.5,-170"/>
<polygon fill="#ffffff" stroke="transparent" points="9.5,-171 9.5,-187 83.5,-187 83.5,-171 9.5,-171"/>
<text text-anchor="start" x="11.5" y="-176.2" font-family="Helvetica,sans-Serif" font-size="11.00"> &#160;</text>
<polygon fill="#ffffff" stroke="transparent" points="83.5,-171 83.5,-187 157.5,-187 157.5,-171 83.5,-171"/>
<text text-anchor="start" x="116.5" y="-176.2" font-family="Helvetica,sans-Serif" font-size="11.00"> &#160;</text>
<polygon fill="#ffffff" stroke="transparent" points="157.5,-171 157.5,-187 242.5,-187 242.5,-171 157.5,-171"/>
<text text-anchor="start" x="220.5" y="-176.2" font-family="Helvetica,sans-Serif" font-size="11.00">3 &gt;</text>
<polygon fill="black" stroke="black" points="83.5,-171 83.5,-187 83.5,-187 83.5,-171 83.5,-171"/>
<polygon fill="black" stroke="black" points="157.5,-171 157.5,-187 157.5,-187 157.5,-171 157.5,-171"/>
</a>
</g>
</g>
<!-- proxy_smart_contract_verification_statuses&#45;&gt;smart_contracts -->
<g id="edge1" class="edge">
<title>proxy_smart_contract_verification_statuses:w&#45;&gt;smart_contracts:e</title>
<path fill="none" stroke="black" d="M295.17,-336.4C269.53,-320.95 284.11,-261 244.5,-261"/>
<polygon fill="black" stroke="black" points="301.74,-338.05 308.62,-343.49 305.62,-339.03 309.5,-340 309.5,-340 309.5,-340 305.62,-339.03 310.38,-336.51 301.74,-338.05 301.74,-338.05"/>
<ellipse fill="none" stroke="black" cx="298.64" cy="-337.27" rx="3.2" ry="3.2"/>
</g>
<!-- smart_contract_audit_reports -->
<g id="node3" class="node">
<title>smart_contract_audit_reports</title>
<g id="a_node3"><a xlink:href="../../tables/smart_contract_audit_reports.html" xlink:title="smart_contract_audit_reports" target="_top">
<polygon fill="#ffffff" stroke="transparent" points="361.5,-234 361.5,-292 623.5,-292 623.5,-234 361.5,-234"/>
<polygon fill="#f5f5f5" stroke="transparent" points="361.5,-270 361.5,-292 623.5,-292 623.5,-270 361.5,-270"/>
<polygon fill="none" stroke="black" points="361.5,-270 361.5,-292 623.5,-292 623.5,-270 361.5,-270"/>
<text text-anchor="start" x="366.5" y="-279.2" font-family="Helvetica,sans-Serif" font-weight="bold" font-size="11.00">smart_contract_audit_reports</text>
<text text-anchor="start" x="581.5" y="-278.2" font-family="Helvetica,sans-Serif" font-size="11.00">[table]</text>
<polygon fill="none" stroke="black" points="361.5,-252 361.5,-270 623.5,-270 623.5,-252 361.5,-252"/>
<text text-anchor="start" x="364.5" y="-258.2" font-family="Helvetica,sans-Serif" font-size="11.00">...</text>
<polygon fill="#ffffff" stroke="transparent" points="361.5,-234 361.5,-252 623.5,-252 623.5,-234 361.5,-234"/>
<polygon fill="none" stroke="black" points="361.5,-234 361.5,-252 623.5,-252 623.5,-234 361.5,-234"/>
<polygon fill="#ffffff" stroke="transparent" points="362.5,-235 362.5,-251 457.5,-251 457.5,-235 362.5,-235"/>
<text text-anchor="start" x="364.5" y="-240.2" font-family="Helvetica,sans-Serif" font-size="11.00">&lt; 1</text>
<polygon fill="#ffffff" stroke="transparent" points="457.5,-235 457.5,-251 540.5,-251 540.5,-235 457.5,-235"/>
<text text-anchor="start" x="495" y="-240.2" font-family="Helvetica,sans-Serif" font-size="11.00"> &#160;</text>
<polygon fill="#ffffff" stroke="transparent" points="540.5,-235 540.5,-251 622.5,-251 622.5,-235 540.5,-235"/>
<text text-anchor="start" x="612.5" y="-240.2" font-family="Helvetica,sans-Serif" font-size="11.00"> &#160;</text>
<polygon fill="black" stroke="black" points="457.5,-235 457.5,-251 457.5,-251 457.5,-235 457.5,-235"/>
<polygon fill="black" stroke="black" points="540.5,-235 540.5,-251 540.5,-251 540.5,-235 540.5,-235"/>
</a>
</g>
</g>
<!-- smart_contract_audit_reports&#45;&gt;smart_contracts -->
<g id="edge2" class="edge">
<title>smart_contract_audit_reports:w&#45;&gt;smart_contracts:e</title>
<path fill="none" stroke="black" d="M345.91,-261C305.93,-261 290.82,-261 244.5,-261"/>
<polygon fill="black" stroke="black" points="352.5,-261 360.5,-264.6 356.5,-261 360.5,-261 360.5,-261 360.5,-261 356.5,-261 360.5,-257.4 352.5,-261 352.5,-261"/>
<ellipse fill="none" stroke="black" cx="349.3" cy="-261" rx="3.2" ry="3.2"/>
</g>
<!-- smart_contracts_additional_sources -->
<g id="node4" class="node">
<title>smart_contracts_additional_sources</title>
<g id="a_node4"><a xlink:href="../../tables/smart_contracts_additional_sources.html" xlink:title="smart_contracts_additional_sources" target="_top">
<polygon fill="#ffffff" stroke="transparent" points="292,-37 292,-213 693,-213 693,-37 292,-37"/>
<polygon fill="#f5f5f5" stroke="transparent" points="294.5,-189 294.5,-211 691.5,-211 691.5,-189 294.5,-189"/>
<polygon fill="none" stroke="black" points="294.5,-189 294.5,-211 691.5,-211 691.5,-189 294.5,-189"/>
<text text-anchor="start" x="299.5" y="-198.2" font-family="Helvetica,sans-Serif" font-weight="bold" font-size="11.00">smart_contracts_additional_sources</text>
<text text-anchor="start" x="649.5" y="-197.2" font-family="Helvetica,sans-Serif" font-size="11.00">[table]</text>
<polygon fill="none" stroke="black" points="294.5,-167 294.5,-189 576.5,-189 576.5,-167 294.5,-167"/>
<image xlink:href="../../images/primaryKeys.png" width="11px" height="12px" preserveAspectRatio="xMinYMin meet" x="299.5" y="-184"/>
<text text-anchor="start" x="314.5" y="-175.2" font-family="Helvetica,sans-Serif" font-size="11.00">id</text>
<polygon fill="none" stroke="black" points="576.5,-167 576.5,-189 691.5,-189 691.5,-167 576.5,-167"/>
<text text-anchor="start" x="579.5" y="-175.2" font-family="Helvetica,sans-Serif" font-size="11.00">bigserial[19]</text>
<polygon fill="none" stroke="black" points="294.5,-145 294.5,-167 576.5,-167 576.5,-145 294.5,-145"/>
<text text-anchor="start" x="314.5" y="-153.2" font-family="Helvetica,sans-Serif" font-size="11.00">file_name</text>
<polygon fill="none" stroke="black" points="576.5,-145 576.5,-167 691.5,-167 691.5,-145 576.5,-145"/>
<text text-anchor="start" x="579.5" y="-153.2" font-family="Helvetica,sans-Serif" font-size="11.00">varchar[255]</text>
<polygon fill="none" stroke="black" points="294.5,-123 294.5,-145 576.5,-145 576.5,-123 294.5,-123"/>
<text text-anchor="start" x="314.5" y="-131.2" font-family="Helvetica,sans-Serif" font-size="11.00">contract_source_code</text>
<polygon fill="none" stroke="black" points="576.5,-123 576.5,-145 691.5,-145 691.5,-123 576.5,-123"/>
<text text-anchor="start" x="579.5" y="-131.2" font-family="Helvetica,sans-Serif" font-size="11.00">text[2147483647]</text>
<polygon fill="#ffffff" stroke="transparent" points="294.5,-101 294.5,-123 576.5,-123 576.5,-101 294.5,-101"/>
<polygon fill="none" stroke="black" points="294.5,-101 294.5,-123 576.5,-123 576.5,-101 294.5,-101"/>
<image xlink:href="../../images/foreignKeys.png" width="11px" height="12px" preserveAspectRatio="xMinYMin meet" x="299.5" y="-118"/>
<text text-anchor="start" x="314.5" y="-109.2" font-family="Helvetica,sans-Serif" font-size="11.00">address_hash</text>
<polygon fill="none" stroke="black" points="576.5,-101 576.5,-123 691.5,-123 691.5,-101 576.5,-101"/>
<text text-anchor="start" x="579.5" y="-109.2" font-family="Helvetica,sans-Serif" font-size="11.00">bytea[2147483647]</text>
<polygon fill="none" stroke="black" points="294.5,-79 294.5,-101 576.5,-101 576.5,-79 294.5,-79"/>
<text text-anchor="start" x="314.5" y="-87.2" font-family="Helvetica,sans-Serif" font-size="11.00">inserted_at</text>
<polygon fill="none" stroke="black" points="576.5,-79 576.5,-101 691.5,-101 691.5,-79 576.5,-79"/>
<text text-anchor="start" x="579.5" y="-87.2" font-family="Helvetica,sans-Serif" font-size="11.00">timestamp[29,6]</text>
<polygon fill="none" stroke="black" points="294.5,-57 294.5,-79 576.5,-79 576.5,-57 294.5,-57"/>
<text text-anchor="start" x="314.5" y="-65.2" font-family="Helvetica,sans-Serif" font-size="11.00">updated_at</text>
<polygon fill="none" stroke="black" points="576.5,-57 576.5,-79 691.5,-79 691.5,-57 576.5,-57"/>
<text text-anchor="start" x="579.5" y="-65.2" font-family="Helvetica,sans-Serif" font-size="11.00">timestamp[29,6]</text>
<polygon fill="#ffffff" stroke="transparent" points="294.5,-39 294.5,-57 691.5,-57 691.5,-39 294.5,-39"/>
<polygon fill="none" stroke="black" points="294.5,-39 294.5,-57 691.5,-57 691.5,-39 294.5,-39"/>
<polygon fill="#ffffff" stroke="transparent" points="295.5,-40 295.5,-56 431.5,-56 431.5,-40 295.5,-40"/>
<text text-anchor="start" x="297.5" y="-45.2" font-family="Helvetica,sans-Serif" font-size="11.00">&lt; 1</text>
<polygon fill="#ffffff" stroke="transparent" points="431.5,-40 431.5,-56 555.5,-56 555.5,-40 431.5,-40"/>
<text text-anchor="start" x="489.5" y="-45.2" font-family="Helvetica,sans-Serif" font-size="11.00"> &#160;</text>
<polygon fill="#ffffff" stroke="transparent" points="555.5,-40 555.5,-56 690.5,-56 690.5,-40 555.5,-40"/>
<text text-anchor="start" x="668.5" y="-45.2" font-family="Helvetica,sans-Serif" font-size="11.00">0 &gt;</text>
<polygon fill="black" stroke="black" points="431.5,-40 431.5,-56 431.5,-56 431.5,-40 431.5,-40"/>
<polygon fill="black" stroke="black" points="555.5,-40 555.5,-56 555.5,-56 555.5,-40 555.5,-40"/>
<polygon fill="none" stroke="black" stroke-width="2" points="293,-38 293,-212 692,-212 692,-38 293,-38"/>
</a>
</g>
</g>
<!-- smart_contracts_additional_sources&#45;&gt;smart_contracts -->
<g id="edge3" class="edge">
<title>smart_contracts_additional_sources:w&#45;&gt;smart_contracts:e</title>
<path fill="none" stroke="black" d="M279.13,-114.98C237.85,-135.98 308.36,-261 244.5,-261"/>
<polygon fill="black" stroke="black" points="285.67,-113.62 294.23,-115.53 289.58,-112.81 293.5,-112 293.5,-112 293.5,-112 289.58,-112.81 292.77,-108.47 285.67,-113.62 285.67,-113.62"/>
<ellipse fill="none" stroke="black" cx="282.53" cy="-114.27" rx="3.2" ry="3.2"/>
</g>
</g>
</svg>
