<?xml version="1.0" encoding="UTF-8" standalone="no"?>
<!DOCTYPE svg PUBLIC "-//W3C//DTD SVG 1.1//EN"
 "http://www.w3.org/Graphics/SVG/1.1/DTD/svg11.dtd">
<!-- Generated by graphviz version 9.0.0 (20230911.1827)
 -->
<!-- Title: oneDegreeRelationshipsDiagram Pages: 1 -->
<svg width="668pt" height="654pt"
 viewBox="0.00 0.00 668.00 654.00" xmlns="http://www.w3.org/2000/svg" xmlns:xlink="http://www.w3.org/1999/xlink">
<g id="graph0" class="graph" transform="scale(1 1) rotate(0) translate(4 650)">
<title>oneDegreeRelationshipsDiagram</title>
<polygon fill="#ffffff" stroke="none" points="-4,4 -4,-650 664,-650 664,4 -4,4"/>
<text text-anchor="middle" x="71.38" y="-5.55" font-family="Helvetica,sans-Serif" font-size="11.00">Generated by SchemaSpy</text>
<!-- proxy_smart_contract_verification_statuses -->
<g id="node1" class="node">
<title>proxy_smart_contract_verification_statuses</title>
<g id="a_node1"><a xlink:href="../../tables/proxy_smart_contract_verificati_d48f8abe.html" xlink:title="proxy_smart_contract_verification_statuses" target="_top">
<polygon fill="#ffffff" stroke="none" points="361,-540 361,-642 652,-642 652,-540 361,-540"/>
<polygon fill="#f5f5f5" stroke="none" points="361,-620 361,-642 652,-642 652,-620 361,-620"/>
<polygon fill="none" stroke="black" points="361,-620 361,-642 652,-642 652,-620 361,-620"/>
<text text-anchor="start" x="366" y="-627.55" font-family="Helvetica,sans-Serif" font-weight="bold" font-size="11.00">proxy_smart_contract_verification_statuses</text>
<text text-anchor="start" x="618" y="-626.55" font-family="Helvetica,sans-Serif" font-size="11.00">[table]</text>
<polygon fill="none" stroke="black" points="361,-598 361,-620 652,-620 652,-598 361,-598"/>
<image xlink:href="../../images/primaryKeys.png" width="11px" height="12px" preserveAspectRatio="xMinYMin meet" x="366" y="-615"/>
<text text-anchor="start" x="390" y="-604.55" font-family="Helvetica,sans-Serif" font-size="11.00">uid</text>
<polygon fill="none" stroke="black" points="361,-576 361,-598 652,-598 652,-576 361,-576"/>
<image xlink:href="../../images/foreignKeys.png" width="11px" height="12px" preserveAspectRatio="xMinYMin meet" x="366" y="-593"/>
<text text-anchor="start" x="390" y="-582.55" font-family="Helvetica,sans-Serif" font-size="11.00">contract_address_hash</text>
<polygon fill="none" stroke="black" points="361,-558 361,-576 652,-576 652,-558 361,-558"/>
<text text-anchor="start" x="364" y="-562.55" font-family="Helvetica,sans-Serif" font-size="11.00">...</text>
<polygon fill="#ffffff" stroke="none" points="361,-540 361,-558 505,-558 505,-540 361,-540"/>
<polygon fill="none" stroke="black" points="361,-540 361,-558 505,-558 505,-540 361,-540"/>
<text text-anchor="start" x="364" y="-544.55" font-family="Helvetica,sans-Serif" font-size="11.00">&lt; 1</text>
<polygon fill="#ffffff" stroke="none" points="505,-540 505,-558 578,-558 578,-540 505,-540"/>
<polygon fill="none" stroke="black" points="505,-540 505,-558 578,-558 578,-540 505,-540"/>
<text text-anchor="start" x="569" y="-544.55" font-family="Helvetica,sans-Serif" font-size="11.00"> &#160;</text>
<polygon fill="#ffffff" stroke="none" points="578,-540 578,-558 652,-558 652,-540 578,-540"/>
<polygon fill="none" stroke="black" points="578,-540 578,-558 652,-558 652,-540 578,-540"/>
<text text-anchor="start" x="643" y="-544.55" font-family="Helvetica,sans-Serif" font-size="11.00"> &#160;</text>
</a>
</g>
</g>
<!-- smart_contracts -->
<g id="node2" class="node">
<title>smart_contracts</title>
<g id="a_node2"><a xlink:href="../../tables/smart_contracts.html" xlink:title="smart_contracts" target="_top">
<polygon fill="#ffffff" stroke="none" points="8,-37 8,-631 312,-631 312,-37 8,-37"/>
<polygon fill="#f5f5f5" stroke="none" points="10,-607 10,-629 310,-629 310,-607 10,-607"/>
<polygon fill="none" stroke="black" points="10,-607 10,-629 310,-629 310,-607 10,-607"/>
<text text-anchor="start" x="15" y="-614.55" font-family="Helvetica,sans-Serif" font-weight="bold" font-size="11.00">smart_contracts</text>
<text text-anchor="start" x="275.75" y="-613.55" font-family="Helvetica,sans-Serif" font-size="11.00">[table]</text>
<polygon fill="none" stroke="black" points="10,-585 10,-607 207,-607 207,-585 10,-585"/>
<image xlink:href="../../images/primaryKeys.png" width="11px" height="12px" preserveAspectRatio="xMinYMin meet" x="15" y="-602"/>
<text text-anchor="start" x="30" y="-591.55" font-family="Helvetica,sans-Serif" font-size="11.00">id</text>
<polygon fill="none" stroke="black" points="207,-585 207,-607 310,-607 310,-585 207,-585"/>
<text text-anchor="start" x="210" y="-591.55" font-family="Helvetica,sans-Serif" font-size="11.00">bigserial[19]</text>
<polygon fill="none" stroke="black" points="10,-563 10,-585 207,-585 207,-563 10,-563"/>
<text text-anchor="start" x="30" y="-569.55" font-family="Helvetica,sans-Serif" font-size="11.00">name</text>
<polygon fill="none" stroke="black" points="207,-563 207,-585 310,-585 310,-563 207,-563"/>
<text text-anchor="start" x="210" y="-569.55" font-family="Helvetica,sans-Serif" font-size="11.00">varchar[255]</text>
<polygon fill="none" stroke="black" points="10,-541 10,-563 207,-563 207,-541 10,-541"/>
<text text-anchor="start" x="30" y="-547.55" font-family="Helvetica,sans-Serif" font-size="11.00">compiler_version</text>
<polygon fill="none" stroke="black" points="207,-541 207,-563 310,-563 310,-541 207,-541"/>
<text text-anchor="start" x="210" y="-547.55" font-family="Helvetica,sans-Serif" font-size="11.00">varchar[255]</text>
<polygon fill="none" stroke="black" points="10,-519 10,-541 207,-541 207,-519 10,-519"/>
<text text-anchor="start" x="30" y="-525.55" font-family="Helvetica,sans-Serif" font-size="11.00">optimization</text>
<polygon fill="none" stroke="black" points="207,-519 207,-541 310,-541 310,-519 207,-519"/>
<text text-anchor="start" x="210" y="-525.55" font-family="Helvetica,sans-Serif" font-size="11.00">bool[1]</text>
<polygon fill="none" stroke="black" points="10,-497 10,-519 207,-519 207,-497 10,-497"/>
<text text-anchor="start" x="30" y="-503.55" font-family="Helvetica,sans-Serif" font-size="11.00">contract_source_code</text>
<polygon fill="none" stroke="black" points="207,-497 207,-519 310,-519 310,-497 207,-497"/>
<text text-anchor="start" x="210" y="-503.55" font-family="Helvetica,sans-Serif" font-size="11.00">text[2147483647]</text>
<polygon fill="none" stroke="black" points="10,-475 10,-497 207,-497 207,-475 10,-475"/>
<text text-anchor="start" x="30" y="-481.55" font-family="Helvetica,sans-Serif" font-size="11.00">abi</text>
<polygon fill="none" stroke="black" points="207,-475 207,-497 310,-497 310,-475 207,-475"/>
<text text-anchor="start" x="210" y="-481.55" font-family="Helvetica,sans-Serif" font-size="11.00">jsonb[2147483647]</text>
<polygon fill="#ffffff" stroke="none" points="10,-453 10,-475 207,-475 207,-453 10,-453"/>
<polygon fill="none" stroke="black" points="10,-453 10,-475 207,-475 207,-453 10,-453"/>
<text text-anchor="start" x="30" y="-459.55" font-family="Helvetica,sans-Serif" font-size="11.00">address_hash</text>
<polygon fill="none" stroke="black" points="207,-453 207,-475 310,-475 310,-453 207,-453"/>
<text text-anchor="start" x="210" y="-459.55" font-family="Helvetica,sans-Serif" font-size="11.00">bytea[2147483647]</text>
<polygon fill="none" stroke="black" points="10,-431 10,-453 207,-453 207,-431 10,-431"/>
<text text-anchor="start" x="30" y="-437.55" font-family="Helvetica,sans-Serif" font-size="11.00">inserted_at</text>
<polygon fill="none" stroke="black" points="207,-431 207,-453 310,-453 310,-431 207,-431"/>
<text text-anchor="start" x="210" y="-437.55" font-family="Helvetica,sans-Serif" font-size="11.00">timestamp[29,6]</text>
<polygon fill="none" stroke="black" points="10,-409 10,-431 207,-431 207,-409 10,-409"/>
<text text-anchor="start" x="30" y="-415.55" font-family="Helvetica,sans-Serif" font-size="11.00">updated_at</text>
<polygon fill="none" stroke="black" points="207,-409 207,-431 310,-431 310,-409 207,-409"/>
<text text-anchor="start" x="210" y="-415.55" font-family="Helvetica,sans-Serif" font-size="11.00">timestamp[29,6]</text>
<polygon fill="none" stroke="black" points="10,-387 10,-409 207,-409 207,-387 10,-387"/>
<text text-anchor="start" x="30" y="-393.55" font-family="Helvetica,sans-Serif" font-size="11.00">constructor_arguments</text>
<polygon fill="none" stroke="black" points="207,-387 207,-409 310,-409 310,-387 207,-387"/>
<text text-anchor="start" x="210" y="-393.55" font-family="Helvetica,sans-Serif" font-size="11.00">text[2147483647]</text>
<polygon fill="none" stroke="black" points="10,-365 10,-387 207,-387 207,-365 10,-365"/>
<text text-anchor="start" x="30" y="-371.55" font-family="Helvetica,sans-Serif" font-size="11.00">optimization_runs</text>
<polygon fill="none" stroke="black" points="207,-365 207,-387 310,-387 310,-365 207,-365"/>
<text text-anchor="start" x="210" y="-371.55" font-family="Helvetica,sans-Serif" font-size="11.00">int8[19]</text>
<polygon fill="none" stroke="black" points="10,-343 10,-365 207,-365 207,-343 10,-343"/>
<text text-anchor="start" x="30" y="-349.55" font-family="Helvetica,sans-Serif" font-size="11.00">evm_version</text>
<polygon fill="none" stroke="black" points="207,-343 207,-365 310,-365 310,-343 207,-343"/>
<text text-anchor="start" x="210" y="-349.55" font-family="Helvetica,sans-Serif" font-size="11.00">varchar[255]</text>
<polygon fill="none" stroke="black" points="10,-321 10,-343 207,-343 207,-321 10,-321"/>
<text text-anchor="start" x="30" y="-327.55" font-family="Helvetica,sans-Serif" font-size="11.00">external_libraries</text>
<polygon fill="none" stroke="black" points="207,-321 207,-343 310,-343 310,-321 207,-321"/>
<text text-anchor="start" x="209.75" y="-327.55" font-family="Helvetica,sans-Serif" font-size="11.00">_jsonb[2147483647]</text>
<polygon fill="none" stroke="black" points="10,-299 10,-321 207,-321 207,-299 10,-299"/>
<text text-anchor="start" x="30" y="-305.55" font-family="Helvetica,sans-Serif" font-size="11.00">verified_via_sourcify</text>
<polygon fill="none" stroke="black" points="207,-299 207,-321 310,-321 310,-299 207,-299"/>
<text text-anchor="start" x="210" y="-305.55" font-family="Helvetica,sans-Serif" font-size="11.00">bool[1]</text>
<polygon fill="none" stroke="black" points="10,-277 10,-299 207,-299 207,-277 10,-277"/>
<text text-anchor="start" x="30" y="-283.55" font-family="Helvetica,sans-Serif" font-size="11.00">is_vyper_contract</text>
<polygon fill="none" stroke="black" points="207,-277 207,-299 310,-299 310,-277 207,-277"/>
<text text-anchor="start" x="210" y="-283.55" font-family="Helvetica,sans-Serif" font-size="11.00">bool[1]</text>
<polygon fill="none" stroke="black" points="10,-255 10,-277 207,-277 207,-255 10,-255"/>
<text text-anchor="start" x="30" y="-261.55" font-family="Helvetica,sans-Serif" font-size="11.00">partially_verified</text>
<polygon fill="none" stroke="black" points="207,-255 207,-277 310,-277 310,-255 207,-255"/>
<text text-anchor="start" x="210" y="-261.55" font-family="Helvetica,sans-Serif" font-size="11.00">bool[1]</text>
<polygon fill="none" stroke="black" points="10,-233 10,-255 207,-255 207,-233 10,-233"/>
<text text-anchor="start" x="30" y="-239.55" font-family="Helvetica,sans-Serif" font-size="11.00">file_path</text>
<polygon fill="none" stroke="black" points="207,-233 207,-255 310,-255 310,-233 207,-233"/>
<text text-anchor="start" x="210" y="-239.55" font-family="Helvetica,sans-Serif" font-size="11.00">text[2147483647]</text>
<polygon fill="none" stroke="black" points="10,-211 10,-233 207,-233 207,-211 10,-211"/>
<text text-anchor="start" x="30" y="-217.55" font-family="Helvetica,sans-Serif" font-size="11.00">is_changed_bytecode</text>
<polygon fill="none" stroke="black" points="207,-211 207,-233 310,-233 310,-211 207,-211"/>
<text text-anchor="start" x="210" y="-217.55" font-family="Helvetica,sans-Serif" font-size="11.00">bool[1]</text>
<polygon fill="none" stroke="black" points="10,-189 10,-211 207,-211 207,-189 10,-189"/>
<text text-anchor="start" x="30" y="-195.55" font-family="Helvetica,sans-Serif" font-size="11.00">bytecode_checked_at</text>
<polygon fill="none" stroke="black" points="207,-189 207,-211 310,-211 310,-189 207,-189"/>
<text text-anchor="start" x="210" y="-195.55" font-family="Helvetica,sans-Serif" font-size="11.00">timestamp[29,6]</text>
<polygon fill="#ffffff" stroke="none" points="10,-167 10,-189 207,-189 207,-167 10,-167"/>
<polygon fill="none" stroke="black" points="10,-167 10,-189 207,-189 207,-167 10,-167"/>
<text text-anchor="start" x="30" y="-173.55" font-family="Helvetica,sans-Serif" font-size="11.00">contract_code_md5</text>
<polygon fill="none" stroke="black" points="207,-167 207,-189 310,-189 310,-167 207,-167"/>
<text text-anchor="start" x="210" y="-173.55" font-family="Helvetica,sans-Serif" font-size="11.00">varchar[255]</text>
<polygon fill="none" stroke="black" points="10,-145 10,-167 207,-167 207,-145 10,-145"/>
<text text-anchor="start" x="30" y="-151.55" font-family="Helvetica,sans-Serif" font-size="11.00">implementation_name</text>
<polygon fill="none" stroke="black" points="207,-145 207,-167 310,-167 310,-145 207,-145"/>
<text text-anchor="start" x="210" y="-151.55" font-family="Helvetica,sans-Serif" font-size="11.00">varchar[255]</text>
<polygon fill="none" stroke="black" points="10,-123 10,-145 207,-145 207,-123 10,-123"/>
<text text-anchor="start" x="30" y="-129.55" font-family="Helvetica,sans-Serif" font-size="11.00">implementation_address_hash</text>
<polygon fill="none" stroke="black" points="207,-123 207,-145 310,-145 310,-123 207,-123"/>
<text text-anchor="start" x="210" y="-129.55" font-family="Helvetica,sans-Serif" font-size="11.00">bytea[2147483647]</text>
<polygon fill="none" stroke="black" points="10,-101 10,-123 207,-123 207,-101 10,-101"/>
<text text-anchor="start" x="30" y="-107.55" font-family="Helvetica,sans-Serif" font-size="11.00">implementation_fetched_at</text>
<polygon fill="none" stroke="black" points="207,-101 207,-123 310,-123 310,-101 207,-101"/>
<text text-anchor="start" x="210" y="-107.55" font-family="Helvetica,sans-Serif" font-size="11.00">timestamp[29,6]</text>
<polygon fill="none" stroke="black" points="10,-79 10,-101 207,-101 207,-79 10,-79"/>
<text text-anchor="start" x="30" y="-85.55" font-family="Helvetica,sans-Serif" font-size="11.00">compiler_settings</text>
<polygon fill="none" stroke="black" points="207,-79 207,-101 310,-101 310,-79 207,-79"/>
<text text-anchor="start" x="210" y="-85.55" font-family="Helvetica,sans-Serif" font-size="11.00">jsonb[2147483647]</text>
<polygon fill="none" stroke="black" points="10,-57 10,-79 207,-79 207,-57 10,-57"/>
<text text-anchor="start" x="30" y="-63.55" font-family="Helvetica,sans-Serif" font-size="11.00">verified_via_eth_bytecode_db</text>
<polygon fill="none" stroke="black" points="207,-57 207,-79 310,-79 310,-57 207,-57"/>
<text text-anchor="start" x="210" y="-63.55" font-family="Helvetica,sans-Serif" font-size="11.00">bool[1]</text>
<polygon fill="#ffffff" stroke="none" points="10,-39 10,-57 113,-57 113,-39 10,-39"/>
<polygon fill="none" stroke="black" points="10,-39 10,-57 113,-57 113,-39 10,-39"/>
<text text-anchor="start" x="13" y="-43.55" font-family="Helvetica,sans-Serif" font-size="11.00">&lt; 0</text>
<polygon fill="#ffffff" stroke="none" points="113,-39 113,-57 207,-57 207,-39 113,-39"/>
<polygon fill="none" stroke="black" points="113,-39 113,-57 207,-57 207,-39 113,-39"/>
<text text-anchor="start" x="198" y="-43.55" font-family="Helvetica,sans-Serif" font-size="11.00"> &#160;</text>
<polygon fill="#ffffff" stroke="none" points="207,-39 207,-57 310,-57 310,-39 207,-39"/>
<polygon fill="none" stroke="black" points="207,-39 207,-57 310,-57 310,-39 207,-39"/>
<text text-anchor="start" x="291.25" y="-43.55" font-family="Helvetica,sans-Serif" font-size="11.00">3 &gt;</text>
<polygon fill="none" stroke="black" stroke-width="2" points="9,-38 9,-630 311,-630 311,-38 9,-38"/>
</a>
</g>
</g>
<!-- proxy_smart_contract_verification_statuses&#45;&gt;smart_contracts -->
<g id="edge1" class="edge">
<title>proxy_smart_contract_verification_statuses:w&#45;&gt;smart_contracts:e</title>
<path fill="none" stroke="black" d="M344.47,-582.91C314.31,-561.57 363.34,-464 311,-464"/>
<polygon fill="black" stroke="black" points="351.46,-584.81 358.23,-590.39 355.64,-585.95 358.85,-586.82 358.85,-586.82 358.85,-586.82 355.64,-585.95 360.12,-583.44 351.46,-584.81"/>
<ellipse fill="none" stroke="black" cx="346.71" cy="-583.52" rx="3.2" ry="3.2"/>
</g>
<!-- smart_contract_audit_reports -->
<g id="node3" class="node">
<title>smart_contract_audit_reports</title>
<g id="a_node3"><a xlink:href="../../tables/smart_contract_audit_reports.html" xlink:title="smart_contract_audit_reports" target="_top">
<polygon fill="#ffffff" stroke="none" points="402,-351 402,-519 611,-519 611,-351 402,-351"/>
<polygon fill="#f5f5f5" stroke="none" points="402,-497 402,-519 611,-519 611,-497 402,-497"/>
<polygon fill="none" stroke="black" points="402,-497 402,-519 611,-519 611,-497 402,-497"/>
<text text-anchor="start" x="407" y="-504.55" font-family="Helvetica,sans-Serif" font-weight="bold" font-size="11.00">smart_contract_audit_reports</text>
<text text-anchor="start" x="577" y="-503.55" font-family="Helvetica,sans-Serif" font-size="11.00">[table]</text>
<polygon fill="none" stroke="black" points="402,-475 402,-497 611,-497 611,-475 402,-475"/>
<image xlink:href="../../images/primaryKeys.png" width="11px" height="12px" preserveAspectRatio="xMinYMin meet" x="407" y="-492"/>
<text text-anchor="start" x="431" y="-481.55" font-family="Helvetica,sans-Serif" font-size="11.00">id</text>
<polygon fill="#ffffff" stroke="none" points="402,-453 402,-475 611,-475 611,-453 402,-453"/>
<polygon fill="none" stroke="black" points="402,-453 402,-475 611,-475 611,-453 402,-453"/>
<image xlink:href="../../images/foreignKeys.png" width="11px" height="12px" preserveAspectRatio="xMinYMin meet" x="407" y="-470"/>
<text text-anchor="start" x="431" y="-459.55" font-family="Helvetica,sans-Serif" font-size="11.00">address_hash</text>
<polygon fill="#ffffff" stroke="none" points="402,-431 402,-453 611,-453 611,-431 402,-431"/>
<polygon fill="none" stroke="black" points="402,-431 402,-453 611,-453 611,-431 402,-431"/>
<text text-anchor="start" x="431" y="-437.55" font-family="Helvetica,sans-Serif" font-size="11.00">audit_company_name</text>
<polygon fill="#ffffff" stroke="none" points="402,-409 402,-431 611,-431 611,-409 402,-409"/>
<polygon fill="none" stroke="black" points="402,-409 402,-431 611,-431 611,-409 402,-409"/>
<text text-anchor="start" x="431" y="-415.55" font-family="Helvetica,sans-Serif" font-size="11.00">audit_report_url</text>
<polygon fill="#ffffff" stroke="none" points="402,-387 402,-409 611,-409 611,-387 402,-387"/>
<polygon fill="none" stroke="black" points="402,-387 402,-409 611,-409 611,-387 402,-387"/>
<text text-anchor="start" x="431" y="-393.55" font-family="Helvetica,sans-Serif" font-size="11.00">audit_publish_date</text>
<polygon fill="none" stroke="black" points="402,-369 402,-387 611,-387 611,-369 402,-369"/>
<text text-anchor="start" x="405" y="-373.55" font-family="Helvetica,sans-Serif" font-size="11.00">...</text>
<polygon fill="#ffffff" stroke="none" points="402,-351 402,-369 505,-369 505,-351 402,-351"/>
<polygon fill="none" stroke="black" points="402,-351 402,-369 505,-369 505,-351 402,-351"/>
<text text-anchor="start" x="405" y="-355.55" font-family="Helvetica,sans-Serif" font-size="11.00">&lt; 1</text>
<polygon fill="#ffffff" stroke="none" points="505,-351 505,-369 558,-369 558,-351 505,-351"/>
<polygon fill="none" stroke="black" points="505,-351 505,-369 558,-369 558,-351 505,-351"/>
<text text-anchor="start" x="549" y="-355.55" font-family="Helvetica,sans-Serif" font-size="11.00"> &#160;</text>
<polygon fill="#ffffff" stroke="none" points="558,-351 558,-369 611,-369 611,-351 558,-351"/>
<polygon fill="none" stroke="black" points="558,-351 558,-369 611,-369 611,-351 558,-351"/>
<text text-anchor="start" x="602" y="-355.55" font-family="Helvetica,sans-Serif" font-size="11.00"> &#160;</text>
</a>
</g>
</g>
<!-- smart_contract_audit_reports&#45;&gt;smart_contracts -->
<g id="edge2" class="edge">
<title>smart_contract_audit_reports:w&#45;&gt;smart_contracts:e</title>
<path fill="none" stroke="black" d="M384.94,-464C357.22,-464 345.03,-464 311,-464"/>
<polygon fill="black" stroke="black" points="392.17,-464 400.17,-467.6 396.5,-464 399.83,-464 399.83,-464 399.83,-464 396.5,-464 400.17,-460.4 392.17,-464"/>
<ellipse fill="none" stroke="black" cx="387.25" cy="-464" rx="3.2" ry="3.2"/>
</g>
<!-- smart_contracts_additional_sources -->
<g id="node4" class="node">
<title>smart_contracts_additional_sources</title>
<g id="a_node4"><a xlink:href="../../tables/smart_contracts_additional_sources.html" xlink:title="smart_contracts_additional_sources" target="_top">
<polygon fill="#ffffff" stroke="none" points="382.5,-228 382.5,-330 630.5,-330 630.5,-228 382.5,-228"/>
<polygon fill="#f5f5f5" stroke="none" points="382.5,-308 382.5,-330 630.5,-330 630.5,-308 382.5,-308"/>
<polygon fill="none" stroke="black" points="382.5,-308 382.5,-330 630.5,-330 630.5,-308 382.5,-308"/>
<text text-anchor="start" x="387.5" y="-315.55" font-family="Helvetica,sans-Serif" font-weight="bold" font-size="11.00">smart_contracts_additional_sources</text>
<text text-anchor="start" x="596.5" y="-314.55" font-family="Helvetica,sans-Serif" font-size="11.00">[table]</text>
<polygon fill="none" stroke="black" points="382.5,-286 382.5,-308 630.5,-308 630.5,-286 382.5,-286"/>
<image xlink:href="../../images/primaryKeys.png" width="11px" height="12px" preserveAspectRatio="xMinYMin meet" x="387.5" y="-303"/>
<text text-anchor="start" x="411.5" y="-292.55" font-family="Helvetica,sans-Serif" font-size="11.00">id</text>
<polygon fill="#ffffff" stroke="none" points="382.5,-264 382.5,-286 630.5,-286 630.5,-264 382.5,-264"/>
<polygon fill="none" stroke="black" points="382.5,-264 382.5,-286 630.5,-286 630.5,-264 382.5,-264"/>
<image xlink:href="../../images/foreignKeys.png" width="11px" height="12px" preserveAspectRatio="xMinYMin meet" x="387.5" y="-281"/>
<text text-anchor="start" x="411.5" y="-270.55" font-family="Helvetica,sans-Serif" font-size="11.00">address_hash</text>
<polygon fill="none" stroke="black" points="382.5,-246 382.5,-264 630.5,-264 630.5,-246 382.5,-246"/>
<text text-anchor="start" x="385.5" y="-250.55" font-family="Helvetica,sans-Serif" font-size="11.00">...</text>
<polygon fill="#ffffff" stroke="none" points="382.5,-228 382.5,-246 504.5,-246 504.5,-228 382.5,-228"/>
<polygon fill="none" stroke="black" points="382.5,-228 382.5,-246 504.5,-246 504.5,-228 382.5,-228"/>
<text text-anchor="start" x="385.5" y="-232.55" font-family="Helvetica,sans-Serif" font-size="11.00">&lt; 1</text>
<polygon fill="#ffffff" stroke="none" points="504.5,-228 504.5,-246 567.5,-246 567.5,-228 504.5,-228"/>
<polygon fill="none" stroke="black" points="504.5,-228 504.5,-246 567.5,-246 567.5,-228 504.5,-228"/>
<text text-anchor="start" x="558.5" y="-232.55" font-family="Helvetica,sans-Serif" font-size="11.00"> &#160;</text>
<polygon fill="#ffffff" stroke="none" points="567.5,-228 567.5,-246 630.5,-246 630.5,-228 567.5,-228"/>
<polygon fill="none" stroke="black" points="567.5,-228 567.5,-246 630.5,-246 630.5,-228 567.5,-228"/>
<text text-anchor="start" x="621.5" y="-232.55" font-family="Helvetica,sans-Serif" font-size="11.00"> &#160;</text>
</a>
</g>
</g>
<!-- smart_contracts_additional_sources&#45;&gt;smart_contracts -->
<g id="edge3" class="edge">
<title>smart_contracts_additional_sources:w&#45;&gt;smart_contracts:e</title>
<path fill="none" stroke="black" d="M366.15,-277.39C305.42,-299.27 394.7,-464 311,-464"/>
<polygon fill="black" stroke="black" points="373.26,-276.28 381.72,-278.61 377.55,-275.62 380.84,-275.1 380.84,-275.1 380.84,-275.1 377.55,-275.62 380.62,-271.49 373.26,-276.28"/>
<ellipse fill="none" stroke="black" cx="368.4" cy="-277.04" rx="3.2" ry="3.2"/>
</g>
</g>
</svg>
