<?xml version="1.0" encoding="UTF-8" standalone="no"?>
<!DOCTYPE svg PUBLIC "-//W3C//DTD SVG 1.1//EN"
 "http://www.w3.org/Graphics/SVG/1.1/DTD/svg11.dtd">
<!-- Generated by graphviz version 9.0.0 (20230911.1827)
 -->
<!-- Title: twoDegreesRelationshipsDiagram Pages: 1 -->
<svg width="602pt" height="383pt"
 viewBox="0.00 0.00 602.00 383.00" xmlns="http://www.w3.org/2000/svg" xmlns:xlink="http://www.w3.org/1999/xlink">
<g id="graph0" class="graph" transform="scale(1 1) rotate(0) translate(4 379)">
<title>twoDegreesRelationshipsDiagram</title>
<polygon fill="#ffffff" stroke="none" points="-4,4 -4,-379 598,-379 598,4 -4,4"/>
<text text-anchor="middle" x="71.38" y="-5.55" font-family="Helvetica,sans-Serif" font-size="11.00">Generated by SchemaSpy</text>
<!-- proxy_smart_contract_verification_statuses -->
<g id="node1" class="node">
<title>proxy_smart_contract_verification_statuses</title>
<g id="a_node1"><a xlink:href="../../tables/proxy_smart_contract_verificati_d48f8abe.html" xlink:title="proxy_smart_contract_verification_statuses" target="_top">
<polygon fill="#ffffff" stroke="none" points="274.5,-313 274.5,-371 565.5,-371 565.5,-313 274.5,-313"/>
<polygon fill="#f5f5f5" stroke="none" points="274.5,-349 274.5,-371 565.5,-371 565.5,-349 274.5,-349"/>
<polygon fill="none" stroke="black" points="274.5,-349 274.5,-371 565.5,-371 565.5,-349 274.5,-349"/>
<text text-anchor="start" x="279.5" y="-356.55" font-family="Helvetica,sans-Serif" font-weight="bold" font-size="11.00">proxy_smart_contract_verification_statuses</text>
<text text-anchor="start" x="531.5" y="-355.55" font-family="Helvetica,sans-Serif" font-size="11.00">[table]</text>
<polygon fill="none" stroke="black" points="274.5,-331 274.5,-349 565.5,-349 565.5,-331 274.5,-331"/>
<text text-anchor="start" x="277.5" y="-335.55" font-family="Helvetica,sans-Serif" font-size="11.00">...</text>
<polygon fill="#ffffff" stroke="none" points="274.5,-313 274.5,-331 418.5,-331 418.5,-313 274.5,-313"/>
<polygon fill="none" stroke="black" points="274.5,-313 274.5,-331 418.5,-331 418.5,-313 274.5,-313"/>
<text text-anchor="start" x="277.5" y="-317.55" font-family="Helvetica,sans-Serif" font-size="11.00">&lt; 1</text>
<polygon fill="#ffffff" stroke="none" points="418.5,-313 418.5,-331 491.5,-331 491.5,-313 418.5,-313"/>
<polygon fill="none" stroke="black" points="418.5,-313 418.5,-331 491.5,-331 491.5,-313 418.5,-313"/>
<text text-anchor="start" x="482.5" y="-317.55" font-family="Helvetica,sans-Serif" font-size="11.00"> &#160;</text>
<polygon fill="#ffffff" stroke="none" points="491.5,-313 491.5,-331 565.5,-331 565.5,-313 491.5,-313"/>
<polygon fill="none" stroke="black" points="491.5,-313 491.5,-331 565.5,-331 565.5,-313 491.5,-313"/>
<text text-anchor="start" x="556.5" y="-317.55" font-family="Helvetica,sans-Serif" font-size="11.00"> &#160;</text>
</a>
</g>
</g>
<!-- smart_contracts -->
<g id="node2" class="node">
<title>smart_contracts</title>
<g id="a_node2"><a xlink:href="../../tables/smart_contracts.html" xlink:title="smart_contracts" target="_top">
<polygon fill="#ffffff" stroke="none" points="8,-192 8,-316 205,-316 205,-192 8,-192"/>
<polygon fill="#f5f5f5" stroke="none" points="8,-294 8,-316 205,-316 205,-294 8,-294"/>
<polygon fill="none" stroke="black" points="8,-294 8,-316 205,-316 205,-294 8,-294"/>
<text text-anchor="start" x="13" y="-301.55" font-family="Helvetica,sans-Serif" font-weight="bold" font-size="11.00">smart_contracts</text>
<text text-anchor="start" x="170.75" y="-300.55" font-family="Helvetica,sans-Serif" font-size="11.00">[table]</text>
<polygon fill="none" stroke="black" points="8,-272 8,-294 205,-294 205,-272 8,-272"/>
<image xlink:href="../../images/primaryKeys.png" width="11px" height="12px" preserveAspectRatio="xMinYMin meet" x="13" y="-289"/>
<text text-anchor="start" x="28" y="-278.55" font-family="Helvetica,sans-Serif" font-size="11.00">id</text>
<polygon fill="#ffffff" stroke="none" points="8,-250 8,-272 205,-272 205,-250 8,-250"/>
<polygon fill="none" stroke="black" points="8,-250 8,-272 205,-272 205,-250 8,-250"/>
<text text-anchor="start" x="28" y="-256.55" font-family="Helvetica,sans-Serif" font-size="11.00">address_hash</text>
<polygon fill="#ffffff" stroke="none" points="8,-228 8,-250 205,-250 205,-228 8,-228"/>
<polygon fill="none" stroke="black" points="8,-228 8,-250 205,-250 205,-228 8,-228"/>
<text text-anchor="start" x="28" y="-234.55" font-family="Helvetica,sans-Serif" font-size="11.00">contract_code_md5</text>
<polygon fill="none" stroke="black" points="8,-210 8,-228 205,-228 205,-210 8,-210"/>
<text text-anchor="start" x="11" y="-214.55" font-family="Helvetica,sans-Serif" font-size="11.00">...</text>
<polygon fill="#ffffff" stroke="none" points="8,-192 8,-210 96,-210 96,-192 8,-192"/>
<polygon fill="none" stroke="black" points="8,-192 8,-210 96,-210 96,-192 8,-192"/>
<text text-anchor="start" x="11" y="-196.55" font-family="Helvetica,sans-Serif" font-size="11.00"> &#160;</text>
<polygon fill="#ffffff" stroke="none" points="96,-192 96,-210 146,-210 146,-192 96,-192"/>
<polygon fill="none" stroke="black" points="96,-192 96,-210 146,-210 146,-192 96,-192"/>
<text text-anchor="start" x="137" y="-196.55" font-family="Helvetica,sans-Serif" font-size="11.00"> &#160;</text>
<polygon fill="#ffffff" stroke="none" points="146,-192 146,-210 205,-210 205,-192 146,-192"/>
<polygon fill="none" stroke="black" points="146,-192 146,-210 205,-210 205,-192 146,-192"/>
<text text-anchor="start" x="186.25" y="-196.55" font-family="Helvetica,sans-Serif" font-size="11.00">3 &gt;</text>
</a>
</g>
</g>
<!-- proxy_smart_contract_verification_statuses&#45;&gt;smart_contracts -->
<g id="edge1" class="edge">
<title>proxy_smart_contract_verification_statuses:w&#45;&gt;smart_contracts:e</title>
<path fill="none" stroke="black" d="M257.8,-335.97C232.69,-319.88 246.12,-261 206.5,-261"/>
<polygon fill="black" stroke="black" points="264.94,-337.87 271.75,-343.39 269.13,-338.98 272.35,-339.83 272.35,-339.83 272.35,-339.83 269.13,-338.98 273.6,-336.43 264.94,-337.87"/>
<ellipse fill="none" stroke="black" cx="260.19" cy="-336.61" rx="3.2" ry="3.2"/>
</g>
<!-- smart_contract_audit_reports -->
<g id="node3" class="node">
<title>smart_contract_audit_reports</title>
<g id="a_node3"><a xlink:href="../../tables/smart_contract_audit_reports.html" xlink:title="smart_contract_audit_reports" target="_top">
<polygon fill="#ffffff" stroke="none" points="315.5,-234 315.5,-292 524.5,-292 524.5,-234 315.5,-234"/>
<polygon fill="#f5f5f5" stroke="none" points="315.5,-270 315.5,-292 524.5,-292 524.5,-270 315.5,-270"/>
<polygon fill="none" stroke="black" points="315.5,-270 315.5,-292 524.5,-292 524.5,-270 315.5,-270"/>
<text text-anchor="start" x="320.5" y="-277.55" font-family="Helvetica,sans-Serif" font-weight="bold" font-size="11.00">smart_contract_audit_reports</text>
<text text-anchor="start" x="490.5" y="-276.55" font-family="Helvetica,sans-Serif" font-size="11.00">[table]</text>
<polygon fill="none" stroke="black" points="315.5,-252 315.5,-270 524.5,-270 524.5,-252 315.5,-252"/>
<text text-anchor="start" x="318.5" y="-256.55" font-family="Helvetica,sans-Serif" font-size="11.00">...</text>
<polygon fill="#ffffff" stroke="none" points="315.5,-234 315.5,-252 418.5,-252 418.5,-234 315.5,-234"/>
<polygon fill="none" stroke="black" points="315.5,-234 315.5,-252 418.5,-252 418.5,-234 315.5,-234"/>
<text text-anchor="start" x="318.5" y="-238.55" font-family="Helvetica,sans-Serif" font-size="11.00">&lt; 1</text>
<polygon fill="#ffffff" stroke="none" points="418.5,-234 418.5,-252 471.5,-252 471.5,-234 418.5,-234"/>
<polygon fill="none" stroke="black" points="418.5,-234 418.5,-252 471.5,-252 471.5,-234 418.5,-234"/>
<text text-anchor="start" x="462.5" y="-238.55" font-family="Helvetica,sans-Serif" font-size="11.00"> &#160;</text>
<polygon fill="#ffffff" stroke="none" points="471.5,-234 471.5,-252 524.5,-252 524.5,-234 471.5,-234"/>
<polygon fill="none" stroke="black" points="471.5,-234 471.5,-252 524.5,-252 524.5,-234 471.5,-234"/>
<text text-anchor="start" x="515.5" y="-238.55" font-family="Helvetica,sans-Serif" font-size="11.00"> &#160;</text>
</a>
</g>
</g>
<!-- smart_contract_audit_reports&#45;&gt;smart_contracts -->
<g id="edge2" class="edge">
<title>smart_contract_audit_reports:w&#45;&gt;smart_contracts:e</title>
<path fill="none" stroke="black" d="M298.56,-261C262.93,-261 248.68,-261 206.5,-261"/>
<polygon fill="black" stroke="black" points="305.67,-261 313.67,-264.6 310,-261 313.33,-261 313.33,-261 313.33,-261 310,-261 313.67,-257.4 305.67,-261"/>
<ellipse fill="none" stroke="black" cx="300.75" cy="-261" rx="3.2" ry="3.2"/>
</g>
<!-- smart_contracts_additional_sources -->
<g id="node4" class="node">
<title>smart_contracts_additional_sources</title>
<g id="a_node4"><a xlink:href="../../tables/smart_contracts_additional_sources.html" xlink:title="smart_contracts_additional_sources" target="_top">
<polygon fill="#ffffff" stroke="none" points="254,-37 254,-213 586,-213 586,-37 254,-37"/>
<polygon fill="#f5f5f5" stroke="none" points="256,-189 256,-211 584,-211 584,-189 256,-189"/>
<polygon fill="none" stroke="black" points="256,-189 256,-211 584,-211 584,-189 256,-189"/>
<text text-anchor="start" x="261" y="-196.55" font-family="Helvetica,sans-Serif" font-weight="bold" font-size="11.00">smart_contracts_additional_sources</text>
<text text-anchor="start" x="549.75" y="-195.55" font-family="Helvetica,sans-Serif" font-size="11.00">[table]</text>
<polygon fill="none" stroke="black" points="256,-167 256,-189 486,-189 486,-167 256,-167"/>
<image xlink:href="../../images/primaryKeys.png" width="11px" height="12px" preserveAspectRatio="xMinYMin meet" x="261" y="-184"/>
<text text-anchor="start" x="276" y="-173.55" font-family="Helvetica,sans-Serif" font-size="11.00">id</text>
<polygon fill="none" stroke="black" points="486,-167 486,-189 584,-189 584,-167 486,-167"/>
<text text-anchor="start" x="489" y="-173.55" font-family="Helvetica,sans-Serif" font-size="11.00">bigserial[19]</text>
<polygon fill="none" stroke="black" points="256,-145 256,-167 486,-167 486,-145 256,-145"/>
<text text-anchor="start" x="276" y="-151.55" font-family="Helvetica,sans-Serif" font-size="11.00">file_name</text>
<polygon fill="none" stroke="black" points="486,-145 486,-167 584,-167 584,-145 486,-145"/>
<text text-anchor="start" x="489" y="-151.55" font-family="Helvetica,sans-Serif" font-size="11.00">varchar[255]</text>
<polygon fill="none" stroke="black" points="256,-123 256,-145 486,-145 486,-123 256,-123"/>
<text text-anchor="start" x="276" y="-129.55" font-family="Helvetica,sans-Serif" font-size="11.00">contract_source_code</text>
<polygon fill="none" stroke="black" points="486,-123 486,-145 584,-145 584,-123 486,-123"/>
<text text-anchor="start" x="489" y="-129.55" font-family="Helvetica,sans-Serif" font-size="11.00">text[2147483647]</text>
<polygon fill="#ffffff" stroke="none" points="256,-101 256,-123 486,-123 486,-101 256,-101"/>
<polygon fill="none" stroke="black" points="256,-101 256,-123 486,-123 486,-101 256,-101"/>
<image xlink:href="../../images/foreignKeys.png" width="11px" height="12px" preserveAspectRatio="xMinYMin meet" x="261" y="-118"/>
<text text-anchor="start" x="276" y="-107.55" font-family="Helvetica,sans-Serif" font-size="11.00">address_hash</text>
<polygon fill="none" stroke="black" points="486,-101 486,-123 584,-123 584,-101 486,-101"/>
<text text-anchor="start" x="488.88" y="-107.55" font-family="Helvetica,sans-Serif" font-size="11.00">bytea[2147483647]</text>
<polygon fill="none" stroke="black" points="256,-79 256,-101 486,-101 486,-79 256,-79"/>
<text text-anchor="start" x="276" y="-85.55" font-family="Helvetica,sans-Serif" font-size="11.00">inserted_at</text>
<polygon fill="none" stroke="black" points="486,-79 486,-101 584,-101 584,-79 486,-79"/>
<text text-anchor="start" x="489" y="-85.55" font-family="Helvetica,sans-Serif" font-size="11.00">timestamp[29,6]</text>
<polygon fill="none" stroke="black" points="256,-57 256,-79 486,-79 486,-57 256,-57"/>
<text text-anchor="start" x="276" y="-63.55" font-family="Helvetica,sans-Serif" font-size="11.00">updated_at</text>
<polygon fill="none" stroke="black" points="486,-57 486,-79 584,-79 584,-57 486,-57"/>
<text text-anchor="start" x="489" y="-63.55" font-family="Helvetica,sans-Serif" font-size="11.00">timestamp[29,6]</text>
<polygon fill="#ffffff" stroke="none" points="256,-39 256,-57 375,-57 375,-39 256,-39"/>
<polygon fill="none" stroke="black" points="256,-39 256,-57 375,-57 375,-39 256,-39"/>
<text text-anchor="start" x="259" y="-43.55" font-family="Helvetica,sans-Serif" font-size="11.00">&lt; 1</text>
<polygon fill="#ffffff" stroke="none" points="375,-39 375,-57 486,-57 486,-39 375,-39"/>
<polygon fill="none" stroke="black" points="375,-39 375,-57 486,-57 486,-39 375,-39"/>
<text text-anchor="start" x="477" y="-43.55" font-family="Helvetica,sans-Serif" font-size="11.00"> &#160;</text>
<polygon fill="#ffffff" stroke="none" points="486,-39 486,-57 584,-57 584,-39 486,-39"/>
<polygon fill="none" stroke="black" points="486,-39 486,-57 584,-57 584,-39 486,-39"/>
<text text-anchor="start" x="565.25" y="-43.55" font-family="Helvetica,sans-Serif" font-size="11.00">0 &gt;</text>
<polygon fill="none" stroke="black" stroke-width="2" points="255,-38 255,-212 585,-212 585,-38 255,-38"/>
</a>
</g>
</g>
<!-- smart_contracts_additional_sources&#45;&gt;smart_contracts -->
<g id="edge3" class="edge">
<title>smart_contracts_additional_sources:w&#45;&gt;smart_contracts:e</title>
<path fill="none" stroke="black" d="M239.63,-115.54C200.67,-138.1 269.75,-261 206.5,-261"/>
<polygon fill="black" stroke="black" points="246.88,-113.87 255.48,-115.58 251.1,-112.9 254.35,-112.15 254.35,-112.15 254.35,-112.15 251.1,-112.9 253.87,-108.57 246.88,-113.87"/>
<ellipse fill="none" stroke="black" cx="242.08" cy="-114.97" rx="3.2" ry="3.2"/>
</g>
</g>
</svg>
