<?xml version="1.0" encoding="UTF-8" standalone="no"?>
<!DOCTYPE svg PUBLIC "-//W3C//DTD SVG 1.1//EN"
 "http://www.w3.org/Graphics/SVG/1.1/DTD/svg11.dtd">
<!-- Generated by graphviz version 9.0.0 (20230911.1827)
 -->
<!-- Title: twoDegreesRelationshipsDiagram Pages: 1 -->
<svg width="563pt" height="581pt"
 viewBox="0.00 0.00 563.00 581.00" xmlns="http://www.w3.org/2000/svg" xmlns:xlink="http://www.w3.org/1999/xlink">
<g id="graph0" class="graph" transform="scale(1 1) rotate(0) translate(4 577)">
<title>twoDegreesRelationshipsDiagram</title>
<polygon fill="#ffffff" stroke="none" points="-4,4 -4,-577 559,-577 559,4 -4,4"/>
<text text-anchor="middle" x="71.38" y="-5.55" font-family="Helvetica,sans-Serif" font-size="11.00">Generated by SchemaSpy</text>
<!-- proxy_smart_contract_verification_statuses -->
<g id="node1" class="node">
<title>proxy_smart_contract_verification_statuses</title>
<g id="a_node1"><a xlink:href="../../tables/proxy_smart_contract_verificati_d48f8abe.html" xlink:title="proxy_smart_contract_verification_statuses" target="_top">
<polygon fill="#ffffff" stroke="none" points="255,-511 255,-569 546,-569 546,-511 255,-511"/>
<polygon fill="#f5f5f5" stroke="none" points="255,-547 255,-569 546,-569 546,-547 255,-547"/>
<polygon fill="none" stroke="black" points="255,-547 255,-569 546,-569 546,-547 255,-547"/>
<text text-anchor="start" x="260" y="-554.55" font-family="Helvetica,sans-Serif" font-weight="bold" font-size="11.00">proxy_smart_contract_verification_statuses</text>
<text text-anchor="start" x="512" y="-553.55" font-family="Helvetica,sans-Serif" font-size="11.00">[table]</text>
<polygon fill="none" stroke="black" points="255,-529 255,-547 546,-547 546,-529 255,-529"/>
<text text-anchor="start" x="258" y="-533.55" font-family="Helvetica,sans-Serif" font-size="11.00">...</text>
<polygon fill="#ffffff" stroke="none" points="255,-511 255,-529 399,-529 399,-511 255,-511"/>
<polygon fill="none" stroke="black" points="255,-511 255,-529 399,-529 399,-511 255,-511"/>
<text text-anchor="start" x="258" y="-515.55" font-family="Helvetica,sans-Serif" font-size="11.00">&lt; 1</text>
<polygon fill="#ffffff" stroke="none" points="399,-511 399,-529 472,-529 472,-511 399,-511"/>
<polygon fill="none" stroke="black" points="399,-511 399,-529 472,-529 472,-511 399,-511"/>
<text text-anchor="start" x="463" y="-515.55" font-family="Helvetica,sans-Serif" font-size="11.00"> &#160;</text>
<polygon fill="#ffffff" stroke="none" points="472,-511 472,-529 546,-529 546,-511 472,-511"/>
<polygon fill="none" stroke="black" points="472,-511 472,-529 546,-529 546,-511 472,-511"/>
<text text-anchor="start" x="537" y="-515.55" font-family="Helvetica,sans-Serif" font-size="11.00"> &#160;</text>
</a>
</g>
</g>
<!-- smart_contracts -->
<g id="node2" class="node">
<title>smart_contracts</title>
<g id="a_node2"><a xlink:href="../../tables/smart_contracts.html" xlink:title="smart_contracts" target="_top">
<polygon fill="#ffffff" stroke="none" points="8,-364 8,-488 205,-488 205,-364 8,-364"/>
<polygon fill="#f5f5f5" stroke="none" points="8,-466 8,-488 205,-488 205,-466 8,-466"/>
<polygon fill="none" stroke="black" points="8,-466 8,-488 205,-488 205,-466 8,-466"/>
<text text-anchor="start" x="13" y="-473.55" font-family="Helvetica,sans-Serif" font-weight="bold" font-size="11.00">smart_contracts</text>
<text text-anchor="start" x="170.75" y="-472.55" font-family="Helvetica,sans-Serif" font-size="11.00">[table]</text>
<polygon fill="none" stroke="black" points="8,-444 8,-466 205,-466 205,-444 8,-444"/>
<image xlink:href="../../images/primaryKeys.png" width="11px" height="12px" preserveAspectRatio="xMinYMin meet" x="13" y="-461"/>
<text text-anchor="start" x="28" y="-450.55" font-family="Helvetica,sans-Serif" font-size="11.00">id</text>
<polygon fill="#ffffff" stroke="none" points="8,-422 8,-444 205,-444 205,-422 8,-422"/>
<polygon fill="none" stroke="black" points="8,-422 8,-444 205,-444 205,-422 8,-422"/>
<text text-anchor="start" x="28" y="-428.55" font-family="Helvetica,sans-Serif" font-size="11.00">address_hash</text>
<polygon fill="#ffffff" stroke="none" points="8,-400 8,-422 205,-422 205,-400 8,-400"/>
<polygon fill="none" stroke="black" points="8,-400 8,-422 205,-422 205,-400 8,-400"/>
<text text-anchor="start" x="28" y="-406.55" font-family="Helvetica,sans-Serif" font-size="11.00">contract_code_md5</text>
<polygon fill="none" stroke="black" points="8,-382 8,-400 205,-400 205,-382 8,-382"/>
<text text-anchor="start" x="11" y="-386.55" font-family="Helvetica,sans-Serif" font-size="11.00">...</text>
<polygon fill="#ffffff" stroke="none" points="8,-364 8,-382 96,-382 96,-364 8,-364"/>
<polygon fill="none" stroke="black" points="8,-364 8,-382 96,-382 96,-364 8,-364"/>
<text text-anchor="start" x="11" y="-368.55" font-family="Helvetica,sans-Serif" font-size="11.00"> &#160;</text>
<polygon fill="#ffffff" stroke="none" points="96,-364 96,-382 146,-382 146,-364 96,-364"/>
<polygon fill="none" stroke="black" points="96,-364 96,-382 146,-382 146,-364 96,-364"/>
<text text-anchor="start" x="137" y="-368.55" font-family="Helvetica,sans-Serif" font-size="11.00"> &#160;</text>
<polygon fill="#ffffff" stroke="none" points="146,-364 146,-382 205,-382 205,-364 146,-364"/>
<polygon fill="none" stroke="black" points="146,-364 146,-382 205,-382 205,-364 146,-364"/>
<text text-anchor="start" x="186.25" y="-368.55" font-family="Helvetica,sans-Serif" font-size="11.00">3 &gt;</text>
</a>
</g>
</g>
<!-- proxy_smart_contract_verification_statuses&#45;&gt;smart_contracts -->
<g id="edge1" class="edge">
<title>proxy_smart_contract_verification_statuses:w&#45;&gt;smart_contracts:e</title>
<path fill="none" stroke="black" d="M238.58,-533.22C214.85,-512.67 251.04,-433 206.5,-433"/>
<polygon fill="black" stroke="black" points="245.56,-535.46 252.08,-541.33 249.69,-536.78 252.86,-537.8 252.86,-537.8 252.86,-537.8 249.69,-536.78 254.28,-534.47 245.56,-535.46"/>
<ellipse fill="none" stroke="black" cx="240.88" cy="-533.95" rx="3.2" ry="3.2"/>
</g>
<!-- smart_contract_audit_reports -->
<g id="node3" class="node">
<title>smart_contract_audit_reports</title>
<g id="a_node3"><a xlink:href="../../tables/smart_contract_audit_reports.html" xlink:title="smart_contract_audit_reports" target="_top">
<polygon fill="#ffffff" stroke="none" points="254,-116 254,-490 547,-490 547,-116 254,-116"/>
<polygon fill="#f5f5f5" stroke="none" points="256,-466 256,-488 545,-488 545,-466 256,-466"/>
<polygon fill="none" stroke="black" points="256,-466 256,-488 545,-488 545,-466 256,-466"/>
<text text-anchor="start" x="261" y="-473.55" font-family="Helvetica,sans-Serif" font-weight="bold" font-size="11.00">smart_contract_audit_reports</text>
<text text-anchor="start" x="510.75" y="-472.55" font-family="Helvetica,sans-Serif" font-size="11.00">[table]</text>
<polygon fill="none" stroke="black" points="256,-444 256,-466 447,-466 447,-444 256,-444"/>
<image xlink:href="../../images/primaryKeys.png" width="11px" height="12px" preserveAspectRatio="xMinYMin meet" x="261" y="-461"/>
<text text-anchor="start" x="276" y="-450.55" font-family="Helvetica,sans-Serif" font-size="11.00">id</text>
<polygon fill="none" stroke="black" points="447,-444 447,-466 545,-466 545,-444 447,-444"/>
<text text-anchor="start" x="450" y="-450.55" font-family="Helvetica,sans-Serif" font-size="11.00">bigserial[19]</text>
<polygon fill="#ffffff" stroke="none" points="256,-422 256,-444 447,-444 447,-422 256,-422"/>
<polygon fill="none" stroke="black" points="256,-422 256,-444 447,-444 447,-422 256,-422"/>
<image xlink:href="../../images/foreignKeys.png" width="11px" height="12px" preserveAspectRatio="xMinYMin meet" x="261" y="-439"/>
<text text-anchor="start" x="276" y="-428.55" font-family="Helvetica,sans-Serif" font-size="11.00">address_hash</text>
<polygon fill="none" stroke="black" points="447,-422 447,-444 545,-444 545,-422 447,-422"/>
<text text-anchor="start" x="449.88" y="-428.55" font-family="Helvetica,sans-Serif" font-size="11.00">bytea[2147483647]</text>
<polygon fill="none" stroke="black" points="256,-400 256,-422 447,-422 447,-400 256,-400"/>
<text text-anchor="start" x="276" y="-406.55" font-family="Helvetica,sans-Serif" font-size="11.00">is_approved</text>
<polygon fill="none" stroke="black" points="447,-400 447,-422 545,-422 545,-400 447,-400"/>
<text text-anchor="start" x="450" y="-406.55" font-family="Helvetica,sans-Serif" font-size="11.00">bool[1]</text>
<polygon fill="none" stroke="black" points="256,-378 256,-400 447,-400 447,-378 256,-378"/>
<text text-anchor="start" x="276" y="-384.55" font-family="Helvetica,sans-Serif" font-size="11.00">submitter_name</text>
<polygon fill="none" stroke="black" points="447,-378 447,-400 545,-400 545,-378 447,-378"/>
<text text-anchor="start" x="450" y="-384.55" font-family="Helvetica,sans-Serif" font-size="11.00">varchar[255]</text>
<polygon fill="none" stroke="black" points="256,-356 256,-378 447,-378 447,-356 256,-356"/>
<text text-anchor="start" x="276" y="-362.55" font-family="Helvetica,sans-Serif" font-size="11.00">submitter_email</text>
<polygon fill="none" stroke="black" points="447,-356 447,-378 545,-378 545,-356 447,-356"/>
<text text-anchor="start" x="450" y="-362.55" font-family="Helvetica,sans-Serif" font-size="11.00">varchar[255]</text>
<polygon fill="none" stroke="black" points="256,-334 256,-356 447,-356 447,-334 256,-334"/>
<text text-anchor="start" x="276" y="-340.55" font-family="Helvetica,sans-Serif" font-size="11.00">is_project_owner</text>
<polygon fill="none" stroke="black" points="447,-334 447,-356 545,-356 545,-334 447,-334"/>
<text text-anchor="start" x="450" y="-340.55" font-family="Helvetica,sans-Serif" font-size="11.00">bool[1]</text>
<polygon fill="none" stroke="black" points="256,-312 256,-334 447,-334 447,-312 256,-312"/>
<text text-anchor="start" x="276" y="-318.55" font-family="Helvetica,sans-Serif" font-size="11.00">project_name</text>
<polygon fill="none" stroke="black" points="447,-312 447,-334 545,-334 545,-312 447,-312"/>
<text text-anchor="start" x="450" y="-318.55" font-family="Helvetica,sans-Serif" font-size="11.00">varchar[255]</text>
<polygon fill="none" stroke="black" points="256,-290 256,-312 447,-312 447,-290 256,-290"/>
<text text-anchor="start" x="276" y="-296.55" font-family="Helvetica,sans-Serif" font-size="11.00">project_url</text>
<polygon fill="none" stroke="black" points="447,-290 447,-312 545,-312 545,-290 447,-290"/>
<text text-anchor="start" x="450" y="-296.55" font-family="Helvetica,sans-Serif" font-size="11.00">varchar[255]</text>
<polygon fill="#ffffff" stroke="none" points="256,-268 256,-290 447,-290 447,-268 256,-268"/>
<polygon fill="none" stroke="black" points="256,-268 256,-290 447,-290 447,-268 256,-268"/>
<text text-anchor="start" x="276" y="-274.55" font-family="Helvetica,sans-Serif" font-size="11.00">audit_company_name</text>
<polygon fill="none" stroke="black" points="447,-268 447,-290 545,-290 545,-268 447,-268"/>
<text text-anchor="start" x="450" y="-274.55" font-family="Helvetica,sans-Serif" font-size="11.00">varchar[255]</text>
<polygon fill="#ffffff" stroke="none" points="256,-246 256,-268 447,-268 447,-246 256,-246"/>
<polygon fill="none" stroke="black" points="256,-246 256,-268 447,-268 447,-246 256,-246"/>
<text text-anchor="start" x="276" y="-252.55" font-family="Helvetica,sans-Serif" font-size="11.00">audit_report_url</text>
<polygon fill="none" stroke="black" points="447,-246 447,-268 545,-268 545,-246 447,-246"/>
<text text-anchor="start" x="450" y="-252.55" font-family="Helvetica,sans-Serif" font-size="11.00">varchar[255]</text>
<polygon fill="#ffffff" stroke="none" points="256,-224 256,-246 447,-246 447,-224 256,-224"/>
<polygon fill="none" stroke="black" points="256,-224 256,-246 447,-246 447,-224 256,-224"/>
<text text-anchor="start" x="276" y="-230.55" font-family="Helvetica,sans-Serif" font-size="11.00">audit_publish_date</text>
<polygon fill="none" stroke="black" points="447,-224 447,-246 545,-246 545,-224 447,-224"/>
<text text-anchor="start" x="450" y="-230.55" font-family="Helvetica,sans-Serif" font-size="11.00">date[13]</text>
<polygon fill="none" stroke="black" points="256,-202 256,-224 447,-224 447,-202 256,-202"/>
<text text-anchor="start" x="276" y="-208.55" font-family="Helvetica,sans-Serif" font-size="11.00">request_id</text>
<polygon fill="none" stroke="black" points="447,-202 447,-224 545,-224 545,-202 447,-202"/>
<text text-anchor="start" x="450" y="-208.55" font-family="Helvetica,sans-Serif" font-size="11.00">varchar[255]</text>
<polygon fill="none" stroke="black" points="256,-180 256,-202 447,-202 447,-180 256,-180"/>
<text text-anchor="start" x="276" y="-186.55" font-family="Helvetica,sans-Serif" font-size="11.00">comment</text>
<polygon fill="none" stroke="black" points="447,-180 447,-202 545,-202 545,-180 447,-180"/>
<text text-anchor="start" x="450" y="-186.55" font-family="Helvetica,sans-Serif" font-size="11.00">text[2147483647]</text>
<polygon fill="none" stroke="black" points="256,-158 256,-180 447,-180 447,-158 256,-158"/>
<text text-anchor="start" x="276" y="-164.55" font-family="Helvetica,sans-Serif" font-size="11.00">inserted_at</text>
<polygon fill="none" stroke="black" points="447,-158 447,-180 545,-180 545,-158 447,-158"/>
<text text-anchor="start" x="450" y="-164.55" font-family="Helvetica,sans-Serif" font-size="11.00">timestamp[29,6]</text>
<polygon fill="none" stroke="black" points="256,-136 256,-158 447,-158 447,-136 256,-136"/>
<text text-anchor="start" x="276" y="-142.55" font-family="Helvetica,sans-Serif" font-size="11.00">updated_at</text>
<polygon fill="none" stroke="black" points="447,-136 447,-158 545,-158 545,-136 447,-136"/>
<text text-anchor="start" x="450" y="-142.55" font-family="Helvetica,sans-Serif" font-size="11.00">timestamp[29,6]</text>
<polygon fill="#ffffff" stroke="none" points="256,-118 256,-136 356,-136 356,-118 256,-118"/>
<polygon fill="none" stroke="black" points="256,-118 256,-136 356,-136 356,-118 256,-118"/>
<text text-anchor="start" x="259" y="-122.55" font-family="Helvetica,sans-Serif" font-size="11.00">&lt; 1</text>
<polygon fill="#ffffff" stroke="none" points="356,-118 356,-136 447,-136 447,-118 356,-118"/>
<polygon fill="none" stroke="black" points="356,-118 356,-136 447,-136 447,-118 356,-118"/>
<text text-anchor="start" x="438" y="-122.55" font-family="Helvetica,sans-Serif" font-size="11.00"> &#160;</text>
<polygon fill="#ffffff" stroke="none" points="447,-118 447,-136 545,-136 545,-118 447,-118"/>
<polygon fill="none" stroke="black" points="447,-118 447,-136 545,-136 545,-118 447,-118"/>
<text text-anchor="start" x="526.25" y="-122.55" font-family="Helvetica,sans-Serif" font-size="11.00">0 &gt;</text>
<polygon fill="none" stroke="black" stroke-width="2" points="255,-117 255,-489 546,-489 546,-117 255,-117"/>
</a>
</g>
</g>
<!-- smart_contract_audit_reports&#45;&gt;smart_contracts -->
<g id="edge2" class="edge">
<title>smart_contract_audit_reports:w&#45;&gt;smart_contracts:e</title>
<path fill="none" stroke="black" d="M238.89,-433C228.59,-433 221.5,-433 206.5,-433"/>
<polygon fill="black" stroke="black" points="246.17,-433 254.17,-436.6 250.5,-433 253.83,-433 253.83,-433 253.83,-433 250.5,-433 254.17,-429.4 246.17,-433"/>
<ellipse fill="none" stroke="black" cx="241.25" cy="-433" rx="3.2" ry="3.2"/>
</g>
<!-- smart_contracts_additional_sources -->
<g id="node4" class="node">
<title>smart_contracts_additional_sources</title>
<g id="a_node4"><a xlink:href="../../tables/smart_contracts_additional_sources.html" xlink:title="smart_contracts_additional_sources" target="_top">
<polygon fill="#ffffff" stroke="none" points="276.5,-37 276.5,-95 524.5,-95 524.5,-37 276.5,-37"/>
<polygon fill="#f5f5f5" stroke="none" points="276.5,-73 276.5,-95 524.5,-95 524.5,-73 276.5,-73"/>
<polygon fill="none" stroke="black" points="276.5,-73 276.5,-95 524.5,-95 524.5,-73 276.5,-73"/>
<text text-anchor="start" x="281.5" y="-80.55" font-family="Helvetica,sans-Serif" font-weight="bold" font-size="11.00">smart_contracts_additional_sources</text>
<text text-anchor="start" x="490.5" y="-79.55" font-family="Helvetica,sans-Serif" font-size="11.00">[table]</text>
<polygon fill="none" stroke="black" points="276.5,-55 276.5,-73 524.5,-73 524.5,-55 276.5,-55"/>
<text text-anchor="start" x="279.5" y="-59.55" font-family="Helvetica,sans-Serif" font-size="11.00">...</text>
<polygon fill="#ffffff" stroke="none" points="276.5,-37 276.5,-55 398.5,-55 398.5,-37 276.5,-37"/>
<polygon fill="none" stroke="black" points="276.5,-37 276.5,-55 398.5,-55 398.5,-37 276.5,-37"/>
<text text-anchor="start" x="279.5" y="-41.55" font-family="Helvetica,sans-Serif" font-size="11.00">&lt; 1</text>
<polygon fill="#ffffff" stroke="none" points="398.5,-37 398.5,-55 461.5,-55 461.5,-37 398.5,-37"/>
<polygon fill="none" stroke="black" points="398.5,-37 398.5,-55 461.5,-55 461.5,-37 398.5,-37"/>
<text text-anchor="start" x="452.5" y="-41.55" font-family="Helvetica,sans-Serif" font-size="11.00"> &#160;</text>
<polygon fill="#ffffff" stroke="none" points="461.5,-37 461.5,-55 524.5,-55 524.5,-37 461.5,-37"/>
<polygon fill="none" stroke="black" points="461.5,-37 461.5,-55 524.5,-55 524.5,-37 461.5,-37"/>
<text text-anchor="start" x="515.5" y="-41.55" font-family="Helvetica,sans-Serif" font-size="11.00"> &#160;</text>
</a>
</g>
</g>
<!-- smart_contracts_additional_sources&#45;&gt;smart_contracts -->
<g id="edge3" class="edge">
<title>smart_contracts_additional_sources:w&#45;&gt;smart_contracts:e</title>
<path fill="none" stroke="black" d="M260.82,-68.94C204.61,-112.72 284.22,-433 206.5,-433"/>
<polygon fill="black" stroke="black" points="267.6,-66.66 276.33,-67.52 271.71,-65.27 274.87,-64.21 274.87,-64.21 274.87,-64.21 271.71,-65.27 274.04,-60.69 267.6,-66.66"/>
<ellipse fill="none" stroke="black" cx="262.94" cy="-68.22" rx="3.2" ry="3.2"/>
</g>
</g>
</svg>
