<?xml version="1.0" encoding="UTF-8" standalone="no"?>
<!DOCTYPE svg PUBLIC "-//W3C//DTD SVG 1.1//EN"
 "http://www.w3.org/Graphics/SVG/1.1/DTD/svg11.dtd">
<!-- Generated by graphviz version 2.43.0 (0)
 -->
<!-- Title: twoDegreesRelationshipsDiagramImplied Pages: 1 -->
<svg width="673pt" height="590pt"
 viewBox="0.00 0.00 673.00 590.00" xmlns="http://www.w3.org/2000/svg" xmlns:xlink="http://www.w3.org/1999/xlink">
<g id="graph0" class="graph" transform="scale(1 1) rotate(0) translate(4 586)">
<title>twoDegreesRelationshipsDiagramImplied</title>
<polygon fill="#ffffff" stroke="transparent" points="-4,4 -4,-586 669,-586 669,4 -4,4"/>
<text text-anchor="middle" x="79.5" y="-7.2" font-family="Helvetica,sans-Serif" font-size="11.00">Generated by SchemaSpy</text>
<!-- token_instances -->
<g id="node1" class="node">
<title>token_instances</title>
<g id="a_node1"><a xlink:href="../../tables/token_instances.html" xlink:title="token_instances" target="_top">
<polygon fill="#ffffff" stroke="transparent" points="421,-157 421,-325 657,-325 657,-157 421,-157"/>
<polygon fill="#f5f5f5" stroke="transparent" points="421,-303 421,-325 657,-325 657,-303 421,-303"/>
<polygon fill="none" stroke="black" points="421,-303 421,-325 657,-325 657,-303 421,-303"/>
<text text-anchor="start" x="426" y="-312.2" font-family="Helvetica,sans-Serif" font-weight="bold" font-size="11.00">token_instances</text>
<text text-anchor="start" x="615" y="-311.2" font-family="Helvetica,sans-Serif" font-size="11.00">[table]</text>
<polygon fill="none" stroke="black" points="421,-281 421,-303 657,-303 657,-281 421,-281"/>
<image xlink:href="../../images/primaryKeys.png" width="11px" height="12px" preserveAspectRatio="xMinYMin meet" x="426" y="-298"/>
<text text-anchor="start" x="441" y="-289.2" font-family="Helvetica,sans-Serif" font-size="11.00">token_id</text>
<polygon fill="none" stroke="black" points="421,-259 421,-281 657,-281 657,-259 421,-259"/>
<image xlink:href="../../images/primaryKeys.png" width="11px" height="12px" preserveAspectRatio="xMinYMin meet" x="426" y="-276"/>
<text text-anchor="start" x="441" y="-267.2" font-family="Helvetica,sans-Serif" font-size="11.00">token_contract_address_hash</text>
<polygon fill="#ffffff" stroke="transparent" points="421,-237 421,-259 657,-259 657,-237 421,-237"/>
<polygon fill="none" stroke="black" points="421,-237 421,-259 657,-259 657,-237 421,-237"/>
<text text-anchor="start" x="441" y="-245.2" font-family="Helvetica,sans-Serif" font-size="11.00">error</text>
<polygon fill="#ffffff" stroke="transparent" points="421,-215 421,-237 657,-237 657,-215 421,-215"/>
<polygon fill="none" stroke="black" points="421,-215 421,-237 657,-237 657,-215 421,-215"/>
<text text-anchor="start" x="441" y="-223.2" font-family="Helvetica,sans-Serif" font-size="11.00">owner_address_hash</text>
<polygon fill="none" stroke="black" points="421,-193 421,-215 657,-215 657,-193 421,-193"/>
<image xlink:href="../../images/foreignKeys.png" width="11px" height="12px" preserveAspectRatio="xMinYMin meet" x="426" y="-210"/>
<text text-anchor="start" x="441" y="-201.2" font-family="Helvetica,sans-Serif" font-size="11.00">owner_updated_at_log_index</text>
<polygon fill="none" stroke="black" points="421,-175 421,-193 657,-193 657,-175 421,-175"/>
<text text-anchor="start" x="424" y="-181.2" font-family="Helvetica,sans-Serif" font-size="11.00">...</text>
<polygon fill="#ffffff" stroke="transparent" points="421,-157 421,-175 657,-175 657,-157 421,-157"/>
<polygon fill="none" stroke="black" points="421,-157 421,-175 657,-175 657,-157 421,-157"/>
<polygon fill="#ffffff" stroke="transparent" points="422,-158 422,-174 508,-174 508,-158 422,-158"/>
<text text-anchor="start" x="424" y="-163.2" font-family="Helvetica,sans-Serif" font-size="11.00">&lt; 2</text>
<polygon fill="#ffffff" stroke="transparent" points="508,-158 508,-174 582,-174 582,-158 508,-158"/>
<text text-anchor="start" x="541" y="-163.2" font-family="Helvetica,sans-Serif" font-size="11.00"> &#160;</text>
<polygon fill="#ffffff" stroke="transparent" points="582,-158 582,-174 656,-174 656,-158 582,-158"/>
<text text-anchor="start" x="646" y="-163.2" font-family="Helvetica,sans-Serif" font-size="11.00"> &#160;</text>
<polygon fill="black" stroke="black" points="508,-158 508,-174 508,-174 508,-158 508,-158"/>
<polygon fill="black" stroke="black" points="582,-158 582,-174 582,-174 582,-158 582,-158"/>
</a>
</g>
</g>
<!-- withdrawals -->
<g id="node2" class="node">
<title>withdrawals</title>
<g id="a_node2"><a xlink:href="../../tables/withdrawals.html" xlink:title="withdrawals" target="_top">
<polygon fill="#ffffff" stroke="transparent" points="122,-37 122,-95 258,-95 258,-37 122,-37"/>
<polygon fill="#f5f5f5" stroke="transparent" points="122,-73 122,-95 258,-95 258,-73 122,-73"/>
<polygon fill="none" stroke="black" points="122,-73 122,-95 258,-95 258,-73 122,-73"/>
<text text-anchor="start" x="127" y="-82.2" font-family="Helvetica,sans-Serif" font-weight="bold" font-size="11.00">withdrawals</text>
<text text-anchor="start" x="216" y="-81.2" font-family="Helvetica,sans-Serif" font-size="11.00">[table]</text>
<polygon fill="none" stroke="black" points="122,-55 122,-73 258,-73 258,-55 122,-55"/>
<text text-anchor="start" x="125" y="-61.2" font-family="Helvetica,sans-Serif" font-size="11.00">...</text>
<polygon fill="#ffffff" stroke="transparent" points="122,-37 122,-55 258,-55 258,-37 122,-37"/>
<polygon fill="none" stroke="black" points="122,-37 122,-55 258,-55 258,-37 122,-37"/>
<polygon fill="#ffffff" stroke="transparent" points="123,-38 123,-54 172,-54 172,-38 123,-38"/>
<text text-anchor="start" x="125" y="-43.2" font-family="Helvetica,sans-Serif" font-size="11.00">&lt; 1</text>
<polygon fill="#ffffff" stroke="transparent" points="172,-38 172,-54 209,-54 209,-38 172,-38"/>
<text text-anchor="start" x="186.5" y="-43.2" font-family="Helvetica,sans-Serif" font-size="11.00"> &#160;</text>
<polygon fill="#ffffff" stroke="transparent" points="209,-38 209,-54 257,-54 257,-38 209,-38"/>
<text text-anchor="start" x="235" y="-43.2" font-family="Helvetica,sans-Serif" font-size="11.00">5 &gt;</text>
<polygon fill="black" stroke="black" points="172,-38 172,-54 172,-54 172,-38 172,-38"/>
<polygon fill="black" stroke="black" points="209,-38 209,-54 209,-54 209,-38 209,-38"/>
</a>
</g>
</g>
<!-- token_instances&#45;&gt;withdrawals -->
<g id="edge1" class="edge">
<title>token_instances:w&#45;&gt;withdrawals:e</title>
<path fill="none" stroke="black" stroke-dasharray="5,2" d="M405.75,-200.9C382.09,-187.44 410.06,-133.38 380,-105 338.72,-66.02 315.78,-64 259,-64"/>
<polygon fill="black" stroke="black" points="412.18,-202.3 419.24,-207.52 416.09,-203.15 420,-204 420,-204 420,-204 416.09,-203.15 420.76,-200.48 412.18,-202.3 412.18,-202.3"/>
<ellipse fill="none" stroke="black" cx="409.06" cy="-201.62" rx="3.2" ry="3.2"/>
</g>
<!-- tokens -->
<g id="node3" class="node">
<title>tokens</title>
<g id="a_node3"><a xlink:href="../../tables/tokens.html" xlink:title="tokens" target="_top">
<polygon fill="#ffffff" stroke="transparent" points="8,-116 8,-578 372,-578 372,-116 8,-116"/>
<polygon fill="#f5f5f5" stroke="transparent" points="10,-554 10,-576 370,-576 370,-554 10,-554"/>
<polygon fill="none" stroke="black" points="10,-554 10,-576 370,-576 370,-554 10,-554"/>
<text text-anchor="start" x="15" y="-563.2" font-family="Helvetica,sans-Serif" font-weight="bold" font-size="11.00">tokens</text>
<text text-anchor="start" x="328" y="-562.2" font-family="Helvetica,sans-Serif" font-size="11.00">[table]</text>
<polygon fill="none" stroke="black" points="10,-532 10,-554 255,-554 255,-532 10,-532"/>
<text text-anchor="start" x="30" y="-540.2" font-family="Helvetica,sans-Serif" font-size="11.00">name</text>
<polygon fill="none" stroke="black" points="255,-532 255,-554 370,-554 370,-532 255,-532"/>
<text text-anchor="start" x="258" y="-540.2" font-family="Helvetica,sans-Serif" font-size="11.00">text[2147483647]</text>
<polygon fill="#ffffff" stroke="transparent" points="10,-510 10,-532 255,-532 255,-510 10,-510"/>
<polygon fill="none" stroke="black" points="10,-510 10,-532 255,-532 255,-510 10,-510"/>
<text text-anchor="start" x="30" y="-518.2" font-family="Helvetica,sans-Serif" font-size="11.00">symbol</text>
<polygon fill="none" stroke="black" points="255,-510 255,-532 370,-532 370,-510 255,-510"/>
<text text-anchor="start" x="258" y="-518.2" font-family="Helvetica,sans-Serif" font-size="11.00">text[2147483647]</text>
<polygon fill="none" stroke="black" points="10,-488 10,-510 255,-510 255,-488 10,-488"/>
<text text-anchor="start" x="30" y="-496.2" font-family="Helvetica,sans-Serif" font-size="11.00">total_supply</text>
<polygon fill="none" stroke="black" points="255,-488 255,-510 370,-510 370,-488 255,-488"/>
<text text-anchor="start" x="258" y="-496.2" font-family="Helvetica,sans-Serif" font-size="11.00">numeric[0]</text>
<polygon fill="none" stroke="black" points="10,-466 10,-488 255,-488 255,-466 10,-466"/>
<text text-anchor="start" x="30" y="-474.2" font-family="Helvetica,sans-Serif" font-size="11.00">decimals</text>
<polygon fill="none" stroke="black" points="255,-466 255,-488 370,-488 370,-466 255,-466"/>
<text text-anchor="start" x="258" y="-474.2" font-family="Helvetica,sans-Serif" font-size="11.00">numeric[0]</text>
<polygon fill="#ffffff" stroke="transparent" points="10,-444 10,-466 255,-466 255,-444 10,-444"/>
<polygon fill="none" stroke="black" points="10,-444 10,-466 255,-466 255,-444 10,-444"/>
<text text-anchor="start" x="30" y="-452.2" font-family="Helvetica,sans-Serif" font-size="11.00">type</text>
<polygon fill="none" stroke="black" points="255,-444 255,-466 370,-466 370,-444 255,-444"/>
<text text-anchor="start" x="258" y="-452.2" font-family="Helvetica,sans-Serif" font-size="11.00">varchar[255]</text>
<polygon fill="#ffffff" stroke="transparent" points="10,-422 10,-444 255,-444 255,-422 10,-422"/>
<polygon fill="none" stroke="black" points="10,-422 10,-444 255,-444 255,-422 10,-422"/>
<text text-anchor="start" x="30" y="-430.2" font-family="Helvetica,sans-Serif" font-size="11.00">cataloged</text>
<polygon fill="none" stroke="black" points="255,-422 255,-444 370,-444 370,-422 255,-422"/>
<text text-anchor="start" x="258" y="-430.2" font-family="Helvetica,sans-Serif" font-size="11.00">bool[1]</text>
<polygon fill="none" stroke="black" points="10,-400 10,-422 255,-422 255,-400 10,-400"/>
<image xlink:href="../../images/primaryKeys.png" width="11px" height="12px" preserveAspectRatio="xMinYMin meet" x="15" y="-417"/>
<text text-anchor="start" x="30" y="-408.2" font-family="Helvetica,sans-Serif" font-size="11.00">contract_address_hash</text>
<polygon fill="none" stroke="black" points="255,-400 255,-422 370,-422 370,-400 255,-400"/>
<text text-anchor="start" x="258" y="-408.2" font-family="Helvetica,sans-Serif" font-size="11.00">bytea[2147483647]</text>
<polygon fill="none" stroke="black" points="10,-378 10,-400 255,-400 255,-378 10,-378"/>
<text text-anchor="start" x="30" y="-386.2" font-family="Helvetica,sans-Serif" font-size="11.00">inserted_at</text>
<polygon fill="none" stroke="black" points="255,-378 255,-400 370,-400 370,-378 255,-378"/>
<text text-anchor="start" x="258" y="-386.2" font-family="Helvetica,sans-Serif" font-size="11.00">timestamp[29,6]</text>
<polygon fill="none" stroke="black" points="10,-356 10,-378 255,-378 255,-356 10,-356"/>
<text text-anchor="start" x="30" y="-364.2" font-family="Helvetica,sans-Serif" font-size="11.00">updated_at</text>
<polygon fill="none" stroke="black" points="255,-356 255,-378 370,-378 370,-356 255,-356"/>
<text text-anchor="start" x="258" y="-364.2" font-family="Helvetica,sans-Serif" font-size="11.00">timestamp[29,6]</text>
<polygon fill="none" stroke="black" points="10,-334 10,-356 255,-356 255,-334 10,-334"/>
<text text-anchor="start" x="30" y="-342.2" font-family="Helvetica,sans-Serif" font-size="11.00">holder_count</text>
<polygon fill="none" stroke="black" points="255,-334 255,-356 370,-356 370,-334 255,-334"/>
<text text-anchor="start" x="258" y="-342.2" font-family="Helvetica,sans-Serif" font-size="11.00">int4[10]</text>
<polygon fill="none" stroke="black" points="10,-312 10,-334 255,-334 255,-312 10,-312"/>
<text text-anchor="start" x="30" y="-320.2" font-family="Helvetica,sans-Serif" font-size="11.00">skip_metadata</text>
<polygon fill="none" stroke="black" points="255,-312 255,-334 370,-334 370,-312 255,-312"/>
<text text-anchor="start" x="258" y="-320.2" font-family="Helvetica,sans-Serif" font-size="11.00">bool[1]</text>
<polygon fill="none" stroke="black" points="10,-290 10,-312 255,-312 255,-290 10,-290"/>
<text text-anchor="start" x="30" y="-298.2" font-family="Helvetica,sans-Serif" font-size="11.00">fiat_value</text>
<polygon fill="none" stroke="black" points="255,-290 255,-312 370,-312 370,-290 255,-290"/>
<text text-anchor="start" x="258" y="-298.2" font-family="Helvetica,sans-Serif" font-size="11.00">numeric[0]</text>
<polygon fill="none" stroke="black" points="10,-268 10,-290 255,-290 255,-268 10,-268"/>
<text text-anchor="start" x="30" y="-276.2" font-family="Helvetica,sans-Serif" font-size="11.00">circulating_market_cap</text>
<polygon fill="none" stroke="black" points="255,-268 255,-290 370,-290 370,-268 255,-268"/>
<text text-anchor="start" x="258" y="-276.2" font-family="Helvetica,sans-Serif" font-size="11.00">numeric[0]</text>
<polygon fill="none" stroke="black" points="10,-246 10,-268 255,-268 255,-246 10,-246"/>
<text text-anchor="start" x="30" y="-254.2" font-family="Helvetica,sans-Serif" font-size="11.00">total_supply_updated_at_block</text>
<polygon fill="none" stroke="black" points="255,-246 255,-268 370,-268 370,-246 255,-246"/>
<text text-anchor="start" x="258" y="-254.2" font-family="Helvetica,sans-Serif" font-size="11.00">int8[19]</text>
<polygon fill="none" stroke="black" points="10,-224 10,-246 255,-246 255,-224 10,-224"/>
<text text-anchor="start" x="30" y="-232.2" font-family="Helvetica,sans-Serif" font-size="11.00">icon_url</text>
<polygon fill="none" stroke="black" points="255,-224 255,-246 370,-246 370,-224 255,-224"/>
<text text-anchor="start" x="258" y="-232.2" font-family="Helvetica,sans-Serif" font-size="11.00">text[2147483647]</text>
<polygon fill="none" stroke="black" points="10,-202 10,-224 255,-224 255,-202 10,-202"/>
<text text-anchor="start" x="30" y="-210.2" font-family="Helvetica,sans-Serif" font-size="11.00">is_verified_via_admin_panel</text>
<polygon fill="none" stroke="black" points="255,-202 255,-224 370,-224 370,-202 255,-202"/>
<text text-anchor="start" x="258" y="-210.2" font-family="Helvetica,sans-Serif" font-size="11.00">bool[1]</text>
<polygon fill="none" stroke="black" points="10,-180 10,-202 255,-202 255,-180 10,-180"/>
<text text-anchor="start" x="30" y="-188.2" font-family="Helvetica,sans-Serif" font-size="11.00">volume_24h</text>
<polygon fill="none" stroke="black" points="255,-180 255,-202 370,-202 370,-180 255,-180"/>
<text text-anchor="start" x="258" y="-188.2" font-family="Helvetica,sans-Serif" font-size="11.00">numeric[0]</text>
<polygon fill="none" stroke="black" points="10,-158 10,-180 255,-180 255,-158 10,-158"/>
<text text-anchor="start" x="30" y="-166.2" font-family="Helvetica,sans-Serif" font-size="11.00">metadata_updated_at</text>
<polygon fill="none" stroke="black" points="255,-158 255,-180 370,-180 370,-158 255,-158"/>
<text text-anchor="start" x="258" y="-166.2" font-family="Helvetica,sans-Serif" font-size="11.00">timestamp[29,6]</text>
<polygon fill="none" stroke="black" points="10,-136 10,-158 255,-158 255,-136 10,-136"/>
<text text-anchor="start" x="30" y="-144.2" font-family="Helvetica,sans-Serif" font-size="11.00">transfer_count</text>
<polygon fill="none" stroke="black" points="255,-136 255,-158 370,-158 370,-136 255,-136"/>
<text text-anchor="start" x="258" y="-144.2" font-family="Helvetica,sans-Serif" font-size="11.00">int4[10]</text>
<polygon fill="#ffffff" stroke="transparent" points="10,-118 10,-136 370,-136 370,-118 10,-118"/>
<polygon fill="none" stroke="black" points="10,-118 10,-136 370,-136 370,-118 10,-118"/>
<polygon fill="#ffffff" stroke="transparent" points="11,-119 11,-135 135,-135 135,-119 11,-119"/>
<text text-anchor="start" x="13" y="-124.2" font-family="Helvetica,sans-Serif" font-size="11.00">&lt; 0</text>
<polygon fill="#ffffff" stroke="transparent" points="135,-119 135,-135 246,-135 246,-119 135,-119"/>
<text text-anchor="start" x="186.5" y="-124.2" font-family="Helvetica,sans-Serif" font-size="11.00"> &#160;</text>
<polygon fill="#ffffff" stroke="transparent" points="246,-119 246,-135 369,-135 369,-119 246,-119"/>
<text text-anchor="start" x="347" y="-124.2" font-family="Helvetica,sans-Serif" font-size="11.00">1 &gt;</text>
<polygon fill="black" stroke="black" points="135,-119 135,-135 135,-135 135,-119 135,-119"/>
<polygon fill="black" stroke="black" points="246,-119 246,-135 246,-135 246,-119 246,-119"/>
<polygon fill="none" stroke="black" stroke-width="2" points="9,-117 9,-577 371,-577 371,-117 9,-117"/>
</a>
</g>
</g>
<!-- token_instances&#45;&gt;tokens -->
<g id="edge2" class="edge">
<title>token_instances:w&#45;&gt;tokens:e</title>
<path fill="none" stroke="black" d="M405.53,-273.21C367.48,-294.2 431.38,-411 371,-411"/>
<polygon fill="black" stroke="black" points="412.19,-271.73 420.78,-273.51 416.09,-270.87 420,-270 420,-270 420,-270 416.09,-270.87 419.22,-266.49 412.19,-271.73 412.19,-271.73"/>
<ellipse fill="none" stroke="black" cx="409.07" cy="-272.43" rx="3.2" ry="3.2"/>
</g>
</g>
</svg>
