<?xml version="1.0" encoding="UTF-8" standalone="no"?>
<!DOCTYPE svg PUBLIC "-//W3C//DTD SVG 1.1//EN"
 "http://www.w3.org/Graphics/SVG/1.1/DTD/svg11.dtd">
<!-- Generated by graphviz version 2.43.0 (0)
 -->
<!-- Title: oneDegreeRelationshipsDiagram Pages: 1 -->
<svg width="897pt" height="528pt"
 viewBox="0.00 0.00 897.00 528.00" xmlns="http://www.w3.org/2000/svg" xmlns:xlink="http://www.w3.org/1999/xlink">
<g id="graph0" class="graph" transform="scale(1 1) rotate(0) translate(4 524)">
<title>oneDegreeRelationshipsDiagram</title>
<polygon fill="#ffffff" stroke="transparent" points="-4,4 -4,-524 893,-524 893,4 -4,4"/>
<text text-anchor="middle" x="79.5" y="-7.2" font-family="Helvetica,sans-Serif" font-size="11.00">Generated by SchemaSpy</text>
<!-- token_transfers -->
<g id="node1" class="node">
<title>token_transfers</title>
<g id="a_node1"><a xlink:href="../../tables/token_transfers.html" xlink:title="token_transfers" target="_top">
<polygon fill="#ffffff" stroke="transparent" points="526,-64 526,-416 881,-416 881,-64 526,-64"/>
<polygon fill="#f5f5f5" stroke="transparent" points="528.5,-392 528.5,-414 879.5,-414 879.5,-392 528.5,-392"/>
<polygon fill="none" stroke="black" points="528.5,-392 528.5,-414 879.5,-414 879.5,-392 528.5,-392"/>
<text text-anchor="start" x="533.5" y="-401.2" font-family="Helvetica,sans-Serif" font-weight="bold" font-size="11.00">token_transfers</text>
<text text-anchor="start" x="837.5" y="-400.2" font-family="Helvetica,sans-Serif" font-size="11.00">[table]</text>
<polygon fill="none" stroke="black" points="528.5,-370 528.5,-392 764.5,-392 764.5,-370 528.5,-370"/>
<image xlink:href="../../images/primaryKeys.png" width="11px" height="12px" preserveAspectRatio="xMinYMin meet" x="533.5" y="-387"/>
<text text-anchor="start" x="548.5" y="-378.2" font-family="Helvetica,sans-Serif" font-size="11.00">transaction_hash</text>
<polygon fill="none" stroke="black" points="764.5,-370 764.5,-392 879.5,-392 879.5,-370 764.5,-370"/>
<text text-anchor="start" x="767.5" y="-378.2" font-family="Helvetica,sans-Serif" font-size="11.00">bytea[2147483647]</text>
<polygon fill="none" stroke="black" points="528.5,-348 528.5,-370 764.5,-370 764.5,-348 528.5,-348"/>
<image xlink:href="../../images/primaryKeys.png" width="11px" height="12px" preserveAspectRatio="xMinYMin meet" x="533.5" y="-365"/>
<text text-anchor="start" x="548.5" y="-356.2" font-family="Helvetica,sans-Serif" font-size="11.00">log_index</text>
<polygon fill="none" stroke="black" points="764.5,-348 764.5,-370 879.5,-370 879.5,-348 764.5,-348"/>
<text text-anchor="start" x="767.5" y="-356.2" font-family="Helvetica,sans-Serif" font-size="11.00">int4[10]</text>
<polygon fill="#ffffff" stroke="transparent" points="528.5,-326 528.5,-348 764.5,-348 764.5,-326 528.5,-326"/>
<polygon fill="none" stroke="black" points="528.5,-326 528.5,-348 764.5,-348 764.5,-326 528.5,-326"/>
<text text-anchor="start" x="548.5" y="-334.2" font-family="Helvetica,sans-Serif" font-size="11.00">from_address_hash</text>
<polygon fill="none" stroke="black" points="764.5,-326 764.5,-348 879.5,-348 879.5,-326 764.5,-326"/>
<text text-anchor="start" x="767.5" y="-334.2" font-family="Helvetica,sans-Serif" font-size="11.00">bytea[2147483647]</text>
<polygon fill="#ffffff" stroke="transparent" points="528.5,-304 528.5,-326 764.5,-326 764.5,-304 528.5,-304"/>
<polygon fill="none" stroke="black" points="528.5,-304 528.5,-326 764.5,-326 764.5,-304 528.5,-304"/>
<text text-anchor="start" x="548.5" y="-312.2" font-family="Helvetica,sans-Serif" font-size="11.00">to_address_hash</text>
<polygon fill="none" stroke="black" points="764.5,-304 764.5,-326 879.5,-326 879.5,-304 764.5,-304"/>
<text text-anchor="start" x="767.5" y="-312.2" font-family="Helvetica,sans-Serif" font-size="11.00">bytea[2147483647]</text>
<polygon fill="none" stroke="black" points="528.5,-282 528.5,-304 764.5,-304 764.5,-282 528.5,-282"/>
<text text-anchor="start" x="548.5" y="-290.2" font-family="Helvetica,sans-Serif" font-size="11.00">amount</text>
<polygon fill="none" stroke="black" points="764.5,-282 764.5,-304 879.5,-304 879.5,-282 764.5,-282"/>
<text text-anchor="start" x="767.5" y="-290.2" font-family="Helvetica,sans-Serif" font-size="11.00">numeric[0]</text>
<polygon fill="#ffffff" stroke="transparent" points="528.5,-260 528.5,-282 764.5,-282 764.5,-260 528.5,-260"/>
<polygon fill="none" stroke="black" points="528.5,-260 528.5,-282 764.5,-282 764.5,-260 528.5,-260"/>
<text text-anchor="start" x="548.5" y="-268.2" font-family="Helvetica,sans-Serif" font-size="11.00">token_contract_address_hash</text>
<polygon fill="none" stroke="black" points="764.5,-260 764.5,-282 879.5,-282 879.5,-260 764.5,-260"/>
<text text-anchor="start" x="767.5" y="-268.2" font-family="Helvetica,sans-Serif" font-size="11.00">bytea[2147483647]</text>
<polygon fill="none" stroke="black" points="528.5,-238 528.5,-260 764.5,-260 764.5,-238 528.5,-238"/>
<text text-anchor="start" x="548.5" y="-246.2" font-family="Helvetica,sans-Serif" font-size="11.00">inserted_at</text>
<polygon fill="none" stroke="black" points="764.5,-238 764.5,-260 879.5,-260 879.5,-238 764.5,-238"/>
<text text-anchor="start" x="767.5" y="-246.2" font-family="Helvetica,sans-Serif" font-size="11.00">timestamp[29,6]</text>
<polygon fill="none" stroke="black" points="528.5,-216 528.5,-238 764.5,-238 764.5,-216 528.5,-216"/>
<text text-anchor="start" x="548.5" y="-224.2" font-family="Helvetica,sans-Serif" font-size="11.00">updated_at</text>
<polygon fill="none" stroke="black" points="764.5,-216 764.5,-238 879.5,-238 879.5,-216 764.5,-216"/>
<text text-anchor="start" x="767.5" y="-224.2" font-family="Helvetica,sans-Serif" font-size="11.00">timestamp[29,6]</text>
<polygon fill="#ffffff" stroke="transparent" points="528.5,-194 528.5,-216 764.5,-216 764.5,-194 528.5,-194"/>
<polygon fill="none" stroke="black" points="528.5,-194 528.5,-216 764.5,-216 764.5,-194 528.5,-194"/>
<text text-anchor="start" x="548.5" y="-202.2" font-family="Helvetica,sans-Serif" font-size="11.00">block_number</text>
<polygon fill="none" stroke="black" points="764.5,-194 764.5,-216 879.5,-216 879.5,-194 764.5,-194"/>
<text text-anchor="start" x="767.5" y="-202.2" font-family="Helvetica,sans-Serif" font-size="11.00">int4[10]</text>
<polygon fill="none" stroke="black" points="528.5,-172 528.5,-194 764.5,-194 764.5,-172 528.5,-172"/>
<image xlink:href="../../images/primaryKeys.png" width="11px" height="12px" preserveAspectRatio="xMinYMin meet" x="533.5" y="-189"/>
<text text-anchor="start" x="548.5" y="-180.2" font-family="Helvetica,sans-Serif" font-size="11.00">block_hash</text>
<polygon fill="none" stroke="black" points="764.5,-172 764.5,-194 879.5,-194 879.5,-172 764.5,-172"/>
<text text-anchor="start" x="767.5" y="-180.2" font-family="Helvetica,sans-Serif" font-size="11.00">bytea[2147483647]</text>
<polygon fill="none" stroke="black" points="528.5,-150 528.5,-172 764.5,-172 764.5,-150 528.5,-150"/>
<text text-anchor="start" x="548.5" y="-158.2" font-family="Helvetica,sans-Serif" font-size="11.00">amounts</text>
<polygon fill="none" stroke="black" points="764.5,-150 764.5,-172 879.5,-172 879.5,-150 764.5,-150"/>
<text text-anchor="start" x="767.5" y="-158.2" font-family="Helvetica,sans-Serif" font-size="11.00">_numeric[131089]</text>
<polygon fill="#ffffff" stroke="transparent" points="528.5,-128 528.5,-150 764.5,-150 764.5,-128 528.5,-128"/>
<polygon fill="none" stroke="black" points="528.5,-128 528.5,-150 764.5,-150 764.5,-128 528.5,-128"/>
<text text-anchor="start" x="548.5" y="-136.2" font-family="Helvetica,sans-Serif" font-size="11.00">token_ids</text>
<polygon fill="none" stroke="black" points="764.5,-128 764.5,-150 879.5,-150 879.5,-128 764.5,-128"/>
<text text-anchor="start" x="767.5" y="-136.2" font-family="Helvetica,sans-Serif" font-size="11.00">_numeric[78]</text>
<polygon fill="#ffffff" stroke="transparent" points="528.5,-106 528.5,-128 764.5,-128 764.5,-106 528.5,-106"/>
<polygon fill="none" stroke="black" points="528.5,-106 528.5,-128 764.5,-128 764.5,-106 528.5,-106"/>
<text text-anchor="start" x="548.5" y="-114.2" font-family="Helvetica,sans-Serif" font-size="11.00">token_type</text>
<polygon fill="none" stroke="black" points="764.5,-106 764.5,-128 879.5,-128 879.5,-106 764.5,-106"/>
<text text-anchor="start" x="767.5" y="-114.2" font-family="Helvetica,sans-Serif" font-size="11.00">varchar[255]</text>
<polygon fill="#ffffff" stroke="transparent" points="528.5,-84 528.5,-106 764.5,-106 764.5,-84 528.5,-84"/>
<polygon fill="none" stroke="black" points="528.5,-84 528.5,-106 764.5,-106 764.5,-84 528.5,-84"/>
<text text-anchor="start" x="548.5" y="-92.2" font-family="Helvetica,sans-Serif" font-size="11.00">block_consensus</text>
<polygon fill="none" stroke="black" points="764.5,-84 764.5,-106 879.5,-106 879.5,-84 764.5,-84"/>
<text text-anchor="start" x="767.5" y="-92.2" font-family="Helvetica,sans-Serif" font-size="11.00">bool[1]</text>
<polygon fill="#ffffff" stroke="transparent" points="528.5,-66 528.5,-84 879.5,-84 879.5,-66 528.5,-66"/>
<polygon fill="none" stroke="black" points="528.5,-66 528.5,-84 879.5,-84 879.5,-66 528.5,-66"/>
<polygon fill="#ffffff" stroke="transparent" points="529.5,-67 529.5,-83 650.5,-83 650.5,-67 529.5,-67"/>
<text text-anchor="start" x="531.5" y="-72.2" font-family="Helvetica,sans-Serif" font-size="11.00">&lt; 2</text>
<polygon fill="#ffffff" stroke="transparent" points="650.5,-67 650.5,-83 758.5,-83 758.5,-67 650.5,-67"/>
<text text-anchor="start" x="700.5" y="-72.2" font-family="Helvetica,sans-Serif" font-size="11.00"> &#160;</text>
<polygon fill="#ffffff" stroke="transparent" points="758.5,-67 758.5,-83 878.5,-83 878.5,-67 758.5,-67"/>
<text text-anchor="start" x="856.5" y="-72.2" font-family="Helvetica,sans-Serif" font-size="11.00">0 &gt;</text>
<polygon fill="black" stroke="black" points="650.5,-67 650.5,-83 650.5,-83 650.5,-67 650.5,-67"/>
<polygon fill="black" stroke="black" points="758.5,-67 758.5,-83 758.5,-83 758.5,-67 758.5,-67"/>
<polygon fill="none" stroke="black" stroke-width="2" points="527,-65 527,-415 880,-415 880,-65 527,-65"/>
</a>
</g>
</g>
<!-- blocks -->
<g id="node2" class="node">
<title>blocks</title>
<g id="a_node2"><a xlink:href="../../tables/blocks.html" xlink:title="blocks" target="_top">
<polygon fill="#ffffff" stroke="transparent" points="8,-37 8,-271 156,-271 156,-37 8,-37"/>
<polygon fill="#f5f5f5" stroke="transparent" points="8,-249 8,-271 156,-271 156,-249 8,-249"/>
<polygon fill="none" stroke="black" points="8,-249 8,-271 156,-271 156,-249 8,-249"/>
<text text-anchor="start" x="13" y="-258.2" font-family="Helvetica,sans-Serif" font-weight="bold" font-size="11.00">blocks</text>
<text text-anchor="start" x="114" y="-257.2" font-family="Helvetica,sans-Serif" font-size="11.00">[table]</text>
<polygon fill="#ffffff" stroke="transparent" points="8,-227 8,-249 156,-249 156,-227 8,-227"/>
<polygon fill="none" stroke="black" points="8,-227 8,-249 156,-249 156,-227 8,-227"/>
<text text-anchor="start" x="28" y="-235.2" font-family="Helvetica,sans-Serif" font-size="11.00">consensus</text>
<polygon fill="none" stroke="black" points="8,-205 8,-227 156,-227 156,-205 8,-205"/>
<image xlink:href="../../images/primaryKeys.png" width="11px" height="12px" preserveAspectRatio="xMinYMin meet" x="13" y="-222"/>
<text text-anchor="start" x="28" y="-213.2" font-family="Helvetica,sans-Serif" font-size="11.00">hash</text>
<polygon fill="#ffffff" stroke="transparent" points="8,-183 8,-205 156,-205 156,-183 8,-183"/>
<polygon fill="none" stroke="black" points="8,-183 8,-205 156,-205 156,-183 8,-183"/>
<text text-anchor="start" x="28" y="-191.2" font-family="Helvetica,sans-Serif" font-size="11.00">miner_hash</text>
<polygon fill="#ffffff" stroke="transparent" points="8,-161 8,-183 156,-183 156,-161 8,-161"/>
<polygon fill="none" stroke="black" points="8,-161 8,-183 156,-183 156,-161 8,-161"/>
<image xlink:href="../../images/foreignKeys.png" width="11px" height="12px" preserveAspectRatio="xMinYMin meet" x="13" y="-178"/>
<text text-anchor="start" x="28" y="-169.2" font-family="Helvetica,sans-Serif" font-size="11.00">number</text>
<polygon fill="#ffffff" stroke="transparent" points="8,-139 8,-161 156,-161 156,-139 8,-139"/>
<polygon fill="none" stroke="black" points="8,-139 8,-161 156,-161 156,-139 8,-139"/>
<text text-anchor="start" x="28" y="-147.2" font-family="Helvetica,sans-Serif" font-size="11.00">parent_hash</text>
<polygon fill="#ffffff" stroke="transparent" points="8,-117 8,-139 156,-139 156,-117 8,-117"/>
<polygon fill="none" stroke="black" points="8,-117 8,-139 156,-139 156,-117 8,-117"/>
<text text-anchor="start" x="28" y="-125.2" font-family="Helvetica,sans-Serif" font-size="11.00">timestamp</text>
<polygon fill="#ffffff" stroke="transparent" points="8,-95 8,-117 156,-117 156,-95 8,-95"/>
<polygon fill="none" stroke="black" points="8,-95 8,-117 156,-117 156,-95 8,-95"/>
<text text-anchor="start" x="28" y="-103.2" font-family="Helvetica,sans-Serif" font-size="11.00">inserted_at</text>
<polygon fill="#ffffff" stroke="transparent" points="8,-73 8,-95 156,-95 156,-73 8,-73"/>
<polygon fill="none" stroke="black" points="8,-73 8,-95 156,-95 156,-73 8,-73"/>
<text text-anchor="start" x="28" y="-81.2" font-family="Helvetica,sans-Serif" font-size="11.00">is_empty</text>
<polygon fill="none" stroke="black" points="8,-55 8,-73 156,-73 156,-55 8,-55"/>
<text text-anchor="start" x="11" y="-61.2" font-family="Helvetica,sans-Serif" font-size="11.00">...</text>
<polygon fill="#ffffff" stroke="transparent" points="8,-37 8,-55 156,-55 156,-37 8,-37"/>
<polygon fill="none" stroke="black" points="8,-37 8,-55 156,-55 156,-37 8,-37"/>
<polygon fill="#ffffff" stroke="transparent" points="9,-38 9,-54 54,-54 54,-38 9,-38"/>
<text text-anchor="start" x="11" y="-43.2" font-family="Helvetica,sans-Serif" font-size="11.00"> &#160;</text>
<polygon fill="#ffffff" stroke="transparent" points="54,-38 54,-54 99,-54 99,-38 54,-38"/>
<text text-anchor="start" x="72.5" y="-43.2" font-family="Helvetica,sans-Serif" font-size="11.00"> &#160;</text>
<polygon fill="#ffffff" stroke="transparent" points="99,-38 99,-54 155,-54 155,-38 99,-38"/>
<text text-anchor="start" x="133" y="-43.2" font-family="Helvetica,sans-Serif" font-size="11.00">9 &gt;</text>
<polygon fill="black" stroke="black" points="54,-38 54,-54 54,-54 54,-38 54,-38"/>
<polygon fill="black" stroke="black" points="99,-38 99,-54 99,-54 99,-38 99,-38"/>
</a>
</g>
</g>
<!-- token_transfers&#45;&gt;blocks -->
<g id="edge1" class="edge">
<title>token_transfers:w&#45;&gt;blocks:e</title>
<path fill="none" stroke="black" d="M513.65,-178.7C499.15,-166.34 510.13,-130.7 485,-117 372.63,-55.71 303.12,-45.42 197,-117 157.66,-143.54 204.46,-216 157,-216"/>
<polygon fill="black" stroke="black" points="519.86,-180.63 526.43,-186.44 523.68,-181.81 527.5,-183 527.5,-183 527.5,-183 523.68,-181.81 528.57,-179.56 519.86,-180.63 519.86,-180.63"/>
<ellipse fill="none" stroke="black" cx="516.8" cy="-179.68" rx="3.2" ry="3.2"/>
</g>
<!-- transactions -->
<g id="node3" class="node">
<title>transactions</title>
<g id="a_node3"><a xlink:href="../../tables/transactions.html" xlink:title="transactions" target="_top">
<polygon fill="#ffffff" stroke="transparent" points="205,-128 205,-516 477,-516 477,-128 205,-128"/>
<polygon fill="#f5f5f5" stroke="transparent" points="205,-494 205,-516 477,-516 477,-494 205,-494"/>
<polygon fill="none" stroke="black" points="205,-494 205,-516 477,-516 477,-494 205,-494"/>
<text text-anchor="start" x="210" y="-503.2" font-family="Helvetica,sans-Serif" font-weight="bold" font-size="11.00">transactions</text>
<text text-anchor="start" x="435" y="-502.2" font-family="Helvetica,sans-Serif" font-size="11.00">[table]</text>
<polygon fill="#ffffff" stroke="transparent" points="205,-472 205,-494 477,-494 477,-472 205,-472"/>
<polygon fill="none" stroke="black" points="205,-472 205,-494 477,-494 477,-472 205,-472"/>
<text text-anchor="start" x="225" y="-480.2" font-family="Helvetica,sans-Serif" font-size="11.00">error</text>
<polygon fill="none" stroke="black" points="205,-450 205,-472 477,-472 477,-450 205,-450"/>
<image xlink:href="../../images/primaryKeys.png" width="11px" height="12px" preserveAspectRatio="xMinYMin meet" x="210" y="-467"/>
<text text-anchor="start" x="225" y="-458.2" font-family="Helvetica,sans-Serif" font-size="11.00">hash</text>
<polygon fill="#ffffff" stroke="transparent" points="205,-428 205,-450 477,-450 477,-428 205,-428"/>
<polygon fill="none" stroke="black" points="205,-428 205,-450 477,-450 477,-428 205,-428"/>
<image xlink:href="../../images/foreignKeys.png" width="11px" height="12px" preserveAspectRatio="xMinYMin meet" x="210" y="-445"/>
<text text-anchor="start" x="225" y="-436.2" font-family="Helvetica,sans-Serif" font-size="11.00">index</text>
<polygon fill="#ffffff" stroke="transparent" points="205,-406 205,-428 477,-428 477,-406 205,-406"/>
<polygon fill="none" stroke="black" points="205,-406 205,-428 477,-428 477,-406 205,-406"/>
<text text-anchor="start" x="225" y="-414.2" font-family="Helvetica,sans-Serif" font-size="11.00">nonce</text>
<polygon fill="#ffffff" stroke="transparent" points="205,-384 205,-406 477,-406 477,-384 205,-384"/>
<polygon fill="none" stroke="black" points="205,-384 205,-406 477,-406 477,-384 205,-384"/>
<text text-anchor="start" x="225" y="-392.2" font-family="Helvetica,sans-Serif" font-size="11.00">status</text>
<polygon fill="#ffffff" stroke="transparent" points="205,-362 205,-384 477,-384 477,-362 205,-362"/>
<polygon fill="none" stroke="black" points="205,-362 205,-384 477,-384 477,-362 205,-362"/>
<text text-anchor="start" x="225" y="-370.2" font-family="Helvetica,sans-Serif" font-size="11.00">inserted_at</text>
<polygon fill="#ffffff" stroke="transparent" points="205,-340 205,-362 477,-362 477,-340 205,-340"/>
<polygon fill="none" stroke="black" points="205,-340 205,-362 477,-362 477,-340 205,-340"/>
<text text-anchor="start" x="225" y="-348.2" font-family="Helvetica,sans-Serif" font-size="11.00">updated_at</text>
<polygon fill="#ffffff" stroke="transparent" points="205,-318 205,-340 477,-340 477,-318 205,-318"/>
<polygon fill="none" stroke="black" points="205,-318 205,-340 477,-340 477,-318 205,-318"/>
<image xlink:href="../../images/foreignKeys.png" width="11px" height="12px" preserveAspectRatio="xMinYMin meet" x="210" y="-335"/>
<text text-anchor="start" x="225" y="-326.2" font-family="Helvetica,sans-Serif" font-size="11.00">block_hash</text>
<polygon fill="#ffffff" stroke="transparent" points="205,-296 205,-318 477,-318 477,-296 205,-296"/>
<polygon fill="none" stroke="black" points="205,-296 205,-318 477,-318 477,-296 205,-296"/>
<text text-anchor="start" x="225" y="-304.2" font-family="Helvetica,sans-Serif" font-size="11.00">block_number</text>
<polygon fill="#ffffff" stroke="transparent" points="205,-274 205,-296 477,-296 477,-274 205,-274"/>
<polygon fill="none" stroke="black" points="205,-274 205,-296 477,-296 477,-274 205,-274"/>
<text text-anchor="start" x="225" y="-282.2" font-family="Helvetica,sans-Serif" font-size="11.00">from_address_hash</text>
<polygon fill="#ffffff" stroke="transparent" points="205,-252 205,-274 477,-274 477,-252 205,-252"/>
<polygon fill="none" stroke="black" points="205,-252 205,-274 477,-274 477,-252 205,-252"/>
<text text-anchor="start" x="225" y="-260.2" font-family="Helvetica,sans-Serif" font-size="11.00">to_address_hash</text>
<polygon fill="#ffffff" stroke="transparent" points="205,-230 205,-252 477,-252 477,-230 205,-230"/>
<polygon fill="none" stroke="black" points="205,-230 205,-252 477,-252 477,-230 205,-230"/>
<text text-anchor="start" x="225" y="-238.2" font-family="Helvetica,sans-Serif" font-size="11.00">created_contract_address_hash</text>
<polygon fill="#ffffff" stroke="transparent" points="205,-208 205,-230 477,-230 477,-208 205,-208"/>
<polygon fill="none" stroke="black" points="205,-208 205,-230 477,-230 477,-208 205,-208"/>
<text text-anchor="start" x="225" y="-216.2" font-family="Helvetica,sans-Serif" font-size="11.00">created_contract_code_indexed_at</text>
<polygon fill="#ffffff" stroke="transparent" points="205,-186 205,-208 477,-208 477,-186 205,-186"/>
<polygon fill="none" stroke="black" points="205,-186 205,-208 477,-208 477,-186 205,-186"/>
<text text-anchor="start" x="225" y="-194.2" font-family="Helvetica,sans-Serif" font-size="11.00">block_timestamp</text>
<polygon fill="#ffffff" stroke="transparent" points="205,-164 205,-186 477,-186 477,-164 205,-164"/>
<polygon fill="none" stroke="black" points="205,-164 205,-186 477,-186 477,-164 205,-164"/>
<text text-anchor="start" x="225" y="-172.2" font-family="Helvetica,sans-Serif" font-size="11.00">block_consensus</text>
<polygon fill="none" stroke="black" points="205,-146 205,-164 477,-164 477,-146 205,-146"/>
<text text-anchor="start" x="208" y="-152.2" font-family="Helvetica,sans-Serif" font-size="11.00">...</text>
<polygon fill="#ffffff" stroke="transparent" points="205,-128 205,-146 477,-146 477,-128 205,-128"/>
<polygon fill="none" stroke="black" points="205,-128 205,-146 477,-146 477,-128 205,-128"/>
<polygon fill="#ffffff" stroke="transparent" points="206,-129 206,-145 300,-145 300,-129 206,-129"/>
<text text-anchor="start" x="208" y="-134.2" font-family="Helvetica,sans-Serif" font-size="11.00">&lt; 1</text>
<polygon fill="#ffffff" stroke="transparent" points="300,-129 300,-145 382,-145 382,-129 300,-129"/>
<text text-anchor="start" x="337" y="-134.2" font-family="Helvetica,sans-Serif" font-size="11.00"> &#160;</text>
<polygon fill="#ffffff" stroke="transparent" points="382,-129 382,-145 476,-145 476,-129 382,-129"/>
<text text-anchor="start" x="454" y="-134.2" font-family="Helvetica,sans-Serif" font-size="11.00">7 &gt;</text>
<polygon fill="black" stroke="black" points="300,-129 300,-145 300,-145 300,-129 300,-129"/>
<polygon fill="black" stroke="black" points="382,-129 382,-145 382,-145 382,-129 382,-129"/>
</a>
</g>
</g>
<!-- token_transfers&#45;&gt;transactions -->
<g id="edge2" class="edge">
<title>token_transfers:w&#45;&gt;transactions:e</title>
<path fill="none" stroke="black" d="M513.67,-385.53C493.97,-402.45 513.77,-461 478,-461"/>
<polygon fill="black" stroke="black" points="519.9,-383.49 528.62,-384.42 523.7,-382.25 527.5,-381 527.5,-381 527.5,-381 523.7,-382.25 526.38,-377.58 519.9,-383.49 519.9,-383.49"/>
<ellipse fill="none" stroke="black" cx="516.86" cy="-384.49" rx="3.2" ry="3.2"/>
</g>
<!-- transactions&#45;&gt;blocks -->
<g id="edge3" class="edge">
<title>transactions:w&#45;&gt;blocks:e</title>
<path fill="none" stroke="black" d="M190.02,-325.24C161.73,-305.63 205.44,-216 157,-216"/>
<polygon fill="black" stroke="black" points="196.27,-326.92 203.07,-332.48 200.14,-327.96 204,-329 204,-329 204,-329 200.14,-327.96 204.93,-325.52 196.27,-326.92 196.27,-326.92"/>
<ellipse fill="none" stroke="black" cx="193.18" cy="-326.09" rx="3.2" ry="3.2"/>
</g>
</g>
</svg>
