<?xml version="1.0" encoding="UTF-8" standalone="no"?>
<!DOCTYPE svg PUBLIC "-//W3C//DTD SVG 1.1//EN"
 "http://www.w3.org/Graphics/SVG/1.1/DTD/svg11.dtd">
<!-- Generated by graphviz version 2.38.0 (20140413.2041)
 -->
<!-- Title: twoDegreesRelationshipsDiagram Pages: 1 -->
<svg width="1084pt" height="1066pt"
 viewBox="0.00 0.00 1084.00 1065.91" xmlns="http://www.w3.org/2000/svg" xmlns:xlink="http://www.w3.org/1999/xlink">
<g id="graph0" class="graph" transform="scale(1 1) rotate(0) translate(4 1061.91)">
<title>twoDegreesRelationshipsDiagram</title>
<polygon fill="#ffffff" stroke="none" points="-4,4 -4,-1061.91 1080,-1061.91 1080,4 -4,4"/>
<text text-anchor="middle" x="74.5" y="-7.2" font-family="Helvetica,sans-Serif" font-size="11.00">Generated by SchemaSpy</text>
<!-- address_coin_balances -->
<g id="node1" class="node"><title>address_coin_balances</title>
<g id="a_node1"><a xlink:href="../../tables/address_coin_balances.html" xlink:title="address_coin_balances" target="_top">
<polygon fill="#ffffff" stroke="none" points="342.5,-969.906 342.5,-1027.91 518.5,-1027.91 518.5,-969.906 342.5,-969.906"/>
<polygon fill="#f5f5f5" stroke="none" points="342.5,-1005.91 342.5,-1027.91 518.5,-1027.91 518.5,-1005.91 342.5,-1005.91"/>
<polygon fill="none" stroke="black" points="342.5,-1005.91 342.5,-1027.91 518.5,-1027.91 518.5,-1005.91 342.5,-1005.91"/>
<text text-anchor="start" x="347.5" y="-1015.11" font-family="Helvetica,sans-Serif" font-weight="bold" font-size="11.00">address_coin_balances</text>
<text text-anchor="start" x="479.5" y="-1014.11" font-family="Helvetica,sans-Serif" font-size="11.00">[table]</text>
<polygon fill="none" stroke="black" points="342.5,-987.906 342.5,-1005.91 518.5,-1005.91 518.5,-987.906 342.5,-987.906"/>
<text text-anchor="start" x="345.5" y="-994.106" font-family="Helvetica,sans-Serif" font-size="11.00">...</text>
<polygon fill="#ffffff" stroke="none" points="342.5,-969.906 342.5,-987.906 414.5,-987.906 414.5,-969.906 342.5,-969.906"/>
<polygon fill="none" stroke="black" points="342.5,-969.906 342.5,-987.906 414.5,-987.906 414.5,-969.906 342.5,-969.906"/>
<text text-anchor="start" x="345.5" y="-976.106" font-family="Helvetica,sans-Serif" font-size="11.00">&lt; 1</text>
<polygon fill="#ffffff" stroke="none" points="414.5,-969.906 414.5,-987.906 480.5,-987.906 480.5,-969.906 414.5,-969.906"/>
<polygon fill="none" stroke="black" points="414.5,-969.906 414.5,-987.906 480.5,-987.906 480.5,-969.906 414.5,-969.906"/>
<text text-anchor="start" x="441.5" y="-976.106" font-family="Helvetica,sans-Serif" font-size="11.00">3 rows</text>
<polygon fill="#ffffff" stroke="none" points="480.5,-969.906 480.5,-987.906 518.5,-987.906 518.5,-969.906 480.5,-969.906"/>
<polygon fill="none" stroke="black" points="480.5,-969.906 480.5,-987.906 518.5,-987.906 518.5,-969.906 480.5,-969.906"/>
<text text-anchor="start" x="508.5" y="-976.106" font-family="Helvetica,sans-Serif" font-size="11.00"> &#160;</text>
</a>
</g>
</g>
<!-- addresses -->
<g id="node2" class="node"><title>addresses</title>
<g id="a_node2"><a xlink:href="../../tables/addresses.html" xlink:title="addresses" target="_top">
<polygon fill="#ffffff" stroke="none" points="8,-330.906 8,-454.906 246,-454.906 246,-330.906 8,-330.906"/>
<polygon fill="#f5f5f5" stroke="none" points="8,-432.906 8,-454.906 246,-454.906 246,-432.906 8,-432.906"/>
<polygon fill="none" stroke="black" points="8,-432.906 8,-454.906 246,-454.906 246,-432.906 8,-432.906"/>
<text text-anchor="start" x="13" y="-442.106" font-family="Helvetica,sans-Serif" font-weight="bold" font-size="11.00">addresses</text>
<text text-anchor="start" x="207" y="-441.106" font-family="Helvetica,sans-Serif" font-size="11.00">[table]</text>
<polygon fill="#ffffff" stroke="none" points="8,-410.906 8,-432.906 246,-432.906 246,-410.906 8,-410.906"/>
<polygon fill="none" stroke="black" points="8,-410.906 8,-432.906 246,-432.906 246,-410.906 8,-410.906"/>
<text text-anchor="start" x="28" y="-419.106" font-family="Helvetica,sans-Serif" font-size="11.00">fetched_coin_balance</text>
<polygon fill="none" stroke="black" points="8,-388.906 8,-410.906 246,-410.906 246,-388.906 8,-388.906"/>
<image xlink:href="../../images/primaryKeys.png" width="11px" height="12px" preserveAspectRatio="xMinYMin meet" x="13" y="-405.906"/>
<text text-anchor="start" x="28" y="-397.106" font-family="Helvetica,sans-Serif" font-size="11.00">hash</text>
<polygon fill="#ffffff" stroke="none" points="8,-366.906 8,-388.906 246,-388.906 246,-366.906 8,-366.906"/>
<polygon fill="none" stroke="black" points="8,-366.906 8,-388.906 246,-388.906 246,-366.906 8,-366.906"/>
<text text-anchor="start" x="28" y="-375.106" font-family="Helvetica,sans-Serif" font-size="11.00">inserted_at</text>
<polygon fill="none" stroke="black" points="8,-348.906 8,-366.906 246,-366.906 246,-348.906 8,-348.906"/>
<text text-anchor="start" x="11" y="-355.106" font-family="Helvetica,sans-Serif" font-size="11.00">...</text>
<polygon fill="#ffffff" stroke="none" points="8,-330.906 8,-348.906 97,-348.906 97,-330.906 8,-330.906"/>
<polygon fill="none" stroke="black" points="8,-330.906 8,-348.906 97,-348.906 97,-330.906 8,-330.906"/>
<text text-anchor="start" x="11" y="-337.106" font-family="Helvetica,sans-Serif" font-size="11.00"> &#160;</text>
<polygon fill="#ffffff" stroke="none" points="97,-330.906 97,-348.906 177,-348.906 177,-330.906 97,-330.906"/>
<polygon fill="none" stroke="black" points="97,-330.906 97,-348.906 177,-348.906 177,-330.906 97,-330.906"/>
<text text-anchor="start" x="138" y="-337.106" font-family="Helvetica,sans-Serif" font-size="11.00">2 rows</text>
<polygon fill="#ffffff" stroke="none" points="177,-330.906 177,-348.906 246,-348.906 246,-330.906 177,-330.906"/>
<polygon fill="none" stroke="black" points="177,-330.906 177,-348.906 246,-348.906 246,-330.906 177,-330.906"/>
<text text-anchor="start" x="219" y="-337.106" font-family="Helvetica,sans-Serif" font-size="11.00">19 &gt;</text>
</a>
</g>
</g>
<!-- address_coin_balances&#45;&gt;addresses -->
<g id="edge1" class="edge"><title>address_coin_balances:elipses:w&#45;&gt;addresses:hash:e</title>
<path fill="none" stroke="black" d="M327.123,-995.717C308.194,-992.171 298.935,-980.615 287,-959.906 255.851,-905.859 309.381,-399.906 247,-399.906"/>
<polygon fill="black" stroke="black" points="333.527,-996.247 341.203,-1000.49 337.514,-996.576 341.5,-996.906 341.5,-996.906 341.5,-996.906 337.514,-996.576 341.797,-993.319 333.527,-996.247 333.527,-996.247"/>
<ellipse fill="none" stroke="black" cx="330.338" cy="-995.983" rx="3.2" ry="3.2"/>
</g>
<!-- address_coin_balances_daily -->
<g id="node3" class="node"><title>address_coin_balances_daily</title>
<g id="a_node3"><a xlink:href="../../tables/address_coin_balances_daily.html" xlink:title="address_coin_balances_daily" target="_top">
<polygon fill="#ffffff" stroke="none" points="326,-890.906 326,-948.906 535,-948.906 535,-890.906 326,-890.906"/>
<polygon fill="#f5f5f5" stroke="none" points="326.5,-926.906 326.5,-948.906 535.5,-948.906 535.5,-926.906 326.5,-926.906"/>
<polygon fill="none" stroke="black" points="326.5,-926.906 326.5,-948.906 535.5,-948.906 535.5,-926.906 326.5,-926.906"/>
<text text-anchor="start" x="331.5" y="-936.106" font-family="Helvetica,sans-Serif" font-weight="bold" font-size="11.00">address_coin_balances_daily</text>
<text text-anchor="start" x="496.5" y="-935.106" font-family="Helvetica,sans-Serif" font-size="11.00">[table]</text>
<polygon fill="none" stroke="black" points="326.5,-908.906 326.5,-926.906 535.5,-926.906 535.5,-908.906 326.5,-908.906"/>
<text text-anchor="start" x="329.5" y="-915.106" font-family="Helvetica,sans-Serif" font-size="11.00">...</text>
<polygon fill="#ffffff" stroke="none" points="326.5,-890.906 326.5,-908.906 414.5,-908.906 414.5,-890.906 326.5,-890.906"/>
<polygon fill="none" stroke="black" points="326.5,-890.906 326.5,-908.906 414.5,-908.906 414.5,-890.906 326.5,-890.906"/>
<text text-anchor="start" x="329.5" y="-897.106" font-family="Helvetica,sans-Serif" font-size="11.00">&lt; 1</text>
<polygon fill="#ffffff" stroke="none" points="414.5,-890.906 414.5,-908.906 489.5,-908.906 489.5,-890.906 414.5,-890.906"/>
<polygon fill="none" stroke="black" points="414.5,-890.906 414.5,-908.906 489.5,-908.906 489.5,-890.906 414.5,-890.906"/>
<text text-anchor="start" x="450.5" y="-897.106" font-family="Helvetica,sans-Serif" font-size="11.00">3 rows</text>
<polygon fill="#ffffff" stroke="none" points="489.5,-890.906 489.5,-908.906 535.5,-908.906 535.5,-890.906 489.5,-890.906"/>
<polygon fill="none" stroke="black" points="489.5,-890.906 489.5,-908.906 535.5,-908.906 535.5,-890.906 489.5,-890.906"/>
<text text-anchor="start" x="525.5" y="-897.106" font-family="Helvetica,sans-Serif" font-size="11.00"> &#160;</text>
</a>
</g>
</g>
<!-- address_coin_balances_daily&#45;&gt;addresses -->
<g id="edge2" class="edge"><title>address_coin_balances_daily:elipses:w&#45;&gt;addresses:hash:e</title>
<path fill="none" stroke="black" d="M311.127,-915.087C298.564,-909.135 294.783,-894.39 287,-876.906 265.371,-828.317 300.186,-399.906 247,-399.906"/>
<polygon fill="black" stroke="black" points="317.65,-916.366 324.807,-921.439 321.575,-917.136 325.5,-917.906 325.5,-917.906 325.5,-917.906 321.575,-917.136 326.193,-914.374 317.65,-916.366 317.65,-916.366"/>
<ellipse fill="none" stroke="black" cx="314.509" cy="-915.75" rx="3.2" ry="3.2"/>
</g>
<!-- address_current_token_balances -->
<g id="node4" class="node"><title>address_current_token_balances</title>
<g id="a_node4"><a xlink:href="../../tables/address_current_token_balances.html" xlink:title="address_current_token_balances" target="_top">
<polygon fill="#ffffff" stroke="none" points="615,-863.906 615,-1053.91 848,-1053.91 848,-863.906 615,-863.906"/>
<polygon fill="#f5f5f5" stroke="none" points="615.5,-1031.91 615.5,-1053.91 848.5,-1053.91 848.5,-1031.91 615.5,-1031.91"/>
<polygon fill="none" stroke="black" points="615.5,-1031.91 615.5,-1053.91 848.5,-1053.91 848.5,-1031.91 615.5,-1031.91"/>
<text text-anchor="start" x="620.5" y="-1041.11" font-family="Helvetica,sans-Serif" font-weight="bold" font-size="11.00">address_current_token_balances</text>
<text text-anchor="start" x="809.5" y="-1040.11" font-family="Helvetica,sans-Serif" font-size="11.00">[table]</text>
<polygon fill="none" stroke="black" points="615.5,-1009.91 615.5,-1031.91 848.5,-1031.91 848.5,-1009.91 615.5,-1009.91"/>
<image xlink:href="../../images/primaryKeys.png" width="11px" height="12px" preserveAspectRatio="xMinYMin meet" x="620.5" y="-1026.91"/>
<text text-anchor="start" x="644.5" y="-1018.11" font-family="Helvetica,sans-Serif" font-size="11.00">id</text>
<polygon fill="#ffffff" stroke="none" points="615.5,-987.906 615.5,-1009.91 848.5,-1009.91 848.5,-987.906 615.5,-987.906"/>
<polygon fill="none" stroke="black" points="615.5,-987.906 615.5,-1009.91 848.5,-1009.91 848.5,-987.906 615.5,-987.906"/>
<image xlink:href="../../images/foreignKeys.png" width="11px" height="12px" preserveAspectRatio="xMinYMin meet" x="620.5" y="-1004.91"/>
<text text-anchor="start" x="644.5" y="-996.106" font-family="Helvetica,sans-Serif" font-size="11.00">address_hash</text>
<polygon fill="#ffffff" stroke="none" points="615.5,-965.906 615.5,-987.906 848.5,-987.906 848.5,-965.906 615.5,-965.906"/>
<polygon fill="none" stroke="black" points="615.5,-965.906 615.5,-987.906 848.5,-987.906 848.5,-965.906 615.5,-965.906"/>
<text text-anchor="start" x="644.5" y="-974.106" font-family="Helvetica,sans-Serif" font-size="11.00">block_number</text>
<polygon fill="#ffffff" stroke="none" points="615.5,-943.906 615.5,-965.906 848.5,-965.906 848.5,-943.906 615.5,-943.906"/>
<polygon fill="none" stroke="black" points="615.5,-943.906 615.5,-965.906 848.5,-965.906 848.5,-943.906 615.5,-943.906"/>
<image xlink:href="../../images/foreignKeys.png" width="11px" height="12px" preserveAspectRatio="xMinYMin meet" x="620.5" y="-960.906"/>
<text text-anchor="start" x="644.5" y="-952.106" font-family="Helvetica,sans-Serif" font-size="11.00">token_contract_address_hash</text>
<polygon fill="#ffffff" stroke="none" points="615.5,-921.906 615.5,-943.906 848.5,-943.906 848.5,-921.906 615.5,-921.906"/>
<polygon fill="none" stroke="black" points="615.5,-921.906 615.5,-943.906 848.5,-943.906 848.5,-921.906 615.5,-921.906"/>
<text text-anchor="start" x="644.5" y="-930.106" font-family="Helvetica,sans-Serif" font-size="11.00">value</text>
<polygon fill="#ffffff" stroke="none" points="615.5,-899.906 615.5,-921.906 848.5,-921.906 848.5,-899.906 615.5,-899.906"/>
<polygon fill="none" stroke="black" points="615.5,-899.906 615.5,-921.906 848.5,-921.906 848.5,-899.906 615.5,-899.906"/>
<text text-anchor="start" x="644.5" y="-908.106" font-family="Helvetica,sans-Serif" font-size="11.00">token_id</text>
<polygon fill="none" stroke="black" points="615.5,-881.906 615.5,-899.906 848.5,-899.906 848.5,-881.906 615.5,-881.906"/>
<text text-anchor="start" x="618.5" y="-888.106" font-family="Helvetica,sans-Serif" font-size="11.00">...</text>
<polygon fill="#ffffff" stroke="none" points="615.5,-863.906 615.5,-881.906 715.5,-881.906 715.5,-863.906 615.5,-863.906"/>
<polygon fill="none" stroke="black" points="615.5,-863.906 615.5,-881.906 715.5,-881.906 715.5,-863.906 615.5,-863.906"/>
<text text-anchor="start" x="618.5" y="-870.106" font-family="Helvetica,sans-Serif" font-size="11.00">&lt; 2</text>
<polygon fill="#ffffff" stroke="none" points="715.5,-863.906 715.5,-881.906 796.5,-881.906 796.5,-863.906 715.5,-863.906"/>
<polygon fill="none" stroke="black" points="715.5,-863.906 715.5,-881.906 796.5,-881.906 796.5,-863.906 715.5,-863.906"/>
<text text-anchor="start" x="757.5" y="-870.106" font-family="Helvetica,sans-Serif" font-size="11.00">0 rows</text>
<polygon fill="#ffffff" stroke="none" points="796.5,-863.906 796.5,-881.906 848.5,-881.906 848.5,-863.906 796.5,-863.906"/>
<polygon fill="none" stroke="black" points="796.5,-863.906 796.5,-881.906 848.5,-881.906 848.5,-863.906 796.5,-863.906"/>
<text text-anchor="start" x="838.5" y="-870.106" font-family="Helvetica,sans-Serif" font-size="11.00"> &#160;</text>
</a>
</g>
</g>
<!-- address_current_token_balances&#45;&gt;addresses -->
<g id="edge3" class="edge"><title>address_current_token_balances:address_hash:w&#45;&gt;addresses:hash:e</title>
<path fill="none" stroke="black" d="M600.113,-996.077C570.631,-981.188 612.8,-911.456 574,-880.906 523.669,-841.278 332.163,-899.337 287,-853.906 215.597,-782.079 348.28,-399.906 247,-399.906"/>
<polygon fill="black" stroke="black" points="606.65,-997.362 613.805,-1002.44 610.575,-998.134 614.5,-998.906 614.5,-998.906 614.5,-998.906 610.575,-998.134 615.195,-995.374 606.65,-997.362 606.65,-997.362"/>
<ellipse fill="none" stroke="black" cx="603.511" cy="-996.745" rx="3.2" ry="3.2"/>
</g>
<!-- tokens -->
<g id="node5" class="node"><title>tokens</title>
<g id="a_node5"><a xlink:href="../../tables/tokens.html" xlink:title="tokens" target="_top">
<polygon fill="#ffffff" stroke="none" points="295,-556.906 295,-842.906 566,-842.906 566,-556.906 295,-556.906"/>
<polygon fill="#f5f5f5" stroke="none" points="297.5,-818.906 297.5,-840.906 564.5,-840.906 564.5,-818.906 297.5,-818.906"/>
<polygon fill="none" stroke="black" points="297.5,-818.906 297.5,-840.906 564.5,-840.906 564.5,-818.906 297.5,-818.906"/>
<text text-anchor="start" x="302.5" y="-828.106" font-family="Helvetica,sans-Serif" font-weight="bold" font-size="11.00">tokens</text>
<text text-anchor="start" x="525.5" y="-827.106" font-family="Helvetica,sans-Serif" font-size="11.00">[table]</text>
<polygon fill="none" stroke="black" points="297.5,-796.906 297.5,-818.906 454.5,-818.906 454.5,-796.906 297.5,-796.906"/>
<text text-anchor="start" x="317.5" y="-805.106" font-family="Helvetica,sans-Serif" font-size="11.00">name</text>
<polygon fill="none" stroke="black" points="454.5,-796.906 454.5,-818.906 564.5,-818.906 564.5,-796.906 454.5,-796.906"/>
<text text-anchor="start" x="457.5" y="-805.106" font-family="Helvetica,sans-Serif" font-size="11.00">varchar[255]</text>
<polygon fill="#ffffff" stroke="none" points="297.5,-774.906 297.5,-796.906 454.5,-796.906 454.5,-774.906 297.5,-774.906"/>
<polygon fill="none" stroke="black" points="297.5,-774.906 297.5,-796.906 454.5,-796.906 454.5,-774.906 297.5,-774.906"/>
<text text-anchor="start" x="317.5" y="-783.106" font-family="Helvetica,sans-Serif" font-size="11.00">symbol</text>
<polygon fill="none" stroke="black" points="454.5,-774.906 454.5,-796.906 564.5,-796.906 564.5,-774.906 454.5,-774.906"/>
<text text-anchor="start" x="457.5" y="-783.106" font-family="Helvetica,sans-Serif" font-size="11.00">varchar[255]</text>
<polygon fill="none" stroke="black" points="297.5,-752.906 297.5,-774.906 454.5,-774.906 454.5,-752.906 297.5,-752.906"/>
<text text-anchor="start" x="317.5" y="-761.106" font-family="Helvetica,sans-Serif" font-size="11.00">total_supply</text>
<polygon fill="none" stroke="black" points="454.5,-752.906 454.5,-774.906 564.5,-774.906 564.5,-752.906 454.5,-752.906"/>
<text text-anchor="start" x="457.5" y="-761.106" font-family="Helvetica,sans-Serif" font-size="11.00">numeric[131089]</text>
<polygon fill="none" stroke="black" points="297.5,-730.906 297.5,-752.906 454.5,-752.906 454.5,-730.906 297.5,-730.906"/>
<text text-anchor="start" x="317.5" y="-739.106" font-family="Helvetica,sans-Serif" font-size="11.00">decimals</text>
<polygon fill="none" stroke="black" points="454.5,-730.906 454.5,-752.906 564.5,-752.906 564.5,-730.906 454.5,-730.906"/>
<text text-anchor="start" x="457.5" y="-739.106" font-family="Helvetica,sans-Serif" font-size="11.00">numeric[131089]</text>
<polygon fill="#ffffff" stroke="none" points="297.5,-708.906 297.5,-730.906 454.5,-730.906 454.5,-708.906 297.5,-708.906"/>
<polygon fill="none" stroke="black" points="297.5,-708.906 297.5,-730.906 454.5,-730.906 454.5,-708.906 297.5,-708.906"/>
<text text-anchor="start" x="317.5" y="-717.106" font-family="Helvetica,sans-Serif" font-size="11.00">type</text>
<polygon fill="none" stroke="black" points="454.5,-708.906 454.5,-730.906 564.5,-730.906 564.5,-708.906 454.5,-708.906"/>
<text text-anchor="start" x="457.5" y="-717.106" font-family="Helvetica,sans-Serif" font-size="11.00">varchar[255]</text>
<polygon fill="none" stroke="black" points="297.5,-686.906 297.5,-708.906 454.5,-708.906 454.5,-686.906 297.5,-686.906"/>
<text text-anchor="start" x="317.5" y="-695.106" font-family="Helvetica,sans-Serif" font-size="11.00">cataloged</text>
<polygon fill="none" stroke="black" points="454.5,-686.906 454.5,-708.906 564.5,-708.906 564.5,-686.906 454.5,-686.906"/>
<text text-anchor="start" x="457.5" y="-695.106" font-family="Helvetica,sans-Serif" font-size="11.00">bool[1]</text>
<polygon fill="none" stroke="black" points="297.5,-664.906 297.5,-686.906 454.5,-686.906 454.5,-664.906 297.5,-664.906"/>
<image xlink:href="../../images/primaryKeys.png" width="11px" height="12px" preserveAspectRatio="xMinYMin meet" x="302.5" y="-681.906"/>
<text text-anchor="start" x="317.5" y="-673.106" font-family="Helvetica,sans-Serif" font-size="11.00">contract_address_hash</text>
<polygon fill="none" stroke="black" points="454.5,-664.906 454.5,-686.906 564.5,-686.906 564.5,-664.906 454.5,-664.906"/>
<text text-anchor="start" x="457.5" y="-673.106" font-family="Helvetica,sans-Serif" font-size="11.00">bytea[2147483647]</text>
<polygon fill="none" stroke="black" points="297.5,-642.906 297.5,-664.906 454.5,-664.906 454.5,-642.906 297.5,-642.906"/>
<text text-anchor="start" x="317.5" y="-651.106" font-family="Helvetica,sans-Serif" font-size="11.00">inserted_at</text>
<polygon fill="none" stroke="black" points="454.5,-642.906 454.5,-664.906 564.5,-664.906 564.5,-642.906 454.5,-642.906"/>
<text text-anchor="start" x="457.5" y="-651.106" font-family="Helvetica,sans-Serif" font-size="11.00">timestamp[29,6]</text>
<polygon fill="none" stroke="black" points="297.5,-620.906 297.5,-642.906 454.5,-642.906 454.5,-620.906 297.5,-620.906"/>
<text text-anchor="start" x="317.5" y="-629.106" font-family="Helvetica,sans-Serif" font-size="11.00">updated_at</text>
<polygon fill="none" stroke="black" points="454.5,-620.906 454.5,-642.906 564.5,-642.906 564.5,-620.906 454.5,-620.906"/>
<text text-anchor="start" x="457.5" y="-629.106" font-family="Helvetica,sans-Serif" font-size="11.00">timestamp[29,6]</text>
<polygon fill="none" stroke="black" points="297.5,-598.906 297.5,-620.906 454.5,-620.906 454.5,-598.906 297.5,-598.906"/>
<text text-anchor="start" x="317.5" y="-607.106" font-family="Helvetica,sans-Serif" font-size="11.00">holder_count</text>
<polygon fill="none" stroke="black" points="454.5,-598.906 454.5,-620.906 564.5,-620.906 564.5,-598.906 454.5,-598.906"/>
<text text-anchor="start" x="457.5" y="-607.106" font-family="Helvetica,sans-Serif" font-size="11.00">int4[10]</text>
<polygon fill="none" stroke="black" points="297.5,-576.906 297.5,-598.906 454.5,-598.906 454.5,-576.906 297.5,-576.906"/>
<text text-anchor="start" x="317.5" y="-585.106" font-family="Helvetica,sans-Serif" font-size="11.00">skip_metadata</text>
<polygon fill="none" stroke="black" points="454.5,-576.906 454.5,-598.906 564.5,-598.906 564.5,-576.906 454.5,-576.906"/>
<text text-anchor="start" x="457.5" y="-585.106" font-family="Helvetica,sans-Serif" font-size="11.00">bool[1]</text>
<polygon fill="#ffffff" stroke="none" points="297.5,-558.906 297.5,-576.906 366.5,-576.906 366.5,-558.906 297.5,-558.906"/>
<polygon fill="none" stroke="black" points="297.5,-558.906 297.5,-576.906 366.5,-576.906 366.5,-558.906 297.5,-558.906"/>
<text text-anchor="start" x="300.5" y="-565.106" font-family="Helvetica,sans-Serif" font-size="11.00">&lt; 1</text>
<polygon fill="#ffffff" stroke="none" points="366.5,-558.906 366.5,-576.906 454.5,-576.906 454.5,-558.906 366.5,-558.906"/>
<polygon fill="none" stroke="black" points="366.5,-558.906 366.5,-576.906 454.5,-576.906 454.5,-558.906 366.5,-558.906"/>
<text text-anchor="start" x="415.5" y="-565.106" font-family="Helvetica,sans-Serif" font-size="11.00">0 rows</text>
<polygon fill="#ffffff" stroke="none" points="454.5,-558.906 454.5,-576.906 564.5,-576.906 564.5,-558.906 454.5,-558.906"/>
<polygon fill="none" stroke="black" points="454.5,-558.906 454.5,-576.906 564.5,-576.906 564.5,-558.906 454.5,-558.906"/>
<text text-anchor="start" x="544.5" y="-565.106" font-family="Helvetica,sans-Serif" font-size="11.00">3 &gt;</text>
<polygon fill="none" stroke="black" stroke-width="2" points="296,-557.906 296,-841.906 565,-841.906 565,-557.906 296,-557.906"/>
</a>
</g>
</g>
<!-- address_current_token_balances&#45;&gt;tokens -->
<g id="edge4" class="edge"><title>address_current_token_balances:token_contract_address_hash:w&#45;&gt;tokens:contract_address_hash.type:e</title>
<path fill="none" stroke="black" d="M601.192,-949.079C563.735,-909.014 623.039,-675.906 565.5,-675.906"/>
<polygon fill="black" stroke="black" points="607.172,-951.697 613.056,-958.204 610.836,-953.302 614.5,-954.906 614.5,-954.906 614.5,-954.906 610.836,-953.302 615.944,-951.609 607.172,-951.697 607.172,-951.697"/>
<ellipse fill="none" stroke="black" cx="604.24" cy="-950.414" rx="3.20001" ry="3.20001"/>
</g>
<!-- tokens&#45;&gt;addresses -->
<g id="edge26" class="edge"><title>tokens:contract_address_hash:w&#45;&gt;addresses:hash:e</title>
<path fill="none" stroke="black" d="M286.36,-672.807C243.042,-642.484 305.417,-399.906 247,-399.906"/>
<polygon fill="black" stroke="black" points="296.904,-671.847 294.566,-679.498 293.035,-679.03 295.374,-671.379 296.904,-671.847"/>
<polyline fill="none" stroke="black" points="296.5,-675.906 292.675,-674.737 "/>
<ellipse fill="none" stroke="black" cx="289.615" cy="-673.801" rx="3.20001" ry="3.20001"/>
</g>
<!-- address_token_balances -->
<g id="node6" class="node"><title>address_token_balances</title>
<g id="a_node6"><a xlink:href="../../tables/address_token_balances.html" xlink:title="address_token_balances" target="_top">
<polygon fill="#ffffff" stroke="none" points="633,-529.906 633,-697.906 830,-697.906 830,-529.906 633,-529.906"/>
<polygon fill="#f5f5f5" stroke="none" points="633.5,-675.906 633.5,-697.906 830.5,-697.906 830.5,-675.906 633.5,-675.906"/>
<polygon fill="none" stroke="black" points="633.5,-675.906 633.5,-697.906 830.5,-697.906 830.5,-675.906 633.5,-675.906"/>
<text text-anchor="start" x="638.5" y="-685.106" font-family="Helvetica,sans-Serif" font-weight="bold" font-size="11.00">address_token_balances</text>
<text text-anchor="start" x="791.5" y="-684.106" font-family="Helvetica,sans-Serif" font-size="11.00">[table]</text>
<polygon fill="none" stroke="black" points="633.5,-653.906 633.5,-675.906 830.5,-675.906 830.5,-653.906 633.5,-653.906"/>
<image xlink:href="../../images/primaryKeys.png" width="11px" height="12px" preserveAspectRatio="xMinYMin meet" x="638.5" y="-670.906"/>
<text text-anchor="start" x="653.5" y="-662.106" font-family="Helvetica,sans-Serif" font-size="11.00">id</text>
<polygon fill="#ffffff" stroke="none" points="633.5,-631.906 633.5,-653.906 830.5,-653.906 830.5,-631.906 633.5,-631.906"/>
<polygon fill="none" stroke="black" points="633.5,-631.906 633.5,-653.906 830.5,-653.906 830.5,-631.906 633.5,-631.906"/>
<image xlink:href="../../images/foreignKeys.png" width="11px" height="12px" preserveAspectRatio="xMinYMin meet" x="638.5" y="-648.906"/>
<text text-anchor="start" x="653.5" y="-640.106" font-family="Helvetica,sans-Serif" font-size="11.00">address_hash</text>
<polygon fill="#ffffff" stroke="none" points="633.5,-609.906 633.5,-631.906 830.5,-631.906 830.5,-609.906 633.5,-609.906"/>
<polygon fill="none" stroke="black" points="633.5,-609.906 633.5,-631.906 830.5,-631.906 830.5,-609.906 633.5,-609.906"/>
<text text-anchor="start" x="653.5" y="-618.106" font-family="Helvetica,sans-Serif" font-size="11.00">block_number</text>
<polygon fill="#ffffff" stroke="none" points="633.5,-587.906 633.5,-609.906 830.5,-609.906 830.5,-587.906 633.5,-587.906"/>
<polygon fill="none" stroke="black" points="633.5,-587.906 633.5,-609.906 830.5,-609.906 830.5,-587.906 633.5,-587.906"/>
<image xlink:href="../../images/foreignKeys.png" width="11px" height="12px" preserveAspectRatio="xMinYMin meet" x="638.5" y="-604.906"/>
<text text-anchor="start" x="653.5" y="-596.106" font-family="Helvetica,sans-Serif" font-size="11.00">token_contract_address_hash</text>
<polygon fill="#ffffff" stroke="none" points="633.5,-565.906 633.5,-587.906 830.5,-587.906 830.5,-565.906 633.5,-565.906"/>
<polygon fill="none" stroke="black" points="633.5,-565.906 633.5,-587.906 830.5,-587.906 830.5,-565.906 633.5,-565.906"/>
<text text-anchor="start" x="653.5" y="-574.106" font-family="Helvetica,sans-Serif" font-size="11.00">token_id</text>
<polygon fill="none" stroke="black" points="633.5,-547.906 633.5,-565.906 830.5,-565.906 830.5,-547.906 633.5,-547.906"/>
<text text-anchor="start" x="636.5" y="-554.106" font-family="Helvetica,sans-Serif" font-size="11.00">...</text>
<polygon fill="#ffffff" stroke="none" points="633.5,-529.906 633.5,-547.906 715.5,-547.906 715.5,-529.906 633.5,-529.906"/>
<polygon fill="none" stroke="black" points="633.5,-529.906 633.5,-547.906 715.5,-547.906 715.5,-529.906 633.5,-529.906"/>
<text text-anchor="start" x="636.5" y="-536.106" font-family="Helvetica,sans-Serif" font-size="11.00">&lt; 2</text>
<polygon fill="#ffffff" stroke="none" points="715.5,-529.906 715.5,-547.906 787.5,-547.906 787.5,-529.906 715.5,-529.906"/>
<polygon fill="none" stroke="black" points="715.5,-529.906 715.5,-547.906 787.5,-547.906 787.5,-529.906 715.5,-529.906"/>
<text text-anchor="start" x="748.5" y="-536.106" font-family="Helvetica,sans-Serif" font-size="11.00">0 rows</text>
<polygon fill="#ffffff" stroke="none" points="787.5,-529.906 787.5,-547.906 830.5,-547.906 830.5,-529.906 787.5,-529.906"/>
<polygon fill="none" stroke="black" points="787.5,-529.906 787.5,-547.906 830.5,-547.906 830.5,-529.906 787.5,-529.906"/>
<text text-anchor="start" x="820.5" y="-536.106" font-family="Helvetica,sans-Serif" font-size="11.00"> &#160;</text>
</a>
</g>
</g>
<!-- address_token_balances&#45;&gt;addresses -->
<g id="edge5" class="edge"><title>address_token_balances:address_hash:w&#45;&gt;addresses:hash:e</title>
<path fill="none" stroke="black" d="M618.123,-640.234C589.381,-627.265 611.241,-570.544 574,-546.906 465.679,-478.154 387.31,-595.895 287,-515.906 244.362,-481.906 301.535,-399.906 247,-399.906"/>
<polygon fill="black" stroke="black" points="624.635,-641.444 631.842,-646.446 628.567,-642.175 632.5,-642.906 632.5,-642.906 632.5,-642.906 628.567,-642.175 633.158,-639.367 624.635,-641.444 624.635,-641.444"/>
<ellipse fill="none" stroke="black" cx="621.489" cy="-640.86" rx="3.2" ry="3.2"/>
</g>
<!-- address_token_balances&#45;&gt;tokens -->
<g id="edge6" class="edge"><title>address_token_balances:token_contract_address_hash:w&#45;&gt;tokens:contract_address_hash.type:e</title>
<path fill="none" stroke="black" d="M618.457,-602.215C591.989,-616.953 605.193,-675.906 565.5,-675.906"/>
<polygon fill="black" stroke="black" points="624.713,-600.741 633.326,-602.41 628.607,-599.824 632.5,-598.906 632.5,-598.906 632.5,-598.906 628.607,-599.824 631.674,-595.402 624.713,-600.741 624.713,-600.741"/>
<ellipse fill="none" stroke="black" cx="621.598" cy="-601.475" rx="3.2" ry="3.2"/>
</g>
<!-- block_rewards -->
<g id="node7" class="node"><title>block_rewards</title>
<g id="a_node7"><a xlink:href="../../tables/block_rewards.html" xlink:title="block_rewards" target="_top">
<polygon fill="#ffffff" stroke="none" points="666.5,-399.906 666.5,-457.906 796.5,-457.906 796.5,-399.906 666.5,-399.906"/>
<polygon fill="#f5f5f5" stroke="none" points="666.5,-435.906 666.5,-457.906 796.5,-457.906 796.5,-435.906 666.5,-435.906"/>
<polygon fill="none" stroke="black" points="666.5,-435.906 666.5,-457.906 796.5,-457.906 796.5,-435.906 666.5,-435.906"/>
<text text-anchor="start" x="671.5" y="-445.106" font-family="Helvetica,sans-Serif" font-weight="bold" font-size="11.00">block_rewards</text>
<text text-anchor="start" x="757.5" y="-444.106" font-family="Helvetica,sans-Serif" font-size="11.00">[table]</text>
<polygon fill="none" stroke="black" points="666.5,-417.906 666.5,-435.906 796.5,-435.906 796.5,-417.906 666.5,-417.906"/>
<text text-anchor="start" x="669.5" y="-424.106" font-family="Helvetica,sans-Serif" font-size="11.00">...</text>
<polygon fill="#ffffff" stroke="none" points="666.5,-399.906 666.5,-417.906 715.5,-417.906 715.5,-399.906 666.5,-399.906"/>
<polygon fill="none" stroke="black" points="666.5,-399.906 666.5,-417.906 715.5,-417.906 715.5,-399.906 666.5,-399.906"/>
<text text-anchor="start" x="669.5" y="-406.106" font-family="Helvetica,sans-Serif" font-size="11.00">&lt; 2</text>
<polygon fill="#ffffff" stroke="none" points="715.5,-399.906 715.5,-417.906 770.5,-417.906 770.5,-399.906 715.5,-399.906"/>
<polygon fill="none" stroke="black" points="715.5,-399.906 715.5,-417.906 770.5,-417.906 770.5,-399.906 715.5,-399.906"/>
<text text-anchor="start" x="731.5" y="-406.106" font-family="Helvetica,sans-Serif" font-size="11.00">0 rows</text>
<polygon fill="#ffffff" stroke="none" points="770.5,-399.906 770.5,-417.906 796.5,-417.906 796.5,-399.906 770.5,-399.906"/>
<polygon fill="none" stroke="black" points="770.5,-399.906 770.5,-417.906 796.5,-417.906 796.5,-399.906 770.5,-399.906"/>
<text text-anchor="start" x="786.5" y="-406.106" font-family="Helvetica,sans-Serif" font-size="11.00"> &#160;</text>
</a>
</g>
</g>
<!-- block_rewards&#45;&gt;addresses -->
<g id="edge7" class="edge"><title>block_rewards:elipses:w&#45;&gt;addresses:hash:e</title>
<path fill="none" stroke="black" d="M651.022,-427.445C621.385,-429.773 609.779,-438.993 574,-441.906 446.865,-452.258 404.242,-492.153 287,-441.906 263.306,-431.752 272.778,-399.906 247,-399.906"/>
<polygon fill="black" stroke="black" points="657.506,-427.204 665.634,-430.504 661.503,-427.055 665.5,-426.906 665.5,-426.906 665.5,-426.906 661.503,-427.055 665.366,-423.309 657.506,-427.204 657.506,-427.204"/>
<ellipse fill="none" stroke="black" cx="654.308" cy="-427.322" rx="3.2" ry="3.2"/>
</g>
<!-- blocks -->
<g id="node8" class="node"><title>blocks</title>
<g id="a_node8"><a xlink:href="../../tables/blocks.html" xlink:title="blocks" target="_top">
<polygon fill="#ffffff" stroke="none" points="386.5,-293.906 386.5,-351.906 474.5,-351.906 474.5,-293.906 386.5,-293.906"/>
<polygon fill="#f5f5f5" stroke="none" points="386.5,-329.906 386.5,-351.906 474.5,-351.906 474.5,-329.906 386.5,-329.906"/>
<polygon fill="none" stroke="black" points="386.5,-329.906 386.5,-351.906 474.5,-351.906 474.5,-329.906 386.5,-329.906"/>
<text text-anchor="start" x="391.5" y="-339.106" font-family="Helvetica,sans-Serif" font-weight="bold" font-size="11.00">blocks</text>
<text text-anchor="start" x="435.5" y="-338.106" font-family="Helvetica,sans-Serif" font-size="11.00">[table]</text>
<polygon fill="none" stroke="black" points="386.5,-311.906 386.5,-329.906 474.5,-329.906 474.5,-311.906 386.5,-311.906"/>
<text text-anchor="start" x="389.5" y="-318.106" font-family="Helvetica,sans-Serif" font-size="11.00">...</text>
<polygon fill="#ffffff" stroke="none" points="386.5,-293.906 386.5,-311.906 409.5,-311.906 409.5,-293.906 386.5,-293.906"/>
<polygon fill="none" stroke="black" points="386.5,-293.906 386.5,-311.906 409.5,-311.906 409.5,-293.906 386.5,-293.906"/>
<text text-anchor="start" x="389.5" y="-300.106" font-family="Helvetica,sans-Serif" font-size="11.00">&lt; 1</text>
<polygon fill="#ffffff" stroke="none" points="409.5,-293.906 409.5,-311.906 451.5,-311.906 451.5,-293.906 409.5,-293.906"/>
<polygon fill="none" stroke="black" points="409.5,-293.906 409.5,-311.906 451.5,-311.906 451.5,-293.906 409.5,-293.906"/>
<text text-anchor="start" x="412.5" y="-300.106" font-family="Helvetica,sans-Serif" font-size="11.00">3 rows</text>
<polygon fill="#ffffff" stroke="none" points="451.5,-293.906 451.5,-311.906 474.5,-311.906 474.5,-293.906 451.5,-293.906"/>
<polygon fill="none" stroke="black" points="451.5,-293.906 451.5,-311.906 474.5,-311.906 474.5,-293.906 451.5,-293.906"/>
<text text-anchor="start" x="454.5" y="-300.106" font-family="Helvetica,sans-Serif" font-size="11.00">8 &gt;</text>
</a>
</g>
</g>
<!-- block_rewards&#45;&gt;blocks -->
<g id="edge8" class="edge"><title>block_rewards:elipses:w&#45;&gt;blocks:elipses:e</title>
<path fill="none" stroke="black" d="M650.926,-425.547C615.668,-418.364 612.646,-384.356 574,-362.906 532.389,-339.81 523.091,-320.906 475.5,-320.906"/>
<polygon fill="black" stroke="black" points="657.535,-426.163 665.166,-430.491 661.517,-426.535 665.5,-426.906 665.5,-426.906 665.5,-426.906 661.517,-426.535 665.834,-423.322 657.535,-426.163 657.535,-426.163"/>
<ellipse fill="none" stroke="black" cx="654.348" cy="-425.866" rx="3.2" ry="3.2"/>
</g>
<!-- blocks&#45;&gt;addresses -->
<g id="edge9" class="edge"><title>blocks:elipses:w&#45;&gt;addresses:hash:e</title>
<path fill="none" stroke="black" d="M370.641,-321.518C335.053,-324.685 322.42,-339.965 287,-362.906 266.674,-376.071 271.217,-399.906 247,-399.906"/>
<polygon fill="black" stroke="black" points="377.507,-321.235 385.648,-324.503 381.503,-321.071 385.5,-320.906 385.5,-320.906 385.5,-320.906 381.503,-321.071 385.352,-317.309 377.507,-321.235 377.507,-321.235"/>
<ellipse fill="none" stroke="black" cx="374.309" cy="-321.367" rx="3.2" ry="3.2"/>
</g>
<!-- decompiled_smart_contracts -->
<g id="node9" class="node"><title>decompiled_smart_contracts</title>
<g id="a_node9"><a xlink:href="../../tables/decompiled_smart_contracts.html" xlink:title="decompiled_smart_contracts" target="_top">
<polygon fill="#ffffff" stroke="none" points="324,-372.906 324,-430.906 537,-430.906 537,-372.906 324,-372.906"/>
<polygon fill="#f5f5f5" stroke="none" points="324.5,-408.906 324.5,-430.906 537.5,-430.906 537.5,-408.906 324.5,-408.906"/>
<polygon fill="none" stroke="black" points="324.5,-408.906 324.5,-430.906 537.5,-430.906 537.5,-408.906 324.5,-408.906"/>
<text text-anchor="start" x="329.5" y="-418.106" font-family="Helvetica,sans-Serif" font-weight="bold" font-size="11.00">decompiled_smart_contracts</text>
<text text-anchor="start" x="498.5" y="-417.106" font-family="Helvetica,sans-Serif" font-size="11.00">[table]</text>
<polygon fill="none" stroke="black" points="324.5,-390.906 324.5,-408.906 537.5,-408.906 537.5,-390.906 324.5,-390.906"/>
<text text-anchor="start" x="327.5" y="-397.106" font-family="Helvetica,sans-Serif" font-size="11.00">...</text>
<polygon fill="#ffffff" stroke="none" points="324.5,-372.906 324.5,-390.906 414.5,-390.906 414.5,-372.906 324.5,-372.906"/>
<polygon fill="none" stroke="black" points="324.5,-372.906 324.5,-390.906 414.5,-390.906 414.5,-372.906 324.5,-372.906"/>
<text text-anchor="start" x="327.5" y="-379.106" font-family="Helvetica,sans-Serif" font-size="11.00">&lt; 1</text>
<polygon fill="#ffffff" stroke="none" points="414.5,-372.906 414.5,-390.906 490.5,-390.906 490.5,-372.906 414.5,-372.906"/>
<polygon fill="none" stroke="black" points="414.5,-372.906 414.5,-390.906 490.5,-390.906 490.5,-372.906 414.5,-372.906"/>
<text text-anchor="start" x="451.5" y="-379.106" font-family="Helvetica,sans-Serif" font-size="11.00">0 rows</text>
<polygon fill="#ffffff" stroke="none" points="490.5,-372.906 490.5,-390.906 537.5,-390.906 537.5,-372.906 490.5,-372.906"/>
<polygon fill="none" stroke="black" points="490.5,-372.906 490.5,-390.906 537.5,-390.906 537.5,-372.906 490.5,-372.906"/>
<text text-anchor="start" x="527.5" y="-379.106" font-family="Helvetica,sans-Serif" font-size="11.00"> &#160;</text>
</a>
</g>
</g>
<!-- decompiled_smart_contracts&#45;&gt;addresses -->
<g id="edge10" class="edge"><title>decompiled_smart_contracts:elipses:w&#45;&gt;addresses:hash:e</title>
<path fill="none" stroke="black" d="M308.917,-399.906C286.123,-399.906 275.555,-399.906 247,-399.906"/>
<polygon fill="black" stroke="black" points="315.5,-399.906 323.5,-403.506 319.5,-399.906 323.5,-399.906 323.5,-399.906 323.5,-399.906 319.5,-399.906 323.5,-396.306 315.5,-399.906 315.5,-399.906"/>
<ellipse fill="none" stroke="black" cx="312.3" cy="-399.906" rx="3.2" ry="3.2"/>
</g>
<!-- internal_transactions -->
<g id="node10" class="node"><title>internal_transactions</title>
<g id="a_node10"><a xlink:href="../../tables/internal_transactions.html" xlink:title="internal_transactions" target="_top">
<polygon fill="#ffffff" stroke="none" points="897,-466.906 897,-524.906 1068,-524.906 1068,-466.906 897,-466.906"/>
<polygon fill="#f5f5f5" stroke="none" points="897.5,-502.906 897.5,-524.906 1068.5,-524.906 1068.5,-502.906 897.5,-502.906"/>
<polygon fill="none" stroke="black" points="897.5,-502.906 897.5,-524.906 1068.5,-524.906 1068.5,-502.906 897.5,-502.906"/>
<text text-anchor="start" x="902.5" y="-512.106" font-family="Helvetica,sans-Serif" font-weight="bold" font-size="11.00">internal_transactions</text>
<text text-anchor="start" x="1029.5" y="-511.106" font-family="Helvetica,sans-Serif" font-size="11.00">[table]</text>
<polygon fill="none" stroke="black" points="897.5,-484.906 897.5,-502.906 1068.5,-502.906 1068.5,-484.906 897.5,-484.906"/>
<text text-anchor="start" x="900.5" y="-491.106" font-family="Helvetica,sans-Serif" font-size="11.00">...</text>
<polygon fill="#ffffff" stroke="none" points="897.5,-466.906 897.5,-484.906 969.5,-484.906 969.5,-466.906 897.5,-466.906"/>
<polygon fill="none" stroke="black" points="897.5,-466.906 897.5,-484.906 969.5,-484.906 969.5,-466.906 897.5,-466.906"/>
<text text-anchor="start" x="900.5" y="-473.106" font-family="Helvetica,sans-Serif" font-size="11.00">&lt; 5</text>
<polygon fill="#ffffff" stroke="none" points="969.5,-466.906 969.5,-484.906 1030.5,-484.906 1030.5,-466.906 969.5,-466.906"/>
<polygon fill="none" stroke="black" points="969.5,-466.906 969.5,-484.906 1030.5,-484.906 1030.5,-466.906 969.5,-466.906"/>
<text text-anchor="start" x="996.5" y="-473.106" font-family="Helvetica,sans-Serif" font-size="11.00">1 row</text>
<polygon fill="#ffffff" stroke="none" points="1030.5,-466.906 1030.5,-484.906 1068.5,-484.906 1068.5,-466.906 1030.5,-466.906"/>
<polygon fill="none" stroke="black" points="1030.5,-466.906 1030.5,-484.906 1068.5,-484.906 1068.5,-466.906 1030.5,-466.906"/>
<text text-anchor="start" x="1058.5" y="-473.106" font-family="Helvetica,sans-Serif" font-size="11.00"> &#160;</text>
</a>
</g>
</g>
<!-- internal_transactions&#45;&gt;addresses -->
<g id="edge12" class="edge"><title>internal_transactions:elipses:w&#45;&gt;addresses:hash:e</title>
<path fill="none" stroke="black" d="M881.838,-494.036C736.772,-496.422 399.959,-530.196 287,-463.906 258.071,-446.929 280.543,-399.906 247,-399.906"/>
<polygon fill="black" stroke="black" points="888.5,-493.977 896.532,-497.506 892.5,-493.942 896.5,-493.906 896.5,-493.906 896.5,-493.906 892.5,-493.942 896.468,-490.306 888.5,-493.977 888.5,-493.977"/>
<ellipse fill="none" stroke="black" cx="885.3" cy="-494.005" rx="3.2" ry="3.2"/>
</g>
<!-- internal_transactions&#45;&gt;addresses -->
<g id="edge13" class="edge"><title>internal_transactions:elipses:w&#45;&gt;addresses:hash:e</title>
<path fill="none" stroke="black" d="M881.836,-493.423C736.783,-490.066 400.748,-518.923 287,-453.906 259.175,-438.002 279.049,-393.906 247,-399.906"/>
<polygon fill="black" stroke="black" points="888.504,-493.643 896.381,-497.504 892.502,-493.775 896.5,-493.906 896.5,-493.906 896.5,-493.906 892.502,-493.775 896.619,-490.308 888.504,-493.643 888.504,-493.643"/>
<ellipse fill="none" stroke="black" cx="885.306" cy="-493.538" rx="3.2" ry="3.2"/>
</g>
<!-- internal_transactions&#45;&gt;addresses -->
<g id="edge14" class="edge"><title>internal_transactions:elipses:w&#45;&gt;addresses:hash:e</title>
<path fill="none" stroke="black" d="M881.836,-494.711C736.783,-503.066 400.748,-531.923 287,-466.906 259.175,-451.002 279.049,-406.906 247,-399.906"/>
<polygon fill="black" stroke="black" points="888.512,-494.345 896.697,-497.501 892.506,-494.126 896.5,-493.906 896.5,-493.906 896.5,-493.906 892.506,-494.126 896.303,-490.312 888.512,-494.345 888.512,-494.345"/>
<ellipse fill="none" stroke="black" cx="885.317" cy="-494.52" rx="3.2" ry="3.2"/>
</g>
<!-- internal_transactions&#45;&gt;blocks -->
<g id="edge11" class="edge"><title>internal_transactions:elipses:w&#45;&gt;blocks:elipses:e</title>
<path fill="none" stroke="black" d="M882.103,-490.713C857.485,-476.332 889.82,-417.11 856,-389.906 768.717,-319.698 717.004,-372.043 607,-350.906 548.131,-339.595 535.446,-320.906 475.5,-320.906"/>
<polygon fill="black" stroke="black" points="888.69,-492.174 895.72,-497.421 892.595,-493.04 896.5,-493.906 896.5,-493.906 896.5,-493.906 892.595,-493.04 897.28,-490.392 888.69,-492.174 888.69,-492.174"/>
<ellipse fill="none" stroke="black" cx="885.566" cy="-491.481" rx="3.2" ry="3.2"/>
</g>
<!-- transactions -->
<g id="node11" class="node"><title>transactions</title>
<g id="a_node11"><a xlink:href="../../tables/transactions.html" xlink:title="transactions" target="_top">
<polygon fill="#ffffff" stroke="none" points="671.5,-238.906 671.5,-296.906 791.5,-296.906 791.5,-238.906 671.5,-238.906"/>
<polygon fill="#f5f5f5" stroke="none" points="671.5,-274.906 671.5,-296.906 791.5,-296.906 791.5,-274.906 671.5,-274.906"/>
<polygon fill="none" stroke="black" points="671.5,-274.906 671.5,-296.906 791.5,-296.906 791.5,-274.906 671.5,-274.906"/>
<text text-anchor="start" x="676.5" y="-284.106" font-family="Helvetica,sans-Serif" font-weight="bold" font-size="11.00">transactions</text>
<text text-anchor="start" x="752.5" y="-283.106" font-family="Helvetica,sans-Serif" font-size="11.00">[table]</text>
<polygon fill="none" stroke="black" points="671.5,-256.906 671.5,-274.906 791.5,-274.906 791.5,-256.906 671.5,-256.906"/>
<text text-anchor="start" x="674.5" y="-263.106" font-family="Helvetica,sans-Serif" font-size="11.00">...</text>
<polygon fill="#ffffff" stroke="none" points="671.5,-238.906 671.5,-256.906 712.5,-256.906 712.5,-238.906 671.5,-238.906"/>
<polygon fill="none" stroke="black" points="671.5,-238.906 671.5,-256.906 712.5,-256.906 712.5,-238.906 671.5,-238.906"/>
<text text-anchor="start" x="674.5" y="-245.106" font-family="Helvetica,sans-Serif" font-size="11.00">&lt; 4</text>
<polygon fill="#ffffff" stroke="none" points="712.5,-238.906 712.5,-256.906 758.5,-256.906 758.5,-238.906 712.5,-238.906"/>
<polygon fill="none" stroke="black" points="712.5,-238.906 712.5,-256.906 758.5,-256.906 758.5,-238.906 712.5,-238.906"/>
<text text-anchor="start" x="724.5" y="-245.106" font-family="Helvetica,sans-Serif" font-size="11.00">1 row</text>
<polygon fill="#ffffff" stroke="none" points="758.5,-238.906 758.5,-256.906 791.5,-256.906 791.5,-238.906 758.5,-238.906"/>
<polygon fill="none" stroke="black" points="758.5,-238.906 758.5,-256.906 791.5,-256.906 791.5,-238.906 758.5,-238.906"/>
<text text-anchor="start" x="771.5" y="-245.106" font-family="Helvetica,sans-Serif" font-size="11.00">4 &gt;</text>
</a>
</g>
</g>
<!-- internal_transactions&#45;&gt;transactions -->
<g id="edge15" class="edge"><title>internal_transactions:elipses:w&#45;&gt;transactions:elipses:e</title>
<path fill="none" stroke="black" d="M881.834,-491.879C844.834,-479.659 878.743,-414.709 856,-365.906 833.761,-318.186 845.148,-265.906 792.5,-265.906"/>
<polygon fill="black" stroke="black" points="888.575,-492.811 896.007,-497.472 892.538,-493.359 896.5,-493.906 896.5,-493.906 896.5,-493.906 892.538,-493.359 896.993,-490.34 888.575,-492.811 888.575,-492.811"/>
<ellipse fill="none" stroke="black" cx="885.406" cy="-492.373" rx="3.2" ry="3.2"/>
</g>
<!-- transactions&#45;&gt;addresses -->
<g id="edge28" class="edge"><title>transactions:elipses:w&#45;&gt;addresses:hash:e</title>
<path fill="none" stroke="black" d="M655.742,-265.696C495.346,-261.128 419.574,-184.617 287,-283.906 243.35,-316.597 301.535,-399.906 247,-399.906"/>
<polygon fill="black" stroke="black" points="662.501,-265.792 670.449,-269.506 666.5,-265.849 670.5,-265.906 670.5,-265.906 670.5,-265.906 666.5,-265.849 670.551,-262.307 662.501,-265.792 662.501,-265.792"/>
<ellipse fill="none" stroke="black" cx="659.301" cy="-265.747" rx="3.2" ry="3.2"/>
</g>
<!-- transactions&#45;&gt;addresses -->
<g id="edge29" class="edge"><title>transactions:elipses:w&#45;&gt;addresses:hash:e</title>
<path fill="none" stroke="black" d="M655.735,-265.194C495.265,-255.358 419.674,-182.6 287,-281.906 244.684,-313.58 299.857,-393.906 247,-399.906"/>
<polygon fill="black" stroke="black" points="662.509,-265.521 670.327,-269.502 666.505,-265.714 670.5,-265.906 670.5,-265.906 670.5,-265.906 666.505,-265.714 670.673,-262.31 662.509,-265.521 662.509,-265.521"/>
<ellipse fill="none" stroke="black" cx="659.313" cy="-265.367" rx="3.2" ry="3.2"/>
</g>
<!-- transactions&#45;&gt;addresses -->
<g id="edge30" class="edge"><title>transactions:elipses:w&#45;&gt;addresses:hash:e</title>
<path fill="none" stroke="black" d="M655.735,-266.304C495.265,-268.358 419.674,-195.6 287,-294.906 244.684,-326.58 299.857,-406.906 247,-399.906"/>
<polygon fill="black" stroke="black" points="662.503,-266.122 670.597,-269.505 666.501,-266.014 670.5,-265.906 670.5,-265.906 670.5,-265.906 666.501,-266.014 670.403,-262.308 662.503,-266.122 662.503,-266.122"/>
<ellipse fill="none" stroke="black" cx="659.304" cy="-266.208" rx="3.2" ry="3.2"/>
</g>
<!-- transactions&#45;&gt;blocks -->
<g id="edge27" class="edge"><title>transactions:elipses:w&#45;&gt;blocks:elipses:e</title>
<path fill="none" stroke="black" d="M655.895,-266.416C578.523,-271.96 560.448,-320.906 475.5,-320.906"/>
<polygon fill="black" stroke="black" points="662.505,-266.185 670.625,-269.504 666.502,-266.046 670.5,-265.906 670.5,-265.906 670.5,-265.906 666.502,-266.046 670.375,-262.308 662.505,-266.185 662.505,-266.185"/>
<ellipse fill="none" stroke="black" cx="659.307" cy="-266.297" rx="3.2" ry="3.2"/>
</g>
<!-- logs -->
<g id="node12" class="node"><title>logs</title>
<g id="a_node12"><a xlink:href="../../tables/logs.html" xlink:title="logs" target="_top">
<polygon fill="#ffffff" stroke="none" points="943.5,-238.906 943.5,-296.906 1021.5,-296.906 1021.5,-238.906 943.5,-238.906"/>
<polygon fill="#f5f5f5" stroke="none" points="943.5,-274.906 943.5,-296.906 1021.5,-296.906 1021.5,-274.906 943.5,-274.906"/>
<polygon fill="none" stroke="black" points="943.5,-274.906 943.5,-296.906 1021.5,-296.906 1021.5,-274.906 943.5,-274.906"/>
<text text-anchor="start" x="948.5" y="-284.106" font-family="Helvetica,sans-Serif" font-weight="bold" font-size="11.00">logs</text>
<text text-anchor="start" x="982.5" y="-283.106" font-family="Helvetica,sans-Serif" font-size="11.00">[table]</text>
<polygon fill="none" stroke="black" points="943.5,-256.906 943.5,-274.906 1021.5,-274.906 1021.5,-256.906 943.5,-256.906"/>
<text text-anchor="start" x="946.5" y="-263.106" font-family="Helvetica,sans-Serif" font-size="11.00">...</text>
<polygon fill="#ffffff" stroke="none" points="943.5,-238.906 943.5,-256.906 966.5,-256.906 966.5,-238.906 943.5,-238.906"/>
<polygon fill="none" stroke="black" points="943.5,-238.906 943.5,-256.906 966.5,-256.906 966.5,-238.906 943.5,-238.906"/>
<text text-anchor="start" x="946.5" y="-245.106" font-family="Helvetica,sans-Serif" font-size="11.00">&lt; 3</text>
<polygon fill="#ffffff" stroke="none" points="966.5,-238.906 966.5,-256.906 1008.5,-256.906 1008.5,-238.906 966.5,-238.906"/>
<polygon fill="none" stroke="black" points="966.5,-238.906 966.5,-256.906 1008.5,-256.906 1008.5,-238.906 966.5,-238.906"/>
<text text-anchor="start" x="969.5" y="-245.106" font-family="Helvetica,sans-Serif" font-size="11.00">0 rows</text>
<polygon fill="#ffffff" stroke="none" points="1008.5,-238.906 1008.5,-256.906 1021.5,-256.906 1021.5,-238.906 1008.5,-238.906"/>
<polygon fill="none" stroke="black" points="1008.5,-238.906 1008.5,-256.906 1021.5,-256.906 1021.5,-238.906 1008.5,-238.906"/>
<text text-anchor="start" x="1011.5" y="-245.106" font-family="Helvetica,sans-Serif" font-size="11.00"> &#160;</text>
</a>
</g>
</g>
<!-- logs&#45;&gt;addresses -->
<g id="edge16" class="edge"><title>logs:elipses:w&#45;&gt;addresses:hash:e</title>
<path fill="none" stroke="black" d="M928.067,-264.585C899.107,-258.867 891.682,-236.217 856,-228.906 806.097,-218.681 295.042,-226.481 287,-232.906 227.372,-280.546 323.322,-399.906 247,-399.906"/>
<polygon fill="black" stroke="black" points="934.533,-265.177 942.172,-269.491 938.517,-265.542 942.5,-265.906 942.5,-265.906 942.5,-265.906 938.517,-265.542 942.828,-262.321 934.533,-265.177 934.533,-265.177"/>
<ellipse fill="none" stroke="black" cx="931.347" cy="-264.885" rx="3.2" ry="3.2"/>
</g>
<!-- logs&#45;&gt;blocks -->
<g id="edge17" class="edge"><title>logs:elipses:w&#45;&gt;blocks:elipses:e</title>
<path fill="none" stroke="black" d="M928.129,-267.7C895.365,-276.739 896.447,-317.403 856,-330.906 695.536,-384.477 644.67,-320.906 475.5,-320.906"/>
<polygon fill="black" stroke="black" points="934.562,-266.897 942.946,-269.479 938.531,-266.402 942.5,-265.906 942.5,-265.906 942.5,-265.906 938.531,-266.402 942.054,-262.334 934.562,-266.897 934.562,-266.897"/>
<ellipse fill="none" stroke="black" cx="931.386" cy="-267.293" rx="3.2" ry="3.2"/>
</g>
<!-- logs&#45;&gt;transactions -->
<g id="edge18" class="edge"><title>logs:elipses:w&#45;&gt;transactions:elipses:e</title>
<path fill="none" stroke="black" d="M928.092,-265.906C873.004,-265.906 854.089,-265.906 792.5,-265.906"/>
<polygon fill="black" stroke="black" points="934.5,-265.906 942.5,-269.506 938.5,-265.906 942.5,-265.906 942.5,-265.906 942.5,-265.906 938.5,-265.906 942.5,-262.306 934.5,-265.906 934.5,-265.906"/>
<ellipse fill="none" stroke="black" cx="931.3" cy="-265.906" rx="3.2" ry="3.2"/>
</g>
<!-- smart_contracts -->
<g id="node13" class="node"><title>smart_contracts</title>
<g id="a_node13"><a xlink:href="../../tables/smart_contracts.html" xlink:title="smart_contracts" target="_top">
<polygon fill="#ffffff" stroke="none" points="360,-136.906 360,-194.906 501,-194.906 501,-136.906 360,-136.906"/>
<polygon fill="#f5f5f5" stroke="none" points="360.5,-172.906 360.5,-194.906 501.5,-194.906 501.5,-172.906 360.5,-172.906"/>
<polygon fill="none" stroke="black" points="360.5,-172.906 360.5,-194.906 501.5,-194.906 501.5,-172.906 360.5,-172.906"/>
<text text-anchor="start" x="365.5" y="-182.106" font-family="Helvetica,sans-Serif" font-weight="bold" font-size="11.00">smart_contracts</text>
<text text-anchor="start" x="462.5" y="-181.106" font-family="Helvetica,sans-Serif" font-size="11.00">[table]</text>
<polygon fill="none" stroke="black" points="360.5,-154.906 360.5,-172.906 501.5,-172.906 501.5,-154.906 360.5,-154.906"/>
<text text-anchor="start" x="363.5" y="-161.106" font-family="Helvetica,sans-Serif" font-size="11.00">...</text>
<polygon fill="#ffffff" stroke="none" points="360.5,-136.906 360.5,-154.906 409.5,-154.906 409.5,-136.906 360.5,-136.906"/>
<polygon fill="none" stroke="black" points="360.5,-136.906 360.5,-154.906 409.5,-154.906 409.5,-136.906 360.5,-136.906"/>
<text text-anchor="start" x="363.5" y="-143.106" font-family="Helvetica,sans-Serif" font-size="11.00">&lt; 1</text>
<polygon fill="#ffffff" stroke="none" points="409.5,-136.906 409.5,-154.906 464.5,-154.906 464.5,-136.906 409.5,-136.906"/>
<polygon fill="none" stroke="black" points="409.5,-136.906 409.5,-154.906 464.5,-154.906 464.5,-136.906 409.5,-136.906"/>
<text text-anchor="start" x="425.5" y="-143.106" font-family="Helvetica,sans-Serif" font-size="11.00">0 rows</text>
<polygon fill="#ffffff" stroke="none" points="464.5,-136.906 464.5,-154.906 501.5,-154.906 501.5,-136.906 464.5,-136.906"/>
<polygon fill="none" stroke="black" points="464.5,-136.906 464.5,-154.906 501.5,-154.906 501.5,-136.906 464.5,-136.906"/>
<text text-anchor="start" x="481.5" y="-143.106" font-family="Helvetica,sans-Serif" font-size="11.00">1 &gt;</text>
</a>
</g>
</g>
<!-- smart_contracts&#45;&gt;addresses -->
<g id="edge19" class="edge"><title>smart_contracts:elipses:w&#45;&gt;addresses:hash:e</title>
<path fill="none" stroke="black" d="M349.076,-164.308C318.986,-166.791 306.629,-180.874 287,-208.906 237.253,-279.951 333.73,-399.906 247,-399.906"/>
<polygon fill="black" stroke="black" points="358.547,-159.94 358.855,-167.934 357.256,-167.996 356.948,-160.002 358.547,-159.94"/>
<polyline fill="none" stroke="black" points="359.5,-163.906 355.503,-164.06 "/>
<ellipse fill="none" stroke="black" cx="352.305" cy="-164.184" rx="3.2" ry="3.2"/>
</g>
<!-- token_instances -->
<g id="node14" class="node"><title>token_instances</title>
<g id="a_node14"><a xlink:href="../../tables/token_instances.html" xlink:title="token_instances" target="_top">
<polygon fill="#ffffff" stroke="none" points="633,-718.906 633,-842.906 830,-842.906 830,-718.906 633,-718.906"/>
<polygon fill="#f5f5f5" stroke="none" points="633.5,-820.906 633.5,-842.906 830.5,-842.906 830.5,-820.906 633.5,-820.906"/>
<polygon fill="none" stroke="black" points="633.5,-820.906 633.5,-842.906 830.5,-842.906 830.5,-820.906 633.5,-820.906"/>
<text text-anchor="start" x="638.5" y="-830.106" font-family="Helvetica,sans-Serif" font-weight="bold" font-size="11.00">token_instances</text>
<text text-anchor="start" x="791.5" y="-829.106" font-family="Helvetica,sans-Serif" font-size="11.00">[table]</text>
<polygon fill="none" stroke="black" points="633.5,-798.906 633.5,-820.906 830.5,-820.906 830.5,-798.906 633.5,-798.906"/>
<image xlink:href="../../images/primaryKeys.png" width="11px" height="12px" preserveAspectRatio="xMinYMin meet" x="638.5" y="-815.906"/>
<text text-anchor="start" x="653.5" y="-807.106" font-family="Helvetica,sans-Serif" font-size="11.00">token_id</text>
<polygon fill="none" stroke="black" points="633.5,-776.906 633.5,-798.906 830.5,-798.906 830.5,-776.906 633.5,-776.906"/>
<image xlink:href="../../images/primaryKeys.png" width="11px" height="12px" preserveAspectRatio="xMinYMin meet" x="638.5" y="-793.906"/>
<text text-anchor="start" x="653.5" y="-785.106" font-family="Helvetica,sans-Serif" font-size="11.00">token_contract_address_hash</text>
<polygon fill="#ffffff" stroke="none" points="633.5,-754.906 633.5,-776.906 830.5,-776.906 830.5,-754.906 633.5,-754.906"/>
<polygon fill="none" stroke="black" points="633.5,-754.906 633.5,-776.906 830.5,-776.906 830.5,-754.906 633.5,-754.906"/>
<text text-anchor="start" x="653.5" y="-763.106" font-family="Helvetica,sans-Serif" font-size="11.00">error</text>
<polygon fill="none" stroke="black" points="633.5,-736.906 633.5,-754.906 830.5,-754.906 830.5,-736.906 633.5,-736.906"/>
<text text-anchor="start" x="636.5" y="-743.106" font-family="Helvetica,sans-Serif" font-size="11.00">...</text>
<polygon fill="#ffffff" stroke="none" points="633.5,-718.906 633.5,-736.906 715.5,-736.906 715.5,-718.906 633.5,-718.906"/>
<polygon fill="none" stroke="black" points="633.5,-718.906 633.5,-736.906 715.5,-736.906 715.5,-718.906 633.5,-718.906"/>
<text text-anchor="start" x="636.5" y="-725.106" font-family="Helvetica,sans-Serif" font-size="11.00">&lt; 1</text>
<polygon fill="#ffffff" stroke="none" points="715.5,-718.906 715.5,-736.906 787.5,-736.906 787.5,-718.906 715.5,-718.906"/>
<polygon fill="none" stroke="black" points="715.5,-718.906 715.5,-736.906 787.5,-736.906 787.5,-718.906 715.5,-718.906"/>
<text text-anchor="start" x="748.5" y="-725.106" font-family="Helvetica,sans-Serif" font-size="11.00">0 rows</text>
<polygon fill="#ffffff" stroke="none" points="787.5,-718.906 787.5,-736.906 830.5,-736.906 830.5,-718.906 787.5,-718.906"/>
<polygon fill="none" stroke="black" points="787.5,-718.906 787.5,-736.906 830.5,-736.906 830.5,-718.906 787.5,-718.906"/>
<text text-anchor="start" x="820.5" y="-725.106" font-family="Helvetica,sans-Serif" font-size="11.00"> &#160;</text>
</a>
</g>
</g>
<!-- token_instances&#45;&gt;tokens -->
<g id="edge20" class="edge"><title>token_instances:token_contract_address_hash:w&#45;&gt;tokens:contract_address_hash.type:e</title>
<path fill="none" stroke="black" d="M618.369,-784.911C583.047,-767.099 617.84,-675.906 565.5,-675.906"/>
<polygon fill="black" stroke="black" points="624.674,-786.247 631.753,-791.428 628.587,-787.077 632.5,-787.906 632.5,-787.906 632.5,-787.906 628.587,-787.077 633.247,-784.385 624.674,-786.247 624.674,-786.247"/>
<ellipse fill="none" stroke="black" cx="621.543" cy="-785.584" rx="3.2" ry="3.2"/>
</g>
<!-- token_transfers -->
<g id="node15" class="node"><title>token_transfers</title>
<g id="a_node15"><a xlink:href="../../tables/token_transfers.html" xlink:title="token_transfers" target="_top">
<polygon fill="#ffffff" stroke="none" points="913.5,-73.9063 913.5,-131.906 1051.5,-131.906 1051.5,-73.9063 913.5,-73.9063"/>
<polygon fill="#f5f5f5" stroke="none" points="913.5,-109.906 913.5,-131.906 1051.5,-131.906 1051.5,-109.906 913.5,-109.906"/>
<polygon fill="none" stroke="black" points="913.5,-109.906 913.5,-131.906 1051.5,-131.906 1051.5,-109.906 913.5,-109.906"/>
<text text-anchor="start" x="918.5" y="-119.106" font-family="Helvetica,sans-Serif" font-weight="bold" font-size="11.00">token_transfers</text>
<text text-anchor="start" x="1012.5" y="-118.106" font-family="Helvetica,sans-Serif" font-size="11.00">[table]</text>
<polygon fill="none" stroke="black" points="913.5,-91.9063 913.5,-109.906 1051.5,-109.906 1051.5,-91.9063 913.5,-91.9063"/>
<text text-anchor="start" x="916.5" y="-98.1063" font-family="Helvetica,sans-Serif" font-size="11.00">...</text>
<polygon fill="#ffffff" stroke="none" points="913.5,-73.9063 913.5,-91.9063 966.5,-91.9063 966.5,-73.9063 913.5,-73.9063"/>
<polygon fill="none" stroke="black" points="913.5,-73.9063 913.5,-91.9063 966.5,-91.9063 966.5,-73.9063 913.5,-73.9063"/>
<text text-anchor="start" x="916.5" y="-80.1063" font-family="Helvetica,sans-Serif" font-size="11.00">&lt; 5</text>
<polygon fill="#ffffff" stroke="none" points="966.5,-73.9063 966.5,-91.9063 1023.5,-91.9063 1023.5,-73.9063 966.5,-73.9063"/>
<polygon fill="none" stroke="black" points="966.5,-73.9063 966.5,-91.9063 1023.5,-91.9063 1023.5,-73.9063 966.5,-73.9063"/>
<text text-anchor="start" x="984.5" y="-80.1063" font-family="Helvetica,sans-Serif" font-size="11.00">0 rows</text>
<polygon fill="#ffffff" stroke="none" points="1023.5,-73.9063 1023.5,-91.9063 1051.5,-91.9063 1051.5,-73.9063 1023.5,-73.9063"/>
<polygon fill="none" stroke="black" points="1023.5,-73.9063 1023.5,-91.9063 1051.5,-91.9063 1051.5,-73.9063 1023.5,-73.9063"/>
<text text-anchor="start" x="1041.5" y="-80.1063" font-family="Helvetica,sans-Serif" font-size="11.00"> &#160;</text>
</a>
</g>
</g>
<!-- token_transfers&#45;&gt;addresses -->
<g id="edge22" class="edge"><title>token_transfers:elipses:w&#45;&gt;addresses:hash:e</title>
<path fill="none" stroke="black" d="M897.955,-100.76C629.318,-95.3487 490.152,56.9581 287,-125.906 241.265,-167.074 308.534,-399.906 247,-399.906"/>
<polygon fill="black" stroke="black" points="904.5,-100.826 912.464,-104.506 908.5,-100.866 912.5,-100.906 912.5,-100.906 912.5,-100.906 908.5,-100.866 912.536,-97.3065 904.5,-100.826 904.5,-100.826"/>
<ellipse fill="none" stroke="black" cx="901.301" cy="-100.793" rx="3.2" ry="3.2"/>
</g>
<!-- token_transfers&#45;&gt;addresses -->
<g id="edge23" class="edge"><title>token_transfers:elipses:w&#45;&gt;addresses:hash:e</title>
<path fill="none" stroke="black" d="M897.95,-100.452C629.233,-89.4711 489.817,59.4415 287,-123.906 242.005,-164.582 307.655,-393.906 247,-399.906"/>
<polygon fill="black" stroke="black" points="904.504,-100.657 912.388,-104.505 908.502,-100.781 912.5,-100.906 912.5,-100.906 912.5,-100.906 908.502,-100.781 912.612,-97.3081 904.504,-100.657 904.504,-100.657"/>
<ellipse fill="none" stroke="black" cx="901.305" cy="-100.557" rx="3.2" ry="3.2"/>
</g>
<!-- token_transfers&#45;&gt;addresses -->
<g id="edge24" class="edge"><title>token_transfers:elipses:w&#45;&gt;addresses:hash:e</title>
<path fill="none" stroke="black" d="M897.95,-101.126C629.233,-102.471 489.817,46.4415 287,-136.906 242.005,-177.582 307.655,-406.906 247,-399.906"/>
<polygon fill="black" stroke="black" points="904.501,-101.027 912.554,-104.506 908.5,-100.967 912.5,-100.906 912.5,-100.906 912.5,-100.906 908.5,-100.967 912.446,-97.3067 904.501,-101.027 904.501,-101.027"/>
<ellipse fill="none" stroke="black" cx="901.301" cy="-101.075" rx="3.2" ry="3.2"/>
</g>
<!-- token_transfers&#45;&gt;blocks -->
<g id="edge21" class="edge"><title>token_transfers:elipses:w&#45;&gt;blocks:elipses:e</title>
<path fill="none" stroke="black" d="M897.809,-102.381C829.807,-117.926 926.412,-252.209 856,-307.906 822.823,-334.151 517.802,-320.906 475.5,-320.906"/>
<polygon fill="black" stroke="black" points="904.54,-101.706 912.86,-104.488 908.52,-101.306 912.5,-100.906 912.5,-100.906 912.5,-100.906 908.52,-101.306 912.14,-97.3243 904.54,-101.706 904.54,-101.706"/>
<ellipse fill="none" stroke="black" cx="901.356" cy="-102.025" rx="3.2" ry="3.2"/>
</g>
<!-- token_transfers&#45;&gt;transactions -->
<g id="edge25" class="edge"><title>token_transfers:elipses:w&#45;&gt;transactions:elipses:e</title>
<path fill="none" stroke="black" d="M898.065,-102.539C828.491,-119.676 877.863,-265.906 792.5,-265.906"/>
<polygon fill="black" stroke="black" points="904.551,-101.806 912.905,-104.483 908.525,-101.356 912.5,-100.906 912.5,-100.906 912.5,-100.906 908.525,-101.356 912.095,-97.3291 904.551,-101.806 904.551,-101.806"/>
<ellipse fill="none" stroke="black" cx="901.371" cy="-102.165" rx="3.2" ry="3.2"/>
</g>
</g>
</svg>
