<?xml version="1.0" encoding="UTF-8" standalone="no"?>
<!DOCTYPE svg PUBLIC "-//W3C//DTD SVG 1.1//EN"
 "http://www.w3.org/Graphics/SVG/1.1/DTD/svg11.dtd">
<!-- Generated by graphviz version 2.38.0 (20140413.2041)
 -->
<!-- Title: oneDegreeRelationshipsDiagram Pages: 1 -->
<svg width="864pt" height="573pt"
 viewBox="0.00 0.00 864.00 573.00" xmlns="http://www.w3.org/2000/svg" xmlns:xlink="http://www.w3.org/1999/xlink">
<g id="graph0" class="graph" transform="scale(1 1) rotate(0) translate(4 569)">
<title>oneDegreeRelationshipsDiagram</title>
<polygon fill="#ffffff" stroke="none" points="-4,4 -4,-569 860,-569 860,4 -4,4"/>
<text text-anchor="middle" x="74.5" y="-7.2" font-family="Helvetica,sans-Serif" font-size="11.00">Generated by SchemaSpy</text>
<!-- address_current_token_balances -->
<g id="node1" class="node"><title>address_current_token_balances</title>
<g id="a_node1"><a xlink:href="../../tables/address_current_token_balances.html" xlink:title="address_current_token_balances" target="_top">
<polygon fill="#ffffff" stroke="none" points="615,-371 615,-561 848,-561 848,-371 615,-371"/>
<polygon fill="#f5f5f5" stroke="none" points="615.5,-539 615.5,-561 848.5,-561 848.5,-539 615.5,-539"/>
<polygon fill="none" stroke="black" points="615.5,-539 615.5,-561 848.5,-561 848.5,-539 615.5,-539"/>
<text text-anchor="start" x="620.5" y="-548.2" font-family="Helvetica,sans-Serif" font-weight="bold" font-size="11.00">address_current_token_balances</text>
<text text-anchor="start" x="809.5" y="-547.2" font-family="Helvetica,sans-Serif" font-size="11.00">[table]</text>
<polygon fill="none" stroke="black" points="615.5,-517 615.5,-539 848.5,-539 848.5,-517 615.5,-517"/>
<image xlink:href="../../images/primaryKeys.png" width="11px" height="12px" preserveAspectRatio="xMinYMin meet" x="620.5" y="-534"/>
<text text-anchor="start" x="644.5" y="-525.2" font-family="Helvetica,sans-Serif" font-size="11.00">id</text>
<polygon fill="#ffffff" stroke="none" points="615.5,-495 615.5,-517 848.5,-517 848.5,-495 615.5,-495"/>
<polygon fill="none" stroke="black" points="615.5,-495 615.5,-517 848.5,-517 848.5,-495 615.5,-495"/>
<image xlink:href="../../images/foreignKeys.png" width="11px" height="12px" preserveAspectRatio="xMinYMin meet" x="620.5" y="-512"/>
<text text-anchor="start" x="644.5" y="-503.2" font-family="Helvetica,sans-Serif" font-size="11.00">address_hash</text>
<polygon fill="#ffffff" stroke="none" points="615.5,-473 615.5,-495 848.5,-495 848.5,-473 615.5,-473"/>
<polygon fill="none" stroke="black" points="615.5,-473 615.5,-495 848.5,-495 848.5,-473 615.5,-473"/>
<text text-anchor="start" x="644.5" y="-481.2" font-family="Helvetica,sans-Serif" font-size="11.00">block_number</text>
<polygon fill="#ffffff" stroke="none" points="615.5,-451 615.5,-473 848.5,-473 848.5,-451 615.5,-451"/>
<polygon fill="none" stroke="black" points="615.5,-451 615.5,-473 848.5,-473 848.5,-451 615.5,-451"/>
<image xlink:href="../../images/foreignKeys.png" width="11px" height="12px" preserveAspectRatio="xMinYMin meet" x="620.5" y="-468"/>
<text text-anchor="start" x="644.5" y="-459.2" font-family="Helvetica,sans-Serif" font-size="11.00">token_contract_address_hash</text>
<polygon fill="#ffffff" stroke="none" points="615.5,-429 615.5,-451 848.5,-451 848.5,-429 615.5,-429"/>
<polygon fill="none" stroke="black" points="615.5,-429 615.5,-451 848.5,-451 848.5,-429 615.5,-429"/>
<text text-anchor="start" x="644.5" y="-437.2" font-family="Helvetica,sans-Serif" font-size="11.00">value</text>
<polygon fill="#ffffff" stroke="none" points="615.5,-407 615.5,-429 848.5,-429 848.5,-407 615.5,-407"/>
<polygon fill="none" stroke="black" points="615.5,-407 615.5,-429 848.5,-429 848.5,-407 615.5,-407"/>
<text text-anchor="start" x="644.5" y="-415.2" font-family="Helvetica,sans-Serif" font-size="11.00">token_id</text>
<polygon fill="none" stroke="black" points="615.5,-389 615.5,-407 848.5,-407 848.5,-389 615.5,-389"/>
<text text-anchor="start" x="618.5" y="-395.2" font-family="Helvetica,sans-Serif" font-size="11.00">...</text>
<polygon fill="#ffffff" stroke="none" points="615.5,-371 615.5,-389 715.5,-389 715.5,-371 615.5,-371"/>
<polygon fill="none" stroke="black" points="615.5,-371 615.5,-389 715.5,-389 715.5,-371 615.5,-371"/>
<text text-anchor="start" x="618.5" y="-377.2" font-family="Helvetica,sans-Serif" font-size="11.00">&lt; 2</text>
<polygon fill="#ffffff" stroke="none" points="715.5,-371 715.5,-389 796.5,-389 796.5,-371 715.5,-371"/>
<polygon fill="none" stroke="black" points="715.5,-371 715.5,-389 796.5,-389 796.5,-371 715.5,-371"/>
<text text-anchor="start" x="757.5" y="-377.2" font-family="Helvetica,sans-Serif" font-size="11.00">0 rows</text>
<polygon fill="#ffffff" stroke="none" points="796.5,-371 796.5,-389 848.5,-389 848.5,-371 796.5,-371"/>
<polygon fill="none" stroke="black" points="796.5,-371 796.5,-389 848.5,-389 848.5,-371 796.5,-371"/>
<text text-anchor="start" x="838.5" y="-377.2" font-family="Helvetica,sans-Serif" font-size="11.00"> &#160;</text>
</a>
</g>
</g>
<!-- addresses -->
<g id="node2" class="node"><title>addresses</title>
<g id="a_node2"><a xlink:href="../../tables/addresses.html" xlink:title="addresses" target="_top">
<polygon fill="#ffffff" stroke="none" points="8,-226 8,-350 246,-350 246,-226 8,-226"/>
<polygon fill="#f5f5f5" stroke="none" points="8,-328 8,-350 246,-350 246,-328 8,-328"/>
<polygon fill="none" stroke="black" points="8,-328 8,-350 246,-350 246,-328 8,-328"/>
<text text-anchor="start" x="13" y="-337.2" font-family="Helvetica,sans-Serif" font-weight="bold" font-size="11.00">addresses</text>
<text text-anchor="start" x="207" y="-336.2" font-family="Helvetica,sans-Serif" font-size="11.00">[table]</text>
<polygon fill="#ffffff" stroke="none" points="8,-306 8,-328 246,-328 246,-306 8,-306"/>
<polygon fill="none" stroke="black" points="8,-306 8,-328 246,-328 246,-306 8,-306"/>
<text text-anchor="start" x="28" y="-314.2" font-family="Helvetica,sans-Serif" font-size="11.00">fetched_coin_balance</text>
<polygon fill="none" stroke="black" points="8,-284 8,-306 246,-306 246,-284 8,-284"/>
<image xlink:href="../../images/primaryKeys.png" width="11px" height="12px" preserveAspectRatio="xMinYMin meet" x="13" y="-301"/>
<text text-anchor="start" x="28" y="-292.2" font-family="Helvetica,sans-Serif" font-size="11.00">hash</text>
<polygon fill="#ffffff" stroke="none" points="8,-262 8,-284 246,-284 246,-262 8,-262"/>
<polygon fill="none" stroke="black" points="8,-262 8,-284 246,-284 246,-262 8,-262"/>
<text text-anchor="start" x="28" y="-270.2" font-family="Helvetica,sans-Serif" font-size="11.00">inserted_at</text>
<polygon fill="none" stroke="black" points="8,-244 8,-262 246,-262 246,-244 8,-244"/>
<text text-anchor="start" x="11" y="-250.2" font-family="Helvetica,sans-Serif" font-size="11.00">...</text>
<polygon fill="#ffffff" stroke="none" points="8,-226 8,-244 97,-244 97,-226 8,-226"/>
<polygon fill="none" stroke="black" points="8,-226 8,-244 97,-244 97,-226 8,-226"/>
<text text-anchor="start" x="11" y="-232.2" font-family="Helvetica,sans-Serif" font-size="11.00"> &#160;</text>
<polygon fill="#ffffff" stroke="none" points="97,-226 97,-244 177,-244 177,-226 97,-226"/>
<polygon fill="none" stroke="black" points="97,-226 97,-244 177,-244 177,-226 97,-226"/>
<text text-anchor="start" x="138" y="-232.2" font-family="Helvetica,sans-Serif" font-size="11.00">2 rows</text>
<polygon fill="#ffffff" stroke="none" points="177,-226 177,-244 246,-244 246,-226 177,-226"/>
<polygon fill="none" stroke="black" points="177,-226 177,-244 246,-244 246,-226 177,-226"/>
<text text-anchor="start" x="219" y="-232.2" font-family="Helvetica,sans-Serif" font-size="11.00">19 &gt;</text>
</a>
</g>
</g>
<!-- address_current_token_balances&#45;&gt;addresses -->
<g id="edge1" class="edge"><title>address_current_token_balances:address_hash:w&#45;&gt;addresses:hash:e</title>
<path fill="none" stroke="black" d="M599.756,-506.215C463.261,-510.188 392.749,-566.705 287,-473 226.313,-419.225 328.084,-295 247,-295"/>
<polygon fill="black" stroke="black" points="606.501,-506.117 614.553,-509.6 610.5,-506.058 614.5,-506 614.5,-506 614.5,-506 610.5,-506.058 614.447,-502.4 606.501,-506.117 606.501,-506.117"/>
<ellipse fill="none" stroke="black" cx="603.301" cy="-506.164" rx="3.2" ry="3.2"/>
</g>
<!-- tokens -->
<g id="node3" class="node"><title>tokens</title>
<g id="a_node3"><a xlink:href="../../tables/tokens.html" xlink:title="tokens" target="_top">
<polygon fill="#ffffff" stroke="none" points="295,-176 295,-462 566,-462 566,-176 295,-176"/>
<polygon fill="#f5f5f5" stroke="none" points="297.5,-438 297.5,-460 564.5,-460 564.5,-438 297.5,-438"/>
<polygon fill="none" stroke="black" points="297.5,-438 297.5,-460 564.5,-460 564.5,-438 297.5,-438"/>
<text text-anchor="start" x="302.5" y="-447.2" font-family="Helvetica,sans-Serif" font-weight="bold" font-size="11.00">tokens</text>
<text text-anchor="start" x="525.5" y="-446.2" font-family="Helvetica,sans-Serif" font-size="11.00">[table]</text>
<polygon fill="none" stroke="black" points="297.5,-416 297.5,-438 454.5,-438 454.5,-416 297.5,-416"/>
<text text-anchor="start" x="317.5" y="-424.2" font-family="Helvetica,sans-Serif" font-size="11.00">name</text>
<polygon fill="none" stroke="black" points="454.5,-416 454.5,-438 564.5,-438 564.5,-416 454.5,-416"/>
<text text-anchor="start" x="457.5" y="-424.2" font-family="Helvetica,sans-Serif" font-size="11.00">varchar[255]</text>
<polygon fill="#ffffff" stroke="none" points="297.5,-394 297.5,-416 454.5,-416 454.5,-394 297.5,-394"/>
<polygon fill="none" stroke="black" points="297.5,-394 297.5,-416 454.5,-416 454.5,-394 297.5,-394"/>
<text text-anchor="start" x="317.5" y="-402.2" font-family="Helvetica,sans-Serif" font-size="11.00">symbol</text>
<polygon fill="none" stroke="black" points="454.5,-394 454.5,-416 564.5,-416 564.5,-394 454.5,-394"/>
<text text-anchor="start" x="457.5" y="-402.2" font-family="Helvetica,sans-Serif" font-size="11.00">varchar[255]</text>
<polygon fill="none" stroke="black" points="297.5,-372 297.5,-394 454.5,-394 454.5,-372 297.5,-372"/>
<text text-anchor="start" x="317.5" y="-380.2" font-family="Helvetica,sans-Serif" font-size="11.00">total_supply</text>
<polygon fill="none" stroke="black" points="454.5,-372 454.5,-394 564.5,-394 564.5,-372 454.5,-372"/>
<text text-anchor="start" x="457.5" y="-380.2" font-family="Helvetica,sans-Serif" font-size="11.00">numeric[131089]</text>
<polygon fill="none" stroke="black" points="297.5,-350 297.5,-372 454.5,-372 454.5,-350 297.5,-350"/>
<text text-anchor="start" x="317.5" y="-358.2" font-family="Helvetica,sans-Serif" font-size="11.00">decimals</text>
<polygon fill="none" stroke="black" points="454.5,-350 454.5,-372 564.5,-372 564.5,-350 454.5,-350"/>
<text text-anchor="start" x="457.5" y="-358.2" font-family="Helvetica,sans-Serif" font-size="11.00">numeric[131089]</text>
<polygon fill="#ffffff" stroke="none" points="297.5,-328 297.5,-350 454.5,-350 454.5,-328 297.5,-328"/>
<polygon fill="none" stroke="black" points="297.5,-328 297.5,-350 454.5,-350 454.5,-328 297.5,-328"/>
<text text-anchor="start" x="317.5" y="-336.2" font-family="Helvetica,sans-Serif" font-size="11.00">type</text>
<polygon fill="none" stroke="black" points="454.5,-328 454.5,-350 564.5,-350 564.5,-328 454.5,-328"/>
<text text-anchor="start" x="457.5" y="-336.2" font-family="Helvetica,sans-Serif" font-size="11.00">varchar[255]</text>
<polygon fill="none" stroke="black" points="297.5,-306 297.5,-328 454.5,-328 454.5,-306 297.5,-306"/>
<text text-anchor="start" x="317.5" y="-314.2" font-family="Helvetica,sans-Serif" font-size="11.00">cataloged</text>
<polygon fill="none" stroke="black" points="454.5,-306 454.5,-328 564.5,-328 564.5,-306 454.5,-306"/>
<text text-anchor="start" x="457.5" y="-314.2" font-family="Helvetica,sans-Serif" font-size="11.00">bool[1]</text>
<polygon fill="none" stroke="black" points="297.5,-284 297.5,-306 454.5,-306 454.5,-284 297.5,-284"/>
<image xlink:href="../../images/primaryKeys.png" width="11px" height="12px" preserveAspectRatio="xMinYMin meet" x="302.5" y="-301"/>
<text text-anchor="start" x="317.5" y="-292.2" font-family="Helvetica,sans-Serif" font-size="11.00">contract_address_hash</text>
<polygon fill="none" stroke="black" points="454.5,-284 454.5,-306 564.5,-306 564.5,-284 454.5,-284"/>
<text text-anchor="start" x="457.5" y="-292.2" font-family="Helvetica,sans-Serif" font-size="11.00">bytea[2147483647]</text>
<polygon fill="none" stroke="black" points="297.5,-262 297.5,-284 454.5,-284 454.5,-262 297.5,-262"/>
<text text-anchor="start" x="317.5" y="-270.2" font-family="Helvetica,sans-Serif" font-size="11.00">inserted_at</text>
<polygon fill="none" stroke="black" points="454.5,-262 454.5,-284 564.5,-284 564.5,-262 454.5,-262"/>
<text text-anchor="start" x="457.5" y="-270.2" font-family="Helvetica,sans-Serif" font-size="11.00">timestamp[29,6]</text>
<polygon fill="none" stroke="black" points="297.5,-240 297.5,-262 454.5,-262 454.5,-240 297.5,-240"/>
<text text-anchor="start" x="317.5" y="-248.2" font-family="Helvetica,sans-Serif" font-size="11.00">updated_at</text>
<polygon fill="none" stroke="black" points="454.5,-240 454.5,-262 564.5,-262 564.5,-240 454.5,-240"/>
<text text-anchor="start" x="457.5" y="-248.2" font-family="Helvetica,sans-Serif" font-size="11.00">timestamp[29,6]</text>
<polygon fill="none" stroke="black" points="297.5,-218 297.5,-240 454.5,-240 454.5,-218 297.5,-218"/>
<text text-anchor="start" x="317.5" y="-226.2" font-family="Helvetica,sans-Serif" font-size="11.00">holder_count</text>
<polygon fill="none" stroke="black" points="454.5,-218 454.5,-240 564.5,-240 564.5,-218 454.5,-218"/>
<text text-anchor="start" x="457.5" y="-226.2" font-family="Helvetica,sans-Serif" font-size="11.00">int4[10]</text>
<polygon fill="none" stroke="black" points="297.5,-196 297.5,-218 454.5,-218 454.5,-196 297.5,-196"/>
<text text-anchor="start" x="317.5" y="-204.2" font-family="Helvetica,sans-Serif" font-size="11.00">skip_metadata</text>
<polygon fill="none" stroke="black" points="454.5,-196 454.5,-218 564.5,-218 564.5,-196 454.5,-196"/>
<text text-anchor="start" x="457.5" y="-204.2" font-family="Helvetica,sans-Serif" font-size="11.00">bool[1]</text>
<polygon fill="#ffffff" stroke="none" points="297.5,-178 297.5,-196 366.5,-196 366.5,-178 297.5,-178"/>
<polygon fill="none" stroke="black" points="297.5,-178 297.5,-196 366.5,-196 366.5,-178 297.5,-178"/>
<text text-anchor="start" x="300.5" y="-184.2" font-family="Helvetica,sans-Serif" font-size="11.00">&lt; 1</text>
<polygon fill="#ffffff" stroke="none" points="366.5,-178 366.5,-196 454.5,-196 454.5,-178 366.5,-178"/>
<polygon fill="none" stroke="black" points="366.5,-178 366.5,-196 454.5,-196 454.5,-178 366.5,-178"/>
<text text-anchor="start" x="415.5" y="-184.2" font-family="Helvetica,sans-Serif" font-size="11.00">0 rows</text>
<polygon fill="#ffffff" stroke="none" points="454.5,-178 454.5,-196 564.5,-196 564.5,-178 454.5,-178"/>
<polygon fill="none" stroke="black" points="454.5,-178 454.5,-196 564.5,-196 564.5,-178 454.5,-178"/>
<text text-anchor="start" x="544.5" y="-184.2" font-family="Helvetica,sans-Serif" font-size="11.00">3 &gt;</text>
<polygon fill="none" stroke="black" stroke-width="2" points="296,-177 296,-461 565,-461 565,-177 296,-177"/>
</a>
</g>
</g>
<!-- address_current_token_balances&#45;&gt;tokens -->
<g id="edge2" class="edge"><title>address_current_token_balances:token_contract_address_hash:w&#45;&gt;tokens:contract_address_hash.type:e</title>
<path fill="none" stroke="black" d="M600.153,-459.377C551.831,-438.131 637.11,-295 565.5,-295"/>
<polygon fill="black" stroke="black" points="606.63,-460.561 613.853,-465.541 610.565,-461.281 614.5,-462 614.5,-462 614.5,-462 610.565,-461.281 615.147,-458.459 606.63,-460.561 606.63,-460.561"/>
<ellipse fill="none" stroke="black" cx="603.483" cy="-459.986" rx="3.2" ry="3.2"/>
</g>
<!-- tokens&#45;&gt;addresses -->
<g id="edge6" class="edge"><title>tokens:contract_address_hash:w&#45;&gt;addresses:hash:e</title>
<path fill="none" stroke="black" d="M286.047,-295C271.991,-295 265.047,-295 247,-295"/>
<polygon fill="black" stroke="black" points="295.7,-291 295.7,-299 294.1,-299 294.1,-291 295.7,-291"/>
<polyline fill="none" stroke="black" points="296.5,-295 292.5,-295 "/>
<ellipse fill="none" stroke="black" cx="289.3" cy="-295" rx="3.2" ry="3.2"/>
</g>
<!-- address_token_balances -->
<g id="node4" class="node"><title>address_token_balances</title>
<g id="a_node4"><a xlink:href="../../tables/address_token_balances.html" xlink:title="address_token_balances" target="_top">
<polygon fill="#ffffff" stroke="none" points="633,-37 633,-205 830,-205 830,-37 633,-37"/>
<polygon fill="#f5f5f5" stroke="none" points="633.5,-183 633.5,-205 830.5,-205 830.5,-183 633.5,-183"/>
<polygon fill="none" stroke="black" points="633.5,-183 633.5,-205 830.5,-205 830.5,-183 633.5,-183"/>
<text text-anchor="start" x="638.5" y="-192.2" font-family="Helvetica,sans-Serif" font-weight="bold" font-size="11.00">address_token_balances</text>
<text text-anchor="start" x="791.5" y="-191.2" font-family="Helvetica,sans-Serif" font-size="11.00">[table]</text>
<polygon fill="none" stroke="black" points="633.5,-161 633.5,-183 830.5,-183 830.5,-161 633.5,-161"/>
<image xlink:href="../../images/primaryKeys.png" width="11px" height="12px" preserveAspectRatio="xMinYMin meet" x="638.5" y="-178"/>
<text text-anchor="start" x="653.5" y="-169.2" font-family="Helvetica,sans-Serif" font-size="11.00">id</text>
<polygon fill="#ffffff" stroke="none" points="633.5,-139 633.5,-161 830.5,-161 830.5,-139 633.5,-139"/>
<polygon fill="none" stroke="black" points="633.5,-139 633.5,-161 830.5,-161 830.5,-139 633.5,-139"/>
<image xlink:href="../../images/foreignKeys.png" width="11px" height="12px" preserveAspectRatio="xMinYMin meet" x="638.5" y="-156"/>
<text text-anchor="start" x="653.5" y="-147.2" font-family="Helvetica,sans-Serif" font-size="11.00">address_hash</text>
<polygon fill="#ffffff" stroke="none" points="633.5,-117 633.5,-139 830.5,-139 830.5,-117 633.5,-117"/>
<polygon fill="none" stroke="black" points="633.5,-117 633.5,-139 830.5,-139 830.5,-117 633.5,-117"/>
<text text-anchor="start" x="653.5" y="-125.2" font-family="Helvetica,sans-Serif" font-size="11.00">block_number</text>
<polygon fill="#ffffff" stroke="none" points="633.5,-95 633.5,-117 830.5,-117 830.5,-95 633.5,-95"/>
<polygon fill="none" stroke="black" points="633.5,-95 633.5,-117 830.5,-117 830.5,-95 633.5,-95"/>
<image xlink:href="../../images/foreignKeys.png" width="11px" height="12px" preserveAspectRatio="xMinYMin meet" x="638.5" y="-112"/>
<text text-anchor="start" x="653.5" y="-103.2" font-family="Helvetica,sans-Serif" font-size="11.00">token_contract_address_hash</text>
<polygon fill="#ffffff" stroke="none" points="633.5,-73 633.5,-95 830.5,-95 830.5,-73 633.5,-73"/>
<polygon fill="none" stroke="black" points="633.5,-73 633.5,-95 830.5,-95 830.5,-73 633.5,-73"/>
<text text-anchor="start" x="653.5" y="-81.2" font-family="Helvetica,sans-Serif" font-size="11.00">token_id</text>
<polygon fill="none" stroke="black" points="633.5,-55 633.5,-73 830.5,-73 830.5,-55 633.5,-55"/>
<text text-anchor="start" x="636.5" y="-61.2" font-family="Helvetica,sans-Serif" font-size="11.00">...</text>
<polygon fill="#ffffff" stroke="none" points="633.5,-37 633.5,-55 715.5,-55 715.5,-37 633.5,-37"/>
<polygon fill="none" stroke="black" points="633.5,-37 633.5,-55 715.5,-55 715.5,-37 633.5,-37"/>
<text text-anchor="start" x="636.5" y="-43.2" font-family="Helvetica,sans-Serif" font-size="11.00">&lt; 2</text>
<polygon fill="#ffffff" stroke="none" points="715.5,-37 715.5,-55 787.5,-55 787.5,-37 715.5,-37"/>
<polygon fill="none" stroke="black" points="715.5,-37 715.5,-55 787.5,-55 787.5,-37 715.5,-37"/>
<text text-anchor="start" x="748.5" y="-43.2" font-family="Helvetica,sans-Serif" font-size="11.00">0 rows</text>
<polygon fill="#ffffff" stroke="none" points="787.5,-37 787.5,-55 830.5,-55 830.5,-37 787.5,-37"/>
<polygon fill="none" stroke="black" points="787.5,-37 787.5,-55 830.5,-55 830.5,-37 787.5,-37"/>
<text text-anchor="start" x="820.5" y="-43.2" font-family="Helvetica,sans-Serif" font-size="11.00"> &#160;</text>
</a>
</g>
</g>
<!-- address_token_balances&#45;&gt;addresses -->
<g id="edge3" class="edge"><title>address_token_balances:address_hash:w&#45;&gt;addresses:hash:e</title>
<path fill="none" stroke="black" d="M617.894,-149.765C474.204,-145.149 404.688,-75.0008 287,-166 239.513,-202.718 307.026,-295 247,-295"/>
<polygon fill="black" stroke="black" points="624.501,-149.871 632.442,-153.6 628.501,-149.936 632.5,-150 632.5,-150 632.5,-150 628.501,-149.936 632.558,-146.4 624.501,-149.871 624.501,-149.871"/>
<ellipse fill="none" stroke="black" cx="621.301" cy="-149.82" rx="3.2" ry="3.2"/>
</g>
<!-- address_token_balances&#45;&gt;tokens -->
<g id="edge4" class="edge"><title>address_token_balances:token_contract_address_hash:w&#45;&gt;tokens:contract_address_hash.type:e</title>
<path fill="none" stroke="black" d="M618.04,-108.123C556.501,-128.887 649.052,-295 565.5,-295"/>
<polygon fill="black" stroke="black" points="624.585,-107.162 633.023,-109.562 628.542,-106.581 632.5,-106 632.5,-106 632.5,-106 628.542,-106.581 631.977,-102.438 624.585,-107.162 624.585,-107.162"/>
<ellipse fill="none" stroke="black" cx="621.419" cy="-107.627" rx="3.2" ry="3.2"/>
</g>
<!-- token_instances -->
<g id="node5" class="node"><title>token_instances</title>
<g id="a_node5"><a xlink:href="../../tables/token_instances.html" xlink:title="token_instances" target="_top">
<polygon fill="#ffffff" stroke="none" points="633,-226 633,-350 830,-350 830,-226 633,-226"/>
<polygon fill="#f5f5f5" stroke="none" points="633.5,-328 633.5,-350 830.5,-350 830.5,-328 633.5,-328"/>
<polygon fill="none" stroke="black" points="633.5,-328 633.5,-350 830.5,-350 830.5,-328 633.5,-328"/>
<text text-anchor="start" x="638.5" y="-337.2" font-family="Helvetica,sans-Serif" font-weight="bold" font-size="11.00">token_instances</text>
<text text-anchor="start" x="791.5" y="-336.2" font-family="Helvetica,sans-Serif" font-size="11.00">[table]</text>
<polygon fill="none" stroke="black" points="633.5,-306 633.5,-328 830.5,-328 830.5,-306 633.5,-306"/>
<image xlink:href="../../images/primaryKeys.png" width="11px" height="12px" preserveAspectRatio="xMinYMin meet" x="638.5" y="-323"/>
<text text-anchor="start" x="653.5" y="-314.2" font-family="Helvetica,sans-Serif" font-size="11.00">token_id</text>
<polygon fill="none" stroke="black" points="633.5,-284 633.5,-306 830.5,-306 830.5,-284 633.5,-284"/>
<image xlink:href="../../images/primaryKeys.png" width="11px" height="12px" preserveAspectRatio="xMinYMin meet" x="638.5" y="-301"/>
<text text-anchor="start" x="653.5" y="-292.2" font-family="Helvetica,sans-Serif" font-size="11.00">token_contract_address_hash</text>
<polygon fill="#ffffff" stroke="none" points="633.5,-262 633.5,-284 830.5,-284 830.5,-262 633.5,-262"/>
<polygon fill="none" stroke="black" points="633.5,-262 633.5,-284 830.5,-284 830.5,-262 633.5,-262"/>
<text text-anchor="start" x="653.5" y="-270.2" font-family="Helvetica,sans-Serif" font-size="11.00">error</text>
<polygon fill="none" stroke="black" points="633.5,-244 633.5,-262 830.5,-262 830.5,-244 633.5,-244"/>
<text text-anchor="start" x="636.5" y="-250.2" font-family="Helvetica,sans-Serif" font-size="11.00">...</text>
<polygon fill="#ffffff" stroke="none" points="633.5,-226 633.5,-244 715.5,-244 715.5,-226 633.5,-226"/>
<polygon fill="none" stroke="black" points="633.5,-226 633.5,-244 715.5,-244 715.5,-226 633.5,-226"/>
<text text-anchor="start" x="636.5" y="-232.2" font-family="Helvetica,sans-Serif" font-size="11.00">&lt; 1</text>
<polygon fill="#ffffff" stroke="none" points="715.5,-226 715.5,-244 787.5,-244 787.5,-226 715.5,-226"/>
<polygon fill="none" stroke="black" points="715.5,-226 715.5,-244 787.5,-244 787.5,-226 715.5,-226"/>
<text text-anchor="start" x="748.5" y="-232.2" font-family="Helvetica,sans-Serif" font-size="11.00">0 rows</text>
<polygon fill="#ffffff" stroke="none" points="787.5,-226 787.5,-244 830.5,-244 830.5,-226 787.5,-226"/>
<polygon fill="none" stroke="black" points="787.5,-226 787.5,-244 830.5,-244 830.5,-226 787.5,-226"/>
<text text-anchor="start" x="820.5" y="-232.2" font-family="Helvetica,sans-Serif" font-size="11.00"> &#160;</text>
</a>
</g>
</g>
<!-- token_instances&#45;&gt;tokens -->
<g id="edge5" class="edge"><title>token_instances:token_contract_address_hash:w&#45;&gt;tokens:contract_address_hash.type:e</title>
<path fill="none" stroke="black" d="M618.081,-295C599.236,-295 589.811,-295 565.5,-295"/>
<polygon fill="black" stroke="black" points="624.5,-295 632.5,-298.6 628.5,-295 632.5,-295 632.5,-295 632.5,-295 628.5,-295 632.5,-291.4 624.5,-295 624.5,-295"/>
<ellipse fill="none" stroke="black" cx="621.3" cy="-295" rx="3.2" ry="3.2"/>
</g>
</g>
</svg>
