<?xml version="1.0" encoding="UTF-8" standalone="no"?>
<!DOCTYPE svg PUBLIC "-//W3C//DTD SVG 1.1//EN"
 "http://www.w3.org/Graphics/SVG/1.1/DTD/svg11.dtd">
<!-- Generated by graphviz version 9.0.0 (20230911.1827)
 -->
<!-- Title: oneDegreeRelationshipsDiagramImplied Pages: 1 -->
<svg width="569pt" height="445pt"
 viewBox="0.00 0.00 569.00 445.00" xmlns="http://www.w3.org/2000/svg" xmlns:xlink="http://www.w3.org/1999/xlink">
<g id="graph0" class="graph" transform="scale(1 1) rotate(0) translate(4 441)">
<title>oneDegreeRelationshipsDiagramImplied</title>
<polygon fill="#ffffff" stroke="none" points="-4,4 -4,-441 565,-441 565,4 -4,4"/>
<text text-anchor="middle" x="71.38" y="-5.55" font-family="Helvetica,sans-Serif" font-size="11.00">Generated by SchemaSpy</text>
<!-- token_instances -->
<g id="node1" class="node">
<title>token_instances</title>
<g id="a_node1"><a xlink:href="../../tables/token_instances.html" xlink:title="token_instances" target="_top">
<polygon fill="#ffffff" stroke="none" points="359,-153 359,-321 553,-321 553,-153 359,-153"/>
<polygon fill="#f5f5f5" stroke="none" points="359,-299 359,-321 553,-321 553,-299 359,-299"/>
<polygon fill="none" stroke="black" points="359,-299 359,-321 553,-321 553,-299 359,-299"/>
<text text-anchor="start" x="364" y="-306.55" font-family="Helvetica,sans-Serif" font-weight="bold" font-size="11.00">token_instances</text>
<text text-anchor="start" x="518.75" y="-305.55" font-family="Helvetica,sans-Serif" font-size="11.00">[table]</text>
<polygon fill="none" stroke="black" points="359,-277 359,-299 553,-299 553,-277 359,-277"/>
<image xlink:href="../../images/primaryKeys.png" width="11px" height="12px" preserveAspectRatio="xMinYMin meet" x="364" y="-294"/>
<text text-anchor="start" x="379" y="-283.55" font-family="Helvetica,sans-Serif" font-size="11.00">token_id</text>
<polygon fill="none" stroke="black" points="359,-255 359,-277 553,-277 553,-255 359,-255"/>
<image xlink:href="../../images/primaryKeys.png" width="11px" height="12px" preserveAspectRatio="xMinYMin meet" x="364" y="-272"/>
<text text-anchor="start" x="379" y="-261.55" font-family="Helvetica,sans-Serif" font-size="11.00">token_contract_address_hash</text>
<polygon fill="#ffffff" stroke="none" points="359,-233 359,-255 553,-255 553,-233 359,-233"/>
<polygon fill="none" stroke="black" points="359,-233 359,-255 553,-255 553,-233 359,-233"/>
<text text-anchor="start" x="379" y="-239.55" font-family="Helvetica,sans-Serif" font-size="11.00">error</text>
<polygon fill="#ffffff" stroke="none" points="359,-211 359,-233 553,-233 553,-211 359,-211"/>
<polygon fill="none" stroke="black" points="359,-211 359,-233 553,-233 553,-211 359,-211"/>
<text text-anchor="start" x="379" y="-217.55" font-family="Helvetica,sans-Serif" font-size="11.00">owner_address_hash</text>
<polygon fill="none" stroke="black" points="359,-189 359,-211 553,-211 553,-189 359,-189"/>
<image xlink:href="../../images/foreignKeys.png" width="11px" height="12px" preserveAspectRatio="xMinYMin meet" x="364" y="-206"/>
<text text-anchor="start" x="379" y="-195.55" font-family="Helvetica,sans-Serif" font-size="11.00">owner_updated_at_log_index</text>
<polygon fill="none" stroke="black" points="359,-171 359,-189 553,-189 553,-171 359,-171"/>
<text text-anchor="start" x="362" y="-175.55" font-family="Helvetica,sans-Serif" font-size="11.00">...</text>
<polygon fill="#ffffff" stroke="none" points="359,-153 359,-171 454,-171 454,-153 359,-153"/>
<polygon fill="none" stroke="black" points="359,-153 359,-171 454,-171 454,-153 359,-153"/>
<text text-anchor="start" x="362" y="-157.55" font-family="Helvetica,sans-Serif" font-size="11.00">&lt; 1</text>
<polygon fill="#ffffff" stroke="none" points="454,-153 454,-171 503,-171 503,-153 454,-153"/>
<polygon fill="none" stroke="black" points="454,-153 454,-171 503,-171 503,-153 454,-153"/>
<text text-anchor="start" x="494" y="-157.55" font-family="Helvetica,sans-Serif" font-size="11.00"> &#160;</text>
<polygon fill="#ffffff" stroke="none" points="503,-153 503,-171 553,-171 553,-153 503,-153"/>
<polygon fill="none" stroke="black" points="503,-153 503,-171 553,-171 553,-153 503,-153"/>
<text text-anchor="start" x="544" y="-157.55" font-family="Helvetica,sans-Serif" font-size="11.00"> &#160;</text>
</a>
</g>
</g>
<!-- tokens -->
<g id="node2" class="node">
<title>tokens</title>
<g id="a_node2"><a xlink:href="../../tables/tokens.html" xlink:title="tokens" target="_top">
<polygon fill="#ffffff" stroke="none" points="8,-37 8,-433 310,-433 310,-37 8,-37"/>
<polygon fill="#f5f5f5" stroke="none" points="10,-409 10,-431 308,-431 308,-409 10,-409"/>
<polygon fill="none" stroke="black" points="10,-409 10,-431 308,-431 308,-409 10,-409"/>
<text text-anchor="start" x="14.38" y="-416.55" font-family="Helvetica,sans-Serif" font-weight="bold" font-size="11.00">tokens</text>
<text text-anchor="start" x="273.75" y="-415.55" font-family="Helvetica,sans-Serif" font-size="11.00">[table]</text>
<polygon fill="none" stroke="black" points="10,-387 10,-409 210,-409 210,-387 10,-387"/>
<text text-anchor="start" x="30" y="-393.55" font-family="Helvetica,sans-Serif" font-size="11.00">name</text>
<polygon fill="none" stroke="black" points="210,-387 210,-409 308,-409 308,-387 210,-387"/>
<text text-anchor="start" x="213" y="-393.55" font-family="Helvetica,sans-Serif" font-size="11.00">text[2147483647]</text>
<polygon fill="#ffffff" stroke="none" points="10,-365 10,-387 210,-387 210,-365 10,-365"/>
<polygon fill="none" stroke="black" points="10,-365 10,-387 210,-387 210,-365 10,-365"/>
<text text-anchor="start" x="30" y="-371.55" font-family="Helvetica,sans-Serif" font-size="11.00">symbol</text>
<polygon fill="none" stroke="black" points="210,-365 210,-387 308,-387 308,-365 210,-365"/>
<text text-anchor="start" x="213" y="-371.55" font-family="Helvetica,sans-Serif" font-size="11.00">text[2147483647]</text>
<polygon fill="none" stroke="black" points="10,-343 10,-365 210,-365 210,-343 10,-343"/>
<text text-anchor="start" x="30" y="-349.55" font-family="Helvetica,sans-Serif" font-size="11.00">total_supply</text>
<polygon fill="none" stroke="black" points="210,-343 210,-365 308,-365 308,-343 210,-343"/>
<text text-anchor="start" x="213" y="-349.55" font-family="Helvetica,sans-Serif" font-size="11.00">numeric[0]</text>
<polygon fill="none" stroke="black" points="10,-321 10,-343 210,-343 210,-321 10,-321"/>
<text text-anchor="start" x="30" y="-327.55" font-family="Helvetica,sans-Serif" font-size="11.00">decimals</text>
<polygon fill="none" stroke="black" points="210,-321 210,-343 308,-343 308,-321 210,-321"/>
<text text-anchor="start" x="213" y="-327.55" font-family="Helvetica,sans-Serif" font-size="11.00">numeric[0]</text>
<polygon fill="#ffffff" stroke="none" points="10,-299 10,-321 210,-321 210,-299 10,-299"/>
<polygon fill="none" stroke="black" points="10,-299 10,-321 210,-321 210,-299 10,-299"/>
<text text-anchor="start" x="30" y="-305.55" font-family="Helvetica,sans-Serif" font-size="11.00">type</text>
<polygon fill="none" stroke="black" points="210,-299 210,-321 308,-321 308,-299 210,-299"/>
<text text-anchor="start" x="213" y="-305.55" font-family="Helvetica,sans-Serif" font-size="11.00">varchar[255]</text>
<polygon fill="#ffffff" stroke="none" points="10,-277 10,-299 210,-299 210,-277 10,-277"/>
<polygon fill="none" stroke="black" points="10,-277 10,-299 210,-299 210,-277 10,-277"/>
<text text-anchor="start" x="30" y="-283.55" font-family="Helvetica,sans-Serif" font-size="11.00">cataloged</text>
<polygon fill="none" stroke="black" points="210,-277 210,-299 308,-299 308,-277 210,-277"/>
<text text-anchor="start" x="213" y="-283.55" font-family="Helvetica,sans-Serif" font-size="11.00">bool[1]</text>
<polygon fill="none" stroke="black" points="10,-255 10,-277 210,-277 210,-255 10,-255"/>
<image xlink:href="../../images/primaryKeys.png" width="11px" height="12px" preserveAspectRatio="xMinYMin meet" x="15" y="-272"/>
<text text-anchor="start" x="30" y="-261.55" font-family="Helvetica,sans-Serif" font-size="11.00">contract_address_hash</text>
<polygon fill="none" stroke="black" points="210,-255 210,-277 308,-277 308,-255 210,-255"/>
<text text-anchor="start" x="212.88" y="-261.55" font-family="Helvetica,sans-Serif" font-size="11.00">bytea[2147483647]</text>
<polygon fill="none" stroke="black" points="10,-233 10,-255 210,-255 210,-233 10,-233"/>
<text text-anchor="start" x="30" y="-239.55" font-family="Helvetica,sans-Serif" font-size="11.00">inserted_at</text>
<polygon fill="none" stroke="black" points="210,-233 210,-255 308,-255 308,-233 210,-233"/>
<text text-anchor="start" x="213" y="-239.55" font-family="Helvetica,sans-Serif" font-size="11.00">timestamp[29,6]</text>
<polygon fill="none" stroke="black" points="10,-211 10,-233 210,-233 210,-211 10,-211"/>
<text text-anchor="start" x="30" y="-217.55" font-family="Helvetica,sans-Serif" font-size="11.00">updated_at</text>
<polygon fill="none" stroke="black" points="210,-211 210,-233 308,-233 308,-211 210,-211"/>
<text text-anchor="start" x="213" y="-217.55" font-family="Helvetica,sans-Serif" font-size="11.00">timestamp[29,6]</text>
<polygon fill="none" stroke="black" points="10,-189 10,-211 210,-211 210,-189 10,-189"/>
<text text-anchor="start" x="30" y="-195.55" font-family="Helvetica,sans-Serif" font-size="11.00">holder_count</text>
<polygon fill="none" stroke="black" points="210,-189 210,-211 308,-211 308,-189 210,-189"/>
<text text-anchor="start" x="213" y="-195.55" font-family="Helvetica,sans-Serif" font-size="11.00">int4[10]</text>
<polygon fill="none" stroke="black" points="10,-167 10,-189 210,-189 210,-167 10,-167"/>
<text text-anchor="start" x="30" y="-173.55" font-family="Helvetica,sans-Serif" font-size="11.00">skip_metadata</text>
<polygon fill="none" stroke="black" points="210,-167 210,-189 308,-189 308,-167 210,-167"/>
<text text-anchor="start" x="213" y="-173.55" font-family="Helvetica,sans-Serif" font-size="11.00">bool[1]</text>
<polygon fill="none" stroke="black" points="10,-145 10,-167 210,-167 210,-145 10,-145"/>
<text text-anchor="start" x="30" y="-151.55" font-family="Helvetica,sans-Serif" font-size="11.00">fiat_value</text>
<polygon fill="none" stroke="black" points="210,-145 210,-167 308,-167 308,-145 210,-145"/>
<text text-anchor="start" x="213" y="-151.55" font-family="Helvetica,sans-Serif" font-size="11.00">numeric[0]</text>
<polygon fill="none" stroke="black" points="10,-123 10,-145 210,-145 210,-123 10,-123"/>
<text text-anchor="start" x="30" y="-129.55" font-family="Helvetica,sans-Serif" font-size="11.00">circulating_market_cap</text>
<polygon fill="none" stroke="black" points="210,-123 210,-145 308,-145 308,-123 210,-123"/>
<text text-anchor="start" x="213" y="-129.55" font-family="Helvetica,sans-Serif" font-size="11.00">numeric[0]</text>
<polygon fill="none" stroke="black" points="10,-101 10,-123 210,-123 210,-101 10,-101"/>
<text text-anchor="start" x="30" y="-107.55" font-family="Helvetica,sans-Serif" font-size="11.00">total_supply_updated_at_block</text>
<polygon fill="none" stroke="black" points="210,-101 210,-123 308,-123 308,-101 210,-101"/>
<text text-anchor="start" x="213" y="-107.55" font-family="Helvetica,sans-Serif" font-size="11.00">int8[19]</text>
<polygon fill="none" stroke="black" points="10,-79 10,-101 210,-101 210,-79 10,-79"/>
<text text-anchor="start" x="30" y="-85.55" font-family="Helvetica,sans-Serif" font-size="11.00">icon_url</text>
<polygon fill="none" stroke="black" points="210,-79 210,-101 308,-101 308,-79 210,-79"/>
<text text-anchor="start" x="213" y="-85.55" font-family="Helvetica,sans-Serif" font-size="11.00">varchar[255]</text>
<polygon fill="none" stroke="black" points="10,-57 10,-79 210,-79 210,-57 10,-57"/>
<text text-anchor="start" x="30" y="-63.55" font-family="Helvetica,sans-Serif" font-size="11.00">is_verified_via_admin_panel</text>
<polygon fill="none" stroke="black" points="210,-57 210,-79 308,-79 308,-57 210,-57"/>
<text text-anchor="start" x="213" y="-63.55" font-family="Helvetica,sans-Serif" font-size="11.00">bool[1]</text>
<polygon fill="#ffffff" stroke="none" points="10,-39 10,-57 114,-57 114,-39 10,-39"/>
<polygon fill="none" stroke="black" points="10,-39 10,-57 114,-57 114,-39 10,-39"/>
<text text-anchor="start" x="13" y="-43.55" font-family="Helvetica,sans-Serif" font-size="11.00">&lt; 0</text>
<polygon fill="#ffffff" stroke="none" points="114,-39 114,-57 210,-57 210,-39 114,-39"/>
<polygon fill="none" stroke="black" points="114,-39 114,-57 210,-57 210,-39 114,-39"/>
<text text-anchor="start" x="201" y="-43.55" font-family="Helvetica,sans-Serif" font-size="11.00"> &#160;</text>
<polygon fill="#ffffff" stroke="none" points="210,-39 210,-57 308,-57 308,-39 210,-39"/>
<polygon fill="none" stroke="black" points="210,-39 210,-57 308,-57 308,-39 210,-39"/>
<text text-anchor="start" x="289.25" y="-43.55" font-family="Helvetica,sans-Serif" font-size="11.00">1 &gt;</text>
<polygon fill="none" stroke="black" stroke-width="2" points="9,-38 9,-432 309,-432 309,-38 9,-38"/>
</a>
</g>
</g>
<!-- token_instances&#45;&gt;tokens -->
<g id="edge1" class="edge">
<title>token_instances:w&#45;&gt;tokens:e</title>
<path fill="none" stroke="black" d="M342.42,-266C331.71,-266 324.48,-266 309,-266"/>
<polygon fill="black" stroke="black" points="349.67,-266 357.67,-269.6 354,-266 357.33,-266 357.33,-266 357.33,-266 354,-266 357.67,-262.4 349.67,-266"/>
<ellipse fill="none" stroke="black" cx="344.75" cy="-266" rx="3.2" ry="3.2"/>
</g>
</g>
</svg>
