<?xml version="1.0" encoding="UTF-8" standalone="no"?>
<!DOCTYPE svg PUBLIC "-//W3C//DTD SVG 1.1//EN"
 "http://www.w3.org/Graphics/SVG/1.1/DTD/svg11.dtd">
<!-- Generated by graphviz version 9.0.0 (20230911.1827)
 -->
<!-- Title: oneDegreeRelationshipsDiagramImplied Pages: 1 -->
<svg width="764pt" height="528pt"
 viewBox="0.00 0.00 764.00 528.00" xmlns="http://www.w3.org/2000/svg" xmlns:xlink="http://www.w3.org/1999/xlink">
<g id="graph0" class="graph" transform="scale(1 1) rotate(0) translate(4 524)">
<title>oneDegreeRelationshipsDiagramImplied</title>
<polygon fill="#ffffff" stroke="none" points="-4,4 -4,-524 760,-524 760,4 -4,4"/>
<text text-anchor="middle" x="71.38" y="-5.55" font-family="Helvetica,sans-Serif" font-size="11.00">Generated by SchemaSpy</text>
<!-- token_transfers -->
<g id="node1" class="node">
<title>token_transfers</title>
<g id="a_node1"><a xlink:href="../../tables/token_transfers.html" xlink:title="token_transfers" target="_top">
<polygon fill="#ffffff" stroke="none" points="452,-108 452,-416 748,-416 748,-108 452,-108"/>
<polygon fill="#f5f5f5" stroke="none" points="454,-392 454,-414 746,-414 746,-392 454,-392"/>
<polygon fill="none" stroke="black" points="454,-392 454,-414 746,-414 746,-392 454,-392"/>
<text text-anchor="start" x="459" y="-399.55" font-family="Helvetica,sans-Serif" font-weight="bold" font-size="11.00">token_transfers</text>
<text text-anchor="start" x="711.75" y="-398.55" font-family="Helvetica,sans-Serif" font-size="11.00">[table]</text>
<polygon fill="none" stroke="black" points="454,-370 454,-392 648,-392 648,-370 454,-370"/>
<image xlink:href="../../images/primaryKeys.png" width="11px" height="12px" preserveAspectRatio="xMinYMin meet" x="459" y="-387"/>
<text text-anchor="start" x="474" y="-376.55" font-family="Helvetica,sans-Serif" font-size="11.00">transaction_hash</text>
<polygon fill="none" stroke="black" points="648,-370 648,-392 746,-392 746,-370 648,-370"/>
<text text-anchor="start" x="650.88" y="-376.55" font-family="Helvetica,sans-Serif" font-size="11.00">bytea[2147483647]</text>
<polygon fill="none" stroke="black" points="454,-348 454,-370 648,-370 648,-348 454,-348"/>
<image xlink:href="../../images/primaryKeys.png" width="11px" height="12px" preserveAspectRatio="xMinYMin meet" x="459" y="-365"/>
<text text-anchor="start" x="474" y="-354.55" font-family="Helvetica,sans-Serif" font-size="11.00">log_index</text>
<polygon fill="none" stroke="black" points="648,-348 648,-370 746,-370 746,-348 648,-348"/>
<text text-anchor="start" x="651" y="-354.55" font-family="Helvetica,sans-Serif" font-size="11.00">int4[10]</text>
<polygon fill="#ffffff" stroke="none" points="454,-326 454,-348 648,-348 648,-326 454,-326"/>
<polygon fill="none" stroke="black" points="454,-326 454,-348 648,-348 648,-326 454,-326"/>
<text text-anchor="start" x="474" y="-332.55" font-family="Helvetica,sans-Serif" font-size="11.00">from_address_hash</text>
<polygon fill="none" stroke="black" points="648,-326 648,-348 746,-348 746,-326 648,-326"/>
<text text-anchor="start" x="650.88" y="-332.55" font-family="Helvetica,sans-Serif" font-size="11.00">bytea[2147483647]</text>
<polygon fill="#ffffff" stroke="none" points="454,-304 454,-326 648,-326 648,-304 454,-304"/>
<polygon fill="none" stroke="black" points="454,-304 454,-326 648,-326 648,-304 454,-304"/>
<text text-anchor="start" x="474" y="-310.55" font-family="Helvetica,sans-Serif" font-size="11.00">to_address_hash</text>
<polygon fill="none" stroke="black" points="648,-304 648,-326 746,-326 746,-304 648,-304"/>
<text text-anchor="start" x="650.88" y="-310.55" font-family="Helvetica,sans-Serif" font-size="11.00">bytea[2147483647]</text>
<polygon fill="none" stroke="black" points="454,-282 454,-304 648,-304 648,-282 454,-282"/>
<text text-anchor="start" x="474" y="-288.55" font-family="Helvetica,sans-Serif" font-size="11.00">amount</text>
<polygon fill="none" stroke="black" points="648,-282 648,-304 746,-304 746,-282 648,-282"/>
<text text-anchor="start" x="651" y="-288.55" font-family="Helvetica,sans-Serif" font-size="11.00">numeric[0]</text>
<polygon fill="#ffffff" stroke="none" points="454,-260 454,-282 648,-282 648,-260 454,-260"/>
<polygon fill="none" stroke="black" points="454,-260 454,-282 648,-282 648,-260 454,-260"/>
<text text-anchor="start" x="474" y="-266.55" font-family="Helvetica,sans-Serif" font-size="11.00">token_contract_address_hash</text>
<polygon fill="none" stroke="black" points="648,-260 648,-282 746,-282 746,-260 648,-260"/>
<text text-anchor="start" x="650.88" y="-266.55" font-family="Helvetica,sans-Serif" font-size="11.00">bytea[2147483647]</text>
<polygon fill="none" stroke="black" points="454,-238 454,-260 648,-260 648,-238 454,-238"/>
<text text-anchor="start" x="474" y="-244.55" font-family="Helvetica,sans-Serif" font-size="11.00">inserted_at</text>
<polygon fill="none" stroke="black" points="648,-238 648,-260 746,-260 746,-238 648,-238"/>
<text text-anchor="start" x="651" y="-244.55" font-family="Helvetica,sans-Serif" font-size="11.00">timestamp[29,6]</text>
<polygon fill="none" stroke="black" points="454,-216 454,-238 648,-238 648,-216 454,-216"/>
<text text-anchor="start" x="474" y="-222.55" font-family="Helvetica,sans-Serif" font-size="11.00">updated_at</text>
<polygon fill="none" stroke="black" points="648,-216 648,-238 746,-238 746,-216 648,-216"/>
<text text-anchor="start" x="651" y="-222.55" font-family="Helvetica,sans-Serif" font-size="11.00">timestamp[29,6]</text>
<polygon fill="#ffffff" stroke="none" points="454,-194 454,-216 648,-216 648,-194 454,-194"/>
<polygon fill="none" stroke="black" points="454,-194 454,-216 648,-216 648,-194 454,-194"/>
<text text-anchor="start" x="474" y="-200.55" font-family="Helvetica,sans-Serif" font-size="11.00">block_number</text>
<polygon fill="none" stroke="black" points="648,-194 648,-216 746,-216 746,-194 648,-194"/>
<text text-anchor="start" x="651" y="-200.55" font-family="Helvetica,sans-Serif" font-size="11.00">int4[10]</text>
<polygon fill="none" stroke="black" points="454,-172 454,-194 648,-194 648,-172 454,-172"/>
<image xlink:href="../../images/primaryKeys.png" width="11px" height="12px" preserveAspectRatio="xMinYMin meet" x="459" y="-189"/>
<text text-anchor="start" x="474" y="-178.55" font-family="Helvetica,sans-Serif" font-size="11.00">block_hash</text>
<polygon fill="none" stroke="black" points="648,-172 648,-194 746,-194 746,-172 648,-172"/>
<text text-anchor="start" x="650.88" y="-178.55" font-family="Helvetica,sans-Serif" font-size="11.00">bytea[2147483647]</text>
<polygon fill="none" stroke="black" points="454,-150 454,-172 648,-172 648,-150 454,-150"/>
<text text-anchor="start" x="474" y="-156.55" font-family="Helvetica,sans-Serif" font-size="11.00">amounts</text>
<polygon fill="none" stroke="black" points="648,-150 648,-172 746,-172 746,-150 648,-150"/>
<text text-anchor="start" x="651" y="-156.55" font-family="Helvetica,sans-Serif" font-size="11.00">_numeric[131089]</text>
<polygon fill="#ffffff" stroke="none" points="454,-128 454,-150 648,-150 648,-128 454,-128"/>
<polygon fill="none" stroke="black" points="454,-128 454,-150 648,-150 648,-128 454,-128"/>
<text text-anchor="start" x="474" y="-134.55" font-family="Helvetica,sans-Serif" font-size="11.00">token_ids</text>
<polygon fill="none" stroke="black" points="648,-128 648,-150 746,-150 746,-128 648,-128"/>
<text text-anchor="start" x="651" y="-134.55" font-family="Helvetica,sans-Serif" font-size="11.00">_numeric[78]</text>
<polygon fill="#ffffff" stroke="none" points="454,-110 454,-128 555,-128 555,-110 454,-110"/>
<polygon fill="none" stroke="black" points="454,-110 454,-128 555,-128 555,-110 454,-110"/>
<text text-anchor="start" x="457" y="-114.55" font-family="Helvetica,sans-Serif" font-size="11.00">&lt; 2</text>
<polygon fill="#ffffff" stroke="none" points="555,-110 555,-128 648,-128 648,-110 555,-110"/>
<polygon fill="none" stroke="black" points="555,-110 555,-128 648,-128 648,-110 555,-110"/>
<text text-anchor="start" x="639" y="-114.55" font-family="Helvetica,sans-Serif" font-size="11.00"> &#160;</text>
<polygon fill="#ffffff" stroke="none" points="648,-110 648,-128 746,-128 746,-110 648,-110"/>
<polygon fill="none" stroke="black" points="648,-110 648,-128 746,-128 746,-110 648,-110"/>
<text text-anchor="start" x="727.25" y="-114.55" font-family="Helvetica,sans-Serif" font-size="11.00">0 &gt;</text>
<polygon fill="none" stroke="black" stroke-width="2" points="453,-109 453,-415 747,-415 747,-109 453,-109"/>
</a>
</g>
</g>
<!-- blocks -->
<g id="node2" class="node">
<title>blocks</title>
<g id="a_node2"><a xlink:href="../../tables/blocks.html" xlink:title="blocks" target="_top">
<polygon fill="#ffffff" stroke="none" points="8,-37 8,-271 133,-271 133,-37 8,-37"/>
<polygon fill="#f5f5f5" stroke="none" points="8,-249 8,-271 133,-271 133,-249 8,-249"/>
<polygon fill="none" stroke="black" points="8,-249 8,-271 133,-271 133,-249 8,-249"/>
<text text-anchor="start" x="12.75" y="-256.55" font-family="Helvetica,sans-Serif" font-weight="bold" font-size="11.00">blocks</text>
<text text-anchor="start" x="98.75" y="-255.55" font-family="Helvetica,sans-Serif" font-size="11.00">[table]</text>
<polygon fill="#ffffff" stroke="none" points="8,-227 8,-249 133,-249 133,-227 8,-227"/>
<polygon fill="none" stroke="black" points="8,-227 8,-249 133,-249 133,-227 8,-227"/>
<text text-anchor="start" x="28" y="-233.55" font-family="Helvetica,sans-Serif" font-size="11.00">consensus</text>
<polygon fill="none" stroke="black" points="8,-205 8,-227 133,-227 133,-205 8,-205"/>
<image xlink:href="../../images/primaryKeys.png" width="11px" height="12px" preserveAspectRatio="xMinYMin meet" x="13" y="-222"/>
<text text-anchor="start" x="28" y="-211.55" font-family="Helvetica,sans-Serif" font-size="11.00">hash</text>
<polygon fill="#ffffff" stroke="none" points="8,-183 8,-205 133,-205 133,-183 8,-183"/>
<polygon fill="none" stroke="black" points="8,-183 8,-205 133,-205 133,-183 8,-183"/>
<text text-anchor="start" x="28" y="-189.55" font-family="Helvetica,sans-Serif" font-size="11.00">miner_hash</text>
<polygon fill="#ffffff" stroke="none" points="8,-161 8,-183 133,-183 133,-161 8,-161"/>
<polygon fill="none" stroke="black" points="8,-161 8,-183 133,-183 133,-161 8,-161"/>
<text text-anchor="start" x="28" y="-167.55" font-family="Helvetica,sans-Serif" font-size="11.00">number</text>
<polygon fill="#ffffff" stroke="none" points="8,-139 8,-161 133,-161 133,-139 8,-139"/>
<polygon fill="none" stroke="black" points="8,-139 8,-161 133,-161 133,-139 8,-139"/>
<text text-anchor="start" x="28" y="-145.55" font-family="Helvetica,sans-Serif" font-size="11.00">parent_hash</text>
<polygon fill="#ffffff" stroke="none" points="8,-117 8,-139 133,-139 133,-117 8,-117"/>
<polygon fill="none" stroke="black" points="8,-117 8,-139 133,-139 133,-117 8,-117"/>
<text text-anchor="start" x="28" y="-123.55" font-family="Helvetica,sans-Serif" font-size="11.00">timestamp</text>
<polygon fill="#ffffff" stroke="none" points="8,-95 8,-117 133,-117 133,-95 8,-95"/>
<polygon fill="none" stroke="black" points="8,-95 8,-117 133,-117 133,-95 8,-95"/>
<text text-anchor="start" x="28" y="-101.55" font-family="Helvetica,sans-Serif" font-size="11.00">inserted_at</text>
<polygon fill="#ffffff" stroke="none" points="8,-73 8,-95 133,-95 133,-73 8,-73"/>
<polygon fill="none" stroke="black" points="8,-73 8,-95 133,-95 133,-73 8,-73"/>
<text text-anchor="start" x="28" y="-79.55" font-family="Helvetica,sans-Serif" font-size="11.00">is_empty</text>
<polygon fill="none" stroke="black" points="8,-55 8,-73 133,-73 133,-55 8,-55"/>
<text text-anchor="start" x="11" y="-59.55" font-family="Helvetica,sans-Serif" font-size="11.00">...</text>
<polygon fill="#ffffff" stroke="none" points="8,-37 8,-55 60,-55 60,-37 8,-37"/>
<polygon fill="none" stroke="black" points="8,-37 8,-55 60,-55 60,-37 8,-37"/>
<text text-anchor="start" x="11" y="-41.55" font-family="Helvetica,sans-Serif" font-size="11.00"> &#160;</text>
<polygon fill="#ffffff" stroke="none" points="60,-37 60,-55 92,-55 92,-37 60,-37"/>
<polygon fill="none" stroke="black" points="60,-37 60,-55 92,-55 92,-37 60,-37"/>
<text text-anchor="start" x="83" y="-41.55" font-family="Helvetica,sans-Serif" font-size="11.00"> &#160;</text>
<polygon fill="#ffffff" stroke="none" points="92,-37 92,-55 133,-55 133,-37 92,-37"/>
<polygon fill="none" stroke="black" points="92,-37 92,-55 133,-55 133,-37 92,-37"/>
<text text-anchor="start" x="114.25" y="-41.55" font-family="Helvetica,sans-Serif" font-size="11.00">9 &gt;</text>
</a>
</g>
</g>
<!-- token_transfers&#45;&gt;blocks -->
<g id="edge1" class="edge">
<title>token_transfers:w&#45;&gt;blocks:e</title>
<path fill="none" stroke="black" d="M438.43,-177.97C425.26,-165 435.53,-130.46 411,-117 318.66,-66.31 261.2,-57.91 174,-117 134.78,-143.58 181.87,-216 134.5,-216"/>
<polygon fill="black" stroke="black" points="445.12,-180.28 451.51,-186.29 449.22,-181.69 452.37,-182.78 452.37,-182.78 452.37,-182.78 449.22,-181.69 453.86,-179.49 445.12,-180.28"/>
<ellipse fill="none" stroke="black" cx="440.47" cy="-178.67" rx="3.2" ry="3.2"/>
</g>
<!-- transactions -->
<g id="node3" class="node">
<title>transactions</title>
<g id="a_node3"><a xlink:href="../../tables/transactions.html" xlink:title="transactions" target="_top">
<polygon fill="#ffffff" stroke="none" points="182,-128 182,-516 403,-516 403,-128 182,-128"/>
<polygon fill="#f5f5f5" stroke="none" points="182,-494 182,-516 403,-516 403,-494 182,-494"/>
<polygon fill="none" stroke="black" points="182,-494 182,-516 403,-516 403,-494 182,-494"/>
<text text-anchor="start" x="187" y="-501.55" font-family="Helvetica,sans-Serif" font-weight="bold" font-size="11.00">transactions</text>
<text text-anchor="start" x="368.75" y="-500.55" font-family="Helvetica,sans-Serif" font-size="11.00">[table]</text>
<polygon fill="#ffffff" stroke="none" points="182,-472 182,-494 403,-494 403,-472 182,-472"/>
<polygon fill="none" stroke="black" points="182,-472 182,-494 403,-494 403,-472 182,-472"/>
<text text-anchor="start" x="202" y="-478.55" font-family="Helvetica,sans-Serif" font-size="11.00">error</text>
<polygon fill="none" stroke="black" points="182,-450 182,-472 403,-472 403,-450 182,-450"/>
<image xlink:href="../../images/primaryKeys.png" width="11px" height="12px" preserveAspectRatio="xMinYMin meet" x="187" y="-467"/>
<text text-anchor="start" x="202" y="-456.55" font-family="Helvetica,sans-Serif" font-size="11.00">hash</text>
<polygon fill="#ffffff" stroke="none" points="182,-428 182,-450 403,-450 403,-428 182,-428"/>
<polygon fill="none" stroke="black" points="182,-428 182,-450 403,-450 403,-428 182,-428"/>
<image xlink:href="../../images/foreignKeys.png" width="11px" height="12px" preserveAspectRatio="xMinYMin meet" x="187" y="-445"/>
<text text-anchor="start" x="202" y="-434.55" font-family="Helvetica,sans-Serif" font-size="11.00">index</text>
<polygon fill="#ffffff" stroke="none" points="182,-406 182,-428 403,-428 403,-406 182,-406"/>
<polygon fill="none" stroke="black" points="182,-406 182,-428 403,-428 403,-406 182,-406"/>
<text text-anchor="start" x="202" y="-412.55" font-family="Helvetica,sans-Serif" font-size="11.00">nonce</text>
<polygon fill="#ffffff" stroke="none" points="182,-384 182,-406 403,-406 403,-384 182,-384"/>
<polygon fill="none" stroke="black" points="182,-384 182,-406 403,-406 403,-384 182,-384"/>
<text text-anchor="start" x="202" y="-390.55" font-family="Helvetica,sans-Serif" font-size="11.00">status</text>
<polygon fill="#ffffff" stroke="none" points="182,-362 182,-384 403,-384 403,-362 182,-362"/>
<polygon fill="none" stroke="black" points="182,-362 182,-384 403,-384 403,-362 182,-362"/>
<text text-anchor="start" x="202" y="-368.55" font-family="Helvetica,sans-Serif" font-size="11.00">inserted_at</text>
<polygon fill="#ffffff" stroke="none" points="182,-340 182,-362 403,-362 403,-340 182,-340"/>
<polygon fill="none" stroke="black" points="182,-340 182,-362 403,-362 403,-340 182,-340"/>
<text text-anchor="start" x="202" y="-346.55" font-family="Helvetica,sans-Serif" font-size="11.00">updated_at</text>
<polygon fill="#ffffff" stroke="none" points="182,-318 182,-340 403,-340 403,-318 182,-318"/>
<polygon fill="none" stroke="black" points="182,-318 182,-340 403,-340 403,-318 182,-318"/>
<image xlink:href="../../images/foreignKeys.png" width="11px" height="12px" preserveAspectRatio="xMinYMin meet" x="187" y="-335"/>
<text text-anchor="start" x="202" y="-324.55" font-family="Helvetica,sans-Serif" font-size="11.00">block_hash</text>
<polygon fill="#ffffff" stroke="none" points="182,-296 182,-318 403,-318 403,-296 182,-296"/>
<polygon fill="none" stroke="black" points="182,-296 182,-318 403,-318 403,-296 182,-296"/>
<text text-anchor="start" x="202" y="-302.55" font-family="Helvetica,sans-Serif" font-size="11.00">block_number</text>
<polygon fill="#ffffff" stroke="none" points="182,-274 182,-296 403,-296 403,-274 182,-274"/>
<polygon fill="none" stroke="black" points="182,-274 182,-296 403,-296 403,-274 182,-274"/>
<text text-anchor="start" x="202" y="-280.55" font-family="Helvetica,sans-Serif" font-size="11.00">from_address_hash</text>
<polygon fill="#ffffff" stroke="none" points="182,-252 182,-274 403,-274 403,-252 182,-252"/>
<polygon fill="none" stroke="black" points="182,-252 182,-274 403,-274 403,-252 182,-252"/>
<text text-anchor="start" x="202" y="-258.55" font-family="Helvetica,sans-Serif" font-size="11.00">to_address_hash</text>
<polygon fill="#ffffff" stroke="none" points="182,-230 182,-252 403,-252 403,-230 182,-230"/>
<polygon fill="none" stroke="black" points="182,-230 182,-252 403,-252 403,-230 182,-230"/>
<text text-anchor="start" x="202" y="-236.55" font-family="Helvetica,sans-Serif" font-size="11.00">created_contract_address_hash</text>
<polygon fill="#ffffff" stroke="none" points="182,-208 182,-230 403,-230 403,-208 182,-208"/>
<polygon fill="none" stroke="black" points="182,-208 182,-230 403,-230 403,-208 182,-208"/>
<text text-anchor="start" x="202" y="-214.55" font-family="Helvetica,sans-Serif" font-size="11.00">created_contract_code_indexed_at</text>
<polygon fill="#ffffff" stroke="none" points="182,-186 182,-208 403,-208 403,-186 182,-186"/>
<polygon fill="none" stroke="black" points="182,-186 182,-208 403,-208 403,-186 182,-186"/>
<text text-anchor="start" x="202" y="-192.55" font-family="Helvetica,sans-Serif" font-size="11.00">block_timestamp</text>
<polygon fill="#ffffff" stroke="none" points="182,-164 182,-186 403,-186 403,-164 182,-164"/>
<polygon fill="none" stroke="black" points="182,-164 182,-186 403,-186 403,-164 182,-164"/>
<text text-anchor="start" x="202" y="-170.55" font-family="Helvetica,sans-Serif" font-size="11.00">block_consensus</text>
<polygon fill="none" stroke="black" points="182,-146 182,-164 403,-164 403,-146 182,-146"/>
<text text-anchor="start" x="185" y="-150.55" font-family="Helvetica,sans-Serif" font-size="11.00">...</text>
<polygon fill="#ffffff" stroke="none" points="182,-128 182,-146 286,-146 286,-128 182,-128"/>
<polygon fill="none" stroke="black" points="182,-128 182,-146 286,-146 286,-128 182,-128"/>
<text text-anchor="start" x="185" y="-132.55" font-family="Helvetica,sans-Serif" font-size="11.00">&lt; 1</text>
<polygon fill="#ffffff" stroke="none" points="286,-128 286,-146 340,-146 340,-128 286,-128"/>
<polygon fill="none" stroke="black" points="286,-128 286,-146 340,-146 340,-128 286,-128"/>
<text text-anchor="start" x="331" y="-132.55" font-family="Helvetica,sans-Serif" font-size="11.00"> &#160;</text>
<polygon fill="#ffffff" stroke="none" points="340,-128 340,-146 403,-146 403,-128 340,-128"/>
<polygon fill="none" stroke="black" points="340,-128 340,-146 403,-146 403,-128 340,-128"/>
<text text-anchor="start" x="384.25" y="-132.55" font-family="Helvetica,sans-Serif" font-size="11.00">5 &gt;</text>
</a>
</g>
</g>
<!-- token_transfers&#45;&gt;transactions -->
<g id="edge2" class="edge">
<title>token_transfers:w&#45;&gt;transactions:e</title>
<path fill="none" stroke="black" d="M438.26,-386.5C420.57,-404.57 439.42,-461 404.5,-461"/>
<polygon fill="black" stroke="black" points="445.19,-383.91 453.95,-384.49 449.25,-382.4 452.37,-381.23 452.37,-381.23 452.37,-381.23 449.25,-382.4 451.43,-377.74 445.19,-383.91"/>
<ellipse fill="none" stroke="black" cx="440.58" cy="-385.63" rx="3.2" ry="3.2"/>
</g>
<!-- transactions&#45;&gt;blocks -->
<g id="edge3" class="edge">
<title>transactions:w&#45;&gt;blocks:e</title>
<path fill="none" stroke="black" d="M165.52,-324.43C139.69,-303.29 182.16,-216 134.5,-216"/>
<polygon fill="black" stroke="black" points="172.53,-326.57 179.13,-332.35 176.67,-327.83 179.86,-328.8 179.86,-328.8 179.86,-328.8 176.67,-327.83 181.23,-325.46 172.53,-326.57"/>
<ellipse fill="none" stroke="black" cx="167.82" cy="-325.13" rx="3.2" ry="3.2"/>
</g>
</g>
</svg>
