<?xml version="1.0" encoding="UTF-8" standalone="no"?>
<!DOCTYPE svg PUBLIC "-//W3C//DTD SVG 1.1//EN"
 "http://www.w3.org/Graphics/SVG/1.1/DTD/svg11.dtd">
<!-- Generated by graphviz version 9.0.0 (20230911.1827)
 -->
<!-- Title: twoDegreesRelationshipsDiagramImplied Pages: 1 -->
<svg width="956pt" height="737pt"
 viewBox="0.00 0.00 956.00 737.00" xmlns="http://www.w3.org/2000/svg" xmlns:xlink="http://www.w3.org/1999/xlink">
<g id="graph0" class="graph" transform="scale(1 1) rotate(0) translate(4 733)">
<title>twoDegreesRelationshipsDiagramImplied</title>
<polygon fill="#ffffff" stroke="none" points="-4,4 -4,-733 952,-733 952,4 -4,4"/>
<text text-anchor="middle" x="71.38" y="-5.55" font-family="Helvetica,sans-Serif" font-size="11.00">Generated by SchemaSpy</text>
<!-- block_rewards -->
<g id="node1" class="node">
<title>block_rewards</title>
<g id="a_node1"><a xlink:href="../../tables/block_rewards.html" xlink:title="block_rewards" target="_top">
<polygon fill="#ffffff" stroke="none" points="168,-667 168,-725 291,-725 291,-667 168,-667"/>
<polygon fill="#f5f5f5" stroke="none" points="168,-703 168,-725 291,-725 291,-703 168,-703"/>
<polygon fill="none" stroke="black" points="168,-703 168,-725 291,-725 291,-703 168,-703"/>
<text text-anchor="start" x="173" y="-710.55" font-family="Helvetica,sans-Serif" font-weight="bold" font-size="11.00">block_rewards</text>
<text text-anchor="start" x="257" y="-709.55" font-family="Helvetica,sans-Serif" font-size="11.00">[table]</text>
<polygon fill="none" stroke="black" points="168,-685 168,-703 291,-703 291,-685 168,-685"/>
<text text-anchor="start" x="171" y="-689.55" font-family="Helvetica,sans-Serif" font-size="11.00">...</text>
<polygon fill="#ffffff" stroke="none" points="168,-667 168,-685 228,-685 228,-667 168,-667"/>
<polygon fill="none" stroke="black" points="168,-667 168,-685 228,-685 228,-667 168,-667"/>
<text text-anchor="start" x="171" y="-671.55" font-family="Helvetica,sans-Serif" font-size="11.00">&lt; 1</text>
<polygon fill="#ffffff" stroke="none" points="228,-667 228,-685 259,-685 259,-667 228,-667"/>
<polygon fill="none" stroke="black" points="228,-667 228,-685 259,-685 259,-667 228,-667"/>
<text text-anchor="start" x="250" y="-671.55" font-family="Helvetica,sans-Serif" font-size="11.00"> &#160;</text>
<polygon fill="#ffffff" stroke="none" points="259,-667 259,-685 291,-685 291,-667 259,-667"/>
<polygon fill="none" stroke="black" points="259,-667 259,-685 291,-685 291,-667 259,-667"/>
<text text-anchor="start" x="282" y="-671.55" font-family="Helvetica,sans-Serif" font-size="11.00"> &#160;</text>
</a>
</g>
</g>
<!-- blocks -->
<g id="node2" class="node">
<title>blocks</title>
<g id="a_node2"><a xlink:href="../../tables/blocks.html" xlink:title="blocks" target="_top">
<polygon fill="#ffffff" stroke="none" points="8,-443 8,-501 85,-501 85,-443 8,-443"/>
<polygon fill="#f5f5f5" stroke="none" points="8,-479 8,-501 85,-501 85,-479 8,-479"/>
<polygon fill="none" stroke="black" points="8,-479 8,-501 85,-501 85,-479 8,-479"/>
<text text-anchor="start" x="12.75" y="-486.55" font-family="Helvetica,sans-Serif" font-weight="bold" font-size="11.00">blocks</text>
<text text-anchor="start" x="51" y="-485.55" font-family="Helvetica,sans-Serif" font-size="11.00">[table]</text>
<polygon fill="none" stroke="black" points="8,-461 8,-479 85,-479 85,-461 8,-461"/>
<text text-anchor="start" x="11" y="-465.55" font-family="Helvetica,sans-Serif" font-size="11.00">...</text>
<polygon fill="#ffffff" stroke="none" points="8,-443 8,-461 36,-461 36,-443 8,-443"/>
<polygon fill="none" stroke="black" points="8,-443 8,-461 36,-461 36,-443 8,-443"/>
<text text-anchor="start" x="11" y="-447.55" font-family="Helvetica,sans-Serif" font-size="11.00"> &#160;</text>
<polygon fill="#ffffff" stroke="none" points="36,-443 36,-461 56,-461 56,-443 36,-443"/>
<polygon fill="none" stroke="black" points="36,-443 36,-461 56,-461 56,-443 36,-443"/>
<text text-anchor="start" x="47" y="-447.55" font-family="Helvetica,sans-Serif" font-size="11.00"> &#160;</text>
<polygon fill="#ffffff" stroke="none" points="56,-443 56,-461 85,-461 85,-443 56,-443"/>
<polygon fill="none" stroke="black" points="56,-443 56,-461 85,-461 85,-443 56,-443"/>
<text text-anchor="start" x="66.25" y="-447.55" font-family="Helvetica,sans-Serif" font-size="11.00">9 &gt;</text>
</a>
</g>
</g>
<!-- block_rewards&#45;&gt;blocks -->
<g id="edge1" class="edge">
<title>block_rewards:w&#45;&gt;blocks:e</title>
<path fill="none" stroke="black" d="M150.84,-692.46C78.57,-677.84 56.62,-562.53 50.13,-504.76"/>
<polygon fill="black" stroke="black" points="158.21,-693.19 165.82,-697.55 162.52,-693.61 165.83,-693.93 165.83,-693.93 165.83,-693.93 162.52,-693.61 166.52,-690.38 158.21,-693.19"/>
<ellipse fill="none" stroke="black" cx="153.31" cy="-692.71" rx="3.2" ry="3.2"/>
</g>
<!-- block_second_degree_relations -->
<g id="node3" class="node">
<title>block_second_degree_relations</title>
<g id="a_node3"><a xlink:href="../../tables/block_second_degree_relations.html" xlink:title="block_second_degree_relations" target="_top">
<polygon fill="#ffffff" stroke="none" points="374,-561 374,-619 595,-619 595,-561 374,-561"/>
<polygon fill="#f5f5f5" stroke="none" points="374,-597 374,-619 595,-619 595,-597 374,-597"/>
<polygon fill="none" stroke="black" points="374,-597 374,-619 595,-619 595,-597 374,-597"/>
<text text-anchor="start" x="379" y="-604.55" font-family="Helvetica,sans-Serif" font-weight="bold" font-size="11.00">block_second_degree_relations</text>
<text text-anchor="start" x="561" y="-603.55" font-family="Helvetica,sans-Serif" font-size="11.00">[table]</text>
<polygon fill="none" stroke="black" points="374,-579 374,-597 595,-597 595,-579 374,-579"/>
<text text-anchor="start" x="377" y="-583.55" font-family="Helvetica,sans-Serif" font-size="11.00">...</text>
<polygon fill="#ffffff" stroke="none" points="374,-561 374,-579 483,-579 483,-561 374,-561"/>
<polygon fill="none" stroke="black" points="374,-561 374,-579 483,-579 483,-561 374,-561"/>
<text text-anchor="start" x="377" y="-565.55" font-family="Helvetica,sans-Serif" font-size="11.00">&lt; 2</text>
<polygon fill="#ffffff" stroke="none" points="483,-561 483,-579 539,-579 539,-561 483,-561"/>
<polygon fill="none" stroke="black" points="483,-561 483,-579 539,-579 539,-561 483,-561"/>
<text text-anchor="start" x="530" y="-565.55" font-family="Helvetica,sans-Serif" font-size="11.00"> &#160;</text>
<polygon fill="#ffffff" stroke="none" points="539,-561 539,-579 595,-579 595,-561 539,-561"/>
<polygon fill="none" stroke="black" points="539,-561 539,-579 595,-579 595,-561 539,-561"/>
<text text-anchor="start" x="586" y="-565.55" font-family="Helvetica,sans-Serif" font-size="11.00"> &#160;</text>
</a>
</g>
</g>
<!-- block_second_degree_relations&#45;&gt;blocks -->
<g id="edge3" class="edge">
<title>block_second_degree_relations:w&#45;&gt;blocks:e</title>
<path fill="none" stroke="black" d="M356.91,-588.24C258.73,-591.33 218.34,-621.71 126,-573 97.71,-558.08 76.41,-527.99 63.19,-504.51"/>
<polygon fill="black" stroke="black" points="364.17,-588.13 372.22,-591.6 368.5,-588.06 371.83,-588.01 371.83,-588.01 371.83,-588.01 368.5,-588.06 372.11,-584.41 364.17,-588.13"/>
<ellipse fill="none" stroke="black" cx="359.25" cy="-588.21" rx="3.2" ry="3.2"/>
</g>
<!-- withdrawals -->
<g id="node4" class="node">
<title>withdrawals</title>
<g id="a_node4"><a xlink:href="../../tables/withdrawals.html" xlink:title="withdrawals" target="_top">
<polygon fill="#ffffff" stroke="none" points="176,-504 176,-562 283,-562 283,-504 176,-504"/>
<polygon fill="#f5f5f5" stroke="none" points="176,-540 176,-562 283,-562 283,-540 176,-540"/>
<polygon fill="none" stroke="black" points="176,-540 176,-562 283,-562 283,-540 176,-540"/>
<text text-anchor="start" x="181" y="-547.55" font-family="Helvetica,sans-Serif" font-weight="bold" font-size="11.00">withdrawals</text>
<text text-anchor="start" x="249" y="-546.55" font-family="Helvetica,sans-Serif" font-size="11.00">[table]</text>
<polygon fill="none" stroke="black" points="176,-522 176,-540 283,-540 283,-522 176,-522"/>
<text text-anchor="start" x="179" y="-526.55" font-family="Helvetica,sans-Serif" font-size="11.00">...</text>
<polygon fill="#ffffff" stroke="none" points="176,-504 176,-522 223,-522 223,-504 176,-504"/>
<polygon fill="none" stroke="black" points="176,-504 176,-522 223,-522 223,-504 176,-504"/>
<text text-anchor="start" x="179" y="-508.55" font-family="Helvetica,sans-Serif" font-size="11.00">&lt; 1</text>
<polygon fill="#ffffff" stroke="none" points="223,-504 223,-522 248,-522 248,-504 223,-504"/>
<polygon fill="none" stroke="black" points="223,-504 223,-522 248,-522 248,-504 223,-504"/>
<text text-anchor="start" x="239" y="-508.55" font-family="Helvetica,sans-Serif" font-size="11.00"> &#160;</text>
<polygon fill="#ffffff" stroke="none" points="248,-504 248,-522 283,-522 283,-504 248,-504"/>
<polygon fill="none" stroke="black" points="248,-504 248,-522 283,-522 283,-504 248,-504"/>
<text text-anchor="start" x="264.25" y="-508.55" font-family="Helvetica,sans-Serif" font-size="11.00">5 &gt;</text>
</a>
</g>
</g>
<!-- block_second_degree_relations&#45;&gt;withdrawals -->
<g id="edge2" class="edge">
<title>block_second_degree_relations:w&#45;&gt;withdrawals:e</title>
<path fill="none" stroke="black" stroke-dasharray="5,2" d="M357.25,-585.55C326.39,-574.64 325.27,-531 284.5,-531"/>
<polygon fill="black" stroke="black" points="364.27,-586.68 371.6,-591.5 368.55,-587.37 371.84,-587.89 371.84,-587.89 371.84,-587.89 368.55,-587.37 372.74,-584.39 364.27,-586.68"/>
<ellipse fill="none" stroke="black" cx="359.41" cy="-585.9" rx="3.2" ry="3.2"/>
</g>
<!-- withdrawals&#45;&gt;blocks -->
<g id="edge18" class="edge">
<title>withdrawals:w&#45;&gt;blocks:e</title>
<path fill="none" stroke="black" d="M158.89,-529.83C135.18,-526.39 111.91,-515.8 92.83,-504.61"/>
<polygon fill="black" stroke="black" points="166.19,-530.38 173.9,-534.57 170.51,-530.7 173.83,-530.95 173.83,-530.95 173.83,-530.95 170.51,-530.7 174.43,-527.39 166.19,-530.38"/>
<ellipse fill="none" stroke="black" cx="161.28" cy="-530.01" rx="3.2" ry="3.2"/>
</g>
<!-- internal_transactions -->
<g id="node5" class="node">
<title>internal_transactions</title>
<g id="a_node5"><a xlink:href="../../tables/internal_transactions.html" xlink:title="internal_transactions" target="_top">
<polygon fill="#ffffff" stroke="none" points="712,-603 712,-661 872,-661 872,-603 712,-603"/>
<polygon fill="#f5f5f5" stroke="none" points="712,-639 712,-661 872,-661 872,-639 712,-639"/>
<polygon fill="none" stroke="black" points="712,-639 712,-661 872,-661 872,-639 712,-639"/>
<text text-anchor="start" x="717" y="-646.55" font-family="Helvetica,sans-Serif" font-weight="bold" font-size="11.00">internal_transactions</text>
<text text-anchor="start" x="838" y="-645.55" font-family="Helvetica,sans-Serif" font-size="11.00">[table]</text>
<polygon fill="none" stroke="black" points="712,-621 712,-639 872,-639 872,-621 712,-621"/>
<text text-anchor="start" x="715" y="-625.55" font-family="Helvetica,sans-Serif" font-size="11.00">...</text>
<polygon fill="#ffffff" stroke="none" points="712,-603 712,-621 790,-621 790,-603 712,-603"/>
<polygon fill="none" stroke="black" points="712,-603 712,-621 790,-621 790,-603 712,-603"/>
<text text-anchor="start" x="715" y="-607.55" font-family="Helvetica,sans-Serif" font-size="11.00">&lt; 4</text>
<polygon fill="#ffffff" stroke="none" points="790,-603 790,-621 831,-621 831,-603 790,-603"/>
<polygon fill="none" stroke="black" points="790,-603 790,-621 831,-621 831,-603 790,-603"/>
<text text-anchor="start" x="822" y="-607.55" font-family="Helvetica,sans-Serif" font-size="11.00"> &#160;</text>
<polygon fill="#ffffff" stroke="none" points="831,-603 831,-621 872,-621 872,-603 831,-603"/>
<polygon fill="none" stroke="black" points="831,-603 831,-621 872,-621 872,-603 831,-603"/>
<text text-anchor="start" x="863" y="-607.55" font-family="Helvetica,sans-Serif" font-size="11.00"> &#160;</text>
</a>
</g>
</g>
<!-- internal_transactions&#45;&gt;blocks -->
<g id="edge4" class="edge">
<title>internal_transactions:w&#45;&gt;blocks:e</title>
<path fill="none" stroke="black" d="M695.21,-630.15C554.81,-632.64 231.21,-663.97 126,-596 92.93,-574.64 71.19,-533.9 59.14,-504.95"/>
<polygon fill="black" stroke="black" points="702.67,-630.08 710.7,-633.6 707,-630.04 710.33,-630.01 710.33,-630.01 710.33,-630.01 707,-630.04 710.63,-626.4 702.67,-630.08"/>
<ellipse fill="none" stroke="black" cx="697.75" cy="-630.13" rx="3.2" ry="3.2"/>
</g>
<!-- internal_transactions&#45;&gt;withdrawals -->
<g id="edge5" class="edge">
<title>internal_transactions:w&#45;&gt;withdrawals:e</title>
<path fill="none" stroke="black" stroke-dasharray="5,2" d="M695.46,-629.02C670.54,-625.52 660.35,-612.76 636,-593 617.56,-578.04 624.02,-562.04 603,-551 477.44,-485.03 426.33,-531 284.5,-531"/>
<polygon fill="black" stroke="black" points="702.68,-629.48 710.44,-633.57 707.01,-629.75 710.33,-629.96 710.33,-629.96 710.33,-629.96 707.01,-629.75 710.89,-626.39 702.68,-629.48"/>
<ellipse fill="none" stroke="black" cx="697.77" cy="-629.17" rx="3.2" ry="3.2"/>
</g>
<!-- internal_transactions&#45;&gt;withdrawals -->
<g id="edge7" class="edge">
<title>internal_transactions:w&#45;&gt;withdrawals:e</title>
<path fill="none" stroke="black" stroke-dasharray="5,2" d="M695.49,-628.98C670.69,-625.33 660.83,-612.15 636,-593 618.29,-579.34 622.99,-565.04 603,-555 476.15,-491.29 426.46,-531 284.5,-531"/>
<polygon fill="black" stroke="black" points="702.68,-629.45 710.43,-633.57 707.01,-629.74 710.33,-629.96 710.33,-629.96 710.33,-629.96 707.01,-629.74 710.9,-626.39 702.68,-629.45"/>
<ellipse fill="none" stroke="black" cx="697.78" cy="-629.13" rx="3.2" ry="3.2"/>
</g>
<!-- transactions -->
<g id="node6" class="node">
<title>transactions</title>
<g id="a_node6"><a xlink:href="../../tables/transactions.html" xlink:title="transactions" target="_top">
<polygon fill="#ffffff" stroke="none" points="429.5,-443 429.5,-501 539.5,-501 539.5,-443 429.5,-443"/>
<polygon fill="#f5f5f5" stroke="none" points="429.5,-479 429.5,-501 539.5,-501 539.5,-479 429.5,-479"/>
<polygon fill="none" stroke="black" points="429.5,-479 429.5,-501 539.5,-501 539.5,-479 429.5,-479"/>
<text text-anchor="start" x="434.5" y="-486.55" font-family="Helvetica,sans-Serif" font-weight="bold" font-size="11.00">transactions</text>
<text text-anchor="start" x="505.5" y="-485.55" font-family="Helvetica,sans-Serif" font-size="11.00">[table]</text>
<polygon fill="none" stroke="black" points="429.5,-461 429.5,-479 539.5,-479 539.5,-461 429.5,-461"/>
<text text-anchor="start" x="432.5" y="-465.55" font-family="Helvetica,sans-Serif" font-size="11.00">...</text>
<polygon fill="#ffffff" stroke="none" points="429.5,-443 429.5,-461 478.5,-461 478.5,-443 429.5,-443"/>
<polygon fill="none" stroke="black" points="429.5,-443 429.5,-461 478.5,-461 478.5,-443 429.5,-443"/>
<text text-anchor="start" x="432.5" y="-447.55" font-family="Helvetica,sans-Serif" font-size="11.00">&lt; 2</text>
<polygon fill="#ffffff" stroke="none" points="478.5,-443 478.5,-461 504.5,-461 504.5,-443 478.5,-443"/>
<polygon fill="none" stroke="black" points="478.5,-443 478.5,-461 504.5,-461 504.5,-443 478.5,-443"/>
<text text-anchor="start" x="495.5" y="-447.55" font-family="Helvetica,sans-Serif" font-size="11.00"> &#160;</text>
<polygon fill="#ffffff" stroke="none" points="504.5,-443 504.5,-461 539.5,-461 539.5,-443 504.5,-443"/>
<polygon fill="none" stroke="black" points="504.5,-443 504.5,-461 539.5,-461 539.5,-443 504.5,-443"/>
<text text-anchor="start" x="520.75" y="-447.55" font-family="Helvetica,sans-Serif" font-size="11.00">5 &gt;</text>
</a>
</g>
</g>
<!-- internal_transactions&#45;&gt;transactions -->
<g id="edge6" class="edge">
<title>internal_transactions:w&#45;&gt;transactions:e</title>
<path fill="none" stroke="black" d="M695.25,-629.24C669.66,-626.47 657.52,-615.81 636,-593 610.17,-565.62 630.27,-540.95 603,-515 587.66,-500.4 566.96,-490.68 547.21,-484.25"/>
<polygon fill="black" stroke="black" points="702.68,-629.6 710.49,-633.58 707,-629.81 710.33,-629.97 710.33,-629.97 710.33,-629.97 707,-629.81 710.84,-626.39 702.68,-629.6"/>
<ellipse fill="none" stroke="black" cx="697.76" cy="-629.36" rx="3.2" ry="3.2"/>
</g>
<!-- transactions&#45;&gt;blocks -->
<g id="edge16" class="edge">
<title>transactions:w&#45;&gt;blocks:e</title>
<path fill="none" stroke="black" d="M406.2,-472C315.16,-472 166.96,-472 92.79,-472"/>
<polygon fill="black" stroke="black" points="413.62,-472 421.62,-475.6 417.96,-472 421.29,-472 421.29,-472 421.29,-472 417.96,-472 421.62,-468.4 413.62,-472"/>
<ellipse fill="none" stroke="black" cx="408.7" cy="-472" rx="3.2" ry="3.2"/>
</g>
<!-- transactions&#45;&gt;withdrawals -->
<g id="edge17" class="edge">
<title>transactions:w&#45;&gt;withdrawals:e</title>
<path fill="none" stroke="black" stroke-dasharray="5,2" d="M407.14,-499.53C361.8,-514.91 308.59,-531 284.5,-531"/>
<polygon fill="black" stroke="black" points="413.97,-497.18 422.71,-497.99 418.07,-495.77 421.22,-494.69 421.22,-494.69 421.22,-494.69 418.07,-495.77 420.37,-491.18 413.97,-497.18"/>
<ellipse fill="none" stroke="black" cx="409.32" cy="-498.78" rx="3.2" ry="3.2"/>
</g>
<!-- logs -->
<g id="node7" class="node">
<title>logs</title>
<g id="a_node7"><a xlink:href="../../tables/logs.html" xlink:title="logs" target="_top">
<polygon fill="#ffffff" stroke="none" points="760.5,-445 760.5,-503 823.5,-503 823.5,-445 760.5,-445"/>
<polygon fill="#f5f5f5" stroke="none" points="760.5,-481 760.5,-503 823.5,-503 823.5,-481 760.5,-481"/>
<polygon fill="none" stroke="black" points="760.5,-481 760.5,-503 823.5,-503 823.5,-481 760.5,-481"/>
<text text-anchor="start" x="764.25" y="-488.55" font-family="Helvetica,sans-Serif" font-weight="bold" font-size="11.00">logs</text>
<text text-anchor="start" x="789.5" y="-487.55" font-family="Helvetica,sans-Serif" font-size="11.00">[table]</text>
<polygon fill="none" stroke="black" points="760.5,-463 760.5,-481 823.5,-481 823.5,-463 760.5,-463"/>
<text text-anchor="start" x="763.5" y="-467.55" font-family="Helvetica,sans-Serif" font-size="11.00">...</text>
<polygon fill="#ffffff" stroke="none" points="760.5,-445 760.5,-463 790.5,-463 790.5,-445 760.5,-445"/>
<polygon fill="none" stroke="black" points="760.5,-445 760.5,-463 790.5,-463 790.5,-445 760.5,-445"/>
<text text-anchor="start" x="763.5" y="-449.55" font-family="Helvetica,sans-Serif" font-size="11.00">&lt; 2</text>
<polygon fill="#ffffff" stroke="none" points="790.5,-445 790.5,-463 806.5,-463 806.5,-445 790.5,-445"/>
<polygon fill="none" stroke="black" points="790.5,-445 790.5,-463 806.5,-463 806.5,-445 790.5,-445"/>
<text text-anchor="start" x="797.5" y="-449.55" font-family="Helvetica,sans-Serif" font-size="11.00"> &#160;</text>
<polygon fill="#ffffff" stroke="none" points="806.5,-445 806.5,-463 823.5,-463 823.5,-445 806.5,-445"/>
<polygon fill="none" stroke="black" points="806.5,-445 806.5,-463 823.5,-463 823.5,-445 806.5,-445"/>
<text text-anchor="start" x="814.5" y="-449.55" font-family="Helvetica,sans-Serif" font-size="11.00"> &#160;</text>
</a>
</g>
</g>
<!-- logs&#45;&gt;blocks -->
<g id="edge8" class="edge">
<title>logs:w&#45;&gt;blocks:e</title>
<path fill="none" stroke="black" d="M743.25,-471.47C685.06,-467.4 668.39,-441.05 603,-433 498.46,-420.13 471.14,-426.59 366,-433 268.27,-438.96 154.62,-455.12 92.96,-464.66"/>
<polygon fill="black" stroke="black" points="750.67,-471.72 758.54,-475.59 755,-471.87 758.33,-471.98 758.33,-471.98 758.33,-471.98 755,-471.87 758.79,-468.39 750.67,-471.72"/>
<ellipse fill="none" stroke="black" cx="745.75" cy="-471.55" rx="3.2" ry="3.2"/>
</g>
<!-- logs&#45;&gt;transactions -->
<g id="edge9" class="edge">
<title>logs:w&#45;&gt;transactions:e</title>
<path fill="none" stroke="black" d="M743.53,-472C674.75,-472 598.95,-472 547.41,-472"/>
<polygon fill="black" stroke="black" points="750.67,-472 758.67,-475.6 755,-472 758.33,-472 758.33,-472 758.33,-472 755,-472 758.67,-468.4 750.67,-472"/>
<ellipse fill="none" stroke="black" cx="745.75" cy="-472" rx="3.2" ry="3.2"/>
</g>
<!-- pending_block_operations -->
<g id="node8" class="node">
<title>pending_block_operations</title>
<g id="a_node8"><a xlink:href="../../tables/pending_block_operations.html" xlink:title="pending_block_operations" target="_top">
<polygon fill="#ffffff" stroke="none" points="134,-337 134,-395 325,-395 325,-337 134,-337"/>
<polygon fill="#f5f5f5" stroke="none" points="134,-373 134,-395 325,-395 325,-373 134,-373"/>
<polygon fill="none" stroke="black" points="134,-373 134,-395 325,-395 325,-373 134,-373"/>
<text text-anchor="start" x="139" y="-380.55" font-family="Helvetica,sans-Serif" font-weight="bold" font-size="11.00">pending_block_operations</text>
<text text-anchor="start" x="291" y="-379.55" font-family="Helvetica,sans-Serif" font-size="11.00">[table]</text>
<polygon fill="none" stroke="black" points="134,-355 134,-373 325,-373 325,-355 134,-355"/>
<text text-anchor="start" x="137" y="-359.55" font-family="Helvetica,sans-Serif" font-size="11.00">...</text>
<polygon fill="#ffffff" stroke="none" points="134,-337 134,-355 228,-355 228,-337 134,-337"/>
<polygon fill="none" stroke="black" points="134,-337 134,-355 228,-355 228,-337 134,-337"/>
<text text-anchor="start" x="137" y="-341.55" font-family="Helvetica,sans-Serif" font-size="11.00">&lt; 1</text>
<polygon fill="#ffffff" stroke="none" points="228,-337 228,-355 276,-355 276,-337 228,-337"/>
<polygon fill="none" stroke="black" points="228,-337 228,-355 276,-355 276,-337 228,-337"/>
<text text-anchor="start" x="267" y="-341.55" font-family="Helvetica,sans-Serif" font-size="11.00"> &#160;</text>
<polygon fill="#ffffff" stroke="none" points="276,-337 276,-355 325,-355 325,-337 276,-337"/>
<polygon fill="none" stroke="black" points="276,-337 276,-355 325,-355 325,-337 276,-337"/>
<text text-anchor="start" x="316" y="-341.55" font-family="Helvetica,sans-Serif" font-size="11.00"> &#160;</text>
</a>
</g>
</g>
<!-- pending_block_operations&#45;&gt;blocks -->
<g id="edge10" class="edge">
<title>pending_block_operations:w&#45;&gt;blocks:e</title>
<path fill="none" stroke="black" d="M121.18,-365.28C89.14,-372.67 68.83,-410.47 57.83,-439.01"/>
<polygon fill="black" stroke="black" points="131.26,-360.12 132.15,-368.06 130.57,-368.24 129.67,-360.3 131.26,-360.12"/>
<polyline fill="none" stroke="black" points="132.5,-364 128.53,-364.45"/>
<ellipse fill="none" stroke="black" cx="124.85" cy="-364.87" rx="3.2" ry="3.2"/>
</g>
<!-- token_transfers -->
<g id="node9" class="node">
<title>token_transfers</title>
<g id="a_node9"><a xlink:href="../../tables/token_transfers.html" xlink:title="token_transfers" target="_top">
<polygon fill="#ffffff" stroke="none" points="644,-116 644,-424 940,-424 940,-116 644,-116"/>
<polygon fill="#f5f5f5" stroke="none" points="646,-400 646,-422 938,-422 938,-400 646,-400"/>
<polygon fill="none" stroke="black" points="646,-400 646,-422 938,-422 938,-400 646,-400"/>
<text text-anchor="start" x="651" y="-407.55" font-family="Helvetica,sans-Serif" font-weight="bold" font-size="11.00">token_transfers</text>
<text text-anchor="start" x="903.75" y="-406.55" font-family="Helvetica,sans-Serif" font-size="11.00">[table]</text>
<polygon fill="none" stroke="black" points="646,-378 646,-400 840,-400 840,-378 646,-378"/>
<image xlink:href="../../images/primaryKeys.png" width="11px" height="12px" preserveAspectRatio="xMinYMin meet" x="651" y="-395"/>
<text text-anchor="start" x="666" y="-384.55" font-family="Helvetica,sans-Serif" font-size="11.00">transaction_hash</text>
<polygon fill="none" stroke="black" points="840,-378 840,-400 938,-400 938,-378 840,-378"/>
<text text-anchor="start" x="842.88" y="-384.55" font-family="Helvetica,sans-Serif" font-size="11.00">bytea[2147483647]</text>
<polygon fill="none" stroke="black" points="646,-356 646,-378 840,-378 840,-356 646,-356"/>
<image xlink:href="../../images/primaryKeys.png" width="11px" height="12px" preserveAspectRatio="xMinYMin meet" x="651" y="-373"/>
<text text-anchor="start" x="666" y="-362.55" font-family="Helvetica,sans-Serif" font-size="11.00">log_index</text>
<polygon fill="none" stroke="black" points="840,-356 840,-378 938,-378 938,-356 840,-356"/>
<text text-anchor="start" x="843" y="-362.55" font-family="Helvetica,sans-Serif" font-size="11.00">int4[10]</text>
<polygon fill="#ffffff" stroke="none" points="646,-334 646,-356 840,-356 840,-334 646,-334"/>
<polygon fill="none" stroke="black" points="646,-334 646,-356 840,-356 840,-334 646,-334"/>
<text text-anchor="start" x="666" y="-340.55" font-family="Helvetica,sans-Serif" font-size="11.00">from_address_hash</text>
<polygon fill="none" stroke="black" points="840,-334 840,-356 938,-356 938,-334 840,-334"/>
<text text-anchor="start" x="842.88" y="-340.55" font-family="Helvetica,sans-Serif" font-size="11.00">bytea[2147483647]</text>
<polygon fill="#ffffff" stroke="none" points="646,-312 646,-334 840,-334 840,-312 646,-312"/>
<polygon fill="none" stroke="black" points="646,-312 646,-334 840,-334 840,-312 646,-312"/>
<text text-anchor="start" x="666" y="-318.55" font-family="Helvetica,sans-Serif" font-size="11.00">to_address_hash</text>
<polygon fill="none" stroke="black" points="840,-312 840,-334 938,-334 938,-312 840,-312"/>
<text text-anchor="start" x="842.88" y="-318.55" font-family="Helvetica,sans-Serif" font-size="11.00">bytea[2147483647]</text>
<polygon fill="none" stroke="black" points="646,-290 646,-312 840,-312 840,-290 646,-290"/>
<text text-anchor="start" x="666" y="-296.55" font-family="Helvetica,sans-Serif" font-size="11.00">amount</text>
<polygon fill="none" stroke="black" points="840,-290 840,-312 938,-312 938,-290 840,-290"/>
<text text-anchor="start" x="843" y="-296.55" font-family="Helvetica,sans-Serif" font-size="11.00">numeric[0]</text>
<polygon fill="#ffffff" stroke="none" points="646,-268 646,-290 840,-290 840,-268 646,-268"/>
<polygon fill="none" stroke="black" points="646,-268 646,-290 840,-290 840,-268 646,-268"/>
<text text-anchor="start" x="666" y="-274.55" font-family="Helvetica,sans-Serif" font-size="11.00">token_contract_address_hash</text>
<polygon fill="none" stroke="black" points="840,-268 840,-290 938,-290 938,-268 840,-268"/>
<text text-anchor="start" x="842.88" y="-274.55" font-family="Helvetica,sans-Serif" font-size="11.00">bytea[2147483647]</text>
<polygon fill="none" stroke="black" points="646,-246 646,-268 840,-268 840,-246 646,-246"/>
<text text-anchor="start" x="666" y="-252.55" font-family="Helvetica,sans-Serif" font-size="11.00">inserted_at</text>
<polygon fill="none" stroke="black" points="840,-246 840,-268 938,-268 938,-246 840,-246"/>
<text text-anchor="start" x="843" y="-252.55" font-family="Helvetica,sans-Serif" font-size="11.00">timestamp[29,6]</text>
<polygon fill="none" stroke="black" points="646,-224 646,-246 840,-246 840,-224 646,-224"/>
<text text-anchor="start" x="666" y="-230.55" font-family="Helvetica,sans-Serif" font-size="11.00">updated_at</text>
<polygon fill="none" stroke="black" points="840,-224 840,-246 938,-246 938,-224 840,-224"/>
<text text-anchor="start" x="843" y="-230.55" font-family="Helvetica,sans-Serif" font-size="11.00">timestamp[29,6]</text>
<polygon fill="#ffffff" stroke="none" points="646,-202 646,-224 840,-224 840,-202 646,-202"/>
<polygon fill="none" stroke="black" points="646,-202 646,-224 840,-224 840,-202 646,-202"/>
<text text-anchor="start" x="666" y="-208.55" font-family="Helvetica,sans-Serif" font-size="11.00">block_number</text>
<polygon fill="none" stroke="black" points="840,-202 840,-224 938,-224 938,-202 840,-202"/>
<text text-anchor="start" x="843" y="-208.55" font-family="Helvetica,sans-Serif" font-size="11.00">int4[10]</text>
<polygon fill="none" stroke="black" points="646,-180 646,-202 840,-202 840,-180 646,-180"/>
<image xlink:href="../../images/primaryKeys.png" width="11px" height="12px" preserveAspectRatio="xMinYMin meet" x="651" y="-197"/>
<text text-anchor="start" x="666" y="-186.55" font-family="Helvetica,sans-Serif" font-size="11.00">block_hash</text>
<polygon fill="none" stroke="black" points="840,-180 840,-202 938,-202 938,-180 840,-180"/>
<text text-anchor="start" x="842.88" y="-186.55" font-family="Helvetica,sans-Serif" font-size="11.00">bytea[2147483647]</text>
<polygon fill="none" stroke="black" points="646,-158 646,-180 840,-180 840,-158 646,-158"/>
<text text-anchor="start" x="666" y="-164.55" font-family="Helvetica,sans-Serif" font-size="11.00">amounts</text>
<polygon fill="none" stroke="black" points="840,-158 840,-180 938,-180 938,-158 840,-158"/>
<text text-anchor="start" x="843" y="-164.55" font-family="Helvetica,sans-Serif" font-size="11.00">_numeric[131089]</text>
<polygon fill="#ffffff" stroke="none" points="646,-136 646,-158 840,-158 840,-136 646,-136"/>
<polygon fill="none" stroke="black" points="646,-136 646,-158 840,-158 840,-136 646,-136"/>
<text text-anchor="start" x="666" y="-142.55" font-family="Helvetica,sans-Serif" font-size="11.00">token_ids</text>
<polygon fill="none" stroke="black" points="840,-136 840,-158 938,-158 938,-136 840,-136"/>
<text text-anchor="start" x="843" y="-142.55" font-family="Helvetica,sans-Serif" font-size="11.00">_numeric[78]</text>
<polygon fill="#ffffff" stroke="none" points="646,-118 646,-136 747,-136 747,-118 646,-118"/>
<polygon fill="none" stroke="black" points="646,-118 646,-136 747,-136 747,-118 646,-118"/>
<text text-anchor="start" x="649" y="-122.55" font-family="Helvetica,sans-Serif" font-size="11.00">&lt; 2</text>
<polygon fill="#ffffff" stroke="none" points="747,-118 747,-136 840,-136 840,-118 747,-118"/>
<polygon fill="none" stroke="black" points="747,-118 747,-136 840,-136 840,-118 747,-118"/>
<text text-anchor="start" x="831" y="-122.55" font-family="Helvetica,sans-Serif" font-size="11.00"> &#160;</text>
<polygon fill="#ffffff" stroke="none" points="840,-118 840,-136 938,-136 938,-118 840,-118"/>
<polygon fill="none" stroke="black" points="840,-118 840,-136 938,-136 938,-118 840,-118"/>
<text text-anchor="start" x="919.25" y="-122.55" font-family="Helvetica,sans-Serif" font-size="11.00">0 &gt;</text>
<polygon fill="none" stroke="black" stroke-width="2" points="645,-117 645,-423 939,-423 939,-117 645,-117"/>
</a>
</g>
</g>
<!-- token_transfers&#45;&gt;blocks -->
<g id="edge11" class="edge">
<title>token_transfers:w&#45;&gt;blocks:e</title>
<path fill="none" stroke="black" d="M629.5,-190.98C402.51,-190.54 309.29,-181.98 126,-326 89.34,-354.8 67.64,-405.62 56.65,-439.05"/>
<polygon fill="black" stroke="black" points="636.67,-190.99 644.66,-194.6 641,-191 644.33,-191 644.33,-191 644.33,-191 641,-191 644.67,-187.4 636.67,-190.99"/>
<ellipse fill="none" stroke="black" cx="631.75" cy="-190.99" rx="3.2" ry="3.2"/>
</g>
<!-- token_transfers&#45;&gt;transactions -->
<g id="edge12" class="edge">
<title>token_transfers:w&#45;&gt;transactions:e</title>
<path fill="none" stroke="black" d="M629.27,-390.03C589.14,-395.17 550.42,-418.67 523.29,-439.2"/>
<polygon fill="black" stroke="black" points="636.68,-389.54 644.9,-392.61 641.01,-389.26 644.33,-389.04 644.33,-389.04 644.33,-389.04 641.01,-389.26 644.43,-385.43 636.68,-389.54"/>
<ellipse fill="none" stroke="black" cx="631.78" cy="-389.86" rx="3.2" ry="3.2"/>
</g>
<!-- transaction_actions -->
<g id="node10" class="node">
<title>transaction_actions</title>
<g id="a_node10"><a xlink:href="../../tables/transaction_actions.html" xlink:title="transaction_actions" target="_top">
<polygon fill="#ffffff" stroke="none" points="716,-524 716,-582 868,-582 868,-524 716,-524"/>
<polygon fill="#f5f5f5" stroke="none" points="716,-560 716,-582 868,-582 868,-560 716,-560"/>
<polygon fill="none" stroke="black" points="716,-560 716,-582 868,-582 868,-560 716,-560"/>
<text text-anchor="start" x="721" y="-567.55" font-family="Helvetica,sans-Serif" font-weight="bold" font-size="11.00">transaction_actions</text>
<text text-anchor="start" x="834" y="-566.55" font-family="Helvetica,sans-Serif" font-size="11.00">[table]</text>
<polygon fill="none" stroke="black" points="716,-542 716,-560 868,-560 868,-542 716,-542"/>
<text text-anchor="start" x="719" y="-546.55" font-family="Helvetica,sans-Serif" font-size="11.00">...</text>
<polygon fill="#ffffff" stroke="none" points="716,-524 716,-542 790,-542 790,-524 716,-524"/>
<polygon fill="none" stroke="black" points="716,-524 716,-542 790,-542 790,-524 716,-524"/>
<text text-anchor="start" x="719" y="-528.55" font-family="Helvetica,sans-Serif" font-size="11.00">&lt; 1</text>
<polygon fill="#ffffff" stroke="none" points="790,-524 790,-542 829,-542 829,-524 790,-524"/>
<polygon fill="none" stroke="black" points="790,-524 790,-542 829,-542 829,-524 790,-524"/>
<text text-anchor="start" x="820" y="-528.55" font-family="Helvetica,sans-Serif" font-size="11.00"> &#160;</text>
<polygon fill="#ffffff" stroke="none" points="829,-524 829,-542 868,-542 868,-524 829,-524"/>
<polygon fill="none" stroke="black" points="829,-524 829,-542 868,-542 868,-524 829,-524"/>
<text text-anchor="start" x="859" y="-528.55" font-family="Helvetica,sans-Serif" font-size="11.00"> &#160;</text>
</a>
</g>
</g>
<!-- transaction_actions&#45;&gt;transactions -->
<g id="edge13" class="edge">
<title>transaction_actions:w&#45;&gt;transactions:e</title>
<path fill="none" stroke="black" d="M700.09,-547.25C669.3,-537.91 599.16,-513.04 547.41,-494.43"/>
<polygon fill="black" stroke="black" points="706.92,-548.97 713.8,-554.41 711.12,-550.02 714.35,-550.84 714.35,-550.84 714.35,-550.84 711.12,-550.02 715.55,-547.43 706.92,-548.97"/>
<ellipse fill="none" stroke="black" cx="702.15" cy="-547.77" rx="3.2" ry="3.2"/>
</g>
<!-- transaction_forks -->
<g id="node11" class="node">
<title>transaction_forks</title>
<g id="a_node11"><a xlink:href="../../tables/transaction_forks.html" xlink:title="transaction_forks" target="_top">
<polygon fill="#ffffff" stroke="none" points="722.5,-37 722.5,-95 861.5,-95 861.5,-37 722.5,-37"/>
<polygon fill="#f5f5f5" stroke="none" points="722.5,-73 722.5,-95 861.5,-95 861.5,-73 722.5,-73"/>
<polygon fill="none" stroke="black" points="722.5,-73 722.5,-95 861.5,-95 861.5,-73 722.5,-73"/>
<text text-anchor="start" x="727.5" y="-80.55" font-family="Helvetica,sans-Serif" font-weight="bold" font-size="11.00">transaction_forks</text>
<text text-anchor="start" x="827.5" y="-79.55" font-family="Helvetica,sans-Serif" font-size="11.00">[table]</text>
<polygon fill="none" stroke="black" points="722.5,-55 722.5,-73 861.5,-73 861.5,-55 722.5,-55"/>
<text text-anchor="start" x="725.5" y="-59.55" font-family="Helvetica,sans-Serif" font-size="11.00">...</text>
<polygon fill="#ffffff" stroke="none" points="722.5,-37 722.5,-55 790.5,-55 790.5,-37 722.5,-37"/>
<polygon fill="none" stroke="black" points="722.5,-37 722.5,-55 790.5,-55 790.5,-37 722.5,-37"/>
<text text-anchor="start" x="725.5" y="-41.55" font-family="Helvetica,sans-Serif" font-size="11.00">&lt; 2</text>
<polygon fill="#ffffff" stroke="none" points="790.5,-37 790.5,-55 825.5,-55 825.5,-37 790.5,-37"/>
<polygon fill="none" stroke="black" points="790.5,-37 790.5,-55 825.5,-55 825.5,-37 790.5,-37"/>
<text text-anchor="start" x="816.5" y="-41.55" font-family="Helvetica,sans-Serif" font-size="11.00"> &#160;</text>
<polygon fill="#ffffff" stroke="none" points="825.5,-37 825.5,-55 861.5,-55 861.5,-37 825.5,-37"/>
<polygon fill="none" stroke="black" points="825.5,-37 825.5,-55 861.5,-55 861.5,-37 825.5,-37"/>
<text text-anchor="start" x="852.5" y="-41.55" font-family="Helvetica,sans-Serif" font-size="11.00"> &#160;</text>
</a>
</g>
</g>
<!-- transaction_forks&#45;&gt;blocks -->
<g id="edge15" class="edge">
<title>transaction_forks:w&#45;&gt;blocks:e</title>
<path fill="none" stroke="black" d="M705.21,-63.95C443.79,-62.46 319.48,-26.05 126,-210 61.3,-271.51 49.29,-383.98 47.48,-439.38"/>
<polygon fill="black" stroke="black" points="712.67,-63.98 720.66,-67.6 717,-63.99 720.33,-64 720.33,-64 720.33,-64 717,-63.99 720.68,-60.4 712.67,-63.98"/>
<ellipse fill="none" stroke="black" cx="707.75" cy="-63.96" rx="3.2" ry="3.2"/>
</g>
<!-- transaction_forks&#45;&gt;transactions -->
<g id="edge14" class="edge">
<title>transaction_forks:w&#45;&gt;transactions:e</title>
<path fill="none" stroke="black" d="M705.24,-64.61C674.88,-67.24 660.82,-78.64 636,-105 587.85,-156.14 520.87,-358.83 495.65,-439.05"/>
<polygon fill="black" stroke="black" points="712.67,-64.32 720.81,-67.61 717,-64.16 720.33,-64.03 720.33,-64.03 720.33,-64.03 717,-64.16 720.53,-60.42 712.67,-64.32"/>
<ellipse fill="none" stroke="black" cx="707.76" cy="-64.51" rx="3.2" ry="3.2"/>
</g>
</g>
</svg>
