<?xml version="1.0" encoding="UTF-8" standalone="no"?>
<!DOCTYPE svg PUBLIC "-//W3C//DTD SVG 1.1//EN"
 "http://www.w3.org/Graphics/SVG/1.1/DTD/svg11.dtd">
<!-- Generated by graphviz version 2.43.0 (0)
 -->
<!-- Title: twoDegreesRelationshipsDiagramImplied Pages: 1 -->
<svg width="1337pt" height="875pt"
 viewBox="0.00 0.00 1337.00 875.00" xmlns="http://www.w3.org/2000/svg" xmlns:xlink="http://www.w3.org/1999/xlink">
<g id="graph0" class="graph" transform="scale(1 1) rotate(0) translate(4 871)">
<title>twoDegreesRelationshipsDiagramImplied</title>
<polygon fill="#ffffff" stroke="transparent" points="-4,4 -4,-871 1333,-871 1333,4 -4,4"/>
<text text-anchor="middle" x="79.5" y="-7.2" font-family="Helvetica,sans-Serif" font-size="11.00">Generated by SchemaSpy</text>
<!-- block_rewards -->
<g id="node1" class="node">
<title>block_rewards</title>
<g id="a_node1"><a xlink:href="../../tables/block_rewards.html" xlink:title="block_rewards" target="_top">
<polygon fill="#ffffff" stroke="transparent" points="400.5,-790 400.5,-848 552.5,-848 552.5,-790 400.5,-790"/>
<polygon fill="#f5f5f5" stroke="transparent" points="400.5,-826 400.5,-848 552.5,-848 552.5,-826 400.5,-826"/>
<polygon fill="none" stroke="black" points="400.5,-826 400.5,-848 552.5,-848 552.5,-826 400.5,-826"/>
<text text-anchor="start" x="405.5" y="-835.2" font-family="Helvetica,sans-Serif" font-weight="bold" font-size="11.00">block_rewards</text>
<text text-anchor="start" x="510.5" y="-834.2" font-family="Helvetica,sans-Serif" font-size="11.00">[table]</text>
<polygon fill="none" stroke="black" points="400.5,-808 400.5,-826 552.5,-826 552.5,-808 400.5,-808"/>
<text text-anchor="start" x="403.5" y="-814.2" font-family="Helvetica,sans-Serif" font-size="11.00">...</text>
<polygon fill="#ffffff" stroke="transparent" points="400.5,-790 400.5,-808 552.5,-808 552.5,-790 400.5,-790"/>
<polygon fill="none" stroke="black" points="400.5,-790 400.5,-808 552.5,-808 552.5,-790 400.5,-790"/>
<polygon fill="#ffffff" stroke="transparent" points="401.5,-791 401.5,-807 459.5,-807 459.5,-791 401.5,-791"/>
<text text-anchor="start" x="403.5" y="-796.2" font-family="Helvetica,sans-Serif" font-size="11.00">&lt; 1</text>
<polygon fill="#ffffff" stroke="transparent" points="459.5,-791 459.5,-807 505.5,-807 505.5,-791 459.5,-791"/>
<text text-anchor="start" x="478.5" y="-796.2" font-family="Helvetica,sans-Serif" font-size="11.00"> &#160;</text>
<polygon fill="#ffffff" stroke="transparent" points="505.5,-791 505.5,-807 551.5,-807 551.5,-791 505.5,-791"/>
<text text-anchor="start" x="541.5" y="-796.2" font-family="Helvetica,sans-Serif" font-size="11.00"> &#160;</text>
<polygon fill="black" stroke="black" points="459.5,-791 459.5,-807 459.5,-807 459.5,-791 459.5,-791"/>
<polygon fill="black" stroke="black" points="505.5,-791 505.5,-807 505.5,-807 505.5,-791 505.5,-791"/>
</a>
</g>
</g>
<!-- blocks -->
<g id="node2" class="node">
<title>blocks</title>
<g id="a_node2"><a xlink:href="../../tables/blocks.html" xlink:title="blocks" target="_top">
<polygon fill="#ffffff" stroke="transparent" points="216,-566 216,-624 309,-624 309,-566 216,-566"/>
<polygon fill="#f5f5f5" stroke="transparent" points="216.5,-602 216.5,-624 309.5,-624 309.5,-602 216.5,-602"/>
<polygon fill="none" stroke="black" points="216.5,-602 216.5,-624 309.5,-624 309.5,-602 216.5,-602"/>
<text text-anchor="start" x="221.5" y="-611.2" font-family="Helvetica,sans-Serif" font-weight="bold" font-size="11.00">blocks</text>
<text text-anchor="start" x="267.5" y="-610.2" font-family="Helvetica,sans-Serif" font-size="11.00">[table]</text>
<polygon fill="none" stroke="black" points="216.5,-584 216.5,-602 309.5,-602 309.5,-584 216.5,-584"/>
<text text-anchor="start" x="219.5" y="-590.2" font-family="Helvetica,sans-Serif" font-size="11.00">...</text>
<polygon fill="#ffffff" stroke="transparent" points="216.5,-566 216.5,-584 309.5,-584 309.5,-566 216.5,-566"/>
<polygon fill="none" stroke="black" points="216.5,-566 216.5,-584 309.5,-584 309.5,-566 216.5,-566"/>
<polygon fill="#ffffff" stroke="transparent" points="217.5,-567 217.5,-583 252.5,-583 252.5,-567 217.5,-567"/>
<text text-anchor="start" x="219.5" y="-572.2" font-family="Helvetica,sans-Serif" font-size="11.00">&lt; 1</text>
<polygon fill="#ffffff" stroke="transparent" points="252.5,-567 252.5,-583 274.5,-583 274.5,-567 252.5,-567"/>
<text text-anchor="start" x="259.5" y="-572.2" font-family="Helvetica,sans-Serif" font-size="11.00"> &#160;</text>
<polygon fill="#ffffff" stroke="transparent" points="274.5,-567 274.5,-583 308.5,-583 308.5,-567 274.5,-567"/>
<text text-anchor="start" x="286.5" y="-572.2" font-family="Helvetica,sans-Serif" font-size="11.00">9 &gt;</text>
<polygon fill="black" stroke="black" points="252.5,-567 252.5,-583 252.5,-583 252.5,-567 252.5,-567"/>
<polygon fill="black" stroke="black" points="274.5,-567 274.5,-583 274.5,-583 274.5,-567 274.5,-567"/>
</a>
</g>
</g>
<!-- block_rewards&#45;&gt;blocks -->
<g id="edge1" class="edge">
<title>block_rewards:w&#45;&gt;blocks:e</title>
<path fill="none" stroke="black" d="M384.68,-815.73C308.26,-802.36 278.46,-686.54 268.22,-628.24"/>
<polygon fill="black" stroke="black" points="391.53,-816.32 399.19,-820.59 395.51,-816.66 399.5,-817 399.5,-817 399.5,-817 395.51,-816.66 399.81,-813.41 391.53,-816.32 391.53,-816.32"/>
<ellipse fill="none" stroke="black" cx="388.34" cy="-816.05" rx="3.2" ry="3.2"/>
</g>
<!-- massive_blocks -->
<g id="node5" class="node">
<title>massive_blocks</title>
<g id="a_node5"><a xlink:href="../../tables/massive_blocks.html" xlink:title="massive_blocks" target="_top">
<polygon fill="#ffffff" stroke="transparent" points="8,-568 8,-626 167,-626 167,-568 8,-568"/>
<polygon fill="#f5f5f5" stroke="transparent" points="8.5,-604 8.5,-626 167.5,-626 167.5,-604 8.5,-604"/>
<polygon fill="none" stroke="black" points="8.5,-604 8.5,-626 167.5,-626 167.5,-604 8.5,-604"/>
<text text-anchor="start" x="13.5" y="-613.2" font-family="Helvetica,sans-Serif" font-weight="bold" font-size="11.00">massive_blocks</text>
<text text-anchor="start" x="125.5" y="-612.2" font-family="Helvetica,sans-Serif" font-size="11.00">[table]</text>
<polygon fill="none" stroke="black" points="8.5,-586 8.5,-604 167.5,-604 167.5,-586 8.5,-586"/>
<text text-anchor="start" x="11.5" y="-592.2" font-family="Helvetica,sans-Serif" font-size="11.00">...</text>
<polygon fill="#ffffff" stroke="transparent" points="8.5,-568 8.5,-586 167.5,-586 167.5,-568 8.5,-568"/>
<polygon fill="none" stroke="black" points="8.5,-568 8.5,-586 167.5,-586 167.5,-568 8.5,-568"/>
<polygon fill="#ffffff" stroke="transparent" points="9.5,-569 9.5,-585 58.5,-585 58.5,-569 9.5,-569"/>
<text text-anchor="start" x="11.5" y="-574.2" font-family="Helvetica,sans-Serif" font-size="11.00"> &#160;</text>
<polygon fill="#ffffff" stroke="transparent" points="58.5,-569 58.5,-585 106.5,-585 106.5,-569 58.5,-569"/>
<text text-anchor="start" x="78.5" y="-574.2" font-family="Helvetica,sans-Serif" font-size="11.00"> &#160;</text>
<polygon fill="#ffffff" stroke="transparent" points="106.5,-569 106.5,-585 166.5,-585 166.5,-569 106.5,-569"/>
<text text-anchor="start" x="144.5" y="-574.2" font-family="Helvetica,sans-Serif" font-size="11.00">1 &gt;</text>
<polygon fill="black" stroke="black" points="58.5,-569 58.5,-585 58.5,-585 58.5,-569 58.5,-569"/>
<polygon fill="black" stroke="black" points="106.5,-569 106.5,-585 106.5,-585 106.5,-569 106.5,-569"/>
</a>
</g>
</g>
<!-- blocks&#45;&gt;massive_blocks -->
<g id="edge4" class="edge">
<title>blocks:w&#45;&gt;massive_blocks:e</title>
<path fill="none" stroke="black" stroke-dasharray="5,2" d="M197.47,-595C187.76,-595 177.87,-595 168.5,-595"/>
<polygon fill="black" stroke="black" points="207.1,-591 207.1,-599 205.5,-599 205.5,-591 207.1,-591"/>
<polyline fill="none" stroke="black" points="207.9,-595 203.9,-595 "/>
<ellipse fill="none" stroke="black" cx="200.7" cy="-595" rx="3.2" ry="3.2"/>
</g>
<!-- block_second_degree_relations -->
<g id="node3" class="node">
<title>block_second_degree_relations</title>
<g id="a_node3"><a xlink:href="../../tables/block_second_degree_relations.html" xlink:title="block_second_degree_relations" target="_top">
<polygon fill="#ffffff" stroke="transparent" points="644,-684 644,-742 917,-742 917,-684 644,-684"/>
<polygon fill="#f5f5f5" stroke="transparent" points="644.5,-720 644.5,-742 917.5,-742 917.5,-720 644.5,-720"/>
<polygon fill="none" stroke="black" points="644.5,-720 644.5,-742 917.5,-742 917.5,-720 644.5,-720"/>
<text text-anchor="start" x="649.5" y="-729.2" font-family="Helvetica,sans-Serif" font-weight="bold" font-size="11.00">block_second_degree_relations</text>
<text text-anchor="start" x="875.5" y="-728.2" font-family="Helvetica,sans-Serif" font-size="11.00">[table]</text>
<polygon fill="none" stroke="black" points="644.5,-702 644.5,-720 917.5,-720 917.5,-702 644.5,-702"/>
<text text-anchor="start" x="647.5" y="-708.2" font-family="Helvetica,sans-Serif" font-size="11.00">...</text>
<polygon fill="#ffffff" stroke="transparent" points="644.5,-684 644.5,-702 917.5,-702 917.5,-684 644.5,-684"/>
<polygon fill="none" stroke="black" points="644.5,-684 644.5,-702 917.5,-702 917.5,-684 644.5,-684"/>
<polygon fill="#ffffff" stroke="transparent" points="645.5,-685 645.5,-701 744.5,-701 744.5,-685 645.5,-685"/>
<text text-anchor="start" x="647.5" y="-690.2" font-family="Helvetica,sans-Serif" font-size="11.00">&lt; 2</text>
<polygon fill="#ffffff" stroke="transparent" points="744.5,-685 744.5,-701 830.5,-701 830.5,-685 744.5,-685"/>
<text text-anchor="start" x="783.5" y="-690.2" font-family="Helvetica,sans-Serif" font-size="11.00"> &#160;</text>
<polygon fill="#ffffff" stroke="transparent" points="830.5,-685 830.5,-701 916.5,-701 916.5,-685 830.5,-685"/>
<text text-anchor="start" x="906.5" y="-690.2" font-family="Helvetica,sans-Serif" font-size="11.00"> &#160;</text>
<polygon fill="black" stroke="black" points="744.5,-685 744.5,-701 744.5,-701 744.5,-685 744.5,-685"/>
<polygon fill="black" stroke="black" points="830.5,-685 830.5,-701 830.5,-701 830.5,-685 830.5,-685"/>
</a>
</g>
</g>
<!-- block_second_degree_relations&#45;&gt;blocks -->
<g id="edge3" class="edge">
<title>block_second_degree_relations:w&#45;&gt;blocks:e</title>
<path fill="none" stroke="black" d="M628.94,-711.18C509.3,-714.1 462.76,-751.42 350,-696 320.37,-681.44 296.85,-651.63 281.86,-628.15"/>
<polygon fill="black" stroke="black" points="635.5,-711.1 643.54,-714.6 639.5,-711.05 643.5,-711 643.5,-711 643.5,-711 639.5,-711.05 643.46,-707.4 635.5,-711.1 635.5,-711.1"/>
<ellipse fill="none" stroke="black" cx="632.3" cy="-711.14" rx="3.2" ry="3.2"/>
</g>
<!-- withdrawals -->
<g id="node4" class="node">
<title>withdrawals</title>
<g id="a_node4"><a xlink:href="../../tables/withdrawals.html" xlink:title="withdrawals" target="_top">
<polygon fill="#ffffff" stroke="transparent" points="408.5,-627 408.5,-685 544.5,-685 544.5,-627 408.5,-627"/>
<polygon fill="#f5f5f5" stroke="transparent" points="408.5,-663 408.5,-685 544.5,-685 544.5,-663 408.5,-663"/>
<polygon fill="none" stroke="black" points="408.5,-663 408.5,-685 544.5,-685 544.5,-663 408.5,-663"/>
<text text-anchor="start" x="413.5" y="-672.2" font-family="Helvetica,sans-Serif" font-weight="bold" font-size="11.00">withdrawals</text>
<text text-anchor="start" x="502.5" y="-671.2" font-family="Helvetica,sans-Serif" font-size="11.00">[table]</text>
<polygon fill="none" stroke="black" points="408.5,-645 408.5,-663 544.5,-663 544.5,-645 408.5,-645"/>
<text text-anchor="start" x="411.5" y="-651.2" font-family="Helvetica,sans-Serif" font-size="11.00">...</text>
<polygon fill="#ffffff" stroke="transparent" points="408.5,-627 408.5,-645 544.5,-645 544.5,-627 408.5,-627"/>
<polygon fill="none" stroke="black" points="408.5,-627 408.5,-645 544.5,-645 544.5,-627 408.5,-627"/>
<polygon fill="#ffffff" stroke="transparent" points="409.5,-628 409.5,-644 458.5,-644 458.5,-628 409.5,-628"/>
<text text-anchor="start" x="411.5" y="-633.2" font-family="Helvetica,sans-Serif" font-size="11.00">&lt; 1</text>
<polygon fill="#ffffff" stroke="transparent" points="458.5,-628 458.5,-644 495.5,-644 495.5,-628 458.5,-628"/>
<text text-anchor="start" x="473" y="-633.2" font-family="Helvetica,sans-Serif" font-size="11.00"> &#160;</text>
<polygon fill="#ffffff" stroke="transparent" points="495.5,-628 495.5,-644 543.5,-644 543.5,-628 495.5,-628"/>
<text text-anchor="start" x="521.5" y="-633.2" font-family="Helvetica,sans-Serif" font-size="11.00">5 &gt;</text>
<polygon fill="black" stroke="black" points="458.5,-628 458.5,-644 458.5,-644 458.5,-628 458.5,-628"/>
<polygon fill="black" stroke="black" points="495.5,-628 495.5,-644 495.5,-644 495.5,-628 495.5,-628"/>
</a>
</g>
</g>
<!-- block_second_degree_relations&#45;&gt;withdrawals -->
<g id="edge2" class="edge">
<title>block_second_degree_relations:w&#45;&gt;withdrawals:e</title>
<path fill="none" stroke="black" stroke-dasharray="5,2" d="M629.21,-709.23C593.11,-699.61 590.57,-654 545.5,-654"/>
<polygon fill="black" stroke="black" points="635.56,-710.02 643.06,-714.57 639.53,-710.51 643.5,-711 643.5,-711 643.5,-711 639.53,-710.51 643.94,-707.43 635.56,-710.02 635.56,-710.02"/>
<ellipse fill="none" stroke="black" cx="632.38" cy="-709.62" rx="3.2" ry="3.2"/>
</g>
<!-- withdrawals&#45;&gt;blocks -->
<g id="edge21" class="edge">
<title>withdrawals:w&#45;&gt;blocks:e</title>
<path fill="none" stroke="black" d="M392.94,-653.17C365.87,-650.19 338.8,-639.52 316.46,-628.12"/>
<polygon fill="black" stroke="black" points="399.51,-653.55 407.3,-657.59 403.51,-653.77 407.5,-654 407.5,-654 407.5,-654 403.51,-653.77 407.7,-650.41 399.51,-653.55 399.51,-653.55"/>
<ellipse fill="none" stroke="black" cx="396.32" cy="-653.37" rx="3.2" ry="3.2"/>
</g>
<!-- internal_transactions -->
<g id="node6" class="node">
<title>internal_transactions</title>
<g id="a_node6"><a xlink:href="../../tables/internal_transactions.html" xlink:title="internal_transactions" target="_top">
<polygon fill="#ffffff" stroke="transparent" points="1042.5,-805 1042.5,-863 1244.5,-863 1244.5,-805 1042.5,-805"/>
<polygon fill="#f5f5f5" stroke="transparent" points="1042.5,-841 1042.5,-863 1244.5,-863 1244.5,-841 1042.5,-841"/>
<polygon fill="none" stroke="black" points="1042.5,-841 1042.5,-863 1244.5,-863 1244.5,-841 1042.5,-841"/>
<text text-anchor="start" x="1047.5" y="-850.2" font-family="Helvetica,sans-Serif" font-weight="bold" font-size="11.00">internal_transactions</text>
<text text-anchor="start" x="1202.5" y="-849.2" font-family="Helvetica,sans-Serif" font-size="11.00">[table]</text>
<polygon fill="none" stroke="black" points="1042.5,-823 1042.5,-841 1244.5,-841 1244.5,-823 1042.5,-823"/>
<text text-anchor="start" x="1045.5" y="-829.2" font-family="Helvetica,sans-Serif" font-size="11.00">...</text>
<polygon fill="#ffffff" stroke="transparent" points="1042.5,-805 1042.5,-823 1244.5,-823 1244.5,-805 1042.5,-805"/>
<polygon fill="none" stroke="black" points="1042.5,-805 1042.5,-823 1244.5,-823 1244.5,-805 1042.5,-805"/>
<polygon fill="#ffffff" stroke="transparent" points="1043.5,-806 1043.5,-822 1118.5,-822 1118.5,-806 1043.5,-806"/>
<text text-anchor="start" x="1045.5" y="-811.2" font-family="Helvetica,sans-Serif" font-size="11.00">&lt; 4</text>
<polygon fill="#ffffff" stroke="transparent" points="1118.5,-806 1118.5,-822 1181.5,-822 1181.5,-806 1118.5,-806"/>
<text text-anchor="start" x="1146" y="-811.2" font-family="Helvetica,sans-Serif" font-size="11.00"> &#160;</text>
<polygon fill="#ffffff" stroke="transparent" points="1181.5,-806 1181.5,-822 1243.5,-822 1243.5,-806 1181.5,-806"/>
<text text-anchor="start" x="1233.5" y="-811.2" font-family="Helvetica,sans-Serif" font-size="11.00"> &#160;</text>
<polygon fill="black" stroke="black" points="1118.5,-806 1118.5,-822 1118.5,-822 1118.5,-806 1118.5,-806"/>
<polygon fill="black" stroke="black" points="1181.5,-806 1181.5,-822 1181.5,-822 1181.5,-806 1181.5,-806"/>
</a>
</g>
</g>
<!-- internal_transactions&#45;&gt;blocks -->
<g id="edge5" class="edge">
<title>internal_transactions:w&#45;&gt;blocks:e</title>
<path fill="none" stroke="black" d="M1026.85,-831.51C911.32,-825.29 412.55,-760.58 350,-721 315.25,-699.01 290.87,-657.46 277.04,-628.09"/>
<polygon fill="black" stroke="black" points="1033.5,-831.74 1041.38,-835.6 1037.5,-831.87 1041.5,-832 1041.5,-832 1041.5,-832 1037.5,-831.87 1041.62,-828.4 1033.5,-831.74 1033.5,-831.74"/>
<ellipse fill="none" stroke="black" cx="1030.31" cy="-831.63" rx="3.2" ry="3.2"/>
</g>
<!-- internal_transactions&#45;&gt;withdrawals -->
<g id="edge6" class="edge">
<title>internal_transactions:w&#45;&gt;withdrawals:e</title>
<path fill="none" stroke="black" stroke-dasharray="5,2" d="M1026.93,-831.65C996.5,-829.99 981.05,-821.82 958,-795 921.67,-752.73 968.39,-708.99 925,-674 859.26,-620.99 629.95,-654 545.5,-654"/>
<polygon fill="black" stroke="black" points="1033.5,-831.81 1041.41,-835.6 1037.5,-831.9 1041.5,-832 1041.5,-832 1041.5,-832 1037.5,-831.9 1041.59,-828.4 1033.5,-831.81 1033.5,-831.81"/>
<ellipse fill="none" stroke="black" cx="1030.3" cy="-831.73" rx="3.2" ry="3.2"/>
</g>
<!-- internal_transactions&#45;&gt;withdrawals -->
<g id="edge8" class="edge">
<title>internal_transactions:w&#45;&gt;withdrawals:e</title>
<path fill="none" stroke="black" stroke-dasharray="5,2" d="M1026.94,-831.65C996.53,-829.96 981.16,-821.72 958,-795 922.61,-754.18 967.03,-711.95 925,-678 859.27,-624.9 630,-654 545.5,-654"/>
<polygon fill="black" stroke="black" points="1033.5,-831.81 1041.41,-835.6 1037.5,-831.9 1041.5,-832 1041.5,-832 1041.5,-832 1037.5,-831.9 1041.59,-828.4 1033.5,-831.81 1033.5,-831.81"/>
<ellipse fill="none" stroke="black" cx="1030.3" cy="-831.73" rx="3.2" ry="3.2"/>
</g>
<!-- transactions -->
<g id="node7" class="node">
<title>transactions</title>
<g id="a_node7"><a xlink:href="../../tables/transactions.html" xlink:title="transactions" target="_top">
<polygon fill="#ffffff" stroke="transparent" points="711.5,-566 711.5,-624 849.5,-624 849.5,-566 711.5,-566"/>
<polygon fill="#f5f5f5" stroke="transparent" points="711.5,-602 711.5,-624 849.5,-624 849.5,-602 711.5,-602"/>
<polygon fill="none" stroke="black" points="711.5,-602 711.5,-624 849.5,-624 849.5,-602 711.5,-602"/>
<text text-anchor="start" x="716.5" y="-611.2" font-family="Helvetica,sans-Serif" font-weight="bold" font-size="11.00">transactions</text>
<text text-anchor="start" x="807.5" y="-610.2" font-family="Helvetica,sans-Serif" font-size="11.00">[table]</text>
<polygon fill="none" stroke="black" points="711.5,-584 711.5,-602 849.5,-602 849.5,-584 711.5,-584"/>
<text text-anchor="start" x="714.5" y="-590.2" font-family="Helvetica,sans-Serif" font-size="11.00">...</text>
<polygon fill="#ffffff" stroke="transparent" points="711.5,-566 711.5,-584 849.5,-584 849.5,-566 711.5,-566"/>
<polygon fill="none" stroke="black" points="711.5,-566 711.5,-584 849.5,-584 849.5,-566 711.5,-566"/>
<polygon fill="#ffffff" stroke="transparent" points="712.5,-567 712.5,-583 762.5,-583 762.5,-567 712.5,-567"/>
<text text-anchor="start" x="714.5" y="-572.2" font-family="Helvetica,sans-Serif" font-size="11.00">&lt; 2</text>
<polygon fill="#ffffff" stroke="transparent" points="762.5,-567 762.5,-583 799.5,-583 799.5,-567 762.5,-567"/>
<text text-anchor="start" x="777" y="-572.2" font-family="Helvetica,sans-Serif" font-size="11.00"> &#160;</text>
<polygon fill="#ffffff" stroke="transparent" points="799.5,-567 799.5,-583 848.5,-583 848.5,-567 799.5,-567"/>
<text text-anchor="start" x="826.5" y="-572.2" font-family="Helvetica,sans-Serif" font-size="11.00">7 &gt;</text>
<polygon fill="black" stroke="black" points="762.5,-567 762.5,-583 762.5,-583 762.5,-567 762.5,-567"/>
<polygon fill="black" stroke="black" points="799.5,-567 799.5,-583 799.5,-583 799.5,-567 799.5,-567"/>
</a>
</g>
</g>
<!-- internal_transactions&#45;&gt;transactions -->
<g id="edge7" class="edge">
<title>internal_transactions:w&#45;&gt;transactions:e</title>
<path fill="none" stroke="black" d="M1026.89,-831.68C996.29,-830.16 980.25,-822.48 958,-795 913.14,-739.58 973.26,-690.49 925,-638 907.57,-619.05 882.17,-608.32 857.55,-602.29"/>
<polygon fill="black" stroke="black" points="1033.5,-831.83 1041.42,-835.6 1037.5,-831.91 1041.5,-832 1041.5,-832 1041.5,-832 1037.5,-831.91 1041.58,-828.4 1033.5,-831.83 1033.5,-831.83"/>
<ellipse fill="none" stroke="black" cx="1030.3" cy="-831.76" rx="3.2" ry="3.2"/>
</g>
<!-- transactions&#45;&gt;blocks -->
<g id="edge19" class="edge">
<title>transactions:w&#45;&gt;blocks:e</title>
<path fill="none" stroke="black" d="M688.63,-595C580.93,-595 405.01,-595 317.07,-595"/>
<polygon fill="black" stroke="black" points="695.36,-595 703.36,-598.6 699.36,-595 703.36,-595 703.36,-595 703.36,-595 699.36,-595 703.36,-591.4 695.36,-595 695.36,-595"/>
<ellipse fill="none" stroke="black" cx="692.16" cy="-595" rx="3.2" ry="3.2"/>
</g>
<!-- transactions&#45;&gt;withdrawals -->
<g id="edge20" class="edge">
<title>transactions:w&#45;&gt;withdrawals:e</title>
<path fill="none" stroke="black" stroke-dasharray="5,2" d="M689.32,-622.58C635.96,-637.94 573.48,-654 545.5,-654"/>
<polygon fill="black" stroke="black" points="695.7,-620.72 704.39,-621.94 699.54,-619.61 703.38,-618.49 703.38,-618.49 703.38,-618.49 699.54,-619.61 702.38,-615.03 695.7,-620.72 695.7,-620.72"/>
<ellipse fill="none" stroke="black" cx="692.63" cy="-621.62" rx="3.2" ry="3.2"/>
</g>
<!-- logs -->
<g id="node8" class="node">
<title>logs</title>
<g id="a_node8"><a xlink:href="../../tables/logs.html" xlink:title="logs" target="_top">
<polygon fill="#ffffff" stroke="transparent" points="1105,-489 1105,-547 1182,-547 1182,-489 1105,-489"/>
<polygon fill="#f5f5f5" stroke="transparent" points="1105.5,-525 1105.5,-547 1182.5,-547 1182.5,-525 1105.5,-525"/>
<polygon fill="none" stroke="black" points="1105.5,-525 1105.5,-547 1182.5,-547 1182.5,-525 1105.5,-525"/>
<text text-anchor="start" x="1110.5" y="-534.2" font-family="Helvetica,sans-Serif" font-weight="bold" font-size="11.00">logs</text>
<text text-anchor="start" x="1140.5" y="-533.2" font-family="Helvetica,sans-Serif" font-size="11.00">[table]</text>
<polygon fill="none" stroke="black" points="1105.5,-507 1105.5,-525 1182.5,-525 1182.5,-507 1105.5,-507"/>
<text text-anchor="start" x="1108.5" y="-513.2" font-family="Helvetica,sans-Serif" font-size="11.00">...</text>
<polygon fill="#ffffff" stroke="transparent" points="1105.5,-489 1105.5,-507 1182.5,-507 1182.5,-489 1105.5,-489"/>
<polygon fill="none" stroke="black" points="1105.5,-489 1105.5,-507 1182.5,-507 1182.5,-489 1105.5,-489"/>
<polygon fill="#ffffff" stroke="transparent" points="1106.5,-490 1106.5,-506 1139.5,-506 1139.5,-490 1106.5,-490"/>
<text text-anchor="start" x="1108.5" y="-495.2" font-family="Helvetica,sans-Serif" font-size="11.00">&lt; 2</text>
<polygon fill="#ffffff" stroke="transparent" points="1139.5,-490 1139.5,-506 1160.5,-506 1160.5,-490 1139.5,-490"/>
<text text-anchor="start" x="1146" y="-495.2" font-family="Helvetica,sans-Serif" font-size="11.00"> &#160;</text>
<polygon fill="#ffffff" stroke="transparent" points="1160.5,-490 1160.5,-506 1181.5,-506 1181.5,-490 1160.5,-490"/>
<text text-anchor="start" x="1171.5" y="-495.2" font-family="Helvetica,sans-Serif" font-size="11.00"> &#160;</text>
<polygon fill="black" stroke="black" points="1139.5,-490 1139.5,-506 1139.5,-506 1139.5,-490 1139.5,-490"/>
<polygon fill="black" stroke="black" points="1160.5,-490 1160.5,-506 1160.5,-506 1160.5,-490 1160.5,-490"/>
</a>
</g>
</g>
<!-- logs&#45;&gt;blocks -->
<g id="edge9" class="edge">
<title>logs:w&#45;&gt;blocks:e</title>
<path fill="none" stroke="black" d="M1090.03,-516.04C794.67,-517.6 448.52,-566.25 317.45,-586.4"/>
<polygon fill="black" stroke="black" points="1096.5,-516.02 1104.51,-519.6 1100.5,-516.01 1104.5,-516 1104.5,-516 1104.5,-516 1100.5,-516.01 1104.49,-512.4 1096.5,-516.02 1096.5,-516.02"/>
<ellipse fill="none" stroke="black" cx="1093.3" cy="-516.03" rx="3.2" ry="3.2"/>
</g>
<!-- logs&#45;&gt;transactions -->
<g id="edge10" class="edge">
<title>logs:w&#45;&gt;transactions:e</title>
<path fill="none" stroke="black" d="M1090.03,-516.76C1035.81,-521.79 930.04,-550.71 857.6,-571.94"/>
<polygon fill="black" stroke="black" points="1096.51,-516.42 1104.69,-519.6 1100.51,-516.21 1104.5,-516 1104.5,-516 1104.5,-516 1100.51,-516.21 1104.31,-512.4 1096.51,-516.42 1096.51,-516.42"/>
<ellipse fill="none" stroke="black" cx="1093.32" cy="-516.59" rx="3.2" ry="3.2"/>
</g>
<!-- pending_block_operations -->
<g id="node9" class="node">
<title>pending_block_operations</title>
<g id="a_node9"><a xlink:href="../../tables/pending_block_operations.html" xlink:title="pending_block_operations" target="_top">
<polygon fill="#ffffff" stroke="transparent" points="358,-460 358,-518 595,-518 595,-460 358,-460"/>
<polygon fill="#f5f5f5" stroke="transparent" points="358.5,-496 358.5,-518 595.5,-518 595.5,-496 358.5,-496"/>
<polygon fill="none" stroke="black" points="358.5,-496 358.5,-518 595.5,-518 595.5,-496 358.5,-496"/>
<text text-anchor="start" x="363.5" y="-505.2" font-family="Helvetica,sans-Serif" font-weight="bold" font-size="11.00">pending_block_operations</text>
<text text-anchor="start" x="553.5" y="-504.2" font-family="Helvetica,sans-Serif" font-size="11.00">[table]</text>
<polygon fill="none" stroke="black" points="358.5,-478 358.5,-496 595.5,-496 595.5,-478 358.5,-478"/>
<text text-anchor="start" x="361.5" y="-484.2" font-family="Helvetica,sans-Serif" font-size="11.00">...</text>
<polygon fill="#ffffff" stroke="transparent" points="358.5,-460 358.5,-478 595.5,-478 595.5,-460 358.5,-460"/>
<polygon fill="none" stroke="black" points="358.5,-460 358.5,-478 595.5,-478 595.5,-460 358.5,-460"/>
<polygon fill="#ffffff" stroke="transparent" points="359.5,-461 359.5,-477 446.5,-477 446.5,-461 359.5,-461"/>
<text text-anchor="start" x="361.5" y="-466.2" font-family="Helvetica,sans-Serif" font-size="11.00">&lt; 1</text>
<polygon fill="#ffffff" stroke="transparent" points="446.5,-461 446.5,-477 520.5,-477 520.5,-461 446.5,-461"/>
<text text-anchor="start" x="479.5" y="-466.2" font-family="Helvetica,sans-Serif" font-size="11.00"> &#160;</text>
<polygon fill="#ffffff" stroke="transparent" points="520.5,-461 520.5,-477 594.5,-477 594.5,-461 520.5,-461"/>
<text text-anchor="start" x="584.5" y="-466.2" font-family="Helvetica,sans-Serif" font-size="11.00"> &#160;</text>
<polygon fill="black" stroke="black" points="446.5,-461 446.5,-477 446.5,-477 446.5,-461 446.5,-461"/>
<polygon fill="black" stroke="black" points="520.5,-461 520.5,-477 520.5,-477 520.5,-461 520.5,-461"/>
</a>
</g>
</g>
<!-- pending_block_operations&#45;&gt;blocks -->
<g id="edge11" class="edge">
<title>pending_block_operations:w&#45;&gt;blocks:e</title>
<path fill="none" stroke="black" d="M347,-488C312.62,-494.63 289.16,-532.83 276.06,-561.72"/>
<polygon fill="black" stroke="black" points="356.32,-483.09 357.08,-491.06 355.49,-491.21 354.73,-483.25 356.32,-483.09"/>
<polyline fill="none" stroke="black" points="357.5,-487 353.52,-487.38 "/>
<ellipse fill="none" stroke="black" cx="350.33" cy="-487.68" rx="3.2" ry="3.2"/>
</g>
<!-- pending_transaction_operations -->
<g id="node10" class="node">
<title>pending_transaction_operations</title>
<g id="a_node10"><a xlink:href="../../tables/pending_transaction_operations.html" xlink:title="pending_transaction_operations" target="_top">
<polygon fill="#ffffff" stroke="transparent" points="1002.5,-568 1002.5,-626 1284.5,-626 1284.5,-568 1002.5,-568"/>
<polygon fill="#f5f5f5" stroke="transparent" points="1002.5,-604 1002.5,-626 1284.5,-626 1284.5,-604 1002.5,-604"/>
<polygon fill="none" stroke="black" points="1002.5,-604 1002.5,-626 1284.5,-626 1284.5,-604 1002.5,-604"/>
<text text-anchor="start" x="1007.5" y="-613.2" font-family="Helvetica,sans-Serif" font-weight="bold" font-size="11.00">pending_transaction_operations</text>
<text text-anchor="start" x="1242.5" y="-612.2" font-family="Helvetica,sans-Serif" font-size="11.00">[table]</text>
<polygon fill="none" stroke="black" points="1002.5,-586 1002.5,-604 1284.5,-604 1284.5,-586 1002.5,-586"/>
<text text-anchor="start" x="1005.5" y="-592.2" font-family="Helvetica,sans-Serif" font-size="11.00">...</text>
<polygon fill="#ffffff" stroke="transparent" points="1002.5,-568 1002.5,-586 1284.5,-586 1284.5,-568 1002.5,-568"/>
<polygon fill="none" stroke="black" points="1002.5,-568 1002.5,-586 1284.5,-586 1284.5,-568 1002.5,-568"/>
<polygon fill="#ffffff" stroke="transparent" points="1003.5,-569 1003.5,-585 1105.5,-585 1105.5,-569 1003.5,-569"/>
<text text-anchor="start" x="1005.5" y="-574.2" font-family="Helvetica,sans-Serif" font-size="11.00">&lt; 1</text>
<polygon fill="#ffffff" stroke="transparent" points="1105.5,-569 1105.5,-585 1194.5,-585 1194.5,-569 1105.5,-569"/>
<text text-anchor="start" x="1146" y="-574.2" font-family="Helvetica,sans-Serif" font-size="11.00"> &#160;</text>
<polygon fill="#ffffff" stroke="transparent" points="1194.5,-569 1194.5,-585 1283.5,-585 1283.5,-569 1194.5,-569"/>
<text text-anchor="start" x="1273.5" y="-574.2" font-family="Helvetica,sans-Serif" font-size="11.00"> &#160;</text>
<polygon fill="black" stroke="black" points="1105.5,-569 1105.5,-585 1105.5,-585 1105.5,-569 1105.5,-569"/>
<polygon fill="black" stroke="black" points="1194.5,-569 1194.5,-585 1194.5,-585 1194.5,-569 1194.5,-569"/>
</a>
</g>
</g>
<!-- pending_transaction_operations&#45;&gt;transactions -->
<g id="edge12" class="edge">
<title>pending_transaction_operations:w&#45;&gt;transactions:e</title>
<path fill="none" stroke="black" d="M991.04,-595C945.96,-595 896.91,-595 857.61,-595"/>
<polygon fill="black" stroke="black" points="1000.7,-591 1000.7,-599 999.1,-599 999.1,-591 1000.7,-591"/>
<polyline fill="none" stroke="black" points="1001.5,-595 997.5,-595 "/>
<ellipse fill="none" stroke="black" cx="994.3" cy="-595" rx="3.2" ry="3.2"/>
</g>
<!-- signed_authorizations -->
<g id="node11" class="node">
<title>signed_authorizations</title>
<g id="a_node11"><a xlink:href="../../tables/signed_authorizations.html" xlink:title="signed_authorizations" target="_top">
<polygon fill="#ffffff" stroke="transparent" points="1039.5,-726 1039.5,-784 1247.5,-784 1247.5,-726 1039.5,-726"/>
<polygon fill="#f5f5f5" stroke="transparent" points="1039.5,-762 1039.5,-784 1247.5,-784 1247.5,-762 1039.5,-762"/>
<polygon fill="none" stroke="black" points="1039.5,-762 1039.5,-784 1247.5,-784 1247.5,-762 1039.5,-762"/>
<text text-anchor="start" x="1044.5" y="-771.2" font-family="Helvetica,sans-Serif" font-weight="bold" font-size="11.00">signed_authorizations</text>
<text text-anchor="start" x="1205.5" y="-770.2" font-family="Helvetica,sans-Serif" font-size="11.00">[table]</text>
<polygon fill="none" stroke="black" points="1039.5,-744 1039.5,-762 1247.5,-762 1247.5,-744 1039.5,-744"/>
<text text-anchor="start" x="1042.5" y="-750.2" font-family="Helvetica,sans-Serif" font-size="11.00">...</text>
<polygon fill="#ffffff" stroke="transparent" points="1039.5,-726 1039.5,-744 1247.5,-744 1247.5,-726 1039.5,-726"/>
<polygon fill="none" stroke="black" points="1039.5,-726 1039.5,-744 1247.5,-744 1247.5,-726 1039.5,-726"/>
<polygon fill="#ffffff" stroke="transparent" points="1040.5,-727 1040.5,-743 1117.5,-743 1117.5,-727 1040.5,-727"/>
<text text-anchor="start" x="1042.5" y="-732.2" font-family="Helvetica,sans-Serif" font-size="11.00">&lt; 1</text>
<polygon fill="#ffffff" stroke="transparent" points="1117.5,-727 1117.5,-743 1182.5,-743 1182.5,-727 1117.5,-727"/>
<text text-anchor="start" x="1146" y="-732.2" font-family="Helvetica,sans-Serif" font-size="11.00"> &#160;</text>
<polygon fill="#ffffff" stroke="transparent" points="1182.5,-727 1182.5,-743 1246.5,-743 1246.5,-727 1182.5,-727"/>
<text text-anchor="start" x="1236.5" y="-732.2" font-family="Helvetica,sans-Serif" font-size="11.00"> &#160;</text>
<polygon fill="black" stroke="black" points="1117.5,-727 1117.5,-743 1117.5,-743 1117.5,-727 1117.5,-727"/>
<polygon fill="black" stroke="black" points="1182.5,-727 1182.5,-743 1182.5,-743 1182.5,-727 1182.5,-727"/>
</a>
</g>
</g>
<!-- signed_authorizations&#45;&gt;transactions -->
<g id="edge13" class="edge">
<title>signed_authorizations:w&#45;&gt;transactions:e</title>
<path fill="none" stroke="black" d="M1024.08,-752.51C995.24,-750.34 981.77,-740.51 958,-716 931.79,-688.98 953.03,-663.13 925,-638 906.41,-621.33 881.58,-611.12 857.81,-604.86"/>
<polygon fill="black" stroke="black" points="1030.5,-752.73 1038.38,-756.6 1034.5,-752.86 1038.5,-753 1038.5,-753 1038.5,-753 1034.5,-752.86 1038.62,-749.4 1030.5,-752.73 1030.5,-752.73"/>
<ellipse fill="none" stroke="black" cx="1027.31" cy="-752.62" rx="3.2" ry="3.2"/>
</g>
<!-- token_transfers -->
<g id="node12" class="node">
<title>token_transfers</title>
<g id="a_node12"><a xlink:href="../../tables/token_transfers.html" xlink:title="token_transfers" target="_top">
<polygon fill="#ffffff" stroke="transparent" points="966,-116 966,-468 1321,-468 1321,-116 966,-116"/>
<polygon fill="#f5f5f5" stroke="transparent" points="968.5,-444 968.5,-466 1319.5,-466 1319.5,-444 968.5,-444"/>
<polygon fill="none" stroke="black" points="968.5,-444 968.5,-466 1319.5,-466 1319.5,-444 968.5,-444"/>
<text text-anchor="start" x="973.5" y="-453.2" font-family="Helvetica,sans-Serif" font-weight="bold" font-size="11.00">token_transfers</text>
<text text-anchor="start" x="1277.5" y="-452.2" font-family="Helvetica,sans-Serif" font-size="11.00">[table]</text>
<polygon fill="none" stroke="black" points="968.5,-422 968.5,-444 1204.5,-444 1204.5,-422 968.5,-422"/>
<image xlink:href="../../images/primaryKeys.png" width="11px" height="12px" preserveAspectRatio="xMinYMin meet" x="973.5" y="-439"/>
<text text-anchor="start" x="988.5" y="-430.2" font-family="Helvetica,sans-Serif" font-size="11.00">transaction_hash</text>
<polygon fill="none" stroke="black" points="1204.5,-422 1204.5,-444 1319.5,-444 1319.5,-422 1204.5,-422"/>
<text text-anchor="start" x="1207.5" y="-430.2" font-family="Helvetica,sans-Serif" font-size="11.00">bytea[2147483647]</text>
<polygon fill="none" stroke="black" points="968.5,-400 968.5,-422 1204.5,-422 1204.5,-400 968.5,-400"/>
<image xlink:href="../../images/primaryKeys.png" width="11px" height="12px" preserveAspectRatio="xMinYMin meet" x="973.5" y="-417"/>
<text text-anchor="start" x="988.5" y="-408.2" font-family="Helvetica,sans-Serif" font-size="11.00">log_index</text>
<polygon fill="none" stroke="black" points="1204.5,-400 1204.5,-422 1319.5,-422 1319.5,-400 1204.5,-400"/>
<text text-anchor="start" x="1207.5" y="-408.2" font-family="Helvetica,sans-Serif" font-size="11.00">int4[10]</text>
<polygon fill="#ffffff" stroke="transparent" points="968.5,-378 968.5,-400 1204.5,-400 1204.5,-378 968.5,-378"/>
<polygon fill="none" stroke="black" points="968.5,-378 968.5,-400 1204.5,-400 1204.5,-378 968.5,-378"/>
<text text-anchor="start" x="988.5" y="-386.2" font-family="Helvetica,sans-Serif" font-size="11.00">from_address_hash</text>
<polygon fill="none" stroke="black" points="1204.5,-378 1204.5,-400 1319.5,-400 1319.5,-378 1204.5,-378"/>
<text text-anchor="start" x="1207.5" y="-386.2" font-family="Helvetica,sans-Serif" font-size="11.00">bytea[2147483647]</text>
<polygon fill="#ffffff" stroke="transparent" points="968.5,-356 968.5,-378 1204.5,-378 1204.5,-356 968.5,-356"/>
<polygon fill="none" stroke="black" points="968.5,-356 968.5,-378 1204.5,-378 1204.5,-356 968.5,-356"/>
<text text-anchor="start" x="988.5" y="-364.2" font-family="Helvetica,sans-Serif" font-size="11.00">to_address_hash</text>
<polygon fill="none" stroke="black" points="1204.5,-356 1204.5,-378 1319.5,-378 1319.5,-356 1204.5,-356"/>
<text text-anchor="start" x="1207.5" y="-364.2" font-family="Helvetica,sans-Serif" font-size="11.00">bytea[2147483647]</text>
<polygon fill="none" stroke="black" points="968.5,-334 968.5,-356 1204.5,-356 1204.5,-334 968.5,-334"/>
<text text-anchor="start" x="988.5" y="-342.2" font-family="Helvetica,sans-Serif" font-size="11.00">amount</text>
<polygon fill="none" stroke="black" points="1204.5,-334 1204.5,-356 1319.5,-356 1319.5,-334 1204.5,-334"/>
<text text-anchor="start" x="1207.5" y="-342.2" font-family="Helvetica,sans-Serif" font-size="11.00">numeric[0]</text>
<polygon fill="#ffffff" stroke="transparent" points="968.5,-312 968.5,-334 1204.5,-334 1204.5,-312 968.5,-312"/>
<polygon fill="none" stroke="black" points="968.5,-312 968.5,-334 1204.5,-334 1204.5,-312 968.5,-312"/>
<text text-anchor="start" x="988.5" y="-320.2" font-family="Helvetica,sans-Serif" font-size="11.00">token_contract_address_hash</text>
<polygon fill="none" stroke="black" points="1204.5,-312 1204.5,-334 1319.5,-334 1319.5,-312 1204.5,-312"/>
<text text-anchor="start" x="1207.5" y="-320.2" font-family="Helvetica,sans-Serif" font-size="11.00">bytea[2147483647]</text>
<polygon fill="none" stroke="black" points="968.5,-290 968.5,-312 1204.5,-312 1204.5,-290 968.5,-290"/>
<text text-anchor="start" x="988.5" y="-298.2" font-family="Helvetica,sans-Serif" font-size="11.00">inserted_at</text>
<polygon fill="none" stroke="black" points="1204.5,-290 1204.5,-312 1319.5,-312 1319.5,-290 1204.5,-290"/>
<text text-anchor="start" x="1207.5" y="-298.2" font-family="Helvetica,sans-Serif" font-size="11.00">timestamp[29,6]</text>
<polygon fill="none" stroke="black" points="968.5,-268 968.5,-290 1204.5,-290 1204.5,-268 968.5,-268"/>
<text text-anchor="start" x="988.5" y="-276.2" font-family="Helvetica,sans-Serif" font-size="11.00">updated_at</text>
<polygon fill="none" stroke="black" points="1204.5,-268 1204.5,-290 1319.5,-290 1319.5,-268 1204.5,-268"/>
<text text-anchor="start" x="1207.5" y="-276.2" font-family="Helvetica,sans-Serif" font-size="11.00">timestamp[29,6]</text>
<polygon fill="#ffffff" stroke="transparent" points="968.5,-246 968.5,-268 1204.5,-268 1204.5,-246 968.5,-246"/>
<polygon fill="none" stroke="black" points="968.5,-246 968.5,-268 1204.5,-268 1204.5,-246 968.5,-246"/>
<text text-anchor="start" x="988.5" y="-254.2" font-family="Helvetica,sans-Serif" font-size="11.00">block_number</text>
<polygon fill="none" stroke="black" points="1204.5,-246 1204.5,-268 1319.5,-268 1319.5,-246 1204.5,-246"/>
<text text-anchor="start" x="1207.5" y="-254.2" font-family="Helvetica,sans-Serif" font-size="11.00">int4[10]</text>
<polygon fill="none" stroke="black" points="968.5,-224 968.5,-246 1204.5,-246 1204.5,-224 968.5,-224"/>
<image xlink:href="../../images/primaryKeys.png" width="11px" height="12px" preserveAspectRatio="xMinYMin meet" x="973.5" y="-241"/>
<text text-anchor="start" x="988.5" y="-232.2" font-family="Helvetica,sans-Serif" font-size="11.00">block_hash</text>
<polygon fill="none" stroke="black" points="1204.5,-224 1204.5,-246 1319.5,-246 1319.5,-224 1204.5,-224"/>
<text text-anchor="start" x="1207.5" y="-232.2" font-family="Helvetica,sans-Serif" font-size="11.00">bytea[2147483647]</text>
<polygon fill="none" stroke="black" points="968.5,-202 968.5,-224 1204.5,-224 1204.5,-202 968.5,-202"/>
<text text-anchor="start" x="988.5" y="-210.2" font-family="Helvetica,sans-Serif" font-size="11.00">amounts</text>
<polygon fill="none" stroke="black" points="1204.5,-202 1204.5,-224 1319.5,-224 1319.5,-202 1204.5,-202"/>
<text text-anchor="start" x="1207.5" y="-210.2" font-family="Helvetica,sans-Serif" font-size="11.00">_numeric[131089]</text>
<polygon fill="#ffffff" stroke="transparent" points="968.5,-180 968.5,-202 1204.5,-202 1204.5,-180 968.5,-180"/>
<polygon fill="none" stroke="black" points="968.5,-180 968.5,-202 1204.5,-202 1204.5,-180 968.5,-180"/>
<text text-anchor="start" x="988.5" y="-188.2" font-family="Helvetica,sans-Serif" font-size="11.00">token_ids</text>
<polygon fill="none" stroke="black" points="1204.5,-180 1204.5,-202 1319.5,-202 1319.5,-180 1204.5,-180"/>
<text text-anchor="start" x="1207.5" y="-188.2" font-family="Helvetica,sans-Serif" font-size="11.00">_numeric[78]</text>
<polygon fill="#ffffff" stroke="transparent" points="968.5,-158 968.5,-180 1204.5,-180 1204.5,-158 968.5,-158"/>
<polygon fill="none" stroke="black" points="968.5,-158 968.5,-180 1204.5,-180 1204.5,-158 968.5,-158"/>
<text text-anchor="start" x="988.5" y="-166.2" font-family="Helvetica,sans-Serif" font-size="11.00">token_type</text>
<polygon fill="none" stroke="black" points="1204.5,-158 1204.5,-180 1319.5,-180 1319.5,-158 1204.5,-158"/>
<text text-anchor="start" x="1207.5" y="-166.2" font-family="Helvetica,sans-Serif" font-size="11.00">varchar[255]</text>
<polygon fill="#ffffff" stroke="transparent" points="968.5,-136 968.5,-158 1204.5,-158 1204.5,-136 968.5,-136"/>
<polygon fill="none" stroke="black" points="968.5,-136 968.5,-158 1204.5,-158 1204.5,-136 968.5,-136"/>
<text text-anchor="start" x="988.5" y="-144.2" font-family="Helvetica,sans-Serif" font-size="11.00">block_consensus</text>
<polygon fill="none" stroke="black" points="1204.5,-136 1204.5,-158 1319.5,-158 1319.5,-136 1204.5,-136"/>
<text text-anchor="start" x="1207.5" y="-144.2" font-family="Helvetica,sans-Serif" font-size="11.00">bool[1]</text>
<polygon fill="#ffffff" stroke="transparent" points="968.5,-118 968.5,-136 1319.5,-136 1319.5,-118 968.5,-118"/>
<polygon fill="none" stroke="black" points="968.5,-118 968.5,-136 1319.5,-136 1319.5,-118 968.5,-118"/>
<polygon fill="#ffffff" stroke="transparent" points="969.5,-119 969.5,-135 1090.5,-135 1090.5,-119 969.5,-119"/>
<text text-anchor="start" x="971.5" y="-124.2" font-family="Helvetica,sans-Serif" font-size="11.00">&lt; 2</text>
<polygon fill="#ffffff" stroke="transparent" points="1090.5,-119 1090.5,-135 1198.5,-135 1198.5,-119 1090.5,-119"/>
<text text-anchor="start" x="1140.5" y="-124.2" font-family="Helvetica,sans-Serif" font-size="11.00"> &#160;</text>
<polygon fill="#ffffff" stroke="transparent" points="1198.5,-119 1198.5,-135 1318.5,-135 1318.5,-119 1198.5,-119"/>
<text text-anchor="start" x="1296.5" y="-124.2" font-family="Helvetica,sans-Serif" font-size="11.00">0 &gt;</text>
<polygon fill="black" stroke="black" points="1090.5,-119 1090.5,-135 1090.5,-135 1090.5,-119 1090.5,-119"/>
<polygon fill="black" stroke="black" points="1198.5,-119 1198.5,-135 1198.5,-135 1198.5,-119 1198.5,-119"/>
<polygon fill="none" stroke="black" stroke-width="2" points="967,-117 967,-467 1320,-467 1320,-117 967,-117"/>
</a>
</g>
</g>
<!-- token_transfers&#45;&gt;blocks -->
<g id="edge14" class="edge">
<title>token_transfers:w&#45;&gt;blocks:e</title>
<path fill="none" stroke="black" d="M952.77,-235.03C673.52,-236.08 571.13,-268.43 350,-449 313.26,-479 288.52,-529.01 275.22,-562"/>
<polygon fill="black" stroke="black" points="959.5,-235.01 967.51,-238.6 963.5,-235.01 967.5,-235 967.5,-235 967.5,-235 963.5,-235.01 967.49,-231.4 959.5,-235.01 959.5,-235.01"/>
<ellipse fill="none" stroke="black" cx="956.3" cy="-235.02" rx="3.2" ry="3.2"/>
</g>
<!-- token_transfers&#45;&gt;transactions -->
<g id="edge15" class="edge">
<title>token_transfers:w&#45;&gt;transactions:e</title>
<path fill="none" stroke="black" d="M953.13,-433.93C882.28,-443.05 826.96,-517.39 799.84,-561.83"/>
<polygon fill="black" stroke="black" points="959.52,-433.51 967.73,-436.59 963.51,-433.26 967.5,-433 967.5,-433 967.5,-433 963.51,-433.26 967.27,-429.41 959.52,-433.51 959.52,-433.51"/>
<ellipse fill="none" stroke="black" cx="956.32" cy="-433.72" rx="3.2" ry="3.2"/>
</g>
<!-- transaction_actions -->
<g id="node13" class="node">
<title>transaction_actions</title>
<g id="a_node13"><a xlink:href="../../tables/transaction_actions.html" xlink:title="transaction_actions" target="_top">
<polygon fill="#ffffff" stroke="transparent" points="1048.5,-647 1048.5,-705 1238.5,-705 1238.5,-647 1048.5,-647"/>
<polygon fill="#f5f5f5" stroke="transparent" points="1048.5,-683 1048.5,-705 1238.5,-705 1238.5,-683 1048.5,-683"/>
<polygon fill="none" stroke="black" points="1048.5,-683 1048.5,-705 1238.5,-705 1238.5,-683 1048.5,-683"/>
<text text-anchor="start" x="1053.5" y="-692.2" font-family="Helvetica,sans-Serif" font-weight="bold" font-size="11.00">transaction_actions</text>
<text text-anchor="start" x="1196.5" y="-691.2" font-family="Helvetica,sans-Serif" font-size="11.00">[table]</text>
<polygon fill="none" stroke="black" points="1048.5,-665 1048.5,-683 1238.5,-683 1238.5,-665 1048.5,-665"/>
<text text-anchor="start" x="1051.5" y="-671.2" font-family="Helvetica,sans-Serif" font-size="11.00">...</text>
<polygon fill="#ffffff" stroke="transparent" points="1048.5,-647 1048.5,-665 1238.5,-665 1238.5,-647 1048.5,-647"/>
<polygon fill="none" stroke="black" points="1048.5,-647 1048.5,-665 1238.5,-665 1238.5,-647 1048.5,-647"/>
<polygon fill="#ffffff" stroke="transparent" points="1049.5,-648 1049.5,-664 1120.5,-664 1120.5,-648 1049.5,-648"/>
<text text-anchor="start" x="1051.5" y="-653.2" font-family="Helvetica,sans-Serif" font-size="11.00">&lt; 1</text>
<polygon fill="#ffffff" stroke="transparent" points="1120.5,-648 1120.5,-664 1179.5,-664 1179.5,-648 1120.5,-648"/>
<text text-anchor="start" x="1146" y="-653.2" font-family="Helvetica,sans-Serif" font-size="11.00"> &#160;</text>
<polygon fill="#ffffff" stroke="transparent" points="1179.5,-648 1179.5,-664 1237.5,-664 1237.5,-648 1179.5,-648"/>
<text text-anchor="start" x="1227.5" y="-653.2" font-family="Helvetica,sans-Serif" font-size="11.00"> &#160;</text>
<polygon fill="black" stroke="black" points="1120.5,-648 1120.5,-664 1120.5,-664 1120.5,-648 1120.5,-648"/>
<polygon fill="black" stroke="black" points="1179.5,-648 1179.5,-664 1179.5,-664 1179.5,-648 1179.5,-648"/>
</a>
</g>
</g>
<!-- transaction_actions&#45;&gt;transactions -->
<g id="edge16" class="edge">
<title>transaction_actions:w&#45;&gt;transactions:e</title>
<path fill="none" stroke="black" d="M1033.46,-670C1001.09,-660.54 919.29,-636.16 857.61,-617.74"/>
<polygon fill="black" stroke="black" points="1039.81,-671.81 1046.51,-677.46 1043.65,-672.91 1047.5,-674 1047.5,-674 1047.5,-674 1043.65,-672.91 1048.49,-670.54 1039.81,-671.81 1039.81,-671.81"/>
<ellipse fill="none" stroke="black" cx="1036.73" cy="-670.93" rx="3.2" ry="3.2"/>
</g>
<!-- transaction_forks -->
<g id="node14" class="node">
<title>transaction_forks</title>
<g id="a_node14"><a xlink:href="../../tables/transaction_forks.html" xlink:title="transaction_forks" target="_top">
<polygon fill="#ffffff" stroke="transparent" points="1056.5,-37 1056.5,-95 1230.5,-95 1230.5,-37 1056.5,-37"/>
<polygon fill="#f5f5f5" stroke="transparent" points="1056.5,-73 1056.5,-95 1230.5,-95 1230.5,-73 1056.5,-73"/>
<polygon fill="none" stroke="black" points="1056.5,-73 1056.5,-95 1230.5,-95 1230.5,-73 1056.5,-73"/>
<text text-anchor="start" x="1061.5" y="-82.2" font-family="Helvetica,sans-Serif" font-weight="bold" font-size="11.00">transaction_forks</text>
<text text-anchor="start" x="1188.5" y="-81.2" font-family="Helvetica,sans-Serif" font-size="11.00">[table]</text>
<polygon fill="none" stroke="black" points="1056.5,-55 1056.5,-73 1230.5,-73 1230.5,-55 1056.5,-55"/>
<text text-anchor="start" x="1059.5" y="-61.2" font-family="Helvetica,sans-Serif" font-size="11.00">...</text>
<polygon fill="#ffffff" stroke="transparent" points="1056.5,-37 1056.5,-55 1230.5,-55 1230.5,-37 1056.5,-37"/>
<polygon fill="none" stroke="black" points="1056.5,-37 1056.5,-55 1230.5,-55 1230.5,-37 1056.5,-37"/>
<polygon fill="#ffffff" stroke="transparent" points="1057.5,-38 1057.5,-54 1123.5,-54 1123.5,-38 1057.5,-38"/>
<text text-anchor="start" x="1059.5" y="-43.2" font-family="Helvetica,sans-Serif" font-size="11.00">&lt; 2</text>
<polygon fill="#ffffff" stroke="transparent" points="1123.5,-38 1123.5,-54 1176.5,-54 1176.5,-38 1123.5,-38"/>
<text text-anchor="start" x="1146" y="-43.2" font-family="Helvetica,sans-Serif" font-size="11.00"> &#160;</text>
<polygon fill="#ffffff" stroke="transparent" points="1176.5,-38 1176.5,-54 1229.5,-54 1229.5,-38 1176.5,-38"/>
<text text-anchor="start" x="1219.5" y="-43.2" font-family="Helvetica,sans-Serif" font-size="11.00"> &#160;</text>
<polygon fill="black" stroke="black" points="1123.5,-38 1123.5,-54 1123.5,-54 1123.5,-38 1123.5,-38"/>
<polygon fill="black" stroke="black" points="1176.5,-38 1176.5,-54 1176.5,-54 1176.5,-38 1176.5,-38"/>
</a>
</g>
</g>
<!-- transaction_forks&#45;&gt;blocks -->
<g id="edge18" class="edge">
<title>transaction_forks:w&#45;&gt;blocks:e</title>
<path fill="none" stroke="black" d="M1040.7,-63.99C722.41,-63.6 575.2,-52.6 350,-285 274.95,-362.44 263.9,-499.31 263,-561.99"/>
<polygon fill="black" stroke="black" points="1047.5,-63.99 1055.5,-67.6 1051.5,-64 1055.5,-64 1055.5,-64 1055.5,-64 1051.5,-64 1055.5,-60.4 1047.5,-63.99 1047.5,-63.99"/>
<ellipse fill="none" stroke="black" cx="1044.3" cy="-63.99" rx="3.2" ry="3.2"/>
</g>
<!-- transaction_forks&#45;&gt;transactions -->
<g id="edge17" class="edge">
<title>transaction_forks:w&#45;&gt;transactions:e</title>
<path fill="none" stroke="black" d="M1041.06,-64.27C1004.35,-65.84 986.82,-74.63 958,-105 924.78,-140.01 824.21,-457.43 791.73,-561.86"/>
<polygon fill="black" stroke="black" points="1047.5,-64.15 1055.57,-67.6 1051.5,-64.08 1055.5,-64 1055.5,-64 1055.5,-64 1051.5,-64.08 1055.43,-60.4 1047.5,-64.15 1047.5,-64.15"/>
<ellipse fill="none" stroke="black" cx="1044.3" cy="-64.21" rx="3.2" ry="3.2"/>
</g>
</g>
</svg>
