<?xml version="1.0" encoding="UTF-8" standalone="no"?>
<!DOCTYPE svg PUBLIC "-//W3C//DTD SVG 1.1//EN"
 "http://www.w3.org/Graphics/SVG/1.1/DTD/svg11.dtd">
<!-- Generated by graphviz version 2.43.0 (0)
 -->
<!-- Title: twoDegreesRelationshipsDiagramImplied Pages: 1 -->
<svg width="1066pt" height="764pt"
 viewBox="0.00 0.00 1066.00 764.12" xmlns="http://www.w3.org/2000/svg" xmlns:xlink="http://www.w3.org/1999/xlink">
<g id="graph0" class="graph" transform="scale(1 1) rotate(0) translate(4 760.12)">
<title>twoDegreesRelationshipsDiagramImplied</title>
<polygon fill="#ffffff" stroke="transparent" points="-4,4 -4,-760.12 1062,-760.12 1062,4 -4,4"/>
<text text-anchor="middle" x="79.5" y="-7.2" font-family="Helvetica,sans-Serif" font-size="11.00">Generated by SchemaSpy</text>
<!-- block_second_degree_relations -->
<g id="node1" class="node">
<title>block_second_degree_relations</title>
<g id="a_node1"><a xlink:href="../../tables/block_second_degree_relations.html" xlink:title="block_second_degree_relations" target="_top">
<polygon fill="#ffffff" stroke="transparent" points="485,-512 485,-570 758,-570 758,-512 485,-512"/>
<polygon fill="#f5f5f5" stroke="transparent" points="485.5,-548 485.5,-570 758.5,-570 758.5,-548 485.5,-548"/>
<polygon fill="none" stroke="black" points="485.5,-548 485.5,-570 758.5,-570 758.5,-548 485.5,-548"/>
<text text-anchor="start" x="490.5" y="-557.2" font-family="Helvetica,sans-Serif" font-weight="bold" font-size="11.00">block_second_degree_relations</text>
<text text-anchor="start" x="716.5" y="-556.2" font-family="Helvetica,sans-Serif" font-size="11.00">[table]</text>
<polygon fill="none" stroke="black" points="485.5,-530 485.5,-548 758.5,-548 758.5,-530 485.5,-530"/>
<text text-anchor="start" x="488.5" y="-536.2" font-family="Helvetica,sans-Serif" font-size="11.00">...</text>
<polygon fill="#ffffff" stroke="transparent" points="485.5,-512 485.5,-530 758.5,-530 758.5,-512 485.5,-512"/>
<polygon fill="none" stroke="black" points="485.5,-512 485.5,-530 758.5,-530 758.5,-512 485.5,-512"/>
<polygon fill="#ffffff" stroke="transparent" points="486.5,-513 486.5,-529 585.5,-529 585.5,-513 486.5,-513"/>
<text text-anchor="start" x="488.5" y="-518.2" font-family="Helvetica,sans-Serif" font-size="11.00">&lt; 2</text>
<polygon fill="#ffffff" stroke="transparent" points="585.5,-513 585.5,-529 671.5,-529 671.5,-513 585.5,-513"/>
<text text-anchor="start" x="624.5" y="-518.2" font-family="Helvetica,sans-Serif" font-size="11.00"> &#160;</text>
<polygon fill="#ffffff" stroke="transparent" points="671.5,-513 671.5,-529 757.5,-529 757.5,-513 671.5,-513"/>
<text text-anchor="start" x="747.5" y="-518.2" font-family="Helvetica,sans-Serif" font-size="11.00"> &#160;</text>
<polygon fill="black" stroke="black" points="585.5,-513 585.5,-529 585.5,-529 585.5,-513 585.5,-513"/>
<polygon fill="black" stroke="black" points="671.5,-513 671.5,-529 671.5,-529 671.5,-513 671.5,-513"/>
</a>
</g>
</g>
<!-- withdrawals -->
<g id="node2" class="node">
<title>withdrawals</title>
<g id="a_node2"><a xlink:href="../../tables/withdrawals.html" xlink:title="withdrawals" target="_top">
<polygon fill="#ffffff" stroke="transparent" points="204.5,-527 204.5,-651 340.5,-651 340.5,-527 204.5,-527"/>
<polygon fill="#f5f5f5" stroke="transparent" points="204.5,-629 204.5,-651 340.5,-651 340.5,-629 204.5,-629"/>
<polygon fill="none" stroke="black" points="204.5,-629 204.5,-651 340.5,-651 340.5,-629 204.5,-629"/>
<text text-anchor="start" x="209.5" y="-638.2" font-family="Helvetica,sans-Serif" font-weight="bold" font-size="11.00">withdrawals</text>
<text text-anchor="start" x="298.5" y="-637.2" font-family="Helvetica,sans-Serif" font-size="11.00">[table]</text>
<polygon fill="none" stroke="black" points="204.5,-607 204.5,-629 340.5,-629 340.5,-607 204.5,-607"/>
<image xlink:href="../../images/primaryKeys.png" width="11px" height="12px" preserveAspectRatio="xMinYMin meet" x="209.5" y="-624"/>
<text text-anchor="start" x="226.5" y="-615.2" font-family="Helvetica,sans-Serif" font-size="11.00">index</text>
<polygon fill="#ffffff" stroke="transparent" points="204.5,-585 204.5,-607 340.5,-607 340.5,-585 204.5,-585"/>
<polygon fill="none" stroke="black" points="204.5,-585 204.5,-607 340.5,-607 340.5,-585 204.5,-585"/>
<text text-anchor="start" x="226.5" y="-593.2" font-family="Helvetica,sans-Serif" font-size="11.00">address_hash</text>
<polygon fill="#ffffff" stroke="transparent" points="204.5,-563 204.5,-585 340.5,-585 340.5,-563 204.5,-563"/>
<polygon fill="none" stroke="black" points="204.5,-563 204.5,-585 340.5,-585 340.5,-563 204.5,-563"/>
<image xlink:href="../../images/foreignKeys.png" width="11px" height="12px" preserveAspectRatio="xMinYMin meet" x="209.5" y="-580"/>
<text text-anchor="start" x="226.5" y="-571.2" font-family="Helvetica,sans-Serif" font-size="11.00">block_hash</text>
<polygon fill="none" stroke="black" points="204.5,-545 204.5,-563 340.5,-563 340.5,-545 204.5,-545"/>
<text text-anchor="start" x="207.5" y="-551.2" font-family="Helvetica,sans-Serif" font-size="11.00">...</text>
<polygon fill="#ffffff" stroke="transparent" points="204.5,-527 204.5,-545 340.5,-545 340.5,-527 204.5,-527"/>
<polygon fill="none" stroke="black" points="204.5,-527 204.5,-545 340.5,-545 340.5,-527 204.5,-527"/>
<polygon fill="#ffffff" stroke="transparent" points="205.5,-528 205.5,-544 254.5,-544 254.5,-528 205.5,-528"/>
<text text-anchor="start" x="207.5" y="-533.2" font-family="Helvetica,sans-Serif" font-size="11.00">&lt; 1</text>
<polygon fill="#ffffff" stroke="transparent" points="254.5,-528 254.5,-544 291.5,-544 291.5,-528 254.5,-528"/>
<text text-anchor="start" x="269" y="-533.2" font-family="Helvetica,sans-Serif" font-size="11.00"> &#160;</text>
<polygon fill="#ffffff" stroke="transparent" points="291.5,-528 291.5,-544 339.5,-544 339.5,-528 291.5,-528"/>
<text text-anchor="start" x="317.5" y="-533.2" font-family="Helvetica,sans-Serif" font-size="11.00">5 &gt;</text>
<polygon fill="black" stroke="black" points="254.5,-528 254.5,-544 254.5,-544 254.5,-528 254.5,-528"/>
<polygon fill="black" stroke="black" points="291.5,-528 291.5,-544 291.5,-544 291.5,-528 291.5,-528"/>
</a>
</g>
</g>
<!-- block_second_degree_relations&#45;&gt;withdrawals -->
<g id="edge1" class="edge">
<title>block_second_degree_relations:w&#45;&gt;withdrawals:e</title>
<path fill="none" stroke="black" stroke-dasharray="5,2" d="M469.87,-540.18C411.82,-550.01 408.86,-618 341.5,-618"/>
<polygon fill="black" stroke="black" points="476.53,-539.64 484.79,-542.59 480.51,-539.32 484.5,-539 484.5,-539 484.5,-539 480.51,-539.32 484.21,-535.41 476.53,-539.64 476.53,-539.64"/>
<ellipse fill="none" stroke="black" cx="473.34" cy="-539.9" rx="3.2" ry="3.2"/>
</g>
<!-- blocks -->
<g id="node3" class="node">
<title>blocks</title>
<g id="a_node3"><a xlink:href="../../tables/blocks.html" xlink:title="blocks" target="_top">
<polygon fill="#ffffff" stroke="transparent" points="8,-597 8,-655 101,-655 101,-597 8,-597"/>
<polygon fill="#f5f5f5" stroke="transparent" points="8.5,-633 8.5,-655 101.5,-655 101.5,-633 8.5,-633"/>
<polygon fill="none" stroke="black" points="8.5,-633 8.5,-655 101.5,-655 101.5,-633 8.5,-633"/>
<text text-anchor="start" x="13.5" y="-642.2" font-family="Helvetica,sans-Serif" font-weight="bold" font-size="11.00">blocks</text>
<text text-anchor="start" x="59.5" y="-641.2" font-family="Helvetica,sans-Serif" font-size="11.00">[table]</text>
<polygon fill="none" stroke="black" points="8.5,-615 8.5,-633 101.5,-633 101.5,-615 8.5,-615"/>
<text text-anchor="start" x="11.5" y="-621.2" font-family="Helvetica,sans-Serif" font-size="11.00">...</text>
<polygon fill="#ffffff" stroke="transparent" points="8.5,-597 8.5,-615 101.5,-615 101.5,-597 8.5,-597"/>
<polygon fill="none" stroke="black" points="8.5,-597 8.5,-615 101.5,-615 101.5,-597 8.5,-597"/>
<polygon fill="#ffffff" stroke="transparent" points="9.5,-598 9.5,-614 36.5,-614 36.5,-598 9.5,-598"/>
<text text-anchor="start" x="11.5" y="-603.2" font-family="Helvetica,sans-Serif" font-size="11.00"> &#160;</text>
<polygon fill="#ffffff" stroke="transparent" points="36.5,-598 36.5,-614 62.5,-614 62.5,-598 36.5,-598"/>
<text text-anchor="start" x="45.5" y="-603.2" font-family="Helvetica,sans-Serif" font-size="11.00"> &#160;</text>
<polygon fill="#ffffff" stroke="transparent" points="62.5,-598 62.5,-614 100.5,-614 100.5,-598 62.5,-598"/>
<text text-anchor="start" x="78.5" y="-603.2" font-family="Helvetica,sans-Serif" font-size="11.00">9 &gt;</text>
<polygon fill="black" stroke="black" points="36.5,-598 36.5,-614 36.5,-614 36.5,-598 36.5,-598"/>
<polygon fill="black" stroke="black" points="62.5,-598 62.5,-614 62.5,-614 62.5,-598 62.5,-598"/>
</a>
</g>
</g>
<!-- block_second_degree_relations&#45;&gt;blocks -->
<g id="edge2" class="edge">
<title>block_second_degree_relations:w&#45;&gt;blocks:e</title>
<path fill="none" stroke="black" d="M469.97,-538.02C444.38,-534.32 434.82,-521.22 403,-517 345.5,-509.38 189.59,-483.84 142,-517 100.41,-545.98 153.19,-624 102.5,-624"/>
<polygon fill="black" stroke="black" points="476.52,-538.46 484.26,-542.59 480.51,-538.73 484.5,-539 484.5,-539 484.5,-539 480.51,-538.73 484.74,-535.41 476.52,-538.46 476.52,-538.46"/>
<ellipse fill="none" stroke="black" cx="473.33" cy="-538.24" rx="3.2" ry="3.2"/>
</g>
<!-- withdrawals&#45;&gt;blocks -->
<g id="edge11" class="edge">
<title>withdrawals:w&#45;&gt;blocks:e</title>
<path fill="none" stroke="black" d="M189.18,-575.55C152.69,-583.99 147.31,-624 102.5,-624"/>
<polygon fill="black" stroke="black" points="195.55,-574.86 203.89,-577.58 199.52,-574.43 203.5,-574 203.5,-574 203.5,-574 199.52,-574.43 203.11,-570.42 195.55,-574.86 195.55,-574.86"/>
<ellipse fill="none" stroke="black" cx="192.37" cy="-575.21" rx="3.2" ry="3.2"/>
</g>
<!-- internal_transactions -->
<g id="node4" class="node">
<title>internal_transactions</title>
<g id="a_node4"><a xlink:href="../../tables/internal_transactions.html" xlink:title="internal_transactions" target="_top">
<polygon fill="#ffffff" stroke="transparent" points="848,-619 848,-677 1050,-677 1050,-619 848,-619"/>
<polygon fill="#f5f5f5" stroke="transparent" points="848,-655 848,-677 1050,-677 1050,-655 848,-655"/>
<polygon fill="none" stroke="black" points="848,-655 848,-677 1050,-677 1050,-655 848,-655"/>
<text text-anchor="start" x="853" y="-664.2" font-family="Helvetica,sans-Serif" font-weight="bold" font-size="11.00">internal_transactions</text>
<text text-anchor="start" x="1008" y="-663.2" font-family="Helvetica,sans-Serif" font-size="11.00">[table]</text>
<polygon fill="none" stroke="black" points="848,-637 848,-655 1050,-655 1050,-637 848,-637"/>
<text text-anchor="start" x="851" y="-643.2" font-family="Helvetica,sans-Serif" font-size="11.00">...</text>
<polygon fill="#ffffff" stroke="transparent" points="848,-619 848,-637 1050,-637 1050,-619 848,-619"/>
<polygon fill="none" stroke="black" points="848,-619 848,-637 1050,-637 1050,-619 848,-619"/>
<polygon fill="#ffffff" stroke="transparent" points="849,-620 849,-636 924,-636 924,-620 849,-620"/>
<text text-anchor="start" x="851" y="-625.2" font-family="Helvetica,sans-Serif" font-size="11.00">&lt; 4</text>
<polygon fill="#ffffff" stroke="transparent" points="924,-620 924,-636 987,-636 987,-620 924,-620"/>
<text text-anchor="start" x="951.5" y="-625.2" font-family="Helvetica,sans-Serif" font-size="11.00"> &#160;</text>
<polygon fill="#ffffff" stroke="transparent" points="987,-620 987,-636 1049,-636 1049,-620 987,-620"/>
<text text-anchor="start" x="1039" y="-625.2" font-family="Helvetica,sans-Serif" font-size="11.00"> &#160;</text>
<polygon fill="black" stroke="black" points="924,-620 924,-636 924,-636 924,-620 924,-620"/>
<polygon fill="black" stroke="black" points="987,-620 987,-636 987,-636 987,-620 987,-620"/>
</a>
</g>
</g>
<!-- internal_transactions&#45;&gt;withdrawals -->
<g id="edge4" class="edge">
<title>internal_transactions:w&#45;&gt;withdrawals:e</title>
<path fill="none" stroke="black" stroke-dasharray="5,2" d="M832.48,-644.39C824.67,-642.5 818.95,-639.44 807,-638 601.41,-613.18 548.58,-618 341.5,-618"/>
<polygon fill="black" stroke="black" points="839.05,-645.12 846.6,-649.58 843.02,-645.56 847,-646 847,-646 847,-646 843.02,-645.56 847.4,-642.42 839.05,-645.12 839.05,-645.12"/>
<ellipse fill="none" stroke="black" cx="835.87" cy="-644.76" rx="3.2" ry="3.2"/>
</g>
<!-- internal_transactions&#45;&gt;withdrawals -->
<g id="edge6" class="edge">
<title>internal_transactions:w&#45;&gt;withdrawals:e</title>
<path fill="none" stroke="black" stroke-dasharray="5,2" d="M832.56,-645.25C824.71,-644.37 818.83,-642.9 807,-642 600.43,-626.36 548.66,-618 341.5,-618"/>
<polygon fill="black" stroke="black" points="839.01,-645.59 846.81,-649.6 843.01,-645.79 847,-646 847,-646 847,-646 843.01,-645.79 847.19,-642.4 839.01,-645.59 839.01,-645.59"/>
<ellipse fill="none" stroke="black" cx="835.81" cy="-645.42" rx="3.2" ry="3.2"/>
</g>
<!-- internal_transactions&#45;&gt;blocks -->
<g id="edge3" class="edge">
<title>internal_transactions:w&#45;&gt;blocks:e</title>
<path fill="none" stroke="black" d="M832.94,-650.6C818.76,-663.84 832.65,-702.01 807,-717 664.64,-800.2 600.7,-724.83 436,-717 304.89,-710.77 253.22,-758.71 142,-689 113.36,-671.05 136.3,-624 102.5,-624"/>
<polygon fill="black" stroke="black" points="839.4,-648.49 848.12,-649.42 843.2,-647.24 847,-646 847,-646 847,-646 843.2,-647.24 845.88,-642.58 839.4,-648.49 839.4,-648.49"/>
<ellipse fill="none" stroke="black" cx="836.36" cy="-649.48" rx="3.2" ry="3.2"/>
</g>
<!-- transactions -->
<g id="node5" class="node">
<title>transactions</title>
<g id="a_node5"><a xlink:href="../../tables/transactions.html" xlink:title="transactions" target="_top">
<polygon fill="#ffffff" stroke="transparent" points="552.5,-648 552.5,-706 690.5,-706 690.5,-648 552.5,-648"/>
<polygon fill="#f5f5f5" stroke="transparent" points="552.5,-684 552.5,-706 690.5,-706 690.5,-684 552.5,-684"/>
<polygon fill="none" stroke="black" points="552.5,-684 552.5,-706 690.5,-706 690.5,-684 552.5,-684"/>
<text text-anchor="start" x="557.5" y="-693.2" font-family="Helvetica,sans-Serif" font-weight="bold" font-size="11.00">transactions</text>
<text text-anchor="start" x="648.5" y="-692.2" font-family="Helvetica,sans-Serif" font-size="11.00">[table]</text>
<polygon fill="none" stroke="black" points="552.5,-666 552.5,-684 690.5,-684 690.5,-666 552.5,-666"/>
<text text-anchor="start" x="555.5" y="-672.2" font-family="Helvetica,sans-Serif" font-size="11.00">...</text>
<polygon fill="#ffffff" stroke="transparent" points="552.5,-648 552.5,-666 690.5,-666 690.5,-648 552.5,-648"/>
<polygon fill="none" stroke="black" points="552.5,-648 552.5,-666 690.5,-666 690.5,-648 552.5,-648"/>
<polygon fill="#ffffff" stroke="transparent" points="553.5,-649 553.5,-665 603.5,-665 603.5,-649 553.5,-649"/>
<text text-anchor="start" x="555.5" y="-654.2" font-family="Helvetica,sans-Serif" font-size="11.00">&lt; 2</text>
<polygon fill="#ffffff" stroke="transparent" points="603.5,-649 603.5,-665 640.5,-665 640.5,-649 603.5,-649"/>
<text text-anchor="start" x="618" y="-654.2" font-family="Helvetica,sans-Serif" font-size="11.00"> &#160;</text>
<polygon fill="#ffffff" stroke="transparent" points="640.5,-649 640.5,-665 689.5,-665 689.5,-649 640.5,-649"/>
<text text-anchor="start" x="667.5" y="-654.2" font-family="Helvetica,sans-Serif" font-size="11.00">7 &gt;</text>
<polygon fill="black" stroke="black" points="603.5,-649 603.5,-665 603.5,-665 603.5,-649 603.5,-649"/>
<polygon fill="black" stroke="black" points="640.5,-649 640.5,-665 640.5,-665 640.5,-649 640.5,-649"/>
</a>
</g>
</g>
<!-- internal_transactions&#45;&gt;transactions -->
<g id="edge5" class="edge">
<title>internal_transactions:w&#45;&gt;transactions:e</title>
<path fill="none" stroke="black" d="M832.58,-646.43C774.26,-650.04 756.72,-675 691.5,-675"/>
<polygon fill="black" stroke="black" points="839,-646.24 847.11,-649.6 843,-646.12 847,-646 847,-646 847,-646 843,-646.12 846.89,-642.4 839,-646.24 839,-646.24"/>
<ellipse fill="none" stroke="black" cx="835.81" cy="-646.34" rx="3.2" ry="3.2"/>
</g>
<!-- transactions&#45;&gt;withdrawals -->
<g id="edge10" class="edge">
<title>transactions:w&#45;&gt;withdrawals:e</title>
<path fill="none" stroke="black" stroke-dasharray="5,2" d="M537.11,-674.56C452.86,-669.25 433.2,-618 341.5,-618"/>
<polygon fill="black" stroke="black" points="543.5,-674.75 551.39,-678.6 547.5,-674.88 551.5,-675 551.5,-675 551.5,-675 547.5,-674.88 551.61,-671.4 543.5,-674.75 543.5,-674.75"/>
<ellipse fill="none" stroke="black" cx="540.31" cy="-674.66" rx="3.2" ry="3.2"/>
</g>
<!-- transactions&#45;&gt;blocks -->
<g id="edge9" class="edge">
<title>transactions:w&#45;&gt;blocks:e</title>
<path fill="none" stroke="black" d="M537.09,-675.12C366.13,-678.01 305.29,-730.82 142,-662 119.55,-652.54 126.86,-624 102.5,-624"/>
<polygon fill="black" stroke="black" points="543.5,-675.07 551.53,-678.6 547.5,-675.03 551.5,-675 551.5,-675 551.5,-675 547.5,-675.03 551.47,-671.4 543.5,-675.07 543.5,-675.07"/>
<ellipse fill="none" stroke="black" cx="540.3" cy="-675.09" rx="3.2" ry="3.2"/>
</g>
<!-- token_instances -->
<g id="node6" class="node">
<title>token_instances</title>
<g id="a_node6"><a xlink:href="../../tables/token_instances.html" xlink:title="token_instances" target="_top">
<polygon fill="#ffffff" stroke="transparent" points="444,-37 444,-455 799,-455 799,-37 444,-37"/>
<polygon fill="#f5f5f5" stroke="transparent" points="446.5,-431 446.5,-453 797.5,-453 797.5,-431 446.5,-431"/>
<polygon fill="none" stroke="black" points="446.5,-431 446.5,-453 797.5,-453 797.5,-431 446.5,-431"/>
<text text-anchor="start" x="451.5" y="-440.2" font-family="Helvetica,sans-Serif" font-weight="bold" font-size="11.00">token_instances</text>
<text text-anchor="start" x="755.5" y="-439.2" font-family="Helvetica,sans-Serif" font-size="11.00">[table]</text>
<polygon fill="none" stroke="black" points="446.5,-409 446.5,-431 682.5,-431 682.5,-409 446.5,-409"/>
<image xlink:href="../../images/primaryKeys.png" width="11px" height="12px" preserveAspectRatio="xMinYMin meet" x="451.5" y="-426"/>
<text text-anchor="start" x="466.5" y="-417.2" font-family="Helvetica,sans-Serif" font-size="11.00">token_id</text>
<polygon fill="none" stroke="black" points="682.5,-409 682.5,-431 797.5,-431 797.5,-409 682.5,-409"/>
<text text-anchor="start" x="685.5" y="-417.2" font-family="Helvetica,sans-Serif" font-size="11.00">numeric[78]</text>
<polygon fill="none" stroke="black" points="446.5,-387 446.5,-409 682.5,-409 682.5,-387 446.5,-387"/>
<image xlink:href="../../images/primaryKeys.png" width="11px" height="12px" preserveAspectRatio="xMinYMin meet" x="451.5" y="-404"/>
<text text-anchor="start" x="466.5" y="-395.2" font-family="Helvetica,sans-Serif" font-size="11.00">token_contract_address_hash</text>
<polygon fill="none" stroke="black" points="682.5,-387 682.5,-409 797.5,-409 797.5,-387 682.5,-387"/>
<text text-anchor="start" x="685.5" y="-395.2" font-family="Helvetica,sans-Serif" font-size="11.00">bytea[2147483647]</text>
<polygon fill="none" stroke="black" points="446.5,-365 446.5,-387 682.5,-387 682.5,-365 446.5,-365"/>
<text text-anchor="start" x="466.5" y="-373.2" font-family="Helvetica,sans-Serif" font-size="11.00">metadata</text>
<polygon fill="none" stroke="black" points="682.5,-365 682.5,-387 797.5,-387 797.5,-365 682.5,-365"/>
<text text-anchor="start" x="685.5" y="-373.2" font-family="Helvetica,sans-Serif" font-size="11.00">jsonb[2147483647]</text>
<polygon fill="none" stroke="black" points="446.5,-343 446.5,-365 682.5,-365 682.5,-343 446.5,-343"/>
<text text-anchor="start" x="466.5" y="-351.2" font-family="Helvetica,sans-Serif" font-size="11.00">inserted_at</text>
<polygon fill="none" stroke="black" points="682.5,-343 682.5,-365 797.5,-365 797.5,-343 682.5,-343"/>
<text text-anchor="start" x="685.5" y="-351.2" font-family="Helvetica,sans-Serif" font-size="11.00">timestamp[29,6]</text>
<polygon fill="none" stroke="black" points="446.5,-321 446.5,-343 682.5,-343 682.5,-321 446.5,-321"/>
<text text-anchor="start" x="466.5" y="-329.2" font-family="Helvetica,sans-Serif" font-size="11.00">updated_at</text>
<polygon fill="none" stroke="black" points="682.5,-321 682.5,-343 797.5,-343 797.5,-321 682.5,-321"/>
<text text-anchor="start" x="685.5" y="-329.2" font-family="Helvetica,sans-Serif" font-size="11.00">timestamp[29,6]</text>
<polygon fill="#ffffff" stroke="transparent" points="446.5,-299 446.5,-321 682.5,-321 682.5,-299 446.5,-299"/>
<polygon fill="none" stroke="black" points="446.5,-299 446.5,-321 682.5,-321 682.5,-299 446.5,-299"/>
<text text-anchor="start" x="466.5" y="-307.2" font-family="Helvetica,sans-Serif" font-size="11.00">error</text>
<polygon fill="none" stroke="black" points="682.5,-299 682.5,-321 797.5,-321 797.5,-299 682.5,-299"/>
<text text-anchor="start" x="685.5" y="-307.2" font-family="Helvetica,sans-Serif" font-size="11.00">varchar[255]</text>
<polygon fill="#ffffff" stroke="transparent" points="446.5,-277 446.5,-299 682.5,-299 682.5,-277 446.5,-277"/>
<polygon fill="none" stroke="black" points="446.5,-277 446.5,-299 682.5,-299 682.5,-277 446.5,-277"/>
<text text-anchor="start" x="466.5" y="-285.2" font-family="Helvetica,sans-Serif" font-size="11.00">owner_address_hash</text>
<polygon fill="none" stroke="black" points="682.5,-277 682.5,-299 797.5,-299 797.5,-277 682.5,-277"/>
<text text-anchor="start" x="685.5" y="-285.2" font-family="Helvetica,sans-Serif" font-size="11.00">bytea[2147483647]</text>
<polygon fill="none" stroke="black" points="446.5,-255 446.5,-277 682.5,-277 682.5,-255 446.5,-255"/>
<text text-anchor="start" x="466.5" y="-263.2" font-family="Helvetica,sans-Serif" font-size="11.00">owner_updated_at_block</text>
<polygon fill="none" stroke="black" points="682.5,-255 682.5,-277 797.5,-277 797.5,-255 682.5,-255"/>
<text text-anchor="start" x="685.5" y="-263.2" font-family="Helvetica,sans-Serif" font-size="11.00">int8[19]</text>
<polygon fill="none" stroke="black" points="446.5,-233 446.5,-255 682.5,-255 682.5,-233 446.5,-233"/>
<image xlink:href="../../images/foreignKeys.png" width="11px" height="12px" preserveAspectRatio="xMinYMin meet" x="451.5" y="-250"/>
<text text-anchor="start" x="466.5" y="-241.2" font-family="Helvetica,sans-Serif" font-size="11.00">owner_updated_at_log_index</text>
<polygon fill="none" stroke="black" points="682.5,-233 682.5,-255 797.5,-255 797.5,-233 682.5,-233"/>
<text text-anchor="start" x="685.5" y="-241.2" font-family="Helvetica,sans-Serif" font-size="11.00">int4[10]</text>
<polygon fill="none" stroke="black" points="446.5,-211 446.5,-233 682.5,-233 682.5,-211 446.5,-211"/>
<text text-anchor="start" x="466.5" y="-219.2" font-family="Helvetica,sans-Serif" font-size="11.00">refetch_after</text>
<polygon fill="none" stroke="black" points="682.5,-211 682.5,-233 797.5,-233 797.5,-211 682.5,-211"/>
<text text-anchor="start" x="685.5" y="-219.2" font-family="Helvetica,sans-Serif" font-size="11.00">timestamp[29,6]</text>
<polygon fill="none" stroke="black" points="446.5,-189 446.5,-211 682.5,-211 682.5,-189 446.5,-189"/>
<text text-anchor="start" x="466.5" y="-197.2" font-family="Helvetica,sans-Serif" font-size="11.00">retries_count</text>
<polygon fill="none" stroke="black" points="682.5,-189 682.5,-211 797.5,-211 797.5,-189 682.5,-189"/>
<text text-anchor="start" x="685.5" y="-197.2" font-family="Helvetica,sans-Serif" font-size="11.00">int2[5]</text>
<polygon fill="none" stroke="black" points="446.5,-167 446.5,-189 682.5,-189 682.5,-167 446.5,-167"/>
<text text-anchor="start" x="466.5" y="-175.2" font-family="Helvetica,sans-Serif" font-size="11.00">thumbnails</text>
<polygon fill="none" stroke="black" points="682.5,-167 682.5,-189 797.5,-189 797.5,-167 682.5,-167"/>
<text text-anchor="start" x="685.5" y="-175.2" font-family="Helvetica,sans-Serif" font-size="11.00">jsonb[2147483647]</text>
<polygon fill="none" stroke="black" points="446.5,-145 446.5,-167 682.5,-167 682.5,-145 446.5,-145"/>
<text text-anchor="start" x="466.5" y="-153.2" font-family="Helvetica,sans-Serif" font-size="11.00">media_type</text>
<polygon fill="none" stroke="black" points="682.5,-145 682.5,-167 797.5,-167 797.5,-145 682.5,-145"/>
<text text-anchor="start" x="685.5" y="-153.2" font-family="Helvetica,sans-Serif" font-size="11.00">varchar[255]</text>
<polygon fill="none" stroke="black" points="446.5,-123 446.5,-145 682.5,-145 682.5,-123 446.5,-123"/>
<text text-anchor="start" x="466.5" y="-131.2" font-family="Helvetica,sans-Serif" font-size="11.00">cdn_upload_error</text>
<polygon fill="none" stroke="black" points="682.5,-123 682.5,-145 797.5,-145 797.5,-123 682.5,-123"/>
<text text-anchor="start" x="685.5" y="-131.2" font-family="Helvetica,sans-Serif" font-size="11.00">varchar[255]</text>
<polygon fill="none" stroke="black" points="446.5,-101 446.5,-123 682.5,-123 682.5,-101 446.5,-101"/>
<text text-anchor="start" x="466.5" y="-109.2" font-family="Helvetica,sans-Serif" font-size="11.00">is_banned</text>
<polygon fill="none" stroke="black" points="682.5,-101 682.5,-123 797.5,-123 797.5,-101 682.5,-101"/>
<text text-anchor="start" x="685.5" y="-109.2" font-family="Helvetica,sans-Serif" font-size="11.00">bool[1]</text>
<polygon fill="none" stroke="black" points="446.5,-79 446.5,-101 682.5,-101 682.5,-79 446.5,-79"/>
<text text-anchor="start" x="466.5" y="-87.2" font-family="Helvetica,sans-Serif" font-size="11.00">metadata_url</text>
<polygon fill="none" stroke="black" points="682.5,-79 682.5,-101 797.5,-101 797.5,-79 682.5,-79"/>
<text text-anchor="start" x="685.5" y="-87.2" font-family="Helvetica,sans-Serif" font-size="11.00">varchar[2048]</text>
<polygon fill="none" stroke="black" points="446.5,-57 446.5,-79 682.5,-79 682.5,-57 446.5,-57"/>
<text text-anchor="start" x="466.5" y="-65.2" font-family="Helvetica,sans-Serif" font-size="11.00">skip_metadata_url</text>
<polygon fill="none" stroke="black" points="682.5,-57 682.5,-79 797.5,-79 797.5,-57 682.5,-57"/>
<text text-anchor="start" x="685.5" y="-65.2" font-family="Helvetica,sans-Serif" font-size="11.00">bool[1]</text>
<polygon fill="#ffffff" stroke="transparent" points="446.5,-39 446.5,-57 797.5,-57 797.5,-39 446.5,-39"/>
<polygon fill="none" stroke="black" points="446.5,-39 446.5,-57 797.5,-57 797.5,-39 446.5,-39"/>
<polygon fill="#ffffff" stroke="transparent" points="447.5,-40 447.5,-56 568.5,-56 568.5,-40 447.5,-40"/>
<text text-anchor="start" x="449.5" y="-45.2" font-family="Helvetica,sans-Serif" font-size="11.00">&lt; 2</text>
<polygon fill="#ffffff" stroke="transparent" points="568.5,-40 568.5,-56 676.5,-56 676.5,-40 568.5,-40"/>
<text text-anchor="start" x="618.5" y="-45.2" font-family="Helvetica,sans-Serif" font-size="11.00"> &#160;</text>
<polygon fill="#ffffff" stroke="transparent" points="676.5,-40 676.5,-56 796.5,-56 796.5,-40 676.5,-40"/>
<text text-anchor="start" x="774.5" y="-45.2" font-family="Helvetica,sans-Serif" font-size="11.00">0 &gt;</text>
<polygon fill="black" stroke="black" points="568.5,-40 568.5,-56 568.5,-56 568.5,-40 568.5,-40"/>
<polygon fill="black" stroke="black" points="676.5,-40 676.5,-56 676.5,-56 676.5,-40 676.5,-40"/>
<polygon fill="none" stroke="black" stroke-width="2" points="445,-38 445,-454 798,-454 798,-38 445,-38"/>
</a>
</g>
</g>
<!-- token_instances&#45;&gt;withdrawals -->
<g id="edge7" class="edge">
<title>token_instances:w&#45;&gt;withdrawals:e</title>
<path fill="none" stroke="black" stroke-dasharray="5,2" d="M431.57,-249.22C395.41,-280.39 418.25,-442.32 403,-490 383.78,-550.12 404.61,-618 341.5,-618"/>
<polygon fill="black" stroke="black" points="438.01,-246.8 446.76,-247.37 441.75,-245.4 445.5,-244 445.5,-244 445.5,-244 441.75,-245.4 444.24,-240.63 438.01,-246.8 438.01,-246.8"/>
<ellipse fill="none" stroke="black" cx="435.01" cy="-247.93" rx="3.2" ry="3.2"/>
</g>
<!-- tokens -->
<g id="node7" class="node">
<title>tokens</title>
<g id="a_node7"><a xlink:href="../../tables/tokens.html" xlink:title="tokens" target="_top">
<polygon fill="#ffffff" stroke="transparent" points="150,-333 150,-479 395,-479 395,-333 150,-333"/>
<polygon fill="#f5f5f5" stroke="transparent" points="150.5,-457 150.5,-479 395.5,-479 395.5,-457 150.5,-457"/>
<polygon fill="none" stroke="black" points="150.5,-457 150.5,-479 395.5,-479 395.5,-457 150.5,-457"/>
<text text-anchor="start" x="155.5" y="-466.2" font-family="Helvetica,sans-Serif" font-weight="bold" font-size="11.00">tokens</text>
<text text-anchor="start" x="353.5" y="-465.2" font-family="Helvetica,sans-Serif" font-size="11.00">[table]</text>
<polygon fill="#ffffff" stroke="transparent" points="150.5,-435 150.5,-457 395.5,-457 395.5,-435 150.5,-435"/>
<polygon fill="none" stroke="black" points="150.5,-435 150.5,-457 395.5,-457 395.5,-435 150.5,-435"/>
<text text-anchor="start" x="170.5" y="-443.2" font-family="Helvetica,sans-Serif" font-size="11.00">symbol</text>
<polygon fill="#ffffff" stroke="transparent" points="150.5,-413 150.5,-435 395.5,-435 395.5,-413 150.5,-413"/>
<polygon fill="none" stroke="black" points="150.5,-413 150.5,-435 395.5,-435 395.5,-413 150.5,-413"/>
<text text-anchor="start" x="170.5" y="-421.2" font-family="Helvetica,sans-Serif" font-size="11.00">type</text>
<polygon fill="#ffffff" stroke="transparent" points="150.5,-391 150.5,-413 395.5,-413 395.5,-391 150.5,-391"/>
<polygon fill="none" stroke="black" points="150.5,-391 150.5,-413 395.5,-413 395.5,-391 150.5,-391"/>
<text text-anchor="start" x="170.5" y="-399.2" font-family="Helvetica,sans-Serif" font-size="11.00">cataloged</text>
<polygon fill="none" stroke="black" points="150.5,-369 150.5,-391 395.5,-391 395.5,-369 150.5,-369"/>
<image xlink:href="../../images/primaryKeys.png" width="11px" height="12px" preserveAspectRatio="xMinYMin meet" x="155.5" y="-386"/>
<text text-anchor="start" x="170.5" y="-377.2" font-family="Helvetica,sans-Serif" font-size="11.00">contract_address_hash</text>
<polygon fill="none" stroke="black" points="150.5,-351 150.5,-369 395.5,-369 395.5,-351 150.5,-351"/>
<text text-anchor="start" x="153.5" y="-357.2" font-family="Helvetica,sans-Serif" font-size="11.00">...</text>
<polygon fill="#ffffff" stroke="transparent" points="150.5,-333 150.5,-351 395.5,-351 395.5,-333 150.5,-333"/>
<polygon fill="none" stroke="black" points="150.5,-333 150.5,-351 395.5,-351 395.5,-333 150.5,-333"/>
<polygon fill="#ffffff" stroke="transparent" points="151.5,-334 151.5,-350 228.5,-350 228.5,-334 151.5,-334"/>
<text text-anchor="start" x="153.5" y="-339.2" font-family="Helvetica,sans-Serif" font-size="11.00"> &#160;</text>
<polygon fill="#ffffff" stroke="transparent" points="228.5,-334 228.5,-350 305.5,-350 305.5,-334 228.5,-334"/>
<text text-anchor="start" x="263" y="-339.2" font-family="Helvetica,sans-Serif" font-size="11.00"> &#160;</text>
<polygon fill="#ffffff" stroke="transparent" points="305.5,-334 305.5,-350 394.5,-350 394.5,-334 305.5,-334"/>
<text text-anchor="start" x="372.5" y="-339.2" font-family="Helvetica,sans-Serif" font-size="11.00">1 &gt;</text>
<polygon fill="black" stroke="black" points="228.5,-334 228.5,-350 228.5,-350 228.5,-334 228.5,-334"/>
<polygon fill="black" stroke="black" points="305.5,-334 305.5,-350 305.5,-350 305.5,-334 305.5,-334"/>
</a>
</g>
</g>
<!-- token_instances&#45;&gt;tokens -->
<g id="edge8" class="edge">
<title>token_instances:w&#45;&gt;tokens:e</title>
<path fill="none" stroke="black" d="M431.32,-395.19C419.71,-390.12 413.9,-380 396.5,-380"/>
<polygon fill="black" stroke="black" points="437.65,-396.44 444.8,-401.53 441.58,-397.22 445.5,-398 445.5,-398 445.5,-398 441.58,-397.22 446.2,-394.47 437.65,-396.44 437.65,-396.44"/>
<ellipse fill="none" stroke="black" cx="434.51" cy="-395.82" rx="3.2" ry="3.2"/>
</g>
</g>
</svg>
