<?xml version="1.0" encoding="UTF-8" standalone="no"?>
<!DOCTYPE svg PUBLIC "-//W3C//DTD SVG 1.1//EN"
 "http://www.w3.org/Graphics/SVG/1.1/DTD/svg11.dtd">
<!-- Generated by graphviz version 9.0.0 (20230911.1827)
 -->
<!-- Title: twoDegreesRelationshipsDiagramImplied Pages: 1 -->
<svg width="569pt" height="524pt"
 viewBox="0.00 0.00 569.00 524.00" xmlns="http://www.w3.org/2000/svg" xmlns:xlink="http://www.w3.org/1999/xlink">
<g id="graph0" class="graph" transform="scale(1 1) rotate(0) translate(4 520)">
<title>twoDegreesRelationshipsDiagramImplied</title>
<polygon fill="#ffffff" stroke="none" points="-4,4 -4,-520 565,-520 565,4 -4,4"/>
<text text-anchor="middle" x="71.38" y="-5.55" font-family="Helvetica,sans-Serif" font-size="11.00">Generated by SchemaSpy</text>
<!-- token_instances -->
<g id="node1" class="node">
<title>token_instances</title>
<g id="a_node1"><a xlink:href="../../tables/token_instances.html" xlink:title="token_instances" target="_top">
<polygon fill="#ffffff" stroke="none" points="359,-124 359,-292 553,-292 553,-124 359,-124"/>
<polygon fill="#f5f5f5" stroke="none" points="359,-270 359,-292 553,-292 553,-270 359,-270"/>
<polygon fill="none" stroke="black" points="359,-270 359,-292 553,-292 553,-270 359,-270"/>
<text text-anchor="start" x="364" y="-277.55" font-family="Helvetica,sans-Serif" font-weight="bold" font-size="11.00">token_instances</text>
<text text-anchor="start" x="518.75" y="-276.55" font-family="Helvetica,sans-Serif" font-size="11.00">[table]</text>
<polygon fill="none" stroke="black" points="359,-248 359,-270 553,-270 553,-248 359,-248"/>
<image xlink:href="../../images/primaryKeys.png" width="11px" height="12px" preserveAspectRatio="xMinYMin meet" x="364" y="-265"/>
<text text-anchor="start" x="379" y="-254.55" font-family="Helvetica,sans-Serif" font-size="11.00">token_id</text>
<polygon fill="none" stroke="black" points="359,-226 359,-248 553,-248 553,-226 359,-226"/>
<image xlink:href="../../images/primaryKeys.png" width="11px" height="12px" preserveAspectRatio="xMinYMin meet" x="364" y="-243"/>
<text text-anchor="start" x="379" y="-232.55" font-family="Helvetica,sans-Serif" font-size="11.00">token_contract_address_hash</text>
<polygon fill="#ffffff" stroke="none" points="359,-204 359,-226 553,-226 553,-204 359,-204"/>
<polygon fill="none" stroke="black" points="359,-204 359,-226 553,-226 553,-204 359,-204"/>
<text text-anchor="start" x="379" y="-210.55" font-family="Helvetica,sans-Serif" font-size="11.00">error</text>
<polygon fill="#ffffff" stroke="none" points="359,-182 359,-204 553,-204 553,-182 359,-182"/>
<polygon fill="none" stroke="black" points="359,-182 359,-204 553,-204 553,-182 359,-182"/>
<text text-anchor="start" x="379" y="-188.55" font-family="Helvetica,sans-Serif" font-size="11.00">owner_address_hash</text>
<polygon fill="none" stroke="black" points="359,-160 359,-182 553,-182 553,-160 359,-160"/>
<image xlink:href="../../images/foreignKeys.png" width="11px" height="12px" preserveAspectRatio="xMinYMin meet" x="364" y="-177"/>
<text text-anchor="start" x="379" y="-166.55" font-family="Helvetica,sans-Serif" font-size="11.00">owner_updated_at_log_index</text>
<polygon fill="none" stroke="black" points="359,-142 359,-160 553,-160 553,-142 359,-142"/>
<text text-anchor="start" x="362" y="-146.55" font-family="Helvetica,sans-Serif" font-size="11.00">...</text>
<polygon fill="#ffffff" stroke="none" points="359,-124 359,-142 454,-142 454,-124 359,-124"/>
<polygon fill="none" stroke="black" points="359,-124 359,-142 454,-142 454,-124 359,-124"/>
<text text-anchor="start" x="362" y="-128.55" font-family="Helvetica,sans-Serif" font-size="11.00">&lt; 2</text>
<polygon fill="#ffffff" stroke="none" points="454,-124 454,-142 503,-142 503,-124 454,-124"/>
<polygon fill="none" stroke="black" points="454,-124 454,-142 503,-142 503,-124 454,-124"/>
<text text-anchor="start" x="494" y="-128.55" font-family="Helvetica,sans-Serif" font-size="11.00"> &#160;</text>
<polygon fill="#ffffff" stroke="none" points="503,-124 503,-142 553,-142 553,-124 503,-124"/>
<polygon fill="none" stroke="black" points="503,-124 503,-142 553,-142 553,-124 503,-124"/>
<text text-anchor="start" x="544" y="-128.55" font-family="Helvetica,sans-Serif" font-size="11.00"> &#160;</text>
</a>
</g>
</g>
<!-- withdrawals -->
<g id="node2" class="node">
<title>withdrawals</title>
<g id="a_node2"><a xlink:href="../../tables/withdrawals.html" xlink:title="withdrawals" target="_top">
<polygon fill="#ffffff" stroke="none" points="105.5,-37 105.5,-95 212.5,-95 212.5,-37 105.5,-37"/>
<polygon fill="#f5f5f5" stroke="none" points="105.5,-73 105.5,-95 212.5,-95 212.5,-73 105.5,-73"/>
<polygon fill="none" stroke="black" points="105.5,-73 105.5,-95 212.5,-95 212.5,-73 105.5,-73"/>
<text text-anchor="start" x="110.5" y="-80.55" font-family="Helvetica,sans-Serif" font-weight="bold" font-size="11.00">withdrawals</text>
<text text-anchor="start" x="178.5" y="-79.55" font-family="Helvetica,sans-Serif" font-size="11.00">[table]</text>
<polygon fill="none" stroke="black" points="105.5,-55 105.5,-73 212.5,-73 212.5,-55 105.5,-55"/>
<text text-anchor="start" x="108.5" y="-59.55" font-family="Helvetica,sans-Serif" font-size="11.00">...</text>
<polygon fill="#ffffff" stroke="none" points="105.5,-37 105.5,-55 152.5,-55 152.5,-37 105.5,-37"/>
<polygon fill="none" stroke="black" points="105.5,-37 105.5,-55 152.5,-55 152.5,-37 105.5,-37"/>
<text text-anchor="start" x="108.5" y="-41.55" font-family="Helvetica,sans-Serif" font-size="11.00">&lt; 1</text>
<polygon fill="#ffffff" stroke="none" points="152.5,-37 152.5,-55 177.5,-55 177.5,-37 152.5,-37"/>
<polygon fill="none" stroke="black" points="152.5,-37 152.5,-55 177.5,-55 177.5,-37 152.5,-37"/>
<text text-anchor="start" x="168.5" y="-41.55" font-family="Helvetica,sans-Serif" font-size="11.00"> &#160;</text>
<polygon fill="#ffffff" stroke="none" points="177.5,-37 177.5,-55 212.5,-55 212.5,-37 177.5,-37"/>
<polygon fill="none" stroke="black" points="177.5,-37 177.5,-55 212.5,-55 212.5,-37 177.5,-37"/>
<text text-anchor="start" x="193.75" y="-41.55" font-family="Helvetica,sans-Serif" font-size="11.00">5 &gt;</text>
</a>
</g>
</g>
<!-- token_instances&#45;&gt;withdrawals -->
<g id="edge1" class="edge">
<title>token_instances:w&#45;&gt;withdrawals:e</title>
<path fill="none" stroke="black" stroke-dasharray="5,2" d="M343.03,-166.12C330.11,-154.07 338.89,-122.62 318,-105 280.02,-72.96 263.68,-64 214,-64"/>
<polygon fill="black" stroke="black" points="350.08,-168.42 356.57,-174.32 354.2,-169.76 357.36,-170.79 357.36,-170.79 357.36,-170.79 354.2,-169.76 358.8,-167.47 350.08,-168.42"/>
<ellipse fill="none" stroke="black" cx="345.4" cy="-166.89" rx="3.2" ry="3.2"/>
</g>
<!-- tokens -->
<g id="node3" class="node">
<title>tokens</title>
<g id="a_node3"><a xlink:href="../../tables/tokens.html" xlink:title="tokens" target="_top">
<polygon fill="#ffffff" stroke="none" points="8,-116 8,-512 310,-512 310,-116 8,-116"/>
<polygon fill="#f5f5f5" stroke="none" points="10,-488 10,-510 308,-510 308,-488 10,-488"/>
<polygon fill="none" stroke="black" points="10,-488 10,-510 308,-510 308,-488 10,-488"/>
<text text-anchor="start" x="14.38" y="-495.55" font-family="Helvetica,sans-Serif" font-weight="bold" font-size="11.00">tokens</text>
<text text-anchor="start" x="273.75" y="-494.55" font-family="Helvetica,sans-Serif" font-size="11.00">[table]</text>
<polygon fill="none" stroke="black" points="10,-466 10,-488 210,-488 210,-466 10,-466"/>
<text text-anchor="start" x="30" y="-472.55" font-family="Helvetica,sans-Serif" font-size="11.00">name</text>
<polygon fill="none" stroke="black" points="210,-466 210,-488 308,-488 308,-466 210,-466"/>
<text text-anchor="start" x="213" y="-472.55" font-family="Helvetica,sans-Serif" font-size="11.00">text[2147483647]</text>
<polygon fill="#ffffff" stroke="none" points="10,-444 10,-466 210,-466 210,-444 10,-444"/>
<polygon fill="none" stroke="black" points="10,-444 10,-466 210,-466 210,-444 10,-444"/>
<text text-anchor="start" x="30" y="-450.55" font-family="Helvetica,sans-Serif" font-size="11.00">symbol</text>
<polygon fill="none" stroke="black" points="210,-444 210,-466 308,-466 308,-444 210,-444"/>
<text text-anchor="start" x="213" y="-450.55" font-family="Helvetica,sans-Serif" font-size="11.00">text[2147483647]</text>
<polygon fill="none" stroke="black" points="10,-422 10,-444 210,-444 210,-422 10,-422"/>
<text text-anchor="start" x="30" y="-428.55" font-family="Helvetica,sans-Serif" font-size="11.00">total_supply</text>
<polygon fill="none" stroke="black" points="210,-422 210,-444 308,-444 308,-422 210,-422"/>
<text text-anchor="start" x="213" y="-428.55" font-family="Helvetica,sans-Serif" font-size="11.00">numeric[0]</text>
<polygon fill="none" stroke="black" points="10,-400 10,-422 210,-422 210,-400 10,-400"/>
<text text-anchor="start" x="30" y="-406.55" font-family="Helvetica,sans-Serif" font-size="11.00">decimals</text>
<polygon fill="none" stroke="black" points="210,-400 210,-422 308,-422 308,-400 210,-400"/>
<text text-anchor="start" x="213" y="-406.55" font-family="Helvetica,sans-Serif" font-size="11.00">numeric[0]</text>
<polygon fill="#ffffff" stroke="none" points="10,-378 10,-400 210,-400 210,-378 10,-378"/>
<polygon fill="none" stroke="black" points="10,-378 10,-400 210,-400 210,-378 10,-378"/>
<text text-anchor="start" x="30" y="-384.55" font-family="Helvetica,sans-Serif" font-size="11.00">type</text>
<polygon fill="none" stroke="black" points="210,-378 210,-400 308,-400 308,-378 210,-378"/>
<text text-anchor="start" x="213" y="-384.55" font-family="Helvetica,sans-Serif" font-size="11.00">varchar[255]</text>
<polygon fill="#ffffff" stroke="none" points="10,-356 10,-378 210,-378 210,-356 10,-356"/>
<polygon fill="none" stroke="black" points="10,-356 10,-378 210,-378 210,-356 10,-356"/>
<text text-anchor="start" x="30" y="-362.55" font-family="Helvetica,sans-Serif" font-size="11.00">cataloged</text>
<polygon fill="none" stroke="black" points="210,-356 210,-378 308,-378 308,-356 210,-356"/>
<text text-anchor="start" x="213" y="-362.55" font-family="Helvetica,sans-Serif" font-size="11.00">bool[1]</text>
<polygon fill="none" stroke="black" points="10,-334 10,-356 210,-356 210,-334 10,-334"/>
<image xlink:href="../../images/primaryKeys.png" width="11px" height="12px" preserveAspectRatio="xMinYMin meet" x="15" y="-351"/>
<text text-anchor="start" x="30" y="-340.55" font-family="Helvetica,sans-Serif" font-size="11.00">contract_address_hash</text>
<polygon fill="none" stroke="black" points="210,-334 210,-356 308,-356 308,-334 210,-334"/>
<text text-anchor="start" x="212.88" y="-340.55" font-family="Helvetica,sans-Serif" font-size="11.00">bytea[2147483647]</text>
<polygon fill="none" stroke="black" points="10,-312 10,-334 210,-334 210,-312 10,-312"/>
<text text-anchor="start" x="30" y="-318.55" font-family="Helvetica,sans-Serif" font-size="11.00">inserted_at</text>
<polygon fill="none" stroke="black" points="210,-312 210,-334 308,-334 308,-312 210,-312"/>
<text text-anchor="start" x="213" y="-318.55" font-family="Helvetica,sans-Serif" font-size="11.00">timestamp[29,6]</text>
<polygon fill="none" stroke="black" points="10,-290 10,-312 210,-312 210,-290 10,-290"/>
<text text-anchor="start" x="30" y="-296.55" font-family="Helvetica,sans-Serif" font-size="11.00">updated_at</text>
<polygon fill="none" stroke="black" points="210,-290 210,-312 308,-312 308,-290 210,-290"/>
<text text-anchor="start" x="213" y="-296.55" font-family="Helvetica,sans-Serif" font-size="11.00">timestamp[29,6]</text>
<polygon fill="none" stroke="black" points="10,-268 10,-290 210,-290 210,-268 10,-268"/>
<text text-anchor="start" x="30" y="-274.55" font-family="Helvetica,sans-Serif" font-size="11.00">holder_count</text>
<polygon fill="none" stroke="black" points="210,-268 210,-290 308,-290 308,-268 210,-268"/>
<text text-anchor="start" x="213" y="-274.55" font-family="Helvetica,sans-Serif" font-size="11.00">int4[10]</text>
<polygon fill="none" stroke="black" points="10,-246 10,-268 210,-268 210,-246 10,-246"/>
<text text-anchor="start" x="30" y="-252.55" font-family="Helvetica,sans-Serif" font-size="11.00">skip_metadata</text>
<polygon fill="none" stroke="black" points="210,-246 210,-268 308,-268 308,-246 210,-246"/>
<text text-anchor="start" x="213" y="-252.55" font-family="Helvetica,sans-Serif" font-size="11.00">bool[1]</text>
<polygon fill="none" stroke="black" points="10,-224 10,-246 210,-246 210,-224 10,-224"/>
<text text-anchor="start" x="30" y="-230.55" font-family="Helvetica,sans-Serif" font-size="11.00">fiat_value</text>
<polygon fill="none" stroke="black" points="210,-224 210,-246 308,-246 308,-224 210,-224"/>
<text text-anchor="start" x="213" y="-230.55" font-family="Helvetica,sans-Serif" font-size="11.00">numeric[0]</text>
<polygon fill="none" stroke="black" points="10,-202 10,-224 210,-224 210,-202 10,-202"/>
<text text-anchor="start" x="30" y="-208.55" font-family="Helvetica,sans-Serif" font-size="11.00">circulating_market_cap</text>
<polygon fill="none" stroke="black" points="210,-202 210,-224 308,-224 308,-202 210,-202"/>
<text text-anchor="start" x="213" y="-208.55" font-family="Helvetica,sans-Serif" font-size="11.00">numeric[0]</text>
<polygon fill="none" stroke="black" points="10,-180 10,-202 210,-202 210,-180 10,-180"/>
<text text-anchor="start" x="30" y="-186.55" font-family="Helvetica,sans-Serif" font-size="11.00">total_supply_updated_at_block</text>
<polygon fill="none" stroke="black" points="210,-180 210,-202 308,-202 308,-180 210,-180"/>
<text text-anchor="start" x="213" y="-186.55" font-family="Helvetica,sans-Serif" font-size="11.00">int8[19]</text>
<polygon fill="none" stroke="black" points="10,-158 10,-180 210,-180 210,-158 10,-158"/>
<text text-anchor="start" x="30" y="-164.55" font-family="Helvetica,sans-Serif" font-size="11.00">icon_url</text>
<polygon fill="none" stroke="black" points="210,-158 210,-180 308,-180 308,-158 210,-158"/>
<text text-anchor="start" x="213" y="-164.55" font-family="Helvetica,sans-Serif" font-size="11.00">varchar[255]</text>
<polygon fill="none" stroke="black" points="10,-136 10,-158 210,-158 210,-136 10,-136"/>
<text text-anchor="start" x="30" y="-142.55" font-family="Helvetica,sans-Serif" font-size="11.00">is_verified_via_admin_panel</text>
<polygon fill="none" stroke="black" points="210,-136 210,-158 308,-158 308,-136 210,-136"/>
<text text-anchor="start" x="213" y="-142.55" font-family="Helvetica,sans-Serif" font-size="11.00">bool[1]</text>
<polygon fill="#ffffff" stroke="none" points="10,-118 10,-136 114,-136 114,-118 10,-118"/>
<polygon fill="none" stroke="black" points="10,-118 10,-136 114,-136 114,-118 10,-118"/>
<text text-anchor="start" x="13" y="-122.55" font-family="Helvetica,sans-Serif" font-size="11.00">&lt; 0</text>
<polygon fill="#ffffff" stroke="none" points="114,-118 114,-136 210,-136 210,-118 114,-118"/>
<polygon fill="none" stroke="black" points="114,-118 114,-136 210,-136 210,-118 114,-118"/>
<text text-anchor="start" x="201" y="-122.55" font-family="Helvetica,sans-Serif" font-size="11.00"> &#160;</text>
<polygon fill="#ffffff" stroke="none" points="210,-118 210,-136 308,-136 308,-118 210,-118"/>
<polygon fill="none" stroke="black" points="210,-118 210,-136 308,-136 308,-118 210,-118"/>
<text text-anchor="start" x="289.25" y="-122.55" font-family="Helvetica,sans-Serif" font-size="11.00">1 &gt;</text>
<polygon fill="none" stroke="black" stroke-width="2" points="9,-117 9,-511 309,-511 309,-117 9,-117"/>
</a>
</g>
</g>
<!-- token_instances&#45;&gt;tokens -->
<g id="edge2" class="edge">
<title>token_instances:w&#45;&gt;tokens:e</title>
<path fill="none" stroke="black" d="M342.92,-241.64C317.69,-262.31 355.12,-345 309,-345"/>
<polygon fill="black" stroke="black" points="350.03,-239.45 358.74,-240.54 354.18,-238.18 357.36,-237.2 357.36,-237.2 357.36,-237.2 354.18,-238.18 356.62,-233.66 350.03,-239.45"/>
<ellipse fill="none" stroke="black" cx="345.33" cy="-240.9" rx="3.2" ry="3.2"/>
</g>
</g>
</svg>
