<?xml version="1.0" encoding="UTF-8" standalone="no"?>
<!DOCTYPE svg PUBLIC "-//W3C//DTD SVG 1.1//EN"
 "http://www.w3.org/Graphics/SVG/1.1/DTD/svg11.dtd">
<!-- Generated by graphviz version 2.43.0 (0)
 -->
<!-- Title: oneDegreeRelationshipsDiagram Pages: 1 -->
<svg width="465pt" height="181pt"
 viewBox="0.00 0.00 465.00 181.00" xmlns="http://www.w3.org/2000/svg" xmlns:xlink="http://www.w3.org/1999/xlink">
<g id="graph0" class="graph" transform="scale(1 1) rotate(0) translate(4 177)">
<title>oneDegreeRelationshipsDiagram</title>
<polygon fill="#ffffff" stroke="transparent" points="-4,4 -4,-177 461,-177 461,4 -4,4"/>
<text text-anchor="middle" x="79.5" y="-7.2" font-family="Helvetica,sans-Serif" font-size="11.00">Generated by SchemaSpy</text>
<!-- token_transfer_token_id_migrator_progress -->
<g id="node1" class="node">
<title>token_transfer_token_id_migrator_progress</title>
<g id="a_node1"><a xlink:href="../../tables/token_transfer_token_id_migrato_17e298bf.html" xlink:title="token_transfer_token_id_migrator_progress" target="_top">
<polygon fill="#ffffff" stroke="transparent" points="8,-37 8,-169 449,-169 449,-37 8,-37"/>
<polygon fill="#f5f5f5" stroke="transparent" points="10.5,-145 10.5,-167 447.5,-167 447.5,-145 10.5,-145"/>
<polygon fill="none" stroke="black" points="10.5,-145 10.5,-167 447.5,-167 447.5,-145 10.5,-145"/>
<text text-anchor="start" x="15.5" y="-154.2" font-family="Helvetica,sans-Serif" font-weight="bold" font-size="11.00">token_transfer_token_id_migrator_progress</text>
<text text-anchor="start" x="405.5" y="-153.2" font-family="Helvetica,sans-Serif" font-size="11.00">[table]</text>
<polygon fill="none" stroke="black" points="10.5,-123 10.5,-145 348.5,-145 348.5,-123 10.5,-123"/>
<image xlink:href="../../images/primaryKeys.png" width="11px" height="12px" preserveAspectRatio="xMinYMin meet" x="15.5" y="-140"/>
<text text-anchor="start" x="30.5" y="-131.2" font-family="Helvetica,sans-Serif" font-size="11.00">id</text>
<polygon fill="none" stroke="black" points="348.5,-123 348.5,-145 447.5,-145 447.5,-123 348.5,-123"/>
<text text-anchor="start" x="351.5" y="-131.2" font-family="Helvetica,sans-Serif" font-size="11.00">bigserial[19]</text>
<polygon fill="none" stroke="black" points="10.5,-101 10.5,-123 348.5,-123 348.5,-101 10.5,-101"/>
<text text-anchor="start" x="30.5" y="-109.2" font-family="Helvetica,sans-Serif" font-size="11.00">last_processed_block_number</text>
<polygon fill="none" stroke="black" points="348.5,-101 348.5,-123 447.5,-123 447.5,-101 348.5,-101"/>
<text text-anchor="start" x="351.5" y="-109.2" font-family="Helvetica,sans-Serif" font-size="11.00">int4[10]</text>
<polygon fill="none" stroke="black" points="10.5,-79 10.5,-101 348.5,-101 348.5,-79 10.5,-79"/>
<text text-anchor="start" x="30.5" y="-87.2" font-family="Helvetica,sans-Serif" font-size="11.00">inserted_at</text>
<polygon fill="none" stroke="black" points="348.5,-79 348.5,-101 447.5,-101 447.5,-79 348.5,-79"/>
<text text-anchor="start" x="351.5" y="-87.2" font-family="Helvetica,sans-Serif" font-size="11.00">timestamp[29,6]</text>
<polygon fill="none" stroke="black" points="10.5,-57 10.5,-79 348.5,-79 348.5,-57 10.5,-57"/>
<text text-anchor="start" x="30.5" y="-65.2" font-family="Helvetica,sans-Serif" font-size="11.00">updated_at</text>
<polygon fill="none" stroke="black" points="348.5,-57 348.5,-79 447.5,-79 447.5,-57 348.5,-57"/>
<text text-anchor="start" x="351.5" y="-65.2" font-family="Helvetica,sans-Serif" font-size="11.00">timestamp[29,6]</text>
<polygon fill="#ffffff" stroke="transparent" points="10.5,-39 10.5,-57 447.5,-57 447.5,-39 10.5,-39"/>
<polygon fill="none" stroke="black" points="10.5,-39 10.5,-57 447.5,-57 447.5,-39 10.5,-39"/>
<polygon fill="#ffffff" stroke="transparent" points="11.5,-40 11.5,-56 160.5,-56 160.5,-40 11.5,-40"/>
<text text-anchor="start" x="13.5" y="-45.2" font-family="Helvetica,sans-Serif" font-size="11.00">&lt; 0</text>
<polygon fill="#ffffff" stroke="transparent" points="160.5,-40 160.5,-56 297.5,-56 297.5,-40 160.5,-40"/>
<text text-anchor="start" x="225" y="-45.2" font-family="Helvetica,sans-Serif" font-size="11.00"> &#160;</text>
<polygon fill="#ffffff" stroke="transparent" points="297.5,-40 297.5,-56 446.5,-56 446.5,-40 297.5,-40"/>
<text text-anchor="start" x="424.5" y="-45.2" font-family="Helvetica,sans-Serif" font-size="11.00">0 &gt;</text>
<polygon fill="black" stroke="black" points="160.5,-40 160.5,-56 160.5,-56 160.5,-40 160.5,-40"/>
<polygon fill="black" stroke="black" points="297.5,-40 297.5,-56 297.5,-56 297.5,-40 297.5,-40"/>
<polygon fill="none" stroke="black" stroke-width="2" points="9,-38 9,-168 448,-168 448,-38 9,-38"/>
</a>
</g>
</g>
</g>
</svg>
