<?xml version="1.0" encoding="UTF-8" standalone="no"?>
<!DOCTYPE svg PUBLIC "-//W3C//DTD SVG 1.1//EN"
 "http://www.w3.org/Graphics/SVG/1.1/DTD/svg11.dtd">
<!-- Generated by graphviz version 2.43.0 (0)
 -->
<!-- Title: twoDegreesRelationshipsDiagram Pages: 1 -->
<svg width="843pt" height="875pt"
 viewBox="0.00 0.00 843.00 875.00" xmlns="http://www.w3.org/2000/svg" xmlns:xlink="http://www.w3.org/1999/xlink">
<g id="graph0" class="graph" transform="scale(1 1) rotate(0) translate(4 871)">
<title>twoDegreesRelationshipsDiagram</title>
<polygon fill="#ffffff" stroke="transparent" points="-4,4 -4,-871 839,-871 839,4 -4,4"/>
<text text-anchor="middle" x="79.5" y="-7.2" font-family="Helvetica,sans-Serif" font-size="11.00">Generated by SchemaSpy</text>
<!-- block_rewards -->
<g id="node1" class="node">
<title>block_rewards</title>
<g id="a_node1"><a xlink:href="../../tables/block_rewards.html" xlink:title="block_rewards" target="_top">
<polygon fill="#ffffff" stroke="transparent" points="210.5,-778 210.5,-836 362.5,-836 362.5,-778 210.5,-778"/>
<polygon fill="#f5f5f5" stroke="transparent" points="210.5,-814 210.5,-836 362.5,-836 362.5,-814 210.5,-814"/>
<polygon fill="none" stroke="black" points="210.5,-814 210.5,-836 362.5,-836 362.5,-814 210.5,-814"/>
<text text-anchor="start" x="215.5" y="-823.2" font-family="Helvetica,sans-Serif" font-weight="bold" font-size="11.00">block_rewards</text>
<text text-anchor="start" x="320.5" y="-822.2" font-family="Helvetica,sans-Serif" font-size="11.00">[table]</text>
<polygon fill="none" stroke="black" points="210.5,-796 210.5,-814 362.5,-814 362.5,-796 210.5,-796"/>
<text text-anchor="start" x="213.5" y="-802.2" font-family="Helvetica,sans-Serif" font-size="11.00">...</text>
<polygon fill="#ffffff" stroke="transparent" points="210.5,-778 210.5,-796 362.5,-796 362.5,-778 210.5,-778"/>
<polygon fill="none" stroke="black" points="210.5,-778 210.5,-796 362.5,-796 362.5,-778 210.5,-778"/>
<polygon fill="#ffffff" stroke="transparent" points="211.5,-779 211.5,-795 269.5,-795 269.5,-779 211.5,-779"/>
<text text-anchor="start" x="213.5" y="-784.2" font-family="Helvetica,sans-Serif" font-size="11.00">&lt; 1</text>
<polygon fill="#ffffff" stroke="transparent" points="269.5,-779 269.5,-795 315.5,-795 315.5,-779 269.5,-779"/>
<text text-anchor="start" x="288.5" y="-784.2" font-family="Helvetica,sans-Serif" font-size="11.00"> &#160;</text>
<polygon fill="#ffffff" stroke="transparent" points="315.5,-779 315.5,-795 361.5,-795 361.5,-779 315.5,-779"/>
<text text-anchor="start" x="351.5" y="-784.2" font-family="Helvetica,sans-Serif" font-size="11.00"> &#160;</text>
<polygon fill="black" stroke="black" points="269.5,-779 269.5,-795 269.5,-795 269.5,-779 269.5,-779"/>
<polygon fill="black" stroke="black" points="315.5,-779 315.5,-795 315.5,-795 315.5,-779 315.5,-779"/>
</a>
</g>
</g>
<!-- blocks -->
<g id="node2" class="node">
<title>blocks</title>
<g id="a_node2"><a xlink:href="../../tables/blocks.html" xlink:title="blocks" target="_top">
<polygon fill="#ffffff" stroke="transparent" points="8,-566 8,-624 101,-624 101,-566 8,-566"/>
<polygon fill="#f5f5f5" stroke="transparent" points="8.5,-602 8.5,-624 101.5,-624 101.5,-602 8.5,-602"/>
<polygon fill="none" stroke="black" points="8.5,-602 8.5,-624 101.5,-624 101.5,-602 8.5,-602"/>
<text text-anchor="start" x="13.5" y="-611.2" font-family="Helvetica,sans-Serif" font-weight="bold" font-size="11.00">blocks</text>
<text text-anchor="start" x="59.5" y="-610.2" font-family="Helvetica,sans-Serif" font-size="11.00">[table]</text>
<polygon fill="none" stroke="black" points="8.5,-584 8.5,-602 101.5,-602 101.5,-584 8.5,-584"/>
<text text-anchor="start" x="11.5" y="-590.2" font-family="Helvetica,sans-Serif" font-size="11.00">...</text>
<polygon fill="#ffffff" stroke="transparent" points="8.5,-566 8.5,-584 101.5,-584 101.5,-566 8.5,-566"/>
<polygon fill="none" stroke="black" points="8.5,-566 8.5,-584 101.5,-584 101.5,-566 8.5,-566"/>
<polygon fill="#ffffff" stroke="transparent" points="9.5,-567 9.5,-583 36.5,-583 36.5,-567 9.5,-567"/>
<text text-anchor="start" x="11.5" y="-572.2" font-family="Helvetica,sans-Serif" font-size="11.00"> &#160;</text>
<polygon fill="#ffffff" stroke="transparent" points="36.5,-567 36.5,-583 62.5,-583 62.5,-567 36.5,-567"/>
<text text-anchor="start" x="45.5" y="-572.2" font-family="Helvetica,sans-Serif" font-size="11.00"> &#160;</text>
<polygon fill="#ffffff" stroke="transparent" points="62.5,-567 62.5,-583 100.5,-583 100.5,-567 62.5,-567"/>
<text text-anchor="start" x="78.5" y="-572.2" font-family="Helvetica,sans-Serif" font-size="11.00">9 &gt;</text>
<polygon fill="black" stroke="black" points="36.5,-567 36.5,-583 36.5,-583 36.5,-567 36.5,-567"/>
<polygon fill="black" stroke="black" points="62.5,-567 62.5,-583 62.5,-583 62.5,-567 62.5,-567"/>
</a>
</g>
</g>
<!-- block_rewards&#45;&gt;blocks -->
<g id="edge1" class="edge">
<title>block_rewards:w&#45;&gt;blocks:e</title>
<path fill="none" stroke="black" d="M194.72,-803.83C117.95,-791.43 78.74,-684.02 63.41,-628.28"/>
<polygon fill="black" stroke="black" points="201.53,-804.37 209.21,-808.59 205.51,-804.68 209.5,-805 209.5,-805 209.5,-805 205.51,-804.68 209.79,-801.41 201.53,-804.37 201.53,-804.37"/>
<ellipse fill="none" stroke="black" cx="198.34" cy="-804.11" rx="3.2" ry="3.2"/>
</g>
<!-- block_second_degree_relations -->
<g id="node3" class="node">
<title>block_second_degree_relations</title>
<g id="a_node3"><a xlink:href="../../tables/block_second_degree_relations.html" xlink:title="block_second_degree_relations" target="_top">
<polygon fill="#ffffff" stroke="transparent" points="150,-699 150,-757 423,-757 423,-699 150,-699"/>
<polygon fill="#f5f5f5" stroke="transparent" points="150.5,-735 150.5,-757 423.5,-757 423.5,-735 150.5,-735"/>
<polygon fill="none" stroke="black" points="150.5,-735 150.5,-757 423.5,-757 423.5,-735 150.5,-735"/>
<text text-anchor="start" x="155.5" y="-744.2" font-family="Helvetica,sans-Serif" font-weight="bold" font-size="11.00">block_second_degree_relations</text>
<text text-anchor="start" x="381.5" y="-743.2" font-family="Helvetica,sans-Serif" font-size="11.00">[table]</text>
<polygon fill="none" stroke="black" points="150.5,-717 150.5,-735 423.5,-735 423.5,-717 150.5,-717"/>
<text text-anchor="start" x="153.5" y="-723.2" font-family="Helvetica,sans-Serif" font-size="11.00">...</text>
<polygon fill="#ffffff" stroke="transparent" points="150.5,-699 150.5,-717 423.5,-717 423.5,-699 150.5,-699"/>
<polygon fill="none" stroke="black" points="150.5,-699 150.5,-717 423.5,-717 423.5,-699 150.5,-699"/>
<polygon fill="#ffffff" stroke="transparent" points="151.5,-700 151.5,-716 250.5,-716 250.5,-700 151.5,-700"/>
<text text-anchor="start" x="153.5" y="-705.2" font-family="Helvetica,sans-Serif" font-size="11.00">&lt; 1</text>
<polygon fill="#ffffff" stroke="transparent" points="250.5,-700 250.5,-716 336.5,-716 336.5,-700 250.5,-700"/>
<text text-anchor="start" x="289.5" y="-705.2" font-family="Helvetica,sans-Serif" font-size="11.00"> &#160;</text>
<polygon fill="#ffffff" stroke="transparent" points="336.5,-700 336.5,-716 422.5,-716 422.5,-700 336.5,-700"/>
<text text-anchor="start" x="412.5" y="-705.2" font-family="Helvetica,sans-Serif" font-size="11.00"> &#160;</text>
<polygon fill="black" stroke="black" points="250.5,-700 250.5,-716 250.5,-716 250.5,-700 250.5,-700"/>
<polygon fill="black" stroke="black" points="336.5,-700 336.5,-716 336.5,-716 336.5,-700 336.5,-700"/>
</a>
</g>
</g>
<!-- block_second_degree_relations&#45;&gt;blocks -->
<g id="edge2" class="edge">
<title>block_second_degree_relations:w&#45;&gt;blocks:e</title>
<path fill="none" stroke="black" d="M135,-724.12C96.05,-713.75 74.23,-662.77 63.67,-628.06"/>
<polygon fill="black" stroke="black" points="141.57,-724.97 149.04,-729.57 145.53,-725.49 149.5,-726 149.5,-726 149.5,-726 145.53,-725.49 149.96,-722.43 141.57,-724.97 141.57,-724.97"/>
<ellipse fill="none" stroke="black" cx="138.39" cy="-724.56" rx="3.2" ry="3.2"/>
</g>
<!-- internal_transactions -->
<g id="node4" class="node">
<title>internal_transactions</title>
<g id="a_node4"><a xlink:href="../../tables/internal_transactions.html" xlink:title="internal_transactions" target="_top">
<polygon fill="#ffffff" stroke="transparent" points="548.5,-805 548.5,-863 750.5,-863 750.5,-805 548.5,-805"/>
<polygon fill="#f5f5f5" stroke="transparent" points="548.5,-841 548.5,-863 750.5,-863 750.5,-841 548.5,-841"/>
<polygon fill="none" stroke="black" points="548.5,-841 548.5,-863 750.5,-863 750.5,-841 548.5,-841"/>
<text text-anchor="start" x="553.5" y="-850.2" font-family="Helvetica,sans-Serif" font-weight="bold" font-size="11.00">internal_transactions</text>
<text text-anchor="start" x="708.5" y="-849.2" font-family="Helvetica,sans-Serif" font-size="11.00">[table]</text>
<polygon fill="none" stroke="black" points="548.5,-823 548.5,-841 750.5,-841 750.5,-823 548.5,-823"/>
<text text-anchor="start" x="551.5" y="-829.2" font-family="Helvetica,sans-Serif" font-size="11.00">...</text>
<polygon fill="#ffffff" stroke="transparent" points="548.5,-805 548.5,-823 750.5,-823 750.5,-805 548.5,-805"/>
<polygon fill="none" stroke="black" points="548.5,-805 548.5,-823 750.5,-823 750.5,-805 548.5,-805"/>
<polygon fill="#ffffff" stroke="transparent" points="549.5,-806 549.5,-822 624.5,-822 624.5,-806 549.5,-806"/>
<text text-anchor="start" x="551.5" y="-811.2" font-family="Helvetica,sans-Serif" font-size="11.00">&lt; 2</text>
<polygon fill="#ffffff" stroke="transparent" points="624.5,-806 624.5,-822 687.5,-822 687.5,-806 624.5,-806"/>
<text text-anchor="start" x="652" y="-811.2" font-family="Helvetica,sans-Serif" font-size="11.00"> &#160;</text>
<polygon fill="#ffffff" stroke="transparent" points="687.5,-806 687.5,-822 749.5,-822 749.5,-806 687.5,-806"/>
<text text-anchor="start" x="739.5" y="-811.2" font-family="Helvetica,sans-Serif" font-size="11.00"> &#160;</text>
<polygon fill="black" stroke="black" points="624.5,-806 624.5,-822 624.5,-822 624.5,-806 624.5,-806"/>
<polygon fill="black" stroke="black" points="687.5,-806 687.5,-822 687.5,-822 687.5,-806 687.5,-806"/>
</a>
</g>
</g>
<!-- internal_transactions&#45;&gt;blocks -->
<g id="edge3" class="edge">
<title>internal_transactions:w&#45;&gt;blocks:e</title>
<path fill="none" stroke="black" d="M532.96,-831.63C502.62,-829.88 487.52,-821.4 464,-795 431.18,-758.16 469.23,-720.2 431,-689 380.99,-648.19 202.12,-683.47 142,-660 123.45,-652.76 105.43,-640.37 90.69,-628.34"/>
<polygon fill="black" stroke="black" points="539.5,-831.8 547.41,-835.6 543.5,-831.9 547.5,-832 547.5,-832 547.5,-832 543.5,-831.9 547.59,-828.4 539.5,-831.8 539.5,-831.8"/>
<ellipse fill="none" stroke="black" cx="536.3" cy="-831.72" rx="3.2" ry="3.2"/>
</g>
<!-- transactions -->
<g id="node5" class="node">
<title>transactions</title>
<g id="a_node5"><a xlink:href="../../tables/transactions.html" xlink:title="transactions" target="_top">
<polygon fill="#ffffff" stroke="transparent" points="217.5,-566 217.5,-624 355.5,-624 355.5,-566 217.5,-566"/>
<polygon fill="#f5f5f5" stroke="transparent" points="217.5,-602 217.5,-624 355.5,-624 355.5,-602 217.5,-602"/>
<polygon fill="none" stroke="black" points="217.5,-602 217.5,-624 355.5,-624 355.5,-602 217.5,-602"/>
<text text-anchor="start" x="222.5" y="-611.2" font-family="Helvetica,sans-Serif" font-weight="bold" font-size="11.00">transactions</text>
<text text-anchor="start" x="313.5" y="-610.2" font-family="Helvetica,sans-Serif" font-size="11.00">[table]</text>
<polygon fill="none" stroke="black" points="217.5,-584 217.5,-602 355.5,-602 355.5,-584 217.5,-584"/>
<text text-anchor="start" x="220.5" y="-590.2" font-family="Helvetica,sans-Serif" font-size="11.00">...</text>
<polygon fill="#ffffff" stroke="transparent" points="217.5,-566 217.5,-584 355.5,-584 355.5,-566 217.5,-566"/>
<polygon fill="none" stroke="black" points="217.5,-566 217.5,-584 355.5,-584 355.5,-566 217.5,-566"/>
<polygon fill="#ffffff" stroke="transparent" points="218.5,-567 218.5,-583 268.5,-583 268.5,-567 218.5,-567"/>
<text text-anchor="start" x="220.5" y="-572.2" font-family="Helvetica,sans-Serif" font-size="11.00">&lt; 1</text>
<polygon fill="#ffffff" stroke="transparent" points="268.5,-567 268.5,-583 305.5,-583 305.5,-567 268.5,-567"/>
<text text-anchor="start" x="283" y="-572.2" font-family="Helvetica,sans-Serif" font-size="11.00"> &#160;</text>
<polygon fill="#ffffff" stroke="transparent" points="305.5,-567 305.5,-583 354.5,-583 354.5,-567 305.5,-567"/>
<text text-anchor="start" x="332.5" y="-572.2" font-family="Helvetica,sans-Serif" font-size="11.00">7 &gt;</text>
<polygon fill="black" stroke="black" points="268.5,-567 268.5,-583 268.5,-583 268.5,-567 268.5,-567"/>
<polygon fill="black" stroke="black" points="305.5,-567 305.5,-583 305.5,-583 305.5,-567 305.5,-567"/>
</a>
</g>
</g>
<!-- internal_transactions&#45;&gt;transactions -->
<g id="edge4" class="edge">
<title>internal_transactions:w&#45;&gt;transactions:e</title>
<path fill="none" stroke="black" d="M532.92,-831.66C502.44,-830.04 486.81,-822.02 464,-795 425.55,-749.45 468.61,-711.25 431,-665 413.69,-643.71 388.3,-628.42 363.68,-617.67"/>
<polygon fill="black" stroke="black" points="539.5,-831.81 547.42,-835.6 543.5,-831.91 547.5,-832 547.5,-832 547.5,-832 543.5,-831.91 547.58,-828.4 539.5,-831.81 539.5,-831.81"/>
<ellipse fill="none" stroke="black" cx="536.3" cy="-831.74" rx="3.2" ry="3.2"/>
</g>
<!-- transactions&#45;&gt;blocks -->
<g id="edge15" class="edge">
<title>transactions:w&#45;&gt;blocks:e</title>
<path fill="none" stroke="black" d="M194.74,-595C165.71,-595 134.52,-595 109.03,-595"/>
<polygon fill="black" stroke="black" points="201.23,-595 209.23,-598.6 205.23,-595 209.23,-595 209.23,-595 209.23,-595 205.23,-595 209.23,-591.4 201.23,-595 201.23,-595"/>
<ellipse fill="none" stroke="black" cx="198.03" cy="-595" rx="3.2" ry="3.2"/>
</g>
<!-- logs -->
<g id="node6" class="node">
<title>logs</title>
<g id="a_node6"><a xlink:href="../../tables/logs.html" xlink:title="logs" target="_top">
<polygon fill="#ffffff" stroke="transparent" points="611,-726 611,-784 688,-784 688,-726 611,-726"/>
<polygon fill="#f5f5f5" stroke="transparent" points="611.5,-762 611.5,-784 688.5,-784 688.5,-762 611.5,-762"/>
<polygon fill="none" stroke="black" points="611.5,-762 611.5,-784 688.5,-784 688.5,-762 611.5,-762"/>
<text text-anchor="start" x="616.5" y="-771.2" font-family="Helvetica,sans-Serif" font-weight="bold" font-size="11.00">logs</text>
<text text-anchor="start" x="646.5" y="-770.2" font-family="Helvetica,sans-Serif" font-size="11.00">[table]</text>
<polygon fill="none" stroke="black" points="611.5,-744 611.5,-762 688.5,-762 688.5,-744 611.5,-744"/>
<text text-anchor="start" x="614.5" y="-750.2" font-family="Helvetica,sans-Serif" font-size="11.00">...</text>
<polygon fill="#ffffff" stroke="transparent" points="611.5,-726 611.5,-744 688.5,-744 688.5,-726 611.5,-726"/>
<polygon fill="none" stroke="black" points="611.5,-726 611.5,-744 688.5,-744 688.5,-726 611.5,-726"/>
<polygon fill="#ffffff" stroke="transparent" points="612.5,-727 612.5,-743 645.5,-743 645.5,-727 612.5,-727"/>
<text text-anchor="start" x="614.5" y="-732.2" font-family="Helvetica,sans-Serif" font-size="11.00">&lt; 2</text>
<polygon fill="#ffffff" stroke="transparent" points="645.5,-727 645.5,-743 666.5,-743 666.5,-727 645.5,-727"/>
<text text-anchor="start" x="652" y="-732.2" font-family="Helvetica,sans-Serif" font-size="11.00"> &#160;</text>
<polygon fill="#ffffff" stroke="transparent" points="666.5,-727 666.5,-743 687.5,-743 687.5,-727 666.5,-727"/>
<text text-anchor="start" x="677.5" y="-732.2" font-family="Helvetica,sans-Serif" font-size="11.00"> &#160;</text>
<polygon fill="black" stroke="black" points="645.5,-727 645.5,-743 645.5,-743 645.5,-727 645.5,-727"/>
<polygon fill="black" stroke="black" points="666.5,-727 666.5,-743 666.5,-743 666.5,-727 666.5,-727"/>
</a>
</g>
</g>
<!-- logs&#45;&gt;blocks -->
<g id="edge5" class="edge">
<title>logs:w&#45;&gt;blocks:e</title>
<path fill="none" stroke="black" d="M595.86,-753.02C539.4,-753.08 514.42,-752.15 464,-716 442.06,-700.27 454.02,-679.11 431,-665 375.95,-631.25 204.26,-652.12 142,-635 131.15,-632.02 119.96,-627.8 109.38,-623.21"/>
<polygon fill="black" stroke="black" points="602.5,-753.01 610.5,-756.6 606.5,-753 610.5,-753 610.5,-753 610.5,-753 606.5,-753 610.5,-749.4 602.5,-753.01 602.5,-753.01"/>
<ellipse fill="none" stroke="black" cx="599.3" cy="-753.01" rx="3.2" ry="3.2"/>
</g>
<!-- logs&#45;&gt;transactions -->
<g id="edge6" class="edge">
<title>logs:w&#45;&gt;transactions:e</title>
<path fill="none" stroke="black" d="M595.8,-753.09C538.89,-753.73 511.09,-756.39 464,-716 435.43,-691.49 459.03,-663.13 431,-638 412.41,-621.33 387.58,-611.12 363.81,-604.86"/>
<polygon fill="black" stroke="black" points="602.5,-753.05 610.52,-756.6 606.5,-753.02 610.5,-753 610.5,-753 610.5,-753 606.5,-753.02 610.48,-749.4 602.5,-753.05 602.5,-753.05"/>
<ellipse fill="none" stroke="black" cx="599.3" cy="-753.07" rx="3.2" ry="3.2"/>
</g>
<!-- pending_block_operations -->
<g id="node7" class="node">
<title>pending_block_operations</title>
<g id="a_node7"><a xlink:href="../../tables/pending_block_operations.html" xlink:title="pending_block_operations" target="_top">
<polygon fill="#ffffff" stroke="transparent" points="168,-487 168,-545 405,-545 405,-487 168,-487"/>
<polygon fill="#f5f5f5" stroke="transparent" points="168.5,-523 168.5,-545 405.5,-545 405.5,-523 168.5,-523"/>
<polygon fill="none" stroke="black" points="168.5,-523 168.5,-545 405.5,-545 405.5,-523 168.5,-523"/>
<text text-anchor="start" x="173.5" y="-532.2" font-family="Helvetica,sans-Serif" font-weight="bold" font-size="11.00">pending_block_operations</text>
<text text-anchor="start" x="363.5" y="-531.2" font-family="Helvetica,sans-Serif" font-size="11.00">[table]</text>
<polygon fill="none" stroke="black" points="168.5,-505 168.5,-523 405.5,-523 405.5,-505 168.5,-505"/>
<text text-anchor="start" x="171.5" y="-511.2" font-family="Helvetica,sans-Serif" font-size="11.00">...</text>
<polygon fill="#ffffff" stroke="transparent" points="168.5,-487 168.5,-505 405.5,-505 405.5,-487 168.5,-487"/>
<polygon fill="none" stroke="black" points="168.5,-487 168.5,-505 405.5,-505 405.5,-487 168.5,-487"/>
<polygon fill="#ffffff" stroke="transparent" points="169.5,-488 169.5,-504 256.5,-504 256.5,-488 169.5,-488"/>
<text text-anchor="start" x="171.5" y="-493.2" font-family="Helvetica,sans-Serif" font-size="11.00">&lt; 1</text>
<polygon fill="#ffffff" stroke="transparent" points="256.5,-488 256.5,-504 330.5,-504 330.5,-488 256.5,-488"/>
<text text-anchor="start" x="289.5" y="-493.2" font-family="Helvetica,sans-Serif" font-size="11.00"> &#160;</text>
<polygon fill="#ffffff" stroke="transparent" points="330.5,-488 330.5,-504 404.5,-504 404.5,-488 330.5,-488"/>
<text text-anchor="start" x="394.5" y="-493.2" font-family="Helvetica,sans-Serif" font-size="11.00"> &#160;</text>
<polygon fill="black" stroke="black" points="256.5,-488 256.5,-504 256.5,-504 256.5,-488 256.5,-488"/>
<polygon fill="black" stroke="black" points="330.5,-488 330.5,-504 330.5,-504 330.5,-488 330.5,-488"/>
</a>
</g>
</g>
<!-- pending_block_operations&#45;&gt;blocks -->
<g id="edge7" class="edge">
<title>pending_block_operations:w&#45;&gt;blocks:e</title>
<path fill="none" stroke="black" d="M156.76,-514.81C126.78,-519.3 100.08,-541.63 81.64,-561.59"/>
<polygon fill="black" stroke="black" points="166.4,-510.07 167,-518.05 165.41,-518.17 164.81,-510.19 166.4,-510.07"/>
<polyline fill="none" stroke="black" points="167.5,-514 163.51,-514.3 "/>
<ellipse fill="none" stroke="black" cx="160.32" cy="-514.54" rx="3.2" ry="3.2"/>
</g>
<!-- pending_transaction_operations -->
<g id="node8" class="node">
<title>pending_transaction_operations</title>
<g id="a_node8"><a xlink:href="../../tables/pending_transaction_operations.html" xlink:title="pending_transaction_operations" target="_top">
<polygon fill="#ffffff" stroke="transparent" points="508.5,-647 508.5,-705 790.5,-705 790.5,-647 508.5,-647"/>
<polygon fill="#f5f5f5" stroke="transparent" points="508.5,-683 508.5,-705 790.5,-705 790.5,-683 508.5,-683"/>
<polygon fill="none" stroke="black" points="508.5,-683 508.5,-705 790.5,-705 790.5,-683 508.5,-683"/>
<text text-anchor="start" x="513.5" y="-692.2" font-family="Helvetica,sans-Serif" font-weight="bold" font-size="11.00">pending_transaction_operations</text>
<text text-anchor="start" x="748.5" y="-691.2" font-family="Helvetica,sans-Serif" font-size="11.00">[table]</text>
<polygon fill="none" stroke="black" points="508.5,-665 508.5,-683 790.5,-683 790.5,-665 508.5,-665"/>
<text text-anchor="start" x="511.5" y="-671.2" font-family="Helvetica,sans-Serif" font-size="11.00">...</text>
<polygon fill="#ffffff" stroke="transparent" points="508.5,-647 508.5,-665 790.5,-665 790.5,-647 508.5,-647"/>
<polygon fill="none" stroke="black" points="508.5,-647 508.5,-665 790.5,-665 790.5,-647 508.5,-647"/>
<polygon fill="#ffffff" stroke="transparent" points="509.5,-648 509.5,-664 611.5,-664 611.5,-648 509.5,-648"/>
<text text-anchor="start" x="511.5" y="-653.2" font-family="Helvetica,sans-Serif" font-size="11.00">&lt; 1</text>
<polygon fill="#ffffff" stroke="transparent" points="611.5,-648 611.5,-664 700.5,-664 700.5,-648 611.5,-648"/>
<text text-anchor="start" x="652" y="-653.2" font-family="Helvetica,sans-Serif" font-size="11.00"> &#160;</text>
<polygon fill="#ffffff" stroke="transparent" points="700.5,-648 700.5,-664 789.5,-664 789.5,-648 700.5,-648"/>
<text text-anchor="start" x="779.5" y="-653.2" font-family="Helvetica,sans-Serif" font-size="11.00"> &#160;</text>
<polygon fill="black" stroke="black" points="611.5,-648 611.5,-664 611.5,-664 611.5,-648 611.5,-648"/>
<polygon fill="black" stroke="black" points="700.5,-648 700.5,-664 700.5,-664 700.5,-648 700.5,-648"/>
</a>
</g>
</g>
<!-- pending_transaction_operations&#45;&gt;transactions -->
<g id="edge8" class="edge">
<title>pending_transaction_operations:w&#45;&gt;transactions:e</title>
<path fill="none" stroke="black" d="M497.03,-673.33C468.82,-669.51 462.53,-650.07 431,-638 409.5,-629.77 385.72,-622.1 363.8,-615.57"/>
<polygon fill="black" stroke="black" points="506.96,-669.96 506.45,-677.94 504.85,-677.84 505.36,-669.86 506.96,-669.96"/>
<polyline fill="none" stroke="black" points="507.5,-674 503.51,-673.75 "/>
<ellipse fill="none" stroke="black" cx="500.31" cy="-673.54" rx="3.2" ry="3.2"/>
</g>
<!-- signed_authorizations -->
<g id="node9" class="node">
<title>signed_authorizations</title>
<g id="a_node9"><a xlink:href="../../tables/signed_authorizations.html" xlink:title="signed_authorizations" target="_top">
<polygon fill="#ffffff" stroke="transparent" points="545.5,-568 545.5,-626 753.5,-626 753.5,-568 545.5,-568"/>
<polygon fill="#f5f5f5" stroke="transparent" points="545.5,-604 545.5,-626 753.5,-626 753.5,-604 545.5,-604"/>
<polygon fill="none" stroke="black" points="545.5,-604 545.5,-626 753.5,-626 753.5,-604 545.5,-604"/>
<text text-anchor="start" x="550.5" y="-613.2" font-family="Helvetica,sans-Serif" font-weight="bold" font-size="11.00">signed_authorizations</text>
<text text-anchor="start" x="711.5" y="-612.2" font-family="Helvetica,sans-Serif" font-size="11.00">[table]</text>
<polygon fill="none" stroke="black" points="545.5,-586 545.5,-604 753.5,-604 753.5,-586 545.5,-586"/>
<text text-anchor="start" x="548.5" y="-592.2" font-family="Helvetica,sans-Serif" font-size="11.00">...</text>
<polygon fill="#ffffff" stroke="transparent" points="545.5,-568 545.5,-586 753.5,-586 753.5,-568 545.5,-568"/>
<polygon fill="none" stroke="black" points="545.5,-568 545.5,-586 753.5,-586 753.5,-568 545.5,-568"/>
<polygon fill="#ffffff" stroke="transparent" points="546.5,-569 546.5,-585 623.5,-585 623.5,-569 546.5,-569"/>
<text text-anchor="start" x="548.5" y="-574.2" font-family="Helvetica,sans-Serif" font-size="11.00">&lt; 1</text>
<polygon fill="#ffffff" stroke="transparent" points="623.5,-569 623.5,-585 688.5,-585 688.5,-569 623.5,-569"/>
<text text-anchor="start" x="652" y="-574.2" font-family="Helvetica,sans-Serif" font-size="11.00"> &#160;</text>
<polygon fill="#ffffff" stroke="transparent" points="688.5,-569 688.5,-585 752.5,-585 752.5,-569 688.5,-569"/>
<text text-anchor="start" x="742.5" y="-574.2" font-family="Helvetica,sans-Serif" font-size="11.00"> &#160;</text>
<polygon fill="black" stroke="black" points="623.5,-569 623.5,-585 623.5,-585 623.5,-569 623.5,-569"/>
<polygon fill="black" stroke="black" points="688.5,-569 688.5,-585 688.5,-585 688.5,-569 688.5,-569"/>
</a>
</g>
</g>
<!-- signed_authorizations&#45;&gt;transactions -->
<g id="edge9" class="edge">
<title>signed_authorizations:w&#45;&gt;transactions:e</title>
<path fill="none" stroke="black" d="M529.75,-595C472.79,-595 410.73,-595 363.69,-595"/>
<polygon fill="black" stroke="black" points="536.5,-595 544.5,-598.6 540.5,-595 544.5,-595 544.5,-595 544.5,-595 540.5,-595 544.5,-591.4 536.5,-595 536.5,-595"/>
<ellipse fill="none" stroke="black" cx="533.3" cy="-595" rx="3.2" ry="3.2"/>
</g>
<!-- token_transfers -->
<g id="node10" class="node">
<title>token_transfers</title>
<g id="a_node10"><a xlink:href="../../tables/token_transfers.html" xlink:title="token_transfers" target="_top">
<polygon fill="#ffffff" stroke="transparent" points="472,-116 472,-468 827,-468 827,-116 472,-116"/>
<polygon fill="#f5f5f5" stroke="transparent" points="474.5,-444 474.5,-466 825.5,-466 825.5,-444 474.5,-444"/>
<polygon fill="none" stroke="black" points="474.5,-444 474.5,-466 825.5,-466 825.5,-444 474.5,-444"/>
<text text-anchor="start" x="479.5" y="-453.2" font-family="Helvetica,sans-Serif" font-weight="bold" font-size="11.00">token_transfers</text>
<text text-anchor="start" x="783.5" y="-452.2" font-family="Helvetica,sans-Serif" font-size="11.00">[table]</text>
<polygon fill="none" stroke="black" points="474.5,-422 474.5,-444 710.5,-444 710.5,-422 474.5,-422"/>
<image xlink:href="../../images/primaryKeys.png" width="11px" height="12px" preserveAspectRatio="xMinYMin meet" x="479.5" y="-439"/>
<text text-anchor="start" x="494.5" y="-430.2" font-family="Helvetica,sans-Serif" font-size="11.00">transaction_hash</text>
<polygon fill="none" stroke="black" points="710.5,-422 710.5,-444 825.5,-444 825.5,-422 710.5,-422"/>
<text text-anchor="start" x="713.5" y="-430.2" font-family="Helvetica,sans-Serif" font-size="11.00">bytea[2147483647]</text>
<polygon fill="none" stroke="black" points="474.5,-400 474.5,-422 710.5,-422 710.5,-400 474.5,-400"/>
<image xlink:href="../../images/primaryKeys.png" width="11px" height="12px" preserveAspectRatio="xMinYMin meet" x="479.5" y="-417"/>
<text text-anchor="start" x="494.5" y="-408.2" font-family="Helvetica,sans-Serif" font-size="11.00">log_index</text>
<polygon fill="none" stroke="black" points="710.5,-400 710.5,-422 825.5,-422 825.5,-400 710.5,-400"/>
<text text-anchor="start" x="713.5" y="-408.2" font-family="Helvetica,sans-Serif" font-size="11.00">int4[10]</text>
<polygon fill="#ffffff" stroke="transparent" points="474.5,-378 474.5,-400 710.5,-400 710.5,-378 474.5,-378"/>
<polygon fill="none" stroke="black" points="474.5,-378 474.5,-400 710.5,-400 710.5,-378 474.5,-378"/>
<text text-anchor="start" x="494.5" y="-386.2" font-family="Helvetica,sans-Serif" font-size="11.00">from_address_hash</text>
<polygon fill="none" stroke="black" points="710.5,-378 710.5,-400 825.5,-400 825.5,-378 710.5,-378"/>
<text text-anchor="start" x="713.5" y="-386.2" font-family="Helvetica,sans-Serif" font-size="11.00">bytea[2147483647]</text>
<polygon fill="#ffffff" stroke="transparent" points="474.5,-356 474.5,-378 710.5,-378 710.5,-356 474.5,-356"/>
<polygon fill="none" stroke="black" points="474.5,-356 474.5,-378 710.5,-378 710.5,-356 474.5,-356"/>
<text text-anchor="start" x="494.5" y="-364.2" font-family="Helvetica,sans-Serif" font-size="11.00">to_address_hash</text>
<polygon fill="none" stroke="black" points="710.5,-356 710.5,-378 825.5,-378 825.5,-356 710.5,-356"/>
<text text-anchor="start" x="713.5" y="-364.2" font-family="Helvetica,sans-Serif" font-size="11.00">bytea[2147483647]</text>
<polygon fill="none" stroke="black" points="474.5,-334 474.5,-356 710.5,-356 710.5,-334 474.5,-334"/>
<text text-anchor="start" x="494.5" y="-342.2" font-family="Helvetica,sans-Serif" font-size="11.00">amount</text>
<polygon fill="none" stroke="black" points="710.5,-334 710.5,-356 825.5,-356 825.5,-334 710.5,-334"/>
<text text-anchor="start" x="713.5" y="-342.2" font-family="Helvetica,sans-Serif" font-size="11.00">numeric[0]</text>
<polygon fill="#ffffff" stroke="transparent" points="474.5,-312 474.5,-334 710.5,-334 710.5,-312 474.5,-312"/>
<polygon fill="none" stroke="black" points="474.5,-312 474.5,-334 710.5,-334 710.5,-312 474.5,-312"/>
<text text-anchor="start" x="494.5" y="-320.2" font-family="Helvetica,sans-Serif" font-size="11.00">token_contract_address_hash</text>
<polygon fill="none" stroke="black" points="710.5,-312 710.5,-334 825.5,-334 825.5,-312 710.5,-312"/>
<text text-anchor="start" x="713.5" y="-320.2" font-family="Helvetica,sans-Serif" font-size="11.00">bytea[2147483647]</text>
<polygon fill="none" stroke="black" points="474.5,-290 474.5,-312 710.5,-312 710.5,-290 474.5,-290"/>
<text text-anchor="start" x="494.5" y="-298.2" font-family="Helvetica,sans-Serif" font-size="11.00">inserted_at</text>
<polygon fill="none" stroke="black" points="710.5,-290 710.5,-312 825.5,-312 825.5,-290 710.5,-290"/>
<text text-anchor="start" x="713.5" y="-298.2" font-family="Helvetica,sans-Serif" font-size="11.00">timestamp[29,6]</text>
<polygon fill="none" stroke="black" points="474.5,-268 474.5,-290 710.5,-290 710.5,-268 474.5,-268"/>
<text text-anchor="start" x="494.5" y="-276.2" font-family="Helvetica,sans-Serif" font-size="11.00">updated_at</text>
<polygon fill="none" stroke="black" points="710.5,-268 710.5,-290 825.5,-290 825.5,-268 710.5,-268"/>
<text text-anchor="start" x="713.5" y="-276.2" font-family="Helvetica,sans-Serif" font-size="11.00">timestamp[29,6]</text>
<polygon fill="#ffffff" stroke="transparent" points="474.5,-246 474.5,-268 710.5,-268 710.5,-246 474.5,-246"/>
<polygon fill="none" stroke="black" points="474.5,-246 474.5,-268 710.5,-268 710.5,-246 474.5,-246"/>
<text text-anchor="start" x="494.5" y="-254.2" font-family="Helvetica,sans-Serif" font-size="11.00">block_number</text>
<polygon fill="none" stroke="black" points="710.5,-246 710.5,-268 825.5,-268 825.5,-246 710.5,-246"/>
<text text-anchor="start" x="713.5" y="-254.2" font-family="Helvetica,sans-Serif" font-size="11.00">int4[10]</text>
<polygon fill="none" stroke="black" points="474.5,-224 474.5,-246 710.5,-246 710.5,-224 474.5,-224"/>
<image xlink:href="../../images/primaryKeys.png" width="11px" height="12px" preserveAspectRatio="xMinYMin meet" x="479.5" y="-241"/>
<text text-anchor="start" x="494.5" y="-232.2" font-family="Helvetica,sans-Serif" font-size="11.00">block_hash</text>
<polygon fill="none" stroke="black" points="710.5,-224 710.5,-246 825.5,-246 825.5,-224 710.5,-224"/>
<text text-anchor="start" x="713.5" y="-232.2" font-family="Helvetica,sans-Serif" font-size="11.00">bytea[2147483647]</text>
<polygon fill="none" stroke="black" points="474.5,-202 474.5,-224 710.5,-224 710.5,-202 474.5,-202"/>
<text text-anchor="start" x="494.5" y="-210.2" font-family="Helvetica,sans-Serif" font-size="11.00">amounts</text>
<polygon fill="none" stroke="black" points="710.5,-202 710.5,-224 825.5,-224 825.5,-202 710.5,-202"/>
<text text-anchor="start" x="713.5" y="-210.2" font-family="Helvetica,sans-Serif" font-size="11.00">_numeric[131089]</text>
<polygon fill="#ffffff" stroke="transparent" points="474.5,-180 474.5,-202 710.5,-202 710.5,-180 474.5,-180"/>
<polygon fill="none" stroke="black" points="474.5,-180 474.5,-202 710.5,-202 710.5,-180 474.5,-180"/>
<text text-anchor="start" x="494.5" y="-188.2" font-family="Helvetica,sans-Serif" font-size="11.00">token_ids</text>
<polygon fill="none" stroke="black" points="710.5,-180 710.5,-202 825.5,-202 825.5,-180 710.5,-180"/>
<text text-anchor="start" x="713.5" y="-188.2" font-family="Helvetica,sans-Serif" font-size="11.00">_numeric[78]</text>
<polygon fill="#ffffff" stroke="transparent" points="474.5,-158 474.5,-180 710.5,-180 710.5,-158 474.5,-158"/>
<polygon fill="none" stroke="black" points="474.5,-158 474.5,-180 710.5,-180 710.5,-158 474.5,-158"/>
<text text-anchor="start" x="494.5" y="-166.2" font-family="Helvetica,sans-Serif" font-size="11.00">token_type</text>
<polygon fill="none" stroke="black" points="710.5,-158 710.5,-180 825.5,-180 825.5,-158 710.5,-158"/>
<text text-anchor="start" x="713.5" y="-166.2" font-family="Helvetica,sans-Serif" font-size="11.00">varchar[255]</text>
<polygon fill="#ffffff" stroke="transparent" points="474.5,-136 474.5,-158 710.5,-158 710.5,-136 474.5,-136"/>
<polygon fill="none" stroke="black" points="474.5,-136 474.5,-158 710.5,-158 710.5,-136 474.5,-136"/>
<text text-anchor="start" x="494.5" y="-144.2" font-family="Helvetica,sans-Serif" font-size="11.00">block_consensus</text>
<polygon fill="none" stroke="black" points="710.5,-136 710.5,-158 825.5,-158 825.5,-136 710.5,-136"/>
<text text-anchor="start" x="713.5" y="-144.2" font-family="Helvetica,sans-Serif" font-size="11.00">bool[1]</text>
<polygon fill="#ffffff" stroke="transparent" points="474.5,-118 474.5,-136 825.5,-136 825.5,-118 474.5,-118"/>
<polygon fill="none" stroke="black" points="474.5,-118 474.5,-136 825.5,-136 825.5,-118 474.5,-118"/>
<polygon fill="#ffffff" stroke="transparent" points="475.5,-119 475.5,-135 596.5,-135 596.5,-119 475.5,-119"/>
<text text-anchor="start" x="477.5" y="-124.2" font-family="Helvetica,sans-Serif" font-size="11.00">&lt; 2</text>
<polygon fill="#ffffff" stroke="transparent" points="596.5,-119 596.5,-135 704.5,-135 704.5,-119 596.5,-119"/>
<text text-anchor="start" x="646.5" y="-124.2" font-family="Helvetica,sans-Serif" font-size="11.00"> &#160;</text>
<polygon fill="#ffffff" stroke="transparent" points="704.5,-119 704.5,-135 824.5,-135 824.5,-119 704.5,-119"/>
<text text-anchor="start" x="802.5" y="-124.2" font-family="Helvetica,sans-Serif" font-size="11.00">0 &gt;</text>
<polygon fill="black" stroke="black" points="596.5,-119 596.5,-135 596.5,-135 596.5,-119 596.5,-119"/>
<polygon fill="black" stroke="black" points="704.5,-119 704.5,-135 704.5,-135 704.5,-119 704.5,-119"/>
<polygon fill="none" stroke="black" stroke-width="2" points="473,-117 473,-467 826,-467 826,-117 473,-117"/>
</a>
</g>
</g>
<!-- token_transfers&#45;&gt;blocks -->
<g id="edge10" class="edge">
<title>token_transfers:w&#45;&gt;blocks:e</title>
<path fill="none" stroke="black" d="M458.86,-236.46C391.68,-251.89 497.54,-385.31 431,-446 383.28,-489.53 197.97,-444.76 142,-477 108.54,-496.27 84.32,-534.26 70.16,-561.94"/>
<polygon fill="black" stroke="black" points="465.54,-235.8 473.86,-238.58 469.52,-235.4 473.5,-235 473.5,-235 473.5,-235 469.52,-235.4 473.14,-231.42 465.54,-235.8 465.54,-235.8"/>
<ellipse fill="none" stroke="black" cx="462.36" cy="-236.11" rx="3.2" ry="3.2"/>
</g>
<!-- token_transfers&#45;&gt;transactions -->
<g id="edge11" class="edge">
<title>token_transfers:w&#45;&gt;transactions:e</title>
<path fill="none" stroke="black" d="M459.22,-435.45C426.33,-449.51 468.96,-520.51 431,-556 412.71,-573.1 387.67,-582.84 363.64,-588.35"/>
<polygon fill="black" stroke="black" points="465.62,-434.35 474.11,-436.55 469.56,-433.68 473.5,-433 473.5,-433 473.5,-433 469.56,-433.68 472.89,-429.45 465.62,-434.35 465.62,-434.35"/>
<ellipse fill="none" stroke="black" cx="462.46" cy="-434.89" rx="3.2" ry="3.2"/>
</g>
<!-- transaction_actions -->
<g id="node11" class="node">
<title>transaction_actions</title>
<g id="a_node11"><a xlink:href="../../tables/transaction_actions.html" xlink:title="transaction_actions" target="_top">
<polygon fill="#ffffff" stroke="transparent" points="554.5,-489 554.5,-547 744.5,-547 744.5,-489 554.5,-489"/>
<polygon fill="#f5f5f5" stroke="transparent" points="554.5,-525 554.5,-547 744.5,-547 744.5,-525 554.5,-525"/>
<polygon fill="none" stroke="black" points="554.5,-525 554.5,-547 744.5,-547 744.5,-525 554.5,-525"/>
<text text-anchor="start" x="559.5" y="-534.2" font-family="Helvetica,sans-Serif" font-weight="bold" font-size="11.00">transaction_actions</text>
<text text-anchor="start" x="702.5" y="-533.2" font-family="Helvetica,sans-Serif" font-size="11.00">[table]</text>
<polygon fill="none" stroke="black" points="554.5,-507 554.5,-525 744.5,-525 744.5,-507 554.5,-507"/>
<text text-anchor="start" x="557.5" y="-513.2" font-family="Helvetica,sans-Serif" font-size="11.00">...</text>
<polygon fill="#ffffff" stroke="transparent" points="554.5,-489 554.5,-507 744.5,-507 744.5,-489 554.5,-489"/>
<polygon fill="none" stroke="black" points="554.5,-489 554.5,-507 744.5,-507 744.5,-489 554.5,-489"/>
<polygon fill="#ffffff" stroke="transparent" points="555.5,-490 555.5,-506 626.5,-506 626.5,-490 555.5,-490"/>
<text text-anchor="start" x="557.5" y="-495.2" font-family="Helvetica,sans-Serif" font-size="11.00">&lt; 1</text>
<polygon fill="#ffffff" stroke="transparent" points="626.5,-490 626.5,-506 685.5,-506 685.5,-490 626.5,-490"/>
<text text-anchor="start" x="652" y="-495.2" font-family="Helvetica,sans-Serif" font-size="11.00"> &#160;</text>
<polygon fill="#ffffff" stroke="transparent" points="685.5,-490 685.5,-506 743.5,-506 743.5,-490 685.5,-490"/>
<text text-anchor="start" x="733.5" y="-495.2" font-family="Helvetica,sans-Serif" font-size="11.00"> &#160;</text>
<polygon fill="black" stroke="black" points="626.5,-490 626.5,-506 626.5,-506 626.5,-490 626.5,-490"/>
<polygon fill="black" stroke="black" points="685.5,-490 685.5,-506 685.5,-506 685.5,-490 685.5,-490"/>
</a>
</g>
</g>
<!-- transaction_actions&#45;&gt;transactions -->
<g id="edge12" class="edge">
<title>transaction_actions:w&#45;&gt;transactions:e</title>
<path fill="none" stroke="black" d="M538.84,-516.57C493.95,-520.27 480.84,-541.1 431,-556 409.23,-562.51 385.47,-569.15 363.67,-575.06"/>
<polygon fill="black" stroke="black" points="545.51,-516.31 553.64,-519.6 549.5,-516.16 553.5,-516 553.5,-516 553.5,-516 549.5,-516.16 553.36,-512.4 545.51,-516.31 545.51,-516.31"/>
<ellipse fill="none" stroke="black" cx="542.31" cy="-516.44" rx="3.2" ry="3.2"/>
</g>
<!-- transaction_forks -->
<g id="node12" class="node">
<title>transaction_forks</title>
<g id="a_node12"><a xlink:href="../../tables/transaction_forks.html" xlink:title="transaction_forks" target="_top">
<polygon fill="#ffffff" stroke="transparent" points="562.5,-37 562.5,-95 736.5,-95 736.5,-37 562.5,-37"/>
<polygon fill="#f5f5f5" stroke="transparent" points="562.5,-73 562.5,-95 736.5,-95 736.5,-73 562.5,-73"/>
<polygon fill="none" stroke="black" points="562.5,-73 562.5,-95 736.5,-95 736.5,-73 562.5,-73"/>
<text text-anchor="start" x="567.5" y="-82.2" font-family="Helvetica,sans-Serif" font-weight="bold" font-size="11.00">transaction_forks</text>
<text text-anchor="start" x="694.5" y="-81.2" font-family="Helvetica,sans-Serif" font-size="11.00">[table]</text>
<polygon fill="none" stroke="black" points="562.5,-55 562.5,-73 736.5,-73 736.5,-55 562.5,-55"/>
<text text-anchor="start" x="565.5" y="-61.2" font-family="Helvetica,sans-Serif" font-size="11.00">...</text>
<polygon fill="#ffffff" stroke="transparent" points="562.5,-37 562.5,-55 736.5,-55 736.5,-37 562.5,-37"/>
<polygon fill="none" stroke="black" points="562.5,-37 562.5,-55 736.5,-55 736.5,-37 562.5,-37"/>
<polygon fill="#ffffff" stroke="transparent" points="563.5,-38 563.5,-54 629.5,-54 629.5,-38 563.5,-38"/>
<text text-anchor="start" x="565.5" y="-43.2" font-family="Helvetica,sans-Serif" font-size="11.00">&lt; 2</text>
<polygon fill="#ffffff" stroke="transparent" points="629.5,-38 629.5,-54 682.5,-54 682.5,-38 629.5,-38"/>
<text text-anchor="start" x="652" y="-43.2" font-family="Helvetica,sans-Serif" font-size="11.00"> &#160;</text>
<polygon fill="#ffffff" stroke="transparent" points="682.5,-38 682.5,-54 735.5,-54 735.5,-38 682.5,-38"/>
<text text-anchor="start" x="725.5" y="-43.2" font-family="Helvetica,sans-Serif" font-size="11.00"> &#160;</text>
<polygon fill="black" stroke="black" points="629.5,-38 629.5,-54 629.5,-54 629.5,-38 629.5,-38"/>
<polygon fill="black" stroke="black" points="682.5,-38 682.5,-54 682.5,-54 682.5,-38 682.5,-38"/>
</a>
</g>
</g>
<!-- transaction_forks&#45;&gt;blocks -->
<g id="edge14" class="edge">
<title>transaction_forks:w&#45;&gt;blocks:e</title>
<path fill="none" stroke="black" d="M546.92,-64.16C509.51,-65.12 488.94,-71.37 464,-105 421.68,-162.07 481.75,-373.28 431,-423 384.97,-468.1 196.52,-412.64 142,-447 100.58,-473.1 76.68,-526.77 64.88,-561.8"/>
<polygon fill="black" stroke="black" points="553.5,-64.09 561.54,-67.6 557.5,-64.04 561.5,-64 561.5,-64 561.5,-64 557.5,-64.04 561.46,-60.4 553.5,-64.09 553.5,-64.09"/>
<ellipse fill="none" stroke="black" cx="550.3" cy="-64.12" rx="3.2" ry="3.2"/>
</g>
<!-- transaction_forks&#45;&gt;transactions -->
<g id="edge13" class="edge">
<title>transaction_forks:w&#45;&gt;transactions:e</title>
<path fill="none" stroke="black" d="M546.9,-64.14C509.39,-65.04 488.42,-71 464,-105 405.38,-186.62 494.91,-478.45 431,-556 414.5,-576.02 388.84,-586.34 363.75,-591.48"/>
<polygon fill="black" stroke="black" points="553.5,-64.08 561.54,-67.6 557.5,-64.04 561.5,-64 561.5,-64 561.5,-64 557.5,-64.04 561.46,-60.4 553.5,-64.08 553.5,-64.08"/>
<ellipse fill="none" stroke="black" cx="550.3" cy="-64.11" rx="3.2" ry="3.2"/>
</g>
<!-- withdrawals -->
<g id="node13" class="node">
<title>withdrawals</title>
<g id="a_node13"><a xlink:href="../../tables/withdrawals.html" xlink:title="withdrawals" target="_top">
<polygon fill="#ffffff" stroke="transparent" points="218.5,-354 218.5,-412 354.5,-412 354.5,-354 218.5,-354"/>
<polygon fill="#f5f5f5" stroke="transparent" points="218.5,-390 218.5,-412 354.5,-412 354.5,-390 218.5,-390"/>
<polygon fill="none" stroke="black" points="218.5,-390 218.5,-412 354.5,-412 354.5,-390 218.5,-390"/>
<text text-anchor="start" x="223.5" y="-399.2" font-family="Helvetica,sans-Serif" font-weight="bold" font-size="11.00">withdrawals</text>
<text text-anchor="start" x="312.5" y="-398.2" font-family="Helvetica,sans-Serif" font-size="11.00">[table]</text>
<polygon fill="none" stroke="black" points="218.5,-372 218.5,-390 354.5,-390 354.5,-372 218.5,-372"/>
<text text-anchor="start" x="221.5" y="-378.2" font-family="Helvetica,sans-Serif" font-size="11.00">...</text>
<polygon fill="#ffffff" stroke="transparent" points="218.5,-354 218.5,-372 354.5,-372 354.5,-354 218.5,-354"/>
<polygon fill="none" stroke="black" points="218.5,-354 218.5,-372 354.5,-372 354.5,-354 218.5,-354"/>
<polygon fill="#ffffff" stroke="transparent" points="219.5,-355 219.5,-371 272.5,-371 272.5,-355 219.5,-355"/>
<text text-anchor="start" x="221.5" y="-360.2" font-family="Helvetica,sans-Serif" font-size="11.00">&lt; 1</text>
<polygon fill="#ffffff" stroke="transparent" points="272.5,-355 272.5,-371 313.5,-371 313.5,-355 272.5,-355"/>
<text text-anchor="start" x="289" y="-360.2" font-family="Helvetica,sans-Serif" font-size="11.00"> &#160;</text>
<polygon fill="#ffffff" stroke="transparent" points="313.5,-355 313.5,-371 353.5,-371 353.5,-355 313.5,-355"/>
<text text-anchor="start" x="343.5" y="-360.2" font-family="Helvetica,sans-Serif" font-size="11.00"> &#160;</text>
<polygon fill="black" stroke="black" points="272.5,-355 272.5,-371 272.5,-371 272.5,-355 272.5,-355"/>
<polygon fill="black" stroke="black" points="313.5,-355 313.5,-371 313.5,-371 313.5,-355 313.5,-355"/>
</a>
</g>
</g>
<!-- withdrawals&#45;&gt;blocks -->
<g id="edge16" class="edge">
<title>withdrawals:w&#45;&gt;blocks:e</title>
<path fill="none" stroke="black" d="M202.71,-382.13C122.87,-394.44 80.64,-504.78 64.04,-561.56"/>
<polygon fill="black" stroke="black" points="209.52,-381.61 217.77,-384.59 213.51,-381.3 217.5,-381 217.5,-381 217.5,-381 213.51,-381.3 217.23,-377.41 209.52,-381.61 209.52,-381.61"/>
<ellipse fill="none" stroke="black" cx="206.33" cy="-381.85" rx="3.2" ry="3.2"/>
</g>
</g>
</svg>
