<?xml version="1.0" encoding="UTF-8" standalone="no"?>
<!DOCTYPE svg PUBLIC "-//W3C//DTD SVG 1.1//EN"
 "http://www.w3.org/Graphics/SVG/1.1/DTD/svg11.dtd">
<!-- Generated by graphviz version 2.38.0 (20140413.2041)
 -->
<!-- Title: oneDegreeRelationshipsDiagram Pages: 1 -->
<svg width="876pt" height="674pt"
 viewBox="0.00 0.00 876.00 674.00" xmlns="http://www.w3.org/2000/svg" xmlns:xlink="http://www.w3.org/1999/xlink">
<g id="graph0" class="graph" transform="scale(1 1) rotate(0) translate(4 670)">
<title>oneDegreeRelationshipsDiagram</title>
<polygon fill="#ffffff" stroke="none" points="-4,4 -4,-670 872,-670 872,4 -4,4"/>
<text text-anchor="middle" x="74.5" y="-7.2" font-family="Helvetica,sans-Serif" font-size="11.00">Generated by SchemaSpy</text>
<!-- address_current_token_balances -->
<g id="node1" class="node"><title>address_current_token_balances</title>
<g id="a_node1"><a xlink:href="../../tables/address_current_token_balances.html" xlink:title="address_current_token_balances" target="_top">
<polygon fill="#ffffff" stroke="none" points="621,-472 621,-662 854,-662 854,-472 621,-472"/>
<polygon fill="#f5f5f5" stroke="none" points="621.5,-640 621.5,-662 854.5,-662 854.5,-640 621.5,-640"/>
<polygon fill="none" stroke="black" points="621.5,-640 621.5,-662 854.5,-662 854.5,-640 621.5,-640"/>
<text text-anchor="start" x="626.5" y="-649.2" font-family="Helvetica,sans-Serif" font-weight="bold" font-size="11.00">address_current_token_balances</text>
<text text-anchor="start" x="815.5" y="-648.2" font-family="Helvetica,sans-Serif" font-size="11.00">[table]</text>
<polygon fill="none" stroke="black" points="621.5,-618 621.5,-640 854.5,-640 854.5,-618 621.5,-618"/>
<image xlink:href="../../images/primaryKeys.png" width="11px" height="12px" preserveAspectRatio="xMinYMin meet" x="626.5" y="-635"/>
<text text-anchor="start" x="650.5" y="-626.2" font-family="Helvetica,sans-Serif" font-size="11.00">id</text>
<polygon fill="#ffffff" stroke="none" points="621.5,-596 621.5,-618 854.5,-618 854.5,-596 621.5,-596"/>
<polygon fill="none" stroke="black" points="621.5,-596 621.5,-618 854.5,-618 854.5,-596 621.5,-596"/>
<image xlink:href="../../images/foreignKeys.png" width="11px" height="12px" preserveAspectRatio="xMinYMin meet" x="626.5" y="-613"/>
<text text-anchor="start" x="650.5" y="-604.2" font-family="Helvetica,sans-Serif" font-size="11.00">address_hash</text>
<polygon fill="#ffffff" stroke="none" points="621.5,-574 621.5,-596 854.5,-596 854.5,-574 621.5,-574"/>
<polygon fill="none" stroke="black" points="621.5,-574 621.5,-596 854.5,-596 854.5,-574 621.5,-574"/>
<text text-anchor="start" x="650.5" y="-582.2" font-family="Helvetica,sans-Serif" font-size="11.00">block_number</text>
<polygon fill="#ffffff" stroke="none" points="621.5,-552 621.5,-574 854.5,-574 854.5,-552 621.5,-552"/>
<polygon fill="none" stroke="black" points="621.5,-552 621.5,-574 854.5,-574 854.5,-552 621.5,-552"/>
<image xlink:href="../../images/foreignKeys.png" width="11px" height="12px" preserveAspectRatio="xMinYMin meet" x="626.5" y="-569"/>
<text text-anchor="start" x="650.5" y="-560.2" font-family="Helvetica,sans-Serif" font-size="11.00">token_contract_address_hash</text>
<polygon fill="#ffffff" stroke="none" points="621.5,-530 621.5,-552 854.5,-552 854.5,-530 621.5,-530"/>
<polygon fill="none" stroke="black" points="621.5,-530 621.5,-552 854.5,-552 854.5,-530 621.5,-530"/>
<text text-anchor="start" x="650.5" y="-538.2" font-family="Helvetica,sans-Serif" font-size="11.00">value</text>
<polygon fill="#ffffff" stroke="none" points="621.5,-508 621.5,-530 854.5,-530 854.5,-508 621.5,-508"/>
<polygon fill="none" stroke="black" points="621.5,-508 621.5,-530 854.5,-530 854.5,-508 621.5,-508"/>
<text text-anchor="start" x="650.5" y="-516.2" font-family="Helvetica,sans-Serif" font-size="11.00">token_id</text>
<polygon fill="none" stroke="black" points="621.5,-490 621.5,-508 854.5,-508 854.5,-490 621.5,-490"/>
<text text-anchor="start" x="624.5" y="-496.2" font-family="Helvetica,sans-Serif" font-size="11.00">...</text>
<polygon fill="#ffffff" stroke="none" points="621.5,-472 621.5,-490 721.5,-490 721.5,-472 621.5,-472"/>
<polygon fill="none" stroke="black" points="621.5,-472 621.5,-490 721.5,-490 721.5,-472 621.5,-472"/>
<text text-anchor="start" x="624.5" y="-478.2" font-family="Helvetica,sans-Serif" font-size="11.00">&lt; 2</text>
<polygon fill="#ffffff" stroke="none" points="721.5,-472 721.5,-490 802.5,-490 802.5,-472 721.5,-472"/>
<polygon fill="none" stroke="black" points="721.5,-472 721.5,-490 802.5,-490 802.5,-472 721.5,-472"/>
<text text-anchor="start" x="763.5" y="-478.2" font-family="Helvetica,sans-Serif" font-size="11.00">0 rows</text>
<polygon fill="#ffffff" stroke="none" points="802.5,-472 802.5,-490 854.5,-490 854.5,-472 802.5,-472"/>
<polygon fill="none" stroke="black" points="802.5,-472 802.5,-490 854.5,-490 854.5,-472 802.5,-472"/>
<text text-anchor="start" x="844.5" y="-478.2" font-family="Helvetica,sans-Serif" font-size="11.00"> &#160;</text>
</a>
</g>
</g>
<!-- addresses -->
<g id="node2" class="node"><title>addresses</title>
<g id="a_node2"><a xlink:href="../../tables/addresses.html" xlink:title="addresses" target="_top">
<polygon fill="#ffffff" stroke="none" points="8,-321 8,-445 246,-445 246,-321 8,-321"/>
<polygon fill="#f5f5f5" stroke="none" points="8,-423 8,-445 246,-445 246,-423 8,-423"/>
<polygon fill="none" stroke="black" points="8,-423 8,-445 246,-445 246,-423 8,-423"/>
<text text-anchor="start" x="13" y="-432.2" font-family="Helvetica,sans-Serif" font-weight="bold" font-size="11.00">addresses</text>
<text text-anchor="start" x="207" y="-431.2" font-family="Helvetica,sans-Serif" font-size="11.00">[table]</text>
<polygon fill="#ffffff" stroke="none" points="8,-401 8,-423 246,-423 246,-401 8,-401"/>
<polygon fill="none" stroke="black" points="8,-401 8,-423 246,-423 246,-401 8,-401"/>
<text text-anchor="start" x="28" y="-409.2" font-family="Helvetica,sans-Serif" font-size="11.00">fetched_coin_balance</text>
<polygon fill="none" stroke="black" points="8,-379 8,-401 246,-401 246,-379 8,-379"/>
<image xlink:href="../../images/primaryKeys.png" width="11px" height="12px" preserveAspectRatio="xMinYMin meet" x="13" y="-396"/>
<text text-anchor="start" x="28" y="-387.2" font-family="Helvetica,sans-Serif" font-size="11.00">hash</text>
<polygon fill="#ffffff" stroke="none" points="8,-357 8,-379 246,-379 246,-357 8,-357"/>
<polygon fill="none" stroke="black" points="8,-357 8,-379 246,-379 246,-357 8,-357"/>
<text text-anchor="start" x="28" y="-365.2" font-family="Helvetica,sans-Serif" font-size="11.00">inserted_at</text>
<polygon fill="none" stroke="black" points="8,-339 8,-357 246,-357 246,-339 8,-339"/>
<text text-anchor="start" x="11" y="-345.2" font-family="Helvetica,sans-Serif" font-size="11.00">...</text>
<polygon fill="#ffffff" stroke="none" points="8,-321 8,-339 97,-339 97,-321 8,-321"/>
<polygon fill="none" stroke="black" points="8,-321 8,-339 97,-339 97,-321 8,-321"/>
<text text-anchor="start" x="11" y="-327.2" font-family="Helvetica,sans-Serif" font-size="11.00"> &#160;</text>
<polygon fill="#ffffff" stroke="none" points="97,-321 97,-339 177,-339 177,-321 97,-321"/>
<polygon fill="none" stroke="black" points="97,-321 97,-339 177,-339 177,-321 97,-321"/>
<text text-anchor="start" x="138" y="-327.2" font-family="Helvetica,sans-Serif" font-size="11.00">2 rows</text>
<polygon fill="#ffffff" stroke="none" points="177,-321 177,-339 246,-339 246,-321 177,-321"/>
<polygon fill="none" stroke="black" points="177,-321 177,-339 246,-339 246,-321 177,-321"/>
<text text-anchor="start" x="219" y="-327.2" font-family="Helvetica,sans-Serif" font-size="11.00">19 &gt;</text>
</a>
</g>
</g>
<!-- address_current_token_balances&#45;&gt;addresses -->
<g id="edge1" class="edge"><title>address_current_token_balances:address_hash:w&#45;&gt;addresses:hash:e</title>
<path fill="none" stroke="black" d="M605.877,-607.19C466.302,-610.808 394.168,-663.672 287,-567 227.115,-512.979 327.65,-390 247,-390"/>
<polygon fill="black" stroke="black" points="612.501,-607.104 620.547,-610.6 616.5,-607.052 620.5,-607 620.5,-607 620.5,-607 616.5,-607.052 620.453,-603.4 612.501,-607.104 612.501,-607.104"/>
<ellipse fill="none" stroke="black" cx="609.301" cy="-607.146" rx="3.2" ry="3.2"/>
</g>
<!-- tokens -->
<g id="node3" class="node"><title>tokens</title>
<g id="a_node3"><a xlink:href="../../tables/tokens.html" xlink:title="tokens" target="_top">
<polygon fill="#ffffff" stroke="none" points="295,-249 295,-557 566,-557 566,-249 295,-249"/>
<polygon fill="#f5f5f5" stroke="none" points="297.5,-533 297.5,-555 564.5,-555 564.5,-533 297.5,-533"/>
<polygon fill="none" stroke="black" points="297.5,-533 297.5,-555 564.5,-555 564.5,-533 297.5,-533"/>
<text text-anchor="start" x="302.5" y="-542.2" font-family="Helvetica,sans-Serif" font-weight="bold" font-size="11.00">tokens</text>
<text text-anchor="start" x="525.5" y="-541.2" font-family="Helvetica,sans-Serif" font-size="11.00">[table]</text>
<polygon fill="none" stroke="black" points="297.5,-511 297.5,-533 454.5,-533 454.5,-511 297.5,-511"/>
<text text-anchor="start" x="317.5" y="-519.2" font-family="Helvetica,sans-Serif" font-size="11.00">name</text>
<polygon fill="none" stroke="black" points="454.5,-511 454.5,-533 564.5,-533 564.5,-511 454.5,-511"/>
<text text-anchor="start" x="457.5" y="-519.2" font-family="Helvetica,sans-Serif" font-size="11.00">varchar[255]</text>
<polygon fill="#ffffff" stroke="none" points="297.5,-489 297.5,-511 454.5,-511 454.5,-489 297.5,-489"/>
<polygon fill="none" stroke="black" points="297.5,-489 297.5,-511 454.5,-511 454.5,-489 297.5,-489"/>
<text text-anchor="start" x="317.5" y="-497.2" font-family="Helvetica,sans-Serif" font-size="11.00">symbol</text>
<polygon fill="none" stroke="black" points="454.5,-489 454.5,-511 564.5,-511 564.5,-489 454.5,-489"/>
<text text-anchor="start" x="457.5" y="-497.2" font-family="Helvetica,sans-Serif" font-size="11.00">varchar[255]</text>
<polygon fill="none" stroke="black" points="297.5,-467 297.5,-489 454.5,-489 454.5,-467 297.5,-467"/>
<text text-anchor="start" x="317.5" y="-475.2" font-family="Helvetica,sans-Serif" font-size="11.00">total_supply</text>
<polygon fill="none" stroke="black" points="454.5,-467 454.5,-489 564.5,-489 564.5,-467 454.5,-467"/>
<text text-anchor="start" x="457.5" y="-475.2" font-family="Helvetica,sans-Serif" font-size="11.00">numeric[131089]</text>
<polygon fill="none" stroke="black" points="297.5,-445 297.5,-467 454.5,-467 454.5,-445 297.5,-445"/>
<text text-anchor="start" x="317.5" y="-453.2" font-family="Helvetica,sans-Serif" font-size="11.00">decimals</text>
<polygon fill="none" stroke="black" points="454.5,-445 454.5,-467 564.5,-467 564.5,-445 454.5,-445"/>
<text text-anchor="start" x="457.5" y="-453.2" font-family="Helvetica,sans-Serif" font-size="11.00">numeric[131089]</text>
<polygon fill="#ffffff" stroke="none" points="297.5,-423 297.5,-445 454.5,-445 454.5,-423 297.5,-423"/>
<polygon fill="none" stroke="black" points="297.5,-423 297.5,-445 454.5,-445 454.5,-423 297.5,-423"/>
<text text-anchor="start" x="317.5" y="-431.2" font-family="Helvetica,sans-Serif" font-size="11.00">type</text>
<polygon fill="none" stroke="black" points="454.5,-423 454.5,-445 564.5,-445 564.5,-423 454.5,-423"/>
<text text-anchor="start" x="457.5" y="-431.2" font-family="Helvetica,sans-Serif" font-size="11.00">varchar[255]</text>
<polygon fill="none" stroke="black" points="297.5,-401 297.5,-423 454.5,-423 454.5,-401 297.5,-401"/>
<text text-anchor="start" x="317.5" y="-409.2" font-family="Helvetica,sans-Serif" font-size="11.00">cataloged</text>
<polygon fill="none" stroke="black" points="454.5,-401 454.5,-423 564.5,-423 564.5,-401 454.5,-401"/>
<text text-anchor="start" x="457.5" y="-409.2" font-family="Helvetica,sans-Serif" font-size="11.00">bool[1]</text>
<polygon fill="none" stroke="black" points="297.5,-379 297.5,-401 454.5,-401 454.5,-379 297.5,-379"/>
<image xlink:href="../../images/primaryKeys.png" width="11px" height="12px" preserveAspectRatio="xMinYMin meet" x="302.5" y="-396"/>
<text text-anchor="start" x="317.5" y="-387.2" font-family="Helvetica,sans-Serif" font-size="11.00">contract_address_hash</text>
<polygon fill="none" stroke="black" points="454.5,-379 454.5,-401 564.5,-401 564.5,-379 454.5,-379"/>
<text text-anchor="start" x="457.5" y="-387.2" font-family="Helvetica,sans-Serif" font-size="11.00">bytea[2147483647]</text>
<polygon fill="none" stroke="black" points="297.5,-357 297.5,-379 454.5,-379 454.5,-357 297.5,-357"/>
<text text-anchor="start" x="317.5" y="-365.2" font-family="Helvetica,sans-Serif" font-size="11.00">inserted_at</text>
<polygon fill="none" stroke="black" points="454.5,-357 454.5,-379 564.5,-379 564.5,-357 454.5,-357"/>
<text text-anchor="start" x="457.5" y="-365.2" font-family="Helvetica,sans-Serif" font-size="11.00">timestamp[29,6]</text>
<polygon fill="none" stroke="black" points="297.5,-335 297.5,-357 454.5,-357 454.5,-335 297.5,-335"/>
<text text-anchor="start" x="317.5" y="-343.2" font-family="Helvetica,sans-Serif" font-size="11.00">updated_at</text>
<polygon fill="none" stroke="black" points="454.5,-335 454.5,-357 564.5,-357 564.5,-335 454.5,-335"/>
<text text-anchor="start" x="457.5" y="-343.2" font-family="Helvetica,sans-Serif" font-size="11.00">timestamp[29,6]</text>
<polygon fill="none" stroke="black" points="297.5,-313 297.5,-335 454.5,-335 454.5,-313 297.5,-313"/>
<text text-anchor="start" x="317.5" y="-321.2" font-family="Helvetica,sans-Serif" font-size="11.00">holder_count</text>
<polygon fill="none" stroke="black" points="454.5,-313 454.5,-335 564.5,-335 564.5,-313 454.5,-313"/>
<text text-anchor="start" x="457.5" y="-321.2" font-family="Helvetica,sans-Serif" font-size="11.00">int4[10]</text>
<polygon fill="none" stroke="black" points="297.5,-291 297.5,-313 454.5,-313 454.5,-291 297.5,-291"/>
<text text-anchor="start" x="317.5" y="-299.2" font-family="Helvetica,sans-Serif" font-size="11.00">bridged</text>
<polygon fill="none" stroke="black" points="454.5,-291 454.5,-313 564.5,-313 564.5,-291 454.5,-291"/>
<text text-anchor="start" x="457.5" y="-299.2" font-family="Helvetica,sans-Serif" font-size="11.00">bool[1]</text>
<polygon fill="none" stroke="black" points="297.5,-269 297.5,-291 454.5,-291 454.5,-269 297.5,-269"/>
<text text-anchor="start" x="317.5" y="-277.2" font-family="Helvetica,sans-Serif" font-size="11.00">skip_metadata</text>
<polygon fill="none" stroke="black" points="454.5,-269 454.5,-291 564.5,-291 564.5,-269 454.5,-269"/>
<text text-anchor="start" x="457.5" y="-277.2" font-family="Helvetica,sans-Serif" font-size="11.00">bool[1]</text>
<polygon fill="#ffffff" stroke="none" points="297.5,-251 297.5,-269 366.5,-269 366.5,-251 297.5,-251"/>
<polygon fill="none" stroke="black" points="297.5,-251 297.5,-269 366.5,-269 366.5,-251 297.5,-251"/>
<text text-anchor="start" x="300.5" y="-257.2" font-family="Helvetica,sans-Serif" font-size="11.00">&lt; 1</text>
<polygon fill="#ffffff" stroke="none" points="366.5,-251 366.5,-269 454.5,-269 454.5,-251 366.5,-251"/>
<polygon fill="none" stroke="black" points="366.5,-251 366.5,-269 454.5,-269 454.5,-251 366.5,-251"/>
<text text-anchor="start" x="415.5" y="-257.2" font-family="Helvetica,sans-Serif" font-size="11.00">0 rows</text>
<polygon fill="#ffffff" stroke="none" points="454.5,-251 454.5,-269 564.5,-269 564.5,-251 454.5,-251"/>
<polygon fill="none" stroke="black" points="454.5,-251 454.5,-269 564.5,-269 564.5,-251 454.5,-251"/>
<text text-anchor="start" x="544.5" y="-257.2" font-family="Helvetica,sans-Serif" font-size="11.00">4 &gt;</text>
<polygon fill="none" stroke="black" stroke-width="2" points="296,-250 296,-556 565,-556 565,-250 296,-250"/>
</a>
</g>
</g>
<!-- address_current_token_balances&#45;&gt;tokens -->
<g id="edge2" class="edge"><title>address_current_token_balances:token_contract_address_hash:w&#45;&gt;tokens:contract_address_hash.type:e</title>
<path fill="none" stroke="black" d="M606.125,-560.554C553.851,-539.527 640.508,-390 565.5,-390"/>
<polygon fill="black" stroke="black" points="612.613,-561.658 619.896,-566.549 616.557,-562.329 620.5,-563 620.5,-563 620.5,-563 616.557,-562.329 621.104,-559.451 612.613,-561.658 612.613,-561.658"/>
<ellipse fill="none" stroke="black" cx="609.459" cy="-561.121" rx="3.2" ry="3.2"/>
</g>
<!-- tokens&#45;&gt;addresses -->
<g id="edge7" class="edge"><title>tokens:contract_address_hash:w&#45;&gt;addresses:hash:e</title>
<path fill="none" stroke="black" d="M286.047,-390C271.991,-390 265.047,-390 247,-390"/>
<polygon fill="black" stroke="black" points="295.7,-386 295.7,-394 294.1,-394 294.1,-386 295.7,-386"/>
<polyline fill="none" stroke="black" points="296.5,-390 292.5,-390 "/>
<ellipse fill="none" stroke="black" cx="289.3" cy="-390" rx="3.2" ry="3.2"/>
</g>
<!-- address_token_balances -->
<g id="node4" class="node"><title>address_token_balances</title>
<g id="a_node4"><a xlink:href="../../tables/address_token_balances.html" xlink:title="address_token_balances" target="_top">
<polygon fill="#ffffff" stroke="none" points="639,-37 639,-205 836,-205 836,-37 639,-37"/>
<polygon fill="#f5f5f5" stroke="none" points="639.5,-183 639.5,-205 836.5,-205 836.5,-183 639.5,-183"/>
<polygon fill="none" stroke="black" points="639.5,-183 639.5,-205 836.5,-205 836.5,-183 639.5,-183"/>
<text text-anchor="start" x="644.5" y="-192.2" font-family="Helvetica,sans-Serif" font-weight="bold" font-size="11.00">address_token_balances</text>
<text text-anchor="start" x="797.5" y="-191.2" font-family="Helvetica,sans-Serif" font-size="11.00">[table]</text>
<polygon fill="none" stroke="black" points="639.5,-161 639.5,-183 836.5,-183 836.5,-161 639.5,-161"/>
<image xlink:href="../../images/primaryKeys.png" width="11px" height="12px" preserveAspectRatio="xMinYMin meet" x="644.5" y="-178"/>
<text text-anchor="start" x="659.5" y="-169.2" font-family="Helvetica,sans-Serif" font-size="11.00">id</text>
<polygon fill="#ffffff" stroke="none" points="639.5,-139 639.5,-161 836.5,-161 836.5,-139 639.5,-139"/>
<polygon fill="none" stroke="black" points="639.5,-139 639.5,-161 836.5,-161 836.5,-139 639.5,-139"/>
<image xlink:href="../../images/foreignKeys.png" width="11px" height="12px" preserveAspectRatio="xMinYMin meet" x="644.5" y="-156"/>
<text text-anchor="start" x="659.5" y="-147.2" font-family="Helvetica,sans-Serif" font-size="11.00">address_hash</text>
<polygon fill="#ffffff" stroke="none" points="639.5,-117 639.5,-139 836.5,-139 836.5,-117 639.5,-117"/>
<polygon fill="none" stroke="black" points="639.5,-117 639.5,-139 836.5,-139 836.5,-117 639.5,-117"/>
<text text-anchor="start" x="659.5" y="-125.2" font-family="Helvetica,sans-Serif" font-size="11.00">block_number</text>
<polygon fill="#ffffff" stroke="none" points="639.5,-95 639.5,-117 836.5,-117 836.5,-95 639.5,-95"/>
<polygon fill="none" stroke="black" points="639.5,-95 639.5,-117 836.5,-117 836.5,-95 639.5,-95"/>
<image xlink:href="../../images/foreignKeys.png" width="11px" height="12px" preserveAspectRatio="xMinYMin meet" x="644.5" y="-112"/>
<text text-anchor="start" x="659.5" y="-103.2" font-family="Helvetica,sans-Serif" font-size="11.00">token_contract_address_hash</text>
<polygon fill="#ffffff" stroke="none" points="639.5,-73 639.5,-95 836.5,-95 836.5,-73 639.5,-73"/>
<polygon fill="none" stroke="black" points="639.5,-73 639.5,-95 836.5,-95 836.5,-73 639.5,-73"/>
<text text-anchor="start" x="659.5" y="-81.2" font-family="Helvetica,sans-Serif" font-size="11.00">token_id</text>
<polygon fill="none" stroke="black" points="639.5,-55 639.5,-73 836.5,-73 836.5,-55 639.5,-55"/>
<text text-anchor="start" x="642.5" y="-61.2" font-family="Helvetica,sans-Serif" font-size="11.00">...</text>
<polygon fill="#ffffff" stroke="none" points="639.5,-37 639.5,-55 721.5,-55 721.5,-37 639.5,-37"/>
<polygon fill="none" stroke="black" points="639.5,-37 639.5,-55 721.5,-55 721.5,-37 639.5,-37"/>
<text text-anchor="start" x="642.5" y="-43.2" font-family="Helvetica,sans-Serif" font-size="11.00">&lt; 2</text>
<polygon fill="#ffffff" stroke="none" points="721.5,-37 721.5,-55 793.5,-55 793.5,-37 721.5,-37"/>
<polygon fill="none" stroke="black" points="721.5,-37 721.5,-55 793.5,-55 793.5,-37 721.5,-37"/>
<text text-anchor="start" x="754.5" y="-43.2" font-family="Helvetica,sans-Serif" font-size="11.00">0 rows</text>
<polygon fill="#ffffff" stroke="none" points="793.5,-37 793.5,-55 836.5,-55 836.5,-37 793.5,-37"/>
<polygon fill="none" stroke="black" points="793.5,-37 793.5,-55 836.5,-55 836.5,-37 793.5,-37"/>
<text text-anchor="start" x="826.5" y="-43.2" font-family="Helvetica,sans-Serif" font-size="11.00"> &#160;</text>
</a>
</g>
</g>
<!-- address_token_balances&#45;&gt;addresses -->
<g id="edge3" class="edge"><title>address_token_balances:address_hash:w&#45;&gt;addresses:hash:e</title>
<path fill="none" stroke="black" d="M624.095,-149.938C472.724,-148.653 398.106,-129.105 287,-239 237.64,-287.822 316.426,-390 247,-390"/>
<polygon fill="black" stroke="black" points="630.5,-149.965 638.484,-153.6 634.5,-149.983 638.5,-150 638.5,-150 638.5,-150 634.5,-149.983 638.516,-146.4 630.5,-149.965 630.5,-149.965"/>
<ellipse fill="none" stroke="black" cx="627.3" cy="-149.951" rx="3.2" ry="3.2"/>
</g>
<!-- address_token_balances&#45;&gt;tokens -->
<g id="edge4" class="edge"><title>address_token_balances:token_contract_address_hash:w&#45;&gt;tokens:contract_address_hash.type:e</title>
<path fill="none" stroke="black" d="M624.801,-111.42C581.918,-150.683 625.317,-390 565.5,-390"/>
<polygon fill="black" stroke="black" points="631.061,-108.943 639.824,-109.348 634.781,-107.472 638.5,-106 638.5,-106 638.5,-106 634.781,-107.472 637.176,-102.652 631.061,-108.943 631.061,-108.943"/>
<ellipse fill="none" stroke="black" cx="628.085" cy="-110.12" rx="3.20001" ry="3.20001"/>
</g>
<!-- bridged_tokens -->
<g id="node5" class="node"><title>bridged_tokens</title>
<g id="a_node5"><a xlink:href="../../tables/bridged_tokens.html" xlink:title="bridged_tokens" target="_top">
<polygon fill="#ffffff" stroke="none" points="615,-371 615,-451 860,-451 860,-371 615,-371"/>
<polygon fill="#f5f5f5" stroke="none" points="615.5,-429 615.5,-451 860.5,-451 860.5,-429 615.5,-429"/>
<polygon fill="none" stroke="black" points="615.5,-429 615.5,-451 860.5,-451 860.5,-429 615.5,-429"/>
<text text-anchor="start" x="620.5" y="-438.2" font-family="Helvetica,sans-Serif" font-weight="bold" font-size="11.00">bridged_tokens</text>
<text text-anchor="start" x="821.5" y="-437.2" font-family="Helvetica,sans-Serif" font-size="11.00">[table]</text>
<polygon fill="#ffffff" stroke="none" points="615.5,-407 615.5,-429 860.5,-429 860.5,-407 615.5,-407"/>
<polygon fill="none" stroke="black" points="615.5,-407 615.5,-429 860.5,-429 860.5,-407 615.5,-407"/>
<image xlink:href="../../images/foreignKeys.png" width="11px" height="12px" preserveAspectRatio="xMinYMin meet" x="620.5" y="-424"/>
<text text-anchor="start" x="635.5" y="-415.2" font-family="Helvetica,sans-Serif" font-size="11.00">home_token_contract_address_hash</text>
<polygon fill="none" stroke="black" points="615.5,-389 615.5,-407 860.5,-407 860.5,-389 615.5,-389"/>
<text text-anchor="start" x="618.5" y="-395.2" font-family="Helvetica,sans-Serif" font-size="11.00">...</text>
<polygon fill="#ffffff" stroke="none" points="615.5,-371 615.5,-389 721.5,-389 721.5,-371 615.5,-371"/>
<polygon fill="none" stroke="black" points="615.5,-371 615.5,-389 721.5,-389 721.5,-371 615.5,-371"/>
<text text-anchor="start" x="618.5" y="-377.2" font-family="Helvetica,sans-Serif" font-size="11.00">&lt; 1</text>
<polygon fill="#ffffff" stroke="none" points="721.5,-371 721.5,-389 805.5,-389 805.5,-371 721.5,-371"/>
<polygon fill="none" stroke="black" points="721.5,-371 721.5,-389 805.5,-389 805.5,-371 721.5,-371"/>
<text text-anchor="start" x="766.5" y="-377.2" font-family="Helvetica,sans-Serif" font-size="11.00">0 rows</text>
<polygon fill="#ffffff" stroke="none" points="805.5,-371 805.5,-389 860.5,-389 860.5,-371 805.5,-371"/>
<polygon fill="none" stroke="black" points="805.5,-371 805.5,-389 860.5,-389 860.5,-371 805.5,-371"/>
<text text-anchor="start" x="850.5" y="-377.2" font-family="Helvetica,sans-Serif" font-size="11.00"> &#160;</text>
</a>
</g>
</g>
<!-- bridged_tokens&#45;&gt;tokens -->
<g id="edge5" class="edge"><title>bridged_tokens:home_token_contract_address_hash:w&#45;&gt;tokens:contract_address_hash.type:e</title>
<path fill="none" stroke="black" d="M604.042,-415.986C589.093,-409.566 586.467,-390 565.5,-390"/>
<polygon fill="black" stroke="black" points="614.471,-413.921 612.958,-421.777 611.387,-421.474 612.9,-413.618 614.471,-413.921"/>
<polyline fill="none" stroke="black" points="614.5,-418 610.572,-417.244 "/>
<ellipse fill="none" stroke="black" cx="607.43" cy="-416.639" rx="3.20001" ry="3.20001"/>
</g>
<!-- token_instances -->
<g id="node6" class="node"><title>token_instances</title>
<g id="a_node6"><a xlink:href="../../tables/token_instances.html" xlink:title="token_instances" target="_top">
<polygon fill="#ffffff" stroke="none" points="639,-226 639,-350 836,-350 836,-226 639,-226"/>
<polygon fill="#f5f5f5" stroke="none" points="639.5,-328 639.5,-350 836.5,-350 836.5,-328 639.5,-328"/>
<polygon fill="none" stroke="black" points="639.5,-328 639.5,-350 836.5,-350 836.5,-328 639.5,-328"/>
<text text-anchor="start" x="644.5" y="-337.2" font-family="Helvetica,sans-Serif" font-weight="bold" font-size="11.00">token_instances</text>
<text text-anchor="start" x="797.5" y="-336.2" font-family="Helvetica,sans-Serif" font-size="11.00">[table]</text>
<polygon fill="none" stroke="black" points="639.5,-306 639.5,-328 836.5,-328 836.5,-306 639.5,-306"/>
<image xlink:href="../../images/primaryKeys.png" width="11px" height="12px" preserveAspectRatio="xMinYMin meet" x="644.5" y="-323"/>
<text text-anchor="start" x="659.5" y="-314.2" font-family="Helvetica,sans-Serif" font-size="11.00">token_id</text>
<polygon fill="none" stroke="black" points="639.5,-284 639.5,-306 836.5,-306 836.5,-284 639.5,-284"/>
<image xlink:href="../../images/primaryKeys.png" width="11px" height="12px" preserveAspectRatio="xMinYMin meet" x="644.5" y="-301"/>
<text text-anchor="start" x="659.5" y="-292.2" font-family="Helvetica,sans-Serif" font-size="11.00">token_contract_address_hash</text>
<polygon fill="#ffffff" stroke="none" points="639.5,-262 639.5,-284 836.5,-284 836.5,-262 639.5,-262"/>
<polygon fill="none" stroke="black" points="639.5,-262 639.5,-284 836.5,-284 836.5,-262 639.5,-262"/>
<text text-anchor="start" x="659.5" y="-270.2" font-family="Helvetica,sans-Serif" font-size="11.00">error</text>
<polygon fill="none" stroke="black" points="639.5,-244 639.5,-262 836.5,-262 836.5,-244 639.5,-244"/>
<text text-anchor="start" x="642.5" y="-250.2" font-family="Helvetica,sans-Serif" font-size="11.00">...</text>
<polygon fill="#ffffff" stroke="none" points="639.5,-226 639.5,-244 721.5,-244 721.5,-226 639.5,-226"/>
<polygon fill="none" stroke="black" points="639.5,-226 639.5,-244 721.5,-244 721.5,-226 639.5,-226"/>
<text text-anchor="start" x="642.5" y="-232.2" font-family="Helvetica,sans-Serif" font-size="11.00">&lt; 1</text>
<polygon fill="#ffffff" stroke="none" points="721.5,-226 721.5,-244 793.5,-244 793.5,-226 721.5,-226"/>
<polygon fill="none" stroke="black" points="721.5,-226 721.5,-244 793.5,-244 793.5,-226 721.5,-226"/>
<text text-anchor="start" x="754.5" y="-232.2" font-family="Helvetica,sans-Serif" font-size="11.00">0 rows</text>
<polygon fill="#ffffff" stroke="none" points="793.5,-226 793.5,-244 836.5,-244 836.5,-226 793.5,-226"/>
<polygon fill="none" stroke="black" points="793.5,-226 793.5,-244 836.5,-244 836.5,-226 793.5,-226"/>
<text text-anchor="start" x="826.5" y="-232.2" font-family="Helvetica,sans-Serif" font-size="11.00"> &#160;</text>
</a>
</g>
</g>
<!-- token_instances&#45;&gt;tokens -->
<g id="edge6" class="edge"><title>token_instances:token_contract_address_hash:w&#45;&gt;tokens:contract_address_hash.type:e</title>
<path fill="none" stroke="black" d="M624.343,-297.947C591.353,-313.982 613.132,-390 565.5,-390"/>
<polygon fill="black" stroke="black" points="630.668,-296.631 639.234,-298.524 634.584,-295.815 638.5,-295 638.5,-295 638.5,-295 634.584,-295.815 637.766,-291.476 630.668,-296.631 630.668,-296.631"/>
<ellipse fill="none" stroke="black" cx="627.535" cy="-297.283" rx="3.2" ry="3.2"/>
</g>
</g>
</svg>
