<?xml version="1.0" encoding="UTF-8" standalone="no"?>
<!DOCTYPE svg PUBLIC "-//W3C//DTD SVG 1.1//EN"
 "http://www.w3.org/Graphics/SVG/1.1/DTD/svg11.dtd">
<!-- Generated by graphviz version 9.0.0 (20230911.1827)
 -->
<!-- Title: twoDegreesRelationshipsDiagram Pages: 1 -->
<svg width="716pt" height="725pt"
 viewBox="0.00 0.00 716.00 725.00" xmlns="http://www.w3.org/2000/svg" xmlns:xlink="http://www.w3.org/1999/xlink">
<g id="graph0" class="graph" transform="scale(1 1) rotate(0) translate(4 721)">
<title>twoDegreesRelationshipsDiagram</title>
<polygon fill="#ffffff" stroke="none" points="-4,4 -4,-721 712,-721 712,4 -4,4"/>
<text text-anchor="middle" x="71.38" y="-5.55" font-family="Helvetica,sans-Serif" font-size="11.00">Generated by SchemaSpy</text>
<!-- block_rewards -->
<g id="node1" class="node">
<title>block_rewards</title>
<g id="a_node1"><a xlink:href="../../tables/block_rewards.html" xlink:title="block_rewards" target="_top">
<polygon fill="#ffffff" stroke="none" points="183,-655 183,-713 306,-713 306,-655 183,-655"/>
<polygon fill="#f5f5f5" stroke="none" points="183,-691 183,-713 306,-713 306,-691 183,-691"/>
<polygon fill="none" stroke="black" points="183,-691 183,-713 306,-713 306,-691 183,-691"/>
<text text-anchor="start" x="188" y="-698.55" font-family="Helvetica,sans-Serif" font-weight="bold" font-size="11.00">block_rewards</text>
<text text-anchor="start" x="272" y="-697.55" font-family="Helvetica,sans-Serif" font-size="11.00">[table]</text>
<polygon fill="none" stroke="black" points="183,-673 183,-691 306,-691 306,-673 183,-673"/>
<text text-anchor="start" x="186" y="-677.55" font-family="Helvetica,sans-Serif" font-size="11.00">...</text>
<polygon fill="#ffffff" stroke="none" points="183,-655 183,-673 243,-673 243,-655 183,-655"/>
<polygon fill="none" stroke="black" points="183,-655 183,-673 243,-673 243,-655 183,-655"/>
<text text-anchor="start" x="186" y="-659.55" font-family="Helvetica,sans-Serif" font-size="11.00">&lt; 1</text>
<polygon fill="#ffffff" stroke="none" points="243,-655 243,-673 274,-673 274,-655 243,-655"/>
<polygon fill="none" stroke="black" points="243,-655 243,-673 274,-673 274,-655 243,-655"/>
<text text-anchor="start" x="265" y="-659.55" font-family="Helvetica,sans-Serif" font-size="11.00"> &#160;</text>
<polygon fill="#ffffff" stroke="none" points="274,-655 274,-673 306,-673 306,-655 274,-655"/>
<polygon fill="none" stroke="black" points="274,-655 274,-673 306,-673 306,-655 274,-655"/>
<text text-anchor="start" x="297" y="-659.55" font-family="Helvetica,sans-Serif" font-size="11.00"> &#160;</text>
</a>
</g>
</g>
<!-- blocks -->
<g id="node2" class="node">
<title>blocks</title>
<g id="a_node2"><a xlink:href="../../tables/blocks.html" xlink:title="blocks" target="_top">
<polygon fill="#ffffff" stroke="none" points="8,-443 8,-501 85,-501 85,-443 8,-443"/>
<polygon fill="#f5f5f5" stroke="none" points="8,-479 8,-501 85,-501 85,-479 8,-479"/>
<polygon fill="none" stroke="black" points="8,-479 8,-501 85,-501 85,-479 8,-479"/>
<text text-anchor="start" x="12.75" y="-486.55" font-family="Helvetica,sans-Serif" font-weight="bold" font-size="11.00">blocks</text>
<text text-anchor="start" x="51" y="-485.55" font-family="Helvetica,sans-Serif" font-size="11.00">[table]</text>
<polygon fill="none" stroke="black" points="8,-461 8,-479 85,-479 85,-461 8,-461"/>
<text text-anchor="start" x="11" y="-465.55" font-family="Helvetica,sans-Serif" font-size="11.00">...</text>
<polygon fill="#ffffff" stroke="none" points="8,-443 8,-461 36,-461 36,-443 8,-443"/>
<polygon fill="none" stroke="black" points="8,-443 8,-461 36,-461 36,-443 8,-443"/>
<text text-anchor="start" x="11" y="-447.55" font-family="Helvetica,sans-Serif" font-size="11.00"> &#160;</text>
<polygon fill="#ffffff" stroke="none" points="36,-443 36,-461 56,-461 56,-443 36,-443"/>
<polygon fill="none" stroke="black" points="36,-443 36,-461 56,-461 56,-443 36,-443"/>
<text text-anchor="start" x="47" y="-447.55" font-family="Helvetica,sans-Serif" font-size="11.00"> &#160;</text>
<polygon fill="#ffffff" stroke="none" points="56,-443 56,-461 85,-461 85,-443 56,-443"/>
<polygon fill="none" stroke="black" points="56,-443 56,-461 85,-461 85,-443 56,-443"/>
<text text-anchor="start" x="66.25" y="-447.55" font-family="Helvetica,sans-Serif" font-size="11.00">9 &gt;</text>
</a>
</g>
</g>
<!-- block_rewards&#45;&gt;blocks -->
<g id="edge1" class="edge">
<title>block_rewards:w&#45;&gt;blocks:e</title>
<path fill="none" stroke="black" d="M166.05,-680.58C94.19,-667.02 63.85,-560.07 52.87,-504.81"/>
<polygon fill="black" stroke="black" points="173.2,-681.23 180.84,-685.55 177.52,-681.63 180.83,-681.94 180.83,-681.94 180.83,-681.94 177.52,-681.63 181.5,-678.38 173.2,-681.23"/>
<ellipse fill="none" stroke="black" cx="168.3" cy="-680.78" rx="3.2" ry="3.2"/>
</g>
<!-- block_second_degree_relations -->
<g id="node3" class="node">
<title>block_second_degree_relations</title>
<g id="a_node3"><a xlink:href="../../tables/block_second_degree_relations.html" xlink:title="block_second_degree_relations" target="_top">
<polygon fill="#ffffff" stroke="none" points="134,-576 134,-634 355,-634 355,-576 134,-576"/>
<polygon fill="#f5f5f5" stroke="none" points="134,-612 134,-634 355,-634 355,-612 134,-612"/>
<polygon fill="none" stroke="black" points="134,-612 134,-634 355,-634 355,-612 134,-612"/>
<text text-anchor="start" x="139" y="-619.55" font-family="Helvetica,sans-Serif" font-weight="bold" font-size="11.00">block_second_degree_relations</text>
<text text-anchor="start" x="321" y="-618.55" font-family="Helvetica,sans-Serif" font-size="11.00">[table]</text>
<polygon fill="none" stroke="black" points="134,-594 134,-612 355,-612 355,-594 134,-594"/>
<text text-anchor="start" x="137" y="-598.55" font-family="Helvetica,sans-Serif" font-size="11.00">...</text>
<polygon fill="#ffffff" stroke="none" points="134,-576 134,-594 243,-594 243,-576 134,-576"/>
<polygon fill="none" stroke="black" points="134,-576 134,-594 243,-594 243,-576 134,-576"/>
<text text-anchor="start" x="137" y="-580.55" font-family="Helvetica,sans-Serif" font-size="11.00">&lt; 1</text>
<polygon fill="#ffffff" stroke="none" points="243,-576 243,-594 299,-594 299,-576 243,-576"/>
<polygon fill="none" stroke="black" points="243,-576 243,-594 299,-594 299,-576 243,-576"/>
<text text-anchor="start" x="290" y="-580.55" font-family="Helvetica,sans-Serif" font-size="11.00"> &#160;</text>
<polygon fill="#ffffff" stroke="none" points="299,-576 299,-594 355,-594 355,-576 299,-576"/>
<polygon fill="none" stroke="black" points="299,-576 299,-594 355,-594 355,-576 299,-576"/>
<text text-anchor="start" x="346" y="-580.55" font-family="Helvetica,sans-Serif" font-size="11.00"> &#160;</text>
</a>
</g>
</g>
<!-- block_second_degree_relations&#45;&gt;blocks -->
<g id="edge2" class="edge">
<title>block_second_degree_relations:w&#45;&gt;blocks:e</title>
<path fill="none" stroke="black" d="M117.05,-600.68C80.67,-589.34 62.27,-538.97 53.8,-504.72"/>
<polygon fill="black" stroke="black" points="124.26,-601.76 131.63,-606.51 128.54,-602.41 131.84,-602.9 131.84,-602.9 131.84,-602.9 128.54,-602.41 132.7,-599.39 124.26,-601.76"/>
<ellipse fill="none" stroke="black" cx="119.39" cy="-601.03" rx="3.2" ry="3.2"/>
</g>
<!-- internal_transactions -->
<g id="node4" class="node">
<title>internal_transactions</title>
<g id="a_node4"><a xlink:href="../../tables/internal_transactions.html" xlink:title="internal_transactions" target="_top">
<polygon fill="#ffffff" stroke="none" points="472,-603 472,-661 632,-661 632,-603 472,-603"/>
<polygon fill="#f5f5f5" stroke="none" points="472,-639 472,-661 632,-661 632,-639 472,-639"/>
<polygon fill="none" stroke="black" points="472,-639 472,-661 632,-661 632,-639 472,-639"/>
<text text-anchor="start" x="477" y="-646.55" font-family="Helvetica,sans-Serif" font-weight="bold" font-size="11.00">internal_transactions</text>
<text text-anchor="start" x="598" y="-645.55" font-family="Helvetica,sans-Serif" font-size="11.00">[table]</text>
<polygon fill="none" stroke="black" points="472,-621 472,-639 632,-639 632,-621 472,-621"/>
<text text-anchor="start" x="475" y="-625.55" font-family="Helvetica,sans-Serif" font-size="11.00">...</text>
<polygon fill="#ffffff" stroke="none" points="472,-603 472,-621 550,-621 550,-603 472,-603"/>
<polygon fill="none" stroke="black" points="472,-603 472,-621 550,-621 550,-603 472,-603"/>
<text text-anchor="start" x="475" y="-607.55" font-family="Helvetica,sans-Serif" font-size="11.00">&lt; 2</text>
<polygon fill="#ffffff" stroke="none" points="550,-603 550,-621 591,-621 591,-603 550,-603"/>
<polygon fill="none" stroke="black" points="550,-603 550,-621 591,-621 591,-603 550,-603"/>
<text text-anchor="start" x="582" y="-607.55" font-family="Helvetica,sans-Serif" font-size="11.00"> &#160;</text>
<polygon fill="#ffffff" stroke="none" points="591,-603 591,-621 632,-621 632,-603 591,-603"/>
<polygon fill="none" stroke="black" points="591,-603 591,-621 632,-621 632,-603 591,-603"/>
<text text-anchor="start" x="623" y="-607.55" font-family="Helvetica,sans-Serif" font-size="11.00"> &#160;</text>
</a>
</g>
</g>
<!-- internal_transactions&#45;&gt;blocks -->
<g id="edge3" class="edge">
<title>internal_transactions:w&#45;&gt;blocks:e</title>
<path fill="none" stroke="black" d="M455.27,-628.76C431.09,-624.51 422.25,-609.9 396,-593 380.07,-582.74 380.4,-573.52 363,-566 265.48,-523.86 223.71,-576.68 126,-535 109.28,-527.87 93.19,-516.14 79.98,-504.71"/>
<polygon fill="black" stroke="black" points="462.69,-629.34 470.38,-633.56 467.01,-629.68 470.33,-629.95 470.33,-629.95 470.33,-629.95 467.01,-629.68 470.95,-626.38 462.69,-629.34"/>
<ellipse fill="none" stroke="black" cx="457.79" cy="-628.96" rx="3.2" ry="3.2"/>
</g>
<!-- transactions -->
<g id="node5" class="node">
<title>transactions</title>
<g id="a_node5"><a xlink:href="../../tables/transactions.html" xlink:title="transactions" target="_top">
<polygon fill="#ffffff" stroke="none" points="189.5,-443 189.5,-501 299.5,-501 299.5,-443 189.5,-443"/>
<polygon fill="#f5f5f5" stroke="none" points="189.5,-479 189.5,-501 299.5,-501 299.5,-479 189.5,-479"/>
<polygon fill="none" stroke="black" points="189.5,-479 189.5,-501 299.5,-501 299.5,-479 189.5,-479"/>
<text text-anchor="start" x="194.5" y="-486.55" font-family="Helvetica,sans-Serif" font-weight="bold" font-size="11.00">transactions</text>
<text text-anchor="start" x="265.5" y="-485.55" font-family="Helvetica,sans-Serif" font-size="11.00">[table]</text>
<polygon fill="none" stroke="black" points="189.5,-461 189.5,-479 299.5,-479 299.5,-461 189.5,-461"/>
<text text-anchor="start" x="192.5" y="-465.55" font-family="Helvetica,sans-Serif" font-size="11.00">...</text>
<polygon fill="#ffffff" stroke="none" points="189.5,-443 189.5,-461 238.5,-461 238.5,-443 189.5,-443"/>
<polygon fill="none" stroke="black" points="189.5,-443 189.5,-461 238.5,-461 238.5,-443 189.5,-443"/>
<text text-anchor="start" x="192.5" y="-447.55" font-family="Helvetica,sans-Serif" font-size="11.00">&lt; 1</text>
<polygon fill="#ffffff" stroke="none" points="238.5,-443 238.5,-461 264.5,-461 264.5,-443 238.5,-443"/>
<polygon fill="none" stroke="black" points="238.5,-443 238.5,-461 264.5,-461 264.5,-443 238.5,-443"/>
<text text-anchor="start" x="255.5" y="-447.55" font-family="Helvetica,sans-Serif" font-size="11.00"> &#160;</text>
<polygon fill="#ffffff" stroke="none" points="264.5,-443 264.5,-461 299.5,-461 299.5,-443 264.5,-443"/>
<polygon fill="none" stroke="black" points="264.5,-443 264.5,-461 299.5,-461 299.5,-443 264.5,-443"/>
<text text-anchor="start" x="280.75" y="-447.55" font-family="Helvetica,sans-Serif" font-size="11.00">5 &gt;</text>
</a>
</g>
</g>
<!-- internal_transactions&#45;&gt;transactions -->
<g id="edge4" class="edge">
<title>internal_transactions:w&#45;&gt;transactions:e</title>
<path fill="none" stroke="black" d="M455.39,-629.1C430.25,-625.86 419.42,-613.85 396,-593 375.84,-575.05 382.44,-560.73 363,-542 346.84,-526.43 326.6,-512.82 307.5,-501.84"/>
<polygon fill="black" stroke="black" points="462.68,-629.52 470.46,-633.57 467.01,-629.77 470.33,-629.96 470.33,-629.96 470.33,-629.96 467.01,-629.77 470.87,-626.39 462.68,-629.52"/>
<ellipse fill="none" stroke="black" cx="457.77" cy="-629.24" rx="3.2" ry="3.2"/>
</g>
<!-- transactions&#45;&gt;blocks -->
<g id="edge13" class="edge">
<title>transactions:w&#45;&gt;blocks:e</title>
<path fill="none" stroke="black" d="M166.16,-472C141.29,-472 114.56,-472 92.77,-472"/>
<polygon fill="black" stroke="black" points="173.42,-472 181.42,-475.6 177.75,-472 181.08,-472 181.08,-472 181.08,-472 177.75,-472 181.42,-468.4 173.42,-472"/>
<ellipse fill="none" stroke="black" cx="168.5" cy="-472" rx="3.2" ry="3.2"/>
</g>
<!-- logs -->
<g id="node6" class="node">
<title>logs</title>
<g id="a_node6"><a xlink:href="../../tables/logs.html" xlink:title="logs" target="_top">
<polygon fill="#ffffff" stroke="none" points="520.5,-524 520.5,-582 583.5,-582 583.5,-524 520.5,-524"/>
<polygon fill="#f5f5f5" stroke="none" points="520.5,-560 520.5,-582 583.5,-582 583.5,-560 520.5,-560"/>
<polygon fill="none" stroke="black" points="520.5,-560 520.5,-582 583.5,-582 583.5,-560 520.5,-560"/>
<text text-anchor="start" x="524.25" y="-567.55" font-family="Helvetica,sans-Serif" font-weight="bold" font-size="11.00">logs</text>
<text text-anchor="start" x="549.5" y="-566.55" font-family="Helvetica,sans-Serif" font-size="11.00">[table]</text>
<polygon fill="none" stroke="black" points="520.5,-542 520.5,-560 583.5,-560 583.5,-542 520.5,-542"/>
<text text-anchor="start" x="523.5" y="-546.55" font-family="Helvetica,sans-Serif" font-size="11.00">...</text>
<polygon fill="#ffffff" stroke="none" points="520.5,-524 520.5,-542 550.5,-542 550.5,-524 520.5,-524"/>
<polygon fill="none" stroke="black" points="520.5,-524 520.5,-542 550.5,-542 550.5,-524 520.5,-524"/>
<text text-anchor="start" x="523.5" y="-528.55" font-family="Helvetica,sans-Serif" font-size="11.00">&lt; 2</text>
<polygon fill="#ffffff" stroke="none" points="550.5,-524 550.5,-542 566.5,-542 566.5,-524 550.5,-524"/>
<polygon fill="none" stroke="black" points="550.5,-524 550.5,-542 566.5,-542 566.5,-524 550.5,-524"/>
<text text-anchor="start" x="557.5" y="-528.55" font-family="Helvetica,sans-Serif" font-size="11.00"> &#160;</text>
<polygon fill="#ffffff" stroke="none" points="566.5,-524 566.5,-542 583.5,-542 583.5,-524 566.5,-524"/>
<polygon fill="none" stroke="black" points="566.5,-524 566.5,-542 583.5,-542 583.5,-524 566.5,-524"/>
<text text-anchor="start" x="574.5" y="-528.55" font-family="Helvetica,sans-Serif" font-size="11.00"> &#160;</text>
</a>
</g>
</g>
<!-- logs&#45;&gt;blocks -->
<g id="edge5" class="edge">
<title>logs:w&#45;&gt;blocks:e</title>
<path fill="none" stroke="black" d="M503.18,-550.48C426.53,-546.72 164.66,-523.33 126,-512 114.84,-508.73 103.39,-503.88 92.81,-498.67"/>
<polygon fill="black" stroke="black" points="510.67,-550.73 518.55,-554.59 515,-550.87 518.33,-550.98 518.33,-550.98 518.33,-550.98 515,-550.87 518.78,-547.39 510.67,-550.73"/>
<ellipse fill="none" stroke="black" cx="505.75" cy="-550.57" rx="3.2" ry="3.2"/>
</g>
<!-- logs&#45;&gt;transactions -->
<g id="edge6" class="edge">
<title>logs:w&#45;&gt;transactions:e</title>
<path fill="none" stroke="black" d="M503.4,-549.86C455.69,-543.81 367.19,-515.03 307.33,-494.22"/>
<polygon fill="black" stroke="black" points="510.69,-550.39 518.4,-554.57 515.01,-550.71 518.33,-550.95 518.33,-550.95 518.33,-550.95 515.01,-550.71 518.93,-547.39 510.69,-550.39"/>
<ellipse fill="none" stroke="black" cx="505.78" cy="-550.03" rx="3.2" ry="3.2"/>
</g>
<!-- pending_block_operations -->
<g id="node7" class="node">
<title>pending_block_operations</title>
<g id="a_node7"><a xlink:href="../../tables/pending_block_operations.html" xlink:title="pending_block_operations" target="_top">
<polygon fill="#ffffff" stroke="none" points="149,-364 149,-422 340,-422 340,-364 149,-364"/>
<polygon fill="#f5f5f5" stroke="none" points="149,-400 149,-422 340,-422 340,-400 149,-400"/>
<polygon fill="none" stroke="black" points="149,-400 149,-422 340,-422 340,-400 149,-400"/>
<text text-anchor="start" x="154" y="-407.55" font-family="Helvetica,sans-Serif" font-weight="bold" font-size="11.00">pending_block_operations</text>
<text text-anchor="start" x="306" y="-406.55" font-family="Helvetica,sans-Serif" font-size="11.00">[table]</text>
<polygon fill="none" stroke="black" points="149,-382 149,-400 340,-400 340,-382 149,-382"/>
<text text-anchor="start" x="152" y="-386.55" font-family="Helvetica,sans-Serif" font-size="11.00">...</text>
<polygon fill="#ffffff" stroke="none" points="149,-364 149,-382 243,-382 243,-364 149,-364"/>
<polygon fill="none" stroke="black" points="149,-364 149,-382 243,-382 243,-364 149,-364"/>
<text text-anchor="start" x="152" y="-368.55" font-family="Helvetica,sans-Serif" font-size="11.00">&lt; 1</text>
<polygon fill="#ffffff" stroke="none" points="243,-364 243,-382 291,-382 291,-364 243,-364"/>
<polygon fill="none" stroke="black" points="243,-364 243,-382 291,-382 291,-364 243,-364"/>
<text text-anchor="start" x="282" y="-368.55" font-family="Helvetica,sans-Serif" font-size="11.00"> &#160;</text>
<polygon fill="#ffffff" stroke="none" points="291,-364 291,-382 340,-382 340,-364 291,-364"/>
<polygon fill="none" stroke="black" points="291,-364 291,-382 340,-382 340,-364 291,-364"/>
<text text-anchor="start" x="331" y="-368.55" font-family="Helvetica,sans-Serif" font-size="11.00"> &#160;</text>
</a>
</g>
</g>
<!-- pending_block_operations&#45;&gt;blocks -->
<g id="edge7" class="edge">
<title>pending_block_operations:w&#45;&gt;blocks:e</title>
<path fill="none" stroke="black" d="M136.39,-392.01C108.99,-396.96 85.6,-419.26 69.7,-439.05"/>
<polygon fill="black" stroke="black" points="146.34,-387.09 147.07,-395.06 145.47,-395.2 144.75,-387.23 146.34,-387.09"/>
<polyline fill="none" stroke="black" points="147.5,-391 143.52,-391.36"/>
<ellipse fill="none" stroke="black" cx="139.83" cy="-391.7" rx="3.2" ry="3.2"/>
</g>
<!-- token_transfers -->
<g id="node8" class="node">
<title>token_transfers</title>
<g id="a_node8"><a xlink:href="../../tables/token_transfers.html" xlink:title="token_transfers" target="_top">
<polygon fill="#ffffff" stroke="none" points="404,-116 404,-424 700,-424 700,-116 404,-116"/>
<polygon fill="#f5f5f5" stroke="none" points="406,-400 406,-422 698,-422 698,-400 406,-400"/>
<polygon fill="none" stroke="black" points="406,-400 406,-422 698,-422 698,-400 406,-400"/>
<text text-anchor="start" x="411" y="-407.55" font-family="Helvetica,sans-Serif" font-weight="bold" font-size="11.00">token_transfers</text>
<text text-anchor="start" x="663.75" y="-406.55" font-family="Helvetica,sans-Serif" font-size="11.00">[table]</text>
<polygon fill="none" stroke="black" points="406,-378 406,-400 600,-400 600,-378 406,-378"/>
<image xlink:href="../../images/primaryKeys.png" width="11px" height="12px" preserveAspectRatio="xMinYMin meet" x="411" y="-395"/>
<text text-anchor="start" x="426" y="-384.55" font-family="Helvetica,sans-Serif" font-size="11.00">transaction_hash</text>
<polygon fill="none" stroke="black" points="600,-378 600,-400 698,-400 698,-378 600,-378"/>
<text text-anchor="start" x="602.88" y="-384.55" font-family="Helvetica,sans-Serif" font-size="11.00">bytea[2147483647]</text>
<polygon fill="none" stroke="black" points="406,-356 406,-378 600,-378 600,-356 406,-356"/>
<image xlink:href="../../images/primaryKeys.png" width="11px" height="12px" preserveAspectRatio="xMinYMin meet" x="411" y="-373"/>
<text text-anchor="start" x="426" y="-362.55" font-family="Helvetica,sans-Serif" font-size="11.00">log_index</text>
<polygon fill="none" stroke="black" points="600,-356 600,-378 698,-378 698,-356 600,-356"/>
<text text-anchor="start" x="603" y="-362.55" font-family="Helvetica,sans-Serif" font-size="11.00">int4[10]</text>
<polygon fill="#ffffff" stroke="none" points="406,-334 406,-356 600,-356 600,-334 406,-334"/>
<polygon fill="none" stroke="black" points="406,-334 406,-356 600,-356 600,-334 406,-334"/>
<text text-anchor="start" x="426" y="-340.55" font-family="Helvetica,sans-Serif" font-size="11.00">from_address_hash</text>
<polygon fill="none" stroke="black" points="600,-334 600,-356 698,-356 698,-334 600,-334"/>
<text text-anchor="start" x="602.88" y="-340.55" font-family="Helvetica,sans-Serif" font-size="11.00">bytea[2147483647]</text>
<polygon fill="#ffffff" stroke="none" points="406,-312 406,-334 600,-334 600,-312 406,-312"/>
<polygon fill="none" stroke="black" points="406,-312 406,-334 600,-334 600,-312 406,-312"/>
<text text-anchor="start" x="426" y="-318.55" font-family="Helvetica,sans-Serif" font-size="11.00">to_address_hash</text>
<polygon fill="none" stroke="black" points="600,-312 600,-334 698,-334 698,-312 600,-312"/>
<text text-anchor="start" x="602.88" y="-318.55" font-family="Helvetica,sans-Serif" font-size="11.00">bytea[2147483647]</text>
<polygon fill="none" stroke="black" points="406,-290 406,-312 600,-312 600,-290 406,-290"/>
<text text-anchor="start" x="426" y="-296.55" font-family="Helvetica,sans-Serif" font-size="11.00">amount</text>
<polygon fill="none" stroke="black" points="600,-290 600,-312 698,-312 698,-290 600,-290"/>
<text text-anchor="start" x="603" y="-296.55" font-family="Helvetica,sans-Serif" font-size="11.00">numeric[0]</text>
<polygon fill="#ffffff" stroke="none" points="406,-268 406,-290 600,-290 600,-268 406,-268"/>
<polygon fill="none" stroke="black" points="406,-268 406,-290 600,-290 600,-268 406,-268"/>
<text text-anchor="start" x="426" y="-274.55" font-family="Helvetica,sans-Serif" font-size="11.00">token_contract_address_hash</text>
<polygon fill="none" stroke="black" points="600,-268 600,-290 698,-290 698,-268 600,-268"/>
<text text-anchor="start" x="602.88" y="-274.55" font-family="Helvetica,sans-Serif" font-size="11.00">bytea[2147483647]</text>
<polygon fill="none" stroke="black" points="406,-246 406,-268 600,-268 600,-246 406,-246"/>
<text text-anchor="start" x="426" y="-252.55" font-family="Helvetica,sans-Serif" font-size="11.00">inserted_at</text>
<polygon fill="none" stroke="black" points="600,-246 600,-268 698,-268 698,-246 600,-246"/>
<text text-anchor="start" x="603" y="-252.55" font-family="Helvetica,sans-Serif" font-size="11.00">timestamp[29,6]</text>
<polygon fill="none" stroke="black" points="406,-224 406,-246 600,-246 600,-224 406,-224"/>
<text text-anchor="start" x="426" y="-230.55" font-family="Helvetica,sans-Serif" font-size="11.00">updated_at</text>
<polygon fill="none" stroke="black" points="600,-224 600,-246 698,-246 698,-224 600,-224"/>
<text text-anchor="start" x="603" y="-230.55" font-family="Helvetica,sans-Serif" font-size="11.00">timestamp[29,6]</text>
<polygon fill="#ffffff" stroke="none" points="406,-202 406,-224 600,-224 600,-202 406,-202"/>
<polygon fill="none" stroke="black" points="406,-202 406,-224 600,-224 600,-202 406,-202"/>
<text text-anchor="start" x="426" y="-208.55" font-family="Helvetica,sans-Serif" font-size="11.00">block_number</text>
<polygon fill="none" stroke="black" points="600,-202 600,-224 698,-224 698,-202 600,-202"/>
<text text-anchor="start" x="603" y="-208.55" font-family="Helvetica,sans-Serif" font-size="11.00">int4[10]</text>
<polygon fill="none" stroke="black" points="406,-180 406,-202 600,-202 600,-180 406,-180"/>
<image xlink:href="../../images/primaryKeys.png" width="11px" height="12px" preserveAspectRatio="xMinYMin meet" x="411" y="-197"/>
<text text-anchor="start" x="426" y="-186.55" font-family="Helvetica,sans-Serif" font-size="11.00">block_hash</text>
<polygon fill="none" stroke="black" points="600,-180 600,-202 698,-202 698,-180 600,-180"/>
<text text-anchor="start" x="602.88" y="-186.55" font-family="Helvetica,sans-Serif" font-size="11.00">bytea[2147483647]</text>
<polygon fill="none" stroke="black" points="406,-158 406,-180 600,-180 600,-158 406,-158"/>
<text text-anchor="start" x="426" y="-164.55" font-family="Helvetica,sans-Serif" font-size="11.00">amounts</text>
<polygon fill="none" stroke="black" points="600,-158 600,-180 698,-180 698,-158 600,-158"/>
<text text-anchor="start" x="603" y="-164.55" font-family="Helvetica,sans-Serif" font-size="11.00">_numeric[131089]</text>
<polygon fill="#ffffff" stroke="none" points="406,-136 406,-158 600,-158 600,-136 406,-136"/>
<polygon fill="none" stroke="black" points="406,-136 406,-158 600,-158 600,-136 406,-136"/>
<text text-anchor="start" x="426" y="-142.55" font-family="Helvetica,sans-Serif" font-size="11.00">token_ids</text>
<polygon fill="none" stroke="black" points="600,-136 600,-158 698,-158 698,-136 600,-136"/>
<text text-anchor="start" x="603" y="-142.55" font-family="Helvetica,sans-Serif" font-size="11.00">_numeric[78]</text>
<polygon fill="#ffffff" stroke="none" points="406,-118 406,-136 507,-136 507,-118 406,-118"/>
<polygon fill="none" stroke="black" points="406,-118 406,-136 507,-136 507,-118 406,-118"/>
<text text-anchor="start" x="409" y="-122.55" font-family="Helvetica,sans-Serif" font-size="11.00">&lt; 2</text>
<polygon fill="#ffffff" stroke="none" points="507,-118 507,-136 600,-136 600,-118 507,-118"/>
<polygon fill="none" stroke="black" points="507,-118 507,-136 600,-136 600,-118 507,-118"/>
<text text-anchor="start" x="591" y="-122.55" font-family="Helvetica,sans-Serif" font-size="11.00"> &#160;</text>
<polygon fill="#ffffff" stroke="none" points="600,-118 600,-136 698,-136 698,-118 600,-118"/>
<polygon fill="none" stroke="black" points="600,-118 600,-136 698,-136 698,-118 600,-118"/>
<text text-anchor="start" x="679.25" y="-122.55" font-family="Helvetica,sans-Serif" font-size="11.00">0 &gt;</text>
<polygon fill="none" stroke="black" stroke-width="2" points="405,-117 405,-423 699,-423 699,-117 405,-117"/>
</a>
</g>
</g>
<!-- token_transfers&#45;&gt;blocks -->
<g id="edge8" class="edge">
<title>token_transfers:w&#45;&gt;blocks:e</title>
<path fill="none" stroke="black" d="M389.52,-193.92C356.26,-209.92 405.25,-287.67 363,-323 281.5,-391.14 216.18,-297.85 126,-354 94.25,-373.77 72.53,-411.66 60.12,-439.19"/>
<polygon fill="black" stroke="black" points="396.81,-192.54 405.34,-194.6 401.07,-191.74 404.34,-191.12 404.34,-191.12 404.34,-191.12 401.07,-191.74 404,-187.52 396.81,-192.54"/>
<ellipse fill="none" stroke="black" cx="391.98" cy="-193.45" rx="3.2" ry="3.2"/>
</g>
<!-- token_transfers&#45;&gt;transactions -->
<g id="edge9" class="edge">
<title>token_transfers:w&#45;&gt;transactions:e</title>
<path fill="none" stroke="black" d="M390.24,-393.84C379.98,-402.83 380.13,-422.15 363,-433 346.11,-443.7 325.99,-451.77 307.21,-457.71"/>
<polygon fill="black" stroke="black" points="397.08,-391.6 405.8,-392.52 401.2,-390.25 404.36,-389.21 404.36,-389.21 404.36,-389.21 401.2,-390.25 403.56,-385.68 397.08,-391.6"/>
<ellipse fill="none" stroke="black" cx="392.41" cy="-393.13" rx="3.2" ry="3.2"/>
</g>
<!-- transaction_actions -->
<g id="node9" class="node">
<title>transaction_actions</title>
<g id="a_node9"><a xlink:href="../../tables/transaction_actions.html" xlink:title="transaction_actions" target="_top">
<polygon fill="#ffffff" stroke="none" points="476,-445 476,-503 628,-503 628,-445 476,-445"/>
<polygon fill="#f5f5f5" stroke="none" points="476,-481 476,-503 628,-503 628,-481 476,-481"/>
<polygon fill="none" stroke="black" points="476,-481 476,-503 628,-503 628,-481 476,-481"/>
<text text-anchor="start" x="481" y="-488.55" font-family="Helvetica,sans-Serif" font-weight="bold" font-size="11.00">transaction_actions</text>
<text text-anchor="start" x="594" y="-487.55" font-family="Helvetica,sans-Serif" font-size="11.00">[table]</text>
<polygon fill="none" stroke="black" points="476,-463 476,-481 628,-481 628,-463 476,-463"/>
<text text-anchor="start" x="479" y="-467.55" font-family="Helvetica,sans-Serif" font-size="11.00">...</text>
<polygon fill="#ffffff" stroke="none" points="476,-445 476,-463 550,-463 550,-445 476,-445"/>
<polygon fill="none" stroke="black" points="476,-445 476,-463 550,-463 550,-445 476,-445"/>
<text text-anchor="start" x="479" y="-449.55" font-family="Helvetica,sans-Serif" font-size="11.00">&lt; 1</text>
<polygon fill="#ffffff" stroke="none" points="550,-445 550,-463 589,-463 589,-445 550,-445"/>
<polygon fill="none" stroke="black" points="550,-445 550,-463 589,-463 589,-445 550,-445"/>
<text text-anchor="start" x="580" y="-449.55" font-family="Helvetica,sans-Serif" font-size="11.00"> &#160;</text>
<polygon fill="#ffffff" stroke="none" points="589,-445 589,-463 628,-463 628,-445 589,-445"/>
<polygon fill="none" stroke="black" points="589,-445 589,-463 628,-463 628,-445 589,-445"/>
<text text-anchor="start" x="619" y="-449.55" font-family="Helvetica,sans-Serif" font-size="11.00"> &#160;</text>
</a>
</g>
</g>
<!-- transaction_actions&#45;&gt;transactions -->
<g id="edge10" class="edge">
<title>transaction_actions:w&#45;&gt;transactions:e</title>
<path fill="none" stroke="black" d="M459.18,-472C406.5,-472 349.3,-472 307.35,-472"/>
<polygon fill="black" stroke="black" points="466.67,-472 474.67,-475.6 471,-472 474.33,-472 474.33,-472 474.33,-472 471,-472 474.67,-468.4 466.67,-472"/>
<ellipse fill="none" stroke="black" cx="461.75" cy="-472" rx="3.2" ry="3.2"/>
</g>
<!-- transaction_forks -->
<g id="node10" class="node">
<title>transaction_forks</title>
<g id="a_node10"><a xlink:href="../../tables/transaction_forks.html" xlink:title="transaction_forks" target="_top">
<polygon fill="#ffffff" stroke="none" points="482.5,-37 482.5,-95 621.5,-95 621.5,-37 482.5,-37"/>
<polygon fill="#f5f5f5" stroke="none" points="482.5,-73 482.5,-95 621.5,-95 621.5,-73 482.5,-73"/>
<polygon fill="none" stroke="black" points="482.5,-73 482.5,-95 621.5,-95 621.5,-73 482.5,-73"/>
<text text-anchor="start" x="487.5" y="-80.55" font-family="Helvetica,sans-Serif" font-weight="bold" font-size="11.00">transaction_forks</text>
<text text-anchor="start" x="587.5" y="-79.55" font-family="Helvetica,sans-Serif" font-size="11.00">[table]</text>
<polygon fill="none" stroke="black" points="482.5,-55 482.5,-73 621.5,-73 621.5,-55 482.5,-55"/>
<text text-anchor="start" x="485.5" y="-59.55" font-family="Helvetica,sans-Serif" font-size="11.00">...</text>
<polygon fill="#ffffff" stroke="none" points="482.5,-37 482.5,-55 550.5,-55 550.5,-37 482.5,-37"/>
<polygon fill="none" stroke="black" points="482.5,-37 482.5,-55 550.5,-55 550.5,-37 482.5,-37"/>
<text text-anchor="start" x="485.5" y="-41.55" font-family="Helvetica,sans-Serif" font-size="11.00">&lt; 2</text>
<polygon fill="#ffffff" stroke="none" points="550.5,-37 550.5,-55 585.5,-55 585.5,-37 550.5,-37"/>
<polygon fill="none" stroke="black" points="550.5,-37 550.5,-55 585.5,-55 585.5,-37 550.5,-37"/>
<text text-anchor="start" x="576.5" y="-41.55" font-family="Helvetica,sans-Serif" font-size="11.00"> &#160;</text>
<polygon fill="#ffffff" stroke="none" points="585.5,-37 585.5,-55 621.5,-55 621.5,-37 585.5,-37"/>
<polygon fill="none" stroke="black" points="585.5,-37 585.5,-55 621.5,-55 621.5,-37 585.5,-37"/>
<text text-anchor="start" x="612.5" y="-41.55" font-family="Helvetica,sans-Serif" font-size="11.00"> &#160;</text>
</a>
</g>
</g>
<!-- transaction_forks&#45;&gt;blocks -->
<g id="edge12" class="edge">
<title>transaction_forks:w&#45;&gt;blocks:e</title>
<path fill="none" stroke="black" d="M465.49,-64.44C434.18,-66.44 417.85,-75.92 396,-105 343.19,-175.27 427.19,-239.95 363,-300 324.34,-336.16 169.93,-294.46 126,-324 86.3,-350.7 65.21,-404.2 55.2,-439.03"/>
<polygon fill="black" stroke="black" points="472.67,-64.24 480.77,-67.61 477,-64.11 480.33,-64.02 480.33,-64.02 480.33,-64.02 477,-64.11 480.56,-60.41 472.67,-64.24"/>
<ellipse fill="none" stroke="black" cx="467.75" cy="-64.37" rx="3.2" ry="3.2"/>
</g>
<!-- transaction_forks&#45;&gt;transactions -->
<g id="edge11" class="edge">
<title>transaction_forks:w&#45;&gt;transactions:e</title>
<path fill="none" stroke="black" d="M465.44,-64.4C433.92,-66.25 416.86,-75.2 396,-105 311.97,-225.02 454.59,-318.64 363,-433 349.36,-450.03 328.07,-459.68 307.33,-465.14"/>
<polygon fill="black" stroke="black" points="472.67,-64.21 480.76,-67.61 477,-64.1 480.33,-64.02 480.33,-64.02 480.33,-64.02 477,-64.1 480.57,-60.41 472.67,-64.21"/>
<ellipse fill="none" stroke="black" cx="467.75" cy="-64.34" rx="3.2" ry="3.2"/>
</g>
<!-- withdrawals -->
<g id="node11" class="node">
<title>withdrawals</title>
<g id="a_node11"><a xlink:href="../../tables/withdrawals.html" xlink:title="withdrawals" target="_top">
<polygon fill="#ffffff" stroke="none" points="191,-231 191,-289 298,-289 298,-231 191,-231"/>
<polygon fill="#f5f5f5" stroke="none" points="191,-267 191,-289 298,-289 298,-267 191,-267"/>
<polygon fill="none" stroke="black" points="191,-267 191,-289 298,-289 298,-267 191,-267"/>
<text text-anchor="start" x="196" y="-274.55" font-family="Helvetica,sans-Serif" font-weight="bold" font-size="11.00">withdrawals</text>
<text text-anchor="start" x="264" y="-273.55" font-family="Helvetica,sans-Serif" font-size="11.00">[table]</text>
<polygon fill="none" stroke="black" points="191,-249 191,-267 298,-267 298,-249 191,-249"/>
<text text-anchor="start" x="194" y="-253.55" font-family="Helvetica,sans-Serif" font-size="11.00">...</text>
<polygon fill="#ffffff" stroke="none" points="191,-231 191,-249 243,-249 243,-231 191,-231"/>
<polygon fill="none" stroke="black" points="191,-231 191,-249 243,-249 243,-231 191,-231"/>
<text text-anchor="start" x="194" y="-235.55" font-family="Helvetica,sans-Serif" font-size="11.00">&lt; 1</text>
<polygon fill="#ffffff" stroke="none" points="243,-231 243,-249 270,-249 270,-231 243,-231"/>
<polygon fill="none" stroke="black" points="243,-231 243,-249 270,-249 270,-231 243,-231"/>
<text text-anchor="start" x="261" y="-235.55" font-family="Helvetica,sans-Serif" font-size="11.00"> &#160;</text>
<polygon fill="#ffffff" stroke="none" points="270,-231 270,-249 298,-249 298,-231 270,-231"/>
<polygon fill="none" stroke="black" points="270,-231 270,-249 298,-249 298,-231 270,-231"/>
<text text-anchor="start" x="289" y="-235.55" font-family="Helvetica,sans-Serif" font-size="11.00"> &#160;</text>
</a>
</g>
</g>
<!-- withdrawals&#45;&gt;blocks -->
<g id="edge14" class="edge">
<title>withdrawals:w&#45;&gt;blocks:e</title>
<path fill="none" stroke="black" d="M173.97,-259.37C99.13,-272.89 65.81,-382.75 53.53,-439.03"/>
<polygon fill="black" stroke="black" points="181.2,-258.73 189.48,-261.62 185.52,-258.35 188.83,-258.06 188.83,-258.06 188.83,-258.06 185.52,-258.35 188.85,-254.44 181.2,-258.73"/>
<ellipse fill="none" stroke="black" cx="176.3" cy="-259.17" rx="3.2" ry="3.2"/>
</g>
</g>
</svg>
