<?xml version="1.0" encoding="UTF-8" standalone="no"?>
<!DOCTYPE svg PUBLIC "-//W3C//DTD SVG 1.1//EN"
 "http://www.w3.org/Graphics/SVG/1.1/DTD/svg11.dtd">
<!-- Generated by graphviz version 2.43.0 (0)
 -->
<!-- Title: oneDegreeRelationshipsDiagramImplied Pages: 1 -->
<svg width="673pt" height="511pt"
 viewBox="0.00 0.00 673.00 511.00" xmlns="http://www.w3.org/2000/svg" xmlns:xlink="http://www.w3.org/1999/xlink">
<g id="graph0" class="graph" transform="scale(1 1) rotate(0) translate(4 507)">
<title>oneDegreeRelationshipsDiagramImplied</title>
<polygon fill="#ffffff" stroke="transparent" points="-4,4 -4,-507 669,-507 669,4 -4,4"/>
<text text-anchor="middle" x="79.5" y="-7.2" font-family="Helvetica,sans-Serif" font-size="11.00">Generated by SchemaSpy</text>
<!-- token_instances -->
<g id="node1" class="node">
<title>token_instances</title>
<g id="a_node1"><a xlink:href="../../tables/token_instances.html" xlink:title="token_instances" target="_top">
<polygon fill="#ffffff" stroke="transparent" points="421,-219 421,-387 657,-387 657,-219 421,-219"/>
<polygon fill="#f5f5f5" stroke="transparent" points="421,-365 421,-387 657,-387 657,-365 421,-365"/>
<polygon fill="none" stroke="black" points="421,-365 421,-387 657,-387 657,-365 421,-365"/>
<text text-anchor="start" x="426" y="-374.2" font-family="Helvetica,sans-Serif" font-weight="bold" font-size="11.00">token_instances</text>
<text text-anchor="start" x="615" y="-373.2" font-family="Helvetica,sans-Serif" font-size="11.00">[table]</text>
<polygon fill="none" stroke="black" points="421,-343 421,-365 657,-365 657,-343 421,-343"/>
<image xlink:href="../../images/primaryKeys.png" width="11px" height="12px" preserveAspectRatio="xMinYMin meet" x="426" y="-360"/>
<text text-anchor="start" x="441" y="-351.2" font-family="Helvetica,sans-Serif" font-size="11.00">token_id</text>
<polygon fill="none" stroke="black" points="421,-321 421,-343 657,-343 657,-321 421,-321"/>
<image xlink:href="../../images/primaryKeys.png" width="11px" height="12px" preserveAspectRatio="xMinYMin meet" x="426" y="-338"/>
<text text-anchor="start" x="441" y="-329.2" font-family="Helvetica,sans-Serif" font-size="11.00">token_contract_address_hash</text>
<polygon fill="#ffffff" stroke="transparent" points="421,-299 421,-321 657,-321 657,-299 421,-299"/>
<polygon fill="none" stroke="black" points="421,-299 421,-321 657,-321 657,-299 421,-299"/>
<text text-anchor="start" x="441" y="-307.2" font-family="Helvetica,sans-Serif" font-size="11.00">error</text>
<polygon fill="#ffffff" stroke="transparent" points="421,-277 421,-299 657,-299 657,-277 421,-277"/>
<polygon fill="none" stroke="black" points="421,-277 421,-299 657,-299 657,-277 421,-277"/>
<text text-anchor="start" x="441" y="-285.2" font-family="Helvetica,sans-Serif" font-size="11.00">owner_address_hash</text>
<polygon fill="none" stroke="black" points="421,-255 421,-277 657,-277 657,-255 421,-255"/>
<image xlink:href="../../images/foreignKeys.png" width="11px" height="12px" preserveAspectRatio="xMinYMin meet" x="426" y="-272"/>
<text text-anchor="start" x="441" y="-263.2" font-family="Helvetica,sans-Serif" font-size="11.00">owner_updated_at_log_index</text>
<polygon fill="none" stroke="black" points="421,-237 421,-255 657,-255 657,-237 421,-237"/>
<text text-anchor="start" x="424" y="-243.2" font-family="Helvetica,sans-Serif" font-size="11.00">...</text>
<polygon fill="#ffffff" stroke="transparent" points="421,-219 421,-237 657,-237 657,-219 421,-219"/>
<polygon fill="none" stroke="black" points="421,-219 421,-237 657,-237 657,-219 421,-219"/>
<polygon fill="#ffffff" stroke="transparent" points="422,-220 422,-236 508,-236 508,-220 422,-220"/>
<text text-anchor="start" x="424" y="-225.2" font-family="Helvetica,sans-Serif" font-size="11.00">&lt; 1</text>
<polygon fill="#ffffff" stroke="transparent" points="508,-220 508,-236 582,-236 582,-220 508,-220"/>
<text text-anchor="start" x="541" y="-225.2" font-family="Helvetica,sans-Serif" font-size="11.00"> &#160;</text>
<polygon fill="#ffffff" stroke="transparent" points="582,-220 582,-236 656,-236 656,-220 582,-220"/>
<text text-anchor="start" x="646" y="-225.2" font-family="Helvetica,sans-Serif" font-size="11.00"> &#160;</text>
<polygon fill="black" stroke="black" points="508,-220 508,-236 508,-236 508,-220 508,-220"/>
<polygon fill="black" stroke="black" points="582,-220 582,-236 582,-236 582,-220 582,-220"/>
</a>
</g>
</g>
<!-- tokens -->
<g id="node2" class="node">
<title>tokens</title>
<g id="a_node2"><a xlink:href="../../tables/tokens.html" xlink:title="tokens" target="_top">
<polygon fill="#ffffff" stroke="transparent" points="8,-37 8,-499 372,-499 372,-37 8,-37"/>
<polygon fill="#f5f5f5" stroke="transparent" points="10,-475 10,-497 370,-497 370,-475 10,-475"/>
<polygon fill="none" stroke="black" points="10,-475 10,-497 370,-497 370,-475 10,-475"/>
<text text-anchor="start" x="15" y="-484.2" font-family="Helvetica,sans-Serif" font-weight="bold" font-size="11.00">tokens</text>
<text text-anchor="start" x="328" y="-483.2" font-family="Helvetica,sans-Serif" font-size="11.00">[table]</text>
<polygon fill="none" stroke="black" points="10,-453 10,-475 255,-475 255,-453 10,-453"/>
<text text-anchor="start" x="30" y="-461.2" font-family="Helvetica,sans-Serif" font-size="11.00">name</text>
<polygon fill="none" stroke="black" points="255,-453 255,-475 370,-475 370,-453 255,-453"/>
<text text-anchor="start" x="258" y="-461.2" font-family="Helvetica,sans-Serif" font-size="11.00">text[2147483647]</text>
<polygon fill="#ffffff" stroke="transparent" points="10,-431 10,-453 255,-453 255,-431 10,-431"/>
<polygon fill="none" stroke="black" points="10,-431 10,-453 255,-453 255,-431 10,-431"/>
<text text-anchor="start" x="30" y="-439.2" font-family="Helvetica,sans-Serif" font-size="11.00">symbol</text>
<polygon fill="none" stroke="black" points="255,-431 255,-453 370,-453 370,-431 255,-431"/>
<text text-anchor="start" x="258" y="-439.2" font-family="Helvetica,sans-Serif" font-size="11.00">text[2147483647]</text>
<polygon fill="none" stroke="black" points="10,-409 10,-431 255,-431 255,-409 10,-409"/>
<text text-anchor="start" x="30" y="-417.2" font-family="Helvetica,sans-Serif" font-size="11.00">total_supply</text>
<polygon fill="none" stroke="black" points="255,-409 255,-431 370,-431 370,-409 255,-409"/>
<text text-anchor="start" x="258" y="-417.2" font-family="Helvetica,sans-Serif" font-size="11.00">numeric[0]</text>
<polygon fill="none" stroke="black" points="10,-387 10,-409 255,-409 255,-387 10,-387"/>
<text text-anchor="start" x="30" y="-395.2" font-family="Helvetica,sans-Serif" font-size="11.00">decimals</text>
<polygon fill="none" stroke="black" points="255,-387 255,-409 370,-409 370,-387 255,-387"/>
<text text-anchor="start" x="258" y="-395.2" font-family="Helvetica,sans-Serif" font-size="11.00">numeric[0]</text>
<polygon fill="#ffffff" stroke="transparent" points="10,-365 10,-387 255,-387 255,-365 10,-365"/>
<polygon fill="none" stroke="black" points="10,-365 10,-387 255,-387 255,-365 10,-365"/>
<text text-anchor="start" x="30" y="-373.2" font-family="Helvetica,sans-Serif" font-size="11.00">type</text>
<polygon fill="none" stroke="black" points="255,-365 255,-387 370,-387 370,-365 255,-365"/>
<text text-anchor="start" x="258" y="-373.2" font-family="Helvetica,sans-Serif" font-size="11.00">varchar[255]</text>
<polygon fill="#ffffff" stroke="transparent" points="10,-343 10,-365 255,-365 255,-343 10,-343"/>
<polygon fill="none" stroke="black" points="10,-343 10,-365 255,-365 255,-343 10,-343"/>
<text text-anchor="start" x="30" y="-351.2" font-family="Helvetica,sans-Serif" font-size="11.00">cataloged</text>
<polygon fill="none" stroke="black" points="255,-343 255,-365 370,-365 370,-343 255,-343"/>
<text text-anchor="start" x="258" y="-351.2" font-family="Helvetica,sans-Serif" font-size="11.00">bool[1]</text>
<polygon fill="none" stroke="black" points="10,-321 10,-343 255,-343 255,-321 10,-321"/>
<image xlink:href="../../images/primaryKeys.png" width="11px" height="12px" preserveAspectRatio="xMinYMin meet" x="15" y="-338"/>
<text text-anchor="start" x="30" y="-329.2" font-family="Helvetica,sans-Serif" font-size="11.00">contract_address_hash</text>
<polygon fill="none" stroke="black" points="255,-321 255,-343 370,-343 370,-321 255,-321"/>
<text text-anchor="start" x="258" y="-329.2" font-family="Helvetica,sans-Serif" font-size="11.00">bytea[2147483647]</text>
<polygon fill="none" stroke="black" points="10,-299 10,-321 255,-321 255,-299 10,-299"/>
<text text-anchor="start" x="30" y="-307.2" font-family="Helvetica,sans-Serif" font-size="11.00">inserted_at</text>
<polygon fill="none" stroke="black" points="255,-299 255,-321 370,-321 370,-299 255,-299"/>
<text text-anchor="start" x="258" y="-307.2" font-family="Helvetica,sans-Serif" font-size="11.00">timestamp[29,6]</text>
<polygon fill="none" stroke="black" points="10,-277 10,-299 255,-299 255,-277 10,-277"/>
<text text-anchor="start" x="30" y="-285.2" font-family="Helvetica,sans-Serif" font-size="11.00">updated_at</text>
<polygon fill="none" stroke="black" points="255,-277 255,-299 370,-299 370,-277 255,-277"/>
<text text-anchor="start" x="258" y="-285.2" font-family="Helvetica,sans-Serif" font-size="11.00">timestamp[29,6]</text>
<polygon fill="none" stroke="black" points="10,-255 10,-277 255,-277 255,-255 10,-255"/>
<text text-anchor="start" x="30" y="-263.2" font-family="Helvetica,sans-Serif" font-size="11.00">holder_count</text>
<polygon fill="none" stroke="black" points="255,-255 255,-277 370,-277 370,-255 255,-255"/>
<text text-anchor="start" x="258" y="-263.2" font-family="Helvetica,sans-Serif" font-size="11.00">int4[10]</text>
<polygon fill="none" stroke="black" points="10,-233 10,-255 255,-255 255,-233 10,-233"/>
<text text-anchor="start" x="30" y="-241.2" font-family="Helvetica,sans-Serif" font-size="11.00">skip_metadata</text>
<polygon fill="none" stroke="black" points="255,-233 255,-255 370,-255 370,-233 255,-233"/>
<text text-anchor="start" x="258" y="-241.2" font-family="Helvetica,sans-Serif" font-size="11.00">bool[1]</text>
<polygon fill="none" stroke="black" points="10,-211 10,-233 255,-233 255,-211 10,-211"/>
<text text-anchor="start" x="30" y="-219.2" font-family="Helvetica,sans-Serif" font-size="11.00">fiat_value</text>
<polygon fill="none" stroke="black" points="255,-211 255,-233 370,-233 370,-211 255,-211"/>
<text text-anchor="start" x="258" y="-219.2" font-family="Helvetica,sans-Serif" font-size="11.00">numeric[0]</text>
<polygon fill="none" stroke="black" points="10,-189 10,-211 255,-211 255,-189 10,-189"/>
<text text-anchor="start" x="30" y="-197.2" font-family="Helvetica,sans-Serif" font-size="11.00">circulating_market_cap</text>
<polygon fill="none" stroke="black" points="255,-189 255,-211 370,-211 370,-189 255,-189"/>
<text text-anchor="start" x="258" y="-197.2" font-family="Helvetica,sans-Serif" font-size="11.00">numeric[0]</text>
<polygon fill="none" stroke="black" points="10,-167 10,-189 255,-189 255,-167 10,-167"/>
<text text-anchor="start" x="30" y="-175.2" font-family="Helvetica,sans-Serif" font-size="11.00">total_supply_updated_at_block</text>
<polygon fill="none" stroke="black" points="255,-167 255,-189 370,-189 370,-167 255,-167"/>
<text text-anchor="start" x="258" y="-175.2" font-family="Helvetica,sans-Serif" font-size="11.00">int8[19]</text>
<polygon fill="none" stroke="black" points="10,-145 10,-167 255,-167 255,-145 10,-145"/>
<text text-anchor="start" x="30" y="-153.2" font-family="Helvetica,sans-Serif" font-size="11.00">icon_url</text>
<polygon fill="none" stroke="black" points="255,-145 255,-167 370,-167 370,-145 255,-145"/>
<text text-anchor="start" x="258" y="-153.2" font-family="Helvetica,sans-Serif" font-size="11.00">text[2147483647]</text>
<polygon fill="none" stroke="black" points="10,-123 10,-145 255,-145 255,-123 10,-123"/>
<text text-anchor="start" x="30" y="-131.2" font-family="Helvetica,sans-Serif" font-size="11.00">is_verified_via_admin_panel</text>
<polygon fill="none" stroke="black" points="255,-123 255,-145 370,-145 370,-123 255,-123"/>
<text text-anchor="start" x="258" y="-131.2" font-family="Helvetica,sans-Serif" font-size="11.00">bool[1]</text>
<polygon fill="none" stroke="black" points="10,-101 10,-123 255,-123 255,-101 10,-101"/>
<text text-anchor="start" x="30" y="-109.2" font-family="Helvetica,sans-Serif" font-size="11.00">volume_24h</text>
<polygon fill="none" stroke="black" points="255,-101 255,-123 370,-123 370,-101 255,-101"/>
<text text-anchor="start" x="258" y="-109.2" font-family="Helvetica,sans-Serif" font-size="11.00">numeric[0]</text>
<polygon fill="none" stroke="black" points="10,-79 10,-101 255,-101 255,-79 10,-79"/>
<text text-anchor="start" x="30" y="-87.2" font-family="Helvetica,sans-Serif" font-size="11.00">metadata_updated_at</text>
<polygon fill="none" stroke="black" points="255,-79 255,-101 370,-101 370,-79 255,-79"/>
<text text-anchor="start" x="258" y="-87.2" font-family="Helvetica,sans-Serif" font-size="11.00">timestamp[29,6]</text>
<polygon fill="none" stroke="black" points="10,-57 10,-79 255,-79 255,-57 10,-57"/>
<text text-anchor="start" x="30" y="-65.2" font-family="Helvetica,sans-Serif" font-size="11.00">transfer_count</text>
<polygon fill="none" stroke="black" points="255,-57 255,-79 370,-79 370,-57 255,-57"/>
<text text-anchor="start" x="258" y="-65.2" font-family="Helvetica,sans-Serif" font-size="11.00">int4[10]</text>
<polygon fill="#ffffff" stroke="transparent" points="10,-39 10,-57 370,-57 370,-39 10,-39"/>
<polygon fill="none" stroke="black" points="10,-39 10,-57 370,-57 370,-39 10,-39"/>
<polygon fill="#ffffff" stroke="transparent" points="11,-40 11,-56 135,-56 135,-40 11,-40"/>
<text text-anchor="start" x="13" y="-45.2" font-family="Helvetica,sans-Serif" font-size="11.00">&lt; 0</text>
<polygon fill="#ffffff" stroke="transparent" points="135,-40 135,-56 246,-56 246,-40 135,-40"/>
<text text-anchor="start" x="186.5" y="-45.2" font-family="Helvetica,sans-Serif" font-size="11.00"> &#160;</text>
<polygon fill="#ffffff" stroke="transparent" points="246,-40 246,-56 369,-56 369,-40 246,-40"/>
<text text-anchor="start" x="347" y="-45.2" font-family="Helvetica,sans-Serif" font-size="11.00">1 &gt;</text>
<polygon fill="black" stroke="black" points="135,-40 135,-56 135,-56 135,-40 135,-40"/>
<polygon fill="black" stroke="black" points="246,-40 246,-56 246,-56 246,-40 246,-40"/>
<polygon fill="none" stroke="black" stroke-width="2" points="9,-38 9,-498 371,-498 371,-38 9,-38"/>
</a>
</g>
</g>
<!-- token_instances&#45;&gt;tokens -->
<g id="edge1" class="edge">
<title>token_instances:w&#45;&gt;tokens:e</title>
<path fill="none" stroke="black" d="M405.49,-332C394.18,-332 386.99,-332 371,-332"/>
<polygon fill="black" stroke="black" points="412,-332 420,-335.6 416,-332 420,-332 420,-332 420,-332 416,-332 420,-328.4 412,-332 412,-332"/>
<ellipse fill="none" stroke="black" cx="408.8" cy="-332" rx="3.2" ry="3.2"/>
</g>
</g>
</svg>
