<?xml version="1.0" encoding="UTF-8" standalone="no"?>
<!DOCTYPE svg PUBLIC "-//W3C//DTD SVG 1.1//EN"
 "http://www.w3.org/Graphics/SVG/1.1/DTD/svg11.dtd">
<!-- Generated by graphviz version 9.0.0 (20230911.1827)
 -->
<!-- Title: oneDegreeRelationshipsDiagramImplied Pages: 1 -->
<svg width="569pt" height="393pt"
 viewBox="0.00 0.00 569.00 393.00" xmlns="http://www.w3.org/2000/svg" xmlns:xlink="http://www.w3.org/1999/xlink">
<g id="graph0" class="graph" transform="scale(1 1) rotate(0) translate(4 389)">
<title>oneDegreeRelationshipsDiagramImplied</title>
<polygon fill="#ffffff" stroke="none" points="-4,4 -4,-389 565,-389 565,4 -4,4"/>
<text text-anchor="middle" x="71.38" y="-5.55" font-family="Helvetica,sans-Serif" font-size="11.00">Generated by SchemaSpy</text>
<!-- token_instances -->
<g id="node1" class="node">
<title>token_instances</title>
<g id="a_node1"><a xlink:href="../../tables/token_instances.html" xlink:title="token_instances" target="_top">
<polygon fill="#ffffff" stroke="none" points="257,-97 257,-339 553,-339 553,-97 257,-97"/>
<polygon fill="#f5f5f5" stroke="none" points="259,-315 259,-337 551,-337 551,-315 259,-315"/>
<polygon fill="none" stroke="black" points="259,-315 259,-337 551,-337 551,-315 259,-315"/>
<text text-anchor="start" x="264" y="-322.55" font-family="Helvetica,sans-Serif" font-weight="bold" font-size="11.00">token_instances</text>
<text text-anchor="start" x="516.75" y="-321.55" font-family="Helvetica,sans-Serif" font-size="11.00">[table]</text>
<polygon fill="none" stroke="black" points="259,-293 259,-315 453,-315 453,-293 259,-293"/>
<image xlink:href="../../images/primaryKeys.png" width="11px" height="12px" preserveAspectRatio="xMinYMin meet" x="264" y="-310"/>
<text text-anchor="start" x="279" y="-299.55" font-family="Helvetica,sans-Serif" font-size="11.00">token_id</text>
<polygon fill="none" stroke="black" points="453,-293 453,-315 551,-315 551,-293 453,-293"/>
<text text-anchor="start" x="456" y="-299.55" font-family="Helvetica,sans-Serif" font-size="11.00">numeric[78]</text>
<polygon fill="none" stroke="black" points="259,-271 259,-293 453,-293 453,-271 259,-271"/>
<image xlink:href="../../images/primaryKeys.png" width="11px" height="12px" preserveAspectRatio="xMinYMin meet" x="264" y="-288"/>
<text text-anchor="start" x="279" y="-277.55" font-family="Helvetica,sans-Serif" font-size="11.00">token_contract_address_hash</text>
<polygon fill="none" stroke="black" points="453,-271 453,-293 551,-293 551,-271 453,-271"/>
<text text-anchor="start" x="455.88" y="-277.55" font-family="Helvetica,sans-Serif" font-size="11.00">bytea[2147483647]</text>
<polygon fill="none" stroke="black" points="259,-249 259,-271 453,-271 453,-249 259,-249"/>
<text text-anchor="start" x="279" y="-255.55" font-family="Helvetica,sans-Serif" font-size="11.00">metadata</text>
<polygon fill="none" stroke="black" points="453,-249 453,-271 551,-271 551,-249 453,-249"/>
<text text-anchor="start" x="456" y="-255.55" font-family="Helvetica,sans-Serif" font-size="11.00">jsonb[2147483647]</text>
<polygon fill="none" stroke="black" points="259,-227 259,-249 453,-249 453,-227 259,-227"/>
<text text-anchor="start" x="279" y="-233.55" font-family="Helvetica,sans-Serif" font-size="11.00">inserted_at</text>
<polygon fill="none" stroke="black" points="453,-227 453,-249 551,-249 551,-227 453,-227"/>
<text text-anchor="start" x="456" y="-233.55" font-family="Helvetica,sans-Serif" font-size="11.00">timestamp[29,6]</text>
<polygon fill="none" stroke="black" points="259,-205 259,-227 453,-227 453,-205 259,-205"/>
<text text-anchor="start" x="279" y="-211.55" font-family="Helvetica,sans-Serif" font-size="11.00">updated_at</text>
<polygon fill="none" stroke="black" points="453,-205 453,-227 551,-227 551,-205 453,-205"/>
<text text-anchor="start" x="456" y="-211.55" font-family="Helvetica,sans-Serif" font-size="11.00">timestamp[29,6]</text>
<polygon fill="#ffffff" stroke="none" points="259,-183 259,-205 453,-205 453,-183 259,-183"/>
<polygon fill="none" stroke="black" points="259,-183 259,-205 453,-205 453,-183 259,-183"/>
<text text-anchor="start" x="279" y="-189.55" font-family="Helvetica,sans-Serif" font-size="11.00">error</text>
<polygon fill="none" stroke="black" points="453,-183 453,-205 551,-205 551,-183 453,-183"/>
<text text-anchor="start" x="456" y="-189.55" font-family="Helvetica,sans-Serif" font-size="11.00">varchar[255]</text>
<polygon fill="#ffffff" stroke="none" points="259,-161 259,-183 453,-183 453,-161 259,-161"/>
<polygon fill="none" stroke="black" points="259,-161 259,-183 453,-183 453,-161 259,-161"/>
<text text-anchor="start" x="279" y="-167.55" font-family="Helvetica,sans-Serif" font-size="11.00">owner_address_hash</text>
<polygon fill="none" stroke="black" points="453,-161 453,-183 551,-183 551,-161 453,-161"/>
<text text-anchor="start" x="455.88" y="-167.55" font-family="Helvetica,sans-Serif" font-size="11.00">bytea[2147483647]</text>
<polygon fill="none" stroke="black" points="259,-139 259,-161 453,-161 453,-139 259,-139"/>
<text text-anchor="start" x="279" y="-145.55" font-family="Helvetica,sans-Serif" font-size="11.00">owner_updated_at_block</text>
<polygon fill="none" stroke="black" points="453,-139 453,-161 551,-161 551,-139 453,-139"/>
<text text-anchor="start" x="456" y="-145.55" font-family="Helvetica,sans-Serif" font-size="11.00">int8[19]</text>
<polygon fill="none" stroke="black" points="259,-117 259,-139 453,-139 453,-117 259,-117"/>
<image xlink:href="../../images/foreignKeys.png" width="11px" height="12px" preserveAspectRatio="xMinYMin meet" x="264" y="-134"/>
<text text-anchor="start" x="279" y="-123.55" font-family="Helvetica,sans-Serif" font-size="11.00">owner_updated_at_log_index</text>
<polygon fill="none" stroke="black" points="453,-117 453,-139 551,-139 551,-117 453,-117"/>
<text text-anchor="start" x="456" y="-123.55" font-family="Helvetica,sans-Serif" font-size="11.00">int4[10]</text>
<polygon fill="#ffffff" stroke="none" points="259,-99 259,-117 360,-117 360,-99 259,-99"/>
<polygon fill="none" stroke="black" points="259,-99 259,-117 360,-117 360,-99 259,-99"/>
<text text-anchor="start" x="262" y="-103.55" font-family="Helvetica,sans-Serif" font-size="11.00">&lt; 2</text>
<polygon fill="#ffffff" stroke="none" points="360,-99 360,-117 453,-117 453,-99 360,-99"/>
<polygon fill="none" stroke="black" points="360,-99 360,-117 453,-117 453,-99 360,-99"/>
<text text-anchor="start" x="444" y="-103.55" font-family="Helvetica,sans-Serif" font-size="11.00"> &#160;</text>
<polygon fill="#ffffff" stroke="none" points="453,-99 453,-117 551,-117 551,-99 453,-99"/>
<polygon fill="none" stroke="black" points="453,-99 453,-117 551,-117 551,-99 453,-99"/>
<text text-anchor="start" x="532.25" y="-103.55" font-family="Helvetica,sans-Serif" font-size="11.00">0 &gt;</text>
<polygon fill="none" stroke="black" stroke-width="2" points="258,-98 258,-338 552,-338 552,-98 258,-98"/>
</a>
</g>
</g>
<!-- withdrawals -->
<g id="node2" class="node">
<title>withdrawals</title>
<g id="a_node2"><a xlink:href="../../tables/withdrawals.html" xlink:title="withdrawals" target="_top">
<polygon fill="#ffffff" stroke="none" points="53.5,-37 53.5,-161 162.5,-161 162.5,-37 53.5,-37"/>
<polygon fill="#f5f5f5" stroke="none" points="53.5,-139 53.5,-161 162.5,-161 162.5,-139 53.5,-139"/>
<polygon fill="none" stroke="black" points="53.5,-139 53.5,-161 162.5,-161 162.5,-139 53.5,-139"/>
<text text-anchor="start" x="58.5" y="-146.55" font-family="Helvetica,sans-Serif" font-weight="bold" font-size="11.00">withdrawals</text>
<text text-anchor="start" x="128.25" y="-145.55" font-family="Helvetica,sans-Serif" font-size="11.00">[table]</text>
<polygon fill="none" stroke="black" points="53.5,-117 53.5,-139 162.5,-139 162.5,-117 53.5,-117"/>
<image xlink:href="../../images/primaryKeys.png" width="11px" height="12px" preserveAspectRatio="xMinYMin meet" x="58.5" y="-134"/>
<text text-anchor="start" x="73.5" y="-123.55" font-family="Helvetica,sans-Serif" font-size="11.00">index</text>
<polygon fill="#ffffff" stroke="none" points="53.5,-95 53.5,-117 162.5,-117 162.5,-95 53.5,-95"/>
<polygon fill="none" stroke="black" points="53.5,-95 53.5,-117 162.5,-117 162.5,-95 53.5,-95"/>
<text text-anchor="start" x="73.5" y="-101.55" font-family="Helvetica,sans-Serif" font-size="11.00">address_hash</text>
<polygon fill="#ffffff" stroke="none" points="53.5,-73 53.5,-95 162.5,-95 162.5,-73 53.5,-73"/>
<polygon fill="none" stroke="black" points="53.5,-73 53.5,-95 162.5,-95 162.5,-73 53.5,-73"/>
<image xlink:href="../../images/foreignKeys.png" width="11px" height="12px" preserveAspectRatio="xMinYMin meet" x="58.5" y="-90"/>
<text text-anchor="start" x="73.5" y="-79.55" font-family="Helvetica,sans-Serif" font-size="11.00">block_hash</text>
<polygon fill="none" stroke="black" points="53.5,-55 53.5,-73 162.5,-73 162.5,-55 53.5,-55"/>
<text text-anchor="start" x="56.5" y="-59.55" font-family="Helvetica,sans-Serif" font-size="11.00">...</text>
<polygon fill="#ffffff" stroke="none" points="53.5,-37 53.5,-55 101.5,-55 101.5,-37 53.5,-37"/>
<polygon fill="none" stroke="black" points="53.5,-37 53.5,-55 101.5,-55 101.5,-37 53.5,-37"/>
<text text-anchor="start" x="56.5" y="-41.55" font-family="Helvetica,sans-Serif" font-size="11.00">&lt; 1</text>
<polygon fill="#ffffff" stroke="none" points="101.5,-37 101.5,-55 127.5,-55 127.5,-37 101.5,-37"/>
<polygon fill="none" stroke="black" points="101.5,-37 101.5,-55 127.5,-55 127.5,-37 101.5,-37"/>
<text text-anchor="start" x="118.5" y="-41.55" font-family="Helvetica,sans-Serif" font-size="11.00"> &#160;</text>
<polygon fill="#ffffff" stroke="none" points="127.5,-37 127.5,-55 162.5,-55 162.5,-37 127.5,-37"/>
<polygon fill="none" stroke="black" points="127.5,-37 127.5,-55 162.5,-55 162.5,-37 127.5,-37"/>
<text text-anchor="start" x="143.75" y="-41.55" font-family="Helvetica,sans-Serif" font-size="11.00">5 &gt;</text>
</a>
</g>
</g>
<!-- token_instances&#45;&gt;withdrawals -->
<g id="edge1" class="edge">
<title>token_instances:w&#45;&gt;withdrawals:e</title>
<path fill="none" stroke="black" stroke-dasharray="5,2" d="M242.46,-128C212.78,-128 200.07,-128 164,-128"/>
<polygon fill="black" stroke="black" points="249.67,-128 257.67,-131.6 254,-128 257.33,-128 257.33,-128 257.33,-128 254,-128 257.67,-124.4 249.67,-128"/>
<ellipse fill="none" stroke="black" cx="244.75" cy="-128" rx="3.2" ry="3.2"/>
</g>
<!-- tokens -->
<g id="node3" class="node">
<title>tokens</title>
<g id="a_node3"><a xlink:href="../../tables/tokens.html" xlink:title="tokens" target="_top">
<polygon fill="#ffffff" stroke="none" points="8,-235 8,-381 208,-381 208,-235 8,-235"/>
<polygon fill="#f5f5f5" stroke="none" points="8,-359 8,-381 208,-381 208,-359 8,-359"/>
<polygon fill="none" stroke="black" points="8,-359 8,-381 208,-381 208,-359 8,-359"/>
<text text-anchor="start" x="12.38" y="-366.55" font-family="Helvetica,sans-Serif" font-weight="bold" font-size="11.00">tokens</text>
<text text-anchor="start" x="173.75" y="-365.55" font-family="Helvetica,sans-Serif" font-size="11.00">[table]</text>
<polygon fill="#ffffff" stroke="none" points="8,-337 8,-359 208,-359 208,-337 8,-337"/>
<polygon fill="none" stroke="black" points="8,-337 8,-359 208,-359 208,-337 8,-337"/>
<text text-anchor="start" x="28" y="-343.55" font-family="Helvetica,sans-Serif" font-size="11.00">symbol</text>
<polygon fill="#ffffff" stroke="none" points="8,-315 8,-337 208,-337 208,-315 8,-315"/>
<polygon fill="none" stroke="black" points="8,-315 8,-337 208,-337 208,-315 8,-315"/>
<text text-anchor="start" x="28" y="-321.55" font-family="Helvetica,sans-Serif" font-size="11.00">type</text>
<polygon fill="#ffffff" stroke="none" points="8,-293 8,-315 208,-315 208,-293 8,-293"/>
<polygon fill="none" stroke="black" points="8,-293 8,-315 208,-315 208,-293 8,-293"/>
<text text-anchor="start" x="28" y="-299.55" font-family="Helvetica,sans-Serif" font-size="11.00">cataloged</text>
<polygon fill="none" stroke="black" points="8,-271 8,-293 208,-293 208,-271 8,-271"/>
<image xlink:href="../../images/primaryKeys.png" width="11px" height="12px" preserveAspectRatio="xMinYMin meet" x="13" y="-288"/>
<text text-anchor="start" x="28" y="-277.55" font-family="Helvetica,sans-Serif" font-size="11.00">contract_address_hash</text>
<polygon fill="none" stroke="black" points="8,-253 8,-271 208,-271 208,-253 8,-253"/>
<text text-anchor="start" x="11" y="-257.55" font-family="Helvetica,sans-Serif" font-size="11.00">...</text>
<polygon fill="#ffffff" stroke="none" points="8,-235 8,-253 97,-253 97,-235 8,-235"/>
<polygon fill="none" stroke="black" points="8,-235 8,-253 97,-253 97,-235 8,-235"/>
<text text-anchor="start" x="11" y="-239.55" font-family="Helvetica,sans-Serif" font-size="11.00"> &#160;</text>
<polygon fill="#ffffff" stroke="none" points="97,-235 97,-253 148,-253 148,-235 97,-235"/>
<polygon fill="none" stroke="black" points="97,-235 97,-253 148,-253 148,-235 97,-235"/>
<text text-anchor="start" x="139" y="-239.55" font-family="Helvetica,sans-Serif" font-size="11.00"> &#160;</text>
<polygon fill="#ffffff" stroke="none" points="148,-235 148,-253 208,-253 208,-235 148,-235"/>
<polygon fill="none" stroke="black" points="148,-235 148,-253 208,-253 208,-235 148,-235"/>
<text text-anchor="start" x="189.25" y="-239.55" font-family="Helvetica,sans-Serif" font-size="11.00">1 &gt;</text>
</a>
</g>
</g>
<!-- token_instances&#45;&gt;tokens -->
<g id="edge2" class="edge">
<title>token_instances:w&#45;&gt;tokens:e</title>
<path fill="none" stroke="black" d="M242.42,-282C231.71,-282 224.48,-282 209,-282"/>
<polygon fill="black" stroke="black" points="249.67,-282 257.67,-285.6 254,-282 257.33,-282 257.33,-282 257.33,-282 254,-282 257.67,-278.4 249.67,-282"/>
<ellipse fill="none" stroke="black" cx="244.75" cy="-282" rx="3.2" ry="3.2"/>
</g>
</g>
</svg>
