<?xml version="1.0" encoding="UTF-8" standalone="no"?>
<!DOCTYPE svg PUBLIC "-//W3C//DTD SVG 1.1//EN"
 "http://www.w3.org/Graphics/SVG/1.1/DTD/svg11.dtd">
<!-- Generated by graphviz version 2.38.0 (20140413.2041)
 -->
<!-- Title: oneDegreeRelationshipsDiagram Pages: 1 -->
<svg width="541pt" height="245pt"
 viewBox="0.00 0.00 541.00 245.00" xmlns="http://www.w3.org/2000/svg" xmlns:xlink="http://www.w3.org/1999/xlink">
<g id="graph0" class="graph" transform="scale(1 1) rotate(0) translate(4 241)">
<title>oneDegreeRelationshipsDiagram</title>
<polygon fill="#ffffff" stroke="none" points="-4,4 -4,-241 537,-241 537,4 -4,4"/>
<text text-anchor="middle" x="74.5" y="-7.2" font-family="Helvetica,sans-Serif" font-size="11.00">Generated by SchemaSpy</text>
<!-- token_instances -->
<g id="node1" class="node"><title>token_instances</title>
<g id="a_node1"><a xlink:href="../../tables/token_instances.html" xlink:title="token_instances" target="_top">
<polygon fill="#ffffff" stroke="none" points="214,-37 214,-213 525,-213 525,-37 214,-37"/>
<polygon fill="#f5f5f5" stroke="none" points="216.5,-189 216.5,-211 523.5,-211 523.5,-189 216.5,-189"/>
<polygon fill="none" stroke="black" points="216.5,-189 216.5,-211 523.5,-211 523.5,-189 216.5,-189"/>
<text text-anchor="start" x="221.5" y="-198.2" font-family="Helvetica,sans-Serif" font-weight="bold" font-size="11.00">token_instances</text>
<text text-anchor="start" x="484.5" y="-197.2" font-family="Helvetica,sans-Serif" font-size="11.00">[table]</text>
<polygon fill="none" stroke="black" points="216.5,-167 216.5,-189 413.5,-189 413.5,-167 216.5,-167"/>
<image xlink:href="../../images/primaryKeys.png" width="11px" height="12px" preserveAspectRatio="xMinYMin meet" x="221.5" y="-184"/>
<text text-anchor="start" x="236.5" y="-175.2" font-family="Helvetica,sans-Serif" font-size="11.00">token_id</text>
<polygon fill="none" stroke="black" points="413.5,-167 413.5,-189 523.5,-189 523.5,-167 413.5,-167"/>
<text text-anchor="start" x="416.5" y="-175.2" font-family="Helvetica,sans-Serif" font-size="11.00">numeric[78]</text>
<polygon fill="none" stroke="black" points="216.5,-145 216.5,-167 413.5,-167 413.5,-145 216.5,-145"/>
<image xlink:href="../../images/primaryKeys.png" width="11px" height="12px" preserveAspectRatio="xMinYMin meet" x="221.5" y="-162"/>
<text text-anchor="start" x="236.5" y="-153.2" font-family="Helvetica,sans-Serif" font-size="11.00">token_contract_address_hash</text>
<polygon fill="none" stroke="black" points="413.5,-145 413.5,-167 523.5,-167 523.5,-145 413.5,-145"/>
<text text-anchor="start" x="416.5" y="-153.2" font-family="Helvetica,sans-Serif" font-size="11.00">bytea[2147483647]</text>
<polygon fill="none" stroke="black" points="216.5,-123 216.5,-145 413.5,-145 413.5,-123 216.5,-123"/>
<text text-anchor="start" x="236.5" y="-131.2" font-family="Helvetica,sans-Serif" font-size="11.00">metadata</text>
<polygon fill="none" stroke="black" points="413.5,-123 413.5,-145 523.5,-145 523.5,-123 413.5,-123"/>
<text text-anchor="start" x="416.5" y="-131.2" font-family="Helvetica,sans-Serif" font-size="11.00">jsonb[2147483647]</text>
<polygon fill="none" stroke="black" points="216.5,-101 216.5,-123 413.5,-123 413.5,-101 216.5,-101"/>
<text text-anchor="start" x="236.5" y="-109.2" font-family="Helvetica,sans-Serif" font-size="11.00">inserted_at</text>
<polygon fill="none" stroke="black" points="413.5,-101 413.5,-123 523.5,-123 523.5,-101 413.5,-101"/>
<text text-anchor="start" x="416.5" y="-109.2" font-family="Helvetica,sans-Serif" font-size="11.00">timestamp[29,6]</text>
<polygon fill="none" stroke="black" points="216.5,-79 216.5,-101 413.5,-101 413.5,-79 216.5,-79"/>
<text text-anchor="start" x="236.5" y="-87.2" font-family="Helvetica,sans-Serif" font-size="11.00">updated_at</text>
<polygon fill="none" stroke="black" points="413.5,-79 413.5,-101 523.5,-101 523.5,-79 413.5,-79"/>
<text text-anchor="start" x="416.5" y="-87.2" font-family="Helvetica,sans-Serif" font-size="11.00">timestamp[29,6]</text>
<polygon fill="#ffffff" stroke="none" points="216.5,-57 216.5,-79 413.5,-79 413.5,-57 216.5,-57"/>
<polygon fill="none" stroke="black" points="216.5,-57 216.5,-79 413.5,-79 413.5,-57 216.5,-57"/>
<text text-anchor="start" x="236.5" y="-65.2" font-family="Helvetica,sans-Serif" font-size="11.00">error</text>
<polygon fill="none" stroke="black" points="413.5,-57 413.5,-79 523.5,-79 523.5,-57 413.5,-57"/>
<text text-anchor="start" x="416.5" y="-65.2" font-family="Helvetica,sans-Serif" font-size="11.00">varchar[255]</text>
<polygon fill="#ffffff" stroke="none" points="216.5,-39 216.5,-57 305.5,-57 305.5,-39 216.5,-39"/>
<polygon fill="none" stroke="black" points="216.5,-39 216.5,-57 305.5,-57 305.5,-39 216.5,-39"/>
<text text-anchor="start" x="219.5" y="-45.2" font-family="Helvetica,sans-Serif" font-size="11.00">&lt; 1</text>
<polygon fill="#ffffff" stroke="none" points="305.5,-39 305.5,-57 413.5,-57 413.5,-39 305.5,-39"/>
<polygon fill="none" stroke="black" points="305.5,-39 305.5,-57 413.5,-57 413.5,-39 305.5,-39"/>
<text text-anchor="start" x="374.5" y="-45.2" font-family="Helvetica,sans-Serif" font-size="11.00">0 rows</text>
<polygon fill="#ffffff" stroke="none" points="413.5,-39 413.5,-57 523.5,-57 523.5,-39 413.5,-39"/>
<polygon fill="none" stroke="black" points="413.5,-39 413.5,-57 523.5,-57 523.5,-39 413.5,-39"/>
<text text-anchor="start" x="503.5" y="-45.2" font-family="Helvetica,sans-Serif" font-size="11.00">0 &gt;</text>
<polygon fill="none" stroke="black" stroke-width="2" points="215,-38 215,-212 524,-212 524,-38 215,-38"/>
</a>
</g>
</g>
<!-- tokens -->
<g id="node2" class="node"><title>tokens</title>
<g id="a_node2"><a xlink:href="../../tables/tokens.html" xlink:title="tokens" target="_top">
<polygon fill="#ffffff" stroke="none" points="8,-109 8,-233 165,-233 165,-109 8,-109"/>
<polygon fill="#f5f5f5" stroke="none" points="8.5,-211 8.5,-233 165.5,-233 165.5,-211 8.5,-211"/>
<polygon fill="none" stroke="black" points="8.5,-211 8.5,-233 165.5,-233 165.5,-211 8.5,-211"/>
<text text-anchor="start" x="13.5" y="-220.2" font-family="Helvetica,sans-Serif" font-weight="bold" font-size="11.00">tokens</text>
<text text-anchor="start" x="126.5" y="-219.2" font-family="Helvetica,sans-Serif" font-size="11.00">[table]</text>
<polygon fill="#ffffff" stroke="none" points="8.5,-189 8.5,-211 165.5,-211 165.5,-189 8.5,-189"/>
<polygon fill="none" stroke="black" points="8.5,-189 8.5,-211 165.5,-211 165.5,-189 8.5,-189"/>
<text text-anchor="start" x="28.5" y="-197.2" font-family="Helvetica,sans-Serif" font-size="11.00">symbol</text>
<polygon fill="#ffffff" stroke="none" points="8.5,-167 8.5,-189 165.5,-189 165.5,-167 8.5,-167"/>
<polygon fill="none" stroke="black" points="8.5,-167 8.5,-189 165.5,-189 165.5,-167 8.5,-167"/>
<text text-anchor="start" x="28.5" y="-175.2" font-family="Helvetica,sans-Serif" font-size="11.00">type</text>
<polygon fill="none" stroke="black" points="8.5,-145 8.5,-167 165.5,-167 165.5,-145 8.5,-145"/>
<image xlink:href="../../images/primaryKeys.png" width="11px" height="12px" preserveAspectRatio="xMinYMin meet" x="13.5" y="-162"/>
<text text-anchor="start" x="28.5" y="-153.2" font-family="Helvetica,sans-Serif" font-size="11.00">contract_address_hash</text>
<polygon fill="none" stroke="black" points="8.5,-127 8.5,-145 165.5,-145 165.5,-127 8.5,-127"/>
<text text-anchor="start" x="11.5" y="-133.2" font-family="Helvetica,sans-Serif" font-size="11.00">...</text>
<polygon fill="#ffffff" stroke="none" points="8.5,-109 8.5,-127 65.5,-127 65.5,-109 8.5,-109"/>
<polygon fill="none" stroke="black" points="8.5,-109 8.5,-127 65.5,-127 65.5,-109 8.5,-109"/>
<text text-anchor="start" x="11.5" y="-115.2" font-family="Helvetica,sans-Serif" font-size="11.00">&lt; 1</text>
<polygon fill="#ffffff" stroke="none" points="65.5,-109 65.5,-127 124.5,-127 124.5,-109 65.5,-109"/>
<polygon fill="none" stroke="black" points="65.5,-109 65.5,-127 124.5,-127 124.5,-109 65.5,-109"/>
<text text-anchor="start" x="85.5" y="-115.2" font-family="Helvetica,sans-Serif" font-size="11.00">0 rows</text>
<polygon fill="#ffffff" stroke="none" points="124.5,-109 124.5,-127 165.5,-127 165.5,-109 124.5,-109"/>
<polygon fill="none" stroke="black" points="124.5,-109 124.5,-127 165.5,-127 165.5,-109 124.5,-109"/>
<text text-anchor="start" x="145.5" y="-115.2" font-family="Helvetica,sans-Serif" font-size="11.00">3 &gt;</text>
</a>
</g>
</g>
<!-- token_instances&#45;&gt;tokens -->
<g id="edge1" class="edge"><title>token_instances:token_contract_address_hash:w&#45;&gt;tokens:contract_address_hash:e</title>
<path fill="none" stroke="black" d="M200.991,-156C189.677,-156 182.493,-156 166.5,-156"/>
<polygon fill="black" stroke="black" points="207.5,-156 215.5,-159.6 211.5,-156 215.5,-156 215.5,-156 215.5,-156 211.5,-156 215.5,-152.4 207.5,-156 207.5,-156"/>
<ellipse fill="none" stroke="black" cx="204.3" cy="-156" rx="3.2" ry="3.2"/>
</g>
</g>
</svg>
