<?xml version="1.0" encoding="UTF-8" standalone="no"?>
<!DOCTYPE svg PUBLIC "-//W3C//DTD SVG 1.1//EN"
 "http://www.w3.org/Graphics/SVG/1.1/DTD/svg11.dtd">
<!-- Generated by graphviz version 2.38.0 (20140413.2041)
 -->
<!-- Title: twoDegreesRelationshipsDiagram Pages: 1 -->
<svg width="695pt" height="462pt"
 viewBox="0.00 0.00 695.00 462.00" xmlns="http://www.w3.org/2000/svg" xmlns:xlink="http://www.w3.org/1999/xlink">
<g id="graph0" class="graph" transform="scale(1 1) rotate(0) translate(4 458)">
<title>twoDegreesRelationshipsDiagram</title>
<polygon fill="#ffffff" stroke="none" points="-4,4 -4,-458 691,-458 691,4 -4,4"/>
<text text-anchor="middle" x="74.5" y="-7.2" font-family="Helvetica,sans-Serif" font-size="11.00">Generated by SchemaSpy</text>
<!-- address_current_token_balances -->
<g id="node1" class="node"><title>address_current_token_balances</title>
<g id="a_node1"><a xlink:href="../../tables/address_current_token_balances.html" xlink:title="address_current_token_balances" target="_top">
<polygon fill="#ffffff" stroke="none" points="407,-392 407,-450 640,-450 640,-392 407,-392"/>
<polygon fill="#f5f5f5" stroke="none" points="407.5,-428 407.5,-450 640.5,-450 640.5,-428 407.5,-428"/>
<polygon fill="none" stroke="black" points="407.5,-428 407.5,-450 640.5,-450 640.5,-428 407.5,-428"/>
<text text-anchor="start" x="412.5" y="-437.2" font-family="Helvetica,sans-Serif" font-weight="bold" font-size="11.00">address_current_token_balances</text>
<text text-anchor="start" x="601.5" y="-436.2" font-family="Helvetica,sans-Serif" font-size="11.00">[table]</text>
<polygon fill="none" stroke="black" points="407.5,-410 407.5,-428 640.5,-428 640.5,-410 407.5,-410"/>
<text text-anchor="start" x="410.5" y="-416.2" font-family="Helvetica,sans-Serif" font-size="11.00">...</text>
<polygon fill="#ffffff" stroke="none" points="407.5,-392 407.5,-410 507.5,-410 507.5,-392 407.5,-392"/>
<polygon fill="none" stroke="black" points="407.5,-392 407.5,-410 507.5,-410 507.5,-392 407.5,-392"/>
<text text-anchor="start" x="410.5" y="-398.2" font-family="Helvetica,sans-Serif" font-size="11.00">&lt; 2</text>
<polygon fill="#ffffff" stroke="none" points="507.5,-392 507.5,-410 588.5,-410 588.5,-392 507.5,-392"/>
<polygon fill="none" stroke="black" points="507.5,-392 507.5,-410 588.5,-410 588.5,-392 507.5,-392"/>
<text text-anchor="start" x="549.5" y="-398.2" font-family="Helvetica,sans-Serif" font-size="11.00">0 rows</text>
<polygon fill="#ffffff" stroke="none" points="588.5,-392 588.5,-410 640.5,-410 640.5,-392 588.5,-392"/>
<polygon fill="none" stroke="black" points="588.5,-392 588.5,-410 640.5,-410 640.5,-392 588.5,-392"/>
<text text-anchor="start" x="630.5" y="-398.2" font-family="Helvetica,sans-Serif" font-size="11.00"> &#160;</text>
</a>
</g>
</g>
<!-- addresses -->
<g id="node2" class="node"><title>addresses</title>
<g id="a_node2"><a xlink:href="../../tables/addresses.html" xlink:title="addresses" target="_top">
<polygon fill="#ffffff" stroke="none" points="8,-249 8,-307 113,-307 113,-249 8,-249"/>
<polygon fill="#f5f5f5" stroke="none" points="8.5,-285 8.5,-307 113.5,-307 113.5,-285 8.5,-285"/>
<polygon fill="none" stroke="black" points="8.5,-285 8.5,-307 113.5,-307 113.5,-285 8.5,-285"/>
<text text-anchor="start" x="13.5" y="-294.2" font-family="Helvetica,sans-Serif" font-weight="bold" font-size="11.00">addresses</text>
<text text-anchor="start" x="74.5" y="-293.2" font-family="Helvetica,sans-Serif" font-size="11.00">[table]</text>
<polygon fill="none" stroke="black" points="8.5,-267 8.5,-285 113.5,-285 113.5,-267 8.5,-267"/>
<text text-anchor="start" x="11.5" y="-273.2" font-family="Helvetica,sans-Serif" font-size="11.00">...</text>
<polygon fill="#ffffff" stroke="none" points="8.5,-249 8.5,-267 31.5,-267 31.5,-249 8.5,-249"/>
<polygon fill="none" stroke="black" points="8.5,-249 8.5,-267 31.5,-267 31.5,-249 8.5,-249"/>
<text text-anchor="start" x="11.5" y="-255.2" font-family="Helvetica,sans-Serif" font-size="11.00"> &#160;</text>
<polygon fill="#ffffff" stroke="none" points="31.5,-249 31.5,-267 78.5,-267 78.5,-249 31.5,-249"/>
<polygon fill="none" stroke="black" points="31.5,-249 31.5,-267 78.5,-267 78.5,-249 31.5,-249"/>
<text text-anchor="start" x="39.5" y="-255.2" font-family="Helvetica,sans-Serif" font-size="11.00">2 rows</text>
<polygon fill="#ffffff" stroke="none" points="78.5,-249 78.5,-267 113.5,-267 113.5,-249 78.5,-249"/>
<polygon fill="none" stroke="black" points="78.5,-249 78.5,-267 113.5,-267 113.5,-249 78.5,-249"/>
<text text-anchor="start" x="86.5" y="-255.2" font-family="Helvetica,sans-Serif" font-size="11.00">19 &gt;</text>
</a>
</g>
</g>
<!-- address_current_token_balances&#45;&gt;addresses -->
<g id="edge1" class="edge"><title>address_current_token_balances:elipses:w&#45;&gt;addresses:elipses:e</title>
<path fill="none" stroke="black" d="M392.054,-419.088C287.407,-420.327 239.353,-433.259 154,-364 120.71,-336.987 157.37,-276 114.5,-276"/>
<polygon fill="black" stroke="black" points="398.5,-419.049 406.522,-422.6 402.5,-419.024 406.5,-419 406.5,-419 406.5,-419 402.5,-419.024 406.478,-415.4 398.5,-419.049 398.5,-419.049"/>
<ellipse fill="none" stroke="black" cx="395.3" cy="-419.068" rx="3.2" ry="3.2"/>
</g>
<!-- tokens -->
<g id="node3" class="node"><title>tokens</title>
<g id="a_node3"><a xlink:href="../../tables/tokens.html" xlink:title="tokens" target="_top">
<polygon fill="#ffffff" stroke="none" points="162,-229 162,-353 319,-353 319,-229 162,-229"/>
<polygon fill="#f5f5f5" stroke="none" points="162.5,-331 162.5,-353 319.5,-353 319.5,-331 162.5,-331"/>
<polygon fill="none" stroke="black" points="162.5,-331 162.5,-353 319.5,-353 319.5,-331 162.5,-331"/>
<text text-anchor="start" x="167.5" y="-340.2" font-family="Helvetica,sans-Serif" font-weight="bold" font-size="11.00">tokens</text>
<text text-anchor="start" x="280.5" y="-339.2" font-family="Helvetica,sans-Serif" font-size="11.00">[table]</text>
<polygon fill="#ffffff" stroke="none" points="162.5,-309 162.5,-331 319.5,-331 319.5,-309 162.5,-309"/>
<polygon fill="none" stroke="black" points="162.5,-309 162.5,-331 319.5,-331 319.5,-309 162.5,-309"/>
<text text-anchor="start" x="182.5" y="-317.2" font-family="Helvetica,sans-Serif" font-size="11.00">symbol</text>
<polygon fill="#ffffff" stroke="none" points="162.5,-287 162.5,-309 319.5,-309 319.5,-287 162.5,-287"/>
<polygon fill="none" stroke="black" points="162.5,-287 162.5,-309 319.5,-309 319.5,-287 162.5,-287"/>
<text text-anchor="start" x="182.5" y="-295.2" font-family="Helvetica,sans-Serif" font-size="11.00">type</text>
<polygon fill="none" stroke="black" points="162.5,-265 162.5,-287 319.5,-287 319.5,-265 162.5,-265"/>
<image xlink:href="../../images/primaryKeys.png" width="11px" height="12px" preserveAspectRatio="xMinYMin meet" x="167.5" y="-282"/>
<text text-anchor="start" x="182.5" y="-273.2" font-family="Helvetica,sans-Serif" font-size="11.00">contract_address_hash</text>
<polygon fill="none" stroke="black" points="162.5,-247 162.5,-265 319.5,-265 319.5,-247 162.5,-247"/>
<text text-anchor="start" x="165.5" y="-253.2" font-family="Helvetica,sans-Serif" font-size="11.00">...</text>
<polygon fill="#ffffff" stroke="none" points="162.5,-229 162.5,-247 219.5,-247 219.5,-229 162.5,-229"/>
<polygon fill="none" stroke="black" points="162.5,-229 162.5,-247 219.5,-247 219.5,-229 162.5,-229"/>
<text text-anchor="start" x="165.5" y="-235.2" font-family="Helvetica,sans-Serif" font-size="11.00">&lt; 1</text>
<polygon fill="#ffffff" stroke="none" points="219.5,-229 219.5,-247 278.5,-247 278.5,-229 219.5,-229"/>
<polygon fill="none" stroke="black" points="219.5,-229 219.5,-247 278.5,-247 278.5,-229 219.5,-229"/>
<text text-anchor="start" x="239.5" y="-235.2" font-family="Helvetica,sans-Serif" font-size="11.00">0 rows</text>
<polygon fill="#ffffff" stroke="none" points="278.5,-229 278.5,-247 319.5,-247 319.5,-229 278.5,-229"/>
<polygon fill="none" stroke="black" points="278.5,-229 278.5,-247 319.5,-247 319.5,-229 278.5,-229"/>
<text text-anchor="start" x="299.5" y="-235.2" font-family="Helvetica,sans-Serif" font-size="11.00">4 &gt;</text>
</a>
</g>
</g>
<!-- address_current_token_balances&#45;&gt;tokens -->
<g id="edge2" class="edge"><title>address_current_token_balances:elipses:w&#45;&gt;tokens:contract_address_hash:e</title>
<path fill="none" stroke="black" d="M391.959,-416.86C377.563,-411.889 372.118,-398.7 360,-382 330.474,-341.308 370.776,-276 320.5,-276"/>
<polygon fill="black" stroke="black" points="398.585,-417.835 405.976,-422.562 402.543,-418.418 406.5,-419 406.5,-419 406.5,-419 402.543,-418.418 407.024,-415.438 398.585,-417.835 398.585,-417.835"/>
<ellipse fill="none" stroke="black" cx="395.419" cy="-417.37" rx="3.2" ry="3.2"/>
</g>
<!-- tokens&#45;&gt;addresses -->
<g id="edge7" class="edge"><title>tokens:contract_address_hash:w&#45;&gt;addresses:elipses:e</title>
<path fill="none" stroke="black" d="M150.82,-276C137.974,-276 131.309,-276 114.5,-276"/>
<polygon fill="black" stroke="black" points="160.7,-272 160.7,-280 159.1,-280 159.1,-272 160.7,-272"/>
<polyline fill="none" stroke="black" points="161.5,-276 157.5,-276 "/>
<ellipse fill="none" stroke="black" cx="154.3" cy="-276" rx="3.2" ry="3.2"/>
</g>
<!-- address_token_balances -->
<g id="node4" class="node"><title>address_token_balances</title>
<g id="a_node4"><a xlink:href="../../tables/address_token_balances.html" xlink:title="address_token_balances" target="_top">
<polygon fill="#ffffff" stroke="none" points="431,-37 431,-95 616,-95 616,-37 431,-37"/>
<polygon fill="#f5f5f5" stroke="none" points="431.5,-73 431.5,-95 616.5,-95 616.5,-73 431.5,-73"/>
<polygon fill="none" stroke="black" points="431.5,-73 431.5,-95 616.5,-95 616.5,-73 431.5,-73"/>
<text text-anchor="start" x="436.5" y="-82.2" font-family="Helvetica,sans-Serif" font-weight="bold" font-size="11.00">address_token_balances</text>
<text text-anchor="start" x="577.5" y="-81.2" font-family="Helvetica,sans-Serif" font-size="11.00">[table]</text>
<polygon fill="none" stroke="black" points="431.5,-55 431.5,-73 616.5,-73 616.5,-55 431.5,-55"/>
<text text-anchor="start" x="434.5" y="-61.2" font-family="Helvetica,sans-Serif" font-size="11.00">...</text>
<polygon fill="#ffffff" stroke="none" points="431.5,-37 431.5,-55 507.5,-55 507.5,-37 431.5,-37"/>
<polygon fill="none" stroke="black" points="431.5,-37 431.5,-55 507.5,-55 507.5,-37 431.5,-37"/>
<text text-anchor="start" x="434.5" y="-43.2" font-family="Helvetica,sans-Serif" font-size="11.00">&lt; 2</text>
<polygon fill="#ffffff" stroke="none" points="507.5,-37 507.5,-55 576.5,-55 576.5,-37 507.5,-37"/>
<polygon fill="none" stroke="black" points="507.5,-37 507.5,-55 576.5,-55 576.5,-37 507.5,-37"/>
<text text-anchor="start" x="537.5" y="-43.2" font-family="Helvetica,sans-Serif" font-size="11.00">0 rows</text>
<polygon fill="#ffffff" stroke="none" points="576.5,-37 576.5,-55 616.5,-55 616.5,-37 576.5,-37"/>
<polygon fill="none" stroke="black" points="576.5,-37 576.5,-55 616.5,-55 616.5,-37 576.5,-37"/>
<text text-anchor="start" x="606.5" y="-43.2" font-family="Helvetica,sans-Serif" font-size="11.00"> &#160;</text>
</a>
</g>
</g>
<!-- address_token_balances&#45;&gt;addresses -->
<g id="edge3" class="edge"><title>address_token_balances:elipses:w&#45;&gt;addresses:elipses:e</title>
<path fill="none" stroke="black" d="M416.04,-64.2222C287.323,-68.2775 254.574,-127.56 154,-219 131.195,-239.734 145.322,-276 114.5,-276"/>
<polygon fill="black" stroke="black" points="422.501,-64.123 430.555,-67.5996 426.5,-64.0615 430.5,-64 430.5,-64 430.5,-64 426.5,-64.0615 430.445,-60.4004 422.501,-64.123 422.501,-64.123"/>
<ellipse fill="none" stroke="black" cx="419.301" cy="-64.1722" rx="3.2" ry="3.2"/>
</g>
<!-- address_token_balances&#45;&gt;tokens -->
<g id="edge4" class="edge"><title>address_token_balances:elipses:w&#45;&gt;tokens:contract_address_hash:e</title>
<path fill="none" stroke="black" d="M415.807,-64.8C390.278,-67.8941 378.322,-80.16 360,-105 313.698,-167.772 398.501,-276 320.5,-276"/>
<polygon fill="black" stroke="black" points="422.512,-64.435 430.696,-67.5947 426.506,-64.2175 430.5,-64 430.5,-64 430.5,-64 426.506,-64.2175 430.304,-60.4053 422.512,-64.435 422.512,-64.435"/>
<ellipse fill="none" stroke="black" cx="419.317" cy="-64.609" rx="3.2" ry="3.2"/>
</g>
<!-- bridged_tokens -->
<g id="node5" class="node"><title>bridged_tokens</title>
<g id="a_node5"><a xlink:href="../../tables/bridged_tokens.html" xlink:title="bridged_tokens" target="_top">
<polygon fill="#ffffff" stroke="none" points="455.5,-313 455.5,-371 591.5,-371 591.5,-313 455.5,-313"/>
<polygon fill="#f5f5f5" stroke="none" points="455.5,-349 455.5,-371 591.5,-371 591.5,-349 455.5,-349"/>
<polygon fill="none" stroke="black" points="455.5,-349 455.5,-371 591.5,-371 591.5,-349 455.5,-349"/>
<text text-anchor="start" x="460.5" y="-358.2" font-family="Helvetica,sans-Serif" font-weight="bold" font-size="11.00">bridged_tokens</text>
<text text-anchor="start" x="552.5" y="-357.2" font-family="Helvetica,sans-Serif" font-size="11.00">[table]</text>
<polygon fill="none" stroke="black" points="455.5,-331 455.5,-349 591.5,-349 591.5,-331 455.5,-331"/>
<text text-anchor="start" x="458.5" y="-337.2" font-family="Helvetica,sans-Serif" font-size="11.00">...</text>
<polygon fill="#ffffff" stroke="none" points="455.5,-313 455.5,-331 507.5,-331 507.5,-313 455.5,-313"/>
<polygon fill="none" stroke="black" points="455.5,-313 455.5,-331 507.5,-331 507.5,-313 455.5,-313"/>
<text text-anchor="start" x="458.5" y="-319.2" font-family="Helvetica,sans-Serif" font-size="11.00">&lt; 1</text>
<polygon fill="#ffffff" stroke="none" points="507.5,-313 507.5,-331 563.5,-331 563.5,-313 507.5,-313"/>
<polygon fill="none" stroke="black" points="507.5,-313 507.5,-331 563.5,-331 563.5,-313 507.5,-313"/>
<text text-anchor="start" x="524.5" y="-319.2" font-family="Helvetica,sans-Serif" font-size="11.00">0 rows</text>
<polygon fill="#ffffff" stroke="none" points="563.5,-313 563.5,-331 591.5,-331 591.5,-313 563.5,-313"/>
<polygon fill="none" stroke="black" points="563.5,-313 563.5,-331 591.5,-331 591.5,-313 563.5,-313"/>
<text text-anchor="start" x="581.5" y="-319.2" font-family="Helvetica,sans-Serif" font-size="11.00"> &#160;</text>
</a>
</g>
</g>
<!-- bridged_tokens&#45;&gt;tokens -->
<g id="edge5" class="edge"><title>bridged_tokens:elipses:w&#45;&gt;tokens:contract_address_hash:e</title>
<path fill="none" stroke="black" d="M444.082,-339.685C407.629,-337.354 396.603,-322.354 360,-303 341.201,-293.06 341.765,-276 320.5,-276"/>
<polygon fill="black" stroke="black" points="453.821,-335.978 453.579,-343.974 451.98,-343.926 452.222,-335.929 453.821,-335.978"/>
<polyline fill="none" stroke="black" points="454.5,-340 450.502,-339.879 "/>
<ellipse fill="none" stroke="black" cx="447.303" cy="-339.782" rx="3.2" ry="3.2"/>
</g>
<!-- token_instances -->
<g id="node6" class="node"><title>token_instances</title>
<g id="a_node6"><a xlink:href="../../tables/token_instances.html" xlink:title="token_instances" target="_top">
<polygon fill="#ffffff" stroke="none" points="368,-116 368,-292 679,-292 679,-116 368,-116"/>
<polygon fill="#f5f5f5" stroke="none" points="370.5,-268 370.5,-290 677.5,-290 677.5,-268 370.5,-268"/>
<polygon fill="none" stroke="black" points="370.5,-268 370.5,-290 677.5,-290 677.5,-268 370.5,-268"/>
<text text-anchor="start" x="375.5" y="-277.2" font-family="Helvetica,sans-Serif" font-weight="bold" font-size="11.00">token_instances</text>
<text text-anchor="start" x="638.5" y="-276.2" font-family="Helvetica,sans-Serif" font-size="11.00">[table]</text>
<polygon fill="none" stroke="black" points="370.5,-246 370.5,-268 567.5,-268 567.5,-246 370.5,-246"/>
<image xlink:href="../../images/primaryKeys.png" width="11px" height="12px" preserveAspectRatio="xMinYMin meet" x="375.5" y="-263"/>
<text text-anchor="start" x="390.5" y="-254.2" font-family="Helvetica,sans-Serif" font-size="11.00">token_id</text>
<polygon fill="none" stroke="black" points="567.5,-246 567.5,-268 677.5,-268 677.5,-246 567.5,-246"/>
<text text-anchor="start" x="570.5" y="-254.2" font-family="Helvetica,sans-Serif" font-size="11.00">numeric[78]</text>
<polygon fill="none" stroke="black" points="370.5,-224 370.5,-246 567.5,-246 567.5,-224 370.5,-224"/>
<image xlink:href="../../images/primaryKeys.png" width="11px" height="12px" preserveAspectRatio="xMinYMin meet" x="375.5" y="-241"/>
<text text-anchor="start" x="390.5" y="-232.2" font-family="Helvetica,sans-Serif" font-size="11.00">token_contract_address_hash</text>
<polygon fill="none" stroke="black" points="567.5,-224 567.5,-246 677.5,-246 677.5,-224 567.5,-224"/>
<text text-anchor="start" x="570.5" y="-232.2" font-family="Helvetica,sans-Serif" font-size="11.00">bytea[2147483647]</text>
<polygon fill="none" stroke="black" points="370.5,-202 370.5,-224 567.5,-224 567.5,-202 370.5,-202"/>
<text text-anchor="start" x="390.5" y="-210.2" font-family="Helvetica,sans-Serif" font-size="11.00">metadata</text>
<polygon fill="none" stroke="black" points="567.5,-202 567.5,-224 677.5,-224 677.5,-202 567.5,-202"/>
<text text-anchor="start" x="570.5" y="-210.2" font-family="Helvetica,sans-Serif" font-size="11.00">jsonb[2147483647]</text>
<polygon fill="none" stroke="black" points="370.5,-180 370.5,-202 567.5,-202 567.5,-180 370.5,-180"/>
<text text-anchor="start" x="390.5" y="-188.2" font-family="Helvetica,sans-Serif" font-size="11.00">inserted_at</text>
<polygon fill="none" stroke="black" points="567.5,-180 567.5,-202 677.5,-202 677.5,-180 567.5,-180"/>
<text text-anchor="start" x="570.5" y="-188.2" font-family="Helvetica,sans-Serif" font-size="11.00">timestamp[29,6]</text>
<polygon fill="none" stroke="black" points="370.5,-158 370.5,-180 567.5,-180 567.5,-158 370.5,-158"/>
<text text-anchor="start" x="390.5" y="-166.2" font-family="Helvetica,sans-Serif" font-size="11.00">updated_at</text>
<polygon fill="none" stroke="black" points="567.5,-158 567.5,-180 677.5,-180 677.5,-158 567.5,-158"/>
<text text-anchor="start" x="570.5" y="-166.2" font-family="Helvetica,sans-Serif" font-size="11.00">timestamp[29,6]</text>
<polygon fill="#ffffff" stroke="none" points="370.5,-136 370.5,-158 567.5,-158 567.5,-136 370.5,-136"/>
<polygon fill="none" stroke="black" points="370.5,-136 370.5,-158 567.5,-158 567.5,-136 370.5,-136"/>
<text text-anchor="start" x="390.5" y="-144.2" font-family="Helvetica,sans-Serif" font-size="11.00">error</text>
<polygon fill="none" stroke="black" points="567.5,-136 567.5,-158 677.5,-158 677.5,-136 567.5,-136"/>
<text text-anchor="start" x="570.5" y="-144.2" font-family="Helvetica,sans-Serif" font-size="11.00">varchar[255]</text>
<polygon fill="#ffffff" stroke="none" points="370.5,-118 370.5,-136 459.5,-136 459.5,-118 370.5,-118"/>
<polygon fill="none" stroke="black" points="370.5,-118 370.5,-136 459.5,-136 459.5,-118 370.5,-118"/>
<text text-anchor="start" x="373.5" y="-124.2" font-family="Helvetica,sans-Serif" font-size="11.00">&lt; 1</text>
<polygon fill="#ffffff" stroke="none" points="459.5,-118 459.5,-136 567.5,-136 567.5,-118 459.5,-118"/>
<polygon fill="none" stroke="black" points="459.5,-118 459.5,-136 567.5,-136 567.5,-118 459.5,-118"/>
<text text-anchor="start" x="528.5" y="-124.2" font-family="Helvetica,sans-Serif" font-size="11.00">0 rows</text>
<polygon fill="#ffffff" stroke="none" points="567.5,-118 567.5,-136 677.5,-136 677.5,-118 567.5,-118"/>
<polygon fill="none" stroke="black" points="567.5,-118 567.5,-136 677.5,-136 677.5,-118 567.5,-118"/>
<text text-anchor="start" x="657.5" y="-124.2" font-family="Helvetica,sans-Serif" font-size="11.00">0 &gt;</text>
<polygon fill="none" stroke="black" stroke-width="2" points="369,-117 369,-291 678,-291 678,-117 369,-117"/>
</a>
</g>
</g>
<!-- token_instances&#45;&gt;tokens -->
<g id="edge6" class="edge"><title>token_instances:token_contract_address_hash:w&#45;&gt;tokens:contract_address_hash:e</title>
<path fill="none" stroke="black" d="M355.682,-239.703C342.781,-250.473 342.906,-276 320.5,-276"/>
<polygon fill="black" stroke="black" points="361.927,-237.578 370.66,-238.408 365.713,-236.289 369.5,-235 369.5,-235 369.5,-235 365.713,-236.289 368.34,-231.592 361.927,-237.578 361.927,-237.578"/>
<ellipse fill="none" stroke="black" cx="358.897" cy="-238.609" rx="3.20001" ry="3.20001"/>
</g>
</g>
</svg>
