<?xml version="1.0" encoding="UTF-8" standalone="no"?>
<!DOCTYPE svg PUBLIC "-//W3C//DTD SVG 1.1//EN"
 "http://www.w3.org/Graphics/SVG/1.1/DTD/svg11.dtd">
<!-- Generated by graphviz version 2.38.0 (20140413.2041)
 -->
<!-- Title: twoDegreesRelationshipsDiagram Pages: 1 -->
<svg width="695pt" height="383pt"
 viewBox="0.00 0.00 695.00 383.00" xmlns="http://www.w3.org/2000/svg" xmlns:xlink="http://www.w3.org/1999/xlink">
<g id="graph0" class="graph" transform="scale(1 1) rotate(0) translate(4 379)">
<title>twoDegreesRelationshipsDiagram</title>
<polygon fill="#ffffff" stroke="none" points="-4,4 -4,-379 691,-379 691,4 -4,4"/>
<text text-anchor="middle" x="74.5" y="-7.2" font-family="Helvetica,sans-Serif" font-size="11.00">Generated by SchemaSpy</text>
<!-- address_current_token_balances -->
<g id="node1" class="node"><title>address_current_token_balances</title>
<g id="a_node1"><a xlink:href="../../tables/address_current_token_balances.html" xlink:title="address_current_token_balances" target="_top">
<polygon fill="#ffffff" stroke="none" points="407,-313 407,-371 640,-371 640,-313 407,-313"/>
<polygon fill="#f5f5f5" stroke="none" points="407.5,-349 407.5,-371 640.5,-371 640.5,-349 407.5,-349"/>
<polygon fill="none" stroke="black" points="407.5,-349 407.5,-371 640.5,-371 640.5,-349 407.5,-349"/>
<text text-anchor="start" x="412.5" y="-358.2" font-family="Helvetica,sans-Serif" font-weight="bold" font-size="11.00">address_current_token_balances</text>
<text text-anchor="start" x="601.5" y="-357.2" font-family="Helvetica,sans-Serif" font-size="11.00">[table]</text>
<polygon fill="none" stroke="black" points="407.5,-331 407.5,-349 640.5,-349 640.5,-331 407.5,-331"/>
<text text-anchor="start" x="410.5" y="-337.2" font-family="Helvetica,sans-Serif" font-size="11.00">...</text>
<polygon fill="#ffffff" stroke="none" points="407.5,-313 407.5,-331 507.5,-331 507.5,-313 407.5,-313"/>
<polygon fill="none" stroke="black" points="407.5,-313 407.5,-331 507.5,-331 507.5,-313 407.5,-313"/>
<text text-anchor="start" x="410.5" y="-319.2" font-family="Helvetica,sans-Serif" font-size="11.00">&lt; 2</text>
<polygon fill="#ffffff" stroke="none" points="507.5,-313 507.5,-331 588.5,-331 588.5,-313 507.5,-313"/>
<polygon fill="none" stroke="black" points="507.5,-313 507.5,-331 588.5,-331 588.5,-313 507.5,-313"/>
<text text-anchor="start" x="549.5" y="-319.2" font-family="Helvetica,sans-Serif" font-size="11.00">0 rows</text>
<polygon fill="#ffffff" stroke="none" points="588.5,-313 588.5,-331 640.5,-331 640.5,-313 588.5,-313"/>
<polygon fill="none" stroke="black" points="588.5,-313 588.5,-331 640.5,-331 640.5,-313 588.5,-313"/>
<text text-anchor="start" x="630.5" y="-319.2" font-family="Helvetica,sans-Serif" font-size="11.00"> &#160;</text>
</a>
</g>
</g>
<!-- addresses -->
<g id="node2" class="node"><title>addresses</title>
<g id="a_node2"><a xlink:href="../../tables/addresses.html" xlink:title="addresses" target="_top">
<polygon fill="#ffffff" stroke="none" points="8,-208 8,-266 113,-266 113,-208 8,-208"/>
<polygon fill="#f5f5f5" stroke="none" points="8.5,-244 8.5,-266 113.5,-266 113.5,-244 8.5,-244"/>
<polygon fill="none" stroke="black" points="8.5,-244 8.5,-266 113.5,-266 113.5,-244 8.5,-244"/>
<text text-anchor="start" x="13.5" y="-253.2" font-family="Helvetica,sans-Serif" font-weight="bold" font-size="11.00">addresses</text>
<text text-anchor="start" x="74.5" y="-252.2" font-family="Helvetica,sans-Serif" font-size="11.00">[table]</text>
<polygon fill="none" stroke="black" points="8.5,-226 8.5,-244 113.5,-244 113.5,-226 8.5,-226"/>
<text text-anchor="start" x="11.5" y="-232.2" font-family="Helvetica,sans-Serif" font-size="11.00">...</text>
<polygon fill="#ffffff" stroke="none" points="8.5,-208 8.5,-226 31.5,-226 31.5,-208 8.5,-208"/>
<polygon fill="none" stroke="black" points="8.5,-208 8.5,-226 31.5,-226 31.5,-208 8.5,-208"/>
<text text-anchor="start" x="11.5" y="-214.2" font-family="Helvetica,sans-Serif" font-size="11.00"> &#160;</text>
<polygon fill="#ffffff" stroke="none" points="31.5,-208 31.5,-226 78.5,-226 78.5,-208 31.5,-208"/>
<polygon fill="none" stroke="black" points="31.5,-208 31.5,-226 78.5,-226 78.5,-208 31.5,-208"/>
<text text-anchor="start" x="39.5" y="-214.2" font-family="Helvetica,sans-Serif" font-size="11.00">2 rows</text>
<polygon fill="#ffffff" stroke="none" points="78.5,-208 78.5,-226 113.5,-226 113.5,-208 78.5,-208"/>
<polygon fill="none" stroke="black" points="78.5,-208 78.5,-226 113.5,-226 113.5,-208 78.5,-208"/>
<text text-anchor="start" x="86.5" y="-214.2" font-family="Helvetica,sans-Serif" font-size="11.00">19 &gt;</text>
</a>
</g>
</g>
<!-- address_current_token_balances&#45;&gt;addresses -->
<g id="edge1" class="edge"><title>address_current_token_balances:elipses:w&#45;&gt;addresses:elipses:e</title>
<path fill="none" stroke="black" d="M392.038,-340.26C289.745,-343.938 242.259,-384.431 154,-323 118.814,-298.509 157.37,-235 114.5,-235"/>
<polygon fill="black" stroke="black" points="398.501,-340.144 406.565,-343.599 402.501,-340.072 406.5,-340 406.5,-340 406.5,-340 402.501,-340.072 406.435,-336.401 398.501,-340.144 398.501,-340.144"/>
<ellipse fill="none" stroke="black" cx="395.302" cy="-340.202" rx="3.2" ry="3.2"/>
</g>
<!-- tokens -->
<g id="node3" class="node"><title>tokens</title>
<g id="a_node3"><a xlink:href="../../tables/tokens.html" xlink:title="tokens" target="_top">
<polygon fill="#ffffff" stroke="none" points="162,-188 162,-312 319,-312 319,-188 162,-188"/>
<polygon fill="#f5f5f5" stroke="none" points="162.5,-290 162.5,-312 319.5,-312 319.5,-290 162.5,-290"/>
<polygon fill="none" stroke="black" points="162.5,-290 162.5,-312 319.5,-312 319.5,-290 162.5,-290"/>
<text text-anchor="start" x="167.5" y="-299.2" font-family="Helvetica,sans-Serif" font-weight="bold" font-size="11.00">tokens</text>
<text text-anchor="start" x="280.5" y="-298.2" font-family="Helvetica,sans-Serif" font-size="11.00">[table]</text>
<polygon fill="#ffffff" stroke="none" points="162.5,-268 162.5,-290 319.5,-290 319.5,-268 162.5,-268"/>
<polygon fill="none" stroke="black" points="162.5,-268 162.5,-290 319.5,-290 319.5,-268 162.5,-268"/>
<text text-anchor="start" x="182.5" y="-276.2" font-family="Helvetica,sans-Serif" font-size="11.00">symbol</text>
<polygon fill="#ffffff" stroke="none" points="162.5,-246 162.5,-268 319.5,-268 319.5,-246 162.5,-246"/>
<polygon fill="none" stroke="black" points="162.5,-246 162.5,-268 319.5,-268 319.5,-246 162.5,-246"/>
<text text-anchor="start" x="182.5" y="-254.2" font-family="Helvetica,sans-Serif" font-size="11.00">type</text>
<polygon fill="none" stroke="black" points="162.5,-224 162.5,-246 319.5,-246 319.5,-224 162.5,-224"/>
<image xlink:href="../../images/primaryKeys.png" width="11px" height="12px" preserveAspectRatio="xMinYMin meet" x="167.5" y="-241"/>
<text text-anchor="start" x="182.5" y="-232.2" font-family="Helvetica,sans-Serif" font-size="11.00">contract_address_hash</text>
<polygon fill="none" stroke="black" points="162.5,-206 162.5,-224 319.5,-224 319.5,-206 162.5,-206"/>
<text text-anchor="start" x="165.5" y="-212.2" font-family="Helvetica,sans-Serif" font-size="11.00">...</text>
<polygon fill="#ffffff" stroke="none" points="162.5,-188 162.5,-206 219.5,-206 219.5,-188 162.5,-188"/>
<polygon fill="none" stroke="black" points="162.5,-188 162.5,-206 219.5,-206 219.5,-188 162.5,-188"/>
<text text-anchor="start" x="165.5" y="-194.2" font-family="Helvetica,sans-Serif" font-size="11.00">&lt; 1</text>
<polygon fill="#ffffff" stroke="none" points="219.5,-188 219.5,-206 278.5,-206 278.5,-188 219.5,-188"/>
<polygon fill="none" stroke="black" points="219.5,-188 219.5,-206 278.5,-206 278.5,-188 219.5,-188"/>
<text text-anchor="start" x="239.5" y="-194.2" font-family="Helvetica,sans-Serif" font-size="11.00">0 rows</text>
<polygon fill="#ffffff" stroke="none" points="278.5,-188 278.5,-206 319.5,-206 319.5,-188 278.5,-188"/>
<polygon fill="none" stroke="black" points="278.5,-188 278.5,-206 319.5,-206 319.5,-188 278.5,-188"/>
<text text-anchor="start" x="299.5" y="-194.2" font-family="Helvetica,sans-Serif" font-size="11.00">3 &gt;</text>
</a>
</g>
</g>
<!-- address_current_token_balances&#45;&gt;tokens -->
<g id="edge2" class="edge"><title>address_current_token_balances:elipses:w&#45;&gt;tokens:contract_address_hash:e</title>
<path fill="none" stroke="black" d="M392.156,-337.705C378.163,-332.414 373.488,-318.614 360,-303 337.152,-276.551 355.451,-235 320.5,-235"/>
<polygon fill="black" stroke="black" points="398.601,-338.736 405.931,-343.555 402.55,-339.368 406.5,-340 406.5,-340 406.5,-340 402.55,-339.368 407.069,-336.445 398.601,-338.736 398.601,-338.736"/>
<ellipse fill="none" stroke="black" cx="395.441" cy="-338.23" rx="3.2" ry="3.2"/>
</g>
<!-- tokens&#45;&gt;addresses -->
<g id="edge6" class="edge"><title>tokens:contract_address_hash:w&#45;&gt;addresses:elipses:e</title>
<path fill="none" stroke="black" d="M150.82,-235C137.974,-235 131.309,-235 114.5,-235"/>
<polygon fill="black" stroke="black" points="160.7,-231 160.7,-239 159.1,-239 159.1,-231 160.7,-231"/>
<polyline fill="none" stroke="black" points="161.5,-235 157.5,-235 "/>
<ellipse fill="none" stroke="black" cx="154.3" cy="-235" rx="3.2" ry="3.2"/>
</g>
<!-- address_token_balances -->
<g id="node4" class="node"><title>address_token_balances</title>
<g id="a_node4"><a xlink:href="../../tables/address_token_balances.html" xlink:title="address_token_balances" target="_top">
<polygon fill="#ffffff" stroke="none" points="431,-37 431,-95 616,-95 616,-37 431,-37"/>
<polygon fill="#f5f5f5" stroke="none" points="431.5,-73 431.5,-95 616.5,-95 616.5,-73 431.5,-73"/>
<polygon fill="none" stroke="black" points="431.5,-73 431.5,-95 616.5,-95 616.5,-73 431.5,-73"/>
<text text-anchor="start" x="436.5" y="-82.2" font-family="Helvetica,sans-Serif" font-weight="bold" font-size="11.00">address_token_balances</text>
<text text-anchor="start" x="577.5" y="-81.2" font-family="Helvetica,sans-Serif" font-size="11.00">[table]</text>
<polygon fill="none" stroke="black" points="431.5,-55 431.5,-73 616.5,-73 616.5,-55 431.5,-55"/>
<text text-anchor="start" x="434.5" y="-61.2" font-family="Helvetica,sans-Serif" font-size="11.00">...</text>
<polygon fill="#ffffff" stroke="none" points="431.5,-37 431.5,-55 507.5,-55 507.5,-37 431.5,-37"/>
<polygon fill="none" stroke="black" points="431.5,-37 431.5,-55 507.5,-55 507.5,-37 431.5,-37"/>
<text text-anchor="start" x="434.5" y="-43.2" font-family="Helvetica,sans-Serif" font-size="11.00">&lt; 2</text>
<polygon fill="#ffffff" stroke="none" points="507.5,-37 507.5,-55 576.5,-55 576.5,-37 507.5,-37"/>
<polygon fill="none" stroke="black" points="507.5,-37 507.5,-55 576.5,-55 576.5,-37 507.5,-37"/>
<text text-anchor="start" x="537.5" y="-43.2" font-family="Helvetica,sans-Serif" font-size="11.00">0 rows</text>
<polygon fill="#ffffff" stroke="none" points="576.5,-37 576.5,-55 616.5,-55 616.5,-37 576.5,-37"/>
<polygon fill="none" stroke="black" points="576.5,-37 576.5,-55 616.5,-55 616.5,-37 576.5,-37"/>
<text text-anchor="start" x="606.5" y="-43.2" font-family="Helvetica,sans-Serif" font-size="11.00"> &#160;</text>
</a>
</g>
</g>
<!-- address_token_balances&#45;&gt;addresses -->
<g id="edge3" class="edge"><title>address_token_balances:elipses:w&#45;&gt;addresses:elipses:e</title>
<path fill="none" stroke="black" d="M416.078,-64.1277C294.516,-66.3461 253.689,-97.7263 154,-178 129.994,-197.331 145.322,-235 114.5,-235"/>
<polygon fill="black" stroke="black" points="422.5,-64.0709 430.532,-67.5999 426.5,-64.0354 430.5,-64 430.5,-64 430.5,-64 426.5,-64.0354 430.468,-60.4001 422.5,-64.0709 422.5,-64.0709"/>
<ellipse fill="none" stroke="black" cx="419.3" cy="-64.0992" rx="3.2" ry="3.2"/>
</g>
<!-- address_token_balances&#45;&gt;tokens -->
<g id="edge4" class="edge"><title>address_token_balances:elipses:w&#45;&gt;tokens:contract_address_hash:e</title>
<path fill="none" stroke="black" d="M415.862,-64.8421C390.526,-68.0832 379.156,-80.7969 360,-105 322.524,-152.35 380.886,-235 320.5,-235"/>
<polygon fill="black" stroke="black" points="422.513,-64.4595 430.707,-67.5941 426.507,-64.2298 430.5,-64 430.5,-64 430.5,-64 426.507,-64.2298 430.293,-60.4059 422.513,-64.4595 422.513,-64.4595"/>
<ellipse fill="none" stroke="black" cx="419.318" cy="-64.6433" rx="3.2" ry="3.2"/>
</g>
<!-- token_instances -->
<g id="node5" class="node"><title>token_instances</title>
<g id="a_node5"><a xlink:href="../../tables/token_instances.html" xlink:title="token_instances" target="_top">
<polygon fill="#ffffff" stroke="none" points="368,-116 368,-292 679,-292 679,-116 368,-116"/>
<polygon fill="#f5f5f5" stroke="none" points="370.5,-268 370.5,-290 677.5,-290 677.5,-268 370.5,-268"/>
<polygon fill="none" stroke="black" points="370.5,-268 370.5,-290 677.5,-290 677.5,-268 370.5,-268"/>
<text text-anchor="start" x="375.5" y="-277.2" font-family="Helvetica,sans-Serif" font-weight="bold" font-size="11.00">token_instances</text>
<text text-anchor="start" x="638.5" y="-276.2" font-family="Helvetica,sans-Serif" font-size="11.00">[table]</text>
<polygon fill="none" stroke="black" points="370.5,-246 370.5,-268 567.5,-268 567.5,-246 370.5,-246"/>
<image xlink:href="../../images/primaryKeys.png" width="11px" height="12px" preserveAspectRatio="xMinYMin meet" x="375.5" y="-263"/>
<text text-anchor="start" x="390.5" y="-254.2" font-family="Helvetica,sans-Serif" font-size="11.00">token_id</text>
<polygon fill="none" stroke="black" points="567.5,-246 567.5,-268 677.5,-268 677.5,-246 567.5,-246"/>
<text text-anchor="start" x="570.5" y="-254.2" font-family="Helvetica,sans-Serif" font-size="11.00">numeric[78]</text>
<polygon fill="none" stroke="black" points="370.5,-224 370.5,-246 567.5,-246 567.5,-224 370.5,-224"/>
<image xlink:href="../../images/primaryKeys.png" width="11px" height="12px" preserveAspectRatio="xMinYMin meet" x="375.5" y="-241"/>
<text text-anchor="start" x="390.5" y="-232.2" font-family="Helvetica,sans-Serif" font-size="11.00">token_contract_address_hash</text>
<polygon fill="none" stroke="black" points="567.5,-224 567.5,-246 677.5,-246 677.5,-224 567.5,-224"/>
<text text-anchor="start" x="570.5" y="-232.2" font-family="Helvetica,sans-Serif" font-size="11.00">bytea[2147483647]</text>
<polygon fill="none" stroke="black" points="370.5,-202 370.5,-224 567.5,-224 567.5,-202 370.5,-202"/>
<text text-anchor="start" x="390.5" y="-210.2" font-family="Helvetica,sans-Serif" font-size="11.00">metadata</text>
<polygon fill="none" stroke="black" points="567.5,-202 567.5,-224 677.5,-224 677.5,-202 567.5,-202"/>
<text text-anchor="start" x="570.5" y="-210.2" font-family="Helvetica,sans-Serif" font-size="11.00">jsonb[2147483647]</text>
<polygon fill="none" stroke="black" points="370.5,-180 370.5,-202 567.5,-202 567.5,-180 370.5,-180"/>
<text text-anchor="start" x="390.5" y="-188.2" font-family="Helvetica,sans-Serif" font-size="11.00">inserted_at</text>
<polygon fill="none" stroke="black" points="567.5,-180 567.5,-202 677.5,-202 677.5,-180 567.5,-180"/>
<text text-anchor="start" x="570.5" y="-188.2" font-family="Helvetica,sans-Serif" font-size="11.00">timestamp[29,6]</text>
<polygon fill="none" stroke="black" points="370.5,-158 370.5,-180 567.5,-180 567.5,-158 370.5,-158"/>
<text text-anchor="start" x="390.5" y="-166.2" font-family="Helvetica,sans-Serif" font-size="11.00">updated_at</text>
<polygon fill="none" stroke="black" points="567.5,-158 567.5,-180 677.5,-180 677.5,-158 567.5,-158"/>
<text text-anchor="start" x="570.5" y="-166.2" font-family="Helvetica,sans-Serif" font-size="11.00">timestamp[29,6]</text>
<polygon fill="#ffffff" stroke="none" points="370.5,-136 370.5,-158 567.5,-158 567.5,-136 370.5,-136"/>
<polygon fill="none" stroke="black" points="370.5,-136 370.5,-158 567.5,-158 567.5,-136 370.5,-136"/>
<text text-anchor="start" x="390.5" y="-144.2" font-family="Helvetica,sans-Serif" font-size="11.00">error</text>
<polygon fill="none" stroke="black" points="567.5,-136 567.5,-158 677.5,-158 677.5,-136 567.5,-136"/>
<text text-anchor="start" x="570.5" y="-144.2" font-family="Helvetica,sans-Serif" font-size="11.00">varchar[255]</text>
<polygon fill="#ffffff" stroke="none" points="370.5,-118 370.5,-136 459.5,-136 459.5,-118 370.5,-118"/>
<polygon fill="none" stroke="black" points="370.5,-118 370.5,-136 459.5,-136 459.5,-118 370.5,-118"/>
<text text-anchor="start" x="373.5" y="-124.2" font-family="Helvetica,sans-Serif" font-size="11.00">&lt; 1</text>
<polygon fill="#ffffff" stroke="none" points="459.5,-118 459.5,-136 567.5,-136 567.5,-118 459.5,-118"/>
<polygon fill="none" stroke="black" points="459.5,-118 459.5,-136 567.5,-136 567.5,-118 459.5,-118"/>
<text text-anchor="start" x="528.5" y="-124.2" font-family="Helvetica,sans-Serif" font-size="11.00">0 rows</text>
<polygon fill="#ffffff" stroke="none" points="567.5,-118 567.5,-136 677.5,-136 677.5,-118 567.5,-118"/>
<polygon fill="none" stroke="black" points="567.5,-118 567.5,-136 677.5,-136 677.5,-118 567.5,-118"/>
<text text-anchor="start" x="657.5" y="-124.2" font-family="Helvetica,sans-Serif" font-size="11.00">0 &gt;</text>
<polygon fill="none" stroke="black" stroke-width="2" points="369,-117 369,-291 678,-291 678,-117 369,-117"/>
</a>
</g>
</g>
<!-- token_instances&#45;&gt;tokens -->
<g id="edge5" class="edge"><title>token_instances:token_contract_address_hash:w&#45;&gt;tokens:contract_address_hash:e</title>
<path fill="none" stroke="black" d="M354.991,-235C343.677,-235 336.493,-235 320.5,-235"/>
<polygon fill="black" stroke="black" points="361.5,-235 369.5,-238.6 365.5,-235 369.5,-235 369.5,-235 369.5,-235 365.5,-235 369.5,-231.4 361.5,-235 361.5,-235"/>
<ellipse fill="none" stroke="black" cx="358.3" cy="-235" rx="3.2" ry="3.2"/>
</g>
</g>
</svg>
