<?xml version="1.0" encoding="UTF-8" standalone="no"?>
<!DOCTYPE svg PUBLIC "-//W3C//DTD SVG 1.1//EN"
 "http://www.w3.org/Graphics/SVG/1.1/DTD/svg11.dtd">
<!-- Generated by graphviz version 2.38.0 (20140413.2041)
 -->
<!-- Title: twoDegreesRelationshipsDiagram Pages: 1 -->
<svg width="1096pt" height="1167pt"
 viewBox="0.00 0.00 1096.00 1167.42" xmlns="http://www.w3.org/2000/svg" xmlns:xlink="http://www.w3.org/1999/xlink">
<g id="graph0" class="graph" transform="scale(1 1) rotate(0) translate(4 1163.42)">
<title>twoDegreesRelationshipsDiagram</title>
<polygon fill="#ffffff" stroke="none" points="-4,4 -4,-1163.42 1092,-1163.42 1092,4 -4,4"/>
<text text-anchor="middle" x="74.5" y="-7.2" font-family="Helvetica,sans-Serif" font-size="11.00">Generated by SchemaSpy</text>
<!-- address_coin_balances -->
<g id="node1" class="node"><title>address_coin_balances</title>
<g id="a_node1"><a xlink:href="../../tables/address_coin_balances.html" xlink:title="address_coin_balances" target="_top">
<polygon fill="#ffffff" stroke="none" points="342.5,-993.425 342.5,-1051.42 518.5,-1051.42 518.5,-993.425 342.5,-993.425"/>
<polygon fill="#f5f5f5" stroke="none" points="342.5,-1029.42 342.5,-1051.42 518.5,-1051.42 518.5,-1029.42 342.5,-1029.42"/>
<polygon fill="none" stroke="black" points="342.5,-1029.42 342.5,-1051.42 518.5,-1051.42 518.5,-1029.42 342.5,-1029.42"/>
<text text-anchor="start" x="347.5" y="-1038.62" font-family="Helvetica,sans-Serif" font-weight="bold" font-size="11.00">address_coin_balances</text>
<text text-anchor="start" x="479.5" y="-1037.62" font-family="Helvetica,sans-Serif" font-size="11.00">[table]</text>
<polygon fill="none" stroke="black" points="342.5,-1011.42 342.5,-1029.42 518.5,-1029.42 518.5,-1011.42 342.5,-1011.42"/>
<text text-anchor="start" x="345.5" y="-1017.62" font-family="Helvetica,sans-Serif" font-size="11.00">...</text>
<polygon fill="#ffffff" stroke="none" points="342.5,-993.425 342.5,-1011.42 414.5,-1011.42 414.5,-993.425 342.5,-993.425"/>
<polygon fill="none" stroke="black" points="342.5,-993.425 342.5,-1011.42 414.5,-1011.42 414.5,-993.425 342.5,-993.425"/>
<text text-anchor="start" x="345.5" y="-999.625" font-family="Helvetica,sans-Serif" font-size="11.00">&lt; 1</text>
<polygon fill="#ffffff" stroke="none" points="414.5,-993.425 414.5,-1011.42 480.5,-1011.42 480.5,-993.425 414.5,-993.425"/>
<polygon fill="none" stroke="black" points="414.5,-993.425 414.5,-1011.42 480.5,-1011.42 480.5,-993.425 414.5,-993.425"/>
<text text-anchor="start" x="441.5" y="-999.625" font-family="Helvetica,sans-Serif" font-size="11.00">3 rows</text>
<polygon fill="#ffffff" stroke="none" points="480.5,-993.425 480.5,-1011.42 518.5,-1011.42 518.5,-993.425 480.5,-993.425"/>
<polygon fill="none" stroke="black" points="480.5,-993.425 480.5,-1011.42 518.5,-1011.42 518.5,-993.425 480.5,-993.425"/>
<text text-anchor="start" x="508.5" y="-999.625" font-family="Helvetica,sans-Serif" font-size="11.00"> &#160;</text>
</a>
</g>
</g>
<!-- addresses -->
<g id="node2" class="node"><title>addresses</title>
<g id="a_node2"><a xlink:href="../../tables/addresses.html" xlink:title="addresses" target="_top">
<polygon fill="#ffffff" stroke="none" points="8,-332.425 8,-456.425 246,-456.425 246,-332.425 8,-332.425"/>
<polygon fill="#f5f5f5" stroke="none" points="8,-434.425 8,-456.425 246,-456.425 246,-434.425 8,-434.425"/>
<polygon fill="none" stroke="black" points="8,-434.425 8,-456.425 246,-456.425 246,-434.425 8,-434.425"/>
<text text-anchor="start" x="13" y="-443.625" font-family="Helvetica,sans-Serif" font-weight="bold" font-size="11.00">addresses</text>
<text text-anchor="start" x="207" y="-442.625" font-family="Helvetica,sans-Serif" font-size="11.00">[table]</text>
<polygon fill="#ffffff" stroke="none" points="8,-412.425 8,-434.425 246,-434.425 246,-412.425 8,-412.425"/>
<polygon fill="none" stroke="black" points="8,-412.425 8,-434.425 246,-434.425 246,-412.425 8,-412.425"/>
<text text-anchor="start" x="28" y="-420.625" font-family="Helvetica,sans-Serif" font-size="11.00">fetched_coin_balance</text>
<polygon fill="none" stroke="black" points="8,-390.425 8,-412.425 246,-412.425 246,-390.425 8,-390.425"/>
<image xlink:href="../../images/primaryKeys.png" width="11px" height="12px" preserveAspectRatio="xMinYMin meet" x="13" y="-407.425"/>
<text text-anchor="start" x="28" y="-398.625" font-family="Helvetica,sans-Serif" font-size="11.00">hash</text>
<polygon fill="#ffffff" stroke="none" points="8,-368.425 8,-390.425 246,-390.425 246,-368.425 8,-368.425"/>
<polygon fill="none" stroke="black" points="8,-368.425 8,-390.425 246,-390.425 246,-368.425 8,-368.425"/>
<text text-anchor="start" x="28" y="-376.625" font-family="Helvetica,sans-Serif" font-size="11.00">inserted_at</text>
<polygon fill="none" stroke="black" points="8,-350.425 8,-368.425 246,-368.425 246,-350.425 8,-350.425"/>
<text text-anchor="start" x="11" y="-356.625" font-family="Helvetica,sans-Serif" font-size="11.00">...</text>
<polygon fill="#ffffff" stroke="none" points="8,-332.425 8,-350.425 97,-350.425 97,-332.425 8,-332.425"/>
<polygon fill="none" stroke="black" points="8,-332.425 8,-350.425 97,-350.425 97,-332.425 8,-332.425"/>
<text text-anchor="start" x="11" y="-338.625" font-family="Helvetica,sans-Serif" font-size="11.00"> &#160;</text>
<polygon fill="#ffffff" stroke="none" points="97,-332.425 97,-350.425 177,-350.425 177,-332.425 97,-332.425"/>
<polygon fill="none" stroke="black" points="97,-332.425 97,-350.425 177,-350.425 177,-332.425 97,-332.425"/>
<text text-anchor="start" x="138" y="-338.625" font-family="Helvetica,sans-Serif" font-size="11.00">2 rows</text>
<polygon fill="#ffffff" stroke="none" points="177,-332.425 177,-350.425 246,-350.425 246,-332.425 177,-332.425"/>
<polygon fill="none" stroke="black" points="177,-332.425 177,-350.425 246,-350.425 246,-332.425 177,-332.425"/>
<text text-anchor="start" x="219" y="-338.625" font-family="Helvetica,sans-Serif" font-size="11.00">19 &gt;</text>
</a>
</g>
</g>
<!-- address_coin_balances&#45;&gt;addresses -->
<g id="edge1" class="edge"><title>address_coin_balances:elipses:w&#45;&gt;addresses:hash:e</title>
<path fill="none" stroke="black" d="M327.12,-1019.24C308.184,-1015.7 298.907,-1004.15 287,-983.425 254.708,-927.222 311.819,-401.425 247,-401.425"/>
<polygon fill="black" stroke="black" points="333.527,-1019.77 341.204,-1024.01 337.514,-1020.1 341.5,-1020.42 341.5,-1020.42 341.5,-1020.42 337.514,-1020.1 341.796,-1016.84 333.527,-1019.77 333.527,-1019.77"/>
<ellipse fill="none" stroke="black" cx="330.338" cy="-1019.5" rx="3.2" ry="3.2"/>
</g>
<!-- address_coin_balances_daily -->
<g id="node3" class="node"><title>address_coin_balances_daily</title>
<g id="a_node3"><a xlink:href="../../tables/address_coin_balances_daily.html" xlink:title="address_coin_balances_daily" target="_top">
<polygon fill="#ffffff" stroke="none" points="326,-914.425 326,-972.425 535,-972.425 535,-914.425 326,-914.425"/>
<polygon fill="#f5f5f5" stroke="none" points="326.5,-950.425 326.5,-972.425 535.5,-972.425 535.5,-950.425 326.5,-950.425"/>
<polygon fill="none" stroke="black" points="326.5,-950.425 326.5,-972.425 535.5,-972.425 535.5,-950.425 326.5,-950.425"/>
<text text-anchor="start" x="331.5" y="-959.625" font-family="Helvetica,sans-Serif" font-weight="bold" font-size="11.00">address_coin_balances_daily</text>
<text text-anchor="start" x="496.5" y="-958.625" font-family="Helvetica,sans-Serif" font-size="11.00">[table]</text>
<polygon fill="none" stroke="black" points="326.5,-932.425 326.5,-950.425 535.5,-950.425 535.5,-932.425 326.5,-932.425"/>
<text text-anchor="start" x="329.5" y="-938.625" font-family="Helvetica,sans-Serif" font-size="11.00">...</text>
<polygon fill="#ffffff" stroke="none" points="326.5,-914.425 326.5,-932.425 414.5,-932.425 414.5,-914.425 326.5,-914.425"/>
<polygon fill="none" stroke="black" points="326.5,-914.425 326.5,-932.425 414.5,-932.425 414.5,-914.425 326.5,-914.425"/>
<text text-anchor="start" x="329.5" y="-920.625" font-family="Helvetica,sans-Serif" font-size="11.00">&lt; 1</text>
<polygon fill="#ffffff" stroke="none" points="414.5,-914.425 414.5,-932.425 489.5,-932.425 489.5,-914.425 414.5,-914.425"/>
<polygon fill="none" stroke="black" points="414.5,-914.425 414.5,-932.425 489.5,-932.425 489.5,-914.425 414.5,-914.425"/>
<text text-anchor="start" x="450.5" y="-920.625" font-family="Helvetica,sans-Serif" font-size="11.00">3 rows</text>
<polygon fill="#ffffff" stroke="none" points="489.5,-914.425 489.5,-932.425 535.5,-932.425 535.5,-914.425 489.5,-914.425"/>
<polygon fill="none" stroke="black" points="489.5,-914.425 489.5,-932.425 535.5,-932.425 535.5,-914.425 489.5,-914.425"/>
<text text-anchor="start" x="525.5" y="-920.625" font-family="Helvetica,sans-Serif" font-size="11.00"> &#160;</text>
</a>
</g>
</g>
<!-- address_coin_balances_daily&#45;&gt;addresses -->
<g id="edge2" class="edge"><title>address_coin_balances_daily:elipses:w&#45;&gt;addresses:hash:e</title>
<path fill="none" stroke="black" d="M311.121,-938.608C298.549,-932.661 294.751,-917.923 287,-900.425 264.473,-849.568 302.622,-401.425 247,-401.425"/>
<polygon fill="black" stroke="black" points="317.649,-939.887 324.808,-944.958 321.575,-940.656 325.5,-941.425 325.5,-941.425 325.5,-941.425 321.575,-940.656 326.192,-937.892 317.649,-939.887 317.649,-939.887"/>
<ellipse fill="none" stroke="black" cx="314.509" cy="-939.271" rx="3.2" ry="3.2"/>
</g>
<!-- address_current_token_balances -->
<g id="node4" class="node"><title>address_current_token_balances</title>
<g id="a_node4"><a xlink:href="../../tables/address_current_token_balances.html" xlink:title="address_current_token_balances" target="_top">
<polygon fill="#ffffff" stroke="none" points="621,-965.425 621,-1155.42 854,-1155.42 854,-965.425 621,-965.425"/>
<polygon fill="#f5f5f5" stroke="none" points="621.5,-1133.42 621.5,-1155.42 854.5,-1155.42 854.5,-1133.42 621.5,-1133.42"/>
<polygon fill="none" stroke="black" points="621.5,-1133.42 621.5,-1155.42 854.5,-1155.42 854.5,-1133.42 621.5,-1133.42"/>
<text text-anchor="start" x="626.5" y="-1142.62" font-family="Helvetica,sans-Serif" font-weight="bold" font-size="11.00">address_current_token_balances</text>
<text text-anchor="start" x="815.5" y="-1141.62" font-family="Helvetica,sans-Serif" font-size="11.00">[table]</text>
<polygon fill="none" stroke="black" points="621.5,-1111.42 621.5,-1133.42 854.5,-1133.42 854.5,-1111.42 621.5,-1111.42"/>
<image xlink:href="../../images/primaryKeys.png" width="11px" height="12px" preserveAspectRatio="xMinYMin meet" x="626.5" y="-1128.42"/>
<text text-anchor="start" x="650.5" y="-1119.62" font-family="Helvetica,sans-Serif" font-size="11.00">id</text>
<polygon fill="#ffffff" stroke="none" points="621.5,-1089.42 621.5,-1111.42 854.5,-1111.42 854.5,-1089.42 621.5,-1089.42"/>
<polygon fill="none" stroke="black" points="621.5,-1089.42 621.5,-1111.42 854.5,-1111.42 854.5,-1089.42 621.5,-1089.42"/>
<image xlink:href="../../images/foreignKeys.png" width="11px" height="12px" preserveAspectRatio="xMinYMin meet" x="626.5" y="-1106.42"/>
<text text-anchor="start" x="650.5" y="-1097.62" font-family="Helvetica,sans-Serif" font-size="11.00">address_hash</text>
<polygon fill="#ffffff" stroke="none" points="621.5,-1067.42 621.5,-1089.42 854.5,-1089.42 854.5,-1067.42 621.5,-1067.42"/>
<polygon fill="none" stroke="black" points="621.5,-1067.42 621.5,-1089.42 854.5,-1089.42 854.5,-1067.42 621.5,-1067.42"/>
<text text-anchor="start" x="650.5" y="-1075.62" font-family="Helvetica,sans-Serif" font-size="11.00">block_number</text>
<polygon fill="#ffffff" stroke="none" points="621.5,-1045.42 621.5,-1067.42 854.5,-1067.42 854.5,-1045.42 621.5,-1045.42"/>
<polygon fill="none" stroke="black" points="621.5,-1045.42 621.5,-1067.42 854.5,-1067.42 854.5,-1045.42 621.5,-1045.42"/>
<image xlink:href="../../images/foreignKeys.png" width="11px" height="12px" preserveAspectRatio="xMinYMin meet" x="626.5" y="-1062.42"/>
<text text-anchor="start" x="650.5" y="-1053.62" font-family="Helvetica,sans-Serif" font-size="11.00">token_contract_address_hash</text>
<polygon fill="#ffffff" stroke="none" points="621.5,-1023.42 621.5,-1045.42 854.5,-1045.42 854.5,-1023.42 621.5,-1023.42"/>
<polygon fill="none" stroke="black" points="621.5,-1023.42 621.5,-1045.42 854.5,-1045.42 854.5,-1023.42 621.5,-1023.42"/>
<text text-anchor="start" x="650.5" y="-1031.62" font-family="Helvetica,sans-Serif" font-size="11.00">value</text>
<polygon fill="#ffffff" stroke="none" points="621.5,-1001.42 621.5,-1023.42 854.5,-1023.42 854.5,-1001.42 621.5,-1001.42"/>
<polygon fill="none" stroke="black" points="621.5,-1001.42 621.5,-1023.42 854.5,-1023.42 854.5,-1001.42 621.5,-1001.42"/>
<text text-anchor="start" x="650.5" y="-1009.62" font-family="Helvetica,sans-Serif" font-size="11.00">token_id</text>
<polygon fill="none" stroke="black" points="621.5,-983.425 621.5,-1001.42 854.5,-1001.42 854.5,-983.425 621.5,-983.425"/>
<text text-anchor="start" x="624.5" y="-989.625" font-family="Helvetica,sans-Serif" font-size="11.00">...</text>
<polygon fill="#ffffff" stroke="none" points="621.5,-965.425 621.5,-983.425 721.5,-983.425 721.5,-965.425 621.5,-965.425"/>
<polygon fill="none" stroke="black" points="621.5,-965.425 621.5,-983.425 721.5,-983.425 721.5,-965.425 621.5,-965.425"/>
<text text-anchor="start" x="624.5" y="-971.625" font-family="Helvetica,sans-Serif" font-size="11.00">&lt; 2</text>
<polygon fill="#ffffff" stroke="none" points="721.5,-965.425 721.5,-983.425 802.5,-983.425 802.5,-965.425 721.5,-965.425"/>
<polygon fill="none" stroke="black" points="721.5,-965.425 721.5,-983.425 802.5,-983.425 802.5,-965.425 721.5,-965.425"/>
<text text-anchor="start" x="763.5" y="-971.625" font-family="Helvetica,sans-Serif" font-size="11.00">0 rows</text>
<polygon fill="#ffffff" stroke="none" points="802.5,-965.425 802.5,-983.425 854.5,-983.425 854.5,-965.425 802.5,-965.425"/>
<polygon fill="none" stroke="black" points="802.5,-965.425 802.5,-983.425 854.5,-983.425 854.5,-965.425 802.5,-965.425"/>
<text text-anchor="start" x="844.5" y="-971.625" font-family="Helvetica,sans-Serif" font-size="11.00"> &#160;</text>
</a>
</g>
</g>
<!-- address_current_token_balances&#45;&gt;addresses -->
<g id="edge3" class="edge"><title>address_current_token_balances:address_hash:w&#45;&gt;addresses:hash:e</title>
<path fill="none" stroke="black" d="M605.966,-1098.87C544.098,-1083.58 637.332,-959.506 574,-904.425 525.664,-862.386 332.071,-922.947 287,-877.425 249.658,-839.708 300.075,-401.425 247,-401.425"/>
<polygon fill="black" stroke="black" points="612.545,-1099.57 620.117,-1104 616.523,-1100 620.5,-1100.42 620.5,-1100.42 620.5,-1100.42 616.523,-1100 620.883,-1096.85 612.545,-1099.57 612.545,-1099.57"/>
<ellipse fill="none" stroke="black" cx="609.364" cy="-1099.23" rx="3.2" ry="3.2"/>
</g>
<!-- tokens -->
<g id="node5" class="node"><title>tokens</title>
<g id="a_node5"><a xlink:href="../../tables/tokens.html" xlink:title="tokens" target="_top">
<polygon fill="#ffffff" stroke="none" points="295,-558.425 295,-866.425 566,-866.425 566,-558.425 295,-558.425"/>
<polygon fill="#f5f5f5" stroke="none" points="297.5,-842.425 297.5,-864.425 564.5,-864.425 564.5,-842.425 297.5,-842.425"/>
<polygon fill="none" stroke="black" points="297.5,-842.425 297.5,-864.425 564.5,-864.425 564.5,-842.425 297.5,-842.425"/>
<text text-anchor="start" x="302.5" y="-851.625" font-family="Helvetica,sans-Serif" font-weight="bold" font-size="11.00">tokens</text>
<text text-anchor="start" x="525.5" y="-850.625" font-family="Helvetica,sans-Serif" font-size="11.00">[table]</text>
<polygon fill="none" stroke="black" points="297.5,-820.425 297.5,-842.425 454.5,-842.425 454.5,-820.425 297.5,-820.425"/>
<text text-anchor="start" x="317.5" y="-828.625" font-family="Helvetica,sans-Serif" font-size="11.00">name</text>
<polygon fill="none" stroke="black" points="454.5,-820.425 454.5,-842.425 564.5,-842.425 564.5,-820.425 454.5,-820.425"/>
<text text-anchor="start" x="457.5" y="-828.625" font-family="Helvetica,sans-Serif" font-size="11.00">varchar[255]</text>
<polygon fill="#ffffff" stroke="none" points="297.5,-798.425 297.5,-820.425 454.5,-820.425 454.5,-798.425 297.5,-798.425"/>
<polygon fill="none" stroke="black" points="297.5,-798.425 297.5,-820.425 454.5,-820.425 454.5,-798.425 297.5,-798.425"/>
<text text-anchor="start" x="317.5" y="-806.625" font-family="Helvetica,sans-Serif" font-size="11.00">symbol</text>
<polygon fill="none" stroke="black" points="454.5,-798.425 454.5,-820.425 564.5,-820.425 564.5,-798.425 454.5,-798.425"/>
<text text-anchor="start" x="457.5" y="-806.625" font-family="Helvetica,sans-Serif" font-size="11.00">varchar[255]</text>
<polygon fill="none" stroke="black" points="297.5,-776.425 297.5,-798.425 454.5,-798.425 454.5,-776.425 297.5,-776.425"/>
<text text-anchor="start" x="317.5" y="-784.625" font-family="Helvetica,sans-Serif" font-size="11.00">total_supply</text>
<polygon fill="none" stroke="black" points="454.5,-776.425 454.5,-798.425 564.5,-798.425 564.5,-776.425 454.5,-776.425"/>
<text text-anchor="start" x="457.5" y="-784.625" font-family="Helvetica,sans-Serif" font-size="11.00">numeric[131089]</text>
<polygon fill="none" stroke="black" points="297.5,-754.425 297.5,-776.425 454.5,-776.425 454.5,-754.425 297.5,-754.425"/>
<text text-anchor="start" x="317.5" y="-762.625" font-family="Helvetica,sans-Serif" font-size="11.00">decimals</text>
<polygon fill="none" stroke="black" points="454.5,-754.425 454.5,-776.425 564.5,-776.425 564.5,-754.425 454.5,-754.425"/>
<text text-anchor="start" x="457.5" y="-762.625" font-family="Helvetica,sans-Serif" font-size="11.00">numeric[131089]</text>
<polygon fill="#ffffff" stroke="none" points="297.5,-732.425 297.5,-754.425 454.5,-754.425 454.5,-732.425 297.5,-732.425"/>
<polygon fill="none" stroke="black" points="297.5,-732.425 297.5,-754.425 454.5,-754.425 454.5,-732.425 297.5,-732.425"/>
<text text-anchor="start" x="317.5" y="-740.625" font-family="Helvetica,sans-Serif" font-size="11.00">type</text>
<polygon fill="none" stroke="black" points="454.5,-732.425 454.5,-754.425 564.5,-754.425 564.5,-732.425 454.5,-732.425"/>
<text text-anchor="start" x="457.5" y="-740.625" font-family="Helvetica,sans-Serif" font-size="11.00">varchar[255]</text>
<polygon fill="none" stroke="black" points="297.5,-710.425 297.5,-732.425 454.5,-732.425 454.5,-710.425 297.5,-710.425"/>
<text text-anchor="start" x="317.5" y="-718.625" font-family="Helvetica,sans-Serif" font-size="11.00">cataloged</text>
<polygon fill="none" stroke="black" points="454.5,-710.425 454.5,-732.425 564.5,-732.425 564.5,-710.425 454.5,-710.425"/>
<text text-anchor="start" x="457.5" y="-718.625" font-family="Helvetica,sans-Serif" font-size="11.00">bool[1]</text>
<polygon fill="none" stroke="black" points="297.5,-688.425 297.5,-710.425 454.5,-710.425 454.5,-688.425 297.5,-688.425"/>
<image xlink:href="../../images/primaryKeys.png" width="11px" height="12px" preserveAspectRatio="xMinYMin meet" x="302.5" y="-705.425"/>
<text text-anchor="start" x="317.5" y="-696.625" font-family="Helvetica,sans-Serif" font-size="11.00">contract_address_hash</text>
<polygon fill="none" stroke="black" points="454.5,-688.425 454.5,-710.425 564.5,-710.425 564.5,-688.425 454.5,-688.425"/>
<text text-anchor="start" x="457.5" y="-696.625" font-family="Helvetica,sans-Serif" font-size="11.00">bytea[2147483647]</text>
<polygon fill="none" stroke="black" points="297.5,-666.425 297.5,-688.425 454.5,-688.425 454.5,-666.425 297.5,-666.425"/>
<text text-anchor="start" x="317.5" y="-674.625" font-family="Helvetica,sans-Serif" font-size="11.00">inserted_at</text>
<polygon fill="none" stroke="black" points="454.5,-666.425 454.5,-688.425 564.5,-688.425 564.5,-666.425 454.5,-666.425"/>
<text text-anchor="start" x="457.5" y="-674.625" font-family="Helvetica,sans-Serif" font-size="11.00">timestamp[29,6]</text>
<polygon fill="none" stroke="black" points="297.5,-644.425 297.5,-666.425 454.5,-666.425 454.5,-644.425 297.5,-644.425"/>
<text text-anchor="start" x="317.5" y="-652.625" font-family="Helvetica,sans-Serif" font-size="11.00">updated_at</text>
<polygon fill="none" stroke="black" points="454.5,-644.425 454.5,-666.425 564.5,-666.425 564.5,-644.425 454.5,-644.425"/>
<text text-anchor="start" x="457.5" y="-652.625" font-family="Helvetica,sans-Serif" font-size="11.00">timestamp[29,6]</text>
<polygon fill="none" stroke="black" points="297.5,-622.425 297.5,-644.425 454.5,-644.425 454.5,-622.425 297.5,-622.425"/>
<text text-anchor="start" x="317.5" y="-630.625" font-family="Helvetica,sans-Serif" font-size="11.00">holder_count</text>
<polygon fill="none" stroke="black" points="454.5,-622.425 454.5,-644.425 564.5,-644.425 564.5,-622.425 454.5,-622.425"/>
<text text-anchor="start" x="457.5" y="-630.625" font-family="Helvetica,sans-Serif" font-size="11.00">int4[10]</text>
<polygon fill="none" stroke="black" points="297.5,-600.425 297.5,-622.425 454.5,-622.425 454.5,-600.425 297.5,-600.425"/>
<text text-anchor="start" x="317.5" y="-608.625" font-family="Helvetica,sans-Serif" font-size="11.00">bridged</text>
<polygon fill="none" stroke="black" points="454.5,-600.425 454.5,-622.425 564.5,-622.425 564.5,-600.425 454.5,-600.425"/>
<text text-anchor="start" x="457.5" y="-608.625" font-family="Helvetica,sans-Serif" font-size="11.00">bool[1]</text>
<polygon fill="none" stroke="black" points="297.5,-578.425 297.5,-600.425 454.5,-600.425 454.5,-578.425 297.5,-578.425"/>
<text text-anchor="start" x="317.5" y="-586.625" font-family="Helvetica,sans-Serif" font-size="11.00">skip_metadata</text>
<polygon fill="none" stroke="black" points="454.5,-578.425 454.5,-600.425 564.5,-600.425 564.5,-578.425 454.5,-578.425"/>
<text text-anchor="start" x="457.5" y="-586.625" font-family="Helvetica,sans-Serif" font-size="11.00">bool[1]</text>
<polygon fill="#ffffff" stroke="none" points="297.5,-560.425 297.5,-578.425 366.5,-578.425 366.5,-560.425 297.5,-560.425"/>
<polygon fill="none" stroke="black" points="297.5,-560.425 297.5,-578.425 366.5,-578.425 366.5,-560.425 297.5,-560.425"/>
<text text-anchor="start" x="300.5" y="-566.625" font-family="Helvetica,sans-Serif" font-size="11.00">&lt; 1</text>
<polygon fill="#ffffff" stroke="none" points="366.5,-560.425 366.5,-578.425 454.5,-578.425 454.5,-560.425 366.5,-560.425"/>
<polygon fill="none" stroke="black" points="366.5,-560.425 366.5,-578.425 454.5,-578.425 454.5,-560.425 366.5,-560.425"/>
<text text-anchor="start" x="415.5" y="-566.625" font-family="Helvetica,sans-Serif" font-size="11.00">0 rows</text>
<polygon fill="#ffffff" stroke="none" points="454.5,-560.425 454.5,-578.425 564.5,-578.425 564.5,-560.425 454.5,-560.425"/>
<polygon fill="none" stroke="black" points="454.5,-560.425 454.5,-578.425 564.5,-578.425 564.5,-560.425 454.5,-560.425"/>
<text text-anchor="start" x="544.5" y="-566.625" font-family="Helvetica,sans-Serif" font-size="11.00">4 &gt;</text>
<polygon fill="none" stroke="black" stroke-width="2" points="296,-559.425 296,-865.425 565,-865.425 565,-559.425 296,-559.425"/>
</a>
</g>
</g>
<!-- address_current_token_balances&#45;&gt;tokens -->
<g id="edge4" class="edge"><title>address_current_token_balances:token_contract_address_hash:w&#45;&gt;tokens:contract_address_hash.type:e</title>
<path fill="none" stroke="black" d="M606.525,-1051.65C553.792,-1009.28 640.282,-699.425 565.5,-699.425"/>
<polygon fill="black" stroke="black" points="612.93,-1053.84 619.336,-1059.83 616.715,-1055.13 620.5,-1056.42 620.5,-1056.42 620.5,-1056.42 616.715,-1055.13 621.664,-1053.02 612.93,-1053.84 612.93,-1053.84"/>
<ellipse fill="none" stroke="black" cx="609.902" cy="-1052.8" rx="3.20001" ry="3.20001"/>
</g>
<!-- tokens&#45;&gt;addresses -->
<g id="edge27" class="edge"><title>tokens:contract_address_hash:w&#45;&gt;addresses:hash:e</title>
<path fill="none" stroke="black" d="M286.203,-696.475C238.782,-665.526 310.196,-401.425 247,-401.425"/>
<polygon fill="black" stroke="black" points="296.832,-695.359 294.629,-703.05 293.091,-702.609 295.294,-694.919 296.832,-695.359"/>
<polyline fill="none" stroke="black" points="296.5,-699.425 292.655,-698.323 "/>
<ellipse fill="none" stroke="black" cx="289.578" cy="-697.442" rx="3.20001" ry="3.20001"/>
</g>
<!-- address_token_balances -->
<g id="node6" class="node"><title>address_token_balances</title>
<g id="a_node6"><a xlink:href="../../tables/address_token_balances.html" xlink:title="address_token_balances" target="_top">
<polygon fill="#ffffff" stroke="none" points="639,-530.425 639,-698.425 836,-698.425 836,-530.425 639,-530.425"/>
<polygon fill="#f5f5f5" stroke="none" points="639.5,-676.425 639.5,-698.425 836.5,-698.425 836.5,-676.425 639.5,-676.425"/>
<polygon fill="none" stroke="black" points="639.5,-676.425 639.5,-698.425 836.5,-698.425 836.5,-676.425 639.5,-676.425"/>
<text text-anchor="start" x="644.5" y="-685.625" font-family="Helvetica,sans-Serif" font-weight="bold" font-size="11.00">address_token_balances</text>
<text text-anchor="start" x="797.5" y="-684.625" font-family="Helvetica,sans-Serif" font-size="11.00">[table]</text>
<polygon fill="none" stroke="black" points="639.5,-654.425 639.5,-676.425 836.5,-676.425 836.5,-654.425 639.5,-654.425"/>
<image xlink:href="../../images/primaryKeys.png" width="11px" height="12px" preserveAspectRatio="xMinYMin meet" x="644.5" y="-671.425"/>
<text text-anchor="start" x="659.5" y="-662.625" font-family="Helvetica,sans-Serif" font-size="11.00">id</text>
<polygon fill="#ffffff" stroke="none" points="639.5,-632.425 639.5,-654.425 836.5,-654.425 836.5,-632.425 639.5,-632.425"/>
<polygon fill="none" stroke="black" points="639.5,-632.425 639.5,-654.425 836.5,-654.425 836.5,-632.425 639.5,-632.425"/>
<image xlink:href="../../images/foreignKeys.png" width="11px" height="12px" preserveAspectRatio="xMinYMin meet" x="644.5" y="-649.425"/>
<text text-anchor="start" x="659.5" y="-640.625" font-family="Helvetica,sans-Serif" font-size="11.00">address_hash</text>
<polygon fill="#ffffff" stroke="none" points="639.5,-610.425 639.5,-632.425 836.5,-632.425 836.5,-610.425 639.5,-610.425"/>
<polygon fill="none" stroke="black" points="639.5,-610.425 639.5,-632.425 836.5,-632.425 836.5,-610.425 639.5,-610.425"/>
<text text-anchor="start" x="659.5" y="-618.625" font-family="Helvetica,sans-Serif" font-size="11.00">block_number</text>
<polygon fill="#ffffff" stroke="none" points="639.5,-588.425 639.5,-610.425 836.5,-610.425 836.5,-588.425 639.5,-588.425"/>
<polygon fill="none" stroke="black" points="639.5,-588.425 639.5,-610.425 836.5,-610.425 836.5,-588.425 639.5,-588.425"/>
<image xlink:href="../../images/foreignKeys.png" width="11px" height="12px" preserveAspectRatio="xMinYMin meet" x="644.5" y="-605.425"/>
<text text-anchor="start" x="659.5" y="-596.625" font-family="Helvetica,sans-Serif" font-size="11.00">token_contract_address_hash</text>
<polygon fill="#ffffff" stroke="none" points="639.5,-566.425 639.5,-588.425 836.5,-588.425 836.5,-566.425 639.5,-566.425"/>
<polygon fill="none" stroke="black" points="639.5,-566.425 639.5,-588.425 836.5,-588.425 836.5,-566.425 639.5,-566.425"/>
<text text-anchor="start" x="659.5" y="-574.625" font-family="Helvetica,sans-Serif" font-size="11.00">token_id</text>
<polygon fill="none" stroke="black" points="639.5,-548.425 639.5,-566.425 836.5,-566.425 836.5,-548.425 639.5,-548.425"/>
<text text-anchor="start" x="642.5" y="-554.625" font-family="Helvetica,sans-Serif" font-size="11.00">...</text>
<polygon fill="#ffffff" stroke="none" points="639.5,-530.425 639.5,-548.425 721.5,-548.425 721.5,-530.425 639.5,-530.425"/>
<polygon fill="none" stroke="black" points="639.5,-530.425 639.5,-548.425 721.5,-548.425 721.5,-530.425 639.5,-530.425"/>
<text text-anchor="start" x="642.5" y="-536.625" font-family="Helvetica,sans-Serif" font-size="11.00">&lt; 2</text>
<polygon fill="#ffffff" stroke="none" points="721.5,-530.425 721.5,-548.425 793.5,-548.425 793.5,-530.425 721.5,-530.425"/>
<polygon fill="none" stroke="black" points="721.5,-530.425 721.5,-548.425 793.5,-548.425 793.5,-530.425 721.5,-530.425"/>
<text text-anchor="start" x="754.5" y="-536.625" font-family="Helvetica,sans-Serif" font-size="11.00">0 rows</text>
<polygon fill="#ffffff" stroke="none" points="793.5,-530.425 793.5,-548.425 836.5,-548.425 836.5,-530.425 793.5,-530.425"/>
<polygon fill="none" stroke="black" points="793.5,-530.425 793.5,-548.425 836.5,-548.425 836.5,-530.425 793.5,-530.425"/>
<text text-anchor="start" x="826.5" y="-536.625" font-family="Helvetica,sans-Serif" font-size="11.00"> &#160;</text>
</a>
</g>
</g>
<!-- address_token_balances&#45;&gt;addresses -->
<g id="edge5" class="edge"><title>address_token_balances:address_hash:w&#45;&gt;addresses:hash:e</title>
<path fill="none" stroke="black" d="M624.061,-640.941C593.376,-628.4 612.791,-571.729 574,-548.425 464.022,-482.356 387.31,-597.414 287,-517.425 244.362,-483.424 301.535,-401.425 247,-401.425"/>
<polygon fill="black" stroke="black" points="630.616,-642.068 637.89,-646.973 634.558,-642.747 638.5,-643.425 638.5,-643.425 638.5,-643.425 634.558,-642.747 639.11,-639.877 630.616,-642.068 630.616,-642.068"/>
<ellipse fill="none" stroke="black" cx="627.462" cy="-641.526" rx="3.2" ry="3.2"/>
</g>
<!-- address_token_balances&#45;&gt;tokens -->
<g id="edge6" class="edge"><title>address_token_balances:token_contract_address_hash:w&#45;&gt;tokens:contract_address_hash.type:e</title>
<path fill="none" stroke="black" d="M624.391,-602.31C590.05,-618.706 614.938,-699.425 565.5,-699.425"/>
<polygon fill="black" stroke="black" points="630.662,-601.027 639.221,-602.952 634.581,-600.226 638.5,-599.425 638.5,-599.425 638.5,-599.425 634.581,-600.226 637.779,-595.898 630.662,-601.027 630.662,-601.027"/>
<ellipse fill="none" stroke="black" cx="627.527" cy="-601.669" rx="3.2" ry="3.2"/>
</g>
<!-- block_rewards -->
<g id="node7" class="node"><title>block_rewards</title>
<g id="a_node7"><a xlink:href="../../tables/block_rewards.html" xlink:title="block_rewards" target="_top">
<polygon fill="#ffffff" stroke="none" points="672.5,-400.425 672.5,-458.425 802.5,-458.425 802.5,-400.425 672.5,-400.425"/>
<polygon fill="#f5f5f5" stroke="none" points="672.5,-436.425 672.5,-458.425 802.5,-458.425 802.5,-436.425 672.5,-436.425"/>
<polygon fill="none" stroke="black" points="672.5,-436.425 672.5,-458.425 802.5,-458.425 802.5,-436.425 672.5,-436.425"/>
<text text-anchor="start" x="677.5" y="-445.625" font-family="Helvetica,sans-Serif" font-weight="bold" font-size="11.00">block_rewards</text>
<text text-anchor="start" x="763.5" y="-444.625" font-family="Helvetica,sans-Serif" font-size="11.00">[table]</text>
<polygon fill="none" stroke="black" points="672.5,-418.425 672.5,-436.425 802.5,-436.425 802.5,-418.425 672.5,-418.425"/>
<text text-anchor="start" x="675.5" y="-424.625" font-family="Helvetica,sans-Serif" font-size="11.00">...</text>
<polygon fill="#ffffff" stroke="none" points="672.5,-400.425 672.5,-418.425 721.5,-418.425 721.5,-400.425 672.5,-400.425"/>
<polygon fill="none" stroke="black" points="672.5,-400.425 672.5,-418.425 721.5,-418.425 721.5,-400.425 672.5,-400.425"/>
<text text-anchor="start" x="675.5" y="-406.625" font-family="Helvetica,sans-Serif" font-size="11.00">&lt; 2</text>
<polygon fill="#ffffff" stroke="none" points="721.5,-400.425 721.5,-418.425 776.5,-418.425 776.5,-400.425 721.5,-400.425"/>
<polygon fill="none" stroke="black" points="721.5,-400.425 721.5,-418.425 776.5,-418.425 776.5,-400.425 721.5,-400.425"/>
<text text-anchor="start" x="737.5" y="-406.625" font-family="Helvetica,sans-Serif" font-size="11.00">0 rows</text>
<polygon fill="#ffffff" stroke="none" points="776.5,-400.425 776.5,-418.425 802.5,-418.425 802.5,-400.425 776.5,-400.425"/>
<polygon fill="none" stroke="black" points="776.5,-400.425 776.5,-418.425 802.5,-418.425 802.5,-400.425 776.5,-400.425"/>
<text text-anchor="start" x="792.5" y="-406.625" font-family="Helvetica,sans-Serif" font-size="11.00"> &#160;</text>
</a>
</g>
</g>
<!-- block_rewards&#45;&gt;addresses -->
<g id="edge7" class="edge"><title>block_rewards:elipses:w&#45;&gt;addresses:hash:e</title>
<path fill="none" stroke="black" d="M656.926,-427.934C624.711,-430.306 612.468,-440.289 574,-443.425 446.866,-453.787 404.242,-493.671 287,-443.425 263.306,-433.27 272.778,-401.425 247,-401.425"/>
<polygon fill="black" stroke="black" points="663.505,-427.704 671.626,-431.023 667.502,-427.565 671.5,-427.425 671.5,-427.425 671.5,-427.425 667.502,-427.565 671.374,-423.827 663.505,-427.704 663.505,-427.704"/>
<ellipse fill="none" stroke="black" cx="660.307" cy="-427.816" rx="3.2" ry="3.2"/>
</g>
<!-- blocks -->
<g id="node8" class="node"><title>blocks</title>
<g id="a_node8"><a xlink:href="../../tables/blocks.html" xlink:title="blocks" target="_top">
<polygon fill="#ffffff" stroke="none" points="386.5,-295.425 386.5,-353.425 474.5,-353.425 474.5,-295.425 386.5,-295.425"/>
<polygon fill="#f5f5f5" stroke="none" points="386.5,-331.425 386.5,-353.425 474.5,-353.425 474.5,-331.425 386.5,-331.425"/>
<polygon fill="none" stroke="black" points="386.5,-331.425 386.5,-353.425 474.5,-353.425 474.5,-331.425 386.5,-331.425"/>
<text text-anchor="start" x="391.5" y="-340.625" font-family="Helvetica,sans-Serif" font-weight="bold" font-size="11.00">blocks</text>
<text text-anchor="start" x="435.5" y="-339.625" font-family="Helvetica,sans-Serif" font-size="11.00">[table]</text>
<polygon fill="none" stroke="black" points="386.5,-313.425 386.5,-331.425 474.5,-331.425 474.5,-313.425 386.5,-313.425"/>
<text text-anchor="start" x="389.5" y="-319.625" font-family="Helvetica,sans-Serif" font-size="11.00">...</text>
<polygon fill="#ffffff" stroke="none" points="386.5,-295.425 386.5,-313.425 409.5,-313.425 409.5,-295.425 386.5,-295.425"/>
<polygon fill="none" stroke="black" points="386.5,-295.425 386.5,-313.425 409.5,-313.425 409.5,-295.425 386.5,-295.425"/>
<text text-anchor="start" x="389.5" y="-301.625" font-family="Helvetica,sans-Serif" font-size="11.00">&lt; 1</text>
<polygon fill="#ffffff" stroke="none" points="409.5,-295.425 409.5,-313.425 451.5,-313.425 451.5,-295.425 409.5,-295.425"/>
<polygon fill="none" stroke="black" points="409.5,-295.425 409.5,-313.425 451.5,-313.425 451.5,-295.425 409.5,-295.425"/>
<text text-anchor="start" x="412.5" y="-301.625" font-family="Helvetica,sans-Serif" font-size="11.00">3 rows</text>
<polygon fill="#ffffff" stroke="none" points="451.5,-295.425 451.5,-313.425 474.5,-313.425 474.5,-295.425 451.5,-295.425"/>
<polygon fill="none" stroke="black" points="451.5,-295.425 451.5,-313.425 474.5,-313.425 474.5,-295.425 451.5,-295.425"/>
<text text-anchor="start" x="454.5" y="-301.625" font-family="Helvetica,sans-Serif" font-size="11.00">8 &gt;</text>
</a>
</g>
</g>
<!-- block_rewards&#45;&gt;blocks -->
<g id="edge8" class="edge"><title>block_rewards:elipses:w&#45;&gt;blocks:elipses:e</title>
<path fill="none" stroke="black" d="M657.1,-425.727C636.144,-420.159 630.796,-401.917 607,-386.425 552.528,-350.961 540.499,-322.425 475.5,-322.425"/>
<polygon fill="black" stroke="black" points="663.555,-426.488 671.078,-431 667.528,-426.957 671.5,-427.425 671.5,-427.425 671.5,-427.425 667.528,-426.957 671.922,-423.85 663.555,-426.488 663.555,-426.488"/>
<ellipse fill="none" stroke="black" cx="660.377" cy="-426.114" rx="3.2" ry="3.2"/>
</g>
<!-- blocks&#45;&gt;addresses -->
<g id="edge9" class="edge"><title>blocks:elipses:w&#45;&gt;addresses:hash:e</title>
<path fill="none" stroke="black" d="M370.641,-323.036C335.053,-326.204 322.42,-341.484 287,-364.425 266.674,-377.59 271.217,-401.425 247,-401.425"/>
<polygon fill="black" stroke="black" points="377.507,-322.754 385.648,-326.022 381.503,-322.589 385.5,-322.425 385.5,-322.425 385.5,-322.425 381.503,-322.589 385.352,-318.828 377.507,-322.754 377.507,-322.754"/>
<ellipse fill="none" stroke="black" cx="374.309" cy="-322.886" rx="3.2" ry="3.2"/>
</g>
<!-- bridged_tokens -->
<g id="node9" class="node"><title>bridged_tokens</title>
<g id="a_node9"><a xlink:href="../../tables/bridged_tokens.html" xlink:title="bridged_tokens" target="_top">
<polygon fill="#ffffff" stroke="none" points="615,-864.425 615,-944.425 860,-944.425 860,-864.425 615,-864.425"/>
<polygon fill="#f5f5f5" stroke="none" points="615.5,-922.425 615.5,-944.425 860.5,-944.425 860.5,-922.425 615.5,-922.425"/>
<polygon fill="none" stroke="black" points="615.5,-922.425 615.5,-944.425 860.5,-944.425 860.5,-922.425 615.5,-922.425"/>
<text text-anchor="start" x="620.5" y="-931.625" font-family="Helvetica,sans-Serif" font-weight="bold" font-size="11.00">bridged_tokens</text>
<text text-anchor="start" x="821.5" y="-930.625" font-family="Helvetica,sans-Serif" font-size="11.00">[table]</text>
<polygon fill="#ffffff" stroke="none" points="615.5,-900.425 615.5,-922.425 860.5,-922.425 860.5,-900.425 615.5,-900.425"/>
<polygon fill="none" stroke="black" points="615.5,-900.425 615.5,-922.425 860.5,-922.425 860.5,-900.425 615.5,-900.425"/>
<image xlink:href="../../images/foreignKeys.png" width="11px" height="12px" preserveAspectRatio="xMinYMin meet" x="620.5" y="-917.425"/>
<text text-anchor="start" x="635.5" y="-908.625" font-family="Helvetica,sans-Serif" font-size="11.00">home_token_contract_address_hash</text>
<polygon fill="none" stroke="black" points="615.5,-882.425 615.5,-900.425 860.5,-900.425 860.5,-882.425 615.5,-882.425"/>
<text text-anchor="start" x="618.5" y="-888.625" font-family="Helvetica,sans-Serif" font-size="11.00">...</text>
<polygon fill="#ffffff" stroke="none" points="615.5,-864.425 615.5,-882.425 721.5,-882.425 721.5,-864.425 615.5,-864.425"/>
<polygon fill="none" stroke="black" points="615.5,-864.425 615.5,-882.425 721.5,-882.425 721.5,-864.425 615.5,-864.425"/>
<text text-anchor="start" x="618.5" y="-870.625" font-family="Helvetica,sans-Serif" font-size="11.00">&lt; 1</text>
<polygon fill="#ffffff" stroke="none" points="721.5,-864.425 721.5,-882.425 805.5,-882.425 805.5,-864.425 721.5,-864.425"/>
<polygon fill="none" stroke="black" points="721.5,-864.425 721.5,-882.425 805.5,-882.425 805.5,-864.425 721.5,-864.425"/>
<text text-anchor="start" x="766.5" y="-870.625" font-family="Helvetica,sans-Serif" font-size="11.00">0 rows</text>
<polygon fill="#ffffff" stroke="none" points="805.5,-864.425 805.5,-882.425 860.5,-882.425 860.5,-864.425 805.5,-864.425"/>
<polygon fill="none" stroke="black" points="805.5,-864.425 805.5,-882.425 860.5,-882.425 860.5,-864.425 805.5,-864.425"/>
<text text-anchor="start" x="850.5" y="-870.625" font-family="Helvetica,sans-Serif" font-size="11.00"> &#160;</text>
</a>
</g>
</g>
<!-- bridged_tokens&#45;&gt;tokens -->
<g id="edge10" class="edge"><title>bridged_tokens:home_token_contract_address_hash:w&#45;&gt;tokens:contract_address_hash.type:e</title>
<path fill="none" stroke="black" d="M603.784,-910.384C529.234,-894.391 658.24,-699.425 565.5,-699.425"/>
<polygon fill="black" stroke="black" points="614.09,-907.366 613.317,-915.329 611.725,-915.174 612.498,-907.212 614.09,-907.366"/>
<polyline fill="none" stroke="black" points="614.5,-911.425 610.519,-911.038 "/>
<ellipse fill="none" stroke="black" cx="607.334" cy="-910.729" rx="3.2" ry="3.2"/>
</g>
<!-- decompiled_smart_contracts -->
<g id="node10" class="node"><title>decompiled_smart_contracts</title>
<g id="a_node10"><a xlink:href="../../tables/decompiled_smart_contracts.html" xlink:title="decompiled_smart_contracts" target="_top">
<polygon fill="#ffffff" stroke="none" points="324,-374.425 324,-432.425 537,-432.425 537,-374.425 324,-374.425"/>
<polygon fill="#f5f5f5" stroke="none" points="324.5,-410.425 324.5,-432.425 537.5,-432.425 537.5,-410.425 324.5,-410.425"/>
<polygon fill="none" stroke="black" points="324.5,-410.425 324.5,-432.425 537.5,-432.425 537.5,-410.425 324.5,-410.425"/>
<text text-anchor="start" x="329.5" y="-419.625" font-family="Helvetica,sans-Serif" font-weight="bold" font-size="11.00">decompiled_smart_contracts</text>
<text text-anchor="start" x="498.5" y="-418.625" font-family="Helvetica,sans-Serif" font-size="11.00">[table]</text>
<polygon fill="none" stroke="black" points="324.5,-392.425 324.5,-410.425 537.5,-410.425 537.5,-392.425 324.5,-392.425"/>
<text text-anchor="start" x="327.5" y="-398.625" font-family="Helvetica,sans-Serif" font-size="11.00">...</text>
<polygon fill="#ffffff" stroke="none" points="324.5,-374.425 324.5,-392.425 414.5,-392.425 414.5,-374.425 324.5,-374.425"/>
<polygon fill="none" stroke="black" points="324.5,-374.425 324.5,-392.425 414.5,-392.425 414.5,-374.425 324.5,-374.425"/>
<text text-anchor="start" x="327.5" y="-380.625" font-family="Helvetica,sans-Serif" font-size="11.00">&lt; 1</text>
<polygon fill="#ffffff" stroke="none" points="414.5,-374.425 414.5,-392.425 490.5,-392.425 490.5,-374.425 414.5,-374.425"/>
<polygon fill="none" stroke="black" points="414.5,-374.425 414.5,-392.425 490.5,-392.425 490.5,-374.425 414.5,-374.425"/>
<text text-anchor="start" x="451.5" y="-380.625" font-family="Helvetica,sans-Serif" font-size="11.00">0 rows</text>
<polygon fill="#ffffff" stroke="none" points="490.5,-374.425 490.5,-392.425 537.5,-392.425 537.5,-374.425 490.5,-374.425"/>
<polygon fill="none" stroke="black" points="490.5,-374.425 490.5,-392.425 537.5,-392.425 537.5,-374.425 490.5,-374.425"/>
<text text-anchor="start" x="527.5" y="-380.625" font-family="Helvetica,sans-Serif" font-size="11.00"> &#160;</text>
</a>
</g>
</g>
<!-- decompiled_smart_contracts&#45;&gt;addresses -->
<g id="edge11" class="edge"><title>decompiled_smart_contracts:elipses:w&#45;&gt;addresses:hash:e</title>
<path fill="none" stroke="black" d="M308.917,-401.425C286.123,-401.425 275.555,-401.425 247,-401.425"/>
<polygon fill="black" stroke="black" points="315.5,-401.425 323.5,-405.025 319.5,-401.425 323.5,-401.425 323.5,-401.425 323.5,-401.425 319.5,-401.425 323.5,-397.825 315.5,-401.425 315.5,-401.425"/>
<ellipse fill="none" stroke="black" cx="312.3" cy="-401.425" rx="3.2" ry="3.2"/>
</g>
<!-- internal_transactions -->
<g id="node11" class="node"><title>internal_transactions</title>
<g id="a_node11"><a xlink:href="../../tables/internal_transactions.html" xlink:title="internal_transactions" target="_top">
<polygon fill="#ffffff" stroke="none" points="909,-467.425 909,-525.425 1080,-525.425 1080,-467.425 909,-467.425"/>
<polygon fill="#f5f5f5" stroke="none" points="909.5,-503.425 909.5,-525.425 1080.5,-525.425 1080.5,-503.425 909.5,-503.425"/>
<polygon fill="none" stroke="black" points="909.5,-503.425 909.5,-525.425 1080.5,-525.425 1080.5,-503.425 909.5,-503.425"/>
<text text-anchor="start" x="914.5" y="-512.625" font-family="Helvetica,sans-Serif" font-weight="bold" font-size="11.00">internal_transactions</text>
<text text-anchor="start" x="1041.5" y="-511.625" font-family="Helvetica,sans-Serif" font-size="11.00">[table]</text>
<polygon fill="none" stroke="black" points="909.5,-485.425 909.5,-503.425 1080.5,-503.425 1080.5,-485.425 909.5,-485.425"/>
<text text-anchor="start" x="912.5" y="-491.625" font-family="Helvetica,sans-Serif" font-size="11.00">...</text>
<polygon fill="#ffffff" stroke="none" points="909.5,-467.425 909.5,-485.425 981.5,-485.425 981.5,-467.425 909.5,-467.425"/>
<polygon fill="none" stroke="black" points="909.5,-467.425 909.5,-485.425 981.5,-485.425 981.5,-467.425 909.5,-467.425"/>
<text text-anchor="start" x="912.5" y="-473.625" font-family="Helvetica,sans-Serif" font-size="11.00">&lt; 5</text>
<polygon fill="#ffffff" stroke="none" points="981.5,-467.425 981.5,-485.425 1042.5,-485.425 1042.5,-467.425 981.5,-467.425"/>
<polygon fill="none" stroke="black" points="981.5,-467.425 981.5,-485.425 1042.5,-485.425 1042.5,-467.425 981.5,-467.425"/>
<text text-anchor="start" x="1008.5" y="-473.625" font-family="Helvetica,sans-Serif" font-size="11.00">1 row</text>
<polygon fill="#ffffff" stroke="none" points="1042.5,-467.425 1042.5,-485.425 1080.5,-485.425 1080.5,-467.425 1042.5,-467.425"/>
<polygon fill="none" stroke="black" points="1042.5,-467.425 1042.5,-485.425 1080.5,-485.425 1080.5,-467.425 1042.5,-467.425"/>
<text text-anchor="start" x="1070.5" y="-473.625" font-family="Helvetica,sans-Serif" font-size="11.00"> &#160;</text>
</a>
</g>
</g>
<!-- internal_transactions&#45;&gt;addresses -->
<g id="edge13" class="edge"><title>internal_transactions:elipses:w&#45;&gt;addresses:hash:e</title>
<path fill="none" stroke="black" d="M893.999,-494.554C746.343,-497.014 402.372,-532.932 287,-465.425 258.049,-448.485 280.543,-401.425 247,-401.425"/>
<polygon fill="black" stroke="black" points="900.5,-494.496 908.532,-498.025 904.5,-494.461 908.5,-494.425 908.5,-494.425 908.5,-494.425 904.5,-494.461 908.468,-490.825 900.5,-494.496 900.5,-494.496"/>
<ellipse fill="none" stroke="black" cx="897.3" cy="-494.525" rx="3.2" ry="3.2"/>
</g>
<!-- internal_transactions&#45;&gt;addresses -->
<g id="edge14" class="edge"><title>internal_transactions:elipses:w&#45;&gt;addresses:hash:e</title>
<path fill="none" stroke="black" d="M893.997,-493.959C746.355,-490.666 403.177,-521.623 287,-455.425 259.154,-439.558 279.049,-395.425 247,-401.425"/>
<polygon fill="black" stroke="black" points="900.504,-494.168 908.384,-498.023 904.502,-494.296 908.5,-494.425 908.5,-494.425 908.5,-494.425 904.502,-494.296 908.616,-490.827 900.504,-494.168 900.504,-494.168"/>
<ellipse fill="none" stroke="black" cx="897.306" cy="-494.065" rx="3.2" ry="3.2"/>
</g>
<!-- internal_transactions&#45;&gt;addresses -->
<g id="edge15" class="edge"><title>internal_transactions:elipses:w&#45;&gt;addresses:hash:e</title>
<path fill="none" stroke="black" d="M893.997,-495.211C746.355,-503.666 403.177,-534.623 287,-468.425 259.154,-452.558 279.049,-408.425 247,-401.425"/>
<polygon fill="black" stroke="black" points="900.512,-494.858 908.695,-498.02 904.506,-494.642 908.5,-494.425 908.5,-494.425 908.5,-494.425 904.506,-494.642 908.305,-490.83 900.512,-494.858 900.512,-494.858"/>
<ellipse fill="none" stroke="black" cx="897.316" cy="-495.031" rx="3.2" ry="3.2"/>
</g>
<!-- internal_transactions&#45;&gt;blocks -->
<g id="edge12" class="edge"><title>internal_transactions:elipses:w&#45;&gt;blocks:elipses:e</title>
<path fill="none" stroke="black" d="M894.113,-491.22C869.534,-476.789 902.017,-417.382 868,-390.425 822.089,-354.041 664.568,-364.268 607,-353.425 547.991,-342.311 535.546,-322.425 475.5,-322.425"/>
<polygon fill="black" stroke="black" points="900.691,-492.685 907.717,-497.939 904.596,-493.555 908.5,-494.425 908.5,-494.425 908.5,-494.425 904.596,-493.555 909.283,-490.911 900.691,-492.685 900.691,-492.685"/>
<ellipse fill="none" stroke="black" cx="897.568" cy="-491.989" rx="3.2" ry="3.2"/>
</g>
<!-- transactions -->
<g id="node12" class="node"><title>transactions</title>
<g id="a_node12"><a xlink:href="../../tables/transactions.html" xlink:title="transactions" target="_top">
<polygon fill="#ffffff" stroke="none" points="677.5,-240.425 677.5,-298.425 797.5,-298.425 797.5,-240.425 677.5,-240.425"/>
<polygon fill="#f5f5f5" stroke="none" points="677.5,-276.425 677.5,-298.425 797.5,-298.425 797.5,-276.425 677.5,-276.425"/>
<polygon fill="none" stroke="black" points="677.5,-276.425 677.5,-298.425 797.5,-298.425 797.5,-276.425 677.5,-276.425"/>
<text text-anchor="start" x="682.5" y="-285.625" font-family="Helvetica,sans-Serif" font-weight="bold" font-size="11.00">transactions</text>
<text text-anchor="start" x="758.5" y="-284.625" font-family="Helvetica,sans-Serif" font-size="11.00">[table]</text>
<polygon fill="none" stroke="black" points="677.5,-258.425 677.5,-276.425 797.5,-276.425 797.5,-258.425 677.5,-258.425"/>
<text text-anchor="start" x="680.5" y="-264.625" font-family="Helvetica,sans-Serif" font-size="11.00">...</text>
<polygon fill="#ffffff" stroke="none" points="677.5,-240.425 677.5,-258.425 718.5,-258.425 718.5,-240.425 677.5,-240.425"/>
<polygon fill="none" stroke="black" points="677.5,-240.425 677.5,-258.425 718.5,-258.425 718.5,-240.425 677.5,-240.425"/>
<text text-anchor="start" x="680.5" y="-246.625" font-family="Helvetica,sans-Serif" font-size="11.00">&lt; 4</text>
<polygon fill="#ffffff" stroke="none" points="718.5,-240.425 718.5,-258.425 764.5,-258.425 764.5,-240.425 718.5,-240.425"/>
<polygon fill="none" stroke="black" points="718.5,-240.425 718.5,-258.425 764.5,-258.425 764.5,-240.425 718.5,-240.425"/>
<text text-anchor="start" x="730.5" y="-246.625" font-family="Helvetica,sans-Serif" font-size="11.00">1 row</text>
<polygon fill="#ffffff" stroke="none" points="764.5,-240.425 764.5,-258.425 797.5,-258.425 797.5,-240.425 764.5,-240.425"/>
<polygon fill="none" stroke="black" points="764.5,-240.425 764.5,-258.425 797.5,-258.425 797.5,-240.425 764.5,-240.425"/>
<text text-anchor="start" x="777.5" y="-246.625" font-family="Helvetica,sans-Serif" font-size="11.00">4 &gt;</text>
</a>
</g>
</g>
<!-- internal_transactions&#45;&gt;transactions -->
<g id="edge16" class="edge"><title>internal_transactions:elipses:w&#45;&gt;transactions:elipses:e</title>
<path fill="none" stroke="black" d="M893.866,-492.382C857.054,-480.072 891.867,-414.687 868,-366.425 844.169,-318.236 852.26,-267.425 798.5,-267.425"/>
<polygon fill="black" stroke="black" points="900.577,-493.319 908.002,-497.99 904.538,-493.872 908.5,-494.425 908.5,-494.425 908.5,-494.425 904.538,-493.872 908.998,-490.859 900.577,-493.319 900.577,-493.319"/>
<ellipse fill="none" stroke="black" cx="897.408" cy="-492.876" rx="3.2" ry="3.2"/>
</g>
<!-- transactions&#45;&gt;addresses -->
<g id="edge29" class="edge"><title>transactions:elipses:w&#45;&gt;addresses:hash:e</title>
<path fill="none" stroke="black" d="M662.004,-267.225C498.768,-262.715 421.816,-184.533 287,-285.425 243.338,-318.1 301.535,-401.425 247,-401.425"/>
<polygon fill="black" stroke="black" points="668.501,-267.314 676.45,-271.025 672.5,-267.37 676.5,-267.425 676.5,-267.425 676.5,-267.425 672.5,-267.37 676.55,-263.825 668.501,-267.314 668.501,-267.314"/>
<ellipse fill="none" stroke="black" cx="665.301" cy="-267.27" rx="3.2" ry="3.2"/>
</g>
<!-- transactions&#45;&gt;addresses -->
<g id="edge30" class="edge"><title>transactions:elipses:w&#45;&gt;addresses:hash:e</title>
<path fill="none" stroke="black" d="M661.997,-266.739C498.688,-256.938 421.923,-182.528 287,-283.425 244.67,-315.08 299.857,-395.425 247,-401.425"/>
<polygon fill="black" stroke="black" points="668.509,-267.047 676.33,-271.021 672.504,-267.236 676.5,-267.425 676.5,-267.425 676.5,-267.425 672.504,-267.236 676.67,-263.829 668.509,-267.047 668.509,-267.047"/>
<ellipse fill="none" stroke="black" cx="665.313" cy="-266.895" rx="3.2" ry="3.2"/>
</g>
<!-- transactions&#45;&gt;addresses -->
<g id="edge31" class="edge"><title>transactions:elipses:w&#45;&gt;addresses:hash:e</title>
<path fill="none" stroke="black" d="M661.997,-267.812C498.688,-269.938 421.923,-195.528 287,-296.425 244.67,-328.08 299.857,-408.425 247,-401.425"/>
<polygon fill="black" stroke="black" points="668.503,-267.638 676.596,-271.024 672.501,-267.532 676.5,-267.425 676.5,-267.425 676.5,-267.425 672.501,-267.532 676.404,-263.826 668.503,-267.638 668.503,-267.638"/>
<ellipse fill="none" stroke="black" cx="665.304" cy="-267.724" rx="3.2" ry="3.2"/>
</g>
<!-- transactions&#45;&gt;blocks -->
<g id="edge28" class="edge"><title>transactions:elipses:w&#45;&gt;blocks:elipses:e</title>
<path fill="none" stroke="black" d="M661.969,-267.9C581.928,-273.276 563.052,-322.425 475.5,-322.425"/>
<polygon fill="black" stroke="black" points="668.504,-267.687 676.618,-271.023 672.502,-267.556 676.5,-267.425 676.5,-267.425 676.5,-267.425 672.502,-267.556 676.382,-263.827 668.504,-267.687 668.504,-267.687"/>
<ellipse fill="none" stroke="black" cx="665.306" cy="-267.791" rx="3.2" ry="3.2"/>
</g>
<!-- logs -->
<g id="node13" class="node"><title>logs</title>
<g id="a_node13"><a xlink:href="../../tables/logs.html" xlink:title="logs" target="_top">
<polygon fill="#ffffff" stroke="none" points="955.5,-240.425 955.5,-298.425 1033.5,-298.425 1033.5,-240.425 955.5,-240.425"/>
<polygon fill="#f5f5f5" stroke="none" points="955.5,-276.425 955.5,-298.425 1033.5,-298.425 1033.5,-276.425 955.5,-276.425"/>
<polygon fill="none" stroke="black" points="955.5,-276.425 955.5,-298.425 1033.5,-298.425 1033.5,-276.425 955.5,-276.425"/>
<text text-anchor="start" x="960.5" y="-285.625" font-family="Helvetica,sans-Serif" font-weight="bold" font-size="11.00">logs</text>
<text text-anchor="start" x="994.5" y="-284.625" font-family="Helvetica,sans-Serif" font-size="11.00">[table]</text>
<polygon fill="none" stroke="black" points="955.5,-258.425 955.5,-276.425 1033.5,-276.425 1033.5,-258.425 955.5,-258.425"/>
<text text-anchor="start" x="958.5" y="-264.625" font-family="Helvetica,sans-Serif" font-size="11.00">...</text>
<polygon fill="#ffffff" stroke="none" points="955.5,-240.425 955.5,-258.425 978.5,-258.425 978.5,-240.425 955.5,-240.425"/>
<polygon fill="none" stroke="black" points="955.5,-240.425 955.5,-258.425 978.5,-258.425 978.5,-240.425 955.5,-240.425"/>
<text text-anchor="start" x="958.5" y="-246.625" font-family="Helvetica,sans-Serif" font-size="11.00">&lt; 3</text>
<polygon fill="#ffffff" stroke="none" points="978.5,-240.425 978.5,-258.425 1020.5,-258.425 1020.5,-240.425 978.5,-240.425"/>
<polygon fill="none" stroke="black" points="978.5,-240.425 978.5,-258.425 1020.5,-258.425 1020.5,-240.425 978.5,-240.425"/>
<text text-anchor="start" x="981.5" y="-246.625" font-family="Helvetica,sans-Serif" font-size="11.00">0 rows</text>
<polygon fill="#ffffff" stroke="none" points="1020.5,-240.425 1020.5,-258.425 1033.5,-258.425 1033.5,-240.425 1020.5,-240.425"/>
<polygon fill="none" stroke="black" points="1020.5,-240.425 1020.5,-258.425 1033.5,-258.425 1033.5,-240.425 1020.5,-240.425"/>
<text text-anchor="start" x="1023.5" y="-246.625" font-family="Helvetica,sans-Serif" font-size="11.00"> &#160;</text>
</a>
</g>
</g>
<!-- logs&#45;&gt;addresses -->
<g id="edge17" class="edge"><title>logs:elipses:w&#45;&gt;addresses:hash:e</title>
<path fill="none" stroke="black" d="M940.067,-266.103C911.107,-260.386 903.682,-237.736 868,-230.425 825.959,-221.811 293.864,-227.951 287,-233.425 226.992,-281.281 323.754,-401.425 247,-401.425"/>
<polygon fill="black" stroke="black" points="946.533,-266.695 954.172,-271.01 950.517,-267.06 954.5,-267.425 954.5,-267.425 954.5,-267.425 950.517,-267.06 954.828,-263.84 946.533,-266.695 946.533,-266.695"/>
<ellipse fill="none" stroke="black" cx="943.347" cy="-266.404" rx="3.2" ry="3.2"/>
</g>
<!-- logs&#45;&gt;blocks -->
<g id="edge18" class="edge"><title>logs:elipses:w&#45;&gt;blocks:elipses:e</title>
<path fill="none" stroke="black" d="M940.129,-269.218C907.365,-278.258 908.447,-318.922 868,-332.425 702.479,-387.683 650.001,-322.425 475.5,-322.425"/>
<polygon fill="black" stroke="black" points="946.562,-268.416 954.946,-270.997 950.531,-267.92 954.5,-267.425 954.5,-267.425 954.5,-267.425 950.531,-267.92 954.054,-263.853 946.562,-268.416 946.562,-268.416"/>
<ellipse fill="none" stroke="black" cx="943.386" cy="-268.812" rx="3.2" ry="3.2"/>
</g>
<!-- logs&#45;&gt;transactions -->
<g id="edge19" class="edge"><title>logs:elipses:w&#45;&gt;transactions:elipses:e</title>
<path fill="none" stroke="black" d="M939.879,-267.425C882.307,-267.425 862.688,-267.425 798.5,-267.425"/>
<polygon fill="black" stroke="black" points="946.5,-267.425 954.5,-271.025 950.5,-267.425 954.5,-267.425 954.5,-267.425 954.5,-267.425 950.5,-267.425 954.5,-263.825 946.5,-267.425 946.5,-267.425"/>
<ellipse fill="none" stroke="black" cx="943.3" cy="-267.425" rx="3.2" ry="3.2"/>
</g>
<!-- smart_contracts -->
<g id="node14" class="node"><title>smart_contracts</title>
<g id="a_node14"><a xlink:href="../../tables/smart_contracts.html" xlink:title="smart_contracts" target="_top">
<polygon fill="#ffffff" stroke="none" points="360,-138.425 360,-196.425 501,-196.425 501,-138.425 360,-138.425"/>
<polygon fill="#f5f5f5" stroke="none" points="360.5,-174.425 360.5,-196.425 501.5,-196.425 501.5,-174.425 360.5,-174.425"/>
<polygon fill="none" stroke="black" points="360.5,-174.425 360.5,-196.425 501.5,-196.425 501.5,-174.425 360.5,-174.425"/>
<text text-anchor="start" x="365.5" y="-183.625" font-family="Helvetica,sans-Serif" font-weight="bold" font-size="11.00">smart_contracts</text>
<text text-anchor="start" x="462.5" y="-182.625" font-family="Helvetica,sans-Serif" font-size="11.00">[table]</text>
<polygon fill="none" stroke="black" points="360.5,-156.425 360.5,-174.425 501.5,-174.425 501.5,-156.425 360.5,-156.425"/>
<text text-anchor="start" x="363.5" y="-162.625" font-family="Helvetica,sans-Serif" font-size="11.00">...</text>
<polygon fill="#ffffff" stroke="none" points="360.5,-138.425 360.5,-156.425 409.5,-156.425 409.5,-138.425 360.5,-138.425"/>
<polygon fill="none" stroke="black" points="360.5,-138.425 360.5,-156.425 409.5,-156.425 409.5,-138.425 360.5,-138.425"/>
<text text-anchor="start" x="363.5" y="-144.625" font-family="Helvetica,sans-Serif" font-size="11.00">&lt; 1</text>
<polygon fill="#ffffff" stroke="none" points="409.5,-138.425 409.5,-156.425 464.5,-156.425 464.5,-138.425 409.5,-138.425"/>
<polygon fill="none" stroke="black" points="409.5,-138.425 409.5,-156.425 464.5,-156.425 464.5,-138.425 409.5,-138.425"/>
<text text-anchor="start" x="425.5" y="-144.625" font-family="Helvetica,sans-Serif" font-size="11.00">0 rows</text>
<polygon fill="#ffffff" stroke="none" points="464.5,-138.425 464.5,-156.425 501.5,-156.425 501.5,-138.425 464.5,-138.425"/>
<polygon fill="none" stroke="black" points="464.5,-138.425 464.5,-156.425 501.5,-156.425 501.5,-138.425 464.5,-138.425"/>
<text text-anchor="start" x="481.5" y="-144.625" font-family="Helvetica,sans-Serif" font-size="11.00">1 &gt;</text>
</a>
</g>
</g>
<!-- smart_contracts&#45;&gt;addresses -->
<g id="edge20" class="edge"><title>smart_contracts:elipses:w&#45;&gt;addresses:hash:e</title>
<path fill="none" stroke="black" d="M349.076,-165.826C318.986,-168.31 306.629,-182.393 287,-210.425 237.253,-281.47 333.73,-401.425 247,-401.425"/>
<polygon fill="black" stroke="black" points="358.547,-161.459 358.855,-169.453 357.256,-169.514 356.948,-161.52 358.547,-161.459"/>
<polyline fill="none" stroke="black" points="359.5,-165.425 355.503,-165.579 "/>
<ellipse fill="none" stroke="black" cx="352.305" cy="-165.702" rx="3.2" ry="3.2"/>
</g>
<!-- token_instances -->
<g id="node15" class="node"><title>token_instances</title>
<g id="a_node15"><a xlink:href="../../tables/token_instances.html" xlink:title="token_instances" target="_top">
<polygon fill="#ffffff" stroke="none" points="639,-719.425 639,-843.425 836,-843.425 836,-719.425 639,-719.425"/>
<polygon fill="#f5f5f5" stroke="none" points="639.5,-821.425 639.5,-843.425 836.5,-843.425 836.5,-821.425 639.5,-821.425"/>
<polygon fill="none" stroke="black" points="639.5,-821.425 639.5,-843.425 836.5,-843.425 836.5,-821.425 639.5,-821.425"/>
<text text-anchor="start" x="644.5" y="-830.625" font-family="Helvetica,sans-Serif" font-weight="bold" font-size="11.00">token_instances</text>
<text text-anchor="start" x="797.5" y="-829.625" font-family="Helvetica,sans-Serif" font-size="11.00">[table]</text>
<polygon fill="none" stroke="black" points="639.5,-799.425 639.5,-821.425 836.5,-821.425 836.5,-799.425 639.5,-799.425"/>
<image xlink:href="../../images/primaryKeys.png" width="11px" height="12px" preserveAspectRatio="xMinYMin meet" x="644.5" y="-816.425"/>
<text text-anchor="start" x="659.5" y="-807.625" font-family="Helvetica,sans-Serif" font-size="11.00">token_id</text>
<polygon fill="none" stroke="black" points="639.5,-777.425 639.5,-799.425 836.5,-799.425 836.5,-777.425 639.5,-777.425"/>
<image xlink:href="../../images/primaryKeys.png" width="11px" height="12px" preserveAspectRatio="xMinYMin meet" x="644.5" y="-794.425"/>
<text text-anchor="start" x="659.5" y="-785.625" font-family="Helvetica,sans-Serif" font-size="11.00">token_contract_address_hash</text>
<polygon fill="#ffffff" stroke="none" points="639.5,-755.425 639.5,-777.425 836.5,-777.425 836.5,-755.425 639.5,-755.425"/>
<polygon fill="none" stroke="black" points="639.5,-755.425 639.5,-777.425 836.5,-777.425 836.5,-755.425 639.5,-755.425"/>
<text text-anchor="start" x="659.5" y="-763.625" font-family="Helvetica,sans-Serif" font-size="11.00">error</text>
<polygon fill="none" stroke="black" points="639.5,-737.425 639.5,-755.425 836.5,-755.425 836.5,-737.425 639.5,-737.425"/>
<text text-anchor="start" x="642.5" y="-743.625" font-family="Helvetica,sans-Serif" font-size="11.00">...</text>
<polygon fill="#ffffff" stroke="none" points="639.5,-719.425 639.5,-737.425 721.5,-737.425 721.5,-719.425 639.5,-719.425"/>
<polygon fill="none" stroke="black" points="639.5,-719.425 639.5,-737.425 721.5,-737.425 721.5,-719.425 639.5,-719.425"/>
<text text-anchor="start" x="642.5" y="-725.625" font-family="Helvetica,sans-Serif" font-size="11.00">&lt; 1</text>
<polygon fill="#ffffff" stroke="none" points="721.5,-719.425 721.5,-737.425 793.5,-737.425 793.5,-719.425 721.5,-719.425"/>
<polygon fill="none" stroke="black" points="721.5,-719.425 721.5,-737.425 793.5,-737.425 793.5,-719.425 721.5,-719.425"/>
<text text-anchor="start" x="754.5" y="-725.625" font-family="Helvetica,sans-Serif" font-size="11.00">0 rows</text>
<polygon fill="#ffffff" stroke="none" points="793.5,-719.425 793.5,-737.425 836.5,-737.425 836.5,-719.425 793.5,-719.425"/>
<polygon fill="none" stroke="black" points="793.5,-719.425 793.5,-737.425 836.5,-737.425 836.5,-719.425 793.5,-719.425"/>
<text text-anchor="start" x="826.5" y="-725.625" font-family="Helvetica,sans-Serif" font-size="11.00"> &#160;</text>
</a>
</g>
</g>
<!-- token_instances&#45;&gt;tokens -->
<g id="edge21" class="edge"><title>token_instances:token_contract_address_hash:w&#45;&gt;tokens:contract_address_hash.type:e</title>
<path fill="none" stroke="black" d="M624.391,-785.464C592.791,-770.021 611.064,-699.425 565.5,-699.425"/>
<polygon fill="black" stroke="black" points="630.671,-786.782 637.761,-791.948 634.585,-787.603 638.5,-788.425 638.5,-788.425 638.5,-788.425 634.585,-787.603 639.239,-784.902 630.671,-786.782 630.671,-786.782"/>
<ellipse fill="none" stroke="black" cx="627.539" cy="-786.124" rx="3.2" ry="3.2"/>
</g>
<!-- token_transfers -->
<g id="node16" class="node"><title>token_transfers</title>
<g id="a_node16"><a xlink:href="../../tables/token_transfers.html" xlink:title="token_transfers" target="_top">
<polygon fill="#ffffff" stroke="none" points="925.5,-75.4249 925.5,-133.425 1063.5,-133.425 1063.5,-75.4249 925.5,-75.4249"/>
<polygon fill="#f5f5f5" stroke="none" points="925.5,-111.425 925.5,-133.425 1063.5,-133.425 1063.5,-111.425 925.5,-111.425"/>
<polygon fill="none" stroke="black" points="925.5,-111.425 925.5,-133.425 1063.5,-133.425 1063.5,-111.425 925.5,-111.425"/>
<text text-anchor="start" x="930.5" y="-120.625" font-family="Helvetica,sans-Serif" font-weight="bold" font-size="11.00">token_transfers</text>
<text text-anchor="start" x="1024.5" y="-119.625" font-family="Helvetica,sans-Serif" font-size="11.00">[table]</text>
<polygon fill="none" stroke="black" points="925.5,-93.4249 925.5,-111.425 1063.5,-111.425 1063.5,-93.4249 925.5,-93.4249"/>
<text text-anchor="start" x="928.5" y="-99.6249" font-family="Helvetica,sans-Serif" font-size="11.00">...</text>
<polygon fill="#ffffff" stroke="none" points="925.5,-75.4249 925.5,-93.4249 978.5,-93.4249 978.5,-75.4249 925.5,-75.4249"/>
<polygon fill="none" stroke="black" points="925.5,-75.4249 925.5,-93.4249 978.5,-93.4249 978.5,-75.4249 925.5,-75.4249"/>
<text text-anchor="start" x="928.5" y="-81.6249" font-family="Helvetica,sans-Serif" font-size="11.00">&lt; 5</text>
<polygon fill="#ffffff" stroke="none" points="978.5,-75.4249 978.5,-93.4249 1035.5,-93.4249 1035.5,-75.4249 978.5,-75.4249"/>
<polygon fill="none" stroke="black" points="978.5,-75.4249 978.5,-93.4249 1035.5,-93.4249 1035.5,-75.4249 978.5,-75.4249"/>
<text text-anchor="start" x="996.5" y="-81.6249" font-family="Helvetica,sans-Serif" font-size="11.00">0 rows</text>
<polygon fill="#ffffff" stroke="none" points="1035.5,-75.4249 1035.5,-93.4249 1063.5,-93.4249 1063.5,-75.4249 1035.5,-75.4249"/>
<polygon fill="none" stroke="black" points="1035.5,-75.4249 1035.5,-93.4249 1063.5,-93.4249 1063.5,-75.4249 1035.5,-75.4249"/>
<text text-anchor="start" x="1053.5" y="-81.6249" font-family="Helvetica,sans-Serif" font-size="11.00"> &#160;</text>
</a>
</g>
</g>
<!-- token_transfers&#45;&gt;addresses -->
<g id="edge23" class="edge"><title>token_transfers:elipses:w&#45;&gt;addresses:hash:e</title>
<path fill="none" stroke="black" d="M910.084,-102.283C636.037,-96.9016 494.216,58.957 287,-127.425 241.25,-168.575 308.534,-401.425 247,-401.425"/>
<polygon fill="black" stroke="black" points="916.5,-102.346 924.465,-106.025 920.5,-102.386 924.5,-102.425 924.5,-102.425 924.5,-102.425 920.5,-102.386 924.535,-98.825 916.5,-102.346 916.5,-102.346"/>
<ellipse fill="none" stroke="black" cx="913.301" cy="-102.315" rx="3.2" ry="3.2"/>
</g>
<!-- token_transfers&#45;&gt;addresses -->
<g id="edge24" class="edge"><title>token_transfers:elipses:w&#45;&gt;addresses:hash:e</title>
<path fill="none" stroke="black" d="M910.08,-101.984C635.953,-91.0208 493.884,61.4358 287,-125.425 241.988,-166.081 307.655,-395.425 247,-401.425"/>
<polygon fill="black" stroke="black" points="916.504,-102.18 924.39,-106.023 920.502,-102.303 924.5,-102.425 924.5,-102.425 924.5,-102.425 920.502,-102.303 924.61,-98.8265 916.504,-102.18 916.504,-102.18"/>
<ellipse fill="none" stroke="black" cx="913.305" cy="-102.082" rx="3.2" ry="3.2"/>
</g>
<!-- token_transfers&#45;&gt;addresses -->
<g id="edge25" class="edge"><title>token_transfers:elipses:w&#45;&gt;addresses:hash:e</title>
<path fill="none" stroke="black" d="M910.08,-102.639C635.953,-104.021 493.884,48.4358 287,-138.425 241.988,-179.081 307.655,-408.425 247,-401.425"/>
<polygon fill="black" stroke="black" points="916.501,-102.544 924.553,-106.024 920.5,-102.484 924.5,-102.425 924.5,-102.425 924.5,-102.425 920.5,-102.484 924.447,-98.8252 916.501,-102.544 916.501,-102.544"/>
<ellipse fill="none" stroke="black" cx="913.301" cy="-102.591" rx="3.2" ry="3.2"/>
</g>
<!-- token_transfers&#45;&gt;blocks -->
<g id="edge22" class="edge"><title>token_transfers:elipses:w&#45;&gt;blocks:elipses:e</title>
<path fill="none" stroke="black" d="M909.81,-103.9C841.81,-119.449 938.441,-253.764 868,-309.425 833.763,-336.478 519.135,-322.425 475.5,-322.425"/>
<polygon fill="black" stroke="black" points="916.54,-103.224 924.86,-106.007 920.52,-102.825 924.5,-102.425 924.5,-102.425 924.5,-102.425 920.52,-102.825 924.14,-98.8429 916.54,-103.224 916.54,-103.224"/>
<ellipse fill="none" stroke="black" cx="913.356" cy="-103.544" rx="3.2" ry="3.2"/>
</g>
<!-- token_transfers&#45;&gt;transactions -->
<g id="edge26" class="edge"><title>token_transfers:elipses:w&#45;&gt;transactions:elipses:e</title>
<path fill="none" stroke="black" d="M909.773,-104.058C838.572,-121.194 885.364,-267.425 798.5,-267.425"/>
<polygon fill="black" stroke="black" points="916.549,-103.307 924.897,-106.003 920.524,-102.866 924.5,-102.425 924.5,-102.425 924.5,-102.425 920.524,-102.866 924.103,-98.8468 916.549,-103.307 916.549,-103.307"/>
<ellipse fill="none" stroke="black" cx="913.368" cy="-103.659" rx="3.2" ry="3.2"/>
</g>
</g>
</svg>
