<?xml version="1.0" encoding="UTF-8" standalone="no"?>
<!DOCTYPE svg PUBLIC "-//W3C//DTD SVG 1.1//EN"
 "http://www.w3.org/Graphics/SVG/1.1/DTD/svg11.dtd">
<!-- Generated by graphviz version 9.0.0 (20230911.1827)
 -->
<!-- Title: oneDegreeRelationshipsDiagram Pages: 1 -->
<svg width="775pt" height="1189pt"
 viewBox="0.00 0.00 775.00 1189.00" xmlns="http://www.w3.org/2000/svg" xmlns:xlink="http://www.w3.org/1999/xlink">
<g id="graph0" class="graph" transform="scale(1 1) rotate(0) translate(4 1185)">
<title>oneDegreeRelationshipsDiagram</title>
<polygon fill="#ffffff" stroke="none" points="-4,4 -4,-1185 771,-1185 771,4 -4,4"/>
<text text-anchor="middle" x="71.38" y="-5.55" font-family="Helvetica,sans-Serif" font-size="11.00">Generated by SchemaSpy</text>
<!-- internal_transactions -->
<g id="node1" class="node">
<title>internal_transactions</title>
<g id="a_node1"><a xlink:href="../../tables/internal_transactions.html" xlink:title="internal_transactions" target="_top">
<polygon fill="#ffffff" stroke="none" points="554,-921 554,-1177 759,-1177 759,-921 554,-921"/>
<polygon fill="#f5f5f5" stroke="none" points="554,-1155 554,-1177 759,-1177 759,-1155 554,-1155"/>
<polygon fill="none" stroke="black" points="554,-1155 554,-1177 759,-1177 759,-1155 554,-1155"/>
<text text-anchor="start" x="559" y="-1162.55" font-family="Helvetica,sans-Serif" font-weight="bold" font-size="11.00">internal_transactions</text>
<text text-anchor="start" x="724.75" y="-1161.55" font-family="Helvetica,sans-Serif" font-size="11.00">[table]</text>
<polygon fill="#ffffff" stroke="none" points="554,-1133 554,-1155 759,-1155 759,-1133 554,-1133"/>
<polygon fill="none" stroke="black" points="554,-1133 554,-1155 759,-1155 759,-1133 554,-1133"/>
<image xlink:href="../../images/foreignKeys.png" width="11px" height="12px" preserveAspectRatio="xMinYMin meet" x="559" y="-1150"/>
<text text-anchor="start" x="574" y="-1139.55" font-family="Helvetica,sans-Serif" font-size="11.00">index</text>
<polygon fill="#ffffff" stroke="none" points="554,-1111 554,-1133 759,-1133 759,-1111 554,-1111"/>
<polygon fill="none" stroke="black" points="554,-1111 554,-1133 759,-1133 759,-1111 554,-1111"/>
<text text-anchor="start" x="574" y="-1117.55" font-family="Helvetica,sans-Serif" font-size="11.00">created_contract_address_hash</text>
<polygon fill="#ffffff" stroke="none" points="554,-1089 554,-1111 759,-1111 759,-1089 554,-1089"/>
<polygon fill="none" stroke="black" points="554,-1089 554,-1111 759,-1111 759,-1089 554,-1089"/>
<text text-anchor="start" x="574" y="-1095.55" font-family="Helvetica,sans-Serif" font-size="11.00">from_address_hash</text>
<polygon fill="#ffffff" stroke="none" points="554,-1067 554,-1089 759,-1089 759,-1067 554,-1067"/>
<polygon fill="none" stroke="black" points="554,-1067 554,-1089 759,-1089 759,-1067 554,-1067"/>
<text text-anchor="start" x="574" y="-1073.55" font-family="Helvetica,sans-Serif" font-size="11.00">to_address_hash</text>
<polygon fill="#ffffff" stroke="none" points="554,-1045 554,-1067 759,-1067 759,-1045 554,-1045"/>
<polygon fill="none" stroke="black" points="554,-1045 554,-1067 759,-1067 759,-1045 554,-1045"/>
<image xlink:href="../../images/foreignKeys.png" width="11px" height="12px" preserveAspectRatio="xMinYMin meet" x="559" y="-1062"/>
<text text-anchor="start" x="574" y="-1051.55" font-family="Helvetica,sans-Serif" font-size="11.00">transaction_hash</text>
<polygon fill="#ffffff" stroke="none" points="554,-1023 554,-1045 759,-1045 759,-1023 554,-1023"/>
<polygon fill="none" stroke="black" points="554,-1023 554,-1045 759,-1045 759,-1023 554,-1023"/>
<text text-anchor="start" x="574" y="-1029.55" font-family="Helvetica,sans-Serif" font-size="11.00">block_number</text>
<polygon fill="#ffffff" stroke="none" points="554,-1001 554,-1023 759,-1023 759,-1001 554,-1001"/>
<polygon fill="none" stroke="black" points="554,-1001 554,-1023 759,-1023 759,-1001 554,-1001"/>
<image xlink:href="../../images/foreignKeys.png" width="11px" height="12px" preserveAspectRatio="xMinYMin meet" x="559" y="-1018"/>
<text text-anchor="start" x="574" y="-1007.55" font-family="Helvetica,sans-Serif" font-size="11.00">transaction_index</text>
<polygon fill="none" stroke="black" points="554,-979 554,-1001 759,-1001 759,-979 554,-979"/>
<image xlink:href="../../images/primaryKeys.png" width="11px" height="12px" preserveAspectRatio="xMinYMin meet" x="559" y="-996"/>
<text text-anchor="start" x="574" y="-985.55" font-family="Helvetica,sans-Serif" font-size="11.00">block_hash</text>
<polygon fill="none" stroke="black" points="554,-957 554,-979 759,-979 759,-957 554,-957"/>
<image xlink:href="../../images/primaryKeys.png" width="11px" height="12px" preserveAspectRatio="xMinYMin meet" x="559" y="-974"/>
<text text-anchor="start" x="574" y="-963.55" font-family="Helvetica,sans-Serif" font-size="11.00">block_index</text>
<polygon fill="none" stroke="black" points="554,-939 554,-957 759,-957 759,-939 554,-939"/>
<text text-anchor="start" x="557" y="-943.55" font-family="Helvetica,sans-Serif" font-size="11.00">...</text>
<polygon fill="#ffffff" stroke="none" points="554,-921 554,-939 655,-939 655,-921 554,-921"/>
<polygon fill="none" stroke="black" points="554,-921 554,-939 655,-939 655,-921 554,-921"/>
<text text-anchor="start" x="557" y="-925.55" font-family="Helvetica,sans-Serif" font-size="11.00">&lt; 2</text>
<polygon fill="#ffffff" stroke="none" points="655,-921 655,-939 707,-939 707,-921 655,-921"/>
<polygon fill="none" stroke="black" points="655,-921 655,-939 707,-939 707,-921 655,-921"/>
<text text-anchor="start" x="698" y="-925.55" font-family="Helvetica,sans-Serif" font-size="11.00"> &#160;</text>
<polygon fill="#ffffff" stroke="none" points="707,-921 707,-939 759,-939 759,-921 707,-921"/>
<polygon fill="none" stroke="black" points="707,-921 707,-939 759,-939 759,-921 707,-921"/>
<text text-anchor="start" x="750" y="-925.55" font-family="Helvetica,sans-Serif" font-size="11.00"> &#160;</text>
</a>
</g>
</g>
<!-- blocks -->
<g id="node2" class="node">
<title>blocks</title>
<g id="a_node2"><a xlink:href="../../tables/blocks.html" xlink:title="blocks" target="_top">
<polygon fill="#ffffff" stroke="none" points="8,-37 8,-271 133,-271 133,-37 8,-37"/>
<polygon fill="#f5f5f5" stroke="none" points="8,-249 8,-271 133,-271 133,-249 8,-249"/>
<polygon fill="none" stroke="black" points="8,-249 8,-271 133,-271 133,-249 8,-249"/>
<text text-anchor="start" x="12.75" y="-256.55" font-family="Helvetica,sans-Serif" font-weight="bold" font-size="11.00">blocks</text>
<text text-anchor="start" x="98.75" y="-255.55" font-family="Helvetica,sans-Serif" font-size="11.00">[table]</text>
<polygon fill="#ffffff" stroke="none" points="8,-227 8,-249 133,-249 133,-227 8,-227"/>
<polygon fill="none" stroke="black" points="8,-227 8,-249 133,-249 133,-227 8,-227"/>
<text text-anchor="start" x="28" y="-233.55" font-family="Helvetica,sans-Serif" font-size="11.00">consensus</text>
<polygon fill="none" stroke="black" points="8,-205 8,-227 133,-227 133,-205 8,-205"/>
<image xlink:href="../../images/primaryKeys.png" width="11px" height="12px" preserveAspectRatio="xMinYMin meet" x="13" y="-222"/>
<text text-anchor="start" x="28" y="-211.55" font-family="Helvetica,sans-Serif" font-size="11.00">hash</text>
<polygon fill="#ffffff" stroke="none" points="8,-183 8,-205 133,-205 133,-183 8,-183"/>
<polygon fill="none" stroke="black" points="8,-183 8,-205 133,-205 133,-183 8,-183"/>
<text text-anchor="start" x="28" y="-189.55" font-family="Helvetica,sans-Serif" font-size="11.00">miner_hash</text>
<polygon fill="#ffffff" stroke="none" points="8,-161 8,-183 133,-183 133,-161 8,-161"/>
<polygon fill="none" stroke="black" points="8,-161 8,-183 133,-183 133,-161 8,-161"/>
<text text-anchor="start" x="28" y="-167.55" font-family="Helvetica,sans-Serif" font-size="11.00">number</text>
<polygon fill="#ffffff" stroke="none" points="8,-139 8,-161 133,-161 133,-139 8,-139"/>
<polygon fill="none" stroke="black" points="8,-139 8,-161 133,-161 133,-139 8,-139"/>
<text text-anchor="start" x="28" y="-145.55" font-family="Helvetica,sans-Serif" font-size="11.00">parent_hash</text>
<polygon fill="#ffffff" stroke="none" points="8,-117 8,-139 133,-139 133,-117 8,-117"/>
<polygon fill="none" stroke="black" points="8,-117 8,-139 133,-139 133,-117 8,-117"/>
<text text-anchor="start" x="28" y="-123.55" font-family="Helvetica,sans-Serif" font-size="11.00">timestamp</text>
<polygon fill="#ffffff" stroke="none" points="8,-95 8,-117 133,-117 133,-95 8,-95"/>
<polygon fill="none" stroke="black" points="8,-95 8,-117 133,-117 133,-95 8,-95"/>
<text text-anchor="start" x="28" y="-101.55" font-family="Helvetica,sans-Serif" font-size="11.00">inserted_at</text>
<polygon fill="#ffffff" stroke="none" points="8,-73 8,-95 133,-95 133,-73 8,-73"/>
<polygon fill="none" stroke="black" points="8,-73 8,-95 133,-95 133,-73 8,-73"/>
<text text-anchor="start" x="28" y="-79.55" font-family="Helvetica,sans-Serif" font-size="11.00">is_empty</text>
<polygon fill="none" stroke="black" points="8,-55 8,-73 133,-73 133,-55 8,-55"/>
<text text-anchor="start" x="11" y="-59.55" font-family="Helvetica,sans-Serif" font-size="11.00">...</text>
<polygon fill="#ffffff" stroke="none" points="8,-37 8,-55 60,-55 60,-37 8,-37"/>
<polygon fill="none" stroke="black" points="8,-37 8,-55 60,-55 60,-37 8,-37"/>
<text text-anchor="start" x="11" y="-41.55" font-family="Helvetica,sans-Serif" font-size="11.00"> &#160;</text>
<polygon fill="#ffffff" stroke="none" points="60,-37 60,-55 92,-55 92,-37 60,-37"/>
<polygon fill="none" stroke="black" points="60,-37 60,-55 92,-55 92,-37 60,-37"/>
<text text-anchor="start" x="83" y="-41.55" font-family="Helvetica,sans-Serif" font-size="11.00"> &#160;</text>
<polygon fill="#ffffff" stroke="none" points="92,-37 92,-55 133,-55 133,-37 92,-37"/>
<polygon fill="none" stroke="black" points="92,-37 92,-55 133,-55 133,-37 92,-37"/>
<text text-anchor="start" x="114.25" y="-41.55" font-family="Helvetica,sans-Serif" font-size="11.00">9 &gt;</text>
</a>
</g>
</g>
<!-- internal_transactions&#45;&gt;blocks -->
<g id="edge1" class="edge">
<title>internal_transactions:w&#45;&gt;blocks:e</title>
<path fill="none" stroke="black" d="M536.95,-990.3C378.52,-996.34 290.31,-1091.29 174,-977 113.61,-917.66 219.17,-216 134.5,-216"/>
<polygon fill="black" stroke="black" points="544.17,-990.16 552.23,-993.61 548.5,-990.08 551.83,-990.01 551.83,-990.01 551.83,-990.01 548.5,-990.08 552.1,-986.41 544.17,-990.16"/>
<ellipse fill="none" stroke="black" cx="539.25" cy="-990.25" rx="3.2" ry="3.2"/>
</g>
<!-- transactions -->
<g id="node3" class="node">
<title>transactions</title>
<g id="a_node3"><a xlink:href="../../tables/transactions.html" xlink:title="transactions" target="_top">
<polygon fill="#ffffff" stroke="none" points="182,-240 182,-966 505,-966 505,-240 182,-240"/>
<polygon fill="#f5f5f5" stroke="none" points="184,-942 184,-964 503,-964 503,-942 184,-942"/>
<polygon fill="none" stroke="black" points="184,-942 184,-964 503,-964 503,-942 184,-942"/>
<text text-anchor="start" x="189" y="-949.55" font-family="Helvetica,sans-Serif" font-weight="bold" font-size="11.00">transactions</text>
<text text-anchor="start" x="468.75" y="-948.55" font-family="Helvetica,sans-Serif" font-size="11.00">[table]</text>
<polygon fill="none" stroke="black" points="184,-920 184,-942 405,-942 405,-920 184,-920"/>
<text text-anchor="start" x="204" y="-926.55" font-family="Helvetica,sans-Serif" font-size="11.00">cumulative_gas_used</text>
<polygon fill="none" stroke="black" points="405,-920 405,-942 503,-942 503,-920 405,-920"/>
<text text-anchor="start" x="408" y="-926.55" font-family="Helvetica,sans-Serif" font-size="11.00">numeric[100]</text>
<polygon fill="#ffffff" stroke="none" points="184,-898 184,-920 405,-920 405,-898 184,-898"/>
<polygon fill="none" stroke="black" points="184,-898 184,-920 405,-920 405,-898 184,-898"/>
<text text-anchor="start" x="204" y="-904.55" font-family="Helvetica,sans-Serif" font-size="11.00">error</text>
<polygon fill="none" stroke="black" points="405,-898 405,-920 503,-920 503,-898 405,-898"/>
<text text-anchor="start" x="408" y="-904.55" font-family="Helvetica,sans-Serif" font-size="11.00">varchar[255]</text>
<polygon fill="none" stroke="black" points="184,-876 184,-898 405,-898 405,-876 184,-876"/>
<text text-anchor="start" x="204" y="-882.55" font-family="Helvetica,sans-Serif" font-size="11.00">gas</text>
<polygon fill="none" stroke="black" points="405,-876 405,-898 503,-898 503,-876 405,-876"/>
<text text-anchor="start" x="408" y="-882.55" font-family="Helvetica,sans-Serif" font-size="11.00">numeric[100]</text>
<polygon fill="none" stroke="black" points="184,-854 184,-876 405,-876 405,-854 184,-854"/>
<text text-anchor="start" x="204" y="-860.55" font-family="Helvetica,sans-Serif" font-size="11.00">gas_price</text>
<polygon fill="none" stroke="black" points="405,-854 405,-876 503,-876 503,-854 405,-854"/>
<text text-anchor="start" x="408" y="-860.55" font-family="Helvetica,sans-Serif" font-size="11.00">numeric[100]</text>
<polygon fill="none" stroke="black" points="184,-832 184,-854 405,-854 405,-832 184,-832"/>
<text text-anchor="start" x="204" y="-838.55" font-family="Helvetica,sans-Serif" font-size="11.00">gas_used</text>
<polygon fill="none" stroke="black" points="405,-832 405,-854 503,-854 503,-832 405,-832"/>
<text text-anchor="start" x="408" y="-838.55" font-family="Helvetica,sans-Serif" font-size="11.00">numeric[100]</text>
<polygon fill="none" stroke="black" points="184,-810 184,-832 405,-832 405,-810 184,-810"/>
<image xlink:href="../../images/primaryKeys.png" width="11px" height="12px" preserveAspectRatio="xMinYMin meet" x="189" y="-827"/>
<text text-anchor="start" x="204" y="-816.55" font-family="Helvetica,sans-Serif" font-size="11.00">hash</text>
<polygon fill="none" stroke="black" points="405,-810 405,-832 503,-832 503,-810 405,-810"/>
<text text-anchor="start" x="407.88" y="-816.55" font-family="Helvetica,sans-Serif" font-size="11.00">bytea[2147483647]</text>
<polygon fill="#ffffff" stroke="none" points="184,-788 184,-810 405,-810 405,-788 184,-788"/>
<polygon fill="none" stroke="black" points="184,-788 184,-810 405,-810 405,-788 184,-788"/>
<image xlink:href="../../images/foreignKeys.png" width="11px" height="12px" preserveAspectRatio="xMinYMin meet" x="189" y="-805"/>
<text text-anchor="start" x="204" y="-794.55" font-family="Helvetica,sans-Serif" font-size="11.00">index</text>
<polygon fill="none" stroke="black" points="405,-788 405,-810 503,-810 503,-788 405,-788"/>
<text text-anchor="start" x="408" y="-794.55" font-family="Helvetica,sans-Serif" font-size="11.00">int4[10]</text>
<polygon fill="none" stroke="black" points="184,-766 184,-788 405,-788 405,-766 184,-766"/>
<text text-anchor="start" x="204" y="-772.55" font-family="Helvetica,sans-Serif" font-size="11.00">input</text>
<polygon fill="none" stroke="black" points="405,-766 405,-788 503,-788 503,-766 405,-766"/>
<text text-anchor="start" x="407.88" y="-772.55" font-family="Helvetica,sans-Serif" font-size="11.00">bytea[2147483647]</text>
<polygon fill="#ffffff" stroke="none" points="184,-744 184,-766 405,-766 405,-744 184,-744"/>
<polygon fill="none" stroke="black" points="184,-744 184,-766 405,-766 405,-744 184,-744"/>
<text text-anchor="start" x="204" y="-750.55" font-family="Helvetica,sans-Serif" font-size="11.00">nonce</text>
<polygon fill="none" stroke="black" points="405,-744 405,-766 503,-766 503,-744 405,-744"/>
<text text-anchor="start" x="408" y="-750.55" font-family="Helvetica,sans-Serif" font-size="11.00">int4[10]</text>
<polygon fill="none" stroke="black" points="184,-722 184,-744 405,-744 405,-722 184,-722"/>
<text text-anchor="start" x="204" y="-728.55" font-family="Helvetica,sans-Serif" font-size="11.00">r</text>
<polygon fill="none" stroke="black" points="405,-722 405,-744 503,-744 503,-722 405,-722"/>
<text text-anchor="start" x="408" y="-728.55" font-family="Helvetica,sans-Serif" font-size="11.00">numeric[100]</text>
<polygon fill="none" stroke="black" points="184,-700 184,-722 405,-722 405,-700 184,-700"/>
<text text-anchor="start" x="204" y="-706.55" font-family="Helvetica,sans-Serif" font-size="11.00">s</text>
<polygon fill="none" stroke="black" points="405,-700 405,-722 503,-722 503,-700 405,-700"/>
<text text-anchor="start" x="408" y="-706.55" font-family="Helvetica,sans-Serif" font-size="11.00">numeric[100]</text>
<polygon fill="#ffffff" stroke="none" points="184,-678 184,-700 405,-700 405,-678 184,-678"/>
<polygon fill="none" stroke="black" points="184,-678 184,-700 405,-700 405,-678 184,-678"/>
<text text-anchor="start" x="204" y="-684.55" font-family="Helvetica,sans-Serif" font-size="11.00">status</text>
<polygon fill="none" stroke="black" points="405,-678 405,-700 503,-700 503,-678 405,-678"/>
<text text-anchor="start" x="408" y="-684.55" font-family="Helvetica,sans-Serif" font-size="11.00">int4[10]</text>
<polygon fill="none" stroke="black" points="184,-656 184,-678 405,-678 405,-656 184,-656"/>
<text text-anchor="start" x="204" y="-662.55" font-family="Helvetica,sans-Serif" font-size="11.00">v</text>
<polygon fill="none" stroke="black" points="405,-656 405,-678 503,-678 503,-656 405,-656"/>
<text text-anchor="start" x="408" y="-662.55" font-family="Helvetica,sans-Serif" font-size="11.00">numeric[100]</text>
<polygon fill="none" stroke="black" points="184,-634 184,-656 405,-656 405,-634 184,-634"/>
<text text-anchor="start" x="204" y="-640.55" font-family="Helvetica,sans-Serif" font-size="11.00">value</text>
<polygon fill="none" stroke="black" points="405,-634 405,-656 503,-656 503,-634 405,-634"/>
<text text-anchor="start" x="408" y="-640.55" font-family="Helvetica,sans-Serif" font-size="11.00">numeric[100]</text>
<polygon fill="#ffffff" stroke="none" points="184,-612 184,-634 405,-634 405,-612 184,-612"/>
<polygon fill="none" stroke="black" points="184,-612 184,-634 405,-634 405,-612 184,-612"/>
<text text-anchor="start" x="204" y="-618.55" font-family="Helvetica,sans-Serif" font-size="11.00">inserted_at</text>
<polygon fill="none" stroke="black" points="405,-612 405,-634 503,-634 503,-612 405,-612"/>
<text text-anchor="start" x="408" y="-618.55" font-family="Helvetica,sans-Serif" font-size="11.00">timestamp[29,6]</text>
<polygon fill="#ffffff" stroke="none" points="184,-590 184,-612 405,-612 405,-590 184,-590"/>
<polygon fill="none" stroke="black" points="184,-590 184,-612 405,-612 405,-590 184,-590"/>
<text text-anchor="start" x="204" y="-596.55" font-family="Helvetica,sans-Serif" font-size="11.00">updated_at</text>
<polygon fill="none" stroke="black" points="405,-590 405,-612 503,-612 503,-590 405,-590"/>
<text text-anchor="start" x="408" y="-596.55" font-family="Helvetica,sans-Serif" font-size="11.00">timestamp[29,6]</text>
<polygon fill="#ffffff" stroke="none" points="184,-568 184,-590 405,-590 405,-568 184,-568"/>
<polygon fill="none" stroke="black" points="184,-568 184,-590 405,-590 405,-568 184,-568"/>
<image xlink:href="../../images/foreignKeys.png" width="11px" height="12px" preserveAspectRatio="xMinYMin meet" x="189" y="-585"/>
<text text-anchor="start" x="204" y="-574.55" font-family="Helvetica,sans-Serif" font-size="11.00">block_hash</text>
<polygon fill="none" stroke="black" points="405,-568 405,-590 503,-590 503,-568 405,-568"/>
<text text-anchor="start" x="407.88" y="-574.55" font-family="Helvetica,sans-Serif" font-size="11.00">bytea[2147483647]</text>
<polygon fill="#ffffff" stroke="none" points="184,-546 184,-568 405,-568 405,-546 184,-546"/>
<polygon fill="none" stroke="black" points="184,-546 184,-568 405,-568 405,-546 184,-546"/>
<text text-anchor="start" x="204" y="-552.55" font-family="Helvetica,sans-Serif" font-size="11.00">block_number</text>
<polygon fill="none" stroke="black" points="405,-546 405,-568 503,-568 503,-546 405,-546"/>
<text text-anchor="start" x="408" y="-552.55" font-family="Helvetica,sans-Serif" font-size="11.00">int4[10]</text>
<polygon fill="#ffffff" stroke="none" points="184,-524 184,-546 405,-546 405,-524 184,-524"/>
<polygon fill="none" stroke="black" points="184,-524 184,-546 405,-546 405,-524 184,-524"/>
<text text-anchor="start" x="204" y="-530.55" font-family="Helvetica,sans-Serif" font-size="11.00">from_address_hash</text>
<polygon fill="none" stroke="black" points="405,-524 405,-546 503,-546 503,-524 405,-524"/>
<text text-anchor="start" x="407.88" y="-530.55" font-family="Helvetica,sans-Serif" font-size="11.00">bytea[2147483647]</text>
<polygon fill="#ffffff" stroke="none" points="184,-502 184,-524 405,-524 405,-502 184,-502"/>
<polygon fill="none" stroke="black" points="184,-502 184,-524 405,-524 405,-502 184,-502"/>
<text text-anchor="start" x="204" y="-508.55" font-family="Helvetica,sans-Serif" font-size="11.00">to_address_hash</text>
<polygon fill="none" stroke="black" points="405,-502 405,-524 503,-524 503,-502 405,-502"/>
<text text-anchor="start" x="407.88" y="-508.55" font-family="Helvetica,sans-Serif" font-size="11.00">bytea[2147483647]</text>
<polygon fill="#ffffff" stroke="none" points="184,-480 184,-502 405,-502 405,-480 184,-480"/>
<polygon fill="none" stroke="black" points="184,-480 184,-502 405,-502 405,-480 184,-480"/>
<text text-anchor="start" x="204" y="-486.55" font-family="Helvetica,sans-Serif" font-size="11.00">created_contract_address_hash</text>
<polygon fill="none" stroke="black" points="405,-480 405,-502 503,-502 503,-480 405,-480"/>
<text text-anchor="start" x="407.88" y="-486.55" font-family="Helvetica,sans-Serif" font-size="11.00">bytea[2147483647]</text>
<polygon fill="#ffffff" stroke="none" points="184,-458 184,-480 405,-480 405,-458 184,-458"/>
<polygon fill="none" stroke="black" points="184,-458 184,-480 405,-480 405,-458 184,-458"/>
<text text-anchor="start" x="204" y="-464.55" font-family="Helvetica,sans-Serif" font-size="11.00">created_contract_code_indexed_at</text>
<polygon fill="none" stroke="black" points="405,-458 405,-480 503,-480 503,-458 405,-458"/>
<text text-anchor="start" x="408" y="-464.55" font-family="Helvetica,sans-Serif" font-size="11.00">timestamp[29,6]</text>
<polygon fill="none" stroke="black" points="184,-436 184,-458 405,-458 405,-436 184,-436"/>
<text text-anchor="start" x="204" y="-442.55" font-family="Helvetica,sans-Serif" font-size="11.00">earliest_processing_start</text>
<polygon fill="none" stroke="black" points="405,-436 405,-458 503,-458 503,-436 405,-436"/>
<text text-anchor="start" x="408" y="-442.55" font-family="Helvetica,sans-Serif" font-size="11.00">timestamp[29,6]</text>
<polygon fill="none" stroke="black" points="184,-414 184,-436 405,-436 405,-414 184,-414"/>
<text text-anchor="start" x="204" y="-420.55" font-family="Helvetica,sans-Serif" font-size="11.00">old_block_hash</text>
<polygon fill="none" stroke="black" points="405,-414 405,-436 503,-436 503,-414 405,-414"/>
<text text-anchor="start" x="407.88" y="-420.55" font-family="Helvetica,sans-Serif" font-size="11.00">bytea[2147483647]</text>
<polygon fill="none" stroke="black" points="184,-392 184,-414 405,-414 405,-392 184,-392"/>
<text text-anchor="start" x="204" y="-398.55" font-family="Helvetica,sans-Serif" font-size="11.00">revert_reason</text>
<polygon fill="none" stroke="black" points="405,-392 405,-414 503,-414 503,-392 405,-392"/>
<text text-anchor="start" x="408" y="-398.55" font-family="Helvetica,sans-Serif" font-size="11.00">text[2147483647]</text>
<polygon fill="none" stroke="black" points="184,-370 184,-392 405,-392 405,-370 184,-370"/>
<text text-anchor="start" x="204" y="-376.55" font-family="Helvetica,sans-Serif" font-size="11.00">max_priority_fee_per_gas</text>
<polygon fill="none" stroke="black" points="405,-370 405,-392 503,-392 503,-370 405,-370"/>
<text text-anchor="start" x="408" y="-376.55" font-family="Helvetica,sans-Serif" font-size="11.00">numeric[100]</text>
<polygon fill="none" stroke="black" points="184,-348 184,-370 405,-370 405,-348 184,-348"/>
<text text-anchor="start" x="204" y="-354.55" font-family="Helvetica,sans-Serif" font-size="11.00">max_fee_per_gas</text>
<polygon fill="none" stroke="black" points="405,-348 405,-370 503,-370 503,-348 405,-348"/>
<text text-anchor="start" x="408" y="-354.55" font-family="Helvetica,sans-Serif" font-size="11.00">numeric[100]</text>
<polygon fill="none" stroke="black" points="184,-326 184,-348 405,-348 405,-326 184,-326"/>
<text text-anchor="start" x="204" y="-332.55" font-family="Helvetica,sans-Serif" font-size="11.00">type</text>
<polygon fill="none" stroke="black" points="405,-326 405,-348 503,-348 503,-326 405,-326"/>
<text text-anchor="start" x="408" y="-332.55" font-family="Helvetica,sans-Serif" font-size="11.00">int4[10]</text>
<polygon fill="none" stroke="black" points="184,-304 184,-326 405,-326 405,-304 184,-304"/>
<text text-anchor="start" x="204" y="-310.55" font-family="Helvetica,sans-Serif" font-size="11.00">has_error_in_internal_txs</text>
<polygon fill="none" stroke="black" points="405,-304 405,-326 503,-326 503,-304 405,-304"/>
<text text-anchor="start" x="408" y="-310.55" font-family="Helvetica,sans-Serif" font-size="11.00">bool[1]</text>
<polygon fill="#ffffff" stroke="none" points="184,-282 184,-304 405,-304 405,-282 184,-282"/>
<polygon fill="none" stroke="black" points="184,-282 184,-304 405,-304 405,-282 184,-282"/>
<text text-anchor="start" x="204" y="-288.55" font-family="Helvetica,sans-Serif" font-size="11.00">block_timestamp</text>
<polygon fill="none" stroke="black" points="405,-282 405,-304 503,-304 503,-282 405,-282"/>
<text text-anchor="start" x="408" y="-288.55" font-family="Helvetica,sans-Serif" font-size="11.00">timestamp[29,6]</text>
<polygon fill="#ffffff" stroke="none" points="184,-260 184,-282 405,-282 405,-260 184,-260"/>
<polygon fill="none" stroke="black" points="184,-260 184,-282 405,-282 405,-260 184,-260"/>
<text text-anchor="start" x="204" y="-266.55" font-family="Helvetica,sans-Serif" font-size="11.00">block_consensus</text>
<polygon fill="none" stroke="black" points="405,-260 405,-282 503,-282 503,-260 405,-260"/>
<text text-anchor="start" x="408" y="-266.55" font-family="Helvetica,sans-Serif" font-size="11.00">bool[1]</text>
<polygon fill="#ffffff" stroke="none" points="184,-242 184,-260 299,-260 299,-242 184,-242"/>
<polygon fill="none" stroke="black" points="184,-242 184,-260 299,-260 299,-242 184,-242"/>
<text text-anchor="start" x="187" y="-246.55" font-family="Helvetica,sans-Serif" font-size="11.00">&lt; 1</text>
<polygon fill="#ffffff" stroke="none" points="299,-242 299,-260 405,-260 405,-242 299,-242"/>
<polygon fill="none" stroke="black" points="299,-242 299,-260 405,-260 405,-242 299,-242"/>
<text text-anchor="start" x="396" y="-246.55" font-family="Helvetica,sans-Serif" font-size="11.00"> &#160;</text>
<polygon fill="#ffffff" stroke="none" points="405,-242 405,-260 503,-260 503,-242 405,-242"/>
<polygon fill="none" stroke="black" points="405,-242 405,-260 503,-260 503,-242 405,-242"/>
<text text-anchor="start" x="484.25" y="-246.55" font-family="Helvetica,sans-Serif" font-size="11.00">5 &gt;</text>
<polygon fill="none" stroke="black" stroke-width="2" points="183,-241 183,-965 504,-965 504,-241 183,-241"/>
</a>
</g>
</g>
<!-- internal_transactions&#45;&gt;transactions -->
<g id="edge2" class="edge">
<title>internal_transactions:w&#45;&gt;transactions:e</title>
<path fill="none" stroke="black" d="M536.9,-1053.82C463.74,-1030.13 605.06,-821 504.5,-821"/>
<polygon fill="black" stroke="black" points="544.25,-1054.85 551.67,-1059.52 548.54,-1055.45 551.84,-1055.91 551.84,-1055.91 551.84,-1055.91 548.54,-1055.45 552.67,-1052.39 544.25,-1054.85"/>
<ellipse fill="none" stroke="black" cx="539.37" cy="-1054.17" rx="3.2" ry="3.2"/>
</g>
<!-- transactions&#45;&gt;blocks -->
<g id="edge10" class="edge">
<title>transactions:w&#45;&gt;blocks:e</title>
<path fill="none" stroke="black" d="M166.93,-577.69C38.73,-553.93 291.52,-216 134.5,-216"/>
<polygon fill="black" stroke="black" points="174.2,-578.3 181.86,-582.56 178.51,-578.66 181.83,-578.94 181.83,-578.94 181.83,-578.94 178.51,-578.66 182.47,-575.38 174.2,-578.3"/>
<ellipse fill="none" stroke="black" cx="169.29" cy="-577.89" rx="3.2" ry="3.2"/>
</g>
<!-- logs -->
<g id="node4" class="node">
<title>logs</title>
<g id="a_node4"><a xlink:href="../../tables/logs.html" xlink:title="logs" target="_top">
<polygon fill="#ffffff" stroke="none" points="596.5,-477 596.5,-733 716.5,-733 716.5,-477 596.5,-477"/>
<polygon fill="#f5f5f5" stroke="none" points="596.5,-711 596.5,-733 716.5,-733 716.5,-711 596.5,-711"/>
<polygon fill="none" stroke="black" points="596.5,-711 596.5,-733 716.5,-733 716.5,-711 596.5,-711"/>
<text text-anchor="start" x="600.25" y="-718.55" font-family="Helvetica,sans-Serif" font-weight="bold" font-size="11.00">logs</text>
<text text-anchor="start" x="682.25" y="-717.55" font-family="Helvetica,sans-Serif" font-size="11.00">[table]</text>
<polygon fill="none" stroke="black" points="596.5,-689 596.5,-711 716.5,-711 716.5,-689 596.5,-689"/>
<image xlink:href="../../images/primaryKeys.png" width="11px" height="12px" preserveAspectRatio="xMinYMin meet" x="601.5" y="-706"/>
<text text-anchor="start" x="616.5" y="-695.55" font-family="Helvetica,sans-Serif" font-size="11.00">index</text>
<polygon fill="#ffffff" stroke="none" points="596.5,-667 596.5,-689 716.5,-689 716.5,-667 596.5,-667"/>
<polygon fill="none" stroke="black" points="596.5,-667 596.5,-689 716.5,-689 716.5,-667 596.5,-667"/>
<text text-anchor="start" x="616.5" y="-673.55" font-family="Helvetica,sans-Serif" font-size="11.00">first_topic</text>
<polygon fill="#ffffff" stroke="none" points="596.5,-645 596.5,-667 716.5,-667 716.5,-645 596.5,-645"/>
<polygon fill="none" stroke="black" points="596.5,-645 596.5,-667 716.5,-667 716.5,-645 596.5,-645"/>
<text text-anchor="start" x="616.5" y="-651.55" font-family="Helvetica,sans-Serif" font-size="11.00">second_topic</text>
<polygon fill="#ffffff" stroke="none" points="596.5,-623 596.5,-645 716.5,-645 716.5,-623 596.5,-623"/>
<polygon fill="none" stroke="black" points="596.5,-623 596.5,-645 716.5,-645 716.5,-623 596.5,-623"/>
<text text-anchor="start" x="616.5" y="-629.55" font-family="Helvetica,sans-Serif" font-size="11.00">third_topic</text>
<polygon fill="#ffffff" stroke="none" points="596.5,-601 596.5,-623 716.5,-623 716.5,-601 596.5,-601"/>
<polygon fill="none" stroke="black" points="596.5,-601 596.5,-623 716.5,-623 716.5,-601 596.5,-601"/>
<text text-anchor="start" x="616.5" y="-607.55" font-family="Helvetica,sans-Serif" font-size="11.00">fourth_topic</text>
<polygon fill="#ffffff" stroke="none" points="596.5,-579 596.5,-601 716.5,-601 716.5,-579 596.5,-579"/>
<polygon fill="none" stroke="black" points="596.5,-579 596.5,-601 716.5,-601 716.5,-579 596.5,-579"/>
<text text-anchor="start" x="616.5" y="-585.55" font-family="Helvetica,sans-Serif" font-size="11.00">address_hash</text>
<polygon fill="none" stroke="black" points="596.5,-557 596.5,-579 716.5,-579 716.5,-557 596.5,-557"/>
<image xlink:href="../../images/primaryKeys.png" width="11px" height="12px" preserveAspectRatio="xMinYMin meet" x="601.5" y="-574"/>
<text text-anchor="start" x="616.5" y="-563.55" font-family="Helvetica,sans-Serif" font-size="11.00">transaction_hash</text>
<polygon fill="none" stroke="black" points="596.5,-535 596.5,-557 716.5,-557 716.5,-535 596.5,-535"/>
<image xlink:href="../../images/primaryKeys.png" width="11px" height="12px" preserveAspectRatio="xMinYMin meet" x="601.5" y="-552"/>
<text text-anchor="start" x="616.5" y="-541.55" font-family="Helvetica,sans-Serif" font-size="11.00">block_hash</text>
<polygon fill="#ffffff" stroke="none" points="596.5,-513 596.5,-535 716.5,-535 716.5,-513 596.5,-513"/>
<polygon fill="none" stroke="black" points="596.5,-513 596.5,-535 716.5,-535 716.5,-513 596.5,-513"/>
<text text-anchor="start" x="616.5" y="-519.55" font-family="Helvetica,sans-Serif" font-size="11.00">block_number</text>
<polygon fill="none" stroke="black" points="596.5,-495 596.5,-513 716.5,-513 716.5,-495 596.5,-495"/>
<text text-anchor="start" x="599.5" y="-499.55" font-family="Helvetica,sans-Serif" font-size="11.00">...</text>
<polygon fill="#ffffff" stroke="none" points="596.5,-477 596.5,-495 654.5,-495 654.5,-477 596.5,-477"/>
<polygon fill="none" stroke="black" points="596.5,-477 596.5,-495 654.5,-495 654.5,-477 596.5,-477"/>
<text text-anchor="start" x="599.5" y="-481.55" font-family="Helvetica,sans-Serif" font-size="11.00">&lt; 2</text>
<polygon fill="#ffffff" stroke="none" points="654.5,-477 654.5,-495 685.5,-495 685.5,-477 654.5,-477"/>
<polygon fill="none" stroke="black" points="654.5,-477 654.5,-495 685.5,-495 685.5,-477 654.5,-477"/>
<text text-anchor="start" x="676.5" y="-481.55" font-family="Helvetica,sans-Serif" font-size="11.00"> &#160;</text>
<polygon fill="#ffffff" stroke="none" points="685.5,-477 685.5,-495 716.5,-495 716.5,-477 685.5,-477"/>
<polygon fill="none" stroke="black" points="685.5,-477 685.5,-495 716.5,-495 716.5,-477 685.5,-477"/>
<text text-anchor="start" x="707.5" y="-481.55" font-family="Helvetica,sans-Serif" font-size="11.00"> &#160;</text>
</a>
</g>
</g>
<!-- logs&#45;&gt;blocks -->
<g id="edge3" class="edge">
<title>logs:w&#45;&gt;blocks:e</title>
<path fill="none" stroke="black" d="M579.97,-543.49C555.43,-534.13 558.07,-500.16 546,-467 527.81,-417.03 552.46,-265.65 513,-230 450.54,-173.58 218.67,-216 134.5,-216"/>
<polygon fill="black" stroke="black" points="587.27,-544.67 594.59,-549.5 591.55,-545.36 594.84,-545.89 594.84,-545.89 594.84,-545.89 591.55,-545.36 595.74,-542.39 587.27,-544.67"/>
<ellipse fill="none" stroke="black" cx="582.42" cy="-543.88" rx="3.2" ry="3.2"/>
</g>
<!-- logs&#45;&gt;transactions -->
<g id="edge4" class="edge">
<title>logs:w&#45;&gt;transactions:e</title>
<path fill="none" stroke="black" d="M581.14,-574C540.24,-612.32 558.76,-821 504.5,-821"/>
<polygon fill="black" stroke="black" points="587.81,-571.22 596.58,-571.45 591.81,-569.54 594.88,-568.26 594.88,-568.26 594.88,-568.26 591.81,-569.54 593.8,-564.81 587.81,-571.22"/>
<ellipse fill="none" stroke="black" cx="583.27" cy="-573.11" rx="3.2" ry="3.2"/>
</g>
<!-- token_transfers -->
<g id="node5" class="node">
<title>token_transfers</title>
<g id="a_node5"><a xlink:href="../../tables/token_transfers.html" xlink:title="token_transfers" target="_top">
<polygon fill="#ffffff" stroke="none" points="559.5,-222 559.5,-456 753.5,-456 753.5,-222 559.5,-222"/>
<polygon fill="#f5f5f5" stroke="none" points="559.5,-434 559.5,-456 753.5,-456 753.5,-434 559.5,-434"/>
<polygon fill="none" stroke="black" points="559.5,-434 559.5,-456 753.5,-456 753.5,-434 559.5,-434"/>
<text text-anchor="start" x="564.5" y="-441.55" font-family="Helvetica,sans-Serif" font-weight="bold" font-size="11.00">token_transfers</text>
<text text-anchor="start" x="719.25" y="-440.55" font-family="Helvetica,sans-Serif" font-size="11.00">[table]</text>
<polygon fill="none" stroke="black" points="559.5,-412 559.5,-434 753.5,-434 753.5,-412 559.5,-412"/>
<image xlink:href="../../images/primaryKeys.png" width="11px" height="12px" preserveAspectRatio="xMinYMin meet" x="564.5" y="-429"/>
<text text-anchor="start" x="579.5" y="-418.55" font-family="Helvetica,sans-Serif" font-size="11.00">transaction_hash</text>
<polygon fill="none" stroke="black" points="559.5,-390 559.5,-412 753.5,-412 753.5,-390 559.5,-390"/>
<image xlink:href="../../images/primaryKeys.png" width="11px" height="12px" preserveAspectRatio="xMinYMin meet" x="564.5" y="-407"/>
<text text-anchor="start" x="579.5" y="-396.55" font-family="Helvetica,sans-Serif" font-size="11.00">log_index</text>
<polygon fill="#ffffff" stroke="none" points="559.5,-368 559.5,-390 753.5,-390 753.5,-368 559.5,-368"/>
<polygon fill="none" stroke="black" points="559.5,-368 559.5,-390 753.5,-390 753.5,-368 559.5,-368"/>
<text text-anchor="start" x="579.5" y="-374.55" font-family="Helvetica,sans-Serif" font-size="11.00">from_address_hash</text>
<polygon fill="#ffffff" stroke="none" points="559.5,-346 559.5,-368 753.5,-368 753.5,-346 559.5,-346"/>
<polygon fill="none" stroke="black" points="559.5,-346 559.5,-368 753.5,-368 753.5,-346 559.5,-346"/>
<text text-anchor="start" x="579.5" y="-352.55" font-family="Helvetica,sans-Serif" font-size="11.00">to_address_hash</text>
<polygon fill="#ffffff" stroke="none" points="559.5,-324 559.5,-346 753.5,-346 753.5,-324 559.5,-324"/>
<polygon fill="none" stroke="black" points="559.5,-324 559.5,-346 753.5,-346 753.5,-324 559.5,-324"/>
<text text-anchor="start" x="579.5" y="-330.55" font-family="Helvetica,sans-Serif" font-size="11.00">token_contract_address_hash</text>
<polygon fill="#ffffff" stroke="none" points="559.5,-302 559.5,-324 753.5,-324 753.5,-302 559.5,-302"/>
<polygon fill="none" stroke="black" points="559.5,-302 559.5,-324 753.5,-324 753.5,-302 559.5,-302"/>
<text text-anchor="start" x="579.5" y="-308.55" font-family="Helvetica,sans-Serif" font-size="11.00">block_number</text>
<polygon fill="none" stroke="black" points="559.5,-280 559.5,-302 753.5,-302 753.5,-280 559.5,-280"/>
<image xlink:href="../../images/primaryKeys.png" width="11px" height="12px" preserveAspectRatio="xMinYMin meet" x="564.5" y="-297"/>
<text text-anchor="start" x="579.5" y="-286.55" font-family="Helvetica,sans-Serif" font-size="11.00">block_hash</text>
<polygon fill="#ffffff" stroke="none" points="559.5,-258 559.5,-280 753.5,-280 753.5,-258 559.5,-258"/>
<polygon fill="none" stroke="black" points="559.5,-258 559.5,-280 753.5,-280 753.5,-258 559.5,-258"/>
<text text-anchor="start" x="579.5" y="-264.55" font-family="Helvetica,sans-Serif" font-size="11.00">token_ids</text>
<polygon fill="none" stroke="black" points="559.5,-240 559.5,-258 753.5,-258 753.5,-240 559.5,-240"/>
<text text-anchor="start" x="562.5" y="-244.55" font-family="Helvetica,sans-Serif" font-size="11.00">...</text>
<polygon fill="#ffffff" stroke="none" points="559.5,-222 559.5,-240 654.5,-240 654.5,-222 559.5,-222"/>
<polygon fill="none" stroke="black" points="559.5,-222 559.5,-240 654.5,-240 654.5,-222 559.5,-222"/>
<text text-anchor="start" x="562.5" y="-226.55" font-family="Helvetica,sans-Serif" font-size="11.00">&lt; 2</text>
<polygon fill="#ffffff" stroke="none" points="654.5,-222 654.5,-240 703.5,-240 703.5,-222 654.5,-222"/>
<polygon fill="none" stroke="black" points="654.5,-222 654.5,-240 703.5,-240 703.5,-222 654.5,-222"/>
<text text-anchor="start" x="694.5" y="-226.55" font-family="Helvetica,sans-Serif" font-size="11.00"> &#160;</text>
<polygon fill="#ffffff" stroke="none" points="703.5,-222 703.5,-240 753.5,-240 753.5,-222 703.5,-222"/>
<polygon fill="none" stroke="black" points="703.5,-222 703.5,-240 753.5,-240 753.5,-222 703.5,-222"/>
<text text-anchor="start" x="744.5" y="-226.55" font-family="Helvetica,sans-Serif" font-size="11.00"> &#160;</text>
</a>
</g>
</g>
<!-- token_transfers&#45;&gt;blocks -->
<g id="edge5" class="edge">
<title>token_transfers:w&#45;&gt;blocks:e</title>
<path fill="none" stroke="black" d="M543.49,-286.78C524.58,-272.32 544.02,-224.58 513,-206 383.75,-128.58 323.51,-187.37 174,-206 156.03,-208.24 152.61,-216 134.5,-216"/>
<polygon fill="black" stroke="black" points="550.48,-288.75 557.2,-294.38 554.65,-289.92 557.86,-290.82 557.86,-290.82 557.86,-290.82 554.65,-289.92 559.15,-287.44 550.48,-288.75"/>
<ellipse fill="none" stroke="black" cx="545.74" cy="-287.42" rx="3.2" ry="3.2"/>
</g>
<!-- token_transfers&#45;&gt;transactions -->
<g id="edge6" class="edge">
<title>token_transfers:w&#45;&gt;transactions:e</title>
<path fill="none" stroke="black" d="M543.79,-427.75C484.41,-472.65 588,-821 504.5,-821"/>
<polygon fill="black" stroke="black" points="550.57,-425.56 559.29,-426.53 554.69,-424.23 557.86,-423.21 557.86,-423.21 557.86,-423.21 554.69,-424.23 557.08,-419.68 550.57,-425.56"/>
<ellipse fill="none" stroke="black" cx="545.89" cy="-427.07" rx="3.2" ry="3.2"/>
</g>
<!-- transaction_actions -->
<g id="node6" class="node">
<title>transaction_actions</title>
<g id="a_node6"><a xlink:href="../../tables/transaction_actions.html" xlink:title="transaction_actions" target="_top">
<polygon fill="#ffffff" stroke="none" points="580.5,-754 580.5,-900 732.5,-900 732.5,-754 580.5,-754"/>
<polygon fill="#f5f5f5" stroke="none" points="580.5,-878 580.5,-900 732.5,-900 732.5,-878 580.5,-878"/>
<polygon fill="none" stroke="black" points="580.5,-878 580.5,-900 732.5,-900 732.5,-878 580.5,-878"/>
<text text-anchor="start" x="585.5" y="-885.55" font-family="Helvetica,sans-Serif" font-weight="bold" font-size="11.00">transaction_actions</text>
<text text-anchor="start" x="698.5" y="-884.55" font-family="Helvetica,sans-Serif" font-size="11.00">[table]</text>
<polygon fill="none" stroke="black" points="580.5,-856 580.5,-878 732.5,-878 732.5,-856 580.5,-856"/>
<image xlink:href="../../images/primaryKeys.png" width="11px" height="12px" preserveAspectRatio="xMinYMin meet" x="585.5" y="-873"/>
<text text-anchor="start" x="609.5" y="-862.55" font-family="Helvetica,sans-Serif" font-size="11.00">hash</text>
<polygon fill="#ffffff" stroke="none" points="580.5,-834 580.5,-856 732.5,-856 732.5,-834 580.5,-834"/>
<polygon fill="none" stroke="black" points="580.5,-834 580.5,-856 732.5,-856 732.5,-834 580.5,-834"/>
<text text-anchor="start" x="609.5" y="-840.55" font-family="Helvetica,sans-Serif" font-size="11.00">protocol</text>
<polygon fill="#ffffff" stroke="none" points="580.5,-812 580.5,-834 732.5,-834 732.5,-812 580.5,-812"/>
<polygon fill="none" stroke="black" points="580.5,-812 580.5,-834 732.5,-834 732.5,-812 580.5,-812"/>
<text text-anchor="start" x="609.5" y="-818.55" font-family="Helvetica,sans-Serif" font-size="11.00">type</text>
<polygon fill="none" stroke="black" points="580.5,-790 580.5,-812 732.5,-812 732.5,-790 580.5,-790"/>
<image xlink:href="../../images/primaryKeys.png" width="11px" height="12px" preserveAspectRatio="xMinYMin meet" x="585.5" y="-807"/>
<text text-anchor="start" x="609.5" y="-796.55" font-family="Helvetica,sans-Serif" font-size="11.00">log_index</text>
<polygon fill="none" stroke="black" points="580.5,-772 580.5,-790 732.5,-790 732.5,-772 580.5,-772"/>
<text text-anchor="start" x="583.5" y="-776.55" font-family="Helvetica,sans-Serif" font-size="11.00">...</text>
<polygon fill="#ffffff" stroke="none" points="580.5,-754 580.5,-772 654.5,-772 654.5,-754 580.5,-754"/>
<polygon fill="none" stroke="black" points="580.5,-754 580.5,-772 654.5,-772 654.5,-754 580.5,-754"/>
<text text-anchor="start" x="583.5" y="-758.55" font-family="Helvetica,sans-Serif" font-size="11.00">&lt; 1</text>
<polygon fill="#ffffff" stroke="none" points="654.5,-754 654.5,-772 693.5,-772 693.5,-754 654.5,-754"/>
<polygon fill="none" stroke="black" points="654.5,-754 654.5,-772 693.5,-772 693.5,-754 654.5,-754"/>
<text text-anchor="start" x="684.5" y="-758.55" font-family="Helvetica,sans-Serif" font-size="11.00"> &#160;</text>
<polygon fill="#ffffff" stroke="none" points="693.5,-754 693.5,-772 732.5,-772 732.5,-754 693.5,-754"/>
<polygon fill="none" stroke="black" points="693.5,-754 693.5,-772 732.5,-772 732.5,-754 693.5,-754"/>
<text text-anchor="start" x="723.5" y="-758.55" font-family="Helvetica,sans-Serif" font-size="11.00"> &#160;</text>
</a>
</g>
</g>
<!-- transaction_actions&#45;&gt;transactions -->
<g id="edge7" class="edge">
<title>transaction_actions:w&#45;&gt;transactions:e</title>
<path fill="none" stroke="black" d="M564.28,-864.12C540.39,-854.05 537.65,-821 504.5,-821"/>
<polygon fill="black" stroke="black" points="571.31,-865.45 578.5,-870.48 575.57,-866.26 578.84,-866.88 578.84,-866.88 578.84,-866.88 575.57,-866.26 579.84,-863.4 571.31,-865.45"/>
<ellipse fill="none" stroke="black" cx="566.48" cy="-864.54" rx="3.2" ry="3.2"/>
</g>
<!-- transaction_forks -->
<g id="node7" class="node">
<title>transaction_forks</title>
<g id="a_node7"><a xlink:href="../../tables/transaction_forks.html" xlink:title="transaction_forks" target="_top">
<polygon fill="#ffffff" stroke="none" points="587,-77 587,-201 726,-201 726,-77 587,-77"/>
<polygon fill="#f5f5f5" stroke="none" points="587,-179 587,-201 726,-201 726,-179 587,-179"/>
<polygon fill="none" stroke="black" points="587,-179 587,-201 726,-201 726,-179 587,-179"/>
<text text-anchor="start" x="592" y="-186.55" font-family="Helvetica,sans-Serif" font-weight="bold" font-size="11.00">transaction_forks</text>
<text text-anchor="start" x="692" y="-185.55" font-family="Helvetica,sans-Serif" font-size="11.00">[table]</text>
<polygon fill="none" stroke="black" points="587,-157 587,-179 726,-179 726,-157 587,-157"/>
<image xlink:href="../../images/foreignKeys.png" width="11px" height="12px" preserveAspectRatio="xMinYMin meet" x="592" y="-174"/>
<text text-anchor="start" x="616" y="-163.55" font-family="Helvetica,sans-Serif" font-size="11.00">hash</text>
<polygon fill="none" stroke="black" points="587,-135 587,-157 726,-157 726,-135 587,-135"/>
<image xlink:href="../../images/primaryKeys.png" width="11px" height="12px" preserveAspectRatio="xMinYMin meet" x="592" y="-152"/>
<text text-anchor="start" x="616" y="-141.55" font-family="Helvetica,sans-Serif" font-size="11.00">index</text>
<polygon fill="none" stroke="black" points="587,-113 587,-135 726,-135 726,-113 587,-113"/>
<image xlink:href="../../images/primaryKeys.png" width="11px" height="12px" preserveAspectRatio="xMinYMin meet" x="592" y="-130"/>
<text text-anchor="start" x="616" y="-119.55" font-family="Helvetica,sans-Serif" font-size="11.00">uncle_hash</text>
<polygon fill="none" stroke="black" points="587,-95 587,-113 726,-113 726,-95 587,-95"/>
<text text-anchor="start" x="590" y="-99.55" font-family="Helvetica,sans-Serif" font-size="11.00">...</text>
<polygon fill="#ffffff" stroke="none" points="587,-77 587,-95 655,-95 655,-77 587,-77"/>
<polygon fill="none" stroke="black" points="587,-77 587,-95 655,-95 655,-77 587,-77"/>
<text text-anchor="start" x="590" y="-81.55" font-family="Helvetica,sans-Serif" font-size="11.00">&lt; 2</text>
<polygon fill="#ffffff" stroke="none" points="655,-77 655,-95 690,-95 690,-77 655,-77"/>
<polygon fill="none" stroke="black" points="655,-77 655,-95 690,-95 690,-77 655,-77"/>
<text text-anchor="start" x="681" y="-81.55" font-family="Helvetica,sans-Serif" font-size="11.00"> &#160;</text>
<polygon fill="#ffffff" stroke="none" points="690,-77 690,-95 726,-95 726,-77 690,-77"/>
<polygon fill="none" stroke="black" points="690,-77 690,-95 726,-95 726,-77 690,-77"/>
<text text-anchor="start" x="717" y="-81.55" font-family="Helvetica,sans-Serif" font-size="11.00"> &#160;</text>
</a>
</g>
</g>
<!-- transaction_forks&#45;&gt;blocks -->
<g id="edge9" class="edge">
<title>transaction_forks:w&#45;&gt;blocks:e</title>
<path fill="none" stroke="black" d="M569.86,-123.94C397.42,-122.7 335.92,-102.22 174,-179 152.27,-189.31 158.55,-216 134.5,-216"/>
<polygon fill="black" stroke="black" points="577.17,-123.97 585.15,-127.6 581.5,-123.99 584.83,-124 584.83,-124 584.83,-124 581.5,-123.99 585.18,-120.4 577.17,-123.97"/>
<ellipse fill="none" stroke="black" cx="572.25" cy="-123.95" rx="3.2" ry="3.2"/>
</g>
<!-- transaction_forks&#45;&gt;transactions -->
<g id="edge8" class="edge">
<title>transaction_forks:w&#45;&gt;transactions:e</title>
<path fill="none" stroke="black" d="M570.07,-171.26C557.35,-177.85 553.75,-193.66 546,-212 519.6,-274.47 572.32,-821 504.5,-821"/>
<polygon fill="black" stroke="black" points="577.35,-169.73 585.92,-171.59 581.59,-168.83 584.85,-168.14 584.85,-168.14 584.85,-168.14 581.59,-168.83 584.43,-164.55 577.35,-169.73"/>
<ellipse fill="none" stroke="black" cx="572.53" cy="-170.74" rx="3.2" ry="3.2"/>
</g>
</g>
</svg>
