<?xml version="1.0" encoding="UTF-8" standalone="no"?>
<!DOCTYPE svg PUBLIC "-//W3C//DTD SVG 1.1//EN"
 "http://www.w3.org/Graphics/SVG/1.1/DTD/svg11.dtd">
<!-- Generated by graphviz version 2.38.0 (20140413.2041)
 -->
<!-- Title: twoDegreesRelationshipsDiagram Pages: 1 -->
<svg width="863pt" height="895pt"
 viewBox="0.00 0.00 863.00 895.00" xmlns="http://www.w3.org/2000/svg" xmlns:xlink="http://www.w3.org/1999/xlink">
<g id="graph0" class="graph" transform="scale(1 1) rotate(0) translate(4 891)">
<title>twoDegreesRelationshipsDiagram</title>
<polygon fill="#ffffff" stroke="none" points="-4,4 -4,-891 859,-891 859,4 -4,4"/>
<text text-anchor="middle" x="74.5" y="-7.2" font-family="Helvetica,sans-Serif" font-size="11.00">Generated by SchemaSpy</text>
<!-- block_rewards -->
<g id="node1" class="node"><title>block_rewards</title>
<g id="a_node1"><a xlink:href="../../tables/block_rewards.html" xlink:title="block_rewards" target="_top">
<polygon fill="#ffffff" stroke="none" points="380.5,-731 380.5,-789 510.5,-789 510.5,-731 380.5,-731"/>
<polygon fill="#f5f5f5" stroke="none" points="380.5,-767 380.5,-789 510.5,-789 510.5,-767 380.5,-767"/>
<polygon fill="none" stroke="black" points="380.5,-767 380.5,-789 510.5,-789 510.5,-767 380.5,-767"/>
<text text-anchor="start" x="385.5" y="-776.2" font-family="Helvetica,sans-Serif" font-weight="bold" font-size="11.00">block_rewards</text>
<text text-anchor="start" x="471.5" y="-775.2" font-family="Helvetica,sans-Serif" font-size="11.00">[table]</text>
<polygon fill="none" stroke="black" points="380.5,-749 380.5,-767 510.5,-767 510.5,-749 380.5,-749"/>
<text text-anchor="start" x="383.5" y="-755.2" font-family="Helvetica,sans-Serif" font-size="11.00">...</text>
<polygon fill="#ffffff" stroke="none" points="380.5,-731 380.5,-749 429.5,-749 429.5,-731 380.5,-731"/>
<polygon fill="none" stroke="black" points="380.5,-731 380.5,-749 429.5,-749 429.5,-731 380.5,-731"/>
<text text-anchor="start" x="383.5" y="-737.2" font-family="Helvetica,sans-Serif" font-size="11.00">&lt; 2</text>
<polygon fill="#ffffff" stroke="none" points="429.5,-731 429.5,-749 484.5,-749 484.5,-731 429.5,-731"/>
<polygon fill="none" stroke="black" points="429.5,-731 429.5,-749 484.5,-749 484.5,-731 429.5,-731"/>
<text text-anchor="start" x="445.5" y="-737.2" font-family="Helvetica,sans-Serif" font-size="11.00">0 rows</text>
<polygon fill="#ffffff" stroke="none" points="484.5,-731 484.5,-749 510.5,-749 510.5,-731 484.5,-731"/>
<polygon fill="none" stroke="black" points="484.5,-731 484.5,-749 510.5,-749 510.5,-731 484.5,-731"/>
<text text-anchor="start" x="500.5" y="-737.2" font-family="Helvetica,sans-Serif" font-size="11.00"> &#160;</text>
</a>
</g>
</g>
<!-- addresses -->
<g id="node2" class="node"><title>addresses</title>
<g id="a_node2"><a xlink:href="../../tables/addresses.html" xlink:title="addresses" target="_top">
<polygon fill="#ffffff" stroke="none" points="8,-378 8,-436 113,-436 113,-378 8,-378"/>
<polygon fill="#f5f5f5" stroke="none" points="8.5,-414 8.5,-436 113.5,-436 113.5,-414 8.5,-414"/>
<polygon fill="none" stroke="black" points="8.5,-414 8.5,-436 113.5,-436 113.5,-414 8.5,-414"/>
<text text-anchor="start" x="13.5" y="-423.2" font-family="Helvetica,sans-Serif" font-weight="bold" font-size="11.00">addresses</text>
<text text-anchor="start" x="74.5" y="-422.2" font-family="Helvetica,sans-Serif" font-size="11.00">[table]</text>
<polygon fill="none" stroke="black" points="8.5,-396 8.5,-414 113.5,-414 113.5,-396 8.5,-396"/>
<text text-anchor="start" x="11.5" y="-402.2" font-family="Helvetica,sans-Serif" font-size="11.00">...</text>
<polygon fill="#ffffff" stroke="none" points="8.5,-378 8.5,-396 31.5,-396 31.5,-378 8.5,-378"/>
<polygon fill="none" stroke="black" points="8.5,-378 8.5,-396 31.5,-396 31.5,-378 8.5,-378"/>
<text text-anchor="start" x="11.5" y="-384.2" font-family="Helvetica,sans-Serif" font-size="11.00"> &#160;</text>
<polygon fill="#ffffff" stroke="none" points="31.5,-378 31.5,-396 78.5,-396 78.5,-378 31.5,-378"/>
<polygon fill="none" stroke="black" points="31.5,-378 31.5,-396 78.5,-396 78.5,-378 31.5,-378"/>
<text text-anchor="start" x="39.5" y="-384.2" font-family="Helvetica,sans-Serif" font-size="11.00">2 rows</text>
<polygon fill="#ffffff" stroke="none" points="78.5,-378 78.5,-396 113.5,-396 113.5,-378 78.5,-378"/>
<polygon fill="none" stroke="black" points="78.5,-378 78.5,-396 113.5,-396 113.5,-378 78.5,-378"/>
<text text-anchor="start" x="86.5" y="-384.2" font-family="Helvetica,sans-Serif" font-size="11.00">19 &gt;</text>
</a>
</g>
</g>
<!-- block_rewards&#45;&gt;addresses -->
<g id="edge1" class="edge"><title>block_rewards:elipses:w&#45;&gt;addresses:elipses:e</title>
<path fill="none" stroke="black" d="M365.008,-757.395C323.069,-753.745 244.904,-729.685 154,-587 109.525,-517.191 197.272,-405 114.5,-405"/>
<polygon fill="black" stroke="black" points="371.507,-757.666 379.35,-761.597 375.503,-757.833 379.5,-758 379.5,-758 379.5,-758 375.503,-757.833 379.65,-754.403 371.507,-757.666 371.507,-757.666"/>
<ellipse fill="none" stroke="black" cx="368.31" cy="-757.533" rx="3.2" ry="3.2"/>
</g>
<!-- blocks -->
<g id="node3" class="node"><title>blocks</title>
<g id="a_node3"><a xlink:href="../../tables/blocks.html" xlink:title="blocks" target="_top">
<polygon fill="#ffffff" stroke="none" points="162,-343 162,-577 284,-577 284,-343 162,-343"/>
<polygon fill="#f5f5f5" stroke="none" points="162,-555 162,-577 284,-577 284,-555 162,-555"/>
<polygon fill="none" stroke="black" points="162,-555 162,-577 284,-577 284,-555 162,-555"/>
<text text-anchor="start" x="167" y="-564.2" font-family="Helvetica,sans-Serif" font-weight="bold" font-size="11.00">blocks</text>
<text text-anchor="start" x="245" y="-563.2" font-family="Helvetica,sans-Serif" font-size="11.00">[table]</text>
<polygon fill="#ffffff" stroke="none" points="162,-533 162,-555 284,-555 284,-533 162,-533"/>
<polygon fill="none" stroke="black" points="162,-533 162,-555 284,-555 284,-533 162,-533"/>
<text text-anchor="start" x="182" y="-541.2" font-family="Helvetica,sans-Serif" font-size="11.00">consensus</text>
<polygon fill="none" stroke="black" points="162,-511 162,-533 284,-533 284,-511 162,-511"/>
<image xlink:href="../../images/primaryKeys.png" width="11px" height="12px" preserveAspectRatio="xMinYMin meet" x="167" y="-528"/>
<text text-anchor="start" x="182" y="-519.2" font-family="Helvetica,sans-Serif" font-size="11.00">hash</text>
<polygon fill="#ffffff" stroke="none" points="162,-489 162,-511 284,-511 284,-489 162,-489"/>
<polygon fill="none" stroke="black" points="162,-489 162,-511 284,-511 284,-489 162,-489"/>
<image xlink:href="../../images/foreignKeys.png" width="11px" height="12px" preserveAspectRatio="xMinYMin meet" x="167" y="-506"/>
<text text-anchor="start" x="182" y="-497.2" font-family="Helvetica,sans-Serif" font-size="11.00">miner_hash</text>
<polygon fill="#ffffff" stroke="none" points="162,-467 162,-489 284,-489 284,-467 162,-467"/>
<polygon fill="none" stroke="black" points="162,-467 162,-489 284,-489 284,-467 162,-467"/>
<text text-anchor="start" x="182" y="-475.2" font-family="Helvetica,sans-Serif" font-size="11.00">number</text>
<polygon fill="#ffffff" stroke="none" points="162,-445 162,-467 284,-467 284,-445 162,-445"/>
<polygon fill="none" stroke="black" points="162,-445 162,-467 284,-467 284,-445 162,-445"/>
<text text-anchor="start" x="182" y="-453.2" font-family="Helvetica,sans-Serif" font-size="11.00">parent_hash</text>
<polygon fill="#ffffff" stroke="none" points="162,-423 162,-445 284,-445 284,-423 162,-423"/>
<polygon fill="none" stroke="black" points="162,-423 162,-445 284,-445 284,-423 162,-423"/>
<text text-anchor="start" x="182" y="-431.2" font-family="Helvetica,sans-Serif" font-size="11.00">timestamp</text>
<polygon fill="#ffffff" stroke="none" points="162,-401 162,-423 284,-423 284,-401 162,-401"/>
<polygon fill="none" stroke="black" points="162,-401 162,-423 284,-423 284,-401 162,-401"/>
<text text-anchor="start" x="182" y="-409.2" font-family="Helvetica,sans-Serif" font-size="11.00">inserted_at</text>
<polygon fill="#ffffff" stroke="none" points="162,-379 162,-401 284,-401 284,-379 162,-379"/>
<polygon fill="none" stroke="black" points="162,-379 162,-401 284,-401 284,-379 162,-379"/>
<text text-anchor="start" x="182" y="-387.2" font-family="Helvetica,sans-Serif" font-size="11.00">is_empty</text>
<polygon fill="none" stroke="black" points="162,-361 162,-379 284,-379 284,-361 162,-361"/>
<text text-anchor="start" x="165" y="-367.2" font-family="Helvetica,sans-Serif" font-size="11.00">...</text>
<polygon fill="#ffffff" stroke="none" points="162,-343 162,-361 202,-361 202,-343 162,-343"/>
<polygon fill="none" stroke="black" points="162,-343 162,-361 202,-361 202,-343 162,-343"/>
<text text-anchor="start" x="165" y="-349.2" font-family="Helvetica,sans-Serif" font-size="11.00">&lt; 1</text>
<polygon fill="#ffffff" stroke="none" points="202,-343 202,-361 252,-361 252,-343 202,-343"/>
<polygon fill="none" stroke="black" points="202,-343 202,-361 252,-361 252,-343 202,-343"/>
<text text-anchor="start" x="213" y="-349.2" font-family="Helvetica,sans-Serif" font-size="11.00">3 rows</text>
<polygon fill="#ffffff" stroke="none" points="252,-343 252,-361 284,-361 284,-343 252,-343"/>
<polygon fill="none" stroke="black" points="252,-343 252,-361 284,-361 284,-343 252,-343"/>
<text text-anchor="start" x="264" y="-349.2" font-family="Helvetica,sans-Serif" font-size="11.00">8 &gt;</text>
</a>
</g>
</g>
<!-- block_rewards&#45;&gt;blocks -->
<g id="edge2" class="edge"><title>block_rewards:elipses:w&#45;&gt;blocks:hash:e</title>
<path fill="none" stroke="black" d="M365.146,-756.54C346.054,-752.141 338.293,-738.013 325,-717 277.7,-642.234 373.471,-522 285,-522"/>
<polygon fill="black" stroke="black" points="371.541,-757.19 379.136,-761.582 375.521,-757.595 379.5,-758 379.5,-758 379.5,-758 375.521,-757.595 379.864,-754.418 371.541,-757.19 371.541,-757.19"/>
<ellipse fill="none" stroke="black" cx="368.358" cy="-756.866" rx="3.2" ry="3.2"/>
</g>
<!-- blocks&#45;&gt;addresses -->
<g id="edge4" class="edge"><title>blocks:miner_hash:w&#45;&gt;addresses:elipses:e</title>
<path fill="none" stroke="black" d="M147.128,-495.671C124.671,-477.086 155.449,-405 114.5,-405"/>
<polygon fill="black" stroke="black" points="153.363,-497.617 159.928,-503.437 157.182,-498.808 161,-500 161,-500 161,-500 157.182,-498.808 162.072,-496.563 153.363,-497.617 153.363,-497.617"/>
<ellipse fill="none" stroke="black" cx="150.308" cy="-496.664" rx="3.20001" ry="3.20001"/>
</g>
<!-- block_second_degree_relations -->
<g id="node4" class="node"><title>block_second_degree_relations</title>
<g id="a_node4"><a xlink:href="../../tables/block_second_degree_relations.html" xlink:title="block_second_degree_relations" target="_top">
<polygon fill="#ffffff" stroke="none" points="334,-625 334,-683 557,-683 557,-625 334,-625"/>
<polygon fill="#f5f5f5" stroke="none" points="334.5,-661 334.5,-683 557.5,-683 557.5,-661 334.5,-661"/>
<polygon fill="none" stroke="black" points="334.5,-661 334.5,-683 557.5,-683 557.5,-661 334.5,-661"/>
<text text-anchor="start" x="339.5" y="-670.2" font-family="Helvetica,sans-Serif" font-weight="bold" font-size="11.00">block_second_degree_relations</text>
<text text-anchor="start" x="518.5" y="-669.2" font-family="Helvetica,sans-Serif" font-size="11.00">[table]</text>
<polygon fill="none" stroke="black" points="334.5,-643 334.5,-661 557.5,-661 557.5,-643 334.5,-643"/>
<text text-anchor="start" x="337.5" y="-649.2" font-family="Helvetica,sans-Serif" font-size="11.00">...</text>
<polygon fill="#ffffff" stroke="none" points="334.5,-625 334.5,-643 429.5,-643 429.5,-625 334.5,-625"/>
<polygon fill="none" stroke="black" points="334.5,-625 334.5,-643 429.5,-643 429.5,-625 334.5,-625"/>
<text text-anchor="start" x="337.5" y="-631.2" font-family="Helvetica,sans-Serif" font-size="11.00">&lt; 1</text>
<polygon fill="#ffffff" stroke="none" points="429.5,-625 429.5,-643 507.5,-643 507.5,-625 429.5,-625"/>
<polygon fill="none" stroke="black" points="429.5,-625 429.5,-643 507.5,-643 507.5,-625 429.5,-625"/>
<text text-anchor="start" x="468.5" y="-631.2" font-family="Helvetica,sans-Serif" font-size="11.00">0 rows</text>
<polygon fill="#ffffff" stroke="none" points="507.5,-625 507.5,-643 557.5,-643 557.5,-625 507.5,-625"/>
<polygon fill="none" stroke="black" points="507.5,-625 507.5,-643 557.5,-643 557.5,-625 507.5,-625"/>
<text text-anchor="start" x="547.5" y="-631.2" font-family="Helvetica,sans-Serif" font-size="11.00"> &#160;</text>
</a>
</g>
</g>
<!-- block_second_degree_relations&#45;&gt;blocks -->
<g id="edge3" class="edge"><title>block_second_degree_relations:elipses:w&#45;&gt;blocks:hash:e</title>
<path fill="none" stroke="black" d="M319.084,-648.523C285.147,-627.849 340.646,-522 285,-522"/>
<polygon fill="black" stroke="black" points="325.723,-650.124 332.656,-655.5 329.612,-651.062 333.5,-652 333.5,-652 333.5,-652 329.612,-651.062 334.344,-648.5 325.723,-650.124 325.723,-650.124"/>
<ellipse fill="none" stroke="black" cx="322.612" cy="-649.374" rx="3.2" ry="3.2"/>
</g>
<!-- internal_transactions -->
<g id="node5" class="node"><title>internal_transactions</title>
<g id="a_node5"><a xlink:href="../../tables/internal_transactions.html" xlink:title="internal_transactions" target="_top">
<polygon fill="#ffffff" stroke="none" points="641.5,-825 641.5,-883 812.5,-883 812.5,-825 641.5,-825"/>
<polygon fill="#f5f5f5" stroke="none" points="642,-861 642,-883 813,-883 813,-861 642,-861"/>
<polygon fill="none" stroke="black" points="642,-861 642,-883 813,-883 813,-861 642,-861"/>
<text text-anchor="start" x="647" y="-870.2" font-family="Helvetica,sans-Serif" font-weight="bold" font-size="11.00">internal_transactions</text>
<text text-anchor="start" x="774" y="-869.2" font-family="Helvetica,sans-Serif" font-size="11.00">[table]</text>
<polygon fill="none" stroke="black" points="642,-843 642,-861 813,-861 813,-843 642,-843"/>
<text text-anchor="start" x="645" y="-849.2" font-family="Helvetica,sans-Serif" font-size="11.00">...</text>
<polygon fill="#ffffff" stroke="none" points="642,-825 642,-843 714,-843 714,-825 642,-825"/>
<polygon fill="none" stroke="black" points="642,-825 642,-843 714,-843 714,-825 642,-825"/>
<text text-anchor="start" x="645" y="-831.2" font-family="Helvetica,sans-Serif" font-size="11.00">&lt; 5</text>
<polygon fill="#ffffff" stroke="none" points="714,-825 714,-843 775,-843 775,-825 714,-825"/>
<polygon fill="none" stroke="black" points="714,-825 714,-843 775,-843 775,-825 714,-825"/>
<text text-anchor="start" x="741" y="-831.2" font-family="Helvetica,sans-Serif" font-size="11.00">1 row</text>
<polygon fill="#ffffff" stroke="none" points="775,-825 775,-843 813,-843 813,-825 775,-825"/>
<polygon fill="none" stroke="black" points="775,-825 775,-843 813,-843 813,-825 775,-825"/>
<text text-anchor="start" x="803" y="-831.2" font-family="Helvetica,sans-Serif" font-size="11.00"> &#160;</text>
</a>
</g>
</g>
<!-- internal_transactions&#45;&gt;addresses -->
<g id="edge6" class="edge"><title>internal_transactions:elipses:w&#45;&gt;addresses:elipses:e</title>
<path fill="none" stroke="black" d="M626.48,-852.093C412.906,-854.817 281.654,-914.867 154,-739 110.097,-678.515 189.239,-405 114.5,-405"/>
<polygon fill="black" stroke="black" points="633,-852.052 641.023,-855.6 637,-852.026 641,-852 641,-852 641,-852 637,-852.026 640.977,-848.4 633,-852.052 633,-852.052"/>
<ellipse fill="none" stroke="black" cx="629.8" cy="-852.072" rx="3.2" ry="3.2"/>
</g>
<!-- internal_transactions&#45;&gt;addresses -->
<g id="edge7" class="edge"><title>internal_transactions:elipses:w&#45;&gt;addresses:elipses:e</title>
<path fill="none" stroke="black" d="M626.452,-851.703C412.457,-848.707 280.325,-906.315 154,-729 111.145,-668.848 188.357,-399 114.5,-405"/>
<polygon fill="black" stroke="black" points="633.002,-851.837 640.926,-855.599 637.001,-851.918 641,-852 641,-852 641,-852 637.001,-851.918 641.074,-848.401 633.002,-851.837 633.002,-851.837"/>
<ellipse fill="none" stroke="black" cx="629.802" cy="-851.771" rx="3.2" ry="3.2"/>
</g>
<!-- internal_transactions&#45;&gt;addresses -->
<g id="edge8" class="edge"><title>internal_transactions:elipses:w&#45;&gt;addresses:elipses:e</title>
<path fill="none" stroke="black" d="M626.452,-852.541C412.457,-861.707 280.325,-919.315 154,-742 111.145,-681.848 188.357,-412 114.5,-405"/>
<polygon fill="black" stroke="black" points="633.006,-852.297 641.134,-855.598 637.003,-852.149 641,-852 641,-852 641,-852 637.003,-852.149 640.866,-848.402 633.006,-852.297 633.006,-852.297"/>
<ellipse fill="none" stroke="black" cx="629.808" cy="-852.416" rx="3.2" ry="3.2"/>
</g>
<!-- internal_transactions&#45;&gt;blocks -->
<g id="edge5" class="edge"><title>internal_transactions:elipses:w&#45;&gt;blocks:hash:e</title>
<path fill="none" stroke="black" d="M626.62,-850.169C580.825,-836.825 617.714,-754.091 566,-720 476.013,-660.678 405.582,-764.577 325,-693 266.645,-641.166 363.052,-522 285,-522"/>
<polygon fill="black" stroke="black" points="633.064,-850.99 640.545,-855.571 637.032,-851.495 641,-852 641,-852 641,-852 637.032,-851.495 641.455,-848.429 633.064,-850.99 633.064,-850.99"/>
<ellipse fill="none" stroke="black" cx="629.89" cy="-850.585" rx="3.2" ry="3.2"/>
</g>
<!-- transactions -->
<g id="node6" class="node"><title>transactions</title>
<g id="a_node6"><a xlink:href="../../tables/transactions.html" xlink:title="transactions" target="_top">
<polygon fill="#ffffff" stroke="none" points="333,-127 333,-471 558,-471 558,-127 333,-127"/>
<polygon fill="#f5f5f5" stroke="none" points="333.5,-449 333.5,-471 558.5,-471 558.5,-449 333.5,-449"/>
<polygon fill="none" stroke="black" points="333.5,-449 333.5,-471 558.5,-471 558.5,-449 333.5,-449"/>
<text text-anchor="start" x="338.5" y="-458.2" font-family="Helvetica,sans-Serif" font-weight="bold" font-size="11.00">transactions</text>
<text text-anchor="start" x="519.5" y="-457.2" font-family="Helvetica,sans-Serif" font-size="11.00">[table]</text>
<polygon fill="#ffffff" stroke="none" points="333.5,-427 333.5,-449 558.5,-449 558.5,-427 333.5,-427"/>
<polygon fill="none" stroke="black" points="333.5,-427 333.5,-449 558.5,-449 558.5,-427 333.5,-427"/>
<text text-anchor="start" x="353.5" y="-435.2" font-family="Helvetica,sans-Serif" font-size="11.00">error</text>
<polygon fill="none" stroke="black" points="333.5,-405 333.5,-427 558.5,-427 558.5,-405 333.5,-405"/>
<image xlink:href="../../images/primaryKeys.png" width="11px" height="12px" preserveAspectRatio="xMinYMin meet" x="338.5" y="-422"/>
<text text-anchor="start" x="353.5" y="-413.2" font-family="Helvetica,sans-Serif" font-size="11.00">hash</text>
<polygon fill="#ffffff" stroke="none" points="333.5,-383 333.5,-405 558.5,-405 558.5,-383 333.5,-383"/>
<polygon fill="none" stroke="black" points="333.5,-383 333.5,-405 558.5,-405 558.5,-383 333.5,-383"/>
<text text-anchor="start" x="353.5" y="-391.2" font-family="Helvetica,sans-Serif" font-size="11.00">index</text>
<polygon fill="#ffffff" stroke="none" points="333.5,-361 333.5,-383 558.5,-383 558.5,-361 333.5,-361"/>
<polygon fill="none" stroke="black" points="333.5,-361 333.5,-383 558.5,-383 558.5,-361 333.5,-361"/>
<text text-anchor="start" x="353.5" y="-369.2" font-family="Helvetica,sans-Serif" font-size="11.00">nonce</text>
<polygon fill="#ffffff" stroke="none" points="333.5,-339 333.5,-361 558.5,-361 558.5,-339 333.5,-339"/>
<polygon fill="none" stroke="black" points="333.5,-339 333.5,-361 558.5,-361 558.5,-339 333.5,-339"/>
<text text-anchor="start" x="353.5" y="-347.2" font-family="Helvetica,sans-Serif" font-size="11.00">status</text>
<polygon fill="#ffffff" stroke="none" points="333.5,-317 333.5,-339 558.5,-339 558.5,-317 333.5,-317"/>
<polygon fill="none" stroke="black" points="333.5,-317 333.5,-339 558.5,-339 558.5,-317 333.5,-317"/>
<text text-anchor="start" x="353.5" y="-325.2" font-family="Helvetica,sans-Serif" font-size="11.00">inserted_at</text>
<polygon fill="#ffffff" stroke="none" points="333.5,-295 333.5,-317 558.5,-317 558.5,-295 333.5,-295"/>
<polygon fill="none" stroke="black" points="333.5,-295 333.5,-317 558.5,-317 558.5,-295 333.5,-295"/>
<text text-anchor="start" x="353.5" y="-303.2" font-family="Helvetica,sans-Serif" font-size="11.00">updated_at</text>
<polygon fill="#ffffff" stroke="none" points="333.5,-273 333.5,-295 558.5,-295 558.5,-273 333.5,-273"/>
<polygon fill="none" stroke="black" points="333.5,-273 333.5,-295 558.5,-295 558.5,-273 333.5,-273"/>
<image xlink:href="../../images/foreignKeys.png" width="11px" height="12px" preserveAspectRatio="xMinYMin meet" x="338.5" y="-290"/>
<text text-anchor="start" x="353.5" y="-281.2" font-family="Helvetica,sans-Serif" font-size="11.00">block_hash</text>
<polygon fill="#ffffff" stroke="none" points="333.5,-251 333.5,-273 558.5,-273 558.5,-251 333.5,-251"/>
<polygon fill="none" stroke="black" points="333.5,-251 333.5,-273 558.5,-273 558.5,-251 333.5,-251"/>
<text text-anchor="start" x="353.5" y="-259.2" font-family="Helvetica,sans-Serif" font-size="11.00">block_number</text>
<polygon fill="#ffffff" stroke="none" points="333.5,-229 333.5,-251 558.5,-251 558.5,-229 333.5,-229"/>
<polygon fill="none" stroke="black" points="333.5,-229 333.5,-251 558.5,-251 558.5,-229 333.5,-229"/>
<image xlink:href="../../images/foreignKeys.png" width="11px" height="12px" preserveAspectRatio="xMinYMin meet" x="338.5" y="-246"/>
<text text-anchor="start" x="353.5" y="-237.2" font-family="Helvetica,sans-Serif" font-size="11.00">from_address_hash</text>
<polygon fill="#ffffff" stroke="none" points="333.5,-207 333.5,-229 558.5,-229 558.5,-207 333.5,-207"/>
<polygon fill="none" stroke="black" points="333.5,-207 333.5,-229 558.5,-229 558.5,-207 333.5,-207"/>
<image xlink:href="../../images/foreignKeys.png" width="11px" height="12px" preserveAspectRatio="xMinYMin meet" x="338.5" y="-224"/>
<text text-anchor="start" x="353.5" y="-215.2" font-family="Helvetica,sans-Serif" font-size="11.00">to_address_hash</text>
<polygon fill="#ffffff" stroke="none" points="333.5,-185 333.5,-207 558.5,-207 558.5,-185 333.5,-185"/>
<polygon fill="none" stroke="black" points="333.5,-185 333.5,-207 558.5,-207 558.5,-185 333.5,-185"/>
<image xlink:href="../../images/foreignKeys.png" width="11px" height="12px" preserveAspectRatio="xMinYMin meet" x="338.5" y="-202"/>
<text text-anchor="start" x="353.5" y="-193.2" font-family="Helvetica,sans-Serif" font-size="11.00">created_contract_address_hash</text>
<polygon fill="#ffffff" stroke="none" points="333.5,-163 333.5,-185 558.5,-185 558.5,-163 333.5,-163"/>
<polygon fill="none" stroke="black" points="333.5,-163 333.5,-185 558.5,-185 558.5,-163 333.5,-163"/>
<text text-anchor="start" x="353.5" y="-171.2" font-family="Helvetica,sans-Serif" font-size="11.00">created_contract_code_indexed_at</text>
<polygon fill="none" stroke="black" points="333.5,-145 333.5,-163 558.5,-163 558.5,-145 333.5,-145"/>
<text text-anchor="start" x="336.5" y="-151.2" font-family="Helvetica,sans-Serif" font-size="11.00">...</text>
<polygon fill="#ffffff" stroke="none" points="333.5,-127 333.5,-145 427.5,-145 427.5,-127 333.5,-127"/>
<polygon fill="none" stroke="black" points="333.5,-127 333.5,-145 427.5,-145 427.5,-127 333.5,-127"/>
<text text-anchor="start" x="336.5" y="-133.2" font-family="Helvetica,sans-Serif" font-size="11.00">&lt; 4</text>
<polygon fill="#ffffff" stroke="none" points="427.5,-127 427.5,-145 499.5,-145 499.5,-127 427.5,-127"/>
<polygon fill="none" stroke="black" points="427.5,-127 427.5,-145 499.5,-145 499.5,-127 427.5,-127"/>
<text text-anchor="start" x="465.5" y="-133.2" font-family="Helvetica,sans-Serif" font-size="11.00">1 row</text>
<polygon fill="#ffffff" stroke="none" points="499.5,-127 499.5,-145 558.5,-145 558.5,-127 499.5,-127"/>
<polygon fill="none" stroke="black" points="499.5,-127 499.5,-145 558.5,-145 558.5,-127 499.5,-127"/>
<text text-anchor="start" x="538.5" y="-133.2" font-family="Helvetica,sans-Serif" font-size="11.00">4 &gt;</text>
</a>
</g>
</g>
<!-- internal_transactions&#45;&gt;transactions -->
<g id="edge9" class="edge"><title>internal_transactions:elipses:w&#45;&gt;transactions:hash:e</title>
<path fill="none" stroke="black" d="M629.68,-842.894C594.16,-780.282 604.548,-416 559.5,-416"/>
<polygon fill="black" stroke="black" points="634.767,-846.986 638.743,-854.805 637.883,-849.493 641,-852 641,-852 641,-852 637.883,-849.493 643.257,-849.195 634.767,-846.986 634.767,-846.986"/>
<ellipse fill="none" stroke="black" cx="632.273" cy="-844.98" rx="3.20001" ry="3.20001"/>
</g>
<!-- transactions&#45;&gt;addresses -->
<g id="edge22" class="edge"><title>transactions:created_contract_address_hash:w&#45;&gt;addresses:elipses:e</title>
<path fill="none" stroke="black" d="M317.681,-195.848C245.916,-194.436 208.02,-184.829 154,-239 100.449,-292.7 190.338,-405 114.5,-405"/>
<polygon fill="black" stroke="black" points="324.5,-195.918 332.463,-199.6 328.5,-195.959 332.5,-196 332.5,-196 332.5,-196 328.5,-195.959 332.537,-192.4 324.5,-195.918 324.5,-195.918"/>
<ellipse fill="none" stroke="black" cx="321.301" cy="-195.885" rx="3.2" ry="3.2"/>
</g>
<!-- transactions&#45;&gt;addresses -->
<g id="edge23" class="edge"><title>transactions:from_address_hash:w&#45;&gt;addresses:elipses:e</title>
<path fill="none" stroke="black" d="M319.173,-245.795C278.156,-265.474 157.361,-328.706 154,-332 127.655,-357.822 151.39,-405 114.5,-405"/>
<polygon fill="black" stroke="black" points="325.164,-243.19 333.936,-243.301 328.832,-241.595 332.5,-240 332.5,-240 332.5,-240 328.832,-241.595 331.064,-236.699 325.164,-243.19 325.164,-243.19"/>
<ellipse fill="none" stroke="black" cx="322.229" cy="-244.466" rx="3.20001" ry="3.20001"/>
</g>
<!-- transactions&#45;&gt;addresses -->
<g id="edge24" class="edge"><title>transactions:to_address_hash:w&#45;&gt;addresses:elipses:e</title>
<path fill="none" stroke="black" d="M318.324,-221.032C276.32,-230.43 155.524,-258.528 154,-260 105.954,-306.399 181.293,-405 114.5,-405"/>
<polygon fill="black" stroke="black" points="324.677,-219.673 333.253,-221.52 328.588,-218.837 332.5,-218 332.5,-218 332.5,-218 328.588,-218.837 331.747,-214.48 324.677,-219.673 324.677,-219.673"/>
<ellipse fill="none" stroke="black" cx="321.548" cy="-220.343" rx="3.2" ry="3.2"/>
</g>
<!-- transactions&#45;&gt;blocks -->
<g id="edge21" class="edge"><title>transactions:block_hash:w&#45;&gt;blocks:hash:e</title>
<path fill="none" stroke="black" d="M318.131,-285.779C241.01,-307.558 387.386,-522 285,-522"/>
<polygon fill="black" stroke="black" points="324.561,-284.983 332.942,-287.573 328.53,-284.491 332.5,-284 332.5,-284 332.5,-284 328.53,-284.491 332.058,-280.427 324.561,-284.983 324.561,-284.983"/>
<ellipse fill="none" stroke="black" cx="321.385" cy="-285.376" rx="3.2" ry="3.2"/>
</g>
<!-- logs -->
<g id="node7" class="node"><title>logs</title>
<g id="a_node7"><a xlink:href="../../tables/logs.html" xlink:title="logs" target="_top">
<polygon fill="#ffffff" stroke="none" points="688,-495 688,-553 766,-553 766,-495 688,-495"/>
<polygon fill="#f5f5f5" stroke="none" points="688,-531 688,-553 766,-553 766,-531 688,-531"/>
<polygon fill="none" stroke="black" points="688,-531 688,-553 766,-553 766,-531 688,-531"/>
<text text-anchor="start" x="693" y="-540.2" font-family="Helvetica,sans-Serif" font-weight="bold" font-size="11.00">logs</text>
<text text-anchor="start" x="727" y="-539.2" font-family="Helvetica,sans-Serif" font-size="11.00">[table]</text>
<polygon fill="none" stroke="black" points="688,-513 688,-531 766,-531 766,-513 688,-513"/>
<text text-anchor="start" x="691" y="-519.2" font-family="Helvetica,sans-Serif" font-size="11.00">...</text>
<polygon fill="#ffffff" stroke="none" points="688,-495 688,-513 711,-513 711,-495 688,-495"/>
<polygon fill="none" stroke="black" points="688,-495 688,-513 711,-513 711,-495 688,-495"/>
<text text-anchor="start" x="691" y="-501.2" font-family="Helvetica,sans-Serif" font-size="11.00">&lt; 3</text>
<polygon fill="#ffffff" stroke="none" points="711,-495 711,-513 753,-513 753,-495 711,-495"/>
<polygon fill="none" stroke="black" points="711,-495 711,-513 753,-513 753,-495 711,-495"/>
<text text-anchor="start" x="714" y="-501.2" font-family="Helvetica,sans-Serif" font-size="11.00">0 rows</text>
<polygon fill="#ffffff" stroke="none" points="753,-495 753,-513 766,-513 766,-495 753,-495"/>
<polygon fill="none" stroke="black" points="753,-495 753,-513 766,-513 766,-495 753,-495"/>
<text text-anchor="start" x="756" y="-501.2" font-family="Helvetica,sans-Serif" font-size="11.00"> &#160;</text>
</a>
</g>
</g>
<!-- logs&#45;&gt;addresses -->
<g id="edge10" class="edge"><title>logs:elipses:w&#45;&gt;addresses:elipses:e</title>
<path fill="none" stroke="black" d="M672.417,-522.911C562.117,-537.695 674.021,-728.309 566,-799 521.187,-828.326 375.783,-816.007 325,-799 234.727,-768.769 202.638,-751.838 154,-670 123.581,-618.817 174.039,-405 114.5,-405"/>
<polygon fill="black" stroke="black" points="679.016,-522.499 687.225,-525.593 683.008,-522.25 687,-522 687,-522 687,-522 683.008,-522.25 686.775,-518.407 679.016,-522.499 679.016,-522.499"/>
<ellipse fill="none" stroke="black" cx="675.822" cy="-522.699" rx="3.2" ry="3.2"/>
</g>
<!-- logs&#45;&gt;blocks -->
<g id="edge11" class="edge"><title>logs:elipses:w&#45;&gt;blocks:hash:e</title>
<path fill="none" stroke="black" d="M672.388,-522C505.743,-522 458.694,-522 285,-522"/>
<polygon fill="black" stroke="black" points="679,-522 687,-525.6 683,-522 687,-522 687,-522 687,-522 683,-522 687,-518.4 679,-522 679,-522"/>
<ellipse fill="none" stroke="black" cx="675.8" cy="-522" rx="3.2" ry="3.2"/>
</g>
<!-- logs&#45;&gt;transactions -->
<g id="edge12" class="edge"><title>logs:elipses:w&#45;&gt;transactions:hash:e</title>
<path fill="none" stroke="black" d="M672.599,-521.233C639.557,-517.41 628.279,-499.543 599,-473 576.165,-452.299 590.322,-416 559.5,-416"/>
<polygon fill="black" stroke="black" points="679.011,-521.574 686.808,-525.595 683.006,-521.787 687,-522 687,-522 687,-522 683.006,-521.787 687.192,-518.405 679.011,-521.574 679.011,-521.574"/>
<ellipse fill="none" stroke="black" cx="675.816" cy="-521.404" rx="3.2" ry="3.2"/>
</g>
<!-- pending_block_operations -->
<g id="node8" class="node"><title>pending_block_operations</title>
<g id="a_node8"><a xlink:href="../../tables/pending_block_operations.html" xlink:title="pending_block_operations" target="_top">
<polygon fill="#ffffff" stroke="none" points="347.5,-546 347.5,-604 543.5,-604 543.5,-546 347.5,-546"/>
<polygon fill="#f5f5f5" stroke="none" points="347.5,-582 347.5,-604 543.5,-604 543.5,-582 347.5,-582"/>
<polygon fill="none" stroke="black" points="347.5,-582 347.5,-604 543.5,-604 543.5,-582 347.5,-582"/>
<text text-anchor="start" x="352.5" y="-591.2" font-family="Helvetica,sans-Serif" font-weight="bold" font-size="11.00">pending_block_operations</text>
<text text-anchor="start" x="504.5" y="-590.2" font-family="Helvetica,sans-Serif" font-size="11.00">[table]</text>
<polygon fill="none" stroke="black" points="347.5,-564 347.5,-582 543.5,-582 543.5,-564 347.5,-564"/>
<text text-anchor="start" x="350.5" y="-570.2" font-family="Helvetica,sans-Serif" font-size="11.00">...</text>
<polygon fill="#ffffff" stroke="none" points="347.5,-546 347.5,-564 431.5,-564 431.5,-546 347.5,-546"/>
<polygon fill="none" stroke="black" points="347.5,-546 347.5,-564 431.5,-564 431.5,-546 347.5,-546"/>
<text text-anchor="start" x="350.5" y="-552.2" font-family="Helvetica,sans-Serif" font-size="11.00">&lt; 1</text>
<polygon fill="#ffffff" stroke="none" points="431.5,-546 431.5,-564 499.5,-564 499.5,-546 431.5,-546"/>
<polygon fill="none" stroke="black" points="431.5,-546 431.5,-564 499.5,-564 499.5,-546 431.5,-546"/>
<text text-anchor="start" x="465.5" y="-552.2" font-family="Helvetica,sans-Serif" font-size="11.00">1 row</text>
<polygon fill="#ffffff" stroke="none" points="499.5,-546 499.5,-564 543.5,-564 543.5,-546 499.5,-546"/>
<polygon fill="none" stroke="black" points="499.5,-546 499.5,-564 543.5,-564 543.5,-546 499.5,-546"/>
<text text-anchor="start" x="533.5" y="-552.2" font-family="Helvetica,sans-Serif" font-size="11.00"> &#160;</text>
</a>
</g>
</g>
<!-- pending_block_operations&#45;&gt;blocks -->
<g id="edge13" class="edge"><title>pending_block_operations:elipses:w&#45;&gt;blocks:hash:e</title>
<path fill="none" stroke="black" d="M336.035,-571.185C312.57,-562.1 316.486,-522 285,-522"/>
<polygon fill="black" stroke="black" points="346.395,-568.922 345.028,-576.804 343.452,-576.531 344.819,-568.649 346.395,-568.922"/>
<polyline fill="none" stroke="black" points="346.5,-573 342.559,-572.316 "/>
<ellipse fill="none" stroke="black" cx="339.406" cy="-571.769" rx="3.2" ry="3.2"/>
</g>
<!-- token_transfers -->
<g id="node9" class="node"><title>token_transfers</title>
<g id="a_node9"><a xlink:href="../../tables/token_transfers.html" xlink:title="token_transfers" target="_top">
<polygon fill="#ffffff" stroke="none" points="658,-37 658,-95 796,-95 796,-37 658,-37"/>
<polygon fill="#f5f5f5" stroke="none" points="658,-73 658,-95 796,-95 796,-73 658,-73"/>
<polygon fill="none" stroke="black" points="658,-73 658,-95 796,-95 796,-73 658,-73"/>
<text text-anchor="start" x="663" y="-82.2" font-family="Helvetica,sans-Serif" font-weight="bold" font-size="11.00">token_transfers</text>
<text text-anchor="start" x="757" y="-81.2" font-family="Helvetica,sans-Serif" font-size="11.00">[table]</text>
<polygon fill="none" stroke="black" points="658,-55 658,-73 796,-73 796,-55 658,-55"/>
<text text-anchor="start" x="661" y="-61.2" font-family="Helvetica,sans-Serif" font-size="11.00">...</text>
<polygon fill="#ffffff" stroke="none" points="658,-37 658,-55 711,-55 711,-37 658,-37"/>
<polygon fill="none" stroke="black" points="658,-37 658,-55 711,-55 711,-37 658,-37"/>
<text text-anchor="start" x="661" y="-43.2" font-family="Helvetica,sans-Serif" font-size="11.00">&lt; 5</text>
<polygon fill="#ffffff" stroke="none" points="711,-37 711,-55 768,-55 768,-37 711,-37"/>
<polygon fill="none" stroke="black" points="711,-37 711,-55 768,-55 768,-37 711,-37"/>
<text text-anchor="start" x="729" y="-43.2" font-family="Helvetica,sans-Serif" font-size="11.00">0 rows</text>
<polygon fill="#ffffff" stroke="none" points="768,-37 768,-55 796,-55 796,-37 768,-37"/>
<polygon fill="none" stroke="black" points="768,-37 768,-55 796,-55 796,-37 768,-37"/>
<text text-anchor="start" x="786" y="-43.2" font-family="Helvetica,sans-Serif" font-size="11.00"> &#160;</text>
</a>
</g>
</g>
<!-- token_transfers&#45;&gt;addresses -->
<g id="edge15" class="edge"><title>token_transfers:elipses:w&#45;&gt;addresses:elipses:e</title>
<path fill="none" stroke="black" d="M642.587,-63.9207C420.373,-61.5009 281.842,-5.8311 154,-192 126.749,-231.685 162.64,-405 114.5,-405"/>
<polygon fill="black" stroke="black" points="649,-63.9559 656.98,-67.5999 653,-63.978 657,-64 657,-64 657,-64 653,-63.978 657.02,-60.4001 649,-63.9559 649,-63.9559"/>
<ellipse fill="none" stroke="black" cx="645.8" cy="-63.9383" rx="3.2" ry="3.2"/>
</g>
<!-- token_transfers&#45;&gt;addresses -->
<g id="edge16" class="edge"><title>token_transfers:elipses:w&#45;&gt;addresses:elipses:e</title>
<path fill="none" stroke="black" d="M642.557,-63.5529C419.839,-55.5727 279.291,-1.58194 154,-190 127.828,-229.359 161.767,-399 114.5,-405"/>
<polygon fill="black" stroke="black" points="649.004,-63.7524 656.889,-67.5983 653.002,-63.8762 657,-64 657,-64 657,-64 653.002,-63.8762 657.111,-60.4017 649.004,-63.7524 649.004,-63.7524"/>
<ellipse fill="none" stroke="black" cx="645.805" cy="-63.6534" rx="3.2" ry="3.2"/>
</g>
<!-- token_transfers&#45;&gt;addresses -->
<g id="edge17" class="edge"><title>token_transfers:elipses:w&#45;&gt;addresses:elipses:e</title>
<path fill="none" stroke="black" d="M642.557,-64.3547C419.839,-68.5727 279.291,-14.5819 154,-203 127.828,-242.359 161.767,-412 114.5,-405"/>
<polygon fill="black" stroke="black" points="649.002,-64.1964 657.088,-67.5989 653.001,-64.0982 657,-64 657,-64 657,-64 653.001,-64.0982 656.912,-60.4011 649.002,-64.1964 649.002,-64.1964"/>
<ellipse fill="none" stroke="black" cx="645.803" cy="-64.275" rx="3.2" ry="3.2"/>
</g>
<!-- token_transfers&#45;&gt;blocks -->
<g id="edge14" class="edge"><title>token_transfers:elipses:w&#45;&gt;blocks:hash:e</title>
<path fill="none" stroke="black" d="M642.421,-64.678C612.67,-67.6285 601.657,-79.4922 566,-86 512.908,-95.6899 362.669,-77.3522 325,-116 261.721,-180.922 375.659,-522 285,-522"/>
<polygon fill="black" stroke="black" points="649.009,-64.3717 657.167,-67.5961 653.004,-64.1859 657,-64 657,-64 657,-64 653.004,-64.1859 656.833,-60.4039 649.009,-64.3717 649.009,-64.3717"/>
<ellipse fill="none" stroke="black" cx="645.812" cy="-64.5204" rx="3.2" ry="3.2"/>
</g>
<!-- token_transfers&#45;&gt;transactions -->
<g id="edge18" class="edge"><title>token_transfers:elipses:w&#45;&gt;transactions:hash:e</title>
<path fill="none" stroke="black" d="M645.759,-73.4151C612.995,-129.393 596.12,-416 559.5,-416"/>
<polygon fill="black" stroke="black" points="650.867,-69.1368 659.312,-66.7599 653.933,-66.5684 657,-64 657,-64 657,-64 653.933,-66.5684 654.688,-61.2401 650.867,-69.1368 650.867,-69.1368"/>
<ellipse fill="none" stroke="black" cx="648.414" cy="-71.1915" rx="3.20001" ry="3.20001"/>
</g>
<!-- transaction_forks -->
<g id="node10" class="node"><title>transaction_forks</title>
<g id="a_node10"><a xlink:href="../../tables/transaction_forks.html" xlink:title="transaction_forks" target="_top">
<polygon fill="#ffffff" stroke="none" points="607,-309 607,-463 847,-463 847,-309 607,-309"/>
<polygon fill="#f5f5f5" stroke="none" points="609,-439 609,-461 845,-461 845,-439 609,-439"/>
<polygon fill="none" stroke="black" points="609,-439 609,-461 845,-461 845,-439 609,-439"/>
<text text-anchor="start" x="614" y="-448.2" font-family="Helvetica,sans-Serif" font-weight="bold" font-size="11.00">transaction_forks</text>
<text text-anchor="start" x="806" y="-447.2" font-family="Helvetica,sans-Serif" font-size="11.00">[table]</text>
<polygon fill="none" stroke="black" points="609,-417 609,-439 735,-439 735,-417 609,-417"/>
<image xlink:href="../../images/foreignKeys.png" width="11px" height="12px" preserveAspectRatio="xMinYMin meet" x="614" y="-434"/>
<text text-anchor="start" x="629" y="-425.2" font-family="Helvetica,sans-Serif" font-size="11.00">hash</text>
<polygon fill="none" stroke="black" points="735,-417 735,-439 845,-439 845,-417 735,-417"/>
<text text-anchor="start" x="738" y="-425.2" font-family="Helvetica,sans-Serif" font-size="11.00">bytea[2147483647]</text>
<polygon fill="#ffffff" stroke="none" points="609,-395 609,-417 735,-417 735,-395 609,-395"/>
<polygon fill="none" stroke="black" points="609,-395 609,-417 735,-417 735,-395 609,-395"/>
<text text-anchor="start" x="629" y="-403.2" font-family="Helvetica,sans-Serif" font-size="11.00">index</text>
<polygon fill="none" stroke="black" points="735,-395 735,-417 845,-417 845,-395 735,-395"/>
<text text-anchor="start" x="738" y="-403.2" font-family="Helvetica,sans-Serif" font-size="11.00">int4[10]</text>
<polygon fill="#ffffff" stroke="none" points="609,-373 609,-395 735,-395 735,-373 609,-373"/>
<polygon fill="none" stroke="black" points="609,-373 609,-395 735,-395 735,-373 609,-373"/>
<image xlink:href="../../images/foreignKeys.png" width="11px" height="12px" preserveAspectRatio="xMinYMin meet" x="614" y="-390"/>
<text text-anchor="start" x="629" y="-381.2" font-family="Helvetica,sans-Serif" font-size="11.00">uncle_hash</text>
<polygon fill="none" stroke="black" points="735,-373 735,-395 845,-395 845,-373 735,-373"/>
<text text-anchor="start" x="738" y="-381.2" font-family="Helvetica,sans-Serif" font-size="11.00">bytea[2147483647]</text>
<polygon fill="none" stroke="black" points="609,-351 609,-373 735,-373 735,-351 609,-351"/>
<text text-anchor="start" x="629" y="-359.2" font-family="Helvetica,sans-Serif" font-size="11.00">inserted_at</text>
<polygon fill="none" stroke="black" points="735,-351 735,-373 845,-373 845,-351 735,-351"/>
<text text-anchor="start" x="738" y="-359.2" font-family="Helvetica,sans-Serif" font-size="11.00">timestamp[29,6]</text>
<polygon fill="none" stroke="black" points="609,-329 609,-351 735,-351 735,-329 609,-329"/>
<text text-anchor="start" x="629" y="-337.2" font-family="Helvetica,sans-Serif" font-size="11.00">updated_at</text>
<polygon fill="none" stroke="black" points="735,-329 735,-351 845,-351 845,-329 735,-329"/>
<text text-anchor="start" x="738" y="-337.2" font-family="Helvetica,sans-Serif" font-size="11.00">timestamp[29,6]</text>
<polygon fill="#ffffff" stroke="none" points="609,-311 609,-329 662,-329 662,-311 609,-311"/>
<polygon fill="none" stroke="black" points="609,-311 609,-329 662,-329 662,-311 609,-311"/>
<text text-anchor="start" x="612" y="-317.2" font-family="Helvetica,sans-Serif" font-size="11.00">&lt; 2</text>
<polygon fill="#ffffff" stroke="none" points="662,-311 662,-329 735,-329 735,-311 662,-311"/>
<polygon fill="none" stroke="black" points="662,-311 662,-329 735,-329 735,-311 662,-311"/>
<text text-anchor="start" x="696" y="-317.2" font-family="Helvetica,sans-Serif" font-size="11.00">0 rows</text>
<polygon fill="#ffffff" stroke="none" points="735,-311 735,-329 845,-329 845,-311 735,-311"/>
<polygon fill="none" stroke="black" points="735,-311 735,-329 845,-329 845,-311 735,-311"/>
<text text-anchor="start" x="825" y="-317.2" font-family="Helvetica,sans-Serif" font-size="11.00">0 &gt;</text>
<polygon fill="none" stroke="black" stroke-width="2" points="608,-310 608,-462 846,-462 846,-310 608,-310"/>
</a>
</g>
</g>
<!-- transaction_forks&#45;&gt;blocks -->
<g id="edge20" class="edge"><title>transaction_forks:uncle_hash:w&#45;&gt;blocks:hash:e</title>
<path fill="none" stroke="black" d="M593.92,-387.18C570.598,-400.981 598.49,-456.119 566,-481 553.474,-490.592 300.776,-522 285,-522"/>
<polygon fill="black" stroke="black" points="600.197,-385.762 608.793,-387.512 604.098,-384.881 608,-384 608,-384 608,-384 604.098,-384.881 607.207,-380.488 600.197,-385.762 600.197,-385.762"/>
<ellipse fill="none" stroke="black" cx="597.075" cy="-386.467" rx="3.2" ry="3.2"/>
</g>
<!-- transaction_forks&#45;&gt;transactions -->
<g id="edge19" class="edge"><title>transaction_forks:hash:w&#45;&gt;transactions:hash:e</title>
<path fill="none" stroke="black" d="M593.461,-425.91C582.344,-422.472 575.807,-416 559.5,-416"/>
<polygon fill="black" stroke="black" points="600.081,-426.862 607.488,-431.563 604.041,-427.431 608,-428 608,-428 608,-428 604.041,-427.431 608.512,-424.437 600.081,-426.862 600.081,-426.862"/>
<ellipse fill="none" stroke="black" cx="596.914" cy="-426.406" rx="3.2" ry="3.2"/>
</g>
</g>
</svg>
