<?xml version="1.0" encoding="UTF-8" standalone="no"?>
<!DOCTYPE svg PUBLIC "-//W3C//DTD SVG 1.1//EN"
 "http://www.w3.org/Graphics/SVG/1.1/DTD/svg11.dtd">
<!-- Generated by graphviz version 2.43.0 (0)
 -->
<!-- Title: oneDegreeRelationshipsDiagram Pages: 1 -->
<svg width="809pt" height="528pt"
 viewBox="0.00 0.00 809.00 528.00" xmlns="http://www.w3.org/2000/svg" xmlns:xlink="http://www.w3.org/1999/xlink">
<g id="graph0" class="graph" transform="scale(1 1) rotate(0) translate(4 524)">
<title>oneDegreeRelationshipsDiagram</title>
<polygon fill="#ffffff" stroke="transparent" points="-4,4 -4,-524 805,-524 805,4 -4,4"/>
<text text-anchor="middle" x="79.5" y="-7.2" font-family="Helvetica,sans-Serif" font-size="11.00">Generated by SchemaSpy</text>
<!-- transaction_forks -->
<g id="node1" class="node">
<title>transaction_forks</title>
<g id="a_node1"><a xlink:href="../../tables/transaction_forks.html" xlink:title="transaction_forks" target="_top">
<polygon fill="#ffffff" stroke="transparent" points="526,-185 526,-339 793,-339 793,-185 526,-185"/>
<polygon fill="#f5f5f5" stroke="transparent" points="528.5,-315 528.5,-337 791.5,-337 791.5,-315 528.5,-315"/>
<polygon fill="none" stroke="black" points="528.5,-315 528.5,-337 791.5,-337 791.5,-315 528.5,-315"/>
<text text-anchor="start" x="533.5" y="-324.2" font-family="Helvetica,sans-Serif" font-weight="bold" font-size="11.00">transaction_forks</text>
<text text-anchor="start" x="749.5" y="-323.2" font-family="Helvetica,sans-Serif" font-size="11.00">[table]</text>
<polygon fill="none" stroke="black" points="528.5,-293 528.5,-315 676.5,-315 676.5,-293 528.5,-293"/>
<image xlink:href="../../images/foreignKeys.png" width="11px" height="12px" preserveAspectRatio="xMinYMin meet" x="533.5" y="-310"/>
<text text-anchor="start" x="548.5" y="-301.2" font-family="Helvetica,sans-Serif" font-size="11.00">hash</text>
<polygon fill="none" stroke="black" points="676.5,-293 676.5,-315 791.5,-315 791.5,-293 676.5,-293"/>
<text text-anchor="start" x="679.5" y="-301.2" font-family="Helvetica,sans-Serif" font-size="11.00">bytea[2147483647]</text>
<polygon fill="none" stroke="black" points="528.5,-271 528.5,-293 676.5,-293 676.5,-271 528.5,-271"/>
<image xlink:href="../../images/primaryKeys.png" width="11px" height="12px" preserveAspectRatio="xMinYMin meet" x="533.5" y="-288"/>
<text text-anchor="start" x="548.5" y="-279.2" font-family="Helvetica,sans-Serif" font-size="11.00">index</text>
<polygon fill="none" stroke="black" points="676.5,-271 676.5,-293 791.5,-293 791.5,-271 676.5,-271"/>
<text text-anchor="start" x="679.5" y="-279.2" font-family="Helvetica,sans-Serif" font-size="11.00">int4[10]</text>
<polygon fill="none" stroke="black" points="528.5,-249 528.5,-271 676.5,-271 676.5,-249 528.5,-249"/>
<image xlink:href="../../images/primaryKeys.png" width="11px" height="12px" preserveAspectRatio="xMinYMin meet" x="533.5" y="-266"/>
<text text-anchor="start" x="548.5" y="-257.2" font-family="Helvetica,sans-Serif" font-size="11.00">uncle_hash</text>
<polygon fill="none" stroke="black" points="676.5,-249 676.5,-271 791.5,-271 791.5,-249 676.5,-249"/>
<text text-anchor="start" x="679.5" y="-257.2" font-family="Helvetica,sans-Serif" font-size="11.00">bytea[2147483647]</text>
<polygon fill="none" stroke="black" points="528.5,-227 528.5,-249 676.5,-249 676.5,-227 528.5,-227"/>
<text text-anchor="start" x="548.5" y="-235.2" font-family="Helvetica,sans-Serif" font-size="11.00">inserted_at</text>
<polygon fill="none" stroke="black" points="676.5,-227 676.5,-249 791.5,-249 791.5,-227 676.5,-227"/>
<text text-anchor="start" x="679.5" y="-235.2" font-family="Helvetica,sans-Serif" font-size="11.00">timestamp[29,6]</text>
<polygon fill="none" stroke="black" points="528.5,-205 528.5,-227 676.5,-227 676.5,-205 528.5,-205"/>
<text text-anchor="start" x="548.5" y="-213.2" font-family="Helvetica,sans-Serif" font-size="11.00">updated_at</text>
<polygon fill="none" stroke="black" points="676.5,-205 676.5,-227 791.5,-227 791.5,-205 676.5,-205"/>
<text text-anchor="start" x="679.5" y="-213.2" font-family="Helvetica,sans-Serif" font-size="11.00">timestamp[29,6]</text>
<polygon fill="#ffffff" stroke="transparent" points="528.5,-187 528.5,-205 791.5,-205 791.5,-187 528.5,-187"/>
<polygon fill="none" stroke="black" points="528.5,-187 528.5,-205 791.5,-205 791.5,-187 528.5,-187"/>
<polygon fill="#ffffff" stroke="transparent" points="529.5,-188 529.5,-204 620.5,-204 620.5,-188 529.5,-188"/>
<text text-anchor="start" x="531.5" y="-193.2" font-family="Helvetica,sans-Serif" font-size="11.00">&lt; 2</text>
<polygon fill="#ffffff" stroke="transparent" points="620.5,-188 620.5,-204 699.5,-204 699.5,-188 620.5,-188"/>
<text text-anchor="start" x="656" y="-193.2" font-family="Helvetica,sans-Serif" font-size="11.00"> &#160;</text>
<polygon fill="#ffffff" stroke="transparent" points="699.5,-188 699.5,-204 790.5,-204 790.5,-188 699.5,-188"/>
<text text-anchor="start" x="768.5" y="-193.2" font-family="Helvetica,sans-Serif" font-size="11.00">0 &gt;</text>
<polygon fill="black" stroke="black" points="620.5,-188 620.5,-204 620.5,-204 620.5,-188 620.5,-188"/>
<polygon fill="black" stroke="black" points="699.5,-188 699.5,-204 699.5,-204 699.5,-188 699.5,-188"/>
<polygon fill="none" stroke="black" stroke-width="2" points="527,-186 527,-338 792,-338 792,-186 527,-186"/>
</a>
</g>
</g>
<!-- transactions -->
<g id="node2" class="node">
<title>transactions</title>
<g id="a_node2"><a xlink:href="../../tables/transactions.html" xlink:title="transactions" target="_top">
<polygon fill="#ffffff" stroke="transparent" points="205,-128 205,-516 477,-516 477,-128 205,-128"/>
<polygon fill="#f5f5f5" stroke="transparent" points="205,-494 205,-516 477,-516 477,-494 205,-494"/>
<polygon fill="none" stroke="black" points="205,-494 205,-516 477,-516 477,-494 205,-494"/>
<text text-anchor="start" x="210" y="-503.2" font-family="Helvetica,sans-Serif" font-weight="bold" font-size="11.00">transactions</text>
<text text-anchor="start" x="435" y="-502.2" font-family="Helvetica,sans-Serif" font-size="11.00">[table]</text>
<polygon fill="#ffffff" stroke="transparent" points="205,-472 205,-494 477,-494 477,-472 205,-472"/>
<polygon fill="none" stroke="black" points="205,-472 205,-494 477,-494 477,-472 205,-472"/>
<text text-anchor="start" x="225" y="-480.2" font-family="Helvetica,sans-Serif" font-size="11.00">error</text>
<polygon fill="none" stroke="black" points="205,-450 205,-472 477,-472 477,-450 205,-450"/>
<image xlink:href="../../images/primaryKeys.png" width="11px" height="12px" preserveAspectRatio="xMinYMin meet" x="210" y="-467"/>
<text text-anchor="start" x="225" y="-458.2" font-family="Helvetica,sans-Serif" font-size="11.00">hash</text>
<polygon fill="#ffffff" stroke="transparent" points="205,-428 205,-450 477,-450 477,-428 205,-428"/>
<polygon fill="none" stroke="black" points="205,-428 205,-450 477,-450 477,-428 205,-428"/>
<image xlink:href="../../images/foreignKeys.png" width="11px" height="12px" preserveAspectRatio="xMinYMin meet" x="210" y="-445"/>
<text text-anchor="start" x="225" y="-436.2" font-family="Helvetica,sans-Serif" font-size="11.00">index</text>
<polygon fill="#ffffff" stroke="transparent" points="205,-406 205,-428 477,-428 477,-406 205,-406"/>
<polygon fill="none" stroke="black" points="205,-406 205,-428 477,-428 477,-406 205,-406"/>
<text text-anchor="start" x="225" y="-414.2" font-family="Helvetica,sans-Serif" font-size="11.00">nonce</text>
<polygon fill="#ffffff" stroke="transparent" points="205,-384 205,-406 477,-406 477,-384 205,-384"/>
<polygon fill="none" stroke="black" points="205,-384 205,-406 477,-406 477,-384 205,-384"/>
<text text-anchor="start" x="225" y="-392.2" font-family="Helvetica,sans-Serif" font-size="11.00">status</text>
<polygon fill="#ffffff" stroke="transparent" points="205,-362 205,-384 477,-384 477,-362 205,-362"/>
<polygon fill="none" stroke="black" points="205,-362 205,-384 477,-384 477,-362 205,-362"/>
<text text-anchor="start" x="225" y="-370.2" font-family="Helvetica,sans-Serif" font-size="11.00">inserted_at</text>
<polygon fill="#ffffff" stroke="transparent" points="205,-340 205,-362 477,-362 477,-340 205,-340"/>
<polygon fill="none" stroke="black" points="205,-340 205,-362 477,-362 477,-340 205,-340"/>
<text text-anchor="start" x="225" y="-348.2" font-family="Helvetica,sans-Serif" font-size="11.00">updated_at</text>
<polygon fill="#ffffff" stroke="transparent" points="205,-318 205,-340 477,-340 477,-318 205,-318"/>
<polygon fill="none" stroke="black" points="205,-318 205,-340 477,-340 477,-318 205,-318"/>
<image xlink:href="../../images/foreignKeys.png" width="11px" height="12px" preserveAspectRatio="xMinYMin meet" x="210" y="-335"/>
<text text-anchor="start" x="225" y="-326.2" font-family="Helvetica,sans-Serif" font-size="11.00">block_hash</text>
<polygon fill="#ffffff" stroke="transparent" points="205,-296 205,-318 477,-318 477,-296 205,-296"/>
<polygon fill="none" stroke="black" points="205,-296 205,-318 477,-318 477,-296 205,-296"/>
<text text-anchor="start" x="225" y="-304.2" font-family="Helvetica,sans-Serif" font-size="11.00">block_number</text>
<polygon fill="#ffffff" stroke="transparent" points="205,-274 205,-296 477,-296 477,-274 205,-274"/>
<polygon fill="none" stroke="black" points="205,-274 205,-296 477,-296 477,-274 205,-274"/>
<text text-anchor="start" x="225" y="-282.2" font-family="Helvetica,sans-Serif" font-size="11.00">from_address_hash</text>
<polygon fill="#ffffff" stroke="transparent" points="205,-252 205,-274 477,-274 477,-252 205,-252"/>
<polygon fill="none" stroke="black" points="205,-252 205,-274 477,-274 477,-252 205,-252"/>
<text text-anchor="start" x="225" y="-260.2" font-family="Helvetica,sans-Serif" font-size="11.00">to_address_hash</text>
<polygon fill="#ffffff" stroke="transparent" points="205,-230 205,-252 477,-252 477,-230 205,-230"/>
<polygon fill="none" stroke="black" points="205,-230 205,-252 477,-252 477,-230 205,-230"/>
<text text-anchor="start" x="225" y="-238.2" font-family="Helvetica,sans-Serif" font-size="11.00">created_contract_address_hash</text>
<polygon fill="#ffffff" stroke="transparent" points="205,-208 205,-230 477,-230 477,-208 205,-208"/>
<polygon fill="none" stroke="black" points="205,-208 205,-230 477,-230 477,-208 205,-208"/>
<text text-anchor="start" x="225" y="-216.2" font-family="Helvetica,sans-Serif" font-size="11.00">created_contract_code_indexed_at</text>
<polygon fill="#ffffff" stroke="transparent" points="205,-186 205,-208 477,-208 477,-186 205,-186"/>
<polygon fill="none" stroke="black" points="205,-186 205,-208 477,-208 477,-186 205,-186"/>
<text text-anchor="start" x="225" y="-194.2" font-family="Helvetica,sans-Serif" font-size="11.00">block_timestamp</text>
<polygon fill="#ffffff" stroke="transparent" points="205,-164 205,-186 477,-186 477,-164 205,-164"/>
<polygon fill="none" stroke="black" points="205,-164 205,-186 477,-186 477,-164 205,-164"/>
<text text-anchor="start" x="225" y="-172.2" font-family="Helvetica,sans-Serif" font-size="11.00">block_consensus</text>
<polygon fill="none" stroke="black" points="205,-146 205,-164 477,-164 477,-146 205,-146"/>
<text text-anchor="start" x="208" y="-152.2" font-family="Helvetica,sans-Serif" font-size="11.00">...</text>
<polygon fill="#ffffff" stroke="transparent" points="205,-128 205,-146 477,-146 477,-128 205,-128"/>
<polygon fill="none" stroke="black" points="205,-128 205,-146 477,-146 477,-128 205,-128"/>
<polygon fill="#ffffff" stroke="transparent" points="206,-129 206,-145 300,-145 300,-129 206,-129"/>
<text text-anchor="start" x="208" y="-134.2" font-family="Helvetica,sans-Serif" font-size="11.00">&lt; 1</text>
<polygon fill="#ffffff" stroke="transparent" points="300,-129 300,-145 382,-145 382,-129 300,-129"/>
<text text-anchor="start" x="337" y="-134.2" font-family="Helvetica,sans-Serif" font-size="11.00"> &#160;</text>
<polygon fill="#ffffff" stroke="transparent" points="382,-129 382,-145 476,-145 476,-129 382,-129"/>
<text text-anchor="start" x="454" y="-134.2" font-family="Helvetica,sans-Serif" font-size="11.00">7 &gt;</text>
<polygon fill="black" stroke="black" points="300,-129 300,-145 300,-145 300,-129 300,-129"/>
<polygon fill="black" stroke="black" points="382,-129 382,-145 382,-145 382,-129 382,-129"/>
</a>
</g>
</g>
<!-- transaction_forks&#45;&gt;transactions -->
<g id="edge1" class="edge">
<title>transaction_forks:w&#45;&gt;transactions:e</title>
<path fill="none" stroke="black" d="M513.3,-306.73C468.43,-327.57 545.45,-461 478,-461"/>
<polygon fill="black" stroke="black" points="519.64,-305.51 528.18,-307.54 523.57,-304.75 527.5,-304 527.5,-304 527.5,-304 523.57,-304.75 526.82,-300.46 519.64,-305.51 519.64,-305.51"/>
<ellipse fill="none" stroke="black" cx="516.5" cy="-306.11" rx="3.2" ry="3.2"/>
</g>
<!-- blocks -->
<g id="node3" class="node">
<title>blocks</title>
<g id="a_node3"><a xlink:href="../../tables/blocks.html" xlink:title="blocks" target="_top">
<polygon fill="#ffffff" stroke="transparent" points="8,-37 8,-271 156,-271 156,-37 8,-37"/>
<polygon fill="#f5f5f5" stroke="transparent" points="8,-249 8,-271 156,-271 156,-249 8,-249"/>
<polygon fill="none" stroke="black" points="8,-249 8,-271 156,-271 156,-249 8,-249"/>
<text text-anchor="start" x="13" y="-258.2" font-family="Helvetica,sans-Serif" font-weight="bold" font-size="11.00">blocks</text>
<text text-anchor="start" x="114" y="-257.2" font-family="Helvetica,sans-Serif" font-size="11.00">[table]</text>
<polygon fill="#ffffff" stroke="transparent" points="8,-227 8,-249 156,-249 156,-227 8,-227"/>
<polygon fill="none" stroke="black" points="8,-227 8,-249 156,-249 156,-227 8,-227"/>
<text text-anchor="start" x="28" y="-235.2" font-family="Helvetica,sans-Serif" font-size="11.00">consensus</text>
<polygon fill="none" stroke="black" points="8,-205 8,-227 156,-227 156,-205 8,-205"/>
<image xlink:href="../../images/primaryKeys.png" width="11px" height="12px" preserveAspectRatio="xMinYMin meet" x="13" y="-222"/>
<text text-anchor="start" x="28" y="-213.2" font-family="Helvetica,sans-Serif" font-size="11.00">hash</text>
<polygon fill="#ffffff" stroke="transparent" points="8,-183 8,-205 156,-205 156,-183 8,-183"/>
<polygon fill="none" stroke="black" points="8,-183 8,-205 156,-205 156,-183 8,-183"/>
<text text-anchor="start" x="28" y="-191.2" font-family="Helvetica,sans-Serif" font-size="11.00">miner_hash</text>
<polygon fill="#ffffff" stroke="transparent" points="8,-161 8,-183 156,-183 156,-161 8,-161"/>
<polygon fill="none" stroke="black" points="8,-161 8,-183 156,-183 156,-161 8,-161"/>
<image xlink:href="../../images/foreignKeys.png" width="11px" height="12px" preserveAspectRatio="xMinYMin meet" x="13" y="-178"/>
<text text-anchor="start" x="28" y="-169.2" font-family="Helvetica,sans-Serif" font-size="11.00">number</text>
<polygon fill="#ffffff" stroke="transparent" points="8,-139 8,-161 156,-161 156,-139 8,-139"/>
<polygon fill="none" stroke="black" points="8,-139 8,-161 156,-161 156,-139 8,-139"/>
<text text-anchor="start" x="28" y="-147.2" font-family="Helvetica,sans-Serif" font-size="11.00">parent_hash</text>
<polygon fill="#ffffff" stroke="transparent" points="8,-117 8,-139 156,-139 156,-117 8,-117"/>
<polygon fill="none" stroke="black" points="8,-117 8,-139 156,-139 156,-117 8,-117"/>
<text text-anchor="start" x="28" y="-125.2" font-family="Helvetica,sans-Serif" font-size="11.00">timestamp</text>
<polygon fill="#ffffff" stroke="transparent" points="8,-95 8,-117 156,-117 156,-95 8,-95"/>
<polygon fill="none" stroke="black" points="8,-95 8,-117 156,-117 156,-95 8,-95"/>
<text text-anchor="start" x="28" y="-103.2" font-family="Helvetica,sans-Serif" font-size="11.00">inserted_at</text>
<polygon fill="#ffffff" stroke="transparent" points="8,-73 8,-95 156,-95 156,-73 8,-73"/>
<polygon fill="none" stroke="black" points="8,-73 8,-95 156,-95 156,-73 8,-73"/>
<text text-anchor="start" x="28" y="-81.2" font-family="Helvetica,sans-Serif" font-size="11.00">is_empty</text>
<polygon fill="none" stroke="black" points="8,-55 8,-73 156,-73 156,-55 8,-55"/>
<text text-anchor="start" x="11" y="-61.2" font-family="Helvetica,sans-Serif" font-size="11.00">...</text>
<polygon fill="#ffffff" stroke="transparent" points="8,-37 8,-55 156,-55 156,-37 8,-37"/>
<polygon fill="none" stroke="black" points="8,-37 8,-55 156,-55 156,-37 8,-37"/>
<polygon fill="#ffffff" stroke="transparent" points="9,-38 9,-54 54,-54 54,-38 9,-38"/>
<text text-anchor="start" x="11" y="-43.2" font-family="Helvetica,sans-Serif" font-size="11.00"> &#160;</text>
<polygon fill="#ffffff" stroke="transparent" points="54,-38 54,-54 99,-54 99,-38 54,-38"/>
<text text-anchor="start" x="72.5" y="-43.2" font-family="Helvetica,sans-Serif" font-size="11.00"> &#160;</text>
<polygon fill="#ffffff" stroke="transparent" points="99,-38 99,-54 155,-54 155,-38 99,-38"/>
<text text-anchor="start" x="133" y="-43.2" font-family="Helvetica,sans-Serif" font-size="11.00">9 &gt;</text>
<polygon fill="black" stroke="black" points="54,-38 54,-54 54,-54 54,-38 54,-38"/>
<polygon fill="black" stroke="black" points="99,-38 99,-54 99,-54 99,-38 99,-38"/>
</a>
</g>
</g>
<!-- transaction_forks&#45;&gt;blocks -->
<g id="edge2" class="edge">
<title>transaction_forks:w&#45;&gt;blocks:e</title>
<path fill="none" stroke="black" d="M513.24,-257.73C474.02,-242.44 533.2,-153.88 485,-118 382.33,-41.56 303.24,-46.61 197,-118 157.95,-144.24 204.04,-216 157,-216"/>
<polygon fill="black" stroke="black" points="519.6,-258.74 526.93,-263.56 523.55,-259.37 527.5,-260 527.5,-260 527.5,-260 523.55,-259.37 528.07,-256.44 519.6,-258.74 519.6,-258.74"/>
<ellipse fill="none" stroke="black" cx="516.44" cy="-258.24" rx="3.2" ry="3.2"/>
</g>
<!-- transactions&#45;&gt;blocks -->
<g id="edge3" class="edge">
<title>transactions:w&#45;&gt;blocks:e</title>
<path fill="none" stroke="black" d="M190.02,-325.24C161.73,-305.63 205.44,-216 157,-216"/>
<polygon fill="black" stroke="black" points="196.27,-326.92 203.07,-332.48 200.14,-327.96 204,-329 204,-329 204,-329 200.14,-327.96 204.93,-325.52 196.27,-326.92 196.27,-326.92"/>
<ellipse fill="none" stroke="black" cx="193.18" cy="-326.09" rx="3.2" ry="3.2"/>
</g>
</g>
</svg>
