<?xml version="1.0" encoding="UTF-8" standalone="no"?>
<!DOCTYPE svg PUBLIC "-//W3C//DTD SVG 1.1//EN"
 "http://www.w3.org/Graphics/SVG/1.1/DTD/svg11.dtd">
<!-- Generated by graphviz version 9.0.0 (20230911.1827)
 -->
<!-- Title: twoDegreesRelationshipsDiagramImplied Pages: 1 -->
<svg width="883pt" height="636pt"
 viewBox="0.00 0.00 883.00 636.00" xmlns="http://www.w3.org/2000/svg" xmlns:xlink="http://www.w3.org/1999/xlink">
<g id="graph0" class="graph" transform="scale(1 1) rotate(0) translate(4 632)">
<title>twoDegreesRelationshipsDiagramImplied</title>
<polygon fill="#ffffff" stroke="none" points="-4,4 -4,-632 879,-632 879,4 -4,4"/>
<text text-anchor="middle" x="71.38" y="-5.55" font-family="Helvetica,sans-Serif" font-size="11.00">Generated by SchemaSpy</text>
<!-- block_rewards -->
<g id="node1" class="node">
<title>block_rewards</title>
<g id="a_node1"><a xlink:href="../../tables/block_rewards.html" xlink:title="block_rewards" target="_top">
<polygon fill="#ffffff" stroke="none" points="168,-566 168,-624 291,-624 291,-566 168,-566"/>
<polygon fill="#f5f5f5" stroke="none" points="168,-602 168,-624 291,-624 291,-602 168,-602"/>
<polygon fill="none" stroke="black" points="168,-602 168,-624 291,-624 291,-602 168,-602"/>
<text text-anchor="start" x="173" y="-609.55" font-family="Helvetica,sans-Serif" font-weight="bold" font-size="11.00">block_rewards</text>
<text text-anchor="start" x="257" y="-608.55" font-family="Helvetica,sans-Serif" font-size="11.00">[table]</text>
<polygon fill="none" stroke="black" points="168,-584 168,-602 291,-602 291,-584 168,-584"/>
<text text-anchor="start" x="171" y="-588.55" font-family="Helvetica,sans-Serif" font-size="11.00">...</text>
<polygon fill="#ffffff" stroke="none" points="168,-566 168,-584 228,-584 228,-566 168,-566"/>
<polygon fill="none" stroke="black" points="168,-566 168,-584 228,-584 228,-566 168,-566"/>
<text text-anchor="start" x="171" y="-570.55" font-family="Helvetica,sans-Serif" font-size="11.00">&lt; 1</text>
<polygon fill="#ffffff" stroke="none" points="228,-566 228,-584 259,-584 259,-566 228,-566"/>
<polygon fill="none" stroke="black" points="228,-566 228,-584 259,-584 259,-566 228,-566"/>
<text text-anchor="start" x="250" y="-570.55" font-family="Helvetica,sans-Serif" font-size="11.00"> &#160;</text>
<polygon fill="#ffffff" stroke="none" points="259,-566 259,-584 291,-584 291,-566 259,-566"/>
<polygon fill="none" stroke="black" points="259,-566 259,-584 291,-584 291,-566 259,-566"/>
<text text-anchor="start" x="282" y="-570.55" font-family="Helvetica,sans-Serif" font-size="11.00"> &#160;</text>
</a>
</g>
</g>
<!-- blocks -->
<g id="node2" class="node">
<title>blocks</title>
<g id="a_node2"><a xlink:href="../../tables/blocks.html" xlink:title="blocks" target="_top">
<polygon fill="#ffffff" stroke="none" points="8,-342 8,-400 85,-400 85,-342 8,-342"/>
<polygon fill="#f5f5f5" stroke="none" points="8,-378 8,-400 85,-400 85,-378 8,-378"/>
<polygon fill="none" stroke="black" points="8,-378 8,-400 85,-400 85,-378 8,-378"/>
<text text-anchor="start" x="12.75" y="-385.55" font-family="Helvetica,sans-Serif" font-weight="bold" font-size="11.00">blocks</text>
<text text-anchor="start" x="51" y="-384.55" font-family="Helvetica,sans-Serif" font-size="11.00">[table]</text>
<polygon fill="none" stroke="black" points="8,-360 8,-378 85,-378 85,-360 8,-360"/>
<text text-anchor="start" x="11" y="-364.55" font-family="Helvetica,sans-Serif" font-size="11.00">...</text>
<polygon fill="#ffffff" stroke="none" points="8,-342 8,-360 36,-360 36,-342 8,-342"/>
<polygon fill="none" stroke="black" points="8,-342 8,-360 36,-360 36,-342 8,-342"/>
<text text-anchor="start" x="11" y="-346.55" font-family="Helvetica,sans-Serif" font-size="11.00"> &#160;</text>
<polygon fill="#ffffff" stroke="none" points="36,-342 36,-360 56,-360 56,-342 36,-342"/>
<polygon fill="none" stroke="black" points="36,-342 36,-360 56,-360 56,-342 36,-342"/>
<text text-anchor="start" x="47" y="-346.55" font-family="Helvetica,sans-Serif" font-size="11.00"> &#160;</text>
<polygon fill="#ffffff" stroke="none" points="56,-342 56,-360 85,-360 85,-342 56,-342"/>
<polygon fill="none" stroke="black" points="56,-342 56,-360 85,-360 85,-342 56,-342"/>
<text text-anchor="start" x="66.25" y="-346.55" font-family="Helvetica,sans-Serif" font-size="11.00">9 &gt;</text>
</a>
</g>
</g>
<!-- block_rewards&#45;&gt;blocks -->
<g id="edge1" class="edge">
<title>block_rewards:w&#45;&gt;blocks:e</title>
<path fill="none" stroke="black" d="M150.84,-591.46C78.57,-576.84 56.62,-461.53 50.13,-403.76"/>
<polygon fill="black" stroke="black" points="158.21,-592.19 165.82,-596.55 162.52,-592.61 165.83,-592.93 165.83,-592.93 165.83,-592.93 162.52,-592.61 166.52,-589.38 158.21,-592.19"/>
<ellipse fill="none" stroke="black" cx="153.31" cy="-591.71" rx="3.2" ry="3.2"/>
</g>
<!-- block_second_degree_relations -->
<g id="node3" class="node">
<title>block_second_degree_relations</title>
<g id="a_node3"><a xlink:href="../../tables/block_second_degree_relations.html" xlink:title="block_second_degree_relations" target="_top">
<polygon fill="#ffffff" stroke="none" points="374,-460 374,-518 595,-518 595,-460 374,-460"/>
<polygon fill="#f5f5f5" stroke="none" points="374,-496 374,-518 595,-518 595,-496 374,-496"/>
<polygon fill="none" stroke="black" points="374,-496 374,-518 595,-518 595,-496 374,-496"/>
<text text-anchor="start" x="379" y="-503.55" font-family="Helvetica,sans-Serif" font-weight="bold" font-size="11.00">block_second_degree_relations</text>
<text text-anchor="start" x="561" y="-502.55" font-family="Helvetica,sans-Serif" font-size="11.00">[table]</text>
<polygon fill="none" stroke="black" points="374,-478 374,-496 595,-496 595,-478 374,-478"/>
<text text-anchor="start" x="377" y="-482.55" font-family="Helvetica,sans-Serif" font-size="11.00">...</text>
<polygon fill="#ffffff" stroke="none" points="374,-460 374,-478 483,-478 483,-460 374,-460"/>
<polygon fill="none" stroke="black" points="374,-460 374,-478 483,-478 483,-460 374,-460"/>
<text text-anchor="start" x="377" y="-464.55" font-family="Helvetica,sans-Serif" font-size="11.00">&lt; 2</text>
<polygon fill="#ffffff" stroke="none" points="483,-460 483,-478 539,-478 539,-460 483,-460"/>
<polygon fill="none" stroke="black" points="483,-460 483,-478 539,-478 539,-460 483,-460"/>
<text text-anchor="start" x="530" y="-464.55" font-family="Helvetica,sans-Serif" font-size="11.00"> &#160;</text>
<polygon fill="#ffffff" stroke="none" points="539,-460 539,-478 595,-478 595,-460 539,-460"/>
<polygon fill="none" stroke="black" points="539,-460 539,-478 595,-478 595,-460 539,-460"/>
<text text-anchor="start" x="586" y="-464.55" font-family="Helvetica,sans-Serif" font-size="11.00"> &#160;</text>
</a>
</g>
</g>
<!-- block_second_degree_relations&#45;&gt;blocks -->
<g id="edge3" class="edge">
<title>block_second_degree_relations:w&#45;&gt;blocks:e</title>
<path fill="none" stroke="black" d="M356.91,-487.24C258.73,-490.33 218.34,-520.71 126,-472 97.71,-457.08 76.41,-426.99 63.19,-403.51"/>
<polygon fill="black" stroke="black" points="364.17,-487.13 372.22,-490.6 368.5,-487.06 371.83,-487.01 371.83,-487.01 371.83,-487.01 368.5,-487.06 372.11,-483.41 364.17,-487.13"/>
<ellipse fill="none" stroke="black" cx="359.25" cy="-487.21" rx="3.2" ry="3.2"/>
</g>
<!-- withdrawals -->
<g id="node4" class="node">
<title>withdrawals</title>
<g id="a_node4"><a xlink:href="../../tables/withdrawals.html" xlink:title="withdrawals" target="_top">
<polygon fill="#ffffff" stroke="none" points="176,-403 176,-461 283,-461 283,-403 176,-403"/>
<polygon fill="#f5f5f5" stroke="none" points="176,-439 176,-461 283,-461 283,-439 176,-439"/>
<polygon fill="none" stroke="black" points="176,-439 176,-461 283,-461 283,-439 176,-439"/>
<text text-anchor="start" x="181" y="-446.55" font-family="Helvetica,sans-Serif" font-weight="bold" font-size="11.00">withdrawals</text>
<text text-anchor="start" x="249" y="-445.55" font-family="Helvetica,sans-Serif" font-size="11.00">[table]</text>
<polygon fill="none" stroke="black" points="176,-421 176,-439 283,-439 283,-421 176,-421"/>
<text text-anchor="start" x="179" y="-425.55" font-family="Helvetica,sans-Serif" font-size="11.00">...</text>
<polygon fill="#ffffff" stroke="none" points="176,-403 176,-421 223,-421 223,-403 176,-403"/>
<polygon fill="none" stroke="black" points="176,-403 176,-421 223,-421 223,-403 176,-403"/>
<text text-anchor="start" x="179" y="-407.55" font-family="Helvetica,sans-Serif" font-size="11.00">&lt; 1</text>
<polygon fill="#ffffff" stroke="none" points="223,-403 223,-421 248,-421 248,-403 223,-403"/>
<polygon fill="none" stroke="black" points="223,-403 223,-421 248,-421 248,-403 223,-403"/>
<text text-anchor="start" x="239" y="-407.55" font-family="Helvetica,sans-Serif" font-size="11.00"> &#160;</text>
<polygon fill="#ffffff" stroke="none" points="248,-403 248,-421 283,-421 283,-403 248,-403"/>
<polygon fill="none" stroke="black" points="248,-403 248,-421 283,-421 283,-403 248,-403"/>
<text text-anchor="start" x="264.25" y="-407.55" font-family="Helvetica,sans-Serif" font-size="11.00">5 &gt;</text>
</a>
</g>
</g>
<!-- block_second_degree_relations&#45;&gt;withdrawals -->
<g id="edge2" class="edge">
<title>block_second_degree_relations:w&#45;&gt;withdrawals:e</title>
<path fill="none" stroke="black" stroke-dasharray="5,2" d="M357.25,-484.55C326.39,-473.64 325.27,-430 284.5,-430"/>
<polygon fill="black" stroke="black" points="364.27,-485.68 371.6,-490.5 368.55,-486.37 371.84,-486.89 371.84,-486.89 371.84,-486.89 368.55,-486.37 372.74,-483.39 364.27,-485.68"/>
<ellipse fill="none" stroke="black" cx="359.41" cy="-484.9" rx="3.2" ry="3.2"/>
</g>
<!-- withdrawals&#45;&gt;blocks -->
<g id="edge18" class="edge">
<title>withdrawals:w&#45;&gt;blocks:e</title>
<path fill="none" stroke="black" d="M158.89,-428.83C135.18,-425.39 111.91,-414.8 92.83,-403.61"/>
<polygon fill="black" stroke="black" points="166.19,-429.38 173.9,-433.57 170.51,-429.7 173.83,-429.95 173.83,-429.95 173.83,-429.95 170.51,-429.7 174.43,-426.39 166.19,-429.38"/>
<ellipse fill="none" stroke="black" cx="161.28" cy="-429.01" rx="3.2" ry="3.2"/>
</g>
<!-- internal_transactions -->
<g id="node5" class="node">
<title>internal_transactions</title>
<g id="a_node5"><a xlink:href="../../tables/internal_transactions.html" xlink:title="internal_transactions" target="_top">
<polygon fill="#ffffff" stroke="none" points="675.5,-449 675.5,-507 835.5,-507 835.5,-449 675.5,-449"/>
<polygon fill="#f5f5f5" stroke="none" points="675.5,-485 675.5,-507 835.5,-507 835.5,-485 675.5,-485"/>
<polygon fill="none" stroke="black" points="675.5,-485 675.5,-507 835.5,-507 835.5,-485 675.5,-485"/>
<text text-anchor="start" x="680.5" y="-492.55" font-family="Helvetica,sans-Serif" font-weight="bold" font-size="11.00">internal_transactions</text>
<text text-anchor="start" x="801.5" y="-491.55" font-family="Helvetica,sans-Serif" font-size="11.00">[table]</text>
<polygon fill="none" stroke="black" points="675.5,-467 675.5,-485 835.5,-485 835.5,-467 675.5,-467"/>
<text text-anchor="start" x="678.5" y="-471.55" font-family="Helvetica,sans-Serif" font-size="11.00">...</text>
<polygon fill="#ffffff" stroke="none" points="675.5,-449 675.5,-467 753.5,-467 753.5,-449 675.5,-449"/>
<polygon fill="none" stroke="black" points="675.5,-449 675.5,-467 753.5,-467 753.5,-449 675.5,-449"/>
<text text-anchor="start" x="678.5" y="-453.55" font-family="Helvetica,sans-Serif" font-size="11.00">&lt; 4</text>
<polygon fill="#ffffff" stroke="none" points="753.5,-449 753.5,-467 794.5,-467 794.5,-449 753.5,-449"/>
<polygon fill="none" stroke="black" points="753.5,-449 753.5,-467 794.5,-467 794.5,-449 753.5,-449"/>
<text text-anchor="start" x="785.5" y="-453.55" font-family="Helvetica,sans-Serif" font-size="11.00"> &#160;</text>
<polygon fill="#ffffff" stroke="none" points="794.5,-449 794.5,-467 835.5,-467 835.5,-449 794.5,-449"/>
<polygon fill="none" stroke="black" points="794.5,-449 794.5,-467 835.5,-467 835.5,-449 794.5,-449"/>
<text text-anchor="start" x="826.5" y="-453.55" font-family="Helvetica,sans-Serif" font-size="11.00"> &#160;</text>
</a>
</g>
</g>
<!-- internal_transactions&#45;&gt;blocks -->
<g id="edge4" class="edge">
<title>internal_transactions:w&#45;&gt;blocks:e</title>
<path fill="none" stroke="black" d="M658.93,-478.71C635.65,-488 634.69,-518.53 603,-529 502.09,-562.32 215.26,-552.67 126,-495 92.93,-473.64 71.19,-432.9 59.14,-403.95"/>
<polygon fill="black" stroke="black" points="666.29,-477.43 674.79,-479.6 670.56,-476.69 673.84,-476.11 673.84,-476.11 673.84,-476.11 670.56,-476.69 673.55,-472.51 666.29,-477.43"/>
<ellipse fill="none" stroke="black" cx="661.44" cy="-478.27" rx="3.2" ry="3.2"/>
</g>
<!-- internal_transactions&#45;&gt;withdrawals -->
<g id="edge5" class="edge">
<title>internal_transactions:w&#45;&gt;withdrawals:e</title>
<path fill="none" stroke="black" stroke-dasharray="5,2" d="M658.77,-474.33C638.12,-469.53 630.15,-455.67 603,-450 464.16,-421.02 426.33,-430 284.5,-430"/>
<polygon fill="black" stroke="black" points="666.21,-475.12 673.79,-479.54 670.52,-475.58 673.83,-475.93 673.83,-475.93 673.83,-475.93 670.52,-475.58 674.55,-472.38 666.21,-475.12"/>
<ellipse fill="none" stroke="black" cx="661.32" cy="-474.6" rx="3.2" ry="3.2"/>
</g>
<!-- internal_transactions&#45;&gt;withdrawals -->
<g id="edge7" class="edge">
<title>internal_transactions:w&#45;&gt;withdrawals:e</title>
<path fill="none" stroke="black" stroke-dasharray="5,2" d="M658.94,-474.62C638.37,-470.62 629.8,-459.07 603,-454 463.51,-427.63 426.46,-430 284.5,-430"/>
<polygon fill="black" stroke="black" points="666.2,-475.26 673.85,-479.56 670.52,-475.65 673.83,-475.94 673.83,-475.94 673.83,-475.94 670.52,-475.65 674.49,-472.38 666.2,-475.26"/>
<ellipse fill="none" stroke="black" cx="661.3" cy="-474.83" rx="3.2" ry="3.2"/>
</g>
<!-- transactions -->
<g id="node6" class="node">
<title>transactions</title>
<g id="a_node6"><a xlink:href="../../tables/transactions.html" xlink:title="transactions" target="_top">
<polygon fill="#ffffff" stroke="none" points="429.5,-342 429.5,-400 539.5,-400 539.5,-342 429.5,-342"/>
<polygon fill="#f5f5f5" stroke="none" points="429.5,-378 429.5,-400 539.5,-400 539.5,-378 429.5,-378"/>
<polygon fill="none" stroke="black" points="429.5,-378 429.5,-400 539.5,-400 539.5,-378 429.5,-378"/>
<text text-anchor="start" x="434.5" y="-385.55" font-family="Helvetica,sans-Serif" font-weight="bold" font-size="11.00">transactions</text>
<text text-anchor="start" x="505.5" y="-384.55" font-family="Helvetica,sans-Serif" font-size="11.00">[table]</text>
<polygon fill="none" stroke="black" points="429.5,-360 429.5,-378 539.5,-378 539.5,-360 429.5,-360"/>
<text text-anchor="start" x="432.5" y="-364.55" font-family="Helvetica,sans-Serif" font-size="11.00">...</text>
<polygon fill="#ffffff" stroke="none" points="429.5,-342 429.5,-360 478.5,-360 478.5,-342 429.5,-342"/>
<polygon fill="none" stroke="black" points="429.5,-342 429.5,-360 478.5,-360 478.5,-342 429.5,-342"/>
<text text-anchor="start" x="432.5" y="-346.55" font-family="Helvetica,sans-Serif" font-size="11.00">&lt; 2</text>
<polygon fill="#ffffff" stroke="none" points="478.5,-342 478.5,-360 504.5,-360 504.5,-342 478.5,-342"/>
<polygon fill="none" stroke="black" points="478.5,-342 478.5,-360 504.5,-360 504.5,-342 478.5,-342"/>
<text text-anchor="start" x="495.5" y="-346.55" font-family="Helvetica,sans-Serif" font-size="11.00"> &#160;</text>
<polygon fill="#ffffff" stroke="none" points="504.5,-342 504.5,-360 539.5,-360 539.5,-342 504.5,-342"/>
<polygon fill="none" stroke="black" points="504.5,-342 504.5,-360 539.5,-360 539.5,-342 504.5,-342"/>
<text text-anchor="start" x="520.75" y="-346.55" font-family="Helvetica,sans-Serif" font-size="11.00">5 &gt;</text>
</a>
</g>
</g>
<!-- internal_transactions&#45;&gt;transactions -->
<g id="edge6" class="edge">
<title>internal_transactions:w&#45;&gt;transactions:e</title>
<path fill="none" stroke="black" d="M659.05,-473.63C633.5,-464.65 634,-432.27 603,-414 585.88,-403.91 565.98,-395.54 547.49,-388.95"/>
<polygon fill="black" stroke="black" points="666.26,-474.74 673.62,-479.51 670.55,-475.39 673.84,-475.9 673.84,-475.9 673.84,-475.9 670.55,-475.39 674.71,-472.39 666.26,-474.74"/>
<ellipse fill="none" stroke="black" cx="661.4" cy="-473.99" rx="3.2" ry="3.2"/>
</g>
<!-- transactions&#45;&gt;blocks -->
<g id="edge16" class="edge">
<title>transactions:w&#45;&gt;blocks:e</title>
<path fill="none" stroke="black" d="M406.2,-371C315.16,-371 166.96,-371 92.79,-371"/>
<polygon fill="black" stroke="black" points="413.62,-371 421.62,-374.6 417.96,-371 421.29,-371 421.29,-371 421.29,-371 417.96,-371 421.62,-367.4 413.62,-371"/>
<ellipse fill="none" stroke="black" cx="408.7" cy="-371" rx="3.2" ry="3.2"/>
</g>
<!-- transactions&#45;&gt;withdrawals -->
<g id="edge17" class="edge">
<title>transactions:w&#45;&gt;withdrawals:e</title>
<path fill="none" stroke="black" stroke-dasharray="5,2" d="M407.14,-398.53C361.8,-413.91 308.59,-430 284.5,-430"/>
<polygon fill="black" stroke="black" points="413.97,-396.18 422.71,-396.99 418.07,-394.77 421.22,-393.69 421.22,-393.69 421.22,-393.69 418.07,-394.77 420.37,-390.18 413.97,-396.18"/>
<ellipse fill="none" stroke="black" cx="409.32" cy="-397.78" rx="3.2" ry="3.2"/>
</g>
<!-- logs -->
<g id="node7" class="node">
<title>logs</title>
<g id="a_node7"><a xlink:href="../../tables/logs.html" xlink:title="logs" target="_top">
<polygon fill="#ffffff" stroke="none" points="724,-291 724,-349 787,-349 787,-291 724,-291"/>
<polygon fill="#f5f5f5" stroke="none" points="724,-327 724,-349 787,-349 787,-327 724,-327"/>
<polygon fill="none" stroke="black" points="724,-327 724,-349 787,-349 787,-327 724,-327"/>
<text text-anchor="start" x="727.75" y="-334.55" font-family="Helvetica,sans-Serif" font-weight="bold" font-size="11.00">logs</text>
<text text-anchor="start" x="753" y="-333.55" font-family="Helvetica,sans-Serif" font-size="11.00">[table]</text>
<polygon fill="none" stroke="black" points="724,-309 724,-327 787,-327 787,-309 724,-309"/>
<text text-anchor="start" x="727" y="-313.55" font-family="Helvetica,sans-Serif" font-size="11.00">...</text>
<polygon fill="#ffffff" stroke="none" points="724,-291 724,-309 754,-309 754,-291 724,-291"/>
<polygon fill="none" stroke="black" points="724,-291 724,-309 754,-309 754,-291 724,-291"/>
<text text-anchor="start" x="727" y="-295.55" font-family="Helvetica,sans-Serif" font-size="11.00">&lt; 2</text>
<polygon fill="#ffffff" stroke="none" points="754,-291 754,-309 770,-309 770,-291 754,-291"/>
<polygon fill="none" stroke="black" points="754,-291 754,-309 770,-309 770,-291 754,-291"/>
<text text-anchor="start" x="761" y="-295.55" font-family="Helvetica,sans-Serif" font-size="11.00"> &#160;</text>
<polygon fill="#ffffff" stroke="none" points="770,-291 770,-309 787,-309 787,-291 770,-291"/>
<polygon fill="none" stroke="black" points="770,-291 770,-309 787,-309 787,-291 770,-291"/>
<text text-anchor="start" x="778" y="-295.55" font-family="Helvetica,sans-Serif" font-size="11.00"> &#160;</text>
</a>
</g>
</g>
<!-- logs&#45;&gt;blocks -->
<g id="edge8" class="edge">
<title>logs:w&#45;&gt;blocks:e</title>
<path fill="none" stroke="black" d="M707.09,-318C561.15,-318.1 518.8,-319.67 366,-332 268.27,-339.89 154.38,-355.36 92.74,-364.27"/>
<polygon fill="black" stroke="black" points="714.17,-318 722.17,-321.6 718.5,-318 721.83,-318 721.83,-318 721.83,-318 718.5,-318 722.16,-314.4 714.17,-318"/>
<ellipse fill="none" stroke="black" cx="709.25" cy="-318" rx="3.2" ry="3.2"/>
</g>
<!-- logs&#45;&gt;transactions -->
<g id="edge9" class="edge">
<title>logs:w&#45;&gt;transactions:e</title>
<path fill="none" stroke="black" d="M706.72,-318.36C650.35,-320.87 590.32,-336.03 547.03,-349.44"/>
<polygon fill="black" stroke="black" points="714.17,-318.19 722.25,-321.61 718.5,-318.09 721.83,-318.02 721.83,-318.02 721.83,-318.02 718.5,-318.09 722.08,-314.41 714.17,-318.19"/>
<ellipse fill="none" stroke="black" cx="709.25" cy="-318.3" rx="3.2" ry="3.2"/>
</g>
<!-- pending_block_operations -->
<g id="node8" class="node">
<title>pending_block_operations</title>
<g id="a_node8"><a xlink:href="../../tables/pending_block_operations.html" xlink:title="pending_block_operations" target="_top">
<polygon fill="#ffffff" stroke="none" points="134,-249 134,-307 325,-307 325,-249 134,-249"/>
<polygon fill="#f5f5f5" stroke="none" points="134,-285 134,-307 325,-307 325,-285 134,-285"/>
<polygon fill="none" stroke="black" points="134,-285 134,-307 325,-307 325,-285 134,-285"/>
<text text-anchor="start" x="139" y="-292.55" font-family="Helvetica,sans-Serif" font-weight="bold" font-size="11.00">pending_block_operations</text>
<text text-anchor="start" x="291" y="-291.55" font-family="Helvetica,sans-Serif" font-size="11.00">[table]</text>
<polygon fill="none" stroke="black" points="134,-267 134,-285 325,-285 325,-267 134,-267"/>
<text text-anchor="start" x="137" y="-271.55" font-family="Helvetica,sans-Serif" font-size="11.00">...</text>
<polygon fill="#ffffff" stroke="none" points="134,-249 134,-267 228,-267 228,-249 134,-249"/>
<polygon fill="none" stroke="black" points="134,-249 134,-267 228,-267 228,-249 134,-249"/>
<text text-anchor="start" x="137" y="-253.55" font-family="Helvetica,sans-Serif" font-size="11.00">&lt; 1</text>
<polygon fill="#ffffff" stroke="none" points="228,-249 228,-267 276,-267 276,-249 228,-249"/>
<polygon fill="none" stroke="black" points="228,-249 228,-267 276,-267 276,-249 228,-249"/>
<text text-anchor="start" x="267" y="-253.55" font-family="Helvetica,sans-Serif" font-size="11.00"> &#160;</text>
<polygon fill="#ffffff" stroke="none" points="276,-249 276,-267 325,-267 325,-249 276,-249"/>
<polygon fill="none" stroke="black" points="276,-249 276,-267 325,-267 325,-249 276,-249"/>
<text text-anchor="start" x="316" y="-253.55" font-family="Helvetica,sans-Serif" font-size="11.00"> &#160;</text>
</a>
</g>
</g>
<!-- pending_block_operations&#45;&gt;blocks -->
<g id="edge10" class="edge">
<title>pending_block_operations:w&#45;&gt;blocks:e</title>
<path fill="none" stroke="black" d="M121.28,-277.27C93.03,-283.75 72.89,-313.71 60.87,-338.04"/>
<polygon fill="black" stroke="black" points="131.25,-272.12 132.16,-280.06 130.57,-280.24 129.66,-272.3 131.25,-272.12"/>
<polyline fill="none" stroke="black" points="132.5,-276 128.53,-276.45"/>
<ellipse fill="none" stroke="black" cx="124.85" cy="-276.87" rx="3.2" ry="3.2"/>
</g>
<!-- token_transfers -->
<g id="node9" class="node">
<title>token_transfers</title>
<g id="a_node9"><a xlink:href="../../tables/token_transfers.html" xlink:title="token_transfers" target="_top">
<polygon fill="#ffffff" stroke="none" points="691,-212 691,-270 820,-270 820,-212 691,-212"/>
<polygon fill="#f5f5f5" stroke="none" points="691,-248 691,-270 820,-270 820,-248 691,-248"/>
<polygon fill="none" stroke="black" points="691,-248 691,-270 820,-270 820,-248 691,-248"/>
<text text-anchor="start" x="696" y="-255.55" font-family="Helvetica,sans-Serif" font-weight="bold" font-size="11.00">token_transfers</text>
<text text-anchor="start" x="786" y="-254.55" font-family="Helvetica,sans-Serif" font-size="11.00">[table]</text>
<polygon fill="none" stroke="black" points="691,-230 691,-248 820,-248 820,-230 691,-230"/>
<text text-anchor="start" x="694" y="-234.55" font-family="Helvetica,sans-Serif" font-size="11.00">...</text>
<polygon fill="#ffffff" stroke="none" points="691,-212 691,-230 754,-230 754,-212 691,-212"/>
<polygon fill="none" stroke="black" points="691,-212 691,-230 754,-230 754,-212 691,-212"/>
<text text-anchor="start" x="694" y="-216.55" font-family="Helvetica,sans-Serif" font-size="11.00">&lt; 2</text>
<polygon fill="#ffffff" stroke="none" points="754,-212 754,-230 787,-230 787,-212 754,-212"/>
<polygon fill="none" stroke="black" points="754,-212 754,-230 787,-230 787,-212 754,-212"/>
<text text-anchor="start" x="778" y="-216.55" font-family="Helvetica,sans-Serif" font-size="11.00"> &#160;</text>
<polygon fill="#ffffff" stroke="none" points="787,-212 787,-230 820,-230 820,-212 787,-212"/>
<polygon fill="none" stroke="black" points="787,-212 787,-230 820,-230 820,-212 787,-212"/>
<text text-anchor="start" x="811" y="-216.55" font-family="Helvetica,sans-Serif" font-size="11.00"> &#160;</text>
</a>
</g>
</g>
<!-- token_transfers&#45;&gt;blocks -->
<g id="edge11" class="edge">
<title>token_transfers:w&#45;&gt;blocks:e</title>
<path fill="none" stroke="black" d="M673.93,-238.84C434.99,-233.85 338.92,-116.43 126,-238 88.63,-259.34 67.26,-306.2 56.52,-338.19"/>
<polygon fill="black" stroke="black" points="681.17,-238.91 689.13,-242.6 685.5,-238.96 688.83,-238.99 688.83,-238.99 688.83,-238.99 685.5,-238.96 689.2,-235.4 681.17,-238.91"/>
<ellipse fill="none" stroke="black" cx="676.25" cy="-238.86" rx="3.2" ry="3.2"/>
</g>
<!-- token_transfers&#45;&gt;transactions -->
<g id="edge12" class="edge">
<title>token_transfers:w&#45;&gt;transactions:e</title>
<path fill="none" stroke="black" d="M673.82,-239.91C607.16,-247.55 546.79,-301.76 513.23,-338.03"/>
<polygon fill="black" stroke="black" points="681.18,-239.48 689.37,-242.61 685.51,-239.23 688.83,-239.04 688.83,-239.04 688.83,-239.04 685.51,-239.23 688.96,-235.43 681.18,-239.48"/>
<ellipse fill="none" stroke="black" cx="676.27" cy="-239.77" rx="3.2" ry="3.2"/>
</g>
<!-- transaction_actions -->
<g id="node10" class="node">
<title>transaction_actions</title>
<g id="a_node10"><a xlink:href="../../tables/transaction_actions.html" xlink:title="transaction_actions" target="_top">
<polygon fill="#ffffff" stroke="none" points="679.5,-370 679.5,-428 831.5,-428 831.5,-370 679.5,-370"/>
<polygon fill="#f5f5f5" stroke="none" points="679.5,-406 679.5,-428 831.5,-428 831.5,-406 679.5,-406"/>
<polygon fill="none" stroke="black" points="679.5,-406 679.5,-428 831.5,-428 831.5,-406 679.5,-406"/>
<text text-anchor="start" x="684.5" y="-413.55" font-family="Helvetica,sans-Serif" font-weight="bold" font-size="11.00">transaction_actions</text>
<text text-anchor="start" x="797.5" y="-412.55" font-family="Helvetica,sans-Serif" font-size="11.00">[table]</text>
<polygon fill="none" stroke="black" points="679.5,-388 679.5,-406 831.5,-406 831.5,-388 679.5,-388"/>
<text text-anchor="start" x="682.5" y="-392.55" font-family="Helvetica,sans-Serif" font-size="11.00">...</text>
<polygon fill="#ffffff" stroke="none" points="679.5,-370 679.5,-388 753.5,-388 753.5,-370 679.5,-370"/>
<polygon fill="none" stroke="black" points="679.5,-370 679.5,-388 753.5,-388 753.5,-370 679.5,-370"/>
<text text-anchor="start" x="682.5" y="-374.55" font-family="Helvetica,sans-Serif" font-size="11.00">&lt; 1</text>
<polygon fill="#ffffff" stroke="none" points="753.5,-370 753.5,-388 792.5,-388 792.5,-370 753.5,-370"/>
<polygon fill="none" stroke="black" points="753.5,-370 753.5,-388 792.5,-388 792.5,-370 753.5,-370"/>
<text text-anchor="start" x="783.5" y="-374.55" font-family="Helvetica,sans-Serif" font-size="11.00"> &#160;</text>
<polygon fill="#ffffff" stroke="none" points="792.5,-370 792.5,-388 831.5,-388 831.5,-370 792.5,-370"/>
<polygon fill="none" stroke="black" points="792.5,-370 792.5,-388 831.5,-388 831.5,-370 792.5,-370"/>
<text text-anchor="start" x="822.5" y="-374.55" font-family="Helvetica,sans-Serif" font-size="11.00"> &#160;</text>
</a>
</g>
</g>
<!-- transaction_actions&#45;&gt;transactions -->
<g id="edge13" class="edge">
<title>transaction_actions:w&#45;&gt;transactions:e</title>
<path fill="none" stroke="black" d="M662.8,-396.73C622.98,-395.42 580.67,-389.47 547.36,-383.62"/>
<polygon fill="black" stroke="black" points="670.17,-396.86 678.1,-400.59 674.5,-396.93 677.83,-396.99 677.83,-396.99 677.83,-396.99 674.5,-396.93 678.23,-393.39 670.17,-396.86"/>
<ellipse fill="none" stroke="black" cx="665.25" cy="-396.77" rx="3.2" ry="3.2"/>
</g>
<!-- transaction_forks -->
<g id="node11" class="node">
<title>transaction_forks</title>
<g id="a_node11"><a xlink:href="../../tables/transaction_forks.html" xlink:title="transaction_forks" target="_top">
<polygon fill="#ffffff" stroke="none" points="644,-37 644,-191 867,-191 867,-37 644,-37"/>
<polygon fill="#f5f5f5" stroke="none" points="646,-167 646,-189 865,-189 865,-167 646,-167"/>
<polygon fill="none" stroke="black" points="646,-167 646,-189 865,-189 865,-167 646,-167"/>
<text text-anchor="start" x="651" y="-174.55" font-family="Helvetica,sans-Serif" font-weight="bold" font-size="11.00">transaction_forks</text>
<text text-anchor="start" x="830.75" y="-173.55" font-family="Helvetica,sans-Serif" font-size="11.00">[table]</text>
<polygon fill="none" stroke="black" points="646,-145 646,-167 767,-167 767,-145 646,-145"/>
<image xlink:href="../../images/foreignKeys.png" width="11px" height="12px" preserveAspectRatio="xMinYMin meet" x="651" y="-162"/>
<text text-anchor="start" x="666" y="-151.55" font-family="Helvetica,sans-Serif" font-size="11.00">hash</text>
<polygon fill="none" stroke="black" points="767,-145 767,-167 865,-167 865,-145 767,-145"/>
<text text-anchor="start" x="769.88" y="-151.55" font-family="Helvetica,sans-Serif" font-size="11.00">bytea[2147483647]</text>
<polygon fill="none" stroke="black" points="646,-123 646,-145 767,-145 767,-123 646,-123"/>
<image xlink:href="../../images/primaryKeys.png" width="11px" height="12px" preserveAspectRatio="xMinYMin meet" x="651" y="-140"/>
<text text-anchor="start" x="666" y="-129.55" font-family="Helvetica,sans-Serif" font-size="11.00">index</text>
<polygon fill="none" stroke="black" points="767,-123 767,-145 865,-145 865,-123 767,-123"/>
<text text-anchor="start" x="770" y="-129.55" font-family="Helvetica,sans-Serif" font-size="11.00">int4[10]</text>
<polygon fill="none" stroke="black" points="646,-101 646,-123 767,-123 767,-101 646,-101"/>
<image xlink:href="../../images/primaryKeys.png" width="11px" height="12px" preserveAspectRatio="xMinYMin meet" x="651" y="-118"/>
<text text-anchor="start" x="666" y="-107.55" font-family="Helvetica,sans-Serif" font-size="11.00">uncle_hash</text>
<polygon fill="none" stroke="black" points="767,-101 767,-123 865,-123 865,-101 767,-101"/>
<text text-anchor="start" x="769.88" y="-107.55" font-family="Helvetica,sans-Serif" font-size="11.00">bytea[2147483647]</text>
<polygon fill="none" stroke="black" points="646,-79 646,-101 767,-101 767,-79 646,-79"/>
<text text-anchor="start" x="666" y="-85.55" font-family="Helvetica,sans-Serif" font-size="11.00">inserted_at</text>
<polygon fill="none" stroke="black" points="767,-79 767,-101 865,-101 865,-79 767,-79"/>
<text text-anchor="start" x="770" y="-85.55" font-family="Helvetica,sans-Serif" font-size="11.00">timestamp[29,6]</text>
<polygon fill="none" stroke="black" points="646,-57 646,-79 767,-79 767,-57 646,-57"/>
<text text-anchor="start" x="666" y="-63.55" font-family="Helvetica,sans-Serif" font-size="11.00">updated_at</text>
<polygon fill="none" stroke="black" points="767,-57 767,-79 865,-79 865,-57 767,-57"/>
<text text-anchor="start" x="770" y="-63.55" font-family="Helvetica,sans-Serif" font-size="11.00">timestamp[29,6]</text>
<polygon fill="#ffffff" stroke="none" points="646,-39 646,-57 711,-57 711,-39 646,-39"/>
<polygon fill="none" stroke="black" points="646,-39 646,-57 711,-57 711,-39 646,-39"/>
<text text-anchor="start" x="649" y="-43.55" font-family="Helvetica,sans-Serif" font-size="11.00">&lt; 2</text>
<polygon fill="#ffffff" stroke="none" points="711,-39 711,-57 767,-57 767,-39 711,-39"/>
<polygon fill="none" stroke="black" points="711,-39 711,-57 767,-57 767,-39 711,-39"/>
<text text-anchor="start" x="758" y="-43.55" font-family="Helvetica,sans-Serif" font-size="11.00"> &#160;</text>
<polygon fill="#ffffff" stroke="none" points="767,-39 767,-57 865,-57 865,-39 767,-39"/>
<polygon fill="none" stroke="black" points="767,-39 767,-57 865,-57 865,-39 767,-39"/>
<text text-anchor="start" x="846.25" y="-43.55" font-family="Helvetica,sans-Serif" font-size="11.00">0 &gt;</text>
<polygon fill="none" stroke="black" stroke-width="2" points="645,-38 645,-190 866,-190 866,-38 645,-38"/>
</a>
</g>
</g>
<!-- transaction_forks&#45;&gt;blocks -->
<g id="edge15" class="edge">
<title>transaction_forks:w&#45;&gt;blocks:e</title>
<path fill="none" stroke="black" d="M628.7,-111.89C407.31,-108.77 306.04,-42.52 126,-181 76.21,-219.3 57.78,-294.74 51.12,-338.15"/>
<polygon fill="black" stroke="black" points="636.17,-111.94 644.14,-115.6 640.5,-111.97 643.83,-112 643.83,-112 643.83,-112 640.5,-111.97 644.19,-108.4 636.17,-111.94"/>
<ellipse fill="none" stroke="black" cx="631.25" cy="-111.91" rx="3.2" ry="3.2"/>
</g>
<!-- transaction_forks&#45;&gt;transactions -->
<g id="edge14" class="edge">
<title>transaction_forks:w&#45;&gt;transactions:e</title>
<path fill="none" stroke="black" d="M628.71,-157.3C549.57,-170.57 509.02,-281.84 493.37,-338.35"/>
<polygon fill="black" stroke="black" points="636.19,-156.69 644.46,-159.62 640.51,-156.33 643.83,-156.06 643.83,-156.06 643.83,-156.06 640.51,-156.33 643.87,-152.44 636.19,-156.69"/>
<ellipse fill="none" stroke="black" cx="631.29" cy="-157.09" rx="3.2" ry="3.2"/>
</g>
</g>
</svg>
