<?xml version="1.0" encoding="UTF-8" standalone="no"?>
<!DOCTYPE svg PUBLIC "-//W3C//DTD SVG 1.1//EN"
 "http://www.w3.org/Graphics/SVG/1.1/DTD/svg11.dtd">
<!-- Generated by graphviz version 9.0.0 (20230911.1827)
 -->
<!-- Title: twoDegreesRelationshipsDiagram Pages: 1 -->
<svg width="682pt" height="1199pt"
 viewBox="0.00 0.00 682.00 1199.00" xmlns="http://www.w3.org/2000/svg" xmlns:xlink="http://www.w3.org/1999/xlink">
<g id="graph0" class="graph" transform="scale(1 1) rotate(0) translate(4 1195)">
<title>twoDegreesRelationshipsDiagram</title>
<polygon fill="#ffffff" stroke="none" points="-4,4 -4,-1195 678,-1195 678,4 -4,4"/>
<text text-anchor="middle" x="71.38" y="-5.55" font-family="Helvetica,sans-Serif" font-size="11.00">Generated by SchemaSpy</text>
<!-- block_rewards -->
<g id="node1" class="node">
<title>block_rewards</title>
<g id="a_node1"><a xlink:href="../../tables/block_rewards.html" xlink:title="block_rewards" target="_top">
<polygon fill="#ffffff" stroke="none" points="234,-1129 234,-1187 357,-1187 357,-1129 234,-1129"/>
<polygon fill="#f5f5f5" stroke="none" points="234,-1165 234,-1187 357,-1187 357,-1165 234,-1165"/>
<polygon fill="none" stroke="black" points="234,-1165 234,-1187 357,-1187 357,-1165 234,-1165"/>
<text text-anchor="start" x="239" y="-1172.55" font-family="Helvetica,sans-Serif" font-weight="bold" font-size="11.00">block_rewards</text>
<text text-anchor="start" x="323" y="-1171.55" font-family="Helvetica,sans-Serif" font-size="11.00">[table]</text>
<polygon fill="none" stroke="black" points="234,-1147 234,-1165 357,-1165 357,-1147 234,-1147"/>
<text text-anchor="start" x="237" y="-1151.55" font-family="Helvetica,sans-Serif" font-size="11.00">...</text>
<polygon fill="#ffffff" stroke="none" points="234,-1129 234,-1147 294,-1147 294,-1129 234,-1129"/>
<polygon fill="none" stroke="black" points="234,-1129 234,-1147 294,-1147 294,-1129 234,-1129"/>
<text text-anchor="start" x="237" y="-1133.55" font-family="Helvetica,sans-Serif" font-size="11.00">&lt; 1</text>
<polygon fill="#ffffff" stroke="none" points="294,-1129 294,-1147 325,-1147 325,-1129 294,-1129"/>
<polygon fill="none" stroke="black" points="294,-1129 294,-1147 325,-1147 325,-1129 294,-1129"/>
<text text-anchor="start" x="316" y="-1133.55" font-family="Helvetica,sans-Serif" font-size="11.00"> &#160;</text>
<polygon fill="#ffffff" stroke="none" points="325,-1129 325,-1147 357,-1147 357,-1129 325,-1129"/>
<polygon fill="none" stroke="black" points="325,-1129 325,-1147 357,-1147 357,-1129 325,-1129"/>
<text text-anchor="start" x="348" y="-1133.55" font-family="Helvetica,sans-Serif" font-size="11.00"> &#160;</text>
</a>
</g>
</g>
<!-- blocks -->
<g id="node2" class="node">
<title>blocks</title>
<g id="a_node2"><a xlink:href="../../tables/blocks.html" xlink:title="blocks" target="_top">
<polygon fill="#ffffff" stroke="none" points="8,-559 8,-617 85,-617 85,-559 8,-559"/>
<polygon fill="#f5f5f5" stroke="none" points="8,-595 8,-617 85,-617 85,-595 8,-595"/>
<polygon fill="none" stroke="black" points="8,-595 8,-617 85,-617 85,-595 8,-595"/>
<text text-anchor="start" x="12.75" y="-602.55" font-family="Helvetica,sans-Serif" font-weight="bold" font-size="11.00">blocks</text>
<text text-anchor="start" x="51" y="-601.55" font-family="Helvetica,sans-Serif" font-size="11.00">[table]</text>
<polygon fill="none" stroke="black" points="8,-577 8,-595 85,-595 85,-577 8,-577"/>
<text text-anchor="start" x="11" y="-581.55" font-family="Helvetica,sans-Serif" font-size="11.00">...</text>
<polygon fill="#ffffff" stroke="none" points="8,-559 8,-577 36,-577 36,-559 8,-559"/>
<polygon fill="none" stroke="black" points="8,-559 8,-577 36,-577 36,-559 8,-559"/>
<text text-anchor="start" x="11" y="-563.55" font-family="Helvetica,sans-Serif" font-size="11.00"> &#160;</text>
<polygon fill="#ffffff" stroke="none" points="36,-559 36,-577 56,-577 56,-559 36,-559"/>
<polygon fill="none" stroke="black" points="36,-559 36,-577 56,-577 56,-559 36,-559"/>
<text text-anchor="start" x="47" y="-563.55" font-family="Helvetica,sans-Serif" font-size="11.00"> &#160;</text>
<polygon fill="#ffffff" stroke="none" points="56,-559 56,-577 85,-577 85,-559 56,-559"/>
<polygon fill="none" stroke="black" points="56,-559 56,-577 85,-577 85,-559 56,-559"/>
<text text-anchor="start" x="66.25" y="-563.55" font-family="Helvetica,sans-Serif" font-size="11.00">9 &gt;</text>
</a>
</g>
</g>
<!-- block_rewards&#45;&gt;blocks -->
<g id="edge1" class="edge">
<title>block_rewards:w&#45;&gt;blocks:e</title>
<path fill="none" stroke="black" d="M216.67,-1156C176.86,-1155.86 154.4,-1153.3 126,-1119 62.55,-1042.38 50.34,-724.23 48.03,-620.71"/>
<polygon fill="black" stroke="black" points="224.17,-1156 232.17,-1159.6 228.5,-1156 231.83,-1156 231.83,-1156 231.83,-1156 228.5,-1156 232.17,-1152.4 224.17,-1156"/>
<ellipse fill="none" stroke="black" cx="219.25" cy="-1156" rx="3.2" ry="3.2"/>
</g>
<!-- block_second_degree_relations -->
<g id="node3" class="node">
<title>block_second_degree_relations</title>
<g id="a_node3"><a xlink:href="../../tables/block_second_degree_relations.html" xlink:title="block_second_degree_relations" target="_top">
<polygon fill="#ffffff" stroke="none" points="185,-1050 185,-1108 406,-1108 406,-1050 185,-1050"/>
<polygon fill="#f5f5f5" stroke="none" points="185,-1086 185,-1108 406,-1108 406,-1086 185,-1086"/>
<polygon fill="none" stroke="black" points="185,-1086 185,-1108 406,-1108 406,-1086 185,-1086"/>
<text text-anchor="start" x="190" y="-1093.55" font-family="Helvetica,sans-Serif" font-weight="bold" font-size="11.00">block_second_degree_relations</text>
<text text-anchor="start" x="372" y="-1092.55" font-family="Helvetica,sans-Serif" font-size="11.00">[table]</text>
<polygon fill="none" stroke="black" points="185,-1068 185,-1086 406,-1086 406,-1068 185,-1068"/>
<text text-anchor="start" x="188" y="-1072.55" font-family="Helvetica,sans-Serif" font-size="11.00">...</text>
<polygon fill="#ffffff" stroke="none" points="185,-1050 185,-1068 294,-1068 294,-1050 185,-1050"/>
<polygon fill="none" stroke="black" points="185,-1050 185,-1068 294,-1068 294,-1050 185,-1050"/>
<text text-anchor="start" x="188" y="-1054.55" font-family="Helvetica,sans-Serif" font-size="11.00">&lt; 1</text>
<polygon fill="#ffffff" stroke="none" points="294,-1050 294,-1068 350,-1068 350,-1050 294,-1050"/>
<polygon fill="none" stroke="black" points="294,-1050 294,-1068 350,-1068 350,-1050 294,-1050"/>
<text text-anchor="start" x="341" y="-1054.55" font-family="Helvetica,sans-Serif" font-size="11.00"> &#160;</text>
<polygon fill="#ffffff" stroke="none" points="350,-1050 350,-1068 406,-1068 406,-1050 350,-1050"/>
<polygon fill="none" stroke="black" points="350,-1050 350,-1068 406,-1068 406,-1050 350,-1050"/>
<text text-anchor="start" x="397" y="-1054.55" font-family="Helvetica,sans-Serif" font-size="11.00"> &#160;</text>
</a>
</g>
</g>
<!-- block_second_degree_relations&#45;&gt;blocks -->
<g id="edge2" class="edge">
<title>block_second_degree_relations:w&#45;&gt;blocks:e</title>
<path fill="none" stroke="black" d="M167.97,-1075.49C148.34,-1071.16 139.6,-1057.57 126,-1036 82,-966.19 57.52,-711.77 50.02,-620.7"/>
<polygon fill="black" stroke="black" points="175.2,-1076.19 182.82,-1080.55 179.52,-1076.61 182.83,-1076.94 182.83,-1076.94 182.83,-1076.94 179.52,-1076.61 183.52,-1073.38 175.2,-1076.19"/>
<ellipse fill="none" stroke="black" cx="170.31" cy="-1075.72" rx="3.2" ry="3.2"/>
</g>
<!-- internal_transactions -->
<g id="node4" class="node">
<title>internal_transactions</title>
<g id="a_node4"><a xlink:href="../../tables/internal_transactions.html" xlink:title="internal_transactions" target="_top">
<polygon fill="#ffffff" stroke="none" points="506,-988 506,-1046 666,-1046 666,-988 506,-988"/>
<polygon fill="#f5f5f5" stroke="none" points="506,-1024 506,-1046 666,-1046 666,-1024 506,-1024"/>
<polygon fill="none" stroke="black" points="506,-1024 506,-1046 666,-1046 666,-1024 506,-1024"/>
<text text-anchor="start" x="511" y="-1031.55" font-family="Helvetica,sans-Serif" font-weight="bold" font-size="11.00">internal_transactions</text>
<text text-anchor="start" x="632" y="-1030.55" font-family="Helvetica,sans-Serif" font-size="11.00">[table]</text>
<polygon fill="none" stroke="black" points="506,-1006 506,-1024 666,-1024 666,-1006 506,-1006"/>
<text text-anchor="start" x="509" y="-1010.55" font-family="Helvetica,sans-Serif" font-size="11.00">...</text>
<polygon fill="#ffffff" stroke="none" points="506,-988 506,-1006 584,-1006 584,-988 506,-988"/>
<polygon fill="none" stroke="black" points="506,-988 506,-1006 584,-1006 584,-988 506,-988"/>
<text text-anchor="start" x="509" y="-992.55" font-family="Helvetica,sans-Serif" font-size="11.00">&lt; 2</text>
<polygon fill="#ffffff" stroke="none" points="584,-988 584,-1006 625,-1006 625,-988 584,-988"/>
<polygon fill="none" stroke="black" points="584,-988 584,-1006 625,-1006 625,-988 584,-988"/>
<text text-anchor="start" x="616" y="-992.55" font-family="Helvetica,sans-Serif" font-size="11.00"> &#160;</text>
<polygon fill="#ffffff" stroke="none" points="625,-988 625,-1006 666,-1006 666,-988 625,-988"/>
<polygon fill="none" stroke="black" points="625,-988 625,-1006 666,-1006 666,-988 625,-988"/>
<text text-anchor="start" x="657" y="-992.55" font-family="Helvetica,sans-Serif" font-size="11.00"> &#160;</text>
</a>
</g>
</g>
<!-- internal_transactions&#45;&gt;blocks -->
<g id="edge3" class="edge">
<title>internal_transactions:w&#45;&gt;blocks:e</title>
<path fill="none" stroke="black" d="M482.64,-1029.39C363.91,-1041.35 177.8,-1051.88 126,-1008 66.99,-958.02 52.03,-710.85 48.51,-620.85"/>
<polygon fill="black" stroke="black" points="489.92,-1028.63 498.25,-1031.39 494.23,-1028.18 497.54,-1027.84 497.54,-1027.84 497.54,-1027.84 494.23,-1028.18 497.5,-1024.23 489.92,-1028.63"/>
<ellipse fill="none" stroke="black" cx="485.03" cy="-1029.14" rx="3.2" ry="3.2"/>
</g>
<!-- transactions -->
<g id="node5" class="node">
<title>transactions</title>
<g id="a_node5"><a xlink:href="../../tables/transactions.html" xlink:title="transactions" target="_top">
<polygon fill="#ffffff" stroke="none" points="134,-249 134,-975 457,-975 457,-249 134,-249"/>
<polygon fill="#f5f5f5" stroke="none" points="136,-951 136,-973 455,-973 455,-951 136,-951"/>
<polygon fill="none" stroke="black" points="136,-951 136,-973 455,-973 455,-951 136,-951"/>
<text text-anchor="start" x="141" y="-958.55" font-family="Helvetica,sans-Serif" font-weight="bold" font-size="11.00">transactions</text>
<text text-anchor="start" x="420.75" y="-957.55" font-family="Helvetica,sans-Serif" font-size="11.00">[table]</text>
<polygon fill="none" stroke="black" points="136,-929 136,-951 357,-951 357,-929 136,-929"/>
<text text-anchor="start" x="156" y="-935.55" font-family="Helvetica,sans-Serif" font-size="11.00">cumulative_gas_used</text>
<polygon fill="none" stroke="black" points="357,-929 357,-951 455,-951 455,-929 357,-929"/>
<text text-anchor="start" x="360" y="-935.55" font-family="Helvetica,sans-Serif" font-size="11.00">numeric[100]</text>
<polygon fill="#ffffff" stroke="none" points="136,-907 136,-929 357,-929 357,-907 136,-907"/>
<polygon fill="none" stroke="black" points="136,-907 136,-929 357,-929 357,-907 136,-907"/>
<text text-anchor="start" x="156" y="-913.55" font-family="Helvetica,sans-Serif" font-size="11.00">error</text>
<polygon fill="none" stroke="black" points="357,-907 357,-929 455,-929 455,-907 357,-907"/>
<text text-anchor="start" x="360" y="-913.55" font-family="Helvetica,sans-Serif" font-size="11.00">varchar[255]</text>
<polygon fill="none" stroke="black" points="136,-885 136,-907 357,-907 357,-885 136,-885"/>
<text text-anchor="start" x="156" y="-891.55" font-family="Helvetica,sans-Serif" font-size="11.00">gas</text>
<polygon fill="none" stroke="black" points="357,-885 357,-907 455,-907 455,-885 357,-885"/>
<text text-anchor="start" x="360" y="-891.55" font-family="Helvetica,sans-Serif" font-size="11.00">numeric[100]</text>
<polygon fill="none" stroke="black" points="136,-863 136,-885 357,-885 357,-863 136,-863"/>
<text text-anchor="start" x="156" y="-869.55" font-family="Helvetica,sans-Serif" font-size="11.00">gas_price</text>
<polygon fill="none" stroke="black" points="357,-863 357,-885 455,-885 455,-863 357,-863"/>
<text text-anchor="start" x="360" y="-869.55" font-family="Helvetica,sans-Serif" font-size="11.00">numeric[100]</text>
<polygon fill="none" stroke="black" points="136,-841 136,-863 357,-863 357,-841 136,-841"/>
<text text-anchor="start" x="156" y="-847.55" font-family="Helvetica,sans-Serif" font-size="11.00">gas_used</text>
<polygon fill="none" stroke="black" points="357,-841 357,-863 455,-863 455,-841 357,-841"/>
<text text-anchor="start" x="360" y="-847.55" font-family="Helvetica,sans-Serif" font-size="11.00">numeric[100]</text>
<polygon fill="none" stroke="black" points="136,-819 136,-841 357,-841 357,-819 136,-819"/>
<image xlink:href="../../images/primaryKeys.png" width="11px" height="12px" preserveAspectRatio="xMinYMin meet" x="141" y="-836"/>
<text text-anchor="start" x="156" y="-825.55" font-family="Helvetica,sans-Serif" font-size="11.00">hash</text>
<polygon fill="none" stroke="black" points="357,-819 357,-841 455,-841 455,-819 357,-819"/>
<text text-anchor="start" x="359.88" y="-825.55" font-family="Helvetica,sans-Serif" font-size="11.00">bytea[2147483647]</text>
<polygon fill="#ffffff" stroke="none" points="136,-797 136,-819 357,-819 357,-797 136,-797"/>
<polygon fill="none" stroke="black" points="136,-797 136,-819 357,-819 357,-797 136,-797"/>
<image xlink:href="../../images/foreignKeys.png" width="11px" height="12px" preserveAspectRatio="xMinYMin meet" x="141" y="-814"/>
<text text-anchor="start" x="156" y="-803.55" font-family="Helvetica,sans-Serif" font-size="11.00">index</text>
<polygon fill="none" stroke="black" points="357,-797 357,-819 455,-819 455,-797 357,-797"/>
<text text-anchor="start" x="360" y="-803.55" font-family="Helvetica,sans-Serif" font-size="11.00">int4[10]</text>
<polygon fill="none" stroke="black" points="136,-775 136,-797 357,-797 357,-775 136,-775"/>
<text text-anchor="start" x="156" y="-781.55" font-family="Helvetica,sans-Serif" font-size="11.00">input</text>
<polygon fill="none" stroke="black" points="357,-775 357,-797 455,-797 455,-775 357,-775"/>
<text text-anchor="start" x="359.88" y="-781.55" font-family="Helvetica,sans-Serif" font-size="11.00">bytea[2147483647]</text>
<polygon fill="#ffffff" stroke="none" points="136,-753 136,-775 357,-775 357,-753 136,-753"/>
<polygon fill="none" stroke="black" points="136,-753 136,-775 357,-775 357,-753 136,-753"/>
<text text-anchor="start" x="156" y="-759.55" font-family="Helvetica,sans-Serif" font-size="11.00">nonce</text>
<polygon fill="none" stroke="black" points="357,-753 357,-775 455,-775 455,-753 357,-753"/>
<text text-anchor="start" x="360" y="-759.55" font-family="Helvetica,sans-Serif" font-size="11.00">int4[10]</text>
<polygon fill="none" stroke="black" points="136,-731 136,-753 357,-753 357,-731 136,-731"/>
<text text-anchor="start" x="156" y="-737.55" font-family="Helvetica,sans-Serif" font-size="11.00">r</text>
<polygon fill="none" stroke="black" points="357,-731 357,-753 455,-753 455,-731 357,-731"/>
<text text-anchor="start" x="360" y="-737.55" font-family="Helvetica,sans-Serif" font-size="11.00">numeric[100]</text>
<polygon fill="none" stroke="black" points="136,-709 136,-731 357,-731 357,-709 136,-709"/>
<text text-anchor="start" x="156" y="-715.55" font-family="Helvetica,sans-Serif" font-size="11.00">s</text>
<polygon fill="none" stroke="black" points="357,-709 357,-731 455,-731 455,-709 357,-709"/>
<text text-anchor="start" x="360" y="-715.55" font-family="Helvetica,sans-Serif" font-size="11.00">numeric[100]</text>
<polygon fill="#ffffff" stroke="none" points="136,-687 136,-709 357,-709 357,-687 136,-687"/>
<polygon fill="none" stroke="black" points="136,-687 136,-709 357,-709 357,-687 136,-687"/>
<text text-anchor="start" x="156" y="-693.55" font-family="Helvetica,sans-Serif" font-size="11.00">status</text>
<polygon fill="none" stroke="black" points="357,-687 357,-709 455,-709 455,-687 357,-687"/>
<text text-anchor="start" x="360" y="-693.55" font-family="Helvetica,sans-Serif" font-size="11.00">int4[10]</text>
<polygon fill="none" stroke="black" points="136,-665 136,-687 357,-687 357,-665 136,-665"/>
<text text-anchor="start" x="156" y="-671.55" font-family="Helvetica,sans-Serif" font-size="11.00">v</text>
<polygon fill="none" stroke="black" points="357,-665 357,-687 455,-687 455,-665 357,-665"/>
<text text-anchor="start" x="360" y="-671.55" font-family="Helvetica,sans-Serif" font-size="11.00">numeric[100]</text>
<polygon fill="none" stroke="black" points="136,-643 136,-665 357,-665 357,-643 136,-643"/>
<text text-anchor="start" x="156" y="-649.55" font-family="Helvetica,sans-Serif" font-size="11.00">value</text>
<polygon fill="none" stroke="black" points="357,-643 357,-665 455,-665 455,-643 357,-643"/>
<text text-anchor="start" x="360" y="-649.55" font-family="Helvetica,sans-Serif" font-size="11.00">numeric[100]</text>
<polygon fill="#ffffff" stroke="none" points="136,-621 136,-643 357,-643 357,-621 136,-621"/>
<polygon fill="none" stroke="black" points="136,-621 136,-643 357,-643 357,-621 136,-621"/>
<text text-anchor="start" x="156" y="-627.55" font-family="Helvetica,sans-Serif" font-size="11.00">inserted_at</text>
<polygon fill="none" stroke="black" points="357,-621 357,-643 455,-643 455,-621 357,-621"/>
<text text-anchor="start" x="360" y="-627.55" font-family="Helvetica,sans-Serif" font-size="11.00">timestamp[29,6]</text>
<polygon fill="#ffffff" stroke="none" points="136,-599 136,-621 357,-621 357,-599 136,-599"/>
<polygon fill="none" stroke="black" points="136,-599 136,-621 357,-621 357,-599 136,-599"/>
<text text-anchor="start" x="156" y="-605.55" font-family="Helvetica,sans-Serif" font-size="11.00">updated_at</text>
<polygon fill="none" stroke="black" points="357,-599 357,-621 455,-621 455,-599 357,-599"/>
<text text-anchor="start" x="360" y="-605.55" font-family="Helvetica,sans-Serif" font-size="11.00">timestamp[29,6]</text>
<polygon fill="#ffffff" stroke="none" points="136,-577 136,-599 357,-599 357,-577 136,-577"/>
<polygon fill="none" stroke="black" points="136,-577 136,-599 357,-599 357,-577 136,-577"/>
<image xlink:href="../../images/foreignKeys.png" width="11px" height="12px" preserveAspectRatio="xMinYMin meet" x="141" y="-594"/>
<text text-anchor="start" x="156" y="-583.55" font-family="Helvetica,sans-Serif" font-size="11.00">block_hash</text>
<polygon fill="none" stroke="black" points="357,-577 357,-599 455,-599 455,-577 357,-577"/>
<text text-anchor="start" x="359.88" y="-583.55" font-family="Helvetica,sans-Serif" font-size="11.00">bytea[2147483647]</text>
<polygon fill="#ffffff" stroke="none" points="136,-555 136,-577 357,-577 357,-555 136,-555"/>
<polygon fill="none" stroke="black" points="136,-555 136,-577 357,-577 357,-555 136,-555"/>
<text text-anchor="start" x="156" y="-561.55" font-family="Helvetica,sans-Serif" font-size="11.00">block_number</text>
<polygon fill="none" stroke="black" points="357,-555 357,-577 455,-577 455,-555 357,-555"/>
<text text-anchor="start" x="360" y="-561.55" font-family="Helvetica,sans-Serif" font-size="11.00">int4[10]</text>
<polygon fill="#ffffff" stroke="none" points="136,-533 136,-555 357,-555 357,-533 136,-533"/>
<polygon fill="none" stroke="black" points="136,-533 136,-555 357,-555 357,-533 136,-533"/>
<text text-anchor="start" x="156" y="-539.55" font-family="Helvetica,sans-Serif" font-size="11.00">from_address_hash</text>
<polygon fill="none" stroke="black" points="357,-533 357,-555 455,-555 455,-533 357,-533"/>
<text text-anchor="start" x="359.88" y="-539.55" font-family="Helvetica,sans-Serif" font-size="11.00">bytea[2147483647]</text>
<polygon fill="#ffffff" stroke="none" points="136,-511 136,-533 357,-533 357,-511 136,-511"/>
<polygon fill="none" stroke="black" points="136,-511 136,-533 357,-533 357,-511 136,-511"/>
<text text-anchor="start" x="156" y="-517.55" font-family="Helvetica,sans-Serif" font-size="11.00">to_address_hash</text>
<polygon fill="none" stroke="black" points="357,-511 357,-533 455,-533 455,-511 357,-511"/>
<text text-anchor="start" x="359.88" y="-517.55" font-family="Helvetica,sans-Serif" font-size="11.00">bytea[2147483647]</text>
<polygon fill="#ffffff" stroke="none" points="136,-489 136,-511 357,-511 357,-489 136,-489"/>
<polygon fill="none" stroke="black" points="136,-489 136,-511 357,-511 357,-489 136,-489"/>
<text text-anchor="start" x="156" y="-495.55" font-family="Helvetica,sans-Serif" font-size="11.00">created_contract_address_hash</text>
<polygon fill="none" stroke="black" points="357,-489 357,-511 455,-511 455,-489 357,-489"/>
<text text-anchor="start" x="359.88" y="-495.55" font-family="Helvetica,sans-Serif" font-size="11.00">bytea[2147483647]</text>
<polygon fill="#ffffff" stroke="none" points="136,-467 136,-489 357,-489 357,-467 136,-467"/>
<polygon fill="none" stroke="black" points="136,-467 136,-489 357,-489 357,-467 136,-467"/>
<text text-anchor="start" x="156" y="-473.55" font-family="Helvetica,sans-Serif" font-size="11.00">created_contract_code_indexed_at</text>
<polygon fill="none" stroke="black" points="357,-467 357,-489 455,-489 455,-467 357,-467"/>
<text text-anchor="start" x="360" y="-473.55" font-family="Helvetica,sans-Serif" font-size="11.00">timestamp[29,6]</text>
<polygon fill="none" stroke="black" points="136,-445 136,-467 357,-467 357,-445 136,-445"/>
<text text-anchor="start" x="156" y="-451.55" font-family="Helvetica,sans-Serif" font-size="11.00">earliest_processing_start</text>
<polygon fill="none" stroke="black" points="357,-445 357,-467 455,-467 455,-445 357,-445"/>
<text text-anchor="start" x="360" y="-451.55" font-family="Helvetica,sans-Serif" font-size="11.00">timestamp[29,6]</text>
<polygon fill="none" stroke="black" points="136,-423 136,-445 357,-445 357,-423 136,-423"/>
<text text-anchor="start" x="156" y="-429.55" font-family="Helvetica,sans-Serif" font-size="11.00">old_block_hash</text>
<polygon fill="none" stroke="black" points="357,-423 357,-445 455,-445 455,-423 357,-423"/>
<text text-anchor="start" x="359.88" y="-429.55" font-family="Helvetica,sans-Serif" font-size="11.00">bytea[2147483647]</text>
<polygon fill="none" stroke="black" points="136,-401 136,-423 357,-423 357,-401 136,-401"/>
<text text-anchor="start" x="156" y="-407.55" font-family="Helvetica,sans-Serif" font-size="11.00">revert_reason</text>
<polygon fill="none" stroke="black" points="357,-401 357,-423 455,-423 455,-401 357,-401"/>
<text text-anchor="start" x="360" y="-407.55" font-family="Helvetica,sans-Serif" font-size="11.00">text[2147483647]</text>
<polygon fill="none" stroke="black" points="136,-379 136,-401 357,-401 357,-379 136,-379"/>
<text text-anchor="start" x="156" y="-385.55" font-family="Helvetica,sans-Serif" font-size="11.00">max_priority_fee_per_gas</text>
<polygon fill="none" stroke="black" points="357,-379 357,-401 455,-401 455,-379 357,-379"/>
<text text-anchor="start" x="360" y="-385.55" font-family="Helvetica,sans-Serif" font-size="11.00">numeric[100]</text>
<polygon fill="none" stroke="black" points="136,-357 136,-379 357,-379 357,-357 136,-357"/>
<text text-anchor="start" x="156" y="-363.55" font-family="Helvetica,sans-Serif" font-size="11.00">max_fee_per_gas</text>
<polygon fill="none" stroke="black" points="357,-357 357,-379 455,-379 455,-357 357,-357"/>
<text text-anchor="start" x="360" y="-363.55" font-family="Helvetica,sans-Serif" font-size="11.00">numeric[100]</text>
<polygon fill="none" stroke="black" points="136,-335 136,-357 357,-357 357,-335 136,-335"/>
<text text-anchor="start" x="156" y="-341.55" font-family="Helvetica,sans-Serif" font-size="11.00">type</text>
<polygon fill="none" stroke="black" points="357,-335 357,-357 455,-357 455,-335 357,-335"/>
<text text-anchor="start" x="360" y="-341.55" font-family="Helvetica,sans-Serif" font-size="11.00">int4[10]</text>
<polygon fill="none" stroke="black" points="136,-313 136,-335 357,-335 357,-313 136,-313"/>
<text text-anchor="start" x="156" y="-319.55" font-family="Helvetica,sans-Serif" font-size="11.00">has_error_in_internal_txs</text>
<polygon fill="none" stroke="black" points="357,-313 357,-335 455,-335 455,-313 357,-313"/>
<text text-anchor="start" x="360" y="-319.55" font-family="Helvetica,sans-Serif" font-size="11.00">bool[1]</text>
<polygon fill="#ffffff" stroke="none" points="136,-291 136,-313 357,-313 357,-291 136,-291"/>
<polygon fill="none" stroke="black" points="136,-291 136,-313 357,-313 357,-291 136,-291"/>
<text text-anchor="start" x="156" y="-297.55" font-family="Helvetica,sans-Serif" font-size="11.00">block_timestamp</text>
<polygon fill="none" stroke="black" points="357,-291 357,-313 455,-313 455,-291 357,-291"/>
<text text-anchor="start" x="360" y="-297.55" font-family="Helvetica,sans-Serif" font-size="11.00">timestamp[29,6]</text>
<polygon fill="#ffffff" stroke="none" points="136,-269 136,-291 357,-291 357,-269 136,-269"/>
<polygon fill="none" stroke="black" points="136,-269 136,-291 357,-291 357,-269 136,-269"/>
<text text-anchor="start" x="156" y="-275.55" font-family="Helvetica,sans-Serif" font-size="11.00">block_consensus</text>
<polygon fill="none" stroke="black" points="357,-269 357,-291 455,-291 455,-269 357,-269"/>
<text text-anchor="start" x="360" y="-275.55" font-family="Helvetica,sans-Serif" font-size="11.00">bool[1]</text>
<polygon fill="#ffffff" stroke="none" points="136,-251 136,-269 251,-269 251,-251 136,-251"/>
<polygon fill="none" stroke="black" points="136,-251 136,-269 251,-269 251,-251 136,-251"/>
<text text-anchor="start" x="139" y="-255.55" font-family="Helvetica,sans-Serif" font-size="11.00">&lt; 1</text>
<polygon fill="#ffffff" stroke="none" points="251,-251 251,-269 357,-269 357,-251 251,-251"/>
<polygon fill="none" stroke="black" points="251,-251 251,-269 357,-269 357,-251 251,-251"/>
<text text-anchor="start" x="348" y="-255.55" font-family="Helvetica,sans-Serif" font-size="11.00"> &#160;</text>
<polygon fill="#ffffff" stroke="none" points="357,-251 357,-269 455,-269 455,-251 357,-251"/>
<polygon fill="none" stroke="black" points="357,-251 357,-269 455,-269 455,-251 357,-251"/>
<text text-anchor="start" x="436.25" y="-255.55" font-family="Helvetica,sans-Serif" font-size="11.00">5 &gt;</text>
<polygon fill="none" stroke="black" stroke-width="2" points="135,-250 135,-974 456,-974 456,-250 135,-250"/>
</a>
</g>
</g>
<!-- internal_transactions&#45;&gt;transactions -->
<g id="edge4" class="edge">
<title>internal_transactions:w&#45;&gt;transactions:e</title>
<path fill="none" stroke="black" d="M501.3,-973.81C500.16,-972.57 499.05,-971.3 498,-970 457.1,-919.61 521.4,-830 456.5,-830"/>
<polygon fill="black" stroke="black" points="506.4,-978.5 509.85,-986.57 509.59,-981.44 512.05,-983.69 512.05,-983.69 512.05,-983.69 509.59,-981.44 514.73,-981.27 506.4,-978.5"/>
<ellipse fill="none" stroke="black" cx="502.78" cy="-975.17" rx="3.2" ry="3.2"/>
</g>
<!-- transactions&#45;&gt;blocks -->
<g id="edge13" class="edge">
<title>transactions:w&#45;&gt;blocks:e</title>
<path fill="none" stroke="black" d="M118.84,-588C110,-588 101.07,-588 92.65,-588"/>
<polygon fill="black" stroke="black" points="126.17,-588 134.17,-591.6 130.5,-588 133.83,-588 133.83,-588 133.83,-588 130.5,-588 134.17,-584.4 126.17,-588"/>
<ellipse fill="none" stroke="black" cx="121.25" cy="-588" rx="3.2" ry="3.2"/>
</g>
<!-- logs -->
<g id="node6" class="node">
<title>logs</title>
<g id="a_node6"><a xlink:href="../../tables/logs.html" xlink:title="logs" target="_top">
<polygon fill="#ffffff" stroke="none" points="554.5,-901 554.5,-959 617.5,-959 617.5,-901 554.5,-901"/>
<polygon fill="#f5f5f5" stroke="none" points="554.5,-937 554.5,-959 617.5,-959 617.5,-937 554.5,-937"/>
<polygon fill="none" stroke="black" points="554.5,-937 554.5,-959 617.5,-959 617.5,-937 554.5,-937"/>
<text text-anchor="start" x="558.25" y="-944.55" font-family="Helvetica,sans-Serif" font-weight="bold" font-size="11.00">logs</text>
<text text-anchor="start" x="583.5" y="-943.55" font-family="Helvetica,sans-Serif" font-size="11.00">[table]</text>
<polygon fill="none" stroke="black" points="554.5,-919 554.5,-937 617.5,-937 617.5,-919 554.5,-919"/>
<text text-anchor="start" x="557.5" y="-923.55" font-family="Helvetica,sans-Serif" font-size="11.00">...</text>
<polygon fill="#ffffff" stroke="none" points="554.5,-901 554.5,-919 584.5,-919 584.5,-901 554.5,-901"/>
<polygon fill="none" stroke="black" points="554.5,-901 554.5,-919 584.5,-919 584.5,-901 554.5,-901"/>
<text text-anchor="start" x="557.5" y="-905.55" font-family="Helvetica,sans-Serif" font-size="11.00">&lt; 2</text>
<polygon fill="#ffffff" stroke="none" points="584.5,-901 584.5,-919 600.5,-919 600.5,-901 584.5,-901"/>
<polygon fill="none" stroke="black" points="584.5,-901 584.5,-919 600.5,-919 600.5,-901 584.5,-901"/>
<text text-anchor="start" x="591.5" y="-905.55" font-family="Helvetica,sans-Serif" font-size="11.00"> &#160;</text>
<polygon fill="#ffffff" stroke="none" points="600.5,-901 600.5,-919 617.5,-919 617.5,-901 600.5,-901"/>
<polygon fill="none" stroke="black" points="600.5,-901 600.5,-919 617.5,-919 617.5,-901 600.5,-901"/>
<text text-anchor="start" x="608.5" y="-905.55" font-family="Helvetica,sans-Serif" font-size="11.00"> &#160;</text>
</a>
</g>
</g>
<!-- logs&#45;&gt;blocks -->
<g id="edge5" class="edge">
<title>logs:w&#45;&gt;blocks:e</title>
<path fill="none" stroke="black" d="M532.71,-960.45C512.29,-970.71 488.23,-980.85 465,-986 391.45,-1002.32 184.19,-1033.84 126,-986 69.62,-939.66 53.08,-707.5 48.82,-620.76"/>
<polygon fill="black" stroke="black" points="539.16,-957.08 547.92,-956.56 543,-955.07 545.95,-953.53 545.95,-953.53 545.95,-953.53 543,-955.07 544.58,-950.18 539.16,-957.08"/>
<ellipse fill="none" stroke="black" cx="534.8" cy="-959.36" rx="3.2" ry="3.2"/>
</g>
<!-- logs&#45;&gt;transactions -->
<g id="edge6" class="edge">
<title>logs:w&#45;&gt;transactions:e</title>
<path fill="none" stroke="black" d="M533.48,-899.77C521.44,-891.92 508.94,-883.09 498,-874 477.32,-856.82 483.38,-830 456.5,-830"/>
<polygon fill="black" stroke="black" points="539.74,-903.73 544.57,-911.05 543.4,-906.05 546.22,-907.83 546.22,-907.83 546.22,-907.83 543.4,-906.05 548.43,-904.97 539.74,-903.73"/>
<ellipse fill="none" stroke="black" cx="535.58" cy="-901.1" rx="3.2" ry="3.2"/>
</g>
<!-- pending_block_operations -->
<g id="node7" class="node">
<title>pending_block_operations</title>
<g id="a_node7"><a xlink:href="../../tables/pending_block_operations.html" xlink:title="pending_block_operations" target="_top">
<polygon fill="#ffffff" stroke="none" points="200,-170 200,-228 391,-228 391,-170 200,-170"/>
<polygon fill="#f5f5f5" stroke="none" points="200,-206 200,-228 391,-228 391,-206 200,-206"/>
<polygon fill="none" stroke="black" points="200,-206 200,-228 391,-228 391,-206 200,-206"/>
<text text-anchor="start" x="205" y="-213.55" font-family="Helvetica,sans-Serif" font-weight="bold" font-size="11.00">pending_block_operations</text>
<text text-anchor="start" x="357" y="-212.55" font-family="Helvetica,sans-Serif" font-size="11.00">[table]</text>
<polygon fill="none" stroke="black" points="200,-188 200,-206 391,-206 391,-188 200,-188"/>
<text text-anchor="start" x="203" y="-192.55" font-family="Helvetica,sans-Serif" font-size="11.00">...</text>
<polygon fill="#ffffff" stroke="none" points="200,-170 200,-188 294,-188 294,-170 200,-170"/>
<polygon fill="none" stroke="black" points="200,-170 200,-188 294,-188 294,-170 200,-170"/>
<text text-anchor="start" x="203" y="-174.55" font-family="Helvetica,sans-Serif" font-size="11.00">&lt; 1</text>
<polygon fill="#ffffff" stroke="none" points="294,-170 294,-188 342,-188 342,-170 294,-170"/>
<polygon fill="none" stroke="black" points="294,-170 294,-188 342,-188 342,-170 294,-170"/>
<text text-anchor="start" x="333" y="-174.55" font-family="Helvetica,sans-Serif" font-size="11.00"> &#160;</text>
<polygon fill="#ffffff" stroke="none" points="342,-170 342,-188 391,-188 391,-170 342,-170"/>
<polygon fill="none" stroke="black" points="342,-170 342,-188 391,-188 391,-170 342,-170"/>
<text text-anchor="start" x="382" y="-174.55" font-family="Helvetica,sans-Serif" font-size="11.00"> &#160;</text>
</a>
</g>
</g>
<!-- pending_block_operations&#45;&gt;blocks -->
<g id="edge7" class="edge">
<title>pending_block_operations:w&#45;&gt;blocks:e</title>
<path fill="none" stroke="black" d="M187.48,-197.41C158.38,-199.73 145.72,-212.15 126,-239 54.13,-336.86 46.25,-488.79 46.54,-555.13"/>
<polygon fill="black" stroke="black" points="197.55,-193.03 197.85,-201.03 196.25,-201.09 195.95,-193.09 197.55,-193.03"/>
<polyline fill="none" stroke="black" points="198.5,-197 194.5,-197.15"/>
<ellipse fill="none" stroke="black" cx="190.81" cy="-197.28" rx="3.2" ry="3.2"/>
</g>
<!-- token_transfers -->
<g id="node8" class="node">
<title>token_transfers</title>
<g id="a_node8"><a xlink:href="../../tables/token_transfers.html" xlink:title="token_transfers" target="_top">
<polygon fill="#ffffff" stroke="none" points="521.5,-521 521.5,-579 650.5,-579 650.5,-521 521.5,-521"/>
<polygon fill="#f5f5f5" stroke="none" points="521.5,-557 521.5,-579 650.5,-579 650.5,-557 521.5,-557"/>
<polygon fill="none" stroke="black" points="521.5,-557 521.5,-579 650.5,-579 650.5,-557 521.5,-557"/>
<text text-anchor="start" x="526.5" y="-564.55" font-family="Helvetica,sans-Serif" font-weight="bold" font-size="11.00">token_transfers</text>
<text text-anchor="start" x="616.5" y="-563.55" font-family="Helvetica,sans-Serif" font-size="11.00">[table]</text>
<polygon fill="none" stroke="black" points="521.5,-539 521.5,-557 650.5,-557 650.5,-539 521.5,-539"/>
<text text-anchor="start" x="524.5" y="-543.55" font-family="Helvetica,sans-Serif" font-size="11.00">...</text>
<polygon fill="#ffffff" stroke="none" points="521.5,-521 521.5,-539 584.5,-539 584.5,-521 521.5,-521"/>
<polygon fill="none" stroke="black" points="521.5,-521 521.5,-539 584.5,-539 584.5,-521 521.5,-521"/>
<text text-anchor="start" x="524.5" y="-525.55" font-family="Helvetica,sans-Serif" font-size="11.00">&lt; 2</text>
<polygon fill="#ffffff" stroke="none" points="584.5,-521 584.5,-539 617.5,-539 617.5,-521 584.5,-521"/>
<polygon fill="none" stroke="black" points="584.5,-521 584.5,-539 617.5,-539 617.5,-521 584.5,-521"/>
<text text-anchor="start" x="608.5" y="-525.55" font-family="Helvetica,sans-Serif" font-size="11.00"> &#160;</text>
<polygon fill="#ffffff" stroke="none" points="617.5,-521 617.5,-539 650.5,-539 650.5,-521 617.5,-521"/>
<polygon fill="none" stroke="black" points="617.5,-521 617.5,-539 650.5,-539 650.5,-521 617.5,-521"/>
<text text-anchor="start" x="641.5" y="-525.55" font-family="Helvetica,sans-Serif" font-size="11.00"> &#160;</text>
</a>
</g>
</g>
<!-- token_transfers&#45;&gt;blocks -->
<g id="edge8" class="edge">
<title>token_transfers:w&#45;&gt;blocks:e</title>
<path fill="none" stroke="black" d="M569.29,-502.37C551.48,-448.01 521.83,-356.35 498,-277 482.46,-225.25 508.08,-192.61 465,-160 434.97,-137.27 154.94,-135.89 126,-160 65.35,-210.54 51.41,-463.83 48.33,-555.13"/>
<polygon fill="black" stroke="black" points="571.6,-509.41 570.67,-518.14 572.95,-513.53 573.99,-516.7 573.99,-516.7 573.99,-516.7 572.95,-513.53 577.51,-515.89 571.6,-509.41"/>
<ellipse fill="none" stroke="black" cx="570.06" cy="-504.74" rx="3.2" ry="3.2"/>
</g>
<!-- token_transfers&#45;&gt;transactions -->
<g id="edge9" class="edge">
<title>token_transfers:w&#45;&gt;transactions:e</title>
<path fill="none" stroke="black" d="M556.56,-596.08C538.35,-626.79 515.02,-668.43 498,-707 474.7,-759.78 514.19,-830 456.5,-830"/>
<polygon fill="black" stroke="black" points="560.25,-589.94 567.45,-584.93 562.48,-586.23 564.19,-583.37 564.19,-583.37 564.19,-583.37 562.48,-586.23 561.27,-581.23 560.25,-589.94"/>
<ellipse fill="none" stroke="black" cx="557.72" cy="-594.16" rx="3.2" ry="3.2"/>
</g>
<!-- transaction_actions -->
<g id="node9" class="node">
<title>transaction_actions</title>
<g id="a_node9"><a xlink:href="../../tables/transaction_actions.html" xlink:title="transaction_actions" target="_top">
<polygon fill="#ffffff" stroke="none" points="510,-717 510,-863 662,-863 662,-717 510,-717"/>
<polygon fill="#f5f5f5" stroke="none" points="510,-841 510,-863 662,-863 662,-841 510,-841"/>
<polygon fill="none" stroke="black" points="510,-841 510,-863 662,-863 662,-841 510,-841"/>
<text text-anchor="start" x="515" y="-848.55" font-family="Helvetica,sans-Serif" font-weight="bold" font-size="11.00">transaction_actions</text>
<text text-anchor="start" x="628" y="-847.55" font-family="Helvetica,sans-Serif" font-size="11.00">[table]</text>
<polygon fill="none" stroke="black" points="510,-819 510,-841 662,-841 662,-819 510,-819"/>
<image xlink:href="../../images/primaryKeys.png" width="11px" height="12px" preserveAspectRatio="xMinYMin meet" x="515" y="-836"/>
<text text-anchor="start" x="539" y="-825.55" font-family="Helvetica,sans-Serif" font-size="11.00">hash</text>
<polygon fill="#ffffff" stroke="none" points="510,-797 510,-819 662,-819 662,-797 510,-797"/>
<polygon fill="none" stroke="black" points="510,-797 510,-819 662,-819 662,-797 510,-797"/>
<text text-anchor="start" x="539" y="-803.55" font-family="Helvetica,sans-Serif" font-size="11.00">protocol</text>
<polygon fill="#ffffff" stroke="none" points="510,-775 510,-797 662,-797 662,-775 510,-775"/>
<polygon fill="none" stroke="black" points="510,-775 510,-797 662,-797 662,-775 510,-775"/>
<text text-anchor="start" x="539" y="-781.55" font-family="Helvetica,sans-Serif" font-size="11.00">type</text>
<polygon fill="none" stroke="black" points="510,-753 510,-775 662,-775 662,-753 510,-753"/>
<image xlink:href="../../images/primaryKeys.png" width="11px" height="12px" preserveAspectRatio="xMinYMin meet" x="515" y="-770"/>
<text text-anchor="start" x="539" y="-759.55" font-family="Helvetica,sans-Serif" font-size="11.00">log_index</text>
<polygon fill="none" stroke="black" points="510,-735 510,-753 662,-753 662,-735 510,-735"/>
<text text-anchor="start" x="513" y="-739.55" font-family="Helvetica,sans-Serif" font-size="11.00">...</text>
<polygon fill="#ffffff" stroke="none" points="510,-717 510,-735 584,-735 584,-717 510,-717"/>
<polygon fill="none" stroke="black" points="510,-717 510,-735 584,-735 584,-717 510,-717"/>
<text text-anchor="start" x="513" y="-721.55" font-family="Helvetica,sans-Serif" font-size="11.00">&lt; 1</text>
<polygon fill="#ffffff" stroke="none" points="584,-717 584,-735 623,-735 623,-717 584,-717"/>
<polygon fill="none" stroke="black" points="584,-717 584,-735 623,-735 623,-717 584,-717"/>
<text text-anchor="start" x="614" y="-721.55" font-family="Helvetica,sans-Serif" font-size="11.00"> &#160;</text>
<polygon fill="#ffffff" stroke="none" points="623,-717 623,-735 662,-735 662,-717 623,-717"/>
<polygon fill="none" stroke="black" points="623,-717 623,-735 662,-735 662,-717 623,-717"/>
<text text-anchor="start" x="653" y="-721.55" font-family="Helvetica,sans-Serif" font-size="11.00"> &#160;</text>
</a>
</g>
</g>
<!-- transaction_actions&#45;&gt;transactions -->
<g id="edge10" class="edge">
<title>transaction_actions:w&#45;&gt;transactions:e</title>
<path fill="none" stroke="black" d="M493.45,-830C481.33,-830 473.64,-830 456.5,-830"/>
<polygon fill="black" stroke="black" points="500.67,-830 508.67,-833.6 505,-830 508.33,-830 508.33,-830 508.33,-830 505,-830 508.67,-826.4 500.67,-830"/>
<ellipse fill="none" stroke="black" cx="495.75" cy="-830" rx="3.2" ry="3.2"/>
</g>
<!-- transaction_forks -->
<g id="node10" class="node">
<title>transaction_forks</title>
<g id="a_node10"><a xlink:href="../../tables/transaction_forks.html" xlink:title="transaction_forks" target="_top">
<polygon fill="#ffffff" stroke="none" points="516.5,-208 516.5,-266 655.5,-266 655.5,-208 516.5,-208"/>
<polygon fill="#f5f5f5" stroke="none" points="516.5,-244 516.5,-266 655.5,-266 655.5,-244 516.5,-244"/>
<polygon fill="none" stroke="black" points="516.5,-244 516.5,-266 655.5,-266 655.5,-244 516.5,-244"/>
<text text-anchor="start" x="521.5" y="-251.55" font-family="Helvetica,sans-Serif" font-weight="bold" font-size="11.00">transaction_forks</text>
<text text-anchor="start" x="621.5" y="-250.55" font-family="Helvetica,sans-Serif" font-size="11.00">[table]</text>
<polygon fill="none" stroke="black" points="516.5,-226 516.5,-244 655.5,-244 655.5,-226 516.5,-226"/>
<text text-anchor="start" x="519.5" y="-230.55" font-family="Helvetica,sans-Serif" font-size="11.00">...</text>
<polygon fill="#ffffff" stroke="none" points="516.5,-208 516.5,-226 584.5,-226 584.5,-208 516.5,-208"/>
<polygon fill="none" stroke="black" points="516.5,-208 516.5,-226 584.5,-226 584.5,-208 516.5,-208"/>
<text text-anchor="start" x="519.5" y="-212.55" font-family="Helvetica,sans-Serif" font-size="11.00">&lt; 2</text>
<polygon fill="#ffffff" stroke="none" points="584.5,-208 584.5,-226 619.5,-226 619.5,-208 584.5,-208"/>
<polygon fill="none" stroke="black" points="584.5,-208 584.5,-226 619.5,-226 619.5,-208 584.5,-208"/>
<text text-anchor="start" x="610.5" y="-212.55" font-family="Helvetica,sans-Serif" font-size="11.00"> &#160;</text>
<polygon fill="#ffffff" stroke="none" points="619.5,-208 619.5,-226 655.5,-226 655.5,-208 619.5,-208"/>
<polygon fill="none" stroke="black" points="619.5,-208 619.5,-226 655.5,-226 655.5,-208 619.5,-208"/>
<text text-anchor="start" x="646.5" y="-212.55" font-family="Helvetica,sans-Serif" font-size="11.00"> &#160;</text>
</a>
</g>
</g>
<!-- transaction_forks&#45;&gt;blocks -->
<g id="edge12" class="edge">
<title>transaction_forks:w&#45;&gt;blocks:e</title>
<path fill="none" stroke="black" d="M545.48,-192.92C523.98,-172.29 495.57,-149.9 465,-139 394.04,-113.71 183.67,-90.53 126,-139 62.31,-192.52 50.29,-460.99 48.02,-555.23"/>
<polygon fill="black" stroke="black" points="550.78,-198.23 553.89,-206.43 553.85,-201.29 556.2,-203.65 556.2,-203.65 556.2,-203.65 553.85,-201.29 558.99,-201.34 550.78,-198.23"/>
<ellipse fill="none" stroke="black" cx="547.3" cy="-194.75" rx="3.2" ry="3.2"/>
</g>
<!-- transaction_forks&#45;&gt;transactions -->
<g id="edge11" class="edge">
<title>transaction_forks:w&#45;&gt;transactions:e</title>
<path fill="none" stroke="black" d="M567.12,-284.35C547.38,-338.42 516,-429.89 498,-511 490.26,-545.89 492.24,-830 456.5,-830"/>
<polygon fill="black" stroke="black" points="569.6,-277.62 575.75,-271.36 571.1,-273.55 572.25,-270.43 572.25,-270.43 572.25,-270.43 571.1,-273.55 568.99,-268.87 569.6,-277.62"/>
<ellipse fill="none" stroke="black" cx="567.9" cy="-282.23" rx="3.2" ry="3.2"/>
</g>
<!-- withdrawals -->
<g id="node11" class="node">
<title>withdrawals</title>
<g id="a_node11"><a xlink:href="../../tables/withdrawals.html" xlink:title="withdrawals" target="_top">
<polygon fill="#ffffff" stroke="none" points="242,-37 242,-95 349,-95 349,-37 242,-37"/>
<polygon fill="#f5f5f5" stroke="none" points="242,-73 242,-95 349,-95 349,-73 242,-73"/>
<polygon fill="none" stroke="black" points="242,-73 242,-95 349,-95 349,-73 242,-73"/>
<text text-anchor="start" x="247" y="-80.55" font-family="Helvetica,sans-Serif" font-weight="bold" font-size="11.00">withdrawals</text>
<text text-anchor="start" x="315" y="-79.55" font-family="Helvetica,sans-Serif" font-size="11.00">[table]</text>
<polygon fill="none" stroke="black" points="242,-55 242,-73 349,-73 349,-55 242,-55"/>
<text text-anchor="start" x="245" y="-59.55" font-family="Helvetica,sans-Serif" font-size="11.00">...</text>
<polygon fill="#ffffff" stroke="none" points="242,-37 242,-55 294,-55 294,-37 242,-37"/>
<polygon fill="none" stroke="black" points="242,-37 242,-55 294,-55 294,-37 242,-37"/>
<text text-anchor="start" x="245" y="-41.55" font-family="Helvetica,sans-Serif" font-size="11.00">&lt; 1</text>
<polygon fill="#ffffff" stroke="none" points="294,-37 294,-55 321,-55 321,-37 294,-37"/>
<polygon fill="none" stroke="black" points="294,-37 294,-55 321,-55 321,-37 294,-37"/>
<text text-anchor="start" x="312" y="-41.55" font-family="Helvetica,sans-Serif" font-size="11.00"> &#160;</text>
<polygon fill="#ffffff" stroke="none" points="321,-37 321,-55 349,-55 349,-37 321,-37"/>
<polygon fill="none" stroke="black" points="321,-37 321,-55 349,-55 349,-37 321,-37"/>
<text text-anchor="start" x="340" y="-41.55" font-family="Helvetica,sans-Serif" font-size="11.00"> &#160;</text>
</a>
</g>
</g>
<!-- withdrawals&#45;&gt;blocks -->
<g id="edge14" class="edge">
<title>withdrawals:w&#45;&gt;blocks:e</title>
<path fill="none" stroke="black" d="M224.7,-64.12C180.56,-64.91 156.87,-70.78 126,-109 70.14,-178.16 53.03,-458.72 48.75,-555.21"/>
<polygon fill="black" stroke="black" points="232.17,-64.06 240.19,-67.6 236.5,-64.03 239.83,-64 239.83,-64 239.83,-64 236.5,-64.03 240.14,-60.4 232.17,-64.06"/>
<ellipse fill="none" stroke="black" cx="227.25" cy="-64.1" rx="3.2" ry="3.2"/>
</g>
</g>
</svg>
