<?xml version="1.0" encoding="UTF-8" standalone="no"?>
<!DOCTYPE svg PUBLIC "-//W3C//DTD SVG 1.1//EN"
 "http://www.w3.org/Graphics/SVG/1.1/DTD/svg11.dtd">
<!-- Generated by graphviz version 9.0.0 (20230911.1827)
 -->
<!-- Title: twoDegreesRelationshipsDiagramImplied Pages: 1 -->
<svg width="922pt" height="631pt"
 viewBox="0.00 0.00 922.00 631.20" xmlns="http://www.w3.org/2000/svg" xmlns:xlink="http://www.w3.org/1999/xlink">
<g id="graph0" class="graph" transform="scale(1 1) rotate(0) translate(4 627.2)">
<title>twoDegreesRelationshipsDiagramImplied</title>
<polygon fill="#ffffff" stroke="none" points="-4,4 -4,-627.2 918,-627.2 918,4 -4,4"/>
<text text-anchor="middle" x="71.38" y="-5.55" font-family="Helvetica,sans-Serif" font-size="11.00">Generated by SchemaSpy</text>
<!-- internal_transactions -->
<g id="node1" class="node">
<title>internal_transactions</title>
<g id="a_node1"><a xlink:href="../../tables/internal_transactions.html" xlink:title="internal_transactions" target="_top">
<polygon fill="#ffffff" stroke="none" points="653,-535.35 653,-593.35 813,-593.35 813,-535.35 653,-535.35"/>
<polygon fill="#f5f5f5" stroke="none" points="653,-571.35 653,-593.35 813,-593.35 813,-571.35 653,-571.35"/>
<polygon fill="none" stroke="black" points="653,-571.35 653,-593.35 813,-593.35 813,-571.35 653,-571.35"/>
<text text-anchor="start" x="658" y="-578.9" font-family="Helvetica,sans-Serif" font-weight="bold" font-size="11.00">internal_transactions</text>
<text text-anchor="start" x="779" y="-577.9" font-family="Helvetica,sans-Serif" font-size="11.00">[table]</text>
<polygon fill="none" stroke="black" points="653,-553.35 653,-571.35 813,-571.35 813,-553.35 653,-553.35"/>
<text text-anchor="start" x="656" y="-557.9" font-family="Helvetica,sans-Serif" font-size="11.00">...</text>
<polygon fill="#ffffff" stroke="none" points="653,-535.35 653,-553.35 731,-553.35 731,-535.35 653,-535.35"/>
<polygon fill="none" stroke="black" points="653,-535.35 653,-553.35 731,-553.35 731,-535.35 653,-535.35"/>
<text text-anchor="start" x="656" y="-539.9" font-family="Helvetica,sans-Serif" font-size="11.00">&lt; 4</text>
<polygon fill="#ffffff" stroke="none" points="731,-535.35 731,-553.35 772,-553.35 772,-535.35 731,-535.35"/>
<polygon fill="none" stroke="black" points="731,-535.35 731,-553.35 772,-553.35 772,-535.35 731,-535.35"/>
<text text-anchor="start" x="763" y="-539.9" font-family="Helvetica,sans-Serif" font-size="11.00"> &#160;</text>
<polygon fill="#ffffff" stroke="none" points="772,-535.35 772,-553.35 813,-553.35 813,-535.35 772,-535.35"/>
<polygon fill="none" stroke="black" points="772,-535.35 772,-553.35 813,-553.35 813,-535.35 772,-535.35"/>
<text text-anchor="start" x="804" y="-539.9" font-family="Helvetica,sans-Serif" font-size="11.00"> &#160;</text>
</a>
</g>
</g>
<!-- blocks -->
<g id="node2" class="node">
<title>blocks</title>
<g id="a_node2"><a xlink:href="../../tables/blocks.html" xlink:title="blocks" target="_top">
<polygon fill="#ffffff" stroke="none" points="8,-205.35 8,-263.35 85,-263.35 85,-205.35 8,-205.35"/>
<polygon fill="#f5f5f5" stroke="none" points="8,-241.35 8,-263.35 85,-263.35 85,-241.35 8,-241.35"/>
<polygon fill="none" stroke="black" points="8,-241.35 8,-263.35 85,-263.35 85,-241.35 8,-241.35"/>
<text text-anchor="start" x="12.75" y="-248.9" font-family="Helvetica,sans-Serif" font-weight="bold" font-size="11.00">blocks</text>
<text text-anchor="start" x="51" y="-247.9" font-family="Helvetica,sans-Serif" font-size="11.00">[table]</text>
<polygon fill="none" stroke="black" points="8,-223.35 8,-241.35 85,-241.35 85,-223.35 8,-223.35"/>
<text text-anchor="start" x="11" y="-227.9" font-family="Helvetica,sans-Serif" font-size="11.00">...</text>
<polygon fill="#ffffff" stroke="none" points="8,-205.35 8,-223.35 36,-223.35 36,-205.35 8,-205.35"/>
<polygon fill="none" stroke="black" points="8,-205.35 8,-223.35 36,-223.35 36,-205.35 8,-205.35"/>
<text text-anchor="start" x="11" y="-209.9" font-family="Helvetica,sans-Serif" font-size="11.00"> &#160;</text>
<polygon fill="#ffffff" stroke="none" points="36,-205.35 36,-223.35 56,-223.35 56,-205.35 36,-205.35"/>
<polygon fill="none" stroke="black" points="36,-205.35 36,-223.35 56,-223.35 56,-205.35 36,-205.35"/>
<text text-anchor="start" x="47" y="-209.9" font-family="Helvetica,sans-Serif" font-size="11.00"> &#160;</text>
<polygon fill="#ffffff" stroke="none" points="56,-205.35 56,-223.35 85,-223.35 85,-205.35 56,-205.35"/>
<polygon fill="none" stroke="black" points="56,-205.35 56,-223.35 85,-223.35 85,-205.35 56,-205.35"/>
<text text-anchor="start" x="66.25" y="-209.9" font-family="Helvetica,sans-Serif" font-size="11.00">9 &gt;</text>
</a>
</g>
</g>
<!-- internal_transactions&#45;&gt;blocks -->
<g id="edge1" class="edge">
<title>internal_transactions:w&#45;&gt;blocks:e</title>
<path fill="none" stroke="black" d="M636.38,-562.57C411.99,-568.95 280.54,-708.97 126,-540.35 79.38,-489.48 155.51,-232.35 86.5,-232.35"/>
<polygon fill="black" stroke="black" points="643.67,-562.47 651.72,-565.95 648,-562.4 651.33,-562.36 651.33,-562.36 651.33,-562.36 648,-562.4 651.61,-558.75 643.67,-562.47"/>
<ellipse fill="none" stroke="black" cx="638.75" cy="-562.54" rx="3.2" ry="3.2"/>
</g>
<!-- withdrawals -->
<g id="node3" class="node">
<title>withdrawals</title>
<g id="a_node3"><a xlink:href="../../tables/withdrawals.html" xlink:title="withdrawals" target="_top">
<polygon fill="#ffffff" stroke="none" points="134,-471.35 134,-529.35 241,-529.35 241,-471.35 134,-471.35"/>
<polygon fill="#f5f5f5" stroke="none" points="134,-507.35 134,-529.35 241,-529.35 241,-507.35 134,-507.35"/>
<polygon fill="none" stroke="black" points="134,-507.35 134,-529.35 241,-529.35 241,-507.35 134,-507.35"/>
<text text-anchor="start" x="139" y="-514.9" font-family="Helvetica,sans-Serif" font-weight="bold" font-size="11.00">withdrawals</text>
<text text-anchor="start" x="207" y="-513.9" font-family="Helvetica,sans-Serif" font-size="11.00">[table]</text>
<polygon fill="none" stroke="black" points="134,-489.35 134,-507.35 241,-507.35 241,-489.35 134,-489.35"/>
<text text-anchor="start" x="137" y="-493.9" font-family="Helvetica,sans-Serif" font-size="11.00">...</text>
<polygon fill="#ffffff" stroke="none" points="134,-471.35 134,-489.35 181,-489.35 181,-471.35 134,-471.35"/>
<polygon fill="none" stroke="black" points="134,-471.35 134,-489.35 181,-489.35 181,-471.35 134,-471.35"/>
<text text-anchor="start" x="137" y="-475.9" font-family="Helvetica,sans-Serif" font-size="11.00">&lt; 1</text>
<polygon fill="#ffffff" stroke="none" points="181,-471.35 181,-489.35 206,-489.35 206,-471.35 181,-471.35"/>
<polygon fill="none" stroke="black" points="181,-471.35 181,-489.35 206,-489.35 206,-471.35 181,-471.35"/>
<text text-anchor="start" x="197" y="-475.9" font-family="Helvetica,sans-Serif" font-size="11.00"> &#160;</text>
<polygon fill="#ffffff" stroke="none" points="206,-471.35 206,-489.35 241,-489.35 241,-471.35 206,-471.35"/>
<polygon fill="none" stroke="black" points="206,-471.35 206,-489.35 241,-489.35 241,-471.35 206,-471.35"/>
<text text-anchor="start" x="222.25" y="-475.9" font-family="Helvetica,sans-Serif" font-size="11.00">5 &gt;</text>
</a>
</g>
</g>
<!-- internal_transactions&#45;&gt;withdrawals -->
<g id="edge2" class="edge">
<title>internal_transactions:w&#45;&gt;withdrawals:e</title>
<path fill="none" stroke="black" stroke-dasharray="5,2" d="M636.41,-562.51C483.56,-565.62 425.43,-612.78 282,-543.35 258.05,-531.75 269.11,-498.35 242.5,-498.35"/>
<polygon fill="black" stroke="black" points="643.67,-562.43 651.7,-565.95 648,-562.39 651.33,-562.35 651.33,-562.35 651.33,-562.35 648,-562.39 651.63,-558.75 643.67,-562.43"/>
<ellipse fill="none" stroke="black" cx="638.75" cy="-562.48" rx="3.2" ry="3.2"/>
</g>
<!-- internal_transactions&#45;&gt;withdrawals -->
<g id="edge4" class="edge">
<title>internal_transactions:w&#45;&gt;withdrawals:e</title>
<path fill="none" stroke="black" stroke-dasharray="5,2" d="M636.4,-562.49C483.55,-565.2 426.73,-606.26 282,-539.35 259.03,-528.73 267.8,-498.35 242.5,-498.35"/>
<polygon fill="black" stroke="black" points="643.67,-562.42 651.7,-565.95 648,-562.38 651.33,-562.35 651.33,-562.35 651.33,-562.35 648,-562.38 651.63,-558.75 643.67,-562.42"/>
<ellipse fill="none" stroke="black" cx="638.75" cy="-562.47" rx="3.2" ry="3.2"/>
</g>
<!-- transactions -->
<g id="node4" class="node">
<title>transactions</title>
<g id="a_node4"><a xlink:href="../../tables/transactions.html" xlink:title="transactions" target="_top">
<polygon fill="#ffffff" stroke="none" points="290,-144.35 290,-532.35 511,-532.35 511,-144.35 290,-144.35"/>
<polygon fill="#f5f5f5" stroke="none" points="290,-510.35 290,-532.35 511,-532.35 511,-510.35 290,-510.35"/>
<polygon fill="none" stroke="black" points="290,-510.35 290,-532.35 511,-532.35 511,-510.35 290,-510.35"/>
<text text-anchor="start" x="295" y="-517.9" font-family="Helvetica,sans-Serif" font-weight="bold" font-size="11.00">transactions</text>
<text text-anchor="start" x="476.75" y="-516.9" font-family="Helvetica,sans-Serif" font-size="11.00">[table]</text>
<polygon fill="#ffffff" stroke="none" points="290,-488.35 290,-510.35 511,-510.35 511,-488.35 290,-488.35"/>
<polygon fill="none" stroke="black" points="290,-488.35 290,-510.35 511,-510.35 511,-488.35 290,-488.35"/>
<text text-anchor="start" x="310" y="-494.9" font-family="Helvetica,sans-Serif" font-size="11.00">error</text>
<polygon fill="none" stroke="black" points="290,-466.35 290,-488.35 511,-488.35 511,-466.35 290,-466.35"/>
<image xlink:href="../../images/primaryKeys.png" width="11px" height="12px" preserveAspectRatio="xMinYMin meet" x="295" y="-483.348"/>
<text text-anchor="start" x="310" y="-472.9" font-family="Helvetica,sans-Serif" font-size="11.00">hash</text>
<polygon fill="#ffffff" stroke="none" points="290,-444.35 290,-466.35 511,-466.35 511,-444.35 290,-444.35"/>
<polygon fill="none" stroke="black" points="290,-444.35 290,-466.35 511,-466.35 511,-444.35 290,-444.35"/>
<image xlink:href="../../images/foreignKeys.png" width="11px" height="12px" preserveAspectRatio="xMinYMin meet" x="295" y="-461.348"/>
<text text-anchor="start" x="310" y="-450.9" font-family="Helvetica,sans-Serif" font-size="11.00">index</text>
<polygon fill="#ffffff" stroke="none" points="290,-422.35 290,-444.35 511,-444.35 511,-422.35 290,-422.35"/>
<polygon fill="none" stroke="black" points="290,-422.35 290,-444.35 511,-444.35 511,-422.35 290,-422.35"/>
<text text-anchor="start" x="310" y="-428.9" font-family="Helvetica,sans-Serif" font-size="11.00">nonce</text>
<polygon fill="#ffffff" stroke="none" points="290,-400.35 290,-422.35 511,-422.35 511,-400.35 290,-400.35"/>
<polygon fill="none" stroke="black" points="290,-400.35 290,-422.35 511,-422.35 511,-400.35 290,-400.35"/>
<text text-anchor="start" x="310" y="-406.9" font-family="Helvetica,sans-Serif" font-size="11.00">status</text>
<polygon fill="#ffffff" stroke="none" points="290,-378.35 290,-400.35 511,-400.35 511,-378.35 290,-378.35"/>
<polygon fill="none" stroke="black" points="290,-378.35 290,-400.35 511,-400.35 511,-378.35 290,-378.35"/>
<text text-anchor="start" x="310" y="-384.9" font-family="Helvetica,sans-Serif" font-size="11.00">inserted_at</text>
<polygon fill="#ffffff" stroke="none" points="290,-356.35 290,-378.35 511,-378.35 511,-356.35 290,-356.35"/>
<polygon fill="none" stroke="black" points="290,-356.35 290,-378.35 511,-378.35 511,-356.35 290,-356.35"/>
<text text-anchor="start" x="310" y="-362.9" font-family="Helvetica,sans-Serif" font-size="11.00">updated_at</text>
<polygon fill="#ffffff" stroke="none" points="290,-334.35 290,-356.35 511,-356.35 511,-334.35 290,-334.35"/>
<polygon fill="none" stroke="black" points="290,-334.35 290,-356.35 511,-356.35 511,-334.35 290,-334.35"/>
<image xlink:href="../../images/foreignKeys.png" width="11px" height="12px" preserveAspectRatio="xMinYMin meet" x="295" y="-351.348"/>
<text text-anchor="start" x="310" y="-340.9" font-family="Helvetica,sans-Serif" font-size="11.00">block_hash</text>
<polygon fill="#ffffff" stroke="none" points="290,-312.35 290,-334.35 511,-334.35 511,-312.35 290,-312.35"/>
<polygon fill="none" stroke="black" points="290,-312.35 290,-334.35 511,-334.35 511,-312.35 290,-312.35"/>
<text text-anchor="start" x="310" y="-318.9" font-family="Helvetica,sans-Serif" font-size="11.00">block_number</text>
<polygon fill="#ffffff" stroke="none" points="290,-290.35 290,-312.35 511,-312.35 511,-290.35 290,-290.35"/>
<polygon fill="none" stroke="black" points="290,-290.35 290,-312.35 511,-312.35 511,-290.35 290,-290.35"/>
<text text-anchor="start" x="310" y="-296.9" font-family="Helvetica,sans-Serif" font-size="11.00">from_address_hash</text>
<polygon fill="#ffffff" stroke="none" points="290,-268.35 290,-290.35 511,-290.35 511,-268.35 290,-268.35"/>
<polygon fill="none" stroke="black" points="290,-268.35 290,-290.35 511,-290.35 511,-268.35 290,-268.35"/>
<text text-anchor="start" x="310" y="-274.9" font-family="Helvetica,sans-Serif" font-size="11.00">to_address_hash</text>
<polygon fill="#ffffff" stroke="none" points="290,-246.35 290,-268.35 511,-268.35 511,-246.35 290,-246.35"/>
<polygon fill="none" stroke="black" points="290,-246.35 290,-268.35 511,-268.35 511,-246.35 290,-246.35"/>
<text text-anchor="start" x="310" y="-252.9" font-family="Helvetica,sans-Serif" font-size="11.00">created_contract_address_hash</text>
<polygon fill="#ffffff" stroke="none" points="290,-224.35 290,-246.35 511,-246.35 511,-224.35 290,-224.35"/>
<polygon fill="none" stroke="black" points="290,-224.35 290,-246.35 511,-246.35 511,-224.35 290,-224.35"/>
<text text-anchor="start" x="310" y="-230.9" font-family="Helvetica,sans-Serif" font-size="11.00">created_contract_code_indexed_at</text>
<polygon fill="#ffffff" stroke="none" points="290,-202.35 290,-224.35 511,-224.35 511,-202.35 290,-202.35"/>
<polygon fill="none" stroke="black" points="290,-202.35 290,-224.35 511,-224.35 511,-202.35 290,-202.35"/>
<text text-anchor="start" x="310" y="-208.9" font-family="Helvetica,sans-Serif" font-size="11.00">block_timestamp</text>
<polygon fill="#ffffff" stroke="none" points="290,-180.35 290,-202.35 511,-202.35 511,-180.35 290,-180.35"/>
<polygon fill="none" stroke="black" points="290,-180.35 290,-202.35 511,-202.35 511,-180.35 290,-180.35"/>
<text text-anchor="start" x="310" y="-186.9" font-family="Helvetica,sans-Serif" font-size="11.00">block_consensus</text>
<polygon fill="none" stroke="black" points="290,-162.35 290,-180.35 511,-180.35 511,-162.35 290,-162.35"/>
<text text-anchor="start" x="293" y="-166.9" font-family="Helvetica,sans-Serif" font-size="11.00">...</text>
<polygon fill="#ffffff" stroke="none" points="290,-144.35 290,-162.35 394,-162.35 394,-144.35 290,-144.35"/>
<polygon fill="none" stroke="black" points="290,-144.35 290,-162.35 394,-162.35 394,-144.35 290,-144.35"/>
<text text-anchor="start" x="293" y="-148.9" font-family="Helvetica,sans-Serif" font-size="11.00">&lt; 2</text>
<polygon fill="#ffffff" stroke="none" points="394,-144.35 394,-162.35 448,-162.35 448,-144.35 394,-144.35"/>
<polygon fill="none" stroke="black" points="394,-144.35 394,-162.35 448,-162.35 448,-144.35 394,-144.35"/>
<text text-anchor="start" x="439" y="-148.9" font-family="Helvetica,sans-Serif" font-size="11.00"> &#160;</text>
<polygon fill="#ffffff" stroke="none" points="448,-144.35 448,-162.35 511,-162.35 511,-144.35 448,-144.35"/>
<polygon fill="none" stroke="black" points="448,-144.35 448,-162.35 511,-162.35 511,-144.35 448,-144.35"/>
<text text-anchor="start" x="492.25" y="-148.9" font-family="Helvetica,sans-Serif" font-size="11.00">5 &gt;</text>
</a>
</g>
</g>
<!-- internal_transactions&#45;&gt;transactions -->
<g id="edge3" class="edge">
<title>internal_transactions:w&#45;&gt;transactions:e</title>
<path fill="none" stroke="black" d="M636.55,-561.87C600.81,-559.45 586.36,-547.7 552,-523.35 530.01,-507.77 539.45,-477.35 512.5,-477.35"/>
<polygon fill="black" stroke="black" points="643.67,-562.09 651.55,-565.94 648,-562.22 651.33,-562.33 651.33,-562.33 651.33,-562.33 648,-562.22 651.78,-558.74 643.67,-562.09"/>
<ellipse fill="none" stroke="black" cx="638.75" cy="-561.94" rx="3.2" ry="3.2"/>
</g>
<!-- withdrawals&#45;&gt;blocks -->
<g id="edge14" class="edge">
<title>withdrawals:w&#45;&gt;blocks:e</title>
<path fill="none" stroke="black" d="M118.51,-491.23C85.68,-448.93 140.63,-232.35 86.5,-232.35"/>
<polygon fill="black" stroke="black" points="125.07,-494.57 130.57,-501.41 128.93,-496.53 131.9,-498.04 131.9,-498.04 131.9,-498.04 128.93,-496.53 133.83,-494.99 125.07,-494.57"/>
<ellipse fill="none" stroke="black" cx="120.69" cy="-492.34" rx="3.2" ry="3.2"/>
</g>
<!-- transactions&#45;&gt;blocks -->
<g id="edge12" class="edge">
<title>transactions:w&#45;&gt;blocks:e</title>
<path fill="none" stroke="black" d="M272.81,-344.4C185.72,-333.54 183.85,-232.35 86.5,-232.35"/>
<polygon fill="black" stroke="black" points="280.18,-344.85 287.95,-348.92 284.51,-345.11 287.83,-345.31 287.83,-345.31 287.83,-345.31 284.51,-345.11 288.38,-341.73 280.18,-344.85"/>
<ellipse fill="none" stroke="black" cx="275.27" cy="-344.55" rx="3.2" ry="3.2"/>
</g>
<!-- transactions&#45;&gt;withdrawals -->
<g id="edge13" class="edge">
<title>transactions:w&#45;&gt;withdrawals:e</title>
<path fill="none" stroke="black" stroke-dasharray="5,2" d="M274.1,-461.33C263.1,-473.14 263.93,-498.35 242.5,-498.35"/>
<polygon fill="black" stroke="black" points="280.8,-458.54 289.57,-458.8 284.81,-456.88 287.88,-455.6 287.88,-455.6 287.88,-455.6 284.81,-456.88 286.81,-452.15 280.8,-458.54"/>
<ellipse fill="none" stroke="black" cx="276.26" cy="-460.43" rx="3.2" ry="3.2"/>
</g>
<!-- logs -->
<g id="node5" class="node">
<title>logs</title>
<g id="a_node5"><a xlink:href="../../tables/logs.html" xlink:title="logs" target="_top">
<polygon fill="#ffffff" stroke="none" points="701.5,-230.35 701.5,-288.35 764.5,-288.35 764.5,-230.35 701.5,-230.35"/>
<polygon fill="#f5f5f5" stroke="none" points="701.5,-266.35 701.5,-288.35 764.5,-288.35 764.5,-266.35 701.5,-266.35"/>
<polygon fill="none" stroke="black" points="701.5,-266.35 701.5,-288.35 764.5,-288.35 764.5,-266.35 701.5,-266.35"/>
<text text-anchor="start" x="705.25" y="-273.9" font-family="Helvetica,sans-Serif" font-weight="bold" font-size="11.00">logs</text>
<text text-anchor="start" x="730.5" y="-272.9" font-family="Helvetica,sans-Serif" font-size="11.00">[table]</text>
<polygon fill="none" stroke="black" points="701.5,-248.35 701.5,-266.35 764.5,-266.35 764.5,-248.35 701.5,-248.35"/>
<text text-anchor="start" x="704.5" y="-252.9" font-family="Helvetica,sans-Serif" font-size="11.00">...</text>
<polygon fill="#ffffff" stroke="none" points="701.5,-230.35 701.5,-248.35 731.5,-248.35 731.5,-230.35 701.5,-230.35"/>
<polygon fill="none" stroke="black" points="701.5,-230.35 701.5,-248.35 731.5,-248.35 731.5,-230.35 701.5,-230.35"/>
<text text-anchor="start" x="704.5" y="-234.9" font-family="Helvetica,sans-Serif" font-size="11.00">&lt; 2</text>
<polygon fill="#ffffff" stroke="none" points="731.5,-230.35 731.5,-248.35 747.5,-248.35 747.5,-230.35 731.5,-230.35"/>
<polygon fill="none" stroke="black" points="731.5,-230.35 731.5,-248.35 747.5,-248.35 747.5,-230.35 731.5,-230.35"/>
<text text-anchor="start" x="738.5" y="-234.9" font-family="Helvetica,sans-Serif" font-size="11.00"> &#160;</text>
<polygon fill="#ffffff" stroke="none" points="747.5,-230.35 747.5,-248.35 764.5,-248.35 764.5,-230.35 747.5,-230.35"/>
<polygon fill="none" stroke="black" points="747.5,-230.35 747.5,-248.35 764.5,-248.35 764.5,-230.35 747.5,-230.35"/>
<text text-anchor="start" x="755.5" y="-234.9" font-family="Helvetica,sans-Serif" font-size="11.00"> &#160;</text>
</a>
</g>
</g>
<!-- logs&#45;&gt;blocks -->
<g id="edge5" class="edge">
<title>logs:w&#45;&gt;blocks:e</title>
<path fill="none" stroke="black" d="M684.21,-257.33C626.49,-257.07 599.07,-253.78 552,-211.35 524.35,-186.42 550.08,-154.84 519,-134.35 475.03,-105.36 333.25,-122.22 282,-134.35 187.42,-156.73 183.69,-232.35 86.5,-232.35"/>
<polygon fill="black" stroke="black" points="691.67,-257.34 699.66,-260.95 696,-257.34 699.33,-257.35 699.33,-257.35 699.33,-257.35 696,-257.34 699.67,-253.75 691.67,-257.34"/>
<ellipse fill="none" stroke="black" cx="686.75" cy="-257.33" rx="3.2" ry="3.2"/>
</g>
<!-- logs&#45;&gt;transactions -->
<g id="edge6" class="edge">
<title>logs:w&#45;&gt;transactions:e</title>
<path fill="none" stroke="black" d="M684.47,-257.31C625.86,-257.09 595.08,-257.53 552,-304.35 498.59,-362.38 591.37,-477.35 512.5,-477.35"/>
<polygon fill="black" stroke="black" points="691.67,-257.33 699.66,-260.95 696,-257.34 699.33,-257.35 699.33,-257.35 699.33,-257.35 696,-257.34 699.68,-253.75 691.67,-257.33"/>
<ellipse fill="none" stroke="black" cx="686.75" cy="-257.31" rx="3.2" ry="3.2"/>
</g>
<!-- token_transfers -->
<g id="node6" class="node">
<title>token_transfers</title>
<g id="a_node6"><a xlink:href="../../tables/token_transfers.html" xlink:title="token_transfers" target="_top">
<polygon fill="#ffffff" stroke="none" points="668.5,-142.35 668.5,-200.35 797.5,-200.35 797.5,-142.35 668.5,-142.35"/>
<polygon fill="#f5f5f5" stroke="none" points="668.5,-178.35 668.5,-200.35 797.5,-200.35 797.5,-178.35 668.5,-178.35"/>
<polygon fill="none" stroke="black" points="668.5,-178.35 668.5,-200.35 797.5,-200.35 797.5,-178.35 668.5,-178.35"/>
<text text-anchor="start" x="673.5" y="-185.9" font-family="Helvetica,sans-Serif" font-weight="bold" font-size="11.00">token_transfers</text>
<text text-anchor="start" x="763.5" y="-184.9" font-family="Helvetica,sans-Serif" font-size="11.00">[table]</text>
<polygon fill="none" stroke="black" points="668.5,-160.35 668.5,-178.35 797.5,-178.35 797.5,-160.35 668.5,-160.35"/>
<text text-anchor="start" x="671.5" y="-164.9" font-family="Helvetica,sans-Serif" font-size="11.00">...</text>
<polygon fill="#ffffff" stroke="none" points="668.5,-142.35 668.5,-160.35 731.5,-160.35 731.5,-142.35 668.5,-142.35"/>
<polygon fill="none" stroke="black" points="668.5,-142.35 668.5,-160.35 731.5,-160.35 731.5,-142.35 668.5,-142.35"/>
<text text-anchor="start" x="671.5" y="-146.9" font-family="Helvetica,sans-Serif" font-size="11.00">&lt; 2</text>
<polygon fill="#ffffff" stroke="none" points="731.5,-142.35 731.5,-160.35 764.5,-160.35 764.5,-142.35 731.5,-142.35"/>
<polygon fill="none" stroke="black" points="731.5,-142.35 731.5,-160.35 764.5,-160.35 764.5,-142.35 731.5,-142.35"/>
<text text-anchor="start" x="755.5" y="-146.9" font-family="Helvetica,sans-Serif" font-size="11.00"> &#160;</text>
<polygon fill="#ffffff" stroke="none" points="764.5,-142.35 764.5,-160.35 797.5,-160.35 797.5,-142.35 764.5,-142.35"/>
<polygon fill="none" stroke="black" points="764.5,-142.35 764.5,-160.35 797.5,-160.35 797.5,-142.35 764.5,-142.35"/>
<text text-anchor="start" x="788.5" y="-146.9" font-family="Helvetica,sans-Serif" font-size="11.00"> &#160;</text>
</a>
</g>
</g>
<!-- token_transfers&#45;&gt;blocks -->
<g id="edge7" class="edge">
<title>token_transfers:w&#45;&gt;blocks:e</title>
<path fill="none" stroke="black" d="M651.26,-168.57C595.04,-162.72 582.53,-125.77 519,-114.35 415.33,-95.71 386.89,-104.68 282,-114.35 211.78,-120.82 181.34,-99.64 126,-143.35 92.04,-170.17 129.78,-232.35 86.5,-232.35"/>
<polygon fill="black" stroke="black" points="658.68,-168.93 666.49,-172.93 663,-169.15 666.33,-169.31 666.33,-169.31 666.33,-169.31 663,-169.15 666.84,-165.74 658.68,-168.93"/>
<ellipse fill="none" stroke="black" cx="653.76" cy="-168.69" rx="3.2" ry="3.2"/>
</g>
<!-- token_transfers&#45;&gt;transactions -->
<g id="edge8" class="edge">
<title>token_transfers:w&#45;&gt;transactions:e</title>
<path fill="none" stroke="black" d="M651.17,-169.57C606,-171.04 582.58,-180.36 552,-220.35 516.9,-266.24 570.28,-477.35 512.5,-477.35"/>
<polygon fill="black" stroke="black" points="658.67,-169.47 666.72,-172.95 663,-169.41 666.33,-169.36 666.33,-169.36 666.33,-169.36 663,-169.41 666.61,-165.75 658.67,-169.47"/>
<ellipse fill="none" stroke="black" cx="653.75" cy="-169.54" rx="3.2" ry="3.2"/>
</g>
<!-- transaction_actions -->
<g id="node7" class="node">
<title>transaction_actions</title>
<g id="a_node7"><a xlink:href="../../tables/transaction_actions.html" xlink:title="transaction_actions" target="_top">
<polygon fill="#ffffff" stroke="none" points="560,-314.35 560,-512.35 906,-512.35 906,-314.35 560,-314.35"/>
<polygon fill="#f5f5f5" stroke="none" points="562,-488.35 562,-510.35 904,-510.35 904,-488.35 562,-488.35"/>
<polygon fill="none" stroke="black" points="562,-488.35 562,-510.35 904,-510.35 904,-488.35 562,-488.35"/>
<text text-anchor="start" x="567" y="-495.9" font-family="Helvetica,sans-Serif" font-weight="bold" font-size="11.00">transaction_actions</text>
<text text-anchor="start" x="869.75" y="-494.9" font-family="Helvetica,sans-Serif" font-size="11.00">[table]</text>
<polygon fill="none" stroke="black" points="562,-466.35 562,-488.35 696,-488.35 696,-466.35 562,-466.35"/>
<image xlink:href="../../images/primaryKeys.png" width="11px" height="12px" preserveAspectRatio="xMinYMin meet" x="567" y="-483.348"/>
<text text-anchor="start" x="582" y="-472.9" font-family="Helvetica,sans-Serif" font-size="11.00">hash</text>
<polygon fill="none" stroke="black" points="696,-466.35 696,-488.35 904,-488.35 904,-466.35 696,-466.35"/>
<text text-anchor="start" x="699" y="-472.9" font-family="Helvetica,sans-Serif" font-size="11.00">bytea[2147483647]</text>
<polygon fill="#ffffff" stroke="none" points="562,-444.35 562,-466.35 696,-466.35 696,-444.35 562,-444.35"/>
<polygon fill="none" stroke="black" points="562,-444.35 562,-466.35 696,-466.35 696,-444.35 562,-444.35"/>
<text text-anchor="start" x="582" y="-450.9" font-family="Helvetica,sans-Serif" font-size="11.00">protocol</text>
<polygon fill="none" stroke="black" points="696,-444.35 696,-466.35 904,-466.35 904,-444.35 696,-444.35"/>
<text text-anchor="start" x="698.75" y="-450.9" font-family="Helvetica,sans-Serif" font-size="11.00">transaction_actions_protocol[2147483647]</text>
<polygon fill="none" stroke="black" points="562,-422.35 562,-444.35 696,-444.35 696,-422.35 562,-422.35"/>
<text text-anchor="start" x="582" y="-428.9" font-family="Helvetica,sans-Serif" font-size="11.00">data</text>
<polygon fill="none" stroke="black" points="696,-422.35 696,-444.35 904,-444.35 904,-422.35 696,-422.35"/>
<text text-anchor="start" x="699" y="-428.9" font-family="Helvetica,sans-Serif" font-size="11.00">jsonb[2147483647]</text>
<polygon fill="#ffffff" stroke="none" points="562,-400.35 562,-422.35 696,-422.35 696,-400.35 562,-400.35"/>
<polygon fill="none" stroke="black" points="562,-400.35 562,-422.35 696,-422.35 696,-400.35 562,-400.35"/>
<text text-anchor="start" x="582" y="-406.9" font-family="Helvetica,sans-Serif" font-size="11.00">type</text>
<polygon fill="none" stroke="black" points="696,-400.35 696,-422.35 904,-422.35 904,-400.35 696,-400.35"/>
<text text-anchor="start" x="699" y="-406.9" font-family="Helvetica,sans-Serif" font-size="11.00">transaction_actions_type[2147483647]</text>
<polygon fill="none" stroke="black" points="562,-378.35 562,-400.35 696,-400.35 696,-378.35 562,-378.35"/>
<image xlink:href="../../images/primaryKeys.png" width="11px" height="12px" preserveAspectRatio="xMinYMin meet" x="567" y="-395.348"/>
<text text-anchor="start" x="582" y="-384.9" font-family="Helvetica,sans-Serif" font-size="11.00">log_index</text>
<polygon fill="none" stroke="black" points="696,-378.35 696,-400.35 904,-400.35 904,-378.35 696,-378.35"/>
<text text-anchor="start" x="699" y="-384.9" font-family="Helvetica,sans-Serif" font-size="11.00">int4[10]</text>
<polygon fill="none" stroke="black" points="562,-356.35 562,-378.35 696,-378.35 696,-356.35 562,-356.35"/>
<text text-anchor="start" x="582" y="-362.9" font-family="Helvetica,sans-Serif" font-size="11.00">inserted_at</text>
<polygon fill="none" stroke="black" points="696,-356.35 696,-378.35 904,-378.35 904,-356.35 696,-356.35"/>
<text text-anchor="start" x="699" y="-362.9" font-family="Helvetica,sans-Serif" font-size="11.00">timestamp[29,6]</text>
<polygon fill="none" stroke="black" points="562,-334.35 562,-356.35 696,-356.35 696,-334.35 562,-334.35"/>
<text text-anchor="start" x="582" y="-340.9" font-family="Helvetica,sans-Serif" font-size="11.00">updated_at</text>
<polygon fill="none" stroke="black" points="696,-334.35 696,-356.35 904,-356.35 904,-334.35 696,-334.35"/>
<text text-anchor="start" x="699" y="-340.9" font-family="Helvetica,sans-Serif" font-size="11.00">timestamp[29,6]</text>
<polygon fill="#ffffff" stroke="none" points="562,-316.35 562,-334.35 633,-334.35 633,-316.35 562,-316.35"/>
<polygon fill="none" stroke="black" points="562,-316.35 562,-334.35 633,-334.35 633,-316.35 562,-316.35"/>
<text text-anchor="start" x="565" y="-320.9" font-family="Helvetica,sans-Serif" font-size="11.00">&lt; 1</text>
<polygon fill="#ffffff" stroke="none" points="633,-316.35 633,-334.35 696,-334.35 696,-316.35 633,-316.35"/>
<polygon fill="none" stroke="black" points="633,-316.35 633,-334.35 696,-334.35 696,-316.35 633,-316.35"/>
<text text-anchor="start" x="687" y="-320.9" font-family="Helvetica,sans-Serif" font-size="11.00"> &#160;</text>
<polygon fill="#ffffff" stroke="none" points="696,-316.35 696,-334.35 904,-334.35 904,-316.35 696,-316.35"/>
<polygon fill="none" stroke="black" points="696,-316.35 696,-334.35 904,-334.35 904,-316.35 696,-316.35"/>
<text text-anchor="start" x="885.25" y="-320.9" font-family="Helvetica,sans-Serif" font-size="11.00">0 &gt;</text>
<polygon fill="none" stroke="black" stroke-width="2" points="561,-315.35 561,-511.35 905,-511.35 905,-315.35 561,-315.35"/>
</a>
</g>
</g>
<!-- transaction_actions&#45;&gt;transactions -->
<g id="edge9" class="edge">
<title>transaction_actions:w&#45;&gt;transactions:e</title>
<path fill="none" stroke="black" d="M545.23,-477.35C534.82,-477.35 527.66,-477.35 512.5,-477.35"/>
<polygon fill="black" stroke="black" points="552.67,-477.35 560.67,-480.95 557,-477.35 560.33,-477.35 560.33,-477.35 560.33,-477.35 557,-477.35 560.67,-473.75 552.67,-477.35"/>
<ellipse fill="none" stroke="black" cx="547.75" cy="-477.35" rx="3.2" ry="3.2"/>
</g>
<!-- transaction_forks -->
<g id="node8" class="node">
<title>transaction_forks</title>
<g id="a_node8"><a xlink:href="../../tables/transaction_forks.html" xlink:title="transaction_forks" target="_top">
<polygon fill="#ffffff" stroke="none" points="663.5,-44.35 663.5,-102.35 802.5,-102.35 802.5,-44.35 663.5,-44.35"/>
<polygon fill="#f5f5f5" stroke="none" points="663.5,-80.35 663.5,-102.35 802.5,-102.35 802.5,-80.35 663.5,-80.35"/>
<polygon fill="none" stroke="black" points="663.5,-80.35 663.5,-102.35 802.5,-102.35 802.5,-80.35 663.5,-80.35"/>
<text text-anchor="start" x="668.5" y="-87.9" font-family="Helvetica,sans-Serif" font-weight="bold" font-size="11.00">transaction_forks</text>
<text text-anchor="start" x="768.5" y="-86.9" font-family="Helvetica,sans-Serif" font-size="11.00">[table]</text>
<polygon fill="none" stroke="black" points="663.5,-62.35 663.5,-80.35 802.5,-80.35 802.5,-62.35 663.5,-62.35"/>
<text text-anchor="start" x="666.5" y="-66.9" font-family="Helvetica,sans-Serif" font-size="11.00">...</text>
<polygon fill="#ffffff" stroke="none" points="663.5,-44.35 663.5,-62.35 731.5,-62.35 731.5,-44.35 663.5,-44.35"/>
<polygon fill="none" stroke="black" points="663.5,-44.35 663.5,-62.35 731.5,-62.35 731.5,-44.35 663.5,-44.35"/>
<text text-anchor="start" x="666.5" y="-48.9" font-family="Helvetica,sans-Serif" font-size="11.00">&lt; 2</text>
<polygon fill="#ffffff" stroke="none" points="731.5,-44.35 731.5,-62.35 766.5,-62.35 766.5,-44.35 731.5,-44.35"/>
<polygon fill="none" stroke="black" points="731.5,-44.35 731.5,-62.35 766.5,-62.35 766.5,-44.35 731.5,-44.35"/>
<text text-anchor="start" x="757.5" y="-48.9" font-family="Helvetica,sans-Serif" font-size="11.00"> &#160;</text>
<polygon fill="#ffffff" stroke="none" points="766.5,-44.35 766.5,-62.35 802.5,-62.35 802.5,-44.35 766.5,-44.35"/>
<polygon fill="none" stroke="black" points="766.5,-44.35 766.5,-62.35 802.5,-62.35 802.5,-44.35 766.5,-44.35"/>
<text text-anchor="start" x="793.5" y="-48.9" font-family="Helvetica,sans-Serif" font-size="11.00"> &#160;</text>
</a>
</g>
</g>
<!-- transaction_forks&#45;&gt;blocks -->
<g id="edge11" class="edge">
<title>transaction_forks:w&#45;&gt;blocks:e</title>
<path fill="none" stroke="black" d="M646.44,-71.2C418.28,-66.75 309.87,32.8 126,-111.35 81.48,-146.25 143.07,-232.35 86.5,-232.35"/>
<polygon fill="black" stroke="black" points="653.67,-71.27 661.63,-74.94 658,-71.31 661.33,-71.34 661.33,-71.34 661.33,-71.34 658,-71.31 661.7,-67.74 653.67,-71.27"/>
<ellipse fill="none" stroke="black" cx="648.75" cy="-71.22" rx="3.2" ry="3.2"/>
</g>
<!-- transaction_forks&#45;&gt;transactions -->
<g id="edge10" class="edge">
<title>transaction_forks:w&#45;&gt;transactions:e</title>
<path fill="none" stroke="black" d="M646.23,-71.8C601.43,-74.56 579.97,-90.5 552,-132.35 509.12,-196.5 589.67,-477.35 512.5,-477.35"/>
<polygon fill="black" stroke="black" points="653.67,-71.59 661.77,-74.96 658,-71.46 661.33,-71.37 661.33,-71.37 661.33,-71.37 658,-71.46 661.56,-67.76 653.67,-71.59"/>
<ellipse fill="none" stroke="black" cx="648.75" cy="-71.73" rx="3.2" ry="3.2"/>
</g>
</g>
</svg>
