<?xml version="1.0" encoding="UTF-8" standalone="no"?>
<!DOCTYPE svg PUBLIC "-//W3C//DTD SVG 1.1//EN"
 "http://www.w3.org/Graphics/SVG/1.1/DTD/svg11.dtd">
<!-- Generated by graphviz version 2.43.0 (0)
 -->
<!-- Title: twoDegreesRelationshipsDiagramImplied Pages: 1 -->
<svg width="1264pt" height="677pt"
 viewBox="0.00 0.00 1264.00 677.00" xmlns="http://www.w3.org/2000/svg" xmlns:xlink="http://www.w3.org/1999/xlink">
<g id="graph0" class="graph" transform="scale(1 1) rotate(0) translate(4 673)">
<title>twoDegreesRelationshipsDiagramImplied</title>
<polygon fill="#ffffff" stroke="transparent" points="-4,4 -4,-673 1260,-673 1260,4 -4,4"/>
<text text-anchor="middle" x="79.5" y="-7.2" font-family="Helvetica,sans-Serif" font-size="11.00">Generated by SchemaSpy</text>
<!-- block_rewards -->
<g id="node1" class="node">
<title>block_rewards</title>
<g id="a_node1"><a xlink:href="../../tables/block_rewards.html" xlink:title="block_rewards" target="_top">
<polygon fill="#ffffff" stroke="transparent" points="400.5,-593 400.5,-651 552.5,-651 552.5,-593 400.5,-593"/>
<polygon fill="#f5f5f5" stroke="transparent" points="400.5,-629 400.5,-651 552.5,-651 552.5,-629 400.5,-629"/>
<polygon fill="none" stroke="black" points="400.5,-629 400.5,-651 552.5,-651 552.5,-629 400.5,-629"/>
<text text-anchor="start" x="405.5" y="-638.2" font-family="Helvetica,sans-Serif" font-weight="bold" font-size="11.00">block_rewards</text>
<text text-anchor="start" x="510.5" y="-637.2" font-family="Helvetica,sans-Serif" font-size="11.00">[table]</text>
<polygon fill="none" stroke="black" points="400.5,-611 400.5,-629 552.5,-629 552.5,-611 400.5,-611"/>
<text text-anchor="start" x="403.5" y="-617.2" font-family="Helvetica,sans-Serif" font-size="11.00">...</text>
<polygon fill="#ffffff" stroke="transparent" points="400.5,-593 400.5,-611 552.5,-611 552.5,-593 400.5,-593"/>
<polygon fill="none" stroke="black" points="400.5,-593 400.5,-611 552.5,-611 552.5,-593 400.5,-593"/>
<polygon fill="#ffffff" stroke="transparent" points="401.5,-594 401.5,-610 459.5,-610 459.5,-594 401.5,-594"/>
<text text-anchor="start" x="403.5" y="-599.2" font-family="Helvetica,sans-Serif" font-size="11.00">&lt; 1</text>
<polygon fill="#ffffff" stroke="transparent" points="459.5,-594 459.5,-610 505.5,-610 505.5,-594 459.5,-594"/>
<text text-anchor="start" x="478.5" y="-599.2" font-family="Helvetica,sans-Serif" font-size="11.00"> &#160;</text>
<polygon fill="#ffffff" stroke="transparent" points="505.5,-594 505.5,-610 551.5,-610 551.5,-594 505.5,-594"/>
<text text-anchor="start" x="541.5" y="-599.2" font-family="Helvetica,sans-Serif" font-size="11.00"> &#160;</text>
<polygon fill="black" stroke="black" points="459.5,-594 459.5,-610 459.5,-610 459.5,-594 459.5,-594"/>
<polygon fill="black" stroke="black" points="505.5,-594 505.5,-610 505.5,-610 505.5,-594 505.5,-594"/>
</a>
</g>
</g>
<!-- blocks -->
<g id="node2" class="node">
<title>blocks</title>
<g id="a_node2"><a xlink:href="../../tables/blocks.html" xlink:title="blocks" target="_top">
<polygon fill="#ffffff" stroke="transparent" points="216,-369 216,-427 309,-427 309,-369 216,-369"/>
<polygon fill="#f5f5f5" stroke="transparent" points="216.5,-405 216.5,-427 309.5,-427 309.5,-405 216.5,-405"/>
<polygon fill="none" stroke="black" points="216.5,-405 216.5,-427 309.5,-427 309.5,-405 216.5,-405"/>
<text text-anchor="start" x="221.5" y="-414.2" font-family="Helvetica,sans-Serif" font-weight="bold" font-size="11.00">blocks</text>
<text text-anchor="start" x="267.5" y="-413.2" font-family="Helvetica,sans-Serif" font-size="11.00">[table]</text>
<polygon fill="none" stroke="black" points="216.5,-387 216.5,-405 309.5,-405 309.5,-387 216.5,-387"/>
<text text-anchor="start" x="219.5" y="-393.2" font-family="Helvetica,sans-Serif" font-size="11.00">...</text>
<polygon fill="#ffffff" stroke="transparent" points="216.5,-369 216.5,-387 309.5,-387 309.5,-369 216.5,-369"/>
<polygon fill="none" stroke="black" points="216.5,-369 216.5,-387 309.5,-387 309.5,-369 216.5,-369"/>
<polygon fill="#ffffff" stroke="transparent" points="217.5,-370 217.5,-386 252.5,-386 252.5,-370 217.5,-370"/>
<text text-anchor="start" x="219.5" y="-375.2" font-family="Helvetica,sans-Serif" font-size="11.00">&lt; 1</text>
<polygon fill="#ffffff" stroke="transparent" points="252.5,-370 252.5,-386 274.5,-386 274.5,-370 252.5,-370"/>
<text text-anchor="start" x="259.5" y="-375.2" font-family="Helvetica,sans-Serif" font-size="11.00"> &#160;</text>
<polygon fill="#ffffff" stroke="transparent" points="274.5,-370 274.5,-386 308.5,-386 308.5,-370 274.5,-370"/>
<text text-anchor="start" x="286.5" y="-375.2" font-family="Helvetica,sans-Serif" font-size="11.00">9 &gt;</text>
<polygon fill="black" stroke="black" points="252.5,-370 252.5,-386 252.5,-386 252.5,-370 252.5,-370"/>
<polygon fill="black" stroke="black" points="274.5,-370 274.5,-386 274.5,-386 274.5,-370 274.5,-370"/>
</a>
</g>
</g>
<!-- block_rewards&#45;&gt;blocks -->
<g id="edge1" class="edge">
<title>block_rewards:w&#45;&gt;blocks:e</title>
<path fill="none" stroke="black" d="M384.68,-618.73C308.26,-605.36 278.46,-489.54 268.22,-431.24"/>
<polygon fill="black" stroke="black" points="391.53,-619.32 399.19,-623.59 395.51,-619.66 399.5,-620 399.5,-620 399.5,-620 395.51,-619.66 399.81,-616.41 391.53,-619.32 391.53,-619.32"/>
<ellipse fill="none" stroke="black" cx="388.34" cy="-619.05" rx="3.2" ry="3.2"/>
</g>
<!-- massive_blocks -->
<g id="node5" class="node">
<title>massive_blocks</title>
<g id="a_node5"><a xlink:href="../../tables/massive_blocks.html" xlink:title="massive_blocks" target="_top">
<polygon fill="#ffffff" stroke="transparent" points="8,-371 8,-429 167,-429 167,-371 8,-371"/>
<polygon fill="#f5f5f5" stroke="transparent" points="8.5,-407 8.5,-429 167.5,-429 167.5,-407 8.5,-407"/>
<polygon fill="none" stroke="black" points="8.5,-407 8.5,-429 167.5,-429 167.5,-407 8.5,-407"/>
<text text-anchor="start" x="13.5" y="-416.2" font-family="Helvetica,sans-Serif" font-weight="bold" font-size="11.00">massive_blocks</text>
<text text-anchor="start" x="125.5" y="-415.2" font-family="Helvetica,sans-Serif" font-size="11.00">[table]</text>
<polygon fill="none" stroke="black" points="8.5,-389 8.5,-407 167.5,-407 167.5,-389 8.5,-389"/>
<text text-anchor="start" x="11.5" y="-395.2" font-family="Helvetica,sans-Serif" font-size="11.00">...</text>
<polygon fill="#ffffff" stroke="transparent" points="8.5,-371 8.5,-389 167.5,-389 167.5,-371 8.5,-371"/>
<polygon fill="none" stroke="black" points="8.5,-371 8.5,-389 167.5,-389 167.5,-371 8.5,-371"/>
<polygon fill="#ffffff" stroke="transparent" points="9.5,-372 9.5,-388 58.5,-388 58.5,-372 9.5,-372"/>
<text text-anchor="start" x="11.5" y="-377.2" font-family="Helvetica,sans-Serif" font-size="11.00"> &#160;</text>
<polygon fill="#ffffff" stroke="transparent" points="58.5,-372 58.5,-388 106.5,-388 106.5,-372 58.5,-372"/>
<text text-anchor="start" x="78.5" y="-377.2" font-family="Helvetica,sans-Serif" font-size="11.00"> &#160;</text>
<polygon fill="#ffffff" stroke="transparent" points="106.5,-372 106.5,-388 166.5,-388 166.5,-372 106.5,-372"/>
<text text-anchor="start" x="144.5" y="-377.2" font-family="Helvetica,sans-Serif" font-size="11.00">1 &gt;</text>
<polygon fill="black" stroke="black" points="58.5,-372 58.5,-388 58.5,-388 58.5,-372 58.5,-372"/>
<polygon fill="black" stroke="black" points="106.5,-372 106.5,-388 106.5,-388 106.5,-372 106.5,-372"/>
</a>
</g>
</g>
<!-- blocks&#45;&gt;massive_blocks -->
<g id="edge4" class="edge">
<title>blocks:w&#45;&gt;massive_blocks:e</title>
<path fill="none" stroke="black" stroke-dasharray="5,2" d="M197.47,-398C187.76,-398 177.87,-398 168.5,-398"/>
<polygon fill="black" stroke="black" points="207.1,-394 207.1,-402 205.5,-402 205.5,-394 207.1,-394"/>
<polyline fill="none" stroke="black" points="207.9,-398 203.9,-398 "/>
<ellipse fill="none" stroke="black" cx="200.7" cy="-398" rx="3.2" ry="3.2"/>
</g>
<!-- block_second_degree_relations -->
<g id="node3" class="node">
<title>block_second_degree_relations</title>
<g id="a_node3"><a xlink:href="../../tables/block_second_degree_relations.html" xlink:title="block_second_degree_relations" target="_top">
<polygon fill="#ffffff" stroke="transparent" points="644,-487 644,-545 917,-545 917,-487 644,-487"/>
<polygon fill="#f5f5f5" stroke="transparent" points="644.5,-523 644.5,-545 917.5,-545 917.5,-523 644.5,-523"/>
<polygon fill="none" stroke="black" points="644.5,-523 644.5,-545 917.5,-545 917.5,-523 644.5,-523"/>
<text text-anchor="start" x="649.5" y="-532.2" font-family="Helvetica,sans-Serif" font-weight="bold" font-size="11.00">block_second_degree_relations</text>
<text text-anchor="start" x="875.5" y="-531.2" font-family="Helvetica,sans-Serif" font-size="11.00">[table]</text>
<polygon fill="none" stroke="black" points="644.5,-505 644.5,-523 917.5,-523 917.5,-505 644.5,-505"/>
<text text-anchor="start" x="647.5" y="-511.2" font-family="Helvetica,sans-Serif" font-size="11.00">...</text>
<polygon fill="#ffffff" stroke="transparent" points="644.5,-487 644.5,-505 917.5,-505 917.5,-487 644.5,-487"/>
<polygon fill="none" stroke="black" points="644.5,-487 644.5,-505 917.5,-505 917.5,-487 644.5,-487"/>
<polygon fill="#ffffff" stroke="transparent" points="645.5,-488 645.5,-504 744.5,-504 744.5,-488 645.5,-488"/>
<text text-anchor="start" x="647.5" y="-493.2" font-family="Helvetica,sans-Serif" font-size="11.00">&lt; 2</text>
<polygon fill="#ffffff" stroke="transparent" points="744.5,-488 744.5,-504 830.5,-504 830.5,-488 744.5,-488"/>
<text text-anchor="start" x="783.5" y="-493.2" font-family="Helvetica,sans-Serif" font-size="11.00"> &#160;</text>
<polygon fill="#ffffff" stroke="transparent" points="830.5,-488 830.5,-504 916.5,-504 916.5,-488 830.5,-488"/>
<text text-anchor="start" x="906.5" y="-493.2" font-family="Helvetica,sans-Serif" font-size="11.00"> &#160;</text>
<polygon fill="black" stroke="black" points="744.5,-488 744.5,-504 744.5,-504 744.5,-488 744.5,-488"/>
<polygon fill="black" stroke="black" points="830.5,-488 830.5,-504 830.5,-504 830.5,-488 830.5,-488"/>
</a>
</g>
</g>
<!-- block_second_degree_relations&#45;&gt;blocks -->
<g id="edge3" class="edge">
<title>block_second_degree_relations:w&#45;&gt;blocks:e</title>
<path fill="none" stroke="black" d="M628.94,-514.18C509.3,-517.1 462.76,-554.42 350,-499 320.37,-484.44 296.85,-454.63 281.86,-431.15"/>
<polygon fill="black" stroke="black" points="635.5,-514.1 643.54,-517.6 639.5,-514.05 643.5,-514 643.5,-514 643.5,-514 639.5,-514.05 643.46,-510.4 635.5,-514.1 635.5,-514.1"/>
<ellipse fill="none" stroke="black" cx="632.3" cy="-514.14" rx="3.2" ry="3.2"/>
</g>
<!-- withdrawals -->
<g id="node4" class="node">
<title>withdrawals</title>
<g id="a_node4"><a xlink:href="../../tables/withdrawals.html" xlink:title="withdrawals" target="_top">
<polygon fill="#ffffff" stroke="transparent" points="408.5,-430 408.5,-488 544.5,-488 544.5,-430 408.5,-430"/>
<polygon fill="#f5f5f5" stroke="transparent" points="408.5,-466 408.5,-488 544.5,-488 544.5,-466 408.5,-466"/>
<polygon fill="none" stroke="black" points="408.5,-466 408.5,-488 544.5,-488 544.5,-466 408.5,-466"/>
<text text-anchor="start" x="413.5" y="-475.2" font-family="Helvetica,sans-Serif" font-weight="bold" font-size="11.00">withdrawals</text>
<text text-anchor="start" x="502.5" y="-474.2" font-family="Helvetica,sans-Serif" font-size="11.00">[table]</text>
<polygon fill="none" stroke="black" points="408.5,-448 408.5,-466 544.5,-466 544.5,-448 408.5,-448"/>
<text text-anchor="start" x="411.5" y="-454.2" font-family="Helvetica,sans-Serif" font-size="11.00">...</text>
<polygon fill="#ffffff" stroke="transparent" points="408.5,-430 408.5,-448 544.5,-448 544.5,-430 408.5,-430"/>
<polygon fill="none" stroke="black" points="408.5,-430 408.5,-448 544.5,-448 544.5,-430 408.5,-430"/>
<polygon fill="#ffffff" stroke="transparent" points="409.5,-431 409.5,-447 458.5,-447 458.5,-431 409.5,-431"/>
<text text-anchor="start" x="411.5" y="-436.2" font-family="Helvetica,sans-Serif" font-size="11.00">&lt; 1</text>
<polygon fill="#ffffff" stroke="transparent" points="458.5,-431 458.5,-447 495.5,-447 495.5,-431 458.5,-431"/>
<text text-anchor="start" x="473" y="-436.2" font-family="Helvetica,sans-Serif" font-size="11.00"> &#160;</text>
<polygon fill="#ffffff" stroke="transparent" points="495.5,-431 495.5,-447 543.5,-447 543.5,-431 495.5,-431"/>
<text text-anchor="start" x="521.5" y="-436.2" font-family="Helvetica,sans-Serif" font-size="11.00">5 &gt;</text>
<polygon fill="black" stroke="black" points="458.5,-431 458.5,-447 458.5,-447 458.5,-431 458.5,-431"/>
<polygon fill="black" stroke="black" points="495.5,-431 495.5,-447 495.5,-447 495.5,-431 495.5,-431"/>
</a>
</g>
</g>
<!-- block_second_degree_relations&#45;&gt;withdrawals -->
<g id="edge2" class="edge">
<title>block_second_degree_relations:w&#45;&gt;withdrawals:e</title>
<path fill="none" stroke="black" stroke-dasharray="5,2" d="M629.21,-512.23C593.11,-502.61 590.57,-457 545.5,-457"/>
<polygon fill="black" stroke="black" points="635.56,-513.02 643.06,-517.57 639.53,-513.51 643.5,-514 643.5,-514 643.5,-514 639.53,-513.51 643.94,-510.43 635.56,-513.02 635.56,-513.02"/>
<ellipse fill="none" stroke="black" cx="632.38" cy="-512.62" rx="3.2" ry="3.2"/>
</g>
<!-- withdrawals&#45;&gt;blocks -->
<g id="edge21" class="edge">
<title>withdrawals:w&#45;&gt;blocks:e</title>
<path fill="none" stroke="black" d="M392.94,-456.17C365.87,-453.19 338.8,-442.52 316.46,-431.12"/>
<polygon fill="black" stroke="black" points="399.51,-456.55 407.3,-460.59 403.51,-456.77 407.5,-457 407.5,-457 407.5,-457 403.51,-456.77 407.7,-453.41 399.51,-456.55 399.51,-456.55"/>
<ellipse fill="none" stroke="black" cx="396.32" cy="-456.37" rx="3.2" ry="3.2"/>
</g>
<!-- internal_transactions -->
<g id="node6" class="node">
<title>internal_transactions</title>
<g id="a_node6"><a xlink:href="../../tables/internal_transactions.html" xlink:title="internal_transactions" target="_top">
<polygon fill="#ffffff" stroke="transparent" points="1006,-607 1006,-665 1208,-665 1208,-607 1006,-607"/>
<polygon fill="#f5f5f5" stroke="transparent" points="1006,-643 1006,-665 1208,-665 1208,-643 1006,-643"/>
<polygon fill="none" stroke="black" points="1006,-643 1006,-665 1208,-665 1208,-643 1006,-643"/>
<text text-anchor="start" x="1011" y="-652.2" font-family="Helvetica,sans-Serif" font-weight="bold" font-size="11.00">internal_transactions</text>
<text text-anchor="start" x="1166" y="-651.2" font-family="Helvetica,sans-Serif" font-size="11.00">[table]</text>
<polygon fill="none" stroke="black" points="1006,-625 1006,-643 1208,-643 1208,-625 1006,-625"/>
<text text-anchor="start" x="1009" y="-631.2" font-family="Helvetica,sans-Serif" font-size="11.00">...</text>
<polygon fill="#ffffff" stroke="transparent" points="1006,-607 1006,-625 1208,-625 1208,-607 1006,-607"/>
<polygon fill="none" stroke="black" points="1006,-607 1006,-625 1208,-625 1208,-607 1006,-607"/>
<polygon fill="#ffffff" stroke="transparent" points="1007,-608 1007,-624 1082,-624 1082,-608 1007,-608"/>
<text text-anchor="start" x="1009" y="-613.2" font-family="Helvetica,sans-Serif" font-size="11.00">&lt; 4</text>
<polygon fill="#ffffff" stroke="transparent" points="1082,-608 1082,-624 1145,-624 1145,-608 1082,-608"/>
<text text-anchor="start" x="1109.5" y="-613.2" font-family="Helvetica,sans-Serif" font-size="11.00"> &#160;</text>
<polygon fill="#ffffff" stroke="transparent" points="1145,-608 1145,-624 1207,-624 1207,-608 1145,-608"/>
<text text-anchor="start" x="1197" y="-613.2" font-family="Helvetica,sans-Serif" font-size="11.00"> &#160;</text>
<polygon fill="black" stroke="black" points="1082,-608 1082,-624 1082,-624 1082,-608 1082,-608"/>
<polygon fill="black" stroke="black" points="1145,-608 1145,-624 1145,-624 1145,-608 1145,-608"/>
</a>
</g>
</g>
<!-- internal_transactions&#45;&gt;blocks -->
<g id="edge5" class="edge">
<title>internal_transactions:w&#45;&gt;blocks:e</title>
<path fill="none" stroke="black" d="M990.43,-633.47C879.67,-626.94 409.06,-561.67 350,-524 315.33,-501.88 290.93,-460.36 277.08,-431.03"/>
<polygon fill="black" stroke="black" points="997.01,-633.71 1004.87,-637.6 1001,-633.85 1005,-634 1005,-634 1005,-634 1001,-633.85 1005.13,-630.4 997.01,-633.71 997.01,-633.71"/>
<ellipse fill="none" stroke="black" cx="993.81" cy="-633.59" rx="3.2" ry="3.2"/>
</g>
<!-- internal_transactions&#45;&gt;withdrawals -->
<g id="edge6" class="edge">
<title>internal_transactions:w&#45;&gt;withdrawals:e</title>
<path fill="none" stroke="black" stroke-dasharray="5,2" d="M990.68,-632.09C975.61,-627.41 969.6,-614.48 958,-597 927.4,-550.92 968.1,-511.67 925,-477 859.2,-424.06 629.95,-457 545.5,-457"/>
<polygon fill="black" stroke="black" points="997.07,-632.94 1004.52,-637.57 1001.04,-633.47 1005,-634 1005,-634 1005,-634 1001.04,-633.47 1005.48,-630.43 997.07,-632.94 997.07,-632.94"/>
<ellipse fill="none" stroke="black" cx="993.9" cy="-632.52" rx="3.2" ry="3.2"/>
</g>
<!-- internal_transactions&#45;&gt;withdrawals -->
<g id="edge8" class="edge">
<title>internal_transactions:w&#45;&gt;withdrawals:e</title>
<path fill="none" stroke="black" stroke-dasharray="5,2" d="M990.69,-632.08C975.64,-627.39 969.68,-614.42 958,-597 928.16,-552.48 966.73,-514.64 925,-481 859.21,-427.97 630,-457 545.5,-457"/>
<polygon fill="black" stroke="black" points="997.07,-632.94 1004.52,-637.57 1001.04,-633.47 1005,-634 1005,-634 1005,-634 1001.04,-633.47 1005.48,-630.43 997.07,-632.94 997.07,-632.94"/>
<ellipse fill="none" stroke="black" cx="993.9" cy="-632.51" rx="3.2" ry="3.2"/>
</g>
<!-- transactions -->
<g id="node7" class="node">
<title>transactions</title>
<g id="a_node7"><a xlink:href="../../tables/transactions.html" xlink:title="transactions" target="_top">
<polygon fill="#ffffff" stroke="transparent" points="711.5,-369 711.5,-427 849.5,-427 849.5,-369 711.5,-369"/>
<polygon fill="#f5f5f5" stroke="transparent" points="711.5,-405 711.5,-427 849.5,-427 849.5,-405 711.5,-405"/>
<polygon fill="none" stroke="black" points="711.5,-405 711.5,-427 849.5,-427 849.5,-405 711.5,-405"/>
<text text-anchor="start" x="716.5" y="-414.2" font-family="Helvetica,sans-Serif" font-weight="bold" font-size="11.00">transactions</text>
<text text-anchor="start" x="807.5" y="-413.2" font-family="Helvetica,sans-Serif" font-size="11.00">[table]</text>
<polygon fill="none" stroke="black" points="711.5,-387 711.5,-405 849.5,-405 849.5,-387 711.5,-387"/>
<text text-anchor="start" x="714.5" y="-393.2" font-family="Helvetica,sans-Serif" font-size="11.00">...</text>
<polygon fill="#ffffff" stroke="transparent" points="711.5,-369 711.5,-387 849.5,-387 849.5,-369 711.5,-369"/>
<polygon fill="none" stroke="black" points="711.5,-369 711.5,-387 849.5,-387 849.5,-369 711.5,-369"/>
<polygon fill="#ffffff" stroke="transparent" points="712.5,-370 712.5,-386 762.5,-386 762.5,-370 712.5,-370"/>
<text text-anchor="start" x="714.5" y="-375.2" font-family="Helvetica,sans-Serif" font-size="11.00">&lt; 2</text>
<polygon fill="#ffffff" stroke="transparent" points="762.5,-370 762.5,-386 799.5,-386 799.5,-370 762.5,-370"/>
<text text-anchor="start" x="777" y="-375.2" font-family="Helvetica,sans-Serif" font-size="11.00"> &#160;</text>
<polygon fill="#ffffff" stroke="transparent" points="799.5,-370 799.5,-386 848.5,-386 848.5,-370 799.5,-370"/>
<text text-anchor="start" x="826.5" y="-375.2" font-family="Helvetica,sans-Serif" font-size="11.00">7 &gt;</text>
<polygon fill="black" stroke="black" points="762.5,-370 762.5,-386 762.5,-386 762.5,-370 762.5,-370"/>
<polygon fill="black" stroke="black" points="799.5,-370 799.5,-386 799.5,-386 799.5,-370 799.5,-370"/>
</a>
</g>
</g>
<!-- internal_transactions&#45;&gt;transactions -->
<g id="edge7" class="edge">
<title>internal_transactions:w&#45;&gt;transactions:e</title>
<path fill="none" stroke="black" d="M990.52,-632.45C913.12,-614.95 937.49,-454.57 925,-441 907.56,-422.06 882.15,-411.33 857.54,-405.31"/>
<polygon fill="black" stroke="black" points="997.05,-633.15 1004.62,-637.58 1001.02,-633.58 1005,-634 1005,-634 1005,-634 1001.02,-633.58 1005.38,-630.42 997.05,-633.15 997.05,-633.15"/>
<ellipse fill="none" stroke="black" cx="993.86" cy="-632.81" rx="3.2" ry="3.2"/>
</g>
<!-- transactions&#45;&gt;blocks -->
<g id="edge19" class="edge">
<title>transactions:w&#45;&gt;blocks:e</title>
<path fill="none" stroke="black" d="M688.63,-398C580.93,-398 405.01,-398 317.07,-398"/>
<polygon fill="black" stroke="black" points="695.36,-398 703.36,-401.6 699.36,-398 703.36,-398 703.36,-398 703.36,-398 699.36,-398 703.36,-394.4 695.36,-398 695.36,-398"/>
<ellipse fill="none" stroke="black" cx="692.16" cy="-398" rx="3.2" ry="3.2"/>
</g>
<!-- transactions&#45;&gt;withdrawals -->
<g id="edge20" class="edge">
<title>transactions:w&#45;&gt;withdrawals:e</title>
<path fill="none" stroke="black" stroke-dasharray="5,2" d="M689.32,-425.58C635.96,-440.94 573.48,-457 545.5,-457"/>
<polygon fill="black" stroke="black" points="695.7,-423.72 704.39,-424.94 699.54,-422.61 703.38,-421.49 703.38,-421.49 703.38,-421.49 699.54,-422.61 702.38,-418.03 695.7,-423.72 695.7,-423.72"/>
<ellipse fill="none" stroke="black" cx="692.63" cy="-424.62" rx="3.2" ry="3.2"/>
</g>
<!-- logs -->
<g id="node8" class="node">
<title>logs</title>
<g id="a_node8"><a xlink:href="../../tables/logs.html" xlink:title="logs" target="_top">
<polygon fill="#ffffff" stroke="transparent" points="1068.5,-291 1068.5,-349 1145.5,-349 1145.5,-291 1068.5,-291"/>
<polygon fill="#f5f5f5" stroke="transparent" points="1069,-327 1069,-349 1146,-349 1146,-327 1069,-327"/>
<polygon fill="none" stroke="black" points="1069,-327 1069,-349 1146,-349 1146,-327 1069,-327"/>
<text text-anchor="start" x="1074" y="-336.2" font-family="Helvetica,sans-Serif" font-weight="bold" font-size="11.00">logs</text>
<text text-anchor="start" x="1104" y="-335.2" font-family="Helvetica,sans-Serif" font-size="11.00">[table]</text>
<polygon fill="none" stroke="black" points="1069,-309 1069,-327 1146,-327 1146,-309 1069,-309"/>
<text text-anchor="start" x="1072" y="-315.2" font-family="Helvetica,sans-Serif" font-size="11.00">...</text>
<polygon fill="#ffffff" stroke="transparent" points="1069,-291 1069,-309 1146,-309 1146,-291 1069,-291"/>
<polygon fill="none" stroke="black" points="1069,-291 1069,-309 1146,-309 1146,-291 1069,-291"/>
<polygon fill="#ffffff" stroke="transparent" points="1070,-292 1070,-308 1103,-308 1103,-292 1070,-292"/>
<text text-anchor="start" x="1072" y="-297.2" font-family="Helvetica,sans-Serif" font-size="11.00">&lt; 2</text>
<polygon fill="#ffffff" stroke="transparent" points="1103,-292 1103,-308 1124,-308 1124,-292 1103,-292"/>
<text text-anchor="start" x="1109.5" y="-297.2" font-family="Helvetica,sans-Serif" font-size="11.00"> &#160;</text>
<polygon fill="#ffffff" stroke="transparent" points="1124,-292 1124,-308 1145,-308 1145,-292 1124,-292"/>
<text text-anchor="start" x="1135" y="-297.2" font-family="Helvetica,sans-Serif" font-size="11.00"> &#160;</text>
<polygon fill="black" stroke="black" points="1103,-292 1103,-308 1103,-308 1103,-292 1103,-292"/>
<polygon fill="black" stroke="black" points="1124,-292 1124,-308 1124,-308 1124,-292 1124,-292"/>
</a>
</g>
</g>
<!-- logs&#45;&gt;blocks -->
<g id="edge9" class="edge">
<title>logs:w&#45;&gt;blocks:e</title>
<path fill="none" stroke="black" d="M1053.4,-318.04C772.65,-319.7 444.45,-368.29 317.46,-388.9"/>
<polygon fill="black" stroke="black" points="1060,-318.02 1068.01,-321.6 1064,-318.01 1068,-318 1068,-318 1068,-318 1064,-318.01 1067.99,-314.4 1060,-318.02 1060,-318.02"/>
<ellipse fill="none" stroke="black" cx="1056.8" cy="-318.03" rx="3.2" ry="3.2"/>
</g>
<!-- logs&#45;&gt;transactions -->
<g id="edge10" class="edge">
<title>logs:w&#45;&gt;transactions:e</title>
<path fill="none" stroke="black" d="M1053.65,-320.78C1017.67,-329.36 924.99,-356.01 857.76,-375.61"/>
<polygon fill="black" stroke="black" points="1060.15,-319.52 1068.69,-321.53 1064.07,-318.76 1068,-318 1068,-318 1068,-318 1064.07,-318.76 1067.31,-314.47 1060.15,-319.52 1060.15,-319.52"/>
<ellipse fill="none" stroke="black" cx="1057.01" cy="-320.13" rx="3.2" ry="3.2"/>
</g>
<!-- pending_block_operations -->
<g id="node9" class="node">
<title>pending_block_operations</title>
<g id="a_node9"><a xlink:href="../../tables/pending_block_operations.html" xlink:title="pending_block_operations" target="_top">
<polygon fill="#ffffff" stroke="transparent" points="358,-263 358,-321 595,-321 595,-263 358,-263"/>
<polygon fill="#f5f5f5" stroke="transparent" points="358.5,-299 358.5,-321 595.5,-321 595.5,-299 358.5,-299"/>
<polygon fill="none" stroke="black" points="358.5,-299 358.5,-321 595.5,-321 595.5,-299 358.5,-299"/>
<text text-anchor="start" x="363.5" y="-308.2" font-family="Helvetica,sans-Serif" font-weight="bold" font-size="11.00">pending_block_operations</text>
<text text-anchor="start" x="553.5" y="-307.2" font-family="Helvetica,sans-Serif" font-size="11.00">[table]</text>
<polygon fill="none" stroke="black" points="358.5,-281 358.5,-299 595.5,-299 595.5,-281 358.5,-281"/>
<text text-anchor="start" x="361.5" y="-287.2" font-family="Helvetica,sans-Serif" font-size="11.00">...</text>
<polygon fill="#ffffff" stroke="transparent" points="358.5,-263 358.5,-281 595.5,-281 595.5,-263 358.5,-263"/>
<polygon fill="none" stroke="black" points="358.5,-263 358.5,-281 595.5,-281 595.5,-263 358.5,-263"/>
<polygon fill="#ffffff" stroke="transparent" points="359.5,-264 359.5,-280 446.5,-280 446.5,-264 359.5,-264"/>
<text text-anchor="start" x="361.5" y="-269.2" font-family="Helvetica,sans-Serif" font-size="11.00">&lt; 1</text>
<polygon fill="#ffffff" stroke="transparent" points="446.5,-264 446.5,-280 520.5,-280 520.5,-264 446.5,-264"/>
<text text-anchor="start" x="479.5" y="-269.2" font-family="Helvetica,sans-Serif" font-size="11.00"> &#160;</text>
<polygon fill="#ffffff" stroke="transparent" points="520.5,-264 520.5,-280 594.5,-280 594.5,-264 520.5,-264"/>
<text text-anchor="start" x="584.5" y="-269.2" font-family="Helvetica,sans-Serif" font-size="11.00"> &#160;</text>
<polygon fill="black" stroke="black" points="446.5,-264 446.5,-280 446.5,-280 446.5,-264 446.5,-264"/>
<polygon fill="black" stroke="black" points="520.5,-264 520.5,-280 520.5,-280 520.5,-264 520.5,-264"/>
</a>
</g>
</g>
<!-- pending_block_operations&#45;&gt;blocks -->
<g id="edge11" class="edge">
<title>pending_block_operations:w&#45;&gt;blocks:e</title>
<path fill="none" stroke="black" d="M347,-291C312.62,-297.63 289.16,-335.83 276.06,-364.72"/>
<polygon fill="black" stroke="black" points="356.32,-286.09 357.08,-294.06 355.49,-294.21 354.73,-286.25 356.32,-286.09"/>
<polyline fill="none" stroke="black" points="357.5,-290 353.52,-290.38 "/>
<ellipse fill="none" stroke="black" cx="350.33" cy="-290.68" rx="3.2" ry="3.2"/>
</g>
<!-- pending_transaction_operations -->
<g id="node10" class="node">
<title>pending_transaction_operations</title>
<g id="a_node10"><a xlink:href="../../tables/pending_transaction_operations.html" xlink:title="pending_transaction_operations" target="_top">
<polygon fill="#ffffff" stroke="transparent" points="966,-370 966,-428 1248,-428 1248,-370 966,-370"/>
<polygon fill="#f5f5f5" stroke="transparent" points="966,-406 966,-428 1248,-428 1248,-406 966,-406"/>
<polygon fill="none" stroke="black" points="966,-406 966,-428 1248,-428 1248,-406 966,-406"/>
<text text-anchor="start" x="971" y="-415.2" font-family="Helvetica,sans-Serif" font-weight="bold" font-size="11.00">pending_transaction_operations</text>
<text text-anchor="start" x="1206" y="-414.2" font-family="Helvetica,sans-Serif" font-size="11.00">[table]</text>
<polygon fill="none" stroke="black" points="966,-388 966,-406 1248,-406 1248,-388 966,-388"/>
<text text-anchor="start" x="969" y="-394.2" font-family="Helvetica,sans-Serif" font-size="11.00">...</text>
<polygon fill="#ffffff" stroke="transparent" points="966,-370 966,-388 1248,-388 1248,-370 966,-370"/>
<polygon fill="none" stroke="black" points="966,-370 966,-388 1248,-388 1248,-370 966,-370"/>
<polygon fill="#ffffff" stroke="transparent" points="967,-371 967,-387 1069,-387 1069,-371 967,-371"/>
<text text-anchor="start" x="969" y="-376.2" font-family="Helvetica,sans-Serif" font-size="11.00">&lt; 1</text>
<polygon fill="#ffffff" stroke="transparent" points="1069,-371 1069,-387 1158,-387 1158,-371 1069,-371"/>
<text text-anchor="start" x="1109.5" y="-376.2" font-family="Helvetica,sans-Serif" font-size="11.00"> &#160;</text>
<polygon fill="#ffffff" stroke="transparent" points="1158,-371 1158,-387 1247,-387 1247,-371 1158,-371"/>
<text text-anchor="start" x="1237" y="-376.2" font-family="Helvetica,sans-Serif" font-size="11.00"> &#160;</text>
<polygon fill="black" stroke="black" points="1069,-371 1069,-387 1069,-387 1069,-371 1069,-371"/>
<polygon fill="black" stroke="black" points="1158,-371 1158,-387 1158,-387 1158,-371 1158,-371"/>
</a>
</g>
</g>
<!-- pending_transaction_operations&#45;&gt;transactions -->
<g id="edge12" class="edge">
<title>pending_transaction_operations:w&#45;&gt;transactions:e</title>
<path fill="none" stroke="black" d="M954.59,-397.01C922.24,-397.04 887.58,-397.21 857.83,-397.4"/>
<polygon fill="black" stroke="black" points="964.2,-393 964.2,-401 962.6,-401 962.6,-393 964.2,-393"/>
<polyline fill="none" stroke="black" points="965,-397 961,-397 "/>
<ellipse fill="none" stroke="black" cx="957.8" cy="-397" rx="3.2" ry="3.2"/>
</g>
<!-- signed_authorizations -->
<g id="node11" class="node">
<title>signed_authorizations</title>
<g id="a_node11"><a xlink:href="../../tables/signed_authorizations.html" xlink:title="signed_authorizations" target="_top">
<polygon fill="#ffffff" stroke="transparent" points="1003,-528 1003,-586 1211,-586 1211,-528 1003,-528"/>
<polygon fill="#f5f5f5" stroke="transparent" points="1003,-564 1003,-586 1211,-586 1211,-564 1003,-564"/>
<polygon fill="none" stroke="black" points="1003,-564 1003,-586 1211,-586 1211,-564 1003,-564"/>
<text text-anchor="start" x="1008" y="-573.2" font-family="Helvetica,sans-Serif" font-weight="bold" font-size="11.00">signed_authorizations</text>
<text text-anchor="start" x="1169" y="-572.2" font-family="Helvetica,sans-Serif" font-size="11.00">[table]</text>
<polygon fill="none" stroke="black" points="1003,-546 1003,-564 1211,-564 1211,-546 1003,-546"/>
<text text-anchor="start" x="1006" y="-552.2" font-family="Helvetica,sans-Serif" font-size="11.00">...</text>
<polygon fill="#ffffff" stroke="transparent" points="1003,-528 1003,-546 1211,-546 1211,-528 1003,-528"/>
<polygon fill="none" stroke="black" points="1003,-528 1003,-546 1211,-546 1211,-528 1003,-528"/>
<polygon fill="#ffffff" stroke="transparent" points="1004,-529 1004,-545 1081,-545 1081,-529 1004,-529"/>
<text text-anchor="start" x="1006" y="-534.2" font-family="Helvetica,sans-Serif" font-size="11.00">&lt; 1</text>
<polygon fill="#ffffff" stroke="transparent" points="1081,-529 1081,-545 1146,-545 1146,-529 1081,-529"/>
<text text-anchor="start" x="1109.5" y="-534.2" font-family="Helvetica,sans-Serif" font-size="11.00"> &#160;</text>
<polygon fill="#ffffff" stroke="transparent" points="1146,-529 1146,-545 1210,-545 1210,-529 1146,-529"/>
<text text-anchor="start" x="1200" y="-534.2" font-family="Helvetica,sans-Serif" font-size="11.00"> &#160;</text>
<polygon fill="black" stroke="black" points="1081,-529 1081,-545 1081,-545 1081,-529 1081,-529"/>
<polygon fill="black" stroke="black" points="1146,-529 1146,-545 1146,-545 1146,-529 1146,-529"/>
</a>
</g>
</g>
<!-- signed_authorizations&#45;&gt;transactions -->
<g id="edge13" class="edge">
<title>signed_authorizations:w&#45;&gt;transactions:e</title>
<path fill="none" stroke="black" d="M987.67,-552.61C974.37,-547.33 969.77,-533.87 958,-518 935.82,-488.1 952.78,-465.79 925,-441 906.37,-424.38 881.53,-414.18 857.76,-407.92"/>
<polygon fill="black" stroke="black" points="994.11,-553.68 1001.41,-558.55 998.05,-554.34 1002,-555 1002,-555 1002,-555 998.05,-554.34 1002.59,-551.45 994.11,-553.68 994.11,-553.68"/>
<ellipse fill="none" stroke="black" cx="990.95" cy="-553.15" rx="3.2" ry="3.2"/>
</g>
<!-- token_transfers -->
<g id="node12" class="node">
<title>token_transfers</title>
<g id="a_node12"><a xlink:href="../../tables/token_transfers.html" xlink:title="token_transfers" target="_top">
<polygon fill="#ffffff" stroke="transparent" points="1026,-212 1026,-270 1188,-270 1188,-212 1026,-212"/>
<polygon fill="#f5f5f5" stroke="transparent" points="1026,-248 1026,-270 1188,-270 1188,-248 1026,-248"/>
<polygon fill="none" stroke="black" points="1026,-248 1026,-270 1188,-270 1188,-248 1026,-248"/>
<text text-anchor="start" x="1031" y="-257.2" font-family="Helvetica,sans-Serif" font-weight="bold" font-size="11.00">token_transfers</text>
<text text-anchor="start" x="1146" y="-256.2" font-family="Helvetica,sans-Serif" font-size="11.00">[table]</text>
<polygon fill="none" stroke="black" points="1026,-230 1026,-248 1188,-248 1188,-230 1026,-230"/>
<text text-anchor="start" x="1029" y="-236.2" font-family="Helvetica,sans-Serif" font-size="11.00">...</text>
<polygon fill="#ffffff" stroke="transparent" points="1026,-212 1026,-230 1188,-230 1188,-212 1026,-212"/>
<polygon fill="none" stroke="black" points="1026,-212 1026,-230 1188,-230 1188,-212 1026,-212"/>
<polygon fill="#ffffff" stroke="transparent" points="1027,-213 1027,-229 1089,-229 1089,-213 1027,-213"/>
<text text-anchor="start" x="1029" y="-218.2" font-family="Helvetica,sans-Serif" font-size="11.00">&lt; 2</text>
<polygon fill="#ffffff" stroke="transparent" points="1089,-213 1089,-229 1138,-229 1138,-213 1089,-213"/>
<text text-anchor="start" x="1109.5" y="-218.2" font-family="Helvetica,sans-Serif" font-size="11.00"> &#160;</text>
<polygon fill="#ffffff" stroke="transparent" points="1138,-213 1138,-229 1187,-229 1187,-213 1138,-213"/>
<text text-anchor="start" x="1177" y="-218.2" font-family="Helvetica,sans-Serif" font-size="11.00"> &#160;</text>
<polygon fill="black" stroke="black" points="1089,-213 1089,-229 1089,-229 1089,-213 1089,-213"/>
<polygon fill="black" stroke="black" points="1138,-213 1138,-229 1138,-229 1138,-213 1138,-213"/>
</a>
</g>
</g>
<!-- token_transfers&#45;&gt;blocks -->
<g id="edge14" class="edge">
<title>token_transfers:w&#45;&gt;blocks:e</title>
<path fill="none" stroke="black" d="M1010.21,-238.89C721.06,-234.5 604.95,-103.44 350,-252 308.13,-276.4 284.35,-329.73 272.7,-364.73"/>
<polygon fill="black" stroke="black" points="1017,-238.94 1024.97,-242.6 1021,-238.97 1025,-239 1025,-239 1025,-239 1021,-238.97 1025.03,-235.4 1017,-238.94 1017,-238.94"/>
<ellipse fill="none" stroke="black" cx="1013.8" cy="-238.91" rx="3.2" ry="3.2"/>
</g>
<!-- token_transfers&#45;&gt;transactions -->
<g id="edge15" class="edge">
<title>token_transfers:w&#45;&gt;transactions:e</title>
<path fill="none" stroke="black" d="M1010.39,-239.67C925,-247.4 847.97,-320.55 808.77,-364.67"/>
<polygon fill="black" stroke="black" points="1017.01,-239.36 1025.16,-242.6 1021,-239.18 1025,-239 1025,-239 1025,-239 1021,-239.18 1024.84,-235.4 1017.01,-239.36 1017.01,-239.36"/>
<ellipse fill="none" stroke="black" cx="1013.81" cy="-239.51" rx="3.2" ry="3.2"/>
</g>
<!-- transaction_actions -->
<g id="node13" class="node">
<title>transaction_actions</title>
<g id="a_node13"><a xlink:href="../../tables/transaction_actions.html" xlink:title="transaction_actions" target="_top">
<polygon fill="#ffffff" stroke="transparent" points="1012,-449 1012,-507 1202,-507 1202,-449 1012,-449"/>
<polygon fill="#f5f5f5" stroke="transparent" points="1012,-485 1012,-507 1202,-507 1202,-485 1012,-485"/>
<polygon fill="none" stroke="black" points="1012,-485 1012,-507 1202,-507 1202,-485 1012,-485"/>
<text text-anchor="start" x="1017" y="-494.2" font-family="Helvetica,sans-Serif" font-weight="bold" font-size="11.00">transaction_actions</text>
<text text-anchor="start" x="1160" y="-493.2" font-family="Helvetica,sans-Serif" font-size="11.00">[table]</text>
<polygon fill="none" stroke="black" points="1012,-467 1012,-485 1202,-485 1202,-467 1012,-467"/>
<text text-anchor="start" x="1015" y="-473.2" font-family="Helvetica,sans-Serif" font-size="11.00">...</text>
<polygon fill="#ffffff" stroke="transparent" points="1012,-449 1012,-467 1202,-467 1202,-449 1012,-449"/>
<polygon fill="none" stroke="black" points="1012,-449 1012,-467 1202,-467 1202,-449 1012,-449"/>
<polygon fill="#ffffff" stroke="transparent" points="1013,-450 1013,-466 1084,-466 1084,-450 1013,-450"/>
<text text-anchor="start" x="1015" y="-455.2" font-family="Helvetica,sans-Serif" font-size="11.00">&lt; 1</text>
<polygon fill="#ffffff" stroke="transparent" points="1084,-450 1084,-466 1143,-466 1143,-450 1084,-450"/>
<text text-anchor="start" x="1109.5" y="-455.2" font-family="Helvetica,sans-Serif" font-size="11.00"> &#160;</text>
<polygon fill="#ffffff" stroke="transparent" points="1143,-450 1143,-466 1201,-466 1201,-450 1143,-450"/>
<text text-anchor="start" x="1191" y="-455.2" font-family="Helvetica,sans-Serif" font-size="11.00"> &#160;</text>
<polygon fill="black" stroke="black" points="1084,-450 1084,-466 1084,-466 1084,-450 1084,-450"/>
<polygon fill="black" stroke="black" points="1143,-450 1143,-466 1143,-466 1143,-450 1143,-450"/>
</a>
</g>
</g>
<!-- transaction_actions&#45;&gt;transactions -->
<g id="edge16" class="edge">
<title>transaction_actions:w&#45;&gt;transactions:e</title>
<path fill="none" stroke="black" d="M996.27,-474.94C967.61,-470.48 958.75,-452.89 925,-441 903.29,-433.35 879.44,-425.85 857.53,-419.31"/>
<polygon fill="black" stroke="black" points="1003.02,-475.43 1010.74,-479.59 1007.01,-475.71 1011,-476 1011,-476 1011,-476 1007.01,-475.71 1011.26,-472.41 1003.02,-475.43 1003.02,-475.43"/>
<ellipse fill="none" stroke="black" cx="999.83" cy="-475.2" rx="3.2" ry="3.2"/>
</g>
<!-- transaction_forks -->
<g id="node14" class="node">
<title>transaction_forks</title>
<g id="a_node14"><a xlink:href="../../tables/transaction_forks.html" xlink:title="transaction_forks" target="_top">
<polygon fill="#ffffff" stroke="transparent" points="973.5,-37 973.5,-191 1240.5,-191 1240.5,-37 973.5,-37"/>
<polygon fill="#f5f5f5" stroke="transparent" points="976,-167 976,-189 1239,-189 1239,-167 976,-167"/>
<polygon fill="none" stroke="black" points="976,-167 976,-189 1239,-189 1239,-167 976,-167"/>
<text text-anchor="start" x="981" y="-176.2" font-family="Helvetica,sans-Serif" font-weight="bold" font-size="11.00">transaction_forks</text>
<text text-anchor="start" x="1197" y="-175.2" font-family="Helvetica,sans-Serif" font-size="11.00">[table]</text>
<polygon fill="none" stroke="black" points="976,-145 976,-167 1124,-167 1124,-145 976,-145"/>
<image xlink:href="../../images/foreignKeys.png" width="11px" height="12px" preserveAspectRatio="xMinYMin meet" x="981" y="-162"/>
<text text-anchor="start" x="996" y="-153.2" font-family="Helvetica,sans-Serif" font-size="11.00">hash</text>
<polygon fill="none" stroke="black" points="1124,-145 1124,-167 1239,-167 1239,-145 1124,-145"/>
<text text-anchor="start" x="1127" y="-153.2" font-family="Helvetica,sans-Serif" font-size="11.00">bytea[2147483647]</text>
<polygon fill="none" stroke="black" points="976,-123 976,-145 1124,-145 1124,-123 976,-123"/>
<image xlink:href="../../images/primaryKeys.png" width="11px" height="12px" preserveAspectRatio="xMinYMin meet" x="981" y="-140"/>
<text text-anchor="start" x="996" y="-131.2" font-family="Helvetica,sans-Serif" font-size="11.00">index</text>
<polygon fill="none" stroke="black" points="1124,-123 1124,-145 1239,-145 1239,-123 1124,-123"/>
<text text-anchor="start" x="1127" y="-131.2" font-family="Helvetica,sans-Serif" font-size="11.00">int4[10]</text>
<polygon fill="none" stroke="black" points="976,-101 976,-123 1124,-123 1124,-101 976,-101"/>
<image xlink:href="../../images/primaryKeys.png" width="11px" height="12px" preserveAspectRatio="xMinYMin meet" x="981" y="-118"/>
<text text-anchor="start" x="996" y="-109.2" font-family="Helvetica,sans-Serif" font-size="11.00">uncle_hash</text>
<polygon fill="none" stroke="black" points="1124,-101 1124,-123 1239,-123 1239,-101 1124,-101"/>
<text text-anchor="start" x="1127" y="-109.2" font-family="Helvetica,sans-Serif" font-size="11.00">bytea[2147483647]</text>
<polygon fill="none" stroke="black" points="976,-79 976,-101 1124,-101 1124,-79 976,-79"/>
<text text-anchor="start" x="996" y="-87.2" font-family="Helvetica,sans-Serif" font-size="11.00">inserted_at</text>
<polygon fill="none" stroke="black" points="1124,-79 1124,-101 1239,-101 1239,-79 1124,-79"/>
<text text-anchor="start" x="1127" y="-87.2" font-family="Helvetica,sans-Serif" font-size="11.00">timestamp[29,6]</text>
<polygon fill="none" stroke="black" points="976,-57 976,-79 1124,-79 1124,-57 976,-57"/>
<text text-anchor="start" x="996" y="-65.2" font-family="Helvetica,sans-Serif" font-size="11.00">updated_at</text>
<polygon fill="none" stroke="black" points="1124,-57 1124,-79 1239,-79 1239,-57 1124,-57"/>
<text text-anchor="start" x="1127" y="-65.2" font-family="Helvetica,sans-Serif" font-size="11.00">timestamp[29,6]</text>
<polygon fill="#ffffff" stroke="transparent" points="976,-39 976,-57 1239,-57 1239,-39 976,-39"/>
<polygon fill="none" stroke="black" points="976,-39 976,-57 1239,-57 1239,-39 976,-39"/>
<polygon fill="#ffffff" stroke="transparent" points="977,-40 977,-56 1068,-56 1068,-40 977,-40"/>
<text text-anchor="start" x="979" y="-45.2" font-family="Helvetica,sans-Serif" font-size="11.00">&lt; 2</text>
<polygon fill="#ffffff" stroke="transparent" points="1068,-40 1068,-56 1147,-56 1147,-40 1068,-40"/>
<text text-anchor="start" x="1103.5" y="-45.2" font-family="Helvetica,sans-Serif" font-size="11.00"> &#160;</text>
<polygon fill="#ffffff" stroke="transparent" points="1147,-40 1147,-56 1238,-56 1238,-40 1147,-40"/>
<text text-anchor="start" x="1216" y="-45.2" font-family="Helvetica,sans-Serif" font-size="11.00">0 &gt;</text>
<polygon fill="black" stroke="black" points="1068,-40 1068,-56 1068,-56 1068,-40 1068,-40"/>
<polygon fill="black" stroke="black" points="1147,-40 1147,-56 1147,-56 1147,-40 1147,-40"/>
<polygon fill="none" stroke="black" stroke-width="2" points="974.5,-38 974.5,-190 1239.5,-190 1239.5,-38 974.5,-38"/>
</a>
</g>
</g>
<!-- transaction_forks&#45;&gt;blocks -->
<g id="edge18" class="edge">
<title>transaction_forks:w&#45;&gt;blocks:e</title>
<path fill="none" stroke="black" d="M960.41,-111.91C691.26,-108.49 568.37,-12.75 350,-179 290.8,-224.07 272.06,-315.74 266.17,-364.98"/>
<polygon fill="black" stroke="black" points="967,-111.95 974.98,-115.6 971,-111.97 975,-112 975,-112 975,-112 971,-111.97 975.02,-108.4 967,-111.95 967,-111.95"/>
<ellipse fill="none" stroke="black" cx="963.8" cy="-111.93" rx="3.2" ry="3.2"/>
</g>
<!-- transaction_forks&#45;&gt;transactions -->
<g id="edge17" class="edge">
<title>transaction_forks:w&#45;&gt;transactions:e</title>
<path fill="none" stroke="black" d="M960.7,-159.02C907.77,-179.94 833.25,-304.28 799.43,-364.86"/>
<polygon fill="black" stroke="black" points="967.17,-157.65 975.74,-159.52 971.09,-156.83 975,-156 975,-156 975,-156 971.09,-156.83 974.26,-152.48 967.17,-157.65 967.17,-157.65"/>
<ellipse fill="none" stroke="black" cx="964.04" cy="-158.31" rx="3.2" ry="3.2"/>
</g>
</g>
</svg>
