<?xml version="1.0" encoding="UTF-8" standalone="no"?>
<!DOCTYPE svg PUBLIC "-//W3C//DTD SVG 1.1//EN"
 "http://www.w3.org/Graphics/SVG/1.1/DTD/svg11.dtd">
<!-- Generated by graphviz version 9.0.0 (20230911.1827)
 -->
<!-- Title: oneDegreeRelationshipsDiagramImplied Pages: 1 -->
<svg width="640pt" height="437pt"
 viewBox="0.00 0.00 640.00 437.00" xmlns="http://www.w3.org/2000/svg" xmlns:xlink="http://www.w3.org/1999/xlink">
<g id="graph0" class="graph" transform="scale(1 1) rotate(0) translate(4 433)">
<title>oneDegreeRelationshipsDiagramImplied</title>
<polygon fill="#ffffff" stroke="none" points="-4,4 -4,-433 636,-433 636,4 -4,4"/>
<text text-anchor="middle" x="71.38" y="-5.55" font-family="Helvetica,sans-Serif" font-size="11.00">Generated by SchemaSpy</text>
<!-- transaction_actions -->
<g id="node1" class="node">
<title>transaction_actions</title>
<g id="a_node1"><a xlink:href="../../tables/transaction_actions.html" xlink:title="transaction_actions" target="_top">
<polygon fill="#ffffff" stroke="none" points="278,-207 278,-405 624,-405 624,-207 278,-207"/>
<polygon fill="#f5f5f5" stroke="none" points="280,-381 280,-403 622,-403 622,-381 280,-381"/>
<polygon fill="none" stroke="black" points="280,-381 280,-403 622,-403 622,-381 280,-381"/>
<text text-anchor="start" x="285" y="-388.55" font-family="Helvetica,sans-Serif" font-weight="bold" font-size="11.00">transaction_actions</text>
<text text-anchor="start" x="587.75" y="-387.55" font-family="Helvetica,sans-Serif" font-size="11.00">[table]</text>
<polygon fill="none" stroke="black" points="280,-359 280,-381 414,-381 414,-359 280,-359"/>
<image xlink:href="../../images/primaryKeys.png" width="11px" height="12px" preserveAspectRatio="xMinYMin meet" x="285" y="-376"/>
<text text-anchor="start" x="300" y="-365.55" font-family="Helvetica,sans-Serif" font-size="11.00">hash</text>
<polygon fill="none" stroke="black" points="414,-359 414,-381 622,-381 622,-359 414,-359"/>
<text text-anchor="start" x="417" y="-365.55" font-family="Helvetica,sans-Serif" font-size="11.00">bytea[2147483647]</text>
<polygon fill="#ffffff" stroke="none" points="280,-337 280,-359 414,-359 414,-337 280,-337"/>
<polygon fill="none" stroke="black" points="280,-337 280,-359 414,-359 414,-337 280,-337"/>
<text text-anchor="start" x="300" y="-343.55" font-family="Helvetica,sans-Serif" font-size="11.00">protocol</text>
<polygon fill="none" stroke="black" points="414,-337 414,-359 622,-359 622,-337 414,-337"/>
<text text-anchor="start" x="416.75" y="-343.55" font-family="Helvetica,sans-Serif" font-size="11.00">transaction_actions_protocol[2147483647]</text>
<polygon fill="none" stroke="black" points="280,-315 280,-337 414,-337 414,-315 280,-315"/>
<text text-anchor="start" x="300" y="-321.55" font-family="Helvetica,sans-Serif" font-size="11.00">data</text>
<polygon fill="none" stroke="black" points="414,-315 414,-337 622,-337 622,-315 414,-315"/>
<text text-anchor="start" x="417" y="-321.55" font-family="Helvetica,sans-Serif" font-size="11.00">jsonb[2147483647]</text>
<polygon fill="#ffffff" stroke="none" points="280,-293 280,-315 414,-315 414,-293 280,-293"/>
<polygon fill="none" stroke="black" points="280,-293 280,-315 414,-315 414,-293 280,-293"/>
<text text-anchor="start" x="300" y="-299.55" font-family="Helvetica,sans-Serif" font-size="11.00">type</text>
<polygon fill="none" stroke="black" points="414,-293 414,-315 622,-315 622,-293 414,-293"/>
<text text-anchor="start" x="417" y="-299.55" font-family="Helvetica,sans-Serif" font-size="11.00">transaction_actions_type[2147483647]</text>
<polygon fill="none" stroke="black" points="280,-271 280,-293 414,-293 414,-271 280,-271"/>
<image xlink:href="../../images/primaryKeys.png" width="11px" height="12px" preserveAspectRatio="xMinYMin meet" x="285" y="-288"/>
<text text-anchor="start" x="300" y="-277.55" font-family="Helvetica,sans-Serif" font-size="11.00">log_index</text>
<polygon fill="none" stroke="black" points="414,-271 414,-293 622,-293 622,-271 414,-271"/>
<text text-anchor="start" x="417" y="-277.55" font-family="Helvetica,sans-Serif" font-size="11.00">int4[10]</text>
<polygon fill="none" stroke="black" points="280,-249 280,-271 414,-271 414,-249 280,-249"/>
<text text-anchor="start" x="300" y="-255.55" font-family="Helvetica,sans-Serif" font-size="11.00">inserted_at</text>
<polygon fill="none" stroke="black" points="414,-249 414,-271 622,-271 622,-249 414,-249"/>
<text text-anchor="start" x="417" y="-255.55" font-family="Helvetica,sans-Serif" font-size="11.00">timestamp[29,6]</text>
<polygon fill="none" stroke="black" points="280,-227 280,-249 414,-249 414,-227 280,-227"/>
<text text-anchor="start" x="300" y="-233.55" font-family="Helvetica,sans-Serif" font-size="11.00">updated_at</text>
<polygon fill="none" stroke="black" points="414,-227 414,-249 622,-249 622,-227 414,-227"/>
<text text-anchor="start" x="417" y="-233.55" font-family="Helvetica,sans-Serif" font-size="11.00">timestamp[29,6]</text>
<polygon fill="#ffffff" stroke="none" points="280,-209 280,-227 351,-227 351,-209 280,-209"/>
<polygon fill="none" stroke="black" points="280,-209 280,-227 351,-227 351,-209 280,-209"/>
<text text-anchor="start" x="283" y="-213.55" font-family="Helvetica,sans-Serif" font-size="11.00">&lt; 1</text>
<polygon fill="#ffffff" stroke="none" points="351,-209 351,-227 414,-227 414,-209 351,-209"/>
<polygon fill="none" stroke="black" points="351,-209 351,-227 414,-227 414,-209 351,-209"/>
<text text-anchor="start" x="405" y="-213.55" font-family="Helvetica,sans-Serif" font-size="11.00"> &#160;</text>
<polygon fill="#ffffff" stroke="none" points="414,-209 414,-227 622,-227 622,-209 414,-209"/>
<polygon fill="none" stroke="black" points="414,-209 414,-227 622,-227 622,-209 414,-209"/>
<text text-anchor="start" x="603.25" y="-213.55" font-family="Helvetica,sans-Serif" font-size="11.00">0 &gt;</text>
<polygon fill="none" stroke="black" stroke-width="2" points="279,-208 279,-404 623,-404 623,-208 279,-208"/>
</a>
</g>
</g>
<!-- transactions -->
<g id="node2" class="node">
<title>transactions</title>
<g id="a_node2"><a xlink:href="../../tables/transactions.html" xlink:title="transactions" target="_top">
<polygon fill="#ffffff" stroke="none" points="8,-37 8,-425 229,-425 229,-37 8,-37"/>
<polygon fill="#f5f5f5" stroke="none" points="8,-403 8,-425 229,-425 229,-403 8,-403"/>
<polygon fill="none" stroke="black" points="8,-403 8,-425 229,-425 229,-403 8,-403"/>
<text text-anchor="start" x="13" y="-410.55" font-family="Helvetica,sans-Serif" font-weight="bold" font-size="11.00">transactions</text>
<text text-anchor="start" x="194.75" y="-409.55" font-family="Helvetica,sans-Serif" font-size="11.00">[table]</text>
<polygon fill="#ffffff" stroke="none" points="8,-381 8,-403 229,-403 229,-381 8,-381"/>
<polygon fill="none" stroke="black" points="8,-381 8,-403 229,-403 229,-381 8,-381"/>
<text text-anchor="start" x="28" y="-387.55" font-family="Helvetica,sans-Serif" font-size="11.00">error</text>
<polygon fill="none" stroke="black" points="8,-359 8,-381 229,-381 229,-359 8,-359"/>
<image xlink:href="../../images/primaryKeys.png" width="11px" height="12px" preserveAspectRatio="xMinYMin meet" x="13" y="-376"/>
<text text-anchor="start" x="28" y="-365.55" font-family="Helvetica,sans-Serif" font-size="11.00">hash</text>
<polygon fill="#ffffff" stroke="none" points="8,-337 8,-359 229,-359 229,-337 8,-337"/>
<polygon fill="none" stroke="black" points="8,-337 8,-359 229,-359 229,-337 8,-337"/>
<image xlink:href="../../images/foreignKeys.png" width="11px" height="12px" preserveAspectRatio="xMinYMin meet" x="13" y="-354"/>
<text text-anchor="start" x="28" y="-343.55" font-family="Helvetica,sans-Serif" font-size="11.00">index</text>
<polygon fill="#ffffff" stroke="none" points="8,-315 8,-337 229,-337 229,-315 8,-315"/>
<polygon fill="none" stroke="black" points="8,-315 8,-337 229,-337 229,-315 8,-315"/>
<text text-anchor="start" x="28" y="-321.55" font-family="Helvetica,sans-Serif" font-size="11.00">nonce</text>
<polygon fill="#ffffff" stroke="none" points="8,-293 8,-315 229,-315 229,-293 8,-293"/>
<polygon fill="none" stroke="black" points="8,-293 8,-315 229,-315 229,-293 8,-293"/>
<text text-anchor="start" x="28" y="-299.55" font-family="Helvetica,sans-Serif" font-size="11.00">status</text>
<polygon fill="#ffffff" stroke="none" points="8,-271 8,-293 229,-293 229,-271 8,-271"/>
<polygon fill="none" stroke="black" points="8,-271 8,-293 229,-293 229,-271 8,-271"/>
<text text-anchor="start" x="28" y="-277.55" font-family="Helvetica,sans-Serif" font-size="11.00">inserted_at</text>
<polygon fill="#ffffff" stroke="none" points="8,-249 8,-271 229,-271 229,-249 8,-249"/>
<polygon fill="none" stroke="black" points="8,-249 8,-271 229,-271 229,-249 8,-249"/>
<text text-anchor="start" x="28" y="-255.55" font-family="Helvetica,sans-Serif" font-size="11.00">updated_at</text>
<polygon fill="#ffffff" stroke="none" points="8,-227 8,-249 229,-249 229,-227 8,-227"/>
<polygon fill="none" stroke="black" points="8,-227 8,-249 229,-249 229,-227 8,-227"/>
<image xlink:href="../../images/foreignKeys.png" width="11px" height="12px" preserveAspectRatio="xMinYMin meet" x="13" y="-244"/>
<text text-anchor="start" x="28" y="-233.55" font-family="Helvetica,sans-Serif" font-size="11.00">block_hash</text>
<polygon fill="#ffffff" stroke="none" points="8,-205 8,-227 229,-227 229,-205 8,-205"/>
<polygon fill="none" stroke="black" points="8,-205 8,-227 229,-227 229,-205 8,-205"/>
<text text-anchor="start" x="28" y="-211.55" font-family="Helvetica,sans-Serif" font-size="11.00">block_number</text>
<polygon fill="#ffffff" stroke="none" points="8,-183 8,-205 229,-205 229,-183 8,-183"/>
<polygon fill="none" stroke="black" points="8,-183 8,-205 229,-205 229,-183 8,-183"/>
<text text-anchor="start" x="28" y="-189.55" font-family="Helvetica,sans-Serif" font-size="11.00">from_address_hash</text>
<polygon fill="#ffffff" stroke="none" points="8,-161 8,-183 229,-183 229,-161 8,-161"/>
<polygon fill="none" stroke="black" points="8,-161 8,-183 229,-183 229,-161 8,-161"/>
<text text-anchor="start" x="28" y="-167.55" font-family="Helvetica,sans-Serif" font-size="11.00">to_address_hash</text>
<polygon fill="#ffffff" stroke="none" points="8,-139 8,-161 229,-161 229,-139 8,-139"/>
<polygon fill="none" stroke="black" points="8,-139 8,-161 229,-161 229,-139 8,-139"/>
<text text-anchor="start" x="28" y="-145.55" font-family="Helvetica,sans-Serif" font-size="11.00">created_contract_address_hash</text>
<polygon fill="#ffffff" stroke="none" points="8,-117 8,-139 229,-139 229,-117 8,-117"/>
<polygon fill="none" stroke="black" points="8,-117 8,-139 229,-139 229,-117 8,-117"/>
<text text-anchor="start" x="28" y="-123.55" font-family="Helvetica,sans-Serif" font-size="11.00">created_contract_code_indexed_at</text>
<polygon fill="#ffffff" stroke="none" points="8,-95 8,-117 229,-117 229,-95 8,-95"/>
<polygon fill="none" stroke="black" points="8,-95 8,-117 229,-117 229,-95 8,-95"/>
<text text-anchor="start" x="28" y="-101.55" font-family="Helvetica,sans-Serif" font-size="11.00">block_timestamp</text>
<polygon fill="#ffffff" stroke="none" points="8,-73 8,-95 229,-95 229,-73 8,-73"/>
<polygon fill="none" stroke="black" points="8,-73 8,-95 229,-95 229,-73 8,-73"/>
<text text-anchor="start" x="28" y="-79.55" font-family="Helvetica,sans-Serif" font-size="11.00">block_consensus</text>
<polygon fill="none" stroke="black" points="8,-55 8,-73 229,-73 229,-55 8,-55"/>
<text text-anchor="start" x="11" y="-59.55" font-family="Helvetica,sans-Serif" font-size="11.00">...</text>
<polygon fill="#ffffff" stroke="none" points="8,-37 8,-55 112,-55 112,-37 8,-37"/>
<polygon fill="none" stroke="black" points="8,-37 8,-55 112,-55 112,-37 8,-37"/>
<text text-anchor="start" x="11" y="-41.55" font-family="Helvetica,sans-Serif" font-size="11.00">&lt; 1</text>
<polygon fill="#ffffff" stroke="none" points="112,-37 112,-55 166,-55 166,-37 112,-37"/>
<polygon fill="none" stroke="black" points="112,-37 112,-55 166,-55 166,-37 112,-37"/>
<text text-anchor="start" x="157" y="-41.55" font-family="Helvetica,sans-Serif" font-size="11.00"> &#160;</text>
<polygon fill="#ffffff" stroke="none" points="166,-37 166,-55 229,-55 229,-37 166,-37"/>
<polygon fill="none" stroke="black" points="166,-37 166,-55 229,-55 229,-37 166,-37"/>
<text text-anchor="start" x="210.25" y="-41.55" font-family="Helvetica,sans-Serif" font-size="11.00">5 &gt;</text>
</a>
</g>
</g>
<!-- transaction_actions&#45;&gt;transactions -->
<g id="edge1" class="edge">
<title>transaction_actions:w&#45;&gt;transactions:e</title>
<path fill="none" stroke="black" d="M263.23,-370C252.82,-370 245.66,-370 230.5,-370"/>
<polygon fill="black" stroke="black" points="270.67,-370 278.67,-373.6 275,-370 278.33,-370 278.33,-370 278.33,-370 275,-370 278.67,-366.4 270.67,-370"/>
<ellipse fill="none" stroke="black" cx="265.75" cy="-370" rx="3.2" ry="3.2"/>
</g>
</g>
</svg>
