<?xml version="1.0" encoding="UTF-8" standalone="no"?>
<!DOCTYPE svg PUBLIC "-//W3C//DTD SVG 1.1//EN"
 "http://www.w3.org/Graphics/SVG/1.1/DTD/svg11.dtd">
<!-- Generated by graphviz version 2.43.0 (0)
 -->
<!-- Title: twoDegreesRelationshipsDiagram Pages: 1 -->
<svg width="896pt" height="721pt"
 viewBox="0.00 0.00 896.00 721.00" xmlns="http://www.w3.org/2000/svg" xmlns:xlink="http://www.w3.org/1999/xlink">
<g id="graph0" class="graph" transform="scale(1 1) rotate(0) translate(4 717)">
<title>twoDegreesRelationshipsDiagram</title>
<polygon fill="#ffffff" stroke="transparent" points="-4,4 -4,-717 892,-717 892,4 -4,4"/>
<text text-anchor="middle" x="79.5" y="-7.2" font-family="Helvetica,sans-Serif" font-size="11.00">Generated by SchemaSpy</text>
<!-- internal_transactions -->
<g id="node1" class="node">
<title>internal_transactions</title>
<g id="a_node1"><a xlink:href="../../tables/internal_transactions.html" xlink:title="internal_transactions" target="_top">
<polygon fill="#ffffff" stroke="transparent" points="574.5,-651 574.5,-709 776.5,-709 776.5,-651 574.5,-651"/>
<polygon fill="#f5f5f5" stroke="transparent" points="574.5,-687 574.5,-709 776.5,-709 776.5,-687 574.5,-687"/>
<polygon fill="none" stroke="black" points="574.5,-687 574.5,-709 776.5,-709 776.5,-687 574.5,-687"/>
<text text-anchor="start" x="579.5" y="-696.2" font-family="Helvetica,sans-Serif" font-weight="bold" font-size="11.00">internal_transactions</text>
<text text-anchor="start" x="734.5" y="-695.2" font-family="Helvetica,sans-Serif" font-size="11.00">[table]</text>
<polygon fill="none" stroke="black" points="574.5,-669 574.5,-687 776.5,-687 776.5,-669 574.5,-669"/>
<text text-anchor="start" x="577.5" y="-675.2" font-family="Helvetica,sans-Serif" font-size="11.00">...</text>
<polygon fill="#ffffff" stroke="transparent" points="574.5,-651 574.5,-669 776.5,-669 776.5,-651 574.5,-651"/>
<polygon fill="none" stroke="black" points="574.5,-651 574.5,-669 776.5,-669 776.5,-651 574.5,-651"/>
<polygon fill="#ffffff" stroke="transparent" points="575.5,-652 575.5,-668 650.5,-668 650.5,-652 575.5,-652"/>
<text text-anchor="start" x="577.5" y="-657.2" font-family="Helvetica,sans-Serif" font-size="11.00">&lt; 2</text>
<polygon fill="#ffffff" stroke="transparent" points="650.5,-652 650.5,-668 713.5,-668 713.5,-652 650.5,-652"/>
<text text-anchor="start" x="678" y="-657.2" font-family="Helvetica,sans-Serif" font-size="11.00"> &#160;</text>
<polygon fill="#ffffff" stroke="transparent" points="713.5,-652 713.5,-668 775.5,-668 775.5,-652 713.5,-652"/>
<text text-anchor="start" x="765.5" y="-657.2" font-family="Helvetica,sans-Serif" font-size="11.00"> &#160;</text>
<polygon fill="black" stroke="black" points="650.5,-652 650.5,-668 650.5,-668 650.5,-652 650.5,-652"/>
<polygon fill="black" stroke="black" points="713.5,-652 713.5,-668 713.5,-668 713.5,-652 713.5,-652"/>
</a>
</g>
</g>
<!-- blocks -->
<g id="node2" class="node">
<title>blocks</title>
<g id="a_node2"><a xlink:href="../../tables/blocks.html" xlink:title="blocks" target="_top">
<polygon fill="#ffffff" stroke="transparent" points="8,-341 8,-399 101,-399 101,-341 8,-341"/>
<polygon fill="#f5f5f5" stroke="transparent" points="8.5,-377 8.5,-399 101.5,-399 101.5,-377 8.5,-377"/>
<polygon fill="none" stroke="black" points="8.5,-377 8.5,-399 101.5,-399 101.5,-377 8.5,-377"/>
<text text-anchor="start" x="13.5" y="-386.2" font-family="Helvetica,sans-Serif" font-weight="bold" font-size="11.00">blocks</text>
<text text-anchor="start" x="59.5" y="-385.2" font-family="Helvetica,sans-Serif" font-size="11.00">[table]</text>
<polygon fill="none" stroke="black" points="8.5,-359 8.5,-377 101.5,-377 101.5,-359 8.5,-359"/>
<text text-anchor="start" x="11.5" y="-365.2" font-family="Helvetica,sans-Serif" font-size="11.00">...</text>
<polygon fill="#ffffff" stroke="transparent" points="8.5,-341 8.5,-359 101.5,-359 101.5,-341 8.5,-341"/>
<polygon fill="none" stroke="black" points="8.5,-341 8.5,-359 101.5,-359 101.5,-341 8.5,-341"/>
<polygon fill="#ffffff" stroke="transparent" points="9.5,-342 9.5,-358 36.5,-358 36.5,-342 9.5,-342"/>
<text text-anchor="start" x="11.5" y="-347.2" font-family="Helvetica,sans-Serif" font-size="11.00"> &#160;</text>
<polygon fill="#ffffff" stroke="transparent" points="36.5,-342 36.5,-358 62.5,-358 62.5,-342 36.5,-342"/>
<text text-anchor="start" x="45.5" y="-347.2" font-family="Helvetica,sans-Serif" font-size="11.00"> &#160;</text>
<polygon fill="#ffffff" stroke="transparent" points="62.5,-342 62.5,-358 100.5,-358 100.5,-342 62.5,-342"/>
<text text-anchor="start" x="78.5" y="-347.2" font-family="Helvetica,sans-Serif" font-size="11.00">9 &gt;</text>
<polygon fill="black" stroke="black" points="36.5,-342 36.5,-358 36.5,-358 36.5,-342 36.5,-342"/>
<polygon fill="black" stroke="black" points="62.5,-342 62.5,-358 62.5,-358 62.5,-342 62.5,-342"/>
</a>
</g>
</g>
<!-- internal_transactions&#45;&gt;blocks -->
<g id="edge1" class="edge">
<title>internal_transactions:w&#45;&gt;blocks:e</title>
<path fill="none" stroke="black" d="M559.1,-678.1C373.4,-680.77 275.54,-732.53 142,-597 105.76,-560.22 154.14,-368 102.5,-368"/>
<polygon fill="black" stroke="black" points="565.5,-678.06 573.53,-681.6 569.5,-678.03 573.5,-678 573.5,-678 573.5,-678 569.5,-678.03 573.47,-674.4 565.5,-678.06 565.5,-678.06"/>
<ellipse fill="none" stroke="black" cx="562.3" cy="-678.08" rx="3.2" ry="3.2"/>
</g>
<!-- transactions -->
<g id="node3" class="node">
<title>transactions</title>
<g id="a_node3"><a xlink:href="../../tables/transactions.html" xlink:title="transactions" target="_top">
<polygon fill="#ffffff" stroke="transparent" points="150,-167 150,-555 422,-555 422,-167 150,-167"/>
<polygon fill="#f5f5f5" stroke="transparent" points="150,-533 150,-555 422,-555 422,-533 150,-533"/>
<polygon fill="none" stroke="black" points="150,-533 150,-555 422,-555 422,-533 150,-533"/>
<text text-anchor="start" x="155" y="-542.2" font-family="Helvetica,sans-Serif" font-weight="bold" font-size="11.00">transactions</text>
<text text-anchor="start" x="380" y="-541.2" font-family="Helvetica,sans-Serif" font-size="11.00">[table]</text>
<polygon fill="#ffffff" stroke="transparent" points="150,-511 150,-533 422,-533 422,-511 150,-511"/>
<polygon fill="none" stroke="black" points="150,-511 150,-533 422,-533 422,-511 150,-511"/>
<text text-anchor="start" x="170" y="-519.2" font-family="Helvetica,sans-Serif" font-size="11.00">error</text>
<polygon fill="none" stroke="black" points="150,-489 150,-511 422,-511 422,-489 150,-489"/>
<image xlink:href="../../images/primaryKeys.png" width="11px" height="12px" preserveAspectRatio="xMinYMin meet" x="155" y="-506"/>
<text text-anchor="start" x="170" y="-497.2" font-family="Helvetica,sans-Serif" font-size="11.00">hash</text>
<polygon fill="#ffffff" stroke="transparent" points="150,-467 150,-489 422,-489 422,-467 150,-467"/>
<polygon fill="none" stroke="black" points="150,-467 150,-489 422,-489 422,-467 150,-467"/>
<image xlink:href="../../images/foreignKeys.png" width="11px" height="12px" preserveAspectRatio="xMinYMin meet" x="155" y="-484"/>
<text text-anchor="start" x="170" y="-475.2" font-family="Helvetica,sans-Serif" font-size="11.00">index</text>
<polygon fill="#ffffff" stroke="transparent" points="150,-445 150,-467 422,-467 422,-445 150,-445"/>
<polygon fill="none" stroke="black" points="150,-445 150,-467 422,-467 422,-445 150,-445"/>
<text text-anchor="start" x="170" y="-453.2" font-family="Helvetica,sans-Serif" font-size="11.00">nonce</text>
<polygon fill="#ffffff" stroke="transparent" points="150,-423 150,-445 422,-445 422,-423 150,-423"/>
<polygon fill="none" stroke="black" points="150,-423 150,-445 422,-445 422,-423 150,-423"/>
<text text-anchor="start" x="170" y="-431.2" font-family="Helvetica,sans-Serif" font-size="11.00">status</text>
<polygon fill="#ffffff" stroke="transparent" points="150,-401 150,-423 422,-423 422,-401 150,-401"/>
<polygon fill="none" stroke="black" points="150,-401 150,-423 422,-423 422,-401 150,-401"/>
<text text-anchor="start" x="170" y="-409.2" font-family="Helvetica,sans-Serif" font-size="11.00">inserted_at</text>
<polygon fill="#ffffff" stroke="transparent" points="150,-379 150,-401 422,-401 422,-379 150,-379"/>
<polygon fill="none" stroke="black" points="150,-379 150,-401 422,-401 422,-379 150,-379"/>
<text text-anchor="start" x="170" y="-387.2" font-family="Helvetica,sans-Serif" font-size="11.00">updated_at</text>
<polygon fill="#ffffff" stroke="transparent" points="150,-357 150,-379 422,-379 422,-357 150,-357"/>
<polygon fill="none" stroke="black" points="150,-357 150,-379 422,-379 422,-357 150,-357"/>
<image xlink:href="../../images/foreignKeys.png" width="11px" height="12px" preserveAspectRatio="xMinYMin meet" x="155" y="-374"/>
<text text-anchor="start" x="170" y="-365.2" font-family="Helvetica,sans-Serif" font-size="11.00">block_hash</text>
<polygon fill="#ffffff" stroke="transparent" points="150,-335 150,-357 422,-357 422,-335 150,-335"/>
<polygon fill="none" stroke="black" points="150,-335 150,-357 422,-357 422,-335 150,-335"/>
<text text-anchor="start" x="170" y="-343.2" font-family="Helvetica,sans-Serif" font-size="11.00">block_number</text>
<polygon fill="#ffffff" stroke="transparent" points="150,-313 150,-335 422,-335 422,-313 150,-313"/>
<polygon fill="none" stroke="black" points="150,-313 150,-335 422,-335 422,-313 150,-313"/>
<text text-anchor="start" x="170" y="-321.2" font-family="Helvetica,sans-Serif" font-size="11.00">from_address_hash</text>
<polygon fill="#ffffff" stroke="transparent" points="150,-291 150,-313 422,-313 422,-291 150,-291"/>
<polygon fill="none" stroke="black" points="150,-291 150,-313 422,-313 422,-291 150,-291"/>
<text text-anchor="start" x="170" y="-299.2" font-family="Helvetica,sans-Serif" font-size="11.00">to_address_hash</text>
<polygon fill="#ffffff" stroke="transparent" points="150,-269 150,-291 422,-291 422,-269 150,-269"/>
<polygon fill="none" stroke="black" points="150,-269 150,-291 422,-291 422,-269 150,-269"/>
<text text-anchor="start" x="170" y="-277.2" font-family="Helvetica,sans-Serif" font-size="11.00">created_contract_address_hash</text>
<polygon fill="#ffffff" stroke="transparent" points="150,-247 150,-269 422,-269 422,-247 150,-247"/>
<polygon fill="none" stroke="black" points="150,-247 150,-269 422,-269 422,-247 150,-247"/>
<text text-anchor="start" x="170" y="-255.2" font-family="Helvetica,sans-Serif" font-size="11.00">created_contract_code_indexed_at</text>
<polygon fill="#ffffff" stroke="transparent" points="150,-225 150,-247 422,-247 422,-225 150,-225"/>
<polygon fill="none" stroke="black" points="150,-225 150,-247 422,-247 422,-225 150,-225"/>
<text text-anchor="start" x="170" y="-233.2" font-family="Helvetica,sans-Serif" font-size="11.00">block_timestamp</text>
<polygon fill="#ffffff" stroke="transparent" points="150,-203 150,-225 422,-225 422,-203 150,-203"/>
<polygon fill="none" stroke="black" points="150,-203 150,-225 422,-225 422,-203 150,-203"/>
<text text-anchor="start" x="170" y="-211.2" font-family="Helvetica,sans-Serif" font-size="11.00">block_consensus</text>
<polygon fill="none" stroke="black" points="150,-185 150,-203 422,-203 422,-185 150,-185"/>
<text text-anchor="start" x="153" y="-191.2" font-family="Helvetica,sans-Serif" font-size="11.00">...</text>
<polygon fill="#ffffff" stroke="transparent" points="150,-167 150,-185 422,-185 422,-167 150,-167"/>
<polygon fill="none" stroke="black" points="150,-167 150,-185 422,-185 422,-167 150,-167"/>
<polygon fill="#ffffff" stroke="transparent" points="151,-168 151,-184 245,-184 245,-168 151,-168"/>
<text text-anchor="start" x="153" y="-173.2" font-family="Helvetica,sans-Serif" font-size="11.00">&lt; 1</text>
<polygon fill="#ffffff" stroke="transparent" points="245,-168 245,-184 327,-184 327,-168 245,-168"/>
<text text-anchor="start" x="282" y="-173.2" font-family="Helvetica,sans-Serif" font-size="11.00"> &#160;</text>
<polygon fill="#ffffff" stroke="transparent" points="327,-168 327,-184 421,-184 421,-168 327,-168"/>
<text text-anchor="start" x="399" y="-173.2" font-family="Helvetica,sans-Serif" font-size="11.00">7 &gt;</text>
<polygon fill="black" stroke="black" points="245,-168 245,-184 245,-184 245,-168 245,-168"/>
<polygon fill="black" stroke="black" points="327,-168 327,-184 327,-184 327,-168 327,-168"/>
</a>
</g>
</g>
<!-- internal_transactions&#45;&gt;transactions -->
<g id="edge2" class="edge">
<title>internal_transactions:w&#45;&gt;transactions:e</title>
<path fill="none" stroke="black" d="M558.84,-677.98C517.01,-677.72 495.2,-674.73 463,-641 418.03,-593.88 488.14,-500 423,-500"/>
<polygon fill="black" stroke="black" points="565.5,-677.99 573.49,-681.6 569.5,-677.99 573.5,-678 573.5,-678 573.5,-678 569.5,-677.99 573.51,-674.4 565.5,-677.99 565.5,-677.99"/>
<ellipse fill="none" stroke="black" cx="562.3" cy="-677.98" rx="3.2" ry="3.2"/>
</g>
<!-- transactions&#45;&gt;blocks -->
<g id="edge12" class="edge">
<title>transactions:w&#45;&gt;blocks:e</title>
<path fill="none" stroke="black" d="M134.55,-368C124.2,-368 117.35,-368 102.5,-368"/>
<polygon fill="black" stroke="black" points="141,-368 149,-371.6 145,-368 149,-368 149,-368 149,-368 145,-368 149,-364.4 141,-368 141,-368"/>
<ellipse fill="none" stroke="black" cx="137.8" cy="-368" rx="3.2" ry="3.2"/>
</g>
<!-- logs -->
<g id="node4" class="node">
<title>logs</title>
<g id="a_node4"><a xlink:href="../../tables/logs.html" xlink:title="logs" target="_top">
<polygon fill="#ffffff" stroke="transparent" points="637,-572 637,-630 714,-630 714,-572 637,-572"/>
<polygon fill="#f5f5f5" stroke="transparent" points="637.5,-608 637.5,-630 714.5,-630 714.5,-608 637.5,-608"/>
<polygon fill="none" stroke="black" points="637.5,-608 637.5,-630 714.5,-630 714.5,-608 637.5,-608"/>
<text text-anchor="start" x="642.5" y="-617.2" font-family="Helvetica,sans-Serif" font-weight="bold" font-size="11.00">logs</text>
<text text-anchor="start" x="672.5" y="-616.2" font-family="Helvetica,sans-Serif" font-size="11.00">[table]</text>
<polygon fill="none" stroke="black" points="637.5,-590 637.5,-608 714.5,-608 714.5,-590 637.5,-590"/>
<text text-anchor="start" x="640.5" y="-596.2" font-family="Helvetica,sans-Serif" font-size="11.00">...</text>
<polygon fill="#ffffff" stroke="transparent" points="637.5,-572 637.5,-590 714.5,-590 714.5,-572 637.5,-572"/>
<polygon fill="none" stroke="black" points="637.5,-572 637.5,-590 714.5,-590 714.5,-572 637.5,-572"/>
<polygon fill="#ffffff" stroke="transparent" points="638.5,-573 638.5,-589 671.5,-589 671.5,-573 638.5,-573"/>
<text text-anchor="start" x="640.5" y="-578.2" font-family="Helvetica,sans-Serif" font-size="11.00">&lt; 2</text>
<polygon fill="#ffffff" stroke="transparent" points="671.5,-573 671.5,-589 692.5,-589 692.5,-573 671.5,-573"/>
<text text-anchor="start" x="678" y="-578.2" font-family="Helvetica,sans-Serif" font-size="11.00"> &#160;</text>
<polygon fill="#ffffff" stroke="transparent" points="692.5,-573 692.5,-589 713.5,-589 713.5,-573 692.5,-573"/>
<text text-anchor="start" x="703.5" y="-578.2" font-family="Helvetica,sans-Serif" font-size="11.00"> &#160;</text>
<polygon fill="black" stroke="black" points="671.5,-573 671.5,-589 671.5,-589 671.5,-573 671.5,-573"/>
<polygon fill="black" stroke="black" points="692.5,-573 692.5,-589 692.5,-589 692.5,-573 692.5,-573"/>
</a>
</g>
</g>
<!-- logs&#45;&gt;blocks -->
<g id="edge3" class="edge">
<title>logs:w&#45;&gt;blocks:e</title>
<path fill="none" stroke="black" d="M622.01,-599.19C502,-602.06 221.38,-635.66 142,-566 74.55,-506.81 192.23,-368 102.5,-368"/>
<polygon fill="black" stroke="black" points="628.5,-599.1 636.55,-602.6 632.5,-599.05 636.5,-599 636.5,-599 636.5,-599 632.5,-599.05 636.45,-595.4 628.5,-599.1 628.5,-599.1"/>
<ellipse fill="none" stroke="black" cx="625.3" cy="-599.15" rx="3.2" ry="3.2"/>
</g>
<!-- logs&#45;&gt;transactions -->
<g id="edge4" class="edge">
<title>logs:w&#45;&gt;transactions:e</title>
<path fill="none" stroke="black" d="M621.84,-599.08C553.67,-599.78 523.71,-603.89 463,-562 436.01,-543.38 455.79,-500 423,-500"/>
<polygon fill="black" stroke="black" points="628.5,-599.04 636.52,-602.6 632.5,-599.02 636.5,-599 636.5,-599 636.5,-599 632.5,-599.02 636.48,-595.4 628.5,-599.04 628.5,-599.04"/>
<ellipse fill="none" stroke="black" cx="625.3" cy="-599.06" rx="3.2" ry="3.2"/>
</g>
<!-- pending_transaction_operations -->
<g id="node5" class="node">
<title>pending_transaction_operations</title>
<g id="a_node5"><a xlink:href="../../tables/pending_transaction_operations.html" xlink:title="pending_transaction_operations" target="_top">
<polygon fill="#ffffff" stroke="transparent" points="534.5,-493 534.5,-551 816.5,-551 816.5,-493 534.5,-493"/>
<polygon fill="#f5f5f5" stroke="transparent" points="534.5,-529 534.5,-551 816.5,-551 816.5,-529 534.5,-529"/>
<polygon fill="none" stroke="black" points="534.5,-529 534.5,-551 816.5,-551 816.5,-529 534.5,-529"/>
<text text-anchor="start" x="539.5" y="-538.2" font-family="Helvetica,sans-Serif" font-weight="bold" font-size="11.00">pending_transaction_operations</text>
<text text-anchor="start" x="774.5" y="-537.2" font-family="Helvetica,sans-Serif" font-size="11.00">[table]</text>
<polygon fill="none" stroke="black" points="534.5,-511 534.5,-529 816.5,-529 816.5,-511 534.5,-511"/>
<text text-anchor="start" x="537.5" y="-517.2" font-family="Helvetica,sans-Serif" font-size="11.00">...</text>
<polygon fill="#ffffff" stroke="transparent" points="534.5,-493 534.5,-511 816.5,-511 816.5,-493 534.5,-493"/>
<polygon fill="none" stroke="black" points="534.5,-493 534.5,-511 816.5,-511 816.5,-493 534.5,-493"/>
<polygon fill="#ffffff" stroke="transparent" points="535.5,-494 535.5,-510 637.5,-510 637.5,-494 535.5,-494"/>
<text text-anchor="start" x="537.5" y="-499.2" font-family="Helvetica,sans-Serif" font-size="11.00">&lt; 1</text>
<polygon fill="#ffffff" stroke="transparent" points="637.5,-494 637.5,-510 726.5,-510 726.5,-494 637.5,-494"/>
<text text-anchor="start" x="678" y="-499.2" font-family="Helvetica,sans-Serif" font-size="11.00"> &#160;</text>
<polygon fill="#ffffff" stroke="transparent" points="726.5,-494 726.5,-510 815.5,-510 815.5,-494 726.5,-494"/>
<text text-anchor="start" x="805.5" y="-499.2" font-family="Helvetica,sans-Serif" font-size="11.00"> &#160;</text>
<polygon fill="black" stroke="black" points="637.5,-494 637.5,-510 637.5,-510 637.5,-494 637.5,-494"/>
<polygon fill="black" stroke="black" points="726.5,-494 726.5,-510 726.5,-510 726.5,-494 726.5,-494"/>
</a>
</g>
</g>
<!-- pending_transaction_operations&#45;&gt;transactions -->
<g id="edge5" class="edge">
<title>pending_transaction_operations:w&#45;&gt;transactions:e</title>
<path fill="none" stroke="black" d="M523,-519.69C481.79,-517.14 469.2,-500 423,-500"/>
<polygon fill="black" stroke="black" points="532.82,-515.98 532.58,-523.97 530.98,-523.93 531.22,-515.93 532.82,-515.98"/>
<polyline fill="none" stroke="black" points="533.5,-520 529.5,-519.88 "/>
<ellipse fill="none" stroke="black" cx="526.3" cy="-519.78" rx="3.2" ry="3.2"/>
</g>
<!-- signed_authorizations -->
<g id="node6" class="node">
<title>signed_authorizations</title>
<g id="a_node6"><a xlink:href="../../tables/signed_authorizations.html" xlink:title="signed_authorizations" target="_top">
<polygon fill="#ffffff" stroke="transparent" points="571.5,-414 571.5,-472 779.5,-472 779.5,-414 571.5,-414"/>
<polygon fill="#f5f5f5" stroke="transparent" points="571.5,-450 571.5,-472 779.5,-472 779.5,-450 571.5,-450"/>
<polygon fill="none" stroke="black" points="571.5,-450 571.5,-472 779.5,-472 779.5,-450 571.5,-450"/>
<text text-anchor="start" x="576.5" y="-459.2" font-family="Helvetica,sans-Serif" font-weight="bold" font-size="11.00">signed_authorizations</text>
<text text-anchor="start" x="737.5" y="-458.2" font-family="Helvetica,sans-Serif" font-size="11.00">[table]</text>
<polygon fill="none" stroke="black" points="571.5,-432 571.5,-450 779.5,-450 779.5,-432 571.5,-432"/>
<text text-anchor="start" x="574.5" y="-438.2" font-family="Helvetica,sans-Serif" font-size="11.00">...</text>
<polygon fill="#ffffff" stroke="transparent" points="571.5,-414 571.5,-432 779.5,-432 779.5,-414 571.5,-414"/>
<polygon fill="none" stroke="black" points="571.5,-414 571.5,-432 779.5,-432 779.5,-414 571.5,-414"/>
<polygon fill="#ffffff" stroke="transparent" points="572.5,-415 572.5,-431 649.5,-431 649.5,-415 572.5,-415"/>
<text text-anchor="start" x="574.5" y="-420.2" font-family="Helvetica,sans-Serif" font-size="11.00">&lt; 1</text>
<polygon fill="#ffffff" stroke="transparent" points="649.5,-415 649.5,-431 714.5,-431 714.5,-415 649.5,-415"/>
<text text-anchor="start" x="678" y="-420.2" font-family="Helvetica,sans-Serif" font-size="11.00"> &#160;</text>
<polygon fill="#ffffff" stroke="transparent" points="714.5,-415 714.5,-431 778.5,-431 778.5,-415 714.5,-415"/>
<text text-anchor="start" x="768.5" y="-420.2" font-family="Helvetica,sans-Serif" font-size="11.00"> &#160;</text>
<polygon fill="black" stroke="black" points="649.5,-415 649.5,-431 649.5,-431 649.5,-415 649.5,-415"/>
<polygon fill="black" stroke="black" points="714.5,-415 714.5,-431 714.5,-431 714.5,-415 714.5,-415"/>
</a>
</g>
</g>
<!-- signed_authorizations&#45;&gt;transactions -->
<g id="edge6" class="edge">
<title>signed_authorizations:w&#45;&gt;transactions:e</title>
<path fill="none" stroke="black" d="M556.1,-441.67C517.04,-445.56 505.67,-465.6 463,-483 445.11,-490.29 442.32,-500 423,-500"/>
<polygon fill="black" stroke="black" points="562.51,-441.37 570.67,-444.6 566.5,-441.19 570.5,-441 570.5,-441 570.5,-441 566.5,-441.19 570.33,-437.4 562.51,-441.37 562.51,-441.37"/>
<ellipse fill="none" stroke="black" cx="559.31" cy="-441.52" rx="3.2" ry="3.2"/>
</g>
<!-- token_transfers -->
<g id="node7" class="node">
<title>token_transfers</title>
<g id="a_node7"><a xlink:href="../../tables/token_transfers.html" xlink:title="token_transfers" target="_top">
<polygon fill="#ffffff" stroke="transparent" points="594.5,-116 594.5,-174 756.5,-174 756.5,-116 594.5,-116"/>
<polygon fill="#f5f5f5" stroke="transparent" points="594.5,-152 594.5,-174 756.5,-174 756.5,-152 594.5,-152"/>
<polygon fill="none" stroke="black" points="594.5,-152 594.5,-174 756.5,-174 756.5,-152 594.5,-152"/>
<text text-anchor="start" x="599.5" y="-161.2" font-family="Helvetica,sans-Serif" font-weight="bold" font-size="11.00">token_transfers</text>
<text text-anchor="start" x="714.5" y="-160.2" font-family="Helvetica,sans-Serif" font-size="11.00">[table]</text>
<polygon fill="none" stroke="black" points="594.5,-134 594.5,-152 756.5,-152 756.5,-134 594.5,-134"/>
<text text-anchor="start" x="597.5" y="-140.2" font-family="Helvetica,sans-Serif" font-size="11.00">...</text>
<polygon fill="#ffffff" stroke="transparent" points="594.5,-116 594.5,-134 756.5,-134 756.5,-116 594.5,-116"/>
<polygon fill="none" stroke="black" points="594.5,-116 594.5,-134 756.5,-134 756.5,-116 594.5,-116"/>
<polygon fill="#ffffff" stroke="transparent" points="595.5,-117 595.5,-133 657.5,-133 657.5,-117 595.5,-117"/>
<text text-anchor="start" x="597.5" y="-122.2" font-family="Helvetica,sans-Serif" font-size="11.00">&lt; 2</text>
<polygon fill="#ffffff" stroke="transparent" points="657.5,-117 657.5,-133 706.5,-133 706.5,-117 657.5,-117"/>
<text text-anchor="start" x="678" y="-122.2" font-family="Helvetica,sans-Serif" font-size="11.00"> &#160;</text>
<polygon fill="#ffffff" stroke="transparent" points="706.5,-117 706.5,-133 755.5,-133 755.5,-117 706.5,-117"/>
<text text-anchor="start" x="745.5" y="-122.2" font-family="Helvetica,sans-Serif" font-size="11.00"> &#160;</text>
<polygon fill="black" stroke="black" points="657.5,-117 657.5,-133 657.5,-133 657.5,-117 657.5,-117"/>
<polygon fill="black" stroke="black" points="706.5,-117 706.5,-133 706.5,-133 706.5,-117 706.5,-117"/>
</a>
</g>
</g>
<!-- token_transfers&#45;&gt;blocks -->
<g id="edge7" class="edge">
<title>token_transfers:w&#45;&gt;blocks:e</title>
<path fill="none" stroke="black" d="M578.95,-142.7C468.82,-138.63 214.81,-94.63 142,-157 69.55,-219.07 197.91,-368 102.5,-368"/>
<polygon fill="black" stroke="black" points="585.5,-142.84 593.43,-146.6 589.5,-142.92 593.5,-143 593.5,-143 593.5,-143 589.5,-142.92 593.57,-139.4 585.5,-142.84 585.5,-142.84"/>
<ellipse fill="none" stroke="black" cx="582.3" cy="-142.77" rx="3.2" ry="3.2"/>
</g>
<!-- token_transfers&#45;&gt;transactions -->
<g id="edge8" class="edge">
<title>token_transfers:w&#45;&gt;transactions:e</title>
<path fill="none" stroke="black" d="M579.1,-142.93C527.49,-142.55 498.73,-141.97 463,-185 417.93,-239.29 493.56,-500 423,-500"/>
<polygon fill="black" stroke="black" points="585.5,-142.96 593.48,-146.6 589.5,-142.98 593.5,-143 593.5,-143 593.5,-143 589.5,-142.98 593.52,-139.4 585.5,-142.96 585.5,-142.96"/>
<ellipse fill="none" stroke="black" cx="582.3" cy="-142.95" rx="3.2" ry="3.2"/>
</g>
<!-- transaction_actions -->
<g id="node8" class="node">
<title>transaction_actions</title>
<g id="a_node8"><a xlink:href="../../tables/transaction_actions.html" xlink:title="transaction_actions" target="_top">
<polygon fill="#ffffff" stroke="transparent" points="471,-195 471,-393 880,-393 880,-195 471,-195"/>
<polygon fill="#f5f5f5" stroke="transparent" points="473.5,-369 473.5,-391 878.5,-391 878.5,-369 473.5,-369"/>
<polygon fill="none" stroke="black" points="473.5,-369 473.5,-391 878.5,-391 878.5,-369 473.5,-369"/>
<text text-anchor="start" x="478.5" y="-378.2" font-family="Helvetica,sans-Serif" font-weight="bold" font-size="11.00">transaction_actions</text>
<text text-anchor="start" x="836.5" y="-377.2" font-family="Helvetica,sans-Serif" font-size="11.00">[table]</text>
<polygon fill="none" stroke="black" points="473.5,-347 473.5,-369 637.5,-369 637.5,-347 473.5,-347"/>
<image xlink:href="../../images/primaryKeys.png" width="11px" height="12px" preserveAspectRatio="xMinYMin meet" x="478.5" y="-364"/>
<text text-anchor="start" x="493.5" y="-355.2" font-family="Helvetica,sans-Serif" font-size="11.00">hash</text>
<polygon fill="none" stroke="black" points="637.5,-347 637.5,-369 878.5,-369 878.5,-347 637.5,-347"/>
<text text-anchor="start" x="640.5" y="-355.2" font-family="Helvetica,sans-Serif" font-size="11.00">bytea[2147483647]</text>
<polygon fill="#ffffff" stroke="transparent" points="473.5,-325 473.5,-347 637.5,-347 637.5,-325 473.5,-325"/>
<polygon fill="none" stroke="black" points="473.5,-325 473.5,-347 637.5,-347 637.5,-325 473.5,-325"/>
<text text-anchor="start" x="493.5" y="-333.2" font-family="Helvetica,sans-Serif" font-size="11.00">protocol</text>
<polygon fill="none" stroke="black" points="637.5,-325 637.5,-347 878.5,-347 878.5,-325 637.5,-325"/>
<text text-anchor="start" x="640.5" y="-333.2" font-family="Helvetica,sans-Serif" font-size="11.00">transaction_actions_protocol[2147483647]</text>
<polygon fill="none" stroke="black" points="473.5,-303 473.5,-325 637.5,-325 637.5,-303 473.5,-303"/>
<text text-anchor="start" x="493.5" y="-311.2" font-family="Helvetica,sans-Serif" font-size="11.00">data</text>
<polygon fill="none" stroke="black" points="637.5,-303 637.5,-325 878.5,-325 878.5,-303 637.5,-303"/>
<text text-anchor="start" x="640.5" y="-311.2" font-family="Helvetica,sans-Serif" font-size="11.00">jsonb[2147483647]</text>
<polygon fill="#ffffff" stroke="transparent" points="473.5,-281 473.5,-303 637.5,-303 637.5,-281 473.5,-281"/>
<polygon fill="none" stroke="black" points="473.5,-281 473.5,-303 637.5,-303 637.5,-281 473.5,-281"/>
<text text-anchor="start" x="493.5" y="-289.2" font-family="Helvetica,sans-Serif" font-size="11.00">type</text>
<polygon fill="none" stroke="black" points="637.5,-281 637.5,-303 878.5,-303 878.5,-281 637.5,-281"/>
<text text-anchor="start" x="640.5" y="-289.2" font-family="Helvetica,sans-Serif" font-size="11.00">transaction_actions_type[2147483647]</text>
<polygon fill="none" stroke="black" points="473.5,-259 473.5,-281 637.5,-281 637.5,-259 473.5,-259"/>
<image xlink:href="../../images/primaryKeys.png" width="11px" height="12px" preserveAspectRatio="xMinYMin meet" x="478.5" y="-276"/>
<text text-anchor="start" x="493.5" y="-267.2" font-family="Helvetica,sans-Serif" font-size="11.00">log_index</text>
<polygon fill="none" stroke="black" points="637.5,-259 637.5,-281 878.5,-281 878.5,-259 637.5,-259"/>
<text text-anchor="start" x="640.5" y="-267.2" font-family="Helvetica,sans-Serif" font-size="11.00">int4[10]</text>
<polygon fill="none" stroke="black" points="473.5,-237 473.5,-259 637.5,-259 637.5,-237 473.5,-237"/>
<text text-anchor="start" x="493.5" y="-245.2" font-family="Helvetica,sans-Serif" font-size="11.00">inserted_at</text>
<polygon fill="none" stroke="black" points="637.5,-237 637.5,-259 878.5,-259 878.5,-237 637.5,-237"/>
<text text-anchor="start" x="640.5" y="-245.2" font-family="Helvetica,sans-Serif" font-size="11.00">timestamp[29,6]</text>
<polygon fill="none" stroke="black" points="473.5,-215 473.5,-237 637.5,-237 637.5,-215 473.5,-215"/>
<text text-anchor="start" x="493.5" y="-223.2" font-family="Helvetica,sans-Serif" font-size="11.00">updated_at</text>
<polygon fill="none" stroke="black" points="637.5,-215 637.5,-237 878.5,-237 878.5,-215 637.5,-215"/>
<text text-anchor="start" x="640.5" y="-223.2" font-family="Helvetica,sans-Serif" font-size="11.00">timestamp[29,6]</text>
<polygon fill="#ffffff" stroke="transparent" points="473.5,-197 473.5,-215 878.5,-215 878.5,-197 473.5,-197"/>
<polygon fill="none" stroke="black" points="473.5,-197 473.5,-215 878.5,-215 878.5,-197 473.5,-197"/>
<polygon fill="#ffffff" stroke="transparent" points="474.5,-198 474.5,-214 613.5,-214 613.5,-198 474.5,-198"/>
<text text-anchor="start" x="476.5" y="-203.2" font-family="Helvetica,sans-Serif" font-size="11.00">&lt; 1</text>
<polygon fill="#ffffff" stroke="transparent" points="613.5,-198 613.5,-214 739.5,-214 739.5,-198 613.5,-198"/>
<text text-anchor="start" x="672.5" y="-203.2" font-family="Helvetica,sans-Serif" font-size="11.00"> &#160;</text>
<polygon fill="#ffffff" stroke="transparent" points="739.5,-198 739.5,-214 877.5,-214 877.5,-198 739.5,-198"/>
<text text-anchor="start" x="855.5" y="-203.2" font-family="Helvetica,sans-Serif" font-size="11.00">0 &gt;</text>
<polygon fill="black" stroke="black" points="613.5,-198 613.5,-214 613.5,-214 613.5,-198 613.5,-198"/>
<polygon fill="black" stroke="black" points="739.5,-198 739.5,-214 739.5,-214 739.5,-198 739.5,-198"/>
<polygon fill="none" stroke="black" stroke-width="2" points="472,-196 472,-392 879,-392 879,-196 472,-196"/>
</a>
</g>
</g>
<!-- transaction_actions&#45;&gt;transactions -->
<g id="edge9" class="edge">
<title>transaction_actions:w&#45;&gt;transactions:e</title>
<path fill="none" stroke="black" d="M457.92,-361.23C419.57,-382.37 483.83,-500 423,-500"/>
<polygon fill="black" stroke="black" points="464.69,-359.73 473.28,-361.51 468.59,-358.87 472.5,-358 472.5,-358 472.5,-358 468.59,-358.87 471.72,-354.49 464.69,-359.73 464.69,-359.73"/>
<ellipse fill="none" stroke="black" cx="461.57" cy="-360.42" rx="3.2" ry="3.2"/>
</g>
<!-- transaction_forks -->
<g id="node9" class="node">
<title>transaction_forks</title>
<g id="a_node9"><a xlink:href="../../tables/transaction_forks.html" xlink:title="transaction_forks" target="_top">
<polygon fill="#ffffff" stroke="transparent" points="588.5,-37 588.5,-95 762.5,-95 762.5,-37 588.5,-37"/>
<polygon fill="#f5f5f5" stroke="transparent" points="588.5,-73 588.5,-95 762.5,-95 762.5,-73 588.5,-73"/>
<polygon fill="none" stroke="black" points="588.5,-73 588.5,-95 762.5,-95 762.5,-73 588.5,-73"/>
<text text-anchor="start" x="593.5" y="-82.2" font-family="Helvetica,sans-Serif" font-weight="bold" font-size="11.00">transaction_forks</text>
<text text-anchor="start" x="720.5" y="-81.2" font-family="Helvetica,sans-Serif" font-size="11.00">[table]</text>
<polygon fill="none" stroke="black" points="588.5,-55 588.5,-73 762.5,-73 762.5,-55 588.5,-55"/>
<text text-anchor="start" x="591.5" y="-61.2" font-family="Helvetica,sans-Serif" font-size="11.00">...</text>
<polygon fill="#ffffff" stroke="transparent" points="588.5,-37 588.5,-55 762.5,-55 762.5,-37 588.5,-37"/>
<polygon fill="none" stroke="black" points="588.5,-37 588.5,-55 762.5,-55 762.5,-37 588.5,-37"/>
<polygon fill="#ffffff" stroke="transparent" points="589.5,-38 589.5,-54 655.5,-54 655.5,-38 589.5,-38"/>
<text text-anchor="start" x="591.5" y="-43.2" font-family="Helvetica,sans-Serif" font-size="11.00">&lt; 2</text>
<polygon fill="#ffffff" stroke="transparent" points="655.5,-38 655.5,-54 708.5,-54 708.5,-38 655.5,-38"/>
<text text-anchor="start" x="678" y="-43.2" font-family="Helvetica,sans-Serif" font-size="11.00"> &#160;</text>
<polygon fill="#ffffff" stroke="transparent" points="708.5,-38 708.5,-54 761.5,-54 761.5,-38 708.5,-38"/>
<text text-anchor="start" x="751.5" y="-43.2" font-family="Helvetica,sans-Serif" font-size="11.00"> &#160;</text>
<polygon fill="black" stroke="black" points="655.5,-38 655.5,-54 655.5,-54 655.5,-38 655.5,-38"/>
<polygon fill="black" stroke="black" points="708.5,-38 708.5,-54 708.5,-54 708.5,-38 708.5,-38"/>
</a>
</g>
</g>
<!-- transaction_forks&#45;&gt;blocks -->
<g id="edge11" class="edge">
<title>transaction_forks:w&#45;&gt;blocks:e</title>
<path fill="none" stroke="black" d="M573.06,-63.86C382.91,-60.09 281.91,15.38 142,-120 101.9,-158.81 158.31,-368 102.5,-368"/>
<polygon fill="black" stroke="black" points="579.5,-63.92 587.46,-67.6 583.5,-63.96 587.5,-64 587.5,-64 587.5,-64 583.5,-63.96 587.54,-60.4 579.5,-63.92 579.5,-63.92"/>
<ellipse fill="none" stroke="black" cx="576.3" cy="-63.89" rx="3.2" ry="3.2"/>
</g>
<!-- transaction_forks&#45;&gt;transactions -->
<g id="edge10" class="edge">
<title>transaction_forks:w&#45;&gt;transactions:e</title>
<path fill="none" stroke="black" d="M573.06,-63.95C523.95,-63.74 496.29,-64.27 463,-106 408.12,-174.8 511.01,-500 423,-500"/>
<polygon fill="black" stroke="black" points="579.5,-63.97 587.49,-67.6 583.5,-63.99 587.5,-64 587.5,-64 587.5,-64 583.5,-63.99 587.51,-60.4 579.5,-63.97 579.5,-63.97"/>
<ellipse fill="none" stroke="black" cx="576.3" cy="-63.96" rx="3.2" ry="3.2"/>
</g>
</g>
</svg>
