<?xml version="1.0" encoding="UTF-8" standalone="no"?>
<!DOCTYPE svg PUBLIC "-//W3C//DTD SVG 1.1//EN"
 "http://www.w3.org/Graphics/SVG/1.1/DTD/svg11.dtd">
<!-- Generated by graphviz version 2.43.0 (0)
 -->
<!-- Title: twoDegreesRelationshipsDiagram Pages: 1 -->
<svg width="770pt" height="677pt"
 viewBox="0.00 0.00 770.00 677.00" xmlns="http://www.w3.org/2000/svg" xmlns:xlink="http://www.w3.org/1999/xlink">
<g id="graph0" class="graph" transform="scale(1 1) rotate(0) translate(4 673)">
<title>twoDegreesRelationshipsDiagram</title>
<polygon fill="#ffffff" stroke="transparent" points="-4,4 -4,-673 766,-673 766,4 -4,4"/>
<text text-anchor="middle" x="79.5" y="-7.2" font-family="Helvetica,sans-Serif" font-size="11.00">Generated by SchemaSpy</text>
<!-- block_rewards -->
<g id="node1" class="node">
<title>block_rewards</title>
<g id="a_node1"><a xlink:href="../../tables/block_rewards.html" xlink:title="block_rewards" target="_top">
<polygon fill="#ffffff" stroke="transparent" points="210.5,-580 210.5,-638 362.5,-638 362.5,-580 210.5,-580"/>
<polygon fill="#f5f5f5" stroke="transparent" points="210.5,-616 210.5,-638 362.5,-638 362.5,-616 210.5,-616"/>
<polygon fill="none" stroke="black" points="210.5,-616 210.5,-638 362.5,-638 362.5,-616 210.5,-616"/>
<text text-anchor="start" x="215.5" y="-625.2" font-family="Helvetica,sans-Serif" font-weight="bold" font-size="11.00">block_rewards</text>
<text text-anchor="start" x="320.5" y="-624.2" font-family="Helvetica,sans-Serif" font-size="11.00">[table]</text>
<polygon fill="none" stroke="black" points="210.5,-598 210.5,-616 362.5,-616 362.5,-598 210.5,-598"/>
<text text-anchor="start" x="213.5" y="-604.2" font-family="Helvetica,sans-Serif" font-size="11.00">...</text>
<polygon fill="#ffffff" stroke="transparent" points="210.5,-580 210.5,-598 362.5,-598 362.5,-580 210.5,-580"/>
<polygon fill="none" stroke="black" points="210.5,-580 210.5,-598 362.5,-598 362.5,-580 210.5,-580"/>
<polygon fill="#ffffff" stroke="transparent" points="211.5,-581 211.5,-597 269.5,-597 269.5,-581 211.5,-581"/>
<text text-anchor="start" x="213.5" y="-586.2" font-family="Helvetica,sans-Serif" font-size="11.00">&lt; 1</text>
<polygon fill="#ffffff" stroke="transparent" points="269.5,-581 269.5,-597 315.5,-597 315.5,-581 269.5,-581"/>
<text text-anchor="start" x="288.5" y="-586.2" font-family="Helvetica,sans-Serif" font-size="11.00"> &#160;</text>
<polygon fill="#ffffff" stroke="transparent" points="315.5,-581 315.5,-597 361.5,-597 361.5,-581 315.5,-581"/>
<text text-anchor="start" x="351.5" y="-586.2" font-family="Helvetica,sans-Serif" font-size="11.00"> &#160;</text>
<polygon fill="black" stroke="black" points="269.5,-581 269.5,-597 269.5,-597 269.5,-581 269.5,-581"/>
<polygon fill="black" stroke="black" points="315.5,-581 315.5,-597 315.5,-597 315.5,-581 315.5,-581"/>
</a>
</g>
</g>
<!-- blocks -->
<g id="node2" class="node">
<title>blocks</title>
<g id="a_node2"><a xlink:href="../../tables/blocks.html" xlink:title="blocks" target="_top">
<polygon fill="#ffffff" stroke="transparent" points="8,-368 8,-426 101,-426 101,-368 8,-368"/>
<polygon fill="#f5f5f5" stroke="transparent" points="8.5,-404 8.5,-426 101.5,-426 101.5,-404 8.5,-404"/>
<polygon fill="none" stroke="black" points="8.5,-404 8.5,-426 101.5,-426 101.5,-404 8.5,-404"/>
<text text-anchor="start" x="13.5" y="-413.2" font-family="Helvetica,sans-Serif" font-weight="bold" font-size="11.00">blocks</text>
<text text-anchor="start" x="59.5" y="-412.2" font-family="Helvetica,sans-Serif" font-size="11.00">[table]</text>
<polygon fill="none" stroke="black" points="8.5,-386 8.5,-404 101.5,-404 101.5,-386 8.5,-386"/>
<text text-anchor="start" x="11.5" y="-392.2" font-family="Helvetica,sans-Serif" font-size="11.00">...</text>
<polygon fill="#ffffff" stroke="transparent" points="8.5,-368 8.5,-386 101.5,-386 101.5,-368 8.5,-368"/>
<polygon fill="none" stroke="black" points="8.5,-368 8.5,-386 101.5,-386 101.5,-368 8.5,-368"/>
<polygon fill="#ffffff" stroke="transparent" points="9.5,-369 9.5,-385 36.5,-385 36.5,-369 9.5,-369"/>
<text text-anchor="start" x="11.5" y="-374.2" font-family="Helvetica,sans-Serif" font-size="11.00"> &#160;</text>
<polygon fill="#ffffff" stroke="transparent" points="36.5,-369 36.5,-385 62.5,-385 62.5,-369 36.5,-369"/>
<text text-anchor="start" x="45.5" y="-374.2" font-family="Helvetica,sans-Serif" font-size="11.00"> &#160;</text>
<polygon fill="#ffffff" stroke="transparent" points="62.5,-369 62.5,-385 100.5,-385 100.5,-369 62.5,-369"/>
<text text-anchor="start" x="78.5" y="-374.2" font-family="Helvetica,sans-Serif" font-size="11.00">9 &gt;</text>
<polygon fill="black" stroke="black" points="36.5,-369 36.5,-385 36.5,-385 36.5,-369 36.5,-369"/>
<polygon fill="black" stroke="black" points="62.5,-369 62.5,-385 62.5,-385 62.5,-369 62.5,-369"/>
</a>
</g>
</g>
<!-- block_rewards&#45;&gt;blocks -->
<g id="edge1" class="edge">
<title>block_rewards:w&#45;&gt;blocks:e</title>
<path fill="none" stroke="black" d="M194.72,-605.83C117.95,-593.43 78.74,-486.02 63.41,-430.28"/>
<polygon fill="black" stroke="black" points="201.53,-606.37 209.21,-610.59 205.51,-606.68 209.5,-607 209.5,-607 209.5,-607 205.51,-606.68 209.79,-603.41 201.53,-606.37 201.53,-606.37"/>
<ellipse fill="none" stroke="black" cx="198.34" cy="-606.11" rx="3.2" ry="3.2"/>
</g>
<!-- block_second_degree_relations -->
<g id="node3" class="node">
<title>block_second_degree_relations</title>
<g id="a_node3"><a xlink:href="../../tables/block_second_degree_relations.html" xlink:title="block_second_degree_relations" target="_top">
<polygon fill="#ffffff" stroke="transparent" points="150,-501 150,-559 423,-559 423,-501 150,-501"/>
<polygon fill="#f5f5f5" stroke="transparent" points="150.5,-537 150.5,-559 423.5,-559 423.5,-537 150.5,-537"/>
<polygon fill="none" stroke="black" points="150.5,-537 150.5,-559 423.5,-559 423.5,-537 150.5,-537"/>
<text text-anchor="start" x="155.5" y="-546.2" font-family="Helvetica,sans-Serif" font-weight="bold" font-size="11.00">block_second_degree_relations</text>
<text text-anchor="start" x="381.5" y="-545.2" font-family="Helvetica,sans-Serif" font-size="11.00">[table]</text>
<polygon fill="none" stroke="black" points="150.5,-519 150.5,-537 423.5,-537 423.5,-519 150.5,-519"/>
<text text-anchor="start" x="153.5" y="-525.2" font-family="Helvetica,sans-Serif" font-size="11.00">...</text>
<polygon fill="#ffffff" stroke="transparent" points="150.5,-501 150.5,-519 423.5,-519 423.5,-501 150.5,-501"/>
<polygon fill="none" stroke="black" points="150.5,-501 150.5,-519 423.5,-519 423.5,-501 150.5,-501"/>
<polygon fill="#ffffff" stroke="transparent" points="151.5,-502 151.5,-518 250.5,-518 250.5,-502 151.5,-502"/>
<text text-anchor="start" x="153.5" y="-507.2" font-family="Helvetica,sans-Serif" font-size="11.00">&lt; 1</text>
<polygon fill="#ffffff" stroke="transparent" points="250.5,-502 250.5,-518 336.5,-518 336.5,-502 250.5,-502"/>
<text text-anchor="start" x="289.5" y="-507.2" font-family="Helvetica,sans-Serif" font-size="11.00"> &#160;</text>
<polygon fill="#ffffff" stroke="transparent" points="336.5,-502 336.5,-518 422.5,-518 422.5,-502 336.5,-502"/>
<text text-anchor="start" x="412.5" y="-507.2" font-family="Helvetica,sans-Serif" font-size="11.00"> &#160;</text>
<polygon fill="black" stroke="black" points="250.5,-502 250.5,-518 250.5,-518 250.5,-502 250.5,-502"/>
<polygon fill="black" stroke="black" points="336.5,-502 336.5,-518 336.5,-518 336.5,-502 336.5,-502"/>
</a>
</g>
</g>
<!-- block_second_degree_relations&#45;&gt;blocks -->
<g id="edge2" class="edge">
<title>block_second_degree_relations:w&#45;&gt;blocks:e</title>
<path fill="none" stroke="black" d="M135,-526.12C96.05,-515.75 74.23,-464.77 63.67,-430.06"/>
<polygon fill="black" stroke="black" points="141.57,-526.97 149.04,-531.57 145.53,-527.49 149.5,-528 149.5,-528 149.5,-528 145.53,-527.49 149.96,-524.43 141.57,-526.97 141.57,-526.97"/>
<ellipse fill="none" stroke="black" cx="138.39" cy="-526.56" rx="3.2" ry="3.2"/>
</g>
<!-- internal_transactions -->
<g id="node4" class="node">
<title>internal_transactions</title>
<g id="a_node4"><a xlink:href="../../tables/internal_transactions.html" xlink:title="internal_transactions" target="_top">
<polygon fill="#ffffff" stroke="transparent" points="512,-607 512,-665 714,-665 714,-607 512,-607"/>
<polygon fill="#f5f5f5" stroke="transparent" points="512,-643 512,-665 714,-665 714,-643 512,-643"/>
<polygon fill="none" stroke="black" points="512,-643 512,-665 714,-665 714,-643 512,-643"/>
<text text-anchor="start" x="517" y="-652.2" font-family="Helvetica,sans-Serif" font-weight="bold" font-size="11.00">internal_transactions</text>
<text text-anchor="start" x="672" y="-651.2" font-family="Helvetica,sans-Serif" font-size="11.00">[table]</text>
<polygon fill="none" stroke="black" points="512,-625 512,-643 714,-643 714,-625 512,-625"/>
<text text-anchor="start" x="515" y="-631.2" font-family="Helvetica,sans-Serif" font-size="11.00">...</text>
<polygon fill="#ffffff" stroke="transparent" points="512,-607 512,-625 714,-625 714,-607 512,-607"/>
<polygon fill="none" stroke="black" points="512,-607 512,-625 714,-625 714,-607 512,-607"/>
<polygon fill="#ffffff" stroke="transparent" points="513,-608 513,-624 588,-624 588,-608 513,-608"/>
<text text-anchor="start" x="515" y="-613.2" font-family="Helvetica,sans-Serif" font-size="11.00">&lt; 2</text>
<polygon fill="#ffffff" stroke="transparent" points="588,-608 588,-624 651,-624 651,-608 588,-608"/>
<text text-anchor="start" x="615.5" y="-613.2" font-family="Helvetica,sans-Serif" font-size="11.00"> &#160;</text>
<polygon fill="#ffffff" stroke="transparent" points="651,-608 651,-624 713,-624 713,-608 651,-608"/>
<text text-anchor="start" x="703" y="-613.2" font-family="Helvetica,sans-Serif" font-size="11.00"> &#160;</text>
<polygon fill="black" stroke="black" points="588,-608 588,-624 588,-624 588,-608 588,-608"/>
<polygon fill="black" stroke="black" points="651,-608 651,-624 651,-624 651,-608 651,-608"/>
</a>
</g>
</g>
<!-- internal_transactions&#45;&gt;blocks -->
<g id="edge3" class="edge">
<title>internal_transactions:w&#45;&gt;blocks:e</title>
<path fill="none" stroke="black" d="M496.72,-632.06C481.73,-627.33 475.89,-614.28 464,-597 436.02,-556.36 469.23,-522.2 431,-491 380.99,-450.19 202.12,-485.47 142,-462 123.45,-454.76 105.43,-442.37 90.69,-430.34"/>
<polygon fill="black" stroke="black" points="503.07,-632.92 510.52,-637.57 507.04,-633.46 511,-634 511,-634 511,-634 507.04,-633.46 511.48,-630.43 503.07,-632.92 503.07,-632.92"/>
<ellipse fill="none" stroke="black" cx="499.9" cy="-632.49" rx="3.2" ry="3.2"/>
</g>
<!-- transactions -->
<g id="node5" class="node">
<title>transactions</title>
<g id="a_node5"><a xlink:href="../../tables/transactions.html" xlink:title="transactions" target="_top">
<polygon fill="#ffffff" stroke="transparent" points="217.5,-368 217.5,-426 355.5,-426 355.5,-368 217.5,-368"/>
<polygon fill="#f5f5f5" stroke="transparent" points="217.5,-404 217.5,-426 355.5,-426 355.5,-404 217.5,-404"/>
<polygon fill="none" stroke="black" points="217.5,-404 217.5,-426 355.5,-426 355.5,-404 217.5,-404"/>
<text text-anchor="start" x="222.5" y="-413.2" font-family="Helvetica,sans-Serif" font-weight="bold" font-size="11.00">transactions</text>
<text text-anchor="start" x="313.5" y="-412.2" font-family="Helvetica,sans-Serif" font-size="11.00">[table]</text>
<polygon fill="none" stroke="black" points="217.5,-386 217.5,-404 355.5,-404 355.5,-386 217.5,-386"/>
<text text-anchor="start" x="220.5" y="-392.2" font-family="Helvetica,sans-Serif" font-size="11.00">...</text>
<polygon fill="#ffffff" stroke="transparent" points="217.5,-368 217.5,-386 355.5,-386 355.5,-368 217.5,-368"/>
<polygon fill="none" stroke="black" points="217.5,-368 217.5,-386 355.5,-386 355.5,-368 217.5,-368"/>
<polygon fill="#ffffff" stroke="transparent" points="218.5,-369 218.5,-385 268.5,-385 268.5,-369 218.5,-369"/>
<text text-anchor="start" x="220.5" y="-374.2" font-family="Helvetica,sans-Serif" font-size="11.00">&lt; 1</text>
<polygon fill="#ffffff" stroke="transparent" points="268.5,-369 268.5,-385 305.5,-385 305.5,-369 268.5,-369"/>
<text text-anchor="start" x="283" y="-374.2" font-family="Helvetica,sans-Serif" font-size="11.00"> &#160;</text>
<polygon fill="#ffffff" stroke="transparent" points="305.5,-369 305.5,-385 354.5,-385 354.5,-369 305.5,-369"/>
<text text-anchor="start" x="332.5" y="-374.2" font-family="Helvetica,sans-Serif" font-size="11.00">7 &gt;</text>
<polygon fill="black" stroke="black" points="268.5,-369 268.5,-385 268.5,-385 268.5,-369 268.5,-369"/>
<polygon fill="black" stroke="black" points="305.5,-369 305.5,-385 305.5,-385 305.5,-369 305.5,-369"/>
</a>
</g>
</g>
<!-- internal_transactions&#45;&gt;transactions -->
<g id="edge4" class="edge">
<title>internal_transactions:w&#45;&gt;transactions:e</title>
<path fill="none" stroke="black" d="M496.34,-632.68C435.43,-620.47 479.48,-526.61 431,-467 413.69,-445.71 388.3,-430.42 363.68,-419.67"/>
<polygon fill="black" stroke="black" points="503.03,-633.28 510.68,-637.59 507.02,-633.64 511,-634 511,-634 511,-634 507.02,-633.64 511.32,-630.41 503.03,-633.28 503.03,-633.28"/>
<ellipse fill="none" stroke="black" cx="499.85" cy="-632.99" rx="3.2" ry="3.2"/>
</g>
<!-- transactions&#45;&gt;blocks -->
<g id="edge15" class="edge">
<title>transactions:w&#45;&gt;blocks:e</title>
<path fill="none" stroke="black" d="M194.74,-397C165.71,-397 134.52,-397 109.03,-397"/>
<polygon fill="black" stroke="black" points="201.23,-397 209.23,-400.6 205.23,-397 209.23,-397 209.23,-397 209.23,-397 205.23,-397 209.23,-393.4 201.23,-397 201.23,-397"/>
<ellipse fill="none" stroke="black" cx="198.03" cy="-397" rx="3.2" ry="3.2"/>
</g>
<!-- logs -->
<g id="node6" class="node">
<title>logs</title>
<g id="a_node6"><a xlink:href="../../tables/logs.html" xlink:title="logs" target="_top">
<polygon fill="#ffffff" stroke="transparent" points="574.5,-528 574.5,-586 651.5,-586 651.5,-528 574.5,-528"/>
<polygon fill="#f5f5f5" stroke="transparent" points="575,-564 575,-586 652,-586 652,-564 575,-564"/>
<polygon fill="none" stroke="black" points="575,-564 575,-586 652,-586 652,-564 575,-564"/>
<text text-anchor="start" x="580" y="-573.2" font-family="Helvetica,sans-Serif" font-weight="bold" font-size="11.00">logs</text>
<text text-anchor="start" x="610" y="-572.2" font-family="Helvetica,sans-Serif" font-size="11.00">[table]</text>
<polygon fill="none" stroke="black" points="575,-546 575,-564 652,-564 652,-546 575,-546"/>
<text text-anchor="start" x="578" y="-552.2" font-family="Helvetica,sans-Serif" font-size="11.00">...</text>
<polygon fill="#ffffff" stroke="transparent" points="575,-528 575,-546 652,-546 652,-528 575,-528"/>
<polygon fill="none" stroke="black" points="575,-528 575,-546 652,-546 652,-528 575,-528"/>
<polygon fill="#ffffff" stroke="transparent" points="576,-529 576,-545 609,-545 609,-529 576,-529"/>
<text text-anchor="start" x="578" y="-534.2" font-family="Helvetica,sans-Serif" font-size="11.00">&lt; 2</text>
<polygon fill="#ffffff" stroke="transparent" points="609,-529 609,-545 630,-545 630,-529 609,-529"/>
<text text-anchor="start" x="615.5" y="-534.2" font-family="Helvetica,sans-Serif" font-size="11.00"> &#160;</text>
<polygon fill="#ffffff" stroke="transparent" points="630,-529 630,-545 651,-545 651,-529 630,-529"/>
<text text-anchor="start" x="641" y="-534.2" font-family="Helvetica,sans-Serif" font-size="11.00"> &#160;</text>
<polygon fill="black" stroke="black" points="609,-529 609,-545 609,-545 609,-529 609,-529"/>
<polygon fill="black" stroke="black" points="630,-529 630,-545 630,-545 630,-529 630,-529"/>
</a>
</g>
</g>
<!-- logs&#45;&gt;blocks -->
<g id="edge5" class="edge">
<title>logs:w&#45;&gt;blocks:e</title>
<path fill="none" stroke="black" d="M559.54,-554.82C518.67,-553.67 500.68,-546.49 464,-518 442.68,-501.44 454.02,-481.11 431,-467 375.95,-433.25 204.26,-454.12 142,-437 131.15,-434.02 119.96,-429.8 109.38,-425.21"/>
<polygon fill="black" stroke="black" points="566,-554.9 573.96,-558.6 570,-554.95 574,-555 574,-555 574,-555 570,-554.95 574.04,-551.4 566,-554.9 566,-554.9"/>
<ellipse fill="none" stroke="black" cx="562.8" cy="-554.86" rx="3.2" ry="3.2"/>
</g>
<!-- logs&#45;&gt;transactions -->
<g id="edge6" class="edge">
<title>logs:w&#45;&gt;transactions:e</title>
<path fill="none" stroke="black" d="M559.46,-554.91C518.15,-554.29 498.06,-549.57 464,-518 436.39,-492.41 459.03,-465.13 431,-440 412.41,-423.33 387.58,-413.12 363.81,-406.86"/>
<polygon fill="black" stroke="black" points="566,-554.95 573.98,-558.6 570,-554.98 574,-555 574,-555 574,-555 570,-554.98 574.02,-551.4 566,-554.95 566,-554.95"/>
<ellipse fill="none" stroke="black" cx="562.8" cy="-554.93" rx="3.2" ry="3.2"/>
</g>
<!-- pending_block_operations -->
<g id="node7" class="node">
<title>pending_block_operations</title>
<g id="a_node7"><a xlink:href="../../tables/pending_block_operations.html" xlink:title="pending_block_operations" target="_top">
<polygon fill="#ffffff" stroke="transparent" points="168,-289 168,-347 405,-347 405,-289 168,-289"/>
<polygon fill="#f5f5f5" stroke="transparent" points="168.5,-325 168.5,-347 405.5,-347 405.5,-325 168.5,-325"/>
<polygon fill="none" stroke="black" points="168.5,-325 168.5,-347 405.5,-347 405.5,-325 168.5,-325"/>
<text text-anchor="start" x="173.5" y="-334.2" font-family="Helvetica,sans-Serif" font-weight="bold" font-size="11.00">pending_block_operations</text>
<text text-anchor="start" x="363.5" y="-333.2" font-family="Helvetica,sans-Serif" font-size="11.00">[table]</text>
<polygon fill="none" stroke="black" points="168.5,-307 168.5,-325 405.5,-325 405.5,-307 168.5,-307"/>
<text text-anchor="start" x="171.5" y="-313.2" font-family="Helvetica,sans-Serif" font-size="11.00">...</text>
<polygon fill="#ffffff" stroke="transparent" points="168.5,-289 168.5,-307 405.5,-307 405.5,-289 168.5,-289"/>
<polygon fill="none" stroke="black" points="168.5,-289 168.5,-307 405.5,-307 405.5,-289 168.5,-289"/>
<polygon fill="#ffffff" stroke="transparent" points="169.5,-290 169.5,-306 256.5,-306 256.5,-290 169.5,-290"/>
<text text-anchor="start" x="171.5" y="-295.2" font-family="Helvetica,sans-Serif" font-size="11.00">&lt; 1</text>
<polygon fill="#ffffff" stroke="transparent" points="256.5,-290 256.5,-306 330.5,-306 330.5,-290 256.5,-290"/>
<text text-anchor="start" x="289.5" y="-295.2" font-family="Helvetica,sans-Serif" font-size="11.00"> &#160;</text>
<polygon fill="#ffffff" stroke="transparent" points="330.5,-290 330.5,-306 404.5,-306 404.5,-290 330.5,-290"/>
<text text-anchor="start" x="394.5" y="-295.2" font-family="Helvetica,sans-Serif" font-size="11.00"> &#160;</text>
<polygon fill="black" stroke="black" points="256.5,-290 256.5,-306 256.5,-306 256.5,-290 256.5,-290"/>
<polygon fill="black" stroke="black" points="330.5,-290 330.5,-306 330.5,-306 330.5,-290 330.5,-290"/>
</a>
</g>
</g>
<!-- pending_block_operations&#45;&gt;blocks -->
<g id="edge7" class="edge">
<title>pending_block_operations:w&#45;&gt;blocks:e</title>
<path fill="none" stroke="black" d="M156.76,-316.81C126.78,-321.3 100.08,-343.63 81.64,-363.59"/>
<polygon fill="black" stroke="black" points="166.4,-312.07 167,-320.05 165.41,-320.17 164.81,-312.19 166.4,-312.07"/>
<polyline fill="none" stroke="black" points="167.5,-316 163.51,-316.3 "/>
<ellipse fill="none" stroke="black" cx="160.32" cy="-316.54" rx="3.2" ry="3.2"/>
</g>
<!-- pending_transaction_operations -->
<g id="node8" class="node">
<title>pending_transaction_operations</title>
<g id="a_node8"><a xlink:href="../../tables/pending_transaction_operations.html" xlink:title="pending_transaction_operations" target="_top">
<polygon fill="#ffffff" stroke="transparent" points="472,-449 472,-507 754,-507 754,-449 472,-449"/>
<polygon fill="#f5f5f5" stroke="transparent" points="472,-485 472,-507 754,-507 754,-485 472,-485"/>
<polygon fill="none" stroke="black" points="472,-485 472,-507 754,-507 754,-485 472,-485"/>
<text text-anchor="start" x="477" y="-494.2" font-family="Helvetica,sans-Serif" font-weight="bold" font-size="11.00">pending_transaction_operations</text>
<text text-anchor="start" x="712" y="-493.2" font-family="Helvetica,sans-Serif" font-size="11.00">[table]</text>
<polygon fill="none" stroke="black" points="472,-467 472,-485 754,-485 754,-467 472,-467"/>
<text text-anchor="start" x="475" y="-473.2" font-family="Helvetica,sans-Serif" font-size="11.00">...</text>
<polygon fill="#ffffff" stroke="transparent" points="472,-449 472,-467 754,-467 754,-449 472,-449"/>
<polygon fill="none" stroke="black" points="472,-449 472,-467 754,-467 754,-449 472,-449"/>
<polygon fill="#ffffff" stroke="transparent" points="473,-450 473,-466 575,-466 575,-450 473,-450"/>
<text text-anchor="start" x="475" y="-455.2" font-family="Helvetica,sans-Serif" font-size="11.00">&lt; 1</text>
<polygon fill="#ffffff" stroke="transparent" points="575,-450 575,-466 664,-466 664,-450 575,-450"/>
<text text-anchor="start" x="615.5" y="-455.2" font-family="Helvetica,sans-Serif" font-size="11.00"> &#160;</text>
<polygon fill="#ffffff" stroke="transparent" points="664,-450 664,-466 753,-466 753,-450 664,-450"/>
<text text-anchor="start" x="743" y="-455.2" font-family="Helvetica,sans-Serif" font-size="11.00"> &#160;</text>
<polygon fill="black" stroke="black" points="575,-450 575,-466 575,-466 575,-450 575,-450"/>
<polygon fill="black" stroke="black" points="664,-450 664,-466 664,-466 664,-450 664,-450"/>
</a>
</g>
</g>
<!-- pending_transaction_operations&#45;&gt;transactions -->
<g id="edge8" class="edge">
<title>pending_transaction_operations:w&#45;&gt;transactions:e</title>
<path fill="none" stroke="black" d="M460.57,-473.86C447.97,-467.68 448.1,-449.61 431,-440 410.37,-428.41 386.27,-419.62 363.78,-413.11"/>
<polygon fill="black" stroke="black" points="471.02,-471.92 469.41,-479.76 467.85,-479.44 469.45,-471.6 471.02,-471.92"/>
<polyline fill="none" stroke="black" points="471,-476 467.08,-475.2 "/>
<ellipse fill="none" stroke="black" cx="463.95" cy="-474.55" rx="3.2" ry="3.2"/>
</g>
<!-- signed_authorizations -->
<g id="node9" class="node">
<title>signed_authorizations</title>
<g id="a_node9"><a xlink:href="../../tables/signed_authorizations.html" xlink:title="signed_authorizations" target="_top">
<polygon fill="#ffffff" stroke="transparent" points="509,-370 509,-428 717,-428 717,-370 509,-370"/>
<polygon fill="#f5f5f5" stroke="transparent" points="509,-406 509,-428 717,-428 717,-406 509,-406"/>
<polygon fill="none" stroke="black" points="509,-406 509,-428 717,-428 717,-406 509,-406"/>
<text text-anchor="start" x="514" y="-415.2" font-family="Helvetica,sans-Serif" font-weight="bold" font-size="11.00">signed_authorizations</text>
<text text-anchor="start" x="675" y="-414.2" font-family="Helvetica,sans-Serif" font-size="11.00">[table]</text>
<polygon fill="none" stroke="black" points="509,-388 509,-406 717,-406 717,-388 509,-388"/>
<text text-anchor="start" x="512" y="-394.2" font-family="Helvetica,sans-Serif" font-size="11.00">...</text>
<polygon fill="#ffffff" stroke="transparent" points="509,-370 509,-388 717,-388 717,-370 509,-370"/>
<polygon fill="none" stroke="black" points="509,-370 509,-388 717,-388 717,-370 509,-370"/>
<polygon fill="#ffffff" stroke="transparent" points="510,-371 510,-387 587,-387 587,-371 510,-371"/>
<text text-anchor="start" x="512" y="-376.2" font-family="Helvetica,sans-Serif" font-size="11.00">&lt; 1</text>
<polygon fill="#ffffff" stroke="transparent" points="587,-371 587,-387 652,-387 652,-371 587,-371"/>
<text text-anchor="start" x="615.5" y="-376.2" font-family="Helvetica,sans-Serif" font-size="11.00"> &#160;</text>
<polygon fill="#ffffff" stroke="transparent" points="652,-371 652,-387 716,-387 716,-371 652,-371"/>
<text text-anchor="start" x="706" y="-376.2" font-family="Helvetica,sans-Serif" font-size="11.00"> &#160;</text>
<polygon fill="black" stroke="black" points="587,-371 587,-387 587,-387 587,-371 587,-371"/>
<polygon fill="black" stroke="black" points="652,-371 652,-387 652,-387 652,-371 652,-371"/>
</a>
</g>
</g>
<!-- signed_authorizations&#45;&gt;transactions -->
<g id="edge9" class="edge">
<title>signed_authorizations:w&#45;&gt;transactions:e</title>
<path fill="none" stroke="black" d="M493.49,-397C449.33,-397 401.79,-397 363.53,-397"/>
<polygon fill="black" stroke="black" points="500,-397 508,-400.6 504,-397 508,-397 508,-397 508,-397 504,-397 508,-393.4 500,-397 500,-397"/>
<ellipse fill="none" stroke="black" cx="496.8" cy="-397" rx="3.2" ry="3.2"/>
</g>
<!-- token_transfers -->
<g id="node10" class="node">
<title>token_transfers</title>
<g id="a_node10"><a xlink:href="../../tables/token_transfers.html" xlink:title="token_transfers" target="_top">
<polygon fill="#ffffff" stroke="transparent" points="532,-212 532,-270 694,-270 694,-212 532,-212"/>
<polygon fill="#f5f5f5" stroke="transparent" points="532,-248 532,-270 694,-270 694,-248 532,-248"/>
<polygon fill="none" stroke="black" points="532,-248 532,-270 694,-270 694,-248 532,-248"/>
<text text-anchor="start" x="537" y="-257.2" font-family="Helvetica,sans-Serif" font-weight="bold" font-size="11.00">token_transfers</text>
<text text-anchor="start" x="652" y="-256.2" font-family="Helvetica,sans-Serif" font-size="11.00">[table]</text>
<polygon fill="none" stroke="black" points="532,-230 532,-248 694,-248 694,-230 532,-230"/>
<text text-anchor="start" x="535" y="-236.2" font-family="Helvetica,sans-Serif" font-size="11.00">...</text>
<polygon fill="#ffffff" stroke="transparent" points="532,-212 532,-230 694,-230 694,-212 532,-212"/>
<polygon fill="none" stroke="black" points="532,-212 532,-230 694,-230 694,-212 532,-212"/>
<polygon fill="#ffffff" stroke="transparent" points="533,-213 533,-229 595,-229 595,-213 533,-213"/>
<text text-anchor="start" x="535" y="-218.2" font-family="Helvetica,sans-Serif" font-size="11.00">&lt; 2</text>
<polygon fill="#ffffff" stroke="transparent" points="595,-213 595,-229 644,-229 644,-213 595,-213"/>
<text text-anchor="start" x="615.5" y="-218.2" font-family="Helvetica,sans-Serif" font-size="11.00"> &#160;</text>
<polygon fill="#ffffff" stroke="transparent" points="644,-213 644,-229 693,-229 693,-213 644,-213"/>
<text text-anchor="start" x="683" y="-218.2" font-family="Helvetica,sans-Serif" font-size="11.00"> &#160;</text>
<polygon fill="black" stroke="black" points="595,-213 595,-229 595,-229 595,-213 595,-213"/>
<polygon fill="black" stroke="black" points="644,-213 644,-229 644,-229 644,-213 644,-213"/>
</a>
</g>
</g>
<!-- token_transfers&#45;&gt;blocks -->
<g id="edge10" class="edge">
<title>token_transfers:w&#45;&gt;blocks:e</title>
<path fill="none" stroke="black" d="M516.33,-240.29C445.85,-246.88 146.19,-276.6 142,-279 108.5,-298.2 84.29,-336.2 70.14,-363.9"/>
<polygon fill="black" stroke="black" points="523.03,-239.7 531.31,-242.59 527.02,-239.35 531,-239 531,-239 531,-239 527.02,-239.35 530.69,-235.41 523.03,-239.7 523.03,-239.7"/>
<ellipse fill="none" stroke="black" cx="519.84" cy="-239.98" rx="3.2" ry="3.2"/>
</g>
<!-- token_transfers&#45;&gt;transactions -->
<g id="edge11" class="edge">
<title>token_transfers:w&#45;&gt;transactions:e</title>
<path fill="none" stroke="black" d="M516.62,-240.05C492.79,-243.93 483.37,-258.37 464,-281 439.79,-309.29 459.1,-333.57 431,-358 412.3,-374.26 387.44,-383.81 363.68,-389.4"/>
<polygon fill="black" stroke="black" points="523.02,-239.58 531.26,-242.59 527.01,-239.29 531,-239 531,-239 531,-239 527.01,-239.29 530.74,-235.41 523.02,-239.58 523.02,-239.58"/>
<ellipse fill="none" stroke="black" cx="519.83" cy="-239.82" rx="3.2" ry="3.2"/>
</g>
<!-- transaction_actions -->
<g id="node11" class="node">
<title>transaction_actions</title>
<g id="a_node11"><a xlink:href="../../tables/transaction_actions.html" xlink:title="transaction_actions" target="_top">
<polygon fill="#ffffff" stroke="transparent" points="518,-291 518,-349 708,-349 708,-291 518,-291"/>
<polygon fill="#f5f5f5" stroke="transparent" points="518,-327 518,-349 708,-349 708,-327 518,-327"/>
<polygon fill="none" stroke="black" points="518,-327 518,-349 708,-349 708,-327 518,-327"/>
<text text-anchor="start" x="523" y="-336.2" font-family="Helvetica,sans-Serif" font-weight="bold" font-size="11.00">transaction_actions</text>
<text text-anchor="start" x="666" y="-335.2" font-family="Helvetica,sans-Serif" font-size="11.00">[table]</text>
<polygon fill="none" stroke="black" points="518,-309 518,-327 708,-327 708,-309 518,-309"/>
<text text-anchor="start" x="521" y="-315.2" font-family="Helvetica,sans-Serif" font-size="11.00">...</text>
<polygon fill="#ffffff" stroke="transparent" points="518,-291 518,-309 708,-309 708,-291 518,-291"/>
<polygon fill="none" stroke="black" points="518,-291 518,-309 708,-309 708,-291 518,-291"/>
<polygon fill="#ffffff" stroke="transparent" points="519,-292 519,-308 590,-308 590,-292 519,-292"/>
<text text-anchor="start" x="521" y="-297.2" font-family="Helvetica,sans-Serif" font-size="11.00">&lt; 1</text>
<polygon fill="#ffffff" stroke="transparent" points="590,-292 590,-308 649,-308 649,-292 590,-292"/>
<text text-anchor="start" x="615.5" y="-297.2" font-family="Helvetica,sans-Serif" font-size="11.00"> &#160;</text>
<polygon fill="#ffffff" stroke="transparent" points="649,-292 649,-308 707,-308 707,-292 649,-292"/>
<text text-anchor="start" x="697" y="-297.2" font-family="Helvetica,sans-Serif" font-size="11.00"> &#160;</text>
<polygon fill="black" stroke="black" points="590,-292 590,-308 590,-308 590,-292 590,-292"/>
<polygon fill="black" stroke="black" points="649,-292 649,-308 649,-308 649,-292 649,-292"/>
</a>
</g>
</g>
<!-- transaction_actions&#45;&gt;transactions -->
<g id="edge12" class="edge">
<title>transaction_actions:w&#45;&gt;transactions:e</title>
<path fill="none" stroke="black" d="M502.43,-319.19C473.16,-324.4 465.49,-345.4 431,-358 409.54,-365.84 385.77,-372.92 363.85,-378.83"/>
<polygon fill="black" stroke="black" points="509.03,-318.65 517.29,-321.59 513.01,-318.33 517,-318 517,-318 517,-318 513.01,-318.33 516.71,-314.41 509.03,-318.65 509.03,-318.65"/>
<ellipse fill="none" stroke="black" cx="505.84" cy="-318.92" rx="3.2" ry="3.2"/>
</g>
<!-- transaction_forks -->
<g id="node12" class="node">
<title>transaction_forks</title>
<g id="a_node12"><a xlink:href="../../tables/transaction_forks.html" xlink:title="transaction_forks" target="_top">
<polygon fill="#ffffff" stroke="transparent" points="479.5,-37 479.5,-191 746.5,-191 746.5,-37 479.5,-37"/>
<polygon fill="#f5f5f5" stroke="transparent" points="482,-167 482,-189 745,-189 745,-167 482,-167"/>
<polygon fill="none" stroke="black" points="482,-167 482,-189 745,-189 745,-167 482,-167"/>
<text text-anchor="start" x="487" y="-176.2" font-family="Helvetica,sans-Serif" font-weight="bold" font-size="11.00">transaction_forks</text>
<text text-anchor="start" x="703" y="-175.2" font-family="Helvetica,sans-Serif" font-size="11.00">[table]</text>
<polygon fill="none" stroke="black" points="482,-145 482,-167 630,-167 630,-145 482,-145"/>
<image xlink:href="../../images/foreignKeys.png" width="11px" height="12px" preserveAspectRatio="xMinYMin meet" x="487" y="-162"/>
<text text-anchor="start" x="502" y="-153.2" font-family="Helvetica,sans-Serif" font-size="11.00">hash</text>
<polygon fill="none" stroke="black" points="630,-145 630,-167 745,-167 745,-145 630,-145"/>
<text text-anchor="start" x="633" y="-153.2" font-family="Helvetica,sans-Serif" font-size="11.00">bytea[2147483647]</text>
<polygon fill="none" stroke="black" points="482,-123 482,-145 630,-145 630,-123 482,-123"/>
<image xlink:href="../../images/primaryKeys.png" width="11px" height="12px" preserveAspectRatio="xMinYMin meet" x="487" y="-140"/>
<text text-anchor="start" x="502" y="-131.2" font-family="Helvetica,sans-Serif" font-size="11.00">index</text>
<polygon fill="none" stroke="black" points="630,-123 630,-145 745,-145 745,-123 630,-123"/>
<text text-anchor="start" x="633" y="-131.2" font-family="Helvetica,sans-Serif" font-size="11.00">int4[10]</text>
<polygon fill="none" stroke="black" points="482,-101 482,-123 630,-123 630,-101 482,-101"/>
<image xlink:href="../../images/primaryKeys.png" width="11px" height="12px" preserveAspectRatio="xMinYMin meet" x="487" y="-118"/>
<text text-anchor="start" x="502" y="-109.2" font-family="Helvetica,sans-Serif" font-size="11.00">uncle_hash</text>
<polygon fill="none" stroke="black" points="630,-101 630,-123 745,-123 745,-101 630,-101"/>
<text text-anchor="start" x="633" y="-109.2" font-family="Helvetica,sans-Serif" font-size="11.00">bytea[2147483647]</text>
<polygon fill="none" stroke="black" points="482,-79 482,-101 630,-101 630,-79 482,-79"/>
<text text-anchor="start" x="502" y="-87.2" font-family="Helvetica,sans-Serif" font-size="11.00">inserted_at</text>
<polygon fill="none" stroke="black" points="630,-79 630,-101 745,-101 745,-79 630,-79"/>
<text text-anchor="start" x="633" y="-87.2" font-family="Helvetica,sans-Serif" font-size="11.00">timestamp[29,6]</text>
<polygon fill="none" stroke="black" points="482,-57 482,-79 630,-79 630,-57 482,-57"/>
<text text-anchor="start" x="502" y="-65.2" font-family="Helvetica,sans-Serif" font-size="11.00">updated_at</text>
<polygon fill="none" stroke="black" points="630,-57 630,-79 745,-79 745,-57 630,-57"/>
<text text-anchor="start" x="633" y="-65.2" font-family="Helvetica,sans-Serif" font-size="11.00">timestamp[29,6]</text>
<polygon fill="#ffffff" stroke="transparent" points="482,-39 482,-57 745,-57 745,-39 482,-39"/>
<polygon fill="none" stroke="black" points="482,-39 482,-57 745,-57 745,-39 482,-39"/>
<polygon fill="#ffffff" stroke="transparent" points="483,-40 483,-56 574,-56 574,-40 483,-40"/>
<text text-anchor="start" x="485" y="-45.2" font-family="Helvetica,sans-Serif" font-size="11.00">&lt; 2</text>
<polygon fill="#ffffff" stroke="transparent" points="574,-40 574,-56 653,-56 653,-40 574,-40"/>
<text text-anchor="start" x="609.5" y="-45.2" font-family="Helvetica,sans-Serif" font-size="11.00"> &#160;</text>
<polygon fill="#ffffff" stroke="transparent" points="653,-40 653,-56 744,-56 744,-40 653,-40"/>
<text text-anchor="start" x="722" y="-45.2" font-family="Helvetica,sans-Serif" font-size="11.00">0 &gt;</text>
<polygon fill="black" stroke="black" points="574,-40 574,-56 574,-56 574,-40 574,-40"/>
<polygon fill="black" stroke="black" points="653,-40 653,-56 653,-56 653,-40 653,-40"/>
<polygon fill="none" stroke="black" stroke-width="2" points="480.5,-38 480.5,-190 745.5,-190 745.5,-38 480.5,-38"/>
</a>
</g>
</g>
<!-- transaction_forks&#45;&gt;blocks -->
<g id="edge14" class="edge">
<title>transaction_forks:w&#45;&gt;blocks:e</title>
<path fill="none" stroke="black" d="M466.47,-114.74C435.82,-129.16 470.85,-196.64 431,-225 378.5,-262.37 196.52,-214.64 142,-249 100.58,-275.1 76.68,-328.77 64.88,-363.8"/>
<polygon fill="black" stroke="black" points="473.14,-113.48 481.67,-115.54 477.07,-112.74 481,-112 481,-112 481,-112 477.07,-112.74 480.33,-108.46 473.14,-113.48 473.14,-113.48"/>
<ellipse fill="none" stroke="black" cx="469.99" cy="-114.08" rx="3.2" ry="3.2"/>
</g>
<!-- transaction_forks&#45;&gt;transactions -->
<g id="edge13" class="edge">
<title>transaction_forks:w&#45;&gt;transactions:e</title>
<path fill="none" stroke="black" d="M466.3,-157.44C400.73,-172.07 490.67,-294.84 431,-358 413.54,-376.49 388.27,-386.52 363.79,-391.87"/>
<polygon fill="black" stroke="black" points="473.04,-156.78 481.35,-159.58 477.02,-156.39 481,-156 481,-156 481,-156 477.02,-156.39 480.65,-152.42 473.04,-156.78 473.04,-156.78"/>
<ellipse fill="none" stroke="black" cx="469.85" cy="-157.09" rx="3.2" ry="3.2"/>
</g>
<!-- withdrawals -->
<g id="node13" class="node">
<title>withdrawals</title>
<g id="a_node13"><a xlink:href="../../tables/withdrawals.html" xlink:title="withdrawals" target="_top">
<polygon fill="#ffffff" stroke="transparent" points="218.5,-156 218.5,-214 354.5,-214 354.5,-156 218.5,-156"/>
<polygon fill="#f5f5f5" stroke="transparent" points="218.5,-192 218.5,-214 354.5,-214 354.5,-192 218.5,-192"/>
<polygon fill="none" stroke="black" points="218.5,-192 218.5,-214 354.5,-214 354.5,-192 218.5,-192"/>
<text text-anchor="start" x="223.5" y="-201.2" font-family="Helvetica,sans-Serif" font-weight="bold" font-size="11.00">withdrawals</text>
<text text-anchor="start" x="312.5" y="-200.2" font-family="Helvetica,sans-Serif" font-size="11.00">[table]</text>
<polygon fill="none" stroke="black" points="218.5,-174 218.5,-192 354.5,-192 354.5,-174 218.5,-174"/>
<text text-anchor="start" x="221.5" y="-180.2" font-family="Helvetica,sans-Serif" font-size="11.00">...</text>
<polygon fill="#ffffff" stroke="transparent" points="218.5,-156 218.5,-174 354.5,-174 354.5,-156 218.5,-156"/>
<polygon fill="none" stroke="black" points="218.5,-156 218.5,-174 354.5,-174 354.5,-156 218.5,-156"/>
<polygon fill="#ffffff" stroke="transparent" points="219.5,-157 219.5,-173 272.5,-173 272.5,-157 219.5,-157"/>
<text text-anchor="start" x="221.5" y="-162.2" font-family="Helvetica,sans-Serif" font-size="11.00">&lt; 1</text>
<polygon fill="#ffffff" stroke="transparent" points="272.5,-157 272.5,-173 313.5,-173 313.5,-157 272.5,-157"/>
<text text-anchor="start" x="289" y="-162.2" font-family="Helvetica,sans-Serif" font-size="11.00"> &#160;</text>
<polygon fill="#ffffff" stroke="transparent" points="313.5,-157 313.5,-173 353.5,-173 353.5,-157 313.5,-157"/>
<text text-anchor="start" x="343.5" y="-162.2" font-family="Helvetica,sans-Serif" font-size="11.00"> &#160;</text>
<polygon fill="black" stroke="black" points="272.5,-157 272.5,-173 272.5,-173 272.5,-157 272.5,-157"/>
<polygon fill="black" stroke="black" points="313.5,-157 313.5,-173 313.5,-173 313.5,-157 313.5,-157"/>
</a>
</g>
</g>
<!-- withdrawals&#45;&gt;blocks -->
<g id="edge16" class="edge">
<title>withdrawals:w&#45;&gt;blocks:e</title>
<path fill="none" stroke="black" d="M202.71,-184.13C122.87,-196.44 80.64,-306.78 64.04,-363.56"/>
<polygon fill="black" stroke="black" points="209.52,-183.61 217.77,-186.59 213.51,-183.3 217.5,-183 217.5,-183 217.5,-183 213.51,-183.3 217.23,-179.41 209.52,-183.61 209.52,-183.61"/>
<ellipse fill="none" stroke="black" cx="206.33" cy="-183.85" rx="3.2" ry="3.2"/>
</g>
</g>
</svg>
