<?xml version="1.0" encoding="UTF-8" standalone="no"?>
<!DOCTYPE svg PUBLIC "-//W3C//DTD SVG 1.1//EN"
 "http://www.w3.org/Graphics/SVG/1.1/DTD/svg11.dtd">
<!-- Generated by graphviz version 2.43.0 (0)
 -->
<!-- Title: oneDegreeRelationshipsDiagram Pages: 1 -->
<svg width="304pt" height="203pt"
 viewBox="0.00 0.00 304.00 203.00" xmlns="http://www.w3.org/2000/svg" xmlns:xlink="http://www.w3.org/1999/xlink">
<g id="graph0" class="graph" transform="scale(1 1) rotate(0) translate(4 199)">
<title>oneDegreeRelationshipsDiagram</title>
<polygon fill="#ffffff" stroke="transparent" points="-4,4 -4,-199 300,-199 300,4 -4,4"/>
<text text-anchor="middle" x="79.5" y="-7.2" font-family="Helvetica,sans-Serif" font-size="11.00">Generated by SchemaSpy</text>
<!-- transaction_stats -->
<g id="node1" class="node">
<title>transaction_stats</title>
<g id="a_node1"><a xlink:href="../../tables/transaction_stats.html" xlink:title="transaction_stats" target="_top">
<polygon fill="#ffffff" stroke="transparent" points="8,-37 8,-191 288,-191 288,-37 8,-37"/>
<polygon fill="#f5f5f5" stroke="transparent" points="10,-167 10,-189 286,-189 286,-167 10,-167"/>
<polygon fill="none" stroke="black" points="10,-167 10,-189 286,-189 286,-167 10,-167"/>
<text text-anchor="start" x="15" y="-176.2" font-family="Helvetica,sans-Serif" font-weight="bold" font-size="11.00">transaction_stats</text>
<text text-anchor="start" x="244" y="-175.2" font-family="Helvetica,sans-Serif" font-size="11.00">[table]</text>
<polygon fill="none" stroke="black" points="10,-145 10,-167 206,-167 206,-145 10,-145"/>
<image xlink:href="../../images/primaryKeys.png" width="11px" height="12px" preserveAspectRatio="xMinYMin meet" x="15" y="-162"/>
<text text-anchor="start" x="30" y="-153.2" font-family="Helvetica,sans-Serif" font-size="11.00">id</text>
<polygon fill="none" stroke="black" points="206,-145 206,-167 286,-167 286,-145 206,-145"/>
<text text-anchor="start" x="209" y="-153.2" font-family="Helvetica,sans-Serif" font-size="11.00">bigserial[19]</text>
<polygon fill="#ffffff" stroke="transparent" points="10,-123 10,-145 206,-145 206,-123 10,-123"/>
<polygon fill="none" stroke="black" points="10,-123 10,-145 206,-145 206,-123 10,-123"/>
<text text-anchor="start" x="30" y="-131.2" font-family="Helvetica,sans-Serif" font-size="11.00">date</text>
<polygon fill="none" stroke="black" points="206,-123 206,-145 286,-145 286,-123 206,-123"/>
<text text-anchor="start" x="209" y="-131.2" font-family="Helvetica,sans-Serif" font-size="11.00">date[13]</text>
<polygon fill="none" stroke="black" points="10,-101 10,-123 206,-123 206,-101 10,-101"/>
<text text-anchor="start" x="30" y="-109.2" font-family="Helvetica,sans-Serif" font-size="11.00">number_of_transactions</text>
<polygon fill="none" stroke="black" points="206,-101 206,-123 286,-123 286,-101 206,-101"/>
<text text-anchor="start" x="209" y="-109.2" font-family="Helvetica,sans-Serif" font-size="11.00">int4[10]</text>
<polygon fill="none" stroke="black" points="10,-79 10,-101 206,-101 206,-79 10,-79"/>
<text text-anchor="start" x="30" y="-87.2" font-family="Helvetica,sans-Serif" font-size="11.00">gas_used</text>
<polygon fill="none" stroke="black" points="206,-79 206,-101 286,-101 286,-79 206,-79"/>
<text text-anchor="start" x="209" y="-87.2" font-family="Helvetica,sans-Serif" font-size="11.00">numeric[100]</text>
<polygon fill="none" stroke="black" points="10,-57 10,-79 206,-79 206,-57 10,-57"/>
<text text-anchor="start" x="30" y="-65.2" font-family="Helvetica,sans-Serif" font-size="11.00">total_fee</text>
<polygon fill="none" stroke="black" points="206,-57 206,-79 286,-79 286,-57 206,-57"/>
<text text-anchor="start" x="209" y="-65.2" font-family="Helvetica,sans-Serif" font-size="11.00">numeric[100]</text>
<polygon fill="#ffffff" stroke="transparent" points="10,-39 10,-57 286,-57 286,-39 10,-39"/>
<polygon fill="none" stroke="black" points="10,-39 10,-57 286,-57 286,-39 10,-39"/>
<polygon fill="#ffffff" stroke="transparent" points="11,-40 11,-56 107,-56 107,-40 11,-40"/>
<text text-anchor="start" x="13" y="-45.2" font-family="Helvetica,sans-Serif" font-size="11.00">&lt; 0</text>
<polygon fill="#ffffff" stroke="transparent" points="107,-40 107,-56 190,-56 190,-40 107,-40"/>
<text text-anchor="start" x="144.5" y="-45.2" font-family="Helvetica,sans-Serif" font-size="11.00"> &#160;</text>
<polygon fill="#ffffff" stroke="transparent" points="190,-40 190,-56 285,-56 285,-40 190,-40"/>
<text text-anchor="start" x="263" y="-45.2" font-family="Helvetica,sans-Serif" font-size="11.00">0 &gt;</text>
<polygon fill="black" stroke="black" points="107,-40 107,-56 107,-56 107,-40 107,-40"/>
<polygon fill="black" stroke="black" points="190,-40 190,-56 190,-56 190,-40 190,-40"/>
<polygon fill="none" stroke="black" stroke-width="2" points="9,-38 9,-190 287,-190 287,-38 9,-38"/>
</a>
</g>
</g>
</g>
</svg>
