<?xml version="1.0" encoding="UTF-8" standalone="no"?>
<!DOCTYPE svg PUBLIC "-//W3C//DTD SVG 1.1//EN"
 "http://www.w3.org/Graphics/SVG/1.1/DTD/svg11.dtd">
<!-- Generated by graphviz version 2.38.0 (20140413.2041)
 -->
<!-- Title: oneDegreeRelationshipsDiagram Pages: 1 -->
<svg width="709pt" height="506pt"
 viewBox="0.00 0.00 709.00 506.00" xmlns="http://www.w3.org/2000/svg" xmlns:xlink="http://www.w3.org/1999/xlink">
<g id="graph0" class="graph" transform="scale(1 1) rotate(0) translate(4 502)">
<title>oneDegreeRelationshipsDiagram</title>
<polygon fill="#ffffff" stroke="none" points="-4,4 -4,-502 705,-502 705,4 -4,4"/>
<text text-anchor="middle" x="74.5" y="-7.2" font-family="Helvetica,sans-Serif" font-size="11.00">Generated by SchemaSpy</text>
<!-- transaction_forks -->
<g id="node1" class="node"><title>transaction_forks</title>
<g id="a_node1"><a xlink:href="../../tables/transaction_forks.html" xlink:title="transaction_forks" target="_top">
<polygon fill="#ffffff" stroke="none" points="453,-185 453,-339 693,-339 693,-185 453,-185"/>
<polygon fill="#f5f5f5" stroke="none" points="455,-315 455,-337 691,-337 691,-315 455,-315"/>
<polygon fill="none" stroke="black" points="455,-315 455,-337 691,-337 691,-315 455,-315"/>
<text text-anchor="start" x="460" y="-324.2" font-family="Helvetica,sans-Serif" font-weight="bold" font-size="11.00">transaction_forks</text>
<text text-anchor="start" x="652" y="-323.2" font-family="Helvetica,sans-Serif" font-size="11.00">[table]</text>
<polygon fill="none" stroke="black" points="455,-293 455,-315 581,-315 581,-293 455,-293"/>
<image xlink:href="../../images/foreignKeys.png" width="11px" height="12px" preserveAspectRatio="xMinYMin meet" x="460" y="-310"/>
<text text-anchor="start" x="475" y="-301.2" font-family="Helvetica,sans-Serif" font-size="11.00">hash</text>
<polygon fill="none" stroke="black" points="581,-293 581,-315 691,-315 691,-293 581,-293"/>
<text text-anchor="start" x="584" y="-301.2" font-family="Helvetica,sans-Serif" font-size="11.00">bytea[2147483647]</text>
<polygon fill="#ffffff" stroke="none" points="455,-271 455,-293 581,-293 581,-271 455,-271"/>
<polygon fill="none" stroke="black" points="455,-271 455,-293 581,-293 581,-271 455,-271"/>
<text text-anchor="start" x="475" y="-279.2" font-family="Helvetica,sans-Serif" font-size="11.00">index</text>
<polygon fill="none" stroke="black" points="581,-271 581,-293 691,-293 691,-271 581,-271"/>
<text text-anchor="start" x="584" y="-279.2" font-family="Helvetica,sans-Serif" font-size="11.00">int4[10]</text>
<polygon fill="#ffffff" stroke="none" points="455,-249 455,-271 581,-271 581,-249 455,-249"/>
<polygon fill="none" stroke="black" points="455,-249 455,-271 581,-271 581,-249 455,-249"/>
<image xlink:href="../../images/foreignKeys.png" width="11px" height="12px" preserveAspectRatio="xMinYMin meet" x="460" y="-266"/>
<text text-anchor="start" x="475" y="-257.2" font-family="Helvetica,sans-Serif" font-size="11.00">uncle_hash</text>
<polygon fill="none" stroke="black" points="581,-249 581,-271 691,-271 691,-249 581,-249"/>
<text text-anchor="start" x="584" y="-257.2" font-family="Helvetica,sans-Serif" font-size="11.00">bytea[2147483647]</text>
<polygon fill="none" stroke="black" points="455,-227 455,-249 581,-249 581,-227 455,-227"/>
<text text-anchor="start" x="475" y="-235.2" font-family="Helvetica,sans-Serif" font-size="11.00">inserted_at</text>
<polygon fill="none" stroke="black" points="581,-227 581,-249 691,-249 691,-227 581,-227"/>
<text text-anchor="start" x="584" y="-235.2" font-family="Helvetica,sans-Serif" font-size="11.00">timestamp[29,6]</text>
<polygon fill="none" stroke="black" points="455,-205 455,-227 581,-227 581,-205 455,-205"/>
<text text-anchor="start" x="475" y="-213.2" font-family="Helvetica,sans-Serif" font-size="11.00">updated_at</text>
<polygon fill="none" stroke="black" points="581,-205 581,-227 691,-227 691,-205 581,-205"/>
<text text-anchor="start" x="584" y="-213.2" font-family="Helvetica,sans-Serif" font-size="11.00">timestamp[29,6]</text>
<polygon fill="#ffffff" stroke="none" points="455,-187 455,-205 508,-205 508,-187 455,-187"/>
<polygon fill="none" stroke="black" points="455,-187 455,-205 508,-205 508,-187 455,-187"/>
<text text-anchor="start" x="458" y="-193.2" font-family="Helvetica,sans-Serif" font-size="11.00">&lt; 2</text>
<polygon fill="#ffffff" stroke="none" points="508,-187 508,-205 581,-205 581,-187 508,-187"/>
<polygon fill="none" stroke="black" points="508,-187 508,-205 581,-205 581,-187 508,-187"/>
<text text-anchor="start" x="542" y="-193.2" font-family="Helvetica,sans-Serif" font-size="11.00">0 rows</text>
<polygon fill="#ffffff" stroke="none" points="581,-187 581,-205 691,-205 691,-187 581,-187"/>
<polygon fill="none" stroke="black" points="581,-187 581,-205 691,-205 691,-187 581,-187"/>
<text text-anchor="start" x="671" y="-193.2" font-family="Helvetica,sans-Serif" font-size="11.00">0 &gt;</text>
<polygon fill="none" stroke="black" stroke-width="2" points="454,-186 454,-338 692,-338 692,-186 454,-186"/>
</a>
</g>
</g>
<!-- transactions -->
<g id="node2" class="node"><title>transactions</title>
<g id="a_node2"><a xlink:href="../../tables/transactions.html" xlink:title="transactions" target="_top">
<polygon fill="#ffffff" stroke="none" points="179,-150 179,-494 404,-494 404,-150 179,-150"/>
<polygon fill="#f5f5f5" stroke="none" points="179.5,-472 179.5,-494 404.5,-494 404.5,-472 179.5,-472"/>
<polygon fill="none" stroke="black" points="179.5,-472 179.5,-494 404.5,-494 404.5,-472 179.5,-472"/>
<text text-anchor="start" x="184.5" y="-481.2" font-family="Helvetica,sans-Serif" font-weight="bold" font-size="11.00">transactions</text>
<text text-anchor="start" x="365.5" y="-480.2" font-family="Helvetica,sans-Serif" font-size="11.00">[table]</text>
<polygon fill="#ffffff" stroke="none" points="179.5,-450 179.5,-472 404.5,-472 404.5,-450 179.5,-450"/>
<polygon fill="none" stroke="black" points="179.5,-450 179.5,-472 404.5,-472 404.5,-450 179.5,-450"/>
<text text-anchor="start" x="199.5" y="-458.2" font-family="Helvetica,sans-Serif" font-size="11.00">error</text>
<polygon fill="none" stroke="black" points="179.5,-428 179.5,-450 404.5,-450 404.5,-428 179.5,-428"/>
<image xlink:href="../../images/primaryKeys.png" width="11px" height="12px" preserveAspectRatio="xMinYMin meet" x="184.5" y="-445"/>
<text text-anchor="start" x="199.5" y="-436.2" font-family="Helvetica,sans-Serif" font-size="11.00">hash</text>
<polygon fill="#ffffff" stroke="none" points="179.5,-406 179.5,-428 404.5,-428 404.5,-406 179.5,-406"/>
<polygon fill="none" stroke="black" points="179.5,-406 179.5,-428 404.5,-428 404.5,-406 179.5,-406"/>
<text text-anchor="start" x="199.5" y="-414.2" font-family="Helvetica,sans-Serif" font-size="11.00">index</text>
<polygon fill="#ffffff" stroke="none" points="179.5,-384 179.5,-406 404.5,-406 404.5,-384 179.5,-384"/>
<polygon fill="none" stroke="black" points="179.5,-384 179.5,-406 404.5,-406 404.5,-384 179.5,-384"/>
<text text-anchor="start" x="199.5" y="-392.2" font-family="Helvetica,sans-Serif" font-size="11.00">nonce</text>
<polygon fill="#ffffff" stroke="none" points="179.5,-362 179.5,-384 404.5,-384 404.5,-362 179.5,-362"/>
<polygon fill="none" stroke="black" points="179.5,-362 179.5,-384 404.5,-384 404.5,-362 179.5,-362"/>
<text text-anchor="start" x="199.5" y="-370.2" font-family="Helvetica,sans-Serif" font-size="11.00">status</text>
<polygon fill="#ffffff" stroke="none" points="179.5,-340 179.5,-362 404.5,-362 404.5,-340 179.5,-340"/>
<polygon fill="none" stroke="black" points="179.5,-340 179.5,-362 404.5,-362 404.5,-340 179.5,-340"/>
<text text-anchor="start" x="199.5" y="-348.2" font-family="Helvetica,sans-Serif" font-size="11.00">inserted_at</text>
<polygon fill="#ffffff" stroke="none" points="179.5,-318 179.5,-340 404.5,-340 404.5,-318 179.5,-318"/>
<polygon fill="none" stroke="black" points="179.5,-318 179.5,-340 404.5,-340 404.5,-318 179.5,-318"/>
<text text-anchor="start" x="199.5" y="-326.2" font-family="Helvetica,sans-Serif" font-size="11.00">updated_at</text>
<polygon fill="#ffffff" stroke="none" points="179.5,-296 179.5,-318 404.5,-318 404.5,-296 179.5,-296"/>
<polygon fill="none" stroke="black" points="179.5,-296 179.5,-318 404.5,-318 404.5,-296 179.5,-296"/>
<image xlink:href="../../images/foreignKeys.png" width="11px" height="12px" preserveAspectRatio="xMinYMin meet" x="184.5" y="-313"/>
<text text-anchor="start" x="199.5" y="-304.2" font-family="Helvetica,sans-Serif" font-size="11.00">block_hash</text>
<polygon fill="#ffffff" stroke="none" points="179.5,-274 179.5,-296 404.5,-296 404.5,-274 179.5,-274"/>
<polygon fill="none" stroke="black" points="179.5,-274 179.5,-296 404.5,-296 404.5,-274 179.5,-274"/>
<text text-anchor="start" x="199.5" y="-282.2" font-family="Helvetica,sans-Serif" font-size="11.00">block_number</text>
<polygon fill="#ffffff" stroke="none" points="179.5,-252 179.5,-274 404.5,-274 404.5,-252 179.5,-252"/>
<polygon fill="none" stroke="black" points="179.5,-252 179.5,-274 404.5,-274 404.5,-252 179.5,-252"/>
<image xlink:href="../../images/foreignKeys.png" width="11px" height="12px" preserveAspectRatio="xMinYMin meet" x="184.5" y="-269"/>
<text text-anchor="start" x="199.5" y="-260.2" font-family="Helvetica,sans-Serif" font-size="11.00">from_address_hash</text>
<polygon fill="#ffffff" stroke="none" points="179.5,-230 179.5,-252 404.5,-252 404.5,-230 179.5,-230"/>
<polygon fill="none" stroke="black" points="179.5,-230 179.5,-252 404.5,-252 404.5,-230 179.5,-230"/>
<image xlink:href="../../images/foreignKeys.png" width="11px" height="12px" preserveAspectRatio="xMinYMin meet" x="184.5" y="-247"/>
<text text-anchor="start" x="199.5" y="-238.2" font-family="Helvetica,sans-Serif" font-size="11.00">to_address_hash</text>
<polygon fill="#ffffff" stroke="none" points="179.5,-208 179.5,-230 404.5,-230 404.5,-208 179.5,-208"/>
<polygon fill="none" stroke="black" points="179.5,-208 179.5,-230 404.5,-230 404.5,-208 179.5,-208"/>
<image xlink:href="../../images/foreignKeys.png" width="11px" height="12px" preserveAspectRatio="xMinYMin meet" x="184.5" y="-225"/>
<text text-anchor="start" x="199.5" y="-216.2" font-family="Helvetica,sans-Serif" font-size="11.00">created_contract_address_hash</text>
<polygon fill="#ffffff" stroke="none" points="179.5,-186 179.5,-208 404.5,-208 404.5,-186 179.5,-186"/>
<polygon fill="none" stroke="black" points="179.5,-186 179.5,-208 404.5,-208 404.5,-186 179.5,-186"/>
<text text-anchor="start" x="199.5" y="-194.2" font-family="Helvetica,sans-Serif" font-size="11.00">created_contract_code_indexed_at</text>
<polygon fill="none" stroke="black" points="179.5,-168 179.5,-186 404.5,-186 404.5,-168 179.5,-168"/>
<text text-anchor="start" x="182.5" y="-174.2" font-family="Helvetica,sans-Serif" font-size="11.00">...</text>
<polygon fill="#ffffff" stroke="none" points="179.5,-150 179.5,-168 273.5,-168 273.5,-150 179.5,-150"/>
<polygon fill="none" stroke="black" points="179.5,-150 179.5,-168 273.5,-168 273.5,-150 179.5,-150"/>
<text text-anchor="start" x="182.5" y="-156.2" font-family="Helvetica,sans-Serif" font-size="11.00">&lt; 4</text>
<polygon fill="#ffffff" stroke="none" points="273.5,-150 273.5,-168 345.5,-168 345.5,-150 273.5,-150"/>
<polygon fill="none" stroke="black" points="273.5,-150 273.5,-168 345.5,-168 345.5,-150 273.5,-150"/>
<text text-anchor="start" x="311.5" y="-156.2" font-family="Helvetica,sans-Serif" font-size="11.00">1 row</text>
<polygon fill="#ffffff" stroke="none" points="345.5,-150 345.5,-168 404.5,-168 404.5,-150 345.5,-150"/>
<polygon fill="none" stroke="black" points="345.5,-150 345.5,-168 404.5,-168 404.5,-150 345.5,-150"/>
<text text-anchor="start" x="384.5" y="-156.2" font-family="Helvetica,sans-Serif" font-size="11.00">4 &gt;</text>
</a>
</g>
</g>
<!-- transaction_forks&#45;&gt;transactions -->
<g id="edge1" class="edge"><title>transaction_forks:hash:w&#45;&gt;transactions:hash:e</title>
<path fill="none" stroke="black" d="M439.598,-307.337C403.805,-328.126 463.278,-439 405.5,-439"/>
<polygon fill="black" stroke="black" points="446.206,-305.806 454.813,-307.507 450.103,-304.903 454,-304 454,-304 454,-304 450.103,-304.903 453.187,-300.493 446.206,-305.806 446.206,-305.806"/>
<ellipse fill="none" stroke="black" cx="443.089" cy="-306.528" rx="3.2" ry="3.2"/>
</g>
<!-- blocks -->
<g id="node3" class="node"><title>blocks</title>
<g id="a_node3"><a xlink:href="../../tables/blocks.html" xlink:title="blocks" target="_top">
<polygon fill="#ffffff" stroke="none" points="8,-37 8,-271 130,-271 130,-37 8,-37"/>
<polygon fill="#f5f5f5" stroke="none" points="8,-249 8,-271 130,-271 130,-249 8,-249"/>
<polygon fill="none" stroke="black" points="8,-249 8,-271 130,-271 130,-249 8,-249"/>
<text text-anchor="start" x="13" y="-258.2" font-family="Helvetica,sans-Serif" font-weight="bold" font-size="11.00">blocks</text>
<text text-anchor="start" x="91" y="-257.2" font-family="Helvetica,sans-Serif" font-size="11.00">[table]</text>
<polygon fill="#ffffff" stroke="none" points="8,-227 8,-249 130,-249 130,-227 8,-227"/>
<polygon fill="none" stroke="black" points="8,-227 8,-249 130,-249 130,-227 8,-227"/>
<text text-anchor="start" x="28" y="-235.2" font-family="Helvetica,sans-Serif" font-size="11.00">consensus</text>
<polygon fill="none" stroke="black" points="8,-205 8,-227 130,-227 130,-205 8,-205"/>
<image xlink:href="../../images/primaryKeys.png" width="11px" height="12px" preserveAspectRatio="xMinYMin meet" x="13" y="-222"/>
<text text-anchor="start" x="28" y="-213.2" font-family="Helvetica,sans-Serif" font-size="11.00">hash</text>
<polygon fill="#ffffff" stroke="none" points="8,-183 8,-205 130,-205 130,-183 8,-183"/>
<polygon fill="none" stroke="black" points="8,-183 8,-205 130,-205 130,-183 8,-183"/>
<image xlink:href="../../images/foreignKeys.png" width="11px" height="12px" preserveAspectRatio="xMinYMin meet" x="13" y="-200"/>
<text text-anchor="start" x="28" y="-191.2" font-family="Helvetica,sans-Serif" font-size="11.00">miner_hash</text>
<polygon fill="#ffffff" stroke="none" points="8,-161 8,-183 130,-183 130,-161 8,-161"/>
<polygon fill="none" stroke="black" points="8,-161 8,-183 130,-183 130,-161 8,-161"/>
<text text-anchor="start" x="28" y="-169.2" font-family="Helvetica,sans-Serif" font-size="11.00">number</text>
<polygon fill="#ffffff" stroke="none" points="8,-139 8,-161 130,-161 130,-139 8,-139"/>
<polygon fill="none" stroke="black" points="8,-139 8,-161 130,-161 130,-139 8,-139"/>
<text text-anchor="start" x="28" y="-147.2" font-family="Helvetica,sans-Serif" font-size="11.00">parent_hash</text>
<polygon fill="#ffffff" stroke="none" points="8,-117 8,-139 130,-139 130,-117 8,-117"/>
<polygon fill="none" stroke="black" points="8,-117 8,-139 130,-139 130,-117 8,-117"/>
<text text-anchor="start" x="28" y="-125.2" font-family="Helvetica,sans-Serif" font-size="11.00">timestamp</text>
<polygon fill="#ffffff" stroke="none" points="8,-95 8,-117 130,-117 130,-95 8,-95"/>
<polygon fill="none" stroke="black" points="8,-95 8,-117 130,-117 130,-95 8,-95"/>
<text text-anchor="start" x="28" y="-103.2" font-family="Helvetica,sans-Serif" font-size="11.00">inserted_at</text>
<polygon fill="#ffffff" stroke="none" points="8,-73 8,-95 130,-95 130,-73 8,-73"/>
<polygon fill="none" stroke="black" points="8,-73 8,-95 130,-95 130,-73 8,-73"/>
<text text-anchor="start" x="28" y="-81.2" font-family="Helvetica,sans-Serif" font-size="11.00">is_empty</text>
<polygon fill="none" stroke="black" points="8,-55 8,-73 130,-73 130,-55 8,-55"/>
<text text-anchor="start" x="11" y="-61.2" font-family="Helvetica,sans-Serif" font-size="11.00">...</text>
<polygon fill="#ffffff" stroke="none" points="8,-37 8,-55 48,-55 48,-37 8,-37"/>
<polygon fill="none" stroke="black" points="8,-37 8,-55 48,-55 48,-37 8,-37"/>
<text text-anchor="start" x="11" y="-43.2" font-family="Helvetica,sans-Serif" font-size="11.00">&lt; 1</text>
<polygon fill="#ffffff" stroke="none" points="48,-37 48,-55 98,-55 98,-37 48,-37"/>
<polygon fill="none" stroke="black" points="48,-37 48,-55 98,-55 98,-37 48,-37"/>
<text text-anchor="start" x="59" y="-43.2" font-family="Helvetica,sans-Serif" font-size="11.00">3 rows</text>
<polygon fill="#ffffff" stroke="none" points="98,-37 98,-55 130,-55 130,-37 98,-37"/>
<polygon fill="none" stroke="black" points="98,-37 98,-55 130,-55 130,-37 98,-37"/>
<text text-anchor="start" x="110" y="-43.2" font-family="Helvetica,sans-Serif" font-size="11.00">8 &gt;</text>
</a>
</g>
</g>
<!-- transaction_forks&#45;&gt;blocks -->
<g id="edge2" class="edge"><title>transaction_forks:uncle_hash:w&#45;&gt;blocks:hash:e</title>
<path fill="none" stroke="black" d="M439.766,-257.253C409.089,-242.192 453.225,-169.248 412,-140 324.642,-78.0212 262.696,-84.6404 171,-140 138.323,-159.728 169.171,-216 131,-216"/>
<polygon fill="black" stroke="black" points="446.145,-258.484 453.318,-263.535 450.072,-259.242 454,-260 454,-260 454,-260 450.072,-259.242 454.682,-256.465 446.145,-258.484 446.145,-258.484"/>
<ellipse fill="none" stroke="black" cx="443.003" cy="-257.878" rx="3.2" ry="3.2"/>
</g>
<!-- transactions&#45;&gt;blocks -->
<g id="edge3" class="edge"><title>transactions:block_hash:w&#45;&gt;blocks:hash:e</title>
<path fill="none" stroke="black" d="M164.633,-302.611C142.921,-284.433 170.563,-216 131,-216"/>
<polygon fill="black" stroke="black" points="170.873,-304.586 177.414,-310.432 174.686,-305.793 178.5,-307 178.5,-307 178.5,-307 174.686,-305.793 179.586,-303.568 170.873,-304.586 170.873,-304.586"/>
<ellipse fill="none" stroke="black" cx="167.822" cy="-303.62" rx="3.20001" ry="3.20001"/>
</g>
</g>
</svg>
