<?xml version="1.0" encoding="UTF-8" standalone="no"?>
<!DOCTYPE svg PUBLIC "-//W3C//DTD SVG 1.1//EN"
 "http://www.w3.org/Graphics/SVG/1.1/DTD/svg11.dtd">
<!-- Generated by graphviz version 9.0.0 (20230911.1827)
 -->
<!-- Title: twoDegreesRelationshipsDiagram Pages: 1 -->
<svg width="766pt" height="598pt"
 viewBox="0.00 0.00 766.00 598.43" xmlns="http://www.w3.org/2000/svg" xmlns:xlink="http://www.w3.org/1999/xlink">
<g id="graph0" class="graph" transform="scale(1 1) rotate(0) translate(4 594.43)">
<title>twoDegreesRelationshipsDiagram</title>
<polygon fill="#ffffff" stroke="none" points="-4,4 -4,-594.43 762,-594.43 762,4 -4,4"/>
<text text-anchor="middle" x="71.38" y="-5.55" font-family="Helvetica,sans-Serif" font-size="11.00">Generated by SchemaSpy</text>
<!-- internal_transactions -->
<g id="node1" class="node">
<title>internal_transactions</title>
<g id="a_node1"><a xlink:href="../../tables/internal_transactions.html" xlink:title="internal_transactions" target="_top">
<polygon fill="#ffffff" stroke="none" points="497,-528.43 497,-586.43 657,-586.43 657,-528.43 497,-528.43"/>
<polygon fill="#f5f5f5" stroke="none" points="497,-564.43 497,-586.43 657,-586.43 657,-564.43 497,-564.43"/>
<polygon fill="none" stroke="black" points="497,-564.43 497,-586.43 657,-586.43 657,-564.43 497,-564.43"/>
<text text-anchor="start" x="502" y="-571.98" font-family="Helvetica,sans-Serif" font-weight="bold" font-size="11.00">internal_transactions</text>
<text text-anchor="start" x="623" y="-570.98" font-family="Helvetica,sans-Serif" font-size="11.00">[table]</text>
<polygon fill="none" stroke="black" points="497,-546.43 497,-564.43 657,-564.43 657,-546.43 497,-546.43"/>
<text text-anchor="start" x="500" y="-550.98" font-family="Helvetica,sans-Serif" font-size="11.00">...</text>
<polygon fill="#ffffff" stroke="none" points="497,-528.43 497,-546.43 575,-546.43 575,-528.43 497,-528.43"/>
<polygon fill="none" stroke="black" points="497,-528.43 497,-546.43 575,-546.43 575,-528.43 497,-528.43"/>
<text text-anchor="start" x="500" y="-532.98" font-family="Helvetica,sans-Serif" font-size="11.00">&lt; 2</text>
<polygon fill="#ffffff" stroke="none" points="575,-528.43 575,-546.43 616,-546.43 616,-528.43 575,-528.43"/>
<polygon fill="none" stroke="black" points="575,-528.43 575,-546.43 616,-546.43 616,-528.43 575,-528.43"/>
<text text-anchor="start" x="607" y="-532.98" font-family="Helvetica,sans-Serif" font-size="11.00"> &#160;</text>
<polygon fill="#ffffff" stroke="none" points="616,-528.43 616,-546.43 657,-546.43 657,-528.43 616,-528.43"/>
<polygon fill="none" stroke="black" points="616,-528.43 616,-546.43 657,-546.43 657,-528.43 616,-528.43"/>
<text text-anchor="start" x="648" y="-532.98" font-family="Helvetica,sans-Serif" font-size="11.00"> &#160;</text>
</a>
</g>
</g>
<!-- blocks -->
<g id="node2" class="node">
<title>blocks</title>
<g id="a_node2"><a xlink:href="../../tables/blocks.html" xlink:title="blocks" target="_top">
<polygon fill="#ffffff" stroke="none" points="8,-290.43 8,-348.43 85,-348.43 85,-290.43 8,-290.43"/>
<polygon fill="#f5f5f5" stroke="none" points="8,-326.43 8,-348.43 85,-348.43 85,-326.43 8,-326.43"/>
<polygon fill="none" stroke="black" points="8,-326.43 8,-348.43 85,-348.43 85,-326.43 8,-326.43"/>
<text text-anchor="start" x="12.75" y="-333.98" font-family="Helvetica,sans-Serif" font-weight="bold" font-size="11.00">blocks</text>
<text text-anchor="start" x="51" y="-332.98" font-family="Helvetica,sans-Serif" font-size="11.00">[table]</text>
<polygon fill="none" stroke="black" points="8,-308.43 8,-326.43 85,-326.43 85,-308.43 8,-308.43"/>
<text text-anchor="start" x="11" y="-312.98" font-family="Helvetica,sans-Serif" font-size="11.00">...</text>
<polygon fill="#ffffff" stroke="none" points="8,-290.43 8,-308.43 36,-308.43 36,-290.43 8,-290.43"/>
<polygon fill="none" stroke="black" points="8,-290.43 8,-308.43 36,-308.43 36,-290.43 8,-290.43"/>
<text text-anchor="start" x="11" y="-294.98" font-family="Helvetica,sans-Serif" font-size="11.00"> &#160;</text>
<polygon fill="#ffffff" stroke="none" points="36,-290.43 36,-308.43 56,-308.43 56,-290.43 36,-290.43"/>
<polygon fill="none" stroke="black" points="36,-290.43 36,-308.43 56,-308.43 56,-290.43 36,-290.43"/>
<text text-anchor="start" x="47" y="-294.98" font-family="Helvetica,sans-Serif" font-size="11.00"> &#160;</text>
<polygon fill="#ffffff" stroke="none" points="56,-290.43 56,-308.43 85,-308.43 85,-290.43 56,-290.43"/>
<polygon fill="none" stroke="black" points="56,-290.43 56,-308.43 85,-308.43 85,-290.43 56,-290.43"/>
<text text-anchor="start" x="66.25" y="-294.98" font-family="Helvetica,sans-Serif" font-size="11.00">9 &gt;</text>
</a>
</g>
</g>
<!-- internal_transactions&#45;&gt;blocks -->
<g id="edge1" class="edge">
<title>internal_transactions:w&#45;&gt;blocks:e</title>
<path fill="none" stroke="black" d="M480.33,-555.69C325.94,-560.84 245.37,-639.11 126,-533.43 52.93,-468.73 184.09,-317.43 86.5,-317.43"/>
<polygon fill="black" stroke="black" points="487.67,-555.57 495.73,-559.03 492,-555.49 495.33,-555.44 495.33,-555.44 495.33,-555.44 492,-555.49 495.61,-551.83 487.67,-555.57"/>
<ellipse fill="none" stroke="black" cx="482.75" cy="-555.65" rx="3.2" ry="3.2"/>
</g>
<!-- transactions -->
<g id="node3" class="node">
<title>transactions</title>
<g id="a_node3"><a xlink:href="../../tables/transactions.html" xlink:title="transactions" target="_top">
<polygon fill="#ffffff" stroke="none" points="134,-116.43 134,-504.43 355,-504.43 355,-116.43 134,-116.43"/>
<polygon fill="#f5f5f5" stroke="none" points="134,-482.43 134,-504.43 355,-504.43 355,-482.43 134,-482.43"/>
<polygon fill="none" stroke="black" points="134,-482.43 134,-504.43 355,-504.43 355,-482.43 134,-482.43"/>
<text text-anchor="start" x="139" y="-489.98" font-family="Helvetica,sans-Serif" font-weight="bold" font-size="11.00">transactions</text>
<text text-anchor="start" x="320.75" y="-488.98" font-family="Helvetica,sans-Serif" font-size="11.00">[table]</text>
<polygon fill="#ffffff" stroke="none" points="134,-460.43 134,-482.43 355,-482.43 355,-460.43 134,-460.43"/>
<polygon fill="none" stroke="black" points="134,-460.43 134,-482.43 355,-482.43 355,-460.43 134,-460.43"/>
<text text-anchor="start" x="154" y="-466.98" font-family="Helvetica,sans-Serif" font-size="11.00">error</text>
<polygon fill="none" stroke="black" points="134,-438.43 134,-460.43 355,-460.43 355,-438.43 134,-438.43"/>
<image xlink:href="../../images/primaryKeys.png" width="11px" height="12px" preserveAspectRatio="xMinYMin meet" x="139" y="-455.426"/>
<text text-anchor="start" x="154" y="-444.98" font-family="Helvetica,sans-Serif" font-size="11.00">hash</text>
<polygon fill="#ffffff" stroke="none" points="134,-416.43 134,-438.43 355,-438.43 355,-416.43 134,-416.43"/>
<polygon fill="none" stroke="black" points="134,-416.43 134,-438.43 355,-438.43 355,-416.43 134,-416.43"/>
<image xlink:href="../../images/foreignKeys.png" width="11px" height="12px" preserveAspectRatio="xMinYMin meet" x="139" y="-433.426"/>
<text text-anchor="start" x="154" y="-422.98" font-family="Helvetica,sans-Serif" font-size="11.00">index</text>
<polygon fill="#ffffff" stroke="none" points="134,-394.43 134,-416.43 355,-416.43 355,-394.43 134,-394.43"/>
<polygon fill="none" stroke="black" points="134,-394.43 134,-416.43 355,-416.43 355,-394.43 134,-394.43"/>
<text text-anchor="start" x="154" y="-400.98" font-family="Helvetica,sans-Serif" font-size="11.00">nonce</text>
<polygon fill="#ffffff" stroke="none" points="134,-372.43 134,-394.43 355,-394.43 355,-372.43 134,-372.43"/>
<polygon fill="none" stroke="black" points="134,-372.43 134,-394.43 355,-394.43 355,-372.43 134,-372.43"/>
<text text-anchor="start" x="154" y="-378.98" font-family="Helvetica,sans-Serif" font-size="11.00">status</text>
<polygon fill="#ffffff" stroke="none" points="134,-350.43 134,-372.43 355,-372.43 355,-350.43 134,-350.43"/>
<polygon fill="none" stroke="black" points="134,-350.43 134,-372.43 355,-372.43 355,-350.43 134,-350.43"/>
<text text-anchor="start" x="154" y="-356.98" font-family="Helvetica,sans-Serif" font-size="11.00">inserted_at</text>
<polygon fill="#ffffff" stroke="none" points="134,-328.43 134,-350.43 355,-350.43 355,-328.43 134,-328.43"/>
<polygon fill="none" stroke="black" points="134,-328.43 134,-350.43 355,-350.43 355,-328.43 134,-328.43"/>
<text text-anchor="start" x="154" y="-334.98" font-family="Helvetica,sans-Serif" font-size="11.00">updated_at</text>
<polygon fill="#ffffff" stroke="none" points="134,-306.43 134,-328.43 355,-328.43 355,-306.43 134,-306.43"/>
<polygon fill="none" stroke="black" points="134,-306.43 134,-328.43 355,-328.43 355,-306.43 134,-306.43"/>
<image xlink:href="../../images/foreignKeys.png" width="11px" height="12px" preserveAspectRatio="xMinYMin meet" x="139" y="-323.426"/>
<text text-anchor="start" x="154" y="-312.98" font-family="Helvetica,sans-Serif" font-size="11.00">block_hash</text>
<polygon fill="#ffffff" stroke="none" points="134,-284.43 134,-306.43 355,-306.43 355,-284.43 134,-284.43"/>
<polygon fill="none" stroke="black" points="134,-284.43 134,-306.43 355,-306.43 355,-284.43 134,-284.43"/>
<text text-anchor="start" x="154" y="-290.98" font-family="Helvetica,sans-Serif" font-size="11.00">block_number</text>
<polygon fill="#ffffff" stroke="none" points="134,-262.43 134,-284.43 355,-284.43 355,-262.43 134,-262.43"/>
<polygon fill="none" stroke="black" points="134,-262.43 134,-284.43 355,-284.43 355,-262.43 134,-262.43"/>
<text text-anchor="start" x="154" y="-268.98" font-family="Helvetica,sans-Serif" font-size="11.00">from_address_hash</text>
<polygon fill="#ffffff" stroke="none" points="134,-240.43 134,-262.43 355,-262.43 355,-240.43 134,-240.43"/>
<polygon fill="none" stroke="black" points="134,-240.43 134,-262.43 355,-262.43 355,-240.43 134,-240.43"/>
<text text-anchor="start" x="154" y="-246.98" font-family="Helvetica,sans-Serif" font-size="11.00">to_address_hash</text>
<polygon fill="#ffffff" stroke="none" points="134,-218.43 134,-240.43 355,-240.43 355,-218.43 134,-218.43"/>
<polygon fill="none" stroke="black" points="134,-218.43 134,-240.43 355,-240.43 355,-218.43 134,-218.43"/>
<text text-anchor="start" x="154" y="-224.98" font-family="Helvetica,sans-Serif" font-size="11.00">created_contract_address_hash</text>
<polygon fill="#ffffff" stroke="none" points="134,-196.43 134,-218.43 355,-218.43 355,-196.43 134,-196.43"/>
<polygon fill="none" stroke="black" points="134,-196.43 134,-218.43 355,-218.43 355,-196.43 134,-196.43"/>
<text text-anchor="start" x="154" y="-202.98" font-family="Helvetica,sans-Serif" font-size="11.00">created_contract_code_indexed_at</text>
<polygon fill="#ffffff" stroke="none" points="134,-174.43 134,-196.43 355,-196.43 355,-174.43 134,-174.43"/>
<polygon fill="none" stroke="black" points="134,-174.43 134,-196.43 355,-196.43 355,-174.43 134,-174.43"/>
<text text-anchor="start" x="154" y="-180.98" font-family="Helvetica,sans-Serif" font-size="11.00">block_timestamp</text>
<polygon fill="#ffffff" stroke="none" points="134,-152.43 134,-174.43 355,-174.43 355,-152.43 134,-152.43"/>
<polygon fill="none" stroke="black" points="134,-152.43 134,-174.43 355,-174.43 355,-152.43 134,-152.43"/>
<text text-anchor="start" x="154" y="-158.98" font-family="Helvetica,sans-Serif" font-size="11.00">block_consensus</text>
<polygon fill="none" stroke="black" points="134,-134.43 134,-152.43 355,-152.43 355,-134.43 134,-134.43"/>
<text text-anchor="start" x="137" y="-138.98" font-family="Helvetica,sans-Serif" font-size="11.00">...</text>
<polygon fill="#ffffff" stroke="none" points="134,-116.43 134,-134.43 238,-134.43 238,-116.43 134,-116.43"/>
<polygon fill="none" stroke="black" points="134,-116.43 134,-134.43 238,-134.43 238,-116.43 134,-116.43"/>
<text text-anchor="start" x="137" y="-120.98" font-family="Helvetica,sans-Serif" font-size="11.00">&lt; 1</text>
<polygon fill="#ffffff" stroke="none" points="238,-116.43 238,-134.43 292,-134.43 292,-116.43 238,-116.43"/>
<polygon fill="none" stroke="black" points="238,-116.43 238,-134.43 292,-134.43 292,-116.43 238,-116.43"/>
<text text-anchor="start" x="283" y="-120.98" font-family="Helvetica,sans-Serif" font-size="11.00"> &#160;</text>
<polygon fill="#ffffff" stroke="none" points="292,-116.43 292,-134.43 355,-134.43 355,-116.43 292,-116.43"/>
<polygon fill="none" stroke="black" points="292,-116.43 292,-134.43 355,-134.43 355,-116.43 292,-116.43"/>
<text text-anchor="start" x="336.25" y="-120.98" font-family="Helvetica,sans-Serif" font-size="11.00">5 &gt;</text>
</a>
</g>
</g>
<!-- internal_transactions&#45;&gt;transactions -->
<g id="edge2" class="edge">
<title>internal_transactions:w&#45;&gt;transactions:e</title>
<path fill="none" stroke="black" d="M480.53,-555.13C444.49,-553.6 427.93,-545.46 396,-518.43 369.03,-495.59 391.84,-449.43 356.5,-449.43"/>
<polygon fill="black" stroke="black" points="487.67,-555.27 495.6,-559.02 492,-555.35 495.33,-555.41 495.33,-555.41 495.33,-555.41 492,-555.35 495.73,-551.82 487.67,-555.27"/>
<ellipse fill="none" stroke="black" cx="482.75" cy="-555.18" rx="3.2" ry="3.2"/>
</g>
<!-- transactions&#45;&gt;blocks -->
<g id="edge10" class="edge">
<title>transactions:w&#45;&gt;blocks:e</title>
<path fill="none" stroke="black" d="M116.89,-317.43C107.36,-317.43 100.56,-317.43 86.5,-317.43"/>
<polygon fill="black" stroke="black" points="124.17,-317.43 132.17,-321.03 128.5,-317.43 131.83,-317.43 131.83,-317.43 131.83,-317.43 128.5,-317.43 132.17,-313.83 124.17,-317.43"/>
<ellipse fill="none" stroke="black" cx="119.25" cy="-317.43" rx="3.2" ry="3.2"/>
</g>
<!-- logs -->
<g id="node4" class="node">
<title>logs</title>
<g id="a_node4"><a xlink:href="../../tables/logs.html" xlink:title="logs" target="_top">
<polygon fill="#ffffff" stroke="none" points="545.5,-449.43 545.5,-507.43 608.5,-507.43 608.5,-449.43 545.5,-449.43"/>
<polygon fill="#f5f5f5" stroke="none" points="545.5,-485.43 545.5,-507.43 608.5,-507.43 608.5,-485.43 545.5,-485.43"/>
<polygon fill="none" stroke="black" points="545.5,-485.43 545.5,-507.43 608.5,-507.43 608.5,-485.43 545.5,-485.43"/>
<text text-anchor="start" x="549.25" y="-492.98" font-family="Helvetica,sans-Serif" font-weight="bold" font-size="11.00">logs</text>
<text text-anchor="start" x="574.5" y="-491.98" font-family="Helvetica,sans-Serif" font-size="11.00">[table]</text>
<polygon fill="none" stroke="black" points="545.5,-467.43 545.5,-485.43 608.5,-485.43 608.5,-467.43 545.5,-467.43"/>
<text text-anchor="start" x="548.5" y="-471.98" font-family="Helvetica,sans-Serif" font-size="11.00">...</text>
<polygon fill="#ffffff" stroke="none" points="545.5,-449.43 545.5,-467.43 575.5,-467.43 575.5,-449.43 545.5,-449.43"/>
<polygon fill="none" stroke="black" points="545.5,-449.43 545.5,-467.43 575.5,-467.43 575.5,-449.43 545.5,-449.43"/>
<text text-anchor="start" x="548.5" y="-453.98" font-family="Helvetica,sans-Serif" font-size="11.00">&lt; 2</text>
<polygon fill="#ffffff" stroke="none" points="575.5,-449.43 575.5,-467.43 591.5,-467.43 591.5,-449.43 575.5,-449.43"/>
<polygon fill="none" stroke="black" points="575.5,-449.43 575.5,-467.43 591.5,-467.43 591.5,-449.43 575.5,-449.43"/>
<text text-anchor="start" x="582.5" y="-453.98" font-family="Helvetica,sans-Serif" font-size="11.00"> &#160;</text>
<polygon fill="#ffffff" stroke="none" points="591.5,-449.43 591.5,-467.43 608.5,-467.43 608.5,-449.43 591.5,-449.43"/>
<polygon fill="none" stroke="black" points="591.5,-449.43 591.5,-467.43 608.5,-467.43 608.5,-449.43 591.5,-449.43"/>
<text text-anchor="start" x="599.5" y="-453.98" font-family="Helvetica,sans-Serif" font-size="11.00"> &#160;</text>
</a>
</g>
</g>
<!-- logs&#45;&gt;blocks -->
<g id="edge3" class="edge">
<title>logs:w&#45;&gt;blocks:e</title>
<path fill="none" stroke="black" d="M528.43,-476.81C459.18,-480.35 439.39,-507.29 363,-515.43 310.63,-521 166.72,-548.83 126,-515.43 56.62,-458.52 176.23,-317.43 86.5,-317.43"/>
<polygon fill="black" stroke="black" points="535.67,-476.63 543.75,-480.03 540,-476.53 543.33,-476.44 543.33,-476.44 543.33,-476.44 540,-476.53 543.58,-472.84 535.67,-476.63"/>
<ellipse fill="none" stroke="black" cx="530.75" cy="-476.75" rx="3.2" ry="3.2"/>
</g>
<!-- logs&#45;&gt;transactions -->
<g id="edge4" class="edge">
<title>logs:w&#45;&gt;transactions:e</title>
<path fill="none" stroke="black" d="M528.5,-476.1C457.07,-473.06 435.27,-449.43 356.5,-449.43"/>
<polygon fill="black" stroke="black" points="535.67,-476.25 543.59,-480.02 540,-476.34 543.33,-476.41 543.33,-476.41 543.33,-476.41 540,-476.34 543.74,-472.82 535.67,-476.25"/>
<ellipse fill="none" stroke="black" cx="530.75" cy="-476.15" rx="3.2" ry="3.2"/>
</g>
<!-- token_transfers -->
<g id="node5" class="node">
<title>token_transfers</title>
<g id="a_node5"><a xlink:href="../../tables/token_transfers.html" xlink:title="token_transfers" target="_top">
<polygon fill="#ffffff" stroke="none" points="512.5,-143.43 512.5,-201.43 641.5,-201.43 641.5,-143.43 512.5,-143.43"/>
<polygon fill="#f5f5f5" stroke="none" points="512.5,-179.43 512.5,-201.43 641.5,-201.43 641.5,-179.43 512.5,-179.43"/>
<polygon fill="none" stroke="black" points="512.5,-179.43 512.5,-201.43 641.5,-201.43 641.5,-179.43 512.5,-179.43"/>
<text text-anchor="start" x="517.5" y="-186.98" font-family="Helvetica,sans-Serif" font-weight="bold" font-size="11.00">token_transfers</text>
<text text-anchor="start" x="607.5" y="-185.98" font-family="Helvetica,sans-Serif" font-size="11.00">[table]</text>
<polygon fill="none" stroke="black" points="512.5,-161.43 512.5,-179.43 641.5,-179.43 641.5,-161.43 512.5,-161.43"/>
<text text-anchor="start" x="515.5" y="-165.98" font-family="Helvetica,sans-Serif" font-size="11.00">...</text>
<polygon fill="#ffffff" stroke="none" points="512.5,-143.43 512.5,-161.43 575.5,-161.43 575.5,-143.43 512.5,-143.43"/>
<polygon fill="none" stroke="black" points="512.5,-143.43 512.5,-161.43 575.5,-161.43 575.5,-143.43 512.5,-143.43"/>
<text text-anchor="start" x="515.5" y="-147.98" font-family="Helvetica,sans-Serif" font-size="11.00">&lt; 2</text>
<polygon fill="#ffffff" stroke="none" points="575.5,-143.43 575.5,-161.43 608.5,-161.43 608.5,-143.43 575.5,-143.43"/>
<polygon fill="none" stroke="black" points="575.5,-143.43 575.5,-161.43 608.5,-161.43 608.5,-143.43 575.5,-143.43"/>
<text text-anchor="start" x="599.5" y="-147.98" font-family="Helvetica,sans-Serif" font-size="11.00"> &#160;</text>
<polygon fill="#ffffff" stroke="none" points="608.5,-143.43 608.5,-161.43 641.5,-161.43 641.5,-143.43 608.5,-143.43"/>
<polygon fill="none" stroke="black" points="608.5,-143.43 608.5,-161.43 641.5,-161.43 641.5,-143.43 608.5,-143.43"/>
<text text-anchor="start" x="632.5" y="-147.98" font-family="Helvetica,sans-Serif" font-size="11.00"> &#160;</text>
</a>
</g>
</g>
<!-- token_transfers&#45;&gt;blocks -->
<g id="edge5" class="edge">
<title>token_transfers:w&#45;&gt;blocks:e</title>
<path fill="none" stroke="black" d="M495.34,-169.56C437.98,-162.91 427.69,-119.82 363,-106.43 311.43,-95.75 166.52,-72.79 126,-106.43 52.59,-167.37 181.91,-317.43 86.5,-317.43"/>
<polygon fill="black" stroke="black" points="502.68,-169.97 510.47,-174 507.01,-170.21 510.33,-170.39 510.33,-170.39 510.33,-170.39 507.01,-170.21 510.86,-166.81 502.68,-169.97"/>
<ellipse fill="none" stroke="black" cx="497.77" cy="-169.69" rx="3.2" ry="3.2"/>
</g>
<!-- token_transfers&#45;&gt;transactions -->
<g id="edge6" class="edge">
<title>token_transfers:w&#45;&gt;transactions:e</title>
<path fill="none" stroke="black" d="M495.22,-170.64C450.22,-172.03 426.99,-180.96 396,-220.43 364.1,-261.04 408.14,-449.43 356.5,-449.43"/>
<polygon fill="black" stroke="black" points="502.67,-170.54 510.71,-174.03 507,-170.48 510.33,-170.44 510.33,-170.44 510.33,-170.44 507,-170.48 510.62,-166.83 502.67,-170.54"/>
<ellipse fill="none" stroke="black" cx="497.75" cy="-170.61" rx="3.2" ry="3.2"/>
</g>
<!-- transaction_actions -->
<g id="node6" class="node">
<title>transaction_actions</title>
<g id="a_node6"><a xlink:href="../../tables/transaction_actions.html" xlink:title="transaction_actions" target="_top">
<polygon fill="#ffffff" stroke="none" points="404,-230.43 404,-428.43 750,-428.43 750,-230.43 404,-230.43"/>
<polygon fill="#f5f5f5" stroke="none" points="406,-404.43 406,-426.43 748,-426.43 748,-404.43 406,-404.43"/>
<polygon fill="none" stroke="black" points="406,-404.43 406,-426.43 748,-426.43 748,-404.43 406,-404.43"/>
<text text-anchor="start" x="411" y="-411.98" font-family="Helvetica,sans-Serif" font-weight="bold" font-size="11.00">transaction_actions</text>
<text text-anchor="start" x="713.75" y="-410.98" font-family="Helvetica,sans-Serif" font-size="11.00">[table]</text>
<polygon fill="none" stroke="black" points="406,-382.43 406,-404.43 540,-404.43 540,-382.43 406,-382.43"/>
<image xlink:href="../../images/primaryKeys.png" width="11px" height="12px" preserveAspectRatio="xMinYMin meet" x="411" y="-399.426"/>
<text text-anchor="start" x="426" y="-388.98" font-family="Helvetica,sans-Serif" font-size="11.00">hash</text>
<polygon fill="none" stroke="black" points="540,-382.43 540,-404.43 748,-404.43 748,-382.43 540,-382.43"/>
<text text-anchor="start" x="543" y="-388.98" font-family="Helvetica,sans-Serif" font-size="11.00">bytea[2147483647]</text>
<polygon fill="#ffffff" stroke="none" points="406,-360.43 406,-382.43 540,-382.43 540,-360.43 406,-360.43"/>
<polygon fill="none" stroke="black" points="406,-360.43 406,-382.43 540,-382.43 540,-360.43 406,-360.43"/>
<text text-anchor="start" x="426" y="-366.98" font-family="Helvetica,sans-Serif" font-size="11.00">protocol</text>
<polygon fill="none" stroke="black" points="540,-360.43 540,-382.43 748,-382.43 748,-360.43 540,-360.43"/>
<text text-anchor="start" x="542.75" y="-366.98" font-family="Helvetica,sans-Serif" font-size="11.00">transaction_actions_protocol[2147483647]</text>
<polygon fill="none" stroke="black" points="406,-338.43 406,-360.43 540,-360.43 540,-338.43 406,-338.43"/>
<text text-anchor="start" x="426" y="-344.98" font-family="Helvetica,sans-Serif" font-size="11.00">data</text>
<polygon fill="none" stroke="black" points="540,-338.43 540,-360.43 748,-360.43 748,-338.43 540,-338.43"/>
<text text-anchor="start" x="543" y="-344.98" font-family="Helvetica,sans-Serif" font-size="11.00">jsonb[2147483647]</text>
<polygon fill="#ffffff" stroke="none" points="406,-316.43 406,-338.43 540,-338.43 540,-316.43 406,-316.43"/>
<polygon fill="none" stroke="black" points="406,-316.43 406,-338.43 540,-338.43 540,-316.43 406,-316.43"/>
<text text-anchor="start" x="426" y="-322.98" font-family="Helvetica,sans-Serif" font-size="11.00">type</text>
<polygon fill="none" stroke="black" points="540,-316.43 540,-338.43 748,-338.43 748,-316.43 540,-316.43"/>
<text text-anchor="start" x="543" y="-322.98" font-family="Helvetica,sans-Serif" font-size="11.00">transaction_actions_type[2147483647]</text>
<polygon fill="none" stroke="black" points="406,-294.43 406,-316.43 540,-316.43 540,-294.43 406,-294.43"/>
<image xlink:href="../../images/primaryKeys.png" width="11px" height="12px" preserveAspectRatio="xMinYMin meet" x="411" y="-311.426"/>
<text text-anchor="start" x="426" y="-300.98" font-family="Helvetica,sans-Serif" font-size="11.00">log_index</text>
<polygon fill="none" stroke="black" points="540,-294.43 540,-316.43 748,-316.43 748,-294.43 540,-294.43"/>
<text text-anchor="start" x="543" y="-300.98" font-family="Helvetica,sans-Serif" font-size="11.00">int4[10]</text>
<polygon fill="none" stroke="black" points="406,-272.43 406,-294.43 540,-294.43 540,-272.43 406,-272.43"/>
<text text-anchor="start" x="426" y="-278.98" font-family="Helvetica,sans-Serif" font-size="11.00">inserted_at</text>
<polygon fill="none" stroke="black" points="540,-272.43 540,-294.43 748,-294.43 748,-272.43 540,-272.43"/>
<text text-anchor="start" x="543" y="-278.98" font-family="Helvetica,sans-Serif" font-size="11.00">timestamp[29,6]</text>
<polygon fill="none" stroke="black" points="406,-250.43 406,-272.43 540,-272.43 540,-250.43 406,-250.43"/>
<text text-anchor="start" x="426" y="-256.98" font-family="Helvetica,sans-Serif" font-size="11.00">updated_at</text>
<polygon fill="none" stroke="black" points="540,-250.43 540,-272.43 748,-272.43 748,-250.43 540,-250.43"/>
<text text-anchor="start" x="543" y="-256.98" font-family="Helvetica,sans-Serif" font-size="11.00">timestamp[29,6]</text>
<polygon fill="#ffffff" stroke="none" points="406,-232.43 406,-250.43 477,-250.43 477,-232.43 406,-232.43"/>
<polygon fill="none" stroke="black" points="406,-232.43 406,-250.43 477,-250.43 477,-232.43 406,-232.43"/>
<text text-anchor="start" x="409" y="-236.98" font-family="Helvetica,sans-Serif" font-size="11.00">&lt; 1</text>
<polygon fill="#ffffff" stroke="none" points="477,-232.43 477,-250.43 540,-250.43 540,-232.43 477,-232.43"/>
<polygon fill="none" stroke="black" points="477,-232.43 477,-250.43 540,-250.43 540,-232.43 477,-232.43"/>
<text text-anchor="start" x="531" y="-236.98" font-family="Helvetica,sans-Serif" font-size="11.00"> &#160;</text>
<polygon fill="#ffffff" stroke="none" points="540,-232.43 540,-250.43 748,-250.43 748,-232.43 540,-232.43"/>
<polygon fill="none" stroke="black" points="540,-232.43 540,-250.43 748,-250.43 748,-232.43 540,-232.43"/>
<text text-anchor="start" x="729.25" y="-236.98" font-family="Helvetica,sans-Serif" font-size="11.00">0 &gt;</text>
<polygon fill="none" stroke="black" stroke-width="2" points="405,-231.43 405,-427.43 749,-427.43 749,-231.43 405,-231.43"/>
</a>
</g>
</g>
<!-- transaction_actions&#45;&gt;transactions -->
<g id="edge7" class="edge">
<title>transaction_actions:w&#45;&gt;transactions:e</title>
<path fill="none" stroke="black" d="M390.71,-399C376.93,-413.16 382.99,-449.43 356.5,-449.43"/>
<polygon fill="black" stroke="black" points="397.24,-396.46 406,-396.9 401.27,-394.88 404.38,-393.67 404.38,-393.67 404.38,-393.67 401.27,-394.88 403.38,-390.19 397.24,-396.46"/>
<ellipse fill="none" stroke="black" cx="392.65" cy="-398.24" rx="3.2" ry="3.2"/>
</g>
<!-- transaction_forks -->
<g id="node7" class="node">
<title>transaction_forks</title>
<g id="a_node7"><a xlink:href="../../tables/transaction_forks.html" xlink:title="transaction_forks" target="_top">
<polygon fill="#ffffff" stroke="none" points="507.5,-47.43 507.5,-105.43 646.5,-105.43 646.5,-47.43 507.5,-47.43"/>
<polygon fill="#f5f5f5" stroke="none" points="507.5,-83.43 507.5,-105.43 646.5,-105.43 646.5,-83.43 507.5,-83.43"/>
<polygon fill="none" stroke="black" points="507.5,-83.43 507.5,-105.43 646.5,-105.43 646.5,-83.43 507.5,-83.43"/>
<text text-anchor="start" x="512.5" y="-90.98" font-family="Helvetica,sans-Serif" font-weight="bold" font-size="11.00">transaction_forks</text>
<text text-anchor="start" x="612.5" y="-89.98" font-family="Helvetica,sans-Serif" font-size="11.00">[table]</text>
<polygon fill="none" stroke="black" points="507.5,-65.43 507.5,-83.43 646.5,-83.43 646.5,-65.43 507.5,-65.43"/>
<text text-anchor="start" x="510.5" y="-69.98" font-family="Helvetica,sans-Serif" font-size="11.00">...</text>
<polygon fill="#ffffff" stroke="none" points="507.5,-47.43 507.5,-65.43 575.5,-65.43 575.5,-47.43 507.5,-47.43"/>
<polygon fill="none" stroke="black" points="507.5,-47.43 507.5,-65.43 575.5,-65.43 575.5,-47.43 507.5,-47.43"/>
<text text-anchor="start" x="510.5" y="-51.98" font-family="Helvetica,sans-Serif" font-size="11.00">&lt; 2</text>
<polygon fill="#ffffff" stroke="none" points="575.5,-47.43 575.5,-65.43 610.5,-65.43 610.5,-47.43 575.5,-47.43"/>
<polygon fill="none" stroke="black" points="575.5,-47.43 575.5,-65.43 610.5,-65.43 610.5,-47.43 575.5,-47.43"/>
<text text-anchor="start" x="601.5" y="-51.98" font-family="Helvetica,sans-Serif" font-size="11.00"> &#160;</text>
<polygon fill="#ffffff" stroke="none" points="610.5,-47.43 610.5,-65.43 646.5,-65.43 646.5,-47.43 610.5,-47.43"/>
<polygon fill="none" stroke="black" points="610.5,-47.43 610.5,-65.43 646.5,-65.43 646.5,-47.43 610.5,-47.43"/>
<text text-anchor="start" x="637.5" y="-51.98" font-family="Helvetica,sans-Serif" font-size="11.00"> &#160;</text>
</a>
</g>
</g>
<!-- transaction_forks&#45;&gt;blocks -->
<g id="edge9" class="edge">
<title>transaction_forks:w&#45;&gt;blocks:e</title>
<path fill="none" stroke="black" d="M490.41,-74.14C331.78,-68.39 249.53,21.95 126,-85.43 86.53,-119.73 138.8,-317.43 86.5,-317.43"/>
<polygon fill="black" stroke="black" points="497.67,-74.27 505.6,-78.02 502,-74.35 505.33,-74.41 505.33,-74.41 505.33,-74.41 502,-74.35 505.73,-70.82 497.67,-74.27"/>
<ellipse fill="none" stroke="black" cx="492.75" cy="-74.19" rx="3.2" ry="3.2"/>
</g>
<!-- transaction_forks&#45;&gt;transactions -->
<g id="edge8" class="edge">
<title>transaction_forks:w&#45;&gt;transactions:e</title>
<path fill="none" stroke="black" d="M490.34,-74.84C445.83,-77.39 424.26,-92.24 396,-133.43 355.96,-191.78 427.27,-449.43 356.5,-449.43"/>
<polygon fill="black" stroke="black" points="497.67,-74.65 505.76,-78.03 502,-74.53 505.33,-74.44 505.33,-74.44 505.33,-74.44 502,-74.53 505.57,-70.84 497.67,-74.65"/>
<ellipse fill="none" stroke="black" cx="492.75" cy="-74.78" rx="3.2" ry="3.2"/>
</g>
</g>
</svg>
