<?xml version="1.0" encoding="UTF-8" standalone="no"?>
<!DOCTYPE svg PUBLIC "-//W3C//DTD SVG 1.1//EN"
 "http://www.w3.org/Graphics/SVG/1.1/DTD/svg11.dtd">
<!-- Generated by graphviz version 2.43.0 (0)
 -->
<!-- Title: twoDegreesRelationshipsDiagramImplied Pages: 1 -->
<svg width="1081pt" height="726pt"
 viewBox="0.00 0.00 1081.00 725.65" xmlns="http://www.w3.org/2000/svg" xmlns:xlink="http://www.w3.org/1999/xlink">
<g id="graph0" class="graph" transform="scale(1 1) rotate(0) translate(4 721.65)">
<title>twoDegreesRelationshipsDiagramImplied</title>
<polygon fill="#ffffff" stroke="transparent" points="-4,4 -4,-721.65 1077,-721.65 1077,4 -4,4"/>
<text text-anchor="middle" x="79.5" y="-7.2" font-family="Helvetica,sans-Serif" font-size="11.00">Generated by SchemaSpy</text>
<!-- internal_transactions -->
<g id="node1" class="node">
<title>internal_transactions</title>
<g id="a_node1"><a xlink:href="../../tables/internal_transactions.html" xlink:title="internal_transactions" target="_top">
<polygon fill="#ffffff" stroke="transparent" points="759.5,-651.94 759.5,-709.94 961.5,-709.94 961.5,-651.94 759.5,-651.94"/>
<polygon fill="#f5f5f5" stroke="transparent" points="759.5,-687.94 759.5,-709.94 961.5,-709.94 961.5,-687.94 759.5,-687.94"/>
<polygon fill="none" stroke="black" points="759.5,-687.94 759.5,-709.94 961.5,-709.94 961.5,-687.94 759.5,-687.94"/>
<text text-anchor="start" x="764.5" y="-697.14" font-family="Helvetica,sans-Serif" font-weight="bold" font-size="11.00">internal_transactions</text>
<text text-anchor="start" x="919.5" y="-696.14" font-family="Helvetica,sans-Serif" font-size="11.00">[table]</text>
<polygon fill="none" stroke="black" points="759.5,-669.94 759.5,-687.94 961.5,-687.94 961.5,-669.94 759.5,-669.94"/>
<text text-anchor="start" x="762.5" y="-676.14" font-family="Helvetica,sans-Serif" font-size="11.00">...</text>
<polygon fill="#ffffff" stroke="transparent" points="759.5,-651.94 759.5,-669.94 961.5,-669.94 961.5,-651.94 759.5,-651.94"/>
<polygon fill="none" stroke="black" points="759.5,-651.94 759.5,-669.94 961.5,-669.94 961.5,-651.94 759.5,-651.94"/>
<polygon fill="#ffffff" stroke="transparent" points="760.5,-652.94 760.5,-668.94 835.5,-668.94 835.5,-652.94 760.5,-652.94"/>
<text text-anchor="start" x="762.5" y="-658.14" font-family="Helvetica,sans-Serif" font-size="11.00">&lt; 4</text>
<polygon fill="#ffffff" stroke="transparent" points="835.5,-652.94 835.5,-668.94 898.5,-668.94 898.5,-652.94 835.5,-652.94"/>
<text text-anchor="start" x="863" y="-658.14" font-family="Helvetica,sans-Serif" font-size="11.00"> &#160;</text>
<polygon fill="#ffffff" stroke="transparent" points="898.5,-652.94 898.5,-668.94 960.5,-668.94 960.5,-652.94 898.5,-652.94"/>
<text text-anchor="start" x="950.5" y="-658.14" font-family="Helvetica,sans-Serif" font-size="11.00"> &#160;</text>
<polygon fill="black" stroke="black" points="835.5,-652.94 835.5,-668.94 835.5,-668.94 835.5,-652.94 835.5,-652.94"/>
<polygon fill="black" stroke="black" points="898.5,-652.94 898.5,-668.94 898.5,-668.94 898.5,-652.94 898.5,-652.94"/>
</a>
</g>
</g>
<!-- blocks -->
<g id="node2" class="node">
<title>blocks</title>
<g id="a_node2"><a xlink:href="../../tables/blocks.html" xlink:title="blocks" target="_top">
<polygon fill="#ffffff" stroke="transparent" points="8,-255.94 8,-313.94 101,-313.94 101,-255.94 8,-255.94"/>
<polygon fill="#f5f5f5" stroke="transparent" points="8.5,-291.94 8.5,-313.94 101.5,-313.94 101.5,-291.94 8.5,-291.94"/>
<polygon fill="none" stroke="black" points="8.5,-291.94 8.5,-313.94 101.5,-313.94 101.5,-291.94 8.5,-291.94"/>
<text text-anchor="start" x="13.5" y="-301.14" font-family="Helvetica,sans-Serif" font-weight="bold" font-size="11.00">blocks</text>
<text text-anchor="start" x="59.5" y="-300.14" font-family="Helvetica,sans-Serif" font-size="11.00">[table]</text>
<polygon fill="none" stroke="black" points="8.5,-273.94 8.5,-291.94 101.5,-291.94 101.5,-273.94 8.5,-273.94"/>
<text text-anchor="start" x="11.5" y="-280.14" font-family="Helvetica,sans-Serif" font-size="11.00">...</text>
<polygon fill="#ffffff" stroke="transparent" points="8.5,-255.94 8.5,-273.94 101.5,-273.94 101.5,-255.94 8.5,-255.94"/>
<polygon fill="none" stroke="black" points="8.5,-255.94 8.5,-273.94 101.5,-273.94 101.5,-255.94 8.5,-255.94"/>
<polygon fill="#ffffff" stroke="transparent" points="9.5,-256.94 9.5,-272.94 36.5,-272.94 36.5,-256.94 9.5,-256.94"/>
<text text-anchor="start" x="11.5" y="-262.14" font-family="Helvetica,sans-Serif" font-size="11.00"> &#160;</text>
<polygon fill="#ffffff" stroke="transparent" points="36.5,-256.94 36.5,-272.94 62.5,-272.94 62.5,-256.94 36.5,-256.94"/>
<text text-anchor="start" x="45.5" y="-262.14" font-family="Helvetica,sans-Serif" font-size="11.00"> &#160;</text>
<polygon fill="#ffffff" stroke="transparent" points="62.5,-256.94 62.5,-272.94 100.5,-272.94 100.5,-256.94 62.5,-256.94"/>
<text text-anchor="start" x="78.5" y="-262.14" font-family="Helvetica,sans-Serif" font-size="11.00">9 &gt;</text>
<polygon fill="black" stroke="black" points="36.5,-256.94 36.5,-272.94 36.5,-272.94 36.5,-256.94 36.5,-256.94"/>
<polygon fill="black" stroke="black" points="62.5,-256.94 62.5,-272.94 62.5,-272.94 62.5,-256.94 62.5,-256.94"/>
</a>
</g>
</g>
<!-- internal_transactions&#45;&gt;blocks -->
<g id="edge1" class="edge">
<title>internal_transactions:w&#45;&gt;blocks:e</title>
<path fill="none" stroke="black" d="M744.06,-679.05C477.09,-683.24 327.53,-800.77 142,-602.94 92.99,-550.67 174.15,-282.94 102.5,-282.94"/>
<polygon fill="black" stroke="black" points="750.5,-679 758.53,-682.54 754.5,-678.97 758.5,-678.94 758.5,-678.94 758.5,-678.94 754.5,-678.97 758.47,-675.34 750.5,-679 750.5,-679"/>
<ellipse fill="none" stroke="black" cx="747.3" cy="-679.03" rx="3.2" ry="3.2"/>
</g>
<!-- withdrawals -->
<g id="node3" class="node">
<title>withdrawals</title>
<g id="a_node3"><a xlink:href="../../tables/withdrawals.html" xlink:title="withdrawals" target="_top">
<polygon fill="#ffffff" stroke="transparent" points="150,-533.94 150,-591.94 286,-591.94 286,-533.94 150,-533.94"/>
<polygon fill="#f5f5f5" stroke="transparent" points="150,-569.94 150,-591.94 286,-591.94 286,-569.94 150,-569.94"/>
<polygon fill="none" stroke="black" points="150,-569.94 150,-591.94 286,-591.94 286,-569.94 150,-569.94"/>
<text text-anchor="start" x="155" y="-579.14" font-family="Helvetica,sans-Serif" font-weight="bold" font-size="11.00">withdrawals</text>
<text text-anchor="start" x="244" y="-578.14" font-family="Helvetica,sans-Serif" font-size="11.00">[table]</text>
<polygon fill="none" stroke="black" points="150,-551.94 150,-569.94 286,-569.94 286,-551.94 150,-551.94"/>
<text text-anchor="start" x="153" y="-558.14" font-family="Helvetica,sans-Serif" font-size="11.00">...</text>
<polygon fill="#ffffff" stroke="transparent" points="150,-533.94 150,-551.94 286,-551.94 286,-533.94 150,-533.94"/>
<polygon fill="none" stroke="black" points="150,-533.94 150,-551.94 286,-551.94 286,-533.94 150,-533.94"/>
<polygon fill="#ffffff" stroke="transparent" points="151,-534.94 151,-550.94 200,-550.94 200,-534.94 151,-534.94"/>
<text text-anchor="start" x="153" y="-540.14" font-family="Helvetica,sans-Serif" font-size="11.00">&lt; 1</text>
<polygon fill="#ffffff" stroke="transparent" points="200,-534.94 200,-550.94 237,-550.94 237,-534.94 200,-534.94"/>
<text text-anchor="start" x="214.5" y="-540.14" font-family="Helvetica,sans-Serif" font-size="11.00"> &#160;</text>
<polygon fill="#ffffff" stroke="transparent" points="237,-534.94 237,-550.94 285,-550.94 285,-534.94 237,-534.94"/>
<text text-anchor="start" x="263" y="-540.14" font-family="Helvetica,sans-Serif" font-size="11.00">5 &gt;</text>
<polygon fill="black" stroke="black" points="200,-534.94 200,-550.94 200,-550.94 200,-534.94 200,-534.94"/>
<polygon fill="black" stroke="black" points="237,-534.94 237,-550.94 237,-550.94 237,-534.94 237,-534.94"/>
</a>
</g>
</g>
<!-- internal_transactions&#45;&gt;withdrawals -->
<g id="edge2" class="edge">
<title>internal_transactions:w&#45;&gt;withdrawals:e</title>
<path fill="none" stroke="black" stroke-dasharray="5,2" d="M744.1,-678.02C663.49,-670.14 368.06,-613.38 327,-593.94 306.17,-584.08 310.05,-560.94 287,-560.94"/>
<polygon fill="black" stroke="black" points="750.52,-678.43 758.27,-682.53 754.51,-678.68 758.5,-678.94 758.5,-678.94 758.5,-678.94 754.51,-678.68 758.73,-675.34 750.52,-678.43 750.52,-678.43"/>
<ellipse fill="none" stroke="black" cx="747.32" cy="-678.23" rx="3.2" ry="3.2"/>
</g>
<!-- internal_transactions&#45;&gt;withdrawals -->
<g id="edge4" class="edge">
<title>internal_transactions:w&#45;&gt;withdrawals:e</title>
<path fill="none" stroke="black" stroke-dasharray="5,2" d="M744.09,-677.95C663.5,-669.44 368.64,-608.3 327,-589.94 306.91,-581.08 308.96,-560.94 287,-560.94"/>
<polygon fill="black" stroke="black" points="750.52,-678.39 758.25,-682.53 754.51,-678.66 758.5,-678.94 758.5,-678.94 758.5,-678.94 754.51,-678.66 758.75,-675.35 750.52,-678.39 750.52,-678.39"/>
<ellipse fill="none" stroke="black" cx="747.33" cy="-678.17" rx="3.2" ry="3.2"/>
</g>
<!-- transactions -->
<g id="node4" class="node">
<title>transactions</title>
<g id="a_node4"><a xlink:href="../../tables/transactions.html" xlink:title="transactions" target="_top">
<polygon fill="#ffffff" stroke="transparent" points="335,-194.94 335,-582.94 607,-582.94 607,-194.94 335,-194.94"/>
<polygon fill="#f5f5f5" stroke="transparent" points="335,-560.94 335,-582.94 607,-582.94 607,-560.94 335,-560.94"/>
<polygon fill="none" stroke="black" points="335,-560.94 335,-582.94 607,-582.94 607,-560.94 335,-560.94"/>
<text text-anchor="start" x="340" y="-570.14" font-family="Helvetica,sans-Serif" font-weight="bold" font-size="11.00">transactions</text>
<text text-anchor="start" x="565" y="-569.14" font-family="Helvetica,sans-Serif" font-size="11.00">[table]</text>
<polygon fill="#ffffff" stroke="transparent" points="335,-538.94 335,-560.94 607,-560.94 607,-538.94 335,-538.94"/>
<polygon fill="none" stroke="black" points="335,-538.94 335,-560.94 607,-560.94 607,-538.94 335,-538.94"/>
<text text-anchor="start" x="355" y="-547.14" font-family="Helvetica,sans-Serif" font-size="11.00">error</text>
<polygon fill="none" stroke="black" points="335,-516.94 335,-538.94 607,-538.94 607,-516.94 335,-516.94"/>
<image xlink:href="../../images/primaryKeys.png" width="11px" height="12px" preserveAspectRatio="xMinYMin meet" x="340" y="-533.937"/>
<text text-anchor="start" x="355" y="-525.14" font-family="Helvetica,sans-Serif" font-size="11.00">hash</text>
<polygon fill="#ffffff" stroke="transparent" points="335,-494.94 335,-516.94 607,-516.94 607,-494.94 335,-494.94"/>
<polygon fill="none" stroke="black" points="335,-494.94 335,-516.94 607,-516.94 607,-494.94 335,-494.94"/>
<image xlink:href="../../images/foreignKeys.png" width="11px" height="12px" preserveAspectRatio="xMinYMin meet" x="340" y="-511.937"/>
<text text-anchor="start" x="355" y="-503.14" font-family="Helvetica,sans-Serif" font-size="11.00">index</text>
<polygon fill="#ffffff" stroke="transparent" points="335,-472.94 335,-494.94 607,-494.94 607,-472.94 335,-472.94"/>
<polygon fill="none" stroke="black" points="335,-472.94 335,-494.94 607,-494.94 607,-472.94 335,-472.94"/>
<text text-anchor="start" x="355" y="-481.14" font-family="Helvetica,sans-Serif" font-size="11.00">nonce</text>
<polygon fill="#ffffff" stroke="transparent" points="335,-450.94 335,-472.94 607,-472.94 607,-450.94 335,-450.94"/>
<polygon fill="none" stroke="black" points="335,-450.94 335,-472.94 607,-472.94 607,-450.94 335,-450.94"/>
<text text-anchor="start" x="355" y="-459.14" font-family="Helvetica,sans-Serif" font-size="11.00">status</text>
<polygon fill="#ffffff" stroke="transparent" points="335,-428.94 335,-450.94 607,-450.94 607,-428.94 335,-428.94"/>
<polygon fill="none" stroke="black" points="335,-428.94 335,-450.94 607,-450.94 607,-428.94 335,-428.94"/>
<text text-anchor="start" x="355" y="-437.14" font-family="Helvetica,sans-Serif" font-size="11.00">inserted_at</text>
<polygon fill="#ffffff" stroke="transparent" points="335,-406.94 335,-428.94 607,-428.94 607,-406.94 335,-406.94"/>
<polygon fill="none" stroke="black" points="335,-406.94 335,-428.94 607,-428.94 607,-406.94 335,-406.94"/>
<text text-anchor="start" x="355" y="-415.14" font-family="Helvetica,sans-Serif" font-size="11.00">updated_at</text>
<polygon fill="#ffffff" stroke="transparent" points="335,-384.94 335,-406.94 607,-406.94 607,-384.94 335,-384.94"/>
<polygon fill="none" stroke="black" points="335,-384.94 335,-406.94 607,-406.94 607,-384.94 335,-384.94"/>
<image xlink:href="../../images/foreignKeys.png" width="11px" height="12px" preserveAspectRatio="xMinYMin meet" x="340" y="-401.937"/>
<text text-anchor="start" x="355" y="-393.14" font-family="Helvetica,sans-Serif" font-size="11.00">block_hash</text>
<polygon fill="#ffffff" stroke="transparent" points="335,-362.94 335,-384.94 607,-384.94 607,-362.94 335,-362.94"/>
<polygon fill="none" stroke="black" points="335,-362.94 335,-384.94 607,-384.94 607,-362.94 335,-362.94"/>
<text text-anchor="start" x="355" y="-371.14" font-family="Helvetica,sans-Serif" font-size="11.00">block_number</text>
<polygon fill="#ffffff" stroke="transparent" points="335,-340.94 335,-362.94 607,-362.94 607,-340.94 335,-340.94"/>
<polygon fill="none" stroke="black" points="335,-340.94 335,-362.94 607,-362.94 607,-340.94 335,-340.94"/>
<text text-anchor="start" x="355" y="-349.14" font-family="Helvetica,sans-Serif" font-size="11.00">from_address_hash</text>
<polygon fill="#ffffff" stroke="transparent" points="335,-318.94 335,-340.94 607,-340.94 607,-318.94 335,-318.94"/>
<polygon fill="none" stroke="black" points="335,-318.94 335,-340.94 607,-340.94 607,-318.94 335,-318.94"/>
<text text-anchor="start" x="355" y="-327.14" font-family="Helvetica,sans-Serif" font-size="11.00">to_address_hash</text>
<polygon fill="#ffffff" stroke="transparent" points="335,-296.94 335,-318.94 607,-318.94 607,-296.94 335,-296.94"/>
<polygon fill="none" stroke="black" points="335,-296.94 335,-318.94 607,-318.94 607,-296.94 335,-296.94"/>
<text text-anchor="start" x="355" y="-305.14" font-family="Helvetica,sans-Serif" font-size="11.00">created_contract_address_hash</text>
<polygon fill="#ffffff" stroke="transparent" points="335,-274.94 335,-296.94 607,-296.94 607,-274.94 335,-274.94"/>
<polygon fill="none" stroke="black" points="335,-274.94 335,-296.94 607,-296.94 607,-274.94 335,-274.94"/>
<text text-anchor="start" x="355" y="-283.14" font-family="Helvetica,sans-Serif" font-size="11.00">created_contract_code_indexed_at</text>
<polygon fill="#ffffff" stroke="transparent" points="335,-252.94 335,-274.94 607,-274.94 607,-252.94 335,-252.94"/>
<polygon fill="none" stroke="black" points="335,-252.94 335,-274.94 607,-274.94 607,-252.94 335,-252.94"/>
<text text-anchor="start" x="355" y="-261.14" font-family="Helvetica,sans-Serif" font-size="11.00">block_timestamp</text>
<polygon fill="#ffffff" stroke="transparent" points="335,-230.94 335,-252.94 607,-252.94 607,-230.94 335,-230.94"/>
<polygon fill="none" stroke="black" points="335,-230.94 335,-252.94 607,-252.94 607,-230.94 335,-230.94"/>
<text text-anchor="start" x="355" y="-239.14" font-family="Helvetica,sans-Serif" font-size="11.00">block_consensus</text>
<polygon fill="none" stroke="black" points="335,-212.94 335,-230.94 607,-230.94 607,-212.94 335,-212.94"/>
<text text-anchor="start" x="338" y="-219.14" font-family="Helvetica,sans-Serif" font-size="11.00">...</text>
<polygon fill="#ffffff" stroke="transparent" points="335,-194.94 335,-212.94 607,-212.94 607,-194.94 335,-194.94"/>
<polygon fill="none" stroke="black" points="335,-194.94 335,-212.94 607,-212.94 607,-194.94 335,-194.94"/>
<polygon fill="#ffffff" stroke="transparent" points="336,-195.94 336,-211.94 430,-211.94 430,-195.94 336,-195.94"/>
<text text-anchor="start" x="338" y="-201.14" font-family="Helvetica,sans-Serif" font-size="11.00">&lt; 2</text>
<polygon fill="#ffffff" stroke="transparent" points="430,-195.94 430,-211.94 512,-211.94 512,-195.94 430,-195.94"/>
<text text-anchor="start" x="467" y="-201.14" font-family="Helvetica,sans-Serif" font-size="11.00"> &#160;</text>
<polygon fill="#ffffff" stroke="transparent" points="512,-195.94 512,-211.94 606,-211.94 606,-195.94 512,-195.94"/>
<text text-anchor="start" x="584" y="-201.14" font-family="Helvetica,sans-Serif" font-size="11.00">7 &gt;</text>
<polygon fill="black" stroke="black" points="430,-195.94 430,-211.94 430,-211.94 430,-195.94 430,-195.94"/>
<polygon fill="black" stroke="black" points="512,-195.94 512,-211.94 512,-211.94 512,-195.94 512,-195.94"/>
</a>
</g>
</g>
<!-- internal_transactions&#45;&gt;transactions -->
<g id="edge3" class="edge">
<title>internal_transactions:w&#45;&gt;transactions:e</title>
<path fill="none" stroke="black" d="M743.87,-678.88C702.21,-678.45 681.21,-674.67 648,-641.94 609.76,-604.24 661.7,-527.94 608,-527.94"/>
<polygon fill="black" stroke="black" points="750.5,-678.91 758.49,-682.54 754.5,-678.92 758.5,-678.94 758.5,-678.94 758.5,-678.94 754.5,-678.92 758.51,-675.34 750.5,-678.91 750.5,-678.91"/>
<ellipse fill="none" stroke="black" cx="747.3" cy="-678.9" rx="3.2" ry="3.2"/>
</g>
<!-- withdrawals&#45;&gt;blocks -->
<g id="edge16" class="edge">
<title>withdrawals:w&#45;&gt;blocks:e</title>
<path fill="none" stroke="black" d="M135.81,-555.13C98.86,-515.21 159.75,-282.94 102.5,-282.94"/>
<polygon fill="black" stroke="black" points="141.68,-557.71 147.55,-564.23 145.34,-559.33 149,-560.94 149,-560.94 149,-560.94 145.34,-559.33 150.45,-557.64 141.68,-557.71 141.68,-557.71"/>
<ellipse fill="none" stroke="black" cx="138.75" cy="-556.43" rx="3.2" ry="3.2"/>
</g>
<!-- transactions&#45;&gt;blocks -->
<g id="edge14" class="edge">
<title>transactions:w&#45;&gt;blocks:e</title>
<path fill="none" stroke="black" d="M319.54,-395.3C219.07,-386.22 211.96,-282.94 102.5,-282.94"/>
<polygon fill="black" stroke="black" points="326.01,-395.59 333.84,-399.53 330,-395.76 334,-395.94 334,-395.94 334,-395.94 330,-395.76 334.16,-392.34 326.01,-395.59 326.01,-395.59"/>
<ellipse fill="none" stroke="black" cx="322.81" cy="-395.45" rx="3.2" ry="3.2"/>
</g>
<!-- transactions&#45;&gt;withdrawals -->
<g id="edge15" class="edge">
<title>transactions:w&#45;&gt;withdrawals:e</title>
<path fill="none" stroke="black" stroke-dasharray="5,2" d="M320.48,-511.01C306.6,-524.63 313.13,-560.94 287,-560.94"/>
<polygon fill="black" stroke="black" points="326.51,-508.75 335.27,-509.31 330.26,-507.34 334,-505.94 334,-505.94 334,-505.94 330.26,-507.34 332.73,-502.57 326.51,-508.75 326.51,-508.75"/>
<ellipse fill="none" stroke="black" cx="323.51" cy="-509.87" rx="3.2" ry="3.2"/>
</g>
<!-- logs -->
<g id="node5" class="node">
<title>logs</title>
<g id="a_node5"><a xlink:href="../../tables/logs.html" xlink:title="logs" target="_top">
<polygon fill="#ffffff" stroke="transparent" points="822,-195.94 822,-253.94 899,-253.94 899,-195.94 822,-195.94"/>
<polygon fill="#f5f5f5" stroke="transparent" points="822.5,-231.94 822.5,-253.94 899.5,-253.94 899.5,-231.94 822.5,-231.94"/>
<polygon fill="none" stroke="black" points="822.5,-231.94 822.5,-253.94 899.5,-253.94 899.5,-231.94 822.5,-231.94"/>
<text text-anchor="start" x="827.5" y="-241.14" font-family="Helvetica,sans-Serif" font-weight="bold" font-size="11.00">logs</text>
<text text-anchor="start" x="857.5" y="-240.14" font-family="Helvetica,sans-Serif" font-size="11.00">[table]</text>
<polygon fill="none" stroke="black" points="822.5,-213.94 822.5,-231.94 899.5,-231.94 899.5,-213.94 822.5,-213.94"/>
<text text-anchor="start" x="825.5" y="-220.14" font-family="Helvetica,sans-Serif" font-size="11.00">...</text>
<polygon fill="#ffffff" stroke="transparent" points="822.5,-195.94 822.5,-213.94 899.5,-213.94 899.5,-195.94 822.5,-195.94"/>
<polygon fill="none" stroke="black" points="822.5,-195.94 822.5,-213.94 899.5,-213.94 899.5,-195.94 822.5,-195.94"/>
<polygon fill="#ffffff" stroke="transparent" points="823.5,-196.94 823.5,-212.94 856.5,-212.94 856.5,-196.94 823.5,-196.94"/>
<text text-anchor="start" x="825.5" y="-202.14" font-family="Helvetica,sans-Serif" font-size="11.00">&lt; 2</text>
<polygon fill="#ffffff" stroke="transparent" points="856.5,-196.94 856.5,-212.94 877.5,-212.94 877.5,-196.94 856.5,-196.94"/>
<text text-anchor="start" x="863" y="-202.14" font-family="Helvetica,sans-Serif" font-size="11.00"> &#160;</text>
<polygon fill="#ffffff" stroke="transparent" points="877.5,-196.94 877.5,-212.94 898.5,-212.94 898.5,-196.94 877.5,-196.94"/>
<text text-anchor="start" x="888.5" y="-202.14" font-family="Helvetica,sans-Serif" font-size="11.00"> &#160;</text>
<polygon fill="black" stroke="black" points="856.5,-196.94 856.5,-212.94 856.5,-212.94 856.5,-196.94 856.5,-196.94"/>
<polygon fill="black" stroke="black" points="877.5,-196.94 877.5,-212.94 877.5,-212.94 877.5,-196.94 877.5,-196.94"/>
</a>
</g>
</g>
<!-- logs&#45;&gt;blocks -->
<g id="edge5" class="edge">
<title>logs:w&#45;&gt;blocks:e</title>
<path fill="none" stroke="black" d="M807.07,-222.69C725.8,-219.83 702.94,-192.96 615,-184.94 487.53,-173.31 452.3,-158.78 327,-184.94 220.43,-207.18 211.37,-282.94 102.5,-282.94"/>
<polygon fill="black" stroke="black" points="813.5,-222.8 821.44,-226.54 817.5,-222.87 821.5,-222.94 821.5,-222.94 821.5,-222.94 817.5,-222.87 821.56,-219.34 813.5,-222.8 813.5,-222.8"/>
<ellipse fill="none" stroke="black" cx="810.3" cy="-222.74" rx="3.2" ry="3.2"/>
</g>
<!-- logs&#45;&gt;transactions -->
<g id="edge6" class="edge">
<title>logs:w&#45;&gt;transactions:e</title>
<path fill="none" stroke="black" d="M807.07,-222.77C737.04,-221.17 698.27,-210.12 648,-264.94 608.05,-308.51 667.12,-527.94 608,-527.94"/>
<polygon fill="black" stroke="black" points="813.5,-222.84 821.46,-226.54 817.5,-222.89 821.5,-222.94 821.5,-222.94 821.5,-222.94 817.5,-222.89 821.54,-219.34 813.5,-222.84 813.5,-222.84"/>
<ellipse fill="none" stroke="black" cx="810.3" cy="-222.8" rx="3.2" ry="3.2"/>
</g>
<!-- pending_transaction_operations -->
<g id="node6" class="node">
<title>pending_transaction_operations</title>
<g id="a_node6"><a xlink:href="../../tables/pending_transaction_operations.html" xlink:title="pending_transaction_operations" target="_top">
<polygon fill="#ffffff" stroke="transparent" points="719.5,-572.94 719.5,-630.94 1001.5,-630.94 1001.5,-572.94 719.5,-572.94"/>
<polygon fill="#f5f5f5" stroke="transparent" points="719.5,-608.94 719.5,-630.94 1001.5,-630.94 1001.5,-608.94 719.5,-608.94"/>
<polygon fill="none" stroke="black" points="719.5,-608.94 719.5,-630.94 1001.5,-630.94 1001.5,-608.94 719.5,-608.94"/>
<text text-anchor="start" x="724.5" y="-618.14" font-family="Helvetica,sans-Serif" font-weight="bold" font-size="11.00">pending_transaction_operations</text>
<text text-anchor="start" x="959.5" y="-617.14" font-family="Helvetica,sans-Serif" font-size="11.00">[table]</text>
<polygon fill="none" stroke="black" points="719.5,-590.94 719.5,-608.94 1001.5,-608.94 1001.5,-590.94 719.5,-590.94"/>
<text text-anchor="start" x="722.5" y="-597.14" font-family="Helvetica,sans-Serif" font-size="11.00">...</text>
<polygon fill="#ffffff" stroke="transparent" points="719.5,-572.94 719.5,-590.94 1001.5,-590.94 1001.5,-572.94 719.5,-572.94"/>
<polygon fill="none" stroke="black" points="719.5,-572.94 719.5,-590.94 1001.5,-590.94 1001.5,-572.94 719.5,-572.94"/>
<polygon fill="#ffffff" stroke="transparent" points="720.5,-573.94 720.5,-589.94 822.5,-589.94 822.5,-573.94 720.5,-573.94"/>
<text text-anchor="start" x="722.5" y="-579.14" font-family="Helvetica,sans-Serif" font-size="11.00">&lt; 1</text>
<polygon fill="#ffffff" stroke="transparent" points="822.5,-573.94 822.5,-589.94 911.5,-589.94 911.5,-573.94 822.5,-573.94"/>
<text text-anchor="start" x="863" y="-579.14" font-family="Helvetica,sans-Serif" font-size="11.00"> &#160;</text>
<polygon fill="#ffffff" stroke="transparent" points="911.5,-573.94 911.5,-589.94 1000.5,-589.94 1000.5,-573.94 911.5,-573.94"/>
<text text-anchor="start" x="990.5" y="-579.14" font-family="Helvetica,sans-Serif" font-size="11.00"> &#160;</text>
<polygon fill="black" stroke="black" points="822.5,-573.94 822.5,-589.94 822.5,-589.94 822.5,-573.94 822.5,-573.94"/>
<polygon fill="black" stroke="black" points="911.5,-573.94 911.5,-589.94 911.5,-589.94 911.5,-573.94 911.5,-573.94"/>
</a>
</g>
</g>
<!-- pending_transaction_operations&#45;&gt;transactions -->
<g id="edge7" class="edge">
<title>pending_transaction_operations:w&#45;&gt;transactions:e</title>
<path fill="none" stroke="black" d="M707.88,-599.35C681.54,-596.18 673.99,-580.76 648,-562.94 628.52,-549.58 631.62,-527.94 608,-527.94"/>
<polygon fill="black" stroke="black" points="717.92,-595.9 717.48,-603.89 715.88,-603.8 716.33,-595.81 717.92,-595.9"/>
<polyline fill="none" stroke="black" points="718.5,-599.94 714.51,-599.71 "/>
<ellipse fill="none" stroke="black" cx="711.31" cy="-599.54" rx="3.2" ry="3.2"/>
</g>
<!-- signed_authorizations -->
<g id="node7" class="node">
<title>signed_authorizations</title>
<g id="a_node7"><a xlink:href="../../tables/signed_authorizations.html" xlink:title="signed_authorizations" target="_top">
<polygon fill="#ffffff" stroke="transparent" points="756.5,-493.94 756.5,-551.94 964.5,-551.94 964.5,-493.94 756.5,-493.94"/>
<polygon fill="#f5f5f5" stroke="transparent" points="756.5,-529.94 756.5,-551.94 964.5,-551.94 964.5,-529.94 756.5,-529.94"/>
<polygon fill="none" stroke="black" points="756.5,-529.94 756.5,-551.94 964.5,-551.94 964.5,-529.94 756.5,-529.94"/>
<text text-anchor="start" x="761.5" y="-539.14" font-family="Helvetica,sans-Serif" font-weight="bold" font-size="11.00">signed_authorizations</text>
<text text-anchor="start" x="922.5" y="-538.14" font-family="Helvetica,sans-Serif" font-size="11.00">[table]</text>
<polygon fill="none" stroke="black" points="756.5,-511.94 756.5,-529.94 964.5,-529.94 964.5,-511.94 756.5,-511.94"/>
<text text-anchor="start" x="759.5" y="-518.14" font-family="Helvetica,sans-Serif" font-size="11.00">...</text>
<polygon fill="#ffffff" stroke="transparent" points="756.5,-493.94 756.5,-511.94 964.5,-511.94 964.5,-493.94 756.5,-493.94"/>
<polygon fill="none" stroke="black" points="756.5,-493.94 756.5,-511.94 964.5,-511.94 964.5,-493.94 756.5,-493.94"/>
<polygon fill="#ffffff" stroke="transparent" points="757.5,-494.94 757.5,-510.94 834.5,-510.94 834.5,-494.94 757.5,-494.94"/>
<text text-anchor="start" x="759.5" y="-500.14" font-family="Helvetica,sans-Serif" font-size="11.00">&lt; 1</text>
<polygon fill="#ffffff" stroke="transparent" points="834.5,-494.94 834.5,-510.94 899.5,-510.94 899.5,-494.94 834.5,-494.94"/>
<text text-anchor="start" x="863" y="-500.14" font-family="Helvetica,sans-Serif" font-size="11.00"> &#160;</text>
<polygon fill="#ffffff" stroke="transparent" points="899.5,-494.94 899.5,-510.94 963.5,-510.94 963.5,-494.94 899.5,-494.94"/>
<text text-anchor="start" x="953.5" y="-500.14" font-family="Helvetica,sans-Serif" font-size="11.00"> &#160;</text>
<polygon fill="black" stroke="black" points="834.5,-494.94 834.5,-510.94 834.5,-510.94 834.5,-494.94 834.5,-494.94"/>
<polygon fill="black" stroke="black" points="899.5,-494.94 899.5,-510.94 899.5,-510.94 899.5,-494.94 899.5,-494.94"/>
</a>
</g>
</g>
<!-- signed_authorizations&#45;&gt;transactions -->
<g id="edge8" class="edge">
<title>signed_authorizations:w&#45;&gt;transactions:e</title>
<path fill="none" stroke="black" d="M740.98,-521.06C687.03,-521.99 668.5,-527.94 608,-527.94"/>
<polygon fill="black" stroke="black" points="747.5,-521 755.53,-524.54 751.5,-520.97 755.5,-520.94 755.5,-520.94 755.5,-520.94 751.5,-520.97 755.47,-517.34 747.5,-521 747.5,-521"/>
<ellipse fill="none" stroke="black" cx="744.3" cy="-521.03" rx="3.2" ry="3.2"/>
</g>
<!-- token_transfers -->
<g id="node8" class="node">
<title>token_transfers</title>
<g id="a_node8"><a xlink:href="../../tables/token_transfers.html" xlink:title="token_transfers" target="_top">
<polygon fill="#ffffff" stroke="transparent" points="779.5,-116.94 779.5,-174.94 941.5,-174.94 941.5,-116.94 779.5,-116.94"/>
<polygon fill="#f5f5f5" stroke="transparent" points="779.5,-152.94 779.5,-174.94 941.5,-174.94 941.5,-152.94 779.5,-152.94"/>
<polygon fill="none" stroke="black" points="779.5,-152.94 779.5,-174.94 941.5,-174.94 941.5,-152.94 779.5,-152.94"/>
<text text-anchor="start" x="784.5" y="-162.14" font-family="Helvetica,sans-Serif" font-weight="bold" font-size="11.00">token_transfers</text>
<text text-anchor="start" x="899.5" y="-161.14" font-family="Helvetica,sans-Serif" font-size="11.00">[table]</text>
<polygon fill="none" stroke="black" points="779.5,-134.94 779.5,-152.94 941.5,-152.94 941.5,-134.94 779.5,-134.94"/>
<text text-anchor="start" x="782.5" y="-141.14" font-family="Helvetica,sans-Serif" font-size="11.00">...</text>
<polygon fill="#ffffff" stroke="transparent" points="779.5,-116.94 779.5,-134.94 941.5,-134.94 941.5,-116.94 779.5,-116.94"/>
<polygon fill="none" stroke="black" points="779.5,-116.94 779.5,-134.94 941.5,-134.94 941.5,-116.94 779.5,-116.94"/>
<polygon fill="#ffffff" stroke="transparent" points="780.5,-117.94 780.5,-133.94 842.5,-133.94 842.5,-117.94 780.5,-117.94"/>
<text text-anchor="start" x="782.5" y="-123.14" font-family="Helvetica,sans-Serif" font-size="11.00">&lt; 2</text>
<polygon fill="#ffffff" stroke="transparent" points="842.5,-117.94 842.5,-133.94 891.5,-133.94 891.5,-117.94 842.5,-117.94"/>
<text text-anchor="start" x="863" y="-123.14" font-family="Helvetica,sans-Serif" font-size="11.00"> &#160;</text>
<polygon fill="#ffffff" stroke="transparent" points="891.5,-117.94 891.5,-133.94 940.5,-133.94 940.5,-117.94 891.5,-117.94"/>
<text text-anchor="start" x="930.5" y="-123.14" font-family="Helvetica,sans-Serif" font-size="11.00"> &#160;</text>
<polygon fill="black" stroke="black" points="842.5,-117.94 842.5,-133.94 842.5,-133.94 842.5,-117.94 842.5,-117.94"/>
<polygon fill="black" stroke="black" points="891.5,-117.94 891.5,-133.94 891.5,-133.94 891.5,-117.94 891.5,-117.94"/>
</a>
</g>
</g>
<!-- token_transfers&#45;&gt;blocks -->
<g id="edge9" class="edge">
<title>token_transfers:w&#45;&gt;blocks:e</title>
<path fill="none" stroke="black" d="M764.06,-143.82C612.36,-141.58 251.51,-108.18 142,-190.94 106.5,-217.76 147,-282.94 102.5,-282.94"/>
<polygon fill="black" stroke="black" points="770.5,-143.87 778.47,-147.54 774.5,-143.91 778.5,-143.94 778.5,-143.94 778.5,-143.94 774.5,-143.91 778.53,-140.34 770.5,-143.87 770.5,-143.87"/>
<ellipse fill="none" stroke="black" cx="767.3" cy="-143.85" rx="3.2" ry="3.2"/>
</g>
<!-- token_transfers&#45;&gt;transactions -->
<g id="edge10" class="edge">
<title>token_transfers:w&#45;&gt;transactions:e</title>
<path fill="none" stroke="black" d="M764.09,-143.87C712.45,-143.46 683.51,-142.73 648,-185.94 599.42,-245.05 684.52,-527.94 608,-527.94"/>
<polygon fill="black" stroke="black" points="770.5,-143.9 778.48,-147.54 774.5,-143.92 778.5,-143.94 778.5,-143.94 778.5,-143.94 774.5,-143.92 778.52,-140.34 770.5,-143.9 770.5,-143.9"/>
<ellipse fill="none" stroke="black" cx="767.3" cy="-143.88" rx="3.2" ry="3.2"/>
</g>
<!-- transaction_actions -->
<g id="node9" class="node">
<title>transaction_actions</title>
<g id="a_node9"><a xlink:href="../../tables/transaction_actions.html" xlink:title="transaction_actions" target="_top">
<polygon fill="#ffffff" stroke="transparent" points="656,-274.94 656,-472.94 1065,-472.94 1065,-274.94 656,-274.94"/>
<polygon fill="#f5f5f5" stroke="transparent" points="658.5,-448.94 658.5,-470.94 1063.5,-470.94 1063.5,-448.94 658.5,-448.94"/>
<polygon fill="none" stroke="black" points="658.5,-448.94 658.5,-470.94 1063.5,-470.94 1063.5,-448.94 658.5,-448.94"/>
<text text-anchor="start" x="663.5" y="-458.14" font-family="Helvetica,sans-Serif" font-weight="bold" font-size="11.00">transaction_actions</text>
<text text-anchor="start" x="1021.5" y="-457.14" font-family="Helvetica,sans-Serif" font-size="11.00">[table]</text>
<polygon fill="none" stroke="black" points="658.5,-426.94 658.5,-448.94 822.5,-448.94 822.5,-426.94 658.5,-426.94"/>
<image xlink:href="../../images/primaryKeys.png" width="11px" height="12px" preserveAspectRatio="xMinYMin meet" x="663.5" y="-443.937"/>
<text text-anchor="start" x="678.5" y="-435.14" font-family="Helvetica,sans-Serif" font-size="11.00">hash</text>
<polygon fill="none" stroke="black" points="822.5,-426.94 822.5,-448.94 1063.5,-448.94 1063.5,-426.94 822.5,-426.94"/>
<text text-anchor="start" x="825.5" y="-435.14" font-family="Helvetica,sans-Serif" font-size="11.00">bytea[2147483647]</text>
<polygon fill="#ffffff" stroke="transparent" points="658.5,-404.94 658.5,-426.94 822.5,-426.94 822.5,-404.94 658.5,-404.94"/>
<polygon fill="none" stroke="black" points="658.5,-404.94 658.5,-426.94 822.5,-426.94 822.5,-404.94 658.5,-404.94"/>
<text text-anchor="start" x="678.5" y="-413.14" font-family="Helvetica,sans-Serif" font-size="11.00">protocol</text>
<polygon fill="none" stroke="black" points="822.5,-404.94 822.5,-426.94 1063.5,-426.94 1063.5,-404.94 822.5,-404.94"/>
<text text-anchor="start" x="825.5" y="-413.14" font-family="Helvetica,sans-Serif" font-size="11.00">transaction_actions_protocol[2147483647]</text>
<polygon fill="none" stroke="black" points="658.5,-382.94 658.5,-404.94 822.5,-404.94 822.5,-382.94 658.5,-382.94"/>
<text text-anchor="start" x="678.5" y="-391.14" font-family="Helvetica,sans-Serif" font-size="11.00">data</text>
<polygon fill="none" stroke="black" points="822.5,-382.94 822.5,-404.94 1063.5,-404.94 1063.5,-382.94 822.5,-382.94"/>
<text text-anchor="start" x="825.5" y="-391.14" font-family="Helvetica,sans-Serif" font-size="11.00">jsonb[2147483647]</text>
<polygon fill="#ffffff" stroke="transparent" points="658.5,-360.94 658.5,-382.94 822.5,-382.94 822.5,-360.94 658.5,-360.94"/>
<polygon fill="none" stroke="black" points="658.5,-360.94 658.5,-382.94 822.5,-382.94 822.5,-360.94 658.5,-360.94"/>
<text text-anchor="start" x="678.5" y="-369.14" font-family="Helvetica,sans-Serif" font-size="11.00">type</text>
<polygon fill="none" stroke="black" points="822.5,-360.94 822.5,-382.94 1063.5,-382.94 1063.5,-360.94 822.5,-360.94"/>
<text text-anchor="start" x="825.5" y="-369.14" font-family="Helvetica,sans-Serif" font-size="11.00">transaction_actions_type[2147483647]</text>
<polygon fill="none" stroke="black" points="658.5,-338.94 658.5,-360.94 822.5,-360.94 822.5,-338.94 658.5,-338.94"/>
<image xlink:href="../../images/primaryKeys.png" width="11px" height="12px" preserveAspectRatio="xMinYMin meet" x="663.5" y="-355.937"/>
<text text-anchor="start" x="678.5" y="-347.14" font-family="Helvetica,sans-Serif" font-size="11.00">log_index</text>
<polygon fill="none" stroke="black" points="822.5,-338.94 822.5,-360.94 1063.5,-360.94 1063.5,-338.94 822.5,-338.94"/>
<text text-anchor="start" x="825.5" y="-347.14" font-family="Helvetica,sans-Serif" font-size="11.00">int4[10]</text>
<polygon fill="none" stroke="black" points="658.5,-316.94 658.5,-338.94 822.5,-338.94 822.5,-316.94 658.5,-316.94"/>
<text text-anchor="start" x="678.5" y="-325.14" font-family="Helvetica,sans-Serif" font-size="11.00">inserted_at</text>
<polygon fill="none" stroke="black" points="822.5,-316.94 822.5,-338.94 1063.5,-338.94 1063.5,-316.94 822.5,-316.94"/>
<text text-anchor="start" x="825.5" y="-325.14" font-family="Helvetica,sans-Serif" font-size="11.00">timestamp[29,6]</text>
<polygon fill="none" stroke="black" points="658.5,-294.94 658.5,-316.94 822.5,-316.94 822.5,-294.94 658.5,-294.94"/>
<text text-anchor="start" x="678.5" y="-303.14" font-family="Helvetica,sans-Serif" font-size="11.00">updated_at</text>
<polygon fill="none" stroke="black" points="822.5,-294.94 822.5,-316.94 1063.5,-316.94 1063.5,-294.94 822.5,-294.94"/>
<text text-anchor="start" x="825.5" y="-303.14" font-family="Helvetica,sans-Serif" font-size="11.00">timestamp[29,6]</text>
<polygon fill="#ffffff" stroke="transparent" points="658.5,-276.94 658.5,-294.94 1063.5,-294.94 1063.5,-276.94 658.5,-276.94"/>
<polygon fill="none" stroke="black" points="658.5,-276.94 658.5,-294.94 1063.5,-294.94 1063.5,-276.94 658.5,-276.94"/>
<polygon fill="#ffffff" stroke="transparent" points="659.5,-277.94 659.5,-293.94 798.5,-293.94 798.5,-277.94 659.5,-277.94"/>
<text text-anchor="start" x="661.5" y="-283.14" font-family="Helvetica,sans-Serif" font-size="11.00">&lt; 1</text>
<polygon fill="#ffffff" stroke="transparent" points="798.5,-277.94 798.5,-293.94 924.5,-293.94 924.5,-277.94 798.5,-277.94"/>
<text text-anchor="start" x="857.5" y="-283.14" font-family="Helvetica,sans-Serif" font-size="11.00"> &#160;</text>
<polygon fill="#ffffff" stroke="transparent" points="924.5,-277.94 924.5,-293.94 1062.5,-293.94 1062.5,-277.94 924.5,-277.94"/>
<text text-anchor="start" x="1040.5" y="-283.14" font-family="Helvetica,sans-Serif" font-size="11.00">0 &gt;</text>
<polygon fill="black" stroke="black" points="798.5,-277.94 798.5,-293.94 798.5,-293.94 798.5,-277.94 798.5,-277.94"/>
<polygon fill="black" stroke="black" points="924.5,-277.94 924.5,-293.94 924.5,-293.94 924.5,-277.94 924.5,-277.94"/>
<polygon fill="none" stroke="black" stroke-width="2" points="657,-275.94 657,-471.94 1064,-471.94 1064,-275.94 657,-275.94"/>
</a>
</g>
</g>
<!-- transaction_actions&#45;&gt;transactions -->
<g id="edge11" class="edge">
<title>transaction_actions:w&#45;&gt;transactions:e</title>
<path fill="none" stroke="black" d="M643.53,-442.28C621.41,-460.26 647.59,-527.94 608,-527.94"/>
<polygon fill="black" stroke="black" points="649.86,-440.31 658.57,-441.37 653.68,-439.12 657.5,-437.94 657.5,-437.94 657.5,-437.94 653.68,-439.12 656.43,-434.5 649.86,-440.31 649.86,-440.31"/>
<ellipse fill="none" stroke="black" cx="646.8" cy="-441.26" rx="3.2" ry="3.2"/>
</g>
<!-- transaction_forks -->
<g id="node10" class="node">
<title>transaction_forks</title>
<g id="a_node10"><a xlink:href="../../tables/transaction_forks.html" xlink:title="transaction_forks" target="_top">
<polygon fill="#ffffff" stroke="transparent" points="773.5,-37.94 773.5,-95.94 947.5,-95.94 947.5,-37.94 773.5,-37.94"/>
<polygon fill="#f5f5f5" stroke="transparent" points="773.5,-73.94 773.5,-95.94 947.5,-95.94 947.5,-73.94 773.5,-73.94"/>
<polygon fill="none" stroke="black" points="773.5,-73.94 773.5,-95.94 947.5,-95.94 947.5,-73.94 773.5,-73.94"/>
<text text-anchor="start" x="778.5" y="-83.14" font-family="Helvetica,sans-Serif" font-weight="bold" font-size="11.00">transaction_forks</text>
<text text-anchor="start" x="905.5" y="-82.14" font-family="Helvetica,sans-Serif" font-size="11.00">[table]</text>
<polygon fill="none" stroke="black" points="773.5,-55.94 773.5,-73.94 947.5,-73.94 947.5,-55.94 773.5,-55.94"/>
<text text-anchor="start" x="776.5" y="-62.14" font-family="Helvetica,sans-Serif" font-size="11.00">...</text>
<polygon fill="#ffffff" stroke="transparent" points="773.5,-37.94 773.5,-55.94 947.5,-55.94 947.5,-37.94 773.5,-37.94"/>
<polygon fill="none" stroke="black" points="773.5,-37.94 773.5,-55.94 947.5,-55.94 947.5,-37.94 773.5,-37.94"/>
<polygon fill="#ffffff" stroke="transparent" points="774.5,-38.94 774.5,-54.94 840.5,-54.94 840.5,-38.94 774.5,-38.94"/>
<text text-anchor="start" x="776.5" y="-44.14" font-family="Helvetica,sans-Serif" font-size="11.00">&lt; 2</text>
<polygon fill="#ffffff" stroke="transparent" points="840.5,-38.94 840.5,-54.94 893.5,-54.94 893.5,-38.94 840.5,-38.94"/>
<text text-anchor="start" x="863" y="-44.14" font-family="Helvetica,sans-Serif" font-size="11.00"> &#160;</text>
<polygon fill="#ffffff" stroke="transparent" points="893.5,-38.94 893.5,-54.94 946.5,-54.94 946.5,-38.94 893.5,-38.94"/>
<text text-anchor="start" x="936.5" y="-44.14" font-family="Helvetica,sans-Serif" font-size="11.00"> &#160;</text>
<polygon fill="black" stroke="black" points="840.5,-38.94 840.5,-54.94 840.5,-54.94 840.5,-38.94 840.5,-38.94"/>
<polygon fill="black" stroke="black" points="893.5,-38.94 893.5,-54.94 893.5,-54.94 893.5,-38.94 893.5,-38.94"/>
</a>
</g>
</g>
<!-- transaction_forks&#45;&gt;blocks -->
<g id="edge13" class="edge">
<title>transaction_forks:w&#45;&gt;blocks:e</title>
<path fill="none" stroke="black" d="M757.75,-64.84C485.51,-61.23 352.34,39.75 142,-140.94 92.31,-183.62 168.01,-282.94 102.5,-282.94"/>
<polygon fill="black" stroke="black" points="764.5,-64.88 772.48,-68.54 768.5,-64.91 772.5,-64.94 772.5,-64.94 772.5,-64.94 768.5,-64.91 772.52,-61.34 764.5,-64.88 764.5,-64.88"/>
<ellipse fill="none" stroke="black" cx="761.3" cy="-64.86" rx="3.2" ry="3.2"/>
</g>
<!-- transaction_forks&#45;&gt;transactions -->
<g id="edge12" class="edge">
<title>transaction_forks:w&#45;&gt;transactions:e</title>
<path fill="none" stroke="black" d="M758.06,-64.89C708.93,-64.65 681.15,-65.1 648,-106.94 589.64,-180.59 701.98,-527.94 608,-527.94"/>
<polygon fill="black" stroke="black" points="764.5,-64.91 772.49,-68.54 768.5,-64.92 772.5,-64.94 772.5,-64.94 772.5,-64.94 768.5,-64.92 772.51,-61.34 764.5,-64.91 764.5,-64.91"/>
<ellipse fill="none" stroke="black" cx="761.3" cy="-64.9" rx="3.2" ry="3.2"/>
</g>
</g>
</svg>
