<?xml version="1.0" encoding="UTF-8" standalone="no"?>
<!DOCTYPE svg PUBLIC "-//W3C//DTD SVG 1.1//EN"
 "http://www.w3.org/Graphics/SVG/1.1/DTD/svg11.dtd">
<!-- Generated by graphviz version 9.0.0 (20230911.1827)
 -->
<!-- Title: oneDegreeRelationshipsDiagramImplied Pages: 1 -->
<svg width="691pt" height="528pt"
 viewBox="0.00 0.00 691.00 528.00" xmlns="http://www.w3.org/2000/svg" xmlns:xlink="http://www.w3.org/1999/xlink">
<g id="graph0" class="graph" transform="scale(1 1) rotate(0) translate(4 524)">
<title>oneDegreeRelationshipsDiagramImplied</title>
<polygon fill="#ffffff" stroke="none" points="-4,4 -4,-524 687,-524 687,4 -4,4"/>
<text text-anchor="middle" x="71.38" y="-5.55" font-family="Helvetica,sans-Serif" font-size="11.00">Generated by SchemaSpy</text>
<!-- transaction_forks -->
<g id="node1" class="node">
<title>transaction_forks</title>
<g id="a_node1"><a xlink:href="../../tables/transaction_forks.html" xlink:title="transaction_forks" target="_top">
<polygon fill="#ffffff" stroke="none" points="452,-185 452,-339 675,-339 675,-185 452,-185"/>
<polygon fill="#f5f5f5" stroke="none" points="454,-315 454,-337 673,-337 673,-315 454,-315"/>
<polygon fill="none" stroke="black" points="454,-315 454,-337 673,-337 673,-315 454,-315"/>
<text text-anchor="start" x="459" y="-322.55" font-family="Helvetica,sans-Serif" font-weight="bold" font-size="11.00">transaction_forks</text>
<text text-anchor="start" x="638.75" y="-321.55" font-family="Helvetica,sans-Serif" font-size="11.00">[table]</text>
<polygon fill="none" stroke="black" points="454,-293 454,-315 575,-315 575,-293 454,-293"/>
<image xlink:href="../../images/foreignKeys.png" width="11px" height="12px" preserveAspectRatio="xMinYMin meet" x="459" y="-310"/>
<text text-anchor="start" x="474" y="-299.55" font-family="Helvetica,sans-Serif" font-size="11.00">hash</text>
<polygon fill="none" stroke="black" points="575,-293 575,-315 673,-315 673,-293 575,-293"/>
<text text-anchor="start" x="577.88" y="-299.55" font-family="Helvetica,sans-Serif" font-size="11.00">bytea[2147483647]</text>
<polygon fill="none" stroke="black" points="454,-271 454,-293 575,-293 575,-271 454,-271"/>
<image xlink:href="../../images/primaryKeys.png" width="11px" height="12px" preserveAspectRatio="xMinYMin meet" x="459" y="-288"/>
<text text-anchor="start" x="474" y="-277.55" font-family="Helvetica,sans-Serif" font-size="11.00">index</text>
<polygon fill="none" stroke="black" points="575,-271 575,-293 673,-293 673,-271 575,-271"/>
<text text-anchor="start" x="578" y="-277.55" font-family="Helvetica,sans-Serif" font-size="11.00">int4[10]</text>
<polygon fill="none" stroke="black" points="454,-249 454,-271 575,-271 575,-249 454,-249"/>
<image xlink:href="../../images/primaryKeys.png" width="11px" height="12px" preserveAspectRatio="xMinYMin meet" x="459" y="-266"/>
<text text-anchor="start" x="474" y="-255.55" font-family="Helvetica,sans-Serif" font-size="11.00">uncle_hash</text>
<polygon fill="none" stroke="black" points="575,-249 575,-271 673,-271 673,-249 575,-249"/>
<text text-anchor="start" x="577.88" y="-255.55" font-family="Helvetica,sans-Serif" font-size="11.00">bytea[2147483647]</text>
<polygon fill="none" stroke="black" points="454,-227 454,-249 575,-249 575,-227 454,-227"/>
<text text-anchor="start" x="474" y="-233.55" font-family="Helvetica,sans-Serif" font-size="11.00">inserted_at</text>
<polygon fill="none" stroke="black" points="575,-227 575,-249 673,-249 673,-227 575,-227"/>
<text text-anchor="start" x="578" y="-233.55" font-family="Helvetica,sans-Serif" font-size="11.00">timestamp[29,6]</text>
<polygon fill="none" stroke="black" points="454,-205 454,-227 575,-227 575,-205 454,-205"/>
<text text-anchor="start" x="474" y="-211.55" font-family="Helvetica,sans-Serif" font-size="11.00">updated_at</text>
<polygon fill="none" stroke="black" points="575,-205 575,-227 673,-227 673,-205 575,-205"/>
<text text-anchor="start" x="578" y="-211.55" font-family="Helvetica,sans-Serif" font-size="11.00">timestamp[29,6]</text>
<polygon fill="#ffffff" stroke="none" points="454,-187 454,-205 519,-205 519,-187 454,-187"/>
<polygon fill="none" stroke="black" points="454,-187 454,-205 519,-205 519,-187 454,-187"/>
<text text-anchor="start" x="457" y="-191.55" font-family="Helvetica,sans-Serif" font-size="11.00">&lt; 2</text>
<polygon fill="#ffffff" stroke="none" points="519,-187 519,-205 575,-205 575,-187 519,-187"/>
<polygon fill="none" stroke="black" points="519,-187 519,-205 575,-205 575,-187 519,-187"/>
<text text-anchor="start" x="566" y="-191.55" font-family="Helvetica,sans-Serif" font-size="11.00"> &#160;</text>
<polygon fill="#ffffff" stroke="none" points="575,-187 575,-205 673,-205 673,-187 575,-187"/>
<polygon fill="none" stroke="black" points="575,-187 575,-205 673,-205 673,-187 575,-187"/>
<text text-anchor="start" x="654.25" y="-191.55" font-family="Helvetica,sans-Serif" font-size="11.00">0 &gt;</text>
<polygon fill="none" stroke="black" stroke-width="2" points="453,-186 453,-338 674,-338 674,-186 453,-186"/>
</a>
</g>
</g>
<!-- transactions -->
<g id="node2" class="node">
<title>transactions</title>
<g id="a_node2"><a xlink:href="../../tables/transactions.html" xlink:title="transactions" target="_top">
<polygon fill="#ffffff" stroke="none" points="182,-128 182,-516 403,-516 403,-128 182,-128"/>
<polygon fill="#f5f5f5" stroke="none" points="182,-494 182,-516 403,-516 403,-494 182,-494"/>
<polygon fill="none" stroke="black" points="182,-494 182,-516 403,-516 403,-494 182,-494"/>
<text text-anchor="start" x="187" y="-501.55" font-family="Helvetica,sans-Serif" font-weight="bold" font-size="11.00">transactions</text>
<text text-anchor="start" x="368.75" y="-500.55" font-family="Helvetica,sans-Serif" font-size="11.00">[table]</text>
<polygon fill="#ffffff" stroke="none" points="182,-472 182,-494 403,-494 403,-472 182,-472"/>
<polygon fill="none" stroke="black" points="182,-472 182,-494 403,-494 403,-472 182,-472"/>
<text text-anchor="start" x="202" y="-478.55" font-family="Helvetica,sans-Serif" font-size="11.00">error</text>
<polygon fill="none" stroke="black" points="182,-450 182,-472 403,-472 403,-450 182,-450"/>
<image xlink:href="../../images/primaryKeys.png" width="11px" height="12px" preserveAspectRatio="xMinYMin meet" x="187" y="-467"/>
<text text-anchor="start" x="202" y="-456.55" font-family="Helvetica,sans-Serif" font-size="11.00">hash</text>
<polygon fill="#ffffff" stroke="none" points="182,-428 182,-450 403,-450 403,-428 182,-428"/>
<polygon fill="none" stroke="black" points="182,-428 182,-450 403,-450 403,-428 182,-428"/>
<image xlink:href="../../images/foreignKeys.png" width="11px" height="12px" preserveAspectRatio="xMinYMin meet" x="187" y="-445"/>
<text text-anchor="start" x="202" y="-434.55" font-family="Helvetica,sans-Serif" font-size="11.00">index</text>
<polygon fill="#ffffff" stroke="none" points="182,-406 182,-428 403,-428 403,-406 182,-406"/>
<polygon fill="none" stroke="black" points="182,-406 182,-428 403,-428 403,-406 182,-406"/>
<text text-anchor="start" x="202" y="-412.55" font-family="Helvetica,sans-Serif" font-size="11.00">nonce</text>
<polygon fill="#ffffff" stroke="none" points="182,-384 182,-406 403,-406 403,-384 182,-384"/>
<polygon fill="none" stroke="black" points="182,-384 182,-406 403,-406 403,-384 182,-384"/>
<text text-anchor="start" x="202" y="-390.55" font-family="Helvetica,sans-Serif" font-size="11.00">status</text>
<polygon fill="#ffffff" stroke="none" points="182,-362 182,-384 403,-384 403,-362 182,-362"/>
<polygon fill="none" stroke="black" points="182,-362 182,-384 403,-384 403,-362 182,-362"/>
<text text-anchor="start" x="202" y="-368.55" font-family="Helvetica,sans-Serif" font-size="11.00">inserted_at</text>
<polygon fill="#ffffff" stroke="none" points="182,-340 182,-362 403,-362 403,-340 182,-340"/>
<polygon fill="none" stroke="black" points="182,-340 182,-362 403,-362 403,-340 182,-340"/>
<text text-anchor="start" x="202" y="-346.55" font-family="Helvetica,sans-Serif" font-size="11.00">updated_at</text>
<polygon fill="#ffffff" stroke="none" points="182,-318 182,-340 403,-340 403,-318 182,-318"/>
<polygon fill="none" stroke="black" points="182,-318 182,-340 403,-340 403,-318 182,-318"/>
<image xlink:href="../../images/foreignKeys.png" width="11px" height="12px" preserveAspectRatio="xMinYMin meet" x="187" y="-335"/>
<text text-anchor="start" x="202" y="-324.55" font-family="Helvetica,sans-Serif" font-size="11.00">block_hash</text>
<polygon fill="#ffffff" stroke="none" points="182,-296 182,-318 403,-318 403,-296 182,-296"/>
<polygon fill="none" stroke="black" points="182,-296 182,-318 403,-318 403,-296 182,-296"/>
<text text-anchor="start" x="202" y="-302.55" font-family="Helvetica,sans-Serif" font-size="11.00">block_number</text>
<polygon fill="#ffffff" stroke="none" points="182,-274 182,-296 403,-296 403,-274 182,-274"/>
<polygon fill="none" stroke="black" points="182,-274 182,-296 403,-296 403,-274 182,-274"/>
<text text-anchor="start" x="202" y="-280.55" font-family="Helvetica,sans-Serif" font-size="11.00">from_address_hash</text>
<polygon fill="#ffffff" stroke="none" points="182,-252 182,-274 403,-274 403,-252 182,-252"/>
<polygon fill="none" stroke="black" points="182,-252 182,-274 403,-274 403,-252 182,-252"/>
<text text-anchor="start" x="202" y="-258.55" font-family="Helvetica,sans-Serif" font-size="11.00">to_address_hash</text>
<polygon fill="#ffffff" stroke="none" points="182,-230 182,-252 403,-252 403,-230 182,-230"/>
<polygon fill="none" stroke="black" points="182,-230 182,-252 403,-252 403,-230 182,-230"/>
<text text-anchor="start" x="202" y="-236.55" font-family="Helvetica,sans-Serif" font-size="11.00">created_contract_address_hash</text>
<polygon fill="#ffffff" stroke="none" points="182,-208 182,-230 403,-230 403,-208 182,-208"/>
<polygon fill="none" stroke="black" points="182,-208 182,-230 403,-230 403,-208 182,-208"/>
<text text-anchor="start" x="202" y="-214.55" font-family="Helvetica,sans-Serif" font-size="11.00">created_contract_code_indexed_at</text>
<polygon fill="#ffffff" stroke="none" points="182,-186 182,-208 403,-208 403,-186 182,-186"/>
<polygon fill="none" stroke="black" points="182,-186 182,-208 403,-208 403,-186 182,-186"/>
<text text-anchor="start" x="202" y="-192.55" font-family="Helvetica,sans-Serif" font-size="11.00">block_timestamp</text>
<polygon fill="#ffffff" stroke="none" points="182,-164 182,-186 403,-186 403,-164 182,-164"/>
<polygon fill="none" stroke="black" points="182,-164 182,-186 403,-186 403,-164 182,-164"/>
<text text-anchor="start" x="202" y="-170.55" font-family="Helvetica,sans-Serif" font-size="11.00">block_consensus</text>
<polygon fill="none" stroke="black" points="182,-146 182,-164 403,-164 403,-146 182,-146"/>
<text text-anchor="start" x="185" y="-150.55" font-family="Helvetica,sans-Serif" font-size="11.00">...</text>
<polygon fill="#ffffff" stroke="none" points="182,-128 182,-146 286,-146 286,-128 182,-128"/>
<polygon fill="none" stroke="black" points="182,-128 182,-146 286,-146 286,-128 182,-128"/>
<text text-anchor="start" x="185" y="-132.55" font-family="Helvetica,sans-Serif" font-size="11.00">&lt; 1</text>
<polygon fill="#ffffff" stroke="none" points="286,-128 286,-146 340,-146 340,-128 286,-128"/>
<polygon fill="none" stroke="black" points="286,-128 286,-146 340,-146 340,-128 286,-128"/>
<text text-anchor="start" x="331" y="-132.55" font-family="Helvetica,sans-Serif" font-size="11.00"> &#160;</text>
<polygon fill="#ffffff" stroke="none" points="340,-128 340,-146 403,-146 403,-128 340,-128"/>
<polygon fill="none" stroke="black" points="340,-128 340,-146 403,-146 403,-128 340,-128"/>
<text text-anchor="start" x="384.25" y="-132.55" font-family="Helvetica,sans-Serif" font-size="11.00">5 &gt;</text>
</a>
</g>
</g>
<!-- transaction_forks&#45;&gt;transactions -->
<g id="edge1" class="edge">
<title>transaction_forks:w&#45;&gt;transactions:e</title>
<path fill="none" stroke="black" d="M437.26,-307.28C395.1,-329.82 471.2,-461 404.5,-461"/>
<polygon fill="black" stroke="black" points="444.35,-305.75 452.93,-307.59 448.59,-304.84 451.85,-304.14 451.85,-304.14 451.85,-304.14 448.59,-304.84 451.42,-300.55 444.35,-305.75"/>
<ellipse fill="none" stroke="black" cx="439.54" cy="-306.79" rx="3.2" ry="3.2"/>
</g>
<!-- blocks -->
<g id="node3" class="node">
<title>blocks</title>
<g id="a_node3"><a xlink:href="../../tables/blocks.html" xlink:title="blocks" target="_top">
<polygon fill="#ffffff" stroke="none" points="8,-37 8,-271 133,-271 133,-37 8,-37"/>
<polygon fill="#f5f5f5" stroke="none" points="8,-249 8,-271 133,-271 133,-249 8,-249"/>
<polygon fill="none" stroke="black" points="8,-249 8,-271 133,-271 133,-249 8,-249"/>
<text text-anchor="start" x="12.75" y="-256.55" font-family="Helvetica,sans-Serif" font-weight="bold" font-size="11.00">blocks</text>
<text text-anchor="start" x="98.75" y="-255.55" font-family="Helvetica,sans-Serif" font-size="11.00">[table]</text>
<polygon fill="#ffffff" stroke="none" points="8,-227 8,-249 133,-249 133,-227 8,-227"/>
<polygon fill="none" stroke="black" points="8,-227 8,-249 133,-249 133,-227 8,-227"/>
<text text-anchor="start" x="28" y="-233.55" font-family="Helvetica,sans-Serif" font-size="11.00">consensus</text>
<polygon fill="none" stroke="black" points="8,-205 8,-227 133,-227 133,-205 8,-205"/>
<image xlink:href="../../images/primaryKeys.png" width="11px" height="12px" preserveAspectRatio="xMinYMin meet" x="13" y="-222"/>
<text text-anchor="start" x="28" y="-211.55" font-family="Helvetica,sans-Serif" font-size="11.00">hash</text>
<polygon fill="#ffffff" stroke="none" points="8,-183 8,-205 133,-205 133,-183 8,-183"/>
<polygon fill="none" stroke="black" points="8,-183 8,-205 133,-205 133,-183 8,-183"/>
<text text-anchor="start" x="28" y="-189.55" font-family="Helvetica,sans-Serif" font-size="11.00">miner_hash</text>
<polygon fill="#ffffff" stroke="none" points="8,-161 8,-183 133,-183 133,-161 8,-161"/>
<polygon fill="none" stroke="black" points="8,-161 8,-183 133,-183 133,-161 8,-161"/>
<text text-anchor="start" x="28" y="-167.55" font-family="Helvetica,sans-Serif" font-size="11.00">number</text>
<polygon fill="#ffffff" stroke="none" points="8,-139 8,-161 133,-161 133,-139 8,-139"/>
<polygon fill="none" stroke="black" points="8,-139 8,-161 133,-161 133,-139 8,-139"/>
<text text-anchor="start" x="28" y="-145.55" font-family="Helvetica,sans-Serif" font-size="11.00">parent_hash</text>
<polygon fill="#ffffff" stroke="none" points="8,-117 8,-139 133,-139 133,-117 8,-117"/>
<polygon fill="none" stroke="black" points="8,-117 8,-139 133,-139 133,-117 8,-117"/>
<text text-anchor="start" x="28" y="-123.55" font-family="Helvetica,sans-Serif" font-size="11.00">timestamp</text>
<polygon fill="#ffffff" stroke="none" points="8,-95 8,-117 133,-117 133,-95 8,-95"/>
<polygon fill="none" stroke="black" points="8,-95 8,-117 133,-117 133,-95 8,-95"/>
<text text-anchor="start" x="28" y="-101.55" font-family="Helvetica,sans-Serif" font-size="11.00">inserted_at</text>
<polygon fill="#ffffff" stroke="none" points="8,-73 8,-95 133,-95 133,-73 8,-73"/>
<polygon fill="none" stroke="black" points="8,-73 8,-95 133,-95 133,-73 8,-73"/>
<text text-anchor="start" x="28" y="-79.55" font-family="Helvetica,sans-Serif" font-size="11.00">is_empty</text>
<polygon fill="none" stroke="black" points="8,-55 8,-73 133,-73 133,-55 8,-55"/>
<text text-anchor="start" x="11" y="-59.55" font-family="Helvetica,sans-Serif" font-size="11.00">...</text>
<polygon fill="#ffffff" stroke="none" points="8,-37 8,-55 60,-55 60,-37 8,-37"/>
<polygon fill="none" stroke="black" points="8,-37 8,-55 60,-55 60,-37 8,-37"/>
<text text-anchor="start" x="11" y="-41.55" font-family="Helvetica,sans-Serif" font-size="11.00"> &#160;</text>
<polygon fill="#ffffff" stroke="none" points="60,-37 60,-55 92,-55 92,-37 60,-37"/>
<polygon fill="none" stroke="black" points="60,-37 60,-55 92,-55 92,-37 60,-37"/>
<text text-anchor="start" x="83" y="-41.55" font-family="Helvetica,sans-Serif" font-size="11.00"> &#160;</text>
<polygon fill="#ffffff" stroke="none" points="92,-37 92,-55 133,-55 133,-37 92,-37"/>
<polygon fill="none" stroke="black" points="92,-37 92,-55 133,-55 133,-37 92,-37"/>
<text text-anchor="start" x="114.25" y="-41.55" font-family="Helvetica,sans-Serif" font-size="11.00">9 &gt;</text>
</a>
</g>
</g>
<!-- transaction_forks&#45;&gt;blocks -->
<g id="edge2" class="edge">
<title>transaction_forks:w&#45;&gt;blocks:e</title>
<path fill="none" stroke="black" d="M437.06,-257.22C400.53,-240.57 458.47,-153.59 411,-118 326.72,-54.82 261.3,-59.06 174,-118 135.08,-144.28 181.46,-216 134.5,-216"/>
<polygon fill="black" stroke="black" points="444.3,-258.52 451.53,-263.48 448.56,-259.29 451.84,-259.88 451.84,-259.88 451.84,-259.88 448.56,-259.29 452.81,-256.4 444.3,-258.52"/>
<ellipse fill="none" stroke="black" cx="439.46" cy="-257.65" rx="3.2" ry="3.2"/>
</g>
<!-- transactions&#45;&gt;blocks -->
<g id="edge3" class="edge">
<title>transactions:w&#45;&gt;blocks:e</title>
<path fill="none" stroke="black" d="M165.52,-324.43C139.69,-303.29 182.16,-216 134.5,-216"/>
<polygon fill="black" stroke="black" points="172.53,-326.57 179.13,-332.35 176.67,-327.83 179.86,-328.8 179.86,-328.8 179.86,-328.8 176.67,-327.83 181.23,-325.46 172.53,-326.57"/>
<ellipse fill="none" stroke="black" cx="167.82" cy="-325.13" rx="3.2" ry="3.2"/>
</g>
</g>
</svg>
