<?xml version="1.0" encoding="UTF-8" standalone="no"?>
<!DOCTYPE svg PUBLIC "-//W3C//DTD SVG 1.1//EN"
 "http://www.w3.org/Graphics/SVG/1.1/DTD/svg11.dtd">
<!-- Generated by graphviz version 9.0.0 (20230911.1827)
 -->
<!-- Title: twoDegreesRelationshipsDiagram Pages: 1 -->
<svg width="643pt" height="597pt"
 viewBox="0.00 0.00 643.00 597.00" xmlns="http://www.w3.org/2000/svg" xmlns:xlink="http://www.w3.org/1999/xlink">
<g id="graph0" class="graph" transform="scale(1 1) rotate(0) translate(4 593)">
<title>twoDegreesRelationshipsDiagram</title>
<polygon fill="#ffffff" stroke="none" points="-4,4 -4,-593 639,-593 639,4 -4,4"/>
<text text-anchor="middle" x="71.38" y="-5.55" font-family="Helvetica,sans-Serif" font-size="11.00">Generated by SchemaSpy</text>
<!-- block_rewards -->
<g id="node1" class="node">
<title>block_rewards</title>
<g id="a_node1"><a xlink:href="../../tables/block_rewards.html" xlink:title="block_rewards" target="_top">
<polygon fill="#ffffff" stroke="none" points="183,-527 183,-585 306,-585 306,-527 183,-527"/>
<polygon fill="#f5f5f5" stroke="none" points="183,-563 183,-585 306,-585 306,-563 183,-563"/>
<polygon fill="none" stroke="black" points="183,-563 183,-585 306,-585 306,-563 183,-563"/>
<text text-anchor="start" x="188" y="-570.55" font-family="Helvetica,sans-Serif" font-weight="bold" font-size="11.00">block_rewards</text>
<text text-anchor="start" x="272" y="-569.55" font-family="Helvetica,sans-Serif" font-size="11.00">[table]</text>
<polygon fill="none" stroke="black" points="183,-545 183,-563 306,-563 306,-545 183,-545"/>
<text text-anchor="start" x="186" y="-549.55" font-family="Helvetica,sans-Serif" font-size="11.00">...</text>
<polygon fill="#ffffff" stroke="none" points="183,-527 183,-545 243,-545 243,-527 183,-527"/>
<polygon fill="none" stroke="black" points="183,-527 183,-545 243,-545 243,-527 183,-527"/>
<text text-anchor="start" x="186" y="-531.55" font-family="Helvetica,sans-Serif" font-size="11.00">&lt; 1</text>
<polygon fill="#ffffff" stroke="none" points="243,-527 243,-545 274,-545 274,-527 243,-527"/>
<polygon fill="none" stroke="black" points="243,-527 243,-545 274,-545 274,-527 243,-527"/>
<text text-anchor="start" x="265" y="-531.55" font-family="Helvetica,sans-Serif" font-size="11.00"> &#160;</text>
<polygon fill="#ffffff" stroke="none" points="274,-527 274,-545 306,-545 306,-527 274,-527"/>
<polygon fill="none" stroke="black" points="274,-527 274,-545 306,-545 306,-527 274,-527"/>
<text text-anchor="start" x="297" y="-531.55" font-family="Helvetica,sans-Serif" font-size="11.00"> &#160;</text>
</a>
</g>
</g>
<!-- blocks -->
<g id="node2" class="node">
<title>blocks</title>
<g id="a_node2"><a xlink:href="../../tables/blocks.html" xlink:title="blocks" target="_top">
<polygon fill="#ffffff" stroke="none" points="8,-315 8,-373 85,-373 85,-315 8,-315"/>
<polygon fill="#f5f5f5" stroke="none" points="8,-351 8,-373 85,-373 85,-351 8,-351"/>
<polygon fill="none" stroke="black" points="8,-351 8,-373 85,-373 85,-351 8,-351"/>
<text text-anchor="start" x="12.75" y="-358.55" font-family="Helvetica,sans-Serif" font-weight="bold" font-size="11.00">blocks</text>
<text text-anchor="start" x="51" y="-357.55" font-family="Helvetica,sans-Serif" font-size="11.00">[table]</text>
<polygon fill="none" stroke="black" points="8,-333 8,-351 85,-351 85,-333 8,-333"/>
<text text-anchor="start" x="11" y="-337.55" font-family="Helvetica,sans-Serif" font-size="11.00">...</text>
<polygon fill="#ffffff" stroke="none" points="8,-315 8,-333 36,-333 36,-315 8,-315"/>
<polygon fill="none" stroke="black" points="8,-315 8,-333 36,-333 36,-315 8,-315"/>
<text text-anchor="start" x="11" y="-319.55" font-family="Helvetica,sans-Serif" font-size="11.00"> &#160;</text>
<polygon fill="#ffffff" stroke="none" points="36,-315 36,-333 56,-333 56,-315 36,-315"/>
<polygon fill="none" stroke="black" points="36,-315 36,-333 56,-333 56,-315 36,-315"/>
<text text-anchor="start" x="47" y="-319.55" font-family="Helvetica,sans-Serif" font-size="11.00"> &#160;</text>
<polygon fill="#ffffff" stroke="none" points="56,-315 56,-333 85,-333 85,-315 56,-315"/>
<polygon fill="none" stroke="black" points="56,-315 56,-333 85,-333 85,-315 56,-315"/>
<text text-anchor="start" x="66.25" y="-319.55" font-family="Helvetica,sans-Serif" font-size="11.00">9 &gt;</text>
</a>
</g>
</g>
<!-- block_rewards&#45;&gt;blocks -->
<g id="edge1" class="edge">
<title>block_rewards:w&#45;&gt;blocks:e</title>
<path fill="none" stroke="black" d="M166.05,-552.58C94.19,-539.02 63.85,-432.07 52.87,-376.81"/>
<polygon fill="black" stroke="black" points="173.2,-553.23 180.84,-557.55 177.52,-553.63 180.83,-553.94 180.83,-553.94 180.83,-553.94 177.52,-553.63 181.5,-550.38 173.2,-553.23"/>
<ellipse fill="none" stroke="black" cx="168.3" cy="-552.78" rx="3.2" ry="3.2"/>
</g>
<!-- block_second_degree_relations -->
<g id="node3" class="node">
<title>block_second_degree_relations</title>
<g id="a_node3"><a xlink:href="../../tables/block_second_degree_relations.html" xlink:title="block_second_degree_relations" target="_top">
<polygon fill="#ffffff" stroke="none" points="134,-448 134,-506 355,-506 355,-448 134,-448"/>
<polygon fill="#f5f5f5" stroke="none" points="134,-484 134,-506 355,-506 355,-484 134,-484"/>
<polygon fill="none" stroke="black" points="134,-484 134,-506 355,-506 355,-484 134,-484"/>
<text text-anchor="start" x="139" y="-491.55" font-family="Helvetica,sans-Serif" font-weight="bold" font-size="11.00">block_second_degree_relations</text>
<text text-anchor="start" x="321" y="-490.55" font-family="Helvetica,sans-Serif" font-size="11.00">[table]</text>
<polygon fill="none" stroke="black" points="134,-466 134,-484 355,-484 355,-466 134,-466"/>
<text text-anchor="start" x="137" y="-470.55" font-family="Helvetica,sans-Serif" font-size="11.00">...</text>
<polygon fill="#ffffff" stroke="none" points="134,-448 134,-466 243,-466 243,-448 134,-448"/>
<polygon fill="none" stroke="black" points="134,-448 134,-466 243,-466 243,-448 134,-448"/>
<text text-anchor="start" x="137" y="-452.55" font-family="Helvetica,sans-Serif" font-size="11.00">&lt; 1</text>
<polygon fill="#ffffff" stroke="none" points="243,-448 243,-466 299,-466 299,-448 243,-448"/>
<polygon fill="none" stroke="black" points="243,-448 243,-466 299,-466 299,-448 243,-448"/>
<text text-anchor="start" x="290" y="-452.55" font-family="Helvetica,sans-Serif" font-size="11.00"> &#160;</text>
<polygon fill="#ffffff" stroke="none" points="299,-448 299,-466 355,-466 355,-448 299,-448"/>
<polygon fill="none" stroke="black" points="299,-448 299,-466 355,-466 355,-448 299,-448"/>
<text text-anchor="start" x="346" y="-452.55" font-family="Helvetica,sans-Serif" font-size="11.00"> &#160;</text>
</a>
</g>
</g>
<!-- block_second_degree_relations&#45;&gt;blocks -->
<g id="edge2" class="edge">
<title>block_second_degree_relations:w&#45;&gt;blocks:e</title>
<path fill="none" stroke="black" d="M117.05,-472.68C80.67,-461.34 62.27,-410.97 53.8,-376.72"/>
<polygon fill="black" stroke="black" points="124.26,-473.76 131.63,-478.51 128.54,-474.41 131.84,-474.9 131.84,-474.9 131.84,-474.9 128.54,-474.41 132.7,-471.39 124.26,-473.76"/>
<ellipse fill="none" stroke="black" cx="119.39" cy="-473.03" rx="3.2" ry="3.2"/>
</g>
<!-- internal_transactions -->
<g id="node4" class="node">
<title>internal_transactions</title>
<g id="a_node4"><a xlink:href="../../tables/internal_transactions.html" xlink:title="internal_transactions" target="_top">
<polygon fill="#ffffff" stroke="none" points="435.5,-449 435.5,-507 595.5,-507 595.5,-449 435.5,-449"/>
<polygon fill="#f5f5f5" stroke="none" points="435.5,-485 435.5,-507 595.5,-507 595.5,-485 435.5,-485"/>
<polygon fill="none" stroke="black" points="435.5,-485 435.5,-507 595.5,-507 595.5,-485 435.5,-485"/>
<text text-anchor="start" x="440.5" y="-492.55" font-family="Helvetica,sans-Serif" font-weight="bold" font-size="11.00">internal_transactions</text>
<text text-anchor="start" x="561.5" y="-491.55" font-family="Helvetica,sans-Serif" font-size="11.00">[table]</text>
<polygon fill="none" stroke="black" points="435.5,-467 435.5,-485 595.5,-485 595.5,-467 435.5,-467"/>
<text text-anchor="start" x="438.5" y="-471.55" font-family="Helvetica,sans-Serif" font-size="11.00">...</text>
<polygon fill="#ffffff" stroke="none" points="435.5,-449 435.5,-467 513.5,-467 513.5,-449 435.5,-449"/>
<polygon fill="none" stroke="black" points="435.5,-449 435.5,-467 513.5,-467 513.5,-449 435.5,-449"/>
<text text-anchor="start" x="438.5" y="-453.55" font-family="Helvetica,sans-Serif" font-size="11.00">&lt; 2</text>
<polygon fill="#ffffff" stroke="none" points="513.5,-449 513.5,-467 554.5,-467 554.5,-449 513.5,-449"/>
<polygon fill="none" stroke="black" points="513.5,-449 513.5,-467 554.5,-467 554.5,-449 513.5,-449"/>
<text text-anchor="start" x="545.5" y="-453.55" font-family="Helvetica,sans-Serif" font-size="11.00"> &#160;</text>
<polygon fill="#ffffff" stroke="none" points="554.5,-449 554.5,-467 595.5,-467 595.5,-449 554.5,-449"/>
<polygon fill="none" stroke="black" points="554.5,-449 554.5,-467 595.5,-467 595.5,-449 554.5,-449"/>
<text text-anchor="start" x="586.5" y="-453.55" font-family="Helvetica,sans-Serif" font-size="11.00"> &#160;</text>
</a>
</g>
</g>
<!-- internal_transactions&#45;&gt;blocks -->
<g id="edge3" class="edge">
<title>internal_transactions:w&#45;&gt;blocks:e</title>
<path fill="none" stroke="black" d="M418.98,-473.93C397.15,-467.43 391.46,-447.29 363,-438 261.84,-404.98 224.11,-445.2 126,-404 110.5,-397.49 95.36,-387.17 82.58,-376.92"/>
<polygon fill="black" stroke="black" points="426.24,-474.9 433.69,-479.52 430.54,-475.47 433.84,-475.91 433.84,-475.91 433.84,-475.91 430.54,-475.47 434.64,-472.39 426.24,-474.9"/>
<ellipse fill="none" stroke="black" cx="421.36" cy="-474.25" rx="3.2" ry="3.2"/>
</g>
<!-- transactions -->
<g id="node5" class="node">
<title>transactions</title>
<g id="a_node5"><a xlink:href="../../tables/transactions.html" xlink:title="transactions" target="_top">
<polygon fill="#ffffff" stroke="none" points="189.5,-315 189.5,-373 299.5,-373 299.5,-315 189.5,-315"/>
<polygon fill="#f5f5f5" stroke="none" points="189.5,-351 189.5,-373 299.5,-373 299.5,-351 189.5,-351"/>
<polygon fill="none" stroke="black" points="189.5,-351 189.5,-373 299.5,-373 299.5,-351 189.5,-351"/>
<text text-anchor="start" x="194.5" y="-358.55" font-family="Helvetica,sans-Serif" font-weight="bold" font-size="11.00">transactions</text>
<text text-anchor="start" x="265.5" y="-357.55" font-family="Helvetica,sans-Serif" font-size="11.00">[table]</text>
<polygon fill="none" stroke="black" points="189.5,-333 189.5,-351 299.5,-351 299.5,-333 189.5,-333"/>
<text text-anchor="start" x="192.5" y="-337.55" font-family="Helvetica,sans-Serif" font-size="11.00">...</text>
<polygon fill="#ffffff" stroke="none" points="189.5,-315 189.5,-333 238.5,-333 238.5,-315 189.5,-315"/>
<polygon fill="none" stroke="black" points="189.5,-315 189.5,-333 238.5,-333 238.5,-315 189.5,-315"/>
<text text-anchor="start" x="192.5" y="-319.55" font-family="Helvetica,sans-Serif" font-size="11.00">&lt; 1</text>
<polygon fill="#ffffff" stroke="none" points="238.5,-315 238.5,-333 264.5,-333 264.5,-315 238.5,-315"/>
<polygon fill="none" stroke="black" points="238.5,-315 238.5,-333 264.5,-333 264.5,-315 238.5,-315"/>
<text text-anchor="start" x="255.5" y="-319.55" font-family="Helvetica,sans-Serif" font-size="11.00"> &#160;</text>
<polygon fill="#ffffff" stroke="none" points="264.5,-315 264.5,-333 299.5,-333 299.5,-315 264.5,-315"/>
<polygon fill="none" stroke="black" points="264.5,-315 264.5,-333 299.5,-333 299.5,-315 264.5,-315"/>
<text text-anchor="start" x="280.75" y="-319.55" font-family="Helvetica,sans-Serif" font-size="11.00">5 &gt;</text>
</a>
</g>
</g>
<!-- internal_transactions&#45;&gt;transactions -->
<g id="edge4" class="edge">
<title>internal_transactions:w&#45;&gt;transactions:e</title>
<path fill="none" stroke="black" d="M418.93,-473.81C392.97,-465.47 392.16,-435.08 363,-414 344.91,-400.93 324.26,-388.01 305.37,-376.91"/>
<polygon fill="black" stroke="black" points="426.25,-474.84 433.67,-479.52 430.54,-475.44 433.84,-475.91 433.84,-475.91 433.84,-475.91 430.54,-475.44 434.67,-472.39 426.25,-474.84"/>
<ellipse fill="none" stroke="black" cx="421.38" cy="-474.15" rx="3.2" ry="3.2"/>
</g>
<!-- transactions&#45;&gt;blocks -->
<g id="edge13" class="edge">
<title>transactions:w&#45;&gt;blocks:e</title>
<path fill="none" stroke="black" d="M166.16,-344C141.29,-344 114.56,-344 92.77,-344"/>
<polygon fill="black" stroke="black" points="173.42,-344 181.42,-347.6 177.75,-344 181.08,-344 181.08,-344 181.08,-344 177.75,-344 181.42,-340.4 173.42,-344"/>
<ellipse fill="none" stroke="black" cx="168.5" cy="-344" rx="3.2" ry="3.2"/>
</g>
<!-- logs -->
<g id="node6" class="node">
<title>logs</title>
<g id="a_node6"><a xlink:href="../../tables/logs.html" xlink:title="logs" target="_top">
<polygon fill="#ffffff" stroke="none" points="484,-370 484,-428 547,-428 547,-370 484,-370"/>
<polygon fill="#f5f5f5" stroke="none" points="484,-406 484,-428 547,-428 547,-406 484,-406"/>
<polygon fill="none" stroke="black" points="484,-406 484,-428 547,-428 547,-406 484,-406"/>
<text text-anchor="start" x="487.75" y="-413.55" font-family="Helvetica,sans-Serif" font-weight="bold" font-size="11.00">logs</text>
<text text-anchor="start" x="513" y="-412.55" font-family="Helvetica,sans-Serif" font-size="11.00">[table]</text>
<polygon fill="none" stroke="black" points="484,-388 484,-406 547,-406 547,-388 484,-388"/>
<text text-anchor="start" x="487" y="-392.55" font-family="Helvetica,sans-Serif" font-size="11.00">...</text>
<polygon fill="#ffffff" stroke="none" points="484,-370 484,-388 514,-388 514,-370 484,-370"/>
<polygon fill="none" stroke="black" points="484,-370 484,-388 514,-388 514,-370 484,-370"/>
<text text-anchor="start" x="487" y="-374.55" font-family="Helvetica,sans-Serif" font-size="11.00">&lt; 2</text>
<polygon fill="#ffffff" stroke="none" points="514,-370 514,-388 530,-388 530,-370 514,-370"/>
<polygon fill="none" stroke="black" points="514,-370 514,-388 530,-388 530,-370 514,-370"/>
<text text-anchor="start" x="521" y="-374.55" font-family="Helvetica,sans-Serif" font-size="11.00"> &#160;</text>
<polygon fill="#ffffff" stroke="none" points="530,-370 530,-388 547,-388 547,-370 530,-370"/>
<polygon fill="none" stroke="black" points="530,-370 530,-388 547,-388 547,-370 530,-370"/>
<text text-anchor="start" x="538" y="-374.55" font-family="Helvetica,sans-Serif" font-size="11.00"> &#160;</text>
</a>
</g>
</g>
<!-- logs&#45;&gt;blocks -->
<g id="edge5" class="edge">
<title>logs:w&#45;&gt;blocks:e</title>
<path fill="none" stroke="black" d="M467.08,-397.09C320.88,-398.71 274.37,-422.5 126,-384 114.75,-381.08 103.26,-376.37 92.66,-371.19"/>
<polygon fill="black" stroke="black" points="474.17,-397.05 482.19,-400.6 478.5,-397.02 481.83,-397 481.83,-397 481.83,-397 478.5,-397.02 482.15,-393.4 474.17,-397.05"/>
<ellipse fill="none" stroke="black" cx="469.25" cy="-397.07" rx="3.2" ry="3.2"/>
</g>
<!-- logs&#45;&gt;transactions -->
<g id="edge6" class="edge">
<title>logs:w&#45;&gt;transactions:e</title>
<path fill="none" stroke="black" d="M466.72,-396.64C410.35,-394.13 350.32,-378.97 307.03,-365.56"/>
<polygon fill="black" stroke="black" points="474.17,-396.81 482.08,-400.59 478.5,-396.91 481.83,-396.98 481.83,-396.98 481.83,-396.98 478.5,-396.91 482.25,-393.39 474.17,-396.81"/>
<ellipse fill="none" stroke="black" cx="469.25" cy="-396.7" rx="3.2" ry="3.2"/>
</g>
<!-- pending_block_operations -->
<g id="node7" class="node">
<title>pending_block_operations</title>
<g id="a_node7"><a xlink:href="../../tables/pending_block_operations.html" xlink:title="pending_block_operations" target="_top">
<polygon fill="#ffffff" stroke="none" points="149,-236 149,-294 340,-294 340,-236 149,-236"/>
<polygon fill="#f5f5f5" stroke="none" points="149,-272 149,-294 340,-294 340,-272 149,-272"/>
<polygon fill="none" stroke="black" points="149,-272 149,-294 340,-294 340,-272 149,-272"/>
<text text-anchor="start" x="154" y="-279.55" font-family="Helvetica,sans-Serif" font-weight="bold" font-size="11.00">pending_block_operations</text>
<text text-anchor="start" x="306" y="-278.55" font-family="Helvetica,sans-Serif" font-size="11.00">[table]</text>
<polygon fill="none" stroke="black" points="149,-254 149,-272 340,-272 340,-254 149,-254"/>
<text text-anchor="start" x="152" y="-258.55" font-family="Helvetica,sans-Serif" font-size="11.00">...</text>
<polygon fill="#ffffff" stroke="none" points="149,-236 149,-254 243,-254 243,-236 149,-236"/>
<polygon fill="none" stroke="black" points="149,-236 149,-254 243,-254 243,-236 149,-236"/>
<text text-anchor="start" x="152" y="-240.55" font-family="Helvetica,sans-Serif" font-size="11.00">&lt; 1</text>
<polygon fill="#ffffff" stroke="none" points="243,-236 243,-254 291,-254 291,-236 243,-236"/>
<polygon fill="none" stroke="black" points="243,-236 243,-254 291,-254 291,-236 243,-236"/>
<text text-anchor="start" x="282" y="-240.55" font-family="Helvetica,sans-Serif" font-size="11.00"> &#160;</text>
<polygon fill="#ffffff" stroke="none" points="291,-236 291,-254 340,-254 340,-236 291,-236"/>
<polygon fill="none" stroke="black" points="291,-236 291,-254 340,-254 340,-236 291,-236"/>
<text text-anchor="start" x="331" y="-240.55" font-family="Helvetica,sans-Serif" font-size="11.00"> &#160;</text>
</a>
</g>
</g>
<!-- pending_block_operations&#45;&gt;blocks -->
<g id="edge7" class="edge">
<title>pending_block_operations:w&#45;&gt;blocks:e</title>
<path fill="none" stroke="black" d="M136.39,-264.01C108.99,-268.96 85.6,-291.26 69.7,-311.05"/>
<polygon fill="black" stroke="black" points="146.34,-259.09 147.07,-267.06 145.47,-267.2 144.75,-259.23 146.34,-259.09"/>
<polyline fill="none" stroke="black" points="147.5,-263 143.52,-263.36"/>
<ellipse fill="none" stroke="black" cx="139.83" cy="-263.7" rx="3.2" ry="3.2"/>
</g>
<!-- token_transfers -->
<g id="node8" class="node">
<title>token_transfers</title>
<g id="a_node8"><a xlink:href="../../tables/token_transfers.html" xlink:title="token_transfers" target="_top">
<polygon fill="#ffffff" stroke="none" points="451,-212 451,-270 580,-270 580,-212 451,-212"/>
<polygon fill="#f5f5f5" stroke="none" points="451,-248 451,-270 580,-270 580,-248 451,-248"/>
<polygon fill="none" stroke="black" points="451,-248 451,-270 580,-270 580,-248 451,-248"/>
<text text-anchor="start" x="456" y="-255.55" font-family="Helvetica,sans-Serif" font-weight="bold" font-size="11.00">token_transfers</text>
<text text-anchor="start" x="546" y="-254.55" font-family="Helvetica,sans-Serif" font-size="11.00">[table]</text>
<polygon fill="none" stroke="black" points="451,-230 451,-248 580,-248 580,-230 451,-230"/>
<text text-anchor="start" x="454" y="-234.55" font-family="Helvetica,sans-Serif" font-size="11.00">...</text>
<polygon fill="#ffffff" stroke="none" points="451,-212 451,-230 514,-230 514,-212 451,-212"/>
<polygon fill="none" stroke="black" points="451,-212 451,-230 514,-230 514,-212 451,-212"/>
<text text-anchor="start" x="454" y="-216.55" font-family="Helvetica,sans-Serif" font-size="11.00">&lt; 2</text>
<polygon fill="#ffffff" stroke="none" points="514,-212 514,-230 547,-230 547,-212 514,-212"/>
<polygon fill="none" stroke="black" points="514,-212 514,-230 547,-230 547,-212 514,-212"/>
<text text-anchor="start" x="538" y="-216.55" font-family="Helvetica,sans-Serif" font-size="11.00"> &#160;</text>
<polygon fill="#ffffff" stroke="none" points="547,-212 547,-230 580,-230 580,-212 547,-212"/>
<polygon fill="none" stroke="black" points="547,-212 547,-230 580,-230 580,-212 547,-212"/>
<text text-anchor="start" x="571" y="-216.55" font-family="Helvetica,sans-Serif" font-size="11.00"> &#160;</text>
</a>
</g>
</g>
<!-- token_transfers&#45;&gt;blocks -->
<g id="edge8" class="edge">
<title>token_transfers:w&#45;&gt;blocks:e</title>
<path fill="none" stroke="black" d="M433.98,-238.39C407.34,-236.16 396.01,-228.47 363,-226 257.96,-218.15 218.85,-176.25 126,-226 92.6,-243.9 70.98,-282.96 59.05,-311.25"/>
<polygon fill="black" stroke="black" points="441.17,-238.67 449.02,-242.58 445.5,-238.84 448.83,-238.97 448.83,-238.97 448.83,-238.97 445.5,-238.84 449.31,-235.39 441.17,-238.67"/>
<ellipse fill="none" stroke="black" cx="436.26" cy="-238.48" rx="3.2" ry="3.2"/>
</g>
<!-- token_transfers&#45;&gt;transactions -->
<g id="edge9" class="edge">
<title>token_transfers:w&#45;&gt;transactions:e</title>
<path fill="none" stroke="black" d="M434.08,-240.8C401.57,-249.21 400.58,-285.14 363,-305 345.71,-314.14 325.86,-321.71 307.46,-327.67"/>
<polygon fill="black" stroke="black" points="441.22,-239.96 449.58,-242.61 445.53,-239.46 448.84,-239.08 448.84,-239.08 448.84,-239.08 445.53,-239.46 448.75,-235.46 441.22,-239.96"/>
<ellipse fill="none" stroke="black" cx="436.34" cy="-240.53" rx="3.2" ry="3.2"/>
</g>
<!-- transaction_actions -->
<g id="node9" class="node">
<title>transaction_actions</title>
<g id="a_node9"><a xlink:href="../../tables/transaction_actions.html" xlink:title="transaction_actions" target="_top">
<polygon fill="#ffffff" stroke="none" points="439.5,-291 439.5,-349 591.5,-349 591.5,-291 439.5,-291"/>
<polygon fill="#f5f5f5" stroke="none" points="439.5,-327 439.5,-349 591.5,-349 591.5,-327 439.5,-327"/>
<polygon fill="none" stroke="black" points="439.5,-327 439.5,-349 591.5,-349 591.5,-327 439.5,-327"/>
<text text-anchor="start" x="444.5" y="-334.55" font-family="Helvetica,sans-Serif" font-weight="bold" font-size="11.00">transaction_actions</text>
<text text-anchor="start" x="557.5" y="-333.55" font-family="Helvetica,sans-Serif" font-size="11.00">[table]</text>
<polygon fill="none" stroke="black" points="439.5,-309 439.5,-327 591.5,-327 591.5,-309 439.5,-309"/>
<text text-anchor="start" x="442.5" y="-313.55" font-family="Helvetica,sans-Serif" font-size="11.00">...</text>
<polygon fill="#ffffff" stroke="none" points="439.5,-291 439.5,-309 513.5,-309 513.5,-291 439.5,-291"/>
<polygon fill="none" stroke="black" points="439.5,-291 439.5,-309 513.5,-309 513.5,-291 439.5,-291"/>
<text text-anchor="start" x="442.5" y="-295.55" font-family="Helvetica,sans-Serif" font-size="11.00">&lt; 1</text>
<polygon fill="#ffffff" stroke="none" points="513.5,-291 513.5,-309 552.5,-309 552.5,-291 513.5,-291"/>
<polygon fill="none" stroke="black" points="513.5,-291 513.5,-309 552.5,-309 552.5,-291 513.5,-291"/>
<text text-anchor="start" x="543.5" y="-295.55" font-family="Helvetica,sans-Serif" font-size="11.00"> &#160;</text>
<polygon fill="#ffffff" stroke="none" points="552.5,-291 552.5,-309 591.5,-309 591.5,-291 552.5,-291"/>
<polygon fill="none" stroke="black" points="552.5,-291 552.5,-309 591.5,-309 591.5,-291 552.5,-291"/>
<text text-anchor="start" x="582.5" y="-295.55" font-family="Helvetica,sans-Serif" font-size="11.00"> &#160;</text>
</a>
</g>
</g>
<!-- transaction_actions&#45;&gt;transactions -->
<g id="edge10" class="edge">
<title>transaction_actions:w&#45;&gt;transactions:e</title>
<path fill="none" stroke="black" d="M422.8,-318.27C382.98,-319.58 340.67,-325.53 307.36,-331.38"/>
<polygon fill="black" stroke="black" points="430.17,-318.14 438.23,-321.61 434.5,-318.07 437.83,-318.01 437.83,-318.01 437.83,-318.01 434.5,-318.07 438.1,-314.41 430.17,-318.14"/>
<ellipse fill="none" stroke="black" cx="425.25" cy="-318.23" rx="3.2" ry="3.2"/>
</g>
<!-- transaction_forks -->
<g id="node10" class="node">
<title>transaction_forks</title>
<g id="a_node10"><a xlink:href="../../tables/transaction_forks.html" xlink:title="transaction_forks" target="_top">
<polygon fill="#ffffff" stroke="none" points="404,-37 404,-191 627,-191 627,-37 404,-37"/>
<polygon fill="#f5f5f5" stroke="none" points="406,-167 406,-189 625,-189 625,-167 406,-167"/>
<polygon fill="none" stroke="black" points="406,-167 406,-189 625,-189 625,-167 406,-167"/>
<text text-anchor="start" x="411" y="-174.55" font-family="Helvetica,sans-Serif" font-weight="bold" font-size="11.00">transaction_forks</text>
<text text-anchor="start" x="590.75" y="-173.55" font-family="Helvetica,sans-Serif" font-size="11.00">[table]</text>
<polygon fill="none" stroke="black" points="406,-145 406,-167 527,-167 527,-145 406,-145"/>
<image xlink:href="../../images/foreignKeys.png" width="11px" height="12px" preserveAspectRatio="xMinYMin meet" x="411" y="-162"/>
<text text-anchor="start" x="426" y="-151.55" font-family="Helvetica,sans-Serif" font-size="11.00">hash</text>
<polygon fill="none" stroke="black" points="527,-145 527,-167 625,-167 625,-145 527,-145"/>
<text text-anchor="start" x="529.88" y="-151.55" font-family="Helvetica,sans-Serif" font-size="11.00">bytea[2147483647]</text>
<polygon fill="none" stroke="black" points="406,-123 406,-145 527,-145 527,-123 406,-123"/>
<image xlink:href="../../images/primaryKeys.png" width="11px" height="12px" preserveAspectRatio="xMinYMin meet" x="411" y="-140"/>
<text text-anchor="start" x="426" y="-129.55" font-family="Helvetica,sans-Serif" font-size="11.00">index</text>
<polygon fill="none" stroke="black" points="527,-123 527,-145 625,-145 625,-123 527,-123"/>
<text text-anchor="start" x="530" y="-129.55" font-family="Helvetica,sans-Serif" font-size="11.00">int4[10]</text>
<polygon fill="none" stroke="black" points="406,-101 406,-123 527,-123 527,-101 406,-101"/>
<image xlink:href="../../images/primaryKeys.png" width="11px" height="12px" preserveAspectRatio="xMinYMin meet" x="411" y="-118"/>
<text text-anchor="start" x="426" y="-107.55" font-family="Helvetica,sans-Serif" font-size="11.00">uncle_hash</text>
<polygon fill="none" stroke="black" points="527,-101 527,-123 625,-123 625,-101 527,-101"/>
<text text-anchor="start" x="529.88" y="-107.55" font-family="Helvetica,sans-Serif" font-size="11.00">bytea[2147483647]</text>
<polygon fill="none" stroke="black" points="406,-79 406,-101 527,-101 527,-79 406,-79"/>
<text text-anchor="start" x="426" y="-85.55" font-family="Helvetica,sans-Serif" font-size="11.00">inserted_at</text>
<polygon fill="none" stroke="black" points="527,-79 527,-101 625,-101 625,-79 527,-79"/>
<text text-anchor="start" x="530" y="-85.55" font-family="Helvetica,sans-Serif" font-size="11.00">timestamp[29,6]</text>
<polygon fill="none" stroke="black" points="406,-57 406,-79 527,-79 527,-57 406,-57"/>
<text text-anchor="start" x="426" y="-63.55" font-family="Helvetica,sans-Serif" font-size="11.00">updated_at</text>
<polygon fill="none" stroke="black" points="527,-57 527,-79 625,-79 625,-57 527,-57"/>
<text text-anchor="start" x="530" y="-63.55" font-family="Helvetica,sans-Serif" font-size="11.00">timestamp[29,6]</text>
<polygon fill="#ffffff" stroke="none" points="406,-39 406,-57 471,-57 471,-39 406,-39"/>
<polygon fill="none" stroke="black" points="406,-39 406,-57 471,-57 471,-39 406,-39"/>
<text text-anchor="start" x="409" y="-43.55" font-family="Helvetica,sans-Serif" font-size="11.00">&lt; 2</text>
<polygon fill="#ffffff" stroke="none" points="471,-39 471,-57 527,-57 527,-39 471,-39"/>
<polygon fill="none" stroke="black" points="471,-39 471,-57 527,-57 527,-39 471,-39"/>
<text text-anchor="start" x="518" y="-43.55" font-family="Helvetica,sans-Serif" font-size="11.00"> &#160;</text>
<polygon fill="#ffffff" stroke="none" points="527,-39 527,-57 625,-57 625,-39 527,-39"/>
<polygon fill="none" stroke="black" points="527,-39 527,-57 625,-57 625,-39 527,-39"/>
<text text-anchor="start" x="606.25" y="-43.55" font-family="Helvetica,sans-Serif" font-size="11.00">0 &gt;</text>
<polygon fill="none" stroke="black" stroke-width="2" points="405,-38 405,-190 626,-190 626,-38 405,-38"/>
</a>
</g>
</g>
<!-- transaction_forks&#45;&gt;blocks -->
<g id="edge12" class="edge">
<title>transaction_forks:w&#45;&gt;blocks:e</title>
<path fill="none" stroke="black" d="M389.89,-117.13C377.91,-129.1 384.95,-158.86 363,-172 272.05,-226.47 213.85,-139.66 126,-199 87.21,-225.2 65.95,-277.08 55.65,-311.15"/>
<polygon fill="black" stroke="black" points="396.64,-114.76 405.38,-115.51 400.73,-113.33 403.87,-112.22 403.87,-112.22 403.87,-112.22 400.73,-113.33 402.99,-108.71 396.64,-114.76"/>
<ellipse fill="none" stroke="black" cx="392" cy="-116.39" rx="3.2" ry="3.2"/>
</g>
<!-- transaction_forks&#45;&gt;transactions -->
<g id="edge11" class="edge">
<title>transaction_forks:w&#45;&gt;transactions:e</title>
<path fill="none" stroke="black" d="M388.99,-158.39C348.43,-173.8 406.06,-259.79 363,-305 348.33,-320.41 327.43,-329.73 307.32,-335.37"/>
<polygon fill="black" stroke="black" points="396.26,-157.27 404.72,-159.61 400.55,-156.61 403.84,-156.1 403.84,-156.1 403.84,-156.1 400.55,-156.61 403.62,-152.49 396.26,-157.27"/>
<ellipse fill="none" stroke="black" cx="391.4" cy="-158.02" rx="3.2" ry="3.2"/>
</g>
<!-- withdrawals -->
<g id="node11" class="node">
<title>withdrawals</title>
<g id="a_node11"><a xlink:href="../../tables/withdrawals.html" xlink:title="withdrawals" target="_top">
<polygon fill="#ffffff" stroke="none" points="191,-103 191,-161 298,-161 298,-103 191,-103"/>
<polygon fill="#f5f5f5" stroke="none" points="191,-139 191,-161 298,-161 298,-139 191,-139"/>
<polygon fill="none" stroke="black" points="191,-139 191,-161 298,-161 298,-139 191,-139"/>
<text text-anchor="start" x="196" y="-146.55" font-family="Helvetica,sans-Serif" font-weight="bold" font-size="11.00">withdrawals</text>
<text text-anchor="start" x="264" y="-145.55" font-family="Helvetica,sans-Serif" font-size="11.00">[table]</text>
<polygon fill="none" stroke="black" points="191,-121 191,-139 298,-139 298,-121 191,-121"/>
<text text-anchor="start" x="194" y="-125.55" font-family="Helvetica,sans-Serif" font-size="11.00">...</text>
<polygon fill="#ffffff" stroke="none" points="191,-103 191,-121 243,-121 243,-103 191,-103"/>
<polygon fill="none" stroke="black" points="191,-103 191,-121 243,-121 243,-103 191,-103"/>
<text text-anchor="start" x="194" y="-107.55" font-family="Helvetica,sans-Serif" font-size="11.00">&lt; 1</text>
<polygon fill="#ffffff" stroke="none" points="243,-103 243,-121 270,-121 270,-103 243,-103"/>
<polygon fill="none" stroke="black" points="243,-103 243,-121 270,-121 270,-103 243,-103"/>
<text text-anchor="start" x="261" y="-107.55" font-family="Helvetica,sans-Serif" font-size="11.00"> &#160;</text>
<polygon fill="#ffffff" stroke="none" points="270,-103 270,-121 298,-121 298,-103 270,-103"/>
<polygon fill="none" stroke="black" points="270,-103 270,-121 298,-121 298,-103 270,-103"/>
<text text-anchor="start" x="289" y="-107.55" font-family="Helvetica,sans-Serif" font-size="11.00"> &#160;</text>
</a>
</g>
</g>
<!-- withdrawals&#45;&gt;blocks -->
<g id="edge14" class="edge">
<title>withdrawals:w&#45;&gt;blocks:e</title>
<path fill="none" stroke="black" d="M173.97,-131.37C99.13,-144.89 65.81,-254.75 53.53,-311.03"/>
<polygon fill="black" stroke="black" points="181.2,-130.73 189.48,-133.62 185.52,-130.35 188.83,-130.06 188.83,-130.06 188.83,-130.06 185.52,-130.35 188.85,-126.44 181.2,-130.73"/>
<ellipse fill="none" stroke="black" cx="176.3" cy="-131.17" rx="3.2" ry="3.2"/>
</g>
</g>
</svg>
