<?xml version="1.0" encoding="UTF-8" standalone="no"?>
<!DOCTYPE svg PUBLIC "-//W3C//DTD SVG 1.1//EN"
 "http://www.w3.org/Graphics/SVG/1.1/DTD/svg11.dtd">
<!-- Generated by graphviz version 9.0.0 (20230911.1827)
 -->
<!-- Title: twoDegreesRelationshipsDiagram Pages: 1 -->
<svg width="386pt" height="326pt"
 viewBox="0.00 0.00 386.00 326.00" xmlns="http://www.w3.org/2000/svg" xmlns:xlink="http://www.w3.org/1999/xlink">
<g id="graph0" class="graph" transform="scale(1 1) rotate(0) translate(4 322)">
<title>twoDegreesRelationshipsDiagram</title>
<polygon fill="#ffffff" stroke="none" points="-4,4 -4,-322 382,-322 382,4 -4,4"/>
<text text-anchor="middle" x="71.38" y="-5.55" font-family="Helvetica,sans-Serif" font-size="11.00">Generated by SchemaSpy</text>
<!-- administrators -->
<g id="node1" class="node">
<title>administrators</title>
<g id="a_node1"><a xlink:href="../../tables/administrators.html" xlink:title="administrators" target="_top">
<polygon fill="#ffffff" stroke="none" points="208,-256 208,-314 330,-314 330,-256 208,-256"/>
<polygon fill="#f5f5f5" stroke="none" points="208,-292 208,-314 330,-314 330,-292 208,-292"/>
<polygon fill="none" stroke="black" points="208,-292 208,-314 330,-314 330,-292 208,-292"/>
<text text-anchor="start" x="213" y="-299.55" font-family="Helvetica,sans-Serif" font-weight="bold" font-size="11.00">administrators</text>
<text text-anchor="start" x="296" y="-298.55" font-family="Helvetica,sans-Serif" font-size="11.00">[table]</text>
<polygon fill="none" stroke="black" points="208,-274 208,-292 330,-292 330,-274 208,-274"/>
<text text-anchor="start" x="211" y="-278.55" font-family="Helvetica,sans-Serif" font-size="11.00">...</text>
<polygon fill="#ffffff" stroke="none" points="208,-256 208,-274 267,-274 267,-256 208,-256"/>
<polygon fill="none" stroke="black" points="208,-256 208,-274 267,-274 267,-256 208,-256"/>
<text text-anchor="start" x="211" y="-260.55" font-family="Helvetica,sans-Serif" font-size="11.00">&lt; 1</text>
<polygon fill="#ffffff" stroke="none" points="267,-256 267,-274 298,-274 298,-256 267,-256"/>
<polygon fill="none" stroke="black" points="267,-256 267,-274 298,-274 298,-256 267,-256"/>
<text text-anchor="start" x="289" y="-260.55" font-family="Helvetica,sans-Serif" font-size="11.00"> &#160;</text>
<polygon fill="#ffffff" stroke="none" points="298,-256 298,-274 330,-274 330,-256 298,-256"/>
<polygon fill="none" stroke="black" points="298,-256 298,-274 330,-274 330,-256 298,-256"/>
<text text-anchor="start" x="321" y="-260.55" font-family="Helvetica,sans-Serif" font-size="11.00"> &#160;</text>
</a>
</g>
</g>
<!-- users -->
<g id="node2" class="node">
<title>users</title>
<g id="a_node2"><a xlink:href="../../tables/users.html" xlink:title="users" target="_top">
<polygon fill="#ffffff" stroke="none" points="8,-150 8,-252 119,-252 119,-150 8,-150"/>
<polygon fill="#f5f5f5" stroke="none" points="8,-230 8,-252 119,-252 119,-230 8,-230"/>
<polygon fill="none" stroke="black" points="8,-230 8,-252 119,-252 119,-230 8,-230"/>
<text text-anchor="start" x="12.38" y="-237.55" font-family="Helvetica,sans-Serif" font-weight="bold" font-size="11.00">users</text>
<text text-anchor="start" x="84.75" y="-236.55" font-family="Helvetica,sans-Serif" font-size="11.00">[table]</text>
<polygon fill="none" stroke="black" points="8,-208 8,-230 119,-230 119,-208 8,-208"/>
<image xlink:href="../../images/primaryKeys.png" width="11px" height="12px" preserveAspectRatio="xMinYMin meet" x="13" y="-225"/>
<text text-anchor="start" x="28" y="-214.55" font-family="Helvetica,sans-Serif" font-size="11.00">id</text>
<polygon fill="#ffffff" stroke="none" points="8,-186 8,-208 119,-208 119,-186 8,-186"/>
<polygon fill="none" stroke="black" points="8,-186 8,-208 119,-208 119,-186 8,-186"/>
<text text-anchor="start" x="28" y="-192.55" font-family="Helvetica,sans-Serif" font-size="11.00">username</text>
<polygon fill="none" stroke="black" points="8,-168 8,-186 119,-186 119,-168 8,-168"/>
<text text-anchor="start" x="11" y="-172.55" font-family="Helvetica,sans-Serif" font-size="11.00">...</text>
<polygon fill="#ffffff" stroke="none" points="8,-150 8,-168 53,-168 53,-150 8,-150"/>
<polygon fill="none" stroke="black" points="8,-150 8,-168 53,-168 53,-150 8,-150"/>
<text text-anchor="start" x="11" y="-154.55" font-family="Helvetica,sans-Serif" font-size="11.00"> &#160;</text>
<polygon fill="#ffffff" stroke="none" points="53,-150 53,-168 81,-168 81,-150 53,-150"/>
<polygon fill="none" stroke="black" points="53,-150 53,-168 81,-168 81,-150 53,-150"/>
<text text-anchor="start" x="72" y="-154.55" font-family="Helvetica,sans-Serif" font-size="11.00"> &#160;</text>
<polygon fill="#ffffff" stroke="none" points="81,-150 81,-168 119,-168 119,-150 81,-150"/>
<polygon fill="none" stroke="black" points="81,-150 81,-168 119,-168 119,-150 81,-150"/>
<text text-anchor="start" x="100.25" y="-154.55" font-family="Helvetica,sans-Serif" font-size="11.00">2 &gt;</text>
</a>
</g>
</g>
<!-- administrators&#45;&gt;users -->
<g id="edge1" class="edge">
<title>administrators:w&#45;&gt;users:e</title>
<path fill="none" stroke="black" d="M196.44,-279.74C172.79,-266.7 141.14,-219 120.5,-219"/>
<polygon fill="black" stroke="black" points="207.42,-278.94 205.06,-286.59 203.53,-286.11 205.89,-278.47 207.42,-278.94"/>
<polyline fill="none" stroke="black" points="207,-283 203.18,-281.82"/>
<ellipse fill="none" stroke="black" cx="199.64" cy="-280.73" rx="3.2" ry="3.2"/>
</g>
<!-- user_contacts -->
<g id="node3" class="node">
<title>user_contacts</title>
<g id="a_node3"><a xlink:href="../../tables/user_contacts.html" xlink:title="user_contacts" target="_top">
<polygon fill="#ffffff" stroke="none" points="168,-37 168,-235 370,-235 370,-37 168,-37"/>
<polygon fill="#f5f5f5" stroke="none" points="170,-211 170,-233 368,-233 368,-211 170,-211"/>
<polygon fill="none" stroke="black" points="170,-211 170,-233 368,-233 368,-211 170,-211"/>
<text text-anchor="start" x="175" y="-218.55" font-family="Helvetica,sans-Serif" font-weight="bold" font-size="11.00">user_contacts</text>
<text text-anchor="start" x="333.75" y="-217.55" font-family="Helvetica,sans-Serif" font-size="11.00">[table]</text>
<polygon fill="none" stroke="black" points="170,-189 170,-211 272,-211 272,-189 170,-189"/>
<image xlink:href="../../images/primaryKeys.png" width="11px" height="12px" preserveAspectRatio="xMinYMin meet" x="175" y="-206"/>
<text text-anchor="start" x="190" y="-195.55" font-family="Helvetica,sans-Serif" font-size="11.00">id</text>
<polygon fill="none" stroke="black" points="272,-189 272,-211 368,-211 368,-189 272,-189"/>
<text text-anchor="start" x="275" y="-195.55" font-family="Helvetica,sans-Serif" font-size="11.00">bigserial[19]</text>
<polygon fill="#ffffff" stroke="none" points="170,-167 170,-189 272,-189 272,-167 170,-167"/>
<polygon fill="none" stroke="black" points="170,-167 170,-189 272,-189 272,-167 170,-167"/>
<text text-anchor="start" x="190" y="-173.55" font-family="Helvetica,sans-Serif" font-size="11.00">email</text>
<polygon fill="none" stroke="black" points="272,-167 272,-189 368,-189 368,-167 272,-167"/>
<text text-anchor="start" x="274.62" y="-173.55" font-family="Helvetica,sans-Serif" font-size="11.00">citext[2147483647]</text>
<polygon fill="#ffffff" stroke="none" points="170,-145 170,-167 272,-167 272,-145 170,-145"/>
<polygon fill="none" stroke="black" points="170,-145 170,-167 272,-167 272,-145 170,-145"/>
<image xlink:href="../../images/foreignKeys.png" width="11px" height="12px" preserveAspectRatio="xMinYMin meet" x="175" y="-162"/>
<text text-anchor="start" x="190" y="-151.55" font-family="Helvetica,sans-Serif" font-size="11.00">user_id</text>
<polygon fill="none" stroke="black" points="272,-145 272,-167 368,-167 368,-145 272,-145"/>
<text text-anchor="start" x="275" y="-151.55" font-family="Helvetica,sans-Serif" font-size="11.00">int8[19]</text>
<polygon fill="none" stroke="black" points="170,-123 170,-145 272,-145 272,-123 170,-123"/>
<text text-anchor="start" x="190" y="-129.55" font-family="Helvetica,sans-Serif" font-size="11.00">primary</text>
<polygon fill="none" stroke="black" points="272,-123 272,-145 368,-145 368,-123 272,-123"/>
<text text-anchor="start" x="275" y="-129.55" font-family="Helvetica,sans-Serif" font-size="11.00">bool[1]</text>
<polygon fill="none" stroke="black" points="170,-101 170,-123 272,-123 272,-101 170,-101"/>
<text text-anchor="start" x="190" y="-107.55" font-family="Helvetica,sans-Serif" font-size="11.00">verified</text>
<polygon fill="none" stroke="black" points="272,-101 272,-123 368,-123 368,-101 272,-101"/>
<text text-anchor="start" x="275" y="-107.55" font-family="Helvetica,sans-Serif" font-size="11.00">bool[1]</text>
<polygon fill="none" stroke="black" points="170,-79 170,-101 272,-101 272,-79 170,-79"/>
<text text-anchor="start" x="190" y="-85.55" font-family="Helvetica,sans-Serif" font-size="11.00">inserted_at</text>
<polygon fill="none" stroke="black" points="272,-79 272,-101 368,-101 368,-79 272,-79"/>
<text text-anchor="start" x="275" y="-85.55" font-family="Helvetica,sans-Serif" font-size="11.00">timestamp[29,6]</text>
<polygon fill="none" stroke="black" points="170,-57 170,-79 272,-79 272,-57 170,-57"/>
<text text-anchor="start" x="190" y="-63.55" font-family="Helvetica,sans-Serif" font-size="11.00">updated_at</text>
<polygon fill="none" stroke="black" points="272,-57 272,-79 368,-79 368,-57 272,-57"/>
<text text-anchor="start" x="275" y="-63.55" font-family="Helvetica,sans-Serif" font-size="11.00">timestamp[29,6]</text>
<polygon fill="#ffffff" stroke="none" points="170,-39 170,-57 225,-57 225,-39 170,-39"/>
<polygon fill="none" stroke="black" points="170,-39 170,-57 225,-57 225,-39 170,-39"/>
<text text-anchor="start" x="173" y="-43.55" font-family="Helvetica,sans-Serif" font-size="11.00">&lt; 1</text>
<polygon fill="#ffffff" stroke="none" points="225,-39 225,-57 272,-57 272,-39 225,-39"/>
<polygon fill="none" stroke="black" points="225,-39 225,-57 272,-57 272,-39 225,-39"/>
<text text-anchor="start" x="263" y="-43.55" font-family="Helvetica,sans-Serif" font-size="11.00"> &#160;</text>
<polygon fill="#ffffff" stroke="none" points="272,-39 272,-57 368,-57 368,-39 272,-39"/>
<polygon fill="none" stroke="black" points="272,-39 272,-57 368,-57 368,-39 272,-39"/>
<text text-anchor="start" x="349.25" y="-43.55" font-family="Helvetica,sans-Serif" font-size="11.00">0 &gt;</text>
<polygon fill="none" stroke="black" stroke-width="2" points="169,-38 169,-234 369,-234 369,-38 169,-38"/>
</a>
</g>
</g>
<!-- user_contacts&#45;&gt;users -->
<g id="edge2" class="edge">
<title>user_contacts:w&#45;&gt;users:e</title>
<path fill="none" stroke="black" d="M158.22,-158.71C138.31,-170.77 151.42,-219 120.5,-219"/>
<polygon fill="black" stroke="black" points="167.25,-152.32 169.2,-160.07 167.65,-160.46 165.7,-152.7 167.25,-152.32"/>
<polyline fill="none" stroke="black" points="169,-156 165.12,-156.97"/>
<ellipse fill="none" stroke="black" cx="161.53" cy="-157.88" rx="3.2" ry="3.2"/>
</g>
</g>
</svg>
