<?xml version="1.0" encoding="UTF-8" standalone="no"?>
<!DOCTYPE svg PUBLIC "-//W3C//DTD SVG 1.1//EN"
 "http://www.w3.org/Graphics/SVG/1.1/DTD/svg11.dtd">
<!-- Generated by graphviz version 2.38.0 (20140413.2041)
 -->
<!-- Title: oneDegreeRelationshipsDiagram Pages: 1 -->
<svg width="432pt" height="318pt"
 viewBox="0.00 0.00 432.00 318.00" xmlns="http://www.w3.org/2000/svg" xmlns:xlink="http://www.w3.org/1999/xlink">
<g id="graph0" class="graph" transform="scale(1 1) rotate(0) translate(4 314)">
<title>oneDegreeRelationshipsDiagram</title>
<polygon fill="#ffffff" stroke="none" points="-4,4 -4,-314 428,-314 428,4 -4,4"/>
<text text-anchor="middle" x="74.5" y="-7.2" font-family="Helvetica,sans-Serif" font-size="11.00">Generated by SchemaSpy</text>
<!-- administrators -->
<g id="node1" class="node"><title>administrators</title>
<g id="a_node1"><a xlink:href="../../tables/administrators.html" xlink:title="administrators" target="_top">
<polygon fill="#ffffff" stroke="none" points="282,-182 282,-306 416,-306 416,-182 282,-182"/>
<polygon fill="#f5f5f5" stroke="none" points="282,-284 282,-306 416,-306 416,-284 282,-284"/>
<polygon fill="none" stroke="black" points="282,-284 282,-306 416,-306 416,-284 282,-284"/>
<text text-anchor="start" x="287" y="-293.2" font-family="Helvetica,sans-Serif" font-weight="bold" font-size="11.00">administrators</text>
<text text-anchor="start" x="377" y="-292.2" font-family="Helvetica,sans-Serif" font-size="11.00">[table]</text>
<polygon fill="none" stroke="black" points="282,-262 282,-284 416,-284 416,-262 282,-262"/>
<image xlink:href="../../images/primaryKeys.png" width="11px" height="12px" preserveAspectRatio="xMinYMin meet" x="287" y="-279"/>
<text text-anchor="start" x="314" y="-270.2" font-family="Helvetica,sans-Serif" font-size="11.00">id</text>
<polygon fill="#ffffff" stroke="none" points="282,-240 282,-262 416,-262 416,-240 282,-240"/>
<polygon fill="none" stroke="black" points="282,-240 282,-262 416,-262 416,-240 282,-240"/>
<text text-anchor="start" x="314" y="-248.2" font-family="Helvetica,sans-Serif" font-size="11.00">role</text>
<polygon fill="#ffffff" stroke="none" points="282,-218 282,-240 416,-240 416,-218 282,-218"/>
<polygon fill="none" stroke="black" points="282,-218 282,-240 416,-240 416,-218 282,-218"/>
<image xlink:href="../../images/foreignKeys.png" width="11px" height="12px" preserveAspectRatio="xMinYMin meet" x="287" y="-235"/>
<text text-anchor="start" x="314" y="-226.2" font-family="Helvetica,sans-Serif" font-size="11.00">user_id</text>
<polygon fill="none" stroke="black" points="282,-200 282,-218 416,-218 416,-200 282,-200"/>
<text text-anchor="start" x="285" y="-206.2" font-family="Helvetica,sans-Serif" font-size="11.00">...</text>
<polygon fill="#ffffff" stroke="none" points="282,-182 282,-200 333,-200 333,-182 282,-182"/>
<polygon fill="none" stroke="black" points="282,-182 282,-200 333,-200 333,-182 282,-182"/>
<text text-anchor="start" x="285" y="-188.2" font-family="Helvetica,sans-Serif" font-size="11.00">&lt; 1</text>
<polygon fill="#ffffff" stroke="none" points="333,-182 333,-200 389,-200 389,-182 333,-182"/>
<polygon fill="none" stroke="black" points="333,-182 333,-200 389,-200 389,-182 333,-182"/>
<text text-anchor="start" x="350" y="-188.2" font-family="Helvetica,sans-Serif" font-size="11.00">0 rows</text>
<polygon fill="#ffffff" stroke="none" points="389,-182 389,-200 416,-200 416,-182 389,-182"/>
<polygon fill="none" stroke="black" points="389,-182 389,-200 416,-200 416,-182 389,-182"/>
<text text-anchor="start" x="406" y="-188.2" font-family="Helvetica,sans-Serif" font-size="11.00"> &#160;</text>
</a>
</g>
</g>
<!-- users -->
<g id="node2" class="node"><title>users</title>
<g id="a_node2"><a xlink:href="../../tables/users.html" xlink:title="users" target="_top">
<polygon fill="#ffffff" stroke="none" points="8,-37 8,-191 233,-191 233,-37 8,-37"/>
<polygon fill="#f5f5f5" stroke="none" points="10.5,-167 10.5,-189 231.5,-189 231.5,-167 10.5,-167"/>
<polygon fill="none" stroke="black" points="10.5,-167 10.5,-189 231.5,-189 231.5,-167 10.5,-167"/>
<text text-anchor="start" x="15.5" y="-176.2" font-family="Helvetica,sans-Serif" font-weight="bold" font-size="11.00">users</text>
<text text-anchor="start" x="192.5" y="-175.2" font-family="Helvetica,sans-Serif" font-size="11.00">[table]</text>
<polygon fill="none" stroke="black" points="10.5,-145 10.5,-167 122.5,-167 122.5,-145 10.5,-145"/>
<image xlink:href="../../images/primaryKeys.png" width="11px" height="12px" preserveAspectRatio="xMinYMin meet" x="15.5" y="-162"/>
<text text-anchor="start" x="30.5" y="-153.2" font-family="Helvetica,sans-Serif" font-size="11.00">id</text>
<polygon fill="none" stroke="black" points="122.5,-145 122.5,-167 231.5,-167 231.5,-145 122.5,-145"/>
<text text-anchor="start" x="125.5" y="-153.2" font-family="Helvetica,sans-Serif" font-size="11.00">bigserial[19]</text>
<polygon fill="#ffffff" stroke="none" points="10.5,-123 10.5,-145 122.5,-145 122.5,-123 10.5,-123"/>
<polygon fill="none" stroke="black" points="10.5,-123 10.5,-145 122.5,-145 122.5,-123 10.5,-123"/>
<text text-anchor="start" x="30.5" y="-131.2" font-family="Helvetica,sans-Serif" font-size="11.00">username</text>
<polygon fill="none" stroke="black" points="122.5,-123 122.5,-145 231.5,-145 231.5,-123 122.5,-123"/>
<text text-anchor="start" x="125.5" y="-131.2" font-family="Helvetica,sans-Serif" font-size="11.00">citext[2147483647]</text>
<polygon fill="none" stroke="black" points="10.5,-101 10.5,-123 122.5,-123 122.5,-101 10.5,-101"/>
<text text-anchor="start" x="30.5" y="-109.2" font-family="Helvetica,sans-Serif" font-size="11.00">password_hash</text>
<polygon fill="none" stroke="black" points="122.5,-101 122.5,-123 231.5,-123 231.5,-101 122.5,-101"/>
<text text-anchor="start" x="125.5" y="-109.2" font-family="Helvetica,sans-Serif" font-size="11.00">varchar[255]</text>
<polygon fill="none" stroke="black" points="10.5,-79 10.5,-101 122.5,-101 122.5,-79 10.5,-79"/>
<text text-anchor="start" x="30.5" y="-87.2" font-family="Helvetica,sans-Serif" font-size="11.00">inserted_at</text>
<polygon fill="none" stroke="black" points="122.5,-79 122.5,-101 231.5,-101 231.5,-79 122.5,-79"/>
<text text-anchor="start" x="125.5" y="-87.2" font-family="Helvetica,sans-Serif" font-size="11.00">timestamp[29,6]</text>
<polygon fill="none" stroke="black" points="10.5,-57 10.5,-79 122.5,-79 122.5,-57 10.5,-57"/>
<text text-anchor="start" x="30.5" y="-65.2" font-family="Helvetica,sans-Serif" font-size="11.00">updated_at</text>
<polygon fill="none" stroke="black" points="122.5,-57 122.5,-79 231.5,-79 231.5,-57 122.5,-57"/>
<text text-anchor="start" x="125.5" y="-65.2" font-family="Helvetica,sans-Serif" font-size="11.00">timestamp[29,6]</text>
<polygon fill="#ffffff" stroke="none" points="10.5,-39 10.5,-57 56.5,-57 56.5,-39 10.5,-39"/>
<polygon fill="none" stroke="black" points="10.5,-39 10.5,-57 56.5,-57 56.5,-39 10.5,-39"/>
<text text-anchor="start" x="13.5" y="-45.2" font-family="Helvetica,sans-Serif" font-size="11.00">&lt; 0</text>
<polygon fill="#ffffff" stroke="none" points="56.5,-39 56.5,-57 122.5,-57 122.5,-39 56.5,-39"/>
<polygon fill="none" stroke="black" points="56.5,-39 56.5,-57 122.5,-57 122.5,-39 56.5,-39"/>
<text text-anchor="start" x="83.5" y="-45.2" font-family="Helvetica,sans-Serif" font-size="11.00">0 rows</text>
<polygon fill="#ffffff" stroke="none" points="122.5,-39 122.5,-57 231.5,-57 231.5,-39 122.5,-39"/>
<polygon fill="none" stroke="black" points="122.5,-39 122.5,-57 231.5,-57 231.5,-39 122.5,-39"/>
<text text-anchor="start" x="211.5" y="-45.2" font-family="Helvetica,sans-Serif" font-size="11.00">2 &gt;</text>
<polygon fill="none" stroke="black" stroke-width="2" points="9,-38 9,-190 232,-190 232,-38 9,-38"/>
</a>
</g>
</g>
<!-- administrators&#45;&gt;users -->
<g id="edge1" class="edge"><title>administrators:user_id:w&#45;&gt;users:id.type:e</title>
<path fill="none" stroke="black" d="M270.796,-226.735C247.49,-214.414 267.344,-156 232.5,-156"/>
<polygon fill="black" stroke="black" points="281.086,-224.922 279.352,-232.732 277.79,-232.385 279.524,-224.575 281.086,-224.922"/>
<polyline fill="none" stroke="black" points="281,-229 277.095,-228.133 "/>
<ellipse fill="none" stroke="black" cx="273.971" cy="-227.44" rx="3.20001" ry="3.20001"/>
</g>
<!-- user_contacts -->
<g id="node3" class="node"><title>user_contacts</title>
<g id="a_node3"><a xlink:href="../../tables/user_contacts.html" xlink:title="user_contacts" target="_top">
<polygon fill="#ffffff" stroke="none" points="285.5,-37 285.5,-161 412.5,-161 412.5,-37 285.5,-37"/>
<polygon fill="#f5f5f5" stroke="none" points="286,-139 286,-161 413,-161 413,-139 286,-139"/>
<polygon fill="none" stroke="black" points="286,-139 286,-161 413,-161 413,-139 286,-139"/>
<text text-anchor="start" x="291" y="-148.2" font-family="Helvetica,sans-Serif" font-weight="bold" font-size="11.00">user_contacts</text>
<text text-anchor="start" x="374" y="-147.2" font-family="Helvetica,sans-Serif" font-size="11.00">[table]</text>
<polygon fill="none" stroke="black" points="286,-117 286,-139 413,-139 413,-117 286,-117"/>
<image xlink:href="../../images/primaryKeys.png" width="11px" height="12px" preserveAspectRatio="xMinYMin meet" x="291" y="-134"/>
<text text-anchor="start" x="318" y="-125.2" font-family="Helvetica,sans-Serif" font-size="11.00">id</text>
<polygon fill="#ffffff" stroke="none" points="286,-95 286,-117 413,-117 413,-95 286,-95"/>
<polygon fill="none" stroke="black" points="286,-95 286,-117 413,-117 413,-95 286,-95"/>
<text text-anchor="start" x="318" y="-103.2" font-family="Helvetica,sans-Serif" font-size="11.00">email</text>
<polygon fill="#ffffff" stroke="none" points="286,-73 286,-95 413,-95 413,-73 286,-73"/>
<polygon fill="none" stroke="black" points="286,-73 286,-95 413,-95 413,-73 286,-73"/>
<image xlink:href="../../images/foreignKeys.png" width="11px" height="12px" preserveAspectRatio="xMinYMin meet" x="291" y="-90"/>
<text text-anchor="start" x="318" y="-81.2" font-family="Helvetica,sans-Serif" font-size="11.00">user_id</text>
<polygon fill="none" stroke="black" points="286,-55 286,-73 413,-73 413,-55 286,-55"/>
<text text-anchor="start" x="289" y="-61.2" font-family="Helvetica,sans-Serif" font-size="11.00">...</text>
<polygon fill="#ffffff" stroke="none" points="286,-37 286,-55 333,-55 333,-37 286,-37"/>
<polygon fill="none" stroke="black" points="286,-37 286,-55 333,-55 333,-37 286,-37"/>
<text text-anchor="start" x="289" y="-43.2" font-family="Helvetica,sans-Serif" font-size="11.00">&lt; 1</text>
<polygon fill="#ffffff" stroke="none" points="333,-37 333,-55 387,-55 387,-37 333,-37"/>
<polygon fill="none" stroke="black" points="333,-37 333,-55 387,-55 387,-37 333,-37"/>
<text text-anchor="start" x="348" y="-43.2" font-family="Helvetica,sans-Serif" font-size="11.00">0 rows</text>
<polygon fill="#ffffff" stroke="none" points="387,-37 387,-55 413,-55 413,-37 387,-37"/>
<polygon fill="none" stroke="black" points="387,-37 387,-55 413,-55 413,-37 387,-37"/>
<text text-anchor="start" x="403" y="-43.2" font-family="Helvetica,sans-Serif" font-size="11.00"> &#160;</text>
</a>
</g>
</g>
<!-- user_contacts&#45;&gt;users -->
<g id="edge2" class="edge"><title>user_contacts:user_id:w&#45;&gt;users:id.type:e</title>
<path fill="none" stroke="black" d="M274.526,-86.2338C250.292,-98.3866 267.927,-156 232.5,-156"/>
<polygon fill="black" stroke="black" points="283.383,-80.2549 285.052,-88.0789 283.487,-88.4126 281.818,-80.5886 283.383,-80.2549"/>
<polyline fill="none" stroke="black" points="285,-84 281.088,-84.8344 "/>
<ellipse fill="none" stroke="black" cx="277.958" cy="-85.5019" rx="3.20001" ry="3.20001"/>
</g>
</g>
</svg>
