<?xml version="1.0" encoding="UTF-8" standalone="no"?>
<!DOCTYPE svg PUBLIC "-//W3C//DTD SVG 1.1//EN"
 "http://www.w3.org/Graphics/SVG/1.1/DTD/svg11.dtd">
<!-- Generated by graphviz version 9.0.0 (20230911.1827)
 -->
<!-- Title: oneDegreeRelationshipsDiagram Pages: 1 -->
<svg width="386pt" height="247pt"
 viewBox="0.00 0.00 386.00 247.00" xmlns="http://www.w3.org/2000/svg" xmlns:xlink="http://www.w3.org/1999/xlink">
<g id="graph0" class="graph" transform="scale(1 1) rotate(0) translate(4 243)">
<title>oneDegreeRelationshipsDiagram</title>
<polygon fill="#ffffff" stroke="none" points="-4,4 -4,-243 382,-243 382,4 -4,4"/>
<text text-anchor="middle" x="71.38" y="-5.55" font-family="Helvetica,sans-Serif" font-size="11.00">Generated by SchemaSpy</text>
<!-- user_contacts -->
<g id="node1" class="node">
<title>user_contacts</title>
<g id="a_node1"><a xlink:href="../../tables/user_contacts.html" xlink:title="user_contacts" target="_top">
<polygon fill="#ffffff" stroke="none" points="168,-37 168,-235 370,-235 370,-37 168,-37"/>
<polygon fill="#f5f5f5" stroke="none" points="170,-211 170,-233 368,-233 368,-211 170,-211"/>
<polygon fill="none" stroke="black" points="170,-211 170,-233 368,-233 368,-211 170,-211"/>
<text text-anchor="start" x="175" y="-218.55" font-family="Helvetica,sans-Serif" font-weight="bold" font-size="11.00">user_contacts</text>
<text text-anchor="start" x="333.75" y="-217.55" font-family="Helvetica,sans-Serif" font-size="11.00">[table]</text>
<polygon fill="none" stroke="black" points="170,-189 170,-211 272,-211 272,-189 170,-189"/>
<image xlink:href="../../images/primaryKeys.png" width="11px" height="12px" preserveAspectRatio="xMinYMin meet" x="175" y="-206"/>
<text text-anchor="start" x="190" y="-195.55" font-family="Helvetica,sans-Serif" font-size="11.00">id</text>
<polygon fill="none" stroke="black" points="272,-189 272,-211 368,-211 368,-189 272,-189"/>
<text text-anchor="start" x="275" y="-195.55" font-family="Helvetica,sans-Serif" font-size="11.00">bigserial[19]</text>
<polygon fill="#ffffff" stroke="none" points="170,-167 170,-189 272,-189 272,-167 170,-167"/>
<polygon fill="none" stroke="black" points="170,-167 170,-189 272,-189 272,-167 170,-167"/>
<text text-anchor="start" x="190" y="-173.55" font-family="Helvetica,sans-Serif" font-size="11.00">email</text>
<polygon fill="none" stroke="black" points="272,-167 272,-189 368,-189 368,-167 272,-167"/>
<text text-anchor="start" x="274.62" y="-173.55" font-family="Helvetica,sans-Serif" font-size="11.00">citext[2147483647]</text>
<polygon fill="#ffffff" stroke="none" points="170,-145 170,-167 272,-167 272,-145 170,-145"/>
<polygon fill="none" stroke="black" points="170,-145 170,-167 272,-167 272,-145 170,-145"/>
<image xlink:href="../../images/foreignKeys.png" width="11px" height="12px" preserveAspectRatio="xMinYMin meet" x="175" y="-162"/>
<text text-anchor="start" x="190" y="-151.55" font-family="Helvetica,sans-Serif" font-size="11.00">user_id</text>
<polygon fill="none" stroke="black" points="272,-145 272,-167 368,-167 368,-145 272,-145"/>
<text text-anchor="start" x="275" y="-151.55" font-family="Helvetica,sans-Serif" font-size="11.00">int8[19]</text>
<polygon fill="none" stroke="black" points="170,-123 170,-145 272,-145 272,-123 170,-123"/>
<text text-anchor="start" x="190" y="-129.55" font-family="Helvetica,sans-Serif" font-size="11.00">primary</text>
<polygon fill="none" stroke="black" points="272,-123 272,-145 368,-145 368,-123 272,-123"/>
<text text-anchor="start" x="275" y="-129.55" font-family="Helvetica,sans-Serif" font-size="11.00">bool[1]</text>
<polygon fill="none" stroke="black" points="170,-101 170,-123 272,-123 272,-101 170,-101"/>
<text text-anchor="start" x="190" y="-107.55" font-family="Helvetica,sans-Serif" font-size="11.00">verified</text>
<polygon fill="none" stroke="black" points="272,-101 272,-123 368,-123 368,-101 272,-101"/>
<text text-anchor="start" x="275" y="-107.55" font-family="Helvetica,sans-Serif" font-size="11.00">bool[1]</text>
<polygon fill="none" stroke="black" points="170,-79 170,-101 272,-101 272,-79 170,-79"/>
<text text-anchor="start" x="190" y="-85.55" font-family="Helvetica,sans-Serif" font-size="11.00">inserted_at</text>
<polygon fill="none" stroke="black" points="272,-79 272,-101 368,-101 368,-79 272,-79"/>
<text text-anchor="start" x="275" y="-85.55" font-family="Helvetica,sans-Serif" font-size="11.00">timestamp[29,6]</text>
<polygon fill="none" stroke="black" points="170,-57 170,-79 272,-79 272,-57 170,-57"/>
<text text-anchor="start" x="190" y="-63.55" font-family="Helvetica,sans-Serif" font-size="11.00">updated_at</text>
<polygon fill="none" stroke="black" points="272,-57 272,-79 368,-79 368,-57 272,-57"/>
<text text-anchor="start" x="275" y="-63.55" font-family="Helvetica,sans-Serif" font-size="11.00">timestamp[29,6]</text>
<polygon fill="#ffffff" stroke="none" points="170,-39 170,-57 225,-57 225,-39 170,-39"/>
<polygon fill="none" stroke="black" points="170,-39 170,-57 225,-57 225,-39 170,-39"/>
<text text-anchor="start" x="173" y="-43.55" font-family="Helvetica,sans-Serif" font-size="11.00">&lt; 1</text>
<polygon fill="#ffffff" stroke="none" points="225,-39 225,-57 272,-57 272,-39 225,-39"/>
<polygon fill="none" stroke="black" points="225,-39 225,-57 272,-57 272,-39 225,-39"/>
<text text-anchor="start" x="263" y="-43.55" font-family="Helvetica,sans-Serif" font-size="11.00"> &#160;</text>
<polygon fill="#ffffff" stroke="none" points="272,-39 272,-57 368,-57 368,-39 272,-39"/>
<polygon fill="none" stroke="black" points="272,-39 272,-57 368,-57 368,-39 272,-39"/>
<text text-anchor="start" x="349.25" y="-43.55" font-family="Helvetica,sans-Serif" font-size="11.00">0 &gt;</text>
<polygon fill="none" stroke="black" stroke-width="2" points="169,-38 169,-234 369,-234 369,-38 169,-38"/>
</a>
</g>
</g>
<!-- users -->
<g id="node2" class="node">
<title>users</title>
<g id="a_node2"><a xlink:href="../../tables/users.html" xlink:title="users" target="_top">
<polygon fill="#ffffff" stroke="none" points="8,-87 8,-189 119,-189 119,-87 8,-87"/>
<polygon fill="#f5f5f5" stroke="none" points="8,-167 8,-189 119,-189 119,-167 8,-167"/>
<polygon fill="none" stroke="black" points="8,-167 8,-189 119,-189 119,-167 8,-167"/>
<text text-anchor="start" x="12.38" y="-174.55" font-family="Helvetica,sans-Serif" font-weight="bold" font-size="11.00">users</text>
<text text-anchor="start" x="84.75" y="-173.55" font-family="Helvetica,sans-Serif" font-size="11.00">[table]</text>
<polygon fill="none" stroke="black" points="8,-145 8,-167 119,-167 119,-145 8,-145"/>
<image xlink:href="../../images/primaryKeys.png" width="11px" height="12px" preserveAspectRatio="xMinYMin meet" x="13" y="-162"/>
<text text-anchor="start" x="28" y="-151.55" font-family="Helvetica,sans-Serif" font-size="11.00">id</text>
<polygon fill="#ffffff" stroke="none" points="8,-123 8,-145 119,-145 119,-123 8,-123"/>
<polygon fill="none" stroke="black" points="8,-123 8,-145 119,-145 119,-123 8,-123"/>
<text text-anchor="start" x="28" y="-129.55" font-family="Helvetica,sans-Serif" font-size="11.00">username</text>
<polygon fill="none" stroke="black" points="8,-105 8,-123 119,-123 119,-105 8,-105"/>
<text text-anchor="start" x="11" y="-109.55" font-family="Helvetica,sans-Serif" font-size="11.00">...</text>
<polygon fill="#ffffff" stroke="none" points="8,-87 8,-105 53,-105 53,-87 8,-87"/>
<polygon fill="none" stroke="black" points="8,-87 8,-105 53,-105 53,-87 8,-87"/>
<text text-anchor="start" x="11" y="-91.55" font-family="Helvetica,sans-Serif" font-size="11.00"> &#160;</text>
<polygon fill="#ffffff" stroke="none" points="53,-87 53,-105 81,-105 81,-87 53,-87"/>
<polygon fill="none" stroke="black" points="53,-87 53,-105 81,-105 81,-87 53,-87"/>
<text text-anchor="start" x="72" y="-91.55" font-family="Helvetica,sans-Serif" font-size="11.00"> &#160;</text>
<polygon fill="#ffffff" stroke="none" points="81,-87 81,-105 119,-105 119,-87 81,-87"/>
<polygon fill="none" stroke="black" points="81,-87 81,-105 119,-105 119,-87 81,-87"/>
<text text-anchor="start" x="100.25" y="-91.55" font-family="Helvetica,sans-Serif" font-size="11.00">2 &gt;</text>
</a>
</g>
</g>
<!-- user_contacts&#45;&gt;users -->
<g id="edge1" class="edge">
<title>user_contacts:w&#45;&gt;users:e</title>
<path fill="none" stroke="black" d="M157.98,-156C144.72,-156 137.85,-156 120.5,-156"/>
<polygon fill="black" stroke="black" points="168.2,-152 168.2,-160 166.6,-160 166.6,-152 168.2,-152"/>
<polyline fill="none" stroke="black" points="169,-156 165,-156"/>
<ellipse fill="none" stroke="black" cx="161.3" cy="-156" rx="3.2" ry="3.2"/>
</g>
</g>
</svg>
