<?xml version="1.0" encoding="UTF-8" standalone="no"?>
<!DOCTYPE svg PUBLIC "-//W3C//DTD SVG 1.1//EN"
 "http://www.w3.org/Graphics/SVG/1.1/DTD/svg11.dtd">
<!-- Generated by graphviz version 2.38.0 (20140413.2041)
 -->
<!-- Title: twoDegreesRelationshipsDiagram Pages: 1 -->
<svg width="401pt" height="326pt"
 viewBox="0.00 0.00 401.00 326.00" xmlns="http://www.w3.org/2000/svg" xmlns:xlink="http://www.w3.org/1999/xlink">
<g id="graph0" class="graph" transform="scale(1 1) rotate(0) translate(4 322)">
<title>twoDegreesRelationshipsDiagram</title>
<polygon fill="#ffffff" stroke="none" points="-4,4 -4,-322 397,-322 397,4 -4,4"/>
<text text-anchor="middle" x="74.5" y="-7.2" font-family="Helvetica,sans-Serif" font-size="11.00">Generated by SchemaSpy</text>
<!-- administrators -->
<g id="node1" class="node"><title>administrators</title>
<g id="a_node1"><a xlink:href="../../tables/administrators.html" xlink:title="administrators" target="_top">
<polygon fill="#ffffff" stroke="none" points="210,-256 210,-314 344,-314 344,-256 210,-256"/>
<polygon fill="#f5f5f5" stroke="none" points="210,-292 210,-314 344,-314 344,-292 210,-292"/>
<polygon fill="none" stroke="black" points="210,-292 210,-314 344,-314 344,-292 210,-292"/>
<text text-anchor="start" x="215" y="-301.2" font-family="Helvetica,sans-Serif" font-weight="bold" font-size="11.00">administrators</text>
<text text-anchor="start" x="305" y="-300.2" font-family="Helvetica,sans-Serif" font-size="11.00">[table]</text>
<polygon fill="none" stroke="black" points="210,-274 210,-292 344,-292 344,-274 210,-274"/>
<text text-anchor="start" x="213" y="-280.2" font-family="Helvetica,sans-Serif" font-size="11.00">...</text>
<polygon fill="#ffffff" stroke="none" points="210,-256 210,-274 261,-274 261,-256 210,-256"/>
<polygon fill="none" stroke="black" points="210,-256 210,-274 261,-274 261,-256 210,-256"/>
<text text-anchor="start" x="213" y="-262.2" font-family="Helvetica,sans-Serif" font-size="11.00">&lt; 1</text>
<polygon fill="#ffffff" stroke="none" points="261,-256 261,-274 317,-274 317,-256 261,-256"/>
<polygon fill="none" stroke="black" points="261,-256 261,-274 317,-274 317,-256 261,-256"/>
<text text-anchor="start" x="278" y="-262.2" font-family="Helvetica,sans-Serif" font-size="11.00">0 rows</text>
<polygon fill="#ffffff" stroke="none" points="317,-256 317,-274 344,-274 344,-256 317,-256"/>
<polygon fill="none" stroke="black" points="317,-256 317,-274 344,-274 344,-256 317,-256"/>
<text text-anchor="start" x="334" y="-262.2" font-family="Helvetica,sans-Serif" font-size="11.00"> &#160;</text>
</a>
</g>
</g>
<!-- users -->
<g id="node2" class="node"><title>users</title>
<g id="a_node2"><a xlink:href="../../tables/users.html" xlink:title="users" target="_top">
<polygon fill="#ffffff" stroke="none" points="8,-150 8,-252 120,-252 120,-150 8,-150"/>
<polygon fill="#f5f5f5" stroke="none" points="8,-230 8,-252 120,-252 120,-230 8,-230"/>
<polygon fill="none" stroke="black" points="8,-230 8,-252 120,-252 120,-230 8,-230"/>
<text text-anchor="start" x="13" y="-239.2" font-family="Helvetica,sans-Serif" font-weight="bold" font-size="11.00">users</text>
<text text-anchor="start" x="81" y="-238.2" font-family="Helvetica,sans-Serif" font-size="11.00">[table]</text>
<polygon fill="none" stroke="black" points="8,-208 8,-230 120,-230 120,-208 8,-208"/>
<image xlink:href="../../images/primaryKeys.png" width="11px" height="12px" preserveAspectRatio="xMinYMin meet" x="13" y="-225"/>
<text text-anchor="start" x="28" y="-216.2" font-family="Helvetica,sans-Serif" font-size="11.00">id</text>
<polygon fill="#ffffff" stroke="none" points="8,-186 8,-208 120,-208 120,-186 8,-186"/>
<polygon fill="none" stroke="black" points="8,-186 8,-208 120,-208 120,-186 8,-186"/>
<text text-anchor="start" x="28" y="-194.2" font-family="Helvetica,sans-Serif" font-size="11.00">username</text>
<polygon fill="none" stroke="black" points="8,-168 8,-186 120,-186 120,-168 8,-168"/>
<text text-anchor="start" x="11" y="-174.2" font-family="Helvetica,sans-Serif" font-size="11.00">...</text>
<polygon fill="#ffffff" stroke="none" points="8,-150 8,-168 38,-168 38,-150 8,-150"/>
<polygon fill="none" stroke="black" points="8,-150 8,-168 38,-168 38,-150 8,-150"/>
<text text-anchor="start" x="11" y="-156.2" font-family="Helvetica,sans-Serif" font-size="11.00"> &#160;</text>
<polygon fill="#ffffff" stroke="none" points="38,-150 38,-168 88,-168 88,-150 38,-150"/>
<polygon fill="none" stroke="black" points="38,-150 38,-168 88,-168 88,-150 38,-150"/>
<text text-anchor="start" x="49" y="-156.2" font-family="Helvetica,sans-Serif" font-size="11.00">0 rows</text>
<polygon fill="#ffffff" stroke="none" points="88,-150 88,-168 120,-168 120,-150 88,-150"/>
<polygon fill="none" stroke="black" points="88,-150 88,-168 120,-168 120,-150 88,-150"/>
<text text-anchor="start" x="100" y="-156.2" font-family="Helvetica,sans-Serif" font-size="11.00">2 &gt;</text>
</a>
</g>
</g>
<!-- administrators&#45;&gt;users -->
<g id="edge1" class="edge"><title>administrators:elipses:w&#45;&gt;users:id:e</title>
<path fill="none" stroke="black" d="M198.945,-280.084C174.857,-267.563 142.063,-219 121,-219"/>
<polygon fill="black" stroke="black" points="209.346,-278.935 207.117,-286.619 205.581,-286.173 207.809,-278.49 209.346,-278.935"/>
<polyline fill="none" stroke="black" points="209,-283 205.158,-281.886 "/>
<ellipse fill="none" stroke="black" cx="202.085" cy="-280.994" rx="3.20001" ry="3.20001"/>
</g>
<!-- user_contacts -->
<g id="node3" class="node"><title>user_contacts</title>
<g id="a_node3"><a xlink:href="../../tables/user_contacts.html" xlink:title="user_contacts" target="_top">
<polygon fill="#ffffff" stroke="none" points="169,-37 169,-235 385,-235 385,-37 169,-37"/>
<polygon fill="#f5f5f5" stroke="none" points="171,-211 171,-233 383,-233 383,-211 171,-211"/>
<polygon fill="none" stroke="black" points="171,-211 171,-233 383,-233 383,-211 171,-211"/>
<text text-anchor="start" x="176" y="-220.2" font-family="Helvetica,sans-Serif" font-weight="bold" font-size="11.00">user_contacts</text>
<text text-anchor="start" x="344" y="-219.2" font-family="Helvetica,sans-Serif" font-size="11.00">[table]</text>
<polygon fill="none" stroke="black" points="171,-189 171,-211 274,-211 274,-189 171,-189"/>
<image xlink:href="../../images/primaryKeys.png" width="11px" height="12px" preserveAspectRatio="xMinYMin meet" x="176" y="-206"/>
<text text-anchor="start" x="191" y="-197.2" font-family="Helvetica,sans-Serif" font-size="11.00">id</text>
<polygon fill="none" stroke="black" points="274,-189 274,-211 383,-211 383,-189 274,-189"/>
<text text-anchor="start" x="277" y="-197.2" font-family="Helvetica,sans-Serif" font-size="11.00">bigserial[19]</text>
<polygon fill="#ffffff" stroke="none" points="171,-167 171,-189 274,-189 274,-167 171,-167"/>
<polygon fill="none" stroke="black" points="171,-167 171,-189 274,-189 274,-167 171,-167"/>
<text text-anchor="start" x="191" y="-175.2" font-family="Helvetica,sans-Serif" font-size="11.00">email</text>
<polygon fill="none" stroke="black" points="274,-167 274,-189 383,-189 383,-167 274,-167"/>
<text text-anchor="start" x="277" y="-175.2" font-family="Helvetica,sans-Serif" font-size="11.00">citext[2147483647]</text>
<polygon fill="#ffffff" stroke="none" points="171,-145 171,-167 274,-167 274,-145 171,-145"/>
<polygon fill="none" stroke="black" points="171,-145 171,-167 274,-167 274,-145 171,-145"/>
<image xlink:href="../../images/foreignKeys.png" width="11px" height="12px" preserveAspectRatio="xMinYMin meet" x="176" y="-162"/>
<text text-anchor="start" x="191" y="-153.2" font-family="Helvetica,sans-Serif" font-size="11.00">user_id</text>
<polygon fill="none" stroke="black" points="274,-145 274,-167 383,-167 383,-145 274,-145"/>
<text text-anchor="start" x="277" y="-153.2" font-family="Helvetica,sans-Serif" font-size="11.00">int8[19]</text>
<polygon fill="none" stroke="black" points="171,-123 171,-145 274,-145 274,-123 171,-123"/>
<text text-anchor="start" x="191" y="-131.2" font-family="Helvetica,sans-Serif" font-size="11.00">primary</text>
<polygon fill="none" stroke="black" points="274,-123 274,-145 383,-145 383,-123 274,-123"/>
<text text-anchor="start" x="277" y="-131.2" font-family="Helvetica,sans-Serif" font-size="11.00">bool[1]</text>
<polygon fill="none" stroke="black" points="171,-101 171,-123 274,-123 274,-101 171,-101"/>
<text text-anchor="start" x="191" y="-109.2" font-family="Helvetica,sans-Serif" font-size="11.00">verified</text>
<polygon fill="none" stroke="black" points="274,-101 274,-123 383,-123 383,-101 274,-101"/>
<text text-anchor="start" x="277" y="-109.2" font-family="Helvetica,sans-Serif" font-size="11.00">bool[1]</text>
<polygon fill="none" stroke="black" points="171,-79 171,-101 274,-101 274,-79 171,-79"/>
<text text-anchor="start" x="191" y="-87.2" font-family="Helvetica,sans-Serif" font-size="11.00">inserted_at</text>
<polygon fill="none" stroke="black" points="274,-79 274,-101 383,-101 383,-79 274,-79"/>
<text text-anchor="start" x="277" y="-87.2" font-family="Helvetica,sans-Serif" font-size="11.00">timestamp[29,6]</text>
<polygon fill="none" stroke="black" points="171,-57 171,-79 274,-79 274,-57 171,-57"/>
<text text-anchor="start" x="191" y="-65.2" font-family="Helvetica,sans-Serif" font-size="11.00">updated_at</text>
<polygon fill="none" stroke="black" points="274,-57 274,-79 383,-79 383,-57 274,-57"/>
<text text-anchor="start" x="277" y="-65.2" font-family="Helvetica,sans-Serif" font-size="11.00">timestamp[29,6]</text>
<polygon fill="#ffffff" stroke="none" points="171,-39 171,-57 213,-57 213,-39 171,-39"/>
<polygon fill="none" stroke="black" points="171,-39 171,-57 213,-57 213,-39 171,-39"/>
<text text-anchor="start" x="174" y="-45.2" font-family="Helvetica,sans-Serif" font-size="11.00">&lt; 1</text>
<polygon fill="#ffffff" stroke="none" points="213,-39 213,-57 274,-57 274,-39 213,-39"/>
<polygon fill="none" stroke="black" points="213,-39 213,-57 274,-57 274,-39 213,-39"/>
<text text-anchor="start" x="235" y="-45.2" font-family="Helvetica,sans-Serif" font-size="11.00">0 rows</text>
<polygon fill="#ffffff" stroke="none" points="274,-39 274,-57 383,-57 383,-39 274,-39"/>
<polygon fill="none" stroke="black" points="274,-39 274,-57 383,-57 383,-39 274,-39"/>
<text text-anchor="start" x="363" y="-45.2" font-family="Helvetica,sans-Serif" font-size="11.00">0 &gt;</text>
<polygon fill="none" stroke="black" stroke-width="2" points="170,-38 170,-234 384,-234 384,-38 170,-38"/>
</a>
</g>
</g>
<!-- user_contacts&#45;&gt;users -->
<g id="edge2" class="edge"><title>user_contacts:user_id:w&#45;&gt;users:id:e</title>
<path fill="none" stroke="black" d="M159.71,-158.393C138.883,-169.9 152.315,-219 121,-219"/>
<polygon fill="black" stroke="black" points="168.315,-152.285 170.127,-160.077 168.568,-160.44 166.756,-152.648 168.315,-152.285"/>
<polyline fill="none" stroke="black" points="170,-156 166.104,-156.906 "/>
<ellipse fill="none" stroke="black" cx="162.987" cy="-157.631" rx="3.20001" ry="3.20001"/>
</g>
</g>
</svg>
