<?xml version="1.0" encoding="UTF-8" standalone="no"?>
<!DOCTYPE svg PUBLIC "-//W3C//DTD SVG 1.1//EN"
 "http://www.w3.org/Graphics/SVG/1.1/DTD/svg11.dtd">
<!-- Generated by graphviz version 2.43.0 (0)
 -->
<!-- Title: oneDegreeRelationshipsDiagram Pages: 1 -->
<svg width="479pt" height="318pt"
 viewBox="0.00 0.00 479.00 318.00" xmlns="http://www.w3.org/2000/svg" xmlns:xlink="http://www.w3.org/1999/xlink">
<g id="graph0" class="graph" transform="scale(1 1) rotate(0) translate(4 314)">
<title>oneDegreeRelationshipsDiagram</title>
<polygon fill="#ffffff" stroke="transparent" points="-4,4 -4,-314 475,-314 475,4 -4,4"/>
<text text-anchor="middle" x="79.5" y="-7.2" font-family="Helvetica,sans-Serif" font-size="11.00">Generated by SchemaSpy</text>
<!-- administrators -->
<g id="node1" class="node">
<title>administrators</title>
<g id="a_node1"><a xlink:href="../../tables/administrators.html" xlink:title="administrators" target="_top">
<polygon fill="#ffffff" stroke="transparent" points="308,-182 308,-306 463,-306 463,-182 308,-182"/>
<polygon fill="#f5f5f5" stroke="transparent" points="308.5,-284 308.5,-306 463.5,-306 463.5,-284 308.5,-284"/>
<polygon fill="none" stroke="black" points="308.5,-284 308.5,-306 463.5,-306 463.5,-284 308.5,-284"/>
<text text-anchor="start" x="313.5" y="-293.2" font-family="Helvetica,sans-Serif" font-weight="bold" font-size="11.00">administrators</text>
<text text-anchor="start" x="421.5" y="-292.2" font-family="Helvetica,sans-Serif" font-size="11.00">[table]</text>
<polygon fill="none" stroke="black" points="308.5,-262 308.5,-284 463.5,-284 463.5,-262 308.5,-262"/>
<image xlink:href="../../images/primaryKeys.png" width="11px" height="12px" preserveAspectRatio="xMinYMin meet" x="313.5" y="-279"/>
<text text-anchor="start" x="341.5" y="-270.2" font-family="Helvetica,sans-Serif" font-size="11.00">id</text>
<polygon fill="#ffffff" stroke="transparent" points="308.5,-240 308.5,-262 463.5,-262 463.5,-240 308.5,-240"/>
<polygon fill="none" stroke="black" points="308.5,-240 308.5,-262 463.5,-262 463.5,-240 308.5,-240"/>
<text text-anchor="start" x="341.5" y="-248.2" font-family="Helvetica,sans-Serif" font-size="11.00">role</text>
<polygon fill="#ffffff" stroke="transparent" points="308.5,-218 308.5,-240 463.5,-240 463.5,-218 308.5,-218"/>
<polygon fill="none" stroke="black" points="308.5,-218 308.5,-240 463.5,-240 463.5,-218 308.5,-218"/>
<image xlink:href="../../images/foreignKeys.png" width="11px" height="12px" preserveAspectRatio="xMinYMin meet" x="313.5" y="-235"/>
<text text-anchor="start" x="341.5" y="-226.2" font-family="Helvetica,sans-Serif" font-size="11.00">user_id</text>
<polygon fill="none" stroke="black" points="308.5,-200 308.5,-218 463.5,-218 463.5,-200 308.5,-200"/>
<text text-anchor="start" x="311.5" y="-206.2" font-family="Helvetica,sans-Serif" font-size="11.00">...</text>
<polygon fill="#ffffff" stroke="transparent" points="308.5,-182 308.5,-200 463.5,-200 463.5,-182 308.5,-182"/>
<polygon fill="none" stroke="black" points="308.5,-182 308.5,-200 463.5,-200 463.5,-182 308.5,-182"/>
<polygon fill="#ffffff" stroke="transparent" points="309.5,-183 309.5,-199 368.5,-199 368.5,-183 309.5,-183"/>
<text text-anchor="start" x="311.5" y="-188.2" font-family="Helvetica,sans-Serif" font-size="11.00">&lt; 1</text>
<polygon fill="#ffffff" stroke="transparent" points="368.5,-183 368.5,-199 415.5,-199 415.5,-183 368.5,-183"/>
<text text-anchor="start" x="388" y="-188.2" font-family="Helvetica,sans-Serif" font-size="11.00"> &#160;</text>
<polygon fill="#ffffff" stroke="transparent" points="415.5,-183 415.5,-199 462.5,-199 462.5,-183 415.5,-183"/>
<text text-anchor="start" x="452.5" y="-188.2" font-family="Helvetica,sans-Serif" font-size="11.00"> &#160;</text>
<polygon fill="black" stroke="black" points="368.5,-183 368.5,-199 368.5,-199 368.5,-183 368.5,-183"/>
<polygon fill="black" stroke="black" points="415.5,-183 415.5,-199 415.5,-199 415.5,-183 415.5,-183"/>
</a>
</g>
</g>
<!-- users -->
<g id="node2" class="node">
<title>users</title>
<g id="a_node2"><a xlink:href="../../tables/users.html" xlink:title="users" target="_top">
<polygon fill="#ffffff" stroke="transparent" points="8,-37 8,-191 259,-191 259,-37 8,-37"/>
<polygon fill="#f5f5f5" stroke="transparent" points="10.5,-167 10.5,-189 257.5,-189 257.5,-167 10.5,-167"/>
<polygon fill="none" stroke="black" points="10.5,-167 10.5,-189 257.5,-189 257.5,-167 10.5,-167"/>
<text text-anchor="start" x="15.5" y="-176.2" font-family="Helvetica,sans-Serif" font-weight="bold" font-size="11.00">users</text>
<text text-anchor="start" x="215.5" y="-175.2" font-family="Helvetica,sans-Serif" font-size="11.00">[table]</text>
<polygon fill="none" stroke="black" points="10.5,-145 10.5,-167 142.5,-167 142.5,-145 10.5,-145"/>
<image xlink:href="../../images/primaryKeys.png" width="11px" height="12px" preserveAspectRatio="xMinYMin meet" x="15.5" y="-162"/>
<text text-anchor="start" x="30.5" y="-153.2" font-family="Helvetica,sans-Serif" font-size="11.00">id</text>
<polygon fill="none" stroke="black" points="142.5,-145 142.5,-167 257.5,-167 257.5,-145 142.5,-145"/>
<text text-anchor="start" x="145.5" y="-153.2" font-family="Helvetica,sans-Serif" font-size="11.00">bigserial[19]</text>
<polygon fill="#ffffff" stroke="transparent" points="10.5,-123 10.5,-145 142.5,-145 142.5,-123 10.5,-123"/>
<polygon fill="none" stroke="black" points="10.5,-123 10.5,-145 142.5,-145 142.5,-123 10.5,-123"/>
<text text-anchor="start" x="30.5" y="-131.2" font-family="Helvetica,sans-Serif" font-size="11.00">username</text>
<polygon fill="none" stroke="black" points="142.5,-123 142.5,-145 257.5,-145 257.5,-123 142.5,-123"/>
<text text-anchor="start" x="145.5" y="-131.2" font-family="Helvetica,sans-Serif" font-size="11.00">citext[2147483647]</text>
<polygon fill="none" stroke="black" points="10.5,-101 10.5,-123 142.5,-123 142.5,-101 10.5,-101"/>
<text text-anchor="start" x="30.5" y="-109.2" font-family="Helvetica,sans-Serif" font-size="11.00">password_hash</text>
<polygon fill="none" stroke="black" points="142.5,-101 142.5,-123 257.5,-123 257.5,-101 142.5,-101"/>
<text text-anchor="start" x="145.5" y="-109.2" font-family="Helvetica,sans-Serif" font-size="11.00">varchar[255]</text>
<polygon fill="none" stroke="black" points="10.5,-79 10.5,-101 142.5,-101 142.5,-79 10.5,-79"/>
<text text-anchor="start" x="30.5" y="-87.2" font-family="Helvetica,sans-Serif" font-size="11.00">inserted_at</text>
<polygon fill="none" stroke="black" points="142.5,-79 142.5,-101 257.5,-101 257.5,-79 142.5,-79"/>
<text text-anchor="start" x="145.5" y="-87.2" font-family="Helvetica,sans-Serif" font-size="11.00">timestamp[29,6]</text>
<polygon fill="none" stroke="black" points="10.5,-57 10.5,-79 142.5,-79 142.5,-57 10.5,-57"/>
<text text-anchor="start" x="30.5" y="-65.2" font-family="Helvetica,sans-Serif" font-size="11.00">updated_at</text>
<polygon fill="none" stroke="black" points="142.5,-57 142.5,-79 257.5,-79 257.5,-57 142.5,-57"/>
<text text-anchor="start" x="145.5" y="-65.2" font-family="Helvetica,sans-Serif" font-size="11.00">timestamp[29,6]</text>
<polygon fill="#ffffff" stroke="transparent" points="10.5,-39 10.5,-57 257.5,-57 257.5,-39 10.5,-39"/>
<polygon fill="none" stroke="black" points="10.5,-39 10.5,-57 257.5,-57 257.5,-39 10.5,-39"/>
<polygon fill="#ffffff" stroke="transparent" points="11.5,-40 11.5,-56 97.5,-56 97.5,-40 11.5,-40"/>
<text text-anchor="start" x="13.5" y="-45.2" font-family="Helvetica,sans-Serif" font-size="11.00">&lt; 0</text>
<polygon fill="#ffffff" stroke="transparent" points="97.5,-40 97.5,-56 171.5,-56 171.5,-40 97.5,-40"/>
<text text-anchor="start" x="130.5" y="-45.2" font-family="Helvetica,sans-Serif" font-size="11.00"> &#160;</text>
<polygon fill="#ffffff" stroke="transparent" points="171.5,-40 171.5,-56 256.5,-56 256.5,-40 171.5,-40"/>
<text text-anchor="start" x="234.5" y="-45.2" font-family="Helvetica,sans-Serif" font-size="11.00">2 &gt;</text>
<polygon fill="black" stroke="black" points="97.5,-40 97.5,-56 97.5,-56 97.5,-40 97.5,-40"/>
<polygon fill="black" stroke="black" points="171.5,-40 171.5,-56 171.5,-56 171.5,-40 171.5,-40"/>
<polygon fill="none" stroke="black" stroke-width="2" points="9,-38 9,-190 258,-190 258,-38 9,-38"/>
</a>
</g>
</g>
<!-- administrators&#45;&gt;users -->
<g id="edge1" class="edge">
<title>administrators:w&#45;&gt;users:e</title>
<path fill="none" stroke="black" d="M297.25,-226.74C273.81,-214.41 293.45,-156 258.5,-156"/>
<polygon fill="black" stroke="black" points="307.58,-224.92 305.86,-232.73 304.29,-232.39 306.02,-224.58 307.58,-224.92"/>
<polyline fill="none" stroke="black" points="307.5,-229 303.59,-228.14 "/>
<ellipse fill="none" stroke="black" cx="300.47" cy="-227.45" rx="3.2" ry="3.2"/>
</g>
<!-- user_contacts -->
<g id="node3" class="node">
<title>user_contacts</title>
<g id="a_node3"><a xlink:href="../../tables/user_contacts.html" xlink:title="user_contacts" target="_top">
<polygon fill="#ffffff" stroke="transparent" points="311.5,-37 311.5,-161 459.5,-161 459.5,-37 311.5,-37"/>
<polygon fill="#f5f5f5" stroke="transparent" points="311.5,-139 311.5,-161 459.5,-161 459.5,-139 311.5,-139"/>
<polygon fill="none" stroke="black" points="311.5,-139 311.5,-161 459.5,-161 459.5,-139 311.5,-139"/>
<text text-anchor="start" x="316.5" y="-148.2" font-family="Helvetica,sans-Serif" font-weight="bold" font-size="11.00">user_contacts</text>
<text text-anchor="start" x="417.5" y="-147.2" font-family="Helvetica,sans-Serif" font-size="11.00">[table]</text>
<polygon fill="none" stroke="black" points="311.5,-117 311.5,-139 459.5,-139 459.5,-117 311.5,-117"/>
<image xlink:href="../../images/primaryKeys.png" width="11px" height="12px" preserveAspectRatio="xMinYMin meet" x="316.5" y="-134"/>
<text text-anchor="start" x="344.5" y="-125.2" font-family="Helvetica,sans-Serif" font-size="11.00">id</text>
<polygon fill="#ffffff" stroke="transparent" points="311.5,-95 311.5,-117 459.5,-117 459.5,-95 311.5,-95"/>
<polygon fill="none" stroke="black" points="311.5,-95 311.5,-117 459.5,-117 459.5,-95 311.5,-95"/>
<text text-anchor="start" x="344.5" y="-103.2" font-family="Helvetica,sans-Serif" font-size="11.00">email</text>
<polygon fill="#ffffff" stroke="transparent" points="311.5,-73 311.5,-95 459.5,-95 459.5,-73 311.5,-73"/>
<polygon fill="none" stroke="black" points="311.5,-73 311.5,-95 459.5,-95 459.5,-73 311.5,-73"/>
<image xlink:href="../../images/foreignKeys.png" width="11px" height="12px" preserveAspectRatio="xMinYMin meet" x="316.5" y="-90"/>
<text text-anchor="start" x="344.5" y="-81.2" font-family="Helvetica,sans-Serif" font-size="11.00">user_id</text>
<polygon fill="none" stroke="black" points="311.5,-55 311.5,-73 459.5,-73 459.5,-55 311.5,-55"/>
<text text-anchor="start" x="314.5" y="-61.2" font-family="Helvetica,sans-Serif" font-size="11.00">...</text>
<polygon fill="#ffffff" stroke="transparent" points="311.5,-37 311.5,-55 459.5,-55 459.5,-37 311.5,-37"/>
<polygon fill="none" stroke="black" points="311.5,-37 311.5,-55 459.5,-55 459.5,-37 311.5,-37"/>
<polygon fill="#ffffff" stroke="transparent" points="312.5,-38 312.5,-54 369.5,-54 369.5,-38 312.5,-38"/>
<text text-anchor="start" x="314.5" y="-43.2" font-family="Helvetica,sans-Serif" font-size="11.00">&lt; 1</text>
<polygon fill="#ffffff" stroke="transparent" points="369.5,-38 369.5,-54 414.5,-54 414.5,-38 369.5,-38"/>
<text text-anchor="start" x="388" y="-43.2" font-family="Helvetica,sans-Serif" font-size="11.00"> &#160;</text>
<polygon fill="#ffffff" stroke="transparent" points="414.5,-38 414.5,-54 458.5,-54 458.5,-38 414.5,-38"/>
<text text-anchor="start" x="448.5" y="-43.2" font-family="Helvetica,sans-Serif" font-size="11.00"> &#160;</text>
<polygon fill="black" stroke="black" points="369.5,-38 369.5,-54 369.5,-54 369.5,-38 369.5,-38"/>
<polygon fill="black" stroke="black" points="414.5,-38 414.5,-54 414.5,-54 414.5,-38 414.5,-38"/>
</a>
</g>
</g>
<!-- user_contacts&#45;&gt;users -->
<g id="edge2" class="edge">
<title>user_contacts:w&#45;&gt;users:e</title>
<path fill="none" stroke="black" d="M300.07,-86.23C275.97,-98.39 293.81,-156 258.5,-156"/>
<polygon fill="black" stroke="black" points="308.88,-80.26 310.56,-88.08 308.99,-88.41 307.32,-80.59 308.88,-80.26"/>
<polyline fill="none" stroke="black" points="310.5,-84 306.59,-84.84 "/>
<ellipse fill="none" stroke="black" cx="303.46" cy="-85.51" rx="3.2" ry="3.2"/>
</g>
</g>
</svg>
