<?xml version="1.0" encoding="UTF-8" standalone="no"?>
<!DOCTYPE svg PUBLIC "-//W3C//DTD SVG 1.1//EN"
 "http://www.w3.org/Graphics/SVG/1.1/DTD/svg11.dtd">
<!-- Generated by graphviz version 2.43.0 (0)
 -->
<!-- Title: twoDegreesRelationshipsDiagram Pages: 1 -->
<svg width="446pt" height="326pt"
 viewBox="0.00 0.00 446.00 326.00" xmlns="http://www.w3.org/2000/svg" xmlns:xlink="http://www.w3.org/1999/xlink">
<g id="graph0" class="graph" transform="scale(1 1) rotate(0) translate(4 322)">
<title>twoDegreesRelationshipsDiagram</title>
<polygon fill="#ffffff" stroke="transparent" points="-4,4 -4,-322 442,-322 442,4 -4,4"/>
<text text-anchor="middle" x="79.5" y="-7.2" font-family="Helvetica,sans-Serif" font-size="11.00">Generated by SchemaSpy</text>
<!-- administrators -->
<g id="node1" class="node">
<title>administrators</title>
<g id="a_node1"><a xlink:href="../../tables/administrators.html" xlink:title="administrators" target="_top">
<polygon fill="#ffffff" stroke="transparent" points="232,-256 232,-314 387,-314 387,-256 232,-256"/>
<polygon fill="#f5f5f5" stroke="transparent" points="232.5,-292 232.5,-314 387.5,-314 387.5,-292 232.5,-292"/>
<polygon fill="none" stroke="black" points="232.5,-292 232.5,-314 387.5,-314 387.5,-292 232.5,-292"/>
<text text-anchor="start" x="237.5" y="-301.2" font-family="Helvetica,sans-Serif" font-weight="bold" font-size="11.00">administrators</text>
<text text-anchor="start" x="345.5" y="-300.2" font-family="Helvetica,sans-Serif" font-size="11.00">[table]</text>
<polygon fill="none" stroke="black" points="232.5,-274 232.5,-292 387.5,-292 387.5,-274 232.5,-274"/>
<text text-anchor="start" x="235.5" y="-280.2" font-family="Helvetica,sans-Serif" font-size="11.00">...</text>
<polygon fill="#ffffff" stroke="transparent" points="232.5,-256 232.5,-274 387.5,-274 387.5,-256 232.5,-256"/>
<polygon fill="none" stroke="black" points="232.5,-256 232.5,-274 387.5,-274 387.5,-256 232.5,-256"/>
<polygon fill="#ffffff" stroke="transparent" points="233.5,-257 233.5,-273 292.5,-273 292.5,-257 233.5,-257"/>
<text text-anchor="start" x="235.5" y="-262.2" font-family="Helvetica,sans-Serif" font-size="11.00">&lt; 1</text>
<polygon fill="#ffffff" stroke="transparent" points="292.5,-257 292.5,-273 339.5,-273 339.5,-257 292.5,-257"/>
<text text-anchor="start" x="312" y="-262.2" font-family="Helvetica,sans-Serif" font-size="11.00"> &#160;</text>
<polygon fill="#ffffff" stroke="transparent" points="339.5,-257 339.5,-273 386.5,-273 386.5,-257 339.5,-257"/>
<text text-anchor="start" x="376.5" y="-262.2" font-family="Helvetica,sans-Serif" font-size="11.00"> &#160;</text>
<polygon fill="black" stroke="black" points="292.5,-257 292.5,-273 292.5,-273 292.5,-257 292.5,-257"/>
<polygon fill="black" stroke="black" points="339.5,-257 339.5,-273 339.5,-273 339.5,-257 339.5,-257"/>
</a>
</g>
</g>
<!-- users -->
<g id="node2" class="node">
<title>users</title>
<g id="a_node2"><a xlink:href="../../tables/users.html" xlink:title="users" target="_top">
<polygon fill="#ffffff" stroke="transparent" points="8,-150 8,-252 140,-252 140,-150 8,-150"/>
<polygon fill="#f5f5f5" stroke="transparent" points="8,-230 8,-252 140,-252 140,-230 8,-230"/>
<polygon fill="none" stroke="black" points="8,-230 8,-252 140,-252 140,-230 8,-230"/>
<text text-anchor="start" x="13" y="-239.2" font-family="Helvetica,sans-Serif" font-weight="bold" font-size="11.00">users</text>
<text text-anchor="start" x="98" y="-238.2" font-family="Helvetica,sans-Serif" font-size="11.00">[table]</text>
<polygon fill="none" stroke="black" points="8,-208 8,-230 140,-230 140,-208 8,-208"/>
<image xlink:href="../../images/primaryKeys.png" width="11px" height="12px" preserveAspectRatio="xMinYMin meet" x="13" y="-225"/>
<text text-anchor="start" x="28" y="-216.2" font-family="Helvetica,sans-Serif" font-size="11.00">id</text>
<polygon fill="#ffffff" stroke="transparent" points="8,-186 8,-208 140,-208 140,-186 8,-186"/>
<polygon fill="none" stroke="black" points="8,-186 8,-208 140,-208 140,-186 8,-186"/>
<text text-anchor="start" x="28" y="-194.2" font-family="Helvetica,sans-Serif" font-size="11.00">username</text>
<polygon fill="none" stroke="black" points="8,-168 8,-186 140,-186 140,-168 8,-168"/>
<text text-anchor="start" x="11" y="-174.2" font-family="Helvetica,sans-Serif" font-size="11.00">...</text>
<polygon fill="#ffffff" stroke="transparent" points="8,-150 8,-168 140,-168 140,-150 8,-150"/>
<polygon fill="none" stroke="black" points="8,-150 8,-168 140,-168 140,-150 8,-150"/>
<polygon fill="#ffffff" stroke="transparent" points="9,-151 9,-167 49,-167 49,-151 9,-151"/>
<text text-anchor="start" x="11" y="-156.2" font-family="Helvetica,sans-Serif" font-size="11.00"> &#160;</text>
<polygon fill="#ffffff" stroke="transparent" points="49,-151 49,-167 88,-167 88,-151 49,-151"/>
<text text-anchor="start" x="64.5" y="-156.2" font-family="Helvetica,sans-Serif" font-size="11.00"> &#160;</text>
<polygon fill="#ffffff" stroke="transparent" points="88,-151 88,-167 139,-167 139,-151 88,-151"/>
<text text-anchor="start" x="117" y="-156.2" font-family="Helvetica,sans-Serif" font-size="11.00">2 &gt;</text>
<polygon fill="black" stroke="black" points="49,-151 49,-167 49,-167 49,-151 49,-151"/>
<polygon fill="black" stroke="black" points="88,-151 88,-167 88,-167 88,-151 88,-151"/>
</a>
</g>
</g>
<!-- administrators&#45;&gt;users -->
<g id="edge1" class="edge">
<title>administrators:w&#45;&gt;users:e</title>
<path fill="none" stroke="black" d="M221.9,-278.6C199.46,-264.14 151.34,-219 141,-219"/>
<polygon fill="black" stroke="black" points="232.44,-279.03 229.11,-286.3 227.65,-285.64 230.98,-278.36 232.44,-279.03"/>
<polyline fill="none" stroke="black" points="231.5,-283 227.86,-281.33 "/>
<ellipse fill="none" stroke="black" cx="224.95" cy="-280" rx="3.2" ry="3.2"/>
</g>
<!-- user_contacts -->
<g id="node3" class="node">
<title>user_contacts</title>
<g id="a_node3"><a xlink:href="../../tables/user_contacts.html" xlink:title="user_contacts" target="_top">
<polygon fill="#ffffff" stroke="transparent" points="189,-37 189,-235 430,-235 430,-37 189,-37"/>
<polygon fill="#f5f5f5" stroke="transparent" points="191.5,-211 191.5,-233 428.5,-233 428.5,-211 191.5,-211"/>
<polygon fill="none" stroke="black" points="191.5,-211 191.5,-233 428.5,-233 428.5,-211 191.5,-211"/>
<text text-anchor="start" x="196.5" y="-220.2" font-family="Helvetica,sans-Serif" font-weight="bold" font-size="11.00">user_contacts</text>
<text text-anchor="start" x="386.5" y="-219.2" font-family="Helvetica,sans-Serif" font-size="11.00">[table]</text>
<polygon fill="none" stroke="black" points="191.5,-189 191.5,-211 313.5,-211 313.5,-189 191.5,-189"/>
<image xlink:href="../../images/primaryKeys.png" width="11px" height="12px" preserveAspectRatio="xMinYMin meet" x="196.5" y="-206"/>
<text text-anchor="start" x="211.5" y="-197.2" font-family="Helvetica,sans-Serif" font-size="11.00">id</text>
<polygon fill="none" stroke="black" points="313.5,-189 313.5,-211 428.5,-211 428.5,-189 313.5,-189"/>
<text text-anchor="start" x="316.5" y="-197.2" font-family="Helvetica,sans-Serif" font-size="11.00">bigserial[19]</text>
<polygon fill="#ffffff" stroke="transparent" points="191.5,-167 191.5,-189 313.5,-189 313.5,-167 191.5,-167"/>
<polygon fill="none" stroke="black" points="191.5,-167 191.5,-189 313.5,-189 313.5,-167 191.5,-167"/>
<text text-anchor="start" x="211.5" y="-175.2" font-family="Helvetica,sans-Serif" font-size="11.00">email</text>
<polygon fill="none" stroke="black" points="313.5,-167 313.5,-189 428.5,-189 428.5,-167 313.5,-167"/>
<text text-anchor="start" x="316.5" y="-175.2" font-family="Helvetica,sans-Serif" font-size="11.00">citext[2147483647]</text>
<polygon fill="#ffffff" stroke="transparent" points="191.5,-145 191.5,-167 313.5,-167 313.5,-145 191.5,-145"/>
<polygon fill="none" stroke="black" points="191.5,-145 191.5,-167 313.5,-167 313.5,-145 191.5,-145"/>
<image xlink:href="../../images/foreignKeys.png" width="11px" height="12px" preserveAspectRatio="xMinYMin meet" x="196.5" y="-162"/>
<text text-anchor="start" x="211.5" y="-153.2" font-family="Helvetica,sans-Serif" font-size="11.00">user_id</text>
<polygon fill="none" stroke="black" points="313.5,-145 313.5,-167 428.5,-167 428.5,-145 313.5,-145"/>
<text text-anchor="start" x="316.5" y="-153.2" font-family="Helvetica,sans-Serif" font-size="11.00">int8[19]</text>
<polygon fill="none" stroke="black" points="191.5,-123 191.5,-145 313.5,-145 313.5,-123 191.5,-123"/>
<text text-anchor="start" x="211.5" y="-131.2" font-family="Helvetica,sans-Serif" font-size="11.00">primary</text>
<polygon fill="none" stroke="black" points="313.5,-123 313.5,-145 428.5,-145 428.5,-123 313.5,-123"/>
<text text-anchor="start" x="316.5" y="-131.2" font-family="Helvetica,sans-Serif" font-size="11.00">bool[1]</text>
<polygon fill="none" stroke="black" points="191.5,-101 191.5,-123 313.5,-123 313.5,-101 191.5,-101"/>
<text text-anchor="start" x="211.5" y="-109.2" font-family="Helvetica,sans-Serif" font-size="11.00">verified</text>
<polygon fill="none" stroke="black" points="313.5,-101 313.5,-123 428.5,-123 428.5,-101 313.5,-101"/>
<text text-anchor="start" x="316.5" y="-109.2" font-family="Helvetica,sans-Serif" font-size="11.00">bool[1]</text>
<polygon fill="none" stroke="black" points="191.5,-79 191.5,-101 313.5,-101 313.5,-79 191.5,-79"/>
<text text-anchor="start" x="211.5" y="-87.2" font-family="Helvetica,sans-Serif" font-size="11.00">inserted_at</text>
<polygon fill="none" stroke="black" points="313.5,-79 313.5,-101 428.5,-101 428.5,-79 313.5,-79"/>
<text text-anchor="start" x="316.5" y="-87.2" font-family="Helvetica,sans-Serif" font-size="11.00">timestamp[29,6]</text>
<polygon fill="none" stroke="black" points="191.5,-57 191.5,-79 313.5,-79 313.5,-57 191.5,-57"/>
<text text-anchor="start" x="211.5" y="-65.2" font-family="Helvetica,sans-Serif" font-size="11.00">updated_at</text>
<polygon fill="none" stroke="black" points="313.5,-57 313.5,-79 428.5,-79 428.5,-57 313.5,-57"/>
<text text-anchor="start" x="316.5" y="-65.2" font-family="Helvetica,sans-Serif" font-size="11.00">timestamp[29,6]</text>
<polygon fill="#ffffff" stroke="transparent" points="191.5,-39 191.5,-57 428.5,-57 428.5,-39 191.5,-39"/>
<polygon fill="none" stroke="black" points="191.5,-39 191.5,-57 428.5,-57 428.5,-39 191.5,-39"/>
<polygon fill="#ffffff" stroke="transparent" points="192.5,-40 192.5,-56 275.5,-56 275.5,-40 192.5,-40"/>
<text text-anchor="start" x="194.5" y="-45.2" font-family="Helvetica,sans-Serif" font-size="11.00">&lt; 1</text>
<polygon fill="#ffffff" stroke="transparent" points="275.5,-40 275.5,-56 345.5,-56 345.5,-40 275.5,-40"/>
<text text-anchor="start" x="306.5" y="-45.2" font-family="Helvetica,sans-Serif" font-size="11.00"> &#160;</text>
<polygon fill="#ffffff" stroke="transparent" points="345.5,-40 345.5,-56 427.5,-56 427.5,-40 345.5,-40"/>
<text text-anchor="start" x="405.5" y="-45.2" font-family="Helvetica,sans-Serif" font-size="11.00">0 &gt;</text>
<polygon fill="black" stroke="black" points="275.5,-40 275.5,-56 275.5,-56 275.5,-40 275.5,-40"/>
<polygon fill="black" stroke="black" points="345.5,-40 345.5,-56 345.5,-56 345.5,-40 345.5,-40"/>
<polygon fill="none" stroke="black" stroke-width="2" points="190,-38 190,-234 429,-234 429,-38 190,-38"/>
</a>
</g>
</g>
<!-- user_contacts&#45;&gt;users -->
<g id="edge2" class="edge">
<title>user_contacts:w&#45;&gt;users:e</title>
<path fill="none" stroke="black" d="M180.16,-158.39C159.19,-169.9 172.44,-219 141,-219"/>
<polygon fill="black" stroke="black" points="188.82,-152.28 190.62,-160.08 189.06,-160.44 187.26,-152.64 188.82,-152.28"/>
<polyline fill="none" stroke="black" points="190.5,-156 186.6,-156.9 "/>
<ellipse fill="none" stroke="black" cx="183.49" cy="-157.62" rx="3.2" ry="3.2"/>
</g>
</g>
</svg>
