<?xml version="1.0" encoding="UTF-8" standalone="no"?>
<!DOCTYPE svg PUBLIC "-//W3C//DTD SVG 1.1//EN"
 "http://www.w3.org/Graphics/SVG/1.1/DTD/svg11.dtd">
<!-- Generated by graphviz version 2.43.0 (0)
 -->
<!-- Title: oneDegreeRelationshipsDiagram Pages: 1 -->
<svg width="446pt" height="247pt"
 viewBox="0.00 0.00 446.00 247.00" xmlns="http://www.w3.org/2000/svg" xmlns:xlink="http://www.w3.org/1999/xlink">
<g id="graph0" class="graph" transform="scale(1 1) rotate(0) translate(4 243)">
<title>oneDegreeRelationshipsDiagram</title>
<polygon fill="#ffffff" stroke="transparent" points="-4,4 -4,-243 442,-243 442,4 -4,4"/>
<text text-anchor="middle" x="79.5" y="-7.2" font-family="Helvetica,sans-Serif" font-size="11.00">Generated by SchemaSpy</text>
<!-- user_contacts -->
<g id="node1" class="node">
<title>user_contacts</title>
<g id="a_node1"><a xlink:href="../../tables/user_contacts.html" xlink:title="user_contacts" target="_top">
<polygon fill="#ffffff" stroke="transparent" points="189,-37 189,-235 430,-235 430,-37 189,-37"/>
<polygon fill="#f5f5f5" stroke="transparent" points="191.5,-211 191.5,-233 428.5,-233 428.5,-211 191.5,-211"/>
<polygon fill="none" stroke="black" points="191.5,-211 191.5,-233 428.5,-233 428.5,-211 191.5,-211"/>
<text text-anchor="start" x="196.5" y="-220.2" font-family="Helvetica,sans-Serif" font-weight="bold" font-size="11.00">user_contacts</text>
<text text-anchor="start" x="386.5" y="-219.2" font-family="Helvetica,sans-Serif" font-size="11.00">[table]</text>
<polygon fill="none" stroke="black" points="191.5,-189 191.5,-211 313.5,-211 313.5,-189 191.5,-189"/>
<image xlink:href="../../images/primaryKeys.png" width="11px" height="12px" preserveAspectRatio="xMinYMin meet" x="196.5" y="-206"/>
<text text-anchor="start" x="211.5" y="-197.2" font-family="Helvetica,sans-Serif" font-size="11.00">id</text>
<polygon fill="none" stroke="black" points="313.5,-189 313.5,-211 428.5,-211 428.5,-189 313.5,-189"/>
<text text-anchor="start" x="316.5" y="-197.2" font-family="Helvetica,sans-Serif" font-size="11.00">bigserial[19]</text>
<polygon fill="#ffffff" stroke="transparent" points="191.5,-167 191.5,-189 313.5,-189 313.5,-167 191.5,-167"/>
<polygon fill="none" stroke="black" points="191.5,-167 191.5,-189 313.5,-189 313.5,-167 191.5,-167"/>
<text text-anchor="start" x="211.5" y="-175.2" font-family="Helvetica,sans-Serif" font-size="11.00">email</text>
<polygon fill="none" stroke="black" points="313.5,-167 313.5,-189 428.5,-189 428.5,-167 313.5,-167"/>
<text text-anchor="start" x="316.5" y="-175.2" font-family="Helvetica,sans-Serif" font-size="11.00">citext[2147483647]</text>
<polygon fill="#ffffff" stroke="transparent" points="191.5,-145 191.5,-167 313.5,-167 313.5,-145 191.5,-145"/>
<polygon fill="none" stroke="black" points="191.5,-145 191.5,-167 313.5,-167 313.5,-145 191.5,-145"/>
<image xlink:href="../../images/foreignKeys.png" width="11px" height="12px" preserveAspectRatio="xMinYMin meet" x="196.5" y="-162"/>
<text text-anchor="start" x="211.5" y="-153.2" font-family="Helvetica,sans-Serif" font-size="11.00">user_id</text>
<polygon fill="none" stroke="black" points="313.5,-145 313.5,-167 428.5,-167 428.5,-145 313.5,-145"/>
<text text-anchor="start" x="316.5" y="-153.2" font-family="Helvetica,sans-Serif" font-size="11.00">int8[19]</text>
<polygon fill="none" stroke="black" points="191.5,-123 191.5,-145 313.5,-145 313.5,-123 191.5,-123"/>
<text text-anchor="start" x="211.5" y="-131.2" font-family="Helvetica,sans-Serif" font-size="11.00">primary</text>
<polygon fill="none" stroke="black" points="313.5,-123 313.5,-145 428.5,-145 428.5,-123 313.5,-123"/>
<text text-anchor="start" x="316.5" y="-131.2" font-family="Helvetica,sans-Serif" font-size="11.00">bool[1]</text>
<polygon fill="none" stroke="black" points="191.5,-101 191.5,-123 313.5,-123 313.5,-101 191.5,-101"/>
<text text-anchor="start" x="211.5" y="-109.2" font-family="Helvetica,sans-Serif" font-size="11.00">verified</text>
<polygon fill="none" stroke="black" points="313.5,-101 313.5,-123 428.5,-123 428.5,-101 313.5,-101"/>
<text text-anchor="start" x="316.5" y="-109.2" font-family="Helvetica,sans-Serif" font-size="11.00">bool[1]</text>
<polygon fill="none" stroke="black" points="191.5,-79 191.5,-101 313.5,-101 313.5,-79 191.5,-79"/>
<text text-anchor="start" x="211.5" y="-87.2" font-family="Helvetica,sans-Serif" font-size="11.00">inserted_at</text>
<polygon fill="none" stroke="black" points="313.5,-79 313.5,-101 428.5,-101 428.5,-79 313.5,-79"/>
<text text-anchor="start" x="316.5" y="-87.2" font-family="Helvetica,sans-Serif" font-size="11.00">timestamp[29,6]</text>
<polygon fill="none" stroke="black" points="191.5,-57 191.5,-79 313.5,-79 313.5,-57 191.5,-57"/>
<text text-anchor="start" x="211.5" y="-65.2" font-family="Helvetica,sans-Serif" font-size="11.00">updated_at</text>
<polygon fill="none" stroke="black" points="313.5,-57 313.5,-79 428.5,-79 428.5,-57 313.5,-57"/>
<text text-anchor="start" x="316.5" y="-65.2" font-family="Helvetica,sans-Serif" font-size="11.00">timestamp[29,6]</text>
<polygon fill="#ffffff" stroke="transparent" points="191.5,-39 191.5,-57 428.5,-57 428.5,-39 191.5,-39"/>
<polygon fill="none" stroke="black" points="191.5,-39 191.5,-57 428.5,-57 428.5,-39 191.5,-39"/>
<polygon fill="#ffffff" stroke="transparent" points="192.5,-40 192.5,-56 275.5,-56 275.5,-40 192.5,-40"/>
<text text-anchor="start" x="194.5" y="-45.2" font-family="Helvetica,sans-Serif" font-size="11.00">&lt; 1</text>
<polygon fill="#ffffff" stroke="transparent" points="275.5,-40 275.5,-56 345.5,-56 345.5,-40 275.5,-40"/>
<text text-anchor="start" x="306.5" y="-45.2" font-family="Helvetica,sans-Serif" font-size="11.00"> &#160;</text>
<polygon fill="#ffffff" stroke="transparent" points="345.5,-40 345.5,-56 427.5,-56 427.5,-40 345.5,-40"/>
<text text-anchor="start" x="405.5" y="-45.2" font-family="Helvetica,sans-Serif" font-size="11.00">0 &gt;</text>
<polygon fill="black" stroke="black" points="275.5,-40 275.5,-56 275.5,-56 275.5,-40 275.5,-40"/>
<polygon fill="black" stroke="black" points="345.5,-40 345.5,-56 345.5,-56 345.5,-40 345.5,-40"/>
<polygon fill="none" stroke="black" stroke-width="2" points="190,-38 190,-234 429,-234 429,-38 190,-38"/>
</a>
</g>
</g>
<!-- users -->
<g id="node2" class="node">
<title>users</title>
<g id="a_node2"><a xlink:href="../../tables/users.html" xlink:title="users" target="_top">
<polygon fill="#ffffff" stroke="transparent" points="8,-87 8,-189 140,-189 140,-87 8,-87"/>
<polygon fill="#f5f5f5" stroke="transparent" points="8,-167 8,-189 140,-189 140,-167 8,-167"/>
<polygon fill="none" stroke="black" points="8,-167 8,-189 140,-189 140,-167 8,-167"/>
<text text-anchor="start" x="13" y="-176.2" font-family="Helvetica,sans-Serif" font-weight="bold" font-size="11.00">users</text>
<text text-anchor="start" x="98" y="-175.2" font-family="Helvetica,sans-Serif" font-size="11.00">[table]</text>
<polygon fill="none" stroke="black" points="8,-145 8,-167 140,-167 140,-145 8,-145"/>
<image xlink:href="../../images/primaryKeys.png" width="11px" height="12px" preserveAspectRatio="xMinYMin meet" x="13" y="-162"/>
<text text-anchor="start" x="28" y="-153.2" font-family="Helvetica,sans-Serif" font-size="11.00">id</text>
<polygon fill="#ffffff" stroke="transparent" points="8,-123 8,-145 140,-145 140,-123 8,-123"/>
<polygon fill="none" stroke="black" points="8,-123 8,-145 140,-145 140,-123 8,-123"/>
<text text-anchor="start" x="28" y="-131.2" font-family="Helvetica,sans-Serif" font-size="11.00">username</text>
<polygon fill="none" stroke="black" points="8,-105 8,-123 140,-123 140,-105 8,-105"/>
<text text-anchor="start" x="11" y="-111.2" font-family="Helvetica,sans-Serif" font-size="11.00">...</text>
<polygon fill="#ffffff" stroke="transparent" points="8,-87 8,-105 140,-105 140,-87 8,-87"/>
<polygon fill="none" stroke="black" points="8,-87 8,-105 140,-105 140,-87 8,-87"/>
<polygon fill="#ffffff" stroke="transparent" points="9,-88 9,-104 49,-104 49,-88 9,-88"/>
<text text-anchor="start" x="11" y="-93.2" font-family="Helvetica,sans-Serif" font-size="11.00"> &#160;</text>
<polygon fill="#ffffff" stroke="transparent" points="49,-88 49,-104 88,-104 88,-88 49,-88"/>
<text text-anchor="start" x="64.5" y="-93.2" font-family="Helvetica,sans-Serif" font-size="11.00"> &#160;</text>
<polygon fill="#ffffff" stroke="transparent" points="88,-88 88,-104 139,-104 139,-88 88,-88"/>
<text text-anchor="start" x="117" y="-93.2" font-family="Helvetica,sans-Serif" font-size="11.00">2 &gt;</text>
<polygon fill="black" stroke="black" points="49,-88 49,-104 49,-104 49,-88 49,-88"/>
<polygon fill="black" stroke="black" points="88,-88 88,-104 88,-104 88,-88 88,-88"/>
</a>
</g>
</g>
<!-- user_contacts&#45;&gt;users -->
<g id="edge1" class="edge">
<title>user_contacts:w&#45;&gt;users:e</title>
<path fill="none" stroke="black" d="M180.05,-156C165.99,-156 159.05,-156 141,-156"/>
<polygon fill="black" stroke="black" points="189.7,-152 189.7,-160 188.1,-160 188.1,-152 189.7,-152"/>
<polyline fill="none" stroke="black" points="190.5,-156 186.5,-156 "/>
<ellipse fill="none" stroke="black" cx="183.3" cy="-156" rx="3.2" ry="3.2"/>
</g>
</g>
</svg>
