<?xml version="1.0" encoding="UTF-8" standalone="no"?>
<!DOCTYPE svg PUBLIC "-//W3C//DTD SVG 1.1//EN"
 "http://www.w3.org/Graphics/SVG/1.1/DTD/svg11.dtd">
<!-- Generated by graphviz version 9.0.0 (20230911.1827)
 -->
<!-- Title: oneDegreeRelationshipsDiagram Pages: 1 -->
<svg width="406pt" height="318pt"
 viewBox="0.00 0.00 406.00 318.00" xmlns="http://www.w3.org/2000/svg" xmlns:xlink="http://www.w3.org/1999/xlink">
<g id="graph0" class="graph" transform="scale(1 1) rotate(0) translate(4 314)">
<title>oneDegreeRelationshipsDiagram</title>
<polygon fill="#ffffff" stroke="none" points="-4,4 -4,-314 402,-314 402,4 -4,4"/>
<text text-anchor="middle" x="71.38" y="-5.55" font-family="Helvetica,sans-Serif" font-size="11.00">Generated by SchemaSpy</text>
<!-- administrators -->
<g id="node1" class="node">
<title>administrators</title>
<g id="a_node1"><a xlink:href="../../tables/administrators.html" xlink:title="administrators" target="_top">
<polygon fill="#ffffff" stroke="none" points="268,-182 268,-306 390,-306 390,-182 268,-182"/>
<polygon fill="#f5f5f5" stroke="none" points="268,-284 268,-306 390,-306 390,-284 268,-284"/>
<polygon fill="none" stroke="black" points="268,-284 268,-306 390,-306 390,-284 268,-284"/>
<text text-anchor="start" x="273" y="-291.55" font-family="Helvetica,sans-Serif" font-weight="bold" font-size="11.00">administrators</text>
<text text-anchor="start" x="356" y="-290.55" font-family="Helvetica,sans-Serif" font-size="11.00">[table]</text>
<polygon fill="none" stroke="black" points="268,-262 268,-284 390,-284 390,-262 268,-262"/>
<image xlink:href="../../images/primaryKeys.png" width="11px" height="12px" preserveAspectRatio="xMinYMin meet" x="273" y="-279"/>
<text text-anchor="start" x="297" y="-268.55" font-family="Helvetica,sans-Serif" font-size="11.00">id</text>
<polygon fill="#ffffff" stroke="none" points="268,-240 268,-262 390,-262 390,-240 268,-240"/>
<polygon fill="none" stroke="black" points="268,-240 268,-262 390,-262 390,-240 268,-240"/>
<text text-anchor="start" x="297" y="-246.55" font-family="Helvetica,sans-Serif" font-size="11.00">role</text>
<polygon fill="#ffffff" stroke="none" points="268,-218 268,-240 390,-240 390,-218 268,-218"/>
<polygon fill="none" stroke="black" points="268,-218 268,-240 390,-240 390,-218 268,-218"/>
<image xlink:href="../../images/foreignKeys.png" width="11px" height="12px" preserveAspectRatio="xMinYMin meet" x="273" y="-235"/>
<text text-anchor="start" x="297" y="-224.55" font-family="Helvetica,sans-Serif" font-size="11.00">user_id</text>
<polygon fill="none" stroke="black" points="268,-200 268,-218 390,-218 390,-200 268,-200"/>
<text text-anchor="start" x="271" y="-204.55" font-family="Helvetica,sans-Serif" font-size="11.00">...</text>
<polygon fill="#ffffff" stroke="none" points="268,-182 268,-200 327,-200 327,-182 268,-182"/>
<polygon fill="none" stroke="black" points="268,-182 268,-200 327,-200 327,-182 268,-182"/>
<text text-anchor="start" x="271" y="-186.55" font-family="Helvetica,sans-Serif" font-size="11.00">&lt; 1</text>
<polygon fill="#ffffff" stroke="none" points="327,-182 327,-200 358,-200 358,-182 327,-182"/>
<polygon fill="none" stroke="black" points="327,-182 327,-200 358,-200 358,-182 327,-182"/>
<text text-anchor="start" x="349" y="-186.55" font-family="Helvetica,sans-Serif" font-size="11.00"> &#160;</text>
<polygon fill="#ffffff" stroke="none" points="358,-182 358,-200 390,-200 390,-182 358,-182"/>
<polygon fill="none" stroke="black" points="358,-182 358,-200 390,-200 390,-182 358,-182"/>
<text text-anchor="start" x="381" y="-186.55" font-family="Helvetica,sans-Serif" font-size="11.00"> &#160;</text>
</a>
</g>
</g>
<!-- users -->
<g id="node2" class="node">
<title>users</title>
<g id="a_node2"><a xlink:href="../../tables/users.html" xlink:title="users" target="_top">
<polygon fill="#ffffff" stroke="none" points="8,-37 8,-191 219,-191 219,-37 8,-37"/>
<polygon fill="#f5f5f5" stroke="none" points="10,-167 10,-189 217,-189 217,-167 10,-167"/>
<polygon fill="none" stroke="black" points="10,-167 10,-189 217,-189 217,-167 10,-167"/>
<text text-anchor="start" x="14.38" y="-174.55" font-family="Helvetica,sans-Serif" font-weight="bold" font-size="11.00">users</text>
<text text-anchor="start" x="182.75" y="-173.55" font-family="Helvetica,sans-Serif" font-size="11.00">[table]</text>
<polygon fill="none" stroke="black" points="10,-145 10,-167 121,-167 121,-145 10,-145"/>
<image xlink:href="../../images/primaryKeys.png" width="11px" height="12px" preserveAspectRatio="xMinYMin meet" x="15" y="-162"/>
<text text-anchor="start" x="30" y="-151.55" font-family="Helvetica,sans-Serif" font-size="11.00">id</text>
<polygon fill="none" stroke="black" points="121,-145 121,-167 217,-167 217,-145 121,-145"/>
<text text-anchor="start" x="124" y="-151.55" font-family="Helvetica,sans-Serif" font-size="11.00">bigserial[19]</text>
<polygon fill="#ffffff" stroke="none" points="10,-123 10,-145 121,-145 121,-123 10,-123"/>
<polygon fill="none" stroke="black" points="10,-123 10,-145 121,-145 121,-123 10,-123"/>
<text text-anchor="start" x="30" y="-129.55" font-family="Helvetica,sans-Serif" font-size="11.00">username</text>
<polygon fill="none" stroke="black" points="121,-123 121,-145 217,-145 217,-123 121,-123"/>
<text text-anchor="start" x="123.62" y="-129.55" font-family="Helvetica,sans-Serif" font-size="11.00">citext[2147483647]</text>
<polygon fill="none" stroke="black" points="10,-101 10,-123 121,-123 121,-101 10,-101"/>
<text text-anchor="start" x="30" y="-107.55" font-family="Helvetica,sans-Serif" font-size="11.00">password_hash</text>
<polygon fill="none" stroke="black" points="121,-101 121,-123 217,-123 217,-101 121,-101"/>
<text text-anchor="start" x="124" y="-107.55" font-family="Helvetica,sans-Serif" font-size="11.00">varchar[255]</text>
<polygon fill="none" stroke="black" points="10,-79 10,-101 121,-101 121,-79 10,-79"/>
<text text-anchor="start" x="30" y="-85.55" font-family="Helvetica,sans-Serif" font-size="11.00">inserted_at</text>
<polygon fill="none" stroke="black" points="121,-79 121,-101 217,-101 217,-79 121,-79"/>
<text text-anchor="start" x="124" y="-85.55" font-family="Helvetica,sans-Serif" font-size="11.00">timestamp[29,6]</text>
<polygon fill="none" stroke="black" points="10,-57 10,-79 121,-79 121,-57 10,-57"/>
<text text-anchor="start" x="30" y="-63.55" font-family="Helvetica,sans-Serif" font-size="11.00">updated_at</text>
<polygon fill="none" stroke="black" points="121,-57 121,-79 217,-79 217,-57 121,-57"/>
<text text-anchor="start" x="124" y="-63.55" font-family="Helvetica,sans-Serif" font-size="11.00">timestamp[29,6]</text>
<polygon fill="#ffffff" stroke="none" points="10,-39 10,-57 70,-57 70,-39 10,-39"/>
<polygon fill="none" stroke="black" points="10,-39 10,-57 70,-57 70,-39 10,-39"/>
<text text-anchor="start" x="13" y="-43.55" font-family="Helvetica,sans-Serif" font-size="11.00">&lt; 0</text>
<polygon fill="#ffffff" stroke="none" points="70,-39 70,-57 121,-57 121,-39 70,-39"/>
<polygon fill="none" stroke="black" points="70,-39 70,-57 121,-57 121,-39 70,-39"/>
<text text-anchor="start" x="112" y="-43.55" font-family="Helvetica,sans-Serif" font-size="11.00"> &#160;</text>
<polygon fill="#ffffff" stroke="none" points="121,-39 121,-57 217,-57 217,-39 121,-39"/>
<polygon fill="none" stroke="black" points="121,-39 121,-57 217,-57 217,-39 121,-39"/>
<text text-anchor="start" x="198.25" y="-43.55" font-family="Helvetica,sans-Serif" font-size="11.00">2 &gt;</text>
<polygon fill="none" stroke="black" stroke-width="2" points="9,-38 9,-190 218,-190 218,-38 9,-38"/>
</a>
</g>
</g>
<!-- administrators&#45;&gt;users -->
<g id="edge1" class="edge">
<title>administrators:w&#45;&gt;users:e</title>
<path fill="none" stroke="black" d="M256.2,-226.4C233.83,-213.4 253.04,-156 218.5,-156"/>
<polygon fill="black" stroke="black" points="267.16,-224.92 265.29,-232.7 263.73,-232.33 265.6,-224.55 267.16,-224.92"/>
<polyline fill="none" stroke="black" points="267,-229 263.11,-228.06"/>
<ellipse fill="none" stroke="black" cx="259.51" cy="-227.2" rx="3.2" ry="3.2"/>
</g>
<!-- user_contacts -->
<g id="node3" class="node">
<title>user_contacts</title>
<g id="a_node3"><a xlink:href="../../tables/user_contacts.html" xlink:title="user_contacts" target="_top">
<polygon fill="#ffffff" stroke="none" points="269,-37 269,-161 389,-161 389,-37 269,-37"/>
<polygon fill="#f5f5f5" stroke="none" points="269,-139 269,-161 389,-161 389,-139 269,-139"/>
<polygon fill="none" stroke="black" points="269,-139 269,-161 389,-161 389,-139 269,-139"/>
<text text-anchor="start" x="274" y="-146.55" font-family="Helvetica,sans-Serif" font-weight="bold" font-size="11.00">user_contacts</text>
<text text-anchor="start" x="355" y="-145.55" font-family="Helvetica,sans-Serif" font-size="11.00">[table]</text>
<polygon fill="none" stroke="black" points="269,-117 269,-139 389,-139 389,-117 269,-117"/>
<image xlink:href="../../images/primaryKeys.png" width="11px" height="12px" preserveAspectRatio="xMinYMin meet" x="274" y="-134"/>
<text text-anchor="start" x="298" y="-123.55" font-family="Helvetica,sans-Serif" font-size="11.00">id</text>
<polygon fill="#ffffff" stroke="none" points="269,-95 269,-117 389,-117 389,-95 269,-95"/>
<polygon fill="none" stroke="black" points="269,-95 269,-117 389,-117 389,-95 269,-95"/>
<text text-anchor="start" x="298" y="-101.55" font-family="Helvetica,sans-Serif" font-size="11.00">email</text>
<polygon fill="#ffffff" stroke="none" points="269,-73 269,-95 389,-95 389,-73 269,-73"/>
<polygon fill="none" stroke="black" points="269,-73 269,-95 389,-95 389,-73 269,-73"/>
<image xlink:href="../../images/foreignKeys.png" width="11px" height="12px" preserveAspectRatio="xMinYMin meet" x="274" y="-90"/>
<text text-anchor="start" x="298" y="-79.55" font-family="Helvetica,sans-Serif" font-size="11.00">user_id</text>
<polygon fill="none" stroke="black" points="269,-55 269,-73 389,-73 389,-55 269,-55"/>
<text text-anchor="start" x="272" y="-59.55" font-family="Helvetica,sans-Serif" font-size="11.00">...</text>
<polygon fill="#ffffff" stroke="none" points="269,-37 269,-55 327,-55 327,-37 269,-37"/>
<polygon fill="none" stroke="black" points="269,-37 269,-55 327,-55 327,-37 269,-37"/>
<text text-anchor="start" x="272" y="-41.55" font-family="Helvetica,sans-Serif" font-size="11.00">&lt; 1</text>
<polygon fill="#ffffff" stroke="none" points="327,-37 327,-55 358,-55 358,-37 327,-37"/>
<polygon fill="none" stroke="black" points="327,-37 327,-55 358,-55 358,-37 327,-37"/>
<text text-anchor="start" x="349" y="-41.55" font-family="Helvetica,sans-Serif" font-size="11.00"> &#160;</text>
<polygon fill="#ffffff" stroke="none" points="358,-37 358,-55 389,-55 389,-37 358,-37"/>
<polygon fill="none" stroke="black" points="358,-37 358,-55 389,-55 389,-37 358,-37"/>
<text text-anchor="start" x="380" y="-41.55" font-family="Helvetica,sans-Serif" font-size="11.00"> &#160;</text>
</a>
</g>
</g>
<!-- user_contacts&#45;&gt;users -->
<g id="edge2" class="edge">
<title>user_contacts:w&#45;&gt;users:e</title>
<path fill="none" stroke="black" d="M257.19,-86.56C234.69,-99.39 252.93,-156 218.5,-156"/>
<polygon fill="black" stroke="black" points="266.3,-80.29 268.14,-88.08 266.59,-88.45 264.74,-80.66 266.3,-80.29"/>
<polyline fill="none" stroke="black" points="268,-84 264.11,-84.92"/>
<ellipse fill="none" stroke="black" cx="260.51" cy="-85.78" rx="3.2" ry="3.2"/>
</g>
</g>
</svg>
