<?xml version="1.0" encoding="UTF-8" standalone="no"?>
<!DOCTYPE svg PUBLIC "-//W3C//DTD SVG 1.1//EN"
 "http://www.w3.org/Graphics/SVG/1.1/DTD/svg11.dtd">
<!-- Generated by graphviz version 9.0.0 (20230911.1827)
 -->
<!-- Title: oneDegreeRelationshipsDiagram Pages: 1 -->
<svg width="277pt" height="225pt"
 viewBox="0.00 0.00 277.00 225.00" xmlns="http://www.w3.org/2000/svg" xmlns:xlink="http://www.w3.org/1999/xlink">
<g id="graph0" class="graph" transform="scale(1 1) rotate(0) translate(4 221)">
<title>oneDegreeRelationshipsDiagram</title>
<polygon fill="#ffffff" stroke="none" points="-4,4 -4,-221 273,-221 273,4 -4,4"/>
<text text-anchor="middle" x="71.38" y="-5.55" font-family="Helvetica,sans-Serif" font-size="11.00">Generated by SchemaSpy</text>
<!-- validators -->
<g id="node1" class="node">
<title>validators</title>
<g id="a_node1"><a xlink:href="../../tables/validators.html" xlink:title="validators" target="_top">
<polygon fill="#ffffff" stroke="none" points="8,-37 8,-213 261,-213 261,-37 8,-37"/>
<polygon fill="#f5f5f5" stroke="none" points="10,-189 10,-211 259,-211 259,-189 10,-189"/>
<polygon fill="none" stroke="black" points="10,-189 10,-211 259,-211 259,-189 10,-189"/>
<text text-anchor="start" x="15" y="-196.55" font-family="Helvetica,sans-Serif" font-weight="bold" font-size="11.00">validators</text>
<text text-anchor="start" x="224.75" y="-195.55" font-family="Helvetica,sans-Serif" font-size="11.00">[table]</text>
<polygon fill="none" stroke="black" points="10,-167 10,-189 161,-189 161,-167 10,-167"/>
<image xlink:href="../../images/primaryKeys.png" width="11px" height="12px" preserveAspectRatio="xMinYMin meet" x="15" y="-184"/>
<text text-anchor="start" x="30" y="-173.55" font-family="Helvetica,sans-Serif" font-size="11.00">address_hash</text>
<polygon fill="none" stroke="black" points="161,-167 161,-189 259,-189 259,-167 161,-167"/>
<text text-anchor="start" x="163.88" y="-173.55" font-family="Helvetica,sans-Serif" font-size="11.00">bytea[2147483647]</text>
<polygon fill="none" stroke="black" points="10,-145 10,-167 161,-167 161,-145 10,-145"/>
<text text-anchor="start" x="30" y="-151.55" font-family="Helvetica,sans-Serif" font-size="11.00">is_validator</text>
<polygon fill="none" stroke="black" points="161,-145 161,-167 259,-167 259,-145 161,-145"/>
<text text-anchor="start" x="164" y="-151.55" font-family="Helvetica,sans-Serif" font-size="11.00">bool[1]</text>
<polygon fill="none" stroke="black" points="10,-123 10,-145 161,-145 161,-123 10,-123"/>
<text text-anchor="start" x="30" y="-129.55" font-family="Helvetica,sans-Serif" font-size="11.00">payout_key_hash</text>
<polygon fill="none" stroke="black" points="161,-123 161,-145 259,-145 259,-123 161,-123"/>
<text text-anchor="start" x="163.88" y="-129.55" font-family="Helvetica,sans-Serif" font-size="11.00">bytea[2147483647]</text>
<polygon fill="none" stroke="black" points="10,-101 10,-123 161,-123 161,-101 10,-101"/>
<text text-anchor="start" x="30" y="-107.55" font-family="Helvetica,sans-Serif" font-size="11.00">info_updated_at_block</text>
<polygon fill="none" stroke="black" points="161,-101 161,-123 259,-123 259,-101 161,-101"/>
<text text-anchor="start" x="164" y="-107.55" font-family="Helvetica,sans-Serif" font-size="11.00">int8[19]</text>
<polygon fill="none" stroke="black" points="10,-79 10,-101 161,-101 161,-79 10,-79"/>
<text text-anchor="start" x="30" y="-85.55" font-family="Helvetica,sans-Serif" font-size="11.00">inserted_at</text>
<polygon fill="none" stroke="black" points="161,-79 161,-101 259,-101 259,-79 161,-79"/>
<text text-anchor="start" x="164" y="-85.55" font-family="Helvetica,sans-Serif" font-size="11.00">timestamp[29,6]</text>
<polygon fill="none" stroke="black" points="10,-57 10,-79 161,-79 161,-57 10,-57"/>
<text text-anchor="start" x="30" y="-63.55" font-family="Helvetica,sans-Serif" font-size="11.00">updated_at</text>
<polygon fill="none" stroke="black" points="161,-57 161,-79 259,-79 259,-57 161,-57"/>
<text text-anchor="start" x="164" y="-63.55" font-family="Helvetica,sans-Serif" font-size="11.00">timestamp[29,6]</text>
<polygon fill="#ffffff" stroke="none" points="10,-39 10,-57 90,-57 90,-39 10,-39"/>
<polygon fill="none" stroke="black" points="10,-39 10,-57 90,-57 90,-39 10,-39"/>
<text text-anchor="start" x="13" y="-43.55" font-family="Helvetica,sans-Serif" font-size="11.00">&lt; 0</text>
<polygon fill="#ffffff" stroke="none" points="90,-39 90,-57 161,-57 161,-39 90,-39"/>
<polygon fill="none" stroke="black" points="90,-39 90,-57 161,-57 161,-39 90,-39"/>
<text text-anchor="start" x="152" y="-43.55" font-family="Helvetica,sans-Serif" font-size="11.00"> &#160;</text>
<polygon fill="#ffffff" stroke="none" points="161,-39 161,-57 259,-57 259,-39 161,-39"/>
<polygon fill="none" stroke="black" points="161,-39 161,-57 259,-57 259,-39 161,-39"/>
<text text-anchor="start" x="240.25" y="-43.55" font-family="Helvetica,sans-Serif" font-size="11.00">0 &gt;</text>
<polygon fill="none" stroke="black" stroke-width="2" points="9,-38 9,-212 260,-212 260,-38 9,-38"/>
</a>
</g>
</g>
</g>
</svg>
