<?xml version="1.0" encoding="UTF-8" standalone="no"?>
<!DOCTYPE svg PUBLIC "-//W3C//DTD SVG 1.1//EN"
 "http://www.w3.org/Graphics/SVG/1.1/DTD/svg11.dtd">
<!-- Generated by graphviz version 2.43.0 (0)
 -->
<!-- Title: oneDegreeRelationshipsDiagram Pages: 1 -->
<svg width="326pt" height="225pt"
 viewBox="0.00 0.00 326.00 225.00" xmlns="http://www.w3.org/2000/svg" xmlns:xlink="http://www.w3.org/1999/xlink">
<g id="graph0" class="graph" transform="scale(1 1) rotate(0) translate(4 221)">
<title>oneDegreeRelationshipsDiagram</title>
<polygon fill="#ffffff" stroke="transparent" points="-4,4 -4,-221 322,-221 322,4 -4,4"/>
<text text-anchor="middle" x="79.5" y="-7.2" font-family="Helvetica,sans-Serif" font-size="11.00">Generated by SchemaSpy</text>
<!-- validators -->
<g id="node1" class="node">
<title>validators</title>
<g id="a_node1"><a xlink:href="../../tables/validators.html" xlink:title="validators" target="_top">
<polygon fill="#ffffff" stroke="transparent" points="8,-37 8,-213 310,-213 310,-37 8,-37"/>
<polygon fill="#f5f5f5" stroke="transparent" points="10,-189 10,-211 308,-211 308,-189 10,-189"/>
<polygon fill="none" stroke="black" points="10,-189 10,-211 308,-211 308,-189 10,-189"/>
<text text-anchor="start" x="15" y="-198.2" font-family="Helvetica,sans-Serif" font-weight="bold" font-size="11.00">validators</text>
<text text-anchor="start" x="266" y="-197.2" font-family="Helvetica,sans-Serif" font-size="11.00">[table]</text>
<polygon fill="none" stroke="black" points="10,-167 10,-189 193,-189 193,-167 10,-167"/>
<image xlink:href="../../images/primaryKeys.png" width="11px" height="12px" preserveAspectRatio="xMinYMin meet" x="15" y="-184"/>
<text text-anchor="start" x="30" y="-175.2" font-family="Helvetica,sans-Serif" font-size="11.00">address_hash</text>
<polygon fill="none" stroke="black" points="193,-167 193,-189 308,-189 308,-167 193,-167"/>
<text text-anchor="start" x="196" y="-175.2" font-family="Helvetica,sans-Serif" font-size="11.00">bytea[2147483647]</text>
<polygon fill="none" stroke="black" points="10,-145 10,-167 193,-167 193,-145 10,-145"/>
<text text-anchor="start" x="30" y="-153.2" font-family="Helvetica,sans-Serif" font-size="11.00">is_validator</text>
<polygon fill="none" stroke="black" points="193,-145 193,-167 308,-167 308,-145 193,-145"/>
<text text-anchor="start" x="196" y="-153.2" font-family="Helvetica,sans-Serif" font-size="11.00">bool[1]</text>
<polygon fill="none" stroke="black" points="10,-123 10,-145 193,-145 193,-123 10,-123"/>
<text text-anchor="start" x="30" y="-131.2" font-family="Helvetica,sans-Serif" font-size="11.00">payout_key_hash</text>
<polygon fill="none" stroke="black" points="193,-123 193,-145 308,-145 308,-123 193,-123"/>
<text text-anchor="start" x="196" y="-131.2" font-family="Helvetica,sans-Serif" font-size="11.00">bytea[2147483647]</text>
<polygon fill="none" stroke="black" points="10,-101 10,-123 193,-123 193,-101 10,-101"/>
<text text-anchor="start" x="30" y="-109.2" font-family="Helvetica,sans-Serif" font-size="11.00">info_updated_at_block</text>
<polygon fill="none" stroke="black" points="193,-101 193,-123 308,-123 308,-101 193,-101"/>
<text text-anchor="start" x="196" y="-109.2" font-family="Helvetica,sans-Serif" font-size="11.00">int8[19]</text>
<polygon fill="none" stroke="black" points="10,-79 10,-101 193,-101 193,-79 10,-79"/>
<text text-anchor="start" x="30" y="-87.2" font-family="Helvetica,sans-Serif" font-size="11.00">inserted_at</text>
<polygon fill="none" stroke="black" points="193,-79 193,-101 308,-101 308,-79 193,-79"/>
<text text-anchor="start" x="196" y="-87.2" font-family="Helvetica,sans-Serif" font-size="11.00">timestamp[29,6]</text>
<polygon fill="none" stroke="black" points="10,-57 10,-79 193,-79 193,-57 10,-57"/>
<text text-anchor="start" x="30" y="-65.2" font-family="Helvetica,sans-Serif" font-size="11.00">updated_at</text>
<polygon fill="none" stroke="black" points="193,-57 193,-79 308,-79 308,-57 193,-57"/>
<text text-anchor="start" x="196" y="-65.2" font-family="Helvetica,sans-Serif" font-size="11.00">timestamp[29,6]</text>
<polygon fill="#ffffff" stroke="transparent" points="10,-39 10,-57 308,-57 308,-39 10,-39"/>
<polygon fill="none" stroke="black" points="10,-39 10,-57 308,-57 308,-39 10,-39"/>
<polygon fill="#ffffff" stroke="transparent" points="11,-40 11,-56 114,-56 114,-40 11,-40"/>
<text text-anchor="start" x="13" y="-45.2" font-family="Helvetica,sans-Serif" font-size="11.00">&lt; 0</text>
<polygon fill="#ffffff" stroke="transparent" points="114,-40 114,-56 205,-56 205,-40 114,-40"/>
<text text-anchor="start" x="155.5" y="-45.2" font-family="Helvetica,sans-Serif" font-size="11.00"> &#160;</text>
<polygon fill="#ffffff" stroke="transparent" points="205,-40 205,-56 307,-56 307,-40 205,-40"/>
<text text-anchor="start" x="285" y="-45.2" font-family="Helvetica,sans-Serif" font-size="11.00">0 &gt;</text>
<polygon fill="black" stroke="black" points="114,-40 114,-56 114,-56 114,-40 114,-40"/>
<polygon fill="black" stroke="black" points="205,-40 205,-56 205,-56 205,-40 205,-40"/>
<polygon fill="none" stroke="black" stroke-width="2" points="9,-38 9,-212 309,-212 309,-38 9,-38"/>
</a>
</g>
</g>
</g>
</svg>
