<?xml version="1.0" encoding="UTF-8" standalone="no"?>
<!DOCTYPE svg PUBLIC "-//W3C//DTD SVG 1.1//EN"
 "http://www.w3.org/Graphics/SVG/1.1/DTD/svg11.dtd">
<!-- Generated by graphviz version 9.0.0 (20230911.1827)
 -->
<!-- Title: oneDegreeRelationshipsDiagram Pages: 1 -->
<svg width="409pt" height="395pt"
 viewBox="0.00 0.00 409.00 395.00" xmlns="http://www.w3.org/2000/svg" xmlns:xlink="http://www.w3.org/1999/xlink">
<g id="graph0" class="graph" transform="scale(1 1) rotate(0) translate(4 391)">
<title>oneDegreeRelationshipsDiagram</title>
<polygon fill="#ffffff" stroke="none" points="-4,4 -4,-391 405,-391 405,4 -4,4"/>
<text text-anchor="middle" x="71.38" y="-5.55" font-family="Helvetica,sans-Serif" font-size="11.00">Generated by SchemaSpy</text>
<!-- withdrawals -->
<g id="node1" class="node">
<title>withdrawals</title>
<g id="a_node1"><a xlink:href="../../tables/withdrawals.html" xlink:title="withdrawals" target="_top">
<polygon fill="#ffffff" stroke="none" points="182,-185 182,-383 393,-383 393,-185 182,-185"/>
<polygon fill="#f5f5f5" stroke="none" points="184,-359 184,-381 391,-381 391,-359 184,-359"/>
<polygon fill="none" stroke="black" points="184,-359 184,-381 391,-381 391,-359 184,-359"/>
<text text-anchor="start" x="189" y="-366.55" font-family="Helvetica,sans-Serif" font-weight="bold" font-size="11.00">withdrawals</text>
<text text-anchor="start" x="356.75" y="-365.55" font-family="Helvetica,sans-Serif" font-size="11.00">[table]</text>
<polygon fill="none" stroke="black" points="184,-337 184,-359 293,-359 293,-337 184,-337"/>
<image xlink:href="../../images/primaryKeys.png" width="11px" height="12px" preserveAspectRatio="xMinYMin meet" x="189" y="-354"/>
<text text-anchor="start" x="204" y="-343.55" font-family="Helvetica,sans-Serif" font-size="11.00">index</text>
<polygon fill="none" stroke="black" points="293,-337 293,-359 391,-359 391,-337 293,-337"/>
<text text-anchor="start" x="296" y="-343.55" font-family="Helvetica,sans-Serif" font-size="11.00">int4[10]</text>
<polygon fill="none" stroke="black" points="184,-315 184,-337 293,-337 293,-315 184,-315"/>
<text text-anchor="start" x="204" y="-321.55" font-family="Helvetica,sans-Serif" font-size="11.00">validator_index</text>
<polygon fill="none" stroke="black" points="293,-315 293,-337 391,-337 391,-315 293,-315"/>
<text text-anchor="start" x="296" y="-321.55" font-family="Helvetica,sans-Serif" font-size="11.00">int4[10]</text>
<polygon fill="none" stroke="black" points="184,-293 184,-315 293,-315 293,-293 184,-293"/>
<text text-anchor="start" x="204" y="-299.55" font-family="Helvetica,sans-Serif" font-size="11.00">amount</text>
<polygon fill="none" stroke="black" points="293,-293 293,-315 391,-315 391,-293 293,-293"/>
<text text-anchor="start" x="296" y="-299.55" font-family="Helvetica,sans-Serif" font-size="11.00">numeric[100]</text>
<polygon fill="none" stroke="black" points="184,-271 184,-293 293,-293 293,-271 184,-271"/>
<text text-anchor="start" x="204" y="-277.55" font-family="Helvetica,sans-Serif" font-size="11.00">inserted_at</text>
<polygon fill="none" stroke="black" points="293,-271 293,-293 391,-293 391,-271 293,-271"/>
<text text-anchor="start" x="296" y="-277.55" font-family="Helvetica,sans-Serif" font-size="11.00">timestamp[29,6]</text>
<polygon fill="none" stroke="black" points="184,-249 184,-271 293,-271 293,-249 184,-249"/>
<text text-anchor="start" x="204" y="-255.55" font-family="Helvetica,sans-Serif" font-size="11.00">updated_at</text>
<polygon fill="none" stroke="black" points="293,-249 293,-271 391,-271 391,-249 293,-249"/>
<text text-anchor="start" x="296" y="-255.55" font-family="Helvetica,sans-Serif" font-size="11.00">timestamp[29,6]</text>
<polygon fill="#ffffff" stroke="none" points="184,-227 184,-249 293,-249 293,-227 184,-227"/>
<polygon fill="none" stroke="black" points="184,-227 184,-249 293,-249 293,-227 184,-227"/>
<text text-anchor="start" x="204" y="-233.55" font-family="Helvetica,sans-Serif" font-size="11.00">address_hash</text>
<polygon fill="none" stroke="black" points="293,-227 293,-249 391,-249 391,-227 293,-227"/>
<text text-anchor="start" x="295.88" y="-233.55" font-family="Helvetica,sans-Serif" font-size="11.00">bytea[2147483647]</text>
<polygon fill="#ffffff" stroke="none" points="184,-205 184,-227 293,-227 293,-205 184,-205"/>
<polygon fill="none" stroke="black" points="184,-205 184,-227 293,-227 293,-205 184,-205"/>
<image xlink:href="../../images/foreignKeys.png" width="11px" height="12px" preserveAspectRatio="xMinYMin meet" x="189" y="-222"/>
<text text-anchor="start" x="204" y="-211.55" font-family="Helvetica,sans-Serif" font-size="11.00">block_hash</text>
<polygon fill="none" stroke="black" points="293,-205 293,-227 391,-227 391,-205 293,-205"/>
<text text-anchor="start" x="295.88" y="-211.55" font-family="Helvetica,sans-Serif" font-size="11.00">bytea[2147483647]</text>
<polygon fill="#ffffff" stroke="none" points="184,-187 184,-205 243,-205 243,-187 184,-187"/>
<polygon fill="none" stroke="black" points="184,-187 184,-205 243,-205 243,-187 184,-187"/>
<text text-anchor="start" x="187" y="-191.55" font-family="Helvetica,sans-Serif" font-size="11.00">&lt; 1</text>
<polygon fill="#ffffff" stroke="none" points="243,-187 243,-205 293,-205 293,-187 243,-187"/>
<polygon fill="none" stroke="black" points="243,-187 243,-205 293,-205 293,-187 243,-187"/>
<text text-anchor="start" x="284" y="-191.55" font-family="Helvetica,sans-Serif" font-size="11.00"> &#160;</text>
<polygon fill="#ffffff" stroke="none" points="293,-187 293,-205 391,-205 391,-187 293,-187"/>
<polygon fill="none" stroke="black" points="293,-187 293,-205 391,-205 391,-187 293,-187"/>
<text text-anchor="start" x="372.25" y="-191.55" font-family="Helvetica,sans-Serif" font-size="11.00">0 &gt;</text>
<polygon fill="none" stroke="black" stroke-width="2" points="183,-186 183,-382 392,-382 392,-186 183,-186"/>
</a>
</g>
</g>
<!-- blocks -->
<g id="node2" class="node">
<title>blocks</title>
<g id="a_node2"><a xlink:href="../../tables/blocks.html" xlink:title="blocks" target="_top">
<polygon fill="#ffffff" stroke="none" points="8,-37 8,-271 133,-271 133,-37 8,-37"/>
<polygon fill="#f5f5f5" stroke="none" points="8,-249 8,-271 133,-271 133,-249 8,-249"/>
<polygon fill="none" stroke="black" points="8,-249 8,-271 133,-271 133,-249 8,-249"/>
<text text-anchor="start" x="12.75" y="-256.55" font-family="Helvetica,sans-Serif" font-weight="bold" font-size="11.00">blocks</text>
<text text-anchor="start" x="98.75" y="-255.55" font-family="Helvetica,sans-Serif" font-size="11.00">[table]</text>
<polygon fill="#ffffff" stroke="none" points="8,-227 8,-249 133,-249 133,-227 8,-227"/>
<polygon fill="none" stroke="black" points="8,-227 8,-249 133,-249 133,-227 8,-227"/>
<text text-anchor="start" x="28" y="-233.55" font-family="Helvetica,sans-Serif" font-size="11.00">consensus</text>
<polygon fill="none" stroke="black" points="8,-205 8,-227 133,-227 133,-205 8,-205"/>
<image xlink:href="../../images/primaryKeys.png" width="11px" height="12px" preserveAspectRatio="xMinYMin meet" x="13" y="-222"/>
<text text-anchor="start" x="28" y="-211.55" font-family="Helvetica,sans-Serif" font-size="11.00">hash</text>
<polygon fill="#ffffff" stroke="none" points="8,-183 8,-205 133,-205 133,-183 8,-183"/>
<polygon fill="none" stroke="black" points="8,-183 8,-205 133,-205 133,-183 8,-183"/>
<text text-anchor="start" x="28" y="-189.55" font-family="Helvetica,sans-Serif" font-size="11.00">miner_hash</text>
<polygon fill="#ffffff" stroke="none" points="8,-161 8,-183 133,-183 133,-161 8,-161"/>
<polygon fill="none" stroke="black" points="8,-161 8,-183 133,-183 133,-161 8,-161"/>
<text text-anchor="start" x="28" y="-167.55" font-family="Helvetica,sans-Serif" font-size="11.00">number</text>
<polygon fill="#ffffff" stroke="none" points="8,-139 8,-161 133,-161 133,-139 8,-139"/>
<polygon fill="none" stroke="black" points="8,-139 8,-161 133,-161 133,-139 8,-139"/>
<text text-anchor="start" x="28" y="-145.55" font-family="Helvetica,sans-Serif" font-size="11.00">parent_hash</text>
<polygon fill="#ffffff" stroke="none" points="8,-117 8,-139 133,-139 133,-117 8,-117"/>
<polygon fill="none" stroke="black" points="8,-117 8,-139 133,-139 133,-117 8,-117"/>
<text text-anchor="start" x="28" y="-123.55" font-family="Helvetica,sans-Serif" font-size="11.00">timestamp</text>
<polygon fill="#ffffff" stroke="none" points="8,-95 8,-117 133,-117 133,-95 8,-95"/>
<polygon fill="none" stroke="black" points="8,-95 8,-117 133,-117 133,-95 8,-95"/>
<text text-anchor="start" x="28" y="-101.55" font-family="Helvetica,sans-Serif" font-size="11.00">inserted_at</text>
<polygon fill="#ffffff" stroke="none" points="8,-73 8,-95 133,-95 133,-73 8,-73"/>
<polygon fill="none" stroke="black" points="8,-73 8,-95 133,-95 133,-73 8,-73"/>
<text text-anchor="start" x="28" y="-79.55" font-family="Helvetica,sans-Serif" font-size="11.00">is_empty</text>
<polygon fill="none" stroke="black" points="8,-55 8,-73 133,-73 133,-55 8,-55"/>
<text text-anchor="start" x="11" y="-59.55" font-family="Helvetica,sans-Serif" font-size="11.00">...</text>
<polygon fill="#ffffff" stroke="none" points="8,-37 8,-55 60,-55 60,-37 8,-37"/>
<polygon fill="none" stroke="black" points="8,-37 8,-55 60,-55 60,-37 8,-37"/>
<text text-anchor="start" x="11" y="-41.55" font-family="Helvetica,sans-Serif" font-size="11.00"> &#160;</text>
<polygon fill="#ffffff" stroke="none" points="60,-37 60,-55 92,-55 92,-37 60,-37"/>
<polygon fill="none" stroke="black" points="60,-37 60,-55 92,-55 92,-37 60,-37"/>
<text text-anchor="start" x="83" y="-41.55" font-family="Helvetica,sans-Serif" font-size="11.00"> &#160;</text>
<polygon fill="#ffffff" stroke="none" points="92,-37 92,-55 133,-55 133,-37 92,-37"/>
<polygon fill="none" stroke="black" points="92,-37 92,-55 133,-55 133,-37 92,-37"/>
<text text-anchor="start" x="114.25" y="-41.55" font-family="Helvetica,sans-Serif" font-size="11.00">9 &gt;</text>
</a>
</g>
</g>
<!-- withdrawals&#45;&gt;blocks -->
<g id="edge1" class="edge">
<title>withdrawals:w&#45;&gt;blocks:e</title>
<path fill="none" stroke="black" d="M166.89,-216C156.59,-216 149.5,-216 134.5,-216"/>
<polygon fill="black" stroke="black" points="174.17,-216 182.17,-219.6 178.5,-216 181.83,-216 181.83,-216 181.83,-216 178.5,-216 182.17,-212.4 174.17,-216"/>
<ellipse fill="none" stroke="black" cx="169.25" cy="-216" rx="3.2" ry="3.2"/>
</g>
</g>
</svg>
