<?xml version="1.0" encoding="UTF-8" standalone="no"?>
<!DOCTYPE svg PUBLIC "-//W3C//DTD SVG 1.1//EN"
 "http://www.w3.org/Graphics/SVG/1.1/DTD/svg11.dtd">
<!-- Generated by graphviz version 2.43.0 (0)
 -->
<!-- Title: twoDegreesRelationshipsDiagram Pages: 1 -->
<svg width="745pt" height="671pt"
 viewBox="0.00 0.00 745.00 671.00" xmlns="http://www.w3.org/2000/svg" xmlns:xlink="http://www.w3.org/1999/xlink">
<g id="graph0" class="graph" transform="scale(1 1) rotate(0) translate(4 667)">
<title>twoDegreesRelationshipsDiagram</title>
<polygon fill="#ffffff" stroke="transparent" points="-4,4 -4,-667 741,-667 741,4 -4,4"/>
<text text-anchor="middle" x="79.5" y="-7.2" font-family="Helvetica,sans-Serif" font-size="11.00">Generated by SchemaSpy</text>
<!-- block_rewards -->
<g id="node1" class="node">
<title>block_rewards</title>
<g id="a_node1"><a xlink:href="../../tables/block_rewards.html" xlink:title="block_rewards" target="_top">
<polygon fill="#ffffff" stroke="transparent" points="265.5,-601 265.5,-659 417.5,-659 417.5,-601 265.5,-601"/>
<polygon fill="#f5f5f5" stroke="transparent" points="265.5,-637 265.5,-659 417.5,-659 417.5,-637 265.5,-637"/>
<polygon fill="none" stroke="black" points="265.5,-637 265.5,-659 417.5,-659 417.5,-637 265.5,-637"/>
<text text-anchor="start" x="270.5" y="-646.2" font-family="Helvetica,sans-Serif" font-weight="bold" font-size="11.00">block_rewards</text>
<text text-anchor="start" x="375.5" y="-645.2" font-family="Helvetica,sans-Serif" font-size="11.00">[table]</text>
<polygon fill="none" stroke="black" points="265.5,-619 265.5,-637 417.5,-637 417.5,-619 265.5,-619"/>
<text text-anchor="start" x="268.5" y="-625.2" font-family="Helvetica,sans-Serif" font-size="11.00">...</text>
<polygon fill="#ffffff" stroke="transparent" points="265.5,-601 265.5,-619 417.5,-619 417.5,-601 265.5,-601"/>
<polygon fill="none" stroke="black" points="265.5,-601 265.5,-619 417.5,-619 417.5,-601 265.5,-601"/>
<polygon fill="#ffffff" stroke="transparent" points="266.5,-602 266.5,-618 324.5,-618 324.5,-602 266.5,-602"/>
<text text-anchor="start" x="268.5" y="-607.2" font-family="Helvetica,sans-Serif" font-size="11.00">&lt; 1</text>
<polygon fill="#ffffff" stroke="transparent" points="324.5,-602 324.5,-618 370.5,-618 370.5,-602 324.5,-602"/>
<text text-anchor="start" x="343.5" y="-607.2" font-family="Helvetica,sans-Serif" font-size="11.00"> &#160;</text>
<polygon fill="#ffffff" stroke="transparent" points="370.5,-602 370.5,-618 416.5,-618 416.5,-602 370.5,-602"/>
<text text-anchor="start" x="406.5" y="-607.2" font-family="Helvetica,sans-Serif" font-size="11.00"> &#160;</text>
<polygon fill="black" stroke="black" points="324.5,-602 324.5,-618 324.5,-618 324.5,-602 324.5,-602"/>
<polygon fill="black" stroke="black" points="370.5,-602 370.5,-618 370.5,-618 370.5,-602 370.5,-602"/>
</a>
</g>
</g>
<!-- blocks -->
<g id="node2" class="node">
<title>blocks</title>
<g id="a_node2"><a xlink:href="../../tables/blocks.html" xlink:title="blocks" target="_top">
<polygon fill="#ffffff" stroke="transparent" points="8,-237 8,-471 156,-471 156,-237 8,-237"/>
<polygon fill="#f5f5f5" stroke="transparent" points="8,-449 8,-471 156,-471 156,-449 8,-449"/>
<polygon fill="none" stroke="black" points="8,-449 8,-471 156,-471 156,-449 8,-449"/>
<text text-anchor="start" x="13" y="-458.2" font-family="Helvetica,sans-Serif" font-weight="bold" font-size="11.00">blocks</text>
<text text-anchor="start" x="114" y="-457.2" font-family="Helvetica,sans-Serif" font-size="11.00">[table]</text>
<polygon fill="#ffffff" stroke="transparent" points="8,-427 8,-449 156,-449 156,-427 8,-427"/>
<polygon fill="none" stroke="black" points="8,-427 8,-449 156,-449 156,-427 8,-427"/>
<text text-anchor="start" x="28" y="-435.2" font-family="Helvetica,sans-Serif" font-size="11.00">consensus</text>
<polygon fill="none" stroke="black" points="8,-405 8,-427 156,-427 156,-405 8,-405"/>
<image xlink:href="../../images/primaryKeys.png" width="11px" height="12px" preserveAspectRatio="xMinYMin meet" x="13" y="-422"/>
<text text-anchor="start" x="28" y="-413.2" font-family="Helvetica,sans-Serif" font-size="11.00">hash</text>
<polygon fill="#ffffff" stroke="transparent" points="8,-383 8,-405 156,-405 156,-383 8,-383"/>
<polygon fill="none" stroke="black" points="8,-383 8,-405 156,-405 156,-383 8,-383"/>
<text text-anchor="start" x="28" y="-391.2" font-family="Helvetica,sans-Serif" font-size="11.00">miner_hash</text>
<polygon fill="#ffffff" stroke="transparent" points="8,-361 8,-383 156,-383 156,-361 8,-361"/>
<polygon fill="none" stroke="black" points="8,-361 8,-383 156,-383 156,-361 8,-361"/>
<image xlink:href="../../images/foreignKeys.png" width="11px" height="12px" preserveAspectRatio="xMinYMin meet" x="13" y="-378"/>
<text text-anchor="start" x="28" y="-369.2" font-family="Helvetica,sans-Serif" font-size="11.00">number</text>
<polygon fill="#ffffff" stroke="transparent" points="8,-339 8,-361 156,-361 156,-339 8,-339"/>
<polygon fill="none" stroke="black" points="8,-339 8,-361 156,-361 156,-339 8,-339"/>
<text text-anchor="start" x="28" y="-347.2" font-family="Helvetica,sans-Serif" font-size="11.00">parent_hash</text>
<polygon fill="#ffffff" stroke="transparent" points="8,-317 8,-339 156,-339 156,-317 8,-317"/>
<polygon fill="none" stroke="black" points="8,-317 8,-339 156,-339 156,-317 8,-317"/>
<text text-anchor="start" x="28" y="-325.2" font-family="Helvetica,sans-Serif" font-size="11.00">timestamp</text>
<polygon fill="#ffffff" stroke="transparent" points="8,-295 8,-317 156,-317 156,-295 8,-295"/>
<polygon fill="none" stroke="black" points="8,-295 8,-317 156,-317 156,-295 8,-295"/>
<text text-anchor="start" x="28" y="-303.2" font-family="Helvetica,sans-Serif" font-size="11.00">inserted_at</text>
<polygon fill="#ffffff" stroke="transparent" points="8,-273 8,-295 156,-295 156,-273 8,-273"/>
<polygon fill="none" stroke="black" points="8,-273 8,-295 156,-295 156,-273 8,-273"/>
<text text-anchor="start" x="28" y="-281.2" font-family="Helvetica,sans-Serif" font-size="11.00">is_empty</text>
<polygon fill="none" stroke="black" points="8,-255 8,-273 156,-273 156,-255 8,-255"/>
<text text-anchor="start" x="11" y="-261.2" font-family="Helvetica,sans-Serif" font-size="11.00">...</text>
<polygon fill="#ffffff" stroke="transparent" points="8,-237 8,-255 156,-255 156,-237 8,-237"/>
<polygon fill="none" stroke="black" points="8,-237 8,-255 156,-255 156,-237 8,-237"/>
<polygon fill="#ffffff" stroke="transparent" points="9,-238 9,-254 54,-254 54,-238 9,-238"/>
<text text-anchor="start" x="11" y="-243.2" font-family="Helvetica,sans-Serif" font-size="11.00"> &#160;</text>
<polygon fill="#ffffff" stroke="transparent" points="54,-238 54,-254 99,-254 99,-238 54,-238"/>
<text text-anchor="start" x="72.5" y="-243.2" font-family="Helvetica,sans-Serif" font-size="11.00"> &#160;</text>
<polygon fill="#ffffff" stroke="transparent" points="99,-238 99,-254 155,-254 155,-238 99,-238"/>
<text text-anchor="start" x="133" y="-243.2" font-family="Helvetica,sans-Serif" font-size="11.00">9 &gt;</text>
<polygon fill="black" stroke="black" points="54,-238 54,-254 54,-254 54,-238 54,-238"/>
<polygon fill="black" stroke="black" points="99,-238 99,-254 99,-254 99,-238 99,-238"/>
</a>
</g>
</g>
<!-- block_rewards&#45;&gt;blocks -->
<g id="edge1" class="edge">
<title>block_rewards:w&#45;&gt;blocks:e</title>
<path fill="none" stroke="black" d="M249.93,-627.26C226.14,-624.54 214.4,-614.03 197,-591 148.9,-527.34 236.78,-416 157,-416"/>
<polygon fill="black" stroke="black" points="256.51,-627.59 264.32,-631.6 260.51,-627.8 264.5,-628 264.5,-628 264.5,-628 260.51,-627.8 264.68,-624.4 256.51,-627.59 256.51,-627.59"/>
<ellipse fill="none" stroke="black" cx="253.31" cy="-627.43" rx="3.2" ry="3.2"/>
</g>
<!-- block_second_degree_relations -->
<g id="node3" class="node">
<title>block_second_degree_relations</title>
<g id="a_node3"><a xlink:href="../../tables/block_second_degree_relations.html" xlink:title="block_second_degree_relations" target="_top">
<polygon fill="#ffffff" stroke="transparent" points="205,-522 205,-580 478,-580 478,-522 205,-522"/>
<polygon fill="#f5f5f5" stroke="transparent" points="205.5,-558 205.5,-580 478.5,-580 478.5,-558 205.5,-558"/>
<polygon fill="none" stroke="black" points="205.5,-558 205.5,-580 478.5,-580 478.5,-558 205.5,-558"/>
<text text-anchor="start" x="210.5" y="-567.2" font-family="Helvetica,sans-Serif" font-weight="bold" font-size="11.00">block_second_degree_relations</text>
<text text-anchor="start" x="436.5" y="-566.2" font-family="Helvetica,sans-Serif" font-size="11.00">[table]</text>
<polygon fill="none" stroke="black" points="205.5,-540 205.5,-558 478.5,-558 478.5,-540 205.5,-540"/>
<text text-anchor="start" x="208.5" y="-546.2" font-family="Helvetica,sans-Serif" font-size="11.00">...</text>
<polygon fill="#ffffff" stroke="transparent" points="205.5,-522 205.5,-540 478.5,-540 478.5,-522 205.5,-522"/>
<polygon fill="none" stroke="black" points="205.5,-522 205.5,-540 478.5,-540 478.5,-522 205.5,-522"/>
<polygon fill="#ffffff" stroke="transparent" points="206.5,-523 206.5,-539 305.5,-539 305.5,-523 206.5,-523"/>
<text text-anchor="start" x="208.5" y="-528.2" font-family="Helvetica,sans-Serif" font-size="11.00">&lt; 1</text>
<polygon fill="#ffffff" stroke="transparent" points="305.5,-523 305.5,-539 391.5,-539 391.5,-523 305.5,-523"/>
<text text-anchor="start" x="344.5" y="-528.2" font-family="Helvetica,sans-Serif" font-size="11.00"> &#160;</text>
<polygon fill="#ffffff" stroke="transparent" points="391.5,-523 391.5,-539 477.5,-539 477.5,-523 391.5,-523"/>
<text text-anchor="start" x="467.5" y="-528.2" font-family="Helvetica,sans-Serif" font-size="11.00"> &#160;</text>
<polygon fill="black" stroke="black" points="305.5,-523 305.5,-539 305.5,-539 305.5,-523 305.5,-523"/>
<polygon fill="black" stroke="black" points="391.5,-523 391.5,-539 391.5,-539 391.5,-523 391.5,-523"/>
</a>
</g>
</g>
<!-- block_second_degree_relations&#45;&gt;blocks -->
<g id="edge2" class="edge">
<title>block_second_degree_relations:w&#45;&gt;blocks:e</title>
<path fill="none" stroke="black" d="M190.33,-545.71C155.13,-525.23 213.88,-416 157,-416"/>
<polygon fill="black" stroke="black" points="196.71,-547.19 203.69,-552.51 200.6,-548.1 204.5,-549 204.5,-549 204.5,-549 200.6,-548.1 205.31,-545.49 196.71,-547.19 196.71,-547.19"/>
<ellipse fill="none" stroke="black" cx="193.59" cy="-546.47" rx="3.2" ry="3.2"/>
</g>
<!-- internal_transactions -->
<g id="node4" class="node">
<title>internal_transactions</title>
<g id="a_node4"><a xlink:href="../../tables/internal_transactions.html" xlink:title="internal_transactions" target="_top">
<polygon fill="#ffffff" stroke="transparent" points="527,-470 527,-528 729,-528 729,-470 527,-470"/>
<polygon fill="#f5f5f5" stroke="transparent" points="527,-506 527,-528 729,-528 729,-506 527,-506"/>
<polygon fill="none" stroke="black" points="527,-506 527,-528 729,-528 729,-506 527,-506"/>
<text text-anchor="start" x="532" y="-515.2" font-family="Helvetica,sans-Serif" font-weight="bold" font-size="11.00">internal_transactions</text>
<text text-anchor="start" x="687" y="-514.2" font-family="Helvetica,sans-Serif" font-size="11.00">[table]</text>
<polygon fill="none" stroke="black" points="527,-488 527,-506 729,-506 729,-488 527,-488"/>
<text text-anchor="start" x="530" y="-494.2" font-family="Helvetica,sans-Serif" font-size="11.00">...</text>
<polygon fill="#ffffff" stroke="transparent" points="527,-470 527,-488 729,-488 729,-470 527,-470"/>
<polygon fill="none" stroke="black" points="527,-470 527,-488 729,-488 729,-470 527,-470"/>
<polygon fill="#ffffff" stroke="transparent" points="528,-471 528,-487 603,-487 603,-471 528,-471"/>
<text text-anchor="start" x="530" y="-476.2" font-family="Helvetica,sans-Serif" font-size="11.00">&lt; 2</text>
<polygon fill="#ffffff" stroke="transparent" points="603,-471 603,-487 666,-487 666,-471 603,-471"/>
<text text-anchor="start" x="630.5" y="-476.2" font-family="Helvetica,sans-Serif" font-size="11.00"> &#160;</text>
<polygon fill="#ffffff" stroke="transparent" points="666,-471 666,-487 728,-487 728,-471 666,-471"/>
<text text-anchor="start" x="718" y="-476.2" font-family="Helvetica,sans-Serif" font-size="11.00"> &#160;</text>
<polygon fill="black" stroke="black" points="603,-471 603,-487 603,-487 603,-471 603,-471"/>
<polygon fill="black" stroke="black" points="666,-471 666,-487 666,-487 666,-471 666,-471"/>
</a>
</g>
</g>
<!-- internal_transactions&#45;&gt;blocks -->
<g id="edge3" class="edge">
<title>internal_transactions:w&#45;&gt;blocks:e</title>
<path fill="none" stroke="black" d="M511.45,-497.23C429.93,-499.49 256.12,-517.1 197,-482 167.51,-464.49 191.3,-416 157,-416"/>
<polygon fill="black" stroke="black" points="518,-497.13 526.06,-500.6 522,-497.06 526,-497 526,-497 526,-497 522,-497.06 525.94,-493.4 518,-497.13 518,-497.13"/>
<ellipse fill="none" stroke="black" cx="514.8" cy="-497.18" rx="3.2" ry="3.2"/>
</g>
<!-- transactions -->
<g id="node5" class="node">
<title>transactions</title>
<g id="a_node5"><a xlink:href="../../tables/transactions.html" xlink:title="transactions" target="_top">
<polygon fill="#ffffff" stroke="transparent" points="272.5,-389 272.5,-447 410.5,-447 410.5,-389 272.5,-389"/>
<polygon fill="#f5f5f5" stroke="transparent" points="272.5,-425 272.5,-447 410.5,-447 410.5,-425 272.5,-425"/>
<polygon fill="none" stroke="black" points="272.5,-425 272.5,-447 410.5,-447 410.5,-425 272.5,-425"/>
<text text-anchor="start" x="277.5" y="-434.2" font-family="Helvetica,sans-Serif" font-weight="bold" font-size="11.00">transactions</text>
<text text-anchor="start" x="368.5" y="-433.2" font-family="Helvetica,sans-Serif" font-size="11.00">[table]</text>
<polygon fill="none" stroke="black" points="272.5,-407 272.5,-425 410.5,-425 410.5,-407 272.5,-407"/>
<text text-anchor="start" x="275.5" y="-413.2" font-family="Helvetica,sans-Serif" font-size="11.00">...</text>
<polygon fill="#ffffff" stroke="transparent" points="272.5,-389 272.5,-407 410.5,-407 410.5,-389 272.5,-389"/>
<polygon fill="none" stroke="black" points="272.5,-389 272.5,-407 410.5,-407 410.5,-389 272.5,-389"/>
<polygon fill="#ffffff" stroke="transparent" points="273.5,-390 273.5,-406 323.5,-406 323.5,-390 273.5,-390"/>
<text text-anchor="start" x="275.5" y="-395.2" font-family="Helvetica,sans-Serif" font-size="11.00">&lt; 1</text>
<polygon fill="#ffffff" stroke="transparent" points="323.5,-390 323.5,-406 360.5,-406 360.5,-390 323.5,-390"/>
<text text-anchor="start" x="338" y="-395.2" font-family="Helvetica,sans-Serif" font-size="11.00"> &#160;</text>
<polygon fill="#ffffff" stroke="transparent" points="360.5,-390 360.5,-406 409.5,-406 409.5,-390 360.5,-390"/>
<text text-anchor="start" x="387.5" y="-395.2" font-family="Helvetica,sans-Serif" font-size="11.00">7 &gt;</text>
<polygon fill="black" stroke="black" points="323.5,-390 323.5,-406 323.5,-406 323.5,-390 323.5,-390"/>
<polygon fill="black" stroke="black" points="360.5,-390 360.5,-406 360.5,-406 360.5,-390 360.5,-390"/>
</a>
</g>
</g>
<!-- internal_transactions&#45;&gt;transactions -->
<g id="edge4" class="edge">
<title>internal_transactions:w&#45;&gt;transactions:e</title>
<path fill="none" stroke="black" d="M511.44,-495.31C464.88,-483.68 468.48,-416 411.5,-416"/>
<polygon fill="black" stroke="black" points="518.05,-496.08 525.58,-500.58 522.03,-496.54 526,-497 526,-497 526,-497 522.03,-496.54 526.42,-493.42 518.05,-496.08 518.05,-496.08"/>
<ellipse fill="none" stroke="black" cx="514.87" cy="-495.71" rx="3.2" ry="3.2"/>
</g>
<!-- transactions&#45;&gt;blocks -->
<g id="edge12" class="edge">
<title>transactions:w&#45;&gt;blocks:e</title>
<path fill="none" stroke="black" d="M257.1,-416C217.63,-416 202.72,-416 157,-416"/>
<polygon fill="black" stroke="black" points="263.5,-416 271.5,-419.6 267.5,-416 271.5,-416 271.5,-416 271.5,-416 267.5,-416 271.5,-412.4 263.5,-416 263.5,-416"/>
<ellipse fill="none" stroke="black" cx="260.3" cy="-416" rx="3.2" ry="3.2"/>
</g>
<!-- logs -->
<g id="node6" class="node">
<title>logs</title>
<g id="a_node6"><a xlink:href="../../tables/logs.html" xlink:title="logs" target="_top">
<polygon fill="#ffffff" stroke="transparent" points="589.5,-391 589.5,-449 666.5,-449 666.5,-391 589.5,-391"/>
<polygon fill="#f5f5f5" stroke="transparent" points="590,-427 590,-449 667,-449 667,-427 590,-427"/>
<polygon fill="none" stroke="black" points="590,-427 590,-449 667,-449 667,-427 590,-427"/>
<text text-anchor="start" x="595" y="-436.2" font-family="Helvetica,sans-Serif" font-weight="bold" font-size="11.00">logs</text>
<text text-anchor="start" x="625" y="-435.2" font-family="Helvetica,sans-Serif" font-size="11.00">[table]</text>
<polygon fill="none" stroke="black" points="590,-409 590,-427 667,-427 667,-409 590,-409"/>
<text text-anchor="start" x="593" y="-415.2" font-family="Helvetica,sans-Serif" font-size="11.00">...</text>
<polygon fill="#ffffff" stroke="transparent" points="590,-391 590,-409 667,-409 667,-391 590,-391"/>
<polygon fill="none" stroke="black" points="590,-391 590,-409 667,-409 667,-391 590,-391"/>
<polygon fill="#ffffff" stroke="transparent" points="591,-392 591,-408 624,-408 624,-392 591,-392"/>
<text text-anchor="start" x="593" y="-397.2" font-family="Helvetica,sans-Serif" font-size="11.00">&lt; 2</text>
<polygon fill="#ffffff" stroke="transparent" points="624,-392 624,-408 645,-408 645,-392 624,-392"/>
<text text-anchor="start" x="630.5" y="-397.2" font-family="Helvetica,sans-Serif" font-size="11.00"> &#160;</text>
<polygon fill="#ffffff" stroke="transparent" points="645,-392 645,-408 666,-408 666,-392 645,-392"/>
<text text-anchor="start" x="656" y="-397.2" font-family="Helvetica,sans-Serif" font-size="11.00"> &#160;</text>
<polygon fill="black" stroke="black" points="624,-392 624,-408 624,-408 624,-392 624,-392"/>
<polygon fill="black" stroke="black" points="645,-392 645,-408 645,-408 645,-392 645,-392"/>
</a>
</g>
</g>
<!-- logs&#45;&gt;blocks -->
<g id="edge5" class="edge">
<title>logs:w&#45;&gt;blocks:e</title>
<path fill="none" stroke="black" d="M574.33,-419.04C538.15,-424.51 528.99,-449.95 486,-458 359.75,-481.65 315.06,-508.6 197,-458 173.31,-447.85 182.78,-416 157,-416"/>
<polygon fill="black" stroke="black" points="581.02,-418.57 589.26,-421.59 585.01,-418.28 589,-418 589,-418 589,-418 585.01,-418.28 588.74,-414.41 581.02,-418.57 581.02,-418.57"/>
<ellipse fill="none" stroke="black" cx="577.83" cy="-418.79" rx="3.2" ry="3.2"/>
</g>
<!-- logs&#45;&gt;transactions -->
<g id="edge6" class="edge">
<title>logs:w&#45;&gt;transactions:e</title>
<path fill="none" stroke="black" d="M574.45,-417.98C507.32,-417.75 485.31,-416 411.5,-416"/>
<polygon fill="black" stroke="black" points="581,-417.99 588.99,-421.6 585,-417.99 589,-418 589,-418 589,-418 585,-417.99 589.01,-414.4 581,-417.99 581,-417.99"/>
<ellipse fill="none" stroke="black" cx="577.8" cy="-417.98" rx="3.2" ry="3.2"/>
</g>
<!-- pending_block_operations -->
<g id="node7" class="node">
<title>pending_block_operations</title>
<g id="a_node7"><a xlink:href="../../tables/pending_block_operations.html" xlink:title="pending_block_operations" target="_top">
<polygon fill="#ffffff" stroke="transparent" points="223,-310 223,-368 460,-368 460,-310 223,-310"/>
<polygon fill="#f5f5f5" stroke="transparent" points="223.5,-346 223.5,-368 460.5,-368 460.5,-346 223.5,-346"/>
<polygon fill="none" stroke="black" points="223.5,-346 223.5,-368 460.5,-368 460.5,-346 223.5,-346"/>
<text text-anchor="start" x="228.5" y="-355.2" font-family="Helvetica,sans-Serif" font-weight="bold" font-size="11.00">pending_block_operations</text>
<text text-anchor="start" x="418.5" y="-354.2" font-family="Helvetica,sans-Serif" font-size="11.00">[table]</text>
<polygon fill="none" stroke="black" points="223.5,-328 223.5,-346 460.5,-346 460.5,-328 223.5,-328"/>
<text text-anchor="start" x="226.5" y="-334.2" font-family="Helvetica,sans-Serif" font-size="11.00">...</text>
<polygon fill="#ffffff" stroke="transparent" points="223.5,-310 223.5,-328 460.5,-328 460.5,-310 223.5,-310"/>
<polygon fill="none" stroke="black" points="223.5,-310 223.5,-328 460.5,-328 460.5,-310 223.5,-310"/>
<polygon fill="#ffffff" stroke="transparent" points="224.5,-311 224.5,-327 311.5,-327 311.5,-311 224.5,-311"/>
<text text-anchor="start" x="226.5" y="-316.2" font-family="Helvetica,sans-Serif" font-size="11.00">&lt; 1</text>
<polygon fill="#ffffff" stroke="transparent" points="311.5,-311 311.5,-327 385.5,-327 385.5,-311 311.5,-311"/>
<text text-anchor="start" x="344.5" y="-316.2" font-family="Helvetica,sans-Serif" font-size="11.00"> &#160;</text>
<polygon fill="#ffffff" stroke="transparent" points="385.5,-311 385.5,-327 459.5,-327 459.5,-311 385.5,-311"/>
<text text-anchor="start" x="449.5" y="-316.2" font-family="Helvetica,sans-Serif" font-size="11.00"> &#160;</text>
<polygon fill="black" stroke="black" points="311.5,-311 311.5,-327 311.5,-327 311.5,-311 311.5,-311"/>
<polygon fill="black" stroke="black" points="385.5,-311 385.5,-327 385.5,-327 385.5,-311 385.5,-311"/>
</a>
</g>
</g>
<!-- pending_block_operations&#45;&gt;blocks -->
<g id="edge7" class="edge">
<title>pending_block_operations:w&#45;&gt;blocks:e</title>
<path fill="none" stroke="black" d="M212.23,-338.65C180.78,-349.99 198.69,-416 157,-416"/>
<polygon fill="black" stroke="black" points="221.08,-333.18 222.34,-341.08 220.77,-341.33 219.5,-333.43 221.08,-333.18"/>
<polyline fill="none" stroke="black" points="222.5,-337 218.55,-337.63 "/>
<ellipse fill="none" stroke="black" cx="215.39" cy="-338.14" rx="3.2" ry="3.2"/>
</g>
<!-- token_transfers -->
<g id="node8" class="node">
<title>token_transfers</title>
<g id="a_node8"><a xlink:href="../../tables/token_transfers.html" xlink:title="token_transfers" target="_top">
<polygon fill="#ffffff" stroke="transparent" points="547,-312 547,-370 709,-370 709,-312 547,-312"/>
<polygon fill="#f5f5f5" stroke="transparent" points="547,-348 547,-370 709,-370 709,-348 547,-348"/>
<polygon fill="none" stroke="black" points="547,-348 547,-370 709,-370 709,-348 547,-348"/>
<text text-anchor="start" x="552" y="-357.2" font-family="Helvetica,sans-Serif" font-weight="bold" font-size="11.00">token_transfers</text>
<text text-anchor="start" x="667" y="-356.2" font-family="Helvetica,sans-Serif" font-size="11.00">[table]</text>
<polygon fill="none" stroke="black" points="547,-330 547,-348 709,-348 709,-330 547,-330"/>
<text text-anchor="start" x="550" y="-336.2" font-family="Helvetica,sans-Serif" font-size="11.00">...</text>
<polygon fill="#ffffff" stroke="transparent" points="547,-312 547,-330 709,-330 709,-312 547,-312"/>
<polygon fill="none" stroke="black" points="547,-312 547,-330 709,-330 709,-312 547,-312"/>
<polygon fill="#ffffff" stroke="transparent" points="548,-313 548,-329 610,-329 610,-313 548,-313"/>
<text text-anchor="start" x="550" y="-318.2" font-family="Helvetica,sans-Serif" font-size="11.00">&lt; 2</text>
<polygon fill="#ffffff" stroke="transparent" points="610,-313 610,-329 659,-329 659,-313 610,-313"/>
<text text-anchor="start" x="630.5" y="-318.2" font-family="Helvetica,sans-Serif" font-size="11.00"> &#160;</text>
<polygon fill="#ffffff" stroke="transparent" points="659,-313 659,-329 708,-329 708,-313 659,-313"/>
<text text-anchor="start" x="698" y="-318.2" font-family="Helvetica,sans-Serif" font-size="11.00"> &#160;</text>
<polygon fill="black" stroke="black" points="610,-313 610,-329 610,-329 610,-313 610,-313"/>
<polygon fill="black" stroke="black" points="659,-313 659,-329 659,-329 659,-313 659,-313"/>
</a>
</g>
</g>
<!-- token_transfers&#45;&gt;blocks -->
<g id="edge8" class="edge">
<title>token_transfers:w&#45;&gt;blocks:e</title>
<path fill="none" stroke="black" d="M531.77,-336.39C513.96,-328.91 511.01,-307.42 486,-300 424.43,-281.75 249.29,-262.72 197,-300 152.6,-331.66 211.53,-416 157,-416"/>
<polygon fill="black" stroke="black" points="538.13,-337.56 545.35,-342.54 542.07,-338.28 546,-339 546,-339 546,-339 542.07,-338.28 546.65,-335.46 538.13,-337.56 538.13,-337.56"/>
<ellipse fill="none" stroke="black" cx="534.98" cy="-336.98" rx="3.2" ry="3.2"/>
</g>
<!-- token_transfers&#45;&gt;transactions -->
<g id="edge9" class="edge">
<title>token_transfers:w&#45;&gt;transactions:e</title>
<path fill="none" stroke="black" d="M531.73,-341.05C513.03,-347.18 508.86,-365.77 486,-379 454,-397.51 448.47,-416 411.5,-416"/>
<polygon fill="black" stroke="black" points="538.08,-340.14 546.51,-342.56 542.04,-339.57 546,-339 546,-339 546,-339 542.04,-339.57 545.49,-335.44 538.08,-340.14 538.08,-340.14"/>
<ellipse fill="none" stroke="black" cx="534.91" cy="-340.59" rx="3.2" ry="3.2"/>
</g>
<!-- transaction_forks -->
<g id="node9" class="node">
<title>transaction_forks</title>
<g id="a_node9"><a xlink:href="../../tables/transaction_forks.html" xlink:title="transaction_forks" target="_top">
<polygon fill="#ffffff" stroke="transparent" points="541,-233 541,-291 715,-291 715,-233 541,-233"/>
<polygon fill="#f5f5f5" stroke="transparent" points="541,-269 541,-291 715,-291 715,-269 541,-269"/>
<polygon fill="none" stroke="black" points="541,-269 541,-291 715,-291 715,-269 541,-269"/>
<text text-anchor="start" x="546" y="-278.2" font-family="Helvetica,sans-Serif" font-weight="bold" font-size="11.00">transaction_forks</text>
<text text-anchor="start" x="673" y="-277.2" font-family="Helvetica,sans-Serif" font-size="11.00">[table]</text>
<polygon fill="none" stroke="black" points="541,-251 541,-269 715,-269 715,-251 541,-251"/>
<text text-anchor="start" x="544" y="-257.2" font-family="Helvetica,sans-Serif" font-size="11.00">...</text>
<polygon fill="#ffffff" stroke="transparent" points="541,-233 541,-251 715,-251 715,-233 541,-233"/>
<polygon fill="none" stroke="black" points="541,-233 541,-251 715,-251 715,-233 541,-233"/>
<polygon fill="#ffffff" stroke="transparent" points="542,-234 542,-250 608,-250 608,-234 542,-234"/>
<text text-anchor="start" x="544" y="-239.2" font-family="Helvetica,sans-Serif" font-size="11.00">&lt; 2</text>
<polygon fill="#ffffff" stroke="transparent" points="608,-234 608,-250 661,-250 661,-234 608,-234"/>
<text text-anchor="start" x="630.5" y="-239.2" font-family="Helvetica,sans-Serif" font-size="11.00"> &#160;</text>
<polygon fill="#ffffff" stroke="transparent" points="661,-234 661,-250 714,-250 714,-234 661,-234"/>
<text text-anchor="start" x="704" y="-239.2" font-family="Helvetica,sans-Serif" font-size="11.00"> &#160;</text>
<polygon fill="black" stroke="black" points="608,-234 608,-250 608,-250 608,-234 608,-234"/>
<polygon fill="black" stroke="black" points="661,-234 661,-250 661,-250 661,-234 661,-234"/>
</a>
</g>
</g>
<!-- transaction_forks&#45;&gt;blocks -->
<g id="edge11" class="edge">
<title>transaction_forks:w&#45;&gt;blocks:e</title>
<path fill="none" stroke="black" d="M525.57,-259.7C440.36,-256.54 253.4,-230.41 197,-275 145.9,-315.4 222.14,-416 157,-416"/>
<polygon fill="black" stroke="black" points="532,-259.83 539.93,-263.6 536,-259.92 540,-260 540,-260 540,-260 536,-259.92 540.07,-256.4 532,-259.83 532,-259.83"/>
<ellipse fill="none" stroke="black" cx="528.8" cy="-259.77" rx="3.2" ry="3.2"/>
</g>
<!-- transaction_forks&#45;&gt;transactions -->
<g id="edge10" class="edge">
<title>transaction_forks:w&#45;&gt;transactions:e</title>
<path fill="none" stroke="black" d="M525.73,-262.09C489.71,-274.67 522,-340.92 486,-379 460.6,-405.86 448.47,-416 411.5,-416"/>
<polygon fill="black" stroke="black" points="532.08,-261.16 540.52,-263.56 536.04,-260.58 540,-260 540,-260 540,-260 536.04,-260.58 539.48,-256.44 532.08,-261.16 532.08,-261.16"/>
<ellipse fill="none" stroke="black" cx="528.92" cy="-261.63" rx="3.2" ry="3.2"/>
</g>
<!-- withdrawals -->
<g id="node10" class="node">
<title>withdrawals</title>
<g id="a_node10"><a xlink:href="../../tables/withdrawals.html" xlink:title="withdrawals" target="_top">
<polygon fill="#ffffff" stroke="transparent" points="215.5,-37 215.5,-235 467.5,-235 467.5,-37 215.5,-37"/>
<polygon fill="#f5f5f5" stroke="transparent" points="217.5,-211 217.5,-233 465.5,-233 465.5,-211 217.5,-211"/>
<polygon fill="none" stroke="black" points="217.5,-211 217.5,-233 465.5,-233 465.5,-211 217.5,-211"/>
<text text-anchor="start" x="222.5" y="-220.2" font-family="Helvetica,sans-Serif" font-weight="bold" font-size="11.00">withdrawals</text>
<text text-anchor="start" x="423.5" y="-219.2" font-family="Helvetica,sans-Serif" font-size="11.00">[table]</text>
<polygon fill="none" stroke="black" points="217.5,-189 217.5,-211 350.5,-211 350.5,-189 217.5,-189"/>
<image xlink:href="../../images/primaryKeys.png" width="11px" height="12px" preserveAspectRatio="xMinYMin meet" x="222.5" y="-206"/>
<text text-anchor="start" x="237.5" y="-197.2" font-family="Helvetica,sans-Serif" font-size="11.00">index</text>
<polygon fill="none" stroke="black" points="350.5,-189 350.5,-211 465.5,-211 465.5,-189 350.5,-189"/>
<text text-anchor="start" x="353.5" y="-197.2" font-family="Helvetica,sans-Serif" font-size="11.00">int4[10]</text>
<polygon fill="none" stroke="black" points="217.5,-167 217.5,-189 350.5,-189 350.5,-167 217.5,-167"/>
<text text-anchor="start" x="237.5" y="-175.2" font-family="Helvetica,sans-Serif" font-size="11.00">validator_index</text>
<polygon fill="none" stroke="black" points="350.5,-167 350.5,-189 465.5,-189 465.5,-167 350.5,-167"/>
<text text-anchor="start" x="353.5" y="-175.2" font-family="Helvetica,sans-Serif" font-size="11.00">int4[10]</text>
<polygon fill="none" stroke="black" points="217.5,-145 217.5,-167 350.5,-167 350.5,-145 217.5,-145"/>
<text text-anchor="start" x="237.5" y="-153.2" font-family="Helvetica,sans-Serif" font-size="11.00">amount</text>
<polygon fill="none" stroke="black" points="350.5,-145 350.5,-167 465.5,-167 465.5,-145 350.5,-145"/>
<text text-anchor="start" x="353.5" y="-153.2" font-family="Helvetica,sans-Serif" font-size="11.00">numeric[100]</text>
<polygon fill="none" stroke="black" points="217.5,-123 217.5,-145 350.5,-145 350.5,-123 217.5,-123"/>
<text text-anchor="start" x="237.5" y="-131.2" font-family="Helvetica,sans-Serif" font-size="11.00">inserted_at</text>
<polygon fill="none" stroke="black" points="350.5,-123 350.5,-145 465.5,-145 465.5,-123 350.5,-123"/>
<text text-anchor="start" x="353.5" y="-131.2" font-family="Helvetica,sans-Serif" font-size="11.00">timestamp[29,6]</text>
<polygon fill="none" stroke="black" points="217.5,-101 217.5,-123 350.5,-123 350.5,-101 217.5,-101"/>
<text text-anchor="start" x="237.5" y="-109.2" font-family="Helvetica,sans-Serif" font-size="11.00">updated_at</text>
<polygon fill="none" stroke="black" points="350.5,-101 350.5,-123 465.5,-123 465.5,-101 350.5,-101"/>
<text text-anchor="start" x="353.5" y="-109.2" font-family="Helvetica,sans-Serif" font-size="11.00">timestamp[29,6]</text>
<polygon fill="#ffffff" stroke="transparent" points="217.5,-79 217.5,-101 350.5,-101 350.5,-79 217.5,-79"/>
<polygon fill="none" stroke="black" points="217.5,-79 217.5,-101 350.5,-101 350.5,-79 217.5,-79"/>
<text text-anchor="start" x="237.5" y="-87.2" font-family="Helvetica,sans-Serif" font-size="11.00">address_hash</text>
<polygon fill="none" stroke="black" points="350.5,-79 350.5,-101 465.5,-101 465.5,-79 350.5,-79"/>
<text text-anchor="start" x="353.5" y="-87.2" font-family="Helvetica,sans-Serif" font-size="11.00">bytea[2147483647]</text>
<polygon fill="#ffffff" stroke="transparent" points="217.5,-57 217.5,-79 350.5,-79 350.5,-57 217.5,-57"/>
<polygon fill="none" stroke="black" points="217.5,-57 217.5,-79 350.5,-79 350.5,-57 217.5,-57"/>
<image xlink:href="../../images/foreignKeys.png" width="11px" height="12px" preserveAspectRatio="xMinYMin meet" x="222.5" y="-74"/>
<text text-anchor="start" x="237.5" y="-65.2" font-family="Helvetica,sans-Serif" font-size="11.00">block_hash</text>
<polygon fill="none" stroke="black" points="350.5,-57 350.5,-79 465.5,-79 465.5,-57 350.5,-57"/>
<text text-anchor="start" x="353.5" y="-65.2" font-family="Helvetica,sans-Serif" font-size="11.00">bytea[2147483647]</text>
<polygon fill="#ffffff" stroke="transparent" points="217.5,-39 217.5,-57 465.5,-57 465.5,-39 217.5,-39"/>
<polygon fill="none" stroke="black" points="217.5,-39 217.5,-57 465.5,-57 465.5,-39 217.5,-39"/>
<polygon fill="#ffffff" stroke="transparent" points="218.5,-40 218.5,-56 304.5,-56 304.5,-40 218.5,-40"/>
<text text-anchor="start" x="220.5" y="-45.2" font-family="Helvetica,sans-Serif" font-size="11.00">&lt; 1</text>
<polygon fill="#ffffff" stroke="transparent" points="304.5,-40 304.5,-56 378.5,-56 378.5,-40 304.5,-40"/>
<text text-anchor="start" x="337.5" y="-45.2" font-family="Helvetica,sans-Serif" font-size="11.00"> &#160;</text>
<polygon fill="#ffffff" stroke="transparent" points="378.5,-40 378.5,-56 464.5,-56 464.5,-40 378.5,-40"/>
<text text-anchor="start" x="442.5" y="-45.2" font-family="Helvetica,sans-Serif" font-size="11.00">0 &gt;</text>
<polygon fill="black" stroke="black" points="304.5,-40 304.5,-56 304.5,-56 304.5,-40 304.5,-40"/>
<polygon fill="black" stroke="black" points="378.5,-40 378.5,-56 378.5,-56 378.5,-40 378.5,-40"/>
<polygon fill="none" stroke="black" stroke-width="2" points="216.5,-38 216.5,-234 466.5,-234 466.5,-38 216.5,-38"/>
</a>
</g>
</g>
<!-- withdrawals&#45;&gt;blocks -->
<g id="edge13" class="edge">
<title>withdrawals:w&#45;&gt;blocks:e</title>
<path fill="none" stroke="black" d="M202.76,-72.66C150.54,-113.95 230.09,-416 157,-416"/>
<polygon fill="black" stroke="black" points="208.92,-70.57 217.66,-71.41 212.71,-69.28 216.5,-68 216.5,-68 216.5,-68 212.71,-69.28 215.34,-64.59 208.92,-70.57 208.92,-70.57"/>
<ellipse fill="none" stroke="black" cx="205.89" cy="-71.6" rx="3.2" ry="3.2"/>
</g>
</g>
</svg>
