<?xml version="1.0" encoding="UTF-8" standalone="no"?>
<!DOCTYPE svg PUBLIC "-//W3C//DTD SVG 1.1//EN"
 "http://www.w3.org/Graphics/SVG/1.1/DTD/svg11.dtd">
<!-- Generated by graphviz version 2.43.0 (0)
 -->
<!-- Title: oneDegreeRelationshipsDiagramImplied Pages: 1 -->
<svg width="1094pt" height="869pt"
 viewBox="0.00 0.00 1094.00 868.70" xmlns="http://www.w3.org/2000/svg" xmlns:xlink="http://www.w3.org/1999/xlink">
<g id="graph0" class="graph" transform="scale(1 1) rotate(0) translate(4 864.7)">
<title>oneDegreeRelationshipsDiagramImplied</title>
<polygon fill="#ffffff" stroke="transparent" points="-4,4 -4,-864.7 1090,-864.7 1090,4 -4,4"/>
<text text-anchor="middle" x="79.5" y="-7.2" font-family="Helvetica,sans-Serif" font-size="11.00">Generated by SchemaSpy</text>
<!-- block_second_degree_relations -->
<g id="node1" class="node">
<title>block_second_degree_relations</title>
<g id="a_node1"><a xlink:href="../../tables/block_second_degree_relations.html" xlink:title="block_second_degree_relations" target="_top">
<polygon fill="#ffffff" stroke="transparent" points="506,-732.7 506,-856.7 779,-856.7 779,-732.7 506,-732.7"/>
<polygon fill="#f5f5f5" stroke="transparent" points="506.5,-834.7 506.5,-856.7 779.5,-856.7 779.5,-834.7 506.5,-834.7"/>
<polygon fill="none" stroke="black" points="506.5,-834.7 506.5,-856.7 779.5,-856.7 779.5,-834.7 506.5,-834.7"/>
<text text-anchor="start" x="511.5" y="-843.9" font-family="Helvetica,sans-Serif" font-weight="bold" font-size="11.00">block_second_degree_relations</text>
<text text-anchor="start" x="737.5" y="-842.9" font-family="Helvetica,sans-Serif" font-size="11.00">[table]</text>
<polygon fill="none" stroke="black" points="506.5,-812.7 506.5,-834.7 779.5,-834.7 779.5,-812.7 506.5,-812.7"/>
<image xlink:href="../../images/primaryKeys.png" width="11px" height="12px" preserveAspectRatio="xMinYMin meet" x="511.5" y="-829.697"/>
<text text-anchor="start" x="539.5" y="-820.9" font-family="Helvetica,sans-Serif" font-size="11.00">nephew_hash</text>
<polygon fill="none" stroke="black" points="506.5,-790.7 506.5,-812.7 779.5,-812.7 779.5,-790.7 506.5,-790.7"/>
<image xlink:href="../../images/primaryKeys.png" width="11px" height="12px" preserveAspectRatio="xMinYMin meet" x="511.5" y="-807.697"/>
<text text-anchor="start" x="539.5" y="-798.9" font-family="Helvetica,sans-Serif" font-size="11.00">uncle_hash</text>
<polygon fill="none" stroke="black" points="506.5,-768.7 506.5,-790.7 779.5,-790.7 779.5,-768.7 506.5,-768.7"/>
<image xlink:href="../../images/foreignKeys.png" width="11px" height="12px" preserveAspectRatio="xMinYMin meet" x="511.5" y="-785.697"/>
<text text-anchor="start" x="539.5" y="-776.9" font-family="Helvetica,sans-Serif" font-size="11.00">index</text>
<polygon fill="none" stroke="black" points="506.5,-750.7 506.5,-768.7 779.5,-768.7 779.5,-750.7 506.5,-750.7"/>
<text text-anchor="start" x="509.5" y="-756.9" font-family="Helvetica,sans-Serif" font-size="11.00">...</text>
<polygon fill="#ffffff" stroke="transparent" points="506.5,-732.7 506.5,-750.7 779.5,-750.7 779.5,-732.7 506.5,-732.7"/>
<polygon fill="none" stroke="black" points="506.5,-732.7 506.5,-750.7 779.5,-750.7 779.5,-732.7 506.5,-732.7"/>
<polygon fill="#ffffff" stroke="transparent" points="507.5,-733.7 507.5,-749.7 606.5,-749.7 606.5,-733.7 507.5,-733.7"/>
<text text-anchor="start" x="509.5" y="-738.9" font-family="Helvetica,sans-Serif" font-size="11.00">&lt; 2</text>
<polygon fill="#ffffff" stroke="transparent" points="606.5,-733.7 606.5,-749.7 692.5,-749.7 692.5,-733.7 606.5,-733.7"/>
<text text-anchor="start" x="645.5" y="-738.9" font-family="Helvetica,sans-Serif" font-size="11.00"> &#160;</text>
<polygon fill="#ffffff" stroke="transparent" points="692.5,-733.7 692.5,-749.7 778.5,-749.7 778.5,-733.7 692.5,-733.7"/>
<text text-anchor="start" x="768.5" y="-738.9" font-family="Helvetica,sans-Serif" font-size="11.00"> &#160;</text>
<polygon fill="black" stroke="black" points="606.5,-733.7 606.5,-749.7 606.5,-749.7 606.5,-733.7 606.5,-733.7"/>
<polygon fill="black" stroke="black" points="692.5,-733.7 692.5,-749.7 692.5,-749.7 692.5,-733.7 692.5,-733.7"/>
</a>
</g>
</g>
<!-- withdrawals -->
<g id="node2" class="node">
<title>withdrawals</title>
<g id="a_node2"><a xlink:href="../../tables/withdrawals.html" xlink:title="withdrawals" target="_top">
<polygon fill="#ffffff" stroke="transparent" points="205,-383.7 205,-581.7 457,-581.7 457,-383.7 205,-383.7"/>
<polygon fill="#f5f5f5" stroke="transparent" points="207,-557.7 207,-579.7 455,-579.7 455,-557.7 207,-557.7"/>
<polygon fill="none" stroke="black" points="207,-557.7 207,-579.7 455,-579.7 455,-557.7 207,-557.7"/>
<text text-anchor="start" x="212" y="-566.9" font-family="Helvetica,sans-Serif" font-weight="bold" font-size="11.00">withdrawals</text>
<text text-anchor="start" x="413" y="-565.9" font-family="Helvetica,sans-Serif" font-size="11.00">[table]</text>
<polygon fill="none" stroke="black" points="207,-535.7 207,-557.7 340,-557.7 340,-535.7 207,-535.7"/>
<image xlink:href="../../images/primaryKeys.png" width="11px" height="12px" preserveAspectRatio="xMinYMin meet" x="212" y="-552.697"/>
<text text-anchor="start" x="227" y="-543.9" font-family="Helvetica,sans-Serif" font-size="11.00">index</text>
<polygon fill="none" stroke="black" points="340,-535.7 340,-557.7 455,-557.7 455,-535.7 340,-535.7"/>
<text text-anchor="start" x="343" y="-543.9" font-family="Helvetica,sans-Serif" font-size="11.00">int4[10]</text>
<polygon fill="none" stroke="black" points="207,-513.7 207,-535.7 340,-535.7 340,-513.7 207,-513.7"/>
<text text-anchor="start" x="227" y="-521.9" font-family="Helvetica,sans-Serif" font-size="11.00">validator_index</text>
<polygon fill="none" stroke="black" points="340,-513.7 340,-535.7 455,-535.7 455,-513.7 340,-513.7"/>
<text text-anchor="start" x="343" y="-521.9" font-family="Helvetica,sans-Serif" font-size="11.00">int4[10]</text>
<polygon fill="none" stroke="black" points="207,-491.7 207,-513.7 340,-513.7 340,-491.7 207,-491.7"/>
<text text-anchor="start" x="227" y="-499.9" font-family="Helvetica,sans-Serif" font-size="11.00">amount</text>
<polygon fill="none" stroke="black" points="340,-491.7 340,-513.7 455,-513.7 455,-491.7 340,-491.7"/>
<text text-anchor="start" x="343" y="-499.9" font-family="Helvetica,sans-Serif" font-size="11.00">numeric[100]</text>
<polygon fill="none" stroke="black" points="207,-469.7 207,-491.7 340,-491.7 340,-469.7 207,-469.7"/>
<text text-anchor="start" x="227" y="-477.9" font-family="Helvetica,sans-Serif" font-size="11.00">inserted_at</text>
<polygon fill="none" stroke="black" points="340,-469.7 340,-491.7 455,-491.7 455,-469.7 340,-469.7"/>
<text text-anchor="start" x="343" y="-477.9" font-family="Helvetica,sans-Serif" font-size="11.00">timestamp[29,6]</text>
<polygon fill="none" stroke="black" points="207,-447.7 207,-469.7 340,-469.7 340,-447.7 207,-447.7"/>
<text text-anchor="start" x="227" y="-455.9" font-family="Helvetica,sans-Serif" font-size="11.00">updated_at</text>
<polygon fill="none" stroke="black" points="340,-447.7 340,-469.7 455,-469.7 455,-447.7 340,-447.7"/>
<text text-anchor="start" x="343" y="-455.9" font-family="Helvetica,sans-Serif" font-size="11.00">timestamp[29,6]</text>
<polygon fill="#ffffff" stroke="transparent" points="207,-425.7 207,-447.7 340,-447.7 340,-425.7 207,-425.7"/>
<polygon fill="none" stroke="black" points="207,-425.7 207,-447.7 340,-447.7 340,-425.7 207,-425.7"/>
<text text-anchor="start" x="227" y="-433.9" font-family="Helvetica,sans-Serif" font-size="11.00">address_hash</text>
<polygon fill="none" stroke="black" points="340,-425.7 340,-447.7 455,-447.7 455,-425.7 340,-425.7"/>
<text text-anchor="start" x="343" y="-433.9" font-family="Helvetica,sans-Serif" font-size="11.00">bytea[2147483647]</text>
<polygon fill="#ffffff" stroke="transparent" points="207,-403.7 207,-425.7 340,-425.7 340,-403.7 207,-403.7"/>
<polygon fill="none" stroke="black" points="207,-403.7 207,-425.7 340,-425.7 340,-403.7 207,-403.7"/>
<image xlink:href="../../images/foreignKeys.png" width="11px" height="12px" preserveAspectRatio="xMinYMin meet" x="212" y="-420.697"/>
<text text-anchor="start" x="227" y="-411.9" font-family="Helvetica,sans-Serif" font-size="11.00">block_hash</text>
<polygon fill="none" stroke="black" points="340,-403.7 340,-425.7 455,-425.7 455,-403.7 340,-403.7"/>
<text text-anchor="start" x="343" y="-411.9" font-family="Helvetica,sans-Serif" font-size="11.00">bytea[2147483647]</text>
<polygon fill="#ffffff" stroke="transparent" points="207,-385.7 207,-403.7 455,-403.7 455,-385.7 207,-385.7"/>
<polygon fill="none" stroke="black" points="207,-385.7 207,-403.7 455,-403.7 455,-385.7 207,-385.7"/>
<polygon fill="#ffffff" stroke="transparent" points="208,-386.7 208,-402.7 294,-402.7 294,-386.7 208,-386.7"/>
<text text-anchor="start" x="210" y="-391.9" font-family="Helvetica,sans-Serif" font-size="11.00">&lt; 1</text>
<polygon fill="#ffffff" stroke="transparent" points="294,-386.7 294,-402.7 368,-402.7 368,-386.7 294,-386.7"/>
<text text-anchor="start" x="327" y="-391.9" font-family="Helvetica,sans-Serif" font-size="11.00"> &#160;</text>
<polygon fill="#ffffff" stroke="transparent" points="368,-386.7 368,-402.7 454,-402.7 454,-386.7 368,-386.7"/>
<text text-anchor="start" x="432" y="-391.9" font-family="Helvetica,sans-Serif" font-size="11.00">5 &gt;</text>
<polygon fill="black" stroke="black" points="294,-386.7 294,-402.7 294,-402.7 294,-386.7 294,-386.7"/>
<polygon fill="black" stroke="black" points="368,-386.7 368,-402.7 368,-402.7 368,-386.7 368,-386.7"/>
<polygon fill="none" stroke="black" stroke-width="2" points="206,-384.7 206,-580.7 456,-580.7 456,-384.7 206,-384.7"/>
</a>
</g>
</g>
<!-- block_second_degree_relations&#45;&gt;withdrawals -->
<g id="edge1" class="edge">
<title>block_second_degree_relations:w&#45;&gt;withdrawals:e</title>
<path fill="none" stroke="black" stroke-dasharray="5,2" d="M490.91,-777.82C416,-755.77 556.28,-546.7 456,-546.7"/>
<polygon fill="black" stroke="black" points="497.57,-778.68 505.04,-783.27 501.53,-779.19 505.5,-779.7 505.5,-779.7 505.5,-779.7 501.53,-779.19 505.96,-776.13 497.57,-778.68 497.57,-778.68"/>
<ellipse fill="none" stroke="black" cx="494.39" cy="-778.27" rx="3.2" ry="3.2"/>
</g>
<!-- blocks -->
<g id="node3" class="node">
<title>blocks</title>
<g id="a_node3"><a xlink:href="../../tables/blocks.html" xlink:title="blocks" target="_top">
<polygon fill="#ffffff" stroke="transparent" points="8,-191.7 8,-425.7 156,-425.7 156,-191.7 8,-191.7"/>
<polygon fill="#f5f5f5" stroke="transparent" points="8,-403.7 8,-425.7 156,-425.7 156,-403.7 8,-403.7"/>
<polygon fill="none" stroke="black" points="8,-403.7 8,-425.7 156,-425.7 156,-403.7 8,-403.7"/>
<text text-anchor="start" x="13" y="-412.9" font-family="Helvetica,sans-Serif" font-weight="bold" font-size="11.00">blocks</text>
<text text-anchor="start" x="114" y="-411.9" font-family="Helvetica,sans-Serif" font-size="11.00">[table]</text>
<polygon fill="#ffffff" stroke="transparent" points="8,-381.7 8,-403.7 156,-403.7 156,-381.7 8,-381.7"/>
<polygon fill="none" stroke="black" points="8,-381.7 8,-403.7 156,-403.7 156,-381.7 8,-381.7"/>
<text text-anchor="start" x="28" y="-389.9" font-family="Helvetica,sans-Serif" font-size="11.00">consensus</text>
<polygon fill="none" stroke="black" points="8,-359.7 8,-381.7 156,-381.7 156,-359.7 8,-359.7"/>
<image xlink:href="../../images/primaryKeys.png" width="11px" height="12px" preserveAspectRatio="xMinYMin meet" x="13" y="-376.697"/>
<text text-anchor="start" x="28" y="-367.9" font-family="Helvetica,sans-Serif" font-size="11.00">hash</text>
<polygon fill="#ffffff" stroke="transparent" points="8,-337.7 8,-359.7 156,-359.7 156,-337.7 8,-337.7"/>
<polygon fill="none" stroke="black" points="8,-337.7 8,-359.7 156,-359.7 156,-337.7 8,-337.7"/>
<text text-anchor="start" x="28" y="-345.9" font-family="Helvetica,sans-Serif" font-size="11.00">miner_hash</text>
<polygon fill="#ffffff" stroke="transparent" points="8,-315.7 8,-337.7 156,-337.7 156,-315.7 8,-315.7"/>
<polygon fill="none" stroke="black" points="8,-315.7 8,-337.7 156,-337.7 156,-315.7 8,-315.7"/>
<image xlink:href="../../images/foreignKeys.png" width="11px" height="12px" preserveAspectRatio="xMinYMin meet" x="13" y="-332.697"/>
<text text-anchor="start" x="28" y="-323.9" font-family="Helvetica,sans-Serif" font-size="11.00">number</text>
<polygon fill="#ffffff" stroke="transparent" points="8,-293.7 8,-315.7 156,-315.7 156,-293.7 8,-293.7"/>
<polygon fill="none" stroke="black" points="8,-293.7 8,-315.7 156,-315.7 156,-293.7 8,-293.7"/>
<text text-anchor="start" x="28" y="-301.9" font-family="Helvetica,sans-Serif" font-size="11.00">parent_hash</text>
<polygon fill="#ffffff" stroke="transparent" points="8,-271.7 8,-293.7 156,-293.7 156,-271.7 8,-271.7"/>
<polygon fill="none" stroke="black" points="8,-271.7 8,-293.7 156,-293.7 156,-271.7 8,-271.7"/>
<text text-anchor="start" x="28" y="-279.9" font-family="Helvetica,sans-Serif" font-size="11.00">timestamp</text>
<polygon fill="#ffffff" stroke="transparent" points="8,-249.7 8,-271.7 156,-271.7 156,-249.7 8,-249.7"/>
<polygon fill="none" stroke="black" points="8,-249.7 8,-271.7 156,-271.7 156,-249.7 8,-249.7"/>
<text text-anchor="start" x="28" y="-257.9" font-family="Helvetica,sans-Serif" font-size="11.00">inserted_at</text>
<polygon fill="#ffffff" stroke="transparent" points="8,-227.7 8,-249.7 156,-249.7 156,-227.7 8,-227.7"/>
<polygon fill="none" stroke="black" points="8,-227.7 8,-249.7 156,-249.7 156,-227.7 8,-227.7"/>
<text text-anchor="start" x="28" y="-235.9" font-family="Helvetica,sans-Serif" font-size="11.00">is_empty</text>
<polygon fill="none" stroke="black" points="8,-209.7 8,-227.7 156,-227.7 156,-209.7 8,-209.7"/>
<text text-anchor="start" x="11" y="-215.9" font-family="Helvetica,sans-Serif" font-size="11.00">...</text>
<polygon fill="#ffffff" stroke="transparent" points="8,-191.7 8,-209.7 156,-209.7 156,-191.7 8,-191.7"/>
<polygon fill="none" stroke="black" points="8,-191.7 8,-209.7 156,-209.7 156,-191.7 8,-191.7"/>
<polygon fill="#ffffff" stroke="transparent" points="9,-192.7 9,-208.7 54,-208.7 54,-192.7 9,-192.7"/>
<text text-anchor="start" x="11" y="-197.9" font-family="Helvetica,sans-Serif" font-size="11.00"> &#160;</text>
<polygon fill="#ffffff" stroke="transparent" points="54,-192.7 54,-208.7 99,-208.7 99,-192.7 54,-192.7"/>
<text text-anchor="start" x="72.5" y="-197.9" font-family="Helvetica,sans-Serif" font-size="11.00"> &#160;</text>
<polygon fill="#ffffff" stroke="transparent" points="99,-192.7 99,-208.7 155,-208.7 155,-192.7 99,-192.7"/>
<text text-anchor="start" x="133" y="-197.9" font-family="Helvetica,sans-Serif" font-size="11.00">9 &gt;</text>
<polygon fill="black" stroke="black" points="54,-192.7 54,-208.7 54,-208.7 54,-192.7 54,-192.7"/>
<polygon fill="black" stroke="black" points="99,-192.7 99,-208.7 99,-208.7 99,-192.7 99,-192.7"/>
</a>
</g>
</g>
<!-- block_second_degree_relations&#45;&gt;blocks -->
<g id="edge2" class="edge">
<title>block_second_degree_relations:w&#45;&gt;blocks:e</title>
<path fill="none" stroke="black" d="M490.76,-823.48C331.41,-818.65 284.36,-734.17 197,-592.7 170.66,-550.05 207.13,-370.7 157,-370.7"/>
<polygon fill="black" stroke="black" points="497.5,-823.58 505.45,-827.3 501.5,-823.64 505.5,-823.7 505.5,-823.7 505.5,-823.7 501.5,-823.64 505.55,-820.1 497.5,-823.58 497.5,-823.58"/>
<ellipse fill="none" stroke="black" cx="494.3" cy="-823.53" rx="3.2" ry="3.2"/>
</g>
<!-- withdrawals&#45;&gt;blocks -->
<g id="edge10" class="edge">
<title>withdrawals:w&#45;&gt;blocks:e</title>
<path fill="none" stroke="black" d="M192.32,-409.99C179,-398.64 180.32,-370.7 157,-370.7"/>
<polygon fill="black" stroke="black" points="198.44,-412.09 204.83,-418.1 202.22,-413.4 206,-414.7 206,-414.7 206,-414.7 202.22,-413.4 207.17,-411.29 198.44,-412.09 198.44,-412.09"/>
<ellipse fill="none" stroke="black" cx="195.41" cy="-411.05" rx="3.2" ry="3.2"/>
</g>
<!-- internal_transactions -->
<g id="node4" class="node">
<title>internal_transactions</title>
<g id="a_node4"><a xlink:href="../../tables/internal_transactions.html" xlink:title="internal_transactions" target="_top">
<polygon fill="#ffffff" stroke="transparent" points="828,-148.7 828,-404.7 1078,-404.7 1078,-148.7 828,-148.7"/>
<polygon fill="#f5f5f5" stroke="transparent" points="828,-382.7 828,-404.7 1078,-404.7 1078,-382.7 828,-382.7"/>
<polygon fill="none" stroke="black" points="828,-382.7 828,-404.7 1078,-404.7 1078,-382.7 828,-382.7"/>
<text text-anchor="start" x="833" y="-391.9" font-family="Helvetica,sans-Serif" font-weight="bold" font-size="11.00">internal_transactions</text>
<text text-anchor="start" x="1036" y="-390.9" font-family="Helvetica,sans-Serif" font-size="11.00">[table]</text>
<polygon fill="#ffffff" stroke="transparent" points="828,-360.7 828,-382.7 1078,-382.7 1078,-360.7 828,-360.7"/>
<polygon fill="none" stroke="black" points="828,-360.7 828,-382.7 1078,-382.7 1078,-360.7 828,-360.7"/>
<image xlink:href="../../images/foreignKeys.png" width="11px" height="12px" preserveAspectRatio="xMinYMin meet" x="833" y="-377.697"/>
<text text-anchor="start" x="848" y="-368.9" font-family="Helvetica,sans-Serif" font-size="11.00">index</text>
<polygon fill="#ffffff" stroke="transparent" points="828,-338.7 828,-360.7 1078,-360.7 1078,-338.7 828,-338.7"/>
<polygon fill="none" stroke="black" points="828,-338.7 828,-360.7 1078,-360.7 1078,-338.7 828,-338.7"/>
<text text-anchor="start" x="848" y="-346.9" font-family="Helvetica,sans-Serif" font-size="11.00">created_contract_address_hash</text>
<polygon fill="#ffffff" stroke="transparent" points="828,-316.7 828,-338.7 1078,-338.7 1078,-316.7 828,-316.7"/>
<polygon fill="none" stroke="black" points="828,-316.7 828,-338.7 1078,-338.7 1078,-316.7 828,-316.7"/>
<text text-anchor="start" x="848" y="-324.9" font-family="Helvetica,sans-Serif" font-size="11.00">from_address_hash</text>
<polygon fill="#ffffff" stroke="transparent" points="828,-294.7 828,-316.7 1078,-316.7 1078,-294.7 828,-294.7"/>
<polygon fill="none" stroke="black" points="828,-294.7 828,-316.7 1078,-316.7 1078,-294.7 828,-294.7"/>
<text text-anchor="start" x="848" y="-302.9" font-family="Helvetica,sans-Serif" font-size="11.00">to_address_hash</text>
<polygon fill="#ffffff" stroke="transparent" points="828,-272.7 828,-294.7 1078,-294.7 1078,-272.7 828,-272.7"/>
<polygon fill="none" stroke="black" points="828,-272.7 828,-294.7 1078,-294.7 1078,-272.7 828,-272.7"/>
<image xlink:href="../../images/foreignKeys.png" width="11px" height="12px" preserveAspectRatio="xMinYMin meet" x="833" y="-289.697"/>
<text text-anchor="start" x="848" y="-280.9" font-family="Helvetica,sans-Serif" font-size="11.00">transaction_hash</text>
<polygon fill="#ffffff" stroke="transparent" points="828,-250.7 828,-272.7 1078,-272.7 1078,-250.7 828,-250.7"/>
<polygon fill="none" stroke="black" points="828,-250.7 828,-272.7 1078,-272.7 1078,-250.7 828,-250.7"/>
<text text-anchor="start" x="848" y="-258.9" font-family="Helvetica,sans-Serif" font-size="11.00">block_number</text>
<polygon fill="#ffffff" stroke="transparent" points="828,-228.7 828,-250.7 1078,-250.7 1078,-228.7 828,-228.7"/>
<polygon fill="none" stroke="black" points="828,-228.7 828,-250.7 1078,-250.7 1078,-228.7 828,-228.7"/>
<image xlink:href="../../images/foreignKeys.png" width="11px" height="12px" preserveAspectRatio="xMinYMin meet" x="833" y="-245.697"/>
<text text-anchor="start" x="848" y="-236.9" font-family="Helvetica,sans-Serif" font-size="11.00">transaction_index</text>
<polygon fill="none" stroke="black" points="828,-206.7 828,-228.7 1078,-228.7 1078,-206.7 828,-206.7"/>
<image xlink:href="../../images/primaryKeys.png" width="11px" height="12px" preserveAspectRatio="xMinYMin meet" x="833" y="-223.697"/>
<text text-anchor="start" x="848" y="-214.9" font-family="Helvetica,sans-Serif" font-size="11.00">block_hash</text>
<polygon fill="none" stroke="black" points="828,-184.7 828,-206.7 1078,-206.7 1078,-184.7 828,-184.7"/>
<image xlink:href="../../images/primaryKeys.png" width="11px" height="12px" preserveAspectRatio="xMinYMin meet" x="833" y="-201.697"/>
<text text-anchor="start" x="848" y="-192.9" font-family="Helvetica,sans-Serif" font-size="11.00">block_index</text>
<polygon fill="none" stroke="black" points="828,-166.7 828,-184.7 1078,-184.7 1078,-166.7 828,-166.7"/>
<text text-anchor="start" x="831" y="-172.9" font-family="Helvetica,sans-Serif" font-size="11.00">...</text>
<polygon fill="#ffffff" stroke="transparent" points="828,-148.7 828,-166.7 1078,-166.7 1078,-148.7 828,-148.7"/>
<polygon fill="none" stroke="black" points="828,-148.7 828,-166.7 1078,-166.7 1078,-148.7 828,-148.7"/>
<polygon fill="#ffffff" stroke="transparent" points="829,-149.7 829,-165.7 920,-165.7 920,-149.7 829,-149.7"/>
<text text-anchor="start" x="831" y="-154.9" font-family="Helvetica,sans-Serif" font-size="11.00">&lt; 4</text>
<polygon fill="#ffffff" stroke="transparent" points="920,-149.7 920,-165.7 999,-165.7 999,-149.7 920,-149.7"/>
<text text-anchor="start" x="955.5" y="-154.9" font-family="Helvetica,sans-Serif" font-size="11.00"> &#160;</text>
<polygon fill="#ffffff" stroke="transparent" points="999,-149.7 999,-165.7 1077,-165.7 1077,-149.7 999,-149.7"/>
<text text-anchor="start" x="1067" y="-154.9" font-family="Helvetica,sans-Serif" font-size="11.00"> &#160;</text>
<polygon fill="black" stroke="black" points="920,-149.7 920,-165.7 920,-165.7 920,-149.7 920,-149.7"/>
<polygon fill="black" stroke="black" points="999,-149.7 999,-165.7 999,-165.7 999,-149.7 999,-149.7"/>
</a>
</g>
</g>
<!-- internal_transactions&#45;&gt;withdrawals -->
<g id="edge4" class="edge">
<title>internal_transactions:w&#45;&gt;withdrawals:e</title>
<path fill="none" stroke="black" stroke-dasharray="5,2" d="M813.06,-376.28C766.87,-412.41 837.21,-651.3 787,-695.7 762.94,-716.97 523.6,-715.08 498,-695.7 443.14,-654.17 524.8,-546.7 456,-546.7"/>
<polygon fill="black" stroke="black" points="819.4,-374.2 828.12,-375.12 823.2,-372.95 827,-371.7 827,-371.7 827,-371.7 823.2,-372.95 825.88,-368.28 819.4,-374.2 819.4,-374.2"/>
<ellipse fill="none" stroke="black" cx="816.36" cy="-375.19" rx="3.2" ry="3.2"/>
</g>
<!-- internal_transactions&#45;&gt;withdrawals -->
<g id="edge6" class="edge">
<title>internal_transactions:w&#45;&gt;withdrawals:e</title>
<path fill="none" stroke="black" stroke-dasharray="5,2" d="M812.76,-237.42C773.8,-222.06 834.96,-133.08 787,-96.7 761.42,-77.29 521.74,-75.07 498,-96.7 423.76,-164.33 556.43,-546.7 456,-546.7"/>
<polygon fill="black" stroke="black" points="819.1,-238.43 826.43,-243.25 823.05,-239.07 827,-239.7 827,-239.7 827,-239.7 823.05,-239.07 827.57,-236.14 819.1,-238.43 819.1,-238.43"/>
<ellipse fill="none" stroke="black" cx="815.94" cy="-237.93" rx="3.2" ry="3.2"/>
</g>
<!-- internal_transactions&#45;&gt;blocks -->
<g id="edge3" class="edge">
<title>internal_transactions:w&#45;&gt;blocks:e</title>
<path fill="none" stroke="black" d="M812.39,-215.19C775.78,-199.43 833.54,-113.74 787,-78.7 684.38,-1.45 619.71,-37.66 498,-78.7 338.72,-132.4 310.72,-183.91 197,-307.7 174.56,-332.12 190.17,-370.7 157,-370.7"/>
<polygon fill="black" stroke="black" points="819.12,-216.34 826.39,-221.25 823.06,-217.02 827,-217.7 827,-217.7 827,-217.7 823.06,-217.02 827.61,-214.15 819.12,-216.34 819.12,-216.34"/>
<ellipse fill="none" stroke="black" cx="815.96" cy="-215.8" rx="3.2" ry="3.2"/>
</g>
<!-- transactions -->
<g id="node5" class="node">
<title>transactions</title>
<g id="a_node5"><a xlink:href="../../tables/transactions.html" xlink:title="transactions" target="_top">
<polygon fill="#ffffff" stroke="transparent" points="506.5,-107.7 506.5,-495.7 778.5,-495.7 778.5,-107.7 506.5,-107.7"/>
<polygon fill="#f5f5f5" stroke="transparent" points="506.5,-473.7 506.5,-495.7 778.5,-495.7 778.5,-473.7 506.5,-473.7"/>
<polygon fill="none" stroke="black" points="506.5,-473.7 506.5,-495.7 778.5,-495.7 778.5,-473.7 506.5,-473.7"/>
<text text-anchor="start" x="511.5" y="-482.9" font-family="Helvetica,sans-Serif" font-weight="bold" font-size="11.00">transactions</text>
<text text-anchor="start" x="736.5" y="-481.9" font-family="Helvetica,sans-Serif" font-size="11.00">[table]</text>
<polygon fill="#ffffff" stroke="transparent" points="506.5,-451.7 506.5,-473.7 778.5,-473.7 778.5,-451.7 506.5,-451.7"/>
<polygon fill="none" stroke="black" points="506.5,-451.7 506.5,-473.7 778.5,-473.7 778.5,-451.7 506.5,-451.7"/>
<text text-anchor="start" x="526.5" y="-459.9" font-family="Helvetica,sans-Serif" font-size="11.00">error</text>
<polygon fill="none" stroke="black" points="506.5,-429.7 506.5,-451.7 778.5,-451.7 778.5,-429.7 506.5,-429.7"/>
<image xlink:href="../../images/primaryKeys.png" width="11px" height="12px" preserveAspectRatio="xMinYMin meet" x="511.5" y="-446.697"/>
<text text-anchor="start" x="526.5" y="-437.9" font-family="Helvetica,sans-Serif" font-size="11.00">hash</text>
<polygon fill="#ffffff" stroke="transparent" points="506.5,-407.7 506.5,-429.7 778.5,-429.7 778.5,-407.7 506.5,-407.7"/>
<polygon fill="none" stroke="black" points="506.5,-407.7 506.5,-429.7 778.5,-429.7 778.5,-407.7 506.5,-407.7"/>
<image xlink:href="../../images/foreignKeys.png" width="11px" height="12px" preserveAspectRatio="xMinYMin meet" x="511.5" y="-424.697"/>
<text text-anchor="start" x="526.5" y="-415.9" font-family="Helvetica,sans-Serif" font-size="11.00">index</text>
<polygon fill="#ffffff" stroke="transparent" points="506.5,-385.7 506.5,-407.7 778.5,-407.7 778.5,-385.7 506.5,-385.7"/>
<polygon fill="none" stroke="black" points="506.5,-385.7 506.5,-407.7 778.5,-407.7 778.5,-385.7 506.5,-385.7"/>
<text text-anchor="start" x="526.5" y="-393.9" font-family="Helvetica,sans-Serif" font-size="11.00">nonce</text>
<polygon fill="#ffffff" stroke="transparent" points="506.5,-363.7 506.5,-385.7 778.5,-385.7 778.5,-363.7 506.5,-363.7"/>
<polygon fill="none" stroke="black" points="506.5,-363.7 506.5,-385.7 778.5,-385.7 778.5,-363.7 506.5,-363.7"/>
<text text-anchor="start" x="526.5" y="-371.9" font-family="Helvetica,sans-Serif" font-size="11.00">status</text>
<polygon fill="#ffffff" stroke="transparent" points="506.5,-341.7 506.5,-363.7 778.5,-363.7 778.5,-341.7 506.5,-341.7"/>
<polygon fill="none" stroke="black" points="506.5,-341.7 506.5,-363.7 778.5,-363.7 778.5,-341.7 506.5,-341.7"/>
<text text-anchor="start" x="526.5" y="-349.9" font-family="Helvetica,sans-Serif" font-size="11.00">inserted_at</text>
<polygon fill="#ffffff" stroke="transparent" points="506.5,-319.7 506.5,-341.7 778.5,-341.7 778.5,-319.7 506.5,-319.7"/>
<polygon fill="none" stroke="black" points="506.5,-319.7 506.5,-341.7 778.5,-341.7 778.5,-319.7 506.5,-319.7"/>
<text text-anchor="start" x="526.5" y="-327.9" font-family="Helvetica,sans-Serif" font-size="11.00">updated_at</text>
<polygon fill="#ffffff" stroke="transparent" points="506.5,-297.7 506.5,-319.7 778.5,-319.7 778.5,-297.7 506.5,-297.7"/>
<polygon fill="none" stroke="black" points="506.5,-297.7 506.5,-319.7 778.5,-319.7 778.5,-297.7 506.5,-297.7"/>
<image xlink:href="../../images/foreignKeys.png" width="11px" height="12px" preserveAspectRatio="xMinYMin meet" x="511.5" y="-314.697"/>
<text text-anchor="start" x="526.5" y="-305.9" font-family="Helvetica,sans-Serif" font-size="11.00">block_hash</text>
<polygon fill="#ffffff" stroke="transparent" points="506.5,-275.7 506.5,-297.7 778.5,-297.7 778.5,-275.7 506.5,-275.7"/>
<polygon fill="none" stroke="black" points="506.5,-275.7 506.5,-297.7 778.5,-297.7 778.5,-275.7 506.5,-275.7"/>
<text text-anchor="start" x="526.5" y="-283.9" font-family="Helvetica,sans-Serif" font-size="11.00">block_number</text>
<polygon fill="#ffffff" stroke="transparent" points="506.5,-253.7 506.5,-275.7 778.5,-275.7 778.5,-253.7 506.5,-253.7"/>
<polygon fill="none" stroke="black" points="506.5,-253.7 506.5,-275.7 778.5,-275.7 778.5,-253.7 506.5,-253.7"/>
<text text-anchor="start" x="526.5" y="-261.9" font-family="Helvetica,sans-Serif" font-size="11.00">from_address_hash</text>
<polygon fill="#ffffff" stroke="transparent" points="506.5,-231.7 506.5,-253.7 778.5,-253.7 778.5,-231.7 506.5,-231.7"/>
<polygon fill="none" stroke="black" points="506.5,-231.7 506.5,-253.7 778.5,-253.7 778.5,-231.7 506.5,-231.7"/>
<text text-anchor="start" x="526.5" y="-239.9" font-family="Helvetica,sans-Serif" font-size="11.00">to_address_hash</text>
<polygon fill="#ffffff" stroke="transparent" points="506.5,-209.7 506.5,-231.7 778.5,-231.7 778.5,-209.7 506.5,-209.7"/>
<polygon fill="none" stroke="black" points="506.5,-209.7 506.5,-231.7 778.5,-231.7 778.5,-209.7 506.5,-209.7"/>
<text text-anchor="start" x="526.5" y="-217.9" font-family="Helvetica,sans-Serif" font-size="11.00">created_contract_address_hash</text>
<polygon fill="#ffffff" stroke="transparent" points="506.5,-187.7 506.5,-209.7 778.5,-209.7 778.5,-187.7 506.5,-187.7"/>
<polygon fill="none" stroke="black" points="506.5,-187.7 506.5,-209.7 778.5,-209.7 778.5,-187.7 506.5,-187.7"/>
<text text-anchor="start" x="526.5" y="-195.9" font-family="Helvetica,sans-Serif" font-size="11.00">created_contract_code_indexed_at</text>
<polygon fill="#ffffff" stroke="transparent" points="506.5,-165.7 506.5,-187.7 778.5,-187.7 778.5,-165.7 506.5,-165.7"/>
<polygon fill="none" stroke="black" points="506.5,-165.7 506.5,-187.7 778.5,-187.7 778.5,-165.7 506.5,-165.7"/>
<text text-anchor="start" x="526.5" y="-173.9" font-family="Helvetica,sans-Serif" font-size="11.00">block_timestamp</text>
<polygon fill="#ffffff" stroke="transparent" points="506.5,-143.7 506.5,-165.7 778.5,-165.7 778.5,-143.7 506.5,-143.7"/>
<polygon fill="none" stroke="black" points="506.5,-143.7 506.5,-165.7 778.5,-165.7 778.5,-143.7 506.5,-143.7"/>
<text text-anchor="start" x="526.5" y="-151.9" font-family="Helvetica,sans-Serif" font-size="11.00">block_consensus</text>
<polygon fill="none" stroke="black" points="506.5,-125.7 506.5,-143.7 778.5,-143.7 778.5,-125.7 506.5,-125.7"/>
<text text-anchor="start" x="509.5" y="-131.9" font-family="Helvetica,sans-Serif" font-size="11.00">...</text>
<polygon fill="#ffffff" stroke="transparent" points="506.5,-107.7 506.5,-125.7 778.5,-125.7 778.5,-107.7 506.5,-107.7"/>
<polygon fill="none" stroke="black" points="506.5,-107.7 506.5,-125.7 778.5,-125.7 778.5,-107.7 506.5,-107.7"/>
<polygon fill="#ffffff" stroke="transparent" points="507.5,-108.7 507.5,-124.7 601.5,-124.7 601.5,-108.7 507.5,-108.7"/>
<text text-anchor="start" x="509.5" y="-113.9" font-family="Helvetica,sans-Serif" font-size="11.00">&lt; 2</text>
<polygon fill="#ffffff" stroke="transparent" points="601.5,-108.7 601.5,-124.7 683.5,-124.7 683.5,-108.7 601.5,-108.7"/>
<text text-anchor="start" x="638.5" y="-113.9" font-family="Helvetica,sans-Serif" font-size="11.00"> &#160;</text>
<polygon fill="#ffffff" stroke="transparent" points="683.5,-108.7 683.5,-124.7 777.5,-124.7 777.5,-108.7 683.5,-108.7"/>
<text text-anchor="start" x="755.5" y="-113.9" font-family="Helvetica,sans-Serif" font-size="11.00">7 &gt;</text>
<polygon fill="black" stroke="black" points="601.5,-108.7 601.5,-124.7 601.5,-124.7 601.5,-108.7 601.5,-108.7"/>
<polygon fill="black" stroke="black" points="683.5,-108.7 683.5,-124.7 683.5,-124.7 683.5,-108.7 683.5,-108.7"/>
</a>
</g>
</g>
<!-- internal_transactions&#45;&gt;transactions -->
<g id="edge5" class="edge">
<title>internal_transactions:w&#45;&gt;transactions:e</title>
<path fill="none" stroke="black" d="M812.6,-286.56C768.74,-307.83 846.56,-440.7 779.5,-440.7"/>
<polygon fill="black" stroke="black" points="819.15,-285.26 827.7,-287.23 823.08,-284.48 827,-283.7 827,-283.7 827,-283.7 823.08,-284.48 826.3,-280.17 819.15,-285.26 819.15,-285.26"/>
<ellipse fill="none" stroke="black" cx="816.01" cy="-285.88" rx="3.2" ry="3.2"/>
</g>
<!-- transactions&#45;&gt;withdrawals -->
<g id="edge9" class="edge">
<title>transactions:w&#45;&gt;withdrawals:e</title>
<path fill="none" stroke="black" stroke-dasharray="5,2" d="M491.2,-422.12C457.39,-442.48 511.04,-546.7 456,-546.7"/>
<polygon fill="black" stroke="black" points="497.72,-420.56 506.34,-422.2 501.61,-419.63 505.5,-418.7 505.5,-418.7 505.5,-418.7 501.61,-419.63 504.66,-415.2 497.72,-420.56 497.72,-420.56"/>
<ellipse fill="none" stroke="black" cx="494.61" cy="-421.31" rx="3.2" ry="3.2"/>
</g>
<!-- transactions&#45;&gt;blocks -->
<g id="edge8" class="edge">
<title>transactions:w&#45;&gt;blocks:e</title>
<path fill="none" stroke="black" d="M490.67,-308.89C345.87,-312.63 309.25,-370.7 157,-370.7"/>
<polygon fill="black" stroke="black" points="497.5,-308.8 505.55,-312.3 501.5,-308.75 505.5,-308.7 505.5,-308.7 505.5,-308.7 501.5,-308.75 505.45,-305.1 497.5,-308.8 497.5,-308.8"/>
<ellipse fill="none" stroke="black" cx="494.3" cy="-308.84" rx="3.2" ry="3.2"/>
</g>
<!-- token_instances -->
<g id="node6" class="node">
<title>token_instances</title>
<g id="a_node6"><a xlink:href="../../tables/token_instances.html" xlink:title="token_instances" target="_top">
<polygon fill="#ffffff" stroke="transparent" points="524.5,-516.7 524.5,-684.7 760.5,-684.7 760.5,-516.7 524.5,-516.7"/>
<polygon fill="#f5f5f5" stroke="transparent" points="524.5,-662.7 524.5,-684.7 760.5,-684.7 760.5,-662.7 524.5,-662.7"/>
<polygon fill="none" stroke="black" points="524.5,-662.7 524.5,-684.7 760.5,-684.7 760.5,-662.7 524.5,-662.7"/>
<text text-anchor="start" x="529.5" y="-671.9" font-family="Helvetica,sans-Serif" font-weight="bold" font-size="11.00">token_instances</text>
<text text-anchor="start" x="718.5" y="-670.9" font-family="Helvetica,sans-Serif" font-size="11.00">[table]</text>
<polygon fill="none" stroke="black" points="524.5,-640.7 524.5,-662.7 760.5,-662.7 760.5,-640.7 524.5,-640.7"/>
<image xlink:href="../../images/primaryKeys.png" width="11px" height="12px" preserveAspectRatio="xMinYMin meet" x="529.5" y="-657.697"/>
<text text-anchor="start" x="544.5" y="-648.9" font-family="Helvetica,sans-Serif" font-size="11.00">token_id</text>
<polygon fill="none" stroke="black" points="524.5,-618.7 524.5,-640.7 760.5,-640.7 760.5,-618.7 524.5,-618.7"/>
<image xlink:href="../../images/primaryKeys.png" width="11px" height="12px" preserveAspectRatio="xMinYMin meet" x="529.5" y="-635.697"/>
<text text-anchor="start" x="544.5" y="-626.9" font-family="Helvetica,sans-Serif" font-size="11.00">token_contract_address_hash</text>
<polygon fill="#ffffff" stroke="transparent" points="524.5,-596.7 524.5,-618.7 760.5,-618.7 760.5,-596.7 524.5,-596.7"/>
<polygon fill="none" stroke="black" points="524.5,-596.7 524.5,-618.7 760.5,-618.7 760.5,-596.7 524.5,-596.7"/>
<text text-anchor="start" x="544.5" y="-604.9" font-family="Helvetica,sans-Serif" font-size="11.00">error</text>
<polygon fill="#ffffff" stroke="transparent" points="524.5,-574.7 524.5,-596.7 760.5,-596.7 760.5,-574.7 524.5,-574.7"/>
<polygon fill="none" stroke="black" points="524.5,-574.7 524.5,-596.7 760.5,-596.7 760.5,-574.7 524.5,-574.7"/>
<text text-anchor="start" x="544.5" y="-582.9" font-family="Helvetica,sans-Serif" font-size="11.00">owner_address_hash</text>
<polygon fill="none" stroke="black" points="524.5,-552.7 524.5,-574.7 760.5,-574.7 760.5,-552.7 524.5,-552.7"/>
<image xlink:href="../../images/foreignKeys.png" width="11px" height="12px" preserveAspectRatio="xMinYMin meet" x="529.5" y="-569.697"/>
<text text-anchor="start" x="544.5" y="-560.9" font-family="Helvetica,sans-Serif" font-size="11.00">owner_updated_at_log_index</text>
<polygon fill="none" stroke="black" points="524.5,-534.7 524.5,-552.7 760.5,-552.7 760.5,-534.7 524.5,-534.7"/>
<text text-anchor="start" x="527.5" y="-540.9" font-family="Helvetica,sans-Serif" font-size="11.00">...</text>
<polygon fill="#ffffff" stroke="transparent" points="524.5,-516.7 524.5,-534.7 760.5,-534.7 760.5,-516.7 524.5,-516.7"/>
<polygon fill="none" stroke="black" points="524.5,-516.7 524.5,-534.7 760.5,-534.7 760.5,-516.7 524.5,-516.7"/>
<polygon fill="#ffffff" stroke="transparent" points="525.5,-517.7 525.5,-533.7 611.5,-533.7 611.5,-517.7 525.5,-517.7"/>
<text text-anchor="start" x="527.5" y="-522.9" font-family="Helvetica,sans-Serif" font-size="11.00">&lt; 2</text>
<polygon fill="#ffffff" stroke="transparent" points="611.5,-517.7 611.5,-533.7 685.5,-533.7 685.5,-517.7 611.5,-517.7"/>
<text text-anchor="start" x="644.5" y="-522.9" font-family="Helvetica,sans-Serif" font-size="11.00"> &#160;</text>
<polygon fill="#ffffff" stroke="transparent" points="685.5,-517.7 685.5,-533.7 759.5,-533.7 759.5,-517.7 685.5,-517.7"/>
<text text-anchor="start" x="749.5" y="-522.9" font-family="Helvetica,sans-Serif" font-size="11.00"> &#160;</text>
<polygon fill="black" stroke="black" points="611.5,-517.7 611.5,-533.7 611.5,-533.7 611.5,-517.7 611.5,-517.7"/>
<polygon fill="black" stroke="black" points="685.5,-517.7 685.5,-533.7 685.5,-533.7 685.5,-517.7 685.5,-517.7"/>
</a>
</g>
</g>
<!-- token_instances&#45;&gt;withdrawals -->
<g id="edge7" class="edge">
<title>token_instances:w&#45;&gt;withdrawals:e</title>
<path fill="none" stroke="black" stroke-dasharray="5,2" d="M508.98,-562.25C489.72,-558.14 481.38,-546.7 456,-546.7"/>
<polygon fill="black" stroke="black" points="515.54,-562.9 523.14,-567.28 519.52,-563.3 523.5,-563.7 523.5,-563.7 523.5,-563.7 519.52,-563.3 523.86,-560.11 515.54,-562.9 515.54,-562.9"/>
<ellipse fill="none" stroke="black" cx="512.36" cy="-562.58" rx="3.2" ry="3.2"/>
</g>
</g>
</svg>
