<?xml version="1.0" encoding="UTF-8" standalone="no"?>
<!DOCTYPE svg PUBLIC "-//W3C//DTD SVG 1.1//EN"
 "http://www.w3.org/Graphics/SVG/1.1/DTD/svg11.dtd">
<!-- Generated by graphviz version 9.0.0 (20230911.1827)
 -->
<!-- Title: twoDegreesRelationshipsDiagramImplied Pages: 1 -->
<svg width="840pt" height="681pt"
 viewBox="0.00 0.00 840.00 681.43" xmlns="http://www.w3.org/2000/svg" xmlns:xlink="http://www.w3.org/1999/xlink">
<g id="graph0" class="graph" transform="scale(1 1) rotate(0) translate(4 677.43)">
<title>twoDegreesRelationshipsDiagramImplied</title>
<polygon fill="#ffffff" stroke="none" points="-4,4 -4,-677.43 836,-677.43 836,4 -4,4"/>
<text text-anchor="middle" x="71.38" y="-5.55" font-family="Helvetica,sans-Serif" font-size="11.00">Generated by SchemaSpy</text>
<!-- block_rewards -->
<g id="node1" class="node">
<title>block_rewards</title>
<g id="a_node1"><a xlink:href="../../tables/block_rewards.html" xlink:title="block_rewards" target="_top">
<polygon fill="#ffffff" stroke="none" points="178,-372.43 178,-430.43 301,-430.43 301,-372.43 178,-372.43"/>
<polygon fill="#f5f5f5" stroke="none" points="178,-408.43 178,-430.43 301,-430.43 301,-408.43 178,-408.43"/>
<polygon fill="none" stroke="black" points="178,-408.43 178,-430.43 301,-430.43 301,-408.43 178,-408.43"/>
<text text-anchor="start" x="183" y="-415.98" font-family="Helvetica,sans-Serif" font-weight="bold" font-size="11.00">block_rewards</text>
<text text-anchor="start" x="267" y="-414.98" font-family="Helvetica,sans-Serif" font-size="11.00">[table]</text>
<polygon fill="none" stroke="black" points="178,-390.43 178,-408.43 301,-408.43 301,-390.43 178,-390.43"/>
<text text-anchor="start" x="181" y="-394.98" font-family="Helvetica,sans-Serif" font-size="11.00">...</text>
<polygon fill="#ffffff" stroke="none" points="178,-372.43 178,-390.43 238,-390.43 238,-372.43 178,-372.43"/>
<polygon fill="none" stroke="black" points="178,-372.43 178,-390.43 238,-390.43 238,-372.43 178,-372.43"/>
<text text-anchor="start" x="181" y="-376.98" font-family="Helvetica,sans-Serif" font-size="11.00">&lt; 1</text>
<polygon fill="#ffffff" stroke="none" points="238,-372.43 238,-390.43 269,-390.43 269,-372.43 238,-372.43"/>
<polygon fill="none" stroke="black" points="238,-372.43 238,-390.43 269,-390.43 269,-372.43 238,-372.43"/>
<text text-anchor="start" x="260" y="-376.98" font-family="Helvetica,sans-Serif" font-size="11.00"> &#160;</text>
<polygon fill="#ffffff" stroke="none" points="269,-372.43 269,-390.43 301,-390.43 301,-372.43 269,-372.43"/>
<polygon fill="none" stroke="black" points="269,-372.43 269,-390.43 301,-390.43 301,-372.43 269,-372.43"/>
<text text-anchor="start" x="292" y="-376.98" font-family="Helvetica,sans-Serif" font-size="11.00"> &#160;</text>
</a>
</g>
</g>
<!-- blocks -->
<g id="node2" class="node">
<title>blocks</title>
<g id="a_node2"><a xlink:href="../../tables/blocks.html" xlink:title="blocks" target="_top">
<polygon fill="#ffffff" stroke="none" points="8,-370.43 8,-428.43 85,-428.43 85,-370.43 8,-370.43"/>
<polygon fill="#f5f5f5" stroke="none" points="8,-406.43 8,-428.43 85,-428.43 85,-406.43 8,-406.43"/>
<polygon fill="none" stroke="black" points="8,-406.43 8,-428.43 85,-428.43 85,-406.43 8,-406.43"/>
<text text-anchor="start" x="12.75" y="-413.98" font-family="Helvetica,sans-Serif" font-weight="bold" font-size="11.00">blocks</text>
<text text-anchor="start" x="51" y="-412.98" font-family="Helvetica,sans-Serif" font-size="11.00">[table]</text>
<polygon fill="none" stroke="black" points="8,-388.43 8,-406.43 85,-406.43 85,-388.43 8,-388.43"/>
<text text-anchor="start" x="11" y="-392.98" font-family="Helvetica,sans-Serif" font-size="11.00">...</text>
<polygon fill="#ffffff" stroke="none" points="8,-370.43 8,-388.43 36,-388.43 36,-370.43 8,-370.43"/>
<polygon fill="none" stroke="black" points="8,-370.43 8,-388.43 36,-388.43 36,-370.43 8,-370.43"/>
<text text-anchor="start" x="11" y="-374.98" font-family="Helvetica,sans-Serif" font-size="11.00"> &#160;</text>
<polygon fill="#ffffff" stroke="none" points="36,-370.43 36,-388.43 56,-388.43 56,-370.43 36,-370.43"/>
<polygon fill="none" stroke="black" points="36,-370.43 36,-388.43 56,-388.43 56,-370.43 36,-370.43"/>
<text text-anchor="start" x="47" y="-374.98" font-family="Helvetica,sans-Serif" font-size="11.00"> &#160;</text>
<polygon fill="#ffffff" stroke="none" points="56,-370.43 56,-388.43 85,-388.43 85,-370.43 56,-370.43"/>
<polygon fill="none" stroke="black" points="56,-370.43 56,-388.43 85,-388.43 85,-370.43 56,-370.43"/>
<text text-anchor="start" x="66.25" y="-374.98" font-family="Helvetica,sans-Serif" font-size="11.00">9 &gt;</text>
</a>
</g>
</g>
<!-- block_rewards&#45;&gt;blocks -->
<g id="edge1" class="edge">
<title>block_rewards:w&#45;&gt;blocks:e</title>
<path fill="none" stroke="black" d="M160.92,-399.43C137.51,-399.43 113.06,-399.43 92.87,-399.43"/>
<polygon fill="black" stroke="black" points="168.17,-399.43 176.17,-403.03 172.5,-399.43 175.83,-399.43 175.83,-399.43 175.83,-399.43 172.5,-399.43 176.17,-395.83 168.17,-399.43"/>
<ellipse fill="none" stroke="black" cx="163.25" cy="-399.43" rx="3.2" ry="3.2"/>
</g>
<!-- block_second_degree_relations -->
<g id="node3" class="node">
<title>block_second_degree_relations</title>
<g id="a_node3"><a xlink:href="../../tables/block_second_degree_relations.html" xlink:title="block_second_degree_relations" target="_top">
<polygon fill="#ffffff" stroke="none" points="394,-262.43 394,-320.43 615,-320.43 615,-262.43 394,-262.43"/>
<polygon fill="#f5f5f5" stroke="none" points="394,-298.43 394,-320.43 615,-320.43 615,-298.43 394,-298.43"/>
<polygon fill="none" stroke="black" points="394,-298.43 394,-320.43 615,-320.43 615,-298.43 394,-298.43"/>
<text text-anchor="start" x="399" y="-305.98" font-family="Helvetica,sans-Serif" font-weight="bold" font-size="11.00">block_second_degree_relations</text>
<text text-anchor="start" x="581" y="-304.98" font-family="Helvetica,sans-Serif" font-size="11.00">[table]</text>
<polygon fill="none" stroke="black" points="394,-280.43 394,-298.43 615,-298.43 615,-280.43 394,-280.43"/>
<text text-anchor="start" x="397" y="-284.98" font-family="Helvetica,sans-Serif" font-size="11.00">...</text>
<polygon fill="#ffffff" stroke="none" points="394,-262.43 394,-280.43 503,-280.43 503,-262.43 394,-262.43"/>
<polygon fill="none" stroke="black" points="394,-262.43 394,-280.43 503,-280.43 503,-262.43 394,-262.43"/>
<text text-anchor="start" x="397" y="-266.98" font-family="Helvetica,sans-Serif" font-size="11.00">&lt; 2</text>
<polygon fill="#ffffff" stroke="none" points="503,-262.43 503,-280.43 559,-280.43 559,-262.43 503,-262.43"/>
<polygon fill="none" stroke="black" points="503,-262.43 503,-280.43 559,-280.43 559,-262.43 503,-262.43"/>
<text text-anchor="start" x="550" y="-266.98" font-family="Helvetica,sans-Serif" font-size="11.00"> &#160;</text>
<polygon fill="#ffffff" stroke="none" points="559,-262.43 559,-280.43 615,-280.43 615,-262.43 559,-262.43"/>
<polygon fill="none" stroke="black" points="559,-262.43 559,-280.43 615,-280.43 615,-262.43 559,-262.43"/>
<text text-anchor="start" x="606" y="-266.98" font-family="Helvetica,sans-Serif" font-size="11.00"> &#160;</text>
</a>
</g>
</g>
<!-- block_second_degree_relations&#45;&gt;blocks -->
<g id="edge3" class="edge">
<title>block_second_degree_relations:w&#45;&gt;blocks:e</title>
<path fill="none" stroke="black" d="M523.15,-327.62C485.63,-330.59 392.6,-330.9 386,-331.43 357.01,-333.77 153.92,-353.32 126,-361.43 114.95,-364.64 103.54,-369.3 92.96,-374.25"/>
<polygon fill="black" stroke="black" points="530.34,-326.12 538.9,-328.02 534.58,-325.24 537.84,-324.57 537.84,-324.57 537.84,-324.57 534.58,-325.24 537.44,-320.97 530.34,-326.12"/>
<ellipse fill="none" stroke="black" cx="525.52" cy="-327.12" rx="3.2" ry="3.2"/>
</g>
<!-- withdrawals -->
<g id="node4" class="node">
<title>withdrawals</title>
<g id="a_node4"><a xlink:href="../../tables/withdrawals.html" xlink:title="withdrawals" target="_top">
<polygon fill="#ffffff" stroke="none" points="134,-126.43 134,-324.43 345,-324.43 345,-126.43 134,-126.43"/>
<polygon fill="#f5f5f5" stroke="none" points="136,-300.43 136,-322.43 343,-322.43 343,-300.43 136,-300.43"/>
<polygon fill="none" stroke="black" points="136,-300.43 136,-322.43 343,-322.43 343,-300.43 136,-300.43"/>
<text text-anchor="start" x="141" y="-307.98" font-family="Helvetica,sans-Serif" font-weight="bold" font-size="11.00">withdrawals</text>
<text text-anchor="start" x="308.75" y="-306.98" font-family="Helvetica,sans-Serif" font-size="11.00">[table]</text>
<polygon fill="none" stroke="black" points="136,-278.43 136,-300.43 245,-300.43 245,-278.43 136,-278.43"/>
<image xlink:href="../../images/primaryKeys.png" width="11px" height="12px" preserveAspectRatio="xMinYMin meet" x="141" y="-295.432"/>
<text text-anchor="start" x="156" y="-284.98" font-family="Helvetica,sans-Serif" font-size="11.00">index</text>
<polygon fill="none" stroke="black" points="245,-278.43 245,-300.43 343,-300.43 343,-278.43 245,-278.43"/>
<text text-anchor="start" x="248" y="-284.98" font-family="Helvetica,sans-Serif" font-size="11.00">int4[10]</text>
<polygon fill="none" stroke="black" points="136,-256.43 136,-278.43 245,-278.43 245,-256.43 136,-256.43"/>
<text text-anchor="start" x="156" y="-262.98" font-family="Helvetica,sans-Serif" font-size="11.00">validator_index</text>
<polygon fill="none" stroke="black" points="245,-256.43 245,-278.43 343,-278.43 343,-256.43 245,-256.43"/>
<text text-anchor="start" x="248" y="-262.98" font-family="Helvetica,sans-Serif" font-size="11.00">int4[10]</text>
<polygon fill="none" stroke="black" points="136,-234.43 136,-256.43 245,-256.43 245,-234.43 136,-234.43"/>
<text text-anchor="start" x="156" y="-240.98" font-family="Helvetica,sans-Serif" font-size="11.00">amount</text>
<polygon fill="none" stroke="black" points="245,-234.43 245,-256.43 343,-256.43 343,-234.43 245,-234.43"/>
<text text-anchor="start" x="248" y="-240.98" font-family="Helvetica,sans-Serif" font-size="11.00">numeric[100]</text>
<polygon fill="none" stroke="black" points="136,-212.43 136,-234.43 245,-234.43 245,-212.43 136,-212.43"/>
<text text-anchor="start" x="156" y="-218.98" font-family="Helvetica,sans-Serif" font-size="11.00">inserted_at</text>
<polygon fill="none" stroke="black" points="245,-212.43 245,-234.43 343,-234.43 343,-212.43 245,-212.43"/>
<text text-anchor="start" x="248" y="-218.98" font-family="Helvetica,sans-Serif" font-size="11.00">timestamp[29,6]</text>
<polygon fill="none" stroke="black" points="136,-190.43 136,-212.43 245,-212.43 245,-190.43 136,-190.43"/>
<text text-anchor="start" x="156" y="-196.98" font-family="Helvetica,sans-Serif" font-size="11.00">updated_at</text>
<polygon fill="none" stroke="black" points="245,-190.43 245,-212.43 343,-212.43 343,-190.43 245,-190.43"/>
<text text-anchor="start" x="248" y="-196.98" font-family="Helvetica,sans-Serif" font-size="11.00">timestamp[29,6]</text>
<polygon fill="#ffffff" stroke="none" points="136,-168.43 136,-190.43 245,-190.43 245,-168.43 136,-168.43"/>
<polygon fill="none" stroke="black" points="136,-168.43 136,-190.43 245,-190.43 245,-168.43 136,-168.43"/>
<text text-anchor="start" x="156" y="-174.98" font-family="Helvetica,sans-Serif" font-size="11.00">address_hash</text>
<polygon fill="none" stroke="black" points="245,-168.43 245,-190.43 343,-190.43 343,-168.43 245,-168.43"/>
<text text-anchor="start" x="247.88" y="-174.98" font-family="Helvetica,sans-Serif" font-size="11.00">bytea[2147483647]</text>
<polygon fill="#ffffff" stroke="none" points="136,-146.43 136,-168.43 245,-168.43 245,-146.43 136,-146.43"/>
<polygon fill="none" stroke="black" points="136,-146.43 136,-168.43 245,-168.43 245,-146.43 136,-146.43"/>
<image xlink:href="../../images/foreignKeys.png" width="11px" height="12px" preserveAspectRatio="xMinYMin meet" x="141" y="-163.432"/>
<text text-anchor="start" x="156" y="-152.98" font-family="Helvetica,sans-Serif" font-size="11.00">block_hash</text>
<polygon fill="none" stroke="black" points="245,-146.43 245,-168.43 343,-168.43 343,-146.43 245,-146.43"/>
<text text-anchor="start" x="247.88" y="-152.98" font-family="Helvetica,sans-Serif" font-size="11.00">bytea[2147483647]</text>
<polygon fill="#ffffff" stroke="none" points="136,-128.43 136,-146.43 195,-146.43 195,-128.43 136,-128.43"/>
<polygon fill="none" stroke="black" points="136,-128.43 136,-146.43 195,-146.43 195,-128.43 136,-128.43"/>
<text text-anchor="start" x="139" y="-132.98" font-family="Helvetica,sans-Serif" font-size="11.00">&lt; 1</text>
<polygon fill="#ffffff" stroke="none" points="195,-128.43 195,-146.43 245,-146.43 245,-128.43 195,-128.43"/>
<polygon fill="none" stroke="black" points="195,-128.43 195,-146.43 245,-146.43 245,-128.43 195,-128.43"/>
<text text-anchor="start" x="236" y="-132.98" font-family="Helvetica,sans-Serif" font-size="11.00"> &#160;</text>
<polygon fill="#ffffff" stroke="none" points="245,-128.43 245,-146.43 343,-146.43 343,-128.43 245,-128.43"/>
<polygon fill="none" stroke="black" points="245,-128.43 245,-146.43 343,-146.43 343,-128.43 245,-128.43"/>
<text text-anchor="start" x="324.25" y="-132.98" font-family="Helvetica,sans-Serif" font-size="11.00">5 &gt;</text>
<polygon fill="none" stroke="black" stroke-width="2" points="135,-127.43 135,-323.43 344,-323.43 344,-127.43 135,-127.43"/>
</a>
</g>
</g>
<!-- block_second_degree_relations&#45;&gt;withdrawals -->
<g id="edge2" class="edge">
<title>block_second_degree_relations:w&#45;&gt;withdrawals:e</title>
<path fill="none" stroke="black" stroke-dasharray="5,2" d="M370.44,-289.51C361.66,-289.46 352.95,-289.43 344.5,-289.43"/>
<polygon fill="black" stroke="black" points="377.94,-289.56 385.92,-293.22 382.28,-289.6 385.61,-289.62 385.61,-289.62 385.61,-289.62 382.28,-289.6 385.97,-286.02 377.94,-289.56"/>
<ellipse fill="none" stroke="black" cx="373.03" cy="-289.53" rx="3.2" ry="3.2"/>
</g>
<!-- withdrawals&#45;&gt;blocks -->
<g id="edge20" class="edge">
<title>withdrawals:w&#45;&gt;blocks:e</title>
<path fill="none" stroke="black" d="M119.73,-162.97C84.3,-189.88 61.55,-308.13 52.27,-366.54"/>
<polygon fill="black" stroke="black" points="126.7,-160.36 135.45,-160.92 130.75,-158.84 133.87,-157.67 133.87,-157.67 133.87,-157.67 130.75,-158.84 132.92,-154.18 126.7,-160.36"/>
<ellipse fill="none" stroke="black" cx="122.09" cy="-162.08" rx="3.2" ry="3.2"/>
</g>
<!-- internal_transactions -->
<g id="node5" class="node">
<title>internal_transactions</title>
<g id="a_node5"><a xlink:href="../../tables/internal_transactions.html" xlink:title="internal_transactions" target="_top">
<polygon fill="#ffffff" stroke="none" points="664,-124.43 664,-182.43 824,-182.43 824,-124.43 664,-124.43"/>
<polygon fill="#f5f5f5" stroke="none" points="664,-160.43 664,-182.43 824,-182.43 824,-160.43 664,-160.43"/>
<polygon fill="none" stroke="black" points="664,-160.43 664,-182.43 824,-182.43 824,-160.43 664,-160.43"/>
<text text-anchor="start" x="669" y="-167.98" font-family="Helvetica,sans-Serif" font-weight="bold" font-size="11.00">internal_transactions</text>
<text text-anchor="start" x="790" y="-166.98" font-family="Helvetica,sans-Serif" font-size="11.00">[table]</text>
<polygon fill="none" stroke="black" points="664,-142.43 664,-160.43 824,-160.43 824,-142.43 664,-142.43"/>
<text text-anchor="start" x="667" y="-146.98" font-family="Helvetica,sans-Serif" font-size="11.00">...</text>
<polygon fill="#ffffff" stroke="none" points="664,-124.43 664,-142.43 742,-142.43 742,-124.43 664,-124.43"/>
<polygon fill="none" stroke="black" points="664,-124.43 664,-142.43 742,-142.43 742,-124.43 664,-124.43"/>
<text text-anchor="start" x="667" y="-128.98" font-family="Helvetica,sans-Serif" font-size="11.00">&lt; 4</text>
<polygon fill="#ffffff" stroke="none" points="742,-124.43 742,-142.43 783,-142.43 783,-124.43 742,-124.43"/>
<polygon fill="none" stroke="black" points="742,-124.43 742,-142.43 783,-142.43 783,-124.43 742,-124.43"/>
<text text-anchor="start" x="774" y="-128.98" font-family="Helvetica,sans-Serif" font-size="11.00"> &#160;</text>
<polygon fill="#ffffff" stroke="none" points="783,-124.43 783,-142.43 824,-142.43 824,-124.43 783,-124.43"/>
<polygon fill="none" stroke="black" points="783,-124.43 783,-142.43 824,-142.43 824,-124.43 783,-124.43"/>
<text text-anchor="start" x="815" y="-128.98" font-family="Helvetica,sans-Serif" font-size="11.00"> &#160;</text>
</a>
</g>
</g>
<!-- internal_transactions&#45;&gt;blocks -->
<g id="edge4" class="edge">
<title>internal_transactions:w&#45;&gt;blocks:e</title>
<path fill="none" stroke="black" d="M662.5,-114.06C534.51,-57.78 283.05,26.21 126,-95.43 82.96,-128.77 59.29,-295.17 50.97,-366.68"/>
<polygon fill="black" stroke="black" points="669.13,-117.03 674.96,-123.58 673.08,-118.8 676.12,-120.16 676.12,-120.16 676.12,-120.16 673.08,-118.8 677.9,-117.01 669.13,-117.03"/>
<ellipse fill="none" stroke="black" cx="664.64" cy="-115.02" rx="3.2" ry="3.2"/>
</g>
<!-- internal_transactions&#45;&gt;withdrawals -->
<g id="edge5" class="edge">
<title>internal_transactions:w&#45;&gt;withdrawals:e</title>
<path fill="none" stroke="black" stroke-dasharray="5,2" d="M640.53,-125.77C563.07,-113.63 458.11,-112.57 386,-166.43 341.8,-199.45 399.67,-283.43 344.5,-289.43"/>
<polygon fill="black" stroke="black" points="647.92,-127.02 655.2,-131.91 652.19,-127.75 655.47,-128.31 655.47,-128.31 655.47,-128.31 652.19,-127.75 656.41,-124.81 647.92,-127.02"/>
<ellipse fill="none" stroke="black" cx="643.07" cy="-126.2" rx="3.2" ry="3.2"/>
</g>
<!-- internal_transactions&#45;&gt;withdrawals -->
<g id="edge7" class="edge">
<title>internal_transactions:w&#45;&gt;withdrawals:e</title>
<path fill="none" stroke="black" stroke-dasharray="5,2" d="M640.53,-136.4C563.07,-126.63 458.11,-125.57 386,-179.43 341.8,-212.45 399.67,-296.43 344.5,-289.43"/>
<polygon fill="black" stroke="black" points="647.87,-137.41 655.31,-142.05 652.17,-137.99 655.47,-138.44 655.47,-138.44 655.47,-138.44 652.17,-137.99 656.29,-134.92 647.87,-137.41"/>
<ellipse fill="none" stroke="black" cx="643" cy="-136.74" rx="3.2" ry="3.2"/>
</g>
<!-- transactions -->
<g id="node6" class="node">
<title>transactions</title>
<g id="a_node6"><a xlink:href="../../tables/transactions.html" xlink:title="transactions" target="_top">
<polygon fill="#ffffff" stroke="none" points="449.5,-183.43 449.5,-241.43 559.5,-241.43 559.5,-183.43 449.5,-183.43"/>
<polygon fill="#f5f5f5" stroke="none" points="449.5,-219.43 449.5,-241.43 559.5,-241.43 559.5,-219.43 449.5,-219.43"/>
<polygon fill="none" stroke="black" points="449.5,-219.43 449.5,-241.43 559.5,-241.43 559.5,-219.43 449.5,-219.43"/>
<text text-anchor="start" x="454.5" y="-226.98" font-family="Helvetica,sans-Serif" font-weight="bold" font-size="11.00">transactions</text>
<text text-anchor="start" x="525.5" y="-225.98" font-family="Helvetica,sans-Serif" font-size="11.00">[table]</text>
<polygon fill="none" stroke="black" points="449.5,-201.43 449.5,-219.43 559.5,-219.43 559.5,-201.43 449.5,-201.43"/>
<text text-anchor="start" x="452.5" y="-205.98" font-family="Helvetica,sans-Serif" font-size="11.00">...</text>
<polygon fill="#ffffff" stroke="none" points="449.5,-183.43 449.5,-201.43 498.5,-201.43 498.5,-183.43 449.5,-183.43"/>
<polygon fill="none" stroke="black" points="449.5,-183.43 449.5,-201.43 498.5,-201.43 498.5,-183.43 449.5,-183.43"/>
<text text-anchor="start" x="452.5" y="-187.98" font-family="Helvetica,sans-Serif" font-size="11.00">&lt; 2</text>
<polygon fill="#ffffff" stroke="none" points="498.5,-183.43 498.5,-201.43 524.5,-201.43 524.5,-183.43 498.5,-183.43"/>
<polygon fill="none" stroke="black" points="498.5,-183.43 498.5,-201.43 524.5,-201.43 524.5,-183.43 498.5,-183.43"/>
<text text-anchor="start" x="515.5" y="-187.98" font-family="Helvetica,sans-Serif" font-size="11.00"> &#160;</text>
<polygon fill="#ffffff" stroke="none" points="524.5,-183.43 524.5,-201.43 559.5,-201.43 559.5,-183.43 524.5,-183.43"/>
<polygon fill="none" stroke="black" points="524.5,-183.43 524.5,-201.43 559.5,-201.43 559.5,-183.43 524.5,-183.43"/>
<text text-anchor="start" x="540.75" y="-187.98" font-family="Helvetica,sans-Serif" font-size="11.00">5 &gt;</text>
</a>
</g>
</g>
<!-- internal_transactions&#45;&gt;transactions -->
<g id="edge6" class="edge">
<title>internal_transactions:w&#45;&gt;transactions:e</title>
<path fill="none" stroke="black" d="M641.22,-178.72C616.14,-184.95 590.03,-191.43 567.49,-197.03"/>
<polygon fill="black" stroke="black" points="648.16,-176.99 656.79,-178.56 652.37,-175.95 655.6,-175.14 655.6,-175.14 655.6,-175.14 652.37,-175.95 655.06,-171.57 648.16,-176.99"/>
<ellipse fill="none" stroke="black" cx="643.39" cy="-178.18" rx="3.2" ry="3.2"/>
</g>
<!-- transactions&#45;&gt;blocks -->
<g id="edge18" class="edge">
<title>transactions:w&#45;&gt;blocks:e</title>
<path fill="none" stroke="black" d="M453.56,-169.84C425.87,-149.05 389.68,-126.23 353,-115.43 304.61,-101.19 166.14,-84.88 126,-115.43 85.8,-146.03 60.91,-298.45 51.63,-366.51"/>
<polygon fill="black" stroke="black" points="459.45,-174.41 463.57,-182.15 462.88,-177.06 465.51,-179.1 465.51,-179.1 465.51,-179.1 462.88,-177.06 467.98,-176.46 459.45,-174.41"/>
<ellipse fill="none" stroke="black" cx="455.56" cy="-171.4" rx="3.2" ry="3.2"/>
</g>
<!-- transactions&#45;&gt;withdrawals -->
<g id="edge19" class="edge">
<title>transactions:w&#45;&gt;withdrawals:e</title>
<path fill="none" stroke="black" stroke-dasharray="5,2" d="M427.03,-232.6C412.92,-237.76 398.66,-244 386,-251.43 364.43,-264.09 369.51,-289.43 344.5,-289.43"/>
<polygon fill="black" stroke="black" points="433.73,-230.31 442.46,-231.13 437.83,-228.91 440.98,-227.83 440.98,-227.83 440.98,-227.83 437.83,-228.91 440.13,-224.32 433.73,-230.31"/>
<ellipse fill="none" stroke="black" cx="429.07" cy="-231.9" rx="3.2" ry="3.2"/>
</g>
<!-- logs -->
<g id="node7" class="node">
<title>logs</title>
<g id="a_node7"><a xlink:href="../../tables/logs.html" xlink:title="logs" target="_top">
<polygon fill="#ffffff" stroke="none" points="712.5,-545.43 712.5,-603.43 775.5,-603.43 775.5,-545.43 712.5,-545.43"/>
<polygon fill="#f5f5f5" stroke="none" points="712.5,-581.43 712.5,-603.43 775.5,-603.43 775.5,-581.43 712.5,-581.43"/>
<polygon fill="none" stroke="black" points="712.5,-581.43 712.5,-603.43 775.5,-603.43 775.5,-581.43 712.5,-581.43"/>
<text text-anchor="start" x="716.25" y="-588.98" font-family="Helvetica,sans-Serif" font-weight="bold" font-size="11.00">logs</text>
<text text-anchor="start" x="741.5" y="-587.98" font-family="Helvetica,sans-Serif" font-size="11.00">[table]</text>
<polygon fill="none" stroke="black" points="712.5,-563.43 712.5,-581.43 775.5,-581.43 775.5,-563.43 712.5,-563.43"/>
<text text-anchor="start" x="715.5" y="-567.98" font-family="Helvetica,sans-Serif" font-size="11.00">...</text>
<polygon fill="#ffffff" stroke="none" points="712.5,-545.43 712.5,-563.43 742.5,-563.43 742.5,-545.43 712.5,-545.43"/>
<polygon fill="none" stroke="black" points="712.5,-545.43 712.5,-563.43 742.5,-563.43 742.5,-545.43 712.5,-545.43"/>
<text text-anchor="start" x="715.5" y="-549.98" font-family="Helvetica,sans-Serif" font-size="11.00">&lt; 2</text>
<polygon fill="#ffffff" stroke="none" points="742.5,-545.43 742.5,-563.43 758.5,-563.43 758.5,-545.43 742.5,-545.43"/>
<polygon fill="none" stroke="black" points="742.5,-545.43 742.5,-563.43 758.5,-563.43 758.5,-545.43 742.5,-545.43"/>
<text text-anchor="start" x="749.5" y="-549.98" font-family="Helvetica,sans-Serif" font-size="11.00"> &#160;</text>
<polygon fill="#ffffff" stroke="none" points="758.5,-545.43 758.5,-563.43 775.5,-563.43 775.5,-545.43 758.5,-545.43"/>
<polygon fill="none" stroke="black" points="758.5,-545.43 758.5,-563.43 775.5,-563.43 775.5,-545.43 758.5,-545.43"/>
<text text-anchor="start" x="766.5" y="-549.98" font-family="Helvetica,sans-Serif" font-size="11.00"> &#160;</text>
</a>
</g>
</g>
<!-- logs&#45;&gt;blocks -->
<g id="edge8" class="edge">
<title>logs:w&#45;&gt;blocks:e</title>
<path fill="none" stroke="black" d="M695.23,-572.64C554.98,-576.04 231.65,-619.47 126,-552.43 83.9,-525.72 63.32,-468.75 54.1,-432.36"/>
<polygon fill="black" stroke="black" points="702.67,-572.54 710.71,-576.04 707,-572.48 710.33,-572.44 710.33,-572.44 710.33,-572.44 707,-572.48 710.62,-568.84 702.67,-572.54"/>
<ellipse fill="none" stroke="black" cx="697.75" cy="-572.61" rx="3.2" ry="3.2"/>
</g>
<!-- logs&#45;&gt;transactions -->
<g id="edge9" class="edge">
<title>logs:w&#45;&gt;transactions:e</title>
<path fill="none" stroke="black" d="M695.31,-570.38C674.84,-564.28 668.44,-545.06 656,-520.43 601.69,-412.92 699.32,-344.62 623,-251.43 609.25,-234.64 588.05,-225.02 567.44,-219.54"/>
<polygon fill="black" stroke="black" points="702.74,-571.35 710.2,-575.96 707.03,-571.91 710.34,-572.35 710.34,-572.35 710.34,-572.35 707.03,-571.91 711.13,-568.82 702.74,-571.35"/>
<ellipse fill="none" stroke="black" cx="697.86" cy="-570.72" rx="3.2" ry="3.2"/>
</g>
<!-- pending_block_operations -->
<g id="node8" class="node">
<title>pending_block_operations</title>
<g id="a_node8"><a xlink:href="../../tables/pending_block_operations.html" xlink:title="pending_block_operations" target="_top">
<polygon fill="#ffffff" stroke="none" points="144,-611.43 144,-669.43 335,-669.43 335,-611.43 144,-611.43"/>
<polygon fill="#f5f5f5" stroke="none" points="144,-647.43 144,-669.43 335,-669.43 335,-647.43 144,-647.43"/>
<polygon fill="none" stroke="black" points="144,-647.43 144,-669.43 335,-669.43 335,-647.43 144,-647.43"/>
<text text-anchor="start" x="149" y="-654.98" font-family="Helvetica,sans-Serif" font-weight="bold" font-size="11.00">pending_block_operations</text>
<text text-anchor="start" x="301" y="-653.98" font-family="Helvetica,sans-Serif" font-size="11.00">[table]</text>
<polygon fill="none" stroke="black" points="144,-629.43 144,-647.43 335,-647.43 335,-629.43 144,-629.43"/>
<text text-anchor="start" x="147" y="-633.98" font-family="Helvetica,sans-Serif" font-size="11.00">...</text>
<polygon fill="#ffffff" stroke="none" points="144,-611.43 144,-629.43 238,-629.43 238,-611.43 144,-611.43"/>
<polygon fill="none" stroke="black" points="144,-611.43 144,-629.43 238,-629.43 238,-611.43 144,-611.43"/>
<text text-anchor="start" x="147" y="-615.98" font-family="Helvetica,sans-Serif" font-size="11.00">&lt; 1</text>
<polygon fill="#ffffff" stroke="none" points="238,-611.43 238,-629.43 286,-629.43 286,-611.43 238,-611.43"/>
<polygon fill="none" stroke="black" points="238,-611.43 238,-629.43 286,-629.43 286,-611.43 238,-611.43"/>
<text text-anchor="start" x="277" y="-615.98" font-family="Helvetica,sans-Serif" font-size="11.00"> &#160;</text>
<polygon fill="#ffffff" stroke="none" points="286,-611.43 286,-629.43 335,-629.43 335,-611.43 286,-611.43"/>
<polygon fill="none" stroke="black" points="286,-611.43 286,-629.43 335,-629.43 335,-611.43 286,-611.43"/>
<text text-anchor="start" x="326" y="-615.98" font-family="Helvetica,sans-Serif" font-size="11.00"> &#160;</text>
</a>
</g>
</g>
<!-- pending_block_operations&#45;&gt;blocks -->
<g id="edge10" class="edge">
<title>pending_block_operations:w&#45;&gt;blocks:e</title>
<path fill="none" stroke="black" d="M131.94,-635.71C93.43,-615.84 65.09,-492.25 53.4,-432.16"/>
<polygon fill="black" stroke="black" points="142.72,-634.36 140.73,-642.11 139.18,-641.71 141.17,-633.96 142.72,-634.36"/>
<polyline fill="none" stroke="black" points="142.5,-638.43 138.63,-637.43"/>
<ellipse fill="none" stroke="black" cx="135.04" cy="-636.51" rx="3.2" ry="3.2"/>
</g>
<!-- token_instances -->
<g id="node9" class="node">
<title>token_instances</title>
<g id="a_node9"><a xlink:href="../../tables/token_instances.html" xlink:title="token_instances" target="_top">
<polygon fill="#ffffff" stroke="none" points="407.5,-341.43 407.5,-509.43 601.5,-509.43 601.5,-341.43 407.5,-341.43"/>
<polygon fill="#f5f5f5" stroke="none" points="407.5,-487.43 407.5,-509.43 601.5,-509.43 601.5,-487.43 407.5,-487.43"/>
<polygon fill="none" stroke="black" points="407.5,-487.43 407.5,-509.43 601.5,-509.43 601.5,-487.43 407.5,-487.43"/>
<text text-anchor="start" x="412.5" y="-494.98" font-family="Helvetica,sans-Serif" font-weight="bold" font-size="11.00">token_instances</text>
<text text-anchor="start" x="567.25" y="-493.98" font-family="Helvetica,sans-Serif" font-size="11.00">[table]</text>
<polygon fill="none" stroke="black" points="407.5,-465.43 407.5,-487.43 601.5,-487.43 601.5,-465.43 407.5,-465.43"/>
<image xlink:href="../../images/primaryKeys.png" width="11px" height="12px" preserveAspectRatio="xMinYMin meet" x="412.5" y="-482.432"/>
<text text-anchor="start" x="427.5" y="-471.98" font-family="Helvetica,sans-Serif" font-size="11.00">token_id</text>
<polygon fill="none" stroke="black" points="407.5,-443.43 407.5,-465.43 601.5,-465.43 601.5,-443.43 407.5,-443.43"/>
<image xlink:href="../../images/primaryKeys.png" width="11px" height="12px" preserveAspectRatio="xMinYMin meet" x="412.5" y="-460.432"/>
<text text-anchor="start" x="427.5" y="-449.98" font-family="Helvetica,sans-Serif" font-size="11.00">token_contract_address_hash</text>
<polygon fill="#ffffff" stroke="none" points="407.5,-421.43 407.5,-443.43 601.5,-443.43 601.5,-421.43 407.5,-421.43"/>
<polygon fill="none" stroke="black" points="407.5,-421.43 407.5,-443.43 601.5,-443.43 601.5,-421.43 407.5,-421.43"/>
<text text-anchor="start" x="427.5" y="-427.98" font-family="Helvetica,sans-Serif" font-size="11.00">error</text>
<polygon fill="#ffffff" stroke="none" points="407.5,-399.43 407.5,-421.43 601.5,-421.43 601.5,-399.43 407.5,-399.43"/>
<polygon fill="none" stroke="black" points="407.5,-399.43 407.5,-421.43 601.5,-421.43 601.5,-399.43 407.5,-399.43"/>
<text text-anchor="start" x="427.5" y="-405.98" font-family="Helvetica,sans-Serif" font-size="11.00">owner_address_hash</text>
<polygon fill="none" stroke="black" points="407.5,-377.43 407.5,-399.43 601.5,-399.43 601.5,-377.43 407.5,-377.43"/>
<image xlink:href="../../images/foreignKeys.png" width="11px" height="12px" preserveAspectRatio="xMinYMin meet" x="412.5" y="-394.432"/>
<text text-anchor="start" x="427.5" y="-383.98" font-family="Helvetica,sans-Serif" font-size="11.00">owner_updated_at_log_index</text>
<polygon fill="none" stroke="black" points="407.5,-359.43 407.5,-377.43 601.5,-377.43 601.5,-359.43 407.5,-359.43"/>
<text text-anchor="start" x="410.5" y="-363.98" font-family="Helvetica,sans-Serif" font-size="11.00">...</text>
<polygon fill="#ffffff" stroke="none" points="407.5,-341.43 407.5,-359.43 502.5,-359.43 502.5,-341.43 407.5,-341.43"/>
<polygon fill="none" stroke="black" points="407.5,-341.43 407.5,-359.43 502.5,-359.43 502.5,-341.43 407.5,-341.43"/>
<text text-anchor="start" x="410.5" y="-345.98" font-family="Helvetica,sans-Serif" font-size="11.00">&lt; 2</text>
<polygon fill="#ffffff" stroke="none" points="502.5,-341.43 502.5,-359.43 551.5,-359.43 551.5,-341.43 502.5,-341.43"/>
<polygon fill="none" stroke="black" points="502.5,-341.43 502.5,-359.43 551.5,-359.43 551.5,-341.43 502.5,-341.43"/>
<text text-anchor="start" x="542.5" y="-345.98" font-family="Helvetica,sans-Serif" font-size="11.00"> &#160;</text>
<polygon fill="#ffffff" stroke="none" points="551.5,-341.43 551.5,-359.43 601.5,-359.43 601.5,-341.43 551.5,-341.43"/>
<polygon fill="none" stroke="black" points="551.5,-341.43 551.5,-359.43 601.5,-359.43 601.5,-341.43 551.5,-341.43"/>
<text text-anchor="start" x="592.5" y="-345.98" font-family="Helvetica,sans-Serif" font-size="11.00"> &#160;</text>
</a>
</g>
</g>
<!-- token_instances&#45;&gt;withdrawals -->
<g id="edge11" class="edge">
<title>token_instances:w&#45;&gt;withdrawals:e</title>
<path fill="none" stroke="black" stroke-dasharray="5,2" d="M391.43,-384.43C363.34,-365.91 390.13,-289.43 344.5,-289.43"/>
<polygon fill="black" stroke="black" points="398.44,-386.29 405.25,-391.83 402.63,-387.4 405.85,-388.26 405.85,-388.26 405.85,-388.26 402.63,-387.4 407.1,-384.87 398.44,-386.29"/>
<ellipse fill="none" stroke="black" cx="393.69" cy="-385.03" rx="3.2" ry="3.2"/>
</g>
<!-- tokens -->
<g id="node10" class="node">
<title>tokens</title>
<g id="a_node10"><a xlink:href="../../tables/tokens.html" xlink:title="tokens" target="_top">
<polygon fill="#ffffff" stroke="none" points="201,-451.43 201,-509.43 278,-509.43 278,-451.43 201,-451.43"/>
<polygon fill="#f5f5f5" stroke="none" points="201,-487.43 201,-509.43 278,-509.43 278,-487.43 201,-487.43"/>
<polygon fill="none" stroke="black" points="201,-487.43 201,-509.43 278,-509.43 278,-487.43 201,-487.43"/>
<text text-anchor="start" x="205.38" y="-494.98" font-family="Helvetica,sans-Serif" font-weight="bold" font-size="11.00">tokens</text>
<text text-anchor="start" x="244" y="-493.98" font-family="Helvetica,sans-Serif" font-size="11.00">[table]</text>
<polygon fill="none" stroke="black" points="201,-469.43 201,-487.43 278,-487.43 278,-469.43 201,-469.43"/>
<text text-anchor="start" x="204" y="-473.98" font-family="Helvetica,sans-Serif" font-size="11.00">...</text>
<polygon fill="#ffffff" stroke="none" points="201,-451.43 201,-469.43 229,-469.43 229,-451.43 201,-451.43"/>
<polygon fill="none" stroke="black" points="201,-451.43 201,-469.43 229,-469.43 229,-451.43 201,-451.43"/>
<text text-anchor="start" x="204" y="-455.98" font-family="Helvetica,sans-Serif" font-size="11.00"> &#160;</text>
<polygon fill="#ffffff" stroke="none" points="229,-451.43 229,-469.43 249,-469.43 249,-451.43 229,-451.43"/>
<polygon fill="none" stroke="black" points="229,-451.43 229,-469.43 249,-469.43 249,-451.43 229,-451.43"/>
<text text-anchor="start" x="240" y="-455.98" font-family="Helvetica,sans-Serif" font-size="11.00"> &#160;</text>
<polygon fill="#ffffff" stroke="none" points="249,-451.43 249,-469.43 278,-469.43 278,-451.43 249,-451.43"/>
<polygon fill="none" stroke="black" points="249,-451.43 249,-469.43 278,-469.43 278,-451.43 249,-451.43"/>
<text text-anchor="start" x="259.25" y="-455.98" font-family="Helvetica,sans-Serif" font-size="11.00">1 &gt;</text>
</a>
</g>
</g>
<!-- token_instances&#45;&gt;tokens -->
<g id="edge12" class="edge">
<title>token_instances:w&#45;&gt;tokens:e</title>
<path fill="none" stroke="black" d="M390.88,-455.07C346.26,-458.89 331.33,-478.43 279.5,-478.43"/>
<polygon fill="black" stroke="black" points="398.17,-454.77 406.31,-458.04 402.5,-454.6 405.83,-454.46 405.83,-454.46 405.83,-454.46 402.5,-454.6 406.02,-450.85 398.17,-454.77"/>
<ellipse fill="none" stroke="black" cx="393.26" cy="-454.98" rx="3.2" ry="3.2"/>
</g>
<!-- token_transfers -->
<g id="node11" class="node">
<title>token_transfers</title>
<g id="a_node11"><a xlink:href="../../tables/token_transfers.html" xlink:title="token_transfers" target="_top">
<polygon fill="#ffffff" stroke="none" points="679.5,-451.43 679.5,-509.43 808.5,-509.43 808.5,-451.43 679.5,-451.43"/>
<polygon fill="#f5f5f5" stroke="none" points="679.5,-487.43 679.5,-509.43 808.5,-509.43 808.5,-487.43 679.5,-487.43"/>
<polygon fill="none" stroke="black" points="679.5,-487.43 679.5,-509.43 808.5,-509.43 808.5,-487.43 679.5,-487.43"/>
<text text-anchor="start" x="684.5" y="-494.98" font-family="Helvetica,sans-Serif" font-weight="bold" font-size="11.00">token_transfers</text>
<text text-anchor="start" x="774.5" y="-493.98" font-family="Helvetica,sans-Serif" font-size="11.00">[table]</text>
<polygon fill="none" stroke="black" points="679.5,-469.43 679.5,-487.43 808.5,-487.43 808.5,-469.43 679.5,-469.43"/>
<text text-anchor="start" x="682.5" y="-473.98" font-family="Helvetica,sans-Serif" font-size="11.00">...</text>
<polygon fill="#ffffff" stroke="none" points="679.5,-451.43 679.5,-469.43 742.5,-469.43 742.5,-451.43 679.5,-451.43"/>
<polygon fill="none" stroke="black" points="679.5,-451.43 679.5,-469.43 742.5,-469.43 742.5,-451.43 679.5,-451.43"/>
<text text-anchor="start" x="682.5" y="-455.98" font-family="Helvetica,sans-Serif" font-size="11.00">&lt; 2</text>
<polygon fill="#ffffff" stroke="none" points="742.5,-451.43 742.5,-469.43 775.5,-469.43 775.5,-451.43 742.5,-451.43"/>
<polygon fill="none" stroke="black" points="742.5,-451.43 742.5,-469.43 775.5,-469.43 775.5,-451.43 742.5,-451.43"/>
<text text-anchor="start" x="766.5" y="-455.98" font-family="Helvetica,sans-Serif" font-size="11.00"> &#160;</text>
<polygon fill="#ffffff" stroke="none" points="775.5,-451.43 775.5,-469.43 808.5,-469.43 808.5,-451.43 775.5,-451.43"/>
<polygon fill="none" stroke="black" points="775.5,-451.43 775.5,-469.43 808.5,-469.43 808.5,-451.43 775.5,-451.43"/>
<text text-anchor="start" x="799.5" y="-455.98" font-family="Helvetica,sans-Serif" font-size="11.00"> &#160;</text>
</a>
</g>
</g>
<!-- token_transfers&#45;&gt;blocks -->
<g id="edge13" class="edge">
<title>token_transfers:w&#45;&gt;blocks:e</title>
<path fill="none" stroke="black" d="M662.77,-482.41C644.92,-494.18 650.89,-528.76 623,-541.43 610.44,-547.14 133.66,-544.96 126,-540.43 86.55,-517.14 65.47,-466.09 55.39,-432.23"/>
<polygon fill="black" stroke="black" points="669.94,-480.54 678.59,-482 674.13,-479.44 677.35,-478.6 677.35,-478.6 677.35,-478.6 674.13,-479.44 676.77,-475.03 669.94,-480.54"/>
<ellipse fill="none" stroke="black" cx="665.18" cy="-481.78" rx="3.2" ry="3.2"/>
</g>
<!-- token_transfers&#45;&gt;transactions -->
<g id="edge14" class="edge">
<title>token_transfers:w&#45;&gt;transactions:e</title>
<path fill="none" stroke="black" d="M662.42,-477.03C586.94,-461.73 688.08,-324.61 623,-251.43 608.72,-235.37 587.66,-225.91 567.31,-220.34"/>
<polygon fill="black" stroke="black" points="669.7,-477.69 677.35,-481.99 674.02,-478.07 677.33,-478.37 677.33,-478.37 677.33,-478.37 674.02,-478.07 677.99,-474.82 669.7,-477.69"/>
<ellipse fill="none" stroke="black" cx="664.8" cy="-477.25" rx="3.2" ry="3.2"/>
</g>
<!-- transaction_actions -->
<g id="node12" class="node">
<title>transaction_actions</title>
<g id="a_node12"><a xlink:href="../../tables/transaction_actions.html" xlink:title="transaction_actions" target="_top">
<polygon fill="#ffffff" stroke="none" points="668,-203.43 668,-261.43 820,-261.43 820,-203.43 668,-203.43"/>
<polygon fill="#f5f5f5" stroke="none" points="668,-239.43 668,-261.43 820,-261.43 820,-239.43 668,-239.43"/>
<polygon fill="none" stroke="black" points="668,-239.43 668,-261.43 820,-261.43 820,-239.43 668,-239.43"/>
<text text-anchor="start" x="673" y="-246.98" font-family="Helvetica,sans-Serif" font-weight="bold" font-size="11.00">transaction_actions</text>
<text text-anchor="start" x="786" y="-245.98" font-family="Helvetica,sans-Serif" font-size="11.00">[table]</text>
<polygon fill="none" stroke="black" points="668,-221.43 668,-239.43 820,-239.43 820,-221.43 668,-221.43"/>
<text text-anchor="start" x="671" y="-225.98" font-family="Helvetica,sans-Serif" font-size="11.00">...</text>
<polygon fill="#ffffff" stroke="none" points="668,-203.43 668,-221.43 742,-221.43 742,-203.43 668,-203.43"/>
<polygon fill="none" stroke="black" points="668,-203.43 668,-221.43 742,-221.43 742,-203.43 668,-203.43"/>
<text text-anchor="start" x="671" y="-207.98" font-family="Helvetica,sans-Serif" font-size="11.00">&lt; 1</text>
<polygon fill="#ffffff" stroke="none" points="742,-203.43 742,-221.43 781,-221.43 781,-203.43 742,-203.43"/>
<polygon fill="none" stroke="black" points="742,-203.43 742,-221.43 781,-221.43 781,-203.43 742,-203.43"/>
<text text-anchor="start" x="772" y="-207.98" font-family="Helvetica,sans-Serif" font-size="11.00"> &#160;</text>
<polygon fill="#ffffff" stroke="none" points="781,-203.43 781,-221.43 820,-221.43 820,-203.43 781,-203.43"/>
<polygon fill="none" stroke="black" points="781,-203.43 781,-221.43 820,-221.43 820,-203.43 781,-203.43"/>
<text text-anchor="start" x="811" y="-207.98" font-family="Helvetica,sans-Serif" font-size="11.00"> &#160;</text>
</a>
</g>
</g>
<!-- transaction_actions&#45;&gt;transactions -->
<g id="edge15" class="edge">
<title>transaction_actions:w&#45;&gt;transactions:e</title>
<path fill="none" stroke="black" d="M651.31,-230.17C622.72,-229.25 592.74,-226.03 567.44,-222.59"/>
<polygon fill="black" stroke="black" points="658.67,-230.29 666.61,-234.03 663,-230.36 666.33,-230.42 666.33,-230.42 666.33,-230.42 663,-230.36 666.73,-226.83 658.67,-230.29"/>
<ellipse fill="none" stroke="black" cx="653.75" cy="-230.21" rx="3.2" ry="3.2"/>
</g>
<!-- transaction_forks -->
<g id="node13" class="node">
<title>transaction_forks</title>
<g id="a_node13"><a xlink:href="../../tables/transaction_forks.html" xlink:title="transaction_forks" target="_top">
<polygon fill="#ffffff" stroke="none" points="674.5,-342.43 674.5,-400.43 813.5,-400.43 813.5,-342.43 674.5,-342.43"/>
<polygon fill="#f5f5f5" stroke="none" points="674.5,-378.43 674.5,-400.43 813.5,-400.43 813.5,-378.43 674.5,-378.43"/>
<polygon fill="none" stroke="black" points="674.5,-378.43 674.5,-400.43 813.5,-400.43 813.5,-378.43 674.5,-378.43"/>
<text text-anchor="start" x="679.5" y="-385.98" font-family="Helvetica,sans-Serif" font-weight="bold" font-size="11.00">transaction_forks</text>
<text text-anchor="start" x="779.5" y="-384.98" font-family="Helvetica,sans-Serif" font-size="11.00">[table]</text>
<polygon fill="none" stroke="black" points="674.5,-360.43 674.5,-378.43 813.5,-378.43 813.5,-360.43 674.5,-360.43"/>
<text text-anchor="start" x="677.5" y="-364.98" font-family="Helvetica,sans-Serif" font-size="11.00">...</text>
<polygon fill="#ffffff" stroke="none" points="674.5,-342.43 674.5,-360.43 742.5,-360.43 742.5,-342.43 674.5,-342.43"/>
<polygon fill="none" stroke="black" points="674.5,-342.43 674.5,-360.43 742.5,-360.43 742.5,-342.43 674.5,-342.43"/>
<text text-anchor="start" x="677.5" y="-346.98" font-family="Helvetica,sans-Serif" font-size="11.00">&lt; 2</text>
<polygon fill="#ffffff" stroke="none" points="742.5,-342.43 742.5,-360.43 777.5,-360.43 777.5,-342.43 742.5,-342.43"/>
<polygon fill="none" stroke="black" points="742.5,-342.43 742.5,-360.43 777.5,-360.43 777.5,-342.43 742.5,-342.43"/>
<text text-anchor="start" x="768.5" y="-346.98" font-family="Helvetica,sans-Serif" font-size="11.00"> &#160;</text>
<polygon fill="#ffffff" stroke="none" points="777.5,-342.43 777.5,-360.43 813.5,-360.43 813.5,-342.43 777.5,-342.43"/>
<polygon fill="none" stroke="black" points="777.5,-342.43 777.5,-360.43 813.5,-360.43 813.5,-342.43 777.5,-342.43"/>
<text text-anchor="start" x="804.5" y="-346.98" font-family="Helvetica,sans-Serif" font-size="11.00"> &#160;</text>
</a>
</g>
</g>
<!-- transaction_forks&#45;&gt;blocks -->
<g id="edge17" class="edge">
<title>transaction_forks:w&#45;&gt;blocks:e</title>
<path fill="none" stroke="black" d="M657.61,-371.85C614.97,-388.17 675.27,-482.68 623,-520.43 578.23,-552.77 174.52,-546.79 126,-520.43 91.89,-501.9 70.31,-461.45 58.59,-432.42"/>
<polygon fill="black" stroke="black" points="664.77,-370.73 673.23,-373.04 669.05,-370.05 672.34,-369.54 672.34,-369.54 672.34,-369.54 669.05,-370.05 672.11,-365.93 664.77,-370.73"/>
<ellipse fill="none" stroke="black" cx="659.91" cy="-371.49" rx="3.2" ry="3.2"/>
</g>
<!-- transaction_forks&#45;&gt;transactions -->
<g id="edge16" class="edge">
<title>transaction_forks:w&#45;&gt;transactions:e</title>
<path fill="none" stroke="black" d="M657.43,-366.55C625.94,-351.97 660.12,-285.68 623,-251.43 607.68,-237.29 587.1,-228.27 567.44,-222.52"/>
<polygon fill="black" stroke="black" points="664.8,-367.92 672.02,-372.91 669.07,-368.7 672.34,-369.31 672.34,-369.31 672.34,-369.31 669.07,-368.7 673.33,-365.83 664.8,-367.92"/>
<ellipse fill="none" stroke="black" cx="659.97" cy="-367.02" rx="3.2" ry="3.2"/>
</g>
</g>
</svg>
