<?xml version="1.0" encoding="UTF-8" standalone="no"?>
<!DOCTYPE svg PUBLIC "-//W3C//DTD SVG 1.1//EN"
 "http://www.w3.org/Graphics/SVG/1.1/DTD/svg11.dtd">
<!-- Generated by graphviz version 9.0.0 (20230911.1827)
 -->
<!-- Title: oneDegreeRelationshipsDiagramImplied Pages: 1 -->
<svg width="933pt" height="872pt"
 viewBox="0.00 0.00 933.00 872.29" xmlns="http://www.w3.org/2000/svg" xmlns:xlink="http://www.w3.org/1999/xlink">
<g id="graph0" class="graph" transform="scale(1 1) rotate(0) translate(4 868.29)">
<title>oneDegreeRelationshipsDiagramImplied</title>
<polygon fill="#ffffff" stroke="none" points="-4,4 -4,-868.29 929,-868.29 929,4 -4,4"/>
<text text-anchor="middle" x="71.38" y="-5.55" font-family="Helvetica,sans-Serif" font-size="11.00">Generated by SchemaSpy</text>
<!-- block_second_degree_relations -->
<g id="node1" class="node">
<title>block_second_degree_relations</title>
<g id="a_node1"><a xlink:href="../../tables/block_second_degree_relations.html" xlink:title="block_second_degree_relations" target="_top">
<polygon fill="#ffffff" stroke="none" points="442,-736.29 442,-860.29 663,-860.29 663,-736.29 442,-736.29"/>
<polygon fill="#f5f5f5" stroke="none" points="442,-838.29 442,-860.29 663,-860.29 663,-838.29 442,-838.29"/>
<polygon fill="none" stroke="black" points="442,-838.29 442,-860.29 663,-860.29 663,-838.29 442,-838.29"/>
<text text-anchor="start" x="447" y="-845.84" font-family="Helvetica,sans-Serif" font-weight="bold" font-size="11.00">block_second_degree_relations</text>
<text text-anchor="start" x="629" y="-844.84" font-family="Helvetica,sans-Serif" font-size="11.00">[table]</text>
<polygon fill="none" stroke="black" points="442,-816.29 442,-838.29 663,-838.29 663,-816.29 442,-816.29"/>
<image xlink:href="../../images/primaryKeys.png" width="11px" height="12px" preserveAspectRatio="xMinYMin meet" x="447" y="-833.287"/>
<text text-anchor="start" x="471" y="-822.84" font-family="Helvetica,sans-Serif" font-size="11.00">nephew_hash</text>
<polygon fill="none" stroke="black" points="442,-794.29 442,-816.29 663,-816.29 663,-794.29 442,-794.29"/>
<image xlink:href="../../images/primaryKeys.png" width="11px" height="12px" preserveAspectRatio="xMinYMin meet" x="447" y="-811.287"/>
<text text-anchor="start" x="471" y="-800.84" font-family="Helvetica,sans-Serif" font-size="11.00">uncle_hash</text>
<polygon fill="none" stroke="black" points="442,-772.29 442,-794.29 663,-794.29 663,-772.29 442,-772.29"/>
<image xlink:href="../../images/foreignKeys.png" width="11px" height="12px" preserveAspectRatio="xMinYMin meet" x="447" y="-789.287"/>
<text text-anchor="start" x="471" y="-778.84" font-family="Helvetica,sans-Serif" font-size="11.00">index</text>
<polygon fill="none" stroke="black" points="442,-754.29 442,-772.29 663,-772.29 663,-754.29 442,-754.29"/>
<text text-anchor="start" x="445" y="-758.84" font-family="Helvetica,sans-Serif" font-size="11.00">...</text>
<polygon fill="#ffffff" stroke="none" points="442,-736.29 442,-754.29 551,-754.29 551,-736.29 442,-736.29"/>
<polygon fill="none" stroke="black" points="442,-736.29 442,-754.29 551,-754.29 551,-736.29 442,-736.29"/>
<text text-anchor="start" x="445" y="-740.84" font-family="Helvetica,sans-Serif" font-size="11.00">&lt; 2</text>
<polygon fill="#ffffff" stroke="none" points="551,-736.29 551,-754.29 607,-754.29 607,-736.29 551,-736.29"/>
<polygon fill="none" stroke="black" points="551,-736.29 551,-754.29 607,-754.29 607,-736.29 551,-736.29"/>
<text text-anchor="start" x="598" y="-740.84" font-family="Helvetica,sans-Serif" font-size="11.00"> &#160;</text>
<polygon fill="#ffffff" stroke="none" points="607,-736.29 607,-754.29 663,-754.29 663,-736.29 607,-736.29"/>
<polygon fill="none" stroke="black" points="607,-736.29 607,-754.29 663,-754.29 663,-736.29 607,-736.29"/>
<text text-anchor="start" x="654" y="-740.84" font-family="Helvetica,sans-Serif" font-size="11.00"> &#160;</text>
</a>
</g>
</g>
<!-- withdrawals -->
<g id="node2" class="node">
<title>withdrawals</title>
<g id="a_node2"><a xlink:href="../../tables/withdrawals.html" xlink:title="withdrawals" target="_top">
<polygon fill="#ffffff" stroke="none" points="182,-387.29 182,-585.29 393,-585.29 393,-387.29 182,-387.29"/>
<polygon fill="#f5f5f5" stroke="none" points="184,-561.29 184,-583.29 391,-583.29 391,-561.29 184,-561.29"/>
<polygon fill="none" stroke="black" points="184,-561.29 184,-583.29 391,-583.29 391,-561.29 184,-561.29"/>
<text text-anchor="start" x="189" y="-568.84" font-family="Helvetica,sans-Serif" font-weight="bold" font-size="11.00">withdrawals</text>
<text text-anchor="start" x="356.75" y="-567.84" font-family="Helvetica,sans-Serif" font-size="11.00">[table]</text>
<polygon fill="none" stroke="black" points="184,-539.29 184,-561.29 293,-561.29 293,-539.29 184,-539.29"/>
<image xlink:href="../../images/primaryKeys.png" width="11px" height="12px" preserveAspectRatio="xMinYMin meet" x="189" y="-556.287"/>
<text text-anchor="start" x="204" y="-545.84" font-family="Helvetica,sans-Serif" font-size="11.00">index</text>
<polygon fill="none" stroke="black" points="293,-539.29 293,-561.29 391,-561.29 391,-539.29 293,-539.29"/>
<text text-anchor="start" x="296" y="-545.84" font-family="Helvetica,sans-Serif" font-size="11.00">int4[10]</text>
<polygon fill="none" stroke="black" points="184,-517.29 184,-539.29 293,-539.29 293,-517.29 184,-517.29"/>
<text text-anchor="start" x="204" y="-523.84" font-family="Helvetica,sans-Serif" font-size="11.00">validator_index</text>
<polygon fill="none" stroke="black" points="293,-517.29 293,-539.29 391,-539.29 391,-517.29 293,-517.29"/>
<text text-anchor="start" x="296" y="-523.84" font-family="Helvetica,sans-Serif" font-size="11.00">int4[10]</text>
<polygon fill="none" stroke="black" points="184,-495.29 184,-517.29 293,-517.29 293,-495.29 184,-495.29"/>
<text text-anchor="start" x="204" y="-501.84" font-family="Helvetica,sans-Serif" font-size="11.00">amount</text>
<polygon fill="none" stroke="black" points="293,-495.29 293,-517.29 391,-517.29 391,-495.29 293,-495.29"/>
<text text-anchor="start" x="296" y="-501.84" font-family="Helvetica,sans-Serif" font-size="11.00">numeric[100]</text>
<polygon fill="none" stroke="black" points="184,-473.29 184,-495.29 293,-495.29 293,-473.29 184,-473.29"/>
<text text-anchor="start" x="204" y="-479.84" font-family="Helvetica,sans-Serif" font-size="11.00">inserted_at</text>
<polygon fill="none" stroke="black" points="293,-473.29 293,-495.29 391,-495.29 391,-473.29 293,-473.29"/>
<text text-anchor="start" x="296" y="-479.84" font-family="Helvetica,sans-Serif" font-size="11.00">timestamp[29,6]</text>
<polygon fill="none" stroke="black" points="184,-451.29 184,-473.29 293,-473.29 293,-451.29 184,-451.29"/>
<text text-anchor="start" x="204" y="-457.84" font-family="Helvetica,sans-Serif" font-size="11.00">updated_at</text>
<polygon fill="none" stroke="black" points="293,-451.29 293,-473.29 391,-473.29 391,-451.29 293,-451.29"/>
<text text-anchor="start" x="296" y="-457.84" font-family="Helvetica,sans-Serif" font-size="11.00">timestamp[29,6]</text>
<polygon fill="#ffffff" stroke="none" points="184,-429.29 184,-451.29 293,-451.29 293,-429.29 184,-429.29"/>
<polygon fill="none" stroke="black" points="184,-429.29 184,-451.29 293,-451.29 293,-429.29 184,-429.29"/>
<text text-anchor="start" x="204" y="-435.84" font-family="Helvetica,sans-Serif" font-size="11.00">address_hash</text>
<polygon fill="none" stroke="black" points="293,-429.29 293,-451.29 391,-451.29 391,-429.29 293,-429.29"/>
<text text-anchor="start" x="295.88" y="-435.84" font-family="Helvetica,sans-Serif" font-size="11.00">bytea[2147483647]</text>
<polygon fill="#ffffff" stroke="none" points="184,-407.29 184,-429.29 293,-429.29 293,-407.29 184,-407.29"/>
<polygon fill="none" stroke="black" points="184,-407.29 184,-429.29 293,-429.29 293,-407.29 184,-407.29"/>
<image xlink:href="../../images/foreignKeys.png" width="11px" height="12px" preserveAspectRatio="xMinYMin meet" x="189" y="-424.287"/>
<text text-anchor="start" x="204" y="-413.84" font-family="Helvetica,sans-Serif" font-size="11.00">block_hash</text>
<polygon fill="none" stroke="black" points="293,-407.29 293,-429.29 391,-429.29 391,-407.29 293,-407.29"/>
<text text-anchor="start" x="295.88" y="-413.84" font-family="Helvetica,sans-Serif" font-size="11.00">bytea[2147483647]</text>
<polygon fill="#ffffff" stroke="none" points="184,-389.29 184,-407.29 243,-407.29 243,-389.29 184,-389.29"/>
<polygon fill="none" stroke="black" points="184,-389.29 184,-407.29 243,-407.29 243,-389.29 184,-389.29"/>
<text text-anchor="start" x="187" y="-393.84" font-family="Helvetica,sans-Serif" font-size="11.00">&lt; 1</text>
<polygon fill="#ffffff" stroke="none" points="243,-389.29 243,-407.29 293,-407.29 293,-389.29 243,-389.29"/>
<polygon fill="none" stroke="black" points="243,-389.29 243,-407.29 293,-407.29 293,-389.29 243,-389.29"/>
<text text-anchor="start" x="284" y="-393.84" font-family="Helvetica,sans-Serif" font-size="11.00"> &#160;</text>
<polygon fill="#ffffff" stroke="none" points="293,-389.29 293,-407.29 391,-407.29 391,-389.29 293,-389.29"/>
<polygon fill="none" stroke="black" points="293,-389.29 293,-407.29 391,-407.29 391,-389.29 293,-389.29"/>
<text text-anchor="start" x="372.25" y="-393.84" font-family="Helvetica,sans-Serif" font-size="11.00">5 &gt;</text>
<polygon fill="none" stroke="black" stroke-width="2" points="183,-388.29 183,-584.29 392,-584.29 392,-388.29 183,-388.29"/>
</a>
</g>
</g>
<!-- block_second_degree_relations&#45;&gt;withdrawals -->
<g id="edge1" class="edge">
<title>block_second_degree_relations:w&#45;&gt;withdrawals:e</title>
<path fill="none" stroke="black" stroke-dasharray="5,2" d="M425.03,-781.13C352.42,-757.64 492.24,-550.29 392.5,-550.29"/>
<polygon fill="black" stroke="black" points="432.25,-782.14 439.67,-786.81 436.54,-782.73 439.84,-783.19 439.84,-783.19 439.84,-783.19 436.54,-782.73 440.67,-779.68 432.25,-782.14"/>
<ellipse fill="none" stroke="black" cx="427.37" cy="-781.46" rx="3.2" ry="3.2"/>
</g>
<!-- blocks -->
<g id="node3" class="node">
<title>blocks</title>
<g id="a_node3"><a xlink:href="../../tables/blocks.html" xlink:title="blocks" target="_top">
<polygon fill="#ffffff" stroke="none" points="8,-195.29 8,-429.29 133,-429.29 133,-195.29 8,-195.29"/>
<polygon fill="#f5f5f5" stroke="none" points="8,-407.29 8,-429.29 133,-429.29 133,-407.29 8,-407.29"/>
<polygon fill="none" stroke="black" points="8,-407.29 8,-429.29 133,-429.29 133,-407.29 8,-407.29"/>
<text text-anchor="start" x="12.75" y="-414.84" font-family="Helvetica,sans-Serif" font-weight="bold" font-size="11.00">blocks</text>
<text text-anchor="start" x="98.75" y="-413.84" font-family="Helvetica,sans-Serif" font-size="11.00">[table]</text>
<polygon fill="#ffffff" stroke="none" points="8,-385.29 8,-407.29 133,-407.29 133,-385.29 8,-385.29"/>
<polygon fill="none" stroke="black" points="8,-385.29 8,-407.29 133,-407.29 133,-385.29 8,-385.29"/>
<text text-anchor="start" x="28" y="-391.84" font-family="Helvetica,sans-Serif" font-size="11.00">consensus</text>
<polygon fill="none" stroke="black" points="8,-363.29 8,-385.29 133,-385.29 133,-363.29 8,-363.29"/>
<image xlink:href="../../images/primaryKeys.png" width="11px" height="12px" preserveAspectRatio="xMinYMin meet" x="13" y="-380.287"/>
<text text-anchor="start" x="28" y="-369.84" font-family="Helvetica,sans-Serif" font-size="11.00">hash</text>
<polygon fill="#ffffff" stroke="none" points="8,-341.29 8,-363.29 133,-363.29 133,-341.29 8,-341.29"/>
<polygon fill="none" stroke="black" points="8,-341.29 8,-363.29 133,-363.29 133,-341.29 8,-341.29"/>
<text text-anchor="start" x="28" y="-347.84" font-family="Helvetica,sans-Serif" font-size="11.00">miner_hash</text>
<polygon fill="#ffffff" stroke="none" points="8,-319.29 8,-341.29 133,-341.29 133,-319.29 8,-319.29"/>
<polygon fill="none" stroke="black" points="8,-319.29 8,-341.29 133,-341.29 133,-319.29 8,-319.29"/>
<text text-anchor="start" x="28" y="-325.84" font-family="Helvetica,sans-Serif" font-size="11.00">number</text>
<polygon fill="#ffffff" stroke="none" points="8,-297.29 8,-319.29 133,-319.29 133,-297.29 8,-297.29"/>
<polygon fill="none" stroke="black" points="8,-297.29 8,-319.29 133,-319.29 133,-297.29 8,-297.29"/>
<text text-anchor="start" x="28" y="-303.84" font-family="Helvetica,sans-Serif" font-size="11.00">parent_hash</text>
<polygon fill="#ffffff" stroke="none" points="8,-275.29 8,-297.29 133,-297.29 133,-275.29 8,-275.29"/>
<polygon fill="none" stroke="black" points="8,-275.29 8,-297.29 133,-297.29 133,-275.29 8,-275.29"/>
<text text-anchor="start" x="28" y="-281.84" font-family="Helvetica,sans-Serif" font-size="11.00">timestamp</text>
<polygon fill="#ffffff" stroke="none" points="8,-253.29 8,-275.29 133,-275.29 133,-253.29 8,-253.29"/>
<polygon fill="none" stroke="black" points="8,-253.29 8,-275.29 133,-275.29 133,-253.29 8,-253.29"/>
<text text-anchor="start" x="28" y="-259.84" font-family="Helvetica,sans-Serif" font-size="11.00">inserted_at</text>
<polygon fill="#ffffff" stroke="none" points="8,-231.29 8,-253.29 133,-253.29 133,-231.29 8,-231.29"/>
<polygon fill="none" stroke="black" points="8,-231.29 8,-253.29 133,-253.29 133,-231.29 8,-231.29"/>
<text text-anchor="start" x="28" y="-237.84" font-family="Helvetica,sans-Serif" font-size="11.00">is_empty</text>
<polygon fill="none" stroke="black" points="8,-213.29 8,-231.29 133,-231.29 133,-213.29 8,-213.29"/>
<text text-anchor="start" x="11" y="-217.84" font-family="Helvetica,sans-Serif" font-size="11.00">...</text>
<polygon fill="#ffffff" stroke="none" points="8,-195.29 8,-213.29 60,-213.29 60,-195.29 8,-195.29"/>
<polygon fill="none" stroke="black" points="8,-195.29 8,-213.29 60,-213.29 60,-195.29 8,-195.29"/>
<text text-anchor="start" x="11" y="-199.84" font-family="Helvetica,sans-Serif" font-size="11.00"> &#160;</text>
<polygon fill="#ffffff" stroke="none" points="60,-195.29 60,-213.29 92,-213.29 92,-195.29 60,-195.29"/>
<polygon fill="none" stroke="black" points="60,-195.29 60,-213.29 92,-213.29 92,-195.29 60,-195.29"/>
<text text-anchor="start" x="83" y="-199.84" font-family="Helvetica,sans-Serif" font-size="11.00"> &#160;</text>
<polygon fill="#ffffff" stroke="none" points="92,-195.29 92,-213.29 133,-213.29 133,-195.29 92,-195.29"/>
<polygon fill="none" stroke="black" points="92,-195.29 92,-213.29 133,-213.29 133,-195.29 92,-195.29"/>
<text text-anchor="start" x="114.25" y="-199.84" font-family="Helvetica,sans-Serif" font-size="11.00">9 &gt;</text>
</a>
</g>
</g>
<!-- block_second_degree_relations&#45;&gt;blocks -->
<g id="edge2" class="edge">
<title>block_second_degree_relations:w&#45;&gt;blocks:e</title>
<path fill="none" stroke="black" d="M424.86,-826.96C281.49,-820.77 248.74,-727.94 174,-596.29 149.26,-552.71 184.61,-374.29 134.5,-374.29"/>
<polygon fill="black" stroke="black" points="432.17,-827.11 440.09,-830.88 436.5,-827.2 439.83,-827.27 439.83,-827.27 439.83,-827.27 436.5,-827.2 440.24,-823.68 432.17,-827.11"/>
<ellipse fill="none" stroke="black" cx="427.25" cy="-827.01" rx="3.2" ry="3.2"/>
</g>
<!-- withdrawals&#45;&gt;blocks -->
<g id="edge10" class="edge">
<title>withdrawals:w&#45;&gt;blocks:e</title>
<path fill="none" stroke="black" d="M167.9,-412.53C156.04,-400.61 156.88,-374.29 134.5,-374.29"/>
<polygon fill="black" stroke="black" points="174.75,-415.23 180.87,-421.51 178.78,-416.82 181.88,-418.04 181.88,-418.04 181.88,-418.04 178.78,-416.82 183.51,-414.82 174.75,-415.23"/>
<ellipse fill="none" stroke="black" cx="170.17" cy="-413.43" rx="3.2" ry="3.2"/>
</g>
<!-- internal_transactions -->
<g id="node4" class="node">
<title>internal_transactions</title>
<g id="a_node4"><a xlink:href="../../tables/internal_transactions.html" xlink:title="internal_transactions" target="_top">
<polygon fill="#ffffff" stroke="none" points="712,-152.29 712,-408.29 917,-408.29 917,-152.29 712,-152.29"/>
<polygon fill="#f5f5f5" stroke="none" points="712,-386.29 712,-408.29 917,-408.29 917,-386.29 712,-386.29"/>
<polygon fill="none" stroke="black" points="712,-386.29 712,-408.29 917,-408.29 917,-386.29 712,-386.29"/>
<text text-anchor="start" x="717" y="-393.84" font-family="Helvetica,sans-Serif" font-weight="bold" font-size="11.00">internal_transactions</text>
<text text-anchor="start" x="882.75" y="-392.84" font-family="Helvetica,sans-Serif" font-size="11.00">[table]</text>
<polygon fill="#ffffff" stroke="none" points="712,-364.29 712,-386.29 917,-386.29 917,-364.29 712,-364.29"/>
<polygon fill="none" stroke="black" points="712,-364.29 712,-386.29 917,-386.29 917,-364.29 712,-364.29"/>
<image xlink:href="../../images/foreignKeys.png" width="11px" height="12px" preserveAspectRatio="xMinYMin meet" x="717" y="-381.287"/>
<text text-anchor="start" x="732" y="-370.84" font-family="Helvetica,sans-Serif" font-size="11.00">index</text>
<polygon fill="#ffffff" stroke="none" points="712,-342.29 712,-364.29 917,-364.29 917,-342.29 712,-342.29"/>
<polygon fill="none" stroke="black" points="712,-342.29 712,-364.29 917,-364.29 917,-342.29 712,-342.29"/>
<text text-anchor="start" x="732" y="-348.84" font-family="Helvetica,sans-Serif" font-size="11.00">created_contract_address_hash</text>
<polygon fill="#ffffff" stroke="none" points="712,-320.29 712,-342.29 917,-342.29 917,-320.29 712,-320.29"/>
<polygon fill="none" stroke="black" points="712,-320.29 712,-342.29 917,-342.29 917,-320.29 712,-320.29"/>
<text text-anchor="start" x="732" y="-326.84" font-family="Helvetica,sans-Serif" font-size="11.00">from_address_hash</text>
<polygon fill="#ffffff" stroke="none" points="712,-298.29 712,-320.29 917,-320.29 917,-298.29 712,-298.29"/>
<polygon fill="none" stroke="black" points="712,-298.29 712,-320.29 917,-320.29 917,-298.29 712,-298.29"/>
<text text-anchor="start" x="732" y="-304.84" font-family="Helvetica,sans-Serif" font-size="11.00">to_address_hash</text>
<polygon fill="#ffffff" stroke="none" points="712,-276.29 712,-298.29 917,-298.29 917,-276.29 712,-276.29"/>
<polygon fill="none" stroke="black" points="712,-276.29 712,-298.29 917,-298.29 917,-276.29 712,-276.29"/>
<image xlink:href="../../images/foreignKeys.png" width="11px" height="12px" preserveAspectRatio="xMinYMin meet" x="717" y="-293.287"/>
<text text-anchor="start" x="732" y="-282.84" font-family="Helvetica,sans-Serif" font-size="11.00">transaction_hash</text>
<polygon fill="#ffffff" stroke="none" points="712,-254.29 712,-276.29 917,-276.29 917,-254.29 712,-254.29"/>
<polygon fill="none" stroke="black" points="712,-254.29 712,-276.29 917,-276.29 917,-254.29 712,-254.29"/>
<text text-anchor="start" x="732" y="-260.84" font-family="Helvetica,sans-Serif" font-size="11.00">block_number</text>
<polygon fill="#ffffff" stroke="none" points="712,-232.29 712,-254.29 917,-254.29 917,-232.29 712,-232.29"/>
<polygon fill="none" stroke="black" points="712,-232.29 712,-254.29 917,-254.29 917,-232.29 712,-232.29"/>
<image xlink:href="../../images/foreignKeys.png" width="11px" height="12px" preserveAspectRatio="xMinYMin meet" x="717" y="-249.287"/>
<text text-anchor="start" x="732" y="-238.84" font-family="Helvetica,sans-Serif" font-size="11.00">transaction_index</text>
<polygon fill="none" stroke="black" points="712,-210.29 712,-232.29 917,-232.29 917,-210.29 712,-210.29"/>
<image xlink:href="../../images/primaryKeys.png" width="11px" height="12px" preserveAspectRatio="xMinYMin meet" x="717" y="-227.287"/>
<text text-anchor="start" x="732" y="-216.84" font-family="Helvetica,sans-Serif" font-size="11.00">block_hash</text>
<polygon fill="none" stroke="black" points="712,-188.29 712,-210.29 917,-210.29 917,-188.29 712,-188.29"/>
<image xlink:href="../../images/primaryKeys.png" width="11px" height="12px" preserveAspectRatio="xMinYMin meet" x="717" y="-205.287"/>
<text text-anchor="start" x="732" y="-194.84" font-family="Helvetica,sans-Serif" font-size="11.00">block_index</text>
<polygon fill="none" stroke="black" points="712,-170.29 712,-188.29 917,-188.29 917,-170.29 712,-170.29"/>
<text text-anchor="start" x="715" y="-174.84" font-family="Helvetica,sans-Serif" font-size="11.00">...</text>
<polygon fill="#ffffff" stroke="none" points="712,-152.29 712,-170.29 813,-170.29 813,-152.29 712,-152.29"/>
<polygon fill="none" stroke="black" points="712,-152.29 712,-170.29 813,-170.29 813,-152.29 712,-152.29"/>
<text text-anchor="start" x="715" y="-156.84" font-family="Helvetica,sans-Serif" font-size="11.00">&lt; 4</text>
<polygon fill="#ffffff" stroke="none" points="813,-152.29 813,-170.29 865,-170.29 865,-152.29 813,-152.29"/>
<polygon fill="none" stroke="black" points="813,-152.29 813,-170.29 865,-170.29 865,-152.29 813,-152.29"/>
<text text-anchor="start" x="856" y="-156.84" font-family="Helvetica,sans-Serif" font-size="11.00"> &#160;</text>
<polygon fill="#ffffff" stroke="none" points="865,-152.29 865,-170.29 917,-170.29 917,-152.29 865,-152.29"/>
<polygon fill="none" stroke="black" points="865,-152.29 865,-170.29 917,-170.29 917,-152.29 865,-152.29"/>
<text text-anchor="start" x="908" y="-156.84" font-family="Helvetica,sans-Serif" font-size="11.00"> &#160;</text>
</a>
</g>
</g>
<!-- internal_transactions&#45;&gt;withdrawals -->
<g id="edge4" class="edge">
<title>internal_transactions:w&#45;&gt;withdrawals:e</title>
<path fill="none" stroke="black" stroke-dasharray="5,2" d="M695.71,-380.58C651.34,-419.02 720.85,-655.15 671,-699.29 631.57,-734.2 475.94,-731.14 434,-699.29 379.26,-657.71 461.24,-550.29 392.5,-550.29"/>
<polygon fill="black" stroke="black" points="702.65,-378.1 711.4,-378.79 706.73,-376.63 709.87,-375.51 709.87,-375.51 709.87,-375.51 706.73,-376.63 708.97,-372.01 702.65,-378.1"/>
<ellipse fill="none" stroke="black" cx="698.02" cy="-379.75" rx="3.2" ry="3.2"/>
</g>
<!-- internal_transactions&#45;&gt;withdrawals -->
<g id="edge6" class="edge">
<title>internal_transactions:w&#45;&gt;withdrawals:e</title>
<path fill="none" stroke="black" stroke-dasharray="5,2" d="M695.07,-240.49C658.72,-223.76 718.34,-136.32 671,-100.29 629.09,-68.39 472.91,-64.8 434,-100.29 359.8,-167.96 492.92,-550.29 392.5,-550.29"/>
<polygon fill="black" stroke="black" points="702.3,-241.8 709.53,-246.77 706.56,-242.57 709.84,-243.17 709.84,-243.17 709.84,-243.17 706.56,-242.57 710.81,-239.69 702.3,-241.8"/>
<ellipse fill="none" stroke="black" cx="697.46" cy="-240.93" rx="3.2" ry="3.2"/>
</g>
<!-- internal_transactions&#45;&gt;blocks -->
<g id="edge3" class="edge">
<title>internal_transactions:w&#45;&gt;blocks:e</title>
<path fill="none" stroke="black" d="M695,-218.6C656.4,-201.76 720.21,-110.15 671,-72.29 587.52,-8.05 532.1,-33.93 434,-72.29 287.54,-129.55 274.87,-191.64 174,-312.29 153.04,-337.35 167.17,-374.29 134.5,-374.29"/>
<polygon fill="black" stroke="black" points="702.29,-219.86 709.56,-224.78 706.56,-220.6 709.84,-221.17 709.84,-221.17 709.84,-221.17 706.56,-220.6 710.78,-217.68 702.29,-219.86"/>
<ellipse fill="none" stroke="black" cx="697.44" cy="-219.03" rx="3.2" ry="3.2"/>
</g>
<!-- transactions -->
<g id="node5" class="node">
<title>transactions</title>
<g id="a_node5"><a xlink:href="../../tables/transactions.html" xlink:title="transactions" target="_top">
<polygon fill="#ffffff" stroke="none" points="442,-111.29 442,-499.29 663,-499.29 663,-111.29 442,-111.29"/>
<polygon fill="#f5f5f5" stroke="none" points="442,-477.29 442,-499.29 663,-499.29 663,-477.29 442,-477.29"/>
<polygon fill="none" stroke="black" points="442,-477.29 442,-499.29 663,-499.29 663,-477.29 442,-477.29"/>
<text text-anchor="start" x="447" y="-484.84" font-family="Helvetica,sans-Serif" font-weight="bold" font-size="11.00">transactions</text>
<text text-anchor="start" x="628.75" y="-483.84" font-family="Helvetica,sans-Serif" font-size="11.00">[table]</text>
<polygon fill="#ffffff" stroke="none" points="442,-455.29 442,-477.29 663,-477.29 663,-455.29 442,-455.29"/>
<polygon fill="none" stroke="black" points="442,-455.29 442,-477.29 663,-477.29 663,-455.29 442,-455.29"/>
<text text-anchor="start" x="462" y="-461.84" font-family="Helvetica,sans-Serif" font-size="11.00">error</text>
<polygon fill="none" stroke="black" points="442,-433.29 442,-455.29 663,-455.29 663,-433.29 442,-433.29"/>
<image xlink:href="../../images/primaryKeys.png" width="11px" height="12px" preserveAspectRatio="xMinYMin meet" x="447" y="-450.287"/>
<text text-anchor="start" x="462" y="-439.84" font-family="Helvetica,sans-Serif" font-size="11.00">hash</text>
<polygon fill="#ffffff" stroke="none" points="442,-411.29 442,-433.29 663,-433.29 663,-411.29 442,-411.29"/>
<polygon fill="none" stroke="black" points="442,-411.29 442,-433.29 663,-433.29 663,-411.29 442,-411.29"/>
<image xlink:href="../../images/foreignKeys.png" width="11px" height="12px" preserveAspectRatio="xMinYMin meet" x="447" y="-428.287"/>
<text text-anchor="start" x="462" y="-417.84" font-family="Helvetica,sans-Serif" font-size="11.00">index</text>
<polygon fill="#ffffff" stroke="none" points="442,-389.29 442,-411.29 663,-411.29 663,-389.29 442,-389.29"/>
<polygon fill="none" stroke="black" points="442,-389.29 442,-411.29 663,-411.29 663,-389.29 442,-389.29"/>
<text text-anchor="start" x="462" y="-395.84" font-family="Helvetica,sans-Serif" font-size="11.00">nonce</text>
<polygon fill="#ffffff" stroke="none" points="442,-367.29 442,-389.29 663,-389.29 663,-367.29 442,-367.29"/>
<polygon fill="none" stroke="black" points="442,-367.29 442,-389.29 663,-389.29 663,-367.29 442,-367.29"/>
<text text-anchor="start" x="462" y="-373.84" font-family="Helvetica,sans-Serif" font-size="11.00">status</text>
<polygon fill="#ffffff" stroke="none" points="442,-345.29 442,-367.29 663,-367.29 663,-345.29 442,-345.29"/>
<polygon fill="none" stroke="black" points="442,-345.29 442,-367.29 663,-367.29 663,-345.29 442,-345.29"/>
<text text-anchor="start" x="462" y="-351.84" font-family="Helvetica,sans-Serif" font-size="11.00">inserted_at</text>
<polygon fill="#ffffff" stroke="none" points="442,-323.29 442,-345.29 663,-345.29 663,-323.29 442,-323.29"/>
<polygon fill="none" stroke="black" points="442,-323.29 442,-345.29 663,-345.29 663,-323.29 442,-323.29"/>
<text text-anchor="start" x="462" y="-329.84" font-family="Helvetica,sans-Serif" font-size="11.00">updated_at</text>
<polygon fill="#ffffff" stroke="none" points="442,-301.29 442,-323.29 663,-323.29 663,-301.29 442,-301.29"/>
<polygon fill="none" stroke="black" points="442,-301.29 442,-323.29 663,-323.29 663,-301.29 442,-301.29"/>
<image xlink:href="../../images/foreignKeys.png" width="11px" height="12px" preserveAspectRatio="xMinYMin meet" x="447" y="-318.287"/>
<text text-anchor="start" x="462" y="-307.84" font-family="Helvetica,sans-Serif" font-size="11.00">block_hash</text>
<polygon fill="#ffffff" stroke="none" points="442,-279.29 442,-301.29 663,-301.29 663,-279.29 442,-279.29"/>
<polygon fill="none" stroke="black" points="442,-279.29 442,-301.29 663,-301.29 663,-279.29 442,-279.29"/>
<text text-anchor="start" x="462" y="-285.84" font-family="Helvetica,sans-Serif" font-size="11.00">block_number</text>
<polygon fill="#ffffff" stroke="none" points="442,-257.29 442,-279.29 663,-279.29 663,-257.29 442,-257.29"/>
<polygon fill="none" stroke="black" points="442,-257.29 442,-279.29 663,-279.29 663,-257.29 442,-257.29"/>
<text text-anchor="start" x="462" y="-263.84" font-family="Helvetica,sans-Serif" font-size="11.00">from_address_hash</text>
<polygon fill="#ffffff" stroke="none" points="442,-235.29 442,-257.29 663,-257.29 663,-235.29 442,-235.29"/>
<polygon fill="none" stroke="black" points="442,-235.29 442,-257.29 663,-257.29 663,-235.29 442,-235.29"/>
<text text-anchor="start" x="462" y="-241.84" font-family="Helvetica,sans-Serif" font-size="11.00">to_address_hash</text>
<polygon fill="#ffffff" stroke="none" points="442,-213.29 442,-235.29 663,-235.29 663,-213.29 442,-213.29"/>
<polygon fill="none" stroke="black" points="442,-213.29 442,-235.29 663,-235.29 663,-213.29 442,-213.29"/>
<text text-anchor="start" x="462" y="-219.84" font-family="Helvetica,sans-Serif" font-size="11.00">created_contract_address_hash</text>
<polygon fill="#ffffff" stroke="none" points="442,-191.29 442,-213.29 663,-213.29 663,-191.29 442,-191.29"/>
<polygon fill="none" stroke="black" points="442,-191.29 442,-213.29 663,-213.29 663,-191.29 442,-191.29"/>
<text text-anchor="start" x="462" y="-197.84" font-family="Helvetica,sans-Serif" font-size="11.00">created_contract_code_indexed_at</text>
<polygon fill="#ffffff" stroke="none" points="442,-169.29 442,-191.29 663,-191.29 663,-169.29 442,-169.29"/>
<polygon fill="none" stroke="black" points="442,-169.29 442,-191.29 663,-191.29 663,-169.29 442,-169.29"/>
<text text-anchor="start" x="462" y="-175.84" font-family="Helvetica,sans-Serif" font-size="11.00">block_timestamp</text>
<polygon fill="#ffffff" stroke="none" points="442,-147.29 442,-169.29 663,-169.29 663,-147.29 442,-147.29"/>
<polygon fill="none" stroke="black" points="442,-147.29 442,-169.29 663,-169.29 663,-147.29 442,-147.29"/>
<text text-anchor="start" x="462" y="-153.84" font-family="Helvetica,sans-Serif" font-size="11.00">block_consensus</text>
<polygon fill="none" stroke="black" points="442,-129.29 442,-147.29 663,-147.29 663,-129.29 442,-129.29"/>
<text text-anchor="start" x="445" y="-133.84" font-family="Helvetica,sans-Serif" font-size="11.00">...</text>
<polygon fill="#ffffff" stroke="none" points="442,-111.29 442,-129.29 546,-129.29 546,-111.29 442,-111.29"/>
<polygon fill="none" stroke="black" points="442,-111.29 442,-129.29 546,-129.29 546,-111.29 442,-111.29"/>
<text text-anchor="start" x="445" y="-115.84" font-family="Helvetica,sans-Serif" font-size="11.00">&lt; 2</text>
<polygon fill="#ffffff" stroke="none" points="546,-111.29 546,-129.29 600,-129.29 600,-111.29 546,-111.29"/>
<polygon fill="none" stroke="black" points="546,-111.29 546,-129.29 600,-129.29 600,-111.29 546,-111.29"/>
<text text-anchor="start" x="591" y="-115.84" font-family="Helvetica,sans-Serif" font-size="11.00"> &#160;</text>
<polygon fill="#ffffff" stroke="none" points="600,-111.29 600,-129.29 663,-129.29 663,-111.29 600,-111.29"/>
<polygon fill="none" stroke="black" points="600,-111.29 600,-129.29 663,-129.29 663,-111.29 600,-111.29"/>
<text text-anchor="start" x="644.25" y="-115.84" font-family="Helvetica,sans-Serif" font-size="11.00">5 &gt;</text>
</a>
</g>
</g>
<!-- internal_transactions&#45;&gt;transactions -->
<g id="edge5" class="edge">
<title>internal_transactions:w&#45;&gt;transactions:e</title>
<path fill="none" stroke="black" d="M695.08,-290.71C653.94,-313.67 730.82,-444.29 664.5,-444.29"/>
<polygon fill="black" stroke="black" points="702.36,-289.09 710.95,-290.87 706.6,-288.15 709.85,-287.43 709.85,-287.43 709.85,-287.43 706.6,-288.15 709.39,-283.85 702.36,-289.09"/>
<ellipse fill="none" stroke="black" cx="697.56" cy="-290.16" rx="3.2" ry="3.2"/>
</g>
<!-- transactions&#45;&gt;withdrawals -->
<g id="edge9" class="edge">
<title>transactions:w&#45;&gt;withdrawals:e</title>
<path fill="none" stroke="black" stroke-dasharray="5,2" d="M425.44,-426.26C393.76,-447.86 446.85,-550.29 392.5,-550.29"/>
<polygon fill="black" stroke="black" points="432.44,-424.41 441.09,-425.85 436.63,-423.31 439.85,-422.46 439.85,-422.46 439.85,-422.46 436.63,-423.31 439.26,-418.89 432.44,-424.41"/>
<ellipse fill="none" stroke="black" cx="427.69" cy="-425.67" rx="3.2" ry="3.2"/>
</g>
<!-- transactions&#45;&gt;blocks -->
<g id="edge8" class="edge">
<title>transactions:w&#45;&gt;blocks:e</title>
<path fill="none" stroke="black" d="M424.73,-312.56C299.34,-317.04 267.84,-374.29 134.5,-374.29"/>
<polygon fill="black" stroke="black" points="432.17,-312.43 440.23,-315.89 436.5,-312.36 439.83,-312.3 439.83,-312.3 439.83,-312.3 436.5,-312.36 440.1,-308.69 432.17,-312.43"/>
<ellipse fill="none" stroke="black" cx="427.25" cy="-312.52" rx="3.2" ry="3.2"/>
</g>
<!-- token_instances -->
<g id="node6" class="node">
<title>token_instances</title>
<g id="a_node6"><a xlink:href="../../tables/token_instances.html" xlink:title="token_instances" target="_top">
<polygon fill="#ffffff" stroke="none" points="455.5,-520.29 455.5,-688.29 649.5,-688.29 649.5,-520.29 455.5,-520.29"/>
<polygon fill="#f5f5f5" stroke="none" points="455.5,-666.29 455.5,-688.29 649.5,-688.29 649.5,-666.29 455.5,-666.29"/>
<polygon fill="none" stroke="black" points="455.5,-666.29 455.5,-688.29 649.5,-688.29 649.5,-666.29 455.5,-666.29"/>
<text text-anchor="start" x="460.5" y="-673.84" font-family="Helvetica,sans-Serif" font-weight="bold" font-size="11.00">token_instances</text>
<text text-anchor="start" x="615.25" y="-672.84" font-family="Helvetica,sans-Serif" font-size="11.00">[table]</text>
<polygon fill="none" stroke="black" points="455.5,-644.29 455.5,-666.29 649.5,-666.29 649.5,-644.29 455.5,-644.29"/>
<image xlink:href="../../images/primaryKeys.png" width="11px" height="12px" preserveAspectRatio="xMinYMin meet" x="460.5" y="-661.287"/>
<text text-anchor="start" x="475.5" y="-650.84" font-family="Helvetica,sans-Serif" font-size="11.00">token_id</text>
<polygon fill="none" stroke="black" points="455.5,-622.29 455.5,-644.29 649.5,-644.29 649.5,-622.29 455.5,-622.29"/>
<image xlink:href="../../images/primaryKeys.png" width="11px" height="12px" preserveAspectRatio="xMinYMin meet" x="460.5" y="-639.287"/>
<text text-anchor="start" x="475.5" y="-628.84" font-family="Helvetica,sans-Serif" font-size="11.00">token_contract_address_hash</text>
<polygon fill="#ffffff" stroke="none" points="455.5,-600.29 455.5,-622.29 649.5,-622.29 649.5,-600.29 455.5,-600.29"/>
<polygon fill="none" stroke="black" points="455.5,-600.29 455.5,-622.29 649.5,-622.29 649.5,-600.29 455.5,-600.29"/>
<text text-anchor="start" x="475.5" y="-606.84" font-family="Helvetica,sans-Serif" font-size="11.00">error</text>
<polygon fill="#ffffff" stroke="none" points="455.5,-578.29 455.5,-600.29 649.5,-600.29 649.5,-578.29 455.5,-578.29"/>
<polygon fill="none" stroke="black" points="455.5,-578.29 455.5,-600.29 649.5,-600.29 649.5,-578.29 455.5,-578.29"/>
<text text-anchor="start" x="475.5" y="-584.84" font-family="Helvetica,sans-Serif" font-size="11.00">owner_address_hash</text>
<polygon fill="none" stroke="black" points="455.5,-556.29 455.5,-578.29 649.5,-578.29 649.5,-556.29 455.5,-556.29"/>
<image xlink:href="../../images/foreignKeys.png" width="11px" height="12px" preserveAspectRatio="xMinYMin meet" x="460.5" y="-573.287"/>
<text text-anchor="start" x="475.5" y="-562.84" font-family="Helvetica,sans-Serif" font-size="11.00">owner_updated_at_log_index</text>
<polygon fill="none" stroke="black" points="455.5,-538.29 455.5,-556.29 649.5,-556.29 649.5,-538.29 455.5,-538.29"/>
<text text-anchor="start" x="458.5" y="-542.84" font-family="Helvetica,sans-Serif" font-size="11.00">...</text>
<polygon fill="#ffffff" stroke="none" points="455.5,-520.29 455.5,-538.29 550.5,-538.29 550.5,-520.29 455.5,-520.29"/>
<polygon fill="none" stroke="black" points="455.5,-520.29 455.5,-538.29 550.5,-538.29 550.5,-520.29 455.5,-520.29"/>
<text text-anchor="start" x="458.5" y="-524.84" font-family="Helvetica,sans-Serif" font-size="11.00">&lt; 2</text>
<polygon fill="#ffffff" stroke="none" points="550.5,-520.29 550.5,-538.29 599.5,-538.29 599.5,-520.29 550.5,-520.29"/>
<polygon fill="none" stroke="black" points="550.5,-520.29 550.5,-538.29 599.5,-538.29 599.5,-520.29 550.5,-520.29"/>
<text text-anchor="start" x="590.5" y="-524.84" font-family="Helvetica,sans-Serif" font-size="11.00"> &#160;</text>
<polygon fill="#ffffff" stroke="none" points="599.5,-520.29 599.5,-538.29 649.5,-538.29 649.5,-520.29 599.5,-520.29"/>
<polygon fill="none" stroke="black" points="599.5,-520.29 599.5,-538.29 649.5,-538.29 649.5,-520.29 599.5,-520.29"/>
<text text-anchor="start" x="640.5" y="-524.84" font-family="Helvetica,sans-Serif" font-size="11.00"> &#160;</text>
</a>
</g>
</g>
<!-- token_instances&#45;&gt;withdrawals -->
<g id="edge7" class="edge">
<title>token_instances:w&#45;&gt;withdrawals:e</title>
<path fill="none" stroke="black" stroke-dasharray="5,2" d="M439.14,-565.34C422.82,-560.87 415.05,-550.29 392.5,-550.29"/>
<polygon fill="black" stroke="black" points="446.23,-566.24 453.71,-570.82 450.53,-566.78 453.84,-567.2 453.84,-567.2 453.84,-567.2 450.53,-566.78 454.62,-563.67 446.23,-566.24"/>
<ellipse fill="none" stroke="black" cx="441.35" cy="-565.62" rx="3.2" ry="3.2"/>
</g>
</g>
</svg>
