<?xml version="1.0" encoding="UTF-8" standalone="no"?>
<!DOCTYPE svg PUBLIC "-//W3C//DTD SVG 1.1//EN"
 "http://www.w3.org/Graphics/SVG/1.1/DTD/svg11.dtd">
<!-- Generated by graphviz version 2.38.0 (20140413.2041)
 -->
<!-- Title: address_names Pages: 1 -->
<svg width="250pt" height="192pt"
 viewBox="0.00 0.00 250.00 192.00" xmlns="http://www.w3.org/2000/svg" xmlns:xlink="http://www.w3.org/1999/xlink">
<g id="graph0" class="graph" transform="scale(1 1) rotate(0) translate(4 188)">
<title>address_names</title>
<polygon fill="#ffffff" stroke="none" points="-4,4 -4,-188 246,-188 246,4 -4,4"/>
<!-- address_names -->
<g id="node1" class="node"><title>address_names</title>
<g id="a_node1"><a xlink:href="../../tables/address_names.html" xlink:title="address_names" target="_top">
<polygon fill="#ffffff" stroke="none" points="8,-4 8,-180 234,-180 234,-4 8,-4"/>
<polygon fill="#f5f5f5" stroke="none" points="10,-156 10,-178 232,-178 232,-156 10,-156"/>
<polygon fill="none" stroke="black" points="10,-156 10,-178 232,-178 232,-156 10,-156"/>
<text text-anchor="start" x="15" y="-165.2" font-family="Helvetica,sans-Serif" font-weight="bold" font-size="11.00">address_names</text>
<text text-anchor="start" x="193" y="-164.2" font-family="Helvetica,sans-Serif" font-size="11.00">[table]</text>
<polygon fill="#ffffff" stroke="none" points="10,-134 10,-156 122,-156 122,-134 10,-134"/>
<polygon fill="none" stroke="black" points="10,-134 10,-156 122,-156 122,-134 10,-134"/>
<text text-anchor="start" x="30" y="-142.2" font-family="Helvetica,sans-Serif" font-size="11.00">address_hash</text>
<polygon fill="none" stroke="black" points="122,-134 122,-156 232,-156 232,-134 122,-134"/>
<text text-anchor="start" x="125" y="-142.2" font-family="Helvetica,sans-Serif" font-size="11.00">bytea[2147483647]</text>
<polygon fill="#ffffff" stroke="none" points="10,-112 10,-134 122,-134 122,-112 10,-112"/>
<polygon fill="none" stroke="black" points="10,-112 10,-134 122,-134 122,-112 10,-112"/>
<text text-anchor="start" x="30" y="-120.2" font-family="Helvetica,sans-Serif" font-size="11.00">name</text>
<polygon fill="none" stroke="black" points="122,-112 122,-134 232,-134 232,-112 122,-112"/>
<text text-anchor="start" x="125" y="-120.2" font-family="Helvetica,sans-Serif" font-size="11.00">varchar[255]</text>
<polygon fill="none" stroke="black" points="10,-90 10,-112 122,-112 122,-90 10,-90"/>
<text text-anchor="start" x="30" y="-98.2" font-family="Helvetica,sans-Serif" font-size="11.00">primary</text>
<polygon fill="none" stroke="black" points="122,-90 122,-112 232,-112 232,-90 122,-90"/>
<text text-anchor="start" x="125" y="-98.2" font-family="Helvetica,sans-Serif" font-size="11.00">bool[1]</text>
<polygon fill="none" stroke="black" points="10,-68 10,-90 122,-90 122,-68 10,-68"/>
<text text-anchor="start" x="30" y="-76.2" font-family="Helvetica,sans-Serif" font-size="11.00">inserted_at</text>
<polygon fill="none" stroke="black" points="122,-68 122,-90 232,-90 232,-68 122,-68"/>
<text text-anchor="start" x="125" y="-76.2" font-family="Helvetica,sans-Serif" font-size="11.00">timestamp[29,6]</text>
<polygon fill="none" stroke="black" points="10,-46 10,-68 122,-68 122,-46 10,-46"/>
<text text-anchor="start" x="30" y="-54.2" font-family="Helvetica,sans-Serif" font-size="11.00">updated_at</text>
<polygon fill="none" stroke="black" points="122,-46 122,-68 232,-68 232,-46 122,-46"/>
<text text-anchor="start" x="125" y="-54.2" font-family="Helvetica,sans-Serif" font-size="11.00">timestamp[29,6]</text>
<polygon fill="none" stroke="black" points="10,-24 10,-46 122,-46 122,-24 10,-24"/>
<text text-anchor="start" x="30" y="-32.2" font-family="Helvetica,sans-Serif" font-size="11.00">metadata</text>
<polygon fill="none" stroke="black" points="122,-24 122,-46 232,-46 232,-24 122,-24"/>
<text text-anchor="start" x="125" y="-32.2" font-family="Helvetica,sans-Serif" font-size="11.00">jsonb[2147483647]</text>
<polygon fill="#ffffff" stroke="none" points="10,-6 10,-24 56,-24 56,-6 10,-6"/>
<polygon fill="none" stroke="black" points="10,-6 10,-24 56,-24 56,-6 10,-6"/>
<text text-anchor="start" x="13" y="-12.2" font-family="Helvetica,sans-Serif" font-size="11.00">&lt; 0</text>
<polygon fill="#ffffff" stroke="none" points="56,-6 56,-24 122,-24 122,-6 56,-6"/>
<polygon fill="none" stroke="black" points="56,-6 56,-24 122,-24 122,-6 56,-6"/>
<text text-anchor="start" x="83" y="-12.2" font-family="Helvetica,sans-Serif" font-size="11.00">0 rows</text>
<polygon fill="#ffffff" stroke="none" points="122,-6 122,-24 232,-24 232,-6 122,-6"/>
<polygon fill="none" stroke="black" points="122,-6 122,-24 232,-24 232,-6 122,-6"/>
<text text-anchor="start" x="212" y="-12.2" font-family="Helvetica,sans-Serif" font-size="11.00">0 &gt;</text>
<polygon fill="none" stroke="black" stroke-width="2" points="9,-5 9,-179 233,-179 233,-5 9,-5"/>
</a>
</g>
</g>
</g>
</svg>
