<?xml version="1.0" encoding="UTF-8" standalone="no"?>
<!DOCTYPE svg PUBLIC "-//W3C//DTD SVG 1.1//EN"
 "http://www.w3.org/Graphics/SVG/1.1/DTD/svg11.dtd">
<!-- Generated by graphviz version 2.38.0 (20140413.2041)
 -->
<!-- Title: contract_methods Pages: 1 -->
<svg width="267pt" height="192pt"
 viewBox="0.00 0.00 267.00 192.00" xmlns="http://www.w3.org/2000/svg" xmlns:xlink="http://www.w3.org/1999/xlink">
<g id="graph0" class="graph" transform="scale(1 1) rotate(0) translate(4 188)">
<title>contract_methods</title>
<polygon fill="#ffffff" stroke="none" points="-4,4 -4,-188 263,-188 263,4 -4,4"/>
<!-- contract_methods -->
<g id="node1" class="node"><title>contract_methods</title>
<g id="a_node1"><a xlink:href="../../tables/contract_methods.html" xlink:title="contract_methods" target="_top">
<polygon fill="#ffffff" stroke="none" points="8,-4 8,-180 251,-180 251,-4 8,-4"/>
<polygon fill="#f5f5f5" stroke="none" points="10.5,-156 10.5,-178 249.5,-178 249.5,-156 10.5,-156"/>
<polygon fill="none" stroke="black" points="10.5,-156 10.5,-178 249.5,-178 249.5,-156 10.5,-156"/>
<text text-anchor="start" x="15.5" y="-165.2" font-family="Helvetica,sans-Serif" font-weight="bold" font-size="11.00">contract_methods</text>
<text text-anchor="start" x="210.5" y="-164.2" font-family="Helvetica,sans-Serif" font-size="11.00">[table]</text>
<polygon fill="none" stroke="black" points="10.5,-134 10.5,-156 139.5,-156 139.5,-134 10.5,-134"/>
<image xlink:href="../../images/primaryKeys.png" width="11px" height="12px" preserveAspectRatio="xMinYMin meet" x="15.5" y="-151"/>
<text text-anchor="start" x="30.5" y="-142.2" font-family="Helvetica,sans-Serif" font-size="11.00">id</text>
<polygon fill="none" stroke="black" points="139.5,-134 139.5,-156 249.5,-156 249.5,-134 139.5,-134"/>
<text text-anchor="start" x="142.5" y="-142.2" font-family="Helvetica,sans-Serif" font-size="11.00">bigserial[19]</text>
<polygon fill="#ffffff" stroke="none" points="10.5,-112 10.5,-134 139.5,-134 139.5,-112 10.5,-112"/>
<polygon fill="none" stroke="black" points="10.5,-112 10.5,-134 139.5,-134 139.5,-112 10.5,-112"/>
<text text-anchor="start" x="30.5" y="-120.2" font-family="Helvetica,sans-Serif" font-size="11.00">identifier</text>
<polygon fill="none" stroke="black" points="139.5,-112 139.5,-134 249.5,-134 249.5,-112 139.5,-112"/>
<text text-anchor="start" x="142.5" y="-120.2" font-family="Helvetica,sans-Serif" font-size="11.00">int4[10]</text>
<polygon fill="#ffffff" stroke="none" points="10.5,-90 10.5,-112 139.5,-112 139.5,-90 10.5,-90"/>
<polygon fill="none" stroke="black" points="10.5,-90 10.5,-112 139.5,-112 139.5,-90 10.5,-90"/>
<text text-anchor="start" x="30.5" y="-98.2" font-family="Helvetica,sans-Serif" font-size="11.00">abi</text>
<polygon fill="none" stroke="black" points="139.5,-90 139.5,-112 249.5,-112 249.5,-90 139.5,-90"/>
<text text-anchor="start" x="142.5" y="-98.2" font-family="Helvetica,sans-Serif" font-size="11.00">jsonb[2147483647]</text>
<polygon fill="none" stroke="black" points="10.5,-68 10.5,-90 139.5,-90 139.5,-68 10.5,-68"/>
<text text-anchor="start" x="30.5" y="-76.2" font-family="Helvetica,sans-Serif" font-size="11.00">type</text>
<polygon fill="none" stroke="black" points="139.5,-68 139.5,-90 249.5,-90 249.5,-68 139.5,-68"/>
<text text-anchor="start" x="142.5" y="-76.2" font-family="Helvetica,sans-Serif" font-size="11.00">varchar[255]</text>
<polygon fill="none" stroke="black" points="10.5,-46 10.5,-68 139.5,-68 139.5,-46 10.5,-46"/>
<text text-anchor="start" x="30.5" y="-54.2" font-family="Helvetica,sans-Serif" font-size="11.00">inserted_at</text>
<polygon fill="none" stroke="black" points="139.5,-46 139.5,-68 249.5,-68 249.5,-46 139.5,-46"/>
<text text-anchor="start" x="142.5" y="-54.2" font-family="Helvetica,sans-Serif" font-size="11.00">timestamp[29,6]</text>
<polygon fill="none" stroke="black" points="10.5,-24 10.5,-46 139.5,-46 139.5,-24 10.5,-24"/>
<text text-anchor="start" x="30.5" y="-32.2" font-family="Helvetica,sans-Serif" font-size="11.00">updated_at</text>
<polygon fill="none" stroke="black" points="139.5,-24 139.5,-46 249.5,-46 249.5,-24 139.5,-24"/>
<text text-anchor="start" x="142.5" y="-32.2" font-family="Helvetica,sans-Serif" font-size="11.00">timestamp[29,6]</text>
<polygon fill="#ffffff" stroke="none" points="10.5,-6 10.5,-24 65.5,-24 65.5,-6 10.5,-6"/>
<polygon fill="none" stroke="black" points="10.5,-6 10.5,-24 65.5,-24 65.5,-6 10.5,-6"/>
<text text-anchor="start" x="13.5" y="-12.2" font-family="Helvetica,sans-Serif" font-size="11.00">&lt; 0</text>
<polygon fill="#ffffff" stroke="none" points="65.5,-6 65.5,-24 139.5,-24 139.5,-6 65.5,-6"/>
<polygon fill="none" stroke="black" points="65.5,-6 65.5,-24 139.5,-24 139.5,-6 65.5,-6"/>
<text text-anchor="start" x="100.5" y="-12.2" font-family="Helvetica,sans-Serif" font-size="11.00">0 rows</text>
<polygon fill="#ffffff" stroke="none" points="139.5,-6 139.5,-24 249.5,-24 249.5,-6 139.5,-6"/>
<polygon fill="none" stroke="black" points="139.5,-6 139.5,-24 249.5,-24 249.5,-6 139.5,-6"/>
<text text-anchor="start" x="229.5" y="-12.2" font-family="Helvetica,sans-Serif" font-size="11.00">0 &gt;</text>
<polygon fill="none" stroke="black" stroke-width="2" points="9,-5 9,-179 250,-179 250,-5 9,-5"/>
</a>
</g>
</g>
</g>
</svg>
