<?xml version="1.0" encoding="UTF-8" standalone="no"?>
<!DOCTYPE svg PUBLIC "-//W3C//DTD SVG 1.1//EN"
 "http://www.w3.org/Graphics/SVG/1.1/DTD/svg11.dtd">
<!-- Generated by graphviz version 2.38.0 (20140413.2041)
 -->
<!-- Title: contract_verification_status Pages: 1 -->
<svg width="326pt" height="170pt"
 viewBox="0.00 0.00 326.00 170.00" xmlns="http://www.w3.org/2000/svg" xmlns:xlink="http://www.w3.org/1999/xlink">
<g id="graph0" class="graph" transform="scale(1 1) rotate(0) translate(4 166)">
<title>contract_verification_status</title>
<polygon fill="#ffffff" stroke="none" points="-4,4 -4,-166 322,-166 322,4 -4,4"/>
<!-- contract_verification_status -->
<g id="node1" class="node"><title>contract_verification_status</title>
<g id="a_node1"><a xlink:href="../../tables/contract_verification_status.html" xlink:title="contract_verification_status" target="_top">
<polygon fill="#ffffff" stroke="none" points="8,-4 8,-158 310,-158 310,-4 8,-4"/>
<polygon fill="#f5f5f5" stroke="none" points="10,-134 10,-156 308,-156 308,-134 10,-134"/>
<polygon fill="none" stroke="black" points="10,-134 10,-156 308,-156 308,-134 10,-134"/>
<text text-anchor="start" x="15" y="-143.2" font-family="Helvetica,sans-Serif" font-weight="bold" font-size="11.00">contract_verification_status</text>
<text text-anchor="start" x="269" y="-142.2" font-family="Helvetica,sans-Serif" font-size="11.00">[table]</text>
<polygon fill="none" stroke="black" points="10,-112 10,-134 198,-134 198,-112 10,-112"/>
<image xlink:href="../../images/primaryKeys.png" width="11px" height="12px" preserveAspectRatio="xMinYMin meet" x="15" y="-129"/>
<text text-anchor="start" x="30" y="-120.2" font-family="Helvetica,sans-Serif" font-size="11.00">uid</text>
<polygon fill="none" stroke="black" points="198,-112 198,-134 308,-134 308,-112 198,-112"/>
<text text-anchor="start" x="201" y="-120.2" font-family="Helvetica,sans-Serif" font-size="11.00">varchar[64]</text>
<polygon fill="none" stroke="black" points="10,-90 10,-112 198,-112 198,-90 10,-90"/>
<text text-anchor="start" x="30" y="-98.2" font-family="Helvetica,sans-Serif" font-size="11.00">status</text>
<polygon fill="none" stroke="black" points="198,-90 198,-112 308,-112 308,-90 198,-90"/>
<text text-anchor="start" x="201" y="-98.2" font-family="Helvetica,sans-Serif" font-size="11.00">int2[5]</text>
<polygon fill="none" stroke="black" points="10,-68 10,-90 198,-90 198,-68 10,-68"/>
<text text-anchor="start" x="30" y="-76.2" font-family="Helvetica,sans-Serif" font-size="11.00">address_hash</text>
<polygon fill="none" stroke="black" points="198,-68 198,-90 308,-90 308,-68 198,-68"/>
<text text-anchor="start" x="201" y="-76.2" font-family="Helvetica,sans-Serif" font-size="11.00">bytea[2147483647]</text>
<polygon fill="none" stroke="black" points="10,-46 10,-68 198,-68 198,-46 10,-46"/>
<text text-anchor="start" x="30" y="-54.2" font-family="Helvetica,sans-Serif" font-size="11.00">inserted_at</text>
<polygon fill="none" stroke="black" points="198,-46 198,-68 308,-68 308,-46 198,-46"/>
<text text-anchor="start" x="201" y="-54.2" font-family="Helvetica,sans-Serif" font-size="11.00">timestamp[29,6]</text>
<polygon fill="none" stroke="black" points="10,-24 10,-46 198,-46 198,-24 10,-24"/>
<text text-anchor="start" x="30" y="-32.2" font-family="Helvetica,sans-Serif" font-size="11.00">updated_at</text>
<polygon fill="none" stroke="black" points="198,-24 198,-46 308,-46 308,-24 198,-24"/>
<text text-anchor="start" x="201" y="-32.2" font-family="Helvetica,sans-Serif" font-size="11.00">timestamp[29,6]</text>
<polygon fill="#ffffff" stroke="none" points="10,-6 10,-24 94,-24 94,-6 10,-6"/>
<polygon fill="none" stroke="black" points="10,-6 10,-24 94,-24 94,-6 10,-6"/>
<text text-anchor="start" x="13" y="-12.2" font-family="Helvetica,sans-Serif" font-size="11.00">&lt; 0</text>
<polygon fill="#ffffff" stroke="none" points="94,-6 94,-24 198,-24 198,-6 94,-6"/>
<polygon fill="none" stroke="black" points="94,-6 94,-24 198,-24 198,-6 94,-6"/>
<text text-anchor="start" x="159" y="-12.2" font-family="Helvetica,sans-Serif" font-size="11.00">0 rows</text>
<polygon fill="#ffffff" stroke="none" points="198,-6 198,-24 308,-24 308,-6 198,-6"/>
<polygon fill="none" stroke="black" points="198,-6 198,-24 308,-24 308,-6 198,-6"/>
<text text-anchor="start" x="288" y="-12.2" font-family="Helvetica,sans-Serif" font-size="11.00">0 &gt;</text>
<polygon fill="none" stroke="black" stroke-width="2" points="9,-5 9,-157 309,-157 309,-5 9,-5"/>
</a>
</g>
</g>
</g>
</svg>
