<?xml version="1.0" encoding="UTF-8" standalone="no"?>
<!DOCTYPE svg PUBLIC "-//W3C//DTD SVG 1.1//EN"
 "http://www.w3.org/Graphics/SVG/1.1/DTD/svg11.dtd">
<!-- Generated by graphviz version 2.38.0 (20140413.2041)
 -->
<!-- Title: emission_rewards Pages: 1 -->
<svg width="287pt" height="104pt"
 viewBox="0.00 0.00 287.00 104.00" xmlns="http://www.w3.org/2000/svg" xmlns:xlink="http://www.w3.org/1999/xlink">
<g id="graph0" class="graph" transform="scale(1 1) rotate(0) translate(4 100)">
<title>emission_rewards</title>
<polygon fill="#ffffff" stroke="none" points="-4,4 -4,-100 283,-100 283,4 -4,4"/>
<!-- emission_rewards -->
<g id="node1" class="node"><title>emission_rewards</title>
<g id="a_node1"><a xlink:href="../../tables/emission_rewards.html" xlink:title="emission_rewards" target="_top">
<polygon fill="#ffffff" stroke="none" points="8,-4 8,-92 271,-92 271,-4 8,-4"/>
<polygon fill="#f5f5f5" stroke="none" points="10.5,-68 10.5,-90 269.5,-90 269.5,-68 10.5,-68"/>
<polygon fill="none" stroke="black" points="10.5,-68 10.5,-90 269.5,-90 269.5,-68 10.5,-68"/>
<text text-anchor="start" x="15.5" y="-77.2" font-family="Helvetica,sans-Serif" font-weight="bold" font-size="11.00">emission_rewards</text>
<text text-anchor="start" x="230.5" y="-76.2" font-family="Helvetica,sans-Serif" font-size="11.00">[table]</text>
<polygon fill="#ffffff" stroke="none" points="10.5,-46 10.5,-68 138.5,-68 138.5,-46 10.5,-46"/>
<polygon fill="none" stroke="black" points="10.5,-46 10.5,-68 138.5,-68 138.5,-46 10.5,-46"/>
<text text-anchor="start" x="30.5" y="-54.2" font-family="Helvetica,sans-Serif" font-size="11.00">block_range</text>
<polygon fill="none" stroke="black" points="138.5,-46 138.5,-68 269.5,-68 269.5,-46 138.5,-46"/>
<text text-anchor="start" x="141.5" y="-54.2" font-family="Helvetica,sans-Serif" font-size="11.00">int8range[2147483647]</text>
<polygon fill="none" stroke="black" points="10.5,-24 10.5,-46 138.5,-46 138.5,-24 10.5,-24"/>
<text text-anchor="start" x="30.5" y="-32.2" font-family="Helvetica,sans-Serif" font-size="11.00">reward</text>
<polygon fill="none" stroke="black" points="138.5,-24 138.5,-46 269.5,-46 269.5,-24 138.5,-24"/>
<text text-anchor="start" x="141.5" y="-32.2" font-family="Helvetica,sans-Serif" font-size="11.00">numeric[131089]</text>
<polygon fill="#ffffff" stroke="none" points="10.5,-6 10.5,-24 64.5,-24 64.5,-6 10.5,-6"/>
<polygon fill="none" stroke="black" points="10.5,-6 10.5,-24 64.5,-24 64.5,-6 10.5,-6"/>
<text text-anchor="start" x="13.5" y="-12.2" font-family="Helvetica,sans-Serif" font-size="11.00">&lt; 0</text>
<polygon fill="#ffffff" stroke="none" points="64.5,-6 64.5,-24 138.5,-24 138.5,-6 64.5,-6"/>
<polygon fill="none" stroke="black" points="64.5,-6 64.5,-24 138.5,-24 138.5,-6 64.5,-6"/>
<text text-anchor="start" x="99.5" y="-12.2" font-family="Helvetica,sans-Serif" font-size="11.00">0 rows</text>
<polygon fill="#ffffff" stroke="none" points="138.5,-6 138.5,-24 269.5,-24 269.5,-6 138.5,-6"/>
<polygon fill="none" stroke="black" points="138.5,-6 138.5,-24 269.5,-24 269.5,-6 138.5,-6"/>
<text text-anchor="start" x="249.5" y="-12.2" font-family="Helvetica,sans-Serif" font-size="11.00">0 &gt;</text>
<polygon fill="none" stroke="black" stroke-width="2" points="9,-5 9,-91 270,-91 270,-5 9,-5"/>
</a>
</g>
</g>
</g>
</svg>
