<?xml version="1.0" encoding="UTF-8" standalone="no"?>
<!DOCTYPE svg PUBLIC "-//W3C//DTD SVG 1.1//EN"
 "http://www.w3.org/Graphics/SVG/1.1/DTD/svg11.dtd">
<!-- Generated by graphviz version 2.38.0 (20140413.2041)
 -->
<!-- Title: market_history Pages: 1 -->
<svg width="237pt" height="148pt"
 viewBox="0.00 0.00 237.00 148.00" xmlns="http://www.w3.org/2000/svg" xmlns:xlink="http://www.w3.org/1999/xlink">
<g id="graph0" class="graph" transform="scale(1 1) rotate(0) translate(4 144)">
<title>market_history</title>
<polygon fill="#ffffff" stroke="none" points="-4,4 -4,-144 233,-144 233,4 -4,4"/>
<!-- market_history -->
<g id="node1" class="node"><title>market_history</title>
<g id="a_node1"><a xlink:href="../../tables/market_history.html" xlink:title="market_history" target="_top">
<polygon fill="#ffffff" stroke="none" points="8,-4 8,-136 221,-136 221,-4 8,-4"/>
<polygon fill="#f5f5f5" stroke="none" points="10.5,-112 10.5,-134 219.5,-134 219.5,-112 10.5,-112"/>
<polygon fill="none" stroke="black" points="10.5,-112 10.5,-134 219.5,-134 219.5,-112 10.5,-112"/>
<text text-anchor="start" x="15.5" y="-121.2" font-family="Helvetica,sans-Serif" font-weight="bold" font-size="11.00">market_history</text>
<text text-anchor="start" x="180.5" y="-120.2" font-family="Helvetica,sans-Serif" font-size="11.00">[table]</text>
<polygon fill="none" stroke="black" points="10.5,-90 10.5,-112 122.5,-112 122.5,-90 10.5,-90"/>
<image xlink:href="../../images/primaryKeys.png" width="11px" height="12px" preserveAspectRatio="xMinYMin meet" x="15.5" y="-107"/>
<text text-anchor="start" x="30.5" y="-98.2" font-family="Helvetica,sans-Serif" font-size="11.00">id</text>
<polygon fill="none" stroke="black" points="122.5,-90 122.5,-112 219.5,-112 219.5,-90 122.5,-90"/>
<text text-anchor="start" x="125.5" y="-98.2" font-family="Helvetica,sans-Serif" font-size="11.00">bigserial[19]</text>
<polygon fill="#ffffff" stroke="none" points="10.5,-68 10.5,-90 122.5,-90 122.5,-68 10.5,-68"/>
<polygon fill="none" stroke="black" points="10.5,-68 10.5,-90 122.5,-90 122.5,-68 10.5,-68"/>
<text text-anchor="start" x="30.5" y="-76.2" font-family="Helvetica,sans-Serif" font-size="11.00">date</text>
<polygon fill="none" stroke="black" points="122.5,-68 122.5,-90 219.5,-90 219.5,-68 122.5,-68"/>
<text text-anchor="start" x="125.5" y="-76.2" font-family="Helvetica,sans-Serif" font-size="11.00">date[13]</text>
<polygon fill="none" stroke="black" points="10.5,-46 10.5,-68 122.5,-68 122.5,-46 10.5,-46"/>
<text text-anchor="start" x="30.5" y="-54.2" font-family="Helvetica,sans-Serif" font-size="11.00">closing_price</text>
<polygon fill="none" stroke="black" points="122.5,-46 122.5,-68 219.5,-68 219.5,-46 122.5,-46"/>
<text text-anchor="start" x="125.5" y="-54.2" font-family="Helvetica,sans-Serif" font-size="11.00">numeric[131089]</text>
<polygon fill="none" stroke="black" points="10.5,-24 10.5,-46 122.5,-46 122.5,-24 10.5,-24"/>
<text text-anchor="start" x="30.5" y="-32.2" font-family="Helvetica,sans-Serif" font-size="11.00">opening_price</text>
<polygon fill="none" stroke="black" points="122.5,-24 122.5,-46 219.5,-46 219.5,-24 122.5,-24"/>
<text text-anchor="start" x="125.5" y="-32.2" font-family="Helvetica,sans-Serif" font-size="11.00">numeric[131089]</text>
<polygon fill="#ffffff" stroke="none" points="10.5,-6 10.5,-24 50.5,-24 50.5,-6 10.5,-6"/>
<polygon fill="none" stroke="black" points="10.5,-6 10.5,-24 50.5,-24 50.5,-6 10.5,-6"/>
<text text-anchor="start" x="13.5" y="-12.2" font-family="Helvetica,sans-Serif" font-size="11.00">&lt; 0</text>
<polygon fill="#ffffff" stroke="none" points="50.5,-6 50.5,-24 122.5,-24 122.5,-6 50.5,-6"/>
<polygon fill="none" stroke="black" points="50.5,-6 50.5,-24 122.5,-24 122.5,-6 50.5,-6"/>
<text text-anchor="start" x="70.5" y="-12.2" font-family="Helvetica,sans-Serif" font-size="11.00">367 rows</text>
<polygon fill="#ffffff" stroke="none" points="122.5,-6 122.5,-24 219.5,-24 219.5,-6 122.5,-6"/>
<polygon fill="none" stroke="black" points="122.5,-6 122.5,-24 219.5,-24 219.5,-6 122.5,-6"/>
<text text-anchor="start" x="199.5" y="-12.2" font-family="Helvetica,sans-Serif" font-size="11.00">0 &gt;</text>
<polygon fill="none" stroke="black" stroke-width="2" points="9,-5 9,-135 220,-135 220,-5 9,-5"/>
</a>
</g>
</g>
</g>
</svg>
