<?xml version="1.0" encoding="UTF-8" standalone="no"?>
<!DOCTYPE svg PUBLIC "-//W3C//DTD SVG 1.1//EN"
 "http://www.w3.org/Graphics/SVG/1.1/DTD/svg11.dtd">
<!-- Generated by graphviz version 2.38.0 (20140413.2041)
 -->
<!-- Title: schema_migrations Pages: 1 -->
<svg width="248pt" height="104pt"
 viewBox="0.00 0.00 248.00 104.00" xmlns="http://www.w3.org/2000/svg" xmlns:xlink="http://www.w3.org/1999/xlink">
<g id="graph0" class="graph" transform="scale(1 1) rotate(0) translate(4 100)">
<title>schema_migrations</title>
<polygon fill="#ffffff" stroke="none" points="-4,4 -4,-100 244,-100 244,4 -4,4"/>
<!-- schema_migrations -->
<g id="node1" class="node"><title>schema_migrations</title>
<g id="a_node1"><a xlink:href="../../tables/schema_migrations.html" xlink:title="schema_migrations" target="_top">
<polygon fill="#ffffff" stroke="none" points="8,-4 8,-92 232,-92 232,-4 8,-4"/>
<polygon fill="#f5f5f5" stroke="none" points="10,-68 10,-90 230,-90 230,-68 10,-68"/>
<polygon fill="none" stroke="black" points="10,-68 10,-90 230,-90 230,-68 10,-68"/>
<text text-anchor="start" x="15" y="-77.2" font-family="Helvetica,sans-Serif" font-weight="bold" font-size="11.00">schema_migrations</text>
<text text-anchor="start" x="191" y="-76.2" font-family="Helvetica,sans-Serif" font-size="11.00">[table]</text>
<polygon fill="none" stroke="black" points="10,-46 10,-68 147,-68 147,-46 10,-46"/>
<image xlink:href="../../images/primaryKeys.png" width="11px" height="12px" preserveAspectRatio="xMinYMin meet" x="15" y="-63"/>
<text text-anchor="start" x="30" y="-54.2" font-family="Helvetica,sans-Serif" font-size="11.00">version</text>
<polygon fill="none" stroke="black" points="147,-46 147,-68 230,-68 230,-46 147,-46"/>
<text text-anchor="start" x="150" y="-54.2" font-family="Helvetica,sans-Serif" font-size="11.00">int8[19]</text>
<polygon fill="none" stroke="black" points="10,-24 10,-46 147,-46 147,-24 10,-24"/>
<text text-anchor="start" x="30" y="-32.2" font-family="Helvetica,sans-Serif" font-size="11.00">inserted_at</text>
<polygon fill="none" stroke="black" points="147,-24 147,-46 230,-46 230,-24 147,-24"/>
<text text-anchor="start" x="150" y="-32.2" font-family="Helvetica,sans-Serif" font-size="11.00">timestamp[22]</text>
<polygon fill="#ffffff" stroke="none" points="10,-6 10,-24 62,-24 62,-6 10,-6"/>
<polygon fill="none" stroke="black" points="10,-6 10,-24 62,-24 62,-6 10,-6"/>
<text text-anchor="start" x="13" y="-12.2" font-family="Helvetica,sans-Serif" font-size="11.00">&lt; 0</text>
<polygon fill="#ffffff" stroke="none" points="62,-6 62,-24 147,-24 147,-6 62,-6"/>
<polygon fill="none" stroke="black" points="62,-6 62,-24 147,-24 147,-6 62,-6"/>
<text text-anchor="start" x="95" y="-12.2" font-family="Helvetica,sans-Serif" font-size="11.00">153 rows</text>
<polygon fill="#ffffff" stroke="none" points="147,-6 147,-24 230,-24 230,-6 147,-6"/>
<polygon fill="none" stroke="black" points="147,-6 147,-24 230,-24 230,-6 147,-6"/>
<text text-anchor="start" x="210" y="-12.2" font-family="Helvetica,sans-Serif" font-size="11.00">0 &gt;</text>
<polygon fill="none" stroke="black" stroke-width="2" points="9,-5 9,-91 231,-91 231,-5 9,-5"/>
</a>
</g>
</g>
</g>
</svg>
