<?xml version="1.0" encoding="UTF-8" standalone="no"?>
<!DOCTYPE svg PUBLIC "-//W3C//DTD SVG 1.1//EN"
 "http://www.w3.org/Graphics/SVG/1.1/DTD/svg11.dtd">
<!-- Generated by graphviz version 2.38.0 (20140413.2041)
 -->
<!-- Title: staking_pools_delegators Pages: 1 -->
<svg width="352pt" height="390pt"
 viewBox="0.00 0.00 352.00 390.00" xmlns="http://www.w3.org/2000/svg" xmlns:xlink="http://www.w3.org/1999/xlink">
<g id="graph0" class="graph" transform="scale(1 1) rotate(0) translate(4 386)">
<title>staking_pools_delegators</title>
<polygon fill="#ffffff" stroke="none" points="-4,4 -4,-386 348,-386 348,4 -4,4"/>
<!-- staking_pools_delegators -->
<g id="node1" class="node"><title>staking_pools_delegators</title>
<g id="a_node1"><a xlink:href="../../tables/staking_pools_delegators.html" xlink:title="staking_pools_delegators" target="_top">
<polygon fill="#ffffff" stroke="none" points="8,-4 8,-378 336,-378 336,-4 8,-4"/>
<polygon fill="#f5f5f5" stroke="none" points="10,-354 10,-376 334,-376 334,-354 10,-354"/>
<polygon fill="none" stroke="black" points="10,-354 10,-376 334,-376 334,-354 10,-354"/>
<text text-anchor="start" x="15" y="-363.2" font-family="Helvetica,sans-Serif" font-weight="bold" font-size="11.00">staking_pools_delegators</text>
<text text-anchor="start" x="295" y="-362.2" font-family="Helvetica,sans-Serif" font-size="11.00">[table]</text>
<polygon fill="none" stroke="black" points="10,-332 10,-354 224,-354 224,-332 10,-332"/>
<image xlink:href="../../images/primaryKeys.png" width="11px" height="12px" preserveAspectRatio="xMinYMin meet" x="15" y="-349"/>
<text text-anchor="start" x="30" y="-340.2" font-family="Helvetica,sans-Serif" font-size="11.00">id</text>
<polygon fill="none" stroke="black" points="224,-332 224,-354 334,-354 334,-332 224,-332"/>
<text text-anchor="start" x="227" y="-340.2" font-family="Helvetica,sans-Serif" font-size="11.00">bigserial[19]</text>
<polygon fill="#ffffff" stroke="none" points="10,-310 10,-332 224,-332 224,-310 10,-310"/>
<polygon fill="none" stroke="black" points="10,-310 10,-332 224,-332 224,-310 10,-310"/>
<text text-anchor="start" x="30" y="-318.2" font-family="Helvetica,sans-Serif" font-size="11.00">address_hash</text>
<polygon fill="none" stroke="black" points="224,-310 224,-332 334,-332 334,-310 224,-310"/>
<text text-anchor="start" x="227" y="-318.2" font-family="Helvetica,sans-Serif" font-size="11.00">bytea[2147483647]</text>
<polygon fill="#ffffff" stroke="none" points="10,-288 10,-310 224,-310 224,-288 10,-288"/>
<polygon fill="none" stroke="black" points="10,-288 10,-310 224,-310 224,-288 10,-288"/>
<text text-anchor="start" x="30" y="-296.2" font-family="Helvetica,sans-Serif" font-size="11.00">is_active</text>
<polygon fill="none" stroke="black" points="224,-288 224,-310 334,-310 334,-288 224,-288"/>
<text text-anchor="start" x="227" y="-296.2" font-family="Helvetica,sans-Serif" font-size="11.00">bool[1]</text>
<polygon fill="none" stroke="black" points="10,-266 10,-288 224,-288 224,-266 10,-266"/>
<text text-anchor="start" x="30" y="-274.2" font-family="Helvetica,sans-Serif" font-size="11.00">is_deleted</text>
<polygon fill="none" stroke="black" points="224,-266 224,-288 334,-288 334,-266 224,-266"/>
<text text-anchor="start" x="227" y="-274.2" font-family="Helvetica,sans-Serif" font-size="11.00">bool[1]</text>
<polygon fill="none" stroke="black" points="10,-244 10,-266 224,-266 224,-244 10,-244"/>
<text text-anchor="start" x="30" y="-252.2" font-family="Helvetica,sans-Serif" font-size="11.00">max_ordered_withdraw_allowed</text>
<polygon fill="none" stroke="black" points="224,-244 224,-266 334,-266 334,-244 224,-244"/>
<text text-anchor="start" x="227" y="-252.2" font-family="Helvetica,sans-Serif" font-size="11.00">numeric[100]</text>
<polygon fill="none" stroke="black" points="10,-222 10,-244 224,-244 224,-222 10,-222"/>
<text text-anchor="start" x="30" y="-230.2" font-family="Helvetica,sans-Serif" font-size="11.00">max_withdraw_allowed</text>
<polygon fill="none" stroke="black" points="224,-222 224,-244 334,-244 334,-222 224,-222"/>
<text text-anchor="start" x="227" y="-230.2" font-family="Helvetica,sans-Serif" font-size="11.00">numeric[100]</text>
<polygon fill="none" stroke="black" points="10,-200 10,-222 224,-222 224,-200 10,-200"/>
<text text-anchor="start" x="30" y="-208.2" font-family="Helvetica,sans-Serif" font-size="11.00">ordered_withdraw</text>
<polygon fill="none" stroke="black" points="224,-200 224,-222 334,-222 334,-200 224,-200"/>
<text text-anchor="start" x="227" y="-208.2" font-family="Helvetica,sans-Serif" font-size="11.00">numeric[100]</text>
<polygon fill="none" stroke="black" points="10,-178 10,-200 224,-200 224,-178 10,-178"/>
<text text-anchor="start" x="30" y="-186.2" font-family="Helvetica,sans-Serif" font-size="11.00">ordered_withdraw_epoch</text>
<polygon fill="none" stroke="black" points="224,-178 224,-200 334,-200 334,-178 224,-178"/>
<text text-anchor="start" x="227" y="-186.2" font-family="Helvetica,sans-Serif" font-size="11.00">int4[10]</text>
<polygon fill="none" stroke="black" points="10,-156 10,-178 224,-178 224,-156 10,-156"/>
<text text-anchor="start" x="30" y="-164.2" font-family="Helvetica,sans-Serif" font-size="11.00">reward_ratio</text>
<polygon fill="none" stroke="black" points="224,-156 224,-178 334,-178 334,-156 224,-156"/>
<text text-anchor="start" x="227" y="-164.2" font-family="Helvetica,sans-Serif" font-size="11.00">numeric[5,2]</text>
<polygon fill="none" stroke="black" points="10,-134 10,-156 224,-156 224,-134 10,-134"/>
<text text-anchor="start" x="30" y="-142.2" font-family="Helvetica,sans-Serif" font-size="11.00">snapshotted_reward_ratio</text>
<polygon fill="none" stroke="black" points="224,-134 224,-156 334,-156 334,-134 224,-134"/>
<text text-anchor="start" x="227" y="-142.2" font-family="Helvetica,sans-Serif" font-size="11.00">numeric[5,2]</text>
<polygon fill="#ffffff" stroke="none" points="10,-112 10,-134 224,-134 224,-112 10,-112"/>
<polygon fill="none" stroke="black" points="10,-112 10,-134 224,-134 224,-112 10,-112"/>
<text text-anchor="start" x="30" y="-120.2" font-family="Helvetica,sans-Serif" font-size="11.00">snapshotted_stake_amount</text>
<polygon fill="none" stroke="black" points="224,-112 224,-134 334,-134 334,-112 224,-112"/>
<text text-anchor="start" x="227" y="-120.2" font-family="Helvetica,sans-Serif" font-size="11.00">numeric[100]</text>
<polygon fill="none" stroke="black" points="10,-90 10,-112 224,-112 224,-90 10,-90"/>
<text text-anchor="start" x="30" y="-98.2" font-family="Helvetica,sans-Serif" font-size="11.00">stake_amount</text>
<polygon fill="none" stroke="black" points="224,-90 224,-112 334,-112 334,-90 224,-90"/>
<text text-anchor="start" x="227" y="-98.2" font-family="Helvetica,sans-Serif" font-size="11.00">numeric[100]</text>
<polygon fill="#ffffff" stroke="none" points="10,-68 10,-90 224,-90 224,-68 10,-68"/>
<polygon fill="none" stroke="black" points="10,-68 10,-90 224,-90 224,-68 10,-68"/>
<text text-anchor="start" x="30" y="-76.2" font-family="Helvetica,sans-Serif" font-size="11.00">staking_address_hash</text>
<polygon fill="none" stroke="black" points="224,-68 224,-90 334,-90 334,-68 224,-68"/>
<text text-anchor="start" x="227" y="-76.2" font-family="Helvetica,sans-Serif" font-size="11.00">bytea[2147483647]</text>
<polygon fill="none" stroke="black" points="10,-46 10,-68 224,-68 224,-46 10,-46"/>
<text text-anchor="start" x="30" y="-54.2" font-family="Helvetica,sans-Serif" font-size="11.00">inserted_at</text>
<polygon fill="none" stroke="black" points="224,-46 224,-68 334,-68 334,-46 224,-46"/>
<text text-anchor="start" x="227" y="-54.2" font-family="Helvetica,sans-Serif" font-size="11.00">timestamp[29,6]</text>
<polygon fill="none" stroke="black" points="10,-24 10,-46 224,-46 224,-24 10,-24"/>
<text text-anchor="start" x="30" y="-32.2" font-family="Helvetica,sans-Serif" font-size="11.00">updated_at</text>
<polygon fill="none" stroke="black" points="224,-24 224,-46 334,-46 334,-24 224,-24"/>
<text text-anchor="start" x="227" y="-32.2" font-family="Helvetica,sans-Serif" font-size="11.00">timestamp[29,6]</text>
<polygon fill="#ffffff" stroke="none" points="10,-6 10,-24 107,-24 107,-6 10,-6"/>
<polygon fill="none" stroke="black" points="10,-6 10,-24 107,-24 107,-6 10,-6"/>
<text text-anchor="start" x="13" y="-12.2" font-family="Helvetica,sans-Serif" font-size="11.00">&lt; 0</text>
<polygon fill="#ffffff" stroke="none" points="107,-6 107,-24 224,-24 224,-6 107,-6"/>
<polygon fill="none" stroke="black" points="107,-6 107,-24 224,-24 224,-6 107,-6"/>
<text text-anchor="start" x="185" y="-12.2" font-family="Helvetica,sans-Serif" font-size="11.00">0 rows</text>
<polygon fill="#ffffff" stroke="none" points="224,-6 224,-24 334,-24 334,-6 224,-6"/>
<polygon fill="none" stroke="black" points="224,-6 224,-24 334,-24 334,-6 224,-6"/>
<text text-anchor="start" x="314" y="-12.2" font-family="Helvetica,sans-Serif" font-size="11.00">0 &gt;</text>
<polygon fill="none" stroke="black" stroke-width="2" points="9,-5 9,-377 335,-377 335,-5 9,-5"/>
</a>
</g>
</g>
</g>
</svg>
