<?xml version="1.0" encoding="UTF-8" standalone="no"?>
<!DOCTYPE svg PUBLIC "-//W3C//DTD SVG 1.1//EN"
 "http://www.w3.org/Graphics/SVG/1.1/DTD/svg11.dtd">
<!-- Generated by graphviz version 2.38.0 (20140413.2041)
 -->
<!-- Title: staking_pools Pages: 1 -->
<svg width="375pt" height="676pt"
 viewBox="0.00 0.00 375.00 676.00" xmlns="http://www.w3.org/2000/svg" xmlns:xlink="http://www.w3.org/1999/xlink">
<g id="graph0" class="graph" transform="scale(1 1) rotate(0) translate(4 672)">
<title>staking_pools</title>
<polygon fill="#ffffff" stroke="none" points="-4,4 -4,-672 371,-672 371,4 -4,4"/>
<!-- staking_pools -->
<g id="node1" class="node"><title>staking_pools</title>
<g id="a_node1"><a xlink:href="../../tables/staking_pools.html" xlink:title="staking_pools" target="_top">
<polygon fill="#ffffff" stroke="none" points="8,-4 8,-664 359,-664 359,-4 8,-4"/>
<polygon fill="#f5f5f5" stroke="none" points="10.5,-640 10.5,-662 357.5,-662 357.5,-640 10.5,-640"/>
<polygon fill="none" stroke="black" points="10.5,-640 10.5,-662 357.5,-662 357.5,-640 10.5,-640"/>
<text text-anchor="start" x="15.5" y="-649.2" font-family="Helvetica,sans-Serif" font-weight="bold" font-size="11.00">staking_pools</text>
<text text-anchor="start" x="318.5" y="-648.2" font-family="Helvetica,sans-Serif" font-size="11.00">[table]</text>
<polygon fill="none" stroke="black" points="10.5,-618 10.5,-640 247.5,-640 247.5,-618 10.5,-618"/>
<image xlink:href="../../images/primaryKeys.png" width="11px" height="12px" preserveAspectRatio="xMinYMin meet" x="15.5" y="-635"/>
<text text-anchor="start" x="30.5" y="-626.2" font-family="Helvetica,sans-Serif" font-size="11.00">id</text>
<polygon fill="none" stroke="black" points="247.5,-618 247.5,-640 357.5,-640 357.5,-618 247.5,-618"/>
<text text-anchor="start" x="250.5" y="-626.2" font-family="Helvetica,sans-Serif" font-size="11.00">bigserial[19]</text>
<polygon fill="none" stroke="black" points="10.5,-596 10.5,-618 247.5,-618 247.5,-596 10.5,-596"/>
<text text-anchor="start" x="30.5" y="-604.2" font-family="Helvetica,sans-Serif" font-size="11.00">are_delegators_banned</text>
<polygon fill="none" stroke="black" points="247.5,-596 247.5,-618 357.5,-618 357.5,-596 247.5,-596"/>
<text text-anchor="start" x="250.5" y="-604.2" font-family="Helvetica,sans-Serif" font-size="11.00">bool[1]</text>
<polygon fill="none" stroke="black" points="10.5,-574 10.5,-596 247.5,-596 247.5,-574 10.5,-574"/>
<text text-anchor="start" x="30.5" y="-582.2" font-family="Helvetica,sans-Serif" font-size="11.00">banned_delegators_until</text>
<polygon fill="none" stroke="black" points="247.5,-574 247.5,-596 357.5,-596 357.5,-574 247.5,-574"/>
<text text-anchor="start" x="250.5" y="-582.2" font-family="Helvetica,sans-Serif" font-size="11.00">int8[19]</text>
<polygon fill="none" stroke="black" points="10.5,-552 10.5,-574 247.5,-574 247.5,-552 10.5,-552"/>
<text text-anchor="start" x="30.5" y="-560.2" font-family="Helvetica,sans-Serif" font-size="11.00">banned_until</text>
<polygon fill="none" stroke="black" points="247.5,-552 247.5,-574 357.5,-574 357.5,-552 247.5,-552"/>
<text text-anchor="start" x="250.5" y="-560.2" font-family="Helvetica,sans-Serif" font-size="11.00">int8[19]</text>
<polygon fill="none" stroke="black" points="10.5,-530 10.5,-552 247.5,-552 247.5,-530 10.5,-530"/>
<text text-anchor="start" x="30.5" y="-538.2" font-family="Helvetica,sans-Serif" font-size="11.00">ban_reason</text>
<polygon fill="none" stroke="black" points="247.5,-530 247.5,-552 357.5,-552 357.5,-530 247.5,-530"/>
<text text-anchor="start" x="250.5" y="-538.2" font-family="Helvetica,sans-Serif" font-size="11.00">varchar[255]</text>
<polygon fill="none" stroke="black" points="10.5,-508 10.5,-530 247.5,-530 247.5,-508 10.5,-508"/>
<text text-anchor="start" x="30.5" y="-516.2" font-family="Helvetica,sans-Serif" font-size="11.00">delegators_count</text>
<polygon fill="none" stroke="black" points="247.5,-508 247.5,-530 357.5,-530 357.5,-508 247.5,-508"/>
<text text-anchor="start" x="250.5" y="-516.2" font-family="Helvetica,sans-Serif" font-size="11.00">int4[10]</text>
<polygon fill="none" stroke="black" points="10.5,-486 10.5,-508 247.5,-508 247.5,-486 10.5,-486"/>
<text text-anchor="start" x="30.5" y="-494.2" font-family="Helvetica,sans-Serif" font-size="11.00">is_active</text>
<polygon fill="none" stroke="black" points="247.5,-486 247.5,-508 357.5,-508 357.5,-486 247.5,-486"/>
<text text-anchor="start" x="250.5" y="-494.2" font-family="Helvetica,sans-Serif" font-size="11.00">bool[1]</text>
<polygon fill="none" stroke="black" points="10.5,-464 10.5,-486 247.5,-486 247.5,-464 10.5,-464"/>
<text text-anchor="start" x="30.5" y="-472.2" font-family="Helvetica,sans-Serif" font-size="11.00">is_banned</text>
<polygon fill="none" stroke="black" points="247.5,-464 247.5,-486 357.5,-486 357.5,-464 247.5,-464"/>
<text text-anchor="start" x="250.5" y="-472.2" font-family="Helvetica,sans-Serif" font-size="11.00">bool[1]</text>
<polygon fill="none" stroke="black" points="10.5,-442 10.5,-464 247.5,-464 247.5,-442 10.5,-442"/>
<text text-anchor="start" x="30.5" y="-450.2" font-family="Helvetica,sans-Serif" font-size="11.00">is_deleted</text>
<polygon fill="none" stroke="black" points="247.5,-442 247.5,-464 357.5,-464 357.5,-442 247.5,-442"/>
<text text-anchor="start" x="250.5" y="-450.2" font-family="Helvetica,sans-Serif" font-size="11.00">bool[1]</text>
<polygon fill="none" stroke="black" points="10.5,-420 10.5,-442 247.5,-442 247.5,-420 10.5,-420"/>
<text text-anchor="start" x="30.5" y="-428.2" font-family="Helvetica,sans-Serif" font-size="11.00">is_unremovable</text>
<polygon fill="none" stroke="black" points="247.5,-420 247.5,-442 357.5,-442 357.5,-420 247.5,-420"/>
<text text-anchor="start" x="250.5" y="-428.2" font-family="Helvetica,sans-Serif" font-size="11.00">bool[1]</text>
<polygon fill="none" stroke="black" points="10.5,-398 10.5,-420 247.5,-420 247.5,-398 10.5,-398"/>
<text text-anchor="start" x="30.5" y="-406.2" font-family="Helvetica,sans-Serif" font-size="11.00">is_validator</text>
<polygon fill="none" stroke="black" points="247.5,-398 247.5,-420 357.5,-420 357.5,-398 247.5,-398"/>
<text text-anchor="start" x="250.5" y="-406.2" font-family="Helvetica,sans-Serif" font-size="11.00">bool[1]</text>
<polygon fill="none" stroke="black" points="10.5,-376 10.5,-398 247.5,-398 247.5,-376 10.5,-376"/>
<text text-anchor="start" x="30.5" y="-384.2" font-family="Helvetica,sans-Serif" font-size="11.00">likelihood</text>
<polygon fill="none" stroke="black" points="247.5,-376 247.5,-398 357.5,-398 357.5,-376 247.5,-376"/>
<text text-anchor="start" x="250.5" y="-384.2" font-family="Helvetica,sans-Serif" font-size="11.00">numeric[5,2]</text>
<polygon fill="#ffffff" stroke="none" points="10.5,-354 10.5,-376 247.5,-376 247.5,-354 10.5,-354"/>
<polygon fill="none" stroke="black" points="10.5,-354 10.5,-376 247.5,-376 247.5,-354 10.5,-354"/>
<text text-anchor="start" x="30.5" y="-362.2" font-family="Helvetica,sans-Serif" font-size="11.00">mining_address_hash</text>
<polygon fill="none" stroke="black" points="247.5,-354 247.5,-376 357.5,-376 357.5,-354 247.5,-354"/>
<text text-anchor="start" x="250.5" y="-362.2" font-family="Helvetica,sans-Serif" font-size="11.00">bytea[2147483647]</text>
<polygon fill="none" stroke="black" points="10.5,-332 10.5,-354 247.5,-354 247.5,-332 10.5,-332"/>
<text text-anchor="start" x="30.5" y="-340.2" font-family="Helvetica,sans-Serif" font-size="11.00">self_staked_amount</text>
<polygon fill="none" stroke="black" points="247.5,-332 247.5,-354 357.5,-354 357.5,-332 247.5,-332"/>
<text text-anchor="start" x="250.5" y="-340.2" font-family="Helvetica,sans-Serif" font-size="11.00">numeric[100]</text>
<polygon fill="none" stroke="black" points="10.5,-310 10.5,-332 247.5,-332 247.5,-310 10.5,-310"/>
<text text-anchor="start" x="30.5" y="-318.2" font-family="Helvetica,sans-Serif" font-size="11.00">snapshotted_self_staked_amount</text>
<polygon fill="none" stroke="black" points="247.5,-310 247.5,-332 357.5,-332 357.5,-310 247.5,-310"/>
<text text-anchor="start" x="250.5" y="-318.2" font-family="Helvetica,sans-Serif" font-size="11.00">numeric[100]</text>
<polygon fill="none" stroke="black" points="10.5,-288 10.5,-310 247.5,-310 247.5,-288 10.5,-288"/>
<text text-anchor="start" x="30.5" y="-296.2" font-family="Helvetica,sans-Serif" font-size="11.00">snapshotted_total_staked_amount</text>
<polygon fill="none" stroke="black" points="247.5,-288 247.5,-310 357.5,-310 357.5,-288 247.5,-288"/>
<text text-anchor="start" x="250.5" y="-296.2" font-family="Helvetica,sans-Serif" font-size="11.00">numeric[100]</text>
<polygon fill="none" stroke="black" points="10.5,-266 10.5,-288 247.5,-288 247.5,-266 10.5,-266"/>
<text text-anchor="start" x="30.5" y="-274.2" font-family="Helvetica,sans-Serif" font-size="11.00">snapshotted_validator_reward_ratio</text>
<polygon fill="none" stroke="black" points="247.5,-266 247.5,-288 357.5,-288 357.5,-266 247.5,-266"/>
<text text-anchor="start" x="250.5" y="-274.2" font-family="Helvetica,sans-Serif" font-size="11.00">numeric[5,2]</text>
<polygon fill="none" stroke="black" points="10.5,-244 10.5,-266 247.5,-266 247.5,-244 10.5,-244"/>
<text text-anchor="start" x="30.5" y="-252.2" font-family="Helvetica,sans-Serif" font-size="11.00">stakes_ratio</text>
<polygon fill="none" stroke="black" points="247.5,-244 247.5,-266 357.5,-266 357.5,-244 247.5,-244"/>
<text text-anchor="start" x="250.5" y="-252.2" font-family="Helvetica,sans-Serif" font-size="11.00">numeric[5,2]</text>
<polygon fill="#ffffff" stroke="none" points="10.5,-222 10.5,-244 247.5,-244 247.5,-222 10.5,-222"/>
<polygon fill="none" stroke="black" points="10.5,-222 10.5,-244 247.5,-244 247.5,-222 10.5,-222"/>
<text text-anchor="start" x="30.5" y="-230.2" font-family="Helvetica,sans-Serif" font-size="11.00">staking_address_hash</text>
<polygon fill="none" stroke="black" points="247.5,-222 247.5,-244 357.5,-244 357.5,-222 247.5,-222"/>
<text text-anchor="start" x="250.5" y="-230.2" font-family="Helvetica,sans-Serif" font-size="11.00">bytea[2147483647]</text>
<polygon fill="none" stroke="black" points="10.5,-200 10.5,-222 247.5,-222 247.5,-200 10.5,-200"/>
<text text-anchor="start" x="30.5" y="-208.2" font-family="Helvetica,sans-Serif" font-size="11.00">total_staked_amount</text>
<polygon fill="none" stroke="black" points="247.5,-200 247.5,-222 357.5,-222 357.5,-200 247.5,-200"/>
<text text-anchor="start" x="250.5" y="-208.2" font-family="Helvetica,sans-Serif" font-size="11.00">numeric[100]</text>
<polygon fill="none" stroke="black" points="10.5,-178 10.5,-200 247.5,-200 247.5,-178 10.5,-178"/>
<text text-anchor="start" x="30.5" y="-186.2" font-family="Helvetica,sans-Serif" font-size="11.00">validator_reward_percent</text>
<polygon fill="none" stroke="black" points="247.5,-178 247.5,-200 357.5,-200 357.5,-178 247.5,-178"/>
<text text-anchor="start" x="250.5" y="-186.2" font-family="Helvetica,sans-Serif" font-size="11.00">numeric[5,2]</text>
<polygon fill="none" stroke="black" points="10.5,-156 10.5,-178 247.5,-178 247.5,-156 10.5,-156"/>
<text text-anchor="start" x="30.5" y="-164.2" font-family="Helvetica,sans-Serif" font-size="11.00">validator_reward_ratio</text>
<polygon fill="none" stroke="black" points="247.5,-156 247.5,-178 357.5,-178 357.5,-156 247.5,-156"/>
<text text-anchor="start" x="250.5" y="-164.2" font-family="Helvetica,sans-Serif" font-size="11.00">numeric[5,2]</text>
<polygon fill="none" stroke="black" points="10.5,-134 10.5,-156 247.5,-156 247.5,-134 10.5,-134"/>
<text text-anchor="start" x="30.5" y="-142.2" font-family="Helvetica,sans-Serif" font-size="11.00">was_banned_count</text>
<polygon fill="none" stroke="black" points="247.5,-134 247.5,-156 357.5,-156 357.5,-134 247.5,-134"/>
<text text-anchor="start" x="250.5" y="-142.2" font-family="Helvetica,sans-Serif" font-size="11.00">int4[10]</text>
<polygon fill="none" stroke="black" points="10.5,-112 10.5,-134 247.5,-134 247.5,-112 10.5,-112"/>
<text text-anchor="start" x="30.5" y="-120.2" font-family="Helvetica,sans-Serif" font-size="11.00">was_validator_count</text>
<polygon fill="none" stroke="black" points="247.5,-112 247.5,-134 357.5,-134 357.5,-112 247.5,-112"/>
<text text-anchor="start" x="250.5" y="-120.2" font-family="Helvetica,sans-Serif" font-size="11.00">int4[10]</text>
<polygon fill="none" stroke="black" points="10.5,-90 10.5,-112 247.5,-112 247.5,-90 10.5,-90"/>
<text text-anchor="start" x="30.5" y="-98.2" font-family="Helvetica,sans-Serif" font-size="11.00">inserted_at</text>
<polygon fill="none" stroke="black" points="247.5,-90 247.5,-112 357.5,-112 357.5,-90 247.5,-90"/>
<text text-anchor="start" x="250.5" y="-98.2" font-family="Helvetica,sans-Serif" font-size="11.00">timestamp[29,6]</text>
<polygon fill="none" stroke="black" points="10.5,-68 10.5,-90 247.5,-90 247.5,-68 10.5,-68"/>
<text text-anchor="start" x="30.5" y="-76.2" font-family="Helvetica,sans-Serif" font-size="11.00">updated_at</text>
<polygon fill="none" stroke="black" points="247.5,-68 247.5,-90 357.5,-90 357.5,-68 247.5,-68"/>
<text text-anchor="start" x="250.5" y="-76.2" font-family="Helvetica,sans-Serif" font-size="11.00">timestamp[29,6]</text>
<polygon fill="none" stroke="black" points="10.5,-46 10.5,-68 247.5,-68 247.5,-46 10.5,-46"/>
<text text-anchor="start" x="30.5" y="-54.2" font-family="Helvetica,sans-Serif" font-size="11.00">name</text>
<polygon fill="none" stroke="black" points="247.5,-46 247.5,-68 357.5,-68 357.5,-46 247.5,-46"/>
<text text-anchor="start" x="250.5" y="-54.2" font-family="Helvetica,sans-Serif" font-size="11.00">varchar[256]</text>
<polygon fill="none" stroke="black" points="10.5,-24 10.5,-46 247.5,-46 247.5,-24 10.5,-24"/>
<text text-anchor="start" x="30.5" y="-32.2" font-family="Helvetica,sans-Serif" font-size="11.00">description</text>
<polygon fill="none" stroke="black" points="247.5,-24 247.5,-46 357.5,-46 357.5,-24 247.5,-24"/>
<text text-anchor="start" x="250.5" y="-32.2" font-family="Helvetica,sans-Serif" font-size="11.00">varchar[1024]</text>
<polygon fill="#ffffff" stroke="none" points="10.5,-6 10.5,-24 119.5,-24 119.5,-6 10.5,-6"/>
<polygon fill="none" stroke="black" points="10.5,-6 10.5,-24 119.5,-24 119.5,-6 10.5,-6"/>
<text text-anchor="start" x="13.5" y="-12.2" font-family="Helvetica,sans-Serif" font-size="11.00">&lt; 0</text>
<polygon fill="#ffffff" stroke="none" points="119.5,-6 119.5,-24 247.5,-24 247.5,-6 119.5,-6"/>
<polygon fill="none" stroke="black" points="119.5,-6 119.5,-24 247.5,-24 247.5,-6 119.5,-6"/>
<text text-anchor="start" x="208.5" y="-12.2" font-family="Helvetica,sans-Serif" font-size="11.00">0 rows</text>
<polygon fill="#ffffff" stroke="none" points="247.5,-6 247.5,-24 357.5,-24 357.5,-6 247.5,-6"/>
<polygon fill="none" stroke="black" points="247.5,-6 247.5,-24 357.5,-24 357.5,-6 247.5,-6"/>
<text text-anchor="start" x="337.5" y="-12.2" font-family="Helvetica,sans-Serif" font-size="11.00">0 &gt;</text>
<polygon fill="none" stroke="black" stroke-width="2" points="9,-5 9,-663 358,-663 358,-5 9,-5"/>
</a>
</g>
</g>
</g>
</svg>
