<?xml version="1.0" encoding="UTF-8" standalone="no"?>
<!DOCTYPE svg PUBLIC "-//W3C//DTD SVG 1.1//EN"
 "http://www.w3.org/Graphics/SVG/1.1/DTD/svg11.dtd">
<!-- Generated by graphviz version 2.38.0 (20140413.2041)
 -->
<!-- Title: transaction_stats Pages: 1 -->
<svg width="270pt" height="170pt"
 viewBox="0.00 0.00 270.00 170.00" xmlns="http://www.w3.org/2000/svg" xmlns:xlink="http://www.w3.org/1999/xlink">
<g id="graph0" class="graph" transform="scale(1 1) rotate(0) translate(4 166)">
<title>transaction_stats</title>
<polygon fill="#ffffff" stroke="none" points="-4,4 -4,-166 266,-166 266,4 -4,4"/>
<!-- transaction_stats -->
<g id="node1" class="node"><title>transaction_stats</title>
<g id="a_node1"><a xlink:href="../../tables/transaction_stats.html" xlink:title="transaction_stats" target="_top">
<polygon fill="#ffffff" stroke="none" points="8,-4 8,-158 254,-158 254,-4 8,-4"/>
<polygon fill="#f5f5f5" stroke="none" points="10,-134 10,-156 252,-156 252,-134 10,-134"/>
<polygon fill="none" stroke="black" points="10,-134 10,-156 252,-156 252,-134 10,-134"/>
<text text-anchor="start" x="15" y="-143.2" font-family="Helvetica,sans-Serif" font-weight="bold" font-size="11.00">transaction_stats</text>
<text text-anchor="start" x="213" y="-142.2" font-family="Helvetica,sans-Serif" font-size="11.00">[table]</text>
<polygon fill="none" stroke="black" points="10,-112 10,-134 175,-134 175,-112 10,-112"/>
<image xlink:href="../../images/primaryKeys.png" width="11px" height="12px" preserveAspectRatio="xMinYMin meet" x="15" y="-129"/>
<text text-anchor="start" x="30" y="-120.2" font-family="Helvetica,sans-Serif" font-size="11.00">id</text>
<polygon fill="none" stroke="black" points="175,-112 175,-134 252,-134 252,-112 175,-112"/>
<text text-anchor="start" x="178" y="-120.2" font-family="Helvetica,sans-Serif" font-size="11.00">bigserial[19]</text>
<polygon fill="#ffffff" stroke="none" points="10,-90 10,-112 175,-112 175,-90 10,-90"/>
<polygon fill="none" stroke="black" points="10,-90 10,-112 175,-112 175,-90 10,-90"/>
<text text-anchor="start" x="30" y="-98.2" font-family="Helvetica,sans-Serif" font-size="11.00">date</text>
<polygon fill="none" stroke="black" points="175,-90 175,-112 252,-112 252,-90 175,-90"/>
<text text-anchor="start" x="178" y="-98.2" font-family="Helvetica,sans-Serif" font-size="11.00">date[13]</text>
<polygon fill="none" stroke="black" points="10,-68 10,-90 175,-90 175,-68 10,-68"/>
<text text-anchor="start" x="30" y="-76.2" font-family="Helvetica,sans-Serif" font-size="11.00">number_of_transactions</text>
<polygon fill="none" stroke="black" points="175,-68 175,-90 252,-90 252,-68 175,-68"/>
<text text-anchor="start" x="178" y="-76.2" font-family="Helvetica,sans-Serif" font-size="11.00">int4[10]</text>
<polygon fill="none" stroke="black" points="10,-46 10,-68 175,-68 175,-46 10,-46"/>
<text text-anchor="start" x="30" y="-54.2" font-family="Helvetica,sans-Serif" font-size="11.00">gas_used</text>
<polygon fill="none" stroke="black" points="175,-46 175,-68 252,-68 252,-46 175,-46"/>
<text text-anchor="start" x="178" y="-54.2" font-family="Helvetica,sans-Serif" font-size="11.00">numeric[100]</text>
<polygon fill="none" stroke="black" points="10,-24 10,-46 175,-46 175,-24 10,-24"/>
<text text-anchor="start" x="30" y="-32.2" font-family="Helvetica,sans-Serif" font-size="11.00">total_fee</text>
<polygon fill="none" stroke="black" points="175,-24 175,-46 252,-46 252,-24 175,-24"/>
<text text-anchor="start" x="178" y="-32.2" font-family="Helvetica,sans-Serif" font-size="11.00">numeric[100]</text>
<polygon fill="#ffffff" stroke="none" points="10,-6 10,-24 79,-24 79,-6 10,-6"/>
<polygon fill="none" stroke="black" points="10,-6 10,-24 79,-24 79,-6 10,-6"/>
<text text-anchor="start" x="13" y="-12.2" font-family="Helvetica,sans-Serif" font-size="11.00">&lt; 0</text>
<polygon fill="#ffffff" stroke="none" points="79,-6 79,-24 175,-24 175,-6 79,-6"/>
<polygon fill="none" stroke="black" points="79,-6 79,-24 175,-24 175,-6 79,-6"/>
<text text-anchor="start" x="129" y="-12.2" font-family="Helvetica,sans-Serif" font-size="11.00">10 rows</text>
<polygon fill="#ffffff" stroke="none" points="175,-6 175,-24 252,-24 252,-6 175,-6"/>
<polygon fill="none" stroke="black" points="175,-6 175,-24 252,-24 252,-6 175,-6"/>
<text text-anchor="start" x="232" y="-12.2" font-family="Helvetica,sans-Serif" font-size="11.00">0 &gt;</text>
<polygon fill="none" stroke="black" stroke-width="2" points="9,-5 9,-157 253,-157 253,-5 9,-5"/>
</a>
</g>
</g>
</g>
</svg>
